<svg width="80" height="80" viewBox="0 0 80 80" fill="none" xmlns="http://www.w3.org/2000/svg">
<path d="M68.8009 58.7558C65.8172 58.7558 61.5326 59.0091 59.519 59.0091C57.5055 59.0091 55.0885 61.6714 45.6477 61.6714C36.2113 61.6714 34.275 58.365 34.3523 55.9432C34.4339 53.5214 32.5492 53.2252 32.0383 50.6101C31.6476 48.6005 32.6307 48.2098 32.6307 46.9216C32.6307 45.6291 30.7245 44.9635 30.7245 42.7865C30.7245 40.6137 32.4204 38.836 32.4204 38.836C32.4204 38.836 20.159 38.836 15.8014 38.836C11.4438 38.836 6 39.201 6 34.4777C6 29.7543 11.8087 30.3211 14.8912 30.3211C17.978 30.3211 36.6749 30.2395 36.6749 30.2395C36.6749 30.2395 29.0502 28.1827 29.0502 22.2527C29.0502 16.3227 33.1802 17.4606 36.4903 20.4363C42.329 25.6836 56.1102 22.7379 60.8113 34.9586C60.8113 34.9586 61.2149 36.2768 69.9043 34.7353C69.9043 34.7353 74 35.3966 74 45.7493C74.0043 56.8836 68.8009 58.7558 68.8009 58.7558Z" fill="url(#paint0_linear)"/>
<path d="M29.5739 19.4019C29.2476 20.0717 29.0544 20.9992 29.0544 22.2574C29.0544 27.5389 35.0821 29.7418 36.4087 30.1626L42.3977 30.3859H47.8372C37.5807 28.6683 30.235 23.0646 29.5739 19.4019Z" fill="url(#paint1_linear)"/>
<path d="M29.0544 22.2571C29.0544 28.187 36.6791 30.2439 36.6791 30.2439L48.0519 30.5273C48.0519 30.5273 42.7025 28.9428 38.5553 28.7538C33.3175 28.5134 29.1574 24.8034 29.1531 20.8486C29.0887 21.2651 29.0544 21.7332 29.0544 22.2571Z" fill="url(#paint2_linear)"/>
<path d="M15.8013 38.836C20.1589 38.836 32.4203 38.836 32.4203 38.836C32.4203 38.836 31.2311 40.0856 30.849 41.7731C31.128 40.9401 33.0643 39.3384 34.1161 38.66C35.2452 37.9343 32.9827 37.4662 29.9989 37.4662C27.0152 37.4662 15.4965 37.2258 10.8384 37.2258C8.05643 37.2258 6 36.1437 6 34.4819C6 39.201 11.4438 38.836 15.8013 38.836Z" fill="url(#paint3_linear)"/>
<path d="M31.991 50.2882C31.9953 49.0859 33.5065 48.678 33.5065 46.9475C33.5065 45.2127 30.7245 44.1564 30.7245 42.7866C30.7245 44.9594 32.6307 45.6292 32.6307 46.9217C32.635 48.1369 31.7634 48.5534 31.991 50.2882Z" fill="url(#paint4_linear)"/>
<path d="M65.4737 57.6566C58.274 57.2315 63.4087 51.7867 55.6723 57.5965C51.2503 60.9157 42.9687 60.0784 39.7016 59.7134C36.4344 59.3484 35.769 56.5659 35.2839 54.6294C34.8631 52.9461 32.6908 52.3149 32.1284 50.958C32.7294 53.251 34.4338 53.6332 34.3565 55.939C34.275 58.3608 36.2112 61.6672 45.652 61.6672C55.0884 61.6672 57.5098 59.0049 59.5233 59.0049C61.5368 59.0049 65.8215 58.7516 68.8052 58.7516C68.8052 58.7516 70.5955 58.1075 72.0767 55.325C70.3594 55.8403 68.0797 57.8112 65.4737 57.6566Z" fill="url(#paint5_linear)"/>
<path d="M60.8156 34.963C58.3599 28.5779 53.427 26.3321 48.4426 24.8979C56.2691 27.7792 58.8193 35.3881 60.4507 36.4788C61.9576 37.4836 66.5556 38.2307 71.2953 35.5857C70.5312 34.8428 69.9086 34.744 69.9086 34.744C61.2192 36.2856 60.8156 34.963 60.8156 34.963Z" fill="url(#paint6_linear)"/>
<path d="M73.9958 46.4493C68.6293 45.5863 63.6491 49.5238 55.4405 49.5238C46.4291 49.5238 41.6979 55.398 32.6049 52.156C33.3476 53.4872 34.4167 54.1055 34.3566 55.9433C34.275 58.3651 36.2112 61.6715 45.652 61.6715C55.0885 61.6715 57.5098 59.0092 59.5234 59.0092C61.5369 59.0092 65.8215 58.7559 68.8053 58.7559C68.801 58.7559 73.7854 56.961 73.9958 46.4493Z" fill="url(#paint7_linear)"/>
<path opacity="0.08" d="M35.4041 37.1398C35.4041 39.6819 34.5583 41.1332 34.5583 43.19C34.5583 45.2469 35.8033 51.9025 40.2468 51.9025C44.6903 51.9025 53.7018 48.2698 54.8395 44.2764C55.9772 40.283 50.5205 33.1808 46.8841 32.5753C43.2478 31.9742 35.4041 33.1464 35.4041 37.1398Z" fill="url(#paint8_radial)"/>
<path d="M48.3482 30.5659C48.3482 30.5659 36.7565 30.2438 36.6749 30.2438L35.9365 30.0033C35.9365 29.8359 36.4431 29.7801 36.6105 29.7801C36.9454 29.7801 45.0338 29.5138 48.3482 30.5659Z" fill="#663C1D"/>
<path opacity="0.08" d="M9.61053 34.0313C9.61053 35.4483 12.9507 36.6635 19.5279 35.7532C26.1051 34.8429 34.202 37.9689 34.202 34.4822C34.202 30.9955 21.1464 32.7131 19.12 32.7131C17.0979 32.7131 9.61053 31.1973 9.61053 34.0313Z" fill="url(#paint9_radial)"/>
<defs>
<linearGradient id="paint0_linear" x1="45.6002" y1="79.0298" x2="37.8559" y2="23.9184" gradientUnits="userSpaceOnUse">
<stop offset="0.00132565" stop-color="#99643E"/>
<stop offset="1" stop-color="#AE7246"/>
</linearGradient>
<linearGradient id="paint1_linear" x1="42.1906" y1="9.9187" x2="33.6872" y2="45.9001" gradientUnits="userSpaceOnUse">
<stop offset="0.00132565" stop-color="#99643E"/>
<stop offset="1" stop-color="#AE7246"/>
</linearGradient>
<linearGradient id="paint2_linear" x1="37.0538" y1="31.4202" x2="41.6092" y2="14.5176" gradientUnits="userSpaceOnUse">
<stop offset="0.00132565" stop-color="#99643E"/>
<stop offset="1" stop-color="#AE7246"/>
</linearGradient>
<linearGradient id="paint3_linear" x1="19.9426" y1="31.9372" x2="21.6635" y2="61.492" gradientUnits="userSpaceOnUse">
<stop offset="0.00132565" stop-color="#99643E"/>
<stop offset="0.1343" stop-color="#9C663F"/>
<stop offset="1" stop-color="#AE7246"/>
</linearGradient>
<linearGradient id="paint4_linear" x1="2079.12" y1="-6.80993" x2="2110.19" y2="-7.6192" gradientUnits="userSpaceOnUse">
<stop offset="0.00132565" stop-color="#99643E"/>
<stop offset="1" stop-color="#AE7246"/>
</linearGradient>
<linearGradient id="paint5_linear" x1="49.7131" y1="22.6766" x2="53.155" y2="66.6039" gradientUnits="userSpaceOnUse">
<stop stop-color="#8D562E" stop-opacity="0"/>
<stop offset="1" stop-color="#8D562E"/>
</linearGradient>
<linearGradient id="paint6_linear" x1="58.1136" y1="41.019" x2="64.9468" y2="-0.883702" gradientUnits="userSpaceOnUse">
<stop offset="0.00132565" stop-color="#99643E"/>
<stop offset="1" stop-color="#AE7246"/>
</linearGradient>
<linearGradient id="paint7_linear" x1="52.7051" y1="41.7271" x2="55.9524" y2="83.0253" gradientUnits="userSpaceOnUse">
<stop stop-color="#8D562E" stop-opacity="0"/>
<stop offset="1" stop-color="#8D562E"/>
</linearGradient>
<radialGradient id="paint8_radial" cx="0" cy="0" r="1" gradientUnits="userSpaceOnUse" gradientTransform="translate(39.4149 42.2114) rotate(-90) scale(10.359 5.25716)">
<stop stop-color="#F8DBBA"/>
<stop offset="1" stop-color="#CD9870" stop-opacity="0"/>
</radialGradient>
<radialGradient id="paint9_radial" cx="0" cy="0" r="1" gradientUnits="userSpaceOnUse" gradientTransform="translate(21.909 34.2229) rotate(-1.58857) scale(12.7018 1.48181)">
<stop stop-color="#F8DBBA"/>
<stop offset="1" stop-color="#CD9870" stop-opacity="0"/>
</radialGradient>
</defs>
</svg>
