<svg width="80" height="80" viewBox="0 0 80 80" fill="none" xmlns="http://www.w3.org/2000/svg">
<path d="M58.748 68.7993C58.748 65.817 58.9998 61.5334 58.9998 59.5196C58.9998 57.5058 61.6624 55.0867 61.6624 45.6491C61.6624 36.2115 58.3555 34.2745 55.9361 34.3556C53.5167 34.4366 53.218 32.5508 50.6024 32.0431C48.5926 31.6548 48.2043 32.6319 46.9114 32.6319C45.6228 32.6319 44.9529 30.7247 42.781 30.7247C40.6091 30.7247 38.8341 32.4185 38.8341 32.4185C38.8341 32.4185 38.8341 20.1565 38.8341 15.8046C38.8341 11.4528 39.1968 6.00439 34.4775 6.00439C29.7582 6.00439 30.3214 11.8112 30.3214 14.8959C30.3214 17.9806 30.2404 36.6765 30.2404 36.6765C30.2404 36.6765 28.1837 29.0522 22.2526 29.0522C16.3215 29.0522 17.4608 33.178 20.4391 36.4931C25.6832 42.334 22.739 56.1106 34.9596 60.8124C34.9596 60.8124 36.2781 61.2134 34.7378 69.9044C34.7378 69.9044 35.3992 74.0002 45.7508 74.0002C56.8748 74.0002 58.748 68.7993 58.748 68.7993Z" fill="url(#paint0_linear)"/>
<path d="M19.4022 29.5728C20.0721 29.2485 20.998 29.0522 22.2568 29.0522C27.5351 29.0522 29.7411 35.0808 30.1635 36.4077L30.3854 42.3979V47.8378C28.6658 37.581 23.0633 30.2341 19.4022 29.5728Z" fill="url(#paint1_linear)"/>
<path d="M22.2569 29.0562C28.1879 29.0562 30.2446 36.6805 30.2446 36.6805L30.5262 48.0508C30.5262 48.0508 28.9432 42.7005 28.7512 38.5535C28.508 33.3142 24.8042 29.1586 20.8488 29.1543C21.2669 29.0903 21.732 29.0562 22.2569 29.0562Z" fill="url(#paint2_linear)"/>
<path d="M38.834 15.8045C38.834 20.1607 38.834 32.4185 38.834 32.4185C38.834 32.4185 40.0842 31.2324 41.7697 30.8441C40.9334 31.1257 39.3332 33.0627 38.6591 34.1123C37.9337 35.2429 37.4643 32.9817 37.4643 29.9951C37.4643 27.0128 37.2211 15.4931 37.2211 10.8383C37.2211 8.05647 36.1373 6 34.4774 6C39.1967 6.00427 38.834 11.4484 38.834 15.8045Z" fill="url(#paint3_linear)"/>
<path d="M50.2823 31.9919C49.079 31.9962 48.6736 33.5108 46.9412 33.5108C45.2089 33.5108 44.1506 30.729 42.7809 30.729C44.9528 30.729 45.6227 32.6362 46.9156 32.6362C48.1317 32.6362 48.5499 31.7615 50.2823 31.9919Z" fill="url(#paint4_linear)"/>
<path d="M57.6513 65.4715C57.2288 58.2738 51.7843 63.4065 57.5915 55.6712C60.9112 51.2511 60.0706 42.9654 59.7079 39.7015C59.3452 36.4334 56.5632 35.7678 54.626 35.2857C52.9449 34.8633 52.3134 32.6959 50.9565 32.1284C53.2478 32.73 53.6318 34.4324 55.936 34.3556C58.3553 34.2745 61.6622 36.2115 61.6622 45.6491C61.6622 55.0867 58.9996 57.5058 58.9996 59.5196C58.9996 61.5334 58.7478 65.817 58.7478 68.7994C58.7478 68.7994 58.1036 70.5913 55.3215 72.0718C55.8336 70.3567 57.8049 68.074 57.6513 65.4715Z" fill="url(#paint5_linear)"/>
<path d="M34.9639 60.8126C28.5806 58.3551 26.3362 53.4272 24.8983 48.4438C27.7827 56.2687 35.3864 58.8201 36.4744 60.4499C37.4772 61.956 38.2281 66.5511 35.5826 71.2955C34.8402 70.5318 34.7421 69.9089 34.7421 69.9089C36.2824 61.2136 34.9639 60.8126 34.9639 60.8126Z" fill="url(#paint6_linear)"/>
<path d="M46.4463 73.9918C45.5843 68.6287 49.5185 63.6454 49.5185 55.4366C49.5185 46.4257 55.3899 41.6983 52.1513 32.6021C53.4826 33.3444 54.1013 34.4153 55.9361 34.3513C58.3555 34.2703 61.6624 36.2073 61.6624 45.6449C61.6624 55.0825 58.9998 57.5016 58.9998 59.5154C58.9998 61.5292 58.7438 65.8128 58.748 68.7951C58.748 68.7994 56.9516 73.7827 46.4463 73.9918Z" fill="url(#paint7_linear)"/>
<path opacity="0.08" d="M37.1357 35.4052C39.6788 35.4052 41.1296 34.5562 43.1863 34.5562C45.243 34.5562 51.8994 35.802 51.8994 40.2434C51.8994 44.6849 48.2683 53.6958 44.2744 54.835C40.2805 55.9741 33.1845 50.5172 32.5786 46.8822C31.9727 43.2513 33.1418 35.4052 37.1357 35.4052Z" fill="url(#paint8_radial)"/>
<path d="M30.5646 48.35C30.5646 48.35 30.2403 36.7621 30.2403 36.681L29.9971 35.9429C29.8307 35.9429 29.7752 36.4463 29.7752 36.617C29.7795 36.9455 29.5107 45.0349 30.5646 48.35Z" fill="#3D2A20"/>
<path opacity="0.08" d="M34.0293 9.61377C35.4459 9.61377 36.6619 12.9545 35.7488 19.5292C34.84 26.1082 37.9633 34.2018 34.4773 34.2018C30.9913 34.2018 32.7109 21.1505 32.7109 19.1239C32.7109 17.1015 31.1919 9.61377 34.0293 9.61377Z" fill="url(#paint9_radial)"/>
<defs>
<linearGradient id="paint0_linear" x1="79.0206" y1="45.6012" x2="23.9196" y2="37.859" gradientUnits="userSpaceOnUse">
<stop offset="0.00132565" stop-color="#5A4539"/>
<stop offset="1" stop-color="#695042"/>
</linearGradient>
<linearGradient id="paint1_linear" x1="17.3621" y1="40.3189" x2="51.566" y2="32.7285" gradientUnits="userSpaceOnUse">
<stop stop-color="#3C2200" stop-opacity="0"/>
<stop offset="0.9984"/>
</linearGradient>
<linearGradient id="paint2_linear" x1="31.42" y1="37.0556" x2="14.5205" y2="41.6098" gradientUnits="userSpaceOnUse">
<stop stop-color="#3C2200" stop-opacity="0"/>
<stop offset="0.9984"/>
</linearGradient>
<linearGradient id="paint3_linear" x1="31.937" y1="19.9465" x2="61.4862" y2="21.667" gradientUnits="userSpaceOnUse">
<stop stop-color="#3C2200" stop-opacity="0"/>
<stop offset="0.9984"/>
</linearGradient>
<linearGradient id="paint4_linear" x1="-6.8065" y1="2078.91" x2="-7.61574" y2="2109.98" gradientUnits="userSpaceOnUse">
<stop stop-color="#3C2200" stop-opacity="0"/>
<stop offset="0.9984"/>
</linearGradient>
<linearGradient id="paint5_linear" x1="35.6422" y1="51.7299" x2="69.1376" y2="52.4384" gradientUnits="userSpaceOnUse">
<stop stop-color="#473226" stop-opacity="0"/>
<stop offset="1" stop-color="#3D2A20"/>
</linearGradient>
<linearGradient id="paint6_linear" x1="41.0169" y1="58.1134" x2="-0.877606" y2="64.9446" gradientUnits="userSpaceOnUse">
<stop stop-color="#3C2200" stop-opacity="0"/>
<stop offset="0.9984"/>
</linearGradient>
<linearGradient id="paint7_linear" x1="60.8027" y1="56.2256" x2="19.4139" y2="45.7002" gradientUnits="userSpaceOnUse">
<stop stop-color="#473226" stop-opacity="0"/>
<stop offset="1" stop-color="#473226"/>
</linearGradient>
<radialGradient id="paint8_radial" cx="0" cy="0" r="1" gradientUnits="userSpaceOnUse" gradientTransform="translate(42.2182 39.398) rotate(180) scale(10.3575 5.25877)">
<stop stop-color="#F8DBBA"/>
<stop offset="1" stop-color="#CD9870" stop-opacity="0"/>
</radialGradient>
<radialGradient id="paint9_radial" cx="0" cy="0" r="1" gradientUnits="userSpaceOnUse" gradientTransform="translate(34.2298 21.9061) rotate(91.5883) scale(12.7001 1.48153)">
<stop stop-color="#F8DBBA"/>
<stop offset="1" stop-color="#CD9870" stop-opacity="0"/>
</radialGradient>
</defs>
</svg>
