<svg width="80" height="80" viewBox="0 0 80 80" fill="none" xmlns="http://www.w3.org/2000/svg">
<path d="M11.1991 58.7557C14.1828 58.7557 18.4674 59.009 20.481 59.009C22.4945 59.009 24.9115 61.6713 34.3523 61.6713C43.7887 61.6713 45.725 58.3649 45.6477 55.9431C45.5704 53.5213 47.4508 53.225 47.9617 50.61C48.3524 48.6004 47.3693 48.2097 47.3693 46.9215C47.3693 45.629 49.2754 44.9635 49.2754 42.7864C49.2754 40.6137 47.5796 38.836 47.5796 38.836C47.5796 38.836 59.841 38.836 64.1986 38.836C68.5562 38.836 74 39.201 74 34.4776C74 29.7585 68.1913 30.321 65.1087 30.321C62.0219 30.321 43.3251 30.2395 43.3251 30.2395C43.3251 30.2395 50.9498 28.1826 50.9498 22.2527C50.9498 16.3227 46.8197 17.4606 43.5097 20.4363C37.6709 25.6836 23.8898 22.7379 19.1887 34.9585C19.1887 34.9585 18.7851 36.2768 10.0957 34.7352C10.0957 34.7352 6 35.3965 6 45.7492C5.99571 56.8835 11.1991 58.7557 11.1991 58.7557Z" fill="url(#paint0_linear)"/>
<path d="M50.4303 19.4062C50.7566 20.0761 50.9498 21.0036 50.9498 22.2617C50.9498 27.5433 44.9222 29.7461 43.5956 30.1669L37.6066 30.3902H32.1671C42.4192 28.6683 49.7692 23.069 50.4303 19.4062Z" fill="url(#paint1_linear)"/>
<path d="M50.9498 22.2614C50.9498 28.1914 43.325 30.2482 43.325 30.2482L31.9524 30.5316C31.9524 30.5316 37.3017 28.9471 41.4489 28.7582C46.6866 28.5177 50.8467 24.8078 50.851 20.853C50.9154 21.2695 50.9498 21.7333 50.9498 22.2614Z" fill="url(#paint2_linear)"/>
<path d="M64.1986 38.8404C59.841 38.8404 47.5796 38.8404 47.5796 38.8404C47.5796 38.8404 48.7689 40.0899 49.151 41.7775C48.8719 40.9444 46.9357 39.3428 45.8838 38.6644C44.7547 37.9387 47.0172 37.4706 50.001 37.4706C52.9848 37.4706 64.5035 37.2302 69.1616 37.2302C71.9436 37.2302 74 36.1481 74 34.4863C74 39.2011 68.5562 38.8404 64.1986 38.8404Z" fill="url(#paint3_linear)"/>
<path d="M48.009 50.2926C48.0047 49.0903 46.4935 48.6823 46.4935 46.9519C46.4935 45.2171 49.2755 44.1608 49.2755 42.791C49.2755 44.9638 47.3693 45.6336 47.3693 46.9261C47.3693 48.1413 48.2408 48.5578 48.009 50.2926Z" fill="url(#paint4_linear)"/>
<path d="M14.5264 57.661C21.7261 57.2359 16.5914 51.7911 24.3277 57.6009C28.7497 60.9201 37.0313 60.0828 40.2984 59.7178C43.5655 59.3528 44.231 56.5703 44.7161 54.6337C45.1368 52.9505 47.3092 52.3193 47.8716 50.9624C47.2705 53.2554 45.5662 53.6375 45.6434 55.9434C45.725 58.3652 43.7888 61.6715 34.348 61.6715C24.9116 61.6715 22.4903 59.0093 20.4768 59.0093C18.4633 59.0093 14.1786 58.7559 11.1949 58.7559C11.1949 58.7559 9.40461 58.1118 7.92346 55.3294C9.64074 55.8446 11.9247 57.8156 14.5264 57.661Z" fill="url(#paint5_linear)"/>
<path d="M19.1888 34.9674C21.6445 28.5823 26.5773 26.3365 31.5617 24.9023C23.7352 27.7836 21.1851 35.3925 19.5537 36.4831C18.0468 37.4879 13.4488 38.2351 8.70911 35.59C9.47329 34.8471 10.0958 34.7484 10.0958 34.7484C18.7852 36.2856 19.1888 34.9674 19.1888 34.9674Z" fill="url(#paint6_linear)"/>
<path d="M6.00446 46.4537C11.3709 45.5907 16.351 49.5282 24.5596 49.5282C33.571 49.5282 38.3021 55.4023 47.395 52.1604C46.6523 53.4915 45.5833 54.1099 45.6434 55.9477C45.725 58.3695 43.7887 61.6758 34.348 61.6758C24.9116 61.6758 22.4903 59.0136 20.4768 59.0136C18.4633 59.0136 14.1787 58.7602 11.1949 58.7602C11.1992 58.7559 6.21482 56.961 6.00446 46.4537Z" fill="url(#paint7_linear)"/>
<path opacity="0.08" d="M44.5959 37.1398C44.5959 39.6818 45.4416 41.1332 45.4416 43.19C45.4416 45.2468 44.1966 51.9024 39.7532 51.9024C35.314 51.9024 26.2983 48.2697 25.1606 44.2764C24.0229 40.283 29.4795 33.1808 33.1159 32.5753C36.7522 31.9785 44.5959 33.1464 44.5959 37.1398Z" fill="url(#paint8_radial)"/>
<path d="M31.6519 30.5702C31.6519 30.5702 43.2435 30.2482 43.3251 30.2482L44.0636 30.0077C44.0636 29.8402 43.5569 29.7844 43.3895 29.7844C43.0546 29.7801 34.9663 29.5182 31.6519 30.5702Z" fill="#663C1D"/>
<path opacity="0.08" d="M70.3936 34.0311C70.3936 35.4481 67.0535 36.6633 60.4764 35.753C53.8992 34.8427 45.8022 37.9686 45.8022 34.482C45.8022 30.9953 58.8578 32.7171 60.8799 32.7171C62.902 32.7171 70.3936 31.1971 70.3936 34.0311Z" fill="url(#paint9_radial)"/>
<defs>
<linearGradient id="paint0_linear" x1="34.4018" y1="79.0324" x2="42.1461" y2="23.9212" gradientUnits="userSpaceOnUse">
<stop offset="0.00132565" stop-color="#99643E"/>
<stop offset="1" stop-color="#AE7246"/>
</linearGradient>
<linearGradient id="paint1_linear" x1="37.8114" y1="9.92165" x2="46.3148" y2="45.9028" gradientUnits="userSpaceOnUse">
<stop offset="0.00132565" stop-color="#99643E"/>
<stop offset="1" stop-color="#AE7246"/>
</linearGradient>
<linearGradient id="paint2_linear" x1="42.9481" y1="31.423" x2="38.3927" y2="14.5206" gradientUnits="userSpaceOnUse">
<stop offset="0.00132565" stop-color="#99643E"/>
<stop offset="1" stop-color="#AE7246"/>
</linearGradient>
<linearGradient id="paint3_linear" x1="60.0594" y1="31.9401" x2="58.3385" y2="61.4948" gradientUnits="userSpaceOnUse">
<stop offset="0.00132565" stop-color="#99643E"/>
<stop offset="0.1343" stop-color="#9C663F"/>
<stop offset="1" stop-color="#AE7246"/>
</linearGradient>
<linearGradient id="paint4_linear" x1="-1999.11" y1="-6.80701" x2="-2030.17" y2="-7.61622" gradientUnits="userSpaceOnUse">
<stop offset="0.00132565" stop-color="#99643E"/>
<stop offset="1" stop-color="#AE7246"/>
</linearGradient>
<linearGradient id="paint5_linear" x1="30.2889" y1="22.6796" x2="26.847" y2="66.6068" gradientUnits="userSpaceOnUse">
<stop stop-color="#8D562E" stop-opacity="0"/>
<stop offset="1" stop-color="#8D562E"/>
</linearGradient>
<linearGradient id="paint6_linear" x1="21.8885" y1="41.0218" x2="15.0553" y2="-0.880681" gradientUnits="userSpaceOnUse">
<stop offset="0.00132565" stop-color="#99643E"/>
<stop offset="1" stop-color="#AE7246"/>
</linearGradient>
<linearGradient id="paint7_linear" x1="27.297" y1="41.73" x2="24.0497" y2="83.0281" gradientUnits="userSpaceOnUse">
<stop stop-color="#8D562E" stop-opacity="0"/>
<stop offset="1" stop-color="#8D562E"/>
</linearGradient>
<radialGradient id="paint8_radial" cx="0" cy="0" r="1" gradientUnits="userSpaceOnUse" gradientTransform="translate(40.5867 42.2146) rotate(-90) scale(10.359 5.25713)">
<stop stop-color="#F8DBBA"/>
<stop offset="1" stop-color="#CD9870" stop-opacity="0"/>
</radialGradient>
<radialGradient id="paint9_radial" cx="0" cy="0" r="1" gradientUnits="userSpaceOnUse" gradientTransform="translate(58.0925 34.2255) rotate(-178.411) scale(12.7017 1.4818)">
<stop stop-color="#F8DBBA"/>
<stop offset="1" stop-color="#CD9870" stop-opacity="0"/>
</radialGradient>
</defs>
</svg>
