<svg width="80" height="80" viewBox="0 0 80 80" fill="none" xmlns="http://www.w3.org/2000/svg">
<path d="M68.7988 58.7464C65.8163 58.7464 61.5324 58.9981 59.5185 58.9981C57.5046 58.9981 55.0853 61.6606 45.6471 61.6606C36.209 61.6606 34.2718 58.3538 34.3529 55.9345C34.434 53.5153 32.548 53.2166 32.0403 50.601C31.652 48.5914 32.6291 48.2031 32.6291 46.9103C32.6291 45.6217 30.7219 44.9518 30.7219 42.78C30.7219 40.6082 32.4158 38.8332 32.4158 38.8332C32.4158 38.8332 20.153 38.8332 15.8008 38.8332C11.4444 38.8332 6 39.1959 6 34.4768C6 29.7577 11.8071 30.3209 14.892 30.3209C17.9769 30.3209 36.674 30.2399 36.674 30.2399C36.674 30.2399 29.0493 28.1833 29.0493 22.2524C29.0493 16.3216 33.1753 17.4608 36.4906 20.439C42.3318 25.6829 56.1093 22.7388 60.8113 34.9589C60.8113 34.9589 61.2124 36.2774 69.9039 34.7371C69.9039 34.7371 74 35.3984 74 45.7497C74.0043 56.8732 68.7988 58.7464 68.7988 58.7464Z" fill="url(#paint0_linear)"/>
<path d="M29.574 19.4023C29.2497 20.0722 29.0535 20.9981 29.0535 22.2568C29.0535 27.5349 35.0825 29.7408 36.4094 30.1632L42.4 30.3851H47.8402C37.5828 28.6656 30.2354 23.0633 29.574 19.4023Z" fill="url(#paint1_linear)"/>
<path d="M29.0535 22.2567C29.0535 28.1875 36.6782 30.2441 36.6782 30.2441L48.0492 30.5257C48.0492 30.5257 42.6987 28.9428 38.5514 28.7507C33.3117 28.5075 29.1559 24.804 29.1516 20.8486C29.0876 21.2625 29.0535 21.7319 29.0535 22.2567Z" fill="url(#paint2_linear)"/>
<path d="M15.8051 38.833C20.1615 38.833 32.42 38.833 32.42 38.833C32.42 38.833 31.2339 40.0831 30.8456 41.7685C31.1272 40.9322 33.0643 39.3322 34.114 38.658C35.2447 37.9327 32.9833 37.4633 29.9965 37.4633C27.0097 37.4633 15.4936 37.2201 10.8386 37.2201C8.05661 37.2201 6 36.1363 6 34.4766C6.00427 39.1956 11.4487 38.833 15.8051 38.833Z" fill="url(#paint3_linear)"/>
<path d="M31.9934 50.2813C31.9977 49.0781 33.5124 48.6727 33.5124 46.9404C33.5124 45.2081 30.7305 44.1499 30.7305 42.7803C30.7305 44.9521 32.6377 45.622 32.6377 46.9148C32.6335 48.1308 31.763 48.549 31.9934 50.2813Z" fill="url(#paint4_linear)"/>
<path d="M65.4705 57.6492C58.2724 57.2268 63.4054 51.7824 55.6697 57.5895C51.2493 60.909 42.9632 60.0685 39.6991 59.7058C36.435 59.3431 35.7651 56.5612 35.2829 54.624C34.8605 52.9429 32.693 52.3114 32.1255 50.9546C32.7271 53.2459 34.4295 53.6299 34.3527 55.9339C34.2717 58.3532 36.2088 61.66 45.647 61.66C55.0851 61.66 57.5044 58.9975 59.5183 58.9975C61.5323 58.9975 65.8161 58.7458 68.7986 58.7458C68.7986 58.7458 70.5907 58.1015 72.0713 55.3195C70.3603 55.8315 68.0775 57.8028 65.4705 57.6492Z" fill="url(#paint5_linear)"/>
<path d="M60.8157 34.9589C58.3581 28.5758 53.4256 26.3315 48.4463 24.8936C56.2716 27.7779 58.8231 35.3813 60.4531 36.4694C61.9592 37.4721 66.5589 38.223 71.2993 35.5776C70.5355 34.8352 69.9126 34.7371 69.9126 34.7371C61.2168 36.2816 60.8157 34.9589 60.8157 34.9589Z" fill="url(#paint6_linear)"/>
<path d="M73.9957 46.4408C68.6324 45.5789 63.6488 49.5129 55.4394 49.5129C46.428 49.5129 41.7003 55.384 32.6035 52.1455C33.3459 53.4768 34.4169 54.0955 34.3529 55.9302C34.2718 58.3495 36.209 61.6562 45.6471 61.6562C55.0853 61.6562 57.5046 58.9937 59.5185 58.9937C61.5324 58.9937 65.8163 58.7377 68.7988 58.742C68.7988 58.7463 73.7824 56.95 73.9957 46.4408Z" fill="url(#paint7_linear)"/>
<path opacity="0.5" d="M35.4067 37.1349C35.4067 39.6779 34.5576 41.1287 34.5576 43.1853C34.5576 45.2419 35.8035 51.8981 40.2453 51.8981C44.687 51.8981 53.6985 48.267 54.8377 44.2733C55.9769 40.2796 50.5197 33.1796 46.8844 32.578C43.2491 31.9721 35.4067 33.1412 35.4067 37.1349Z" fill="url(#paint8_radial)"/>
<path d="M48.348 30.564C48.348 30.564 36.7594 30.2398 36.6783 30.2398L35.9402 29.9965C35.9402 29.8301 36.4437 29.7747 36.6143 29.7747C36.9471 29.7747 45.0327 29.5101 48.348 30.564Z" fill="#975500"/>
<path opacity="0.5" d="M9.60962 34.0243C9.60962 35.4408 12.9505 36.6569 19.5257 35.7438C26.1051 34.8349 34.1992 37.9582 34.1992 34.4723C34.1992 30.9863 21.147 32.7058 19.1203 32.7058C17.0978 32.7101 9.60962 31.1911 9.60962 34.0243Z" fill="url(#paint9_radial)"/>
<defs>
<linearGradient id="paint0_linear" x1="45.6001" y1="79.0159" x2="37.8589" y2="23.9169" gradientUnits="userSpaceOnUse">
<stop offset="0.00132565" stop-color="#F0C492"/>
<stop offset="1" stop-color="#F8DBBA"/>
</linearGradient>
<linearGradient id="paint1_linear" x1="40.6514" y1="16.6072" x2="33.5933" y2="45.9022" gradientUnits="userSpaceOnUse">
<stop stop-color="#FFBC47" stop-opacity="0"/>
<stop offset="1" stop-color="#C86F34"/>
</linearGradient>
<linearGradient id="paint2_linear" x1="40.8176" y1="18.87" x2="35.1509" y2="36.275" gradientUnits="userSpaceOnUse">
<stop stop-color="#FFBC47" stop-opacity="0"/>
<stop offset="1" stop-color="#C86F34"/>
</linearGradient>
<linearGradient id="paint3_linear" x1="17.1998" y1="27.1786" x2="27.066" y2="58.5987" gradientUnits="userSpaceOnUse">
<stop stop-color="#FFBC47" stop-opacity="0"/>
<stop offset="1" stop-color="#C86F34"/>
</linearGradient>
<linearGradient id="paint4_linear" x1="29.4358" y1="46.5305" x2="38.1481" y2="46.5305" gradientUnits="userSpaceOnUse">
<stop stop-color="#FFBC47" stop-opacity="0"/>
<stop offset="1" stop-color="#E68E43"/>
</linearGradient>
<linearGradient id="paint5_linear" x1="50.9606" y1="45.8338" x2="57.1839" y2="85.754" gradientUnits="userSpaceOnUse">
<stop stop-color="#FFBC47" stop-opacity="0"/>
<stop offset="1" stop-color="#C86F34"/>
</linearGradient>
<linearGradient id="paint6_linear" x1="51.9734" y1="36.7702" x2="76.563" y2="16.4306" gradientUnits="userSpaceOnUse">
<stop stop-color="#FFBC47" stop-opacity="0"/>
<stop offset="1" stop-color="#C86F34"/>
</linearGradient>
<linearGradient id="paint7_linear" x1="51.9988" y1="40.5468" x2="61.865" y2="106.878" gradientUnits="userSpaceOnUse">
<stop stop-color="#FFBC47" stop-opacity="0"/>
<stop offset="1" stop-color="#C86F34"/>
</linearGradient>
<radialGradient id="paint8_radial" cx="0" cy="0" r="1" gradientUnits="userSpaceOnUse" gradientTransform="translate(39.4201 42.2042) rotate(-90) scale(10.3571 5.2591)">
<stop stop-color="#F8E6D2"/>
<stop offset="1" stop-color="#F8E6D2" stop-opacity="0"/>
</radialGradient>
<radialGradient id="paint9_radial" cx="0" cy="0" r="1" gradientUnits="userSpaceOnUse" gradientTransform="translate(21.9002 34.2289) rotate(-1.58822) scale(12.701 1.48152)">
<stop stop-color="#F8E6D2"/>
<stop offset="1" stop-color="#F8E6D2" stop-opacity="0"/>
</radialGradient>
</defs>
</svg>
