<svg width="80" height="80" viewBox="0 0 80 80" fill="none" xmlns="http://www.w3.org/2000/svg">
<path d="M58.7321 68.7928C58.7321 65.8065 58.986 61.525 58.986 59.5112C58.986 57.4974 61.6496 55.0791 61.6496 45.6427C61.6496 36.2062 58.3406 34.2699 55.9223 34.3516C53.504 34.4334 53.2028 32.5487 50.5909 32.0409C48.5814 31.6493 48.1941 32.6304 46.9032 32.6304C45.6123 32.6304 44.9453 30.7242 42.7723 30.7242C40.5993 30.7242 38.8265 32.4196 38.8265 32.4196C38.8265 32.4196 38.8265 20.1604 38.8265 15.8057C38.8265 11.4511 39.1879 6.00351 34.4719 6.00782C29.7515 6.00782 30.3195 11.8126 30.3195 14.8978C30.3195 17.983 30.2377 36.6795 30.2377 36.6795C30.2377 36.6795 28.1809 29.0546 22.2514 29.0546C16.3218 29.0546 17.4621 33.1812 20.4355 36.4945C25.6808 42.3337 22.7333 56.1119 34.9538 60.815C34.9538 60.815 36.2705 61.2152 34.73 69.9072C34.73 69.9072 35.3927 73.9994 45.7414 73.9994C56.8603 73.9951 58.7321 68.7928 58.7321 68.7928Z" fill="url(#paint0_linear)"/>
<path d="M19.3899 29.5671C20.0612 29.24 20.9863 29.0464 22.2428 29.0464C27.5225 29.0464 29.7257 35.0749 30.1474 36.4002L30.3711 42.39V47.8289C28.6542 37.5749 23.0517 30.2297 19.3899 29.5671Z" fill="url(#paint1_radial)"/>
<path d="M22.2472 29.0508C28.1767 29.0508 30.2335 36.6757 30.2335 36.6757L30.5175 48.0442C30.5175 48.0442 28.934 42.6956 28.7447 38.5475C28.5037 33.3064 24.7988 29.1541 20.8401 29.1454C21.2532 29.0852 21.7222 29.0508 22.2472 29.0508Z" fill="url(#paint2_linear)"/>
<path d="M38.8222 15.8022C38.8222 20.1568 38.8222 32.4161 38.8222 32.4161C38.8222 32.4161 40.07 31.2284 41.7568 30.8455C40.922 31.1252 39.3213 33.0615 38.6457 34.1158C37.9185 35.2431 37.4495 32.9841 37.4495 29.9978C37.4495 27.0115 37.2085 15.4967 37.2085 10.8409C37.2085 8.05683 36.1285 6 34.4675 6C39.1836 6 38.8222 11.4433 38.8222 15.8022Z" fill="url(#paint3_linear)"/>
<path d="M50.2682 31.9902C49.0633 31.9945 48.6588 33.5091 46.929 33.5091C45.1949 33.5091 44.1364 30.7251 42.7723 30.7251C44.9454 30.7251 45.6123 32.6313 46.9032 32.6313C48.121 32.6313 48.5341 31.7578 50.2682 31.9902Z" fill="url(#paint4_linear)"/>
<path d="M57.6348 65.4669C57.2131 58.268 51.7655 63.4015 57.5745 55.6647C60.8964 51.2412 60.0531 42.9623 59.6916 39.6963C59.3302 36.4303 56.5461 35.7634 54.6098 35.2772C52.9273 34.8555 52.2948 32.6867 50.9393 32.123C53.2285 32.7255 53.6158 34.4295 55.9179 34.352C58.3362 34.2703 61.6452 36.2066 61.6452 45.6431C61.6452 55.0795 58.9816 57.4978 58.9816 59.5116C58.9816 61.5254 58.7277 65.8069 58.7277 68.7932C58.7277 68.7932 58.0823 70.5832 55.3026 72.0634C55.8189 70.3508 57.7897 68.0702 57.6348 65.4669Z" fill="url(#paint5_linear)"/>
<path d="M34.9495 60.8071C28.5681 58.3501 26.322 53.4189 24.8848 48.436C27.7678 56.2632 35.3712 58.8105 36.4598 60.4414C37.4624 61.9474 38.2111 66.543 35.5648 71.2849C34.8247 70.5233 34.7214 69.8994 34.7214 69.8994C36.2662 61.2116 34.9495 60.8071 34.9495 60.8071Z" fill="url(#paint6_linear)"/>
<path d="M46.4299 73.9873C45.565 68.6214 49.5023 63.6386 49.5023 55.4328C49.5023 46.4223 55.3759 41.6933 52.1357 32.6011C53.4696 33.3412 54.085 34.4126 55.9223 34.3524C58.3406 34.2706 61.6496 36.207 61.6496 45.6435C61.6496 55.0799 58.9861 57.4982 58.9861 59.512C58.9861 61.5258 58.7322 65.8073 58.7322 68.7936C58.7322 68.7936 56.9379 73.7764 46.4299 73.9873Z" fill="url(#paint7_radial)"/>
<path opacity="0.16" d="M37.1224 35.4024C39.6612 35.4024 41.1156 34.5547 43.1724 34.5547C45.2293 34.5547 51.8817 35.8026 51.8817 40.2433C51.8817 44.6839 48.2542 53.6987 44.2611 54.8347C40.2679 55.9707 33.1723 50.5145 32.5655 46.8828C31.9588 43.2424 33.1292 35.4024 37.1224 35.4024Z" fill="url(#paint8_radial)"/>
<path d="M30.5518 48.3415C30.5518 48.3415 30.2291 36.7535 30.2291 36.6718L29.9881 35.9316C29.8203 35.9316 29.7644 36.4351 29.7644 36.6029C29.7644 36.9428 29.4976 45.0282 30.5518 48.3415Z" fill="#975500"/>
<path opacity="0.16" d="M34.0157 9.60986C35.4314 9.60986 36.6448 12.949 35.7369 19.524C34.8247 26.0989 37.9529 34.1972 34.4675 34.1972C30.9821 34.1972 32.7033 21.1462 32.7033 19.1195C32.699 17.0971 31.18 9.60986 34.0157 9.60986Z" fill="url(#paint9_radial)"/>
<defs>
<linearGradient id="paint0_linear" x1="79.0008" y1="45.594" x2="23.906" y2="37.8533" gradientUnits="userSpaceOnUse">
<stop offset="0.00132565" stop-color="#BE8D68"/>
<stop offset="1" stop-color="#CD9870"/>
</linearGradient>
<radialGradient id="paint1_radial" cx="0" cy="0" r="1" gradientUnits="userSpaceOnUse" gradientTransform="translate(7.88842 34.0804) rotate(90.0001) scale(25.5404)">
<stop offset="0.6147" stop-color="#B37E53" stop-opacity="0"/>
<stop offset="1" stop-color="#B37E53"/>
</radialGradient>
<linearGradient id="paint2_linear" x1="31.4058" y1="37.0491" x2="14.5081" y2="41.6024" gradientUnits="userSpaceOnUse">
<stop stop-color="#B37E53"/>
<stop offset="1" stop-color="#CD9870"/>
</linearGradient>
<linearGradient id="paint3_linear" x1="27.1677" y1="17.1965" x2="58.5854" y2="27.062" gradientUnits="userSpaceOnUse">
<stop stop-color="#B37E53"/>
<stop offset="1" stop-color="#CD9870"/>
</linearGradient>
<linearGradient id="paint4_linear" x1="46.5181" y1="29.4317" x2="46.5181" y2="38.1432" gradientUnits="userSpaceOnUse">
<stop stop-color="#B37E53"/>
<stop offset="1" stop-color="#CD9870"/>
</linearGradient>
<linearGradient id="paint5_linear" x1="45.8217" y1="50.9546" x2="85.7389" y2="57.1774" gradientUnits="userSpaceOnUse">
<stop stop-color="#B37E53"/>
<stop offset="1" stop-color="#CD9870"/>
</linearGradient>
<linearGradient id="paint6_linear" x1="36.7582" y1="51.9673" x2="16.4202" y2="76.5551" gradientUnits="userSpaceOnUse">
<stop stop-color="#D2A374" stop-opacity="0"/>
<stop offset="1" stop-color="#B88653"/>
</linearGradient>
<radialGradient id="paint7_radial" cx="0" cy="0" r="1" gradientUnits="userSpaceOnUse" gradientTransform="translate(11.0757 46.6276) rotate(90.0001) scale(62.3151)">
<stop offset="0.6147" stop-color="#B37E53" stop-opacity="0"/>
<stop offset="1" stop-color="#B37E53"/>
</radialGradient>
<radialGradient id="paint8_radial" cx="0" cy="0" r="1" gradientUnits="userSpaceOnUse" gradientTransform="translate(42.1984 39.3949) rotate(180) scale(10.3563 5.25871)">
<stop stop-color="#F8DBBA"/>
<stop offset="1" stop-color="#CD9870" stop-opacity="0"/>
</radialGradient>
<radialGradient id="paint9_radial" cx="0" cy="0" r="1" gradientUnits="userSpaceOnUse" gradientTransform="translate(34.2174 21.8961) rotate(91.5883) scale(12.7 1.48141)">
<stop stop-color="#F8DBBA"/>
<stop offset="1" stop-color="#CD9870" stop-opacity="0"/>
</radialGradient>
</defs>
</svg>
