<svg width="80" height="80" viewBox="0 0 80 80" fill="none" xmlns="http://www.w3.org/2000/svg">
<path d="M20.9172 11.2063C20.9172 14.1923 20.6634 18.4735 20.6634 20.4872C20.6634 22.5008 18 24.919 18 34.3548C18 43.7906 21.3088 45.7268 23.7269 45.645C26.145 45.5633 26.4462 47.4479 29.0579 47.9556C31.0673 48.3471 31.4545 47.3661 32.7454 47.3661C34.0362 47.3661 34.7031 49.2722 36.8759 49.2722C39.0488 49.2722 40.8215 47.5769 40.8215 47.5769C40.8215 47.5769 40.8215 59.8353 40.8215 64.1897C40.8215 68.544 40.4601 73.9912 45.1758 73.9869C49.8959 73.9869 49.3279 68.1826 49.3279 65.0975C49.3279 62.0125 49.4097 43.3173 49.4097 43.3173C49.4097 43.3173 51.4664 50.9417 57.3955 50.9417C63.3246 50.9417 62.1844 46.8154 59.2112 43.5023C53.9662 37.6635 56.9136 23.8863 44.6939 19.1835C44.6939 19.1835 43.3773 18.7833 44.9177 10.0918C44.9177 10.0918 44.2551 6 33.9071 6C22.7889 6.0043 20.9172 11.2063 20.9172 11.2063Z" fill="url(#paint0_linear)"/>
<path d="M60.2566 50.4296C59.5854 50.7566 58.6603 50.9502 57.4039 50.9502C52.1245 50.9502 49.9215 44.9221 49.4999 43.5969L49.2761 37.6076V32.1689C50.9972 42.4223 56.595 49.767 60.2566 50.4296Z" fill="url(#paint1_radial)"/>
<path d="M57.404 50.9501C51.4749 50.9501 49.4183 43.3257 49.4183 43.3257L49.1343 31.958C49.1343 31.958 50.7177 37.3063 50.907 41.4541C51.1479 46.6948 54.8526 50.8469 58.811 50.8555C58.3937 50.9157 57.929 50.9501 57.404 50.9501Z" fill="url(#paint2_linear)"/>
<path d="M40.8301 64.1982C40.8301 59.8439 40.8301 47.5855 40.8301 47.5855C40.8301 47.5855 39.5823 48.7731 37.8956 49.156C38.7304 48.8763 40.331 46.9401 41.0065 45.8859C41.7336 44.7586 42.2026 47.0175 42.2026 50.0036C42.2026 52.9897 42.4436 64.5037 42.4436 69.1592C42.4436 71.9431 43.5236 73.9998 45.1844 73.9998C40.4643 73.9955 40.8301 68.5525 40.8301 64.1982Z" fill="url(#paint3_linear)"/>
<path d="M29.3848 48.0115C30.5895 48.0072 30.994 46.4927 32.7237 46.4927C34.4576 46.4927 35.5161 49.2765 36.8801 49.2765C34.7072 49.2765 34.0403 47.3704 32.7495 47.3704C31.5318 47.3661 31.1144 48.2396 29.3848 48.0115Z" fill="url(#paint4_linear)"/>
<path d="M22.0144 14.5369C22.436 21.7353 27.8833 16.6021 22.0746 24.3384C18.7529 28.7616 19.5963 37.04 19.9577 40.3057C20.3191 43.5714 23.103 44.2384 25.0392 44.7203C26.7215 45.1419 27.354 47.3105 28.7094 47.8741C26.4203 47.2718 26.0331 45.5679 23.7312 45.6454C21.3131 45.7271 18.0043 43.7909 18.0043 34.3551C18.0043 24.9193 20.6676 22.5011 20.6676 20.4875C20.6676 18.4738 20.9215 14.1926 20.9215 11.2066C20.9215 11.2066 21.5669 9.41665 24.3464 7.93652C23.8344 9.649 21.8638 11.9294 22.0144 14.5369Z" fill="url(#paint5_linear)"/>
<path d="M44.6982 19.1924C51.0791 21.6492 53.3251 26.5801 54.7622 31.5627C51.8794 23.736 44.2765 21.1889 43.1879 19.5581C42.1854 18.0522 41.4367 13.4569 44.0829 8.71533C44.823 9.47691 44.9262 10.1008 44.9262 10.1008C43.3815 18.7923 44.6982 19.1924 44.6982 19.1924Z" fill="url(#paint6_linear)"/>
<path d="M33.2186 6.0127C34.0835 11.3782 30.1465 16.3607 30.1465 24.5659C30.1465 33.5758 24.2733 38.3044 27.5133 47.396C26.1794 46.656 25.5641 45.5846 23.7269 45.6448C21.3088 45.7266 18 43.7904 18 34.3546C18 24.9188 20.6634 22.5006 20.6634 20.487C20.6634 18.4733 20.9172 14.1921 20.9172 11.2061C20.9172 11.2061 22.7158 6.22353 33.2186 6.0127Z" fill="url(#paint7_radial)"/>
<path opacity="0.16" d="M42.5252 44.5993C39.9866 44.5993 38.5323 45.4469 36.4756 45.4469C34.4189 45.4469 27.767 44.1991 27.767 39.7587C27.767 35.3184 31.3984 26.3042 35.387 25.1683C39.38 24.0324 46.4751 29.4882 47.0818 33.1197C47.6885 36.7512 46.5181 44.5993 42.5252 44.5993Z" fill="url(#paint8_radial)"/>
<path d="M49.0956 31.6572C49.0956 31.6572 49.4183 43.2444 49.4183 43.3261L49.6592 44.0662C49.827 44.0662 49.883 43.5628 49.883 43.395C49.883 43.0551 50.1497 34.9703 49.0956 31.6572Z" fill="#975500"/>
<path opacity="0.16" d="M45.6362 70.3898C44.2206 70.3898 43.0072 67.0509 43.9151 60.4764C44.8273 53.9019 41.6992 45.8042 45.1844 45.8042C48.6696 45.8042 46.9485 58.8543 46.9485 60.8809C46.9485 62.9031 48.4674 70.3898 45.6362 70.3898Z" fill="url(#paint9_radial)"/>
<path opacity="0.16" d="M28.2017 13.1899C30.7403 13.1899 32.1946 12.3423 34.2513 12.3423C36.308 12.3423 42.9599 13.5901 42.9599 18.0262C42.9599 22.4665 39.3328 31.4807 35.3399 32.6166C31.3469 33.7525 24.2518 28.2967 23.6451 24.6652C23.0384 21.0337 24.2088 13.1899 28.2017 13.1899Z" fill="url(#paint10_radial)"/>
<defs>
<linearGradient id="paint0_linear" x1="0.651874" y1="34.4044" x2="55.7429" y2="42.1445" gradientUnits="userSpaceOnUse">
<stop offset="0.00132565" stop-color="#BE8D68"/>
<stop offset="1" stop-color="#CD9870"/>
</linearGradient>
<radialGradient id="paint1_radial" cx="0" cy="0" r="1" gradientUnits="userSpaceOnUse" gradientTransform="translate(71.7592 45.9175) rotate(-89.9999) scale(25.5386)">
<stop offset="0.6147" stop-color="#B37E53" stop-opacity="0"/>
<stop offset="1" stop-color="#B37E53"/>
</radialGradient>
<linearGradient id="paint2_linear" x1="48.2436" y1="42.9489" x2="65.1402" y2="38.396" gradientUnits="userSpaceOnUse">
<stop stop-color="#B37E53"/>
<stop offset="1" stop-color="#CD9870"/>
</linearGradient>
<linearGradient id="paint3_linear" x1="52.4813" y1="62.8006" x2="21.0658" y2="52.9358" gradientUnits="userSpaceOnUse">
<stop stop-color="#B37E53"/>
<stop offset="1" stop-color="#CD9870"/>
</linearGradient>
<linearGradient id="paint4_linear" x1="33.1337" y1="50.5665" x2="33.1337" y2="41.8556" gradientUnits="userSpaceOnUse">
<stop stop-color="#B37E53"/>
<stop offset="1" stop-color="#CD9870"/>
</linearGradient>
<linearGradient id="paint5_linear" x1="33.8285" y1="29.0448" x2="-6.08576" y2="22.8224" gradientUnits="userSpaceOnUse">
<stop stop-color="#B37E53"/>
<stop offset="1" stop-color="#CD9870"/>
</linearGradient>
<linearGradient id="paint6_linear" x1="42.8915" y1="28.0326" x2="63.2282" y2="3.44645" gradientUnits="userSpaceOnUse">
<stop stop-color="#D2A374" stop-opacity="0"/>
<stop offset="1" stop-color="#B88653"/>
</linearGradient>
<radialGradient id="paint7_radial" cx="0" cy="0" r="1" gradientUnits="userSpaceOnUse" gradientTransform="translate(68.5725 33.3713) rotate(-89.9999) scale(62.311)">
<stop offset="0.6147" stop-color="#B37E53" stop-opacity="0"/>
<stop offset="1" stop-color="#B37E53"/>
</radialGradient>
<radialGradient id="paint8_radial" cx="0" cy="0" r="1" gradientUnits="userSpaceOnUse" gradientTransform="translate(37.4478 40.5867) scale(10.3556 5.25835)">
<stop stop-color="#F8DBBA"/>
<stop offset="1" stop-color="#CD9870" stop-opacity="0"/>
</radialGradient>
<radialGradient id="paint9_radial" cx="0" cy="0" r="1" gradientUnits="userSpaceOnUse" gradientTransform="translate(45.4332 58.0999) rotate(-88.4111) scale(12.6991 1.48131)">
<stop stop-color="#F8DBBA"/>
<stop offset="1" stop-color="#CD9870" stop-opacity="0"/>
</radialGradient>
<radialGradient id="paint10_radial" cx="0" cy="0" r="1" gradientUnits="userSpaceOnUse" gradientTransform="translate(33.275 17.2026) rotate(180) scale(10.3556 5.25835)">
<stop stop-color="#F8DBBA"/>
<stop offset="1" stop-color="#CD9870" stop-opacity="0"/>
</radialGradient>
</defs>
</svg>
