<svg width="80" height="80" viewBox="0 0 80 80" fill="none" xmlns="http://www.w3.org/2000/svg">
<path d="M20.9145 11.2012C20.9145 14.1837 20.6627 18.4676 20.6627 20.4815C20.6627 22.4955 18.0002 24.9147 18.0002 34.3529C18.0002 43.7911 21.307 45.7282 23.7263 45.6471C26.1456 45.566 26.4442 47.452 29.0598 47.9597C31.0694 48.348 31.4577 47.3709 32.7506 47.3709C34.0434 47.3709 34.709 49.2782 36.8808 49.2782C39.0526 49.2782 40.8276 47.5842 40.8276 47.5842C40.8276 47.5842 40.8276 59.847 40.8276 64.1992C40.8276 68.5556 40.465 74 45.184 74C49.9031 74 49.3399 68.1929 49.3399 65.108C49.3399 62.0231 49.421 43.326 49.421 43.326C49.421 43.326 51.4776 50.9508 57.4084 50.9508C63.3393 50.9508 62.2 46.8247 59.2218 43.5094C53.9779 37.6682 56.922 23.8907 44.7019 19.1887C44.7019 19.1887 43.3834 18.7876 44.9238 10.0961C44.9238 10.0961 44.2624 6 33.9111 6C22.7876 5.99574 20.9145 11.2012 20.9145 11.2012Z" fill="url(#paint0_linear)"/>
<path d="M60.2586 50.4263C59.5887 50.7506 58.6628 50.9469 57.4041 50.9469C52.1261 50.9469 49.9202 44.9179 49.4977 43.5909L49.2759 37.6003V32.1602C50.9954 42.4175 56.5977 49.765 60.2586 50.4263Z" fill="url(#paint1_linear)"/>
<path d="M57.4041 50.947C51.4732 50.947 49.4166 43.3222 49.4166 43.3222L49.135 31.9512C49.135 31.9512 50.718 37.3017 50.91 41.4491C51.1532 46.6887 54.8568 50.8446 58.8121 50.8488C58.394 50.9128 57.9289 50.947 57.4041 50.947Z" fill="url(#paint2_linear)"/>
<path d="M40.8274 64.1946C40.8274 59.8382 40.8274 47.5797 40.8274 47.5797C40.8274 47.5797 39.5772 48.7659 37.8918 49.1542C38.7281 48.8725 40.3282 46.9354 41.0024 45.8858C41.7277 44.7551 42.1971 47.0165 42.1971 50.0032C42.1971 52.9857 42.4403 64.5061 42.4403 69.1612C42.4403 71.9431 43.524 73.9997 45.1838 73.9997C40.4647 73.9955 40.8274 68.551 40.8274 64.1946Z" fill="url(#paint3_linear)"/>
<path d="M29.3796 48.0068C30.5829 48.0025 30.9882 46.4878 32.7206 46.4878C34.4529 46.4878 35.511 49.2697 36.8807 49.2697C34.7089 49.2697 34.039 47.3625 32.7462 47.3625C31.5259 47.3668 31.112 48.2372 29.3796 48.0068Z" fill="url(#paint4_linear)"/>
<path d="M22.0108 14.5295C22.4332 21.7276 27.8776 16.5946 22.0705 24.3303C18.751 28.7507 19.5915 37.0368 19.9542 40.3009C20.3169 43.5693 23.0988 44.2349 25.036 44.7171C26.7171 45.1395 27.3486 47.307 28.7054 47.8745C26.4141 47.2729 26.0301 45.5704 23.726 45.6472C21.3068 45.7283 18 43.7912 18 34.353C18 24.9149 20.6625 22.4956 20.6625 20.4816C20.6625 18.4677 20.9142 14.1838 20.9142 11.2014C20.9142 11.2014 21.5585 9.40929 24.3405 7.92871C23.8285 9.6397 21.8572 11.9224 22.0108 14.5295Z" fill="url(#paint5_linear)"/>
<path d="M44.6975 19.1842C51.0807 21.6419 53.325 26.5743 54.7629 31.5537C51.8786 23.7284 44.2751 21.1768 43.1871 19.5469C42.1844 18.0407 41.4334 13.4454 44.0788 8.70068C44.8213 9.46444 44.9194 10.0874 44.9194 10.0874C43.3791 18.7831 44.6975 19.1842 44.6975 19.1842Z" fill="url(#paint6_linear)"/>
<path d="M33.2157 6.00439C34.0776 11.3678 30.1436 16.3514 30.1436 24.5607C30.1436 33.5722 24.2724 38.2998 27.5109 47.3966C26.1797 46.6542 25.561 45.5832 23.7263 45.6472C21.307 45.7283 18.0002 43.7912 18.0002 34.353C18.0002 24.9149 20.6627 22.4956 20.6627 20.4817C20.6627 18.4677 20.9187 14.1839 20.9145 11.2014C20.9145 11.2014 22.7108 6.21773 33.2157 6.00439Z" fill="url(#paint7_linear)"/>
<path d="M49.0923 31.6519C49.0923 31.6519 49.4166 43.2405 49.4166 43.3216L49.6598 44.0597C49.8262 44.0597 49.8816 43.5562 49.8816 43.3856C49.8816 43.0527 50.1462 34.9672 49.0923 31.6519Z" fill="#975500"/>
<path opacity="0.5" d="M45.6318 70.3903C44.2152 70.3903 42.9992 67.0494 43.9123 60.4743C44.8211 53.8949 41.6978 45.8008 45.1838 45.8008C48.6698 45.8008 46.9503 58.8529 46.9503 60.8797C46.946 62.9021 48.465 70.3903 45.6318 70.3903Z" fill="url(#paint8_radial)"/>
<path opacity="0.5" d="M28.1977 13.1855C30.7407 13.1855 32.1914 12.3364 34.248 12.3364C36.3046 12.3364 42.9608 13.5823 42.9608 18.0241C42.9608 22.4658 39.3298 31.4773 35.336 32.6165C31.3423 33.7558 24.2424 28.2985 23.6407 24.6632C23.0391 21.0279 24.204 13.1855 28.1977 13.1855Z" fill="url(#paint9_radial)"/>
<defs>
<linearGradient id="paint0_linear" x1="0.64107" y1="34.3971" x2="55.7401" y2="42.1382" gradientUnits="userSpaceOnUse">
<stop offset="0.00132565" stop-color="#F0C492"/>
<stop offset="1" stop-color="#F8DBBA"/>
</linearGradient>
<linearGradient id="paint1_linear" x1="63.0499" y1="39.3466" x2="33.7549" y2="46.4048" gradientUnits="userSpaceOnUse">
<stop stop-color="#FFBC47" stop-opacity="0"/>
<stop offset="1" stop-color="#C86F34"/>
</linearGradient>
<linearGradient id="paint2_linear" x1="60.7868" y1="39.1805" x2="43.3819" y2="44.8472" gradientUnits="userSpaceOnUse">
<stop stop-color="#FFBC47" stop-opacity="0"/>
<stop offset="1" stop-color="#C86F34"/>
</linearGradient>
<linearGradient id="paint3_linear" x1="52.4779" y1="62.7975" x2="21.0577" y2="52.9313" gradientUnits="userSpaceOnUse">
<stop stop-color="#FFBC47" stop-opacity="0"/>
<stop offset="1" stop-color="#C86F34"/>
</linearGradient>
<linearGradient id="paint4_linear" x1="33.1298" y1="50.562" x2="33.1298" y2="41.8498" gradientUnits="userSpaceOnUse">
<stop stop-color="#FFBC47" stop-opacity="0"/>
<stop offset="1" stop-color="#E68E43"/>
</linearGradient>
<linearGradient id="paint5_linear" x1="33.8222" y1="29.0368" x2="-6.09786" y2="22.8136" gradientUnits="userSpaceOnUse">
<stop stop-color="#FFBC47" stop-opacity="0"/>
<stop offset="1" stop-color="#C86F34"/>
</linearGradient>
<linearGradient id="paint6_linear" x1="42.8867" y1="28.0241" x2="63.2263" y2="3.43458" gradientUnits="userSpaceOnUse">
<stop stop-color="#FFBC47" stop-opacity="0"/>
<stop offset="1" stop-color="#C86F34"/>
</linearGradient>
<linearGradient id="paint7_linear" x1="39.1101" y1="27.9988" x2="-27.2213" y2="18.1327" gradientUnits="userSpaceOnUse">
<stop stop-color="#FFBC47" stop-opacity="0"/>
<stop offset="1" stop-color="#C86F34"/>
</linearGradient>
<radialGradient id="paint8_radial" cx="0" cy="0" r="1" gradientUnits="userSpaceOnUse" gradientTransform="translate(45.4296 58.0942) rotate(-88.4119) scale(12.701 1.48153)">
<stop stop-color="#F8E6D2"/>
<stop offset="1" stop-color="#F8E6D2" stop-opacity="0"/>
</radialGradient>
<radialGradient id="paint9_radial" cx="0" cy="0" r="1" gradientUnits="userSpaceOnUse" gradientTransform="translate(33.2754 17.2034) rotate(180) scale(10.3571 5.2591)">
<stop stop-color="#F8E6D2"/>
<stop offset="1" stop-color="#F8E6D2" stop-opacity="0"/>
</radialGradient>
</defs>
</svg>
