<svg width="80" height="80" viewBox="0 0 80 80" fill="none" xmlns="http://www.w3.org/2000/svg">
<path d="M20.915 11.2075C20.915 14.1926 20.6607 18.4752 20.6607 20.4872C20.6607 22.4992 18 24.9188 18 34.3563C18 43.7938 21.3051 45.7313 23.7291 45.648C26.1532 45.5648 26.4469 47.454 29.0594 47.9581C31.067 48.3482 31.4571 47.3663 32.7458 47.3663C34.0346 47.3663 34.7052 49.2731 36.8794 49.2731C39.0536 49.2731 40.8289 47.5811 40.8289 47.5811C40.8289 47.5811 40.8289 59.8416 40.8289 64.1987C40.8289 68.5558 40.465 74 45.186 74C49.9069 74 49.3415 68.192 49.3415 65.106C49.3415 62.0201 49.4204 43.3248 49.4204 43.3248C49.4204 43.3248 51.4762 50.9476 57.407 50.9476C63.3377 50.9476 62.198 46.8184 59.2217 43.5089C53.9791 37.6702 56.9248 23.8931 44.7038 19.1897C44.7038 19.1897 43.3844 18.7864 44.9274 10.0941C44.9274 10.0941 44.2655 6 33.9162 6C22.7867 6.00438 20.915 11.2075 20.915 11.2075Z" fill="url(#paint0_linear)"/>
<path d="M60.2563 50.4308C59.5857 50.7551 58.6608 50.948 57.4027 50.948C52.1251 50.948 49.9202 44.9208 49.4994 43.5926L49.2759 37.6093V32.1694C50.9942 42.4223 56.5962 49.7689 60.2563 50.4308Z" fill="url(#paint1_radial)"/>
<path d="M57.4026 50.9519C51.4719 50.9519 49.416 43.3291 49.416 43.3291L49.1355 31.9585C49.1355 31.9585 50.7179 37.3063 50.9108 41.4574C51.1519 46.6956 54.8602 50.851 58.8141 50.8598C58.3933 50.9168 57.9286 50.9519 57.4026 50.9519Z" fill="url(#paint2_radial)"/>
<path d="M40.829 64.2032C40.829 59.8461 40.829 47.5856 40.829 47.5856C40.829 47.5856 39.5797 48.7736 37.8965 49.1593C38.7293 48.8788 40.3293 46.9413 41.0087 45.8893C41.7364 44.7583 42.2054 47.0202 42.2054 50.0053C42.2054 52.9904 42.4465 64.51 42.4465 69.1609C42.4465 71.9443 43.5292 74.0001 45.1905 74.0001C40.4652 74.0001 40.829 68.5559 40.829 64.2032Z" fill="url(#paint3_linear)"/>
<path d="M29.3794 48.0152C30.5848 48.0108 30.9881 46.4985 32.7196 46.4985C34.4554 46.4985 35.5118 49.282 36.8794 49.282C34.7053 49.282 34.039 47.3752 32.7459 47.3752C31.5273 47.3708 31.1108 48.2431 29.3794 48.0152Z" fill="url(#paint4_linear)"/>
<path d="M22.0108 14.5341C22.436 21.7316 27.8802 16.5986 22.0722 24.3354C18.7539 28.7539 19.5912 37.0385 19.955 40.3042C20.3188 43.5698 23.1023 44.2361 25.0354 44.7183C26.7142 45.1391 27.3498 47.3089 28.7043 47.8744C26.4118 47.2738 26.0304 45.5687 23.7247 45.6476C21.3051 45.7309 18 43.7934 18 34.3559C18 24.9184 20.6607 22.4987 20.6607 20.4867C20.6607 18.4748 20.915 14.1922 20.915 11.207C20.915 11.207 21.5593 9.41861 24.3384 7.93701C23.8299 9.64655 21.8574 11.9303 22.0108 14.5341Z" fill="url(#paint5_radial)"/>
<path d="M44.6994 19.1941C51.0816 21.6489 53.326 26.5802 54.7637 31.5641C51.8794 23.7397 44.2742 21.1886 43.1871 19.558C42.1833 18.0501 41.4337 13.4562 44.0813 8.71338C44.8221 9.47609 44.9229 10.1029 44.9229 10.1029C43.38 18.7909 44.6994 19.1941 44.6994 19.1941Z" fill="url(#paint6_radial)"/>
<path d="M33.2192 6.01221C34.0828 11.3775 30.1421 16.3571 30.1421 24.5672C30.1421 33.5795 24.2683 38.3093 27.512 47.4005C26.1795 46.6597 25.5614 45.5901 23.7247 45.6515C21.3095 45.7304 18 43.7929 18 34.3554C18 24.9179 20.6607 22.4983 20.6607 20.4863C20.6607 18.4743 20.915 14.1917 20.915 11.2066C20.915 11.2066 22.7122 6.22261 33.2192 6.01221Z" fill="url(#paint7_radial)"/>
<path d="M28.1038 13.1888C30.6462 13.1888 32.0971 12.3428 34.1529 12.3428C36.2087 12.3428 42.8628 13.5877 42.8628 18.0281C42.8628 22.4685 39.2333 31.4808 35.24 32.6205C31.2467 33.7558 24.1499 28.3028 23.545 24.669C22.9401 21.0351 24.1105 13.1888 28.1038 13.1888Z" fill="url(#paint8_radial)"/>
<path d="M49.0959 31.6562C49.0959 31.6562 49.4203 43.246 49.4203 43.3293L49.6614 44.0701C49.828 44.0701 49.885 43.566 49.885 43.3994C49.885 43.0575 50.148 34.9701 49.0959 31.6562Z" fill="#975500"/>
<path d="M45.6332 70.3923C44.2174 70.3923 43.0032 67.0521 43.9149 60.477C44.8267 53.9018 41.6969 45.8057 45.1817 45.8057C48.6665 45.8057 46.9482 58.8595 46.9482 60.8846C46.9482 62.9054 48.4649 70.3923 45.6332 70.3923Z" fill="url(#paint9_radial)"/>
<defs>
<linearGradient id="paint0_linear" x1="25.4981" y1="13.1102" x2="53.045" y2="67.6052" gradientUnits="userSpaceOnUse">
<stop offset="0.00132565" stop-color="#FFCB4B"/>
<stop offset="1" stop-color="#FFD748"/>
</linearGradient>
<radialGradient id="paint1_radial" cx="0" cy="0" r="1" gradientUnits="userSpaceOnUse" gradientTransform="translate(59.3965 59.5005) scale(48.3618)">
<stop stop-color="#FFBC47" stop-opacity="0"/>
<stop offset="1" stop-color="#FF8900"/>
</radialGradient>
<radialGradient id="paint2_radial" cx="0" cy="0" r="1" gradientUnits="userSpaceOnUse" gradientTransform="translate(51.6808 60.4117) rotate(-92.9967) scale(29.3158 6.17627)">
<stop stop-color="#FFBC47" stop-opacity="0"/>
<stop offset="1" stop-color="#FF8900"/>
</radialGradient>
<linearGradient id="paint3_linear" x1="35.9911" y1="61.6624" x2="49.8649" y2="58.1133" gradientUnits="userSpaceOnUse">
<stop stop-color="#FFBC47" stop-opacity="0"/>
<stop offset="1" stop-color="#E68E43"/>
</linearGradient>
<linearGradient id="paint4_linear" x1="33.1309" y1="50.5743" x2="33.1309" y2="41.8624" gradientUnits="userSpaceOnUse">
<stop stop-color="#FFBC47" stop-opacity="0"/>
<stop offset="1" stop-color="#E68E43"/>
</linearGradient>
<radialGradient id="paint5_radial" cx="0" cy="0" r="1" gradientUnits="userSpaceOnUse" gradientTransform="translate(23.7104 23.8997) scale(28.9435)">
<stop stop-color="#FFBC47" stop-opacity="0"/>
<stop offset="1" stop-color="#FF8900"/>
</radialGradient>
<radialGradient id="paint6_radial" cx="0" cy="0" r="1" gradientUnits="userSpaceOnUse" gradientTransform="translate(45.2066 19.9415) scale(30.074)">
<stop stop-color="#FFBC47" stop-opacity="0"/>
<stop offset="1" stop-color="#FF8900"/>
</radialGradient>
<radialGradient id="paint7_radial" cx="0" cy="0" r="1" gradientUnits="userSpaceOnUse" gradientTransform="translate(31.9563 16.7871) scale(25.0939 103.181)">
<stop stop-color="#FFBC47" stop-opacity="0"/>
<stop offset="1" stop-color="#FF8900"/>
</radialGradient>
<radialGradient id="paint8_radial" cx="0" cy="0" r="1" gradientUnits="userSpaceOnUse" gradientTransform="translate(33.1847 17.1977) rotate(180) scale(10.3566 5.25668)">
<stop stop-color="#FBE07A"/>
<stop offset="0.2654" stop-color="#FCDF73" stop-opacity="0.7346"/>
<stop offset="0.6548" stop-color="#FDDB5F" stop-opacity="0.3452"/>
<stop offset="1" stop-color="#FFD748" stop-opacity="0"/>
</radialGradient>
<radialGradient id="paint9_radial" cx="0" cy="0" r="1" gradientUnits="userSpaceOnUse" gradientTransform="translate(45.4366 58.0988) rotate(-88.4118) scale(12.7006 1.48173)">
<stop stop-color="#FBE07A"/>
<stop offset="0.2654" stop-color="#FCDF73" stop-opacity="0.7346"/>
<stop offset="0.6548" stop-color="#FDDB5F" stop-opacity="0.3452"/>
<stop offset="1" stop-color="#FFD748" stop-opacity="0"/>
</radialGradient>
</defs>
</svg>
