<svg width="80" height="80" viewBox="0 0 80 80" fill="none" xmlns="http://www.w3.org/2000/svg">
<path d="M11.2012 58.7422C14.1837 58.7422 18.4676 58.9939 20.4815 58.9939C22.4954 58.9939 24.9147 61.6561 34.3529 61.6561C43.7911 61.6561 45.7282 58.3497 45.6471 55.9307C45.566 53.5117 47.452 53.213 47.9597 50.5977C48.348 48.5883 47.3709 48.2 47.3709 46.9073C47.3709 45.6189 49.2781 44.9491 49.2781 42.7775C49.2781 40.6059 47.5842 38.8311 47.5842 38.8311C47.5842 38.8311 59.847 38.8311 64.1992 38.8311C68.5513 38.8311 74 39.1937 74 34.4751C74 29.7565 68.1929 30.3197 65.108 30.3197C62.0231 30.3197 43.326 30.2386 43.326 30.2386C43.326 30.2386 50.9507 28.1822 50.9507 22.252C50.9507 16.3217 46.8247 17.4609 43.5094 20.4388C37.6682 25.6821 23.8907 22.7384 19.1887 34.9572C19.1887 34.9572 18.7876 36.2755 10.0961 34.7354C10.0961 34.7354 6.00001 35.3967 6.00001 45.7469C5.99574 56.8693 11.2012 58.7422 11.2012 58.7422Z" fill="url(#paint0_linear)"/>
<path d="M50.4259 19.4019C50.7502 20.0717 50.9464 20.9975 50.9464 22.2561C50.9464 27.5336 44.9175 29.7393 43.5905 30.1616L37.5999 30.3835H32.1598C42.4171 28.6641 49.7646 23.0624 50.4259 19.4019Z" fill="url(#paint1_linear)"/>
<path d="M50.9464 22.256C50.9464 28.1863 43.3218 30.2427 43.3218 30.2427L31.9509 30.5243C31.9509 30.5243 37.3014 28.9414 41.4486 28.7495C46.6882 28.5063 50.844 24.8031 50.8483 20.8481C50.9123 21.262 50.9464 21.7313 50.9464 22.256Z" fill="url(#paint2_linear)"/>
<path d="M64.1949 38.8311C59.8385 38.8311 47.58 38.8311 47.58 38.8311C47.58 38.8311 48.7662 40.0811 49.1545 41.7663C48.8728 40.9301 46.9357 39.3302 45.8861 38.6561C44.7554 37.9309 47.0168 37.4616 50.0035 37.4616C52.9903 37.4616 64.5064 37.2184 69.1614 37.2184C71.9434 37.2184 74 36.1347 74 34.4751C73.9957 39.1937 68.5513 38.8311 64.1949 38.8311Z" fill="url(#paint3_linear)"/>
<path d="M48.0066 50.2776C48.0024 49.0745 46.4877 48.6692 46.4877 46.937C46.4877 45.2049 49.2695 44.1468 49.2695 42.7773C49.2695 44.9489 47.3624 45.6187 47.3624 46.9114C47.3666 48.1274 48.237 48.5455 48.0066 50.2776Z" fill="url(#paint4_linear)"/>
<path d="M14.5294 57.6456C21.7275 57.2232 16.5945 51.7793 24.3302 57.5859C28.7506 60.9051 37.0367 60.0646 40.3008 59.702C43.5692 59.3394 44.2348 56.5577 44.7169 54.6207C45.1393 52.9398 47.3069 52.3084 47.8744 50.9517C47.2727 53.2427 45.5703 53.6267 45.6471 55.9305C45.7282 58.3496 43.791 61.656 34.3529 61.656C24.9148 61.656 22.4955 58.9938 20.4816 58.9938C18.4676 58.9938 14.1838 58.7421 11.2013 58.7421C11.2013 58.7421 9.40926 58.0978 7.92868 55.3162C9.63966 55.8281 11.9224 57.7992 14.5294 57.6456Z" fill="url(#paint5_linear)"/>
<path d="M19.1845 34.9574C21.6421 28.5749 26.5745 26.3308 31.5539 24.8931C23.7286 27.7771 21.1771 35.3798 19.5471 36.4677C18.041 37.4703 13.4414 38.2212 8.70095 35.576C9.46471 34.8337 10.0877 34.7356 10.0877 34.7356C18.7834 36.28 19.1845 34.9574 19.1845 34.9574Z" fill="url(#paint6_linear)"/>
<path d="M6.00433 46.4379C11.3677 45.5761 16.3513 49.5097 24.5606 49.5097C33.5721 49.5097 38.2997 55.3802 47.3965 52.142C46.6541 53.4731 45.5832 54.0917 45.6472 55.9263C45.7282 58.3453 43.7911 61.6517 34.3529 61.6517C24.9148 61.6517 22.4955 58.9895 20.4816 58.9895C18.4676 58.9895 14.1838 58.7336 11.2013 58.7378C11.2013 58.7421 6.21767 56.9459 6.00433 46.4379Z" fill="url(#paint7_linear)"/>
<path opacity="0.08" d="M44.5931 37.133C44.5931 39.6758 45.4422 41.1263 45.4422 43.1827C45.4422 45.2391 44.1963 51.8946 39.7546 51.8946C35.3129 51.8946 26.3015 48.264 25.1623 44.2706C24.023 40.2773 29.4802 33.1781 33.1155 32.5765C36.7508 31.9707 44.5931 33.1397 44.5931 37.133Z" fill="url(#paint8_radial)"/>
<path d="M31.6522 30.563C31.6522 30.563 43.2405 30.2387 43.3216 30.2387L44.0597 29.9955C44.0597 29.8292 43.5563 29.7737 43.3856 29.7737C43.0528 29.7737 34.9674 29.5092 31.6522 30.563Z" fill="#3D2A20"/>
<path opacity="0.08" d="M70.3903 34.0231C70.3903 35.4395 67.0494 36.6555 60.4743 35.7425C53.8949 34.8337 45.8007 37.9567 45.8007 34.4711C45.8007 30.9854 58.8529 32.7048 60.8796 32.7048C62.9021 32.7091 70.3903 31.1902 70.3903 34.0231Z" fill="url(#paint9_radial)"/>
<defs>
<linearGradient id="paint0_linear" x1="34.3999" y1="79.0097" x2="42.1395" y2="23.9161" gradientUnits="userSpaceOnUse">
<stop offset="0.00132565" stop-color="#5A4539"/>
<stop offset="1" stop-color="#695042"/>
</linearGradient>
<linearGradient id="paint1_linear" x1="39.6825" y1="17.3599" x2="47.2705" y2="51.5596" gradientUnits="userSpaceOnUse">
<stop stop-color="#3C2200" stop-opacity="0"/>
<stop offset="0.9984"/>
</linearGradient>
<linearGradient id="paint2_linear" x1="42.9458" y1="31.4157" x2="38.393" y2="14.5182" gradientUnits="userSpaceOnUse">
<stop stop-color="#3C2200" stop-opacity="0"/>
<stop offset="0.9984"/>
</linearGradient>
<linearGradient id="paint3_linear" x1="60.0562" y1="31.9328" x2="58.3363" y2="61.4779" gradientUnits="userSpaceOnUse">
<stop stop-color="#3C2200" stop-opacity="0"/>
<stop offset="0.9984"/>
</linearGradient>
<linearGradient id="paint4_linear" x1="-1998.91" y1="-6.80154" x2="-2029.98" y2="-7.61089" gradientUnits="userSpaceOnUse">
<stop stop-color="#3C2200" stop-opacity="0"/>
<stop offset="0.9984"/>
</linearGradient>
<linearGradient id="paint5_linear" x1="28.2708" y1="35.6371" x2="27.5626" y2="69.1283" gradientUnits="userSpaceOnUse">
<stop stop-color="#473226" stop-opacity="0"/>
<stop offset="1" stop-color="#3D2A20"/>
</linearGradient>
<linearGradient id="paint6_linear" x1="21.8871" y1="41.0117" x2="15.0581" y2="-0.877687" gradientUnits="userSpaceOnUse">
<stop stop-color="#3C2200" stop-opacity="0"/>
<stop offset="0.9984"/>
</linearGradient>
<linearGradient id="paint7_linear" x1="23.775" y1="60.7943" x2="34.2969" y2="19.4105" gradientUnits="userSpaceOnUse">
<stop stop-color="#473226" stop-opacity="0"/>
<stop offset="1" stop-color="#473226"/>
</linearGradient>
<radialGradient id="paint8_radial" cx="0" cy="0" r="1" gradientUnits="userSpaceOnUse" gradientTransform="translate(40.5814 42.2015) rotate(-90) scale(10.3561 5.25906)">
<stop stop-color="#F8DBBA"/>
<stop offset="1" stop-color="#CD9870" stop-opacity="0"/>
</radialGradient>
<radialGradient id="paint9_radial" cx="0" cy="0" r="1" gradientUnits="userSpaceOnUse" gradientTransform="translate(58.0999 34.2278) rotate(-178.412) scale(12.7009 1.48138)">
<stop stop-color="#F8DBBA"/>
<stop offset="1" stop-color="#CD9870" stop-opacity="0"/>
</radialGradient>
</defs>
</svg>
