<svg width="24" height="24" viewBox="0 0 24 24" fill="none" xmlns="http://www.w3.org/2000/svg">
<path d="M11.1714 16.3485C9.85138 16.5257 9.42281 16.7085 8.63424 16.8514C7.84567 16.9942 5.38281 17.64 5.38281 18.7428C5.38281 19.8514 7.63424 20.7085 8.98853 20.7085C10.3428 20.7085 11.5257 20.9942 12.6685 21.6742C13.8114 22.3542 15.4171 22.9257 16.2742 22.8514C17.1314 22.7771 17.8457 21.7428 18.0628 21.4228C18.28 21.1028 19.28 20.1028 20.1714 19.5657C21.0628 19.0285 22.1028 17.8514 21.5657 16.7428C21.0285 15.6342 11.1714 16.3485 11.1714 16.3485Z" fill="#80DAFE"/>
<path d="M21.5657 16.7424C21.28 16.1481 18.3086 16.0796 15.6172 16.1424L9.80572 17.0739C8.52572 17.2796 7.28572 17.6624 6.10858 18.2053C6.08001 18.2967 6.06287 18.3881 6.06287 18.491C6.06287 18.6224 6.08572 18.7596 6.13144 18.891C6.75429 19.811 8.03429 20.8224 9.91429 20.1996C12.4057 19.371 12.6114 20.4682 14.32 21.1882C16.0229 21.9139 18.1143 21.4053 20.2857 18.9939C20.8229 18.3996 21.28 18.0167 21.6629 17.7824C21.7486 17.4453 21.7371 17.091 21.5657 16.7424Z" fill="url(#paint0_radial)"/>
<path d="M10.48 16.6912C8.63426 16.8512 8.70854 17.2569 7.87997 17.3883C7.0514 17.5197 5.65711 17.9254 6.40569 19.0512C7.15426 20.1769 10.2171 19.9883 11.5657 19.5883C12.9143 19.1883 14.8743 20.0169 15.7543 20.714C16.6343 21.4112 18.7828 20.4169 19.4 19.3483C20.0171 18.2797 20.9257 17.5997 21.5143 17.4283C22.1028 17.2569 21.2171 16.2969 21.2171 16.2969L14.4343 16.5026L10.48 16.6912Z" fill="url(#paint1_radial)"/>
<path d="M14.1943 14.937C13.3885 14.937 12.2285 15.1884 10.7143 16.3999C9.19998 17.6113 6.69141 17.5999 6.69141 18.3142C6.69141 19.0284 7.54855 19.457 9.02855 19.457C10.5085 19.457 12.0457 18.9027 13.3885 18.9027C15.0343 18.9027 15.7485 19.9542 16.96 19.9542C18.1714 19.9542 19.1371 18.6342 19.32 18.3313C19.4971 18.0284 20.3371 17.457 20.8914 17.3142C21.4457 17.1713 21.9828 16.8513 21.3028 16.1713C20.6228 15.4913 19 15.2227 18.4285 15.2227C17.3714 15.2227 16.8171 14.937 14.1943 14.937Z" fill="url(#paint2_linear)"/>
<path d="M20.8914 17.3143C21.4457 17.1714 21.9828 16.8514 21.3028 16.1714C21.2057 16.0743 21.0857 15.9828 20.9543 15.9028C20.8343 15.9657 20.6457 16.0171 20.3771 16.0571C18.4343 16.3314 18.5714 18.4228 16.8743 17.8114C15.1771 17.2 13.3657 17.3714 10.48 18.2457C9.13712 18.6571 8.35426 18.2685 8.18855 17.5314C7.34855 17.7771 6.69141 17.9485 6.69141 18.3143C6.69141 19.0285 7.54855 19.4571 9.02855 19.4571C10.5085 19.4571 12.0457 18.9028 13.3885 18.9028C15.0343 18.9028 15.7485 19.9543 16.96 19.9543C18.1771 19.9543 19.1371 18.6343 19.32 18.3314C19.4971 18.0285 20.3371 17.4571 20.8914 17.3143Z" fill="url(#paint3_radial)"/>
<path d="M16.96 19.96C18.1771 19.96 19.1371 18.64 19.32 18.3371C19.4971 18.0343 20.3371 17.4628 20.8914 17.32C21.4457 17.1771 21.9828 16.8571 21.3028 16.1771C21.28 16.1543 21.2571 16.1371 21.2342 16.1143C20.9314 16.7485 20.3257 17.1314 19.6685 17.2057C18.7028 17.3143 18.5714 19.2685 17.1485 18.92C15.7257 18.5714 14.72 18.0628 12.4514 18.6C10.1828 19.1371 9.0571 19.2685 8.25138 18.68C7.44567 18.0914 9.91996 17.9943 10.2628 16.72C8.74853 17.6343 6.68567 17.6743 6.68567 18.3257C6.68567 19.04 7.54281 19.4685 9.02281 19.4685C10.5028 19.4685 12.04 18.9143 13.3828 18.9143C15.0285 18.9028 15.7428 19.96 16.96 19.96Z" fill="url(#paint4_radial)"/>
<path d="M11.4913 15.8399L8.90845 18.3656L14.2742 18.0684C14.2742 18.0684 19.2227 17.6913 19.5427 16.6913C19.5884 16.5427 18.9084 15.257 16.5484 15.0399C16.0684 14.9942 15.4627 14.9484 14.617 14.937L13.5199 14.9713C12.7599 14.9999 12.0342 15.3084 11.4913 15.8399Z" fill="url(#paint5_linear)"/>
<path d="M8.71994 18.56C8.77359 18.56 8.81709 18.5165 8.81709 18.4629C8.81709 18.4092 8.77359 18.3657 8.71994 18.3657C8.66629 18.3657 8.6228 18.4092 8.6228 18.4629C8.6228 18.5165 8.66629 18.56 8.71994 18.56Z" fill="url(#paint6_radial)"/>
<path d="M12.6571 15.954C12.7107 15.954 12.7542 15.9106 12.7542 15.8569C12.7542 15.8033 12.7107 15.7598 12.6571 15.7598C12.6034 15.7598 12.5599 15.8033 12.5599 15.8569C12.5599 15.9106 12.6034 15.954 12.6571 15.954Z" fill="url(#paint7_radial)"/>
<path d="M11.2343 16.92C11.2816 16.92 11.32 16.8816 11.32 16.8342C11.32 16.7869 11.2816 16.7485 11.2343 16.7485C11.1869 16.7485 11.1486 16.7869 11.1486 16.8342C11.1486 16.8816 11.1869 16.92 11.2343 16.92Z" fill="url(#paint8_radial)"/>
<path d="M14.0628 18.2059C14.0912 18.2059 14.1142 18.1829 14.1142 18.1545C14.1142 18.1261 14.0912 18.103 14.0628 18.103C14.0344 18.103 14.0114 18.1261 14.0114 18.1545C14.0114 18.1829 14.0344 18.2059 14.0628 18.2059Z" fill="url(#paint9_radial)"/>
<path d="M10.6742 18.8055C10.7184 18.8055 10.7542 18.7697 10.7542 18.7255C10.7542 18.6813 10.7184 18.6455 10.6742 18.6455C10.6301 18.6455 10.5942 18.6813 10.5942 18.7255C10.5942 18.7697 10.6301 18.8055 10.6742 18.8055Z" fill="url(#paint10_radial)"/>
<path d="M13.3085 17.4168C13.3369 17.4168 13.3599 17.3938 13.3599 17.3654C13.3599 17.337 13.3369 17.314 13.3085 17.314C13.2801 17.314 13.2571 17.337 13.2571 17.3654C13.2571 17.3938 13.2801 17.4168 13.3085 17.4168Z" fill="url(#paint11_radial)"/>
<path d="M14.4399 17.1829C14.4904 17.1829 14.5314 17.1419 14.5314 17.0914C14.5314 17.0409 14.4904 17 14.4399 17C14.3894 17 14.3485 17.0409 14.3485 17.0914C14.3485 17.1419 14.3894 17.1829 14.4399 17.1829Z" fill="url(#paint12_radial)"/>
<path d="M11.9829 17.76C12.0334 17.76 12.0743 17.7191 12.0743 17.6686C12.0743 17.6181 12.0334 17.5771 11.9829 17.5771C11.9324 17.5771 11.8915 17.6181 11.8915 17.6686C11.8915 17.7191 11.9324 17.76 11.9829 17.76Z" fill="url(#paint13_radial)"/>
<path d="M15.2171 18.0972C15.296 18.0972 15.3599 18.0333 15.3599 17.9544C15.3599 17.8755 15.296 17.8115 15.2171 17.8115C15.1382 17.8115 15.0742 17.8755 15.0742 17.9544C15.0742 18.0333 15.1382 18.0972 15.2171 18.0972Z" fill="url(#paint14_radial)"/>
<path d="M16.6228 16.16C16.6512 16.16 16.6743 16.137 16.6743 16.1086C16.6743 16.0802 16.6512 16.0571 16.6228 16.0571C16.5944 16.0571 16.5714 16.0802 16.5714 16.1086C16.5714 16.137 16.5944 16.16 16.6228 16.16Z" fill="url(#paint15_radial)"/>
<path d="M16.6571 17.1828C16.6918 17.1828 16.72 17.1547 16.72 17.12C16.72 17.0853 16.6918 17.0571 16.6571 17.0571C16.6224 17.0571 16.5942 17.0853 16.5942 17.12C16.5942 17.1547 16.6224 17.1828 16.6571 17.1828Z" fill="url(#paint16_radial)"/>
<path d="M16.4857 18.4169C16.5078 18.4169 16.5257 18.399 16.5257 18.3769C16.5257 18.3548 16.5078 18.3369 16.4857 18.3369C16.4636 18.3369 16.4457 18.3548 16.4457 18.3769C16.4457 18.399 16.4636 18.4169 16.4857 18.4169Z" fill="url(#paint17_radial)"/>
<path d="M17.7829 18.4456C17.8271 18.4456 17.8629 18.4098 17.8629 18.3656C17.8629 18.3215 17.8271 18.2856 17.7829 18.2856C17.7387 18.2856 17.7029 18.3215 17.7029 18.3656C17.7029 18.4098 17.7387 18.4456 17.7829 18.4456Z" fill="url(#paint18_radial)"/>
<path d="M17.7028 15.7659C17.7532 15.7659 17.7942 15.7249 17.7942 15.6744C17.7942 15.6239 17.7532 15.583 17.7028 15.583C17.6523 15.583 17.6113 15.6239 17.6113 15.6744C17.6113 15.7249 17.6523 15.7659 17.7028 15.7659Z" fill="url(#paint19_radial)"/>
<path d="M20.3713 16.1828C20.406 16.1828 20.4342 16.1547 20.4342 16.12C20.4342 16.0853 20.406 16.0571 20.3713 16.0571C20.3366 16.0571 20.3085 16.0853 20.3085 16.12C20.3085 16.1547 20.3366 16.1828 20.3713 16.1828Z" fill="url(#paint20_radial)"/>
<path d="M18.7371 17.3656C18.7592 17.3656 18.7771 17.3477 18.7771 17.3256C18.7771 17.3036 18.7592 17.2856 18.7371 17.2856C18.7151 17.2856 18.6971 17.3036 18.6971 17.3256C18.6971 17.3477 18.7151 17.3656 18.7371 17.3656Z" fill="url(#paint21_radial)"/>
<path d="M19.0056 16.4399C19.0592 16.4399 19.1027 16.3964 19.1027 16.3427C19.1027 16.2891 19.0592 16.2456 19.0056 16.2456C18.9519 16.2456 18.9084 16.2891 18.9084 16.3427C18.9084 16.3964 18.9519 16.4399 19.0056 16.4399Z" fill="url(#paint22_radial)"/>
<path d="M11.8401 18.332C11.6743 18.3605 11.6115 18.5377 11.4401 18.5034C11.5086 18.3034 11.6115 18.2519 11.8401 18.332Z" fill="#FAAF5C"/>
<path d="M18.5885 18.2003C18.5371 18.0974 18.4628 18.0003 18.5828 17.8917C18.6114 17.8632 18.6114 17.8003 18.6285 17.7432C18.7771 17.9203 18.6057 18.0517 18.5885 18.2003Z" fill="#FAAF5C"/>
<path d="M16.8342 15.6914C16.9084 15.7428 16.9599 15.7828 17.017 15.8171C16.9713 15.8628 16.9199 15.9085 16.8742 15.96C16.8113 15.8571 16.8113 15.8571 16.8342 15.6914Z" fill="#FAAF5C"/>
<path d="M15.9428 17.3715C15.9257 17.3829 15.9028 17.4001 15.88 17.4115C15.8228 17.4401 15.7543 17.4915 15.7028 17.4229C15.6571 17.3601 15.7371 17.3372 15.7714 17.3029C15.8343 17.2229 15.8857 17.2743 15.9314 17.3315C15.9371 17.3372 15.9371 17.3486 15.9428 17.3715Z" fill="#FAAF5C"/>
<path d="M12.1771 17.457C12.1771 17.5313 12.1714 17.577 12.1771 17.6285C12.1828 17.6742 12.2 17.7142 12.2114 17.7542C12.1714 17.777 12.1257 17.8056 12.08 17.8285C12.0743 17.5827 12.0743 17.5827 12.1771 17.457Z" fill="#FAAF5C"/>
<path d="M9.05712 18.3771C9.09712 18.2914 9.13712 18.2113 9.1714 18.1313C9.18283 18.1371 9.19426 18.1428 9.19997 18.1428C9.1714 18.2399 9.14855 18.3428 9.11426 18.4628C9.04569 18.4399 8.97712 18.4228 8.90283 18.3999C8.90283 18.3885 8.90855 18.3771 8.90855 18.3656C8.96569 18.3713 9.01712 18.3771 9.05712 18.3771Z" fill="#FAAF5C"/>
<path d="M12.6627 17.2118C12.8456 17.1946 12.737 17.0004 12.8627 16.9375C12.8799 16.9775 12.9142 17.0232 12.9027 17.0575C12.8913 17.1146 12.857 17.1661 12.8227 17.2118C12.7884 17.2746 12.7313 17.2689 12.6627 17.2118Z" fill="#FAAF5C"/>
<path d="M19.1429 15.583C19.2172 15.6344 19.2401 15.7144 19.1829 15.7659C19.1372 15.8116 19.0515 15.8173 18.9829 15.7373C19.0401 15.6916 19.0915 15.6402 19.1429 15.583Z" fill="#FAAF5C"/>
<path d="M11.257 16.3314C11.3027 16.2971 11.3485 16.2628 11.3999 16.2285C11.4456 16.3028 11.4856 16.3657 11.5256 16.4285C11.537 16.4228 11.5542 16.4171 11.5656 16.4114C11.5313 16.4171 11.4913 16.4399 11.4742 16.4285C11.4113 16.3828 11.3485 16.3314 11.2456 16.4171C11.2456 16.3885 11.2513 16.3599 11.257 16.3314Z" fill="#FAAF5C"/>
<path d="M17.68 16.5718C17.64 16.6289 17.6 16.686 17.5485 16.7603C17.5143 16.7318 17.48 16.7089 17.4457 16.686C17.5428 16.5318 17.5428 16.5318 17.68 16.5718Z" fill="#FAAF5C"/>
<path d="M21.0799 16.6172C21.0113 16.5257 20.9427 16.4343 20.8513 16.3086C20.9656 16.3372 21.0513 16.32 21.057 16.4457C21.057 16.4915 21.097 16.5372 21.1142 16.5829C21.1027 16.5943 21.0913 16.6057 21.0799 16.6172Z" fill="#FAAF5C"/>
<path d="M17.7198 17.2002C17.8398 17.4345 17.8398 17.4345 17.7198 17.4973C17.7198 17.4002 17.7198 17.2973 17.7198 17.2002Z" fill="#FAAF5C"/>
<path d="M20.7085 16.1769C20.6457 16.1312 20.6 16.114 20.5885 16.0855C20.5657 16.0226 20.5542 15.954 20.5428 15.8855C20.5371 15.8626 20.5485 15.8398 20.5542 15.8169C20.5771 15.8283 20.6114 15.8398 20.6228 15.8626C20.6514 15.9483 20.6742 16.0398 20.7085 16.1769Z" fill="#FAAF5C"/>
<path d="M12.1542 15.9943C12.0742 15.8286 12.0742 15.8286 12.1713 15.7314C12.2742 15.8457 12.2742 15.8457 12.1542 15.9943Z" fill="#FAAF5C"/>
<path d="M10.2286 18.8115C10.24 18.9144 10.1829 18.9772 10.1086 19.0229C10.0857 19.0401 10.0457 19.0401 10.0172 19.0344C10 19.0287 9.98287 18.983 9.9943 18.9715C10.0057 18.9487 10.04 18.9372 10.0629 18.9315C10.1372 18.9029 10.1372 18.9087 10.2286 18.8115Z" fill="#FAAF5C"/>
<path d="M16.9486 17.8912C16.8457 17.7484 16.8628 17.7027 17.0571 17.5884C17.0171 17.6912 16.9828 17.7827 16.9486 17.8912Z" fill="#FAAF5C"/>
<path d="M13.0342 17.7886C13.0456 17.7657 13.0456 17.76 13.0513 17.76C13.1256 17.72 13.1885 17.7314 13.2285 17.8057C13.2342 17.8172 13.2228 17.8457 13.2113 17.8572C13.1313 17.9086 13.0856 17.8457 13.0342 17.7886Z" fill="#FAAF5C"/>
<path d="M17.697 17.6685C17.6799 17.7599 17.6799 17.8285 17.5942 17.8513C17.5713 17.857 17.5313 17.8513 17.5256 17.8456C17.5199 17.817 17.5142 17.7713 17.5313 17.7599C17.5713 17.7199 17.6285 17.7027 17.697 17.6685Z" fill="#FAAF5C"/>
<path d="M15.8743 18.5431C15.7314 18.6345 15.7029 18.6231 15.64 18.4517C15.7257 18.4859 15.8 18.5145 15.8743 18.5431Z" fill="#FAAF5C"/>
<path d="M20.017 17.4799C20.017 17.5142 20.0228 17.5542 20.017 17.5885C20.0113 17.6227 19.9999 17.6513 19.9828 17.6856C19.9828 17.6856 19.9371 17.6799 19.9313 17.6742C19.9199 17.6399 19.9028 17.5999 19.9085 17.5713C19.9199 17.5313 19.9485 17.4913 19.9713 17.457C19.9885 17.457 19.9999 17.4685 20.017 17.4799Z" fill="#FAAF5C"/>
<path d="M15.8742 17.5312C15.9142 17.6055 15.9485 17.6741 15.9828 17.737C15.8456 17.7541 15.8113 17.6913 15.8742 17.5312Z" fill="#FAAF5C"/>
<path d="M18.5829 15.8172C18.5657 15.7886 18.5371 15.76 18.5429 15.7372C18.5486 15.7029 18.5943 15.6515 18.6 15.6572C18.6457 15.6743 18.6857 15.7086 18.7257 15.7372C18.68 15.76 18.64 15.7829 18.5829 15.8172Z" fill="#FAAF5C"/>
<path d="M21.5028 16.7602C21.4513 16.7831 21.4056 16.8117 21.3542 16.8345C21.3313 16.8059 21.2799 16.7659 21.3427 16.7259C21.3999 16.6917 21.4799 16.6402 21.5028 16.7602Z" fill="#FAAF5C"/>
<path d="M19.7485 16.983C19.7657 17.0002 19.7942 17.0116 19.7999 17.0344C19.8057 17.0687 19.7999 17.103 19.7999 17.1373C19.7714 17.1373 19.7371 17.143 19.7142 17.1259C19.6628 17.0973 19.6742 17.0516 19.7142 17.0173C19.7257 17.0059 19.7428 16.9944 19.7485 16.983C19.7485 16.983 19.7542 16.9773 19.7485 16.983Z" fill="#FAAF5C"/>
<path d="M10.0858 18.1543C10.1372 18.2057 10.16 18.2343 10.1943 18.2686C10.1715 18.2857 10.1486 18.3143 10.1315 18.3143C10.1029 18.32 10.0743 18.3029 10.04 18.2972C10.0572 18.2572 10.0686 18.2114 10.0858 18.1543Z" fill="#FAAF5C"/>
<path d="M15.4171 17.9258C15.4628 17.9372 15.4857 17.9315 15.5028 17.9429C15.5371 17.9715 15.5657 18.0058 15.5943 18.0458C15.5943 18.0458 15.5771 18.0744 15.5714 18.0686C15.5257 18.0515 15.4857 18.0344 15.4457 18.0058C15.4343 18.0001 15.4343 17.9658 15.4171 17.9258Z" fill="#FAAF5C"/>
<path d="M18.3428 19.103C18.3713 18.983 18.3713 18.983 18.5085 18.9658C18.4342 19.023 18.3885 19.063 18.3428 19.103Z" fill="#FAAF5C"/>
<path d="M15.5599 15.3315C15.5257 15.2915 15.4971 15.263 15.4857 15.2344C15.4799 15.223 15.5199 15.1772 15.5371 15.1772C15.5599 15.1772 15.6114 15.2001 15.6114 15.2115C15.6057 15.2458 15.5828 15.2801 15.5599 15.3315Z" fill="#FAAF5C"/>
<path d="M16.8171 18.1602C16.8914 18.2802 16.8 18.3373 16.72 18.3944C16.7543 18.3202 16.7828 18.2459 16.8171 18.1602Z" fill="#FAAF5C"/>
<path d="M18.6971 18.7432C18.6628 18.7832 18.64 18.8118 18.6114 18.8347C18.5885 18.8175 18.5485 18.7889 18.5543 18.7775C18.56 18.7489 18.5885 18.7147 18.6114 18.6975C18.6228 18.6918 18.6571 18.7204 18.6971 18.7432Z" fill="#FAAF5C"/>
<path d="M19.7543 16.8174C19.7486 16.7374 19.7943 16.7202 19.8514 16.7545C19.9028 16.7831 19.9428 16.8402 20.0114 16.9088C19.8971 16.8688 19.8228 16.8402 19.7543 16.8174Z" fill="#FAAF5C"/>
<path d="M21.0571 16.9257C20.96 16.9371 20.9428 16.8686 20.9028 16.7886C21.0114 16.7943 21.0628 16.8343 21.0514 16.9314L21.0571 16.9257Z" fill="#FAAF5C"/>
<path d="M17.0457 16.6746C16.9428 16.7204 16.92 16.6461 16.8685 16.5718C16.9771 16.5889 16.9771 16.5889 17.0457 16.6746Z" fill="#FAAF5C"/>
<path d="M16.8685 15.3089C16.8513 15.3146 16.8285 15.3203 16.8113 15.3146C16.7771 15.3031 16.7485 15.2803 16.7199 15.2574C16.7142 15.2574 16.7313 15.2231 16.7313 15.2231C16.7656 15.2289 16.7999 15.2346 16.8342 15.246C16.8513 15.2517 16.8685 15.2631 16.8856 15.2689C16.8856 15.286 16.8799 15.2974 16.8685 15.3089Z" fill="#FAAF5C"/>
<path d="M16.7485 19.7031C16.76 19.7203 16.7714 19.7203 16.7714 19.726C16.7657 19.7717 16.7542 19.8174 16.7428 19.8631C16.7314 19.8574 16.7142 19.8574 16.7085 19.8517C16.6742 19.8003 16.6742 19.7488 16.7485 19.7031Z" fill="#FAAF5C"/>
<path d="M13.4915 17.7832C13.4629 17.8346 13.4343 17.8861 13.4115 17.9432C13.3943 17.8689 13.3543 17.7832 13.4915 17.7832Z" fill="#FAAF5C"/>
<path d="M10.9485 17.6515C10.9542 17.6401 10.9542 17.6287 10.9656 17.623C11.0056 17.5944 11.0513 17.5715 11.0913 17.543C11.0971 17.5544 11.1085 17.5715 11.1085 17.5773C11.0685 17.6173 11.0228 17.6515 10.9771 17.6915C10.9656 17.6744 10.9542 17.663 10.9485 17.6515Z" fill="#FAAF5C"/>
<path d="M19.4913 17.6574C19.4856 17.6574 19.4799 17.6631 19.4742 17.6631C19.4399 17.6345 19.3999 17.606 19.3656 17.5774C19.3656 17.5774 19.3827 17.5488 19.3885 17.5488C19.4285 17.5717 19.4742 17.5945 19.5142 17.6174C19.5085 17.6345 19.5027 17.646 19.4913 17.6574Z" fill="#FAAF5C"/>
<path d="M10.4228 18.0002C10.4114 18.0173 10.4114 18.0287 10.4057 18.0287C10.36 18.0402 10.32 18.0459 10.2743 18.0573C10.2743 18.0459 10.2686 18.0287 10.2686 18.023C10.3086 17.9602 10.3543 17.9487 10.4228 18.0002Z" fill="#FAAF5C"/>
<path d="M17.4114 18.9487C17.3542 19.0001 17.3028 19.0458 17.2228 19.1144C17.2399 18.9887 17.3256 18.9658 17.3656 18.9087C17.3828 18.9258 17.3999 18.9373 17.4114 18.9487Z" fill="#FAAF5C"/>
<path d="M14.2741 18.0684C14.2684 18.1484 14.2627 18.2055 14.257 18.2969C14.1599 18.1884 14.1599 18.1312 14.2741 18.0684Z" fill="#FAAF5C"/>
<path d="M14.9428 17.2114C14.9428 17.2629 14.9485 17.3143 14.9428 17.3657C14.9428 17.3829 14.9028 17.3943 14.88 17.4114C14.8685 17.3829 14.84 17.3486 14.8514 17.3371C14.8743 17.2914 14.9143 17.2571 14.9428 17.2114Z" fill="#FAAF5C"/>
<path d="M20.7029 17.3374C20.7429 17.2688 20.7829 17.2003 20.8229 17.126L20.8171 17.1317C20.8343 17.1545 20.8571 17.1774 20.8743 17.2003C20.8171 17.2403 20.7543 17.286 20.6971 17.326L20.7029 17.3374Z" fill="#FAAF5C"/>
<path d="M18.3543 18.7773C18.3143 18.8058 18.2857 18.8287 18.2571 18.8515C18.2457 18.8287 18.2228 18.8058 18.2286 18.7887C18.24 18.7601 18.2686 18.743 18.2914 18.7258C18.2971 18.7201 18.32 18.7487 18.3543 18.7773Z" fill="#FAAF5C"/>
<path d="M13.777 18.663C13.7485 18.703 13.7199 18.743 13.6742 18.8002C13.6456 18.6916 13.6799 18.6516 13.777 18.663Z" fill="#FAAF5C"/>
<path d="M12.7713 15.5483C12.7941 15.5769 12.817 15.5941 12.8284 15.6226C12.8284 15.6283 12.7998 15.6569 12.7998 15.6569C12.7713 15.6398 12.7484 15.6169 12.7198 15.5941C12.737 15.5826 12.7484 15.5712 12.7713 15.5483Z" fill="#FAAF5C"/>
<path d="M18.3999 15.6226C18.3713 15.5884 18.337 15.5541 18.3085 15.5198C18.3085 15.5198 18.3199 15.5026 18.3256 15.4912C18.3656 15.5198 18.4056 15.5484 18.4456 15.5769C18.4342 15.5884 18.417 15.6055 18.3999 15.6226Z" fill="#FAAF5C"/>
<path d="M17.1542 15.6685C17.1542 15.7199 17.1542 15.777 17.1542 15.8285C17.0856 15.7485 17.0856 15.7485 17.1542 15.6685Z" fill="#FAAF5C"/>
<path d="M13.9028 16.68C13.9485 16.64 13.9828 16.6114 14.0228 16.5771C14.0343 16.6 14.0457 16.6114 14.0457 16.6229C14.0285 16.6857 14.0057 16.7429 13.9028 16.68Z" fill="#FAAF5C"/>
<path d="M14.9485 17.2171C14.9428 17.1942 14.9256 17.1657 14.9313 17.1428C14.9313 17.1142 14.9485 17.0914 14.9656 17.0685C14.9713 17.0628 15.017 17.08 15.017 17.0857C15.0228 17.1142 15.017 17.1485 15.0056 17.1714C14.9942 17.1885 14.9656 17.2 14.9485 17.2171Z" fill="#FAAF5C"/>
<path d="M19.4914 17.2744C19.4628 17.2173 19.4343 17.1601 19.3885 17.063C19.4971 17.1201 19.5314 17.1716 19.5371 17.2458C19.52 17.2573 19.5086 17.2687 19.4914 17.2744Z" fill="#FAAF5C"/>
<path d="M12.4856 16.3717C12.4571 16.326 12.4342 16.3031 12.4342 16.2803C12.4342 16.2631 12.4571 16.2403 12.4742 16.2231C12.4913 16.246 12.5199 16.2689 12.5256 16.2917C12.5313 16.3031 12.5085 16.326 12.4856 16.3717Z" fill="#FAAF5C"/>
<path d="M15.9713 18.4455C15.9885 18.3998 15.9885 18.3655 16.0056 18.3541C16.0285 18.3369 16.0685 18.3426 16.097 18.3369C16.0856 18.3655 16.0856 18.3941 16.0627 18.4169C16.0513 18.4341 16.017 18.4341 15.9713 18.4455Z" fill="#FAAF5C"/>
<path d="M9.42273 18.383C9.38273 18.3773 9.34273 18.3716 9.30845 18.3659C9.30273 18.3659 9.30273 18.3316 9.30273 18.3145C9.34845 18.3145 9.39416 18.3145 9.43416 18.3145C9.43416 18.3373 9.42845 18.3602 9.42273 18.383Z" fill="#FAAF5C"/>
<path d="M10.9771 16.4631C11.0056 16.4288 11.0285 16.3888 11.057 16.3545C11.1142 16.3773 11.1028 16.4002 10.9771 16.4631Z" fill="#FAAF5C"/>
<path d="M14.0171 17.1943C13.9771 17.2801 13.96 17.3201 13.9257 17.3943C13.92 17.2743 13.92 17.2743 14.0171 17.1943Z" fill="#FAAF5C"/>
<path d="M17.3086 15.9602C17.3543 15.9202 17.4 15.8745 17.44 15.8345C17.4515 15.8402 17.4572 15.8516 17.4686 15.8573C17.4229 15.903 17.3829 15.943 17.3372 15.9888C17.3257 15.9773 17.3143 15.9659 17.3086 15.9602Z" fill="#FAAF5C"/>
<path d="M18.6113 17.0972C18.5999 17.1315 18.5884 17.1658 18.577 17.2001C18.577 17.2001 18.537 17.1887 18.5142 17.1829C18.5313 17.1487 18.5542 17.1144 18.5713 17.0801C18.5827 17.0858 18.5999 17.0915 18.6113 17.0972Z" fill="#FAAF5C"/>
<path d="M16.1141 16.7714C16.1599 16.6971 16.1884 16.6571 16.2284 16.5942C16.2456 16.7085 16.2456 16.7085 16.1141 16.7714Z" fill="#FAAF5C"/>
<path d="M20.4799 16.5659C20.5941 16.6345 20.4913 16.6802 20.4799 16.7316C20.4799 16.6745 20.4799 16.6231 20.4799 16.5659Z" fill="#FAAF5C"/>
<path d="M19.5428 16.6914C19.5714 16.72 19.6 16.7543 19.6343 16.7828C19.6171 16.7886 19.5943 16.8114 19.5885 16.8057C19.56 16.7828 19.5314 16.76 19.5085 16.7314C19.5143 16.72 19.5314 16.7085 19.5428 16.6914Z" fill="#FAAF5C"/>
<path d="M18.6514 16.8628C18.6229 16.9142 18.5886 16.9656 18.56 17.0171C18.5429 16.9142 18.5429 16.9142 18.6514 16.8628C18.6514 16.8628 18.6514 16.8685 18.6514 16.8628Z" fill="#FAAF5C"/>
<path d="M8.92566 19.0513C8.9828 19.0284 9.02852 19.017 9.07995 18.9941C9.02852 19.0798 9.02852 19.0798 8.92566 19.0513Z" fill="#FAAF5C"/>
<path d="M7.89139 17.9546C7.9371 17.9832 7.98853 18.0174 8.04567 18.0574C7.93139 18.0974 7.90853 18.0346 7.86853 17.9889C7.87424 17.9774 7.87996 17.966 7.89139 17.9546Z" fill="#FAAF5C"/>
<path d="M19.8456 15.9947C19.8227 15.9432 19.6856 15.909 19.8342 15.8232C19.8342 15.8918 19.8399 15.9432 19.8456 15.9947Z" fill="#FAAF5C"/>
<path d="M17.8513 17.8286C17.8513 17.8743 17.8456 17.92 17.8456 17.9886C17.7656 17.92 17.7599 17.8743 17.8513 17.8286Z" fill="#FAAF5C"/>
<path d="M17.9542 18.8399C17.9199 18.857 17.8857 18.8741 17.8514 18.8913C17.8514 18.8913 17.8228 18.8456 17.8285 18.8456C17.8571 18.8227 17.8914 18.8056 17.9257 18.7827C17.9314 18.7999 17.9428 18.8227 17.9542 18.8399Z" fill="#FAAF5C"/>
<path d="M10.2971 18.6169C10.3257 18.5769 10.3543 18.5369 10.3828 18.4912C10.3943 18.4969 10.4114 18.5141 10.4114 18.5141C10.3885 18.5541 10.3657 18.5998 10.3371 18.6398C10.32 18.6341 10.3085 18.6226 10.2971 18.6169Z" fill="#FAAF5C"/>
<path d="M18.6743 16.5943C18.68 16.5543 18.6857 16.5086 18.6915 16.4629C18.7486 16.5143 18.7486 16.5143 18.6743 16.5943Z" fill="#FAAF5C"/>
<path d="M18.9428 16.2461C18.9542 16.2861 18.9657 16.309 18.96 16.3261C18.9542 16.3432 18.9314 16.3547 18.9142 16.3718C18.9028 16.3547 18.88 16.3318 18.8857 16.3147C18.8857 16.2975 18.9085 16.2804 18.9428 16.2461Z" fill="#FAAF5C"/>
<path d="M19.1999 16.3031C19.1542 16.2973 19.1142 16.2916 19.0685 16.2859C19.1313 16.2002 19.1313 16.2002 19.1999 16.3031Z" fill="#FAAF5C"/>
<path d="M20.5314 16.2799C20.5142 16.2342 20.4914 16.1942 20.4742 16.1428C20.4971 16.1371 20.5142 16.1313 20.5142 16.1313C20.5314 16.1771 20.5428 16.2228 20.56 16.2685C20.5542 16.2742 20.5428 16.2742 20.5314 16.2799Z" fill="#FAAF5C"/>
<path d="M17.5827 16.1886C17.5485 16.1772 17.5199 16.16 17.4856 16.1429C17.4856 16.1429 17.497 16.1143 17.5027 16.0972C17.537 16.1143 17.5656 16.1315 17.5999 16.1429C17.5942 16.16 17.5885 16.1772 17.5827 16.1886Z" fill="#FAAF5C"/>
<path d="M15.9999 16.1543C15.9771 16.1315 15.9485 16.1143 15.9542 16.1086C15.9657 16.0858 15.9828 16.0629 15.9999 16.04C16.0114 16.0515 16.0399 16.0629 16.0399 16.0686C16.0285 16.0972 16.0171 16.1257 15.9999 16.1543Z" fill="#FAAF5C"/>
<path d="M18.6971 15.9546C18.6685 15.9775 18.6513 15.9946 18.6342 16.0117C18.6171 15.9889 18.5942 15.966 18.5828 15.9432C18.5771 15.9317 18.6056 15.9089 18.6228 15.8975C18.6456 15.9089 18.6685 15.926 18.6971 15.9546Z" fill="#FAAF5C"/>
<path d="M17.3485 18.4457C17.3885 18.4457 17.4342 18.4399 17.4857 18.4399C17.4228 18.5085 17.4228 18.5085 17.3485 18.4457Z" fill="#FAAF5C"/>
<path d="M17.0057 17.24C16.9429 17.2572 16.8914 17.2743 16.8171 17.2914C16.8743 17.2057 16.9257 17.1772 17.0057 17.24Z" fill="#FAAF5C"/>
<path d="M10.3029 17.8116C10.3429 17.8002 10.3771 17.7888 10.4171 17.7773C10.4229 17.7888 10.4229 17.8059 10.4286 17.8173C10.3943 17.8288 10.3543 17.8459 10.32 17.8573C10.3143 17.8459 10.3086 17.8288 10.3029 17.8116Z" fill="#FAAF5C"/>
<path d="M11.9543 17.4399C11.9314 17.4685 11.92 17.4856 11.9086 17.5028C11.8971 17.4913 11.8743 17.4799 11.8743 17.4685C11.8743 17.4456 11.8857 17.4228 11.8971 17.3999C11.9143 17.4113 11.9257 17.4228 11.9543 17.4399Z" fill="#FAAF5C"/>
<path d="M14.4798 17.8285C14.4684 17.8514 14.4627 17.8685 14.4512 17.8742C14.4284 17.8914 14.4055 17.9085 14.3827 17.9256C14.377 17.9142 14.3598 17.8971 14.3655 17.8971C14.3884 17.8742 14.417 17.8514 14.4455 17.8285C14.4512 17.8228 14.457 17.8228 14.4798 17.8285Z" fill="#FAAF5C"/>
<path d="M17.5429 19.343C17.4514 19.2859 17.4571 19.2173 17.52 19.103C17.5257 19.2059 17.5314 19.2802 17.5429 19.343C17.5429 19.343 17.5371 19.3487 17.5429 19.343Z" fill="#FAAF5C"/>
<path d="M12.1428 18.4746C12.1771 18.446 12.2171 18.4174 12.2685 18.3774C12.2628 18.4117 12.2685 18.4346 12.2571 18.4403C12.2285 18.4632 12.1943 18.486 12.16 18.5032C12.1543 18.4917 12.1485 18.4803 12.1428 18.4746Z" fill="#FAAF5C"/>
<path d="M15.0571 18.1944C15.0228 18.183 14.9942 18.1773 14.96 18.1658C14.9657 18.1487 14.9714 18.1315 14.9771 18.1201C15.0057 18.1315 15.04 18.143 15.0685 18.1544C15.0685 18.1658 15.0628 18.183 15.0571 18.1944Z" fill="#FAAF5C"/>
<path d="M17.5371 19.3488C17.6 19.3431 17.6628 19.3374 17.6857 19.4402C17.6171 19.4345 17.5771 19.3945 17.5371 19.3488Z" fill="#FAAF5C"/>
<path d="M18.1999 18.0915C18.1656 18.1143 18.1427 18.1315 18.1199 18.1486C18.1199 18.1486 18.0913 18.12 18.0913 18.1143C18.1027 18.0858 18.1199 18.0629 18.137 18.04C18.1542 18.0515 18.1713 18.0629 18.1999 18.0915Z" fill="#FAAF5C"/>
<path d="M18.1257 17.1941C18.1372 17.1312 18.1429 17.0684 18.1543 17.0112C18.1657 17.0112 18.1772 17.0169 18.1943 17.0169C18.1886 17.0798 18.1772 17.1369 18.1714 17.1998C18.1486 17.1941 18.1372 17.1941 18.1257 17.1941Z" fill="#FAAF5C"/>
<path d="M18.4227 18.3201C18.457 18.3086 18.497 18.3029 18.5313 18.2915C18.537 18.3029 18.537 18.3144 18.5427 18.3315C18.5084 18.3429 18.4742 18.3544 18.4399 18.3658C18.4342 18.3544 18.4284 18.3372 18.4227 18.3201Z" fill="#FAAF5C"/>
<path d="M15.6513 18.9941C15.617 19.0056 15.5942 19.017 15.5884 19.0113C15.5713 18.9884 15.5599 18.9656 15.5427 18.937C15.5599 18.937 15.5827 18.9256 15.5942 18.9313C15.617 18.9427 15.6284 18.9656 15.6513 18.9941Z" fill="#FAAF5C"/>
<path d="M11.1257 18.6284C11.1257 18.6627 11.1314 18.7027 11.1314 18.737C11.12 18.737 11.0971 18.737 11.0971 18.7313C11.0914 18.697 11.0857 18.6627 11.0857 18.6284C11.0971 18.6341 11.1086 18.6284 11.1257 18.6284Z" fill="#FAAF5C"/>
<path d="M12.8742 18.8061C12.8399 18.8233 12.8113 18.8461 12.777 18.8633C12.7713 18.8518 12.7656 18.8461 12.7599 18.8347C12.7885 18.8118 12.8227 18.789 12.8513 18.7661C12.857 18.7775 12.8685 18.7947 12.8742 18.8061Z" fill="#FAAF5C"/>
<path d="M15.7257 18.709C15.7486 18.7718 15.76 18.8118 15.7886 18.8804C15.7086 18.829 15.6857 18.789 15.7257 18.709Z" fill="#FAAF5C"/>
<path d="M11.377 16.1201C11.3941 16.0858 11.4112 16.0572 11.4284 16.0229C11.4398 16.0287 11.457 16.0401 11.457 16.0401C11.4455 16.0744 11.4284 16.1029 11.4112 16.1372C11.3998 16.1315 11.3884 16.1258 11.377 16.1201Z" fill="#FAAF5C"/>
<path d="M18.6514 16.8687C18.6514 16.8116 18.6514 16.7544 18.6514 16.703C18.6628 16.703 18.6742 16.6973 18.6799 16.6973C18.6914 16.7258 18.7142 16.7544 18.7085 16.7716C18.7028 16.8001 18.6685 16.8287 18.6514 16.8687Z" fill="#FAAF5C"/>
<path d="M15.3028 16.6973C15.2799 16.6801 15.2685 16.6687 15.2571 16.6573C15.2799 16.6401 15.3028 16.6287 15.3314 16.6173C15.3371 16.6116 15.3542 16.623 15.3656 16.6287C15.3428 16.6459 15.3256 16.6687 15.3028 16.6973Z" fill="#FAAF5C"/>
<path d="M19.1771 16.5659C19.1771 16.6059 19.1771 16.6402 19.1771 16.6802C19.1657 16.6802 19.16 16.6802 19.1486 16.6802C19.1486 16.6402 19.1486 16.6059 19.1486 16.5659C19.16 16.5659 19.1714 16.5659 19.1771 16.5659Z" fill="#FAAF5C"/>
<path d="M19.4285 16.7543C19.3999 16.7715 19.3828 16.8 19.377 16.7943C19.3542 16.7772 19.3313 16.76 19.3085 16.7372C19.3199 16.7258 19.337 16.6972 19.3428 16.7029C19.3713 16.7143 19.3942 16.7315 19.4285 16.7543Z" fill="#FAAF5C"/>
<path d="M10.8514 17.1427C10.8228 17.1141 10.7999 17.0855 10.7714 17.0569C10.7885 17.0398 10.7999 17.0284 10.8171 17.0112C10.8399 17.0455 10.8571 17.0798 10.8799 17.1141C10.8685 17.1255 10.8571 17.1369 10.8514 17.1427Z" fill="#FAAF5C"/>
<path d="M18.7198 15.4684C18.697 15.4913 18.6798 15.5027 18.6627 15.5199C18.6513 15.497 18.6284 15.4799 18.6284 15.457C18.6284 15.4456 18.6513 15.4284 18.6627 15.417C18.6798 15.4341 18.697 15.4456 18.7198 15.4684Z" fill="#FAAF5C"/>
<path d="M8.10275 17.6576C8.08561 17.6633 8.06846 17.6748 8.05704 17.6748C8.04561 17.6748 8.03989 17.6519 8.03418 17.6405C8.05132 17.6348 8.06846 17.6291 8.08561 17.6291C8.09132 17.6233 8.09704 17.6405 8.10275 17.6576Z" fill="#FAAF5C"/>
<path d="M19.1885 17.7487C19.1657 17.7258 19.1428 17.7144 19.1428 17.703C19.1428 17.6858 19.1543 17.663 19.1714 17.6515C19.1771 17.6458 19.2114 17.663 19.2114 17.6744C19.2114 17.6972 19.2 17.7144 19.1885 17.7487Z" fill="#FAAF5C"/>
<path d="M17.9713 18C17.9828 18.0286 17.9942 18.0571 18.0113 18.0914C17.9942 18.0971 17.9771 18.1029 17.9656 18.1086C17.9599 18.0743 17.9542 18.0457 17.9485 18.0114C17.9542 18.0057 17.9599 18.0057 17.9713 18Z" fill="#FAAF5C"/>
<path d="M15.1372 18.1315C15.1257 18.0972 15.1086 18.0744 15.1143 18.0687C15.1257 18.0515 15.1486 18.0344 15.1657 18.0229C15.1714 18.0344 15.1886 18.0572 15.1886 18.063C15.1772 18.0858 15.16 18.0972 15.1372 18.1315Z" fill="#FAAF5C"/>
<path d="M17.3313 17.1715C17.3028 17.1944 17.2856 17.2058 17.2628 17.2172C17.2513 17.2058 17.2342 17.1829 17.2399 17.1829C17.2513 17.1658 17.2685 17.1486 17.2856 17.1372C17.2913 17.1372 17.3085 17.1601 17.3313 17.1715Z" fill="#FAAF5C"/>
<path d="M15.2342 16.9429C15.2628 16.9486 15.2856 16.96 15.3142 16.9657C15.3085 16.9772 15.3028 16.9943 15.3028 16.9943C15.2742 16.9886 15.2513 16.9829 15.2228 16.9714C15.2228 16.9657 15.2285 16.9543 15.2342 16.9429Z" fill="#FAAF5C"/>
<path d="M11.1827 16.9717C11.1941 16.9888 11.2056 17.006 11.217 17.0174C11.1998 17.0288 11.1884 17.046 11.177 17.046C11.1656 17.046 11.1541 17.0231 11.1427 17.0117C11.1541 17.0003 11.1656 16.9888 11.1827 16.9717Z" fill="#FAAF5C"/>
<path d="M13.6228 17.0229C13.6286 17.0515 13.6343 17.0687 13.6286 17.0858C13.6228 17.0972 13.6 17.1087 13.5885 17.1144C13.5828 17.0972 13.5714 17.0801 13.5771 17.063C13.5828 17.0515 13.6 17.0401 13.6228 17.0229Z" fill="#FAAF5C"/>
<path d="M9.71422 17.4001C9.68564 17.4286 9.65707 17.4572 9.6285 17.4801C9.61707 17.4686 9.59993 17.4572 9.5885 17.4458C9.61136 17.4115 9.63993 17.3829 9.66279 17.3486C9.67993 17.3658 9.69707 17.3829 9.71422 17.4001Z" fill="#FAAF5C"/>
<path d="M14.3943 18.9142C14.3828 18.88 14.3714 18.8514 14.36 18.8171C14.3771 18.8114 14.3943 18.8057 14.4057 18.8057C14.4114 18.84 14.4171 18.8742 14.4228 18.9085C14.4171 18.9085 14.4057 18.9085 14.3943 18.9142Z" fill="#FAAF5C"/>
<path d="M9.51416 18.9373C9.53702 18.9087 9.56559 18.8801 9.58845 18.8516C9.59416 18.8573 9.60559 18.863 9.6113 18.8687C9.58845 18.8973 9.56559 18.9316 9.54845 18.9601C9.53702 18.9544 9.52559 18.943 9.51416 18.9373Z" fill="#FAAF5C"/>
<path d="M7.65137 18.5999C7.68565 18.5884 7.71994 18.577 7.75422 18.5713C7.75422 18.5713 7.75994 18.5941 7.76565 18.6056C7.73137 18.6113 7.69708 18.617 7.6628 18.6227C7.65137 18.617 7.65137 18.6113 7.65137 18.5999Z" fill="#FAAF5C"/>
<path d="M7.71992 18.1201C7.7485 18.1544 7.76564 18.1658 7.76564 18.1773C7.76564 18.2001 7.75421 18.223 7.74278 18.2458C7.73135 18.2344 7.7085 18.223 7.7085 18.2058C7.7085 18.183 7.71421 18.1601 7.71992 18.1201Z" fill="#FAAF5C"/>
<path d="M16.5599 18.1144C16.5714 18.0916 16.5828 18.0801 16.5885 18.063C16.5999 18.0687 16.6228 18.0801 16.6228 18.0916C16.6228 18.103 16.6114 18.1201 16.6056 18.1373C16.5942 18.1316 16.5828 18.1201 16.5599 18.1144Z" fill="#FAAF5C"/>
<path d="M17.5942 18.3086C17.6171 18.3429 17.6399 18.36 17.6399 18.3772C17.6399 18.3943 17.6171 18.4172 17.6057 18.4343C17.5942 18.4114 17.5828 18.3886 17.5771 18.3657C17.5714 18.36 17.5828 18.3429 17.5942 18.3086Z" fill="#FAAF5C"/>
<path d="M16.4686 15.5543C16.4457 15.5657 16.4286 15.5714 16.4286 15.5714C16.4171 15.5486 16.4057 15.5314 16.3943 15.5086C16.4057 15.5029 16.4229 15.4914 16.4229 15.4972C16.44 15.5143 16.4571 15.5372 16.4686 15.5543Z" fill="#FAAF5C"/>
<path d="M19.8341 16.6348C19.8341 16.6919 19.8341 16.7491 19.8341 16.8005L19.8398 16.7948C19.7484 16.7205 19.7484 16.7148 19.8341 16.6348Z" fill="#FAAF5C"/>
<path d="M12.1999 16.8054C12.1885 16.7883 12.1656 16.7712 12.1656 16.7597C12.1656 16.7426 12.1885 16.7312 12.2056 16.7197C12.2171 16.7312 12.2399 16.7483 12.2399 16.754C12.2399 16.7712 12.2171 16.7826 12.1999 16.8054Z" fill="#FAAF5C"/>
<path d="M19.64 16.377C19.6228 16.3713 19.6114 16.3656 19.6 16.3656C19.6114 16.3427 19.6228 16.3256 19.64 16.3027C19.64 16.3027 19.6628 16.3084 19.6685 16.3142C19.6571 16.337 19.6457 16.3599 19.64 16.377Z" fill="#FAAF5C"/>
<path d="M16.4799 19.3088C16.4685 19.3202 16.4571 19.3373 16.4456 19.3545C16.4399 19.343 16.4171 19.3259 16.4228 19.3145C16.4342 19.2916 16.4514 19.2802 16.4685 19.2573C16.4685 19.2802 16.4685 19.2916 16.4799 19.3088Z" fill="#FAAF5C"/>
<path d="M17.1886 16.5717C17.1657 16.5488 17.16 16.5374 17.1543 16.5317C17.1714 16.5203 17.1829 16.5031 17.2 16.4917C17.2057 16.5031 17.2172 16.5146 17.2114 16.5203C17.2114 16.5374 17.2 16.5546 17.1886 16.5717Z" fill="#FAAF5C"/>
<path d="M17.4227 16.4688C17.4341 16.4916 17.4513 16.5088 17.4456 16.5202C17.4399 16.5316 17.4227 16.543 17.4056 16.5488C17.3999 16.5373 17.3884 16.5259 17.3884 16.5202C17.3941 16.5088 17.4056 16.4916 17.4227 16.4688Z" fill="#FAAF5C"/>
<path d="M14.2971 16.6915C14.2856 16.7029 14.2742 16.7087 14.2685 16.7144C14.2628 16.6972 14.2513 16.6858 14.2513 16.6687C14.2513 16.6687 14.2571 16.6572 14.2628 16.6572C14.2742 16.6687 14.2856 16.6801 14.2971 16.6915Z" fill="#FAAF5C"/>
<path d="M19.1942 16.3086C19.2285 16.3143 19.2628 16.3257 19.2971 16.3314C19.2914 16.3429 19.2914 16.3543 19.2856 16.3657C19.2571 16.3429 19.2285 16.3257 19.1942 16.3086Z" fill="#FAAF5C"/>
<path d="M10.5371 17.1487C10.5256 17.1602 10.5085 17.1716 10.4971 17.1773C10.4913 17.1602 10.4742 17.143 10.4799 17.1316C10.4856 17.1202 10.5085 17.1145 10.5256 17.103C10.5313 17.1202 10.5371 17.1316 10.5371 17.1487Z" fill="#FAAF5C"/>
<path d="M14.5771 17.1147C14.5943 17.1205 14.6171 17.1262 14.6171 17.1319C14.6171 17.149 14.6114 17.1662 14.6057 17.1833C14.5943 17.1776 14.5771 17.1719 14.5771 17.1662C14.5714 17.149 14.5771 17.1319 14.5771 17.1147Z" fill="#FAAF5C"/>
<path d="M20.2913 17.0972C20.3085 17.12 20.3199 17.1486 20.3371 17.1715C20.3313 17.1772 20.3256 17.1772 20.3199 17.1829C20.2971 17.1657 20.2742 17.1486 20.2513 17.1257C20.2685 17.1143 20.2799 17.1029 20.2913 17.0972Z" fill="#FAAF5C"/>
<path d="M20.6 17.1829C20.5772 17.1886 20.5543 17.2001 20.5372 17.2001L20.5258 17.1715C20.5429 17.1601 20.5658 17.1486 20.5829 17.1372C20.5829 17.1486 20.5886 17.1601 20.6 17.1829Z" fill="#FAAF5C"/>
<path d="M20.0342 17.2401C20.0171 17.2572 20.0056 17.2629 19.9942 17.2743C19.9828 17.2629 19.9599 17.2458 19.9656 17.2343C19.9656 17.2229 19.9885 17.2115 19.9999 17.1943C20.0056 17.2115 20.0171 17.2229 20.0342 17.2401Z" fill="#FAAF5C"/>
<path d="M17.4628 17.0461C17.4457 17.0518 17.4343 17.0575 17.4285 17.0575C17.4228 17.0403 17.4171 17.0232 17.4171 17.0061C17.4171 17.0003 17.44 17.0003 17.4457 16.9946C17.4514 17.0118 17.4571 17.0289 17.4628 17.0461Z" fill="#FAAF5C"/>
<path d="M16.2227 17.0512C16.2113 17.0627 16.2056 17.0798 16.1941 17.0912C16.1884 17.0741 16.177 17.0627 16.177 17.0455C16.177 17.0341 16.1941 17.0227 16.2056 17.0112C16.2113 17.0284 16.217 17.0341 16.2227 17.0512Z" fill="#FAAF5C"/>
<path d="M10.3085 16.9488C10.2799 16.9431 10.2456 16.9374 10.217 16.9374C10.217 16.9317 10.217 16.9203 10.217 16.9146C10.2513 16.9146 10.2799 16.9203 10.3142 16.9203C10.3142 16.926 10.3142 16.9374 10.3085 16.9488Z" fill="#FAAF5C"/>
<path d="M16.9884 15.4913C16.9712 15.5027 16.9541 15.5199 16.9369 15.5313C16.9312 15.5199 16.9198 15.5027 16.9198 15.5027C16.9312 15.4856 16.9484 15.4685 16.9655 15.457C16.9712 15.4627 16.9769 15.4685 16.9884 15.4913Z" fill="#FAAF5C"/>
<path d="M18.6799 16.103C18.6914 16.1373 18.6971 16.1659 18.7085 16.2002C18.6971 16.2002 18.6914 16.2059 18.6799 16.2059C18.6685 16.1716 18.6628 16.143 18.6514 16.1087C18.6571 16.1087 18.6685 16.1087 18.6799 16.103Z" fill="#FAAF5C"/>
<path d="M18.16 16.2346C18.1429 16.2289 18.1257 16.2232 18.1257 16.2117C18.1257 16.1946 18.1314 16.1832 18.1372 16.166C18.1486 16.1717 18.1657 16.1717 18.1657 16.1774C18.1657 16.2003 18.16 16.2174 18.16 16.2346Z" fill="#FAAF5C"/>
<path d="M18.4113 16.1943C18.4399 16.2058 18.4685 16.2115 18.4913 16.2229C18.4913 16.2229 18.4856 16.2401 18.4856 16.2515C18.457 16.2401 18.4285 16.2286 18.3999 16.2172C18.4056 16.2115 18.4113 16.2001 18.4113 16.1943Z" fill="#FAAF5C"/>
<path d="M16.5199 18.6173C16.5085 18.6001 16.497 18.583 16.5027 18.5773C16.5142 18.5658 16.5256 18.5544 16.5427 18.543C16.5485 18.5544 16.5599 18.5658 16.5599 18.5773C16.5485 18.5944 16.5313 18.6058 16.5199 18.6173Z" fill="#FAAF5C"/>
<path d="M17.3199 19.5657C17.297 19.5772 17.2799 19.5829 17.257 19.5943C17.2513 19.5829 17.2456 19.5657 17.2456 19.56C17.2627 19.5429 17.2856 19.5314 17.3027 19.52C17.3085 19.5372 17.3142 19.5486 17.3199 19.5657Z" fill="#FAAF5C"/>
<path d="M11.177 18.3031C11.1884 18.2974 11.2056 18.286 11.2227 18.2803C11.2284 18.2917 11.2399 18.3146 11.2399 18.3203C11.2284 18.3317 11.2113 18.3374 11.1941 18.3431C11.1884 18.3317 11.1827 18.3203 11.177 18.3031Z" fill="#FAAF5C"/>
<path d="M14.9999 18.3487C14.9828 18.3658 14.9656 18.3887 14.9485 18.4001C14.9428 18.4058 14.9313 18.3944 14.9199 18.3887C14.9313 18.3715 14.9428 18.3487 14.9599 18.3315C14.9656 18.3315 14.9828 18.343 14.9999 18.3487Z" fill="#FAAF5C"/>
<path d="M8.81133 17.7714C8.80562 17.7485 8.79419 17.7314 8.79419 17.72C8.79419 17.7085 8.81705 17.7028 8.82848 17.6914C8.83419 17.7028 8.85133 17.72 8.85133 17.7314C8.84562 17.7428 8.82848 17.7543 8.81133 17.7714Z" fill="#FAAF5C"/>
<path d="M18.4457 17.5429C18.4229 17.5486 18.4057 17.5601 18.3829 17.5658C18.3772 17.5658 18.3657 17.5429 18.3657 17.5429C18.3829 17.5315 18.4 17.5144 18.4229 17.5029C18.4286 17.5086 18.4343 17.5201 18.4457 17.5429Z" fill="#FAAF5C"/>
<path d="M18.9942 17.6741C18.9771 17.6627 18.9657 17.657 18.96 17.6513C18.9714 17.6341 18.9828 17.617 18.9942 17.6056C19 17.5999 19.0171 17.6056 19.0228 17.6056C19.0171 17.6284 19.0057 17.6513 18.9942 17.6741Z" fill="#FAAF5C"/>
<path d="M17.4285 17.6745C17.4113 17.6802 17.4056 17.6859 17.3942 17.6916C17.3885 17.6745 17.3771 17.6573 17.3713 17.6459C17.3885 17.6402 17.3999 17.6345 17.4171 17.623C17.4171 17.6402 17.4228 17.6573 17.4285 17.6745Z" fill="#FAAF5C"/>
<path d="M12.4628 17.2974C12.4399 17.3145 12.4285 17.3317 12.4171 17.3317C12.3999 17.3317 12.3885 17.3145 12.3713 17.3088C12.3885 17.2917 12.3999 17.2745 12.4171 17.2631C12.4228 17.2574 12.4399 17.2802 12.4628 17.2974Z" fill="#FAAF5C"/>
<path d="M17.56 17.4399C17.5828 17.4571 17.5943 17.4685 17.6057 17.4799C17.5943 17.4914 17.5828 17.5085 17.5714 17.5142C17.5657 17.5142 17.5428 17.5028 17.5428 17.4914C17.5428 17.4799 17.5486 17.4628 17.56 17.4399Z" fill="#FAAF5C"/>
<path d="M11.4113 17.503C11.3999 17.5145 11.3828 17.5259 11.3771 17.5259C11.3656 17.5087 11.3542 17.4916 11.3428 17.4802C11.3542 17.4745 11.3656 17.4688 11.3713 17.4688C11.3885 17.4745 11.3942 17.4916 11.4113 17.503Z" fill="#FAAF5C"/>
<path d="M17.1428 17.4573C17.1314 17.4687 17.12 17.4859 17.1085 17.4973C17.0971 17.4859 17.08 17.4687 17.08 17.463C17.0857 17.4459 17.1028 17.4401 17.1142 17.4287C17.1257 17.4344 17.1314 17.4459 17.1428 17.4573Z" fill="#FAAF5C"/>
<path d="M20.0171 16.549C20.0628 16.5148 20.0857 16.4976 20.1028 16.4805C20.0971 16.5033 20.0914 16.5205 20.0799 16.5433C20.0799 16.5433 20.0628 16.5376 20.0171 16.549Z" fill="#FAAF5C"/>
<path d="M18.8856 18.0059C18.897 18.0344 18.9085 18.0516 18.9085 18.063C18.9027 18.0744 18.8799 18.0801 18.8685 18.0916C18.8627 18.0801 18.8513 18.0687 18.8513 18.0573C18.8513 18.0459 18.8685 18.0287 18.8856 18.0059Z" fill="#FAAF5C"/>
<path d="M12.7428 18.0972C12.7714 18.0972 12.7999 18.0972 12.8285 18.0972C12.8285 18.1029 12.8285 18.1143 12.8285 18.12C12.7999 18.12 12.7714 18.1257 12.7428 18.1257C12.7428 18.1143 12.7428 18.1086 12.7428 18.0972Z" fill="#FAAF5C"/>
<path d="M19.1657 18.2172C19.1485 18.223 19.1257 18.2344 19.1085 18.2401C19.1085 18.2287 19.1085 18.2115 19.1142 18.2058C19.1257 18.1944 19.1428 18.1887 19.1599 18.1772C19.1542 18.1887 19.1599 18.1944 19.1657 18.2172Z" fill="#FAAF5C"/>
<path d="M16.3999 17.7256C16.4113 17.7484 16.4227 17.7656 16.4227 17.777C16.417 17.7884 16.3942 17.7999 16.377 17.8056C16.3713 17.8056 16.3485 17.777 16.3542 17.7713C16.3542 17.7542 16.377 17.7427 16.3999 17.7256Z" fill="#FAAF5C"/>
<path d="M13.9028 17.8458C13.8856 17.8572 13.8742 17.8743 13.8628 17.88C13.8571 17.8858 13.8399 17.8686 13.8285 17.8686C13.8399 17.8572 13.8513 17.84 13.8628 17.8343C13.8742 17.8229 13.8856 17.8343 13.9028 17.8458Z" fill="#FAAF5C"/>
<path d="M17.36 15.2288C17.3485 15.2402 17.3371 15.2573 17.3371 15.2573C17.32 15.2516 17.3085 15.2402 17.2914 15.2288C17.3028 15.2173 17.3142 15.2002 17.32 15.2002C17.3314 15.2002 17.3428 15.2173 17.36 15.2288Z" fill="#FAAF5C"/>
<path d="M9.84568 1.66278C9.84568 1.66278 9.7371 1.76564 9.72567 1.81707C9.70853 1.91421 9.78853 1.98279 9.78853 1.98279C9.78853 1.98279 10.5428 1.82278 11.2057 1.53136L11.0914 1.49707C10.1714 1.69136 9.84568 1.66278 9.84568 1.66278Z" fill="url(#paint23_linear)"/>
<path d="M9.84573 1.66309L8.42859 2.16594C8.8743 2.15451 9.4743 1.93737 9.78859 1.98309C9.80573 1.68023 9.84573 1.66309 9.84573 1.66309Z" fill="url(#paint24_linear)"/>
<path d="M9.79426 1.98273C8.54855 1.81701 4.46855 3.5313 2.78284 6.18844C4.38284 4.94273 8.07426 2.43987 9.97141 1.93701L9.79426 1.98273Z" fill="url(#paint25_linear)"/>
<path d="M9.73142 2C6.13713 3.00571 2.18285 5.13714 1.54285 9.12571C1.54285 9.12571 3.34856 9.05143 4.57142 10.8629C6.01142 10.04 9.73142 2 9.73142 2Z" fill="url(#paint26_linear)"/>
<path d="M12.7601 16.9546L10.5601 6.87465L11.2401 6.72607L13.4401 16.8061C13.2629 16.9775 13.0001 17.0346 12.7601 16.9546Z" fill="#E89043"/>
<path d="M10.9142 6.7998L10.5657 6.87409L12.7657 16.9541C12.8628 16.9884 12.9657 16.9998 13.0628 16.9827C12.2171 13.9141 11.0742 7.70266 10.9142 6.7998Z" fill="url(#paint27_linear)"/>
<path d="M11.2457 6.72607L10.5657 6.87465L11.6457 11.8404C11.8628 11.9832 12.2914 11.8804 12.3371 11.7432L11.2457 6.72607Z" fill="url(#paint28_linear)"/>
<path d="M11.7142 10.2114C11.7142 10.2114 15.7542 7.27998 18.4171 7.57713C18.4171 7.57713 18.72 4.99427 20.3142 4.51427C20.3142 4.51427 17.0514 0.0514141 9.97138 1.93141C6.31995 2.90856 11.7142 10.2114 11.7142 10.2114Z" fill="url(#paint29_linear)"/>
<path d="M9.97143 1.93141C12.2743 1.31998 16.72 2.91427 18.2343 3.27427L19.0857 3.33141C14.4686 -0.622877 9.78857 1.97712 9.78857 1.97712L9.97143 1.93141Z" fill="url(#paint30_linear)"/>
<path d="M9.79427 1.98291C4.71427 4.03434 4.57141 10.8629 4.57141 10.8629C7.05713 9.44577 11.7143 10.2115 11.7143 10.2115L9.79427 1.98291Z" fill="url(#paint31_linear)"/>
<path d="M20.3143 4.51427C20.3143 4.51427 17.0515 0.0514138 9.97145 1.93141C9.91431 1.94856 9.85145 1.9657 9.79431 1.98284C16.08 2.47427 18.4172 7.57713 18.4172 7.57713C18.4172 7.57713 18.72 4.99427 20.3143 4.51427Z" fill="url(#paint32_linear)"/>
<path d="M9.79427 1.98291C4.71427 4.03434 4.57141 10.8629 4.57141 10.8629C7.05713 9.44577 11.7143 10.2115 11.7143 10.2115L9.79427 1.98291Z" fill="url(#paint33_linear)"/>
<path d="M9.85598 2.19282C10.1178 2.10017 10.2976 1.93342 10.2576 1.82037C10.2176 1.70731 9.97291 1.69077 9.7111 1.78342C9.4493 1.87607 9.26949 2.04282 9.3095 2.15587C9.34951 2.26893 9.59417 2.28547 9.85598 2.19282Z" fill="#391838"/>
<defs>
<radialGradient id="paint0_radial" cx="0" cy="0" r="1" gradientUnits="userSpaceOnUse" gradientTransform="translate(13.7831 18.8881) rotate(-1.38886) scale(8.19484 2.10507)">
<stop stop-color="white"/>
<stop offset="1" stop-color="white" stop-opacity="0"/>
</radialGradient>
<radialGradient id="paint1_radial" cx="0" cy="0" r="1" gradientUnits="userSpaceOnUse" gradientTransform="translate(16.6816 18.4565) rotate(93.4709) scale(2.5045 20.0854)">
<stop stop-color="white" stop-opacity="0.5"/>
<stop offset="1" stop-color="white" stop-opacity="0"/>
</radialGradient>
<linearGradient id="paint2_linear" x1="15.1418" y1="19.291" x2="13.5881" y2="16.5854" gradientUnits="userSpaceOnUse">
<stop stop-color="#FFD87C"/>
<stop offset="0.343" stop-color="#FFD981"/>
<stop offset="0.7666" stop-color="#FFDE90"/>
<stop offset="1" stop-color="#FFE19C"/>
</linearGradient>
<radialGradient id="paint3_radial" cx="0" cy="0" r="1" gradientUnits="userSpaceOnUse" gradientTransform="translate(14.3885 15.993) rotate(78.8665) scale(3.10771 6.02215)">
<stop stop-color="#FFCB4B"/>
<stop offset="1" stop-color="#FFA754" stop-opacity="0"/>
</radialGradient>
<radialGradient id="paint4_radial" cx="0" cy="0" r="1" gradientUnits="userSpaceOnUse" gradientTransform="translate(14.1544 17.2117) rotate(-1.38886) scale(7.37407 3.68002)">
<stop stop-color="#FFCB4B"/>
<stop offset="1" stop-color="#FFA754" stop-opacity="0"/>
</radialGradient>
<linearGradient id="paint5_linear" x1="13.7401" y1="14.4596" x2="14.5819" y2="19.7301" gradientUnits="userSpaceOnUse">
<stop stop-color="#FFCB4B"/>
<stop offset="1" stop-color="#FFA754" stop-opacity="0"/>
</linearGradient>
<radialGradient id="paint6_radial" cx="0" cy="0" r="1" gradientUnits="userSpaceOnUse" gradientTransform="translate(8.72261 18.4623) scale(0.113072)">
<stop stop-color="#FFA754"/>
<stop offset="1" stop-color="#FFA754" stop-opacity="0"/>
</radialGradient>
<radialGradient id="paint7_radial" cx="0" cy="0" r="1" gradientUnits="userSpaceOnUse" gradientTransform="translate(12.6564 15.8591) scale(0.113077)">
<stop stop-color="#FFA754"/>
<stop offset="1" stop-color="#FFA754" stop-opacity="0"/>
</radialGradient>
<radialGradient id="paint8_radial" cx="0" cy="0" r="1" gradientUnits="userSpaceOnUse" gradientTransform="translate(11.2361 16.8369) scale(0.0976115)">
<stop stop-color="#FFA754"/>
<stop offset="1" stop-color="#FFA754" stop-opacity="0"/>
</radialGradient>
<radialGradient id="paint9_radial" cx="0" cy="0" r="1" gradientUnits="userSpaceOnUse" gradientTransform="translate(14.0705 18.1787) rotate(-177.23) scale(0.0619258)">
<stop stop-color="#FFA754"/>
<stop offset="1" stop-color="#FFA754" stop-opacity="0"/>
</radialGradient>
<radialGradient id="paint10_radial" cx="0" cy="0" r="1" gradientUnits="userSpaceOnUse" gradientTransform="translate(10.6728 18.7258) scale(0.0903167)">
<stop stop-color="#FFA754"/>
<stop offset="1" stop-color="#FFA754" stop-opacity="0"/>
</radialGradient>
<radialGradient id="paint11_radial" cx="0" cy="0" r="1" gradientUnits="userSpaceOnUse" gradientTransform="translate(13.3079 17.3681) scale(0.0614118)">
<stop stop-color="#FFA754"/>
<stop offset="1" stop-color="#FFA754" stop-opacity="0"/>
</radialGradient>
<radialGradient id="paint12_radial" cx="0" cy="0" r="1" gradientUnits="userSpaceOnUse" gradientTransform="translate(14.4423 17.0943) scale(0.107308)">
<stop stop-color="#FFA754"/>
<stop offset="1" stop-color="#FFA754" stop-opacity="0"/>
</radialGradient>
<radialGradient id="paint13_radial" cx="0" cy="0" r="1" gradientUnits="userSpaceOnUse" gradientTransform="translate(11.9739 17.6537) rotate(-177.231) scale(0.107325)">
<stop stop-color="#FFA754"/>
<stop offset="1" stop-color="#FFA754" stop-opacity="0"/>
</radialGradient>
<radialGradient id="paint14_radial" cx="0" cy="0" r="1" gradientUnits="userSpaceOnUse" gradientTransform="translate(15.2188 17.9529) scale(0.163766)">
<stop stop-color="#FFA754"/>
<stop offset="1" stop-color="#FFA754" stop-opacity="0"/>
</radialGradient>
<radialGradient id="paint15_radial" cx="0" cy="0" r="1" gradientUnits="userSpaceOnUse" gradientTransform="translate(16.6247 16.1083) scale(0.061409)">
<stop stop-color="#FFA754"/>
<stop offset="1" stop-color="#FFA754" stop-opacity="0"/>
</radialGradient>
<radialGradient id="paint16_radial" cx="0" cy="0" r="1" gradientUnits="userSpaceOnUse" gradientTransform="translate(16.6696 17.1485) scale(0.0727541)">
<stop stop-color="#FFA754"/>
<stop offset="1" stop-color="#FFA754" stop-opacity="0"/>
</radialGradient>
<radialGradient id="paint17_radial" cx="0" cy="0" r="1" gradientUnits="userSpaceOnUse" gradientTransform="translate(16.4954 18.4005) scale(0.046052)">
<stop stop-color="#FFA754"/>
<stop offset="1" stop-color="#FFA754" stop-opacity="0"/>
</radialGradient>
<radialGradient id="paint18_radial" cx="0" cy="0" r="1" gradientUnits="userSpaceOnUse" gradientTransform="translate(17.7815 18.3665) scale(0.0925581)">
<stop stop-color="#FFA754"/>
<stop offset="1" stop-color="#FFA754" stop-opacity="0"/>
</radialGradient>
<radialGradient id="paint19_radial" cx="0" cy="0" r="1" gradientUnits="userSpaceOnUse" gradientTransform="translate(17.7018 15.6791) scale(0.107311)">
<stop stop-color="#FFA754"/>
<stop offset="1" stop-color="#FFA754" stop-opacity="0"/>
</radialGradient>
<radialGradient id="paint20_radial" cx="0" cy="0" r="1" gradientUnits="userSpaceOnUse" gradientTransform="translate(20.3706 16.1118) scale(0.0747094)">
<stop stop-color="#FFA754"/>
<stop offset="1" stop-color="#FFA754" stop-opacity="0"/>
</radialGradient>
<radialGradient id="paint21_radial" cx="0" cy="0" r="1" gradientUnits="userSpaceOnUse" gradientTransform="translate(18.7416 17.3406) scale(0.0432024)">
<stop stop-color="#FFA754"/>
<stop offset="1" stop-color="#FFA754" stop-opacity="0"/>
</radialGradient>
<radialGradient id="paint22_radial" cx="0" cy="0" r="1" gradientUnits="userSpaceOnUse" gradientTransform="translate(19.0054 16.3441) scale(0.108121)">
<stop stop-color="#FFA754"/>
<stop offset="1" stop-color="#FFA754" stop-opacity="0"/>
</radialGradient>
<linearGradient id="paint23_linear" x1="9.72628" y1="1.73936" x2="11.2086" y2="1.73936" gradientUnits="userSpaceOnUse">
<stop stop-color="#FCD2A8"/>
<stop offset="0.926" stop-color="white"/>
</linearGradient>
<linearGradient id="paint24_linear" x1="9.01372" y1="1.6623" x2="9.50491" y2="2.6447" gradientUnits="userSpaceOnUse">
<stop stop-color="#FF0000"/>
<stop offset="1" stop-color="#860805"/>
</linearGradient>
<linearGradient id="paint25_linear" x1="7.0059" y1="1.46777" x2="6.488" y2="3.61083" gradientUnits="userSpaceOnUse">
<stop stop-color="white"/>
<stop offset="1" stop-color="#FCD2A8"/>
</linearGradient>
<linearGradient id="paint26_linear" x1="1.54285" y1="6.43102" x2="9.72863" y2="6.43102" gradientUnits="userSpaceOnUse">
<stop stop-color="#FF0000"/>
<stop offset="1" stop-color="#860805"/>
</linearGradient>
<linearGradient id="paint27_linear" x1="11.8106" y1="13.5654" x2="11.8106" y2="17.0479" gradientUnits="userSpaceOnUse">
<stop stop-color="#C86F34"/>
<stop offset="1" stop-color="#A3541E"/>
</linearGradient>
<linearGradient id="paint28_linear" x1="12.0262" y1="13.1154" x2="11.3297" y2="8.50784" gradientUnits="userSpaceOnUse">
<stop stop-color="#C86F34"/>
<stop offset="1" stop-color="#A3541E" stop-opacity="0"/>
</linearGradient>
<linearGradient id="paint29_linear" x1="8.12625" y1="10.4286" x2="17.7343" y2="1.17771" gradientUnits="userSpaceOnUse">
<stop stop-color="#BD2719"/>
<stop offset="0.3049" stop-color="#FF0000"/>
<stop offset="0.5394" stop-color="#FF0000"/>
<stop offset="1" stop-color="#860805"/>
</linearGradient>
<linearGradient id="paint30_linear" x1="16.4552" y1="3.29378" x2="9.1331" y2="0.114907" gradientUnits="userSpaceOnUse">
<stop stop-color="#FF0000"/>
<stop offset="1" stop-color="#860805"/>
</linearGradient>
<linearGradient id="paint31_linear" x1="5.35651" y1="6.32942" x2="12.3157" y2="6.68328" gradientUnits="userSpaceOnUse">
<stop stop-color="#FCD2A8"/>
<stop offset="0.3776" stop-color="white"/>
<stop offset="0.7039" stop-color="white"/>
<stop offset="1" stop-color="#FCD2A8"/>
</linearGradient>
<linearGradient id="paint32_linear" x1="17.5768" y1="7.61969" x2="12.8621" y2="-0.550718" gradientUnits="userSpaceOnUse">
<stop stop-color="#FCD2A8"/>
<stop offset="0.3776" stop-color="white"/>
<stop offset="0.7039" stop-color="white"/>
<stop offset="1" stop-color="#FCD2A8"/>
</linearGradient>
<linearGradient id="paint33_linear" x1="9.74102" y1="0.797453" x2="7.03541" y2="16.8168" gradientUnits="userSpaceOnUse">
<stop stop-color="white" stop-opacity="0"/>
<stop offset="1" stop-color="#FCD2A8"/>
</linearGradient>
</defs>
</svg>
