<svg width="80" height="80" viewBox="0 0 80 80" fill="none" xmlns="http://www.w3.org/2000/svg">
<path d="M40.475 70.95C57.3059 70.95 70.95 57.3059 70.95 40.475C70.95 23.6441 57.3059 10 40.475 10C23.6441 10 10 23.6441 10 40.475C10 57.3059 23.6441 70.95 40.475 70.95Z" fill="url(#paint0_radial)"/>
<path opacity="0.5" d="M40.475 70.95C57.3059 70.95 70.95 57.3059 70.95 40.475C70.95 23.6441 57.3059 10 40.475 10C23.6441 10 10 23.6441 10 40.475C10 57.3059 23.6441 70.95 40.475 70.95Z" fill="url(#paint1_radial)"/>
<path d="M61.0563 45.6345C60.8295 45.5495 60.5743 45.5353 60.3475 45.6062C53.9124 47.4488 47.2362 48.3702 40.4892 48.3702C33.7422 48.3702 27.0518 47.4347 20.6308 45.6062C20.3899 45.5353 20.1489 45.5495 19.9221 45.6345C19.2276 45.918 18.122 46.9669 19.5819 50.9783V50.9924C21.7364 56.1236 27.4487 65.1385 40.475 65.1385C53.4729 65.1385 59.1852 56.1094 61.3965 50.9924C62.8422 46.9669 61.7508 45.918 61.0563 45.6345Z" fill="url(#paint2_linear)"/>
<path d="M32.4241 26.1021C32.0981 24.9256 30.6239 24.5429 28.4269 25.1524C26.57 25.6769 22.7713 27.8314 20.9711 32.2397C20.6451 33.0476 21.5381 33.1893 21.9208 32.6224C23.239 30.6663 27.3355 27.4912 31.0633 26.8675C32.58 26.6124 32.4241 26.1021 32.4241 26.1021Z" fill="url(#paint3_linear)"/>
<path d="M32.2255 35.5706C30.1135 34.2666 27.3921 34.4083 25.4076 35.8967C24.4012 36.6621 23.409 37.8244 22.8279 39.6387C22.7287 39.9364 22.6578 40.2624 22.6436 40.5884C22.6011 41.2404 23.0547 41.8216 23.7917 41.1412C29.419 35.8258 33.3595 41.2971 33.3595 41.2971C34.1249 41.8499 34.9045 40.7018 34.7486 39.6387C34.7061 39.3269 34.6635 39.0009 34.5927 38.7174C34.1391 37.1582 33.2177 36.1801 32.2255 35.5706Z" fill="url(#paint4_radial)"/>
<path d="M60.6451 45.5494C60.6025 45.5494 60.56 45.5494 60.5033 45.5636C54.0114 47.4346 47.2786 48.3843 40.4607 48.3843C33.6428 48.3843 26.9099 47.4346 20.4181 45.5636C20.3755 45.5494 20.333 45.5494 20.2763 45.5494C19.8369 45.592 17.7391 46.0314 19.5392 50.9924V51.0066C20.4181 53.0761 21.878 55.7834 24.1601 58.2639C22.0198 55.7267 24.6562 54.3234 29.3479 54.8904C34.0397 55.4574 40.4607 55.4715 40.4607 55.4715C40.4607 55.4715 46.8675 55.4574 51.5734 54.8904C56.2652 54.3234 58.9016 55.7267 56.7613 58.2639C59.0434 55.7834 60.5033 53.0761 61.3821 51.0066V50.9924C63.1823 46.0172 61.0845 45.5778 60.6451 45.5494Z" fill="url(#paint5_linear)"/>
<path d="M57.0307 52.5233C58.8167 52.1405 60.1633 50.6522 60.3333 48.8237L60.5034 47.0378C54.0115 48.8662 47.2787 49.8018 40.475 49.8018C33.6713 49.8018 26.9384 48.8662 20.4465 47.0378L20.6166 48.8237C20.7867 50.6381 22.1333 52.1264 23.9193 52.5233C29.3339 53.6997 34.8903 54.2809 40.475 54.2809C46.0597 54.2809 51.6161 53.6856 57.0307 52.5233Z" fill="url(#paint6_radial)"/>
<path d="M34.5784 38.7032C34.3799 38.0653 34.1106 37.5125 33.8129 37.0589C33.3594 36.4069 32.8066 35.925 32.2254 35.5706C30.1134 34.2666 27.3919 34.4083 25.4075 35.8966C24.4011 36.6621 23.4089 37.8244 22.8278 39.6387C22.7711 39.8088 22.7285 39.9931 22.7002 40.1773V40.1915C25.1807 36.3219 28.7527 36.0526 28.7527 36.0526C28.7527 36.0526 32.2963 35.7549 34.6918 39.2135C34.6634 39.0434 34.6209 38.8733 34.5784 38.7032Z" fill="url(#paint7_linear)"/>
<path d="M48.526 26.1021C48.852 24.9256 50.3262 24.5429 52.5232 25.1524C54.3801 25.6769 58.1788 27.8314 59.9789 32.2397C60.305 33.0476 59.412 33.1893 59.0293 32.6224C57.711 30.6663 53.6146 27.4912 49.8868 26.8675C48.3701 26.6124 48.526 26.1021 48.526 26.1021Z" fill="url(#paint8_linear)"/>
<path d="M48.7245 35.5706C50.8365 34.2666 53.558 34.4083 55.5424 35.8967C56.5488 36.6621 57.541 37.8244 58.1222 39.6387C58.2214 39.9364 58.2922 40.2624 58.3064 40.5884C58.3489 41.2404 57.8954 41.8216 57.1583 41.1412C51.5311 35.8258 47.5906 41.2971 47.5906 41.2971C46.8252 41.8499 46.0456 40.7018 46.2015 39.6387C46.244 39.3269 46.2865 39.0009 46.3574 38.7174C46.811 37.1582 47.7323 36.1801 48.7245 35.5706Z" fill="url(#paint9_radial)"/>
<path d="M46.3715 38.7032C46.5699 38.0653 46.8392 37.5125 47.1369 37.0589C47.5905 36.4069 48.1433 35.925 48.7244 35.5706C50.8364 34.2666 53.5579 34.4083 55.5423 35.8966C56.5487 36.6621 57.5409 37.8244 58.122 39.6387C58.1787 39.8088 58.2213 39.9931 58.2496 40.1773V40.1915C55.7691 36.3219 52.1971 36.0526 52.1971 36.0526C52.1971 36.0526 48.6535 35.7549 46.2581 39.2135C46.2864 39.0434 46.3289 38.8733 46.3715 38.7032Z" fill="url(#paint10_linear)"/>
<path d="M57.8387 54.7345C58.0513 54.4226 57.7111 54.0258 57.371 54.1817C55.1881 55.1314 50.0003 56.7756 40.475 56.7756C30.638 56.7756 25.6911 55.1881 23.5933 54.2242C23.2531 54.0683 22.9129 54.4652 23.1255 54.777C26.1163 59.1852 31.4176 63.8061 40.475 63.8061C49.5325 63.7919 54.8337 59.1569 57.8387 54.7345Z" fill="url(#paint11_radial)"/>
<defs>
<radialGradient id="paint0_radial" cx="0" cy="0" r="1" gradientUnits="userSpaceOnUse" gradientTransform="translate(34.479 28.1245) scale(36.7641)">
<stop stop-color="#FFDF30"/>
<stop offset="1" stop-color="#FFB82E"/>
</radialGradient>
<radialGradient id="paint1_radial" cx="0" cy="0" r="1" gradientUnits="userSpaceOnUse" gradientTransform="translate(34.479 28.1245) scale(28.924)">
<stop stop-color="#FFE95F"/>
<stop offset="1" stop-color="#FFBB47" stop-opacity="0"/>
</radialGradient>
<linearGradient id="paint2_linear" x1="18.842" y1="55.3493" x2="62.1081" y2="55.3493" gradientUnits="userSpaceOnUse">
<stop offset="0.00132565" stop-color="#3C2200"/>
<stop offset="0.5" stop-color="#512D00"/>
<stop offset="1" stop-color="#3C2200"/>
</linearGradient>
<linearGradient id="paint3_linear" x1="26.7789" y1="29.7966" x2="25.9128" y2="26.7042" gradientUnits="userSpaceOnUse">
<stop offset="0.00132565" stop-color="#3C2200"/>
<stop offset="1" stop-color="#7A4400"/>
</linearGradient>
<radialGradient id="paint4_radial" cx="0" cy="0" r="1" gradientUnits="userSpaceOnUse" gradientTransform="translate(28.726 38.2583) rotate(175.474) scale(4.7016 3.33383)">
<stop offset="0.00132565" stop-color="#7A4400"/>
<stop offset="1" stop-color="#643800"/>
</radialGradient>
<linearGradient id="paint5_linear" x1="61.8657" y1="51.8982" x2="19.3441" y2="51.8982" gradientUnits="userSpaceOnUse">
<stop offset="0.00132565" stop-color="#3C2200"/>
<stop offset="0.5" stop-color="#512D00"/>
<stop offset="1" stop-color="#3C2200"/>
</linearGradient>
<radialGradient id="paint6_radial" cx="0" cy="0" r="1" gradientUnits="userSpaceOnUse" gradientTransform="translate(40.475 50.6659) scale(36.8167)">
<stop offset="0.00132565" stop-color="white"/>
<stop offset="1" stop-color="#A8BBBD"/>
</radialGradient>
<linearGradient id="paint7_linear" x1="29.2204" y1="32.3385" x2="28.8472" y2="37.4559" gradientUnits="userSpaceOnUse">
<stop offset="0.00132565" stop-color="#3C2200"/>
<stop offset="1" stop-color="#512D00"/>
</linearGradient>
<linearGradient id="paint8_linear" x1="54.1996" y1="29.8016" x2="55.0656" y2="26.7092" gradientUnits="userSpaceOnUse">
<stop offset="0.00132565" stop-color="#3C2200"/>
<stop offset="1" stop-color="#7A4400"/>
</linearGradient>
<radialGradient id="paint9_radial" cx="0" cy="0" r="1" gradientUnits="userSpaceOnUse" gradientTransform="translate(52.1903 38.2577) rotate(4.5256) scale(4.70159 3.33383)">
<stop offset="0.00132565" stop-color="#7A4400"/>
<stop offset="1" stop-color="#643800"/>
</radialGradient>
<linearGradient id="paint10_linear" x1="51.7035" y1="32.34" x2="52.0767" y2="37.4573" gradientUnits="userSpaceOnUse">
<stop offset="0.00132565" stop-color="#3C2200"/>
<stop offset="1" stop-color="#512D00"/>
</linearGradient>
<radialGradient id="paint11_radial" cx="0" cy="0" r="1" gradientUnits="userSpaceOnUse" gradientTransform="translate(40.4816 58.9692) scale(36.2765)">
<stop offset="0.00132565" stop-color="white"/>
<stop offset="1" stop-color="#A8BBBD"/>
</radialGradient>
</defs>
</svg>
