<svg width="80" height="80" viewBox="0 0 80 80" fill="none" xmlns="http://www.w3.org/2000/svg">
<path d="M43.1534 35.4499C40.4353 32.1135 44.0153 27.2071 42.8035 16.8781C41.5917 6.54898 35.8399 5.83222 34.2014 6.02421C30.9927 6.39966 30.071 9.10884 30.9031 14.0537C31.4535 17.3132 33.6296 26.324 29.5419 31.4949C25.7316 36.3203 22.254 44.5332 16.0883 44.9982" fill="url(#paint0_linear)"/>
<path opacity="0.24" d="M21.0423 44.8151C23.1118 41.5981 24.9039 38.7524 30.5064 34.1105C36.1132 29.4643 34.065 18.7385 33.1519 15.1888C32.2388 11.6391 31.9443 6.28893 34.2016 6.02441C30.9928 6.39986 30.0711 9.10905 30.9032 14.0539C31.4536 17.3135 33.6298 26.3242 29.542 31.4952C25.7317 36.3205 21.1959 44.9985 16.0883 44.9985" fill="url(#paint1_linear)"/>
<path opacity="0.08" d="M39.599 20.5303C37.3205 21.3068 35.0505 18.3033 33.54 14.664C32.3026 11.6861 33.0323 7.62871 35.2766 6.91622C37.521 6.20373 40.0171 7.8847 41.6642 12.3132C43.0381 16.0079 41.8263 19.7709 39.599 20.5303Z" fill="url(#paint2_radial)"/>
<path d="M43.0169 29.0968C49.7329 27.4712 51.7042 28.5037 53.1165 28.7C56.0052 29.0968 68.473 31.9126 67.5002 38.1587C66.5828 44.0251 61.1681 41.7425 55.2884 39.5112" fill="url(#paint3_linear)"/>
<path d="M56.1972 39.8574C62.0514 42.1571 67.9184 43.2919 66.7407 48.8853C65.6228 54.1928 61.7442 52.8958 57.0633 51.2703C55.0494 50.5706 52.7666 49.9349 52.7666 49.9349" fill="url(#paint4_linear)"/>
<path d="M52.4679 60.3191C59.9606 63.0454 64.3726 63.4422 65.2089 59.1288C66.2287 53.9023 61.1895 52.7973 54.4178 50.3867" fill="url(#paint5_linear)"/>
<path d="M39.0656 29.4769C31.3212 31.0469 22.7618 39.1703 21.2471 39.1703C19.7324 39.1703 14.531 38.1975 11.9837 38.1975C10.1959 38.1975 7 42.9077 7 49.6785C7 56.4494 9.59853 67.0089 14.8553 67.0089C20.1078 67.0089 21.0295 64.3551 24.7673 65.2767C28.505 66.1982 35.0035 67.2819 38.5237 67.2819C42.0438 67.2819 58.1854 71.5057 66.0365 73.6176C73.8918 75.7295 75.7308 68.4722 71.6133 67.0643C67.4958 65.6564 58.7828 61.7014 52.8262 60.4556L54.4988 55.1524L55.0962 45.6766L56.6366 39.486L43.0167 29.0972L39.0656 29.4769Z" fill="url(#paint6_linear)"/>
<path d="M73.6573 70.6823C71.4726 76.6468 48.76 66.2452 44.0323 65.7972C39.2662 65.3449 30.8903 64.4788 27.7456 63.0154C24.6009 61.552 24.0889 59.6833 23.3038 60.4683C22.6168 61.1552 16.2122 64.8457 10.5543 64.1034C11.7064 65.8612 13.1358 67.0003 14.8554 67.0003C20.1079 67.0003 21.0295 64.3466 24.7673 65.2681C28.5051 66.1897 35.0036 67.2734 38.5237 67.2734C42.0439 67.2734 58.1856 71.4972 66.0366 73.6091C70.679 74.8592 73.2007 72.8369 73.6573 70.6823Z" fill="url(#paint7_linear)"/>
<path d="M66.7408 48.881C66.8987 48.1258 66.92 47.4603 66.8432 46.8545C66.6597 49.6574 64.2361 52.7163 60.6775 51.317C57.1018 49.9091 53.5816 49.9262 52.7709 49.9262C52.7709 49.9262 55.0537 50.5619 57.0677 51.2615C61.7485 52.8913 65.6229 54.1882 66.7408 48.881Z" fill="url(#paint8_linear)"/>
<path d="M52.7666 49.9304C52.7666 49.9304 55.0494 50.5661 57.0634 51.2658C61.7441 52.8913 65.6227 54.1883 66.7407 48.8809C67.9183 43.2918 62.0514 42.1526 56.1972 39.853L55.2841 39.5074C61.1639 41.7431 66.5828 44.0213 67.4959 38.155C68.4688 31.9089 56.0009 29.093 53.1122 28.6962C51.6999 28.5042 49.7286 27.4675 43.0126 29.093" fill="url(#paint9_linear)"/>
<path opacity="0.5" d="M50.0616 47.9077C48.517 51.274 54.418 50.3866 65.2558 57.0295C64.6712 53.6675 60.4812 52.5113 55.0324 50.5999C55.6767 50.8004 56.385 51.0265 57.0677 51.2655C61.3602 52.7587 64.9699 53.9576 66.4036 50.0538C58.9878 50.4847 51.683 44.3666 50.0616 47.9077Z" fill="url(#paint10_linear)"/>
<path d="M57.1018 39.5673C53.1805 38.3898 51.8535 38.2917 52.2802 38.8079C53.7096 39.209 55.4121 39.6953 57.1316 40.2116C56.978 40.1518 56.8202 40.0921 56.6623 40.0324C56.833 40.0964 56.9994 40.1604 57.17 40.2244C58.6891 40.6809 60.2209 41.163 61.6033 41.6323C64.6499 42.2936 66.937 41.7816 67.5002 38.1594C67.6837 36.9776 67.3893 35.8897 66.7706 34.8999C67.9141 40.203 64.6072 41.82 57.1018 39.5673Z" fill="url(#paint11_linear)"/>
<path d="M66.7407 48.8807C65.8361 52.0933 60.4299 51.7947 53.253 49.0428C49.1567 47.4728 52.7665 49.926 52.7665 49.926C52.7665 49.926 55.0493 50.5617 57.0633 51.2614C61.7484 52.8911 65.6228 54.1881 66.7407 48.8807Z" fill="url(#paint12_linear)"/>
<path d="M34.7305 32.1478C39.4966 30.2705 47.1002 29.5879 52.1181 30.07C57.3791 30.5735 63.6728 32.9371 67.2826 35.9449C65.5332 31.0598 55.6425 29.0461 53.1165 28.6962C51.7042 28.5042 49.7329 27.4675 43.0168 29.093L43.0296 29.1186L40.6231 29.3319C38.2848 29.8098 34.7305 32.1478 34.7305 32.1478Z" fill="url(#paint13_linear)"/>
<path opacity="0.24" d="M31.9186 32.3608C26.7259 35.2791 22.2969 39.1701 21.2472 39.1701C19.7325 39.1701 14.5312 38.1973 11.9839 38.1973C10.9726 38.1973 9.51335 39.7077 8.43384 42.242C13.9893 37.9456 13.7887 42.6942 21.7934 42.0542C26.4741 41.6745 29.8834 37.5446 31.9186 32.3608Z" fill="url(#paint14_linear)"/>
<path opacity="0.24" d="M24.7673 65.2724C28.5051 66.194 35.0036 67.2777 38.5238 67.2777C42.0439 67.2777 58.1856 71.5015 66.0367 73.6134C70.6748 74.8592 73.2008 72.8369 73.653 70.6823C71.3703 72.9649 55.1475 68.4126 41.5703 62.9984C27.9931 57.5843 27.5621 54.457 24.8143 54.457C22.3693 54.457 13.507 58.749 7.31148 54.0645C8.14352 60.238 10.6439 67.0046 14.8511 67.0046C20.1079 67.0046 21.0295 64.3509 24.7673 65.2724Z" fill="url(#paint15_linear)"/>
<path opacity="0.5" d="M66.5401 40.6506H66.5273C61.4369 40.3263 51.6231 33.9949 50.0614 37.8347C48.5808 41.4825 61.1339 43.6115 66.8729 47.3233C66.715 43.1891 61.7612 41.9903 56.6623 40.0362C60.9078 41.6404 64.7352 42.9246 66.5401 40.6506Z" fill="url(#paint16_linear)"/>
<path opacity="0.5" d="M71.6177 67.06C68.7162 66.066 63.5319 63.8133 58.6378 62.128C62.3927 62.8192 64.637 62.0768 65.2088 59.1245C65.2643 58.8471 65.2899 58.5912 65.3112 58.3352C62.5079 59.6194 56.0563 60.558 51.8193 58.5357C46.7289 56.1081 46.4857 59.598 51.8577 61.8123C55.9497 63.4976 68.4303 68.4338 73.4482 68.677C73.1196 67.9688 72.5223 67.3672 71.6177 67.06Z" fill="url(#paint17_linear)"/>
<path d="M51.2775 59.3593C52.0071 60.2851 52.7282 60.4046 52.7837 60.4302C59.9564 63.0029 64.2233 63.3528 65.1535 59.3252C62.9603 60.9337 60.5964 61.8254 51.2775 59.3593Z" fill="url(#paint18_linear)"/>
<path d="M58.6121 62.1194C56.9779 61.8165 55.0535 61.2405 52.856 60.4555C52.8475 60.4555 52.839 60.4512 52.8304 60.4512L52.8219 60.447C52.8091 60.4427 52.8006 60.4384 52.7877 60.4342C52.7323 60.4086 52.0112 60.2848 51.2815 59.3633C51.2815 59.3633 50.3598 60.2891 53.095 61.3045C80.0663 71.3051 71.6178 67.0643 71.6178 67.0643C68.712 66.0659 63.5148 63.8047 58.6121 62.1194Z" fill="url(#paint19_linear)"/>
<path opacity="0.08" d="M65.2899 37.1307C64.8888 39.0292 61.9234 39.3748 58.8385 38.9311C56.3168 38.5684 53.8591 36.3968 54.2943 34.5495C54.7295 32.7022 55.4079 31.1236 60.5622 32.331C63.596 33.0435 65.6825 35.2748 65.2899 37.1307Z" fill="url(#paint20_radial)"/>
<path opacity="0.08" d="M64.014 48.6931C63.3484 50.5191 60.3658 50.4423 57.3748 49.572C54.9299 48.8595 52.8007 46.3679 53.4876 44.5974C54.1746 42.8268 55.0706 41.3634 60.0074 43.279C62.9132 44.4096 64.6626 46.9097 64.014 48.6931Z" fill="url(#paint21_radial)"/>
<path opacity="0.08" d="M62.9346 58.3608C62.3799 60.2209 59.3974 60.3233 56.3551 59.6279C53.8718 59.0605 51.5976 56.6969 52.1822 54.8922C52.7667 53.0874 53.5732 51.5686 58.6123 53.1941C61.5863 54.1498 63.4808 56.5433 62.9346 58.3608Z" fill="url(#paint22_radial)"/>
<path opacity="0.08" d="M69.5439 70.661C69.1214 72.2225 63.9969 71.4246 58.5439 69.876C54.085 68.6088 49.4768 65.7376 49.959 64.2358C50.4411 62.7341 51.4012 61.5651 60.5792 64.5729C65.9853 66.3477 69.9577 69.1379 69.5439 70.661Z" fill="url(#paint23_radial)"/>
<path d="M52.2761 38.8081C53.7951 39.0897 55.2799 39.5121 56.7562 39.96C58.2198 40.4464 59.6833 40.9498 61.0529 41.6751C58.1387 40.6725 55.1903 39.8278 52.2761 38.8081Z" fill="#3D2A20"/>
<path d="M51.4481 48.5181C52.1009 48.9532 52.8092 49.2817 53.5047 49.623C54.2088 49.9515 54.9171 50.28 55.6382 50.5744L59.9563 52.3876C59.201 52.1828 58.4501 51.9567 57.7119 51.6965C56.9737 51.4405 56.2441 51.1504 55.5187 50.8517C54.1021 50.2075 52.6428 49.5548 51.4481 48.5181Z" fill="#3D2A20"/>
<path d="M51.2775 59.3594C51.9431 59.6836 52.6429 59.9225 53.3341 60.1828L55.4206 60.9294C56.8073 61.4371 58.2111 61.9021 59.5851 62.461C58.1343 62.141 56.722 61.693 55.3182 61.2152C53.9357 60.6905 52.5191 60.1913 51.2775 59.3594Z" fill="#3D2A20"/>
<path d="M43.0296 29.1226C42.2317 29.2548 41.4338 29.3657 40.6316 29.4596H40.6444C39.6033 29.7113 38.6134 30.1764 37.632 30.6414C36.6591 31.1278 35.6906 31.627 34.7305 32.1517C35.6095 31.4947 36.5311 30.8974 37.5083 30.3982C38.4811 29.8862 39.5009 29.4468 40.5975 29.2207H40.6103C41.4167 29.1652 42.2232 29.1311 43.0296 29.1226Z" fill="#3D2A20"/>
<path opacity="0.5" d="M57.426 41.5173C63.2759 44.0089 66.075 44.1838 66.8431 46.8588C66.3609 43.211 61.8721 41.9951 57.1315 40.2118C55.4077 39.6955 53.7095 39.2049 52.28 38.8081C52.6726 39.2902 54.6012 40.3142 57.426 41.5173Z" fill="url(#paint24_linear)"/>
<path opacity="0.5" d="M65.3283 58.1308C65.5373 53.7491 60.7328 52.6312 54.4179 50.3828C54.4179 50.3828 53.9997 50.1908 52.7709 49.9263C52.7709 49.9263 55.8644 51.9102 58.6762 52.6867C63.5447 54.0392 65.3069 57.1324 65.3283 58.1308Z" fill="url(#paint25_linear)"/>
<defs>
<linearGradient id="paint0_linear" x1="34.2912" y1="3.62588" x2="31.0284" y2="29.2001" gradientUnits="userSpaceOnUse">
<stop offset="0.00132565" stop-color="#5A4539"/>
<stop offset="1" stop-color="#695042"/>
</linearGradient>
<linearGradient id="paint1_linear" x1="18.8133" y1="10.6921" x2="36.0132" y2="50.9647" gradientUnits="userSpaceOnUse">
<stop offset="0.00132565" stop-color="#473226"/>
<stop offset="1" stop-color="#3D2A20"/>
</linearGradient>
<radialGradient id="paint2_radial" cx="0" cy="0" r="1" gradientUnits="userSpaceOnUse" gradientTransform="translate(37.6255 13.6744) rotate(72.3794) scale(8.7258 5.12269)">
<stop stop-color="#F8DBBA"/>
<stop offset="1" stop-color="#CD9870" stop-opacity="0"/>
</radialGradient>
<linearGradient id="paint3_linear" x1="74.2355" y1="36.7459" x2="55.9901" y2="34.9757" gradientUnits="userSpaceOnUse">
<stop offset="0.00132565" stop-color="#FFCB4B"/>
<stop offset="1" stop-color="#FFD748"/>
</linearGradient>
<linearGradient id="paint4_linear" x1="73.1813" y1="47.614" x2="55.0958" y2="45.8593" gradientUnits="userSpaceOnUse">
<stop offset="0.00132565" stop-color="#FFCB4B"/>
<stop offset="1" stop-color="#FFD748"/>
</linearGradient>
<linearGradient id="paint5_linear" x1="72.2275" y1="57.1415" x2="50.3833" y2="55.9847" gradientUnits="userSpaceOnUse">
<stop offset="0.00132565" stop-color="#5A4539"/>
<stop offset="1" stop-color="#695042"/>
</linearGradient>
<linearGradient id="paint6_linear" x1="3.45214" y1="104.349" x2="52.0191" y2="42.4203" gradientUnits="userSpaceOnUse">
<stop offset="0.00132565" stop-color="#5A4539"/>
<stop offset="1" stop-color="#695042"/>
</linearGradient>
<linearGradient id="paint7_linear" x1="42.1053" y1="76.9526" x2="42.1053" y2="6.10012" gradientUnits="userSpaceOnUse">
<stop stop-color="#3C2200" stop-opacity="0"/>
<stop offset="0.9984"/>
</linearGradient>
<linearGradient id="paint8_linear" x1="59.3354" y1="43.5485" x2="60.6891" y2="57.4663" gradientUnits="userSpaceOnUse">
<stop stop-color="#FFBC47" stop-opacity="0"/>
<stop offset="1" stop-color="#C86F34"/>
</linearGradient>
<linearGradient id="paint9_linear" x1="81.1511" y1="42.6916" x2="52.5639" y2="40.1109" gradientUnits="userSpaceOnUse">
<stop offset="0.00132565" stop-color="#5A4539"/>
<stop offset="1" stop-color="#695042"/>
</linearGradient>
<linearGradient id="paint10_linear" x1="21.0581" y1="37.0492" x2="96.0404" y2="64.6766" gradientUnits="userSpaceOnUse">
<stop offset="0.3072" stop-color="#473226" stop-opacity="0"/>
<stop offset="1" stop-color="#473226"/>
</linearGradient>
<linearGradient id="paint11_linear" x1="77.6633" y1="42.509" x2="8.85261" y2="21.0537" gradientUnits="userSpaceOnUse">
<stop stop-color="#473226" stop-opacity="0"/>
<stop offset="1" stop-color="#3D2A20"/>
</linearGradient>
<linearGradient id="paint12_linear" x1="74.1105" y1="53.9036" x2="5.29958" y2="32.448" gradientUnits="userSpaceOnUse">
<stop stop-color="#473226" stop-opacity="0"/>
<stop offset="1" stop-color="#3D2A20"/>
</linearGradient>
<linearGradient id="paint13_linear" x1="52.3908" y1="28.1929" x2="45.5108" y2="57.3341" gradientUnits="userSpaceOnUse">
<stop stop-color="#8D562E" stop-opacity="0"/>
<stop offset="1" stop-color="#8D562E"/>
</linearGradient>
<linearGradient id="paint14_linear" x1="10.3527" y1="14.3052" x2="27.5529" y2="54.5775" gradientUnits="userSpaceOnUse">
<stop offset="0.00132565" stop-color="#473226"/>
<stop offset="1" stop-color="#3D2A20"/>
</linearGradient>
<linearGradient id="paint15_linear" x1="86.7059" y1="89.4568" x2="-270.897" y2="-82.4293" gradientUnits="userSpaceOnUse">
<stop offset="0.00132565" stop-color="#473226"/>
<stop offset="1" stop-color="#3D2A20"/>
</linearGradient>
<linearGradient id="paint16_linear" x1="24.2633" y1="28.3492" x2="99.246" y2="55.9771" gradientUnits="userSpaceOnUse">
<stop offset="0.3072" stop-color="#473226" stop-opacity="0"/>
<stop offset="1" stop-color="#473226"/>
</linearGradient>
<linearGradient id="paint17_linear" x1="18.0459" y1="45.2232" x2="93.0287" y2="72.8513" gradientUnits="userSpaceOnUse">
<stop offset="0.3072" stop-color="#473226" stop-opacity="0"/>
<stop offset="1" stop-color="#473226"/>
</linearGradient>
<linearGradient id="paint18_linear" x1="71.0622" y1="63.6804" x2="2.25096" y2="42.2253" gradientUnits="userSpaceOnUse">
<stop stop-color="#473226" stop-opacity="0"/>
<stop offset="1" stop-color="#3D2A20"/>
</linearGradient>
<linearGradient id="paint19_linear" x1="75.1277" y1="55.4022" x2="28.7832" y2="84.649" gradientUnits="userSpaceOnUse">
<stop stop-color="#473226" stop-opacity="0"/>
<stop offset="1" stop-color="#3D2A20"/>
</linearGradient>
<radialGradient id="paint20_radial" cx="0" cy="0" r="1" gradientUnits="userSpaceOnUse" gradientTransform="translate(59.8124 35.6786) rotate(13.2013) scale(5.79824 3.4714)">
<stop stop-color="#F8DBBA"/>
<stop offset="1" stop-color="#CD9870" stop-opacity="0"/>
</radialGradient>
<radialGradient id="paint21_radial" cx="0" cy="0" r="1" gradientUnits="userSpaceOnUse" gradientTransform="translate(58.8365 46.4722) rotate(21.2567) scale(5.79866 3.47095)">
<stop stop-color="#F8DBBA"/>
<stop offset="1" stop-color="#CD9870" stop-opacity="0"/>
</radialGradient>
<radialGradient id="paint22_radial" cx="0" cy="0" r="1" gradientUnits="userSpaceOnUse" gradientTransform="translate(57.6082 56.4698) rotate(17.8942) scale(5.7983 3.47102)">
<stop stop-color="#F8DBBA"/>
<stop offset="1" stop-color="#CD9870" stop-opacity="0"/>
</radialGradient>
<radialGradient id="paint23_radial" cx="0" cy="0" r="1" gradientUnits="userSpaceOnUse" gradientTransform="translate(59.7815 67.2917) rotate(18.1619) scale(10.5802 2.88721)">
<stop stop-color="#F8DBBA"/>
<stop offset="1" stop-color="#CD9870" stop-opacity="0"/>
</radialGradient>
<linearGradient id="paint24_linear" x1="49.3921" y1="35.412" x2="62.7868" y2="43.9507" gradientUnits="userSpaceOnUse">
<stop offset="0.3072" stop-color="#473226" stop-opacity="0"/>
<stop offset="1" stop-color="#473226"/>
</linearGradient>
<linearGradient id="paint25_linear" x1="66.7066" y1="53.2437" x2="53.6527" y2="54.5846" gradientUnits="userSpaceOnUse">
<stop offset="0.3072" stop-color="#473226" stop-opacity="0"/>
<stop offset="1" stop-color="#473226"/>
</linearGradient>
</defs>
</svg>
