<svg width="80" height="80" viewBox="0 0 80 80" fill="none" xmlns="http://www.w3.org/2000/svg">
<path d="M59.4248 46.1992C59.6359 50.2504 66.4935 55.1285 69.1327 56.9716C72.4449 59.2853 58.4747 74.012 56.5217 71.9182C55.1361 70.4315 46.4971 64.115 45.9341 63.6487" fill="url(#paint0_linear)"/>
<path d="M39.7055 21.9848C37.1411 21.0435 34.0401 24.8659 38.7026 30.0168C39.2921 30.615 39.9607 31.2044 40.7348 31.7762C42.6263 33.1662 46.1232 36.43 46.1232 36.43C45.8681 36.9139 38.1968 30.052 36.0722 27.8834L31.3613 32.3877C32.3422 33.0914 34.282 34.6442 34.0269 34.9961C33.7761 35.348 33.3495 34.3582 32.5137 33.76C31.678 33.1662 31.2557 41.053 31.1545 41.4665C31.0798 41.7744 29.7602 41.8976 29.0828 44.2421C28.8584 45.025 29.4346 48.8431 29.3247 48.997C29.3247 48.997 26.5799 45.7948 25.0096 44.6555C23.4437 43.5163 23.8571 52.7623 25.599 53.9587C28.4362 55.9117 37.3962 65.6768 45.1071 64.3748C54.0276 62.866 60.718 52.1641 59.5611 45.3329C58.4087 38.5062 52.3957 33.5005 47.7947 29.9552C43.9107 26.9509 41.7729 23.3088 39.7055 21.9848Z" fill="url(#paint1_linear)"/>
<path d="M25.0142 44.6556C23.4482 43.5163 19.595 40.0326 17.2021 38.4623C14.8092 36.8964 12.865 37.1031 11.717 39.1924C10.5689 41.2818 14.7917 44.3565 15.7638 45.1614C17.2549 46.3931 23.8441 52.6084 25.5992 53.9544" fill="url(#paint2_linear)"/>
<path d="M31.1589 41.4664C30.8906 41.8667 29.7821 40.1864 27.1341 38.1366C25.1151 36.5707 19.7136 32.1589 16.7841 29.9419C13.1464 27.1884 11.6464 27.0872 10.0981 28.6531C8.54974 30.219 9.9969 32.6867 12.3414 34.5605C14.3208 36.144 17.5582 38.5061 21.6534 41.4005C24.1078 43.1335 29.7645 48.3899 29.3291 49.0014" fill="url(#paint3_linear)"/>
<path d="M36.0767 27.879C33.9521 25.7104 25.4099 19.1784 23.3293 17.2254C21.2488 15.2768 19.1198 15.7342 17.8706 17.089C16.6214 18.4438 16.7665 20.3089 21.0376 23.9993C23.7296 26.3262 26.2721 28.5652 31.3657 32.3788L37.2687 31.6838L36.0767 27.879Z" fill="url(#paint4_linear)"/>
<path d="M32.5182 33.76C31.6825 33.1662 24.0816 26.7309 22.3749 25.3629C18.8076 22.5038 14.0306 17.5729 11.1143 20.4848C9.23608 22.3587 10.7624 24.3557 11.519 25.1342C12.2756 25.9128 21.8251 33.4961 22.7268 34.1383C23.6285 34.7805 31.2602 41.0574 31.159 41.4709" fill="url(#paint5_linear)"/>
<path d="M17.3296 19.5043C17.7123 20.6744 18.9087 22.1611 21.0421 24.0041C23.7341 26.331 26.3029 28.5392 31.3702 32.3836C32.3291 33.1138 34.2909 34.6401 34.0358 34.992C34.3217 32.1461 26.0478 27.2855 22.6828 24.576C19.0979 21.6948 17.0437 18.6246 17.3296 19.5043Z" fill="url(#paint6_linear)"/>
<path d="M22.7267 34.134C23.6284 34.7762 31.2601 41.0531 31.159 41.4666C31.159 41.4666 30.8159 39.1661 28.2031 37.3098C22.8499 33.505 17.3471 29.1899 14.7343 26.5199C12.2755 24.0039 10.2741 23.1725 10.5116 23.7048C10.7491 24.237 11.233 24.8352 11.5189 25.1343C12.2711 25.9085 21.825 33.4918 22.7267 34.134Z" fill="url(#paint7_linear)"/>
<path d="M12.3415 34.5561C14.3209 36.1396 17.5583 38.5017 21.6534 41.396C24.1079 43.1291 29.7646 48.3855 29.3291 48.9969C31.8584 46.019 11.0219 33.9974 9.46473 29.9683C9.32837 31.411 10.582 33.1485 12.3415 34.5561Z" fill="url(#paint8_linear)"/>
<path d="M28.8058 49.595C29.0654 49.4366 29.3029 49.1463 29.3293 48.9968C29.3293 48.9968 26.4526 45.7022 25.0142 44.6553C23.4483 43.516 19.595 40.0323 17.2022 38.462C16.1509 37.7758 15.1876 37.4283 14.3386 37.4327C15.6142 38.0705 15.082 38.396 17.9587 40.1994C19.4983 41.1627 27.108 50.6155 28.8058 49.595Z" fill="url(#paint9_linear)"/>
<path d="M22.718 35.5634C25.2428 37.3449 29.6459 42.83 31.159 41.4664C30.7192 41.704 29.1928 39.7333 27.1343 38.1366C25.1153 36.5707 19.7533 32.1061 16.7842 29.9419C13.7183 27.7074 12.5439 27.2939 11.0659 27.9053C15.7901 28.6179 16.5159 31.1867 22.718 35.5634Z" fill="url(#paint10_linear)"/>
<path d="M23.0479 27.3157C26.7032 30.1529 33.1164 35.7832 34.0314 34.9914C33.6707 35.1718 33.266 34.2876 32.5182 33.7554C31.6825 33.1616 24.0816 26.7263 22.3749 25.3583C20.1623 23.5857 16.9249 20.445 14.2021 19.728C17.0921 21.3115 20.0876 25.0196 23.0479 27.3157Z" fill="url(#paint11_linear)"/>
<path d="M29.3293 48.9968C29.3293 48.9968 26.4526 45.7022 25.0142 44.6553C23.4483 43.516 19.595 40.0323 17.2022 38.462C16.1509 37.7758 15.1876 37.4283 14.3386 37.4327C15.6142 38.0705 18.0071 39.3901 22.2782 43.019C29.7076 49.507 29.3029 49.1463 29.3293 48.9968Z" fill="url(#paint12_linear)"/>
<path d="M39.7056 21.9848C39.2701 21.8264 38.8039 21.866 38.3552 22.0464C40.1278 22.7413 41.9929 24.1753 42.8594 27.4347C43.9547 31.5607 52.343 34.4594 54.7006 38.6777C57.2167 43.182 56.1874 50.1538 53.0687 52.8326C49.9545 55.5114 46.8974 65.4876 31.9419 57.3281C31.9375 57.3281 31.9331 57.3237 31.9331 57.3237C31.0006 56.7123 28.2207 54.6141 27.4421 54.0467C23.3689 51.0864 18.0597 45.2537 15.3853 42.8477C14.8575 42.377 13.3883 40.512 11.928 41.3081C12.8561 42.962 15.0862 44.6115 15.7592 45.1658C17.2504 46.3974 24.9832 53.532 25.2647 53.7256C27.3761 55.1903 37.4491 65.6548 45.1071 64.3704C54.032 62.8748 60.718 52.1596 59.5612 45.3285C58.4087 38.5018 52.3957 33.4961 47.7947 29.9508C43.9107 26.9509 41.773 23.3088 39.7056 21.9848Z" fill="url(#paint13_linear)"/>
<path d="M69.1329 56.9718C66.74 55.3003 60.8986 51.1391 59.6669 47.3563C59.6933 46.6569 59.6757 45.9707 59.5658 45.3285C58.4133 38.5017 52.4003 33.4961 47.7993 29.9508C43.9065 26.9465 41.7731 23.3088 39.7058 21.9804C37.1413 21.039 34.0403 24.8615 38.7029 30.0123C39.2923 30.6105 39.9609 31.2 40.7351 31.7718C42.6265 33.1618 46.1234 36.4212 46.1234 36.4212C45.8683 36.905 38.197 30.0431 36.0725 27.8746C33.9479 25.706 25.4057 19.174 23.3251 17.221C21.2445 15.2724 19.1156 15.7299 17.8664 17.0846C16.6171 18.4394 16.7623 20.3045 21.0334 23.9949C23.7254 26.3218 26.2678 28.5608 31.3615 32.3744C32.3424 33.0782 34.2822 34.6309 34.0271 34.9828C33.7764 35.3391 33.3497 34.345 32.5139 33.7468C31.6782 33.153 24.0773 26.7177 22.3706 25.3497C18.8033 22.4906 14.0263 17.5597 11.11 20.4716C9.23178 22.3455 10.7581 24.3424 11.5147 25.121C12.2713 25.8996 21.8208 33.4829 22.7225 34.1251C23.6242 34.7673 31.2559 41.0442 31.1548 41.4577C30.8864 41.8579 29.778 40.1777 27.13 38.1279C25.111 36.5619 19.7094 32.1501 16.7799 29.9331C13.1422 27.1796 11.6423 27.0784 10.0939 28.6443C8.54559 30.2103 9.99275 32.6779 12.3372 34.5517C14.321 36.1353 17.5541 38.4974 21.6492 41.3917C23.9497 43.0148 29.061 47.7346 29.3381 48.8254C29.3381 48.8298 29.3381 48.8298 29.3381 48.8342C29.3557 48.9046 29.3513 48.9574 29.3249 48.997C29.3249 48.997 26.5801 45.7948 25.0098 44.6555C23.4439 43.5162 19.5906 40.0325 17.1978 38.4622C14.8049 36.8963 12.8607 37.103 11.7126 39.1923C10.5646 41.2817 14.7873 44.3564 15.7594 45.1613C17.2506 46.393 23.8398 52.6083 25.5948 53.9543C28.432 55.9073 37.3921 65.6723 45.1029 64.3703C45.5604 64.2912 46.0091 64.1768 46.4533 64.0536C48.4591 65.5624 55.2947 70.6076 56.5131 71.9184C58.4749 74.0122 72.4451 59.2855 69.1329 56.9718Z" fill="url(#paint14_linear)"/>
<path d="M31.3349 50.7782C31.3173 50.7958 30.3144 49.8413 30.0945 49.6257C29.9801 49.5114 21.1828 39.7771 19.696 38.6599C19.696 38.6599 19.8412 38.7742 19.894 38.6775C19.9336 38.5983 19.806 38.4531 19.806 38.4531C21.1784 39.4824 26.7691 44.1186 30.3716 48.9703C30.7279 49.4542 31.4273 50.6858 31.3349 50.7782Z" fill="#975500"/>
<path d="M33.8777 43.4109C33.2618 43.7364 21.6494 31.1914 18.8518 29.0053C18.8518 29.0053 19.1289 29.1328 19.2301 29.0009C19.3181 28.8733 19.1553 28.6006 19.1553 28.6006C21.9837 30.8131 34.1064 42.993 33.8777 43.4109Z" fill="#975500"/>
<path d="M37.3656 37.1959C37.1852 37.3014 36.6134 36.69 36.5078 36.5713C34.4932 34.3103 32.2015 32.2166 29.5711 29.5994C27.4246 27.466 25.3616 25.3283 24.0288 23.8547C24.0288 23.8547 24.1872 24.0219 24.2663 23.9691C24.3851 23.8591 24.1696 23.6436 24.1696 23.6436C25.4892 25.1083 27.8469 27.0525 29.9846 29.1771C32.6238 31.8031 34.8055 33.9145 36.8289 36.1886C36.9345 36.3117 37.4755 37.0859 37.3656 37.1959Z" fill="#975500"/>
<path d="M63.8939 48.2539C63.7224 52.3315 70.1312 57.865 72.5989 59.9588C75.6999 62.5892 60.3134 76.0227 58.5583 73.7398C57.3135 72.1167 49.2551 64.9777 48.7317 64.4586" fill="url(#paint15_linear)"/>
<path d="M58.5583 73.7395C59.1169 74.4697 61.0656 73.5943 63.3617 71.9844C60.4673 71.6589 54.7931 65.668 54.1465 64.124C53.6098 62.8352 51.0938 61.8543 48.8241 61.542L48.7361 64.4583C49.2551 64.9774 57.3135 72.1164 58.5583 73.7395Z" fill="url(#paint16_linear)"/>
<path d="M58.5583 73.7396C57.3135 72.1165 49.2551 64.9775 48.7317 64.4584C55.2417 65.3425 61.4834 56.9543 63.2253 51.7286C63.4716 50.9941 63.718 50.4442 63.9775 50.022C64.3998 52.7447 70.5271 58.2079 72.5989 59.963C75.6999 62.589 60.3134 76.0225 58.5583 73.7396Z" fill="url(#paint17_linear)"/>
<path d="M46.4267 22.1345C43.9459 20.9512 40.4797 24.4834 44.6673 30.0829C45.1995 30.7339 45.8153 31.3937 46.5367 32.0359C48.2962 33.6062 51.494 37.2043 51.494 37.2043C51.1949 37.6662 44.157 30.0697 42.2304 27.6944L37.084 31.7631C37.9989 32.5593 39.7936 34.2968 39.5076 34.6311C39.2217 34.961 38.8918 33.9273 38.1089 33.2499C37.3259 32.5769 36.1603 40.4373 36.0195 40.842C35.9139 41.1455 34.5811 41.1411 33.6838 43.424C33.3847 44.185 33.6002 48.069 33.4771 48.2098C33.4771 48.2098 31.027 44.7436 29.5666 43.4548C28.1019 42.166 27.6488 51.4648 29.2763 52.8284C31.9375 55.0497 39.9915 65.6769 47.8343 65.1007C56.9132 64.4321 64.624 54.3415 64.1094 47.3916C63.5992 40.4417 58.048 34.8642 53.7769 30.8746C50.17 27.5052 48.3754 23.6608 46.4267 22.1345Z" fill="url(#paint18_linear)"/>
<path d="M29.5712 43.4547C28.1065 42.1659 24.5787 38.3127 22.331 36.5136C20.0833 34.7146 18.1127 34.7409 16.7667 36.7291C15.4207 38.7173 19.3575 42.1923 20.2592 43.0896C21.636 44.4664 27.6534 51.3107 29.2809 52.8239" fill="url(#paint19_linear)"/>
<path d="M36.0282 40.8419C35.7203 41.2158 34.7658 39.4299 32.3114 37.125C30.4331 35.3656 25.445 30.4391 22.7179 27.9362C19.3353 24.8352 17.8397 24.5932 16.1419 26.014C14.444 27.4348 15.658 30.0476 17.8309 32.1458C19.6652 33.9184 22.6827 36.5928 26.5139 39.8742C28.81 41.8404 33.9785 47.6423 33.4858 48.2141" fill="url(#paint20_linear)"/>
<path d="M42.2348 27.6986C40.3082 25.3234 32.373 17.9776 30.4728 15.8266C28.5726 13.6757 26.3996 13.9352 25.0185 15.1756C23.6373 16.4161 23.6065 18.2987 27.5345 22.3983C30.0109 24.9847 32.3466 27.4655 37.0884 31.7674L43.0662 31.6311L42.2348 27.6986Z" fill="url(#paint21_linear)"/>
<path d="M38.1178 33.2499C37.3349 32.5769 30.3278 25.4115 28.7531 23.8808C25.4497 20.6785 21.1302 15.2902 17.9323 17.9294C15.8738 19.6272 17.2154 21.7694 17.8971 22.6227C18.5789 23.4761 27.4335 31.9743 28.2736 32.7001C29.1138 33.4259 36.1648 40.4373 36.0285 40.842" fill="url(#paint22_linear)"/>
<path d="M24.2444 17.5377C24.5171 18.7473 25.5772 20.3484 27.5346 22.3938C30.0111 24.9802 32.3775 27.4303 37.0885 31.763C37.9814 32.5855 39.7981 34.2966 39.5122 34.6309C40.0664 31.807 32.2412 26.1591 29.1225 23.124C25.8103 19.8998 24.0421 16.6316 24.2444 17.5377Z" fill="url(#paint23_linear)"/>
<path d="M28.2734 32.6998C29.1136 33.4256 36.1646 40.4371 36.0283 40.8417C36.0283 40.8417 35.9007 38.5061 33.4595 36.3991C28.4538 32.0796 23.3513 27.2411 20.9848 24.3204C18.7591 21.5668 16.8325 20.5463 17.0216 21.1005C17.2108 21.6548 17.6375 22.3014 17.897 22.6269C18.5788 23.4758 27.4289 31.974 28.2734 32.6998Z" fill="url(#paint24_linear)"/>
<path d="M17.8309 32.1457C19.6652 33.9184 22.6827 36.5927 26.5139 39.8742C28.81 41.8404 33.9785 47.6422 33.4858 48.214C36.2966 45.4737 16.5641 31.4595 15.3853 27.2764C15.1082 28.7103 16.199 30.571 17.8309 32.1457Z" fill="url(#paint25_linear)"/>
<path d="M32.9051 48.7642C33.1822 48.6322 33.4462 48.3595 33.4858 48.2144C33.4858 48.2144 30.9169 44.6427 29.5753 43.4594C28.1106 42.1706 24.5828 38.3174 22.3351 36.5183C21.3454 35.731 20.4129 35.2911 19.564 35.2163C20.7824 35.9773 20.2194 36.2544 22.9289 38.3262C24.3761 39.439 31.1061 49.6263 32.9051 48.7642Z" fill="url(#paint26_linear)"/>
<path d="M28.1282 34.134C30.4903 36.1574 34.3787 42.0648 36.0238 40.8419C35.562 41.0399 34.2204 38.9197 32.307 37.1251C30.4287 35.3656 25.4846 30.3863 22.7135 27.9362C19.8543 25.407 18.7151 24.8836 17.1799 25.3586C21.8469 26.5243 22.3308 29.1635 28.1282 34.134Z" fill="url(#paint27_linear)"/>
<path d="M29.2367 25.9039C32.628 29.0886 38.5223 35.3391 39.5164 34.6309C39.1381 34.7804 38.817 33.8567 38.1176 33.2497C37.3346 32.5767 30.3275 25.4113 28.7528 23.8805C26.703 21.8924 23.7559 18.4482 21.0991 17.4717C23.8395 19.3279 26.4875 23.3219 29.2367 25.9039Z" fill="url(#paint28_linear)"/>
<path d="M33.4816 48.2144C33.4816 48.2144 30.9128 44.6427 29.5712 43.4594C28.1064 42.1706 24.5787 38.3174 22.331 36.5183C21.3413 35.731 20.4088 35.2911 19.5598 35.2163C20.7782 35.9773 23.048 37.5212 26.9848 41.5636C33.8159 48.7642 33.4464 48.3595 33.4816 48.2144Z" fill="url(#paint29_linear)"/>
<path d="M46.4268 22.1342C46.0045 21.9319 45.5383 21.9275 45.072 22.0682C46.7787 22.9348 48.5162 24.5447 49.0748 27.8921C49.783 32.128 57.9117 35.8229 59.8735 40.2699C61.9673 45.0161 60.2782 51.9044 56.9044 54.2929C53.5307 56.6814 49.5279 66.3848 35.3202 56.8001C35.3158 56.7957 35.3158 56.7957 35.3114 56.7957C34.436 56.0963 31.8496 53.7298 31.1238 53.092C27.3234 49.7446 22.5552 43.4018 20.1052 40.7362C19.6213 40.2127 18.3281 38.2069 16.7842 38.8667C17.5539 40.613 19.6345 42.4737 20.2591 43.0939C21.6359 44.4706 28.709 52.3443 28.9729 52.5686C30.9523 54.2357 40.0531 65.6678 47.8432 65.1048C56.922 64.4494 64.6329 54.3457 64.1183 47.3958C63.608 40.4459 58.0569 34.8683 53.7858 30.8788C50.1701 27.505 48.3754 23.6605 46.4268 22.1342Z" fill="url(#paint30_linear)"/>
<path d="M33.6926 48.4208C33.675 48.4384 32.6721 47.4839 32.4522 47.2683C32.3378 47.154 23.5405 37.4197 22.0537 36.3024C22.0537 36.3024 22.1989 36.4168 22.2517 36.32C22.2912 36.2409 22.1637 36.0957 22.1637 36.0957C23.5361 37.125 29.1268 41.7612 32.7293 46.6129C33.0856 47.0968 33.785 48.3284 33.6926 48.4208Z" fill="#975500"/>
<path d="M36.2351 41.0491C36.2351 41.0535 36.2351 41.0535 36.2351 41.0491C35.6193 41.3746 24.0068 28.8296 21.2092 26.6435C21.2092 26.6435 21.4863 26.771 21.5875 26.6391C21.6755 26.5115 21.5127 26.2388 21.5127 26.2388C24.3411 28.4557 36.4638 40.6356 36.2351 41.0491Z" fill="#975500"/>
<path d="M39.7232 34.8374C39.5429 34.943 38.9711 34.3316 38.8655 34.2128C36.8509 31.9519 34.5592 29.8582 31.9288 27.241C29.7822 25.1076 27.7193 22.9698 26.3865 21.4963C26.3865 21.4963 26.5448 21.6634 26.624 21.6107C26.7428 21.5007 26.5272 21.2852 26.5272 21.2852C27.8468 22.7499 30.2045 24.6941 32.3423 26.8187C34.9815 29.4447 37.1632 31.556 39.1866 33.8301C39.2922 33.9489 39.8332 34.7275 39.7232 34.8374Z" fill="#975500"/>
<path d="M58.9191 73.9504C59.0071 73.8008 53.1349 67.8538 50.5485 65.5137L49.5236 64.5856C49.4224 64.4932 49.2817 64.4536 49.1453 64.4756C48.701 64.5548 48.2568 64.6296 47.8081 64.6604C41.7467 65.1046 35.5314 58.6078 31.8145 54.7238C30.8688 53.7341 30.1167 52.9511 29.5844 52.5024C28.6475 51.6359 26.2194 48.9527 24.0773 46.5862C22.5114 44.8532 21.1566 43.3576 20.5715 42.777L20.268 42.4823C15.7682 38.6334 16.8547 36.6012 16.7667 36.7288C15.4207 38.7126 19.3575 42.192 20.2592 43.0893C21.636 44.4661 27.6534 51.3104 29.2809 52.8236C31.9421 55.0449 39.9917 65.6721 47.8389 65.0958C48.3052 65.0607 48.767 64.9859 49.2245 64.9067C51.0895 66.6046 57.4632 72.3053 58.5584 73.7348C58.6464 73.8492 58.774 73.9108 58.9191 73.9504Z" fill="#975500"/>
<path d="M14.3343 6.34326C14.2991 6.22449 14.2067 6.12773 14.0923 6.08374C13.9736 6.03975 13.8416 6.05294 13.7405 6.11892L12.2097 7.07344C12.1085 7.13502 12.0426 7.23619 12.025 7.35495C12.0074 7.46932 12.0426 7.58808 12.1173 7.68045C15.2536 11.5953 16.9427 13.2887 16.9383 13.2624C16.3137 11.1202 14.3431 6.38725 14.3343 6.34326Z" fill="#975500"/>
<path d="M8.87547 13.1747C8.7963 13.0955 8.69073 13.0516 8.57636 13.056C8.4664 13.0604 8.36083 13.1088 8.28605 13.1923L7.09841 14.5471C7.00164 14.6571 6.97525 14.811 7.02363 14.9474C7.07202 15.0838 7.19518 15.1585 7.33154 15.2113C11.2991 16.7333 12.456 17.4986 12.4824 17.4766C12.6187 17.3447 11.7434 16.091 8.87547 13.1747Z" fill="#975500"/>
<path d="M21.0071 6.48842C20.994 6.37845 21.0335 6.26849 21.1083 6.18051C21.1831 6.09694 21.2887 6.04857 21.3986 6.04417L23.1977 6.00018C23.3428 5.99579 23.4792 6.07056 23.554 6.19372C23.6288 6.31688 23.6068 6.46203 23.5584 6.59839C22.1904 10.6188 22.1376 12.0176 22.1024 12.022C21.9221 12.0527 21.4118 10.5572 21.0071 6.48842Z" fill="#975500"/>
<path d="M52.4883 13.1617C52.5719 13.065 52.6026 12.9418 52.5763 12.8186C52.5499 12.6955 52.4707 12.5899 52.3563 12.5371L50.7376 11.7453C50.632 11.6926 50.5089 11.6926 50.4033 11.7366C50.2933 11.7805 50.2186 11.8773 50.179 11.9873C48.5163 16.7158 47.9753 19.0515 47.9928 19.0295C49.4884 17.3668 52.4619 13.1925 52.4883 13.1617Z" fill="#975500"/>
<path d="M43.889 12.2639C43.9154 12.154 43.8934 12.0396 43.8318 11.9472C43.7702 11.8549 43.6735 11.7933 43.5635 11.7713L41.7864 11.481C41.6413 11.459 41.4961 11.5118 41.4081 11.6261C41.3158 11.7405 41.3202 11.8857 41.3466 12.0264C42.1559 16.1964 42.1163 17.5863 42.1515 17.5951C42.3275 17.6479 42.9345 16.2447 43.889 12.2639Z" fill="#975500"/>
<path d="M55.9853 19.0205C56.0733 18.9501 56.1877 18.9237 56.2976 18.9413C56.4076 18.9589 56.5044 19.0205 56.5659 19.1173L57.5556 20.6216C57.6348 20.7448 57.6436 20.8987 57.5776 21.0263C57.5117 21.1538 57.3753 21.211 57.2345 21.2462C53.0998 22.2139 51.8858 22.9089 51.8594 22.8825C51.7406 22.7418 52.7435 21.5189 55.9853 19.0205Z" fill="#975500"/>
<defs>
<linearGradient id="paint0_linear" x1="53.2235" y1="55.3945" x2="58.4009" y2="60.0429" gradientUnits="userSpaceOnUse">
<stop offset="0.00132565" stop-color="#F0C492"/>
<stop offset="1" stop-color="#F8DBBA"/>
</linearGradient>
<linearGradient id="paint1_linear" x1="53.9294" y1="67.5091" x2="40.8617" y2="45.8748" gradientUnits="userSpaceOnUse">
<stop offset="0.00132565" stop-color="#F0C492"/>
<stop offset="1" stop-color="#F8DBBA"/>
</linearGradient>
<linearGradient id="paint2_linear" x1="12.9499" y1="41.9074" x2="23.6642" y2="47.3139" gradientUnits="userSpaceOnUse">
<stop offset="0.00132565" stop-color="#F0C492"/>
<stop offset="1" stop-color="#F8DBBA"/>
</linearGradient>
<linearGradient id="paint3_linear" x1="7.48091" y1="27.8471" x2="27.0306" y2="42.4269" gradientUnits="userSpaceOnUse">
<stop offset="0.00132565" stop-color="#F0C492"/>
<stop offset="1" stop-color="#F8DBBA"/>
</linearGradient>
<linearGradient id="paint4_linear" x1="22.0982" y1="18.9345" x2="34.435" y2="32.6063" gradientUnits="userSpaceOnUse">
<stop offset="0.00132565" stop-color="#F0C492"/>
<stop offset="1" stop-color="#F8DBBA"/>
</linearGradient>
<linearGradient id="paint5_linear" x1="14.8505" y1="22.5441" x2="30.2725" y2="37.3842" gradientUnits="userSpaceOnUse">
<stop offset="0.00132565" stop-color="#F0C492"/>
<stop offset="1" stop-color="#F8DBBA"/>
</linearGradient>
<linearGradient id="paint6_linear" x1="27.3994" y1="24.9146" x2="24.9165" y2="28.1405" gradientUnits="userSpaceOnUse">
<stop stop-color="#FFBC47" stop-opacity="0"/>
<stop offset="1" stop-color="#E68E43"/>
</linearGradient>
<linearGradient id="paint7_linear" x1="68.6773" y1="72.9991" x2="7.75482" y2="20.8395" gradientUnits="userSpaceOnUse">
<stop stop-color="#FFBC47" stop-opacity="0"/>
<stop offset="1" stop-color="#E68E43"/>
</linearGradient>
<linearGradient id="paint8_linear" x1="64.4099" y1="77.9832" x2="3.48739" y2="25.8236" gradientUnits="userSpaceOnUse">
<stop stop-color="#FFBC47" stop-opacity="0"/>
<stop offset="1" stop-color="#E68E43"/>
</linearGradient>
<linearGradient id="paint9_linear" x1="63.5534" y1="78.9836" x2="2.63096" y2="26.824" gradientUnits="userSpaceOnUse">
<stop stop-color="#FFBC47" stop-opacity="0"/>
<stop offset="1" stop-color="#E68E43"/>
</linearGradient>
<linearGradient id="paint10_linear" x1="67.4875" y1="74.3887" x2="6.56504" y2="22.2291" gradientUnits="userSpaceOnUse">
<stop stop-color="#FFBC47" stop-opacity="0"/>
<stop offset="1" stop-color="#E68E43"/>
</linearGradient>
<linearGradient id="paint11_linear" x1="72.3644" y1="68.6923" x2="11.4419" y2="16.5327" gradientUnits="userSpaceOnUse">
<stop stop-color="#FFBC47" stop-opacity="0"/>
<stop offset="1" stop-color="#E68E43"/>
</linearGradient>
<linearGradient id="paint12_linear" x1="63.7444" y1="78.7605" x2="2.82191" y2="26.6009" gradientUnits="userSpaceOnUse">
<stop stop-color="#FFBC47" stop-opacity="0"/>
<stop offset="1" stop-color="#E68E43"/>
</linearGradient>
<linearGradient id="paint13_linear" x1="70.7496" y1="70.5785" x2="9.82717" y2="18.4188" gradientUnits="userSpaceOnUse">
<stop stop-color="#FFBC47" stop-opacity="0"/>
<stop offset="1" stop-color="#E68E43"/>
</linearGradient>
<linearGradient id="paint14_linear" x1="-15.2529" y1="-28.2105" x2="81.3468" y2="104.692" gradientUnits="userSpaceOnUse">
<stop stop-color="#D2A374" stop-opacity="0"/>
<stop offset="1" stop-color="#B88653"/>
</linearGradient>
<linearGradient id="paint15_linear" x1="55.3655" y1="50.9855" x2="67.4666" y2="76.3351" gradientUnits="userSpaceOnUse">
<stop offset="0.00132565" stop-color="#F0C492"/>
<stop offset="1" stop-color="#F8DBBA"/>
</linearGradient>
<linearGradient id="paint16_linear" x1="61.8358" y1="59.5441" x2="49.0045" y2="75.6615" gradientUnits="userSpaceOnUse">
<stop stop-color="#F0C492" stop-opacity="0"/>
<stop offset="1" stop-color="#E6AF74"/>
</linearGradient>
<linearGradient id="paint17_linear" x1="60.9574" y1="50.0396" x2="60.7488" y2="81.3354" gradientUnits="userSpaceOnUse">
<stop offset="0.3118" stop-color="#F0C492" stop-opacity="0"/>
<stop offset="1" stop-color="#D2A374"/>
</linearGradient>
<linearGradient id="paint18_linear" x1="56.3749" y1="69.0726" x2="45.3265" y2="46.1703" gradientUnits="userSpaceOnUse">
<stop offset="0.00132565" stop-color="#F0C492"/>
<stop offset="1" stop-color="#F8DBBA"/>
</linearGradient>
<linearGradient id="paint19_linear" x1="-14.7357" y1="-10.7649" x2="9.34965" y2="22.2945" gradientUnits="userSpaceOnUse">
<stop offset="0.00132565" stop-color="#F0C492"/>
<stop offset="1" stop-color="#F8DBBA"/>
</linearGradient>
<linearGradient id="paint20_linear" x1="-10.0807" y1="-14.1564" x2="14.0046" y2="18.903" gradientUnits="userSpaceOnUse">
<stop offset="0.00132565" stop-color="#F0C492"/>
<stop offset="1" stop-color="#F8DBBA"/>
</linearGradient>
<linearGradient id="paint21_linear" x1="0.543002" y1="-21.8962" x2="24.6283" y2="11.1631" gradientUnits="userSpaceOnUse">
<stop offset="0.00132565" stop-color="#F0C492"/>
<stop offset="1" stop-color="#F8DBBA"/>
</linearGradient>
<linearGradient id="paint22_linear" x1="-5.23399" y1="-17.6872" x2="18.8513" y2="15.3722" gradientUnits="userSpaceOnUse">
<stop offset="0.00132565" stop-color="#F0C492"/>
<stop offset="1" stop-color="#F8DBBA"/>
</linearGradient>
<linearGradient id="paint23_linear" x1="33.8284" y1="23.9122" x2="31.0369" y2="26.9092" gradientUnits="userSpaceOnUse">
<stop stop-color="#E6AF74" stop-opacity="0"/>
<stop offset="1" stop-color="#E6AF74"/>
</linearGradient>
<linearGradient id="paint24_linear" x1="31.3272" y1="23.8066" x2="19.2411" y2="41.6902" gradientUnits="userSpaceOnUse">
<stop stop-color="#E6AF74" stop-opacity="0"/>
<stop offset="1" stop-color="#E6AF74"/>
</linearGradient>
<linearGradient id="paint25_linear" x1="26.7573" y1="34.2216" x2="23.6621" y2="38.9382" gradientUnits="userSpaceOnUse">
<stop stop-color="#E6AF74" stop-opacity="0"/>
<stop offset="1" stop-color="#E6AF74"/>
</linearGradient>
<linearGradient id="paint26_linear" x1="25.005" y1="43.5702" x2="28.9109" y2="38.8536" gradientUnits="userSpaceOnUse">
<stop stop-color="#FFBC47" stop-opacity="0"/>
<stop offset="1" stop-color="#E68E43"/>
</linearGradient>
<linearGradient id="paint27_linear" x1="25.286" y1="34.8044" x2="29.5604" y2="29.2772" gradientUnits="userSpaceOnUse">
<stop stop-color="#FFBC47" stop-opacity="0"/>
<stop offset="1" stop-color="#E68E43"/>
</linearGradient>
<linearGradient id="paint28_linear" x1="28.9178" y1="27.6127" x2="32.8482" y2="23.1909" gradientUnits="userSpaceOnUse">
<stop stop-color="#FFBC47" stop-opacity="0"/>
<stop offset="1" stop-color="#E68E43"/>
</linearGradient>
<linearGradient id="paint29_linear" x1="25.0612" y1="42.2" x2="29.6297" y2="40.7642" gradientUnits="userSpaceOnUse">
<stop stop-color="#FFBC47" stop-opacity="0"/>
<stop offset="1" stop-color="#E68E43"/>
</linearGradient>
<linearGradient id="paint30_linear" x1="41.726" y1="31.9401" x2="36.1971" y2="83.5782" gradientUnits="userSpaceOnUse">
<stop offset="0.3118" stop-color="#F0C492" stop-opacity="0"/>
<stop offset="1" stop-color="#D2A374"/>
</linearGradient>
</defs>
</svg>
