<svg width="80" height="80" viewBox="0 0 80 80" fill="none" xmlns="http://www.w3.org/2000/svg">
<path d="M59.4197 46.2012C59.6326 50.2514 66.4854 55.1312 69.1245 56.9722C72.4377 59.2834 58.4661 74.0116 56.5189 71.9177C55.1351 70.4316 46.4948 64.1144 45.9315 63.6486" fill="url(#paint0_linear)"/>
<path d="M39.7041 21.9842C37.1404 21.0437 34.04 24.8632 38.7017 30.0136C39.2916 30.6081 39.9569 31.2025 40.7331 31.7704C42.6226 33.1589 46.1222 36.4239 46.1222 36.4239C45.8694 36.9075 38.196 30.0491 36.0715 27.8798L31.361 32.3826C32.3412 33.0835 34.2795 34.6406 34.0267 34.991C33.7739 35.3415 33.3481 34.3522 32.5142 33.7578C31.6759 33.1633 31.2546 41.0509 31.1525 41.4634C31.0771 41.774 29.7554 41.8937 29.0812 44.2405C28.855 45.0212 29.4316 48.8452 29.3207 48.996C29.3207 48.996 26.5752 45.7931 25.0095 44.653C23.4437 43.5129 23.8562 52.7579 25.5994 53.9557C28.4381 55.9076 37.3977 65.6716 45.1065 64.3718C54.0261 62.8635 60.7148 52.1635 59.5571 45.3318C58.4039 38.5045 52.3939 33.5005 47.7943 29.9515C43.9044 26.9527 41.771 23.315 39.7041 21.9842Z" fill="url(#paint1_linear)"/>
<path d="M25.0148 44.6574C23.449 43.5173 19.5991 40.0349 17.2039 38.4645C14.8088 36.8985 12.8661 37.107 11.7217 39.1965C10.5774 41.2859 14.7955 44.3602 15.7713 45.1676C17.2616 46.4008 23.8527 52.6159 25.6047 53.9601" fill="url(#paint2_linear)"/>
<path d="M31.1575 41.4675C30.8869 41.8668 29.7781 40.1899 27.1345 38.136C25.112 36.57 19.7185 32.1604 16.7867 29.9379C13.1496 27.1875 11.6504 27.081 10.1024 28.647C8.55447 30.213 10.0004 32.6839 12.3468 34.556C14.3294 36.1397 17.5629 38.5042 21.6568 41.3921C24.1096 43.1222 29.7648 48.3835 29.3301 48.9957" fill="url(#paint3_linear)"/>
<path d="M36.0715 27.8793C33.947 25.71 25.4087 19.1756 23.3285 17.2281C21.2483 15.2762 19.1237 15.7375 17.8729 17.095C16.6221 18.4525 16.7685 20.3157 21.0354 24.0066C23.7277 26.3356 26.2692 28.5714 31.3611 32.3865L37.2647 31.6945L36.0715 27.8793Z" fill="url(#paint4_linear)"/>
<path d="M32.5148 33.7621C31.6765 33.1677 24.0786 26.7308 22.3754 25.3644C18.8093 22.5031 14.0323 17.5745 11.1182 20.4846C9.2376 22.3567 10.7678 24.353 11.5219 25.1338C12.2759 25.9145 21.8254 33.496 22.7302 34.1392C23.6306 34.778 31.2596 41.0596 31.162 41.4722" fill="url(#paint5_linear)"/>
<path d="M17.3273 19.5044C17.7088 20.6755 18.9063 22.1616 21.0353 24.0027C23.7277 26.3317 26.2958 28.5364 31.3611 32.3826C32.3235 33.1101 34.2796 34.6406 34.0268 34.9911C34.3106 32.143 26.043 27.2854 22.672 24.5749C19.0971 21.6958 17.0434 18.626 17.3273 19.5044Z" fill="url(#paint6_radial)"/>
<path d="M22.7258 34.1345C23.6262 34.7733 31.2552 41.0549 31.1576 41.4675C31.1576 41.4675 30.8117 39.1651 28.2036 37.3108C22.85 33.5046 17.3501 29.1882 14.7376 26.522C12.2759 24.0067 10.28 23.1727 10.5151 23.7051C10.7501 24.2374 11.2336 24.8363 11.5219 25.1335C12.2759 25.9098 21.8254 33.4913 22.7258 34.1345Z" fill="url(#paint7_linear)"/>
<path d="M12.3423 34.5558C14.3249 36.1395 17.5584 38.504 21.6523 41.3919C24.1051 43.122 29.7603 48.3833 29.3256 48.9955C31.8538 46.0188 11.0205 33.9968 9.46367 29.9688C9.33061 31.4105 10.5814 33.1539 12.3423 34.5558Z" fill="url(#paint8_linear)"/>
<path d="M28.8063 49.5947C29.068 49.4394 29.303 49.1467 29.3297 48.9958C29.3297 48.9958 26.4555 45.6998 25.0184 44.6528C23.4527 43.5127 19.6027 40.0303 17.2076 38.4599C16.1564 37.7723 15.1895 37.4263 14.3423 37.4307C15.6197 38.0695 15.0874 38.3934 17.9616 40.1945C19.4963 41.166 27.1075 50.6195 28.8063 49.5947Z" fill="url(#paint9_radial)"/>
<path d="M22.7171 35.5628C25.2409 37.3462 29.6408 42.8293 31.1578 41.4674C30.7186 41.7069 29.1928 39.7328 27.1348 38.1358C25.1122 36.5699 19.7542 32.107 16.7825 29.9378C13.7176 27.7019 12.5422 27.2894 11.0652 27.9016C15.7889 28.6202 16.5208 31.1888 22.7171 35.5628Z" fill="url(#paint10_radial)"/>
<path d="M23.0446 27.3163C26.6994 30.151 33.113 35.785 34.0267 34.9953C33.663 35.1772 33.2638 34.2944 32.5142 33.7621C31.6759 33.1676 24.078 26.7307 22.3748 25.3644C20.1615 23.5899 16.9236 20.4535 14.2047 19.7349C17.0922 21.3141 20.0861 25.0183 23.0446 27.3163Z" fill="url(#paint11_linear)"/>
<path d="M29.3253 48.9958C29.3253 48.9958 26.4511 45.6998 25.014 44.6528C23.4483 43.5127 19.5983 40.0303 17.2032 38.4599C16.152 37.7723 15.1851 37.4263 14.3379 37.4307C15.6153 38.0695 18.0016 39.3871 22.2773 43.0203C29.7067 49.5104 29.3031 49.1467 29.3253 48.9958Z" fill="url(#paint12_radial)"/>
<path d="M39.7049 21.9837C39.2702 21.824 38.8045 21.8639 38.3565 22.0458C40.1263 22.7422 41.9936 24.1751 42.8585 27.4357C43.954 31.5614 52.3415 34.4582 54.6967 38.677C57.2116 43.1797 56.1826 50.1489 53.0689 52.8284C49.9552 55.5078 46.8992 65.4848 31.9473 57.3223C31.9429 57.3223 31.9384 57.3178 31.9384 57.3178C31.007 56.7056 28.226 54.6073 27.4498 54.0395C23.378 51.0806 18.0688 45.247 15.3942 42.8426C14.8664 42.3723 13.3983 40.5047 11.9346 41.3032C12.8616 42.9579 15.0926 44.6037 15.7668 45.1627C17.2571 46.3959 24.9881 53.5293 25.2675 53.7245C27.3788 55.1884 37.4517 65.6534 45.1028 64.3669C54.0269 62.8719 60.7112 52.1585 59.5535 45.3268C58.4003 38.4995 52.3903 33.4955 47.7907 29.9466C43.9053 26.9522 41.7718 23.3145 39.7049 21.9837Z" fill="url(#paint13_linear)"/>
<path d="M69.1249 56.9718C66.7342 55.3038 60.8927 51.1382 59.6597 47.3586C59.6863 46.6577 59.6685 45.9745 59.5576 45.3313C58.4044 38.504 52.3944 33.5 47.7948 29.951C43.905 26.9478 41.7715 23.3101 39.7002 21.9837C37.1365 21.0432 34.0361 24.8627 38.6977 30.0131C39.2877 30.6076 39.9574 31.202 40.7292 31.7699C42.6187 33.1584 46.1182 36.4234 46.1182 36.4234C45.8654 36.907 38.1965 30.0486 36.0675 27.8793C33.943 25.71 25.4047 19.1756 23.3245 17.2281C21.2443 15.2762 19.1153 15.7375 17.8689 17.095C16.6225 18.4525 16.7645 20.3157 21.0314 24.0066C23.7237 26.3356 26.2652 28.5758 31.3571 32.3865C32.3373 33.0874 34.2756 34.6445 34.0228 34.995C33.77 35.3499 33.3442 34.3562 32.5103 33.7617C31.672 33.1673 24.0741 26.7304 22.3709 25.364C18.8048 22.5027 14.0278 17.5741 11.1137 20.4842C9.23309 22.3563 10.7633 24.3526 11.5173 25.1333C12.2714 25.9141 21.8209 33.4955 22.7257 34.1388C23.6261 34.7776 31.2551 41.0592 31.1575 41.4718C30.8869 41.871 29.7781 40.1942 27.1345 38.1402C25.1164 36.5742 19.7185 32.1647 16.7867 29.9422C13.1496 27.1917 11.6504 27.0853 10.1024 28.6512C8.55447 30.2172 10.0004 32.6882 12.3468 34.5602C14.3294 36.1439 17.5629 38.5084 21.6568 41.3964C23.9543 43.02 29.0684 47.7401 29.3434 48.8314C29.3434 48.8358 29.3434 48.8358 29.3434 48.8403C29.3611 48.9113 29.3567 48.9645 29.3301 49C29.3301 49 26.5845 45.7971 25.0188 44.657C23.4531 43.5169 19.6032 40.0345 17.208 38.4641C14.8129 36.8981 12.8702 37.1066 11.7258 39.196C10.577 41.2855 14.7996 44.3597 15.7754 45.1671C17.2657 46.4004 23.8567 52.6155 25.6087 53.9596C28.4474 55.9115 37.407 65.6756 45.1158 64.3758C45.5727 64.3004 46.0207 64.1806 46.4686 64.0564C48.4735 65.5647 55.3085 70.6086 56.5282 71.9217C58.4665 74.0111 72.4382 59.2875 69.1249 56.9718Z" fill="url(#paint14_linear)"/>
<path d="M63.8862 48.2549C63.7176 52.3317 70.1224 57.8681 72.5885 59.9575C75.6889 62.5882 60.3068 76.0209 58.5503 73.7363C57.304 72.1171 49.2492 64.9748 48.7258 64.4558" fill="url(#paint15_linear)"/>
<path d="M58.5505 73.7405C59.1093 74.468 61.0609 73.5941 63.3496 71.9838C60.4577 71.66 54.7803 65.6711 54.1328 64.1229C53.5961 62.8364 51.0812 61.8515 48.8102 61.541L48.726 64.46C49.2493 64.9791 57.3085 72.1169 58.5505 73.7405Z" fill="url(#paint16_linear)"/>
<path d="M58.5503 73.7407C57.304 72.1215 49.2492 64.9793 48.7258 64.4603C55.2326 65.3431 61.4733 56.9587 63.2164 51.7284C63.4604 50.9965 63.7088 50.4419 63.9705 50.0205C64.3918 52.7443 70.5216 58.2053 72.5885 59.962C75.6889 62.5882 60.3068 76.0209 58.5503 73.7407Z" fill="url(#paint17_linear)"/>
<path d="M46.4238 22.1391C43.9444 20.9547 40.4759 24.4903 44.663 30.0887C45.1952 30.7408 45.8117 31.3974 46.5347 32.0406C48.2956 33.6111 51.4936 37.2088 51.4936 37.2088C51.1964 37.6702 44.1573 30.0754 42.2323 27.7021L37.0872 31.7701C38.0009 32.5641 39.7973 34.3075 39.5134 34.6358C39.2295 34.9641 38.8969 33.9305 38.1163 33.2562C37.3356 32.5819 36.1647 40.4428 36.0272 40.8465C35.9207 41.1481 34.5901 41.1481 33.6897 43.4328C33.3925 44.1958 33.6054 48.0774 33.4812 48.2194C33.4812 48.2194 31.0328 44.7547 29.5692 43.4638C28.1055 42.1729 27.6486 51.4755 29.2808 52.8375C31.9377 55.06 39.9924 65.6891 47.8343 65.1079C56.9092 64.4381 64.618 54.3502 64.108 47.4031C63.5979 40.4561 58.0491 34.8754 53.7778 30.8872C50.1629 27.5069 48.371 23.6607 46.4238 22.1391Z" fill="url(#paint18_linear)"/>
<path d="M29.5691 43.4595C28.1054 42.1686 24.5793 38.3179 22.3305 36.5213C20.0817 34.7246 18.1168 34.7513 16.7685 36.7342C15.4201 38.7172 19.3588 42.1996 20.2591 43.0957C21.6386 44.4709 27.6486 51.3159 29.2808 52.8287" fill="url(#paint19_linear)"/>
<path d="M36.0227 40.8421C35.7166 41.2148 34.763 39.4314 32.3058 37.1246C30.4296 35.3634 25.4397 30.4393 22.7119 27.9373C19.3277 24.8364 17.8374 24.5924 16.1386 26.012C14.4398 27.4315 15.6551 30.0445 17.8285 32.1428C19.6648 33.9128 22.6809 36.5878 26.5087 39.8706C28.8018 41.8358 33.9691 47.6383 33.4767 48.2106" fill="url(#paint20_linear)"/>
<path d="M42.2324 27.6978C40.3074 25.3244 32.3724 17.9737 30.474 15.8266C28.5756 13.6795 26.4023 13.9368 25.0229 15.1789C23.6434 16.4211 23.6124 18.302 27.5422 22.401C30.0216 24.9873 32.3546 27.4716 37.0917 31.7702L43.0662 31.6283L42.2324 27.6978Z" fill="url(#paint21_linear)"/>
<path d="M38.1119 33.2518C37.3313 32.5775 30.3277 25.4131 28.7487 23.8826C25.4487 20.6797 21.1286 15.2941 17.9306 17.9337C15.8726 19.6327 17.2121 21.7754 17.8951 22.6272C18.5782 23.4789 27.4269 31.9786 28.2696 32.7017C29.1124 33.4293 36.1603 40.4384 36.0228 40.8421" fill="url(#paint22_linear)"/>
<path d="M24.2466 17.5435C24.5172 18.7546 25.5773 20.3516 27.5377 22.4012C30.0171 24.9874 32.3812 27.4407 37.0872 31.7704C37.9788 32.5911 39.7973 34.3078 39.5134 34.6361C40.0679 31.8103 32.2437 26.1675 29.1256 23.1287C25.8079 19.9036 24.0426 16.6341 24.2466 17.5435Z" fill="url(#paint23_linear)"/>
<path d="M28.2696 32.7015C29.1123 33.429 36.1602 40.4382 36.0227 40.8418C36.0227 40.8418 35.8941 38.504 33.4546 36.3968C28.4514 32.0804 23.3462 27.2361 20.9866 24.3171C18.76 21.5667 16.835 20.5419 17.0213 21.0964C17.2076 21.6509 17.6334 22.2986 17.8951 22.6225C18.5781 23.4786 27.4313 31.9784 28.2696 32.7015Z" fill="url(#paint24_linear)"/>
<path d="M17.8285 32.1473C19.6648 33.9173 22.6809 36.5923 26.5087 39.8751C28.8018 41.8403 33.9691 47.6428 33.4768 48.2151C36.2888 45.4735 16.56 31.4596 15.3802 27.2808C15.1096 28.7136 16.2007 30.5724 17.8285 32.1473Z" fill="url(#paint25_linear)"/>
<path d="M32.9002 48.7653C33.1752 48.6322 33.4413 48.3616 33.4812 48.2152C33.4812 48.2152 30.9131 44.6441 29.5691 43.4597C28.1055 42.1687 24.5793 38.3181 22.3305 36.5215C21.3414 35.7318 20.41 35.2971 19.5583 35.2217C20.7781 35.9803 20.2148 36.2597 22.9249 38.3314C24.3752 39.4405 31.1038 49.6304 32.9002 48.7653Z" fill="url(#paint26_linear)"/>
<path d="M28.1276 34.1349C30.4873 36.1578 34.3772 42.0668 36.0227 40.8424C35.5614 41.0376 34.2175 38.9171 32.3058 37.1249C30.4296 35.3638 25.4841 30.3864 22.7119 27.9376C19.8511 25.409 18.7156 24.8811 17.1765 25.3602C21.8426 26.5269 22.3305 29.1664 28.1276 34.1349Z" fill="url(#paint27_linear)"/>
<path d="M29.2365 25.9053C32.6296 29.0905 38.5199 35.3366 39.5134 34.6313C39.132 34.7777 38.8126 33.8549 38.1163 33.2516C37.3356 32.5773 30.332 25.4129 28.753 23.8824C26.6994 21.8994 23.7543 18.4525 21.093 17.4766C23.8386 19.3309 26.4865 23.3234 29.2365 25.9053Z" fill="url(#paint28_linear)"/>
<path d="M46.4239 22.1391C46.0025 21.9395 45.5323 21.9351 45.0666 22.0726C46.7743 22.9377 48.5085 24.548 49.0674 27.8973C49.7771 32.1338 57.9028 35.8247 59.8677 40.2742C61.9612 45.0209 60.2713 51.9059 56.9004 54.297C53.5294 56.6881 49.5287 66.39 35.3219 56.8034C35.3175 56.799 35.3175 56.799 35.3131 56.799C34.4349 56.0981 31.8534 53.7336 31.126 53.0948C27.3248 49.7455 22.5612 43.4017 20.1084 40.74C19.6249 40.2166 18.3297 38.2114 16.7906 38.8724C17.5624 40.6158 19.6426 42.479 20.2636 43.1001C21.643 44.4753 28.7131 52.3495 28.9748 52.5713C30.953 54.2393 40.0546 65.6669 47.8388 65.108C56.9181 64.4514 64.6225 54.3502 64.1124 47.4032C63.6023 40.4561 58.0536 34.8754 53.7823 30.8873C50.1629 27.5069 48.371 23.6607 46.4239 22.1391Z" fill="url(#paint29_linear)"/>
<path d="M33.6897 48.4233C33.672 48.4411 32.6696 47.4873 32.4522 47.2699C32.3369 47.1546 23.5414 37.4216 22.0555 36.3037C22.0555 36.3037 22.2019 36.419 22.2551 36.3214C22.2951 36.2416 22.1664 36.0952 22.1664 36.0952C23.537 37.1244 29.1256 41.7602 32.7317 46.6134C33.0821 47.0969 33.7829 48.3302 33.6897 48.4233Z" fill="#975500"/>
<path d="M36.2312 41.0506C36.2312 41.0551 36.2312 41.0551 36.2312 41.0506C35.6147 41.3789 24.0071 28.8334 21.2084 26.6464C21.2084 26.6464 21.4834 26.7706 21.5854 26.6419C21.6697 26.5133 21.51 26.2427 21.51 26.2427C24.3398 28.4563 36.4619 40.6381 36.2312 41.0506Z" fill="#975500"/>
<path d="M39.7219 34.8401C39.5445 34.9466 38.9723 34.3344 38.8614 34.2146C36.8477 31.9522 34.559 29.8583 31.9244 27.241C29.7776 25.1072 27.7152 22.9689 26.3845 21.4961C26.3845 21.4961 26.5442 21.6647 26.6196 21.6115C26.7394 21.5005 26.522 21.2876 26.522 21.2876C27.8438 22.7515 30.199 24.6946 32.3369 26.824C34.976 29.4457 37.1538 31.5618 39.1808 33.8331C39.2872 33.9529 39.8284 34.7292 39.7219 34.8401Z" fill="#975500"/>
<path d="M58.9097 73.9538C58.9984 73.803 53.1259 67.8541 50.54 65.5162L49.5154 64.5846C49.4134 64.4915 49.2759 64.4515 49.1384 64.4782C48.6949 64.558 48.2513 64.629 47.7989 64.6645C41.7401 65.1081 35.5216 58.6135 31.8091 54.7275C30.8644 53.7382 30.1148 52.953 29.5781 52.5049C28.6422 51.6354 26.2161 48.956 24.0737 46.5915C22.508 44.8614 21.1508 43.362 20.5697 42.7808L20.2637 42.4836C15.7661 38.633 16.8528 36.6012 16.7641 36.7299C15.4202 38.7173 19.3544 42.1952 20.2548 43.0913C21.6342 44.4666 27.6443 51.3116 29.2765 52.8243C31.9333 55.0468 39.9881 65.6759 47.83 65.0948C48.2957 65.0593 48.757 64.9839 49.2138 64.904C51.0767 66.6031 57.4504 72.3036 58.546 73.732C58.6391 73.8518 58.7633 73.9139 58.9097 73.9538Z" fill="#975500"/>
<path d="M14.3347 6.34615C14.2992 6.22637 14.2061 6.1332 14.0907 6.08884C13.9754 6.04447 13.8423 6.0578 13.7358 6.12434L12.2053 7.07812C12.1077 7.14022 12.0368 7.24225 12.019 7.35759C12.0013 7.47293 12.0368 7.58828 12.1122 7.68144C15.2486 11.5941 16.9387 13.2888 16.9299 13.2621C16.3177 11.1239 14.348 6.39051 14.3347 6.34615Z" fill="#975500"/>
<path d="M8.87816 13.1777C8.7983 13.0979 8.69184 13.0535 8.58093 13.0579C8.47003 13.0624 8.36356 13.1112 8.28814 13.1954L7.09925 14.5485C7.00165 14.6594 6.97504 14.8102 7.02383 14.9477C7.07263 15.0853 7.19684 15.1607 7.33437 15.2095C11.3003 16.7311 12.4582 17.4985 12.4848 17.4719C12.6179 17.3477 11.7484 16.0923 8.87816 13.1777Z" fill="#975500"/>
<path d="M21.0088 6.48816C20.9955 6.37726 21.0354 6.26636 21.1064 6.18207C21.1818 6.09779 21.2838 6.04898 21.3991 6.04455L23.2002 6.00019C23.3466 5.99575 23.4797 6.07118 23.5551 6.19539C23.6305 6.31961 23.6084 6.46155 23.5596 6.59907C22.1932 10.6182 22.14 12.0201 22.1045 12.0245C21.9182 12.0556 21.4125 10.5606 21.0088 6.48816Z" fill="#975500"/>
<path d="M52.4834 13.1599C52.5633 13.0667 52.5988 12.9381 52.5722 12.8183C52.5456 12.6941 52.4657 12.592 52.3548 12.5388L50.7356 11.7447C50.6291 11.6915 50.5093 11.6915 50.3984 11.7359C50.292 11.7802 50.2121 11.8734 50.1722 11.9843C48.5086 16.7133 47.9674 19.0467 47.9852 19.0289C49.4846 17.3698 52.4568 13.1954 52.4834 13.1599Z" fill="#975500"/>
<path d="M43.8828 12.2691C43.9094 12.1582 43.8872 12.0473 43.8251 11.9541C43.763 11.861 43.6654 11.7989 43.5545 11.7811L41.78 11.4883C41.6381 11.4662 41.4917 11.5194 41.4029 11.6347C41.3098 11.7456 41.3142 11.892 41.3408 12.034C42.1482 16.204 42.1127 17.5925 42.1438 17.6014C42.3257 17.6502 42.929 16.2439 43.8828 12.2691Z" fill="#975500"/>
<path d="M55.9785 19.0252C56.0672 18.9587 56.1781 18.9276 56.289 18.9454C56.3999 18.9631 56.4975 19.0252 56.5596 19.1184L57.5533 20.6222C57.6332 20.742 57.642 20.8973 57.5755 21.0259C57.5089 21.1546 57.3759 21.2122 57.2339 21.2433C53.0994 22.2104 51.8839 22.9068 51.8617 22.8802C51.7375 22.7427 52.7356 21.5228 55.9785 19.0252Z" fill="#975500"/>
<defs>
<linearGradient id="paint0_linear" x1="53.2168" y1="55.3895" x2="58.3939" y2="60.0369" gradientUnits="userSpaceOnUse">
<stop offset="0.00132565" stop-color="#BE8D68"/>
<stop offset="1" stop-color="#CD9870"/>
</linearGradient>
<linearGradient id="paint1_linear" x1="53.9254" y1="67.5113" x2="40.8571" y2="45.8796" gradientUnits="userSpaceOnUse">
<stop offset="0.00132565" stop-color="#BE8D68"/>
<stop offset="1" stop-color="#CD9870"/>
</linearGradient>
<linearGradient id="paint2_linear" x1="12.9519" y1="41.9097" x2="23.6648" y2="47.3147" gradientUnits="userSpaceOnUse">
<stop offset="0.00132565" stop-color="#BE8D68"/>
<stop offset="1" stop-color="#CD9870"/>
</linearGradient>
<linearGradient id="paint3_linear" x1="7.4838" y1="27.8498" x2="27.032" y2="42.426" gradientUnits="userSpaceOnUse">
<stop offset="0.00132565" stop-color="#BE8D68"/>
<stop offset="1" stop-color="#CD9870"/>
</linearGradient>
<linearGradient id="paint4_linear" x1="22.0977" y1="18.9372" x2="34.4343" y2="32.6065" gradientUnits="userSpaceOnUse">
<stop offset="0.00132565" stop-color="#BE8D68"/>
<stop offset="1" stop-color="#CD9870"/>
</linearGradient>
<linearGradient id="paint5_linear" x1="14.8519" y1="22.5471" x2="30.2733" y2="37.3842" gradientUnits="userSpaceOnUse">
<stop offset="0.00132565" stop-color="#BE8D68"/>
<stop offset="1" stop-color="#CD9870"/>
</linearGradient>
<radialGradient id="paint6_radial" cx="0" cy="0" r="1" gradientUnits="userSpaceOnUse" gradientTransform="translate(25.6835 27.1651) rotate(-9.59197) scale(8.10827 8.10952)">
<stop stop-color="#B37E53" stop-opacity="0"/>
<stop offset="1" stop-color="#B37E53"/>
</radialGradient>
<linearGradient id="paint7_linear" x1="68.6683" y1="72.9997" x2="7.74922" y2="20.8516" gradientUnits="userSpaceOnUse">
<stop stop-color="#D2A374" stop-opacity="0"/>
<stop offset="1" stop-color="#B88653"/>
</linearGradient>
<linearGradient id="paint8_linear" x1="64.4015" y1="77.9838" x2="3.48246" y2="25.8356" gradientUnits="userSpaceOnUse">
<stop stop-color="#D2A374" stop-opacity="0"/>
<stop offset="1" stop-color="#B88653"/>
</linearGradient>
<radialGradient id="paint9_radial" cx="0" cy="0" r="1" gradientUnits="userSpaceOnUse" gradientTransform="translate(21.8319 43.5543) scale(6.84047 6.8416)">
<stop stop-color="#B37E53" stop-opacity="0"/>
<stop offset="1" stop-color="#B37E53"/>
</radialGradient>
<radialGradient id="paint10_radial" cx="0" cy="0" r="1" gradientUnits="userSpaceOnUse" gradientTransform="translate(21.1116 34.664) scale(8.6639 8.66533)">
<stop stop-color="#B37E53" stop-opacity="0"/>
<stop offset="1" stop-color="#B37E53"/>
</radialGradient>
<linearGradient id="paint11_linear" x1="72.354" y1="68.6936" x2="11.4349" y2="16.5455" gradientUnits="userSpaceOnUse">
<stop stop-color="#D2A374" stop-opacity="0"/>
<stop offset="1" stop-color="#B88653"/>
</linearGradient>
<radialGradient id="paint12_radial" cx="0" cy="0" r="1" gradientUnits="userSpaceOnUse" gradientTransform="translate(21.8319 43.2467) scale(6.70504 6.70615)">
<stop stop-color="#B37E53" stop-opacity="0"/>
<stop offset="1" stop-color="#B37E53"/>
</radialGradient>
<linearGradient id="paint13_linear" x1="70.7404" y1="70.5791" x2="9.82134" y2="18.431" gradientUnits="userSpaceOnUse">
<stop stop-color="#B37E53"/>
<stop offset="1" stop-color="#CD9870"/>
</linearGradient>
<linearGradient id="paint14_linear" x1="9.456" y1="44.0191" x2="69.6291" y2="44.0191" gradientUnits="userSpaceOnUse">
<stop stop-color="#473226" stop-opacity="0"/>
<stop offset="1" stop-color="#3D2A20"/>
</linearGradient>
<linearGradient id="paint15_linear" x1="55.3585" y1="50.9867" x2="67.4605" y2="76.3339" gradientUnits="userSpaceOnUse">
<stop offset="0.00132565" stop-color="#BE8D68"/>
<stop offset="1" stop-color="#CD9870"/>
</linearGradient>
<linearGradient id="paint16_linear" x1="61.8277" y1="59.5451" x2="48.9963" y2="75.6599" gradientUnits="userSpaceOnUse">
<stop stop-color="#B37E53"/>
<stop offset="1" stop-color="#CD9870"/>
</linearGradient>
<linearGradient id="paint17_linear" x1="60.9493" y1="50.041" x2="60.7407" y2="81.3359" gradientUnits="userSpaceOnUse">
<stop offset="0.3118" stop-color="#D2A374" stop-opacity="0"/>
<stop offset="1" stop-color="#D2A374"/>
</linearGradient>
<linearGradient id="paint18_linear" x1="56.3665" y1="69.075" x2="45.3173" y2="46.1748" gradientUnits="userSpaceOnUse">
<stop offset="0.00132565" stop-color="#BE8D68"/>
<stop offset="1" stop-color="#CD9870"/>
</linearGradient>
<linearGradient id="paint19_linear" x1="-14.7291" y1="-10.7615" x2="9.35666" y2="22.2931" gradientUnits="userSpaceOnUse">
<stop offset="0.00132565" stop-color="#BE8D68"/>
<stop offset="1" stop-color="#CD9870"/>
</linearGradient>
<linearGradient id="paint20_linear" x1="-10.0748" y1="-14.153" x2="14.0109" y2="18.9016" gradientUnits="userSpaceOnUse">
<stop offset="0.00132565" stop-color="#BE8D68"/>
<stop offset="1" stop-color="#CD9870"/>
</linearGradient>
<linearGradient id="paint21_linear" x1="0.546744" y1="-21.8925" x2="24.6325" y2="11.1621" gradientUnits="userSpaceOnUse">
<stop offset="0.00132565" stop-color="#BE8D68"/>
<stop offset="1" stop-color="#CD9870"/>
</linearGradient>
<linearGradient id="paint22_linear" x1="-5.22921" y1="-17.6838" x2="18.8566" y2="15.3708" gradientUnits="userSpaceOnUse">
<stop offset="0.00132565" stop-color="#BE8D68"/>
<stop offset="1" stop-color="#CD9870"/>
</linearGradient>
<linearGradient id="paint23_linear" x1="21.4532" y1="18.1373" x2="76.8425" y2="59.9071" gradientUnits="userSpaceOnUse">
<stop stop-color="#A46C3F" stop-opacity="0"/>
<stop offset="1" stop-color="#804B24"/>
</linearGradient>
<linearGradient id="paint24_linear" x1="13.9527" y1="22.1723" x2="77.0862" y2="65.4277" gradientUnits="userSpaceOnUse">
<stop stop-color="#A46C3F" stop-opacity="0"/>
<stop offset="1" stop-color="#804B24"/>
</linearGradient>
<linearGradient id="paint25_linear" x1="11.3811" y1="29.0763" x2="77.5654" y2="73.0355" gradientUnits="userSpaceOnUse">
<stop stop-color="#A46C3F" stop-opacity="0"/>
<stop offset="1" stop-color="#804B24"/>
</linearGradient>
<linearGradient id="paint26_linear" x1="9.37602" y1="27.3874" x2="113.272" y2="116.248" gradientUnits="userSpaceOnUse">
<stop stop-color="#A46C3F" stop-opacity="0"/>
<stop offset="1" stop-color="#804B24"/>
</linearGradient>
<linearGradient id="paint27_linear" x1="13.049" y1="23.4918" x2="76.1826" y2="66.7472" gradientUnits="userSpaceOnUse">
<stop stop-color="#A46C3F" stop-opacity="0"/>
<stop offset="1" stop-color="#804B24"/>
</linearGradient>
<linearGradient id="paint28_linear" x1="20.8203" y1="18.9761" x2="76.2096" y2="60.7459" gradientUnits="userSpaceOnUse">
<stop stop-color="#A46C3F" stop-opacity="0"/>
<stop offset="1" stop-color="#804B24"/>
</linearGradient>
<linearGradient id="paint29_linear" x1="44.2828" y1="88.511" x2="38.7531" y2="23.105" gradientUnits="userSpaceOnUse">
<stop stop-color="#B37E53"/>
<stop offset="1" stop-color="#CD9870"/>
</linearGradient>
</defs>
</svg>
