<svg width="80" height="80" viewBox="0 0 80 80" fill="none" xmlns="http://www.w3.org/2000/svg">
<path d="M59.4289 46.2031C59.6413 50.2569 66.497 55.1332 69.1362 56.9725C72.4488 59.2863 58.4753 74.0145 56.5276 71.9176C55.1447 70.4308 46.5039 64.1174 45.939 63.6474" fill="url(#paint0_linear)"/>
<path d="M56.5275 71.9174C57.1512 72.5863 58.995 71.5378 61.1146 69.7301C58.2223 69.6804 52.0444 64.2799 51.2626 62.8111C50.6118 61.5864 48.0268 60.8498 45.7537 60.7549L45.9389 63.6517C46.5039 64.1172 55.1446 70.4306 56.5275 71.9174Z" fill="url(#paint1_linear)"/>
<path d="M56.5276 71.9182C55.1447 70.4314 46.5039 64.118 45.939 63.648C52.4648 63.9146 57.8562 55.0343 59.0945 49.6971C59.2662 48.9469 59.4651 48.3775 59.682 47.9346C60.3553 50.5874 66.9263 55.423 69.1408 56.9685C72.4488 59.2869 58.4799 74.0151 56.5276 71.9182Z" fill="url(#paint2_linear)"/>
<path d="M39.7112 21.9845C37.1442 21.0445 34.044 24.8633 38.7079 30.0152C39.2954 30.6118 39.9642 31.2038 40.7415 31.7732C42.6306 33.1652 46.133 36.4235 46.133 36.4235C45.8799 36.9071 38.2062 30.0469 36.0822 27.8776L31.3686 32.3833C32.3493 33.0838 34.2881 34.6384 34.035 34.9954C33.7819 35.3525 33.3571 34.3537 32.521 33.7617C31.685 33.1652 31.2602 41.0557 31.1607 41.467C31.0839 41.7788 29.7643 41.9008 29.0909 44.2418C28.865 45.0236 29.4434 48.8469 29.3305 48.9961C29.3305 48.9961 26.5828 45.7964 25.0146 44.6531C23.4464 43.5142 23.8622 52.7606 25.6021 53.9537C28.4402 55.906 37.4018 65.6721 45.1117 64.3705C54.0326 62.8611 60.7211 52.1595 59.5687 45.331C58.4163 38.5024 52.4012 33.4996 47.8051 29.952C43.9141 26.9512 41.781 23.3132 39.7112 21.9845Z" fill="url(#paint3_linear)"/>
<path d="M25.0193 44.6533C23.4511 43.5145 19.6007 40.0301 17.2055 38.4619C14.8103 36.8938 12.8671 37.1016 11.7192 39.1941C10.5713 41.2865 14.7923 44.3595 15.7684 45.164C17.2598 46.3977 23.8488 52.6117 25.6068 53.9584" fill="url(#paint4_linear)"/>
<path d="M31.1607 41.4675C30.8896 41.8652 29.7823 40.1886 27.1386 38.1369C25.1185 36.5687 19.718 32.1579 16.785 29.9389C13.147 27.1867 11.6466 27.0828 10.0965 28.6464C8.54642 30.2101 9.9971 32.6821 12.3426 34.5531C14.322 36.1348 17.5578 38.4984 21.6567 41.3907C24.1107 43.1216 29.7688 48.382 29.3304 48.9921" fill="url(#paint5_linear)"/>
<path d="M36.0822 27.8779C33.9581 25.7086 25.4168 19.1738 23.3379 17.226C21.2591 15.2782 19.1305 15.7347 17.8787 17.0905C16.6268 18.4462 16.776 20.3127 21.0421 24.0004C23.7356 26.3278 26.2754 28.5693 31.3686 32.3791L37.2753 31.6831L36.0822 27.8779Z" fill="url(#paint6_linear)"/>
<path d="M32.5212 33.7572C31.6851 33.1652 24.0837 26.7298 22.38 25.3605C18.8143 22.4998 14.0375 17.5693 11.118 20.4797C9.23803 22.3552 10.7655 24.3481 11.5202 25.1255C12.275 25.9028 21.8286 33.4906 22.728 34.1278C23.6273 34.765 31.2603 41.0467 31.1609 41.4625" fill="url(#paint7_linear)"/>
<path d="M17.3321 19.5034C17.7117 20.6739 18.9093 22.1607 21.0424 24.0046C23.7359 26.332 26.3028 28.5374 31.3689 32.3833C32.3315 33.1109 34.2883 34.6384 34.0352 34.9954C34.32 32.1483 26.0497 27.2901 22.6784 24.5785C19.0991 21.6953 17.0429 18.6267 17.3321 19.5034Z" fill="url(#paint8_linear)"/>
<path d="M22.728 34.1327C23.6273 34.7744 31.2603 41.0517 31.1609 41.4674C31.1609 41.4674 30.8174 39.1671 28.2053 37.3097C22.85 33.5045 17.3501 29.1887 14.738 26.5178C12.275 24.0006 10.2775 23.169 10.5125 23.7023C10.7475 24.2356 11.231 24.8321 11.5203 25.1304C12.275 25.9077 21.8287 33.491 22.728 34.1327Z" fill="url(#paint9_linear)"/>
<path d="M12.3427 34.5574C14.3221 36.1391 17.5579 38.5027 21.6568 41.395C24.1108 43.1259 29.7689 48.3863 29.3305 48.9964C31.8567 46.0227 11.023 33.997 9.46842 29.9658C9.32832 31.412 10.5847 33.1519 12.3427 34.5574Z" fill="url(#paint10_linear)"/>
<path d="M28.8107 49.5975C29.0728 49.4393 29.3078 49.1501 29.3349 49.0009C29.3349 49.0009 26.4607 45.7064 25.0191 44.658C23.4509 43.5146 19.6005 40.0303 17.2053 38.4621C16.1523 37.7752 15.1897 37.4272 14.3401 37.4362C15.6145 38.0734 15.0858 38.3988 17.96 40.202C19.5011 41.1646 27.1115 50.6188 28.8107 49.5975Z" fill="url(#paint11_linear)"/>
<path d="M22.719 35.5651C25.2452 37.3457 29.647 42.8321 31.1609 41.4673C30.7225 41.7068 29.195 39.7319 27.1388 38.1366C25.1187 36.5684 19.7589 32.1079 16.7852 29.9387C13.7212 27.7016 12.5462 27.2904 11.0684 27.9005C15.791 28.619 16.5231 31.186 22.719 35.5651Z" fill="url(#paint12_linear)"/>
<path d="M23.0487 27.3173C26.7003 30.1509 33.1176 35.7864 34.035 34.9955C33.6735 35.1763 33.2713 34.295 32.5211 33.7617C31.685 33.1652 24.0837 26.7298 22.3799 25.3605C20.1655 23.5844 16.9297 20.4481 14.2046 19.7295C17.0969 21.3112 20.0886 25.017 23.0487 27.3173Z" fill="url(#paint13_linear)"/>
<path d="M29.3304 48.9964C29.3304 48.9964 26.4562 45.7019 25.0145 44.6534C23.4509 43.5146 19.6005 40.0303 17.2053 38.4621C16.1523 37.7752 15.1897 37.4272 14.3401 37.4362C15.6145 38.0734 18.0052 39.393 22.2804 43.0265C29.71 49.5116 29.3078 49.1456 29.3304 48.9964Z" fill="url(#paint14_linear)"/>
<path d="M39.7113 21.985C39.2729 21.8268 38.812 21.8675 38.3646 22.0438C40.1361 22.7397 42.0026 24.1723 42.8657 27.4352C43.9594 31.5613 52.3471 34.4581 54.7061 38.6791C57.2234 43.1803 56.193 50.1535 53.0747 52.8334C49.9609 55.5133 46.9059 65.4872 31.9472 57.3255C31.9427 57.3255 31.9382 57.321 31.9382 57.321C31.0072 56.7063 28.2279 54.6094 27.4506 54.0445C23.3788 51.0844 18.0686 45.2501 15.3933 42.8458C14.869 42.3758 13.3958 40.5094 11.936 41.3093C12.8625 42.9633 15.095 44.6129 15.7684 45.1687C17.2597 46.4025 24.9921 53.5384 25.2723 53.7327C27.3873 55.1969 37.4607 65.659 45.1118 64.3755C54.0373 62.8796 60.7213 52.1645 59.5689 45.3359C58.4164 38.5074 52.4013 33.5046 47.8053 29.957C43.9142 26.9517 41.7811 23.3137 39.7113 21.985Z" fill="url(#paint15_radial)"/>
<path d="M69.1359 56.9726C66.7452 55.305 60.9018 51.1382 59.6726 47.3556C59.6997 46.6552 59.6817 45.9728 59.5732 45.331C58.4208 38.5024 52.4057 33.4996 47.8096 29.952C43.9185 26.9513 41.7809 23.3133 39.7156 21.9846C37.1487 21.0446 34.0485 24.8634 38.7124 30.0153C39.2999 30.6118 39.9687 31.2039 40.746 31.7733C42.6351 33.1652 46.1375 36.4236 46.1375 36.4236C45.8844 36.9072 38.2107 30.0469 36.0867 27.8777C33.9626 25.7085 25.4213 19.1736 23.3424 17.2258C21.2636 15.2735 19.135 15.7345 17.8832 17.0903C16.6313 18.446 16.7805 20.3125 21.0466 24.0002C23.7401 26.3276 26.2799 28.5691 31.3731 32.3789C32.3538 33.0794 34.2925 34.634 34.0395 34.991C33.7864 35.3435 33.3616 34.3493 32.5255 33.7572C31.6849 33.1652 24.0836 26.7298 22.3798 25.3605C18.8141 22.4998 14.0373 17.5693 11.1179 20.4797C9.23787 22.3552 10.7654 24.3482 11.5201 25.1255C12.2748 25.9028 21.8285 33.4906 22.7278 34.1278C23.6271 34.7696 31.2601 41.0468 31.1607 41.4625C30.8896 41.8602 29.7823 40.1836 27.1386 38.1319C25.1185 36.5637 19.718 32.1529 16.785 29.934C13.147 27.1817 11.6466 27.0778 10.0965 28.6415C8.54642 30.2051 9.9971 32.6771 12.3426 34.5481C14.3265 36.1298 17.5578 38.4934 21.6567 41.3857C23.957 43.0081 29.0683 47.7307 29.344 48.8199C29.344 48.8244 29.344 48.8244 29.344 48.8289C29.3621 48.8967 29.3575 48.9555 29.3304 48.9916C29.3304 48.9916 26.5827 45.792 25.0145 44.6486C23.4509 43.5143 19.6005 40.0299 17.2053 38.4618C14.8101 36.8936 12.8668 37.1015 11.7189 39.1939C10.571 41.2863 14.792 44.3594 15.7682 45.1638C17.2595 46.3976 23.8486 52.6115 25.6066 53.9583C28.4446 55.9106 37.4063 65.6767 45.1161 64.3706C45.5726 64.2938 46.0245 64.1763 46.4674 64.0542C48.4694 65.5637 55.307 70.6071 56.5272 71.9177C58.4795 74.0147 72.4485 59.2864 69.1359 56.9726Z" fill="url(#paint16_linear)"/>
<path d="M31.3372 50.7815C31.3192 50.7996 30.3159 49.846 30.099 49.6291C29.986 49.5161 21.187 39.7817 19.7002 38.6654C19.7002 38.6654 19.8448 38.7829 19.899 38.6835C19.9397 38.6067 19.8087 38.4575 19.8087 38.4575C21.1825 39.4879 26.7683 44.1246 30.3746 48.9783C30.7317 49.4574 31.4321 50.6866 31.3372 50.7815Z" fill="#975500"/>
<path d="M33.8815 43.4105C33.8815 43.4105 33.8769 43.4105 33.8815 43.4105C33.2668 43.7359 21.6524 31.1905 18.855 29.0077C18.855 29.0077 19.1307 29.1342 19.2301 29.0032C19.3159 28.8766 19.1533 28.6055 19.1533 28.6055C21.9868 30.8154 34.1119 42.9947 33.8815 43.4105Z" fill="#975500"/>
<path d="M37.3703 37.2012C37.1896 37.3096 36.6202 36.695 36.5117 36.573C34.5006 34.3088 32.2049 32.2164 29.5747 29.5998C27.428 27.4667 25.3627 25.3291 24.0295 23.8558C24.0295 23.8558 24.1877 24.023 24.2645 23.9733C24.3866 23.8649 24.1696 23.6479 24.1696 23.6479C25.4893 25.1122 27.8483 27.0555 29.9859 29.184C32.6251 31.8052 34.8079 33.9202 36.8326 36.1934C36.9365 36.3109 37.4788 37.0882 37.3703 37.2012Z" fill="#975500"/>
<path d="M63.8984 48.2549C63.7267 52.3358 70.1349 57.8673 72.6024 59.9597C75.7026 62.5899 60.3146 76.0211 58.5612 73.7389C57.3139 72.1165 49.256 64.9761 48.7363 64.4564" fill="url(#paint17_linear)"/>
<path d="M58.5658 73.7391C59.1262 74.4667 61.074 73.5944 63.3652 71.9811C60.4729 71.6557 54.7922 65.6677 54.1505 64.1176C53.6127 62.8296 51.0955 61.8489 48.8268 61.5371L48.741 64.4565C49.2607 64.9808 57.3185 72.1212 58.5658 73.7391Z" fill="url(#paint18_linear)"/>
<path d="M58.5656 73.7391C57.3182 72.1167 49.2604 64.9763 48.7407 64.4566C55.2484 65.3378 61.494 56.9546 63.2339 51.7259C63.478 50.9937 63.7265 50.4379 63.9886 50.0176C64.4135 52.7382 70.537 58.2019 72.6068 59.9599C75.707 62.5901 60.319 76.0258 58.5656 73.7391Z" fill="url(#paint19_linear)"/>
<path d="M46.4313 22.1337C43.9503 20.9496 40.484 24.4837 44.6688 30.083C45.2021 30.7383 45.8167 31.3936 46.5398 32.0353C48.3023 33.608 51.4974 37.2053 51.4974 37.2053C51.1991 37.6663 44.1581 30.0695 42.2329 27.6969L37.09 31.7642C38.0075 32.5596 39.8016 34.2995 39.5169 34.6294C39.2322 34.9593 38.8977 33.9244 38.1159 33.251C37.3341 32.5776 36.1636 40.4366 36.028 40.8433C35.9241 41.1461 34.5909 41.1461 33.6916 43.4283C33.3933 44.1876 33.6102 48.0741 33.4837 48.2142C33.4837 48.2142 31.0343 44.748 29.5745 43.46C28.1103 42.1675 27.6539 51.4726 29.2853 52.8329C31.9426 55.0564 40.0004 65.6856 47.8458 65.1071C56.925 64.4383 64.6348 54.3468 64.1242 47.4008C63.6135 40.4502 58.0639 34.8734 53.7887 30.8874C50.1733 27.5071 48.3791 23.6612 46.4313 22.1337Z" fill="url(#paint20_linear)"/>
<path d="M29.5744 43.46C28.1102 42.1675 24.5852 38.3126 22.3346 36.5185C20.084 34.7243 18.1181 34.7469 16.7714 36.7354C15.4246 38.7193 19.3609 42.1992 20.2648 43.094C21.6431 44.4678 27.6582 51.3145 29.2897 52.8284" fill="url(#paint21_linear)"/>
<path d="M36.0326 40.8436C35.7253 41.2187 34.7718 39.4336 32.3178 37.1288C30.4423 35.3663 25.4486 30.4403 22.7235 27.9412C19.3385 24.841 17.8472 24.5969 16.148 26.016C14.4487 27.435 15.6644 30.0471 17.8382 32.1441C19.673 33.9156 22.6918 36.591 26.5196 39.872C28.8154 41.8378 33.9854 47.6406 33.4883 48.21" fill="url(#paint22_linear)"/>
<path d="M42.2375 27.6973C40.3168 25.3247 32.3765 17.9764 30.4784 15.8252C28.5804 13.6741 26.4021 13.9362 25.0237 15.1745C23.6453 16.4127 23.6137 18.2973 27.5409 22.3962C30.022 24.9857 32.3539 27.4668 37.0946 31.7646L43.0736 31.6245L42.2375 27.6973Z" fill="url(#paint23_linear)"/>
<path d="M38.1205 33.2508C37.3387 32.5774 30.3339 25.4144 28.7521 23.8824C25.4531 20.6828 21.1327 15.2913 17.9331 17.9306C15.8723 19.6298 17.2145 21.7719 17.8969 22.6261C18.5793 23.4802 27.4325 31.9764 28.2731 32.704C29.1182 33.4316 36.1682 40.4409 36.0326 40.8431" fill="url(#paint24_linear)"/>
<path d="M24.2512 17.5423C24.5223 18.7535 25.5843 20.3533 27.5457 22.4005C30.0222 24.9855 32.3903 27.4395 37.0994 31.7689C37.9942 32.5914 39.8109 34.3042 39.5262 34.6341C40.0821 31.8096 32.2547 26.1605 29.1365 23.1281C25.8148 19.9014 24.0478 16.6339 24.2512 17.5423Z" fill="url(#paint25_linear)"/>
<path d="M28.2774 32.7042C29.118 33.4318 36.168 40.4411 36.0324 40.8433C36.0324 40.8433 35.9059 38.5069 33.4655 36.3964C28.4627 32.076 23.3559 27.2359 20.9924 24.3164C18.7644 21.5642 16.8437 20.5429 17.029 21.0987C17.2143 21.6546 17.6436 22.3009 17.9057 22.6262C18.5791 23.4759 27.4323 31.9766 28.2774 32.7042Z" fill="url(#paint26_linear)"/>
<path d="M17.8336 32.1442C19.6684 33.9157 22.6873 36.5911 26.5151 39.8721C28.8108 41.838 33.9808 47.6407 33.4837 48.2101C36.2947 45.4669 16.5637 31.4573 15.3842 27.2725C15.113 28.7096 16.2021 30.5715 17.8336 32.1442Z" fill="url(#paint27_linear)"/>
<path d="M32.9051 48.766C33.1808 48.6349 33.4474 48.3638 33.4836 48.2146C33.4836 48.2146 30.9167 44.6444 29.5745 43.4559C28.1102 42.1679 24.5852 38.313 22.3346 36.5188C21.3449 35.728 20.414 35.2941 19.5598 35.2173C20.78 35.9765 20.2151 36.2522 22.9267 38.331C24.3773 39.4428 31.111 49.6291 32.9051 48.766Z" fill="url(#paint28_linear)"/>
<path d="M28.1329 34.1325C30.4919 36.1571 34.383 42.0638 36.0325 40.8436C35.5715 41.0424 34.2293 38.9184 32.3177 37.1288C30.4422 35.3663 25.4936 30.3906 22.7233 27.9412C19.8626 25.4149 18.7238 24.8862 17.1873 25.3607C21.8466 26.5266 22.3347 29.1659 28.1329 34.1325Z" fill="url(#paint29_linear)"/>
<path d="M29.2401 25.903C32.6341 29.0891 38.5272 35.3347 39.5214 34.6297C39.1418 34.7788 38.8209 33.8523 38.1204 33.2513C37.3386 32.5779 30.3338 25.4149 28.752 23.8829C26.7048 21.8944 23.7537 18.4508 21.0964 17.4746C23.8441 19.3275 26.4924 23.3225 29.2401 25.903Z" fill="url(#paint30_linear)"/>
<path d="M33.4881 48.2146C33.4881 48.2146 30.9212 44.6444 29.579 43.4559C28.1102 42.1679 24.5852 38.313 22.3346 36.5188C21.3449 35.728 20.414 35.2941 19.5598 35.2173C20.78 35.9765 23.0487 37.5221 26.9849 41.5668C33.818 48.766 33.4474 48.3638 33.4881 48.2146Z" fill="url(#paint31_linear)"/>
<path d="M46.4315 22.134C46.0112 21.9306 45.5412 21.9306 45.0757 22.0662C46.784 22.9293 48.5194 24.5427 49.0798 27.8915C49.7893 32.1305 57.9149 35.8227 59.8808 40.2697C61.9777 45.0194 60.2875 51.9022 56.9116 54.2929C53.5358 56.6836 49.5362 66.3864 35.3277 56.8011C35.3232 56.8011 35.3232 56.7965 35.3187 56.7965C34.442 56.0961 31.8569 53.728 31.1294 53.0908C27.3287 49.742 22.5609 43.397 20.1069 40.7352C19.6234 40.2154 18.3263 38.2044 16.7898 38.8687C17.5626 40.6131 19.6414 42.4751 20.2651 43.0942C21.6435 44.4681 28.7161 52.3451 28.9782 52.5665C30.9576 54.2341 40.0594 65.6633 47.846 65.1029C56.9252 64.4476 64.635 54.3426 64.1243 47.3965C63.6137 40.4459 58.064 34.8692 53.7888 30.8832C50.1734 27.5073 48.3793 23.6615 46.4315 22.134Z" fill="url(#paint32_radial)"/>
<path d="M33.6961 48.4226C33.6781 48.4407 32.6748 47.4871 32.4579 47.2702C32.3449 47.1572 23.5459 37.4228 22.0591 36.3065C22.0591 36.3065 22.2037 36.424 22.2579 36.3246C22.2986 36.2478 22.1675 36.0986 22.1675 36.0986C23.5414 37.129 29.1272 41.7658 32.7335 46.6194C33.0906 47.0985 33.7865 48.3277 33.6961 48.4226Z" fill="#975500"/>
<path d="M36.2406 41.0516C36.2361 41.0516 36.2361 41.0561 36.2406 41.0516C35.626 41.377 24.0115 28.8316 21.2141 26.6488C21.2141 26.6488 21.4898 26.7753 21.5892 26.6443C21.6751 26.5177 21.5124 26.2466 21.5124 26.2466C24.3459 28.4565 36.4711 40.6358 36.2406 41.0516Z" fill="#975500"/>
<path d="M39.7292 34.8423C39.5485 34.9507 38.979 34.3361 38.8706 34.2141C36.855 31.95 34.5637 29.8621 31.929 27.2409C29.7824 25.1078 27.7171 22.9702 26.3884 21.4969C26.3884 21.4969 26.5466 21.6642 26.6234 21.6144C26.7454 21.506 26.5285 21.2891 26.5285 21.2891C27.8481 22.7533 30.2072 24.6966 32.3448 26.8251C34.984 29.4508 37.1668 31.5613 39.1914 33.8345C39.2954 33.952 39.8377 34.7293 39.7292 34.8423Z" fill="#975500"/>
<path d="M58.9225 73.9559C59.0128 73.8068 53.1378 67.8595 50.5528 65.5185L49.527 64.5875C49.423 64.4972 49.2874 64.4565 49.1519 64.4791C48.709 64.5604 48.2616 64.6327 47.8142 64.6644C41.7539 65.1118 35.5354 58.6131 31.8206 54.7266C30.8715 53.7368 30.1258 52.955 29.588 52.5076C28.6526 51.6399 26.2257 48.96 24.0836 46.5919C22.5154 44.8611 21.1642 43.3652 20.5812 42.7822L20.2784 42.4885C15.7772 38.6381 16.8664 36.6044 16.776 36.7355C15.4247 38.7194 19.361 42.1992 20.2649 43.094C21.6432 44.4679 27.6583 51.3145 29.2853 52.8285C31.9426 55.0519 40.0004 65.6812 47.8458 65.1027C48.3113 65.0666 48.7722 64.9943 49.2287 64.9129C51.0951 66.6122 57.4673 72.3109 58.5654 73.739C58.6513 73.852 58.7778 73.9153 58.9225 73.9559Z" fill="#975500"/>
<path d="M14.3354 6.34301C14.2993 6.22551 14.2089 6.12609 14.0914 6.08542C13.9739 6.04023 13.8428 6.05378 13.7389 6.12157L12.2114 7.07513C12.112 7.1384 12.0442 7.23782 12.0261 7.35532C12.008 7.47283 12.0442 7.58581 12.1165 7.68071C15.2528 11.5944 16.943 13.2891 16.9385 13.262C16.3194 11.1199 14.349 6.38821 14.3354 6.34301Z" fill="#975500"/>
<path d="M8.87622 13.1759C8.79939 13.0946 8.69093 13.0539 8.57795 13.0584C8.46497 13.063 8.36102 13.1127 8.28872 13.194L7.10016 14.5498C7.00525 14.6583 6.97362 14.8119 7.02333 14.9475C7.07304 15.0831 7.19506 15.1599 7.33064 15.2096C11.2985 16.7281 12.4555 17.4963 12.4826 17.4737C12.6182 17.3472 11.7459 16.0863 8.87622 13.1759Z" fill="#975500"/>
<path d="M21.0103 6.48827C21.0013 6.37529 21.0329 6.26682 21.1097 6.18096C21.182 6.09961 21.2905 6.0499 21.3989 6.04538L23.2021 6.00019C23.3467 5.99567 23.4823 6.0725 23.5591 6.19452C23.636 6.32106 23.6089 6.46115 23.5637 6.60125C22.1943 10.6234 22.1446 12.0198 22.1085 12.0243C21.9232 12.056 21.417 10.5601 21.0103 6.48827Z" fill="#975500"/>
<path d="M52.4959 13.1579C52.5772 13.063 52.6088 12.9365 52.5862 12.8145C52.5591 12.6925 52.4778 12.5885 52.3693 12.5343L50.7469 11.7434C50.643 11.6937 50.5164 11.6892 50.4125 11.7344C50.304 11.7796 50.2272 11.8745 50.1865 11.9829C48.5234 16.7146 47.9811 19.0465 47.9992 19.0284C49.4906 17.3699 52.4642 13.1941 52.4959 13.1579Z" fill="#975500"/>
<path d="M43.8913 12.2639C43.9184 12.1555 43.8958 12.0425 43.8326 11.9476C43.7693 11.8527 43.6744 11.7894 43.5614 11.7713L41.7854 11.4821C41.6407 11.4595 41.4961 11.5137 41.4057 11.6267C41.3154 11.7397 41.3199 11.8843 41.347 12.0289C42.1559 16.2002 42.1153 17.5876 42.1514 17.5966C42.3322 17.6509 42.9378 16.2454 43.8913 12.2639Z" fill="#975500"/>
<path d="M55.9895 19.0247C56.0798 18.9569 56.1928 18.9298 56.3013 18.9478C56.4097 18.9659 56.5092 19.0292 56.5724 19.1241L57.5622 20.629C57.6435 20.751 57.6525 20.9047 57.5848 21.0357C57.517 21.1668 57.3859 21.221 57.2413 21.2527C53.1062 22.2198 51.8905 22.9157 51.8679 22.8886C51.7459 22.744 52.7492 21.5193 55.9895 19.0247Z" fill="#975500"/>
<defs>
<linearGradient id="paint0_linear" x1="53.2368" y1="55.4076" x2="58.4143" y2="60.0562" gradientUnits="userSpaceOnUse">
<stop offset="0.00132565" stop-color="#FFCB4B"/>
<stop offset="1" stop-color="#FFD748"/>
</linearGradient>
<linearGradient id="paint1_linear" x1="56.8888" y1="70.7137" x2="47.2247" y2="59.1313" gradientUnits="userSpaceOnUse">
<stop offset="0.00132565" stop-color="#FFCB4B"/>
<stop offset="1" stop-color="#FFD748"/>
</linearGradient>
<linearGradient id="paint2_linear" x1="57.761" y1="61.1893" x2="55.3364" y2="83.7416" gradientUnits="userSpaceOnUse">
<stop stop-color="#C86F34" stop-opacity="0"/>
<stop offset="1" stop-color="#C86F34"/>
</linearGradient>
<linearGradient id="paint3_linear" x1="53.934" y1="67.5024" x2="40.8659" y2="45.8675" gradientUnits="userSpaceOnUse">
<stop offset="0.00132565" stop-color="#FFCB4B"/>
<stop offset="1" stop-color="#FFD748"/>
</linearGradient>
<linearGradient id="paint4_linear" x1="12.9582" y1="41.9164" x2="23.6728" y2="47.3232" gradientUnits="userSpaceOnUse">
<stop offset="0.00132565" stop-color="#FFCB4B"/>
<stop offset="1" stop-color="#FFD748"/>
</linearGradient>
<linearGradient id="paint5_linear" x1="7.48898" y1="27.8562" x2="27.0393" y2="42.4364" gradientUnits="userSpaceOnUse">
<stop offset="0.00132565" stop-color="#FFCB4B"/>
<stop offset="1" stop-color="#FFD748"/>
</linearGradient>
<linearGradient id="paint6_linear" x1="22.1067" y1="18.943" x2="34.4438" y2="32.6151" gradientUnits="userSpaceOnUse">
<stop offset="0.00132565" stop-color="#FFCB4B"/>
<stop offset="1" stop-color="#FFD748"/>
</linearGradient>
<linearGradient id="paint7_linear" x1="14.8588" y1="22.5524" x2="30.2812" y2="37.393" gradientUnits="userSpaceOnUse">
<stop offset="0.00132565" stop-color="#FFCB4B"/>
<stop offset="1" stop-color="#FFD748"/>
</linearGradient>
<linearGradient id="paint8_linear" x1="27.4083" y1="24.9225" x2="24.9253" y2="28.1486" gradientUnits="userSpaceOnUse">
<stop stop-color="#FFBC47" stop-opacity="0"/>
<stop offset="1" stop-color="#E68E43"/>
</linearGradient>
<linearGradient id="paint9_linear" x1="24.6671" y1="27.686" x2="19.741" y2="33.9049" gradientUnits="userSpaceOnUse">
<stop stop-color="#FFBC47" stop-opacity="0"/>
<stop offset="1" stop-color="#E68E43"/>
</linearGradient>
<linearGradient id="paint10_linear" x1="22.824" y1="34.8399" x2="18.5532" y2="40.631" gradientUnits="userSpaceOnUse">
<stop offset="0.3118" stop-color="#FFBC47" stop-opacity="0"/>
<stop offset="1" stop-color="#FF8900"/>
</linearGradient>
<linearGradient id="paint11_linear" x1="20.311" y1="45.591" x2="23.1882" y2="41.1583" gradientUnits="userSpaceOnUse">
<stop stop-color="#FFBC47" stop-opacity="0"/>
<stop offset="1" stop-color="#E68E43"/>
</linearGradient>
<linearGradient id="paint12_linear" x1="1.9707" y1="17.264" x2="27.9038" y2="40.852" gradientUnits="userSpaceOnUse">
<stop stop-color="#FFBC47" stop-opacity="0"/>
<stop offset="1" stop-color="#E68E43"/>
</linearGradient>
<linearGradient id="paint13_linear" x1="22.3726" y1="29.238" x2="24.2157" y2="27.2618" gradientUnits="userSpaceOnUse">
<stop stop-color="#FFBC47" stop-opacity="0"/>
<stop offset="1" stop-color="#E68E43"/>
</linearGradient>
<linearGradient id="paint14_linear" x1="20.4408" y1="43.8273" x2="24.828" y2="41.9806" gradientUnits="userSpaceOnUse">
<stop stop-color="#FFBC47" stop-opacity="0"/>
<stop offset="1" stop-color="#E68E43"/>
</linearGradient>
<radialGradient id="paint15_radial" cx="0" cy="0" r="1" gradientUnits="userSpaceOnUse" gradientTransform="translate(39.8781 46.4481) rotate(-50.3837) scale(48.9486)">
<stop stop-color="#FFBC47" stop-opacity="0"/>
<stop offset="1" stop-color="#FF8900"/>
</radialGradient>
<linearGradient id="paint16_linear" x1="8.893" y1="0.464483" x2="35.577" y2="41.4572" gradientUnits="userSpaceOnUse">
<stop stop-color="#FFBC47" stop-opacity="0"/>
<stop offset="1" stop-color="#C86F34"/>
</linearGradient>
<linearGradient id="paint17_linear" x1="56.8278" y1="56.9095" x2="61.5753" y2="62.0541" gradientUnits="userSpaceOnUse">
<stop offset="0.00132565" stop-color="#FFCB4B"/>
<stop offset="1" stop-color="#FFD748"/>
</linearGradient>
<linearGradient id="paint18_linear" x1="59.0358" y1="72.5734" x2="50.4485" y2="60.0604" gradientUnits="userSpaceOnUse">
<stop offset="0.00132565" stop-color="#FFCB4B"/>
<stop offset="1" stop-color="#FFD748"/>
</linearGradient>
<linearGradient id="paint19_linear" x1="60.8139" y1="63.127" x2="56.258" y2="85.4876" gradientUnits="userSpaceOnUse">
<stop stop-color="#C86F34" stop-opacity="0"/>
<stop offset="1" stop-color="#C86F34"/>
</linearGradient>
<linearGradient id="paint20_linear" x1="56.3791" y1="69.0777" x2="45.3304" y2="46.1747" gradientUnits="userSpaceOnUse">
<stop offset="0.00132565" stop-color="#FFCB4B"/>
<stop offset="1" stop-color="#FFD748"/>
</linearGradient>
<linearGradient id="paint21_linear" x1="17.7539" y1="39.5765" x2="27.9762" y2="46.0033" gradientUnits="userSpaceOnUse">
<stop offset="0.00132565" stop-color="#FFCB4B"/>
<stop offset="1" stop-color="#FFD748"/>
</linearGradient>
<linearGradient id="paint22_linear" x1="13.6028" y1="24.9765" x2="31.81" y2="41.4259" gradientUnits="userSpaceOnUse">
<stop offset="0.00132565" stop-color="#FFCB4B"/>
<stop offset="1" stop-color="#FFD748"/>
</linearGradient>
<linearGradient id="paint23_linear" x1="29.0861" y1="17.428" x2="40.1538" y2="32.2871" gradientUnits="userSpaceOnUse">
<stop offset="0.00132565" stop-color="#FFCB4B"/>
<stop offset="1" stop-color="#FFD748"/>
</linearGradient>
<linearGradient id="paint24_linear" x1="21.4853" y1="20.3593" x2="35.5332" y2="36.6798" gradientUnits="userSpaceOnUse">
<stop offset="0.00132565" stop-color="#FFCB4B"/>
<stop offset="1" stop-color="#FFD748"/>
</linearGradient>
<linearGradient id="paint25_linear" x1="33.8322" y1="23.9179" x2="31.0406" y2="26.9151" gradientUnits="userSpaceOnUse">
<stop stop-color="#FFBC47" stop-opacity="0"/>
<stop offset="1" stop-color="#E68E43"/>
</linearGradient>
<linearGradient id="paint26_linear" x1="31.3307" y1="23.8075" x2="19.2441" y2="41.6917" gradientUnits="userSpaceOnUse">
<stop stop-color="#FFBC47" stop-opacity="0"/>
<stop offset="1" stop-color="#E68E43"/>
</linearGradient>
<linearGradient id="paint27_linear" x1="26.7608" y1="34.2232" x2="23.6655" y2="38.9399" gradientUnits="userSpaceOnUse">
<stop offset="0.3118" stop-color="#FFBC47" stop-opacity="0"/>
<stop offset="1" stop-color="#FF8900"/>
</linearGradient>
<linearGradient id="paint28_linear" x1="25.0084" y1="43.5717" x2="28.9145" y2="38.855" gradientUnits="userSpaceOnUse">
<stop stop-color="#FFBC47" stop-opacity="0"/>
<stop offset="1" stop-color="#E68E43"/>
</linearGradient>
<linearGradient id="paint29_linear" x1="25.2894" y1="34.8058" x2="29.564" y2="29.2784" gradientUnits="userSpaceOnUse">
<stop stop-color="#FFBC47" stop-opacity="0"/>
<stop offset="1" stop-color="#E68E43"/>
</linearGradient>
<linearGradient id="paint30_linear" x1="28.9213" y1="27.614" x2="32.8519" y2="23.1921" gradientUnits="userSpaceOnUse">
<stop stop-color="#FFBC47" stop-opacity="0"/>
<stop offset="1" stop-color="#E68E43"/>
</linearGradient>
<linearGradient id="paint31_linear" x1="25.0643" y1="42.2045" x2="29.6329" y2="40.7686" gradientUnits="userSpaceOnUse">
<stop stop-color="#FFBC47" stop-opacity="0"/>
<stop offset="1" stop-color="#E68E43"/>
</linearGradient>
<radialGradient id="paint32_radial" cx="0" cy="0" r="1" gradientUnits="userSpaceOnUse" gradientTransform="translate(44.2981 46.6419) rotate(-45) scale(49.2524 49.2486)">
<stop stop-color="#FFBC47" stop-opacity="0"/>
<stop offset="1" stop-color="#FF8900"/>
</radialGradient>
</defs>
</svg>
