<svg width="80" height="80" viewBox="0 0 80 80" fill="none" xmlns="http://www.w3.org/2000/svg">
<path d="M59.4306 46.1997C59.6417 50.2509 66.5 55.129 69.1395 56.9721C72.452 59.2858 58.4804 74.0125 56.5271 71.9188C55.1414 70.432 46.5015 64.1155 45.9384 63.6492" fill="url(#paint0_linear)"/>
<path d="M39.7093 21.9843C37.1446 21.043 34.0432 24.8655 38.7063 30.0163C39.2958 30.6145 39.9644 31.204 40.7387 31.7758C42.6303 33.1658 46.1276 36.4296 46.1276 36.4296C45.8725 36.9134 38.2004 30.0515 36.0756 27.883L31.3685 32.3828C32.3495 33.0866 34.2895 34.6393 34.0344 34.9912C33.7836 35.3431 33.3569 34.3534 32.5211 33.7552C31.6853 33.1614 31.2629 41.0482 31.1618 41.4617C31.087 41.7696 29.7672 41.8928 29.0898 44.2373C28.8654 45.0202 29.4417 48.8383 29.3317 48.9922C29.3317 48.9922 26.5867 45.79 25.0162 44.6507C23.4501 43.5115 23.8636 52.7575 25.6056 53.9539C28.4431 55.907 37.4041 65.672 45.1158 64.37C54.0373 62.8613 60.7283 52.1593 59.5714 45.3281C58.4188 38.5014 52.4052 33.4957 47.8037 29.9503C43.9149 26.9504 41.7769 23.3083 39.7093 21.9843Z" fill="url(#paint1_linear)"/>
<path d="M25.0162 44.6557C23.4501 43.5164 19.5964 40.0326 17.2033 38.4623C14.8101 36.8963 12.8657 37.1031 11.7176 39.1925C10.5694 41.2819 14.7926 44.3566 15.7648 45.1615C17.2561 46.3932 23.846 52.6086 25.6012 53.9546" fill="url(#paint2_linear)"/>
<path d="M31.1617 41.4666C30.8934 41.8669 29.7848 40.1865 27.1365 38.1367C25.1173 36.5708 19.7152 32.1589 16.7853 29.9419C13.1472 27.1884 11.6471 27.0872 10.0986 28.6531C8.55013 30.2191 9.99745 32.6867 12.3422 34.5606C14.3218 36.1441 17.5596 38.5062 21.6552 41.4006C24.1099 43.1337 29.7672 48.3901 29.3317 49.0016" fill="url(#paint3_linear)"/>
<path d="M36.0799 27.879C33.9552 25.7104 25.412 19.1784 23.3312 17.2254C21.2504 15.2768 19.1213 15.7342 17.8719 17.089C16.6225 18.4438 16.7677 20.3089 21.0393 23.9994C23.7316 26.3263 26.2743 28.5652 31.3685 32.3788L37.2721 31.6839L36.0799 27.879Z" fill="url(#paint4_linear)"/>
<path d="M32.5211 33.7597C31.6852 33.1658 24.0835 26.7305 22.3766 25.3625C18.8089 22.5033 14.0315 17.5724 11.1148 20.4843C9.2364 22.3582 10.7629 24.3552 11.5196 25.1338C12.2762 25.9124 21.8267 33.4957 22.7286 34.138C23.6304 34.7802 31.2629 41.0571 31.1617 41.4706" fill="url(#paint5_linear)"/>
<path d="M17.3308 19.5043C17.7136 20.6744 18.9101 22.1611 21.0437 24.0041C23.736 26.331 26.3051 28.5392 31.3729 32.3836C32.3319 33.1138 34.2939 34.6401 34.0387 34.992C34.3247 32.1461 26.0499 27.2856 22.6846 24.576C19.0993 21.6948 17.0449 18.6246 17.3308 19.5043Z" fill="url(#paint6_radial)"/>
<path opacity="0.5" d="M22.7286 34.1336C23.6304 34.7758 31.2629 41.0527 31.1617 41.4662C31.1617 41.4662 30.8186 39.1657 28.2055 37.3094C22.8517 33.5046 17.3484 29.1895 14.7353 26.5194C12.2762 24.0034 10.2746 23.172 10.5122 23.7043C10.7497 24.2365 11.2336 24.8347 11.5196 25.1339C12.2718 25.908 21.8267 33.4914 22.7286 34.1336Z" fill="url(#paint7_linear)"/>
<path opacity="0.5" d="M12.3422 34.5566C14.3218 36.1401 17.5596 38.5022 21.6552 41.3966C24.1099 43.1297 29.7672 48.3861 29.3317 48.9976C31.8612 46.0196 11.0225 33.998 9.46516 29.9688C9.32878 31.4115 10.5825 33.149 12.3422 34.5566Z" fill="url(#paint8_linear)"/>
<path d="M22.7198 35.564C25.2449 37.3454 29.6484 42.8306 31.1618 41.467C30.7218 41.7046 29.1953 39.7339 27.1365 38.1372C25.1173 36.5713 19.7548 32.1066 16.7854 29.9424C13.7192 27.7079 12.5446 27.2944 11.0665 27.9058C15.7911 28.6184 16.517 31.1872 22.7198 35.564Z" fill="url(#paint9_linear)"/>
<path opacity="0.5" d="M23.0497 27.3157C26.7054 30.1528 33.1194 35.783 34.0344 34.9913C33.6737 35.1716 33.2689 34.2875 32.5211 33.7553C31.6852 33.1615 24.0835 26.7263 22.3767 25.3583C20.1639 23.5856 16.9261 20.445 14.2031 19.728C17.0933 21.3115 20.0891 25.0196 23.0497 27.3157Z" fill="url(#paint10_linear)"/>
<path opacity="0.5" d="M29.3317 48.9973C29.3317 48.9973 26.4547 45.7027 25.0161 44.6558C23.45 43.5165 19.5964 40.0328 17.2033 38.4625C16.1519 37.7763 15.1885 37.4287 14.3394 37.4331C15.6152 38.071 18.0083 39.3906 22.2799 43.0195C29.71 49.5075 29.3053 49.1468 29.3317 48.9973Z" fill="url(#paint11_linear)"/>
<path opacity="0.5" d="M39.7093 21.9848C39.2738 21.8264 38.8075 21.866 38.3587 22.0464C40.1316 22.7413 41.9968 24.1753 42.8635 27.4348C43.9589 31.5608 52.348 34.4595 54.706 38.6779C57.2223 43.1821 56.1929 50.1541 53.0739 52.8329C49.9593 55.5117 46.9019 65.488 31.9448 57.3284C31.9404 57.3284 31.936 57.324 31.936 57.324C31.0034 56.7126 28.2231 54.6144 27.4445 54.047C23.3709 51.0866 18.0611 45.2539 15.3864 42.8478C14.8585 42.3772 13.3892 40.5121 11.9287 41.3083C12.8569 42.9622 15.0873 44.6117 15.7604 45.166C17.2517 46.3976 24.9854 53.5323 25.2669 53.7259C27.3785 55.1906 37.4525 65.6551 45.1114 64.3707C54.0373 62.8752 60.724 52.1599 59.567 45.3287C58.4144 38.5019 52.4008 33.4962 47.7993 29.9508C43.9149 26.9509 41.7769 23.3088 39.7093 21.9848Z" fill="url(#paint12_linear)"/>
<path d="M69.1396 56.972C66.7464 55.3005 60.9044 51.1393 59.6726 47.3564C59.699 46.6571 59.6814 45.9709 59.5714 45.3286C58.4188 38.5019 52.4052 33.4962 47.8037 29.9508C43.9105 26.9465 41.7769 23.3088 39.7093 21.9804C37.1446 21.0391 34.0432 24.8615 38.7063 30.0124C39.2958 30.6106 39.9644 31.2001 40.7387 31.7719C42.6303 33.1619 46.1276 36.4213 46.1276 36.4213C45.8725 36.9051 38.2004 30.0432 36.0756 27.8746C33.9508 25.7061 25.4077 19.174 23.3269 17.221C21.2461 15.2724 19.1169 15.7299 17.8675 17.0846C16.6182 18.4394 16.7633 20.3045 21.0349 23.995C23.7272 26.3219 26.2699 28.5608 31.3641 32.3745C32.3451 33.0783 34.2851 34.631 34.03 34.9829C33.7792 35.3392 33.3525 34.3451 32.5167 33.7469C31.6808 33.1531 24.0791 26.7178 22.3722 25.3498C18.8045 22.4906 14.0271 17.5597 11.1104 20.4716C9.232 22.3455 10.7585 24.3425 11.5152 25.121C12.2718 25.8996 21.8224 33.483 22.7242 34.1252C23.626 34.7674 31.2585 41.0443 31.1573 41.4578C30.889 41.8581 29.7804 40.1778 27.1321 38.128C25.1129 36.5621 19.7108 32.1502 16.7809 29.9332C13.1428 27.1796 11.6427 27.0785 10.0942 28.6444C8.54574 30.2103 9.99306 32.678 12.3378 34.5518C14.3218 36.1354 17.5552 38.4975 21.6508 41.3918C23.9515 43.0149 29.0633 47.7347 29.3405 48.8256C29.3405 48.83 29.3405 48.83 29.3405 48.8344C29.3581 48.9048 29.3537 48.9576 29.3273 48.9972C29.3273 48.9972 26.5822 45.7949 25.0117 44.6557C23.4456 43.5164 19.592 40.0326 17.1989 38.4623C14.8057 36.8964 12.8613 37.1031 11.7131 39.1925C10.5649 41.2818 14.7881 44.3565 15.7603 45.1615C17.2516 46.3931 23.8416 52.6085 25.5968 53.9545C28.4343 55.9075 37.3953 65.6726 45.107 64.3706C45.5645 64.2914 46.0133 64.1771 46.4576 64.0539C48.4636 65.5626 55.2998 70.6079 56.5184 71.9187C58.4804 74.0125 72.4521 59.2857 69.1396 56.972Z" fill="url(#paint13_linear)"/>
<path d="M63.9001 48.2539C63.7285 52.3315 70.1381 57.865 72.606 59.9588C75.7074 62.5892 60.3192 76.0228 58.5639 73.7399C57.319 72.1168 49.2598 64.9777 48.7363 64.4587" fill="url(#paint14_linear)"/>
<path opacity="0.24" d="M58.5639 73.7396C59.1226 74.4697 61.0715 73.5944 63.3678 71.9845C60.4732 71.659 54.7983 65.668 54.1516 64.124C53.6149 62.8352 51.0986 61.8543 48.8286 61.542L48.7407 64.4583C49.2598 64.9774 57.319 72.1164 58.5639 73.7396Z" fill="url(#paint15_linear)"/>
<path d="M46.4311 22.1345C43.95 20.9512 40.4835 24.4834 44.6715 30.0829C45.2038 30.7339 45.8197 31.3937 46.5411 32.0359C48.3008 33.6063 51.499 37.2044 51.499 37.2044C51.1998 37.6663 44.1612 30.0697 42.2344 27.6944L37.0874 31.7632C38.0024 32.5594 39.7972 34.2969 39.5113 34.6312C39.2253 34.9611 38.8954 33.9274 38.1124 33.25C37.3293 32.577 36.1635 40.4374 36.0228 40.8421C35.9172 41.1456 34.5843 41.1412 33.6868 43.4241C33.3877 44.1851 33.6032 48.0692 33.4801 48.2099C33.4801 48.2099 31.0297 44.7438 29.5692 43.4549C28.1043 42.1661 27.6512 51.4649 29.2789 52.8285C31.9404 55.0499 39.9952 65.6771 47.8389 65.1009C56.9187 64.4323 64.6304 54.3417 64.1157 47.3918C63.6054 40.4418 58.0537 34.8643 53.7821 30.8747C50.1748 27.5053 48.38 23.6608 46.4311 22.1345Z" fill="url(#paint16_linear)"/>
<path d="M29.5737 43.4548C28.1087 42.166 24.5806 38.3127 22.3327 36.5136C20.0847 34.7146 18.1139 34.7409 16.7678 36.7292C15.4216 38.7174 19.3588 42.1923 20.2607 43.0897C21.6376 44.4665 27.6556 51.3109 29.2833 52.824" fill="url(#paint17_linear)"/>
<path d="M36.0316 40.842C35.7237 41.2159 34.7691 39.43 32.3144 37.1251C30.4359 35.3656 25.4473 30.4391 22.7198 27.9362C19.3369 24.8352 17.8412 24.5932 16.1431 26.014C14.445 27.4348 15.6592 30.0476 17.8324 32.1458C19.6668 33.9185 22.6846 36.5929 26.5163 39.8743C28.8126 41.8405 33.9816 47.6424 33.4889 48.2143" fill="url(#paint18_linear)"/>
<path d="M42.2387 27.6988C40.3119 25.3235 32.3759 17.9776 30.4754 15.8267C28.575 13.6757 26.4018 13.9352 25.0205 15.1756C23.6392 16.4161 23.6084 18.2987 27.5368 22.3983C30.0135 24.9848 32.3495 27.4656 37.0917 31.7676L43.0702 31.6312L42.2387 27.6988Z" fill="url(#paint19_linear)"/>
<path d="M38.1212 33.2501C37.3381 32.5771 30.3303 25.4116 28.7554 23.8808C25.4516 20.6786 21.1317 15.2901 17.9335 17.9294C15.8747 19.6273 17.2164 21.7694 17.8983 22.6228C18.5802 23.4761 27.4356 31.9745 28.2759 32.7003C29.1161 33.426 36.1679 40.4376 36.0316 40.8423" fill="url(#paint20_linear)"/>
<path opacity="0.5" d="M24.2463 17.5377C24.519 18.7473 25.5792 20.3485 27.5368 22.3938C30.0136 24.9803 32.3803 27.4303 37.0918 31.7631C37.9848 32.5856 39.8016 34.2967 39.5157 34.631C40.07 31.8071 32.2439 26.1591 29.1249 23.124C25.8124 19.8998 24.0439 16.6316 24.2463 17.5377Z" fill="url(#paint21_linear)"/>
<path opacity="0.5" d="M28.2759 32.7C29.1161 33.4258 36.1679 40.4373 36.0316 40.842C36.0316 40.842 35.904 38.5063 33.4625 36.3993C28.4562 32.0797 23.3532 27.2412 20.9865 24.3204C18.7605 21.5668 16.8337 20.5463 17.0229 21.1005C17.2076 21.6548 17.6387 22.3014 17.8983 22.6269C18.5802 23.4758 27.4312 31.9742 28.2759 32.7Z" fill="url(#paint22_linear)"/>
<path opacity="0.5" d="M17.8323 32.1457C19.6668 33.9184 22.6846 36.5928 26.5162 39.8742C28.8126 41.8404 33.9816 47.6423 33.4889 48.2142C36.2999 45.4738 16.5654 31.4595 15.3864 27.2764C15.1092 28.7103 16.2002 30.571 17.8323 32.1457Z" fill="url(#paint23_linear)"/>
<path opacity="0.5" d="M32.9082 48.7643C33.1854 48.6323 33.4493 48.3596 33.4889 48.2144C33.4889 48.2144 30.9198 44.6427 29.5781 43.4595C28.1131 42.1706 24.585 38.3174 22.3371 36.5183C21.3473 35.731 20.4146 35.2911 19.5656 35.2163C20.7842 35.9773 20.2211 36.2544 22.931 38.3262C24.3783 39.4391 31.109 49.6264 32.9082 48.7643Z" fill="url(#paint24_linear)"/>
<path opacity="0.5" d="M28.1307 34.134C30.493 36.1574 34.3818 42.0649 36.0271 40.842C35.5652 41.04 34.2235 38.9198 32.3099 37.1251C30.4314 35.3657 25.4868 30.3863 22.7153 27.9363C19.8559 25.407 18.7165 24.8836 17.1812 25.3586C21.8487 26.5243 22.3326 29.1635 28.1307 34.134Z" fill="url(#paint25_linear)"/>
<path opacity="0.5" d="M29.2393 25.904C32.631 29.0887 38.5259 35.3392 39.5201 34.631C39.1418 34.7806 38.8206 33.8569 38.1212 33.2499C37.3381 32.5769 30.3303 25.4114 28.7554 23.8806C26.7054 21.8924 23.758 18.4482 21.1009 17.4717C23.8416 19.3279 26.4898 23.322 29.2393 25.904Z" fill="url(#paint26_linear)"/>
<path opacity="0.24" d="M46.4312 22.1342C46.0088 21.9319 45.5425 21.9275 45.0762 22.0682C46.7831 22.9348 48.5208 24.5447 49.0794 27.8921C49.7877 32.1281 57.9173 35.823 59.8793 40.27C61.9733 45.0162 60.2841 51.9046 56.9099 54.2931C53.5358 56.6816 49.5326 66.3851 35.3233 56.8004C35.3189 56.796 35.3189 56.796 35.3145 56.796C34.4391 56.0966 31.8524 53.7301 31.1265 53.0923C27.3257 49.7448 22.557 43.4019 20.1067 40.7363C19.6228 40.2129 18.3294 38.2071 16.7853 38.8669C17.5552 40.6131 19.636 42.4738 20.2607 43.094C21.6376 44.4708 28.7114 52.3445 28.9754 52.5688C30.955 54.2359 40.0568 65.6682 47.8477 65.1051C56.9275 64.4497 64.6392 54.3459 64.1245 47.3959C63.6142 40.446 58.0625 34.8684 53.7909 30.8788C50.1748 27.505 48.38 23.6606 46.4312 22.1342Z" fill="url(#paint27_linear)"/>
<path d="M33.6956 48.4214C33.678 48.439 32.675 47.4844 32.4551 47.2689C32.3407 47.1545 23.5424 37.4202 22.0555 36.3029C22.0555 36.3029 22.2007 36.4173 22.2534 36.3205C22.293 36.2414 22.1655 36.0962 22.1655 36.0962C23.538 37.1255 29.1293 41.7617 32.7322 46.6135C33.0885 47.0974 33.788 48.329 33.6956 48.4214Z" fill="#3D2A20"/>
<path d="M36.2383 41.0491C36.2383 41.0535 36.2383 41.0535 36.2383 41.0491C35.6225 41.3746 24.0087 28.8296 21.2109 26.6435C21.2109 26.6435 21.488 26.771 21.5892 26.6391C21.6772 26.5115 21.5144 26.2388 21.5144 26.2388C24.3431 28.4557 36.4671 40.6356 36.2383 41.0491Z" fill="#3D2A20"/>
<path d="M39.7269 34.8382C39.5465 34.9437 38.9746 34.3323 38.869 34.2135C36.8542 31.9526 34.5623 29.8588 31.9316 27.2415C29.7848 25.1081 27.7216 22.9704 26.3887 21.4968C26.3887 21.4968 26.547 21.6639 26.6262 21.6111C26.745 21.5012 26.5294 21.2856 26.5294 21.2856C27.8492 22.7504 30.2071 24.6947 32.3451 26.8193C34.9846 29.4453 37.1666 31.5567 39.1902 33.8308C39.2958 33.9496 39.8369 34.7282 39.7269 34.8382Z" fill="#3D2A20"/>
<path d="M58.9247 73.9512C59.0127 73.8017 53.1399 67.8546 50.5532 65.5145L49.5282 64.5864C49.427 64.494 49.2862 64.4544 49.1498 64.4764C48.7055 64.5556 48.2612 64.6303 47.8125 64.6611C41.7549 65.1098 35.5345 58.6085 31.8172 54.7288C30.8714 53.7391 30.1192 52.9562 29.5869 52.5075C28.6498 51.6409 26.2215 48.9577 24.0791 46.5912C22.513 44.8581 21.1581 43.3626 20.573 42.7819L20.2695 42.4872C15.7692 38.6383 16.8557 36.6061 16.7678 36.7337C15.4216 38.7175 19.3589 42.1969 20.2607 43.0942C21.6376 44.471 27.6556 51.3154 29.2833 52.8286C31.9448 55.0499 39.9952 65.6772 47.8433 65.101C48.3096 65.0658 48.7715 64.991 49.229 64.9119C51.0943 66.6098 57.4686 72.3105 58.564 73.7401C58.652 73.8501 58.7796 73.9116 58.9247 73.9512Z" fill="#3D2A20"/>
<path d="M14.335 6.34277C14.2998 6.22401 14.2074 6.12724 14.0931 6.08325C13.9743 6.03927 13.8423 6.05245 13.7411 6.11843L12.2102 7.07295C12.109 7.13454 12.0431 7.2357 12.0255 7.35446C12.0079 7.46883 12.0431 7.58759 12.1178 7.67996C15.2544 11.5948 16.9437 13.2883 16.9393 13.2619C16.3146 11.1197 14.3438 6.38676 14.335 6.34277Z" fill="#975500"/>
<path d="M8.87567 13.1742C8.79649 13.0951 8.69091 13.0511 8.57653 13.0555C8.46655 13.0599 8.36097 13.1083 8.28619 13.1918L7.09842 14.5466C7.00164 14.6566 6.97524 14.8105 7.02363 14.9469C7.07203 15.0832 7.1952 15.158 7.33157 15.2108C11.2996 16.7327 12.4566 17.4981 12.483 17.4761C12.6193 17.3441 11.7439 16.0905 8.87567 13.1742Z" fill="#975500"/>
<path d="M21.0085 6.48842C20.9953 6.37846 21.0349 6.26849 21.1097 6.18051C21.1845 6.09694 21.29 6.04857 21.4 6.04417L23.1993 6.00018C23.3444 5.99579 23.4808 6.07056 23.5556 6.19372C23.6304 6.31689 23.6084 6.46203 23.56 6.59839C22.1919 10.6188 22.1391 12.0176 22.1039 12.022C21.9235 12.0528 21.4132 10.5572 21.0085 6.48842Z" fill="#975500"/>
<path d="M52.4932 13.1608C52.5767 13.064 52.6075 12.9408 52.5811 12.8177C52.5547 12.6945 52.4756 12.5889 52.3612 12.5361L50.7423 11.7444C50.6367 11.6916 50.5135 11.6916 50.408 11.7356C50.298 11.7796 50.2232 11.8763 50.1836 11.9863C48.5207 16.7149 47.9796 19.0506 47.9972 19.0286C49.4929 17.3659 52.4668 13.1915 52.4932 13.1608Z" fill="#975500"/>
<path d="M43.8929 12.2635C43.9193 12.1535 43.8973 12.0391 43.8357 11.9468C43.7741 11.8544 43.6773 11.7928 43.5673 11.7708L41.7901 11.4805C41.6449 11.4585 41.4997 11.5113 41.4117 11.6257C41.3194 11.74 41.3238 11.8852 41.3502 12.0259C42.1596 16.196 42.12 17.586 42.1552 17.5948C42.3312 17.6476 42.9382 16.2444 43.8929 12.2635Z" fill="#975500"/>
<path d="M55.9904 19.0205C56.0784 18.9501 56.1928 18.9237 56.3028 18.9413C56.4128 18.9589 56.5095 19.0205 56.5711 19.1173L57.5609 20.6216C57.6401 20.7448 57.6489 20.8987 57.5829 21.0263C57.5169 21.1538 57.3806 21.211 57.2398 21.2462C53.1046 22.2139 51.8905 22.9089 51.8641 22.8825C51.7453 22.7417 52.7483 21.5189 55.9904 19.0205Z" fill="#975500"/>
<defs>
<linearGradient id="paint0_linear" x1="53.2286" y1="55.3943" x2="58.406" y2="60.0433" gradientUnits="userSpaceOnUse">
<stop offset="0.00132565" stop-color="#5A4539"/>
<stop offset="1" stop-color="#695042"/>
</linearGradient>
<linearGradient id="paint1_linear" x1="329.354" y1="-12.0312" x2="354.956" y2="-16.9436" gradientUnits="userSpaceOnUse">
<stop offset="0.00132565" stop-color="#5A4539"/>
<stop offset="1" stop-color="#695042"/>
</linearGradient>
<linearGradient id="paint2_linear" x1="323.23" y1="219.939" x2="345.821" y2="232.946" gradientUnits="userSpaceOnUse">
<stop offset="0.00132565" stop-color="#5A4539"/>
<stop offset="1" stop-color="#695042"/>
</linearGradient>
<linearGradient id="paint3_linear" x1="326.602" y1="214.082" x2="349.193" y2="227.089" gradientUnits="userSpaceOnUse">
<stop offset="0.00132565" stop-color="#5A4539"/>
<stop offset="1" stop-color="#695042"/>
</linearGradient>
<linearGradient id="paint4_linear" x1="334.002" y1="201.228" x2="356.593" y2="214.235" gradientUnits="userSpaceOnUse">
<stop offset="0.00132565" stop-color="#5A4539"/>
<stop offset="1" stop-color="#695042"/>
</linearGradient>
<linearGradient id="paint5_linear" x1="330.361" y1="207.554" x2="352.952" y2="220.561" gradientUnits="userSpaceOnUse">
<stop offset="0.00132565" stop-color="#5A4539"/>
<stop offset="1" stop-color="#695042"/>
</linearGradient>
<radialGradient id="paint6_radial" cx="0" cy="0" r="1" gradientUnits="userSpaceOnUse" gradientTransform="translate(25.6869 27.1627) rotate(-9.58944) scale(8.11065 8.10985)">
<stop stop-color="#B37E53" stop-opacity="0"/>
<stop offset="1" stop-color="#B37E53"/>
</radialGradient>
<linearGradient id="paint7_linear" x1="5.53862" y1="15.9979" x2="32.8442" y2="44.793" gradientUnits="userSpaceOnUse">
<stop offset="0.3072" stop-color="#473226" stop-opacity="0"/>
<stop offset="1" stop-color="#473226"/>
</linearGradient>
<linearGradient id="paint8_linear" x1="1.11721" y1="20.1913" x2="28.4229" y2="48.9864" gradientUnits="userSpaceOnUse">
<stop offset="0.3072" stop-color="#473226" stop-opacity="0"/>
<stop offset="1" stop-color="#473226"/>
</linearGradient>
<linearGradient id="paint9_linear" x1="11.0651" y1="34.6628" x2="31.1607" y2="34.6628" gradientUnits="userSpaceOnUse">
<stop offset="0.3072" stop-color="#8D562E" stop-opacity="0"/>
<stop offset="1" stop-color="#804B24"/>
</linearGradient>
<linearGradient id="paint10_linear" x1="9.64621" y1="12.1031" x2="36.9514" y2="40.8981" gradientUnits="userSpaceOnUse">
<stop offset="0.3072" stop-color="#473226" stop-opacity="0"/>
<stop offset="1" stop-color="#473226"/>
</linearGradient>
<linearGradient id="paint11_linear" x1="0.545546" y1="20.7333" x2="27.851" y2="49.5284" gradientUnits="userSpaceOnUse">
<stop offset="0.3072" stop-color="#473226" stop-opacity="0"/>
<stop offset="1" stop-color="#473226"/>
</linearGradient>
<linearGradient id="paint12_linear" x1="8.75972" y1="12.9438" x2="36.0654" y2="41.7389" gradientUnits="userSpaceOnUse">
<stop offset="0.3072" stop-color="#473226" stop-opacity="0"/>
<stop offset="1" stop-color="#473226"/>
</linearGradient>
<linearGradient id="paint13_linear" x1="0.659436" y1="20.0498" x2="77.3383" y2="65.2793" gradientUnits="userSpaceOnUse">
<stop stop-color="#473226" stop-opacity="0"/>
<stop offset="1" stop-color="#3D2A20"/>
</linearGradient>
<linearGradient id="paint14_linear" x1="55.3708" y1="50.9856" x2="67.4711" y2="76.3362" gradientUnits="userSpaceOnUse">
<stop offset="0.00132565" stop-color="#5A4539"/>
<stop offset="1" stop-color="#695042"/>
</linearGradient>
<linearGradient id="paint15_linear" x1="70.1601" y1="62.29" x2="42.2001" y2="71.8892" gradientUnits="userSpaceOnUse">
<stop offset="0.00132565" stop-color="#473226"/>
<stop offset="1" stop-color="#3D2A20"/>
</linearGradient>
<linearGradient id="paint16_linear" x1="56.3802" y1="69.0731" x2="45.3325" y2="46.1698" gradientUnits="userSpaceOnUse">
<stop offset="0.00132565" stop-color="#5A4539"/>
<stop offset="1" stop-color="#695042"/>
</linearGradient>
<linearGradient id="paint17_linear" x1="-14.738" y1="-10.7652" x2="9.3468" y2="22.2967" gradientUnits="userSpaceOnUse">
<stop offset="0.00132565" stop-color="#5A4539"/>
<stop offset="1" stop-color="#695042"/>
</linearGradient>
<linearGradient id="paint18_linear" x1="-10.0823" y1="-14.1566" x2="14.0025" y2="18.9053" gradientUnits="userSpaceOnUse">
<stop offset="0.00132565" stop-color="#5A4539"/>
<stop offset="1" stop-color="#695042"/>
</linearGradient>
<linearGradient id="paint19_linear" x1="0.542422" y1="-21.8964" x2="24.6272" y2="11.1655" gradientUnits="userSpaceOnUse">
<stop offset="0.00132565" stop-color="#5A4539"/>
<stop offset="1" stop-color="#695042"/>
</linearGradient>
<linearGradient id="paint20_linear" x1="-5.23532" y1="-17.6874" x2="18.8495" y2="15.3745" gradientUnits="userSpaceOnUse">
<stop offset="0.00132565" stop-color="#5A4539"/>
<stop offset="1" stop-color="#695042"/>
</linearGradient>
<linearGradient id="paint21_linear" x1="13.7602" y1="2.43888" x2="43.5688" y2="40.9358" gradientUnits="userSpaceOnUse">
<stop offset="0.3072" stop-color="#473226" stop-opacity="0"/>
<stop offset="1" stop-color="#473226"/>
</linearGradient>
<linearGradient id="paint22_linear" x1="8.1726" y1="6.76515" x2="37.9815" y2="45.2622" gradientUnits="userSpaceOnUse">
<stop offset="0.3072" stop-color="#473226" stop-opacity="0"/>
<stop offset="1" stop-color="#473226"/>
</linearGradient>
<linearGradient id="paint23_linear" x1="3.34983" y1="10.4996" x2="33.1585" y2="48.9966" gradientUnits="userSpaceOnUse">
<stop offset="0.3072" stop-color="#473226" stop-opacity="0"/>
<stop offset="1" stop-color="#473226"/>
</linearGradient>
<linearGradient id="paint24_linear" x1="2.73735" y1="10.9742" x2="32.546" y2="49.4712" gradientUnits="userSpaceOnUse">
<stop offset="0.3072" stop-color="#473226" stop-opacity="0"/>
<stop offset="1" stop-color="#473226"/>
</linearGradient>
<linearGradient id="paint25_linear" x1="6.94529" y1="7.71569" x2="36.754" y2="46.2126" gradientUnits="userSpaceOnUse">
<stop offset="0.3072" stop-color="#473226" stop-opacity="0"/>
<stop offset="1" stop-color="#473226"/>
</linearGradient>
<linearGradient id="paint26_linear" x1="12.6725" y1="3.28097" x2="42.4813" y2="41.778" gradientUnits="userSpaceOnUse">
<stop offset="0.3072" stop-color="#473226" stop-opacity="0"/>
<stop offset="1" stop-color="#473226"/>
</linearGradient>
<linearGradient id="paint27_linear" x1="24.5623" y1="23.0062" x2="65.5597" y2="67.9201" gradientUnits="userSpaceOnUse">
<stop offset="0.00132565" stop-color="#473226"/>
<stop offset="1" stop-color="#3D2A20"/>
</linearGradient>
</defs>
</svg>
