<svg width="24" height="24" viewBox="0 0 24 24" fill="none" xmlns="http://www.w3.org/2000/svg">
<g clip-path="url(#clip0)">
<path d="M19.4685 13.1884C18.9371 14.4399 17.7085 15.297 16.2456 15.297C14.6685 15.297 13.3714 14.3084 12.9142 12.9027C12.4571 14.3084 11.1599 15.297 9.58279 15.297C8.35422 15.297 7.29136 14.697 6.6685 13.7599C6.0685 14.7199 4.99422 15.297 3.79422 15.297C1.86279 15.297 0.388502 13.8913 0.297073 11.9941C0.285645 12.057 0.285645 12.1256 0.285645 12.1884C0.285645 14.1884 1.79422 15.6913 3.7885 15.6913C4.99422 15.6913 6.06279 15.1199 6.66279 14.1541C7.28564 15.0856 8.3485 15.6913 9.57707 15.6913C11.1542 15.6913 12.4514 14.7027 12.9085 13.297C13.3656 14.7027 14.6628 15.6913 16.2399 15.6913C17.7085 15.6913 18.9371 14.8341 19.4628 13.5827V13.1884H19.4685Z" fill="url(#paint0_radial)"/>
<path d="M23.7142 15.1768H19.4685V15.5768H23.7142V15.1768Z" fill="url(#paint1_radial)"/>
<path d="M23.7142 15.5767H19.4685V15.9767H23.7142V15.5767Z" fill="url(#paint2_linear)"/>
<path d="M19.4685 13.5883C18.9371 14.8398 17.7085 15.6969 16.2456 15.6969C14.6685 15.6969 13.3714 14.7083 12.9142 13.3026C12.4571 14.7083 11.1599 15.6969 9.58279 15.6969C8.35422 15.6969 7.29136 15.0969 6.6685 14.1598C6.0685 15.1198 4.99422 15.6969 3.79422 15.6969C1.86279 15.6969 0.388502 14.2912 0.297073 12.394C0.285645 12.4569 0.285645 12.5255 0.285645 12.5883C0.285645 14.5883 1.79422 16.0912 3.7885 16.0912C4.99422 16.0912 6.06279 15.5198 6.66279 14.554C7.28564 15.4855 8.3485 16.0912 9.57707 16.0912C11.1542 16.0912 12.4514 15.1026 12.9085 13.6969C13.3656 15.1026 14.6628 16.0912 16.2399 16.0912C17.7085 16.0912 18.9371 15.234 19.4628 13.9826V13.5883H19.4685Z" fill="url(#paint3_linear)"/>
<path d="M21.5371 12.76V8.00574H19.4685V9.99431C18.9428 8.74289 17.7142 7.88574 16.2456 7.88574C14.6685 7.88574 13.3714 8.87431 12.9142 10.28C12.4571 8.87431 11.1599 7.88574 9.58279 7.88574C8.35422 7.88574 7.29136 8.49146 6.6685 9.42289C6.05707 8.45717 4.98279 7.88574 3.7885 7.88574C1.79422 7.88574 0.285645 9.39431 0.285645 11.3886C0.285645 13.3886 1.79422 14.8915 3.7885 14.8915C4.99422 14.8915 6.06279 14.32 6.66279 13.3543C7.28564 14.2857 8.3485 14.8915 9.57707 14.8915C11.1542 14.8915 12.4514 13.9029 12.9085 12.4972C13.3656 13.9029 14.6628 14.8915 16.2399 14.8915C17.7085 14.8915 18.9371 14.0343 19.4628 12.7829V14.7715H23.7142V12.76H21.5371ZM5.07422 11.9886L4.90279 12.2857C4.70279 12.6457 4.28564 12.8572 3.7885 12.8572C2.90279 12.8572 2.35422 12.2915 2.35422 11.3886C2.35422 10.48 2.90279 9.92003 3.7885 9.92003C4.28564 9.92003 4.69136 10.1315 4.90279 10.4972L5.07422 10.7943L6.32564 10.0686C6.16564 10.4743 6.07422 10.92 6.07422 11.3943C6.07422 11.8629 6.16564 12.3143 6.32564 12.72L5.07422 11.9886ZM9.58279 12.8629C8.73707 12.8629 8.1485 12.2572 8.1485 11.3943C8.1485 10.5257 8.73707 9.92574 9.58279 9.92574C10.4285 9.92574 11.0171 10.5315 11.0171 11.3943C11.0171 12.2572 10.4285 12.8629 9.58279 12.8629ZM16.2456 12.8629C15.3999 12.8629 14.8114 12.2572 14.8114 11.3943C14.8114 10.5257 15.3999 9.92574 16.2456 9.92574C17.0914 9.92574 17.6799 10.5315 17.6799 11.3943C17.6799 12.2572 17.0914 12.8629 16.2456 12.8629Z" fill="url(#paint4_linear)"/>
<path d="M0.622803 11.3884C0.622803 9.5998 1.95423 8.22266 3.78852 8.22266C4.89138 8.22266 5.86852 8.77123 6.39995 9.63409L5.19995 10.3312C4.93138 9.86266 4.40566 9.58266 3.78852 9.58266C2.70852 9.58266 2.01137 10.3027 2.01137 11.3941C2.01137 12.4798 2.70852 13.2055 3.78852 13.2055C4.40566 13.2055 4.93709 12.9255 5.19995 12.4569L6.39995 13.1541C5.87995 14.0169 4.9028 14.5655 3.78852 14.5655C1.95423 14.5598 0.622803 13.1827 0.622803 11.3884Z" fill="url(#paint5_linear)"/>
<path d="M6.41699 11.3884C6.41699 9.59409 7.83413 8.22266 9.5827 8.22266C11.3313 8.22266 12.7484 9.5998 12.7484 11.3884C12.7484 13.1827 11.3313 14.5541 9.5827 14.5541C7.83413 14.5598 6.41699 13.1827 6.41699 11.3884ZM11.3598 11.3884C11.3598 10.3027 10.577 9.57694 9.5827 9.57694C8.58842 9.57694 7.80556 10.2969 7.80556 11.3884C7.80556 12.4741 8.58842 13.1998 9.5827 13.1998C10.577 13.1998 11.3598 12.4798 11.3598 11.3884Z" fill="url(#paint6_linear)"/>
<path d="M23.377 13.0967V14.4339H19.8113V8.34814H21.1999V13.0967H23.377V13.0967Z" fill="url(#paint7_linear)"/>
<path d="M13.0798 11.3884C13.0798 9.59409 14.497 8.22266 16.2455 8.22266C17.9941 8.22266 19.4113 9.5998 19.4113 11.3884C19.4113 13.1827 17.9941 14.5541 16.2455 14.5541C14.497 14.5598 13.0798 13.1827 13.0798 11.3884ZM18.0227 11.3884C18.0227 10.3027 17.2398 9.57694 16.2455 9.57694C15.2513 9.57694 14.4684 10.2969 14.4684 11.3884C14.4684 12.4741 15.2513 13.1998 16.2455 13.1998C17.2398 13.1998 18.0227 12.4798 18.0227 11.3884Z" fill="url(#paint8_linear)"/>
<path d="M9.5829 13.9368C8.15432 13.9368 7.04004 12.8168 7.04004 11.3939C7.04004 9.96536 8.16004 8.85107 9.5829 8.85107C11.0058 8.85107 12.1258 9.97108 12.1258 11.3939C12.1258 12.8168 11.0115 13.9368 9.5829 13.9368ZM9.5829 8.9425C8.21147 8.9425 7.13718 10.0168 7.13718 11.3882C7.13718 12.7596 8.21147 13.8339 9.5829 13.8339C10.9543 13.8339 12.0286 12.7596 12.0286 11.3882C12.0286 10.0168 10.9543 8.9425 9.5829 8.9425Z" fill="url(#paint9_linear)"/>
<path d="M16.2457 13.9368C14.8172 13.9368 13.7029 12.8168 13.7029 11.3939C13.7029 9.96536 14.8229 8.85107 16.2457 8.85107C17.6686 8.85107 18.7886 9.97108 18.7886 11.3939C18.7886 12.8168 17.6743 13.9368 16.2457 13.9368ZM16.2457 8.9425C14.8743 8.9425 13.8 10.0168 13.8 11.3882C13.8 12.7596 14.8743 13.8339 16.2457 13.8339C17.6172 13.8339 18.6915 12.7596 18.6915 11.3882C18.6915 10.0168 17.6172 8.9425 16.2457 8.9425Z" fill="url(#paint10_linear)"/>
<path d="M22.9087 13.7595H20.4858V8.90802C20.4858 8.87945 20.5087 8.8623 20.5316 8.8623C20.5601 8.8623 20.5773 8.88516 20.5773 8.90802V13.6623H22.903C22.9316 13.6623 22.9487 13.6852 22.9487 13.708C22.9601 13.7366 22.9373 13.7595 22.9087 13.7595Z" fill="url(#paint11_linear)"/>
<path d="M3.78861 13.9312C2.32004 13.9312 1.25146 12.8626 1.25146 11.3941C1.25146 9.92551 2.32004 8.85693 3.78861 8.85693C4.38289 8.85693 4.94861 9.05693 5.38289 9.41693C5.40575 9.43408 5.40575 9.46836 5.38861 9.48551C5.37146 9.50265 5.34289 9.50836 5.32004 9.49122C4.90289 9.14265 4.36004 8.95408 3.78861 8.95408C2.37146 8.95408 1.34861 9.98265 1.34861 11.3941C1.34861 12.8112 2.37718 13.8341 3.78861 13.8341C4.36575 13.8341 4.90861 13.6455 5.32004 13.3026C5.34289 13.2855 5.37146 13.2855 5.38861 13.3084C5.40575 13.3312 5.40575 13.3598 5.38289 13.3769C4.95432 13.7312 4.38861 13.9312 3.78861 13.9312Z" fill="url(#paint12_linear)"/>
<path d="M9.58284 8.89697C8.18284 8.89697 7.08569 9.99412 7.08569 11.3941C7.08569 12.7941 8.18284 13.8913 9.58284 13.8913C10.9828 13.8913 12.08 12.7941 12.08 11.3941C12.08 9.99412 10.9828 8.89697 9.58284 8.89697Z" stroke="white" stroke-width="0.75" stroke-miterlimit="10" stroke-linecap="round"/>
<path d="M16.2457 8.89697C14.8457 8.89697 13.7485 9.99412 13.7485 11.3941C13.7485 12.7941 14.8457 13.8913 16.2457 13.8913C17.6457 13.8913 18.7428 12.7941 18.7428 11.3941C18.7428 9.99412 17.6457 8.89697 16.2457 8.89697Z" stroke="white" stroke-width="0.75" stroke-miterlimit="10"/>
<path d="M20.5315 8.92529V13.7082H22.8915" stroke="white" stroke-width="0.75" stroke-miterlimit="10" stroke-linecap="round"/>
<path d="M5.34283 9.43998C4.92569 9.09712 4.37712 8.90283 3.78855 8.90283C2.34283 8.90283 1.29712 9.94855 1.29712 11.3943C1.29712 12.8343 2.34283 13.8857 3.78855 13.8857C4.38855 13.8857 4.94283 13.6857 5.35998 13.3371" stroke="white" stroke-width="0.75" stroke-miterlimit="10" stroke-linecap="round"/>
<path d="M23.7142 14.7769H19.4685V15.1769H23.7142V14.7769Z" fill="url(#paint13_linear)"/>
<path d="M19.4685 12.7885C18.9371 14.04 17.7085 14.8971 16.2456 14.8971C14.6685 14.8971 13.3714 13.9085 12.9142 12.5028C12.4571 13.9085 11.1599 14.8971 9.58279 14.8971C8.35422 14.8971 7.29136 14.2971 6.6685 13.36C6.0685 14.32 4.99422 14.8971 3.79422 14.8971C1.86279 14.8971 0.388502 13.4914 0.297073 11.5942C0.285645 11.6571 0.285645 11.7257 0.285645 11.7885C0.285645 13.7885 1.79422 15.2914 3.7885 15.2914C4.99422 15.2914 6.06279 14.72 6.66279 13.7542C7.28564 14.6857 8.3485 15.2914 9.57707 15.2914C11.1542 15.2914 12.4514 14.3028 12.9085 12.8971C13.3656 14.3028 14.6628 15.2914 16.2399 15.2914C17.7085 15.2914 18.9371 14.4342 19.4628 13.1828V12.7885H19.4685Z" fill="url(#paint14_linear)"/>
</g>
<defs>
<radialGradient id="paint0_radial" cx="0" cy="0" r="1" gradientUnits="userSpaceOnUse" gradientTransform="translate(9.87802 13.8435) scale(6.90817)">
<stop stop-color="#FFEA5F"/>
<stop offset="1" stop-color="#FFBC47"/>
</radialGradient>
<radialGradient id="paint1_radial" cx="0" cy="0" r="1" gradientUnits="userSpaceOnUse" gradientTransform="translate(21.5923 15.3741) scale(1.50707)">
<stop stop-color="#FFEA5F"/>
<stop offset="1" stop-color="#FFBC47"/>
</radialGradient>
<linearGradient id="paint2_linear" x1="21.5923" y1="14.6087" x2="21.5923" y2="17.4801" gradientUnits="userSpaceOnUse">
<stop offset="0.2544" stop-color="#FF40BF"/>
<stop offset="1" stop-color="#FF40BF"/>
</linearGradient>
<linearGradient id="paint3_linear" x1="9.87802" y1="14.609" x2="9.87802" y2="17.4804" gradientUnits="userSpaceOnUse">
<stop offset="0.2544" stop-color="#FF40BF"/>
<stop offset="1" stop-color="#FF40BF"/>
</linearGradient>
<linearGradient id="paint4_linear" x1="12.0136" y1="11.1779" x2="11.9374" y2="21.7684" gradientUnits="userSpaceOnUse">
<stop stop-color="#9F00E8"/>
<stop offset="1"/>
</linearGradient>
<linearGradient id="paint5_linear" x1="3.51247" y1="8.22386" x2="3.51247" y2="14.5577" gradientUnits="userSpaceOnUse">
<stop stop-color="#FF8000"/>
<stop offset="0.4215" stop-color="#FFBF00"/>
<stop offset="0.505" stop-color="#FBE07A"/>
<stop offset="0.6338" stop-color="#008EE6"/>
<stop offset="1" stop-color="#80DAFE"/>
</linearGradient>
<linearGradient id="paint6_linear" x1="9.58252" y1="8.22386" x2="9.58252" y2="14.5577" gradientUnits="userSpaceOnUse">
<stop stop-color="#FF8000"/>
<stop offset="0.4215" stop-color="#FFBF00"/>
<stop offset="0.505" stop-color="#FBE07A"/>
<stop offset="0.6338" stop-color="#008EE6"/>
<stop offset="1" stop-color="#80DAFE"/>
</linearGradient>
<linearGradient id="paint7_linear" x1="21.5922" y1="8.34542" x2="21.5922" y2="14.4357" gradientUnits="userSpaceOnUse">
<stop stop-color="#FF8000"/>
<stop offset="0.4215" stop-color="#FFBF00"/>
<stop offset="0.505" stop-color="#FBE07A"/>
<stop offset="0.6338" stop-color="#008EE6"/>
<stop offset="1" stop-color="#80DAFE"/>
</linearGradient>
<linearGradient id="paint8_linear" x1="16.2453" y1="8.22386" x2="16.2453" y2="14.5577" gradientUnits="userSpaceOnUse">
<stop stop-color="#FF8000"/>
<stop offset="0.4215" stop-color="#FFBF00"/>
<stop offset="0.505" stop-color="#FBE07A"/>
<stop offset="0.6338" stop-color="#008EE6"/>
<stop offset="1" stop-color="#80DAFE"/>
</linearGradient>
<linearGradient id="paint9_linear" x1="9.58271" y1="12.1156" x2="9.58271" y2="1.61407" gradientUnits="userSpaceOnUse">
<stop stop-color="white"/>
<stop offset="1" stop-color="#FF40BF"/>
</linearGradient>
<linearGradient id="paint10_linear" x1="16.2455" y1="12.1156" x2="16.2455" y2="1.61407" gradientUnits="userSpaceOnUse">
<stop stop-color="white"/>
<stop offset="1" stop-color="#FF40BF"/>
</linearGradient>
<linearGradient id="paint11_linear" x1="21.7218" y1="12.0932" x2="21.7218" y2="1.44978" gradientUnits="userSpaceOnUse">
<stop stop-color="white"/>
<stop offset="1" stop-color="#FF40BF"/>
</linearGradient>
<linearGradient id="paint12_linear" x1="3.3278" y1="12.1157" x2="3.3278" y2="1.61422" gradientUnits="userSpaceOnUse">
<stop stop-color="white"/>
<stop offset="1" stop-color="#FF40BF"/>
</linearGradient>
<linearGradient id="paint13_linear" x1="21.5923" y1="13.3804" x2="21.5923" y2="15.7657" gradientUnits="userSpaceOnUse">
<stop offset="0.2597" stop-color="#008EE6"/>
<stop offset="1" stop-color="#80DAFE"/>
</linearGradient>
<linearGradient id="paint14_linear" x1="9.87802" y1="13.3806" x2="9.87802" y2="15.7659" gradientUnits="userSpaceOnUse">
<stop offset="0.2597" stop-color="#008EE6"/>
<stop offset="1" stop-color="#80DAFE"/>
</linearGradient>
<clipPath id="clip0">
<rect width="23.4286" height="8.21143" fill="white" transform="translate(0.285645 7.88574)"/>
</clipPath>
</defs>
</svg>
