<svg width="80" height="80" viewBox="0 0 80 80" fill="none" xmlns="http://www.w3.org/2000/svg">
<path d="M38.7345 31.6547C38.9103 31.2969 39.0988 30.9103 39.2968 30.495C42.546 23.709 48.5172 9.78565 49.6258 8.09236C50.8015 6.29683 52.5012 5.32558 55.319 6.53964C58.1369 7.7537 58.3829 10.9614 56.5267 14.3448C54.6705 17.7282 51.153 30.3128 49.514 36.3672C46.6322 46.9902 43.1179 53.8017 43.1179 53.8017L34.479 42.2873L38.7345 31.6547Z" fill="url(#paint0_linear)"/>
<path opacity="0.5" d="M52.2905 6.93907C52.7442 6.1691 54.6676 6.93907 55.4759 7.86878C56.2843 8.7953 56.5686 10.1723 56.1149 10.9391C55.6612 11.709 54.5174 11.1052 53.5078 10.5876C51.7633 9.69306 51.8368 7.70903 52.2905 6.93907Z" fill="url(#paint1_radial)"/>
<path d="M49.6293 8.09254C49.0542 8.96794 47.1788 13.1245 45.0478 17.8721C43.0669 22.2906 42.9583 27.4664 47.7762 13.8242C49.7826 8.14366 52.6101 6.01267 53.6517 6.06059C51.8018 5.805 50.5494 6.68679 49.6293 8.09254Z" fill="url(#paint2_linear)"/>
<path d="M49.5142 36.3636C51.1563 30.3093 54.674 17.7246 56.527 14.3412C57.5334 12.5041 57.8976 10.7341 57.5909 9.29004C55.7027 14.3891 50.9583 21.1719 49.1851 28.1112C45.8528 41.1591 47.6387 43.2901 49.5142 36.3636Z" fill="url(#paint3_linear)"/>
<path d="M38.7345 31.6547C38.9103 31.2969 39.0988 30.9103 39.2968 30.495C42.546 23.709 48.5172 9.78565 49.6258 8.09236C50.8015 6.29683 52.5012 5.32558 55.319 6.53964C58.1369 7.7537 58.3829 10.9614 56.5267 14.3448C54.6705 17.7282 51.153 30.3128 49.514 36.3672C46.6322 46.9902 43.1179 53.8017 43.1179 53.8017L34.479 42.2873L38.7345 31.6547Z" fill="url(#paint4_linear)"/>
<path d="M49.1982 8.875C48.4506 10.3287 47.0928 13.3191 45.5369 16.7792L46.4123 18.8335L50.7477 30.9709C50.7477 30.9709 50.8723 30.9006 51.0576 30.792C51.8659 27.9325 52.7893 24.7856 53.687 21.9581C51.3867 18.7824 49.4346 13.1498 49.1982 8.875Z" fill="url(#paint5_linear)"/>
<path d="M42.626 23.2617C41.9583 24.7441 41.3001 26.1914 40.6899 27.5205C42.5493 31.1148 41.5717 38.4247 39.9615 40.9103C38.5749 43.0509 43.9902 44.102 46.9678 44.511C47.8049 42.1563 48.6835 39.4247 49.5142 36.364C49.5717 36.1531 49.6356 35.9135 49.6995 35.6867L50.0285 32.3192L42.626 23.2617Z" fill="url(#paint6_linear)"/>
<path d="M46.3705 41.4765C46.3034 41.0835 45.3162 36.1283 45.2331 35.6746C43.8721 28.272 39.5845 13.256 39.4855 11.2336C39.3801 9.08987 40.1852 7.30712 43.1756 6.6298C46.1692 5.95248 48.2523 8.40616 48.7411 12.2336C49.2299 16.0579 54.2171 27.8215 56.5366 33.649C60.7251 44.1826 61.0894 52.0356 61.0894 52.0356L47.3321 47.8024L46.3705 41.4765Z" fill="url(#paint7_linear)"/>
<path opacity="0.5" d="M40.9614 8.73515C40.8752 7.84696 42.8848 7.33897 44.0829 7.61374C45.281 7.8885 46.3193 8.83419 46.4056 9.72237C46.4919 10.6106 45.2107 10.7991 44.0893 10.9716C42.1563 11.2751 41.0477 9.62333 40.9614 8.73515Z" fill="url(#paint8_radial)"/>
<path d="M41.5492 7.22656C39.9006 8.10516 39.4054 9.55564 39.4885 11.233C39.5875 13.2553 43.8751 28.2713 45.2361 35.6739C45.3192 36.1276 46.3064 41.0828 46.3735 41.4758L47.2362 47.134C49.348 50.5461 51.5877 45.1627 41.3607 16.9582C39.3032 11.2969 40.677 7.79845 41.5492 7.22656Z" fill="url(#paint9_linear)"/>
<path d="M56.5269 33.6204C54.2042 27.7801 49.2329 16.0548 48.7441 12.2337C48.7441 12.2305 48.7441 12.2305 48.7441 12.2305C48.6802 11.7257 48.5844 11.2465 48.463 10.7928C48.4438 10.7257 48.4182 10.665 48.3991 10.5979C48.2873 10.2081 48.1595 9.83113 48.0061 9.48928C47.9965 9.46372 47.9805 9.44455 47.971 9.41899C47.6163 8.64902 47.169 8.00684 46.6355 7.52441C48.1051 12.7609 48.2553 21.0356 50.9007 27.6906C55.8719 40.2051 53.0508 41.1316 51.6643 42.9591C54.594 42.9047 58.7186 51.0709 61.0924 52.0358C60.8016 51.5853 60.6547 50.6747 60.5972 49.4671C60.4726 45.7067 58.6802 39.7226 56.5269 33.6204Z" fill="url(#paint10_linear)"/>
<path d="M18.4057 50.6331C18.4057 52.943 19.5367 53.9782 20.1022 54.352C20.2907 54.4766 20.4153 54.5277 20.4153 54.5277L30.968 62.1603L50.2842 58.2018L49.6931 45.9813C39.2715 44.6458 29.8561 39.6298 19.0415 38.748C17.853 42.6235 18.4057 47.9398 18.4057 50.6331Z" fill="url(#paint11_linear)"/>
<path d="M38.9743 50.9938C43.7314 50.4922 46.7506 54.3867 47.1276 56.4123L48.6835 55.8468L47.9774 48.0736L42.9359 44.8244L36.1979 43.128L29.3673 39.5465L28.0638 35.4634C28.0286 35.4634 27.7028 35.457 27.6676 35.457L21.1149 36.128C20.4089 36.3899 19.8977 36.735 19.6645 37.1887C18.7954 38.8883 18.46 41.096 18.345 43.2973C19.3673 45.3548 21.6644 46.4219 23.6708 46.4219C26.0254 46.4219 27.4408 44.6327 28.2874 43.1248C28.2874 43.1248 28.4408 45.8564 32.2299 46.8947C32.2267 46.8947 35.0382 51.4091 38.9743 50.9938Z" fill="url(#paint12_linear)"/>
<path d="M23.6131 45.4819C20.8367 45.4819 18.5396 43.22 18.1562 38.9804C18.1147 38.5171 17.3351 30.2168 22.0796 30.2168C26.4821 30.2168 27.7249 31.9133 28.0125 37.565C28.3032 43.22 26.4853 45.4819 23.6131 45.4819Z" fill="url(#paint13_linear)"/>
<path d="M34.1308 46.1398C30.7027 46.1398 28.9902 44.635 28.5142 40.3474C28.0381 36.0599 25.9774 28.3315 32.2682 27.9193C38.3002 27.5232 38.4152 31.2548 38.4152 37.472C38.4152 43.6893 37.0798 46.1398 34.1308 46.1398Z" fill="url(#paint14_linear)"/>
<path d="M33.9358 40.2045C31.3191 41.524 29.5587 41.5496 28.4373 39.7508C28.4628 39.9521 28.4916 40.1566 28.5107 40.3483C28.9868 44.6358 30.6993 46.1406 34.1275 46.1406C36.5365 46.1406 37.8688 44.5049 38.2745 40.5144C37.6004 39.3579 35.4789 39.4282 33.9358 40.2045Z" fill="url(#paint15_linear)"/>
<path d="M23.5173 40.0156C21.1819 40.0156 19.249 38.5651 18.9263 35.843C19.0509 36.8973 18.0765 30.2168 22.2298 30.2168C25.9359 30.2168 26.9806 31.3063 27.2234 34.9357C27.4662 38.5651 25.9359 40.0156 23.5173 40.0156Z" fill="url(#paint16_linear)"/>
<path d="M33.6548 39.7343C30.8433 39.7343 29.5781 38.255 29.1021 35.2167C28.8561 33.6544 27.2586 28.2039 32.4216 27.91C37.3704 27.6288 37.3704 31.2454 37.4727 34.3157C37.6196 38.7343 36.0733 39.7343 33.6548 39.7343Z" fill="url(#paint17_linear)"/>
<path d="M32.0862 45.8849C32.69 46.0511 33.3609 46.1405 34.1309 46.1405C37.083 46.1405 38.4153 43.6901 38.4153 37.4728C38.4153 31.4792 38.2939 27.8083 32.8849 27.9042C35.0127 29.1757 36.7475 32.0639 36.7475 37.2843C36.7443 44.7124 35.0798 45.8722 32.0862 45.8849Z" fill="url(#paint18_linear)"/>
<path d="M32.2267 43.8498C32.2267 41.3386 34.003 41.2555 38.7602 40.8338C42.1628 40.5303 45.8593 39.6389 50.5686 41.4632C55.9456 43.5431 60.9967 46.5527 61.0574 51.9521C61.115 56.7892 57.3514 74.0001 40.8944 74.0001C24.4375 74.0001 18.9103 65.2045 18.4055 50.6326L47.1277 56.4122C47.1277 56.4122 47.7411 51.278 44.2235 49.754C42.7219 49.1054 39.511 49.6294 37.3768 49.6294C35.2395 49.6262 32.2267 47.2396 32.2267 43.8498Z" fill="url(#paint19_linear)"/>
<path d="M52.6417 63.1023C45.6705 68.1918 46.236 71.0161 39.7344 71.0161C33.2329 71.0161 29.0412 67.5783 26.0732 64.6103C23.1051 61.6422 20.6067 56.6965 19.3831 52.9266C19.0956 52.0384 18.7569 51.294 18.4119 50.6614C18.9198 65.2173 24.4502 74.0001 40.8974 74.0001C57.3541 74.0001 61.1177 56.7892 61.0602 51.9521C61.0346 49.8371 60.2391 48.0927 58.9644 46.623C59.3254 53.5304 58.3669 58.9234 52.6417 63.1023Z" fill="url(#paint20_linear)"/>
<path d="M23.639 42.8437C20.8179 42.8437 18.4824 40.5977 18 36.4092C18.0192 37.2526 18.0831 38.1216 18.1597 38.9811C18.5431 43.2207 20.8403 45.4827 23.6166 45.4827C26.3099 45.4827 28.0543 43.4539 28.0256 38.5402C27.4473 41.5562 25.8434 42.8437 23.639 42.8437Z" fill="url(#paint21_linear)"/>
<path d="M28.0159 37.5689C27.7411 32.1823 26.5941 30.3931 22.6804 30.2334C24.7315 30.5689 28.706 38.4794 23.2363 45.4442C23.3641 45.4538 23.4855 45.4826 23.6133 45.4826C26.4855 45.4826 28.3034 43.2206 28.0159 37.5689Z" fill="url(#paint22_linear)"/>
<path d="M48.8081 51.3861C48.6835 48.3701 44.9775 45.3573 41.8977 45.6704C39.2396 45.942 34.4282 46.303 32.2781 44.335C32.5528 47.4596 35.3451 49.6289 37.377 49.6289C39.5144 49.6289 42.722 49.1049 44.2235 49.7535C47.741 51.2775 47.1276 56.4117 47.1276 56.4117C47.1276 56.4117 48.9359 54.4021 48.8081 51.3861Z" fill="url(#paint23_linear)"/>
<path d="M61.0572 51.9516C60.9933 46.549 55.9422 43.5395 50.5684 41.4628C45.856 39.6417 42.1595 40.5331 38.7601 40.8334C35.134 41.1561 33.2458 41.2871 32.5525 42.4436C37.0221 41.3382 41.2106 40.8877 46.3736 41.4788C53.102 42.2487 58.1882 46.3957 59.1116 49.565C60.0253 52.6992 59.8911 58.5363 59.8879 58.6737C60.7569 55.8654 61.0732 53.3733 61.0572 51.9516Z" fill="url(#paint24_linear)"/>
<path d="M47.1277 56.4114C47.2108 55.1909 47.1118 53.9417 46.722 52.782C46.3482 51.6318 45.6102 50.5487 44.5239 50.0088C43.4664 49.4146 42.1692 49.5264 40.968 49.5519C39.7443 49.6031 38.5239 49.7468 37.281 49.7372C34.7251 49.5136 32.6452 47.3347 32.182 44.8778C32.0669 44.258 32.035 43.6222 32.1628 42.9864C32.297 42.3443 32.7858 41.7628 33.3864 41.5232C34.5749 41.0152 35.8242 40.9577 37.0446 40.8107C39.4983 40.6573 41.9137 40.2196 44.3993 40.2037C46.8785 40.1685 49.3514 40.7436 51.6006 41.7468C53.8594 42.7085 56.0958 43.8363 57.9553 45.4784C59.8147 47.0951 61.1023 49.4625 61.0607 51.9513C61.0416 49.4625 59.7125 47.1622 57.8403 45.6094C55.9904 44.0056 53.7668 42.9002 51.5112 41.9641C49.2651 40.9832 46.8466 40.4465 44.3993 40.4976C41.9648 40.5295 39.5239 40.9928 37.0766 41.1621C35.8689 41.2931 34.6101 41.357 33.5238 41.8139C32.9775 42.0375 32.5941 42.4944 32.4631 43.0567C32.3449 43.6222 32.3641 44.242 32.4695 44.8267C32.8753 47.159 34.8944 49.2868 37.2874 49.504C38.5015 49.5232 39.7315 49.389 40.9584 49.3475C42.1661 49.3379 43.4824 49.2197 44.607 49.8586C45.7284 50.4497 46.4568 51.5839 46.8051 52.7564C47.1725 53.9385 47.2396 55.1909 47.1277 56.4114Z" fill="#975500"/>
<path d="M27.8368 35.457C28.0637 37.2526 28.2905 39.0832 28.0094 40.9043C27.8848 41.8085 27.6611 42.719 27.2202 43.5433C26.7953 44.374 26.0541 45.0641 25.1627 45.406C23.3576 46.0002 21.2649 45.4443 20.0317 44.0353C18.7441 42.6647 18.2649 40.7733 18.1594 38.981C18.4022 40.7606 18.9645 42.5785 20.2042 43.8724C21.4087 45.1951 23.4023 45.6488 25.0445 45.0737C26.7538 44.4954 27.5301 42.6008 27.7793 40.8692C28.0669 39.0864 27.9263 37.2685 27.8368 35.457Z" fill="#975500"/>
<path d="M32.7761 46.0252C32.1979 46.2105 31.6675 45.9549 31.1851 45.7057C30.6963 45.4469 30.2554 45.0955 29.8975 44.677C29.1691 43.8367 28.7921 42.7824 28.5621 41.7408C28.3544 40.6801 28.3257 39.629 28.1755 38.5843C28.0477 37.5364 27.9295 36.4852 27.8848 35.4277C28.019 36.4757 28.2011 37.514 28.3736 38.5555C28.5749 39.5939 28.6611 40.661 28.9071 41.6642C29.1404 42.6706 29.5205 43.661 30.1947 44.4182C30.5269 44.7984 30.9295 45.1115 31.3768 45.3383C31.8305 45.5843 32.3193 45.645 32.7761 46.0252Z" fill="#975500"/>
<path d="M35.1084 28.1211C35.6867 28.2681 36.2554 28.5077 36.7314 28.8943C37.2075 29.284 37.5461 29.8176 37.7921 30.3735C38.2873 31.4981 38.4183 32.725 38.5238 33.9198C38.5813 35.1243 38.5845 36.3256 38.5589 37.5205C38.5493 38.1148 38.5621 38.7186 38.5333 39.3224C38.511 39.6228 38.511 39.9295 38.4407 40.2298C38.3864 40.495 38.249 40.9359 37.8848 40.9071C38.1851 40.8017 38.1755 40.4598 38.2426 40.1914C38.2777 39.9039 38.3097 39.61 38.3097 39.3128C38.3193 38.7186 38.2841 38.1211 38.2714 37.5205C38.2394 36.3224 38.2522 35.1275 38.1723 33.939C38.1052 32.7569 38.0285 31.5524 37.594 30.4566C37.1979 29.3415 36.2554 28.4821 35.1084 28.1211Z" fill="#975500"/>
<path d="M38.9744 50.9936C35.0383 51.4089 32.2236 46.8945 32.2236 46.8945C28.4376 45.8594 28.2811 43.1246 28.2811 43.1246C27.4344 44.6326 26.0191 46.4217 23.6645 46.4217C21.6613 46.4217 19.3609 45.3546 18.3386 43.2971C18.3641 42.8402 18.4024 42.3834 18.4504 41.9297H18.4344C18.3066 43.1725 18.2747 44.4377 18.281 45.6485C20.3066 47.9712 23.4823 48.3003 25.5111 47.7029C26.0606 47.5399 28.6261 45.607 30.6038 47.5495C32.7508 49.6581 35.246 52.3546 39.5335 52.262C43.8211 52.1693 47.1278 56.4089 47.1278 56.4089C46.7508 54.3866 43.7348 50.492 38.9744 50.9936Z" fill="url(#paint25_linear)"/>
<path opacity="0.5" d="M21.4375 51.1306C19.9263 52.9485 24.5206 63.4277 29.0573 66.0667C33.5909 68.7057 39.2746 67.8974 40.3832 65.7983C41.4919 63.7025 36.7762 60.4405 32.92 56.8335C26.265 50.6002 22.9487 49.3095 21.4375 51.1306Z" fill="url(#paint26_radial)"/>
<path opacity="0.5" d="M58.396 52.469C59.1979 51.3859 55.1819 44.6798 51.9775 42.8715C48.7698 41.0632 42.4567 42.1367 41.9423 43.4082C41.4279 44.6766 47.511 46.1079 50.3736 48.5009C55.3097 52.6287 57.5941 53.5521 58.396 52.469Z" fill="url(#paint27_radial)"/>
<path d="M42.4758 23.751L44.6516 31.9747C44.9807 33.3549 45.313 34.7351 45.5814 36.128C45.7187 36.8245 45.8433 37.5242 45.9552 38.2271C46.0606 38.93 46.2076 39.6296 46.1565 40.3485C45.9296 39.6616 45.8785 38.9587 45.7347 38.2654C45.6037 37.5721 45.4568 36.8788 45.297 36.1887C44.9807 34.8085 44.658 33.4315 44.313 32.0577C43.6931 29.2909 42.9742 26.5465 42.4758 23.751Z" fill="#975500"/>
<defs>
<linearGradient id="paint0_linear" x1="24.8854" y1="77.9165" x2="35.4114" y2="54.8511" gradientUnits="userSpaceOnUse">
<stop offset="0.00132565" stop-color="#D2A374"/>
<stop offset="1" stop-color="#DEBA94"/>
</linearGradient>
<radialGradient id="paint1_radial" cx="0" cy="0" r="1" gradientUnits="userSpaceOnUse" gradientTransform="translate(54.1551 9.01125) rotate(-131.034) scale(2.78977 1.48299)">
<stop stop-color="#E9CDB1"/>
<stop offset="1" stop-color="#E9CDB1" stop-opacity="0"/>
</radialGradient>
<linearGradient id="paint2_linear" x1="133.708" y1="-74.5341" x2="164.437" y2="-106.29" gradientUnits="userSpaceOnUse">
<stop stop-color="#D2A374" stop-opacity="0"/>
<stop offset="1" stop-color="#B88653"/>
</linearGradient>
<linearGradient id="paint3_linear" x1="451.96" y1="-90.5039" x2="494.416" y2="-102.761" gradientUnits="userSpaceOnUse">
<stop stop-color="#D2A374" stop-opacity="0"/>
<stop offset="1" stop-color="#B88653"/>
</linearGradient>
<linearGradient id="paint4_linear" x1="50.1745" y1="2.17477" x2="38.8412" y2="69.9378" gradientUnits="userSpaceOnUse">
<stop stop-color="#D2A374" stop-opacity="0"/>
<stop offset="1" stop-color="#B88653"/>
</linearGradient>
<linearGradient id="paint5_linear" x1="51.7453" y1="8.40182" x2="48.0146" y2="27.5946" gradientUnits="userSpaceOnUse">
<stop stop-color="#D2A374" stop-opacity="0"/>
<stop offset="1" stop-color="#B88653"/>
</linearGradient>
<linearGradient id="paint6_linear" x1="34.4335" y1="10.6369" x2="54.6209" y2="61.6362" gradientUnits="userSpaceOnUse">
<stop stop-color="#D2A374" stop-opacity="0"/>
<stop offset="1" stop-color="#B88653"/>
</linearGradient>
<linearGradient id="paint7_linear" x1="59.0951" y1="55.106" x2="50.2495" y2="34.6134" gradientUnits="userSpaceOnUse">
<stop offset="0.00132565" stop-color="#D2A374"/>
<stop offset="1" stop-color="#DEBA94"/>
</linearGradient>
<radialGradient id="paint8_radial" cx="0" cy="0" r="1" gradientUnits="userSpaceOnUse" gradientTransform="translate(43.6805 9.31486) rotate(-167.041) scale(2.79005 1.48347)">
<stop stop-color="#E9CDB1"/>
<stop offset="1" stop-color="#E9CDB1" stop-opacity="0"/>
</radialGradient>
<linearGradient id="paint9_linear" x1="39.4788" y1="27.6353" x2="49.0279" y2="27.6353" gradientUnits="userSpaceOnUse">
<stop stop-color="#D2A374" stop-opacity="0"/>
<stop offset="1" stop-color="#B88653"/>
</linearGradient>
<linearGradient id="paint10_linear" x1="55.9805" y1="24.9455" x2="21.7001" y2="103.215" gradientUnits="userSpaceOnUse">
<stop stop-color="#D2A374" stop-opacity="0"/>
<stop offset="1" stop-color="#B88653"/>
</linearGradient>
<linearGradient id="paint11_linear" x1="19.4868" y1="50.4538" x2="59.3356" y2="50.4538" gradientUnits="userSpaceOnUse">
<stop offset="0.00132565" stop-color="#D2A374"/>
<stop offset="1" stop-color="#DEBA94"/>
</linearGradient>
<linearGradient id="paint12_linear" x1="30.2722" y1="63.8063" x2="33.8138" y2="47.4264" gradientUnits="userSpaceOnUse">
<stop stop-color="#D2A374" stop-opacity="0"/>
<stop offset="1" stop-color="#B88653"/>
</linearGradient>
<linearGradient id="paint13_linear" x1="23.0653" y1="36.5302" x2="23.0653" y2="53.9869" gradientUnits="userSpaceOnUse">
<stop offset="0.00132565" stop-color="#D2A374"/>
<stop offset="1" stop-color="#DEBA94"/>
</linearGradient>
<linearGradient id="paint14_linear" x1="33.1113" y1="36.5299" x2="33.1113" y2="53.9866" gradientUnits="userSpaceOnUse">
<stop offset="0.00132565" stop-color="#D2A374"/>
<stop offset="1" stop-color="#DEBA94"/>
</linearGradient>
<linearGradient id="paint15_linear" x1="33.3571" y1="36.0952" x2="33.3571" y2="59.2273" gradientUnits="userSpaceOnUse">
<stop stop-color="#D2A374" stop-opacity="0"/>
<stop offset="1" stop-color="#B88653"/>
</linearGradient>
<linearGradient id="paint16_linear" x1="23.0795" y1="44.2302" x2="23.0795" y2="28.1592" gradientUnits="userSpaceOnUse">
<stop offset="0.00132565" stop-color="#D2A374"/>
<stop offset="1" stop-color="#DEBA94"/>
</linearGradient>
<linearGradient id="paint17_linear" x1="33.0778" y1="44.23" x2="33.0778" y2="28.1591" gradientUnits="userSpaceOnUse">
<stop offset="0.00132565" stop-color="#D2A374"/>
<stop offset="1" stop-color="#DEBA94"/>
</linearGradient>
<linearGradient id="paint18_linear" x1="26.3563" y1="32.8263" x2="69.398" y2="57.2777" gradientUnits="userSpaceOnUse">
<stop stop-color="#D2A374" stop-opacity="0"/>
<stop offset="1" stop-color="#B88653"/>
</linearGradient>
<linearGradient id="paint19_linear" x1="19.4866" y1="57.1742" x2="59.3357" y2="57.1742" gradientUnits="userSpaceOnUse">
<stop offset="0.00132565" stop-color="#D2A374"/>
<stop offset="1" stop-color="#DEBA94"/>
</linearGradient>
<linearGradient id="paint20_linear" x1="39.7328" y1="41.6925" x2="39.7328" y2="135.729" gradientUnits="userSpaceOnUse">
<stop stop-color="#D2A374" stop-opacity="0"/>
<stop offset="1" stop-color="#B88653"/>
</linearGradient>
<linearGradient id="paint21_linear" x1="22.9162" y1="36.089" x2="24.1104" y2="55.8875" gradientUnits="userSpaceOnUse">
<stop stop-color="#D2A374" stop-opacity="0"/>
<stop offset="1" stop-color="#B88653"/>
</linearGradient>
<linearGradient id="paint22_linear" x1="12.4488" y1="30.5806" x2="78.8735" y2="72.759" gradientUnits="userSpaceOnUse">
<stop stop-color="#D2A374" stop-opacity="0"/>
<stop offset="1" stop-color="#B88653"/>
</linearGradient>
<linearGradient id="paint23_linear" x1="32.2787" y1="50.3722" x2="48.8149" y2="50.3722" gradientUnits="userSpaceOnUse">
<stop stop-color="#D2A374" stop-opacity="0"/>
<stop offset="1" stop-color="#B88653"/>
</linearGradient>
<linearGradient id="paint24_linear" x1="41.2599" y1="39.6213" x2="72.6623" y2="73.8569" gradientUnits="userSpaceOnUse">
<stop offset="0.3118" stop-color="#F0C492" stop-opacity="0"/>
<stop offset="1" stop-color="#E6AF74"/>
</linearGradient>
<linearGradient id="paint25_linear" x1="29.9056" y1="57.9504" x2="39.0452" y2="30.0603" gradientUnits="userSpaceOnUse">
<stop stop-color="#D2A374" stop-opacity="0"/>
<stop offset="1" stop-color="#B88653"/>
</linearGradient>
<radialGradient id="paint26_radial" cx="0" cy="0" r="1" gradientUnits="userSpaceOnUse" gradientTransform="translate(30.4062 60.1607) rotate(-138.967) scale(13.2043 6.02527)">
<stop stop-color="#E9CDB1"/>
<stop offset="1" stop-color="#E9CDB1" stop-opacity="0"/>
</radialGradient>
<radialGradient id="paint27_radial" cx="0" cy="0" r="1" gradientUnits="userSpaceOnUse" gradientTransform="translate(50.6762 45.9436) rotate(38.213) scale(10.1814 3.74889)">
<stop stop-color="#E9CDB1"/>
<stop offset="1" stop-color="#E9CDB1" stop-opacity="0"/>
</radialGradient>
</defs>
</svg>
