<svg width="80" height="80" viewBox="0 0 80 80" fill="none" xmlns="http://www.w3.org/2000/svg">
<path d="M38.7385 31.6517C38.9127 31.2933 39.1019 30.905 39.301 30.4919C42.5516 23.7075 48.5253 9.7854 49.6304 8.09304C50.8052 6.29616 52.5077 5.32553 55.3253 6.54005C58.1428 7.75456 58.3867 10.9601 56.5349 14.3448C54.6831 17.7295 51.1636 30.3127 49.5209 36.3654C46.6386 46.9874 43.1241 53.7967 43.1241 53.7967L34.4822 42.2836L38.7385 31.6517Z" fill="url(#paint0_linear)"/>
<path opacity="0.08" d="M52.2986 6.93863C52.7516 6.17211 54.678 6.93861 55.4845 7.86441C56.2909 8.7902 56.5796 10.164 56.1266 10.9355C55.6737 11.702 54.5287 11.1047 53.5182 10.5871C51.7709 9.69112 51.8406 7.71013 52.2986 6.93863Z" fill="url(#paint1_radial)"/>
<path d="M49.6353 8.09294C49.0628 8.96898 47.1811 13.1252 45.0555 17.8737C43.0743 22.2937 42.9648 27.4654 47.7835 13.827C49.7896 8.14771 52.6171 6.01732 53.6625 6.06709C51.8057 5.80328 50.5562 6.68431 49.6353 8.09294Z" fill="url(#paint2_linear)"/>
<path d="M49.5208 36.3657C51.1636 30.313 54.683 17.7249 56.5348 14.3451C57.5404 12.5084 57.9038 10.7364 57.6001 9.29297C55.7085 14.3949 50.9694 21.1743 49.1923 28.113C45.857 41.154 47.6441 43.2894 49.5208 36.3657Z" fill="url(#paint3_linear)"/>
<path d="M38.7385 31.6517C38.9127 31.2933 39.1019 30.905 39.301 30.4919C42.5516 23.7075 48.5253 9.7854 49.6304 8.09304C50.8052 6.29616 52.5077 5.32553 55.3253 6.54005C58.1428 7.75456 58.3867 10.9601 56.5349 14.3448C54.6831 17.7295 51.1636 30.3127 49.5209 36.3654C46.6386 46.9874 43.1241 53.7967 43.1241 53.7967L34.4822 42.2836L38.7385 31.6517Z" fill="url(#paint4_linear)"/>
<path d="M49.2023 8.87402C48.4556 10.3275 47.0966 13.3189 45.5435 16.7783L46.4196 18.834L50.7554 30.9692C50.7554 30.9692 50.8798 30.8995 51.064 30.79C51.8754 27.9329 52.7963 24.7822 53.6924 21.9549C51.3926 18.7793 49.4412 13.1447 49.2023 8.87402Z" fill="url(#paint5_linear)"/>
<path d="M42.6312 23.2598C41.9642 24.7431 41.3071 26.1915 40.6948 27.5156C42.5566 31.1093 41.5759 38.4164 39.963 40.9051C38.5791 43.0455 43.9902 44.0957 46.972 44.5039C47.8084 42.1495 48.6895 39.4168 49.5208 36.3606C49.5805 36.1466 49.6452 35.9126 49.705 35.6837L50.0335 32.3139L42.6312 23.2598Z" fill="url(#paint6_linear)"/>
<path d="M46.3747 41.4724C46.3099 41.0792 45.3193 36.1216 45.2397 35.6686C43.8807 28.2671 39.5896 13.2499 39.4901 11.229C39.3855 9.08369 40.187 7.30174 43.1838 6.6248C46.1805 5.94786 48.2613 8.40175 48.7492 12.2295C49.237 16.0572 54.225 27.8141 56.5447 33.6428C60.7362 44.1752 61.0996 52.0298 61.0996 52.0298L47.3404 47.7989L46.3747 41.4724Z" fill="url(#paint7_linear)"/>
<path opacity="0.08" d="M40.9686 8.73557C40.8839 7.84455 42.895 7.33682 44.0898 7.61557C45.2895 7.88935 46.3299 8.83515 46.4145 9.72617C46.4991 10.6172 45.2198 10.8013 44.0997 10.9756C42.1583 11.2742 41.0532 9.62161 40.9686 8.73557Z" fill="url(#paint8_radial)"/>
<path opacity="0.24" d="M41.551 7.22754C39.9033 8.10358 39.4104 9.55702 39.4901 11.2344C39.5896 13.2553 43.8757 28.2725 45.2397 35.6741C45.3243 36.127 46.31 41.0847 46.3747 41.4779L47.2359 47.1373C49.3465 50.5469 51.5866 45.1662 41.3618 16.9636C39.3109 11.2992 40.6798 7.79995 41.551 7.22754Z" fill="url(#paint9_linear)"/>
<path opacity="0.24" d="M56.5299 33.6185C54.2051 27.7799 49.237 16.0529 48.7492 12.2352V12.2302C48.6845 11.7225 48.5899 11.2447 48.4704 10.7917C48.4505 10.722 48.4256 10.6673 48.4057 10.5976C48.2912 10.2093 48.1668 9.83105 48.0125 9.4876C48.0025 9.46271 47.9876 9.44278 47.9776 9.41789C47.6242 8.64638 47.1761 8.0043 46.6435 7.52148C48.112 12.7578 48.2663 21.0304 50.9097 27.6853C55.8827 40.1988 53.0602 41.1246 51.6713 42.9563C54.6034 42.9016 58.7252 51.0647 61.0997 52.0303C60.811 51.5774 60.6616 50.6715 60.6069 49.4619C60.4775 45.7039 58.6854 39.721 56.5299 33.6185Z" fill="url(#paint10_linear)"/>
<path d="M18.4082 50.6309C18.4082 52.9405 19.5382 53.9758 20.1057 54.3491C20.2948 54.4736 20.4193 54.5234 20.4193 54.5234L30.9727 62.1539L50.2874 58.1967L49.695 45.977C42.457 45.0512 35.7068 42.3484 28.638 40.4868C28.5185 40.4569 28.1452 37.4455 28.0207 37.4157C27.8316 37.3659 27.8913 40.2977 27.7021 40.2479C24.8896 39.5411 22.0172 38.9836 19.0404 38.7447C17.8556 42.6172 18.4082 47.9331 18.4082 50.6309Z" fill="url(#paint11_linear)"/>
<path d="M38.9823 49.5759C35.0746 50.2031 32.2321 45.4794 32.2321 45.4794C28.4439 44.4441 28.0158 37.9385 28.0158 37.9385C27.1695 39.4467 26.0246 45.0116 23.67 45.0116C21.6638 45.0116 19.369 43.9463 18.3435 41.8856C18.3684 41.4277 18.4082 40.9748 18.453 40.5218H18.4381C18.2489 42.3735 18.2788 43.0255 18.2837 44.24C20.3098 46.5645 23.4858 46.8931 25.5118 46.2958C26.0594 46.1315 28.6231 45.6138 30.6043 47.56C32.7499 49.6705 35.2488 52.3633 39.5349 52.2688C43.821 52.1742 47.1264 54.9964 47.1264 54.9964C46.758 52.9656 47.1712 48.2569 38.9823 49.5759Z" fill="url(#paint12_linear)"/>
<path d="M38.9823 50.989C43.7413 50.4863 46.758 54.3787 47.1363 56.4046L48.6895 55.8372L47.9826 48.0623L42.9398 44.812L36.2046 43.1146L29.3748 39.5358L28.0705 35.4542C28.0357 35.4542 27.7071 35.4492 27.6723 35.4492L21.1212 36.1212C20.4143 36.385 19.9016 36.7284 19.6676 37.1814C18.7965 38.8787 18.4629 41.0887 18.3484 43.2888C19.3689 45.3445 21.6688 46.4147 23.6749 46.4147C26.0295 46.4147 27.4433 44.6228 28.2945 43.1146C28.2945 43.1146 28.4488 45.8473 32.2371 46.8826C32.2321 46.8925 35.0447 51.4071 38.9823 50.989Z" fill="url(#paint13_linear)"/>
<path d="M23.6152 45.4779C20.8375 45.4779 18.5426 43.2181 18.1593 38.9772C18.1195 38.5143 17.3379 30.2168 22.082 30.2168C26.4825 30.2168 27.727 31.9141 28.0157 37.5636C28.3045 43.2181 26.4875 45.4779 23.6152 45.4779Z" fill="url(#paint14_linear)"/>
<path d="M34.1338 46.1365C30.7089 46.1365 28.9915 44.6332 28.5186 40.3426C28.0407 36.052 25.9797 28.3269 32.272 27.9137C38.3054 27.5155 38.4199 31.2487 38.4199 37.4656C38.4199 43.6875 37.0858 46.1365 34.1338 46.1365Z" fill="url(#paint15_linear)"/>
<path opacity="0.24" d="M33.9396 40.2031C31.3211 41.5222 29.5639 41.5471 28.4438 39.7501C28.4687 39.9542 28.4986 40.1583 28.5185 40.3475C28.9964 44.6382 30.7088 46.1415 34.1337 46.1415C36.5431 46.1415 37.8722 44.5038 38.2804 40.5167C37.6034 39.3569 35.4828 39.4266 33.9396 40.2031Z" fill="url(#paint16_linear)"/>
<path d="M23.5206 40.0125C21.1859 40.0125 19.2494 38.5591 18.9309 35.8414C19.0553 36.8966 18.0796 30.2168 22.2313 30.2168C25.9349 30.2168 26.9853 31.3069 27.2242 34.9355C27.4682 38.5591 25.9399 40.0125 23.5206 40.0125Z" fill="url(#paint17_linear)"/>
<path d="M33.6559 39.7299C30.8433 39.7299 29.5789 38.2516 29.101 35.2103C28.8571 33.6474 27.2592 28.1971 32.4214 27.9034C37.3695 27.6197 37.3695 31.2383 37.4741 34.3094C37.6234 38.7294 36.0802 39.7299 33.6559 39.7299Z" fill="url(#paint18_linear)"/>
<path opacity="0.24" d="M32.0878 45.883C32.6901 46.0473 33.3621 46.1369 34.1337 46.1369C37.0857 46.1369 38.4198 43.6879 38.4198 37.4711C38.4198 31.4782 38.2954 27.8048 32.8892 27.9043C35.0148 29.1736 36.7522 32.0605 36.7522 37.2819C36.7472 44.7133 35.0845 45.8681 32.0878 45.883Z" fill="url(#paint19_linear)"/>
<path d="M32.2321 43.8465C32.2321 41.3329 34.0093 41.2533 38.7633 40.8302C42.1633 40.5266 45.862 39.6356 50.5712 41.4573C55.9474 43.5379 61.0001 46.5444 61.0598 51.945C61.1146 56.7832 57.3512 73.9905 40.8939 73.9905C24.4366 73.9905 18.906 65.1952 18.4032 50.626L47.1264 56.4049C47.1264 56.4049 47.7387 51.2681 44.2192 49.7449C42.7208 49.0929 39.51 49.6205 37.3744 49.6205C35.2438 49.6255 32.2321 47.2363 32.2321 43.8465Z" fill="url(#paint20_linear)"/>
<path opacity="0.24" d="M52.6471 63.0997C45.6728 68.1867 46.2403 71.0139 39.739 71.0139C33.2378 71.0139 29.0463 67.5745 26.0744 64.6078C23.1075 61.6412 20.6085 56.6936 19.3839 52.9256C19.0952 52.0346 18.7567 51.293 18.4132 50.6608C18.921 65.2151 24.4515 74.0005 40.8989 74.0005C57.3563 74.0005 61.1197 56.7882 61.0649 51.955C61.04 49.8395 60.2435 48.0974 58.9691 46.624C59.3325 53.5279 58.3718 58.9185 52.6471 63.0997Z" fill="url(#paint21_linear)"/>
<path opacity="0.24" d="M23.6401 42.8412C20.8175 42.8412 18.4829 40.5964 18 36.4053C18.0199 37.2465 18.0846 38.1176 18.1593 38.9787C18.5426 43.2196 20.8375 45.4794 23.6152 45.4794C26.3083 45.4794 28.0506 43.4485 28.0257 38.5357C27.4482 41.5521 25.8503 42.8412 23.6401 42.8412Z" fill="url(#paint22_linear)"/>
<path opacity="0.24" d="M28.0207 37.5653C27.7469 32.1796 26.597 30.3877 22.6843 30.2334C24.7352 30.5719 28.7126 38.4762 23.2369 45.4397C23.3663 45.4497 23.4858 45.4796 23.6152 45.4796C26.4875 45.4796 28.3044 43.2198 28.0207 37.5653Z" fill="url(#paint23_linear)"/>
<path opacity="0.24" d="M48.8139 51.3832C48.6895 48.3668 44.9808 45.3554 41.9044 45.669C39.2462 45.9428 34.4324 46.3012 32.2819 44.3301C32.5557 47.456 35.3484 49.6261 37.3794 49.6261C39.515 49.6261 42.7258 49.1035 44.2292 49.7505C47.7486 51.2737 47.1363 56.4105 47.1363 56.4105C47.1363 56.4105 48.9384 54.3996 48.8139 51.3832Z" fill="url(#paint24_linear)"/>
<path opacity="0.24" d="M61.0648 51.9508C61.0001 46.5502 55.9524 43.5388 50.5761 41.4632C45.8669 39.6414 42.1682 40.5324 38.7683 40.836C35.1393 41.1596 33.2526 41.289 32.5607 42.4438C37.0309 41.3388 41.2174 40.8908 46.3846 41.4782C53.1149 42.2497 58.2024 46.391 59.1234 49.5666C60.0344 52.7025 59.9049 58.5361 59.8999 58.6755C60.7611 55.8632 61.0797 53.3694 61.0648 51.9508Z" fill="url(#paint25_linear)"/>
<path d="M47.1313 56.4094C47.216 55.1899 47.1164 53.9406 46.7231 52.7808C46.3498 51.631 45.613 50.5509 44.5229 50.0083C43.4625 49.416 42.1683 49.5255 40.9636 49.5504C39.739 49.6002 38.5194 49.7445 37.2749 49.7346C34.7212 49.5106 32.6404 47.3305 32.1724 44.8766C32.0579 44.2594 32.0281 43.6222 32.1525 42.9851C32.2869 42.343 32.7748 41.7606 33.3771 41.5217C34.5668 41.014 35.8163 40.9543 37.0359 40.8099C39.4901 40.6556 41.9044 40.2176 44.3934 40.2027C46.8725 40.1678 49.3465 40.7402 51.5966 41.7457C53.8566 42.7064 56.0917 43.8362 57.9485 45.4788C59.8103 47.0965 61.0946 49.4608 61.0548 51.9496C61.0349 49.4608 59.7058 47.1612 57.834 45.6083C55.9822 44.0055 53.762 42.9005 51.507 41.9647C49.2619 40.9842 46.8426 40.4466 44.3984 40.5013C41.9642 40.5312 39.5249 40.9941 37.0758 41.1633C35.8661 41.2927 34.6067 41.3575 33.5215 41.8154C32.9739 42.0394 32.5956 42.4923 32.4611 43.0598C32.3417 43.6272 32.3616 44.2444 32.4661 44.8268C32.8743 47.1563 34.8904 49.2866 37.2848 49.5056C38.4995 49.5255 39.729 49.3911 40.9586 49.3513C42.1683 49.3413 43.4824 49.2219 44.6075 49.864C45.7275 50.4563 46.4543 51.5912 46.8078 52.7609C47.1761 53.9356 47.2458 55.1899 47.1313 56.4094Z" fill="#3D2A20"/>
<path d="M27.8416 35.4541C28.0656 37.251 28.2946 39.0777 28.0158 40.8994C27.8914 41.8053 27.6674 42.7162 27.2243 43.5375C26.8012 44.3687 26.0594 45.0606 25.1684 45.399C23.3663 45.9914 21.2706 45.4389 20.036 44.0302C18.7467 42.6614 18.2688 40.77 18.1643 38.9781C18.4082 40.7601 18.9708 42.5718 20.2103 43.871C21.415 45.195 23.4062 45.6479 25.0539 45.0705C26.7613 44.4931 27.5379 42.5967 27.7918 40.8696C28.0706 39.0827 27.9312 37.2659 27.8416 35.4541Z" fill="#3D2A20"/>
<path d="M32.7797 46.0219C32.2023 46.206 31.6746 45.9522 31.1868 45.7033C30.6989 45.4445 30.2559 45.0911 29.9024 44.673C29.1757 43.8318 28.7973 42.7765 28.5683 41.7362C28.3593 40.676 28.3294 39.6258 28.185 38.5805C28.0556 37.5353 27.9411 36.48 27.8963 35.4248C28.0307 36.4751 28.2099 37.5104 28.3841 38.5507C28.5833 39.586 28.6729 40.6561 28.9168 41.6566C29.1508 42.6621 29.5291 43.6526 30.2011 44.4092C30.5346 44.7874 30.9329 45.101 31.3809 45.33C31.8339 45.5838 32.3218 45.6436 32.7797 46.0219Z" fill="#3D2A20"/>
<path d="M35.1094 28.1172C35.6869 28.2665 36.2544 28.5054 36.7323 28.8937C37.2102 29.2819 37.5487 29.8195 37.7926 30.372C38.2854 31.497 38.4198 32.7214 38.5244 33.921C38.5791 35.1256 38.5841 36.3252 38.5592 37.5248C38.5493 38.1221 38.5642 38.7194 38.5343 39.3267C38.5144 39.6303 38.5094 39.934 38.4398 40.2376C38.385 40.5014 38.2456 40.9444 37.8822 40.9145C38.1809 40.81 38.1759 40.4666 38.2406 40.2027C38.2755 39.914 38.3103 39.6204 38.3103 39.3217C38.3203 38.7294 38.2854 38.1321 38.2705 37.5298C38.2356 36.3302 38.2506 35.1356 38.1709 33.9459C38.1062 32.7662 38.0266 31.5567 37.5935 30.4616C37.2052 29.3417 36.2594 28.4806 35.1094 28.1172Z" fill="#3D2A20"/>
<path opacity="0.08" d="M21.4398 51.1236C19.9265 52.9404 24.5262 63.4181 29.0612 66.0562C33.5962 68.6943 39.2811 67.8829 40.3862 65.7874C41.4963 63.6919 36.7821 60.4316 32.9241 56.8229C26.2685 50.601 22.9531 49.3069 21.4398 51.1236Z" fill="url(#paint26_radial)"/>
<path opacity="0.08" d="M58.4016 52.4686C59.203 51.3884 55.1858 44.6787 51.9799 42.8719C48.7741 41.0651 42.462 42.1402 41.9443 43.4095C41.4315 44.6787 47.5147 46.1123 50.377 48.5015C55.3152 52.6229 57.6001 53.5487 58.4016 52.4686Z" fill="url(#paint27_radial)"/>
<path d="M42.4819 23.7461L44.6572 31.969C44.9858 33.3477 45.3193 34.7265 45.5881 36.1252C45.7275 36.822 45.8519 37.5189 45.9614 38.2207C46.066 38.9225 46.2153 39.6244 46.1605 40.3411C45.9316 39.6542 45.8818 38.9524 45.7374 38.2556C45.603 37.5587 45.4587 36.8668 45.2994 36.1799C44.9808 34.8012 44.6622 33.4224 44.3137 32.0486C43.7015 29.2861 42.9797 26.5435 42.4819 23.7461Z" fill="#3D2A20"/>
<defs>
<linearGradient id="paint0_linear" x1="24.872" y1="77.9334" x2="35.3966" y2="54.8683" gradientUnits="userSpaceOnUse">
<stop offset="0.00132565" stop-color="#5A4539"/>
<stop offset="1" stop-color="#695042"/>
</linearGradient>
<radialGradient id="paint1_radial" cx="0" cy="0" r="1" gradientUnits="userSpaceOnUse" gradientTransform="translate(54.1696 9.01356) rotate(-131.037) scale(2.78964 1.48294)">
<stop stop-color="#F8DBBA"/>
<stop offset="1" stop-color="#CD9870" stop-opacity="0"/>
</radialGradient>
<linearGradient id="paint2_linear" x1="133.698" y1="-74.5086" x2="164.426" y2="-106.265" gradientUnits="userSpaceOnUse">
<stop stop-color="#D2A374" stop-opacity="0"/>
<stop offset="1" stop-color="#B88653"/>
</linearGradient>
<linearGradient id="paint3_linear" x1="451.963" y1="-90.4762" x2="494.419" y2="-102.735" gradientUnits="userSpaceOnUse">
<stop stop-color="#D2A374" stop-opacity="0"/>
<stop offset="1" stop-color="#B88653"/>
</linearGradient>
<linearGradient id="paint4_linear" x1="29.1058" y1="9.44694" x2="57.7913" y2="38.6666" gradientUnits="userSpaceOnUse">
<stop stop-color="#473226" stop-opacity="0"/>
<stop offset="1" stop-color="#3D2A20"/>
</linearGradient>
<linearGradient id="paint5_linear" x1="48.8862" y1="17.1716" x2="66.0019" y2="60.2598" gradientUnits="userSpaceOnUse">
<stop stop-color="#3C2200" stop-opacity="0"/>
<stop offset="0.9984"/>
</linearGradient>
<linearGradient id="paint6_linear" x1="38.6176" y1="21.2512" x2="55.7333" y2="64.3397" gradientUnits="userSpaceOnUse">
<stop stop-color="#3C2200" stop-opacity="0"/>
<stop offset="0.9984"/>
</linearGradient>
<linearGradient id="paint7_linear" x1="59.1127" y1="55.0933" x2="50.2681" y2="34.6014" gradientUnits="userSpaceOnUse">
<stop offset="0.00132565" stop-color="#5A4539"/>
<stop offset="1" stop-color="#695042"/>
</linearGradient>
<radialGradient id="paint8_radial" cx="0" cy="0" r="1" gradientUnits="userSpaceOnUse" gradientTransform="translate(43.7083 9.33645) rotate(-167.041) scale(2.79012 1.48346)">
<stop stop-color="#F8DBBA"/>
<stop offset="1" stop-color="#CD9870" stop-opacity="0"/>
</radialGradient>
<linearGradient id="paint9_linear" x1="49.2952" y1="11.574" x2="39.1439" y2="45.5722" gradientUnits="userSpaceOnUse">
<stop offset="0.00132565" stop-color="#473226"/>
<stop offset="1" stop-color="#3D2A20"/>
</linearGradient>
<linearGradient id="paint10_linear" x1="58.6269" y1="23.945" x2="6.92338" y2="87.3416" gradientUnits="userSpaceOnUse">
<stop offset="0.00132565" stop-color="#473226"/>
<stop offset="1" stop-color="#3D2A20"/>
</linearGradient>
<linearGradient id="paint11_linear" x1="19.4905" y1="49.7855" x2="59.3412" y2="49.7855" gradientUnits="userSpaceOnUse">
<stop offset="0.00132565" stop-color="#5A4539"/>
<stop offset="1" stop-color="#695042"/>
</linearGradient>
<linearGradient id="paint12_linear" x1="28.6229" y1="60.4566" x2="42.8976" y2="16.8924" gradientUnits="userSpaceOnUse">
<stop stop-color="#3C2200" stop-opacity="0"/>
<stop offset="0.9984"/>
</linearGradient>
<linearGradient id="paint13_linear" x1="34.3963" y1="36.8006" x2="31.7405" y2="75.2841" gradientUnits="userSpaceOnUse">
<stop stop-color="#3C2200" stop-opacity="0"/>
<stop offset="0.9984"/>
</linearGradient>
<linearGradient id="paint14_linear" x1="23.0694" y1="36.5267" x2="23.0694" y2="53.9825" gradientUnits="userSpaceOnUse">
<stop offset="0.00132565" stop-color="#5A4539"/>
<stop offset="1" stop-color="#695042"/>
</linearGradient>
<linearGradient id="paint15_linear" x1="33.1157" y1="36.5283" x2="33.1157" y2="53.9841" gradientUnits="userSpaceOnUse">
<stop offset="0.00132565" stop-color="#5A4539"/>
<stop offset="1" stop-color="#695042"/>
</linearGradient>
<linearGradient id="paint16_linear" x1="33.3617" y1="36.0924" x2="33.3617" y2="59.224" gradientUnits="userSpaceOnUse">
<stop offset="0.00132565" stop-color="#473226"/>
<stop offset="1" stop-color="#3D2A20"/>
</linearGradient>
<linearGradient id="paint17_linear" x1="23.0835" y1="44.2261" x2="23.0835" y2="28.1562" gradientUnits="userSpaceOnUse">
<stop offset="0.00132565" stop-color="#5A4539"/>
<stop offset="1" stop-color="#695042"/>
</linearGradient>
<linearGradient id="paint18_linear" x1="33.0823" y1="44.2272" x2="33.0823" y2="28.1573" gradientUnits="userSpaceOnUse">
<stop offset="0.00132565" stop-color="#5A4539"/>
<stop offset="1" stop-color="#695042"/>
</linearGradient>
<linearGradient id="paint19_linear" x1="26.3604" y1="32.8246" x2="69.4018" y2="57.2782" gradientUnits="userSpaceOnUse">
<stop offset="0.00132565" stop-color="#473226"/>
<stop offset="1" stop-color="#3D2A20"/>
</linearGradient>
<linearGradient id="paint20_linear" x1="19.4905" y1="57.1704" x2="59.3412" y2="57.1704" gradientUnits="userSpaceOnUse">
<stop offset="0.00132565" stop-color="#5A4539"/>
<stop offset="1" stop-color="#695042"/>
</linearGradient>
<linearGradient id="paint21_linear" x1="18.4116" y1="60.3076" x2="61.064" y2="60.3076" gradientUnits="userSpaceOnUse">
<stop offset="0.00132565" stop-color="#473226"/>
<stop offset="1" stop-color="#3D2A20"/>
</linearGradient>
<linearGradient id="paint22_linear" x1="22.92" y1="36.0862" x2="24.114" y2="55.8838" gradientUnits="userSpaceOnUse">
<stop offset="0.00132565" stop-color="#473226"/>
<stop offset="1" stop-color="#3D2A20"/>
</linearGradient>
<linearGradient id="paint23_linear" x1="12.4524" y1="30.5785" x2="78.876" y2="72.7599" gradientUnits="userSpaceOnUse">
<stop offset="0.00132565" stop-color="#473226"/>
<stop offset="1" stop-color="#3D2A20"/>
</linearGradient>
<linearGradient id="paint24_linear" x1="40.5514" y1="54.9766" x2="40.5514" y2="27.3513" gradientUnits="userSpaceOnUse">
<stop offset="0.00132565" stop-color="#473226"/>
<stop offset="1" stop-color="#3D2A20"/>
</linearGradient>
<linearGradient id="paint25_linear" x1="41.2648" y1="39.6198" x2="72.6652" y2="73.8567" gradientUnits="userSpaceOnUse">
<stop offset="0.00132565" stop-color="#473226"/>
<stop offset="1" stop-color="#3D2A20"/>
</linearGradient>
<radialGradient id="paint26_radial" cx="0" cy="0" r="1" gradientUnits="userSpaceOnUse" gradientTransform="translate(30.3868 60.1679) rotate(-138.97) scale(13.2043 6.02518)">
<stop stop-color="#F8DBBA"/>
<stop offset="1" stop-color="#CD9870" stop-opacity="0"/>
</radialGradient>
<radialGradient id="paint27_radial" cx="0" cy="0" r="1" gradientUnits="userSpaceOnUse" gradientTransform="translate(50.6787 45.9399) rotate(38.2101) scale(10.1815 3.74881)">
<stop stop-color="#F8DBBA"/>
<stop offset="1" stop-color="#CD9870" stop-opacity="0"/>
</radialGradient>
</defs>
</svg>
