<svg width="80" height="80" viewBox="0 0 80 80" fill="none" xmlns="http://www.w3.org/2000/svg">
<path d="M40 70.4762C56.8315 70.4762 70.4762 56.8315 70.4762 40C70.4762 23.1685 56.8315 9.52381 40 9.52381C23.1685 9.52381 9.5238 23.1685 9.5238 40C9.5238 56.8315 23.1685 70.4762 40 70.4762Z" fill="url(#paint0_radial)"/>
<path opacity="0.5" d="M40 70.4762C56.8315 70.4762 70.4762 56.8315 70.4762 40C70.4762 23.1685 56.8315 9.52381 40 9.52381C23.1685 9.52381 9.5238 23.1685 9.5238 40C9.5238 56.8315 23.1685 70.4762 40 70.4762Z" fill="url(#paint1_radial)"/>
<path d="M33.2379 23.8475C33.1617 22.6285 31.8094 21.9427 29.5427 22.057C27.6189 22.1713 23.4474 23.4666 20.7427 27.3713C20.2474 28.0951 21.0855 28.4189 21.5998 27.9427C23.3141 26.3237 27.9998 24.0951 31.7713 24.2856C33.276 24.3999 33.2379 23.8475 33.2379 23.8475Z" fill="url(#paint2_linear)"/>
<path d="M40.0003 61.2383C44.0925 61.2383 47.4099 58.5435 47.4099 55.2192C47.4099 51.895 44.0925 49.2002 40.0003 49.2002C35.9082 49.2002 32.5908 51.895 32.5908 55.2192C32.5908 58.5435 35.9082 61.2383 40.0003 61.2383Z" fill="url(#paint3_radial)"/>
<path d="M39.9999 51.0478C43.1999 51.0478 45.9808 52.4954 47.3903 54.6478C47.0475 51.6002 43.8665 49.2002 39.9999 49.2002C36.1332 49.2002 32.9713 51.6002 32.6094 54.6478C34.0189 52.5145 36.7999 51.0478 39.9999 51.0478Z" fill="url(#paint4_linear)"/>
<path d="M35.5431 40.6858L30.5145 36.6477L34.5526 31.6191C34.9526 31.1239 34.8574 30.4191 34.3812 30.0191L33.9431 29.6572C33.4478 29.2572 32.7431 29.3524 32.3431 29.8286L28.305 34.8572L23.2764 30.8191C22.7812 30.4191 22.0764 30.5143 21.6764 30.9905L21.3145 31.4286C20.9145 31.9239 21.0097 32.6286 21.4859 33.0286L26.5145 37.0667L22.4764 42.0953C22.0764 42.5905 22.1716 43.2953 22.6478 43.6953L23.0859 44.0572C23.5812 44.4572 24.2859 44.362 24.6859 43.8858L28.724 38.8572L33.7526 42.8953C34.2478 43.2953 34.9526 43.2001 35.3526 42.7239L35.7145 42.2858C36.1145 41.7905 36.0383 41.0667 35.5431 40.6858Z" fill="url(#paint5_radial)"/>
<path d="M21.3904 32.038L21.7523 31.638C22.1523 31.1808 22.8571 31.1047 23.3523 31.4666L28.3238 35.0666L32.4 30.4761C32.8 30.0189 33.5047 29.9428 34 30.3047L34.4381 30.6285C34.6095 30.7428 34.7238 30.9142 34.7809 31.0856C34.8381 30.7047 34.6857 30.3047 34.3619 30.057L33.9238 29.6951C33.4285 29.2951 32.7238 29.3904 32.3238 29.8666L28.2857 34.8951L23.2571 30.857C22.7619 30.457 22.0571 30.5523 21.6571 31.0285L21.2952 31.4666C21.0285 31.7904 20.9904 32.2094 21.1238 32.5713C21.1809 32.3808 21.2571 32.2094 21.3904 32.038Z" fill="url(#paint6_linear)"/>
<path d="M46.7616 23.8475C46.8378 22.6285 48.1901 21.9427 50.4568 22.057C52.3806 22.1713 56.552 23.4666 59.2568 27.3713C59.752 28.0951 58.9139 28.4189 58.3997 27.9427C56.6854 26.3237 51.9997 24.0951 48.2282 24.2856C46.7235 24.3999 46.7616 23.8475 46.7616 23.8475Z" fill="url(#paint7_linear)"/>
<path d="M44.4568 40.6858L49.4853 36.6477L45.4472 31.6191C45.0472 31.1239 45.1425 30.4191 45.6187 30.0191L46.0568 29.6572C46.552 29.2572 47.2568 29.3524 47.6568 29.8286L51.6949 34.8572L56.7234 30.8191C57.2187 30.4191 57.9234 30.5143 58.3234 30.9905L58.6853 31.4286C59.0853 31.9239 58.9901 32.6286 58.5139 33.0286L53.4853 37.0667L57.5234 42.0953C57.9234 42.5905 57.8282 43.2953 57.352 43.6953L56.9139 44.0572C56.4187 44.4572 55.7139 44.362 55.3139 43.8858L51.2758 38.8572L46.2472 42.8953C45.752 43.2953 45.0472 43.2001 44.6472 42.7239L44.2853 42.2858C43.8853 41.7905 43.9615 41.0667 44.4568 40.6858Z" fill="url(#paint8_radial)"/>
<path d="M58.6088 32.038L58.2469 31.638C57.8469 31.1808 57.1421 31.1047 56.6469 31.4666L51.6755 35.0666L47.5993 30.4761C47.1993 30.0189 46.4945 29.9428 45.9993 30.3047L45.5612 30.6285C45.3898 30.7428 45.2755 30.9142 45.2183 31.0856C45.1612 30.7047 45.3136 30.3047 45.6374 30.057L46.0755 29.6951C46.5707 29.2951 47.2755 29.3904 47.6755 29.8666L51.7136 34.8951L56.7421 30.857C57.2374 30.457 57.9421 30.5523 58.3421 31.0285L58.7041 31.4666C58.9707 31.7904 59.0088 32.2094 58.8755 32.5713C58.8183 32.3808 58.7421 32.2094 58.6088 32.038Z" fill="url(#paint9_linear)"/>
<defs>
<radialGradient id="paint0_radial" cx="0" cy="0" r="1" gradientUnits="userSpaceOnUse" gradientTransform="translate(34.0037 27.649) scale(36.7656)">
<stop stop-color="#FFE030"/>
<stop offset="1" stop-color="#FFB92E"/>
</radialGradient>
<radialGradient id="paint1_radial" cx="0" cy="0" r="1" gradientUnits="userSpaceOnUse" gradientTransform="translate(34.0037 27.649) scale(28.9251)">
<stop stop-color="#FFEA5F"/>
<stop offset="1" stop-color="#FFBC47" stop-opacity="0"/>
</radialGradient>
<linearGradient id="paint2_linear" x1="26.9603" y1="26.2461" x2="26.7802" y2="23.0399" gradientUnits="userSpaceOnUse">
<stop offset="0.00132565" stop-color="#3C2200"/>
<stop offset="1" stop-color="#7A4400"/>
</linearGradient>
<radialGradient id="paint3_radial" cx="0" cy="0" r="1" gradientUnits="userSpaceOnUse" gradientTransform="translate(39.5437 55.5676) rotate(70.3541) scale(7.43838 5.70601)">
<stop offset="0.00132565" stop-color="#7A4400"/>
<stop offset="1" stop-color="#643800"/>
</radialGradient>
<linearGradient id="paint4_linear" x1="39.9999" y1="46.3644" x2="39.9999" y2="56.1686" gradientUnits="userSpaceOnUse">
<stop offset="0.00132565" stop-color="#3C2200"/>
<stop offset="1" stop-color="#512D00"/>
</linearGradient>
<radialGradient id="paint5_radial" cx="0" cy="0" r="1" gradientUnits="userSpaceOnUse" gradientTransform="translate(28.7571 37.2249) rotate(83.7101) scale(8.72177 6.15875)">
<stop offset="0.00132565" stop-color="#7A4400"/>
<stop offset="1" stop-color="#643800"/>
</radialGradient>
<linearGradient id="paint6_linear" x1="21.1937" y1="33.2931" x2="34.9025" y2="31.7829" gradientUnits="userSpaceOnUse">
<stop offset="0.00132565" stop-color="#3C2200"/>
<stop offset="1" stop-color="#512D00"/>
</linearGradient>
<linearGradient id="paint7_linear" x1="53.0388" y1="26.2461" x2="53.219" y2="23.0399" gradientUnits="userSpaceOnUse">
<stop offset="0.00132565" stop-color="#3C2200"/>
<stop offset="1" stop-color="#7A4400"/>
</linearGradient>
<radialGradient id="paint8_radial" cx="0" cy="0" r="1" gradientUnits="userSpaceOnUse" gradientTransform="translate(51.2429 37.2251) rotate(96.29) scale(8.72177 6.15876)">
<stop offset="0.00132565" stop-color="#7A4400"/>
<stop offset="1" stop-color="#643800"/>
</radialGradient>
<linearGradient id="paint9_linear" x1="58.8058" y1="33.2927" x2="45.0969" y2="31.7825" gradientUnits="userSpaceOnUse">
<stop offset="0.00132565" stop-color="#3C2200"/>
<stop offset="1" stop-color="#512D00"/>
</linearGradient>
</defs>
</svg>
