<svg width="24" height="24" viewBox="0 0 24 24" fill="none" xmlns="http://www.w3.org/2000/svg">
<path d="M20.3258 3.69736L18.7772 3.02307C17.9029 2.64593 16.8858 2.88022 16.2629 3.60022C14.6572 5.46879 11.0858 9.00022 5.64578 11.0345C3.36578 11.7316 1.71436 13.8459 1.71436 16.3488C1.71436 19.4116 4.20007 21.8974 7.26293 21.8974C10.7144 21.8974 15.6972 18.7259 20.9486 6.7545L20.3258 3.69736Z" fill="url(#paint0_radial)"/>
<path d="M14.1544 12.5031C12.6801 17.9431 7.93721 19.5431 5.8915 17.7831C4.40007 16.4974 4.56007 13.3831 5.79436 10.9774C5.74293 11.0003 5.6915 11.0174 5.63436 11.0403C3.36578 11.7317 1.71436 13.846 1.71436 16.3488C1.71436 19.4117 4.20007 21.8974 7.26293 21.8974C10.7144 21.8974 15.6972 18.726 20.9486 6.75455L20.3258 3.70312C19.3372 4.34312 15.6286 7.06312 14.1544 12.5031Z" fill="url(#paint1_radial)"/>
<path opacity="0.5" d="M20.9486 6.74859L20.5829 4.9543C19.4858 4.1543 18.5315 4.01144 18.7829 6.26287C19.3258 11.1086 14.7429 16.0514 11.3315 18.5543C7.92007 21.0572 3.11436 21.0743 1.7715 15.5543C1.7315 15.8114 1.71436 16.08 1.71436 16.3486C1.71436 19.4114 4.20007 21.8972 7.26293 21.8972C10.7144 21.8972 15.6972 18.7257 20.9486 6.74859Z" fill="url(#paint2_radial)"/>
<path opacity="0.75" d="M20.3258 3.69736L18.7772 3.02307C17.9029 2.64593 16.8858 2.88022 16.2629 3.60022C14.6572 5.46879 11.0858 9.00022 5.64578 11.0345C3.36578 11.7316 1.71436 13.8459 1.71436 16.3488C1.71436 19.4116 4.20007 21.8974 7.26293 21.8974C10.7144 21.8974 15.6972 18.7259 20.9486 6.7545L20.3258 3.69736Z" fill="url(#paint3_radial)"/>
<path opacity="0.75" d="M20.3258 3.69736L18.7772 3.02307C17.9029 2.64593 16.8858 2.88022 16.2629 3.60022C14.6572 5.46879 11.0858 9.00022 5.64578 11.0345C3.36578 11.7316 1.71436 13.8459 1.71436 16.3488C1.71436 19.4116 4.20007 21.8974 7.26293 21.8974C10.7144 21.8974 15.6972 18.7259 20.9486 6.7545L20.3258 3.69736Z" fill="url(#paint4_radial)"/>
<path d="M22.0801 2.5145L22.2744 2.7945C22.2744 2.7945 21.8458 3.7145 20.6344 4.78878L19.543 3.4345C19.543 3.4345 20.9544 2.96592 21.4858 2.14307L22.0801 2.5145Z" fill="url(#paint5_linear)"/>
<path d="M21.4859 2.14307C21.4574 2.18878 21.4231 2.2345 21.3888 2.2745C21.4059 2.3545 21.4802 2.41164 21.5259 2.49164C21.6059 2.62307 21.7717 2.77735 21.6174 3.0345C21.4631 3.29164 21.3488 3.5945 20.4517 3.69164L20.7488 4.68021C21.8745 3.65164 22.2745 2.7945 22.2745 2.7945L22.0802 2.5145L21.4859 2.14307Z" fill="url(#paint6_linear)"/>
<path d="M20.326 3.69736L18.7774 3.02307C17.9031 2.64593 16.886 2.88022 16.2631 3.60022C15.8574 4.0745 15.326 4.65165 14.6746 5.28022C14.7831 5.34879 15.046 5.26308 15.1088 5.24022C15.806 5.0345 16.1031 5.05736 16.7031 4.9545C16.2574 5.72593 16.206 7.05736 16.1317 7.97736C16.1317 8.00593 16.1603 8.02308 16.1831 8.00593C16.7431 7.49736 18.1088 7.1145 19.5088 6.38308C19.3831 7.42308 19.6688 8.49736 19.7203 9.41736C20.1317 8.57736 20.5431 7.69165 20.9546 6.74879L20.326 3.69736Z" fill="#391838"/>
<path d="M20.1889 4.58315C18.6917 6.25743 19.7717 8.46886 19.4803 9.96601C19.4631 10.0517 19.5603 10.1146 19.6289 10.0632C20.2346 9.61744 21.8974 8.21743 21.7717 6.33743C21.686 5.04029 20.4631 3.01172 20.4631 3.01172L20.1889 4.58315Z" fill="url(#paint7_linear)"/>
<path d="M21.7773 6.33723C21.7316 5.63438 21.3488 4.71438 21.0116 4.02295L21.0059 5.27438C21.0859 5.61723 20.7659 6.68581 20.5488 6.96581C20.3316 7.24009 20.7488 7.13723 21.1488 6.35438C21.5488 5.57152 21.1031 7.48009 20.5773 7.87438C20.1773 8.17723 20.4916 8.37723 21.2573 7.51438C21.8459 6.85152 21.3145 8.13723 20.6002 8.67438C20.2402 8.94295 20.8802 8.84581 21.1659 8.46295C21.5545 7.86295 21.8288 7.14295 21.7773 6.33723Z" fill="url(#paint8_linear)"/>
<path d="M20.0458 8.25126C20.0458 6.99411 20.1373 6.47411 20.4458 5.98269C20.7144 5.55411 21.303 5.06269 21.3144 4.68554C21.2573 4.55412 21.2001 4.42269 21.143 4.29697C20.9544 4.15983 20.6058 4.2284 20.2287 4.38269L20.1944 4.58269C18.6916 6.26269 19.7887 8.48554 19.4858 9.98268C19.4744 10.0341 19.543 10.057 19.5658 10.017C19.743 9.72554 20.0458 9.11983 20.0458 8.25126Z" fill="url(#paint9_linear)"/>
<path d="M19.9832 3.84024C21.0289 3.38881 21.3032 2.9431 21.4174 2.71453C21.5317 2.49167 21.3317 2.3431 21.1774 2.5031C20.7374 2.96024 20.3889 3.05167 20.2232 3.12024C20.0574 3.20024 19.9832 3.84024 19.9832 3.84024Z" fill="url(#paint10_linear)"/>
<path d="M22.0801 2.5145L22.2744 2.7945C22.2744 2.7945 21.8458 3.7145 20.6344 4.78878L19.543 3.4345C19.543 3.4345 20.9544 2.96592 21.4858 2.14307L22.0801 2.5145Z" fill="url(#paint11_linear)"/>
<path d="M21.4802 2.14303C21.4173 2.22303 21.6916 2.3316 21.823 2.44589C21.9602 2.56017 22.2116 2.86875 22.2745 2.78875C22.3373 2.70875 22.1202 2.39446 22.023 2.29732C21.8802 2.15446 21.543 2.06303 21.4802 2.14303Z" fill="url(#paint12_linear)"/>
<path d="M21.4802 2.14303C21.4173 2.22303 21.6916 2.3316 21.823 2.44589C21.9602 2.56017 22.2116 2.86875 22.2745 2.78875C22.3373 2.70875 22.1202 2.39446 22.023 2.29732C21.8802 2.15446 21.543 2.06303 21.4802 2.14303Z" fill="url(#paint13_linear)"/>
<path d="M14.2859 5.05729C14.3202 5.09158 14.3716 5.10872 14.5316 5.08586C14.5945 5.07443 14.663 5.06301 14.7487 5.02872C15.7773 4.66872 16.4059 4.82872 17.3259 4.54301C18.1087 4.30301 18.943 3.82301 19.4573 3.70872C19.9716 3.59443 20.4059 2.97729 20.4059 2.97729C20.4059 2.97729 18.263 1.68015 16.5087 2.75443C15.4116 3.42872 14.9316 4.17158 14.7316 4.64015C14.6059 4.92015 14.2859 5.05729 14.2859 5.05729Z" fill="url(#paint14_linear)"/>
<path d="M19.4516 3.71448C19.9659 3.60019 20.4002 2.98305 20.4002 2.98305C20.4002 2.98305 20.0916 2.79448 19.6173 2.62305C18.1202 2.8459 17.2802 3.5259 16.8859 3.95447C16.6916 4.1659 16.4402 4.32019 16.1544 4.37733C15.1602 4.58876 14.5259 5.09162 14.5259 5.09162C14.6173 5.08019 14.6916 5.05733 14.743 5.03447C15.7716 4.69162 16.4002 4.83447 17.3202 4.54876C18.1087 4.30876 18.943 3.82876 19.4516 3.71448Z" fill="url(#paint15_linear)"/>
<path d="M15.9489 7.26879C15.926 7.28593 15.8975 7.26879 15.8975 7.24021C16.0917 5.57164 16.5889 4.05164 18.4689 3.09736C19.7089 2.46878 20.966 3.08021 20.966 3.08021C21.366 3.3145 21.7775 4.77736 19.9489 5.92593C18.4575 6.86879 16.3432 6.98307 15.9489 7.26879Z" fill="url(#paint16_linear)"/>
<path d="M20.966 3.08008C21.6802 4.45722 19.1888 6.06294 17.9831 6.30865C17.0345 6.50294 16.2574 6.97722 16.0002 7.24008C16.486 6.97722 18.5088 6.83437 19.9545 5.92579C21.7774 4.77722 21.366 3.31436 20.966 3.08008Z" fill="url(#paint17_linear)"/>
<path d="M21.0688 3.16605C21.0345 3.12605 21.0002 3.09747 20.966 3.08033C20.966 3.08033 20.6174 2.9089 20.1031 2.84033C18.1717 3.6289 16.9203 5.20605 16.4974 6.04605C15.9831 7.06319 16.8688 5.77748 17.2917 5.45748C17.7145 5.13748 18.3774 5.00605 18.8231 5.07462C19.2688 5.14319 18.6974 4.82319 18.1545 4.80033C17.6117 4.77748 18.7717 4.27462 19.446 4.4689C20.1202 4.6689 19.6517 4.04033 18.8402 4.09176C18.1374 4.14319 19.7945 3.41176 21.0688 3.16605Z" fill="url(#paint18_linear)"/>
<path d="M16.5029 2.7543C15.4858 3.37716 15.0001 4.06859 14.7715 4.53716C14.8001 4.70859 14.8686 4.76573 14.9486 4.53716C15.1201 4.05144 15.8515 3.25144 15.7601 3.57144C15.6686 3.89144 15.5943 4.53144 15.7886 4.02287C15.9829 3.5143 16.9029 2.54859 16.6458 3.17144C16.3886 3.7943 16.4172 3.97144 16.8286 3.34287C17.2401 2.7143 18.2115 2.24001 17.9201 2.64001C17.6286 3.04002 17.7486 3.1943 18.0115 2.90287C18.1658 2.73144 18.4515 2.52001 18.7715 2.40001C18.0858 2.26859 17.2572 2.29144 16.5029 2.7543Z" fill="url(#paint19_linear)"/>
<g opacity="0.24">
<path opacity="0.24" d="M21.5373 2.54302C21.3487 2.5773 21.2745 2.7773 21.0745 2.7373C21.1602 2.50873 21.2802 2.45159 21.5373 2.54302Z" fill="#4B8C1C"/>
<path opacity="0.24" d="M19.2803 5.62303C19.2174 5.50874 19.1374 5.39446 19.2746 5.26874C19.3088 5.23446 19.3088 5.16588 19.3317 5.10303C19.4917 5.30303 19.3031 5.4516 19.2803 5.62303Z" fill="#4B8C1C"/>
<path opacity="0.24" d="M17.2746 2.75439C17.3603 2.81154 17.4232 2.85725 17.4803 2.89725C17.4289 2.94868 17.3718 3.00582 17.3146 3.06297C17.246 2.93725 17.246 2.93725 17.2746 2.75439Z" fill="#4B8C1C"/>
<path opacity="0.24" d="M15.8687 4.55984C15.8459 4.57127 15.823 4.59413 15.8001 4.60556C15.7316 4.63984 15.6573 4.69698 15.6001 4.61698C15.543 4.5427 15.6401 4.51984 15.6744 4.47984C15.7487 4.38841 15.8059 4.44556 15.8573 4.50841C15.863 4.51984 15.863 4.53698 15.8687 4.55984Z" fill="#4B8C1C"/>
<path opacity="0.24" d="M16.486 6.70296C16.4117 6.74867 16.366 6.77153 16.3203 6.80582C16.2803 6.83439 16.2517 6.8801 16.2174 6.91439C16.1717 6.89153 16.1146 6.85725 16.0688 6.82867C16.2974 6.6801 16.2974 6.6801 16.486 6.70296Z" fill="#4B8C1C"/>
<path opacity="0.24" d="M21.1316 5.96589C21.1773 5.86875 21.2231 5.77732 21.2631 5.68018C21.2745 5.68589 21.2859 5.6916 21.2973 5.69732C21.2688 5.8116 21.2345 5.92589 21.2002 6.06303C21.1202 6.04017 21.0402 6.01732 20.9602 5.98875C20.9602 5.97732 20.9659 5.96589 20.9659 5.95446C21.0288 5.96017 21.0859 5.96589 21.1316 5.96589Z" fill="#4B8C1C"/>
<path opacity="0.24" d="M20.6116 8.26889C20.4459 8.40032 20.6745 8.5146 20.6002 8.65746C20.5602 8.62889 20.4974 8.60603 20.4859 8.57175C20.4631 8.5146 20.4631 8.44032 20.4631 8.37746C20.4574 8.28603 20.5088 8.26317 20.6116 8.26889Z" fill="#4B8C1C"/>
<path opacity="0.24" d="M20.1487 2.88574C20.2344 2.9486 20.2572 3.03431 20.1944 3.09717C20.1372 3.1486 20.0458 3.15431 19.9658 3.0686C20.023 3.00574 20.0858 2.9486 20.1487 2.88574Z" fill="#4B8C1C"/>
<path opacity="0.24" d="M21.0403 5.5658C21.0918 5.5258 21.1432 5.49151 21.2061 5.4458C21.2575 5.5258 21.3032 5.60009 21.3489 5.67437C21.3661 5.66866 21.3775 5.65723 21.3946 5.65151C21.3603 5.65723 21.3089 5.6858 21.2861 5.66866C21.2118 5.61151 21.1432 5.56009 21.0232 5.65723C21.0289 5.62866 21.0346 5.60009 21.0403 5.5658Z" fill="#4B8C1C"/>
<path opacity="0.24" d="M18.2404 3.75444C18.1947 3.82301 18.149 3.88586 18.0918 3.96586C18.0518 3.93729 18.0118 3.90872 17.9775 3.88015C18.0804 3.71444 18.0804 3.71444 18.2404 3.75444Z" fill="#4B8C1C"/>
<path opacity="0.24" d="M20.2572 5.61713C20.1772 5.51427 20.103 5.4057 19.9944 5.26855C20.1258 5.29713 20.223 5.2857 20.2287 5.42855C20.2287 5.47998 20.2744 5.53141 20.2972 5.58284C20.2858 5.58855 20.2744 5.6057 20.2572 5.61713Z" fill="#4B8C1C"/>
<path opacity="0.24" d="M18.2859 4.47998C18.423 4.74855 18.423 4.74855 18.2859 4.81712C18.2859 4.70284 18.2859 4.58855 18.2859 4.47998Z" fill="#4B8C1C"/>
<path opacity="0.24" d="M21.7145 3.30318C21.6403 3.25175 21.5888 3.2346 21.5774 3.20032C21.5488 3.12603 21.5374 3.05175 21.526 2.97175C21.5203 2.94889 21.5317 2.92032 21.5374 2.89746C21.566 2.9146 21.606 2.92603 21.6117 2.94889C21.646 3.04603 21.6688 3.14889 21.7145 3.30318Z" fill="#4B8C1C"/>
<path opacity="0.24" d="M17.9087 5.81745C18.023 5.64031 18.023 5.64031 18.1773 5.68031C18.1258 5.84603 18.1258 5.84603 17.9087 5.81745Z" fill="#4B8C1C"/>
<path opacity="0.24" d="M20.2802 8.39453C20.2916 8.51453 20.2288 8.5831 20.143 8.64025C20.1145 8.65739 20.0745 8.65739 20.0402 8.65168C20.023 8.64596 20.0002 8.59453 20.0116 8.57739C20.023 8.55453 20.063 8.53739 20.0916 8.52596C20.1773 8.50882 20.1773 8.50882 20.2802 8.39453Z" fill="#4B8C1C"/>
<path opacity="0.24" d="M17.4003 5.26864C17.2803 5.10864 17.3031 5.0515 17.5203 4.92578C17.4803 5.04007 17.446 5.14292 17.4003 5.26864Z" fill="#4B8C1C"/>
<path opacity="0.24" d="M20.823 7.41764C20.8344 7.39478 20.8401 7.38335 20.8459 7.38335C20.9316 7.33764 21.0001 7.34907 21.0516 7.43478C21.0573 7.44621 21.0459 7.4805 21.0344 7.49193C20.9316 7.55478 20.8801 7.48621 20.823 7.41764Z" fill="#4B8C1C"/>
<path opacity="0.24" d="M18.2574 5.01172C18.2402 5.11458 18.2402 5.19458 18.1374 5.22315C18.1145 5.22886 18.0631 5.22315 18.0631 5.21743C18.0574 5.18315 18.0517 5.13172 18.0688 5.12029C18.1202 5.07458 18.1774 5.05172 18.2574 5.01172Z" fill="#4B8C1C"/>
<path opacity="0.24" d="M19.9317 6.82293C19.7659 6.92579 19.7374 6.91436 19.6631 6.71436C19.7602 6.75436 19.8459 6.78864 19.9317 6.82293Z" fill="#4B8C1C"/>
<path opacity="0.24" d="M20.9144 4.79439C20.9144 4.83439 20.9201 4.87439 20.9144 4.91439C20.9087 4.95439 20.8916 4.98868 20.8744 5.02296C20.8744 5.02868 20.823 5.01725 20.8173 5.00582C20.8001 4.96582 20.783 4.92011 20.7887 4.88582C20.8001 4.84011 20.8344 4.80011 20.863 4.75439C20.8859 4.77154 20.903 4.78297 20.9144 4.79439Z" fill="#4B8C1C"/>
<path opacity="0.24" d="M16.0116 3.87451C16.0573 3.96023 16.0973 4.03451 16.1373 4.1088C15.9773 4.13165 15.9373 4.06308 16.0116 3.87451Z" fill="#4B8C1C"/>
<path opacity="0.24" d="M18.7832 3.07434C18.766 3.04576 18.7317 3.01148 18.7375 2.98291C18.7432 2.94862 18.7946 2.88576 18.8003 2.89148C18.8517 2.91434 18.8975 2.94862 18.9432 2.98291C18.8917 3.01148 18.8403 3.04005 18.7832 3.07434Z" fill="#4B8C1C"/>
<path opacity="0.24" d="M20.7488 5.77708C20.6916 5.80566 20.6345 5.83423 20.5773 5.8628C20.5488 5.82851 20.4916 5.7828 20.5659 5.73708C20.6288 5.7028 20.7202 5.63994 20.743 5.7828L20.7488 5.77708Z" fill="#4B8C1C"/>
<path opacity="0.24" d="M20.6117 4.22886C20.6346 4.246 20.6689 4.26314 20.6746 4.286C20.686 4.32029 20.6746 4.366 20.6689 4.406C20.6346 4.40029 20.5946 4.41172 20.5717 4.39457C20.5089 4.36029 20.526 4.31457 20.5717 4.26886C20.5889 4.25172 20.606 4.24029 20.6174 4.22314L20.6117 4.22886Z" fill="#4B8C1C"/>
<path opacity="0.24" d="M20.12 7.646C20.1772 7.70314 20.2057 7.73742 20.2457 7.77742C20.2172 7.80028 20.1943 7.82885 20.1715 7.82885C20.1372 7.83457 20.1029 7.81742 20.0686 7.81171C20.08 7.76028 20.0972 7.71457 20.12 7.646Z" fill="#4B8C1C"/>
<path opacity="0.24" d="M19.7261 8.97167C19.7489 8.92595 19.7546 8.89738 19.7775 8.88595C19.8232 8.85738 19.8689 8.84024 19.9146 8.81738C19.9146 8.81738 19.9375 8.84595 19.9318 8.85167C19.8975 8.89167 19.8632 8.93738 19.8232 8.97167C19.8118 8.97738 19.7775 8.96595 19.7261 8.97167Z" fill="#4B8C1C"/>
<path opacity="0.24" d="M19.5715 4.76596C19.6001 4.62881 19.6001 4.62881 19.7601 4.60596C19.6801 4.68024 19.623 4.72024 19.5715 4.76596Z" fill="#4B8C1C"/>
<path opacity="0.24" d="M16.0116 3.41166C15.9716 3.36023 15.9373 3.33738 15.9258 3.30309C15.9201 3.29166 15.9601 3.24023 15.983 3.24023C16.0116 3.24023 16.0687 3.26881 16.0687 3.28023C16.0687 3.32023 16.0401 3.35452 16.0116 3.41166Z" fill="#4B8C1C"/>
<path opacity="0.24" d="M17.2516 5.57715C17.3374 5.71429 17.2288 5.77715 17.1431 5.84572C17.1774 5.76001 17.2174 5.67429 17.2516 5.57715Z" fill="#4B8C1C"/>
<path opacity="0.24" d="M19.5888 5.94903C19.5488 5.99475 19.5202 6.02332 19.4916 6.05189C19.4688 6.02903 19.4173 6.00046 19.423 5.98903C19.4288 5.95475 19.4573 5.91475 19.4916 5.89761C19.503 5.89189 19.543 5.92618 19.5888 5.94903Z" fill="#4B8C1C"/>
<path opacity="0.24" d="M20.6175 4.03988C20.6118 3.94845 20.6632 3.93131 20.7261 3.9656C20.7832 3.99988 20.829 4.06274 20.9147 4.14274C20.7832 4.09702 20.6975 4.06274 20.6118 4.03417L20.6175 4.03988Z" fill="#4B8C1C"/>
<path opacity="0.24" d="M20.2404 5.97167C20.1261 5.98881 20.1089 5.90881 20.0632 5.81738C20.1889 5.8231 20.2461 5.86881 20.2347 5.97738L20.2404 5.97167Z" fill="#4B8C1C"/>
<path opacity="0.24" d="M17.5087 3.87439C17.3887 3.92582 17.3658 3.84011 17.303 3.75439C17.4344 3.78297 17.4344 3.78297 17.5087 3.87439Z" fill="#4B8C1C"/>
<path opacity="0.24" d="M17.5145 3.38879C17.4917 3.39451 17.4688 3.40593 17.4517 3.39451C17.4174 3.37736 17.3831 3.35451 17.3488 3.33165C17.3431 3.33165 17.3602 3.29736 17.3602 3.29736C17.4002 3.30308 17.4402 3.30879 17.4802 3.32022C17.5031 3.32593 17.5202 3.33736 17.5431 3.34879C17.5317 3.36022 17.526 3.37736 17.5145 3.38879Z" fill="#4B8C1C"/>
<path opacity="0.24" d="M16.743 6.30273C16.7601 6.31988 16.7659 6.32559 16.7659 6.33131C16.7544 6.38273 16.7487 6.43416 16.7373 6.4913C16.7259 6.48559 16.703 6.48559 16.6973 6.47987C16.6573 6.40559 16.6516 6.34845 16.743 6.30273Z" fill="#4B8C1C"/>
<path opacity="0.24" d="M21.3487 7.41162C21.3144 7.47448 21.2859 7.53162 21.2516 7.59448C21.2401 7.50876 21.1887 7.41162 21.3487 7.41162Z" fill="#4B8C1C"/>
<path opacity="0.24" d="M20.6917 7.0803C20.6974 7.06888 20.7031 7.05173 20.7088 7.04602C20.7545 7.01173 20.8059 6.98316 20.8517 6.95459C20.8574 6.96602 20.8745 6.98888 20.8688 6.98888C20.8174 7.03459 20.7717 7.07459 20.7202 7.1203C20.7088 7.10316 20.7031 7.09173 20.6917 7.0803Z" fill="#4B8C1C"/>
<path opacity="0.24" d="M20.3144 5.00575C20.3087 5.00575 20.2972 5.01147 20.2972 5.01147C20.2572 4.97718 20.2172 4.94861 20.1772 4.90861C20.1772 4.90861 20.2001 4.87432 20.2001 4.88004C20.2515 4.90289 20.2972 4.93147 20.343 4.96004C20.3315 4.97147 20.3258 4.98861 20.3144 5.00575Z" fill="#4B8C1C"/>
<path opacity="0.24" d="M20.5031 7.46875C20.4917 7.49161 20.4917 7.50304 20.486 7.50304C20.4345 7.51447 20.3831 7.52589 20.3374 7.53732C20.3374 7.52589 20.326 7.50875 20.3317 7.49732C20.3717 7.42304 20.4231 7.41161 20.5031 7.46875Z" fill="#4B8C1C"/>
<path opacity="0.24" d="M17.9317 6.48566C17.8689 6.5428 17.806 6.59994 17.7146 6.67994C17.7375 6.53708 17.8346 6.51423 17.8803 6.43994C17.9032 6.45137 17.9203 6.46851 17.9317 6.48566Z" fill="#4B8C1C"/>
<path opacity="0.24" d="M16.9375 4.19434C16.9318 4.28576 16.9261 4.34862 16.9203 4.45719C16.8118 4.33148 16.8061 4.26862 16.9375 4.19434Z" fill="#4B8C1C"/>
<path opacity="0.24" d="M15.1031 4.4917C15.1031 4.54884 15.1088 4.6117 15.1031 4.66884C15.0973 4.6917 15.0573 4.70313 15.0288 4.72027C15.0173 4.6917 14.9831 4.6517 14.9945 4.63456C15.0231 4.58313 15.0688 4.54313 15.1088 4.49741L15.1031 4.4917Z" fill="#4B8C1C"/>
<path opacity="0.24" d="M19.8345 6.4402C19.8802 6.3602 19.9259 6.2802 19.9716 6.2002L19.9659 6.20591C19.9888 6.23448 20.0116 6.25734 20.0345 6.28591C19.9659 6.33734 19.8973 6.38305 19.8345 6.43448V6.4402Z" fill="#4B8C1C"/>
<path opacity="0.24" d="M19.0118 6.28565C18.9661 6.31994 18.9318 6.3428 18.9032 6.36565C18.8918 6.3428 18.8632 6.30851 18.8689 6.29708C18.8803 6.26851 18.9146 6.23994 18.9432 6.2228C18.9489 6.21708 18.9775 6.25137 19.0118 6.28565Z" fill="#4B8C1C"/>
<path opacity="0.24" d="M19.0059 4.03457C18.9716 4.08028 18.943 4.126 18.8916 4.19457C18.8573 4.06314 18.8973 4.02314 19.0059 4.03457Z" fill="#4B8C1C"/>
<path opacity="0.24" d="M17.0059 4.75439C17.0344 4.78297 17.0573 4.81154 17.0744 4.84011C17.0802 4.84582 17.0402 4.88011 17.0402 4.88011C17.0116 4.85725 16.9773 4.83439 16.9487 4.80582C16.9659 4.79439 16.983 4.77725 17.0059 4.75439Z" fill="#4B8C1C"/>
<path opacity="0.24" d="M18.5716 2.85155C18.5373 2.81155 18.503 2.77155 18.4688 2.73155C18.4688 2.72584 18.4859 2.70869 18.4916 2.69727C18.5373 2.73155 18.583 2.76584 18.6287 2.80012C18.6116 2.81727 18.5887 2.83441 18.5716 2.85155Z" fill="#4B8C1C"/>
<path opacity="0.24" d="M17.6403 2.72607C17.6403 2.78893 17.6403 2.85179 17.6403 2.90893C17.5603 2.8175 17.5603 2.8175 17.6403 2.72607Z" fill="#4B8C1C"/>
<path opacity="0.24" d="M18.5315 3.86868C18.5829 3.82297 18.6229 3.78868 18.6686 3.75439C18.6801 3.78297 18.6972 3.79439 18.6915 3.80582C18.6743 3.87439 18.6515 3.93154 18.5315 3.86868Z" fill="#4B8C1C"/>
<path opacity="0.24" d="M15.1088 4.49729C15.1031 4.46871 15.0859 4.44014 15.0859 4.41157C15.0917 4.383 15.1088 4.34871 15.1259 4.32586C15.1317 4.32014 15.1831 4.33729 15.1831 4.343C15.1888 4.37729 15.1831 4.41157 15.1717 4.44014C15.1602 4.463 15.1259 4.47443 15.1031 4.49157L15.1088 4.49729Z" fill="#4B8C1C"/>
<path opacity="0.24" d="M20.3145 4.56568C20.2802 4.49711 20.2516 4.43425 20.2002 4.32568C20.3259 4.39425 20.3659 4.4514 20.3716 4.53711C20.3488 4.54854 20.3316 4.55425 20.3145 4.56568Z" fill="#4B8C1C"/>
<path opacity="0.24" d="M17.7373 6.36605C17.7659 6.31462 17.7773 6.27462 17.8002 6.26319C17.8173 6.25176 17.8516 6.26319 17.8802 6.2689C17.8687 6.30319 17.863 6.33748 17.8402 6.36605C17.8287 6.37176 17.7887 6.36605 17.7373 6.36605Z" fill="#4B8C1C"/>
<path opacity="0.24" d="M16.2859 5.90857C16.303 5.85715 16.3087 5.81715 16.3259 5.80572C16.3545 5.78857 16.3945 5.79429 16.4287 5.78857C16.4173 5.81715 16.4116 5.85715 16.3887 5.87429C16.3773 5.89143 16.3373 5.89143 16.2859 5.90857Z" fill="#4B8C1C"/>
<path opacity="0.24" d="M21.5544 5.9716C21.5087 5.96589 21.463 5.96017 21.423 5.94874C21.4172 5.94874 21.4172 5.90874 21.4172 5.8916C21.4687 5.8916 21.5201 5.8916 21.5715 5.8916C21.5658 5.92017 21.5601 5.94303 21.5544 5.9716Z" fill="#4B8C1C"/>
<path opacity="0.24" d="M20.7202 5.71473C20.7488 5.67473 20.7831 5.62901 20.8116 5.59473C20.8802 5.6233 20.8631 5.64616 20.7202 5.71473Z" fill="#4B8C1C"/>
<path opacity="0.24" d="M18.6688 4.45166C18.6231 4.5488 18.6003 4.60023 18.566 4.68023C18.5488 4.5488 18.5488 4.5488 18.6688 4.45166Z" fill="#4B8C1C"/>
<path opacity="0.24" d="M17.8118 3.05726C17.8632 3.00583 17.9146 2.96012 17.9661 2.90869C17.9775 2.92012 17.9889 2.92583 17.9946 2.93726C17.9432 2.98869 17.8918 3.04012 17.8461 3.09155C17.8346 3.08012 17.8232 3.06869 17.8118 3.05726Z" fill="#4B8C1C"/>
<path opacity="0.24" d="M19.3088 4.36026C19.2973 4.40026 19.2859 4.44026 19.2688 4.48026C19.2688 4.48597 19.2231 4.46883 19.2002 4.4574C19.2231 4.4174 19.2459 4.3774 19.2688 4.3374C19.2745 4.34883 19.2916 4.35455 19.3088 4.36026Z" fill="#4B8C1C"/>
<path opacity="0.24" d="M16.4517 3.98306C16.5031 3.90306 16.5374 3.85163 16.5831 3.77734C16.5945 3.91449 16.5945 3.91449 16.4517 3.98306Z" fill="#4B8C1C"/>
<path opacity="0.24" d="M21.4458 3.74854C21.5772 3.82854 21.4629 3.87425 21.4458 3.94282C21.4458 3.87996 21.4458 3.81139 21.4458 3.74854Z" fill="#4B8C1C"/>
<path opacity="0.24" d="M20.3774 3.89746C20.4117 3.93175 20.446 3.96603 20.4803 4.00603C20.4631 4.01746 20.4345 4.04032 20.4288 4.0346C20.3945 4.01175 20.366 3.97746 20.3374 3.94889C20.3431 3.93175 20.3603 3.9146 20.3774 3.89746Z" fill="#4B8C1C"/>
<path opacity="0.24" d="M19.3489 4.0918C19.3146 4.14894 19.2746 4.20608 19.2403 4.26323C19.2232 4.14894 19.2232 4.14894 19.3546 4.09751C19.3546 4.09751 19.3489 4.0918 19.3489 4.0918Z" fill="#4B8C1C"/>
<path opacity="0.24" d="M20.9829 6.73717C21.0515 6.71432 21.0972 6.69717 21.1601 6.67432C21.1029 6.77146 21.1029 6.77146 20.9829 6.73717Z" fill="#4B8C1C"/>
<path opacity="0.24" d="M19.7944 5.47998C19.8459 5.51427 19.903 5.54855 19.9716 5.59427C19.8402 5.63427 19.8116 5.56569 19.7659 5.51427C19.7773 5.50284 19.7887 5.49141 19.7944 5.47998Z" fill="#4B8C1C"/>
<path opacity="0.24" d="M20.7203 3.09712C20.6975 3.03998 20.5375 2.99426 20.7032 2.90283C20.7089 2.97712 20.7146 3.03998 20.7203 3.09712Z" fill="#4B8C1C"/>
<path opacity="0.24" d="M18.4344 5.2002C18.4344 5.25162 18.4287 5.30305 18.4287 5.38305C18.343 5.30305 18.3316 5.25162 18.4344 5.2002Z" fill="#4B8C1C"/>
<path opacity="0.24" d="M18.5487 6.35436C18.5087 6.37722 18.4687 6.39436 18.4287 6.4115L18.4001 6.36007C18.4344 6.3315 18.4744 6.31436 18.5087 6.2915C18.5259 6.31436 18.5373 6.3315 18.5487 6.35436Z" fill="#4B8C1C"/>
<path opacity="0.24" d="M20.3545 8.17752C20.3888 8.13181 20.4173 8.08038 20.4516 8.03467C20.4631 8.0461 20.4859 8.05752 20.4859 8.05752C20.4573 8.10324 20.4288 8.15467 20.4002 8.20038C20.3888 8.19467 20.3716 8.18324 20.3545 8.17752Z" fill="#4B8C1C"/>
<path opacity="0.24" d="M19.3831 3.78285C19.3888 3.73713 19.3945 3.68571 19.4059 3.63428C19.4688 3.69142 19.4688 3.69142 19.3831 3.78285Z" fill="#4B8C1C"/>
<path opacity="0.24" d="M19.686 3.38867C19.6975 3.43439 19.7146 3.46296 19.7089 3.4801C19.7032 3.50296 19.6746 3.51439 19.6517 3.53153C19.6403 3.50867 19.6117 3.48582 19.6174 3.46296C19.6174 3.4401 19.6517 3.42296 19.686 3.38867Z" fill="#4B8C1C"/>
<path opacity="0.24" d="M19.9829 3.45163C19.9315 3.44591 19.8858 3.4402 19.8286 3.43448C19.9029 3.33734 19.9029 3.33734 19.9772 3.45734L19.9829 3.45163Z" fill="#4B8C1C"/>
<path opacity="0.24" d="M21.5087 3.42304C21.4858 3.37161 21.4687 3.32018 21.4458 3.26875C21.4687 3.26304 21.4915 3.25732 21.4915 3.25732C21.5087 3.30875 21.5258 3.36018 21.5429 3.41161C21.5315 3.41733 21.5201 3.41733 21.5087 3.42304Z" fill="#4B8C1C"/>
<path opacity="0.24" d="M18.1318 3.32014C18.0918 3.303 18.0575 3.29157 18.0232 3.26871C18.0232 3.26871 18.0346 3.23443 18.0461 3.21729C18.0861 3.23443 18.1203 3.25157 18.1603 3.26871C18.1432 3.29157 18.1375 3.303 18.1318 3.32014Z" fill="#4B8C1C"/>
<path opacity="0.24" d="M16.3201 3.28572C16.2915 3.26287 16.2629 3.24001 16.2629 3.2343C16.2744 3.20572 16.2972 3.17715 16.3144 3.1543C16.3315 3.16573 16.3601 3.18287 16.3601 3.18858C16.3544 3.21715 16.3372 3.24572 16.3201 3.28572Z" fill="#4B8C1C"/>
<path opacity="0.24" d="M19.4059 3.05182C19.3716 3.0804 19.3545 3.09754 19.3373 3.11468C19.3145 3.08611 19.2916 3.06325 19.2802 3.03468C19.2745 3.02325 19.3087 3.0004 19.3202 2.97754C19.343 3.0004 19.3716 3.01754 19.4059 3.05182Z" fill="#4B8C1C"/>
<path opacity="0.24" d="M17.863 5.90303C17.9088 5.90303 17.9602 5.89732 18.023 5.8916C17.9488 5.97732 17.9488 5.97732 17.863 5.90303Z" fill="#4B8C1C"/>
<path opacity="0.24" d="M17.4688 4.52558C17.3945 4.54844 17.3373 4.56558 17.2573 4.58273C17.3145 4.47987 17.3716 4.4513 17.4688 4.52558Z" fill="#4B8C1C"/>
<path opacity="0.24" d="M20.366 7.25157C20.4117 7.24014 20.4517 7.22871 20.4974 7.21729C20.5031 7.23443 20.5088 7.24586 20.5088 7.263C20.4688 7.28014 20.4231 7.29728 20.3831 7.31443C20.3774 7.29157 20.3717 7.26871 20.366 7.25157Z" fill="#4B8C1C"/>
<path opacity="0.24" d="M16.3657 6.47404C16.3257 6.46833 16.3029 6.46833 16.28 6.46262C16.2857 6.44547 16.2857 6.4169 16.2972 6.41119C16.32 6.39976 16.3486 6.39976 16.3772 6.39404C16.3715 6.4169 16.3715 6.43976 16.3657 6.47404Z" fill="#4B8C1C"/>
<path opacity="0.24" d="M16.343 4.53163C16.3259 4.5602 16.3201 4.57734 16.3144 4.58306C16.2916 4.60592 16.263 4.62306 16.2401 4.64592C16.2344 4.63449 16.2173 4.61163 16.2173 4.61163C16.2459 4.58306 16.2744 4.55449 16.3087 4.53163C16.3087 4.52592 16.3144 4.52592 16.343 4.53163Z" fill="#4B8C1C"/>
<path opacity="0.24" d="M16.8172 3.15439C16.6972 3.17153 16.6515 3.10296 16.6172 2.96582C16.7029 3.05153 16.76 3.10868 16.8172 3.16582C16.8172 3.16011 16.8172 3.15439 16.8172 3.15439Z" fill="#4B8C1C"/>
<path opacity="0.24" d="M20.3088 6.73736C20.2916 6.78879 20.2745 6.84021 20.2516 6.90879C20.2345 6.8745 20.2173 6.85736 20.223 6.84021C20.2345 6.80021 20.2573 6.76021 20.2745 6.72021C20.2859 6.72593 20.2973 6.73164 20.3088 6.73736Z" fill="#4B8C1C"/>
<path opacity="0.24" d="M19.903 9.45142C19.8801 9.48571 19.863 9.51428 19.8401 9.54857C19.823 9.53714 19.8059 9.52571 19.7944 9.51428C19.8173 9.48571 19.8401 9.45142 19.863 9.42285C19.8744 9.43428 19.8916 9.44571 19.903 9.45142Z" fill="#4B8C1C"/>
<path opacity="0.24" d="M16.8174 3.16002C16.8688 3.10288 16.9202 3.05716 17.0174 3.13145C16.9488 3.17716 16.886 3.17145 16.8174 3.1543V3.16002Z" fill="#4B8C1C"/>
<path opacity="0.24" d="M18.8345 5.49694C18.7945 5.52551 18.7717 5.54265 18.7431 5.5598C18.7431 5.5598 18.7088 5.52551 18.7145 5.5198C18.7259 5.49122 18.7488 5.46265 18.7659 5.43408C18.7831 5.45122 18.8002 5.46837 18.8345 5.49694Z" fill="#4B8C1C"/>
<path opacity="0.24" d="M18.7488 4.46875C18.7602 4.40018 18.7716 4.3259 18.7831 4.25732C18.8002 4.25732 18.8116 4.26304 18.8288 4.26304C18.8174 4.33161 18.8116 4.4059 18.8002 4.47447C18.7831 4.46875 18.7659 4.46875 18.7488 4.46875Z" fill="#4B8C1C"/>
<path opacity="0.24" d="M19.0916 5.76573C19.1316 5.7543 19.1773 5.74287 19.2173 5.73145C19.223 5.74859 19.2287 5.76002 19.2287 5.77716C19.1887 5.78859 19.1487 5.80573 19.1087 5.81716C19.103 5.80002 19.0973 5.78287 19.0916 5.76573Z" fill="#4B8C1C"/>
<path opacity="0.24" d="M19.6802 7.33726C19.6402 7.34869 19.6116 7.36583 19.6059 7.3544C19.583 7.33155 19.5716 7.30298 19.5544 7.2744C19.5716 7.2744 19.6002 7.26298 19.6116 7.26869C19.6344 7.28012 19.6516 7.30298 19.6802 7.33726Z" fill="#4B8C1C"/>
<path opacity="0.24" d="M21.1829 5.94275C21.1601 5.90847 21.1315 5.87418 21.1086 5.8399C21.1201 5.83418 21.1429 5.82275 21.1429 5.82275C21.1715 5.85133 21.1944 5.8799 21.2229 5.91418C21.2058 5.9199 21.1944 5.93132 21.1829 5.94275Z" fill="#4B8C1C"/>
<path opacity="0.24" d="M17.9775 4.20001C17.9375 4.22287 17.9032 4.24001 17.8632 4.26287C17.8575 4.25144 17.846 4.24001 17.8403 4.2343C17.8746 4.20573 17.9089 4.18287 17.9489 4.1543C17.9546 4.16573 17.966 4.18287 17.9775 4.20001Z" fill="#4B8C1C"/>
<path opacity="0.24" d="M19.7602 7.01172C19.783 7.08029 19.8002 7.12601 19.8287 7.20601C19.743 7.14886 19.7144 7.10315 19.7602 7.01172Z" fill="#4B8C1C"/>
<path opacity="0.24" d="M21.1831 5.32C21.2002 5.28571 21.2231 5.24571 21.2403 5.21143C21.2517 5.21714 21.2745 5.22857 21.2745 5.23428C21.2574 5.27428 21.2402 5.30857 21.2231 5.34857C21.206 5.33714 21.1945 5.33142 21.1831 5.32Z" fill="#4B8C1C"/>
<path opacity="0.24" d="M19.3546 4.09732C19.3546 4.03446 19.3546 3.9716 19.3546 3.90303C19.366 3.89732 19.3774 3.89732 19.3889 3.8916C19.4003 3.92017 19.4289 3.95446 19.4232 3.97732C19.4117 4.01732 19.3774 4.0516 19.3489 4.08589L19.3546 4.09732Z" fill="#4B8C1C"/>
<path opacity="0.24" d="M15.5144 3.90304C15.4916 3.88019 15.4744 3.86876 15.4573 3.85733C15.4858 3.84019 15.5144 3.82304 15.543 3.81162C15.5544 3.8059 15.5658 3.81733 15.583 3.82304C15.5601 3.8459 15.543 3.87447 15.5144 3.90304Z" fill="#4B8C1C"/>
<path opacity="0.24" d="M19.9603 3.75439C19.9603 3.80011 19.9603 3.84011 19.9603 3.88582C19.9489 3.88582 19.9375 3.88582 19.926 3.88582C19.926 3.84011 19.926 3.80011 19.926 3.75439C19.9375 3.75439 19.9489 3.75439 19.9603 3.75439Z" fill="#4B8C1C"/>
<path opacity="0.24" d="M20.2459 3.96583C20.2173 3.98869 20.1945 4.01726 20.183 4.01155C20.1545 3.99441 20.1316 3.97155 20.103 3.94869C20.1145 3.93726 20.1373 3.90869 20.143 3.90869C20.1773 3.92012 20.2059 3.94298 20.2459 3.96583Z" fill="#4B8C1C"/>
<path opacity="0.24" d="M20.5773 6.49755C20.5487 6.46326 20.5201 6.42898 20.4858 6.39469C20.503 6.37755 20.5201 6.3604 20.5373 6.34326C20.5601 6.38326 20.583 6.42326 20.6116 6.46326C20.6001 6.4804 20.5887 6.48612 20.5773 6.49755Z" fill="#4B8C1C"/>
<path opacity="0.24" d="M18.9373 2.68004C18.9088 2.7029 18.8916 2.72004 18.8745 2.73719C18.8573 2.71433 18.8345 2.69147 18.8345 2.66862C18.8345 2.65719 18.863 2.63433 18.8745 2.61719C18.8916 2.63433 18.9088 2.65147 18.9373 2.68004Z" fill="#4B8C1C"/>
<path opacity="0.24" d="M20.0402 5.13731C20.0231 5.14303 20.0002 5.16017 19.9888 5.15446C19.9773 5.15446 19.9716 5.12588 19.9602 5.11446C19.9773 5.10874 20.0002 5.10303 20.0173 5.10303C20.0288 5.10303 20.0345 5.12588 20.0402 5.13731Z" fill="#4B8C1C"/>
<path opacity="0.24" d="M19.966 5.10313C19.9431 5.08028 19.9146 5.06885 19.9146 5.05171C19.9146 5.02885 19.9317 5.00599 19.9431 4.99456C19.9488 4.98885 19.9888 5.0117 19.9888 5.01742C19.9946 5.04599 19.9774 5.06885 19.966 5.10313Z" fill="#4B8C1C"/>
<path opacity="0.24" d="M18.5718 5.39453C18.5889 5.42882 18.6004 5.4631 18.6175 5.49739C18.6004 5.5031 18.5832 5.50882 18.5661 5.52024C18.5604 5.48024 18.5489 5.44596 18.5432 5.40596C18.5546 5.40025 18.5604 5.40025 18.5718 5.39453Z" fill="#4B8C1C"/>
<path opacity="0.24" d="M19.8632 9.34285C19.8232 9.34856 19.7946 9.35428 19.7889 9.34856C19.7718 9.33142 19.7661 9.30285 19.7546 9.27428C19.7718 9.26856 19.7946 9.25713 19.8061 9.26856C19.8232 9.27999 19.8346 9.30856 19.8632 9.34285Z" fill="#4B8C1C"/>
<path opacity="0.24" d="M17.8401 4.44582C17.8058 4.46868 17.7887 4.48582 17.7658 4.50297C17.7544 4.48582 17.7315 4.46868 17.7372 4.46297C17.7487 4.44011 17.7715 4.42297 17.7944 4.41154C17.8001 4.40583 17.8172 4.42868 17.8401 4.44582Z" fill="#4B8C1C"/>
<path opacity="0.24" d="M15.4401 4.18311C15.4687 4.19453 15.503 4.20025 15.5316 4.21168C15.5259 4.22311 15.5201 4.24596 15.5201 4.24596C15.4916 4.24025 15.4573 4.22882 15.4287 4.22311C15.4287 4.20596 15.4344 4.19453 15.4401 4.18311Z" fill="#4B8C1C"/>
<path opacity="0.24" d="M20.9601 6.30273C20.9773 6.32559 20.9887 6.33702 21.0001 6.35416C20.983 6.36559 20.9658 6.38845 20.9487 6.38273C20.9315 6.38273 20.9201 6.35988 20.9087 6.34273C20.9258 6.3313 20.9373 6.31988 20.9601 6.30273Z" fill="#4B8C1C"/>
<path opacity="0.24" d="M21.4974 6.53711C21.5031 6.56568 21.5145 6.58854 21.5088 6.60568C21.5031 6.62282 21.4803 6.62853 21.4631 6.63996C21.4574 6.62282 21.4403 6.59996 21.446 6.58282C21.4517 6.57139 21.4745 6.55997 21.4974 6.53711Z" fill="#4B8C1C"/>
<path opacity="0.24" d="M21.3773 3.6172C21.343 3.64577 21.3088 3.68006 21.2745 3.70863C21.2573 3.6972 21.2459 3.68577 21.2288 3.66863C21.2573 3.63434 21.2859 3.59434 21.3145 3.56006C21.3373 3.58292 21.3545 3.60006 21.3773 3.6172Z" fill="#4B8C1C"/>
<path opacity="0.24" d="M19.7146 4.32005C19.7031 4.28576 19.686 4.24576 19.6746 4.21148C19.6917 4.20576 19.7088 4.20005 19.7317 4.19434C19.7374 4.23434 19.7431 4.26862 19.7488 4.30862C19.7374 4.31434 19.726 4.32005 19.7146 4.32005Z" fill="#4B8C1C"/>
<path opacity="0.24" d="M21.6572 6.60593C21.6858 6.57165 21.7144 6.54307 21.7429 6.50879C21.7487 6.5145 21.7601 6.52022 21.7658 6.52593C21.7429 6.56022 21.7144 6.5945 21.6915 6.6345C21.6858 6.62307 21.6687 6.61736 21.6572 6.60593Z" fill="#4B8C1C"/>
<path opacity="0.24" d="M19.7031 8.29747C19.7431 8.28604 19.7774 8.27461 19.8174 8.26318C19.8174 8.26318 19.8231 8.28604 19.8288 8.29747C19.7888 8.30318 19.7488 8.31461 19.7088 8.32033C19.7031 8.31461 19.7031 8.3089 19.7031 8.29747Z" fill="#4B8C1C"/>
<path opacity="0.24" d="M19.7832 7.74268C19.8174 7.78268 19.8346 7.7941 19.8346 7.81125C19.8346 7.8341 19.8174 7.86268 19.8117 7.88553C19.8003 7.86839 19.7774 7.85696 19.7717 7.83982C19.7717 7.82268 19.7774 7.7941 19.7832 7.74268Z" fill="#4B8C1C"/>
<path opacity="0.24" d="M16.9602 5.52589C16.9716 5.50304 16.9831 5.48589 16.9945 5.46875C17.0116 5.48018 17.0345 5.48589 17.0345 5.49732C17.0345 5.51446 17.0231 5.53161 17.0116 5.54875C17.0002 5.54304 16.9831 5.53732 16.9602 5.52589Z" fill="#4B8C1C"/>
<path opacity="0.24" d="M18.143 5.74902C18.1716 5.78902 18.1944 5.81188 18.1944 5.82902C18.1944 5.85188 18.1659 5.87474 18.1544 5.89188C18.143 5.86902 18.1259 5.84045 18.1201 5.8176C18.1144 5.80617 18.1259 5.78902 18.143 5.74902Z" fill="#4B8C1C"/>
<path opacity="0.24" d="M17.0574 3.67428C17.0345 3.6857 17.0117 3.69713 17.0117 3.69713C16.9945 3.67428 16.9831 3.65142 16.9717 3.62285C16.9831 3.61713 17.0003 3.60571 17.006 3.61142C17.0231 3.62285 17.0402 3.64571 17.0574 3.67428Z" fill="#4B8C1C"/>
<path opacity="0.24" d="M20.7087 3.82861C20.7087 3.89147 20.7087 3.95433 20.7087 4.0229L20.7145 4.01718C20.6173 3.93147 20.6173 3.92576 20.7145 3.83433L20.7087 3.82861Z" fill="#4B8C1C"/>
<path opacity="0.24" d="M17.1431 6.34288C17.1545 6.32002 17.1602 6.29145 17.1716 6.28574C17.1888 6.28002 17.2116 6.29145 17.2345 6.29717C17.2288 6.31431 17.2288 6.3486 17.2174 6.3486C17.1945 6.35431 17.1716 6.3486 17.1431 6.34288Z" fill="#4B8C1C"/>
<path opacity="0.24" d="M20.4859 3.53712C20.463 3.53141 20.4516 3.5257 20.4402 3.5257C20.4573 3.50284 20.4688 3.47998 20.4859 3.45712C20.4859 3.45141 20.5088 3.46284 20.5202 3.46855C20.503 3.49141 20.4916 3.51427 20.4859 3.53712Z" fill="#4B8C1C"/>
<path opacity="0.24" d="M16.8631 6.89713C16.8516 6.90856 16.8345 6.93142 16.8231 6.94856C16.8116 6.93142 16.7945 6.91428 16.8002 6.90856C16.8116 6.8857 16.8345 6.86856 16.8516 6.8457C16.8516 6.85713 16.8574 6.86856 16.8631 6.89713Z" fill="#4B8C1C"/>
<path opacity="0.24" d="M17.6745 3.75451C17.6517 3.72594 17.646 3.72023 17.6345 3.7088C17.6517 3.69166 17.6688 3.68023 17.686 3.66309C17.6917 3.67451 17.7031 3.68594 17.7031 3.69737C17.7031 3.72023 17.686 3.73737 17.6745 3.75451Z" fill="#4B8C1C"/>
<path opacity="0.24" d="M17.9489 3.64014C17.9603 3.66871 17.9774 3.69157 17.9717 3.69728C17.966 3.71442 17.9432 3.72014 17.926 3.73157C17.9203 3.72014 17.9032 3.70299 17.9089 3.69728C17.9146 3.68585 17.9317 3.66871 17.9489 3.64014Z" fill="#4B8C1C"/>
<path opacity="0.24" d="M18.9888 3.87984C18.9716 3.89127 18.9659 3.9027 18.9545 3.90842C18.9488 3.89127 18.9374 3.87413 18.9316 3.85699C18.9316 3.85127 18.9374 3.84556 18.9431 3.83984C18.9602 3.85127 18.9716 3.8627 18.9888 3.87984Z" fill="#4B8C1C"/>
<path opacity="0.24" d="M19.9773 3.45723C20.0173 3.46294 20.0573 3.47437 20.0973 3.48009C20.0916 3.49152 20.0859 3.50294 20.0802 3.51437C20.0459 3.49152 20.0116 3.46866 19.983 3.4458L19.9773 3.45723Z" fill="#4B8C1C"/>
<path opacity="0.24" d="M20.2229 6.50323C20.2115 6.51466 20.1944 6.52609 20.1772 6.53752C20.1715 6.52038 20.1544 6.49752 20.1601 6.48609C20.1715 6.46895 20.1944 6.46323 20.2115 6.45752C20.2115 6.47466 20.2172 6.48609 20.2229 6.50323Z" fill="#4B8C1C"/>
<path opacity="0.24" d="M19.3087 4.36035C19.3316 4.37178 19.3544 4.37749 19.3544 4.38321C19.3544 4.40035 19.3487 4.42321 19.343 4.44035C19.3316 4.43464 19.3087 4.42892 19.3087 4.42321C19.303 4.40607 19.303 4.38321 19.3087 4.36035Z" fill="#4B8C1C"/>
<path opacity="0.24" d="M20.7203 3.13184C20.7374 3.16041 20.7546 3.18898 20.7717 3.21755C20.766 3.22326 20.7603 3.22326 20.7546 3.22898C20.726 3.20612 20.7031 3.18898 20.6746 3.16612C20.6917 3.15469 20.7088 3.14326 20.7203 3.13184Z" fill="#4B8C1C"/>
<path opacity="0.24" d="M21.0688 3.22867C21.0402 3.23439 21.0174 3.24582 20.9945 3.25153C20.9945 3.25153 20.9774 3.21725 20.9831 3.21725C21.006 3.2001 21.0288 3.18867 21.0517 3.17725C21.0517 3.19439 21.0574 3.20582 21.0688 3.22867Z" fill="#4B8C1C"/>
<path opacity="0.24" d="M20.9374 4.52584C20.9203 4.54298 20.9031 4.55441 20.8917 4.56584C20.8803 4.5487 20.8574 4.53727 20.8574 4.52584C20.8574 4.5087 20.8803 4.49727 20.8974 4.48584C20.9089 4.49155 20.9203 4.5087 20.9374 4.52584Z" fill="#4B8C1C"/>
<path opacity="0.24" d="M17.9944 4.30289C17.9773 4.30861 17.9658 4.31432 17.9544 4.32003C17.9487 4.30289 17.943 4.28004 17.9373 4.26289C17.9373 4.25718 17.9601 4.25146 17.9715 4.25146C17.9773 4.26289 17.983 4.28575 17.9944 4.30289Z" fill="#4B8C1C"/>
<path opacity="0.24" d="M16.5717 4.30904C16.5603 4.32619 16.5488 4.33761 16.5374 4.35476C16.5317 4.33761 16.5203 4.32047 16.5203 4.30333C16.5203 4.2919 16.5431 4.28047 16.5488 4.26904C16.5545 4.28047 16.5603 4.2919 16.5717 4.30904Z" fill="#4B8C1C"/>
<path opacity="0.24" d="M20.3718 6.263C20.3375 6.25728 20.2975 6.25157 20.2632 6.24586C20.2632 6.23443 20.2632 6.22871 20.2632 6.21729C20.2975 6.21729 20.3375 6.223 20.3718 6.223C20.3775 6.24014 20.3775 6.25157 20.3718 6.263Z" fill="#4B8C1C"/>
<path opacity="0.24" d="M17.6461 3.59454C17.629 3.61169 17.6061 3.62311 17.5832 3.64026C17.5775 3.62883 17.5604 3.61169 17.5661 3.60597C17.5775 3.58311 17.6004 3.57169 17.6175 3.54883C17.629 3.56026 17.6347 3.57169 17.6461 3.59454Z" fill="#4B8C1C"/>
<path opacity="0.24" d="M19.3831 3.22314C19.3945 3.25743 19.4059 3.29743 19.4116 3.33172C19.4002 3.33743 19.3888 3.33743 19.3831 3.34314C19.3716 3.30886 19.3602 3.26886 19.3545 3.23457C19.3602 3.22886 19.3716 3.22886 19.3831 3.22314Z" fill="#4B8C1C"/>
<path opacity="0.24" d="M18.7888 3.37165C18.7716 3.36022 18.7545 3.3545 18.7488 3.34879C18.7488 3.33165 18.7545 3.31451 18.7602 3.29736C18.7716 3.30308 18.7888 3.30879 18.7945 3.31451C18.7945 3.33165 18.7888 3.34879 18.7888 3.37165Z" fill="#4B8C1C"/>
<path opacity="0.24" d="M19.0802 3.32568C19.1145 3.33711 19.143 3.34854 19.1773 3.35997C19.1773 3.35997 19.1716 3.38283 19.1716 3.39425C19.1373 3.38283 19.1087 3.36568 19.0745 3.35425C19.0745 3.34283 19.0802 3.33711 19.0802 3.32568Z" fill="#4B8C1C"/>
<path opacity="0.24" d="M16.9088 6.10329C16.8974 6.08043 16.886 6.06329 16.886 6.05758C16.8974 6.04043 16.9146 6.02901 16.9317 6.01758C16.9374 6.02901 16.9546 6.04615 16.9489 6.05758C16.9431 6.07472 16.926 6.08615 16.9088 6.10329Z" fill="#4B8C1C"/>
<path opacity="0.24" d="M16.7888 3.51441C16.7774 3.53727 16.7659 3.56013 16.7545 3.5887C16.7431 3.58298 16.7202 3.57155 16.7202 3.56584C16.7259 3.53727 16.7316 3.51441 16.7374 3.48584C16.7602 3.49727 16.7716 3.50298 16.7888 3.51441Z" fill="#4B8C1C"/>
<path opacity="0.24" d="M20.9546 7.82301C20.9717 7.81158 20.9889 7.80586 21.006 7.79443C21.0117 7.81158 21.0289 7.83443 21.0232 7.84015C21.0117 7.85158 20.9889 7.85729 20.9717 7.86301C20.966 7.85729 20.9603 7.84586 20.9546 7.82301Z" fill="#4B8C1C"/>
<path opacity="0.24" d="M16.9659 6.61162C16.9431 6.63448 16.9259 6.65733 16.9088 6.67448C16.9031 6.68019 16.8859 6.66876 16.8745 6.66305C16.8917 6.64019 16.9031 6.61733 16.9202 6.60019C16.9259 6.59448 16.9431 6.6059 16.9659 6.61162Z" fill="#4B8C1C"/>
<path opacity="0.24" d="M20.8517 5.26902C20.8402 5.24045 20.8288 5.2233 20.8345 5.20616C20.8402 5.19473 20.8574 5.1833 20.8745 5.17188C20.886 5.18902 20.9031 5.20616 20.8974 5.21759C20.8917 5.23473 20.8745 5.25187 20.8517 5.26902Z" fill="#4B8C1C"/>
<path opacity="0.24" d="M19.1145 4.86847C19.0917 4.8799 19.0688 4.89133 19.046 4.89704C19.0402 4.89704 19.0288 4.86847 19.0288 4.86847C19.0517 4.85133 19.0688 4.8399 19.0917 4.82275C19.0974 4.83418 19.1031 4.84561 19.1145 4.86847Z" fill="#4B8C1C"/>
<path opacity="0.24" d="M19.7487 5.02312C19.7259 5.01169 19.7202 5.00597 19.7087 5.00026C19.7202 4.98312 19.7316 4.96597 19.7487 4.94883C19.7545 4.94311 19.7716 4.94883 19.783 4.94883C19.7716 4.97169 19.7602 4.99454 19.7487 5.02312Z" fill="#4B8C1C"/>
<path opacity="0.24" d="M17.9487 5.02296C17.9316 5.03439 17.9201 5.04011 17.9087 5.04582C17.8973 5.02868 17.8916 5.01153 17.8801 4.98868C17.8973 4.98296 17.9144 4.97153 17.9316 4.96582C17.9373 4.98296 17.943 5.00011 17.9487 5.02296Z" fill="#4B8C1C"/>
<path opacity="0.24" d="M16.8058 6.88601C16.7773 6.87458 16.7544 6.87458 16.743 6.85744C16.7316 6.84601 16.7373 6.81744 16.7373 6.80029C16.7601 6.80601 16.7887 6.80601 16.8116 6.81744C16.823 6.82315 16.8116 6.85744 16.8058 6.88601Z" fill="#4B8C1C"/>
<path opacity="0.24" d="M18.1029 4.75439C18.1258 4.77725 18.1429 4.78868 18.1544 4.80011C18.1429 4.81154 18.1315 4.82868 18.1144 4.84011C18.1086 4.84582 18.0858 4.82868 18.0801 4.81725C18.0801 4.80011 18.0915 4.78297 18.1029 4.75439Z" fill="#4B8C1C"/>
<path opacity="0.24" d="M21.2174 6.90909C21.2002 6.92052 21.1831 6.93766 21.1831 6.93195C21.1659 6.9148 21.1545 6.89766 21.1431 6.8748C21.1545 6.86909 21.1716 6.85766 21.1774 6.86337C21.1945 6.88052 21.2059 6.89766 21.2174 6.90909Z" fill="#4B8C1C"/>
<path opacity="0.24" d="M17.6231 4.77745C17.6117 4.79459 17.6003 4.80602 17.5831 4.82316C17.5717 4.81173 17.5488 4.78888 17.5488 4.78316C17.5545 4.76602 17.5774 4.75459 17.5888 4.74316C17.606 4.74888 17.6117 4.76031 17.6231 4.77745Z" fill="#4B8C1C"/>
<path opacity="0.24" d="M20.9202 3.73137C20.9716 3.69137 20.9945 3.66851 21.023 3.65137C21.0116 3.67422 21.0059 3.69708 20.9945 3.71994C20.9887 3.72565 20.9659 3.71994 20.9202 3.73137Z" fill="#4B8C1C"/>
<path opacity="0.24" d="M19.6174 5.3999C19.6288 5.42847 19.646 5.45133 19.6402 5.46276C19.6345 5.47419 19.6117 5.48562 19.5945 5.49133C19.5888 5.4799 19.5774 5.46276 19.5774 5.45705C19.5831 5.44562 19.6002 5.42847 19.6174 5.3999Z" fill="#4B8C1C"/>
<path opacity="0.24" d="M19.9774 7.47437C19.9488 7.49152 19.9202 7.50866 19.8917 7.53152C19.8859 7.5258 19.8802 7.52009 19.8745 7.50866C19.8974 7.4858 19.9259 7.46866 19.9488 7.4458C19.9659 7.45723 19.9717 7.46866 19.9774 7.47437Z" fill="#4B8C1C"/>
<path opacity="0.24" d="M19.9372 5.64044C19.9144 5.64615 19.8915 5.65758 19.8687 5.66901C19.8687 5.65758 19.8687 5.64044 19.8744 5.62901C19.8858 5.61758 19.9087 5.60616 19.9258 5.59473C19.9315 5.60616 19.9315 5.61758 19.9372 5.64044Z" fill="#4B8C1C"/>
<path opacity="0.24" d="M16.7717 5.08008C16.7831 5.10294 16.8002 5.12579 16.7945 5.13722C16.7888 5.15436 16.7602 5.16579 16.7431 5.16579C16.7317 5.16579 16.7088 5.13151 16.7145 5.12579C16.726 5.11436 16.7488 5.10294 16.7717 5.08008Z" fill="#4B8C1C"/>
<path opacity="0.24" d="M17.7602 5.5546C17.743 5.56602 17.7316 5.58317 17.7145 5.58888C17.703 5.5946 17.6916 5.57745 17.6802 5.57174C17.6916 5.5546 17.703 5.53745 17.7202 5.53174C17.7259 5.53174 17.743 5.54317 17.7602 5.5546Z" fill="#4B8C1C"/>
<path opacity="0.24" d="M18.0746 3.29154C18.0632 3.30296 18.0461 3.32582 18.0461 3.32011C18.0289 3.30868 18.0118 3.29725 17.9946 3.28582C18.0061 3.27439 18.0232 3.25154 18.0289 3.25725C18.0461 3.26868 18.0575 3.28011 18.0746 3.29154Z" fill="#4B8C1C"/>
</g>
<defs>
<radialGradient id="paint0_radial" cx="0" cy="0" r="1" gradientUnits="userSpaceOnUse" gradientTransform="translate(7.55832 13.8133) rotate(-34.9263) scale(10.9724 6.13069)">
<stop stop-color="#7F226D"/>
<stop offset="0.286" stop-color="#7B2069"/>
<stop offset="0.5783" stop-color="#6F195E"/>
<stop offset="0.8727" stop-color="#5A0F4B"/>
<stop offset="1" stop-color="#4F0940"/>
</radialGradient>
<radialGradient id="paint1_radial" cx="0" cy="0" r="1" gradientUnits="userSpaceOnUse" gradientTransform="translate(7.47597 12.3753) rotate(-34.9263) scale(10.8432 6.99386)">
<stop stop-color="#7F226D"/>
<stop offset="0.286" stop-color="#7B2069"/>
<stop offset="0.5783" stop-color="#6F195E"/>
<stop offset="0.8727" stop-color="#5A0F4B"/>
<stop offset="1" stop-color="#4F0940"/>
</radialGradient>
<radialGradient id="paint2_radial" cx="0" cy="0" r="1" gradientUnits="userSpaceOnUse" gradientTransform="translate(4.08072 19.8982) rotate(-35.7999) scale(15.9484 5.71464)">
<stop stop-color="#4F0940"/>
<stop offset="0.247" stop-color="#4E0B3C"/>
<stop offset="0.4996" stop-color="#4A0F30"/>
<stop offset="0.7539" stop-color="#44171B"/>
<stop offset="1" stop-color="#3C2200"/>
</radialGradient>
<radialGradient id="paint3_radial" cx="0" cy="0" r="1" gradientUnits="userSpaceOnUse" gradientTransform="translate(9.52144 11.1639) rotate(-32.0003) scale(6.78964 1.39001)">
<stop stop-color="white" stop-opacity="0.25"/>
<stop offset="1" stop-color="white" stop-opacity="0"/>
</radialGradient>
<radialGradient id="paint4_radial" cx="0" cy="0" r="1" gradientUnits="userSpaceOnUse" gradientTransform="translate(11.7305 17.1366) rotate(-43.0721) scale(10.4428 2.13788)">
<stop stop-color="#391838" stop-opacity="0.25"/>
<stop offset="1" stop-color="#391838" stop-opacity="0"/>
</radialGradient>
<linearGradient id="paint5_linear" x1="22.3946" y1="5.054" x2="20.0692" y2="2.00336" gradientUnits="userSpaceOnUse">
<stop stop-color="#76AB50"/>
<stop offset="1" stop-color="#D8F88D"/>
</linearGradient>
<linearGradient id="paint6_linear" x1="21.858" y1="3.96319" x2="20.2218" y2="2.61331" gradientUnits="userSpaceOnUse">
<stop stop-color="#76AB50"/>
<stop offset="1" stop-color="#D8F88D"/>
</linearGradient>
<linearGradient id="paint7_linear" x1="20.6833" y1="7.43549" x2="14.3429" y2="-0.807004" gradientUnits="userSpaceOnUse">
<stop stop-color="#76AB50"/>
<stop offset="1" stop-color="#D8F88D"/>
</linearGradient>
<linearGradient id="paint8_linear" x1="22.6081" y1="6.51207" x2="12.576" y2="6.0212" gradientUnits="userSpaceOnUse">
<stop stop-color="#4B8C1C"/>
<stop offset="1" stop-color="#D8F88D"/>
</linearGradient>
<linearGradient id="paint9_linear" x1="20.1894" y1="5.14892" x2="20.7418" y2="11.0537" gradientUnits="userSpaceOnUse">
<stop stop-color="#4B8C1C"/>
<stop offset="1" stop-color="#76AB50"/>
</linearGradient>
<linearGradient id="paint10_linear" x1="20.6379" y1="4.53257" x2="20.7913" y2="1.95552" gradientUnits="userSpaceOnUse">
<stop stop-color="#76AB50"/>
<stop offset="1" stop-color="#D8F88D"/>
</linearGradient>
<linearGradient id="paint11_linear" x1="20.478" y1="3.89103" x2="22.0426" y2="1.06853" gradientUnits="userSpaceOnUse">
<stop stop-color="#407817"/>
<stop offset="1" stop-color="#4B8C1C" stop-opacity="0"/>
</linearGradient>
<linearGradient id="paint12_linear" x1="21.6888" y1="2.7409" x2="22.1684" y2="2.05083" gradientUnits="userSpaceOnUse">
<stop stop-color="#76AB50"/>
<stop offset="1" stop-color="#D8F88D"/>
</linearGradient>
<linearGradient id="paint13_linear" x1="21.7835" y1="2.60467" x2="22.2631" y2="1.9146" gradientUnits="userSpaceOnUse">
<stop stop-color="#76AB50"/>
<stop offset="1" stop-color="#D8F88D"/>
</linearGradient>
<linearGradient id="paint14_linear" x1="19.0368" y1="6.33837" x2="15.478" y2="1.46036" gradientUnits="userSpaceOnUse">
<stop stop-color="#76AB50"/>
<stop offset="1" stop-color="#D8F88D"/>
</linearGradient>
<linearGradient id="paint15_linear" x1="18.4026" y1="5.57881" x2="16.4396" y2="2.33836" gradientUnits="userSpaceOnUse">
<stop stop-color="#4B8C1C"/>
<stop offset="1" stop-color="#B0D55B"/>
</linearGradient>
<linearGradient id="paint16_linear" x1="25.203" y1="5.73713" x2="8.39716" y2="4.14241" gradientUnits="userSpaceOnUse">
<stop stop-color="#76AB50"/>
<stop offset="1" stop-color="#D8F88D"/>
</linearGradient>
<linearGradient id="paint17_linear" x1="20.5549" y1="11.7444" x2="18.7295" y2="5.7313" gradientUnits="userSpaceOnUse">
<stop stop-color="#4B8C1C"/>
<stop offset="1" stop-color="#76AB50"/>
</linearGradient>
<linearGradient id="paint18_linear" x1="23.9561" y1="0.77984" x2="14.6603" y2="7.25316" gradientUnits="userSpaceOnUse">
<stop stop-color="#76AB50"/>
<stop offset="1" stop-color="#D8F88D"/>
</linearGradient>
<linearGradient id="paint19_linear" x1="18.2743" y1="6.65261" x2="16.1267" y2="2.11208" gradientUnits="userSpaceOnUse">
<stop stop-color="#76AB50"/>
<stop offset="1" stop-color="#D8F88D"/>
</linearGradient>
</defs>
</svg>
