<svg width="80" height="80" viewBox="0 0 80 80" fill="none" xmlns="http://www.w3.org/2000/svg">
<path d="M40.0001 70.4762C56.8316 70.4762 70.4763 56.8315 70.4763 40C70.4763 23.1685 56.8316 9.5238 40.0001 9.5238C23.1686 9.5238 9.52393 23.1685 9.52393 40C9.52393 56.8315 23.1686 70.4762 40.0001 70.4762Z" fill="url(#paint0_radial)"/>
<path opacity="0.5" d="M40.0001 70.4762C56.8316 70.4762 70.4763 56.8315 70.4763 40C70.4763 23.1685 56.8316 9.5238 40.0001 9.5238C23.1686 9.5238 9.52393 23.1685 9.52393 40C9.52393 56.8315 23.1686 70.4762 40.0001 70.4762Z" fill="url(#paint1_radial)"/>
<path d="M30.0569 41.2951C31.6769 41.2951 32.9902 39.3081 32.9902 36.857C32.9902 34.4059 31.6769 32.4189 30.0569 32.4189C28.4368 32.4189 27.1235 34.4059 27.1235 36.857C27.1235 39.3081 28.4368 41.2951 30.0569 41.2951Z" fill="url(#paint2_radial)"/>
<path d="M30.0569 33.9236C31.314 33.9236 32.4188 35.0284 32.9902 36.6474C32.9521 34.2474 31.6569 32.3236 30.0569 32.3236C28.4569 32.3236 27.1616 34.2474 27.1235 36.6474C27.695 35.0284 28.7807 33.9236 30.0569 33.9236Z" fill="url(#paint3_linear)"/>
<path d="M49.9431 41.2951C51.5631 41.2951 52.8764 39.3081 52.8764 36.857C52.8764 34.4059 51.5631 32.4189 49.9431 32.4189C48.3231 32.4189 47.0098 34.4059 47.0098 36.857C47.0098 39.3081 48.3231 41.2951 49.9431 41.2951Z" fill="url(#paint4_radial)"/>
<path d="M49.9431 34.0382C48.686 34.0382 47.5812 35.143 47.0098 36.7621C47.0479 34.3621 48.3431 32.4382 49.9431 32.4382C51.5431 32.4382 52.8384 34.3621 52.8764 36.7621C52.305 35.143 51.2193 34.0382 49.9431 34.0382Z" fill="url(#paint5_linear)"/>
<path d="M52.8386 53.2954H27.1625C26.3815 53.2954 25.7339 52.6478 25.7339 51.8668C25.7339 51.0859 26.3815 50.4382 27.1625 50.4382H52.8386C53.6196 50.4382 54.2672 51.0859 54.2672 51.8668C54.2672 52.6478 53.6196 53.2954 52.8386 53.2954Z" fill="url(#paint6_radial)"/>
<path d="M27.0291 51.2001H52.991C53.5434 51.2001 54.0386 51.524 54.2672 51.9811C54.2672 51.943 54.2672 51.9049 54.2672 51.8668C54.2672 51.0859 53.6196 50.4382 52.8386 50.4382H27.1625C26.3815 50.4382 25.7339 51.0859 25.7339 51.8668C25.7339 51.9049 25.7339 51.943 25.7339 51.9811C25.9815 51.5049 26.4577 51.2001 27.0291 51.2001Z" fill="url(#paint7_linear)"/>
<path d="M34.6094 27.2192C33.5046 27.2764 32.4951 27.2573 30.057 26.5335C26.457 25.4859 25.5808 26.2859 23.2189 28.4383C23.0475 28.5907 22.857 28.7621 22.6665 28.9335C22.2856 29.2764 22.2284 29.9049 22.5713 30.4002C22.7808 30.7049 23.6189 31.2002 24.3618 30.5716C26.6665 28.6478 28.3618 28.8573 30.3999 29.3526C32.0189 29.7335 33.6951 30.1526 35.4856 29.2764C36.2094 28.9335 36.3999 28.4192 36.2284 27.8668C36.0189 27.1811 35.3903 27.1621 34.6094 27.2192Z" fill="url(#paint8_linear)"/>
<path d="M45.5239 24.362C46.6286 24.2667 47.562 23.981 49.9429 23.0096C52.8953 21.8096 54.9143 22.4191 56.9715 23.8858C57.162 24.0191 57.3715 24.1525 57.6001 24.3048C58.0382 24.5906 58.1715 25.2191 57.9048 25.7334C57.7524 26.0572 56.9715 26.6667 56.1524 26.1715C53.581 24.6096 51.9429 25.0667 50.0001 25.8477C48.4572 26.4763 46.8572 27.1239 44.9524 26.5144C44.1905 26.2667 43.9239 25.8096 44 25.2382C44.1143 24.5525 44.7429 24.4382 45.5239 24.362Z" fill="url(#paint9_linear)"/>
<defs>
<radialGradient id="paint0_radial" cx="0" cy="0" r="1" gradientUnits="userSpaceOnUse" gradientTransform="translate(34.0039 27.649) scale(36.7656)">
<stop stop-color="#FFE030"/>
<stop offset="1" stop-color="#FFB92E"/>
</radialGradient>
<radialGradient id="paint1_radial" cx="0" cy="0" r="1" gradientUnits="userSpaceOnUse" gradientTransform="translate(34.0039 27.649) scale(28.9251)">
<stop stop-color="#FFEA5F"/>
<stop offset="1" stop-color="#FFBC47" stop-opacity="0"/>
</radialGradient>
<radialGradient id="paint2_radial" cx="0" cy="0" r="1" gradientUnits="userSpaceOnUse" gradientTransform="translate(29.1594 36.974) rotate(73.8539) scale(4.30606 2.78596)">
<stop offset="0.00132565" stop-color="#7A4400"/>
<stop offset="1" stop-color="#643800"/>
</radialGradient>
<linearGradient id="paint3_linear" x1="30.0497" y1="32.4017" x2="30.0497" y2="36.5378" gradientUnits="userSpaceOnUse">
<stop offset="0.00132565" stop-color="#3C2200"/>
<stop offset="1" stop-color="#512D00"/>
</linearGradient>
<radialGradient id="paint4_radial" cx="0" cy="0" r="1" gradientUnits="userSpaceOnUse" gradientTransform="translate(49.061 36.9747) rotate(73.8539) scale(4.30607 2.78596)">
<stop offset="0.00132565" stop-color="#7A4400"/>
<stop offset="1" stop-color="#643800"/>
</radialGradient>
<linearGradient id="paint5_linear" x1="49.9504" y1="32.5109" x2="49.9504" y2="36.6469" gradientUnits="userSpaceOnUse">
<stop offset="0.00132565" stop-color="#3C2200"/>
<stop offset="1" stop-color="#512D00"/>
</linearGradient>
<radialGradient id="paint6_radial" cx="0" cy="0" r="1" gradientUnits="userSpaceOnUse" gradientTransform="translate(40.0005 51.8589) scale(10.1385 1.82392)">
<stop offset="0.00132565" stop-color="#7A4400"/>
<stop offset="1" stop-color="#643800"/>
</radialGradient>
<linearGradient id="paint7_linear" x1="25.7338" y1="51.1992" x2="54.2672" y2="51.1992" gradientUnits="userSpaceOnUse">
<stop offset="0.00132565" stop-color="#3C2200"/>
<stop offset="1" stop-color="#512D00"/>
</linearGradient>
<linearGradient id="paint8_linear" x1="29.386" y1="32.0369" x2="29.259" y2="26.4496" gradientUnits="userSpaceOnUse">
<stop offset="0.00132565" stop-color="#3C2200"/>
<stop offset="1" stop-color="#7A4400"/>
</linearGradient>
<linearGradient id="paint9_linear" x1="51.0097" y1="28.3018" x2="51.0097" y2="22.9624" gradientUnits="userSpaceOnUse">
<stop offset="0.00132565" stop-color="#3C2200"/>
<stop offset="1" stop-color="#7A4400"/>
</linearGradient>
</defs>
</svg>
