<svg width="80" height="80" viewBox="0 0 80 80" fill="none" xmlns="http://www.w3.org/2000/svg">
<path d="M40.475 70.95C57.3059 70.95 70.95 57.3059 70.95 40.475C70.95 23.6441 57.3059 10 40.475 10C23.6441 10 10 23.6441 10 40.475C10 57.3059 23.6441 70.95 40.475 70.95Z" fill="url(#paint0_radial)"/>
<path d="M30.5246 48.2001C32.145 48.2001 33.4587 46.2137 33.4587 43.7635C33.4587 41.3132 32.145 39.3269 30.5246 39.3269C28.9041 39.3269 27.5905 41.3132 27.5905 43.7635C27.5905 46.2137 28.9041 48.2001 30.5246 48.2001Z" fill="url(#paint1_radial)"/>
<path d="M29.3623 42.1759C31.0774 42.1759 32.509 43.9336 32.9201 46.3149C33.2603 45.592 33.4587 44.7132 33.4587 43.7635C33.4587 41.3113 32.1405 39.3269 30.5246 39.3269C29.1213 39.3269 27.9449 40.8152 27.6614 42.8138C28.1717 42.4027 28.7528 42.1759 29.3623 42.1759Z" fill="url(#paint2_linear)"/>
<path d="M27.392 32.9626C24.7697 32.9626 22.516 35.9817 25.4501 36.4495C28.3842 36.9172 33.728 39.4403 35.9817 41.1837C36.1518 41.3822 36.818 41.3255 36.7755 40.801C36.7613 38.8024 30.5813 32.9626 27.392 32.9626Z" fill="url(#paint3_linear)"/>
<path d="M50.4254 48.2001C52.0459 48.2001 53.3595 46.2137 53.3595 43.7635C53.3595 41.3132 52.0459 39.3269 50.4254 39.3269C48.805 39.3269 47.4913 41.3132 47.4913 43.7635C47.4913 46.2137 48.805 48.2001 50.4254 48.2001Z" fill="url(#paint4_radial)"/>
<path d="M51.5877 42.1759C49.8726 42.1759 48.441 43.9336 48.03 46.3149C47.6898 45.592 47.4913 44.7132 47.4913 43.7635C47.4913 41.3113 48.8096 39.3269 50.4254 39.3269C51.8287 39.3269 53.0052 40.8152 53.2887 42.8138C52.7784 42.4027 52.1972 42.1759 51.5877 42.1759Z" fill="url(#paint5_linear)"/>
<path d="M53.5579 32.9626C56.1802 32.9626 58.4339 35.9817 55.4998 36.4495C52.5657 36.9172 47.2219 39.4403 44.9682 41.1837C44.7981 41.3822 44.1319 41.3255 44.1744 40.801C44.1886 38.8024 50.3687 32.9626 53.5579 32.9626Z" fill="url(#paint6_linear)"/>
<path d="M40.475 70.95C57.3059 70.95 70.95 57.3059 70.95 40.475C70.95 23.6441 57.3059 10 40.475 10C23.6441 10 10 23.6441 10 40.475C10 57.3059 23.6441 70.95 40.475 70.95Z" fill="url(#paint7_radial)"/>
<path d="M62.6155 64.8408H18.4763C17.7392 64.8408 17.1439 64.2455 17.1439 63.5084V52.1689C17.1439 51.4318 17.7392 50.8365 18.4763 50.8365H62.6155C63.3525 50.8365 63.9479 51.4318 63.9479 52.1689V63.5084C63.9479 64.2455 63.3525 64.8408 62.6155 64.8408Z" fill="url(#paint8_linear)"/>
<path d="M26.9243 61.9776L26.2864 61.283C25.6202 61.8358 24.6564 62.091 23.7492 62.091C22.0341 62.091 20.9001 61.2263 20.9001 59.8514C20.9001 58.5615 21.8924 57.9379 22.2467 57.6544L22.6578 57.3567L22.3176 57.0024C22.0908 56.7614 21.5238 56.1661 21.5238 55.2589C21.5238 54.0966 22.5019 53.2461 23.9335 53.2461C25.3226 53.2461 26.2864 54.0257 26.2864 55.2022C26.2864 56.2086 25.5635 56.8181 25.1525 57.1299L24.6989 57.4701L26.2014 59.1002C26.414 58.5474 26.4423 57.9662 26.4282 57.3H28.7103V58.4765H27.718C27.6755 59.1285 27.5054 59.7522 27.2219 60.2058L28.8662 61.9776H26.9243ZM25.3226 60.2483L23.5082 58.2922L23.1539 58.5615C22.8279 58.8167 22.5302 59.1144 22.5302 59.6388C22.5302 60.3475 23.083 60.7302 23.9476 60.7302C24.4721 60.7161 24.954 60.5601 25.3226 60.2483ZM23.0263 55.2589C23.0263 55.7692 23.409 56.081 23.5933 56.2795L23.8343 56.5346L24.1461 56.2795C24.3304 56.1377 24.7698 55.7975 24.7698 55.2589C24.7698 54.8053 24.4721 54.4226 23.891 54.4226C23.3523 54.4226 23.0263 54.7911 23.0263 55.2589Z" fill="url(#paint9_radial)"/>
<path d="M34.4934 55.8401L34.4225 56.2936H36.7046V57.4276H34.2382L33.8697 59.8656C33.6146 61.4248 32.6791 61.9634 31.1907 61.9634H30.1702L30.156 60.6594H31.049C31.9136 60.6594 32.2963 60.2908 32.4523 59.3128L32.7641 57.4276H31.1199V56.2936H32.9342L33.0476 55.5141C33.3169 53.8698 34.2808 53.4021 35.7549 53.4021H36.7046V54.7203H35.8399C34.947 54.7345 34.6068 55.1172 34.4934 55.8401Z" fill="url(#paint10_radial)"/>
<path d="M44.373 57.0591L44.1179 58.3206H45.4645L45.1951 59.7664H43.8202L43.3808 61.9634H41.8925L42.3319 59.7664H40.8294L40.39 61.9634H38.9159L39.3553 59.7664H38.2072L38.4906 58.3206H39.6671L39.9081 57.0591H38.6182L38.9017 55.6133H40.2057L40.6452 53.4162H42.1335L41.6941 55.6133H43.1965L43.636 53.4162H45.1101L44.6707 55.6133H45.9039L45.6204 57.0591H44.373ZM42.8989 57.0591H41.3964L41.1271 58.3206H42.6296L42.8989 57.0591Z" fill="url(#paint11_radial)"/>
<path d="M48.9655 53.1044C50.1987 53.1044 50.9925 54.0257 50.9925 55.0605C50.9925 56.081 50.227 57.0024 49.008 57.0024C47.7749 57.0024 46.9528 56.081 46.9528 55.0605C46.9528 54.0399 47.7749 53.1044 48.9655 53.1044ZM47.7182 61.9634L54.3943 53.1753H55.9252L49.2348 61.9634H47.7182ZM48.9939 56.0102C49.5892 56.0102 49.9436 55.5424 49.9436 55.0605C49.9436 54.5785 49.5892 54.1108 48.9939 54.1108C48.4127 54.1108 48.0158 54.536 48.03 55.0746C48.03 55.5566 48.4127 56.0102 48.9939 56.0102ZM54.4794 58.2639C55.7125 58.2639 56.4921 59.1852 56.4921 60.22C56.4921 61.2405 55.7125 62.1477 54.4935 62.1477C53.2745 62.1477 52.4666 61.2547 52.4666 60.22C52.4666 59.1852 53.2604 58.2639 54.4794 58.2639ZM54.4794 61.1413C55.0605 61.1413 55.4149 60.6877 55.4149 60.2058C55.4149 59.7239 55.0747 59.2561 54.4652 59.2561C53.8699 59.2561 53.5155 59.7239 53.5155 60.2058C53.5155 60.7161 53.8982 61.1413 54.4794 61.1413Z" fill="url(#paint12_radial)"/>
<path d="M57.9237 61.0563C57.9237 60.3759 58.4482 59.9648 59.0718 59.9648C59.6672 59.9648 60.1916 60.3759 60.1916 61.0563C60.1916 61.7083 59.6813 62.1477 59.0718 62.1477C58.4198 62.1477 57.9237 61.7083 57.9237 61.0563ZM58.5616 58.8876L58.2355 53.4304H59.8939L59.5538 58.8876H58.5616Z" fill="url(#paint13_radial)"/>
<defs>
<radialGradient id="paint0_radial" cx="0" cy="0" r="1" gradientUnits="userSpaceOnUse" gradientTransform="translate(33.6066 28.3432) rotate(-29.698) scale(30.7541 25.1242)">
<stop stop-color="#FF9114"/>
<stop offset="1" stop-color="#FF4E0D"/>
</radialGradient>
<radialGradient id="paint1_radial" cx="0" cy="0" r="1" gradientUnits="userSpaceOnUse" gradientTransform="translate(29.6348 43.8709) rotate(73.8539) scale(4.30589 2.78584)">
<stop offset="0.00132565" stop-color="#7A4400"/>
<stop offset="1" stop-color="#643800"/>
</radialGradient>
<linearGradient id="paint2_linear" x1="30.5599" y1="40.6773" x2="30.5599" y2="44.6496" gradientUnits="userSpaceOnUse">
<stop offset="0.00132565" stop-color="#3C2200"/>
<stop offset="1" stop-color="#512D00"/>
</linearGradient>
<linearGradient id="paint3_linear" x1="30.4127" y1="43.5071" x2="30.4127" y2="34.3001" gradientUnits="userSpaceOnUse">
<stop offset="0.00132565" stop-color="#3C2200"/>
<stop offset="1" stop-color="#643800"/>
</linearGradient>
<radialGradient id="paint4_radial" cx="0" cy="0" r="1" gradientUnits="userSpaceOnUse" gradientTransform="translate(51.3781 43.8172) rotate(106.146) scale(4.30589 2.78584)">
<stop offset="0.00132565" stop-color="#7A4400"/>
<stop offset="1" stop-color="#643800"/>
</radialGradient>
<linearGradient id="paint5_linear" x1="50.3901" y1="40.6773" x2="50.3901" y2="44.6496" gradientUnits="userSpaceOnUse">
<stop offset="0.00132565" stop-color="#3C2200"/>
<stop offset="1" stop-color="#512D00"/>
</linearGradient>
<linearGradient id="paint6_linear" x1="50.5372" y1="43.5071" x2="50.5372" y2="34.3001" gradientUnits="userSpaceOnUse">
<stop offset="0.00132565" stop-color="#3C2200"/>
<stop offset="1" stop-color="#643800"/>
</linearGradient>
<radialGradient id="paint7_radial" cx="0" cy="0" r="1" gradientUnits="userSpaceOnUse" gradientTransform="translate(40.5706 65.1777) rotate(0.862144) scale(24.2231 12.0546)">
<stop stop-color="#7A4400" stop-opacity="0.5"/>
<stop offset="0.6008" stop-color="#894D00" stop-opacity="0.1981"/>
<stop offset="0.995" stop-color="#965500" stop-opacity="0"/>
</radialGradient>
<linearGradient id="paint8_linear" x1="40.5452" y1="50.8463" x2="40.5452" y2="66.8492" gradientUnits="userSpaceOnUse">
<stop offset="0.00132565" stop-color="#3C2200"/>
<stop offset="1"/>
</linearGradient>
<radialGradient id="paint9_radial" cx="0" cy="0" r="1" gradientUnits="userSpaceOnUse" gradientTransform="translate(40.2912 57.8206) scale(36.7083)">
<stop offset="0.00132565" stop-color="white"/>
<stop offset="1" stop-color="#A8BBBD"/>
</radialGradient>
<radialGradient id="paint10_radial" cx="0" cy="0" r="1" gradientUnits="userSpaceOnUse" gradientTransform="translate(40.2912 57.8206) scale(36.7083)">
<stop offset="0.00132565" stop-color="white"/>
<stop offset="1" stop-color="#A8BBBD"/>
</radialGradient>
<radialGradient id="paint11_radial" cx="0" cy="0" r="1" gradientUnits="userSpaceOnUse" gradientTransform="translate(40.2913 57.8206) scale(36.7083)">
<stop offset="0.00132565" stop-color="white"/>
<stop offset="1" stop-color="#A8BBBD"/>
</radialGradient>
<radialGradient id="paint12_radial" cx="0" cy="0" r="1" gradientUnits="userSpaceOnUse" gradientTransform="translate(40.2913 57.8206) scale(36.7083)">
<stop offset="0.00132565" stop-color="white"/>
<stop offset="1" stop-color="#A8BBBD"/>
</radialGradient>
<radialGradient id="paint13_radial" cx="0" cy="0" r="1" gradientUnits="userSpaceOnUse" gradientTransform="translate(40.2912 57.8206) scale(36.7083)">
<stop offset="0.00132565" stop-color="white"/>
<stop offset="1" stop-color="#A8BBBD"/>
</radialGradient>
</defs>
</svg>
