<svg width="80" height="80" viewBox="0 0 80 80" fill="none" xmlns="http://www.w3.org/2000/svg">
<path d="M40.0001 70.4762C56.8316 70.4762 70.4763 56.8315 70.4763 40C70.4763 23.1685 56.8316 9.5238 40.0001 9.5238C23.1686 9.5238 9.52393 23.1685 9.52393 40C9.52393 56.8315 23.1686 70.4762 40.0001 70.4762Z" fill="url(#paint0_radial)"/>
<path opacity="0.5" d="M40.0001 70.4762C56.8316 70.4762 70.4763 56.8315 70.4763 40C70.4763 23.1685 56.8316 9.5238 40.0001 9.5238C23.1686 9.5238 9.52393 23.1685 9.52393 40C9.52393 56.8315 23.1686 70.4762 40.0001 70.4762Z" fill="url(#paint1_radial)"/>
<path d="M31.9429 23.7142C31.6191 22.5333 30.1334 22.1523 27.9429 22.7618C26.0763 23.2761 22.2858 25.4475 20.4953 29.8475C20.1715 30.6666 21.0667 30.7999 21.4477 30.2285C22.762 28.2856 26.8763 25.0856 30.5906 24.4761C32.0953 24.2475 31.9429 23.7142 31.9429 23.7142Z" fill="url(#paint2_linear)"/>
<path d="M31.7524 33.181C29.6381 31.8668 26.9143 32.0191 24.9333 33.5049C23.9238 34.2668 22.9333 35.4287 22.3428 37.2382C22.2476 37.543 22.1714 37.8668 22.1524 38.1906C22.1143 38.8382 22.5714 39.4287 23.2952 38.743C28.9333 33.4287 32.8762 38.8953 32.8762 38.8953C33.6381 39.4477 34.419 38.3049 34.2666 37.2382C34.2285 36.9334 34.1905 36.6096 34.0952 36.3239C33.6762 34.781 32.7428 33.8096 31.7524 33.181Z" fill="url(#paint3_radial)"/>
<path d="M34.1142 36.3238C33.9047 35.6762 33.638 35.1429 33.3523 34.6857C32.8952 34.0381 32.3428 33.5619 31.7714 33.2C29.6571 31.8857 26.9333 32.0381 24.9523 33.5238C23.9428 34.2857 22.9523 35.4477 22.3618 37.2572C22.3047 37.4286 22.2666 37.6191 22.2285 37.8096C22.2285 37.8096 22.2285 37.8096 22.2285 37.8286C24.7047 33.9619 28.2857 33.6953 28.2857 33.6953C28.2857 33.6953 31.8285 33.3905 34.2285 36.8572C34.1904 36.6667 34.1523 36.4953 34.1142 36.3238Z" fill="url(#paint4_linear)"/>
<path d="M48.0573 23.7142C48.3811 22.5333 49.8668 22.1523 52.0573 22.7618C53.924 23.2761 57.7145 25.4475 59.5049 29.8475C59.8287 30.6666 58.9335 30.7999 58.5525 30.2285C57.2383 28.2856 53.124 25.0856 49.4097 24.4761C47.9049 24.2475 48.0573 23.7142 48.0573 23.7142Z" fill="url(#paint5_linear)"/>
<path d="M48.2479 33.181C50.3621 31.8668 53.086 32.0191 55.0669 33.5049C56.0764 34.2668 57.0669 35.4287 57.6574 37.2382C57.7526 37.543 57.8288 37.8668 57.8479 38.1906C57.886 38.8382 57.4288 39.4287 56.705 38.743C51.0669 33.4287 47.124 38.8953 47.124 38.8953C46.3621 39.4477 45.5812 38.3049 45.7336 37.2382C45.7717 36.9334 45.8098 36.6096 45.905 36.3239C46.324 34.781 47.2574 33.8096 48.2479 33.181Z" fill="url(#paint6_radial)"/>
<path d="M45.886 36.3238C46.0955 35.6762 46.3622 35.1429 46.6479 34.6857C47.1051 34.0381 47.6574 33.5619 48.2289 33.2C50.3432 31.8857 53.067 32.0381 55.0479 33.5238C56.0574 34.2857 57.0479 35.4477 57.6384 37.2572C57.6955 37.4286 57.7336 37.6191 57.7717 37.8096C57.7717 37.8096 57.7717 37.8096 57.7717 37.8286C55.2955 33.9619 51.7146 33.6953 51.7146 33.6953C51.7146 33.6953 48.1717 33.3905 45.7717 36.8572C45.8098 36.6667 45.8479 36.4953 45.886 36.3238Z" fill="url(#paint7_linear)"/>
<path d="M40.0001 70.4762C56.8316 70.4762 70.4763 56.8315 70.4763 40C70.4763 23.1685 56.8316 9.5238 40.0001 9.5238C23.1686 9.5238 9.52393 23.1685 9.52393 40C9.52393 56.8315 23.1686 70.4762 40.0001 70.4762Z" fill="url(#paint8_radial)"/>
<path d="M58.0381 55.5236C52.5714 55.0855 52.5714 55.0855 52.5714 55.0855L50.1333 59.3141C53.4857 61.4475 52.7428 65.9236 52.5333 67.7713C56.6476 65.9046 60.2666 63.1617 63.1619 59.7903C62.2857 57.7903 60.7428 55.7522 58.0381 55.5236Z" fill="url(#paint9_radial)"/>
<path d="M40.0004 61.6188C53.6385 61.6188 58.3051 51.6188 59.5813 49.1427C60.8575 46.6665 58.648 45.5427 57.848 47.276C55.5432 52.1903 49.9242 59.0093 40.0004 59.0093C30.0766 59.0093 24.4575 52.1903 22.1528 47.276C21.3528 45.5617 19.1432 46.6665 20.4194 49.1427C21.6956 51.6188 26.3623 61.6188 40.0004 61.6188Z" fill="url(#paint10_radial)"/>
<path d="M57.848 47.276C55.5432 52.1903 49.9242 59.0093 40.0004 59.0093C30.0766 59.0093 24.4575 52.1903 22.1528 47.276C21.3528 45.5617 19.1432 46.6665 20.4194 49.1426C20.4194 49.1426 20.8385 47.2379 21.5242 48.1522C23.2004 50.3807 26.9908 59.9426 40.0004 59.9426C43.867 59.9426 46.7623 58.7426 49.3337 57.8093C50.5527 57.3712 50.8385 58.9331 50.8385 58.9331C50.8385 58.9331 51.5432 58.5903 51.9051 58.2664C52.1337 58.076 51.048 56.8569 51.2766 56.6855C55.6004 53.695 57.4289 49.5236 58.4575 48.1522C59.1432 47.2379 59.5623 49.1426 59.5623 49.1426C60.8385 46.6665 58.648 45.5617 57.848 47.276Z" fill="#3C2200"/>
<path d="M64.2667 52.6477L59.9048 48.4953C59.6763 48.2477 58.762 47.6572 57.6763 47.6C56.3048 50.4191 53.8477 53.7715 50.1715 56.1143C50.0191 56.5524 50.5524 56.8762 50.6477 56.9715L54.9715 61.5048C57.6572 64.3048 62.0191 64.7239 64.5715 62.2667C67.1239 59.8096 66.9524 55.4667 64.2667 52.6477Z" fill="url(#paint11_linear)"/>
<path d="M64.2667 52.6477L59.9048 48.4953C59.6762 48.2477 58.762 47.6572 57.6762 47.6C56.3048 50.4191 53.8667 53.7715 50.1905 56.0953C50.0381 56.5334 50.5715 56.8572 50.6667 56.9524L54.9905 61.4858C57.6762 64.2858 62.0381 64.7048 64.5905 62.2477C67.1429 59.7905 66.9524 55.4667 64.2667 52.6477Z" fill="url(#paint12_linear)"/>
<path d="M64.2667 52.6477L59.9048 48.4953C59.6762 48.2477 58.762 47.6572 57.6762 47.6C56.3048 50.4191 53.8667 53.7715 50.1905 56.0953C50.0381 56.5334 50.5715 56.8572 50.6667 56.9524L54.9905 61.4858C57.6762 64.2858 62.0381 64.7048 64.5905 62.2477C67.1429 59.7905 66.9524 55.4667 64.2667 52.6477Z" fill="url(#paint13_radial)"/>
<path d="M55.9429 54.1714L56.9143 53.2571C63.1429 59.7714 63.0096 60.0761 62.7429 60.3237C62.4572 60.5904 62.1334 60.6666 55.9429 54.1714Z" fill="url(#paint14_linear)"/>
<defs>
<radialGradient id="paint0_radial" cx="0" cy="0" r="1" gradientUnits="userSpaceOnUse" gradientTransform="translate(34.0039 27.649) scale(36.7656)">
<stop stop-color="#FFE030"/>
<stop offset="1" stop-color="#FFB92E"/>
</radialGradient>
<radialGradient id="paint1_radial" cx="0" cy="0" r="1" gradientUnits="userSpaceOnUse" gradientTransform="translate(34.0039 27.649) scale(28.9251)">
<stop stop-color="#FFEA5F"/>
<stop offset="1" stop-color="#FFBC47" stop-opacity="0"/>
</radialGradient>
<linearGradient id="paint2_linear" x1="26.2959" y1="27.4186" x2="25.4298" y2="24.3261" gradientUnits="userSpaceOnUse">
<stop offset="0.00132565" stop-color="#3C2200"/>
<stop offset="1" stop-color="#7A4400"/>
</linearGradient>
<radialGradient id="paint3_radial" cx="0" cy="0" r="1" gradientUnits="userSpaceOnUse" gradientTransform="translate(28.2569 35.8776) rotate(175.474) scale(4.70179 3.33396)">
<stop offset="0.00132565" stop-color="#7A4400"/>
<stop offset="1" stop-color="#643800"/>
</radialGradient>
<linearGradient id="paint4_linear" x1="28.7444" y1="29.9583" x2="28.3711" y2="35.0759" gradientUnits="userSpaceOnUse">
<stop offset="0.00132565" stop-color="#3C2200"/>
<stop offset="1" stop-color="#512D00"/>
</linearGradient>
<linearGradient id="paint5_linear" x1="53.7361" y1="27.4243" x2="54.6022" y2="24.3318" gradientUnits="userSpaceOnUse">
<stop offset="0.00132565" stop-color="#3C2200"/>
<stop offset="1" stop-color="#7A4400"/>
</linearGradient>
<radialGradient id="paint6_radial" cx="0" cy="0" r="1" gradientUnits="userSpaceOnUse" gradientTransform="translate(51.7055 35.877) rotate(4.52558) scale(4.70179 3.33396)">
<stop offset="0.00132565" stop-color="#7A4400"/>
<stop offset="1" stop-color="#643800"/>
</radialGradient>
<linearGradient id="paint7_linear" x1="51.2268" y1="29.9599" x2="51.6" y2="35.0775" gradientUnits="userSpaceOnUse">
<stop offset="0.00132565" stop-color="#3C2200"/>
<stop offset="1" stop-color="#512D00"/>
</linearGradient>
<radialGradient id="paint8_radial" cx="0" cy="0" r="1" gradientUnits="userSpaceOnUse" gradientTransform="translate(68.4466 71.1771) scale(21.7262)">
<stop stop-color="#FF4C00"/>
<stop offset="1" stop-color="#E74A3A" stop-opacity="0"/>
</radialGradient>
<radialGradient id="paint9_radial" cx="0" cy="0" r="1" gradientUnits="userSpaceOnUse" gradientTransform="translate(54.9341 59.6557) scale(6.65457)">
<stop stop-color="#FF8000" stop-opacity="0.5"/>
<stop offset="0.995" stop-color="#FF8000" stop-opacity="0"/>
</radialGradient>
<radialGradient id="paint10_radial" cx="0" cy="0" r="1" gradientUnits="userSpaceOnUse" gradientTransform="translate(40.0005 54.0349) scale(15.0994)">
<stop offset="0.00132565" stop-color="#7A4400"/>
<stop offset="1" stop-color="#643800"/>
</radialGradient>
<linearGradient id="paint11_linear" x1="61.3006" y1="57.6827" x2="49.2923" y2="49.6414" gradientUnits="userSpaceOnUse">
<stop stop-color="#EF708C"/>
<stop offset="1" stop-color="#D93E15"/>
</linearGradient>
<linearGradient id="paint12_linear" x1="64.7059" y1="59.3852" x2="52.5154" y2="52.2741" gradientUnits="userSpaceOnUse">
<stop stop-color="#EF708C"/>
<stop offset="1" stop-color="#FF0000"/>
</linearGradient>
<radialGradient id="paint13_radial" cx="0" cy="0" r="1" gradientUnits="userSpaceOnUse" gradientTransform="translate(42.6008 43.148) scale(18.4017)">
<stop offset="0.6822" stop-color="#860805"/>
<stop offset="1" stop-color="#860805" stop-opacity="0"/>
</radialGradient>
<linearGradient id="paint14_linear" x1="57.1506" y1="54.4725" x2="66.8389" y2="64.621" gradientUnits="userSpaceOnUse">
<stop stop-color="#D93E15" stop-opacity="0"/>
<stop offset="1" stop-color="#D93E15"/>
</linearGradient>
</defs>
</svg>
