<svg width="80" height="80" viewBox="0 0 80 80" fill="none" xmlns="http://www.w3.org/2000/svg">
<path d="M23.5653 55.2056C24.7383 54.8023 26.5464 56.9671 27.5942 60.0406C28.6467 63.1141 28.5447 65.9279 27.3717 66.3312" fill="#B23E22"/>
<path d="M27.3667 66.3269C26.1938 66.7302 24.3858 64.5653 23.3381 61.4918C22.2857 58.4184 22.3877 55.6045 23.5606 55.2012" fill="#B23E22"/>
<path d="M56.1392 55.2056C54.9662 54.8023 53.158 56.9671 52.1103 60.0406C51.0578 63.1141 51.1599 65.9279 52.3328 66.3312" fill="#B23E22"/>
<path d="M52.3329 66.3269C53.5059 66.7302 55.314 64.5653 56.3618 61.4918C57.4142 58.4184 57.3123 55.6045 56.1393 55.2012" fill="#B23E22"/>
<path d="M40.7887 13.4985H38.6514L36.7367 50.7511L43.218 50.6074L43.0696 21.7315L40.7887 13.4985Z" fill="#3D2A20"/>
<path d="M40.2184 16.7291C39.6574 13.5258 38.8553 8.0371 43.3571 8.00465C47.8589 7.96756 46.978 12.0238 47.5436 16.1403C48.1092 20.2569 49.7876 30.2422 50.5711 32.8336C51.3546 35.4249 52.9865 38.9203 53.6495 45.8599C54.3125 52.7996 55.1795 53.5321 56.1948 55.8267L46.329 57.0599L40.2184 16.7291Z" fill="url(#paint0_linear)"/>
<path d="M40.2184 16.7291C39.6574 13.5258 38.8553 8.0371 43.3571 8.00465C47.8589 7.96756 46.978 12.0238 47.5436 16.1403C48.1092 20.2569 49.7876 30.2422 50.5711 32.8336C51.3546 35.4249 52.9865 38.9203 53.6495 45.8599C54.3125 52.7996 53.2647 51.9559 56.1948 55.8267L46.329 57.0599L40.2184 16.7291Z" fill="url(#paint1_linear)"/>
<path d="M43.3573 8.00488C43.4964 8.00488 43.6308 8.00487 43.7653 8.01414C41.3543 9.37241 40.7238 13.0903 42.0034 23.7061C42.226 25.5557 42.2121 27.1875 42.0266 28.6339L40.2231 16.7293C39.6574 13.526 38.8553 8.03733 43.3573 8.00488Z" fill="url(#paint2_linear)"/>
<path d="M49.5185 35.1282C47.9329 27.7389 46.6256 16.6038 46.3752 13.8594C46.1249 11.1151 45.5036 9.44157 43.0604 9.46011C40.6172 9.47866 38.9157 11.1058 40.1118 20.4793C41.3079 29.8528 41.2106 37.1031 41.2106 37.1031L46.4818 37.3766C47.9051 37.4461 49.1754 36.5051 49.5185 35.1282Z" fill="url(#paint3_linear)"/>
<path opacity="0.24" d="M45.564 10.6514C46.0415 11.4116 46.2594 12.501 46.3799 13.8547C46.6164 16.4599 47.8079 26.6261 49.2822 33.9737C49.1848 33.932 49.0829 33.7373 48.9716 33.3664C47.5436 28.6241 46.4077 19.1023 46.264 17.0023C46.1759 15.7507 46.2269 12.6355 45.564 10.6514Z" fill="#3D2A20"/>
<path opacity="0.16" d="M40.1164 20.4753C39.2448 13.6468 39.9124 10.9349 41.2801 9.95215C40.9463 11.4634 40.9045 14.3561 41.1317 16.0852C41.5443 19.219 45.2254 19.307 45.2254 19.307C45.6426 24.7447 43.1252 32.899 43.3107 36.1765C43.3385 36.6632 43.2041 36.9877 42.9491 37.1871L41.2105 37.099C41.2152 37.099 41.3125 29.8487 40.1164 20.4753Z" fill="url(#paint4_linear)"/>
<path d="M53.4827 66.5263C51.9296 63.7077 44.9381 64.6998 41.2291 58.4693C38.3964 53.713 40.39 38.5542 40.7562 36.9502C41.1271 35.3462 40.8721 32.4443 40.2277 27.7946C39.5832 23.1449 39.3097 17.6516 43.2041 17.6191C43.2041 17.6191 40.8721 20.0622 41.3496 25.0317C41.8272 30.0012 42.2584 33.1443 41.7762 37.6224C41.1596 43.3707 40.8814 53.6482 44.1314 57.6025C47.3768 61.5567 54.2523 58.7614 54.039 66.3455L53.4827 66.5263Z" fill="url(#paint5_linear)"/>
<path d="M47.7754 36.287C44.8871 28.0679 47.3257 17.5912 43.2042 17.6236C39.3098 17.6514 39.5833 23.1448 40.2277 27.799C40.8721 32.4487 41.1272 35.346 40.7563 36.9546C40.3854 38.5632 38.3918 53.7174 41.2292 58.4737C44.9427 64.7041 51.9341 63.7121 53.4826 66.5306L54.5628 66.1829C58.04 65.075 57.7108 58.622 56.1948 55.8267L49.6577 53.1426L47.7754 36.287Z" fill="url(#paint6_linear)"/>
<path opacity="0.24" d="M47.6271 36.7556C47.2933 36.2596 45.8884 33.455 45.5593 26.3855C45.295 20.7763 44.7896 19.5524 44.9194 18.6484C46.5885 21.467 45.4434 29.561 47.7476 36.2086C47.7615 36.6768 47.7337 36.9086 47.6271 36.7556Z" fill="#3D2A20"/>
<path opacity="0.16" d="M53.4825 66.6699C51.9293 63.8514 44.938 64.8434 41.2291 58.613C38.3964 53.8568 40.3899 38.698 40.7562 37.094C41.1271 35.4901 40.8721 32.5881 40.2277 27.9385C39.5832 23.2889 39.3097 17.6518 43.2041 17.624C43.2041 17.624 40.5707 19.3578 41.3496 25.1802C42.0126 30.1266 42.2583 33.2927 41.7762 37.7708C41.1595 43.5191 40.8814 53.7965 44.1313 57.7508C47.3766 61.705 55.1144 59.9666 54.0388 66.4937L53.4825 66.6699Z" fill="url(#paint7_linear)"/>
<path opacity="0.16" d="M46.2502 53.9634C52.9402 66.4567 48.7815 35.6616 51.5864 35.8702C52.3468 38.1834 53.2091 41.2662 53.6495 45.8556C54.1178 50.7601 54.804 53.6065 56.1948 56.221C55.4345 59.0581 53.5429 61.464 50.9559 62.9567C48.6749 64.2733 44.3771 62.3587 41.2384 58.4925C41.2337 58.4879 41.2291 58.4786 41.2245 58.474C38.3918 53.7177 40.3853 38.5589 40.7516 36.955C42.5829 32.7179 43.9367 49.6429 46.2502 53.9634Z" fill="url(#paint8_linear)"/>
<path opacity="0.75" d="M40.7563 36.9502C41.1272 35.3462 40.8722 32.4442 40.2278 27.7946C39.792 24.6655 39.5277 21.1516 40.5894 19.1814L40.2185 16.7291C39.6575 13.5258 38.8554 8.0371 43.3572 8.00465C47.859 7.96756 46.9781 12.0238 47.5437 16.1404C48.1093 20.2569 49.7877 30.2422 50.5712 32.8336C51.3547 35.425 52.9866 38.9203 53.6496 45.86C54.3126 52.7997 54.9385 53.2216 56.1995 55.8269C57.6136 58.8308 58.0447 65.0752 54.5676 66.1831L53.4873 66.5308C51.9342 63.7123 44.9428 64.7043 41.2338 58.4739C38.3918 53.713 40.3854 38.5541 40.7563 36.9502Z" fill="url(#paint9_radial)"/>
<path d="M40.2277 27.7945C39.8753 25.268 39.6389 22.4959 40.1164 20.4839C39.7177 17.378 39.6435 15.1251 39.8011 13.4933C39.6481 10.7628 40.1813 8.02777 43.3571 8.00459C47.8589 7.97214 46.978 12.0238 47.5436 16.1403C48.1092 20.2568 49.7876 30.2421 50.5711 32.8335C51.3546 35.4249 52.9865 38.9202 53.6495 45.8599C54.3125 52.7996 55.2166 54.1254 56.1948 55.8267C56.7141 57.5095 56.1855 59.9062 55.4577 62.0061C54.7205 64.1386 52.3885 65.2558 50.2558 64.5094C47.4648 63.5313 43.6492 62.5392 41.2291 58.4737C38.3964 53.7175 40.39 38.5587 40.7562 36.9547C41.1271 35.3461 40.8721 32.4441 40.2277 27.7945Z" fill="url(#paint10_linear)"/>
<path opacity="0.5" d="M53.6496 45.8555C52.9866 38.9159 51.3547 35.4159 50.5712 32.8291C49.7877 30.2424 48.1093 20.2571 47.5437 16.1359C46.9781 12.0147 47.8636 7.96774 43.3572 8.00019C40.186 8.02337 39.6482 10.7584 39.8012 13.4889C39.6389 15.116 39.7178 17.369 40.1118 20.4703C40.1118 20.4749 40.1118 20.4749 40.1118 20.4796C39.6343 22.4915 39.8708 25.2636 40.2231 27.7901C40.8676 32.4397 41.1225 35.3371 40.7516 36.9457C40.3807 38.5496 38.3872 53.7084 41.2245 58.4647C44.9381 64.6951 51.9296 63.7031 53.4781 66.5216C53.4781 66.5216 57.7573 59.1554 56.1903 55.8177C55.5087 55.1362 54.3126 52.7998 53.6496 45.8555Z" fill="url(#paint11_linear)"/>
<path d="M39.1661 16.7291C39.7271 13.5258 40.5291 8.0371 36.0274 8.00465C31.5256 7.96756 32.4065 12.0238 31.8409 16.1403C31.2752 20.2569 29.5969 30.2422 28.8134 32.8336C28.0298 35.4203 26.3979 38.9203 25.7349 45.8599C25.072 52.7996 24.205 53.5321 23.1896 55.8267L33.0555 57.0599L39.1661 16.7291Z" fill="url(#paint12_linear)"/>
<path d="M39.1661 16.7291C39.7271 13.5258 40.5291 8.0371 36.0274 8.00465C31.5256 7.96756 32.4065 12.0238 31.8409 16.1403C31.2752 20.2569 29.5969 30.2422 28.8134 32.8336C28.0298 35.4203 26.3979 38.9203 25.7349 45.8599C25.072 52.7996 26.1197 51.9559 23.1896 55.8267L33.0555 57.0599L39.1661 16.7291Z" fill="url(#paint13_linear)"/>
<path d="M36.0273 8.00488C35.8882 8.00488 35.7537 8.00487 35.6193 8.01414C38.03 9.37241 38.6605 13.0903 37.381 23.7061C37.1585 25.5557 37.1724 27.1875 37.3578 28.6339L39.1612 16.7293C39.7268 13.526 40.5289 8.03733 36.0273 8.00488Z" fill="url(#paint14_linear)"/>
<path d="M29.8658 35.1282C31.4514 27.7389 32.7588 16.6038 33.0091 13.8594C33.2595 11.1151 33.8807 9.44157 36.324 9.46011C38.7673 9.47866 40.4688 11.1058 39.2726 20.4793C38.0765 29.8528 38.1738 37.1031 38.1738 37.1031L32.9025 37.3766C31.4792 37.4461 30.2089 36.5051 29.8658 35.1282Z" fill="url(#paint15_linear)"/>
<path opacity="0.24" d="M33.8205 10.6514C33.343 11.4116 33.1251 12.501 33.0045 13.8547C32.7681 16.4599 31.5766 26.6261 30.1023 33.9737C30.1997 33.932 30.3016 33.7373 30.4129 33.3664C31.8408 28.6241 32.9767 19.1023 33.1204 17.0023C33.2085 15.7507 33.1575 12.6355 33.8205 10.6514Z" fill="#3D2A20"/>
<path opacity="0.16" d="M39.2682 20.4753C40.1398 13.6468 39.4722 10.9349 38.1045 9.95215C38.4383 11.4634 38.48 14.3561 38.2529 16.0852C37.8402 19.219 34.159 19.307 34.159 19.307C33.7417 24.7447 36.2592 32.899 36.0738 36.1765C36.046 36.6632 36.1804 36.9877 36.4354 37.1871L38.174 37.099C38.1694 37.099 38.072 29.8487 39.2682 20.4753Z" fill="url(#paint16_linear)"/>
<path d="M25.9018 66.5263C27.4549 63.7077 34.4462 64.6998 38.1551 58.4693C40.9877 53.713 38.9942 38.5542 38.628 36.9502C38.2571 35.3462 38.5121 32.4443 39.1565 27.7946C39.8009 23.1449 40.0745 17.6516 36.1801 17.6191C36.1801 17.6191 38.5121 20.0622 38.0346 25.0317C37.5524 30.0012 37.1259 33.1443 37.608 37.6224C38.2246 43.3707 38.5028 53.6482 35.2529 57.6025C32.0076 61.5567 25.1322 58.7614 25.3455 66.3455L25.9018 66.5263Z" fill="url(#paint17_linear)"/>
<path d="M31.6091 36.287C34.4974 28.0679 32.0587 17.5912 36.1803 17.6236C40.0747 17.6514 39.8012 23.1448 39.1568 27.799C38.5123 32.4487 38.2573 35.346 38.6282 36.9546C38.9991 38.5586 40.9927 53.7174 38.1553 58.4737C34.4417 64.7041 27.4504 63.7121 25.9019 66.5306L24.8216 66.1829C21.3445 65.075 21.6736 58.622 23.1897 55.8267L29.7267 53.1426L31.6091 36.287Z" fill="url(#paint18_linear)"/>
<path opacity="0.24" d="M31.7574 36.7556C32.0912 36.2596 33.496 33.455 33.8252 26.3855C34.0894 20.7763 34.5948 19.5524 34.465 18.6484C32.7959 21.467 33.9411 29.561 31.6368 36.2086C31.6229 36.6768 31.6554 36.9086 31.7574 36.7556Z" fill="#3D2A20"/>
<path opacity="0.16" d="M25.9019 66.6699C27.455 63.8514 34.4463 64.8434 38.1552 58.613C40.9879 53.8568 38.9943 38.698 38.6281 37.094C38.2572 35.4901 38.5122 32.5881 39.1566 27.9385C39.8011 23.2889 40.0746 17.6518 36.1802 17.624C36.1802 17.624 38.8135 19.3578 38.0347 25.1802C37.3717 30.1266 37.126 33.2927 37.6081 37.7708C38.2248 43.5191 38.5029 53.7965 35.253 57.7508C32.0077 61.705 24.27 59.9666 25.3456 66.4937L25.9019 66.6699Z" fill="url(#paint19_linear)"/>
<path opacity="0.16" d="M33.1343 53.9634C26.4443 66.4567 30.603 35.6616 27.7981 35.8702C27.0377 38.1834 26.1754 41.2662 25.7349 45.8556C25.2667 50.7601 24.5805 53.6065 23.1896 56.221C23.95 59.0581 25.8416 61.464 28.4286 62.9567C30.7096 64.2733 35.0074 62.3587 38.1461 58.4925C38.1508 58.4879 38.1554 58.4786 38.16 58.474C40.9928 53.7177 38.9992 38.5589 38.6329 36.955C36.8063 32.7179 35.4478 49.6429 33.1343 53.9634Z" fill="url(#paint20_linear)"/>
<path opacity="0.75" d="M38.6282 36.9502C38.2573 35.3462 38.5123 32.4442 39.1568 27.7946C39.5926 24.6655 39.8568 21.1516 38.7951 19.1814L39.166 16.7291C39.727 13.5258 40.5291 8.0371 36.0273 8.00465C31.5256 7.96756 32.4065 12.0238 31.8408 16.1404C31.2752 20.2569 29.5969 30.2422 28.8134 32.8336C28.0299 35.425 26.3979 38.9203 25.735 45.86C25.072 52.7997 24.4461 53.2216 23.1897 55.8269C21.7756 58.8308 21.3445 65.0752 24.8216 66.1831L25.9019 66.5308C27.455 63.7123 34.4464 64.7043 38.1553 58.4739C40.9927 53.713 38.9991 38.5541 38.6282 36.9502Z" fill="url(#paint21_radial)"/>
<path d="M39.1569 27.7945C39.5093 25.268 39.7457 22.4959 39.2682 20.4839C39.6669 17.378 39.7411 15.1251 39.5835 13.4933C39.7365 10.7628 39.2033 8.02777 36.0275 8.00459C31.5257 7.97214 32.4066 12.0238 31.841 16.1403C31.2753 20.2568 29.597 30.2421 28.8135 32.8335C28.0299 35.4202 26.398 38.9202 25.735 45.8599C25.072 52.7996 24.168 54.1254 23.1851 55.8267C22.6658 57.5095 23.1943 59.9062 23.9222 62.0061C24.6594 64.1386 26.9914 65.2558 29.1241 64.5094C31.9151 63.5313 35.7307 62.5392 38.1509 58.4737C40.9836 53.7175 38.99 38.5587 38.6238 36.9547C38.2575 35.3507 38.5125 32.4441 39.1569 27.7945Z" fill="url(#paint22_linear)"/>
<path opacity="0.5" d="M25.735 45.8555C26.398 38.9158 28.0299 35.4159 28.8134 32.8291C29.597 30.2424 31.2753 20.2571 31.8409 16.1359C32.4066 12.0194 31.521 7.96774 36.0274 8.00019C39.1986 8.02337 39.7364 10.7584 39.5834 13.4889C39.7457 15.116 39.6669 17.369 39.2728 20.4703C39.2728 20.4749 39.2728 20.4749 39.2728 20.4796C39.7503 22.4915 39.5139 25.2636 39.1615 27.7901C38.5171 32.4397 38.2621 35.3371 38.633 36.9457C39.0039 38.5543 40.9975 53.7084 38.1601 58.4647C34.4465 64.6951 27.4551 63.7031 25.9066 66.5216C25.9066 66.5216 21.6273 59.1554 23.1944 55.8177C23.8759 55.1362 25.072 52.7998 25.735 45.8555Z" fill="url(#paint23_linear)"/>
<path d="M23.4076 55.2844C23.5096 55.2334 23.5652 55.2056 23.5652 55.2056C23.5096 55.2241 23.4586 55.2519 23.4076 55.2844Z" fill="url(#paint24_radial)"/>
<path d="M23.338 61.4962C22.3366 58.5711 22.5406 55.8036 23.5606 55.2056C21.0107 55.493 9.87459 57.5049 9.49906 57.5327C7.85786 62.2565 10.519 69.9563 13.7782 71.8894C19.9861 72.9417 27.6775 66.1412 27.6775 66.1412C26.5092 66.5445 24.3904 64.565 23.338 61.4962Z" fill="url(#paint25_radial)"/>
<path d="M23.4076 55.2844C23.5096 55.2334 23.5652 55.2056 23.5652 55.2056C23.5096 55.2241 23.4586 55.2519 23.4076 55.2844Z" fill="url(#paint26_radial)"/>
<path opacity="0.5" d="M13.7829 71.8891C19.9908 72.9414 27.6822 66.1408 27.6822 66.1408C26.5973 66.5116 24.7104 64.8521 23.5977 62.1773L22.6983 61.76C22.6983 61.76 23.7507 65.311 20.7001 66.3123C14.6406 68.301 10.4958 64.7315 9.01685 61.4448C9.21157 65.705 11.3303 70.4334 13.7829 71.8891Z" fill="url(#paint27_radial)"/>
<path d="M23.5653 55.2056C21.9612 55.4281 21.4512 58.279 22.5175 61.2551C24.5991 67.0635 26.7179 66.9291 27.6868 66.141C26.5139 66.5443 24.3951 64.5649 23.3427 61.4915C22.3367 58.571 22.5407 55.8036 23.5653 55.2056Z" fill="url(#paint28_linear)"/>
<path opacity="0.16" d="M23.338 61.4962C22.3366 58.5711 22.5406 55.8036 23.5606 55.2056C21.0107 55.493 9.87459 57.5049 9.49906 57.5327C7.85786 62.2565 10.519 69.9563 13.7782 71.8894C19.9861 72.9417 27.6775 66.1412 27.6775 66.1412C26.5092 66.5445 24.3904 64.565 23.338 61.4962Z" fill="url(#paint29_radial)"/>
<path d="M56.2968 55.2844C56.1948 55.2334 56.1392 55.2056 56.1392 55.2056C56.1948 55.2241 56.2458 55.2519 56.2968 55.2844Z" fill="url(#paint30_radial)"/>
<path d="M56.3629 61.4962C57.3643 58.5711 57.1604 55.8036 56.1404 55.2056C58.6903 55.493 69.8263 57.5049 70.2019 57.5327C71.8431 62.2565 69.1819 69.9563 65.9227 71.8894C59.7149 72.9417 52.0235 66.1412 52.0235 66.1412C53.1918 66.5445 55.3105 64.565 56.3629 61.4962Z" fill="url(#paint31_radial)"/>
<path d="M56.2968 55.2844C56.1948 55.2334 56.1392 55.2056 56.1392 55.2056C56.1948 55.2241 56.2458 55.2519 56.2968 55.2844Z" fill="url(#paint32_radial)"/>
<path opacity="0.5" d="M65.9169 71.8891C59.7091 72.9414 52.0175 66.1408 52.0175 66.1408C53.1024 66.5116 54.9894 64.8521 56.1021 62.1773L57.0015 61.76C57.0015 61.76 55.9491 65.311 58.9997 66.3123C65.0592 68.301 69.204 64.7315 70.683 61.4448C70.4882 65.705 68.3741 70.4334 65.9169 71.8891Z" fill="url(#paint33_radial)"/>
<path d="M56.1392 55.2056C57.7433 55.4281 58.2533 58.279 57.187 61.2551C55.1053 67.0635 52.9865 66.9291 52.0175 66.141C53.1905 66.5443 55.3093 64.5649 56.3617 61.4915C57.3631 58.571 57.1592 55.8036 56.1392 55.2056Z" fill="url(#paint34_linear)"/>
<path opacity="0.16" d="M56.3629 61.4962C57.3643 58.5711 57.1604 55.8036 56.1404 55.2056C58.6903 55.493 69.8263 57.5049 70.2019 57.5327C71.8431 62.2565 69.1819 69.9563 65.9227 71.8894C59.7149 72.9417 52.0235 66.1412 52.0235 66.1412C53.1918 66.5445 55.3105 64.565 56.3629 61.4962Z" fill="url(#paint35_radial)"/>
<path d="M31.7574 36.241C32.5965 33.7006 32.9628 31.0397 33.19 28.3881C33.4404 25.7318 33.4125 23.0524 33.89 20.4007C34.0291 19.7471 34.21 19.0842 34.567 18.4908C34.7524 18.2034 34.9842 17.9345 35.2809 17.7444C35.5869 17.5683 35.9346 17.4756 36.2777 17.4756C36.9592 17.4941 37.65 17.6564 38.1971 18.0875C38.7488 18.514 39.0687 19.1491 39.2959 19.7749C39.7317 21.059 39.7642 22.4266 39.7271 23.757C39.6714 25.0921 39.5092 26.4226 39.3098 27.7437C39.4767 26.4179 39.6065 25.0875 39.6297 23.757C39.6529 22.4312 39.6112 21.0729 39.1707 19.8213C38.9435 19.2094 38.6283 18.6021 38.1044 18.208C37.5851 17.8093 36.9268 17.6564 36.2777 17.6425C35.9532 17.6471 35.6426 17.7352 35.369 17.8974C35.1048 18.0736 34.8915 18.3193 34.7153 18.5928C34.3862 19.1537 34.2099 19.8027 34.0755 20.4471C33.5841 23.057 33.5841 25.7504 33.3152 28.4066C33.0834 31.0536 32.6707 33.7238 31.7574 36.241Z" fill="#3D2A20"/>
<path d="M30.0096 35.082C30.6679 31.7582 31.1918 28.4158 31.6786 25.0642C32.1562 21.7126 32.578 18.3517 32.935 14.9862C33.037 14.1471 33.0834 13.2988 33.2364 12.4597C33.3894 11.6299 33.6258 10.7584 34.2332 10.1094C34.8451 9.45112 35.7816 9.26105 36.6254 9.31204C37.4785 9.31667 38.3779 9.67826 38.8786 10.4061C39.8383 11.8802 39.8476 13.6789 39.8615 15.3524C39.8291 17.0491 39.6482 18.7365 39.4303 20.4146C39.6204 18.7318 39.7688 17.0444 39.7688 15.3524C39.7456 13.6928 39.7131 11.8941 38.7766 10.4849C38.2898 9.7988 37.4553 9.46503 36.6254 9.46039C35.8002 9.41867 34.9193 9.61337 34.3583 10.2253C33.7974 10.8326 33.5655 11.6763 33.4218 12.4921C33.2781 13.3173 33.2364 14.1656 33.139 15.0093C32.7635 18.3749 32.3184 21.7358 31.8177 25.0874C31.3124 28.4297 30.7468 31.7721 30.0096 35.082Z" fill="#3D2A20"/>
<path d="M47.9239 36.2409C47.0106 33.7237 46.5979 31.0582 46.3615 28.3973C46.0926 25.741 46.0926 23.0477 45.6012 20.4378C45.4667 19.7934 45.2952 19.1444 44.9614 18.5835C44.7898 18.31 44.5765 18.0643 44.3076 17.8882C44.0341 17.7305 43.7235 17.6425 43.399 17.6332C42.7499 17.6471 42.0915 17.7955 41.5723 18.1988C41.0484 18.5928 40.7331 19.2001 40.5059 19.812C40.0701 21.0636 40.0238 22.4219 40.047 23.7477C40.0701 25.0828 40.1999 26.4132 40.3668 27.7344C40.1675 26.4132 40.0052 25.0874 39.9496 23.7477C39.9125 22.4172 39.9449 21.0497 40.3807 19.7656C40.6079 19.1398 40.9278 18.5047 41.4795 18.0782C42.0266 17.6471 42.7221 17.4849 43.399 17.4663C43.7467 17.4663 44.0898 17.5637 44.3957 17.7352C44.6925 17.9253 44.9243 18.1895 45.1097 18.4815C45.4667 19.0703 45.6475 19.7332 45.7866 20.3914C46.2595 23.0431 46.2363 25.7225 46.4867 28.3788C46.7231 31.0396 47.0848 33.7005 47.9239 36.2409Z" fill="#3D2A20"/>
<path d="M49.6763 35.0775C48.9391 31.7722 48.3735 28.4298 47.8775 25.0782C47.3767 21.7266 46.9317 18.3703 46.5561 15.0047C46.4588 14.161 46.4171 13.3127 46.2733 12.4875C46.1296 11.6716 45.8978 10.8279 45.3368 10.2206C44.7759 9.60873 43.895 9.41403 43.0697 9.45575C42.2352 9.45575 41.4007 9.79416 40.9186 10.4803C39.9867 11.8895 39.9496 13.6882 39.9264 15.3478C39.9264 17.0398 40.0747 18.7272 40.2648 20.41C40.0469 18.7319 39.8615 17.0445 39.829 15.3478C39.843 13.6789 39.8522 11.8756 40.8119 10.4014C41.3126 9.67826 42.212 9.31203 43.0651 9.3074C43.9089 9.26104 44.85 9.45112 45.4574 10.1048C46.0647 10.7538 46.3011 11.6253 46.4541 12.4551C46.6071 13.2988 46.6535 14.1425 46.7555 14.9816C47.1125 18.3471 47.5344 21.708 48.0119 25.0597C48.4941 28.4113 49.0133 31.7583 49.6763 35.0775Z" fill="#3D2A20"/>
<defs>
<linearGradient id="paint0_linear" x1="51.7585" y1="17.6137" x2="54.379" y2="6.43349" gradientUnits="userSpaceOnUse">
<stop offset="0.00132565" stop-color="#5A4539"/>
<stop offset="1" stop-color="#695042"/>
</linearGradient>
<linearGradient id="paint1_linear" x1="41.7572" y1="80.1051" x2="46.274" y2="46.6017" gradientUnits="userSpaceOnUse">
<stop offset="0.00132565" stop-color="#5A4539"/>
<stop offset="1" stop-color="#695042"/>
</linearGradient>
<linearGradient id="paint2_linear" x1="34.0637" y1="12.1425" x2="40.9654" y2="16.9744" gradientUnits="userSpaceOnUse">
<stop offset="0.6147" stop-color="#8D562E" stop-opacity="0"/>
<stop offset="1" stop-color="#804B24"/>
</linearGradient>
<linearGradient id="paint3_linear" x1="38.8593" y1="52.6003" x2="43.3763" y2="30.4527" gradientUnits="userSpaceOnUse">
<stop offset="0.00132565" stop-color="#5A4539"/>
<stop offset="1" stop-color="#695042"/>
</linearGradient>
<linearGradient id="paint4_linear" x1="55.1623" y1="24.3821" x2="35.774" y2="23.1899" gradientUnits="userSpaceOnUse">
<stop offset="0.00132565" stop-color="#473226"/>
<stop offset="1" stop-color="#3D2A20"/>
</linearGradient>
<linearGradient id="paint5_linear" x1="58.85" y1="41.7468" x2="18.341" y2="43.0377" gradientUnits="userSpaceOnUse">
<stop offset="0.00132565" stop-color="#F0C492" stop-opacity="0"/>
<stop offset="1" stop-color="#E6AF74"/>
</linearGradient>
<linearGradient id="paint6_linear" x1="46.7626" y1="97.2343" x2="48.4564" y2="45.2853" gradientUnits="userSpaceOnUse">
<stop offset="0.00132565" stop-color="#5A4539"/>
<stop offset="1" stop-color="#695042"/>
</linearGradient>
<linearGradient id="paint7_linear" x1="55.7162" y1="42.6869" x2="34.3778" y2="41.1178" gradientUnits="userSpaceOnUse">
<stop offset="0.00132565" stop-color="#473226"/>
<stop offset="1" stop-color="#3D2A20"/>
</linearGradient>
<linearGradient id="paint8_linear" x1="48.9635" y1="28.2065" x2="46.7051" y2="82.1631" gradientUnits="userSpaceOnUse">
<stop offset="0.00132565" stop-color="#473226"/>
<stop offset="1" stop-color="#3D2A20"/>
</linearGradient>
<radialGradient id="paint9_radial" cx="0" cy="0" r="1" gradientUnits="userSpaceOnUse" gradientTransform="translate(44.8913 53.5695) rotate(-93.1828) scale(15.4289 7.25574)">
<stop stop-color="#695042" stop-opacity="0.4"/>
<stop offset="1" stop-color="#473226" stop-opacity="0"/>
</radialGradient>
<linearGradient id="paint10_linear" x1="43.9056" y1="36.5242" x2="32.2347" y2="37.0262" gradientUnits="userSpaceOnUse">
<stop offset="0.3118" stop-color="#3D2A20" stop-opacity="0"/>
<stop offset="1" stop-color="#3D2A20"/>
</linearGradient>
<linearGradient id="paint11_linear" x1="47.9506" y1="42.2409" x2="48.9752" y2="105.189" gradientUnits="userSpaceOnUse">
<stop offset="0.3105" stop-color="#473226" stop-opacity="0"/>
<stop offset="1" stop-color="#3D2A20"/>
</linearGradient>
<linearGradient id="paint12_linear" x1="27.619" y1="17.6138" x2="24.9985" y2="6.43359" gradientUnits="userSpaceOnUse">
<stop offset="0.00132565" stop-color="#5A4539"/>
<stop offset="1" stop-color="#695042"/>
</linearGradient>
<linearGradient id="paint13_linear" x1="37.6277" y1="80.1052" x2="33.1109" y2="46.6018" gradientUnits="userSpaceOnUse">
<stop offset="0.00132565" stop-color="#5A4539"/>
<stop offset="1" stop-color="#695042"/>
</linearGradient>
<linearGradient id="paint14_linear" x1="45.3206" y1="12.1425" x2="38.419" y2="16.9739" gradientUnits="userSpaceOnUse">
<stop offset="0.6147" stop-color="#8D562E" stop-opacity="0"/>
<stop offset="1" stop-color="#804B24"/>
</linearGradient>
<linearGradient id="paint15_linear" x1="40.5256" y1="52.6003" x2="36.0087" y2="30.4527" gradientUnits="userSpaceOnUse">
<stop offset="0.00132565" stop-color="#5A4539"/>
<stop offset="1" stop-color="#695042"/>
</linearGradient>
<linearGradient id="paint16_linear" x1="24.222" y1="24.3822" x2="43.6112" y2="23.1898" gradientUnits="userSpaceOnUse">
<stop offset="0.00132565" stop-color="#473226"/>
<stop offset="1" stop-color="#3D2A20"/>
</linearGradient>
<linearGradient id="paint17_linear" x1="20.5277" y1="41.7469" x2="61.0357" y2="43.0377" gradientUnits="userSpaceOnUse">
<stop offset="0.00132565" stop-color="#F0C492" stop-opacity="0"/>
<stop offset="1" stop-color="#E6AF74"/>
</linearGradient>
<linearGradient id="paint18_linear" x1="32.6224" y1="97.2344" x2="30.9286" y2="45.2854" gradientUnits="userSpaceOnUse">
<stop offset="0.00132565" stop-color="#5A4539"/>
<stop offset="1" stop-color="#695042"/>
</linearGradient>
<linearGradient id="paint19_linear" x1="23.6686" y1="42.6869" x2="45.0069" y2="41.1178" gradientUnits="userSpaceOnUse">
<stop offset="0.00132565" stop-color="#473226"/>
<stop offset="1" stop-color="#3D2A20"/>
</linearGradient>
<linearGradient id="paint20_linear" x1="30.4214" y1="28.2065" x2="32.6798" y2="82.1631" gradientUnits="userSpaceOnUse">
<stop offset="0.00132565" stop-color="#473226"/>
<stop offset="1" stop-color="#3D2A20"/>
</linearGradient>
<radialGradient id="paint21_radial" cx="0" cy="0" r="1" gradientUnits="userSpaceOnUse" gradientTransform="translate(34.4936 53.506) rotate(-86.8172) scale(15.4289 7.25571)">
<stop stop-color="#695042" stop-opacity="0.4"/>
<stop offset="1" stop-color="#473226" stop-opacity="0"/>
</radialGradient>
<linearGradient id="paint22_linear" x1="35.4794" y1="36.5243" x2="47.1504" y2="37.0263" gradientUnits="userSpaceOnUse">
<stop offset="0.3118" stop-color="#3D2A20" stop-opacity="0"/>
<stop offset="1" stop-color="#3D2A20"/>
</linearGradient>
<linearGradient id="paint23_linear" x1="31.4345" y1="42.2409" x2="30.4099" y2="105.189" gradientUnits="userSpaceOnUse">
<stop offset="0.3105" stop-color="#473226" stop-opacity="0"/>
<stop offset="1" stop-color="#3D2A20"/>
</linearGradient>
<radialGradient id="paint24_radial" cx="0" cy="0" r="1" gradientUnits="userSpaceOnUse" gradientTransform="translate(15.5572 46.7135) rotate(30.591) scale(20.7627 20.7595)">
<stop stop-color="#FB9DC1"/>
<stop offset="0.2947" stop-color="#FB9DC1"/>
<stop offset="0.4421" stop-color="#F897B9"/>
<stop offset="0.6681" stop-color="#F185A4"/>
<stop offset="0.9434" stop-color="#E66881"/>
<stop offset="1" stop-color="#E36179"/>
</radialGradient>
<radialGradient id="paint25_radial" cx="0" cy="0" r="1" gradientUnits="userSpaceOnUse" gradientTransform="translate(15.4473 46.9019) rotate(30.5966) scale(20.6484 20.6474)">
<stop stop-color="#FB9DC1"/>
<stop offset="0.2947" stop-color="#FF7AD3"/>
<stop offset="0.3637" stop-color="#FF75CB"/>
<stop offset="0.4697" stop-color="#FF69B6"/>
<stop offset="0.5993" stop-color="#FF5593"/>
<stop offset="0.7477" stop-color="#FF3962"/>
<stop offset="0.9098" stop-color="#FF1524"/>
<stop offset="0.9973" stop-color="#FF0000"/>
</radialGradient>
<radialGradient id="paint26_radial" cx="0" cy="0" r="1" gradientUnits="userSpaceOnUse" gradientTransform="translate(15.5572 46.7135) rotate(30.591) scale(20.7627 20.7595)">
<stop stop-color="#FB9DC1"/>
<stop offset="0.2947" stop-color="#FB9DC1"/>
<stop offset="0.4421" stop-color="#F897B9"/>
<stop offset="0.6681" stop-color="#F185A4"/>
<stop offset="0.9434" stop-color="#E66881"/>
<stop offset="1" stop-color="#E36179"/>
</radialGradient>
<radialGradient id="paint27_radial" cx="0" cy="0" r="1" gradientUnits="userSpaceOnUse" gradientTransform="translate(25.9725 62.1531) scale(25.0835 25.0808)">
<stop stop-color="#C20000"/>
<stop offset="0.1451" stop-color="#C40608"/>
<stop offset="0.3677" stop-color="#CA171D"/>
<stop offset="0.64" stop-color="#D33340"/>
<stop offset="0.9492" stop-color="#E15A70"/>
<stop offset="1" stop-color="#E36179"/>
</radialGradient>
<linearGradient id="paint28_linear" x1="24.8186" y1="50.7511" x2="24.8186" y2="65.5618" gradientUnits="userSpaceOnUse">
<stop stop-color="#FB9DC1"/>
<stop offset="0.2947" stop-color="#FF7AD3"/>
<stop offset="0.3637" stop-color="#FF75CB"/>
<stop offset="0.4697" stop-color="#FF69B6"/>
<stop offset="0.5993" stop-color="#FF5593"/>
<stop offset="0.7477" stop-color="#FF3962"/>
<stop offset="0.9098" stop-color="#FF1524"/>
<stop offset="0.9973" stop-color="#FF0000"/>
</linearGradient>
<radialGradient id="paint29_radial" cx="0" cy="0" r="1" gradientUnits="userSpaceOnUse" gradientTransform="translate(15.5063 59.0386) rotate(170.242) scale(6.70263 3.57096)">
<stop stop-color="white" stop-opacity="0.4"/>
<stop offset="1" stop-color="white" stop-opacity="0"/>
</radialGradient>
<radialGradient id="paint30_radial" cx="0" cy="0" r="1" gradientUnits="userSpaceOnUse" gradientTransform="translate(64.1253 46.717) rotate(149.401) scale(20.7577)">
<stop stop-color="#FB9DC1"/>
<stop offset="0.2947" stop-color="#FB9DC1"/>
<stop offset="0.4421" stop-color="#F897B9"/>
<stop offset="0.6681" stop-color="#F185A4"/>
<stop offset="0.9434" stop-color="#E66881"/>
<stop offset="1" stop-color="#E36179"/>
</radialGradient>
<radialGradient id="paint31_radial" cx="0" cy="0" r="1" gradientUnits="userSpaceOnUse" gradientTransform="translate(64.2389 46.9055) rotate(149.403) scale(20.6484 20.6474)">
<stop stop-color="#FB9DC1"/>
<stop offset="0.2947" stop-color="#FF7AD3"/>
<stop offset="0.3637" stop-color="#FF75CB"/>
<stop offset="0.4697" stop-color="#FF69B6"/>
<stop offset="0.5993" stop-color="#FF5593"/>
<stop offset="0.7477" stop-color="#FF3962"/>
<stop offset="0.9098" stop-color="#FF1524"/>
<stop offset="0.9973" stop-color="#FF0000"/>
</radialGradient>
<radialGradient id="paint32_radial" cx="0" cy="0" r="1" gradientUnits="userSpaceOnUse" gradientTransform="translate(64.1253 46.717) rotate(149.401) scale(20.7577)">
<stop stop-color="#FB9DC1"/>
<stop offset="0.2947" stop-color="#FB9DC1"/>
<stop offset="0.4421" stop-color="#F897B9"/>
<stop offset="0.6681" stop-color="#F185A4"/>
<stop offset="0.9434" stop-color="#E66881"/>
<stop offset="1" stop-color="#E36179"/>
</radialGradient>
<radialGradient id="paint33_radial" cx="0" cy="0" r="1" gradientUnits="userSpaceOnUse" gradientTransform="translate(53.7284 62.1531) rotate(180) scale(25.0836 25.0808)">
<stop stop-color="#C20000"/>
<stop offset="0.1451" stop-color="#C40608"/>
<stop offset="0.3677" stop-color="#CA171D"/>
<stop offset="0.64" stop-color="#D33340"/>
<stop offset="0.9492" stop-color="#E15A70"/>
<stop offset="1" stop-color="#E36179"/>
</radialGradient>
<linearGradient id="paint34_linear" x1="54.8823" y1="50.7511" x2="54.8823" y2="65.5618" gradientUnits="userSpaceOnUse">
<stop stop-color="#FB9DC1"/>
<stop offset="0.2947" stop-color="#FF7AD3"/>
<stop offset="0.3637" stop-color="#FF75CB"/>
<stop offset="0.4697" stop-color="#FF69B6"/>
<stop offset="0.5993" stop-color="#FF5593"/>
<stop offset="0.7477" stop-color="#FF3962"/>
<stop offset="0.9098" stop-color="#FF1524"/>
<stop offset="0.9973" stop-color="#FF0000"/>
</linearGradient>
<radialGradient id="paint35_radial" cx="0" cy="0" r="1" gradientUnits="userSpaceOnUse" gradientTransform="translate(64.2039 59.0276) rotate(9.75808) scale(6.70261 3.57096)">
<stop stop-color="white" stop-opacity="0.4"/>
<stop offset="1" stop-color="white" stop-opacity="0"/>
</radialGradient>
</defs>
</svg>
