<svg width="80" height="80" viewBox="0 0 80 80" fill="none" xmlns="http://www.w3.org/2000/svg">
<path d="M23.5573 55.2029C24.7308 54.8008 26.5355 56.9655 27.5874 60.0372C28.6394 63.1089 28.5366 65.9235 27.363 66.3256" fill="#B23E22"/>
<path d="M27.3631 66.3303C26.1896 66.7323 24.3849 64.5676 23.3329 61.4959C22.281 58.4242 22.3838 55.6096 23.5573 55.2075" fill="#B23E22"/>
<path d="M56.1308 55.2029C54.9573 54.8008 53.1526 56.9655 52.1006 60.0372C51.0487 63.1089 51.1516 65.9235 52.3251 66.3256" fill="#B23E22"/>
<path d="M52.325 66.3303C53.4985 66.7323 55.3031 64.5676 56.3551 61.4959C57.4071 58.4242 57.3042 55.6096 56.1307 55.2075" fill="#B23E22"/>
<path d="M40.9733 13.5078H38.8367L36.915 50.822L43.4092 50.6724L43.2642 21.7505L40.9733 13.5078Z" fill="#8D562E"/>
<path d="M40.403 16.7434C39.8419 13.5361 39.0377 8.03781 43.5448 8.00508C48.0566 7.97235 47.1683 12.0306 47.734 16.1543C48.2997 20.278 49.9828 30.2786 50.7683 32.8735C51.5537 35.4683 53.1855 38.9702 53.8494 45.9225C54.5133 52.8748 55.3829 53.6088 56.4021 55.9044L46.523 57.1387L40.403 16.7434Z" fill="url(#paint0_linear)"/>
<path d="M40.403 16.7434C39.8419 13.5361 39.0377 8.03781 43.5448 8.00508C48.0566 7.97235 47.1683 12.0306 47.734 16.1543C48.2997 20.278 49.9828 30.2786 50.7683 32.8735C51.5537 35.4683 53.1855 38.9702 53.8494 45.9225C54.5133 52.8748 53.466 52.0285 56.4021 55.9044L46.523 57.1387L40.403 16.7434Z" fill="url(#paint1_linear)"/>
<path d="M43.5494 8.00488C43.6896 8.00488 43.8252 8.00489 43.9561 8.01424C41.5436 9.37478 40.9078 13.0964 42.1935 23.7329C42.4179 25.5843 42.4039 27.2207 42.2169 28.6701L40.4121 16.7479C39.8464 13.5359 39.0376 8.03761 43.5494 8.00488Z" fill="url(#paint2_linear)"/>
<path d="M49.721 35.1689C48.136 27.7677 46.8269 16.6123 46.5745 13.8631C46.322 11.114 45.7002 9.43555 43.2549 9.45426C40.8097 9.47296 39.1032 11.1 40.3048 20.4928C41.5016 29.881 41.4082 37.1466 41.4082 37.1466L46.6867 37.4177C48.1033 37.4925 49.375 36.5481 49.721 35.1689Z" fill="url(#paint3_linear)"/>
<path d="M45.7562 10.6558C46.2331 11.4132 46.4529 12.5072 46.5744 13.8631C46.8129 16.4719 48.005 26.6549 49.4825 34.014C49.3843 33.9719 49.2814 33.7755 49.1739 33.4062C47.7432 28.656 46.6025 19.1182 46.4622 17.0189C46.3734 15.7613 46.4201 12.6428 45.7562 10.6558Z" fill="url(#paint4_linear)"/>
<path d="M40.3001 20.4929C39.4258 13.6575 40.0944 10.9364 41.4642 9.95459C41.1276 11.4694 41.0903 14.3681 41.3147 16.098C41.7261 19.2352 45.4149 19.3241 45.4149 19.3241C45.8357 24.7709 43.311 32.9341 43.498 36.2209C43.5261 36.7071 43.3952 37.0344 43.1381 37.2308L41.3988 37.142C41.4035 37.1466 41.5017 29.8811 40.3001 20.4929Z" fill="url(#paint5_linear)"/>
<path d="M47.9723 36.3331C45.0783 28.0998 47.5235 17.6082 43.3951 17.6363C39.4959 17.6643 39.767 23.1673 40.4169 27.8286C41.0621 32.4853 41.3146 35.3887 40.9452 36.9971C40.5759 38.6054 38.5795 53.7864 41.4174 58.5506C45.1343 64.7922 52.1381 63.7964 53.6903 66.6203L54.775 66.2743C58.2582 65.1616 58.001 57.4939 56.4067 55.8996L49.8612 53.2113L47.9723 36.3331Z" fill="url(#paint6_linear)"/>
<path d="M53.6903 66.6203C52.1381 63.7963 45.1343 64.7922 41.4174 58.5505C38.5795 53.7863 40.5759 38.6053 40.9452 36.997C41.3146 35.3887 41.0621 32.4853 40.4169 27.8286C39.767 23.1719 39.4959 17.669 43.3951 17.6362C43.3951 17.6362 41.0574 20.0861 41.539 25.0607C42.0206 30.0353 42.4507 33.1866 41.9691 37.6749C41.3473 43.435 41.0761 53.7302 44.3255 57.6903C47.5749 61.6503 54.4618 58.8544 54.2467 66.4473L53.6903 66.6203Z" fill="url(#paint7_linear)"/>
<path d="M47.9723 36.3331C45.0783 28.0998 47.5235 17.6082 43.3951 17.6363C39.4959 17.6643 39.767 23.1673 40.4169 27.8286C41.0621 32.4853 41.3146 35.3887 40.9452 36.9971C40.5759 38.6054 38.5795 53.7864 41.4174 58.5506C45.1343 64.7922 52.1381 63.7964 53.6903 66.6203L54.775 66.2743C58.2582 65.1616 57.9262 58.7049 56.4067 55.8996L49.8612 53.2113L47.9723 36.3331Z" fill="url(#paint8_linear)"/>
<path d="M47.8273 36.8007C47.4907 36.3051 46.0881 33.4952 45.7562 26.412C45.4943 20.7921 44.9847 19.5672 45.1156 18.6602C46.7847 21.4794 45.6392 29.5912 47.9489 36.249C47.9629 36.7259 47.9302 36.9549 47.8273 36.8007Z" fill="url(#paint9_linear)"/>
<path d="M53.6903 66.7649C52.1381 63.941 45.1343 64.9368 41.4174 58.6952C38.5795 53.931 40.5759 38.75 40.9452 37.1417C41.3146 35.5333 41.0621 32.6299 40.4169 27.9732C39.767 23.3165 39.4959 17.6734 43.3951 17.6406C43.3951 17.6406 40.7582 19.3752 41.539 25.2054C42.2029 30.1613 42.4507 33.3312 41.9691 37.8196C41.3473 43.5797 41.0761 53.8749 44.3255 57.8349C47.5749 61.795 55.3267 60.0557 54.2467 66.5919L53.6903 66.7649Z" fill="url(#paint10_linear)"/>
<path d="M46.4482 54.034C53.148 66.55 48.9822 35.7018 51.7921 35.9122C52.5542 38.2265 53.4145 41.317 53.8586 45.9175C54.3309 50.8314 55.0134 53.6787 56.4114 56.2969C55.6493 59.1395 53.7511 61.5474 51.1656 63.0435C48.8793 64.3619 44.5733 62.445 41.4315 58.5738C41.4268 58.5691 41.4221 58.5598 41.4174 58.5551C38.5795 53.7909 40.5759 38.6099 40.9452 37.0016C42.7686 32.7563 44.1292 49.7093 46.4482 54.034Z" fill="url(#paint11_linear)"/>
<path opacity="0.75" d="M40.9452 36.9972C41.3145 35.3888 41.0621 32.4854 40.4169 27.8287C39.982 24.6915 39.7155 21.1756 40.7815 19.2026L40.4075 16.7434C39.8464 13.5361 39.0423 8.03781 43.5494 8.00508C48.0611 7.97235 47.1728 12.0306 47.7385 16.1543C48.3042 20.278 49.9874 30.2786 50.7728 32.8735C51.5583 35.4683 53.19 38.9702 53.8539 45.9225C54.5178 52.8748 55.1443 53.2955 56.4067 55.9044C57.8233 58.9107 58.2534 65.1663 54.7749 66.2791L53.6902 66.6251C52.138 63.8011 45.1343 64.797 41.4174 58.5554C38.5747 53.7865 40.5758 38.6055 40.9452 36.9972Z" fill="url(#paint12_radial)"/>
<path d="M40.4123 27.8287C40.0616 25.2993 39.8232 22.5221 40.3001 20.5024C39.9027 17.3886 39.8232 15.1304 39.9868 13.5033C39.8325 10.7682 40.3702 8.02846 43.5448 8.00508C48.0565 7.97235 47.1682 12.0306 47.7339 16.1543C48.2997 20.278 49.9828 30.2786 50.7682 32.8735C51.5537 35.4683 53.1854 38.9702 53.8493 45.9225C54.5132 52.8748 55.4202 54.2026 56.4021 55.9044C56.921 57.5875 56.3927 59.9907 55.6634 62.0899C54.9247 64.2266 52.587 65.344 50.455 64.5959C47.6591 63.6141 43.8347 62.6229 41.4128 58.5507C38.5748 53.7865 40.5713 38.6055 40.9406 36.9972C41.31 35.3888 41.0621 32.4854 40.4123 27.8287Z" fill="url(#paint13_linear)"/>
<g opacity="0.5">
<path opacity="0.5" d="M53.8538 45.9176C53.1899 38.9653 51.5583 35.4634 50.7728 32.8686C49.9873 30.2737 48.3042 20.2731 47.7385 16.1494C47.1727 12.0257 48.0564 7.96747 43.5493 8.0002C40.3701 8.02357 39.8324 10.7634 39.9913 13.4985C39.8324 15.1302 39.9072 17.3837 40.3046 20.4928C40.3046 20.4975 40.3046 20.4975 40.3046 20.5022C39.8277 22.5173 40.0662 25.2945 40.4168 27.8285C41.0667 32.4852 41.3145 35.3886 40.9451 36.9969C40.5758 38.6053 38.5794 53.7863 41.4173 58.5505C45.1343 64.7921 52.138 63.7963 53.6902 66.6202C53.6902 66.6202 57.9776 59.2424 56.4066 55.8995C55.7194 55.2122 54.5224 52.8699 53.8538 45.9176Z" fill="url(#paint14_linear)"/>
</g>
<path d="M39.351 16.7434C39.912 13.5361 40.7162 8.03781 36.2091 8.00508C31.6974 7.97235 32.5857 12.0306 32.0199 16.1543C31.4542 20.278 29.7711 30.2786 28.9856 32.8735C28.2002 35.4683 26.5685 38.9702 25.9045 45.9225C25.2406 52.8748 24.371 53.6088 23.3518 55.9044L33.2309 57.1387L39.351 16.7434Z" fill="url(#paint15_linear)"/>
<path d="M39.351 16.7434C39.912 13.5361 40.7162 8.03781 36.2091 8.00508C31.6974 7.97235 32.5857 12.0306 32.0199 16.1543C31.4542 20.278 29.7711 30.2786 28.9856 32.8735C28.2002 35.4683 26.5685 38.9702 25.9045 45.9225C25.2406 52.8748 26.2879 52.0285 23.3518 55.9044L33.2309 57.1387L39.351 16.7434Z" fill="url(#paint16_linear)"/>
<path d="M36.209 8.00488C36.0688 8.00488 35.9332 8.00489 35.8022 8.01424C38.2147 9.37478 38.8506 13.0964 37.5649 23.7329C37.3405 25.5843 37.3545 27.2207 37.5462 28.6701L39.3509 16.7479C39.9119 13.5359 40.7161 8.03761 36.209 8.00488Z" fill="url(#paint17_linear)"/>
<path d="M30.0328 35.1689C31.6178 27.7677 32.9269 16.6123 33.1794 13.8631C33.4319 11.114 34.0537 9.43555 36.4989 9.45426C38.9442 9.47296 40.6507 11.1 39.4491 20.4928C38.2522 29.881 38.3457 37.1466 38.3457 37.1466L33.0672 37.4177C31.6505 37.4925 30.3788 36.5481 30.0328 35.1689Z" fill="url(#paint18_linear)"/>
<path d="M33.9977 10.6558C33.5208 11.4132 33.301 12.5072 33.1795 13.8631C32.941 16.4719 31.7488 26.6549 30.2714 34.014C30.3695 33.9719 30.4724 33.7755 30.5799 33.4062C32.0106 28.656 33.1514 19.1182 33.2916 17.0189C33.3852 15.7613 33.3337 12.6428 33.9977 10.6558Z" fill="url(#paint19_linear)"/>
<path d="M39.4537 20.4929C40.328 13.6575 39.6595 10.9364 38.2896 9.95459C38.6262 11.4694 38.6636 14.3681 38.4392 16.098C38.0278 19.2352 34.3389 19.3241 34.3389 19.3241C33.9181 24.7709 36.4428 32.9341 36.2558 36.2209C36.2278 36.7071 36.3587 37.0344 36.6158 37.2308L38.355 37.142C38.3504 37.1466 38.2568 29.8811 39.4537 20.4929Z" fill="url(#paint20_linear)"/>
<path d="M31.7861 36.3331C34.6802 28.0998 32.235 17.6082 36.3634 17.6363C40.2626 17.6643 39.9915 23.1673 39.3416 27.8286C38.6917 32.4853 38.4439 35.3887 38.8133 36.9971C39.1826 38.6054 41.179 53.7864 38.341 58.5506C34.6241 64.7922 27.6204 63.7964 26.0682 66.6203L24.9835 66.2743C21.5003 65.1616 21.7575 57.4939 23.3518 55.8996L29.8973 53.2113L31.7861 36.3331Z" fill="url(#paint21_linear)"/>
<path d="M26.0681 66.6203C27.6203 63.7963 34.6241 64.7922 38.341 58.5505C41.1789 53.7863 39.1826 38.6053 38.8132 36.997C38.4439 35.3887 38.6963 32.4853 39.3415 27.8286C39.9867 23.1719 40.2626 17.669 36.3633 17.6362C36.3633 17.6362 38.701 20.0861 38.2194 25.0607C37.7379 30.0353 37.3077 33.1866 37.7893 37.6749C38.4111 43.435 38.6823 53.7302 35.4329 57.6903C32.1835 61.6503 25.2967 58.8544 25.5118 66.4473L26.0681 66.6203Z" fill="url(#paint22_linear)"/>
<path d="M31.7862 36.3331C34.6803 28.0998 32.2351 17.6082 36.3634 17.6363C40.2627 17.6643 39.9916 23.1673 39.3417 27.8286C38.6918 32.4853 38.444 35.3887 38.8134 36.9971C39.1827 38.6054 41.1791 53.7864 38.3411 58.5506C34.6242 64.7922 27.6205 63.7964 26.0682 66.6203L24.9835 66.2743C21.5004 65.1616 21.8324 58.7049 23.3519 55.8996L29.8974 53.2113L31.7862 36.3331Z" fill="url(#paint23_linear)"/>
<path d="M31.9311 36.8007C32.2677 36.3051 33.6703 33.4952 34.0023 26.412C34.2641 20.7921 34.7737 19.5672 34.6428 18.6602C32.9737 21.4794 34.1191 29.5912 31.8095 36.249C31.7954 36.7259 31.8282 36.9549 31.9311 36.8007Z" fill="url(#paint24_linear)"/>
<path d="M26.0681 66.7649C27.6203 63.941 34.6241 64.9368 38.341 58.6952C41.179 53.931 39.1826 38.75 38.8132 37.1417C38.4439 35.5333 38.6963 32.6299 39.3415 27.9732C39.9867 23.3165 40.2626 17.6734 36.3633 17.6406C36.3633 17.6406 39.0002 19.3752 38.2194 25.2054C37.5555 30.1613 37.3077 33.3312 37.7893 37.8196C38.4111 43.5797 38.6823 53.8749 35.4329 57.8349C32.1835 61.795 24.4317 60.0557 25.5118 66.5919L26.0681 66.7649Z" fill="url(#paint25_linear)"/>
<path d="M33.3103 54.034C26.6105 66.55 30.7763 35.7018 27.9664 35.9122C27.2043 38.2265 26.344 41.317 25.8998 45.9175C25.4276 50.8314 24.745 53.6787 23.347 56.2969C24.1091 59.1395 26.0073 61.5474 28.5928 63.0435C30.8791 64.3619 35.1851 62.445 38.327 58.5738C38.3317 58.5691 38.3363 58.5598 38.341 58.5551C41.179 53.7909 39.1826 38.6099 38.8133 37.0016C36.9852 32.7563 35.6246 49.7093 33.3103 54.034Z" fill="url(#paint26_linear)"/>
<path opacity="0.75" d="M38.8139 36.9972C38.4445 35.3888 38.697 32.4854 39.3422 27.8287C39.777 24.6915 40.0435 21.1756 38.9775 19.2026L39.3516 16.7434C39.9126 13.5361 40.7168 8.03781 36.2097 8.00508C31.698 7.97235 32.5863 12.0306 32.0205 16.1543C31.4548 20.278 29.7717 30.2786 28.9862 32.8735C28.2008 35.4683 26.569 38.9702 25.9051 45.9225C25.2412 52.8748 24.6147 53.2955 23.3524 55.9044C21.9358 58.9107 21.5056 65.1663 24.9841 66.2791L26.0688 66.6251C27.621 63.8011 34.6247 64.797 38.3417 58.5554C41.1796 53.7865 39.1833 38.6055 38.8139 36.9972Z" fill="url(#paint27_radial)"/>
<path d="M39.3416 27.8287C39.6922 25.2993 39.9306 22.5221 39.4537 20.5024C39.8512 17.3886 39.9306 15.1304 39.767 13.5033C39.9213 10.7682 39.3836 8.02846 36.2091 8.00508C31.6973 7.97235 32.5856 12.0306 32.0199 16.1543C31.4542 20.278 29.771 30.2786 28.9856 32.8735C28.2001 35.4683 26.5684 38.9702 25.9045 45.9225C25.2406 52.8748 24.3336 54.2026 23.3517 55.9044C22.8328 57.5875 23.3611 59.9907 24.0904 62.0899C24.8292 64.2266 27.1669 65.344 29.2988 64.5959C32.0947 63.6141 35.9192 62.6229 38.341 58.5507C41.179 53.7865 39.1826 38.6055 38.8133 36.9972C38.4439 35.3888 38.6964 32.4854 39.3416 27.8287Z" fill="url(#paint28_linear)"/>
<g opacity="0.5">
<path opacity="0.5" d="M25.8998 45.9176C26.5637 38.9653 28.1954 35.4634 28.9808 32.8686C29.7663 30.2737 31.4495 20.2731 32.0152 16.1494C32.5809 12.0257 31.6972 7.96747 36.2043 8.0002C39.3836 8.02357 39.9213 10.7634 39.7623 13.4985C39.9213 15.1302 39.8465 17.3837 39.4491 20.4928C39.4491 20.4975 39.4491 20.4975 39.4491 20.5022C39.9259 22.5173 39.6875 25.2945 39.3368 27.8285C38.6869 32.4852 38.4392 35.3886 38.8085 36.9969C39.1779 38.6053 41.1743 53.7863 38.3363 58.5505C34.6194 64.7921 27.6157 63.7963 26.0634 66.6202C26.0634 66.6202 21.7761 59.2424 23.347 55.8995C24.039 55.2122 25.2359 52.8699 25.8998 45.9176Z" fill="url(#paint29_linear)"/>
</g>
<path d="M23.403 55.2821C23.5058 55.2307 23.5619 55.2026 23.5619 55.2026C23.5012 55.2213 23.4544 55.2541 23.403 55.2821Z" fill="url(#paint30_radial)"/>
<path d="M23.3329 61.4954C22.3324 58.5686 22.5334 55.8008 23.5573 55.207C21.0092 55.4922 9.87251 57.5073 9.49848 57.5354C7.85742 62.2575 10.5224 69.9625 13.7765 71.8888C19.9854 72.9408 27.6764 66.1428 27.6764 66.1428C26.5029 66.5448 24.3849 64.5672 23.3329 61.4954Z" fill="url(#paint31_radial)"/>
<path d="M23.4031 55.2821C23.5059 55.2307 23.5621 55.2026 23.5621 55.2026C23.5013 55.2213 23.4545 55.2541 23.4031 55.2821Z" fill="url(#paint32_radial)"/>
<path opacity="0.5" d="M13.7811 71.8887C19.9901 72.9406 27.6811 66.1426 27.6811 66.1426C26.5964 66.512 24.7075 64.8522 23.5995 62.1779L22.7018 61.7618C22.7018 61.7618 23.7537 65.3104 20.7054 66.3109C14.6461 68.298 10.499 64.7306 9.02161 61.4438C9.20862 65.7078 11.3266 70.4346 13.7811 71.8887Z" fill="url(#paint33_radial)"/>
<path d="M23.5573 55.2026C21.9536 55.4271 21.444 58.279 22.51 61.2526C24.5952 67.0641 26.7132 66.9285 27.6763 66.1384C26.5028 66.5404 24.3848 64.5628 23.3329 61.491C22.3323 58.5689 22.538 55.8011 23.5573 55.2026Z" fill="url(#paint34_linear)"/>
<path opacity="0.16" d="M23.3329 61.4954C22.3324 58.5686 22.5334 55.8008 23.5573 55.207C21.0092 55.4922 9.87251 57.5073 9.49848 57.5354C7.85742 62.2575 10.5224 69.9625 13.7765 71.8888C19.9854 72.9408 27.6764 66.1428 27.6764 66.1428C26.5029 66.5448 24.3849 64.5672 23.3329 61.4954Z" fill="url(#paint35_radial)"/>
<path d="M56.2852 55.2826C56.1823 55.2312 56.1262 55.2031 56.1262 55.2031C56.187 55.2218 56.2384 55.2546 56.2852 55.2826Z" fill="url(#paint36_radial)"/>
<path d="M56.3552 61.4964C57.3558 58.5696 57.1547 55.8018 56.1308 55.208C58.6789 55.4932 69.8157 57.5083 70.1897 57.5363C71.8308 62.2585 69.1658 69.9635 65.9118 71.8898C59.7028 72.9417 52.0118 66.1437 52.0118 66.1437C53.1854 66.5458 55.3033 64.5681 56.3552 61.4964Z" fill="url(#paint37_radial)"/>
<path d="M56.2853 55.2826C56.1824 55.2312 56.1263 55.2031 56.1263 55.2031C56.1871 55.2218 56.2385 55.2546 56.2853 55.2826Z" fill="url(#paint38_radial)"/>
<path opacity="0.5" d="M65.912 71.8891C59.7031 72.9411 52.0121 66.1431 52.0121 66.1431C53.0968 66.5125 54.9856 64.8527 56.0937 62.1784L56.9914 61.7623C56.9914 61.7623 55.9394 65.3109 58.9878 66.3114C65.0471 68.2985 69.1941 64.7311 70.6715 61.4443C70.4798 65.7083 68.3619 70.4351 65.912 71.8891Z" fill="url(#paint39_radial)"/>
<path d="M56.1316 55.2031C57.7352 55.4275 58.2449 58.2795 57.1789 61.2531C55.0937 67.0646 52.9757 66.929 52.0126 66.1388C53.1861 66.5409 55.304 64.5632 56.356 61.4915C57.3565 58.5694 57.1508 55.8016 56.1316 55.2031Z" fill="url(#paint40_linear)"/>
<path opacity="0.16" d="M56.3552 61.4959C57.3558 58.5691 57.1547 55.8013 56.1308 55.2075C58.6789 55.4927 69.8157 57.5078 70.1897 57.5359C71.8308 62.258 69.1658 69.963 65.9118 71.8893C59.7028 72.9412 52.0118 66.1432 52.0118 66.1432C53.1854 66.5453 55.3033 64.5676 56.3552 61.4959Z" fill="url(#paint41_radial)"/>
<path d="M31.7534 36.2392C32.595 33.7004 32.955 31.0401 33.1887 28.3845C33.4365 25.7289 33.4132 23.0499 33.8854 20.399C34.0256 19.7444 34.208 19.0805 34.5633 18.4914C34.7503 18.2015 34.9841 17.935 35.2786 17.7433C35.5825 17.5703 35.9285 17.4768 36.2745 17.4722C36.9524 17.4909 37.6491 17.6545 38.1961 18.0846C38.7478 18.5101 39.0704 19.146 39.2948 19.7725C39.7296 21.0582 39.7624 22.4234 39.725 23.7559C39.6688 25.093 39.5052 26.4209 39.3088 27.7393C39.4725 26.4162 39.6034 25.0837 39.6267 23.7512C39.6501 22.4234 39.608 21.0675 39.1686 19.8145C38.9441 19.2021 38.6262 18.5943 38.1026 18.2015C37.5836 17.7994 36.9244 17.6498 36.2745 17.6358C35.9519 17.6405 35.6386 17.7293 35.3628 17.8883C35.0963 18.0613 34.8812 18.3091 34.7082 18.5802C34.3763 19.1413 34.2033 19.7865 34.0724 20.4317C33.5815 23.0405 33.5815 25.7336 33.3103 28.3892C33.0812 31.0542 32.6651 33.7238 31.7534 36.2392Z" fill="#804B24"/>
<path d="M30.0048 35.0799C30.664 31.7604 31.1876 28.4128 31.6739 25.0606C32.1508 21.7083 32.5762 18.3467 32.9269 14.9805C33.0251 14.1436 33.0765 13.2973 33.2261 12.4511C33.3804 11.6235 33.6188 10.7492 34.222 10.104C34.8344 9.44947 35.7742 9.25778 36.6158 9.30453C37.4714 9.3092 38.3643 9.6739 38.8693 10.3986C39.8277 11.8713 39.8371 13.6713 39.8511 15.3451C39.8184 17.0423 39.636 18.7301 39.4163 20.4086C39.6033 18.7254 39.7529 17.0376 39.7529 15.3451C39.7296 13.6854 39.6968 11.8853 38.7618 10.4781C38.2755 9.79077 37.4433 9.45883 36.6111 9.45415C35.7882 9.41207 34.9046 9.60375 34.3435 10.2162C33.7825 10.824 33.5487 11.6656 33.4038 12.4838C33.2588 13.3113 33.2167 14.1576 33.1185 14.9992C32.7398 18.3654 32.2957 21.727 31.7954 25.0746C31.3092 28.4315 30.7388 31.7744 30.0048 35.0799Z" fill="#804B24"/>
<path d="M47.9161 36.2392C47.0044 33.7238 46.5883 31.0542 46.3499 28.3939C46.0787 25.7383 46.0787 23.0452 45.5878 20.4364C45.4522 19.7912 45.2792 19.1413 44.952 18.5802C44.779 18.3091 44.5639 18.0613 44.2974 17.8883C44.0216 17.7293 43.713 17.6405 43.3857 17.6358C42.7358 17.6498 42.0766 17.7994 41.5576 18.2015C41.034 18.5989 40.716 19.2067 40.4916 19.8145C40.0568 21.0675 40.0101 22.4234 40.0335 23.7512C40.0568 25.0837 40.1877 26.4162 40.3514 27.7393C40.155 26.4209 39.9914 25.093 39.9353 23.7559C39.8979 22.4234 39.9306 21.0582 40.3654 19.7725C40.5898 19.146 40.9124 18.5101 41.4641 18.0846C42.0111 17.6545 42.7078 17.4909 43.3857 17.4722C43.7317 17.4722 44.0777 17.5703 44.3816 17.7433C44.6761 17.935 44.9099 18.2015 45.0969 18.4867C45.4522 19.0758 45.6346 19.7397 45.7748 20.3943C46.2517 23.0452 46.2237 25.7242 46.4715 28.3798C46.7146 31.0355 47.0792 33.7004 47.9161 36.2392Z" fill="#804B24"/>
<path d="M49.6694 35.0803C48.9354 31.7748 48.365 28.4319 47.8694 25.0796C47.3691 21.7274 46.925 18.3704 46.5463 15.0042C46.4481 14.1626 46.406 13.3117 46.2611 12.4888C46.1162 11.6706 45.887 10.829 45.3213 10.2212C44.7603 9.60875 43.8766 9.41707 43.0538 9.45915C42.2215 9.45915 41.3846 9.79577 40.9031 10.4831C39.968 11.8903 39.9353 13.6904 39.9119 15.3501C39.9119 17.0426 40.0615 18.7304 40.2485 20.4136C40.0288 18.7351 39.8464 17.0473 39.8137 15.3501C39.8277 13.681 39.8371 11.881 40.7956 10.4036C41.2958 9.67888 42.1935 9.3142 43.0491 9.30953C43.8907 9.26277 44.8304 9.44979 45.4429 10.109C46.0507 10.7542 46.2845 11.6285 46.4388 12.4561C46.593 13.2976 46.6398 14.1439 46.738 14.9854C47.0933 18.3517 47.5141 21.7133 47.991 25.0609C48.4866 28.4131 49.0055 31.7561 49.6694 35.0803Z" fill="#804B24"/>
<defs>
<linearGradient id="paint0_linear" x1="51.9592" y1="17.6289" x2="54.5843" y2="6.4304" gradientUnits="userSpaceOnUse">
<stop offset="0.00132565" stop-color="#D2A374"/>
<stop offset="1" stop-color="#DEBA94"/>
</linearGradient>
<linearGradient id="paint1_linear" x1="41.9462" y1="80.2233" x2="46.4709" y2="46.6648" gradientUnits="userSpaceOnUse">
<stop offset="0.00132565" stop-color="#BE8D68"/>
<stop offset="1" stop-color="#CD9870"/>
</linearGradient>
<linearGradient id="paint2_linear" x1="39.9639" y1="18.3335" x2="43.9549" y2="18.3335" gradientUnits="userSpaceOnUse">
<stop stop-color="#B37E53"/>
<stop offset="1" stop-color="#CD9870"/>
</linearGradient>
<linearGradient id="paint3_linear" x1="39.0437" y1="52.6728" x2="43.5685" y2="30.4889" gradientUnits="userSpaceOnUse">
<stop offset="0.00132565" stop-color="#BE8D68"/>
<stop offset="1" stop-color="#CD9870"/>
</linearGradient>
<linearGradient id="paint4_linear" x1="49.3856" y1="22.331" x2="45.8403" y2="22.3583" gradientUnits="userSpaceOnUse">
<stop stop-color="#B37E53"/>
<stop offset="1" stop-color="#CD9870"/>
</linearGradient>
<linearGradient id="paint5_linear" x1="41.2763" y1="23.2215" x2="35.0547" y2="10.4014" gradientUnits="userSpaceOnUse">
<stop stop-color="#B37E53"/>
<stop offset="1" stop-color="#CD9870"/>
</linearGradient>
<linearGradient id="paint6_linear" x1="50.3697" y1="75.0232" x2="46.222" y2="26.005" gradientUnits="userSpaceOnUse">
<stop offset="0.00132565" stop-color="#D2A374"/>
<stop offset="1" stop-color="#DEBA94"/>
</linearGradient>
<linearGradient id="paint7_linear" x1="59.0614" y1="41.8016" x2="18.49" y2="43.0943" gradientUnits="userSpaceOnUse">
<stop offset="0.00132565" stop-color="#F0C492" stop-opacity="0"/>
<stop offset="1" stop-color="#E6AF74"/>
</linearGradient>
<linearGradient id="paint8_linear" x1="46.9591" y1="97.3807" x2="48.6559" y2="45.3461" gradientUnits="userSpaceOnUse">
<stop offset="0.00132565" stop-color="#BE8D68"/>
<stop offset="1" stop-color="#CD9870"/>
</linearGradient>
<linearGradient id="paint9_linear" x1="47.8753" y1="27.7524" x2="45.1517" y2="27.7734" gradientUnits="userSpaceOnUse">
<stop stop-color="#B37E53"/>
<stop offset="1" stop-color="#CD9870"/>
</linearGradient>
<linearGradient id="paint10_linear" x1="61.5295" y1="45.0437" x2="4.88289" y2="32.639" gradientUnits="userSpaceOnUse">
<stop stop-color="#CD9870" stop-opacity="0"/>
<stop offset="1" stop-color="#B37E53"/>
</linearGradient>
<linearGradient id="paint11_linear" x1="44.7025" y1="29.9803" x2="51.4897" y2="77.7416" gradientUnits="userSpaceOnUse">
<stop offset="0.3118" stop-color="#D2A374" stop-opacity="0"/>
<stop offset="1" stop-color="#D2A374"/>
</linearGradient>
<radialGradient id="paint12_radial" cx="0" cy="0" r="1" gradientUnits="userSpaceOnUse" gradientTransform="translate(45.085 53.634) rotate(-93.1823) scale(15.4551 7.26695)">
<stop stop-color="#B37E53" stop-opacity="0.4"/>
<stop offset="1" stop-color="#8D562E" stop-opacity="0"/>
</radialGradient>
<linearGradient id="paint13_linear" x1="44.0979" y1="36.5705" x2="32.409" y2="37.0733" gradientUnits="userSpaceOnUse">
<stop offset="0.3118" stop-color="#8D562E" stop-opacity="0"/>
<stop offset="1" stop-color="#804B24"/>
</linearGradient>
<linearGradient id="paint14_linear" x1="48.1489" y1="42.2962" x2="49.1753" y2="105.348" gradientUnits="userSpaceOnUse">
<stop offset="0.3105" stop-color="#A46C3F" stop-opacity="0"/>
<stop offset="1" stop-color="#A46C3F"/>
</linearGradient>
<linearGradient id="paint15_linear" x1="27.7875" y1="17.629" x2="25.1624" y2="6.43053" gradientUnits="userSpaceOnUse">
<stop offset="0.00132565" stop-color="#D2A374"/>
<stop offset="1" stop-color="#DEBA94"/>
</linearGradient>
<linearGradient id="paint16_linear" x1="37.8102" y1="80.2233" x2="33.2854" y2="46.6648" gradientUnits="userSpaceOnUse">
<stop offset="0.00132565" stop-color="#BE8D68"/>
<stop offset="1" stop-color="#CD9870"/>
</linearGradient>
<linearGradient id="paint17_linear" x1="39.7923" y1="18.3335" x2="35.8012" y2="18.3335" gradientUnits="userSpaceOnUse">
<stop stop-color="#B37E53"/>
<stop offset="1" stop-color="#CD9870"/>
</linearGradient>
<linearGradient id="paint18_linear" x1="40.7125" y1="52.6728" x2="36.1878" y2="30.489" gradientUnits="userSpaceOnUse">
<stop offset="0.00132565" stop-color="#BE8D68"/>
<stop offset="1" stop-color="#CD9870"/>
</linearGradient>
<linearGradient id="paint19_linear" x1="30.361" y1="22.3311" x2="33.9064" y2="22.3584" gradientUnits="userSpaceOnUse">
<stop stop-color="#B37E53"/>
<stop offset="1" stop-color="#CD9870"/>
</linearGradient>
<linearGradient id="paint20_linear" x1="38.4801" y1="23.2216" x2="44.7016" y2="10.4015" gradientUnits="userSpaceOnUse">
<stop stop-color="#B37E53"/>
<stop offset="1" stop-color="#CD9870"/>
</linearGradient>
<linearGradient id="paint21_linear" x1="29.3865" y1="75.0232" x2="33.5342" y2="26.0051" gradientUnits="userSpaceOnUse">
<stop offset="0.00132565" stop-color="#D2A374"/>
<stop offset="1" stop-color="#DEBA94"/>
</linearGradient>
<linearGradient id="paint22_linear" x1="20.6851" y1="41.8017" x2="61.2564" y2="43.0944" gradientUnits="userSpaceOnUse">
<stop offset="0.00132565" stop-color="#F0C492" stop-opacity="0"/>
<stop offset="1" stop-color="#E6AF74"/>
</linearGradient>
<linearGradient id="paint23_linear" x1="32.7972" y1="97.3807" x2="31.1004" y2="45.3461" gradientUnits="userSpaceOnUse">
<stop offset="0.00132565" stop-color="#BE8D68"/>
<stop offset="1" stop-color="#CD9870"/>
</linearGradient>
<linearGradient id="paint24_linear" x1="31.8712" y1="27.7525" x2="34.5948" y2="27.7735" gradientUnits="userSpaceOnUse">
<stop stop-color="#B37E53"/>
<stop offset="1" stop-color="#CD9870"/>
</linearGradient>
<linearGradient id="paint25_linear" x1="18.2268" y1="45.0438" x2="74.8733" y2="32.6391" gradientUnits="userSpaceOnUse">
<stop stop-color="#CD9870" stop-opacity="0"/>
<stop offset="1" stop-color="#B37E53"/>
</linearGradient>
<linearGradient id="paint26_linear" x1="35.0537" y1="29.9804" x2="28.2665" y2="77.7416" gradientUnits="userSpaceOnUse">
<stop offset="0.3118" stop-color="#D2A374" stop-opacity="0"/>
<stop offset="1" stop-color="#D2A374"/>
</linearGradient>
<radialGradient id="paint27_radial" cx="0" cy="0" r="1" gradientUnits="userSpaceOnUse" gradientTransform="translate(34.6719 53.5831) rotate(-86.8177) scale(15.4551 7.26695)">
<stop stop-color="#B37E53" stop-opacity="0.4"/>
<stop offset="1" stop-color="#8D562E" stop-opacity="0"/>
</radialGradient>
<linearGradient id="paint28_linear" x1="35.6585" y1="36.5706" x2="47.3474" y2="37.0733" gradientUnits="userSpaceOnUse">
<stop offset="0.3118" stop-color="#8D562E" stop-opacity="0"/>
<stop offset="1" stop-color="#804B24"/>
</linearGradient>
<linearGradient id="paint29_linear" x1="31.6072" y1="42.2962" x2="30.5808" y2="105.348" gradientUnits="userSpaceOnUse">
<stop offset="0.3105" stop-color="#A46C3F" stop-opacity="0"/>
<stop offset="1" stop-color="#A46C3F"/>
</linearGradient>
<radialGradient id="paint30_radial" cx="0" cy="0" r="1" gradientUnits="userSpaceOnUse" gradientTransform="translate(15.5568 46.7101) rotate(30.5992) scale(20.7605)">
<stop stop-color="#FB9DC1"/>
<stop offset="0.2947" stop-color="#FB9DC1"/>
<stop offset="0.4421" stop-color="#F897B9"/>
<stop offset="0.6681" stop-color="#F185A4"/>
<stop offset="0.9434" stop-color="#E66881"/>
<stop offset="1" stop-color="#E36179"/>
</radialGradient>
<radialGradient id="paint31_radial" cx="0" cy="0" r="1" gradientUnits="userSpaceOnUse" gradientTransform="translate(15.4463 46.8994) rotate(30.5992) scale(20.647)">
<stop stop-color="#FB9DC1"/>
<stop offset="0.2947" stop-color="#FF7AD3"/>
<stop offset="0.3637" stop-color="#FF75CB"/>
<stop offset="0.4697" stop-color="#FF69B6"/>
<stop offset="0.5993" stop-color="#FF5593"/>
<stop offset="0.7477" stop-color="#FF3962"/>
<stop offset="0.9098" stop-color="#FF1524"/>
<stop offset="0.9973" stop-color="#FF0000"/>
</radialGradient>
<radialGradient id="paint32_radial" cx="0" cy="0" r="1" gradientUnits="userSpaceOnUse" gradientTransform="translate(15.5569 46.7101) rotate(30.5992) scale(20.7605)">
<stop stop-color="#FB9DC1"/>
<stop offset="0.2947" stop-color="#FB9DC1"/>
<stop offset="0.4421" stop-color="#F897B9"/>
<stop offset="0.6681" stop-color="#F185A4"/>
<stop offset="0.9434" stop-color="#E66881"/>
<stop offset="1" stop-color="#E36179"/>
</radialGradient>
<radialGradient id="paint33_radial" cx="0" cy="0" r="1" gradientUnits="userSpaceOnUse" gradientTransform="translate(25.9679 62.1523) scale(25.0809)">
<stop stop-color="#C20000"/>
<stop offset="0.1451" stop-color="#C40608"/>
<stop offset="0.3677" stop-color="#CA171D"/>
<stop offset="0.64" stop-color="#D33340"/>
<stop offset="0.9492" stop-color="#E15A70"/>
<stop offset="1" stop-color="#E36179"/>
</radialGradient>
<linearGradient id="paint34_linear" x1="24.8141" y1="50.7503" x2="24.8141" y2="65.5612" gradientUnits="userSpaceOnUse">
<stop stop-color="#FB9DC1"/>
<stop offset="0.2947" stop-color="#FF7AD3"/>
<stop offset="0.3637" stop-color="#FF75CB"/>
<stop offset="0.4697" stop-color="#FF69B6"/>
<stop offset="0.5993" stop-color="#FF5593"/>
<stop offset="0.7477" stop-color="#FF3962"/>
<stop offset="0.9098" stop-color="#FF1524"/>
<stop offset="0.9973" stop-color="#FF0000"/>
</linearGradient>
<radialGradient id="paint35_radial" cx="0" cy="0" r="1" gradientUnits="userSpaceOnUse" gradientTransform="translate(15.5022 59.0351) rotate(170.241) scale(6.70199 3.57097)">
<stop stop-color="white" stop-opacity="0.4"/>
<stop offset="1" stop-color="white" stop-opacity="0"/>
</radialGradient>
<radialGradient id="paint36_radial" cx="0" cy="0" r="1" gradientUnits="userSpaceOnUse" gradientTransform="translate(64.1219 46.7124) rotate(149.394) scale(20.7561 20.7589)">
<stop stop-color="#FB9DC1"/>
<stop offset="0.2947" stop-color="#FB9DC1"/>
<stop offset="0.4421" stop-color="#F897B9"/>
<stop offset="0.6681" stop-color="#F185A4"/>
<stop offset="0.9434" stop-color="#E66881"/>
<stop offset="1" stop-color="#E36179"/>
</radialGradient>
<radialGradient id="paint37_radial" cx="0" cy="0" r="1" gradientUnits="userSpaceOnUse" gradientTransform="translate(64.2347 46.9021) rotate(149.401) scale(20.647)">
<stop stop-color="#FB9DC1"/>
<stop offset="0.2947" stop-color="#FF7AD3"/>
<stop offset="0.3637" stop-color="#FF75CB"/>
<stop offset="0.4697" stop-color="#FF69B6"/>
<stop offset="0.5993" stop-color="#FF5593"/>
<stop offset="0.7477" stop-color="#FF3962"/>
<stop offset="0.9098" stop-color="#FF1524"/>
<stop offset="0.9973" stop-color="#FF0000"/>
</radialGradient>
<radialGradient id="paint38_radial" cx="0" cy="0" r="1" gradientUnits="userSpaceOnUse" gradientTransform="translate(64.122 46.7124) rotate(149.394) scale(20.7561 20.7589)">
<stop stop-color="#FB9DC1"/>
<stop offset="0.2947" stop-color="#FB9DC1"/>
<stop offset="0.4421" stop-color="#F897B9"/>
<stop offset="0.6681" stop-color="#F185A4"/>
<stop offset="0.9434" stop-color="#E66881"/>
<stop offset="1" stop-color="#E36179"/>
</radialGradient>
<radialGradient id="paint39_radial" cx="0" cy="0" r="1" gradientUnits="userSpaceOnUse" gradientTransform="translate(53.7213 62.1528) rotate(180) scale(25.0809)">
<stop stop-color="#C20000"/>
<stop offset="0.1451" stop-color="#C40608"/>
<stop offset="0.3677" stop-color="#CA171D"/>
<stop offset="0.64" stop-color="#D33340"/>
<stop offset="0.9492" stop-color="#E15A70"/>
<stop offset="1" stop-color="#E36179"/>
</radialGradient>
<linearGradient id="paint40_linear" x1="54.8755" y1="50.7508" x2="54.8755" y2="65.5617" gradientUnits="userSpaceOnUse">
<stop stop-color="#FB9DC1"/>
<stop offset="0.2947" stop-color="#FF7AD3"/>
<stop offset="0.3637" stop-color="#FF75CB"/>
<stop offset="0.4697" stop-color="#FF69B6"/>
<stop offset="0.5993" stop-color="#FF5593"/>
<stop offset="0.7477" stop-color="#FF3962"/>
<stop offset="0.9098" stop-color="#FF1524"/>
<stop offset="0.9973" stop-color="#FF0000"/>
</linearGradient>
<radialGradient id="paint41_radial" cx="0" cy="0" r="1" gradientUnits="userSpaceOnUse" gradientTransform="translate(64.1907 59.0301) rotate(9.75904) scale(6.70199 3.57097)">
<stop stop-color="white" stop-opacity="0.4"/>
<stop offset="1" stop-color="white" stop-opacity="0"/>
</radialGradient>
</defs>
</svg>
