<svg width="80" height="80" viewBox="0 0 80 80" fill="none" xmlns="http://www.w3.org/2000/svg">
<path d="M38.7096 13.4971H40.8462L42.761 50.7518L36.2791 50.6045L36.4263 21.7287L38.7096 13.4971Z" fill="#A1541E"/>
<path d="M23.54 55.2263C24.7131 54.8246 26.5152 56.9858 27.5644 60.054C28.6136 63.1222 28.5132 65.9346 27.3401 66.3363" fill="#B23E22"/>
<path d="M27.3401 66.3356C26.167 66.7373 24.365 64.5761 23.3157 61.5079C22.2665 58.4398 22.367 55.6273 23.54 55.2256" fill="#B23E22"/>
<path d="M39.279 16.726C39.8378 13.5248 40.6436 8.03534 36.1406 8.00023C31.6375 7.96511 32.5223 12.0178 31.9561 16.1352C31.3899 20.2525 29.7098 30.2388 28.9267 32.8277C28.1437 35.4171 26.5135 38.9153 25.8493 45.8563C25.1852 52.7972 24.3189 53.531 23.3018 55.8241L33.1667 57.0569L39.279 16.726Z" fill="url(#paint0_linear)"/>
<path d="M39.279 16.726C39.8378 13.5248 40.6436 8.03534 36.1406 8.00023C31.6375 7.96511 32.5223 12.0178 31.9561 16.1352C31.3899 20.2525 29.7098 30.2388 28.9267 32.8277C28.1437 35.4171 26.5135 38.9153 25.8493 45.8563C25.1852 52.7972 26.2319 51.9538 23.3018 55.8241L33.1667 57.0569L39.279 16.726Z" fill="url(#paint1_linear)"/>
<path d="M36.1405 8.00027C36 7.99903 35.8651 8.00211 35.7351 8.00889C38.1447 9.36492 38.778 13.0831 37.4959 23.7015C37.2729 25.551 37.2864 27.1843 37.475 28.6296L39.2789 16.726C39.8377 13.5248 40.6435 8.03538 36.1405 8.00027Z" fill="url(#paint2_radial)"/>
<path d="M29.9771 35.1265C31.5604 27.7346 32.8678 16.6011 33.1179 13.8552C33.368 11.1092 33.9915 9.43468 36.4337 9.45377C38.8759 9.47287 40.5776 11.0988 39.3811 20.4733C38.1847 29.8478 38.282 37.0986 38.282 37.0986L33.0101 37.3709C31.5925 37.4443 30.3214 36.5035 29.9771 35.1265Z" fill="url(#paint3_linear)"/>
<path d="M29.9771 35.1265C31.5604 27.7346 32.8678 16.6011 33.1179 13.8552C33.368 11.1092 33.9915 9.43468 36.4337 9.45377C38.8759 9.47287 40.5776 11.0988 39.3811 20.4733C38.1847 29.8478 38.282 37.0986 38.282 37.0986L33.0101 37.3709C31.5925 37.4443 30.3214 36.5035 29.9771 35.1265Z" fill="url(#paint4_linear)"/>
<path d="M33.9356 10.6499C33.4575 11.4083 33.2418 12.5 33.1186 13.8542C32.8808 16.4609 31.6905 26.6265 30.2156 33.9741C30.3117 33.9303 30.4146 33.7369 30.5261 33.3678C31.9548 28.6239 33.0915 19.1027 33.2357 17.0043C33.3219 15.7469 33.2714 12.6319 33.9356 10.6499Z" fill="url(#paint5_radial)"/>
<path d="M39.3819 20.4725C40.253 13.6455 39.587 10.9304 38.2175 9.9502C38.5526 11.4615 38.592 14.3547 38.3653 16.0847C37.9538 19.2181 34.2707 19.3075 34.2707 19.3075C33.8518 24.7457 36.3698 32.8986 36.1843 36.1786C36.1572 36.6635 36.2891 36.99 36.5448 37.189L38.2828 37.0991C38.2821 37.0985 38.1854 29.8464 39.3819 20.4725Z" fill="url(#paint6_radial)"/>
<path d="M31.7238 36.2845C34.6114 28.0633 32.1735 17.5872 36.2952 17.6192C40.1877 17.6494 39.9166 23.1431 39.2697 27.794C38.6234 32.445 38.3721 35.3437 38.7411 36.9492C39.1102 38.5548 41.1045 53.7126 38.2698 58.4707C34.5578 64.7013 27.5664 63.7088 26.015 66.5274L24.9325 66.1818C21.4559 65.0722 21.7091 57.4166 23.3011 55.824L29.8379 53.1384L31.7238 36.2845Z" fill="url(#paint7_linear)"/>
<path d="M26.0149 66.5273C27.5663 63.7087 34.5577 64.7006 38.2697 58.4706C41.1044 53.7125 39.1107 38.5553 38.741 36.9492C38.372 35.3436 38.6233 32.4449 39.2696 27.794C39.9159 23.1431 40.1876 17.6493 36.2951 17.6191C36.2951 17.6191 38.6289 20.0638 38.1483 25.0326C37.6678 30.0014 37.2377 33.1448 37.7195 37.6263C38.3381 43.3769 38.6123 53.6552 35.366 57.6081C32.1205 61.561 25.2442 58.7694 25.4611 66.3505L26.0149 66.5273Z" fill="url(#paint8_linear)"/>
<path d="M31.7238 36.2845C34.6114 28.0633 32.1735 17.5872 36.2952 17.6192C40.1877 17.6494 39.9166 23.1431 39.2697 27.794C38.6234 32.445 38.3721 35.3437 38.7411 36.9492C39.1102 38.5548 41.1045 53.7126 38.2698 58.4707C34.5578 64.7013 27.5664 63.7088 26.015 66.5274L24.9325 66.1818C21.4559 65.0722 21.7855 58.6223 23.3011 55.824L29.8379 53.1384L31.7238 36.2845Z" fill="url(#paint9_radial)"/>
<path d="M31.8704 36.7523C32.2055 36.2576 33.6084 33.4507 33.9392 26.3816C34.2017 20.772 34.7081 19.5479 34.58 18.644C32.9128 21.4608 34.0557 29.5563 31.7502 36.2071C31.7342 36.6766 31.7663 36.9058 31.8704 36.7523Z" fill="url(#paint10_radial)"/>
<path d="M26.015 66.5273C27.5664 63.7087 34.5578 64.7006 38.2698 58.4706C41.1045 53.7125 39.1108 38.5553 38.7411 36.9492C38.3721 35.3436 38.6234 32.4449 39.2697 27.794C39.916 23.1431 40.1877 17.6493 36.2952 17.6191C36.2952 17.6191 38.9272 19.2117 38.1484 25.0326C37.4867 29.9805 37.2378 33.1448 37.7196 37.6263C38.3382 43.3769 38.6124 53.6552 35.3661 57.6081C32.1205 61.561 24.3824 59.8236 25.4612 66.3505L26.015 66.5273Z" fill="url(#paint11_linear)"/>
<path d="M33.2467 53.961C26.5583 66.4549 30.7157 35.658 27.91 35.8688C27.1504 38.181 26.2885 41.2651 25.8486 45.8563C25.3791 50.7623 24.6959 53.6068 23.301 56.2203C24.0631 59.0562 25.9552 61.4632 28.5397 62.9548C30.8229 64.2726 35.1202 62.3554 38.2561 58.4906C38.2605 58.4838 38.2648 58.4776 38.2685 58.4702C41.1031 53.7121 39.1094 38.5549 38.7398 36.9488C36.9168 32.7143 35.5589 49.641 33.2467 53.961Z" fill="url(#paint12_radial)"/>
<path opacity="0.75" d="M38.7411 36.9494C38.372 35.3438 38.6234 32.4451 39.2697 27.7942C39.7052 24.6625 39.9683 21.1514 38.9068 19.1805L39.2789 16.726C39.8377 13.5248 40.6436 8.03534 36.1405 8.00022C31.6375 7.96572 32.5222 12.0178 31.956 16.1352C31.3898 20.2525 29.7097 30.2388 28.9266 32.8277C28.1436 35.4171 26.5134 38.9153 25.8492 45.8563C25.1851 52.7972 24.5604 53.2174 23.3017 55.8241C21.889 58.8275 21.4565 65.0717 24.9331 66.1819L26.0156 66.5275C27.5669 63.7089 34.5584 64.7008 38.2704 58.4708C41.1044 53.7127 39.1101 38.5549 38.7411 36.9494Z" fill="url(#paint13_radial)"/>
<path d="M39.2697 27.7942C39.6209 25.2669 39.8593 22.4939 39.3806 20.4817C39.7774 17.3741 39.8556 15.1204 39.6942 13.4915C39.8501 10.7585 39.3141 8.02486 36.1406 8.00022C31.6375 7.96572 32.5222 12.0178 31.956 16.1352C31.3899 20.2525 29.7098 30.2388 28.9267 32.8277C28.1436 35.4171 26.5135 38.9153 25.8493 45.8563C25.1852 52.7972 24.2807 54.1224 23.3017 55.8241C22.7824 57.506 23.3134 59.9026 24.0392 62.0017C24.7773 64.1364 27.1098 65.2522 29.2415 64.5043C32.0337 63.524 35.8492 62.5334 38.2704 58.4696C41.1051 53.7115 39.1114 38.5543 38.7417 36.9481C38.3721 35.3438 38.6234 32.4451 39.2697 27.7942Z" fill="url(#paint14_linear)"/>
<path d="M23.3823 55.3048C23.4852 55.2549 23.5394 55.2266 23.5394 55.2266C23.484 55.2457 23.4335 55.2752 23.3823 55.3048Z" fill="url(#paint15_radial)"/>
<path d="M23.3152 61.5089C22.3153 58.5861 22.5192 55.8223 23.5395 55.2266C20.9925 55.5118 9.87075 57.5221 9.49863 57.5523C7.85858 62.2698 10.5189 69.9624 13.7719 71.8895C19.9729 72.9406 27.6544 66.1506 27.6544 66.1506C26.4813 66.5523 24.365 64.5764 23.3152 61.5089Z" fill="url(#paint16_radial)"/>
<path d="M23.3823 55.3048C23.4852 55.2549 23.5394 55.2266 23.5394 55.2266C23.484 55.2457 23.4335 55.2752 23.3823 55.3048Z" fill="url(#paint17_radial)"/>
<path opacity="0.5" d="M13.7719 71.8893C19.9729 72.9403 27.6544 66.1503 27.6544 66.1503C26.5713 66.5212 24.686 64.8633 23.5771 62.1931L22.6794 61.7754C22.6794 61.7754 23.7286 65.3217 20.6833 66.3198C14.632 68.3036 10.4918 64.7425 9.01562 61.4575C9.20908 65.7154 11.3217 70.4377 13.7719 71.8893Z" fill="url(#paint18_radial)"/>
<path d="M23.5402 55.2266C21.9402 55.4496 21.4269 58.2978 22.4928 61.2705C24.5733 67.0741 26.6896 66.9392 27.6544 66.15C26.4814 66.5516 24.3651 64.5758 23.3153 61.5083C22.316 58.5861 22.5193 55.8223 23.5402 55.2266Z" fill="url(#paint19_linear)"/>
<path opacity="0.16" d="M23.3152 61.5089C22.3153 58.5861 22.5192 55.8223 23.5395 55.2266C20.9925 55.5118 9.87075 57.5221 9.49863 57.5523C7.85858 62.2698 10.5189 69.9624 13.7719 71.8895C19.9729 72.9406 27.6544 66.1506 27.6544 66.1506C26.4813 66.5523 24.365 64.5764 23.3152 61.5089Z" fill="url(#paint20_radial)"/>
<g opacity="0.5">
<path opacity="0.5" d="M25.8491 45.8569C26.5133 38.9159 28.1435 35.4177 28.9265 32.8283C29.7096 30.2394 31.3897 20.2531 31.9559 16.1358C32.5215 12.0178 31.6374 7.96572 36.1404 8.00022C39.3139 8.02486 39.8499 10.7579 39.6947 13.4909C39.8555 15.118 39.7778 17.3698 39.3817 20.4725C39.3811 20.4756 39.3811 20.4786 39.3805 20.4817C39.8592 22.4939 39.6207 25.2669 39.2696 27.7942C38.6233 32.4451 38.3719 35.3438 38.741 36.9494C39.11 38.5549 41.1043 53.7127 38.2696 58.4708C34.5577 64.7014 27.5662 63.7089 26.0149 66.5275C26.0149 66.5275 21.7342 59.1615 23.3016 55.8247C23.9891 55.1371 25.185 52.7972 25.8491 45.8569Z" fill="url(#paint21_linear)"/>
</g>
<path d="M56.0701 55.2268C54.897 54.8251 53.0949 56.9863 52.0457 60.0545C50.9965 63.1226 51.0969 65.9351 52.27 66.3368" fill="#B23E22"/>
<path d="M52.27 66.3361C53.4431 66.7378 55.2451 64.5766 56.2944 61.5084C57.3436 58.4402 57.2431 55.6278 56.0701 55.2261" fill="#B23E22"/>
<path d="M40.3311 16.726C39.7723 13.5248 38.9664 8.03534 43.4695 8.00023C47.9725 7.96511 47.0878 12.0178 47.654 16.1352C48.2202 20.2525 49.9003 30.2388 50.6833 32.8277C51.4664 35.4171 53.0966 38.9153 53.7608 45.8563C54.4249 52.7972 55.2911 53.531 56.3083 55.8241L46.4434 57.0569L40.3311 16.726Z" fill="url(#paint22_linear)"/>
<path d="M40.3311 16.726C39.7723 13.5248 38.9664 8.03534 43.4695 8.00023C47.9725 7.96511 47.0878 12.0178 47.654 16.1352C48.2202 20.2525 49.9003 30.2388 50.6833 32.8277C51.4664 35.4171 53.0966 38.9153 53.7608 45.8563C54.4249 52.7972 53.3782 51.9538 56.3083 55.8241L46.4434 57.0569L40.3311 16.726Z" fill="url(#paint23_linear)"/>
<path d="M43.4695 8.00027C43.6099 7.99903 43.7449 8.00211 43.8749 8.00889C41.4653 9.36492 40.832 13.0831 42.1141 23.7015C42.3371 25.551 42.3235 27.1843 42.135 28.6296L40.3311 16.726C39.7723 13.5248 38.9664 8.03538 43.4695 8.00027Z" fill="url(#paint24_radial)"/>
<path d="M49.633 35.1265C48.0497 27.7346 46.7423 16.6011 46.4922 13.8552C46.242 11.1092 45.6186 9.43468 43.1764 9.45377C40.7342 9.47287 39.0325 11.0988 40.2289 20.4733C41.4254 29.8478 41.3281 37.0986 41.3281 37.0986L46.6 37.3709C48.0176 37.4443 49.2886 36.5035 49.633 35.1265Z" fill="url(#paint25_linear)"/>
<path d="M49.633 35.1265C48.0497 27.7346 46.7423 16.6011 46.4922 13.8552C46.242 11.1092 45.6186 9.43468 43.1764 9.45377C40.7342 9.47287 39.0325 11.0988 40.2289 20.4733C41.4254 29.8478 41.3281 37.0986 41.3281 37.0986L46.6 37.3709C48.0176 37.4443 49.2886 36.5035 49.633 35.1265Z" fill="url(#paint26_linear)"/>
<path d="M45.6746 10.6499C46.1527 11.4083 46.3683 12.5 46.4915 13.8542C46.7287 16.4609 47.9196 26.6265 49.3945 33.9741C49.2984 33.9303 49.1956 33.7369 49.084 33.3678C47.6553 28.6239 46.5186 19.1027 46.3744 17.0043C46.2882 15.7469 46.3387 12.6319 45.6746 10.6499Z" fill="url(#paint27_radial)"/>
<path d="M40.2283 20.4725C39.3571 13.6455 40.0231 10.9304 41.3927 9.9502C41.0575 11.4615 41.0181 14.3547 41.2448 16.0847C41.6564 19.2181 45.3394 19.3075 45.3394 19.3075C45.7584 24.7457 43.2404 32.8986 43.4258 36.1786C43.4529 36.6635 43.3211 36.99 43.0654 37.189L41.3274 37.0991C41.328 37.0985 41.4247 29.8464 40.2283 20.4725Z" fill="url(#paint28_radial)"/>
<path d="M47.8863 36.2845C44.9987 28.0633 47.4365 17.5872 43.3149 17.6192C39.4224 17.6494 39.6934 23.1431 40.3403 27.794C40.9866 32.445 41.238 35.3437 40.869 36.9492C40.4999 38.5548 38.5056 53.7126 41.3403 58.4707C45.0523 64.7013 52.0437 63.7088 53.595 66.5274L54.6775 66.1818C58.1542 65.0722 57.9009 57.4166 56.3089 55.824L49.7722 53.1384L47.8863 36.2845Z" fill="url(#paint29_linear)"/>
<path d="M53.5952 66.5273C52.0439 63.7087 45.0524 64.7006 41.3404 58.4706C38.5058 53.7125 40.4995 38.5553 40.8691 36.9492C41.2382 35.3436 40.9868 32.4449 40.3405 27.794C39.6942 23.1431 39.4225 17.6493 43.315 17.6191C43.315 17.6191 40.9813 20.0638 41.4618 25.0326C41.9424 30.0014 42.3724 33.1448 41.8906 37.6263C41.2721 43.3769 40.9979 53.6552 44.2441 57.6081C47.4897 61.561 54.366 58.7694 54.1491 66.3505L53.5952 66.5273Z" fill="url(#paint30_linear)"/>
<path d="M47.8863 36.2845C44.9987 28.0633 47.4365 17.5872 43.3149 17.6192C39.4224 17.6494 39.6934 23.1431 40.3403 27.794C40.9866 32.445 41.238 35.3437 40.869 36.9492C40.4999 38.5548 38.5056 53.7126 41.3403 58.4707C45.0523 64.7013 52.0437 63.7088 53.595 66.5274L54.6775 66.1818C58.1542 65.0722 57.8245 58.6223 56.3089 55.824L49.7722 53.1384L47.8863 36.2845Z" fill="url(#paint31_radial)"/>
<path d="M47.7398 36.7523C47.4046 36.2576 46.0018 33.4507 45.6709 26.3816C45.4085 20.772 44.902 19.5479 45.0302 18.644C46.6973 21.4608 45.5545 29.5563 47.8599 36.2071C47.8759 36.6766 47.8439 36.9058 47.7398 36.7523Z" fill="url(#paint32_radial)"/>
<path d="M53.5952 66.5273C52.0439 63.7087 45.0524 64.7006 41.3404 58.4706C38.5058 53.7125 40.4995 38.5553 40.8691 36.9492C41.2382 35.3436 40.9868 32.4449 40.3405 27.794C39.6942 23.1431 39.4225 17.6493 43.315 17.6191C43.315 17.6191 40.6831 19.2117 41.4618 25.0326C42.1235 29.9805 42.3724 33.1448 41.8906 37.6263C41.2721 43.3769 40.9979 53.6552 44.2441 57.6081C47.4897 61.561 55.2279 59.8236 54.1491 66.3505L53.5952 66.5273Z" fill="url(#paint33_linear)"/>
<path d="M46.3635 53.961C53.0518 66.4549 48.8944 35.658 51.7001 35.8688C52.4597 38.181 53.3217 41.2651 53.7616 45.8563C54.231 50.7623 54.9143 53.6068 56.3091 56.2203C55.547 59.0562 53.655 61.4632 51.0704 62.9548C48.7872 64.2726 44.4899 62.3554 41.354 58.4906C41.3497 58.4838 41.3454 58.4776 41.3417 58.4702C38.507 53.7121 40.5007 38.5549 40.8704 36.9488C42.6934 32.7143 44.0513 49.641 46.3635 53.961Z" fill="url(#paint34_radial)"/>
<path opacity="0.75" d="M40.869 36.9494C41.238 35.3438 40.9866 32.4451 40.3403 27.7942C39.9048 24.6625 39.6417 21.1514 40.7032 19.1805L40.3311 16.726C39.7723 13.5248 38.9664 8.03534 43.4695 8.00022C47.9725 7.96572 47.0878 12.0178 47.654 16.1352C48.2202 20.2525 49.9003 30.2388 50.6834 32.8277C51.4664 35.4165 53.0966 38.9153 53.7608 45.8563C54.4249 52.7972 55.0496 53.2174 56.3083 55.8241C57.721 58.8275 58.1535 65.0717 54.6769 66.1819L53.595 66.5275C52.0437 63.7089 45.0523 64.7008 41.3403 58.4708C38.5056 53.7127 40.4999 38.5549 40.869 36.9494Z" fill="url(#paint35_radial)"/>
<path d="M40.3404 27.7942C39.9892 25.2669 39.7508 22.4939 40.2295 20.4817C39.8327 17.3741 39.7545 15.1204 39.9159 13.4915C39.76 10.7585 40.296 8.02486 43.4696 8.00022C47.9726 7.96572 47.0879 12.0178 47.6541 16.1352C48.2203 20.2525 49.9004 30.2388 50.6834 32.8277C51.4665 35.4171 53.0967 38.9153 53.7608 45.8563C54.425 52.7972 55.3294 54.1224 56.3084 55.8241C56.8278 57.506 56.2967 59.9026 55.5709 62.0017C54.8328 64.1364 52.5003 65.2522 50.3686 64.5043C47.5765 63.524 43.761 62.5334 41.3397 58.4696C38.5051 53.7115 40.4987 38.5543 40.8684 36.9481C41.2381 35.342 40.9867 32.4451 40.3404 27.7942Z" fill="url(#paint36_linear)"/>
<path d="M56.2277 55.3048C56.1248 55.2549 56.0706 55.2266 56.0706 55.2266C56.126 55.2457 56.1765 55.2752 56.2277 55.3048Z" fill="url(#paint37_radial)"/>
<path d="M56.2947 61.5089C57.2947 58.5861 57.0907 55.8223 56.0705 55.2266C58.6174 55.5118 69.7392 57.5221 70.1113 57.5523C71.7514 62.2698 69.0911 69.9624 65.8381 71.8895C59.6371 72.9406 51.9556 66.1506 51.9556 66.1506C53.1286 66.5523 55.2449 64.5764 56.2947 61.5089Z" fill="url(#paint38_radial)"/>
<path d="M56.2277 55.3048C56.1248 55.2549 56.0706 55.2266 56.0706 55.2266C56.126 55.2457 56.1765 55.2752 56.2277 55.3048Z" fill="url(#paint39_radial)"/>
<path opacity="0.5" d="M65.8381 71.8893C59.6371 72.9403 51.9556 66.1503 51.9556 66.1503C53.0387 66.5212 54.9239 64.8633 56.0329 62.1931L56.9305 61.7754C56.9305 61.7754 55.8813 65.3217 58.9267 66.3198C64.978 68.3036 69.1188 64.7425 70.5949 61.4575C70.4009 65.7154 68.2883 70.4377 65.8381 71.8893Z" fill="url(#paint40_radial)"/>
<path d="M56.0699 55.2266C57.6699 55.4496 58.1831 58.2978 57.1172 61.2705C55.0367 67.0741 52.9204 66.9392 51.9556 66.15C53.1286 66.5516 55.2449 64.5758 56.2947 61.5083C57.294 58.5861 57.0907 55.8223 56.0699 55.2266Z" fill="url(#paint41_linear)"/>
<path opacity="0.16" d="M56.2947 61.5089C57.2947 58.5861 57.0907 55.8223 56.0705 55.2266C58.6174 55.5118 69.7392 57.5221 70.1113 57.5523C71.7514 62.2698 69.0911 69.9624 65.8381 71.8895C59.6371 72.9406 51.9556 66.1506 51.9556 66.1506C53.1286 66.5523 55.2449 64.5764 56.2947 61.5089Z" fill="url(#paint42_radial)"/>
<g opacity="0.5">
<path opacity="0.5" d="M53.7609 45.8569C53.0968 38.9159 51.4666 35.4177 50.6835 32.8283C49.9005 30.2394 48.2204 20.2531 47.6542 16.1358C47.0886 12.0178 47.9727 7.96572 43.4697 8.00022C40.2962 8.02486 39.7602 10.7579 39.9154 13.4909C39.7546 15.118 39.8322 17.3698 40.2284 20.4725C40.229 20.4756 40.229 20.4786 40.2296 20.4817C39.7509 22.4939 39.9893 25.2669 40.3405 27.7942C40.9868 32.4451 41.2382 35.3438 40.8691 36.9494C40.5001 38.5549 38.5058 53.7127 41.3404 58.4708C45.0524 64.7014 52.0439 63.7089 53.5952 66.5275C53.5952 66.5275 57.8759 59.1615 56.3085 55.8247C55.6209 55.1371 54.4251 52.7972 53.7609 45.8569Z" fill="url(#paint43_linear)"/>
</g>
<path d="M38.269 58.4706C39.0367 57.0566 39.2862 55.4437 39.4538 53.8683C39.6121 52.2831 39.683 50.6886 39.659 49.0936C39.6343 45.904 39.3749 42.7164 38.9806 39.5527C38.8802 38.7635 38.7705 37.9687 38.6258 37.1955C38.4354 36.4106 38.3941 35.5801 38.4138 34.781C38.4496 33.1706 38.6424 31.5798 38.842 29.9927C39.2345 26.8389 39.9171 23.6365 39.2942 20.5024L39.2924 20.4703C39.5838 18.1588 39.8703 15.8262 39.6935 13.4912C39.9263 15.8207 39.7384 18.1729 39.4674 20.4925L39.468 20.4771L39.4655 20.4611C40.1309 23.6506 39.468 26.8784 39.11 30.026C38.9264 31.61 38.7502 33.1989 38.7305 34.7847C38.725 35.5807 38.7625 36.3576 38.9363 37.1321C39.0774 37.9299 39.1778 38.7204 39.2714 39.5163C39.6362 42.6954 39.8647 45.8917 39.8586 49.0929C39.8586 50.6923 39.7994 52.2966 39.5869 53.8843C39.3756 55.4615 39.078 57.0782 38.269 58.4706Z" fill="#804B24"/>
<path d="M41.3358 58.3918C40.5269 56.9988 40.2293 55.3821 40.0168 53.8049C39.8042 52.2172 39.7457 50.6123 39.7457 49.0129C39.7402 45.8117 39.9687 42.6148 40.3341 39.4351C40.4277 38.6391 40.5288 37.8486 40.6698 37.0508C40.8442 36.2764 40.8818 35.4988 40.8762 34.7029C40.8565 33.117 40.6809 31.5275 40.4973 29.9435C40.1394 26.7959 39.4765 23.5675 40.1425 20.3774L40.14 20.3934L40.1406 20.4088C39.8695 18.0886 39.6816 15.7363 39.9151 13.4062C39.7383 15.7419 40.0248 18.0744 40.3162 20.386L40.3144 20.418C39.6909 23.5521 40.3735 26.7552 40.766 29.9096C40.9656 31.4967 41.1578 33.0874 41.1941 34.6985C41.2139 35.4982 41.1726 36.3287 40.9822 37.113C40.8374 37.8868 40.7278 38.681 40.6273 39.4708C40.233 42.6351 39.973 45.8228 39.9478 49.0129C39.9238 50.608 39.994 52.2037 40.1523 53.7883C40.3187 55.3643 40.5676 56.9778 41.3358 58.3918Z" fill="#804B24"/>
<path d="M31.7236 36.2845C32.5634 33.748 32.9256 31.0902 33.1554 28.4398C33.4037 25.7868 33.3785 23.1099 33.8529 20.4625C33.9933 19.8076 34.1738 19.1459 34.5281 18.5557C34.7135 18.2668 34.947 18.0012 35.2428 17.8109C35.5471 17.6371 35.8934 17.5435 36.2396 17.541C36.9186 17.5583 37.6123 17.7234 38.1581 18.1522C38.7095 18.5767 39.0299 19.21 39.2566 19.8372C39.691 21.1205 39.7236 22.4833 39.6861 23.8135C39.63 25.1492 39.4673 26.475 39.2696 27.7941C39.4353 26.4713 39.5659 25.1418 39.5893 23.811C39.6134 22.487 39.569 21.1316 39.1328 19.8809C38.9067 19.2704 38.5913 18.6635 38.067 18.2686C37.5488 17.8682 36.8902 17.7185 36.2427 17.7055C35.9199 17.7104 35.6081 17.7998 35.334 17.9581C35.0684 18.1331 34.8546 18.3771 34.6827 18.6506C34.3519 19.21 34.18 19.8575 34.0457 20.502C33.5553 23.1099 33.5553 25.7986 33.2854 28.4515C33.0489 31.1062 32.6361 33.7715 31.7236 36.2845Z" fill="#804B24"/>
<path d="M29.9771 35.1262C30.6363 31.8085 31.1581 28.4668 31.6442 25.1208C32.1217 21.7735 32.5431 18.4177 32.898 15.0556C32.9978 14.2184 33.0464 13.3725 33.1986 12.5309C33.3533 11.7035 33.5892 10.8317 34.1955 10.1848C34.8048 9.52925 35.7443 9.33887 36.5853 9.38693C37.438 9.39124 38.3338 9.75474 38.8353 10.4787C39.7933 11.9511 39.8019 13.7495 39.8149 15.4167C39.7847 17.1115 39.6017 18.796 39.3818 20.4724C39.5691 18.7923 39.72 17.1054 39.7181 15.4167C39.6954 13.7581 39.6621 11.9622 38.7293 10.5563C38.2444 9.87118 37.4103 9.53726 36.5791 9.53479C35.756 9.49413 34.875 9.68574 34.315 10.2981C33.7531 10.9031 33.5227 11.7466 33.3773 12.5623C33.2331 13.3872 33.1906 14.2344 33.0945 15.076C32.7174 18.4392 32.2739 21.7933 31.7742 25.1393C31.2795 28.4859 30.7114 31.8239 29.9771 35.1262Z" fill="#804B24"/>
<path d="M47.8691 36.2835C46.9561 33.7711 46.5439 31.1052 46.3067 28.4505C46.0369 25.7982 46.0369 23.1089 45.5464 20.5016C45.4127 19.8572 45.2402 19.2097 44.9094 18.6502C44.7375 18.3773 44.5237 18.1327 44.2582 17.9578C43.984 17.8 43.6723 17.7101 43.3494 17.7052C42.7019 17.7175 42.0433 17.8678 41.5252 18.2683C41.0009 18.6632 40.6854 19.27 40.4593 19.8806C40.0231 21.1313 39.9788 22.4867 40.0028 23.8107C40.0262 25.1421 40.1568 26.471 40.3226 27.7937C40.1248 26.4753 39.9621 25.1488 39.9061 23.8131C39.8685 22.483 39.9012 21.1202 40.3355 19.8362C40.5616 19.209 40.882 18.5757 41.434 18.1518C41.9805 17.7224 42.6736 17.5579 43.3525 17.54C43.6988 17.5425 44.0444 17.6362 44.3494 17.8105C44.6457 18.0015 44.8786 18.2658 45.064 18.5554C45.4189 19.1456 45.5988 19.8073 45.7399 20.4622C46.2143 23.1095 46.189 25.7871 46.4373 28.44C46.6665 31.0892 47.0294 33.7471 47.8691 36.2835Z" fill="#804B24"/>
<path d="M49.6157 35.1262C48.8813 31.8239 48.3132 28.4859 47.8185 25.1393C47.3195 21.7933 46.8753 18.4392 46.4982 15.076C46.4021 14.2344 46.3596 13.3872 46.2154 12.5623C46.07 11.746 45.8402 10.9025 45.2777 10.2981C44.7171 9.68512 43.8367 9.49413 43.0136 9.53479C42.1825 9.53726 41.3489 9.87118 40.8634 10.5563C39.9306 11.9616 39.8974 13.7581 39.8746 15.4167C39.8727 17.1054 40.023 18.7923 40.2109 20.473C39.991 18.7966 39.8086 17.1122 39.7778 15.4173C39.7914 13.7501 39.8 11.9511 40.7574 10.4787C41.2589 9.75474 42.1547 9.39186 43.0074 9.38693C43.8484 9.33887 44.7879 9.52925 45.3972 10.1848C46.0029 10.8311 46.2394 11.7028 46.3941 12.5309C46.5456 13.3718 46.5949 14.2177 46.6947 15.0556C47.049 18.4171 47.471 21.7735 47.9485 25.1208C48.4346 28.4662 48.9558 31.8085 49.6157 35.1262Z" fill="#804B24"/>
<defs>
<linearGradient id="paint0_linear" x1="27.7353" y1="17.6041" x2="25.1143" y2="6.4232" gradientUnits="userSpaceOnUse">
<stop offset="0.00132565" stop-color="#F0C492"/>
<stop offset="1" stop-color="#F8DBBA"/>
</linearGradient>
<linearGradient id="paint1_linear" x1="23.481" y1="32.4433" x2="39.5658" y2="32.5675" gradientUnits="userSpaceOnUse">
<stop offset="0.00132565" stop-color="#F0C492"/>
<stop offset="1" stop-color="#F8DBBA"/>
</linearGradient>
<radialGradient id="paint2_radial" cx="0" cy="0" r="1" gradientUnits="userSpaceOnUse" gradientTransform="translate(37.6661 18.3245) rotate(0.442319) scale(7.42589)">
<stop stop-color="#F0C492" stop-opacity="0"/>
<stop offset="1" stop-color="#F0C492"/>
</radialGradient>
<linearGradient id="paint3_linear" x1="35.1853" y1="29.9465" x2="33.9426" y2="9.60461" gradientUnits="userSpaceOnUse">
<stop offset="0.00132565" stop-color="#FFC94B"/>
<stop offset="1" stop-color="#FFD548"/>
</linearGradient>
<linearGradient id="paint4_linear" x1="33.2845" y1="54.4668" x2="35.5433" y2="13.4317" gradientUnits="userSpaceOnUse">
<stop offset="0.00132565" stop-color="#F0C492"/>
<stop offset="1" stop-color="#F8DBBA"/>
</linearGradient>
<radialGradient id="paint5_radial" cx="0" cy="0" r="1" gradientUnits="userSpaceOnUse" gradientTransform="translate(1790.35 5.99107) rotate(0.442319) scale(26.2307)">
<stop stop-color="#F0C492" stop-opacity="0"/>
<stop offset="1" stop-color="#F0C492"/>
</radialGradient>
<radialGradient id="paint6_radial" cx="0" cy="0" r="1" gradientUnits="userSpaceOnUse" gradientTransform="translate(36.9556 23.5675) rotate(0.44232) scale(9.82799)">
<stop stop-color="#F0C492" stop-opacity="0"/>
<stop offset="1" stop-color="#F0C492"/>
</radialGradient>
<linearGradient id="paint7_linear" x1="29.3301" y1="74.9152" x2="33.4712" y2="25.9743" gradientUnits="userSpaceOnUse">
<stop offset="0.00132565" stop-color="#F0C492"/>
<stop offset="1" stop-color="#F8DBBA"/>
</linearGradient>
<linearGradient id="paint8_linear" x1="20.6441" y1="41.7386" x2="61.1515" y2="43.0293" gradientUnits="userSpaceOnUse">
<stop offset="0.00132565" stop-color="#F0C492" stop-opacity="0"/>
<stop offset="1" stop-color="#E6AF74"/>
</linearGradient>
<radialGradient id="paint9_radial" cx="0" cy="0" r="1" gradientUnits="userSpaceOnUse" gradientTransform="translate(28.5517 17.4053) rotate(-86.1901) scale(26.2137 9.35896)">
<stop stop-color="#D2A374"/>
<stop offset="1" stop-color="#D2A374" stop-opacity="0"/>
</radialGradient>
<radialGradient id="paint10_radial" cx="0" cy="0" r="1" gradientUnits="userSpaceOnUse" gradientTransform="translate(1790.35 5.99136) rotate(0.44232) scale(26.2307)">
<stop stop-color="#F0C492" stop-opacity="0"/>
<stop offset="1" stop-color="#F0C492"/>
</radialGradient>
<linearGradient id="paint11_linear" x1="37.2094" y1="42.2048" x2="42.2813" y2="42.3144" gradientUnits="userSpaceOnUse">
<stop offset="0.00132565" stop-color="#F0C492"/>
<stop offset="1" stop-color="#EFD8B7"/>
</linearGradient>
<radialGradient id="paint12_radial" cx="0" cy="0" r="1" gradientUnits="userSpaceOnUse" gradientTransform="translate(31.0459 50.0749) rotate(180) scale(27.6627)">
<stop offset="0.3118" stop-color="#F0C492" stop-opacity="0"/>
<stop offset="1" stop-color="#E6AF74"/>
</radialGradient>
<radialGradient id="paint13_radial" cx="0" cy="0" r="1" gradientUnits="userSpaceOnUse" gradientTransform="translate(34.6064 53.5355) rotate(-86.8163) scale(15.4237 7.25551)">
<stop stop-color="#F0C492" stop-opacity="0.4"/>
<stop offset="1" stop-color="#E6AF74" stop-opacity="0"/>
</radialGradient>
<linearGradient id="paint14_linear" x1="34.4238" y1="36.4632" x2="42.0729" y2="36.7612" gradientUnits="userSpaceOnUse">
<stop stop-color="#F8DBBA" stop-opacity="0"/>
<stop offset="1" stop-color="#F0C492"/>
</linearGradient>
<radialGradient id="paint15_radial" cx="0" cy="0" r="1" gradientUnits="userSpaceOnUse" gradientTransform="translate(15.5578 46.7677) rotate(30.5996) scale(20.7324 20.7325)">
<stop stop-color="#FB9DC1"/>
<stop offset="0.2947" stop-color="#FB9DC1"/>
<stop offset="0.4421" stop-color="#F897B9"/>
<stop offset="0.6681" stop-color="#F185A4"/>
<stop offset="0.9434" stop-color="#E66881"/>
<stop offset="1" stop-color="#E36179"/>
</radialGradient>
<radialGradient id="paint16_radial" cx="0" cy="0" r="1" gradientUnits="userSpaceOnUse" gradientTransform="translate(15.4464 46.9562) rotate(30.5992) scale(20.6213)">
<stop stop-color="#FB9DC1"/>
<stop offset="0.2947" stop-color="#FF7AD3"/>
<stop offset="0.3637" stop-color="#FF75CB"/>
<stop offset="0.4697" stop-color="#FF69B6"/>
<stop offset="0.5993" stop-color="#FF5593"/>
<stop offset="0.7477" stop-color="#FF3962"/>
<stop offset="0.9098" stop-color="#FF1524"/>
<stop offset="0.9973" stop-color="#FF0000"/>
</radialGradient>
<radialGradient id="paint17_radial" cx="0" cy="0" r="1" gradientUnits="userSpaceOnUse" gradientTransform="translate(15.5578 46.7677) rotate(30.5996) scale(20.7324 20.7325)">
<stop stop-color="#FB9DC1"/>
<stop offset="0.2947" stop-color="#FB9DC1"/>
<stop offset="0.4421" stop-color="#F897B9"/>
<stop offset="0.6681" stop-color="#F185A4"/>
<stop offset="0.9434" stop-color="#E66881"/>
<stop offset="1" stop-color="#E36179"/>
</radialGradient>
<radialGradient id="paint18_radial" cx="0" cy="0" r="1" gradientUnits="userSpaceOnUse" gradientTransform="translate(25.9458 62.1659) scale(25.0497)">
<stop stop-color="#C20000"/>
<stop offset="0.1451" stop-color="#C40608"/>
<stop offset="0.3677" stop-color="#CA171D"/>
<stop offset="0.64" stop-color="#D33340"/>
<stop offset="0.9492" stop-color="#E15A70"/>
<stop offset="1" stop-color="#E36179"/>
</radialGradient>
<linearGradient id="paint19_linear" x1="24.7935" y1="50.7779" x2="24.7935" y2="65.5705" gradientUnits="userSpaceOnUse">
<stop stop-color="#FB9DC1"/>
<stop offset="0.2947" stop-color="#FF7AD3"/>
<stop offset="0.3637" stop-color="#FF75CB"/>
<stop offset="0.4697" stop-color="#FF69B6"/>
<stop offset="0.5993" stop-color="#FF5593"/>
<stop offset="0.7477" stop-color="#FF3962"/>
<stop offset="0.9098" stop-color="#FF1524"/>
<stop offset="0.9973" stop-color="#FF0000"/>
</linearGradient>
<radialGradient id="paint20_radial" cx="0" cy="0" r="1" gradientUnits="userSpaceOnUse" gradientTransform="translate(15.4802 59.0539) rotate(170.241) scale(6.69366 3.56653)">
<stop stop-color="white" stop-opacity="0.4"/>
<stop offset="1" stop-color="white" stop-opacity="0"/>
</radialGradient>
<linearGradient id="paint21_linear" x1="31.5471" y1="42.24" x2="30.5223" y2="105.193" gradientUnits="userSpaceOnUse">
<stop stop-color="#FFBA47" stop-opacity="0"/>
<stop offset="1" stop-color="#C66F34"/>
</linearGradient>
<linearGradient id="paint22_linear" x1="51.8733" y1="17.6041" x2="54.4943" y2="6.42319" gradientUnits="userSpaceOnUse">
<stop offset="0.00132565" stop-color="#F0C492"/>
<stop offset="1" stop-color="#F8DBBA"/>
</linearGradient>
<linearGradient id="paint23_linear" x1="56.1276" y1="32.4433" x2="40.0428" y2="32.5675" gradientUnits="userSpaceOnUse">
<stop offset="0.00132565" stop-color="#F0C492"/>
<stop offset="1" stop-color="#F8DBBA"/>
</linearGradient>
<radialGradient id="paint24_radial" cx="0" cy="0" r="1" gradientUnits="userSpaceOnUse" gradientTransform="translate(41.9442 18.3245) rotate(179.558) scale(7.42589)">
<stop stop-color="#F0C492" stop-opacity="0"/>
<stop offset="1" stop-color="#F0C492"/>
</radialGradient>
<linearGradient id="paint25_linear" x1="44.4234" y1="29.9465" x2="45.6661" y2="9.6046" gradientUnits="userSpaceOnUse">
<stop offset="0.00132565" stop-color="#FFC94B"/>
<stop offset="1" stop-color="#FFD548"/>
</linearGradient>
<linearGradient id="paint26_linear" x1="46.3256" y1="54.4668" x2="44.0668" y2="13.4317" gradientUnits="userSpaceOnUse">
<stop offset="0.00132565" stop-color="#F0C492"/>
<stop offset="1" stop-color="#F8DBBA"/>
</linearGradient>
<radialGradient id="paint27_radial" cx="0" cy="0" r="1" gradientUnits="userSpaceOnUse" gradientTransform="translate(-1710.74 5.99107) rotate(179.558) scale(26.2307)">
<stop stop-color="#F0C492" stop-opacity="0"/>
<stop offset="1" stop-color="#F0C492"/>
</radialGradient>
<radialGradient id="paint28_radial" cx="0" cy="0" r="1" gradientUnits="userSpaceOnUse" gradientTransform="translate(42.6549 23.5675) rotate(179.558) scale(9.82799)">
<stop stop-color="#F0C492" stop-opacity="0"/>
<stop offset="1" stop-color="#F0C492"/>
</radialGradient>
<linearGradient id="paint29_linear" x1="50.28" y1="74.9152" x2="46.1389" y2="25.9743" gradientUnits="userSpaceOnUse">
<stop offset="0.00132565" stop-color="#F0C492"/>
<stop offset="1" stop-color="#F8DBBA"/>
</linearGradient>
<linearGradient id="paint30_linear" x1="58.9647" y1="41.7386" x2="18.4572" y2="43.0293" gradientUnits="userSpaceOnUse">
<stop offset="0.00132565" stop-color="#F0C492" stop-opacity="0"/>
<stop offset="1" stop-color="#E6AF74"/>
</linearGradient>
<radialGradient id="paint31_radial" cx="0" cy="0" r="1" gradientUnits="userSpaceOnUse" gradientTransform="translate(51.0584 17.406) rotate(-93.8099) scale(26.2137 9.35896)">
<stop stop-color="#D2A374"/>
<stop offset="1" stop-color="#D2A374" stop-opacity="0"/>
</radialGradient>
<radialGradient id="paint32_radial" cx="0" cy="0" r="1" gradientUnits="userSpaceOnUse" gradientTransform="translate(-1710.74 5.99136) rotate(179.558) scale(26.2307)">
<stop stop-color="#F0C492" stop-opacity="0"/>
<stop offset="1" stop-color="#F0C492"/>
</radialGradient>
<linearGradient id="paint33_linear" x1="42.3994" y1="42.2048" x2="37.3276" y2="42.3144" gradientUnits="userSpaceOnUse">
<stop offset="0.00132565" stop-color="#F0C492"/>
<stop offset="1" stop-color="#EFD8B7"/>
</linearGradient>
<radialGradient id="paint34_radial" cx="0" cy="0" r="1" gradientUnits="userSpaceOnUse" gradientTransform="translate(48.5646 50.0749) scale(27.6627)">
<stop offset="0.3118" stop-color="#F0C492" stop-opacity="0"/>
<stop offset="1" stop-color="#E6AF74"/>
</radialGradient>
<radialGradient id="paint35_radial" cx="0" cy="0" r="1" gradientUnits="userSpaceOnUse" gradientTransform="translate(45.0036 53.5359) rotate(-93.1837) scale(15.4237 7.25551)">
<stop stop-color="#F0C492" stop-opacity="0.4"/>
<stop offset="1" stop-color="#E6AF74" stop-opacity="0"/>
</radialGradient>
<linearGradient id="paint36_linear" x1="45.1864" y1="36.4632" x2="37.5372" y2="36.7612" gradientUnits="userSpaceOnUse">
<stop stop-color="#F8DBBA" stop-opacity="0"/>
<stop offset="1" stop-color="#F0C492"/>
</linearGradient>
<radialGradient id="paint37_radial" cx="0" cy="0" r="1" gradientUnits="userSpaceOnUse" gradientTransform="translate(64.0521 46.7677) rotate(149.4) scale(20.7324 20.7325)">
<stop stop-color="#FB9DC1"/>
<stop offset="0.2947" stop-color="#FB9DC1"/>
<stop offset="0.4421" stop-color="#F897B9"/>
<stop offset="0.6681" stop-color="#F185A4"/>
<stop offset="0.9434" stop-color="#E66881"/>
<stop offset="1" stop-color="#E36179"/>
</radialGradient>
<radialGradient id="paint38_radial" cx="0" cy="0" r="1" gradientUnits="userSpaceOnUse" gradientTransform="translate(64.1634 46.9562) rotate(149.401) scale(20.6213)">
<stop stop-color="#FB9DC1"/>
<stop offset="0.2947" stop-color="#FF7AD3"/>
<stop offset="0.3637" stop-color="#FF75CB"/>
<stop offset="0.4697" stop-color="#FF69B6"/>
<stop offset="0.5993" stop-color="#FF5593"/>
<stop offset="0.7477" stop-color="#FF3962"/>
<stop offset="0.9098" stop-color="#FF1524"/>
<stop offset="0.9973" stop-color="#FF0000"/>
</radialGradient>
<radialGradient id="paint39_radial" cx="0" cy="0" r="1" gradientUnits="userSpaceOnUse" gradientTransform="translate(64.0521 46.7677) rotate(149.4) scale(20.7324 20.7325)">
<stop stop-color="#FB9DC1"/>
<stop offset="0.2947" stop-color="#FB9DC1"/>
<stop offset="0.4421" stop-color="#F897B9"/>
<stop offset="0.6681" stop-color="#F185A4"/>
<stop offset="0.9434" stop-color="#E66881"/>
<stop offset="1" stop-color="#E36179"/>
</radialGradient>
<radialGradient id="paint40_radial" cx="0" cy="0" r="1" gradientUnits="userSpaceOnUse" gradientTransform="translate(53.6642 62.166) rotate(180) scale(25.0497)">
<stop stop-color="#C20000"/>
<stop offset="0.1451" stop-color="#C40608"/>
<stop offset="0.3677" stop-color="#CA171D"/>
<stop offset="0.64" stop-color="#D33340"/>
<stop offset="0.9492" stop-color="#E15A70"/>
<stop offset="1" stop-color="#E36179"/>
</radialGradient>
<linearGradient id="paint41_linear" x1="54.8165" y1="50.7779" x2="54.8165" y2="65.5705" gradientUnits="userSpaceOnUse">
<stop stop-color="#FB9DC1"/>
<stop offset="0.2947" stop-color="#FF7AD3"/>
<stop offset="0.3637" stop-color="#FF75CB"/>
<stop offset="0.4697" stop-color="#FF69B6"/>
<stop offset="0.5993" stop-color="#FF5593"/>
<stop offset="0.7477" stop-color="#FF3962"/>
<stop offset="0.9098" stop-color="#FF1524"/>
<stop offset="0.9973" stop-color="#FF0000"/>
</linearGradient>
<radialGradient id="paint42_radial" cx="0" cy="0" r="1" gradientUnits="userSpaceOnUse" gradientTransform="translate(64.1298 59.0538) rotate(9.75905) scale(6.69366 3.56653)">
<stop stop-color="white" stop-opacity="0.4"/>
<stop offset="1" stop-color="white" stop-opacity="0"/>
</radialGradient>
<linearGradient id="paint43_linear" x1="48.0629" y1="42.24" x2="49.0878" y2="105.193" gradientUnits="userSpaceOnUse">
<stop stop-color="#FFBA47" stop-opacity="0"/>
<stop offset="1" stop-color="#C66F34"/>
</linearGradient>
</defs>
</svg>
