<svg width="80" height="80" viewBox="0 0 80 80" fill="none" xmlns="http://www.w3.org/2000/svg">
<path d="M7.82248 32.2174V37.8806H17.9547L17.9118 43.3287H7.82248V54.0533H1.55518V26.5542H19.8438V32.2166H7.82248V32.2174Z" fill="url(#paint0_linear)"/>
<path d="M19.8438 26.5542H30.9199C38.2605 26.5542 41.8243 29.7287 41.8243 35.4769C41.8243 39.2523 40.1496 41.9546 37.1014 43.3707L42.1246 54.0526H35.0835L30.8333 44.4432H26.1104V54.0526H19.8423V26.5542H19.8438ZM30.8762 39.0809C34.0102 39.0809 35.2122 37.3654 35.2122 35.5205C35.2122 33.7185 34.096 32.0031 30.9199 32.0031H26.1112V39.0817H30.8762V39.0809Z" fill="url(#paint1_linear)"/>
<path d="M48.3928 32.2174V37.4511H56.0368V42.8992H48.3928V48.3901H60.2847V54.0526H42.1248V26.5542H60.2847V32.2166H48.3928V32.2174Z" fill="url(#paint2_linear)"/>
<path d="M66.5525 32.2174V37.4511H74.1973V42.8992H66.5525V48.3901H78.4444V54.0526H60.2844V26.5542H78.4444V32.2166H66.5525V32.2174Z" fill="url(#paint3_linear)"/>
<path d="M30.9199 31.4482H25.5566V39.6359H30.877C34.4829 39.6359 35.7684 37.5105 35.7684 35.5207C35.7676 34.5651 35.4182 31.4482 30.9199 31.4482ZM30.8762 38.5268H26.6658V32.5573H30.9191C34.1709 32.5573 34.6569 34.4139 34.6569 35.5207C34.6577 37.431 33.2794 38.5268 30.8762 38.5268Z" fill="url(#paint4_linear)"/>
<path d="M79 32.7715V26H60.84H59.7301H41.5701V31.2408C40.3143 28.3686 37.3386 26 30.92 26H20.3986H19.2887H1V54.6074H8.37802V43.8828H18.4626L18.5141 37.3256H8.37802V32.7715H19.2887V54.6074H26.6667V44.9981H30.4731L34.7233 54.6074H41.5709H42.9999H59.7309H60.8408H79V47.8359H67.1081V43.4541H74.7529V36.8961H67.1081V32.7715H79ZM48.9474 36.8961V32.7715H59.7293V47.8352H48.9474V43.4533H56.5922V36.8961H48.9474ZM7.26808 31.6624V38.4347H17.3956L17.3613 42.7737H7.26808V53.4984H2.10994V27.1091H19.2887V31.6624H7.26808ZM35.4456 53.4984L31.1954 43.889H25.5567V53.4984H20.3986V32.7715V27.1091H30.92C37.7879 27.1091 41.2691 29.9243 41.2691 35.4776C41.2691 38.9756 39.7473 41.5305 36.8675 42.868L36.3621 43.1026L41.2511 53.4976H35.4456V53.4984ZM37.8347 43.6256C39.5796 42.6957 40.8252 41.3357 41.5701 39.6217V51.5685L37.8347 43.6256ZM59.7301 53.4984H42.6801V27.1091H59.7301V31.6624H47.8374V38.0052H55.4822V42.3442H47.8374V48.9443H59.7293V53.4984H59.7301ZM73.6422 38.006V42.3442H65.9974V48.9443H77.8893V53.4976H60.84V47.8352V32.7715V27.1091H77.8901V31.6624H65.9974V38.0052H73.6422V38.006Z" fill="url(#paint5_linear)"/>
<path d="M38.7037 35.521C38.7037 32.2272 36.3465 28.9038 31.0808 28.9038H22.9898C22.7863 28.9038 22.6201 29.0698 22.6201 29.2732V51.8068C22.6201 52.011 22.7863 52.1762 22.9898 52.1762C23.1934 52.1762 23.3596 52.0102 23.3596 51.8068V42.1795H31.0379C31.6213 42.1795 32.1876 42.1374 32.7242 42.0548L37.3504 52.2058C37.4105 52.3375 37.5423 52.4225 37.6874 52.4225C37.7412 52.4225 37.7919 52.4116 37.8402 52.389C37.9307 52.3484 37.9994 52.2744 38.0337 52.1817C38.068 52.0889 38.0649 51.9884 38.0235 51.8995L33.459 41.8841C37.3254 40.9535 38.7037 37.8943 38.7037 35.521ZM31.0379 41.4398H23.3596V29.6435H31.0815C35.8356 29.6435 37.9643 32.5959 37.9643 35.521C37.9643 38.4672 35.8224 41.4398 31.0379 41.4398Z" fill="url(#paint6_linear)"/>
<path d="M17.6249 29.0112H4.69174C4.48816 29.0112 4.32202 29.1772 4.32202 29.3807V51.5603C4.32202 51.7645 4.48816 51.9298 4.69174 51.9298C4.89532 51.9298 5.06146 51.7638 5.06146 51.5603V40.9759H15.5181C15.7217 40.9759 15.8879 40.8099 15.8879 40.6065C15.8879 40.4023 15.7217 40.2371 15.5181 40.2371H5.06146V29.7501H17.6249C17.8285 29.7501 17.9946 29.5841 17.9946 29.3807C17.9946 29.1772 17.8285 29.0112 17.6249 29.0112Z" fill="url(#paint7_linear)"/>
<path d="M57.8377 29.7501C58.0413 29.7501 58.2075 29.5841 58.2075 29.3807C58.2075 29.1772 58.0413 29.0112 57.8377 29.0112H45.2611C45.0575 29.0112 44.8914 29.1772 44.8914 29.3807V51.2174C44.8914 51.4216 45.0575 51.5868 45.2611 51.5868H57.8377C58.0413 51.5868 58.2075 51.4208 58.2075 51.2174C58.2075 51.0132 58.0413 50.848 57.8377 50.848H45.6316V40.5364H53.5602C53.7638 40.5364 53.93 40.3703 53.93 40.1669C53.93 39.9627 53.7638 39.7975 53.5602 39.7975H45.6316V29.7509H57.8377V29.7501Z" fill="url(#paint8_linear)"/>
<path d="M75.9977 50.8474H63.7907V40.5366H71.7194C71.923 40.5366 72.0891 40.3705 72.0891 40.1671C72.0891 39.9629 71.923 39.7977 71.7194 39.7977H63.7915V29.7511H75.9985C76.2021 29.7511 76.3682 29.5851 76.3682 29.3816C76.3682 29.1782 76.2021 29.0122 75.9985 29.0122H63.421C63.2174 29.0122 63.0513 29.1782 63.0513 29.3816V51.2184C63.0513 51.4226 63.2174 51.5878 63.421 51.5878H75.9977C76.2013 51.5878 76.3674 51.4218 76.3674 51.2184C76.3682 51.0134 76.2021 50.8474 75.9977 50.8474Z" fill="url(#paint9_linear)"/>
<defs>
<linearGradient id="paint0_linear" x1="10.6991" y1="54.8236" x2="10.6991" y2="20.6938" gradientUnits="userSpaceOnUse">
<stop stop-color="#FF40BF"/>
<stop offset="0.4945" stop-color="#FFBF00"/>
<stop offset="1" stop-color="#F9F7A7"/>
</linearGradient>
<linearGradient id="paint1_linear" x1="30.9842" y1="54.8236" x2="30.9842" y2="20.6938" gradientUnits="userSpaceOnUse">
<stop stop-color="#FF40BF"/>
<stop offset="0.4945" stop-color="#FFBF00"/>
<stop offset="1" stop-color="#F9F7A7"/>
</linearGradient>
<linearGradient id="paint2_linear" x1="51.205" y1="54.8236" x2="51.205" y2="20.6938" gradientUnits="userSpaceOnUse">
<stop stop-color="#FF40BF"/>
<stop offset="0.4945" stop-color="#FFBF00"/>
<stop offset="1" stop-color="#F9F7A7"/>
</linearGradient>
<linearGradient id="paint3_linear" x1="69.3647" y1="54.8236" x2="69.3647" y2="20.6938" gradientUnits="userSpaceOnUse">
<stop stop-color="#FF40BF"/>
<stop offset="0.4945" stop-color="#FFBF00"/>
<stop offset="1" stop-color="#F9F7A7"/>
</linearGradient>
<linearGradient id="paint4_linear" x1="30.6619" y1="30.1746" x2="30.6619" y2="81.6632" gradientUnits="userSpaceOnUse">
<stop stop-color="#9F00E8"/>
<stop offset="1"/>
</linearGradient>
<linearGradient id="paint5_linear" x1="40" y1="30.1745" x2="40" y2="81.6631" gradientUnits="userSpaceOnUse">
<stop stop-color="#9F00E8"/>
<stop offset="1"/>
</linearGradient>
<linearGradient id="paint6_linear" x1="30.6617" y1="40.6038" x2="30.6617" y2="3.38381" gradientUnits="userSpaceOnUse">
<stop stop-color="white"/>
<stop offset="1" stop-color="white" stop-opacity="0"/>
</linearGradient>
<linearGradient id="paint7_linear" x1="11.1582" y1="40.6037" x2="11.1582" y2="3.38367" gradientUnits="userSpaceOnUse">
<stop stop-color="white"/>
<stop offset="1" stop-color="white" stop-opacity="0"/>
</linearGradient>
<linearGradient id="paint8_linear" x1="51.5497" y1="40.6037" x2="51.5497" y2="3.38367" gradientUnits="userSpaceOnUse">
<stop stop-color="white"/>
<stop offset="1" stop-color="white" stop-opacity="0"/>
</linearGradient>
<linearGradient id="paint9_linear" x1="69.7096" y1="40.6039" x2="69.7096" y2="3.38387" gradientUnits="userSpaceOnUse">
<stop stop-color="white"/>
<stop offset="1" stop-color="white" stop-opacity="0"/>
</linearGradient>
</defs>
</svg>
