<svg width="80" height="80" viewBox="0 0 80 80" fill="none" xmlns="http://www.w3.org/2000/svg">
<path d="M40.475 70.95C57.3059 70.95 70.95 57.3059 70.95 40.475C70.95 23.6441 57.3059 10 40.475 10C23.6441 10 10 23.6441 10 40.475C10 57.3059 23.6441 70.95 40.475 70.95Z" fill="url(#paint0_radial)"/>
<path opacity="0.5" d="M40.475 70.95C57.3059 70.95 70.95 57.3059 70.95 40.475C70.95 23.6441 57.3059 10 40.475 10C23.6441 10 10 23.6441 10 40.475C10 57.3059 23.6441 70.95 40.475 70.95Z" fill="url(#paint1_radial)"/>
<path d="M61.0563 45.6345C60.8295 45.5494 60.5743 45.5353 60.3475 45.6061C53.9124 47.4488 47.2362 48.3702 40.4892 48.3702C33.7422 48.3702 27.0518 47.4346 20.6308 45.6061C20.3899 45.5353 20.1489 45.5494 19.9221 45.6345C19.2276 45.918 18.122 46.9669 19.5819 50.9782V50.9924C21.7364 56.1236 27.4487 65.1385 40.475 65.1385C53.4729 65.1385 59.1852 56.1094 61.3965 50.9924C62.8422 46.9669 61.7508 45.918 61.0563 45.6345Z" fill="url(#paint2_radial)"/>
<path d="M40.4747 63.7069C45.8752 63.7069 49.9291 62.0484 52.9624 59.7805C49.6314 58.2781 45.5208 57.3 40.4747 57.3C35.4286 57.3 31.3181 58.2922 27.9871 59.8089C31.0204 62.0484 35.0743 63.7069 40.4747 63.7069Z" fill="url(#paint3_radial)"/>
<path d="M60.6451 45.5494C60.6025 45.5494 60.56 45.5494 60.5033 45.5636C54.0114 47.4346 47.2786 48.3843 40.4607 48.3843C33.6428 48.3843 26.9099 47.4346 20.4181 45.5636C20.3755 45.5494 20.333 45.5494 20.2763 45.5494C19.8369 45.592 17.7391 46.0314 19.5392 50.9924V51.0066C20.4181 53.0761 21.878 55.7834 24.1601 58.2639C22.0198 55.7267 24.6562 54.3234 29.3479 54.8904C34.0397 55.4574 40.4607 55.4715 40.4607 55.4715C40.4607 55.4715 46.8675 55.4574 51.5734 54.8904C56.2652 54.3234 58.9016 55.7267 56.7613 58.2639C59.0434 55.7834 60.5033 53.0761 61.3821 51.0066V50.9924C63.1823 46.0172 61.0845 45.5778 60.6451 45.5494Z" fill="url(#paint4_linear)"/>
<path d="M57.0307 52.5233C58.8167 52.1405 60.1633 50.6522 60.3333 48.8237L60.5034 47.0378C54.0115 48.8662 47.2787 49.8018 40.475 49.8018C33.6713 49.8018 26.9384 48.8662 20.4465 47.0378L20.6166 48.8237C20.7867 50.6381 22.1333 52.1264 23.9193 52.5233C29.3339 53.6997 34.8903 54.2809 40.475 54.2809C46.0597 54.2809 51.6161 53.6856 57.0307 52.5233Z" fill="url(#paint5_radial)"/>
<path d="M59.7664 29.178C59.6672 28.8236 59.3554 28.611 58.9868 28.6677C57.0875 28.9654 53.8132 30.1844 50.6523 31.7861C48.1434 33.0618 45.1384 36.4778 45.4078 37.6968C45.7196 39.0576 49.4758 40.2624 51.0633 40.7018C53.5722 41.4105 56.8749 42.02 58.6467 41.609C59.1144 41.4956 59.2845 41.1837 59.2845 40.9144C59.2845 40.5459 58.9868 40.234 58.5191 40.1206C53.4446 38.8449 50.0853 37.385 50.0711 36.6054C50.0711 36.6054 49.8727 35.3722 53.2037 33.4445C55.2306 32.268 57.4277 31.2616 58.7884 30.6946C59.6247 30.2978 59.894 29.6883 59.7664 29.178Z" fill="url(#paint6_radial)"/>
<path d="M58.9869 28.6677C57.0875 28.9654 53.7282 29.7875 50.6523 31.7861C47.8316 33.6288 45.1385 36.4778 45.4078 37.6968C45.5921 38.4906 46.9245 39.2135 48.3277 39.7805C48.3844 39.7946 48.4411 39.823 48.4836 39.8513H48.4978C47.208 38.7316 46.4425 37.385 48.0301 35.5848C49.0365 34.4509 52.0273 30.964 59.7523 29.178C59.6673 28.8236 59.3413 28.611 58.9869 28.6677Z" fill="url(#paint7_linear)"/>
<path d="M59.2986 40.9286C59.2986 40.56 59.0009 40.2482 58.5332 40.1348C53.4587 38.8591 50.0994 37.3992 50.0852 36.6196C50.0994 37.952 50.1419 38.604 54.3375 39.7663C57.4559 40.6309 58.93 40.9711 58.6466 41.6231C59.1143 41.5097 59.2986 41.1979 59.2986 40.9286Z" fill="url(#paint8_linear)"/>
<path d="M21.1836 29.178C21.2829 28.8236 21.5947 28.611 21.9632 28.6677C23.8626 28.9654 27.1369 30.1844 30.2978 31.7861C32.8067 33.0618 35.8116 36.4778 35.5423 37.6968C35.2305 39.0576 31.4743 40.2624 29.8867 40.7018C27.3779 41.4105 24.0752 42.02 22.3034 41.609C21.8357 41.4956 21.6656 41.1837 21.6656 40.9144C21.6656 40.5459 21.9632 40.234 22.431 40.1206C27.5054 38.8449 30.8648 37.385 30.8789 36.6054C30.8789 36.6054 31.0774 35.3722 27.7464 33.4445C25.7195 32.268 23.5224 31.2616 22.1617 30.6946C21.3254 30.2978 21.0561 29.6883 21.1836 29.178Z" fill="url(#paint9_radial)"/>
<path d="M21.9632 28.6677C23.8625 28.9654 27.2219 29.7875 30.2977 31.7861C33.1184 33.6288 35.8116 36.4778 35.5423 37.6968C35.358 38.4906 34.0256 39.2135 32.6223 39.7805C32.5656 39.7946 32.5089 39.823 32.4664 39.8513H32.4522C33.7421 38.7316 34.5075 37.385 32.92 35.5848C31.9136 34.4509 28.9228 30.964 21.1978 29.178C21.2828 28.8236 21.6088 28.611 21.9632 28.6677Z" fill="url(#paint10_linear)"/>
<path d="M21.6514 40.9286C21.6514 40.56 21.949 40.2482 22.4168 40.1348C27.4912 38.8591 30.8506 37.3992 30.8647 36.6196C30.8506 37.952 30.808 38.604 26.6124 39.7663C23.494 40.6309 22.0199 40.9711 22.3034 41.6231C21.8356 41.5097 21.6514 41.1979 21.6514 40.9286Z" fill="url(#paint11_linear)"/>
<path d="M33.7705 22.0199C33.7705 20.8009 32.4523 20.0355 30.1844 20.0355C28.2566 20.0355 24.0185 21.0986 21.0986 24.8548C20.5599 25.5493 21.382 25.932 21.9207 25.4785C23.7208 23.9476 28.526 21.9916 32.2822 22.4026C33.7847 22.5727 33.7705 22.0199 33.7705 22.0199Z" fill="url(#paint12_linear)"/>
<path d="M47.1794 22.0199C47.1794 20.8009 48.4977 20.0355 50.7656 20.0355C52.6933 20.0355 56.9314 21.0986 59.8514 24.8548C60.39 25.5493 59.5679 25.932 59.0293 25.4785C57.2291 23.9476 52.424 21.9916 48.6678 22.4026C47.1653 22.5727 47.1794 22.0199 47.1794 22.0199Z" fill="url(#paint13_linear)"/>
<defs>
<radialGradient id="paint0_radial" cx="0" cy="0" r="1" gradientUnits="userSpaceOnUse" gradientTransform="translate(34.479 28.1245) scale(36.7641)">
<stop stop-color="#FFDF30"/>
<stop offset="1" stop-color="#FFB82E"/>
</radialGradient>
<radialGradient id="paint1_radial" cx="0" cy="0" r="1" gradientUnits="userSpaceOnUse" gradientTransform="translate(34.479 28.1245) scale(28.924)">
<stop stop-color="#FFE95F"/>
<stop offset="1" stop-color="#FFBB47" stop-opacity="0"/>
</radialGradient>
<radialGradient id="paint2_radial" cx="0" cy="0" r="1" gradientUnits="userSpaceOnUse" gradientTransform="translate(40.475 55.3493) scale(16.7881)">
<stop offset="0.00132565" stop-color="#7A4400"/>
<stop offset="1" stop-color="#643800"/>
</radialGradient>
<radialGradient id="paint3_radial" cx="0" cy="0" r="1" gradientUnits="userSpaceOnUse" gradientTransform="translate(40.7261 61.255) scale(13.9137 4.2061)">
<stop offset="0.2479" stop-color="#FF0000"/>
<stop offset="1" stop-color="#C10000"/>
</radialGradient>
<linearGradient id="paint4_linear" x1="61.8657" y1="51.8982" x2="19.3441" y2="51.8982" gradientUnits="userSpaceOnUse">
<stop offset="0.00132565" stop-color="#3C2200"/>
<stop offset="0.5" stop-color="#512D00"/>
<stop offset="1" stop-color="#3C2200"/>
</linearGradient>
<radialGradient id="paint5_radial" cx="0" cy="0" r="1" gradientUnits="userSpaceOnUse" gradientTransform="translate(40.475 50.6659) scale(36.8167)">
<stop offset="0.00132565" stop-color="white"/>
<stop offset="1" stop-color="#A8BBBD"/>
</radialGradient>
<radialGradient id="paint6_radial" cx="0" cy="0" r="1" gradientUnits="userSpaceOnUse" gradientTransform="translate(53.2658 36.4105) rotate(-119.097) scale(7.16763 4.63702)">
<stop offset="0.00132565" stop-color="#7A4400"/>
<stop offset="1" stop-color="#643800"/>
</radialGradient>
<linearGradient id="paint7_linear" x1="45.0662" y1="36.2317" x2="60.5632" y2="32.6683" gradientUnits="userSpaceOnUse">
<stop offset="0.00132565" stop-color="#3C2200"/>
<stop offset="1" stop-color="#512D00"/>
</linearGradient>
<linearGradient id="paint8_linear" x1="50.124" y1="39.1851" x2="59.2661" y2="39.0497" gradientUnits="userSpaceOnUse">
<stop offset="0.00132565" stop-color="#3C2200"/>
<stop offset="1" stop-color="#512D00"/>
</linearGradient>
<radialGradient id="paint9_radial" cx="0" cy="0" r="1" gradientUnits="userSpaceOnUse" gradientTransform="translate(27.682 36.4093) rotate(-60.9025) scale(7.16763 4.63703)">
<stop offset="0.00132565" stop-color="#7A4400"/>
<stop offset="1" stop-color="#643800"/>
</radialGradient>
<linearGradient id="paint10_linear" x1="35.8888" y1="36.2358" x2="20.3918" y2="32.6724" gradientUnits="userSpaceOnUse">
<stop offset="0.00132565" stop-color="#3C2200"/>
<stop offset="1" stop-color="#512D00"/>
</linearGradient>
<linearGradient id="paint11_linear" x1="30.827" y1="39.1851" x2="21.6848" y2="39.0497" gradientUnits="userSpaceOnUse">
<stop offset="0.00132565" stop-color="#3C2200"/>
<stop offset="1" stop-color="#512D00"/>
</linearGradient>
<linearGradient id="paint12_linear" x1="27.3442" y1="24.0612" x2="27.3442" y2="20.85" gradientUnits="userSpaceOnUse">
<stop offset="0.00132565" stop-color="#3C2200"/>
<stop offset="1" stop-color="#7A4400"/>
</linearGradient>
<linearGradient id="paint13_linear" x1="53.6057" y1="24.0612" x2="53.6057" y2="20.85" gradientUnits="userSpaceOnUse">
<stop offset="0.00132565" stop-color="#3C2200"/>
<stop offset="1" stop-color="#7A4400"/>
</linearGradient>
</defs>
</svg>
