<svg width="80" height="80" viewBox="0 0 80 80" fill="none" xmlns="http://www.w3.org/2000/svg">
<path d="M50.0021 56.0272C49.9571 57.2174 47.5767 58.8077 44.0911 58.8077C40.6056 58.8077 24.678 52.5717 20.7174 46.4157C15.4716 38.2594 10.0457 35.964 7.04521 34.1587C4.04473 32.3534 8.06038 21.9018 12.071 18.8563C16.0817 15.8108 17.7169 21.3267 22.4777 20.0915C27.2384 18.8563 35.5748 19.8714 38.8803 20.9316C42.1858 21.9918 64.8545 35.879 64.6794 40.9498C64.5044 46.0206 63.6643 48.316 60.0037 48.401C60.0037 48.401 60.4437 52.3717 55.1079 52.4567C55.1179 52.4517 55.0529 56.8624 50.0021 56.0272Z" fill="url(#paint0_linear)"/>
<path d="M58.2635 43.3097C56.5582 43.6047 47.5918 37.8488 45.0614 37.9888C41.8859 38.1639 47.4018 39.6841 52.0275 42.3095C58.1435 45.7801 61.199 49.1006 55.4681 50.6009C53.8828 51.0159 45.6765 43.9348 40.8257 44.3399C39.7656 44.4299 44.3363 46.6752 49.3921 49.8957C54.4479 53.1163 51.8925 54.2614 49.2921 53.9964C46.6917 53.7314 37.7402 48.7506 35.5799 49.1456C33.4195 49.5407 39.9456 51.1309 45.1064 54.3915C47.7518 56.0667 43.3161 56.9019 38.3703 57.3219C40.9407 58.2471 43.0661 58.8022 44.0963 58.8022C47.5818 58.8022 49.9622 57.2169 50.0072 56.0217C55.058 56.8619 55.123 52.4512 55.123 52.4512C60.4589 52.3611 60.0188 48.3955 60.0188 48.3955C63.6794 48.3055 64.5145 46.0151 64.6945 40.9443C64.6995 40.7993 64.6795 40.6393 64.6495 40.4793L60.8589 38.1939C61.6741 41.1343 59.9688 43.0146 58.2635 43.3097Z" fill="url(#paint1_linear)"/>
<path d="M54.9979 53.2411C54.3978 52.6461 53.7477 52.046 52.9976 51.4309C36.945 38.2388 34.7397 48.1303 27.2435 43.0995C19.7473 38.0687 24.508 32.6029 18.072 32.2528C12.4261 31.9428 9.15559 28.7822 7.90039 24.6216C6.03009 28.5672 5.18496 33.0279 7.05026 34.1531C10.0507 35.9634 15.4716 38.2537 20.7224 46.4101C24.6831 52.566 40.6106 58.802 44.0962 58.802C47.5817 58.802 49.9621 57.2168 50.0071 56.0216C53.6777 56.6367 54.7079 54.4713 54.9979 53.2411Z" fill="url(#paint2_linear)"/>
<path d="M45.2664 38.4292C48.1968 39.3443 50.9623 40.7246 53.6277 42.2298C54.9529 43.0049 56.2531 43.8101 57.5433 44.6302C58.9936 45.3453 59.7037 46.9355 60.0087 48.3958C59.5736 46.9556 58.8085 45.4903 57.4033 44.8602C56.0781 44.0851 54.7829 43.28 53.4527 42.5348C50.8172 40.9996 48.0918 39.6194 45.2664 38.4292Z" fill="#804B24"/>
<path d="M41.8008 44.6904C44.2262 45.5756 46.4865 46.8508 48.6969 48.161C49.7921 48.8411 50.8822 49.5262 51.9474 50.2463L55.1179 52.4517C52.8625 51.2015 50.7272 49.7662 48.5169 48.461C47.4267 47.7809 46.3165 47.1408 45.2013 46.5057C44.0811 45.8756 42.956 45.2555 41.8008 44.6904Z" fill="#804B24"/>
<path d="M36.1548 49.5015C38.6052 50.2416 40.9456 51.2968 43.2609 52.3819C45.5563 53.5121 47.8267 54.6823 50.002 56.0275C45.3813 53.8322 40.8505 51.5068 36.1548 49.5015Z" fill="#804B24"/>
<path d="M49.397 57.0976C24.0479 54.0671 22.2176 42.9553 19.2772 39.0747C16.3367 35.1941 19.2171 32.1936 16.8068 33.2538C14.6964 34.1789 9.61561 34.879 6.13506 30.0732C5.84001 31.9885 6.05504 33.5488 7.0502 34.1489C10.0507 35.9592 15.4716 38.2496 20.7224 46.4059C24.683 52.5618 40.6106 58.7978 44.0961 58.7978C46.5765 58.8028 48.4818 57.9927 49.397 57.0976Z" fill="url(#paint3_linear)"/>
<path d="M29.7138 19.5615C27.0983 19.4515 24.4779 19.5665 22.4876 20.0866C18.0369 21.2418 16.3166 16.501 12.8361 18.3663C16.0566 18.3963 16.7417 22.1869 20.6923 22.0869C23.3477 22.0219 25.9632 21.4668 28.3035 21.3468C28.7086 20.7367 29.1737 20.1266 29.7138 19.5615Z" fill="url(#paint4_linear)"/>
<path d="M63.4492 46.8159C64.2794 45.6107 64.5894 43.7004 64.6894 40.9449C64.8644 35.8741 42.2008 21.9819 38.8903 20.9267C36.86 20.2766 32.9343 19.6465 29.1037 19.5415C28.7537 19.5315 24.0179 25.9125 24.1029 28.0279C24.1729 29.7332 25.3831 32.0385 29.7138 32.0385C34.0445 32.0385 34.7696 26.4226 37.035 25.7925C40.6206 24.7924 44.2111 31.4534 49.1469 33.7488C54.0877 36.0442 60.0787 38.4945 60.6688 39.4947C61.2389 40.4499 63.9643 43.2553 63.4492 46.8159Z" fill="url(#paint5_linear)"/>
<path d="M26.9834 30.3181C24.8681 29.0829 25.2181 26.7025 26.2783 24.9372C27.3385 23.1719 29.5838 17.001 35.4048 17.001C40.6106 17.001 44.9913 20.0515 48.2368 21.3217C50.9122 22.3668 53.9677 24.0571 56.1731 24.0571C58.3784 24.0571 62.3991 21.8817 63.7593 20.7916C64.7895 19.9664 67.4649 20.7016 71.4305 27.9377C75.4011 35.1689 74.0759 36.6691 72.0456 37.1992C70.0153 37.7293 67.1048 38.5244 66.3997 40.7248C65.6946 42.9301 64.4044 44.1403 64.4044 44.1403C64.4044 44.1403 62.5341 39.4646 59.6086 37.5493C54.7579 34.3737 50.5222 32.6085 48.1418 30.8482C45.7614 29.0829 39.7655 24.3221 37.2951 24.3221C34.8347 24.3171 31.5691 32.6985 26.9834 30.3181Z" fill="url(#paint6_linear)"/>
<path d="M64.4144 44.1409C64.4144 44.1409 65.7046 42.9307 66.4097 40.7254C67.1148 38.52 70.0253 37.7249 72.0556 37.1998C73.6959 36.7697 74.8711 35.7045 73.1608 31.4839C65.4296 29.8636 68.14 43.5008 61.854 36.0196C55.3279 28.2584 50.2121 29.7286 47.9768 28.4934C45.7414 27.2582 39.9955 23.0825 37.175 23.0825C34.3546 23.0825 32.6343 31.1088 26.2433 29.7236C26.4483 29.9386 26.6884 30.1387 26.9884 30.3137C31.5741 32.6941 34.8397 24.3177 37.3051 24.3177C39.7754 24.3177 45.7714 29.0785 48.1518 30.8438C50.5322 32.6091 54.7678 34.3693 59.6186 37.5448C62.5441 39.4651 64.4144 44.1409 64.4144 44.1409Z" fill="url(#paint7_linear)"/>
<path d="M34.6997 61.9779C32.2343 61.8329 31.5191 59.0875 32.3193 56.8171C33.4195 53.6866 35.5998 53.2665 36.775 53.2915C37.9502 53.3165 40.0755 54.2117 39.5104 57.1722C39.0704 59.4475 38.4052 62.198 34.6997 61.9779Z" fill="url(#paint8_linear)"/>
<path d="M42.2308 63.1487C40.6905 63.1487 39.0103 62.6586 39.1503 58.2379C39.2953 53.8172 41.7957 53.8672 42.4708 53.8672C43.1459 53.8672 45.5513 54.6523 45.5513 58.3879C45.5513 62.1235 44.0561 63.1487 42.2308 63.1487Z" fill="url(#paint9_linear)"/>
<path d="M38.6603 59.9377C37.5501 60.0727 35.7998 60.1478 34.8047 59.4176C33.5645 58.5125 33.8845 55.432 34.9547 53.6567C33.9845 54.0818 32.9694 54.9769 32.3193 56.8122C31.5191 59.0826 32.2343 61.823 34.6997 61.9731C36.9 62.1081 38.0152 61.1829 38.6603 59.9377Z" fill="url(#paint10_linear)"/>
<path d="M45.5464 58.3821C45.5464 57.627 45.4313 57.0219 45.2663 56.4868C44.9913 57.932 43.6261 60.5325 42.2058 60.5325C40.9556 60.5325 39.9605 60.1974 39.1653 57.9571C39.1603 58.0521 39.1503 58.1321 39.1453 58.2321C39.0003 62.6528 40.6856 63.1429 42.2258 63.1429C44.0561 63.1479 45.5464 62.1177 45.5464 58.3821Z" fill="url(#paint11_linear)"/>
<path d="M22.0626 54.0674C19.5922 52.9172 19.0771 50.3168 20.6424 46.9413C22.2076 43.5657 24.588 44.4459 25.7682 44.996C26.9484 45.546 29.0137 48.0314 27.7085 50.8469C26.4033 53.6573 24.0629 54.9976 22.0626 54.0674Z" fill="url(#paint12_linear)"/>
<path d="M27.2535 58.348C25.0881 56.9328 25.3332 53.9273 27.6585 50.6217C29.9839 47.3162 32.0342 48.6214 33.0194 49.3865C34.0046 50.1517 35.4698 53.2072 33.4295 55.8476C31.8542 57.8829 30.454 60.4383 27.2535 58.348Z" fill="url(#paint13_linear)"/>
<path d="M22.8177 52.7467C20.8874 51.8466 21.0724 46.8958 23.2478 44.5254C22.3426 44.6904 21.3975 45.3155 20.6424 46.9408C19.0771 50.3163 19.5922 52.9167 22.0626 54.0669C24.0629 54.9971 26.4033 53.6568 27.7085 50.8414C27.7085 50.8414 25.1131 53.8119 22.8177 52.7467Z" fill="url(#paint14_linear)"/>
<path d="M27.2535 58.3474C28.9387 59.4475 30.1239 59.2525 31.0991 58.5324C29.5538 58.4824 27.3935 57.6673 27.3935 55.4569C27.3935 52.8215 29.0688 49.941 32.1243 48.8108C31.0191 48.2657 29.4188 48.1207 27.6585 50.6261C25.3332 53.9267 25.0881 56.9321 27.2535 58.3474Z" fill="url(#paint15_linear)"/>
<path d="M20.6425 46.9408C21.0675 46.0107 21.6776 45.0755 22.6628 44.6305C23.6529 44.1904 24.7981 44.4304 25.7283 44.8705C26.7034 45.3406 27.3985 46.2157 27.8436 47.1709C28.2837 48.136 28.3687 49.2712 28.0586 50.2964C28.0386 50.3664 27.9636 50.4064 27.8936 50.3814C27.8786 50.3764 27.8636 50.3664 27.8486 50.3564L27.8436 50.3514C27.7886 50.3064 27.7736 50.2263 27.8186 50.1663C28.5187 49.2862 29.4639 48.3661 30.7241 48.326C31.3342 48.296 31.9293 48.4961 32.4393 48.7911C32.9394 49.0762 33.4445 49.4612 33.7596 49.9763C34.4047 50.9715 34.6997 52.1767 34.5847 53.3518C34.5697 53.4969 34.5547 53.6469 34.5197 53.7919L34.4747 54.007V54.0119C34.6897 54.162 34.1796 53.8169 34.2346 53.8519L34.2446 53.8419L34.2696 53.8269L34.3146 53.7969L34.4097 53.7369C34.6647 53.5869 34.9347 53.4619 35.2148 53.3668C35.7799 53.1768 36.37 53.1018 36.9651 53.1518C38.1453 53.2568 39.2904 54.087 39.5755 55.2722C39.6205 55.4172 39.6405 55.5622 39.6605 55.7072L39.6705 55.7622L39.6755 55.7872V55.7922C39.7255 55.8022 39.2554 55.7322 39.4555 55.7572L39.4605 55.7472L39.5055 55.6472L39.5955 55.4472C39.7305 55.1871 39.8805 54.9321 40.0806 54.7121C40.4606 54.257 41.0107 53.9469 41.5908 53.8269C42.751 53.5019 44.0112 54.152 44.6513 55.0921C45.3414 56.0423 45.5364 57.2375 45.5264 58.3676C45.4964 57.2325 45.2564 56.0573 44.5563 55.1621C43.8712 54.277 42.741 53.7069 41.6308 54.0169C41.0907 54.137 40.5956 54.422 40.2456 54.8521C40.0656 55.0571 39.9255 55.2972 39.8005 55.5472L39.7155 55.7372L39.6755 55.8323L39.6705 55.8422C39.8705 55.8672 39.3955 55.8122 39.4455 55.8172V55.8122L39.4405 55.7872L39.4305 55.7372C39.4105 55.6022 39.3855 55.4672 39.3454 55.3322C39.0704 54.252 38.0252 53.5119 36.9351 53.4269C36.39 53.3869 35.8249 53.4669 35.3098 53.6469C35.0498 53.7369 34.7997 53.8569 34.5647 53.9969L34.4797 54.052L34.4347 54.082L34.4147 54.097L34.4047 54.102C34.4547 54.142 33.9496 53.7869 34.1646 53.9319V53.9269L34.2046 53.7219C34.2346 53.5869 34.2446 53.4468 34.2596 53.3118C34.3596 52.2117 34.0496 51.0815 33.4645 50.1563C33.1795 49.6813 32.7544 49.3562 32.2693 49.0662C31.7942 48.7861 31.2642 48.6061 30.7291 48.6261C29.6189 48.6361 28.7137 49.4712 28.0236 50.3264L27.9986 50.1413L28.0036 50.1463L27.7986 50.2113C28.0986 49.2512 28.0386 48.186 27.6236 47.2559C27.2135 46.3407 26.5384 45.4806 25.6383 45.0355C24.7231 44.6054 23.6579 44.3304 22.6928 44.7205C21.7426 45.1205 21.1025 46.0207 20.6425 46.9408Z" fill="#804B24"/>
<path d="M33.0193 49.3863C32.2942 48.8963 31.4491 48.5162 30.6089 48.6212C29.7688 48.7262 29.0487 49.2563 28.4736 49.8814C27.8835 50.5065 27.4034 51.2516 26.9533 51.9968C26.5133 52.7519 26.1282 53.542 25.8782 54.3921C25.9982 53.512 26.3082 52.6619 26.7133 51.8667C27.1284 51.0766 27.6085 50.3265 28.2135 49.6464C28.8336 49.0063 29.6338 48.4162 30.5839 48.3562C31.5441 48.2912 32.3792 48.8012 33.0193 49.3863Z" fill="#804B24"/>
<path d="M33.9545 50.6763C34.6846 51.8865 34.8146 53.4917 34.2345 54.8369C33.9395 55.512 33.4594 56.0671 33.0293 56.6072C32.5893 57.1523 32.1242 57.6974 31.5691 58.1425C32.0292 57.6074 32.4092 57.0223 32.8093 56.4472C33.2094 55.8571 33.6644 55.332 33.9095 54.7019C34.4846 53.4517 34.4145 52.0015 33.9545 50.6763Z" fill="#804B24"/>
<path d="M38.5453 53.9116C39.0704 54.2267 39.4804 54.7718 39.6405 55.3919C39.8155 56.007 39.7705 56.6621 39.6655 57.2722C39.4154 58.4524 39.1154 59.7426 38.2302 60.6377C38.5553 60.1176 38.7603 59.5475 38.9303 58.9724C39.0904 58.3923 39.2204 57.8023 39.3204 57.2072C39.5854 56.062 39.4604 54.7768 38.5453 53.9116Z" fill="#804B24"/>
<path d="M36.5449 17.081C36.1648 17.051 35.7948 17.001 35.4047 17.001C29.5838 17.001 27.3334 23.1769 26.2782 24.9372C25.3681 26.4525 25.003 28.4078 26.2532 29.713C26.3783 29.848 26.2582 29.2079 26.0132 28.5678C25.4731 27.1726 27.2334 19.4013 36.5449 17.081Z" fill="url(#paint16_linear)"/>
<path d="M35.4047 17.0012C34.0245 17.0062 32.6593 17.4063 31.5091 18.1514C30.3539 18.8865 29.4038 19.9117 28.6186 21.0268C27.8335 22.152 27.2084 23.3722 26.5833 24.6024C25.8782 25.7576 25.3231 27.1078 25.6482 28.428C25.8082 29.0681 26.2083 29.6382 26.7533 30.0183C27.2984 30.3933 27.9635 30.5633 28.6186 30.6133C29.9639 30.5833 31.139 29.7432 32.1192 28.8281C33.1144 27.8929 33.9595 26.8077 34.8996 25.7876C35.3697 25.2825 35.8548 24.7674 36.4949 24.4074C37.17 23.9973 37.9851 24.2123 38.6152 24.4324C41.2257 25.4825 43.421 27.1878 45.6564 28.7981C46.7665 29.6082 47.8367 30.4933 48.9669 31.2485C50.1121 31.9986 51.3273 32.6487 52.5325 33.3088C54.9528 34.619 57.3682 35.9542 59.6636 37.4795C60.8138 38.2746 61.7139 39.3548 62.4841 40.4949C63.2442 41.6451 63.8893 42.8703 64.4144 44.1405C63.2792 41.6701 61.8339 39.1747 59.5686 37.6195C57.2632 36.1192 54.8478 34.799 52.4174 33.5088C51.2073 32.8587 49.9871 32.2136 48.8219 31.4635C47.6617 30.6984 46.6015 29.8282 45.4813 29.0281C43.256 27.4429 41.0206 25.7526 38.5002 24.7574C37.8701 24.5374 37.2 24.3574 36.6549 24.6974C36.0898 25.0075 35.5998 25.5025 35.1397 25.9976C34.2045 26.9978 33.3444 28.083 32.3242 29.0281C31.3191 29.9533 30.0889 30.8434 28.6236 30.8634C27.9135 30.8134 27.2034 30.6183 26.6133 30.2083C26.0282 29.7982 25.5882 29.1681 25.4231 28.473C25.0831 27.0478 25.6982 25.6376 26.4083 24.4924C27.0434 23.2772 27.6785 22.042 28.4836 20.9168C29.2988 19.8016 30.2839 18.7865 31.4691 18.0663C32.6393 17.3462 34.0295 16.9762 35.4047 17.0012Z" fill="#804B24"/>
<path opacity="0.16" d="M35.1198 18.8565C36.545 19.8067 35.4798 22.7771 33.6895 25.6326C32.2293 27.968 29.2638 29.7032 27.8986 28.7381C26.5334 27.7729 25.5082 26.6478 28.8888 22.017C30.8791 19.2816 33.7245 17.9264 35.1198 18.8565Z" fill="url(#paint17_radial)"/>
<path opacity="0.16" d="M16.3717 20.1165C18.8421 21.1167 18.8121 24.6272 17.7119 28.0528C16.8117 30.8532 13.5112 33.0636 11.1208 32.0434C8.72545 31.0233 6.73513 29.7881 9.19052 24.2022C10.6358 20.9067 13.9613 19.1364 16.3717 20.1165Z" fill="url(#paint18_radial)"/>
<path opacity="0.16" d="M54.9328 27.3279C54.0226 28.7732 50.4321 28.5431 46.8715 27.663C43.961 26.9429 41.5456 24.7925 42.4808 23.3873C43.4159 21.9871 44.5811 20.8419 50.4171 22.6872C53.8576 23.7724 55.8229 25.9127 54.9328 27.3279Z" fill="url(#paint19_radial)"/>
<path opacity="0.16" d="M67.2398 33.1286C64.9344 34.2037 62.134 32.3684 60.0537 29.883C58.3534 27.8527 58.5834 24.5722 60.8588 23.557C63.1342 22.5419 65.3345 21.8918 68.33 26.3775C70.0953 29.0179 69.4952 32.0784 67.2398 33.1286Z" fill="url(#paint20_radial)"/>
<defs>
<linearGradient id="paint0_linear" x1="27.4813" y1="53.226" x2="40.6517" y2="25.2388" gradientUnits="userSpaceOnUse">
<stop offset="0.00132565" stop-color="#BE8D68"/>
<stop offset="1" stop-color="#CD9870"/>
</linearGradient>
<linearGradient id="paint1_linear" x1="40.4331" y1="38.1688" x2="57.7193" y2="54.9259" gradientUnits="userSpaceOnUse">
<stop offset="0.3118" stop-color="#D2A374" stop-opacity="0"/>
<stop offset="1" stop-color="#B88653"/>
</linearGradient>
<linearGradient id="paint2_linear" x1="25.2684" y1="52.184" x2="38.4388" y2="24.1968" gradientUnits="userSpaceOnUse">
<stop stop-color="#B37E53"/>
<stop offset="1" stop-color="#CD9870"/>
</linearGradient>
<linearGradient id="paint3_linear" x1="30.744" y1="38.7856" x2="-0.300545" y2="88.8803" gradientUnits="userSpaceOnUse">
<stop stop-color="#473226" stop-opacity="0"/>
<stop offset="1" stop-color="#3D2A20"/>
</linearGradient>
<linearGradient id="paint4_linear" x1="20.6771" y1="13.6679" x2="23.6169" y2="39.7736" gradientUnits="userSpaceOnUse">
<stop stop-color="#B37E53"/>
<stop offset="1" stop-color="#CD9870"/>
</linearGradient>
<linearGradient id="paint5_linear" x1="40.3365" y1="46.3973" x2="53.2717" y2="12.2953" gradientUnits="userSpaceOnUse">
<stop stop-color="#D2A374" stop-opacity="0"/>
<stop offset="1" stop-color="#B88653"/>
</linearGradient>
<linearGradient id="paint6_linear" x1="63.3528" y1="56.6243" x2="40.775" y2="13.5852" gradientUnits="userSpaceOnUse">
<stop offset="0.00132565" stop-color="#BE8D68"/>
<stop offset="1" stop-color="#CD9870"/>
</linearGradient>
<linearGradient id="paint7_linear" x1="57.0447" y1="21.3796" x2="24.4714" y2="74.5317" gradientUnits="userSpaceOnUse">
<stop stop-color="#473226" stop-opacity="0"/>
<stop offset="1" stop-color="#3D2A20"/>
</linearGradient>
<linearGradient id="paint8_linear" x1="35.1519" y1="58.9667" x2="38.6797" y2="52.1463" gradientUnits="userSpaceOnUse">
<stop offset="0.00132565" stop-color="#BE8D68"/>
<stop offset="1" stop-color="#CD9870"/>
</linearGradient>
<linearGradient id="paint9_linear" x1="40.6477" y1="61.81" x2="44.1755" y2="54.9896" gradientUnits="userSpaceOnUse">
<stop offset="0.00132565" stop-color="#BE8D68"/>
<stop offset="1" stop-color="#CD9870"/>
</linearGradient>
<linearGradient id="paint10_linear" x1="31.8899" y1="66.351" x2="42.9142" y2="41.8328" gradientUnits="userSpaceOnUse">
<stop stop-color="#B37E53"/>
<stop offset="1" stop-color="#CD9870"/>
</linearGradient>
<linearGradient id="paint11_linear" x1="37.8935" y1="69.0501" x2="48.9179" y2="44.5319" gradientUnits="userSpaceOnUse">
<stop stop-color="#B37E53"/>
<stop offset="1" stop-color="#CD9870"/>
</linearGradient>
<linearGradient id="paint12_linear" x1="20.7786" y1="51.7266" x2="27.8578" y2="46.3321" gradientUnits="userSpaceOnUse">
<stop offset="0.00132565" stop-color="#BE8D68"/>
<stop offset="1" stop-color="#CD9870"/>
</linearGradient>
<linearGradient id="paint13_linear" x1="29.0077" y1="56.1566" x2="33.06" y2="48.3221" gradientUnits="userSpaceOnUse">
<stop offset="0.00132565" stop-color="#BE8D68"/>
<stop offset="1" stop-color="#CD9870"/>
</linearGradient>
<linearGradient id="paint14_linear" x1="18.9431" y1="60.5297" x2="29.9674" y2="36.0116" gradientUnits="userSpaceOnUse">
<stop stop-color="#B37E53"/>
<stop offset="1" stop-color="#CD9870"/>
</linearGradient>
<linearGradient id="paint15_linear" x1="25.2844" y1="63.3808" x2="36.3088" y2="38.8626" gradientUnits="userSpaceOnUse">
<stop stop-color="#B37E53"/>
<stop offset="1" stop-color="#CD9870"/>
</linearGradient>
<linearGradient id="paint16_linear" x1="40.5986" y1="42.717" x2="24.8411" y2="9.90849" gradientUnits="userSpaceOnUse">
<stop stop-color="#B37E53"/>
<stop offset="1" stop-color="#CD9870"/>
</linearGradient>
<radialGradient id="paint17_radial" cx="0" cy="0" r="1" gradientUnits="userSpaceOnUse" gradientTransform="translate(31.3852 23.706) rotate(-53.8461) scale(6.28076 3.05982)">
<stop stop-color="#F8DBBA"/>
<stop offset="1" stop-color="#CD9870" stop-opacity="0"/>
</radialGradient>
<radialGradient id="paint18_radial" cx="0" cy="0" r="1" gradientUnits="userSpaceOnUse" gradientTransform="translate(13.5227 25.9871) rotate(-66.2167) scale(6.68831 4.76048)">
<stop stop-color="#F8DBBA"/>
<stop offset="1" stop-color="#CD9870" stop-opacity="0"/>
</radialGradient>
<radialGradient id="paint19_radial" cx="0" cy="0" r="1" gradientUnits="userSpaceOnUse" gradientTransform="translate(48.7884 25.2337) rotate(17.5529) scale(6.70377 2.95806)">
<stop stop-color="#F8DBBA"/>
<stop offset="1" stop-color="#CD9870" stop-opacity="0"/>
</radialGradient>
<radialGradient id="paint20_radial" cx="0" cy="0" r="1" gradientUnits="userSpaceOnUse" gradientTransform="translate(64.2623 28.2686) rotate(56.3078) scale(5.90704 4.49611)">
<stop stop-color="#F8DBBA"/>
<stop offset="1" stop-color="#CD9870" stop-opacity="0"/>
</radialGradient>
</defs>
</svg>
