<svg width="80" height="80" viewBox="0 0 80 80" fill="none" xmlns="http://www.w3.org/2000/svg">
<path d="M49.9994 56.0248C49.9548 57.2147 47.5747 58.8012 44.089 58.8012C40.6032 58.8012 24.6768 52.5691 20.7151 46.4114C15.4691 38.2557 10.0446 35.9602 7.04474 34.1555C4.0449 32.3459 8.06121 21.8996 12.0726 18.8554C16.0839 15.8113 17.7152 21.3245 22.4802 20.09C27.2453 18.8554 35.5754 19.8718 38.8826 20.9278C42.1899 21.9839 64.8548 35.8759 64.6812 40.9478C64.5027 46.0197 63.6647 48.3103 60.0054 48.3995C60.0054 48.3995 60.4467 52.3658 55.1115 52.4551C55.1165 52.4501 55.047 56.8626 49.9994 56.0248Z" fill="url(#paint0_linear)"/>
<path opacity="0.5" d="M58.2601 43.3081C56.5544 43.6006 47.5896 37.8495 45.0608 37.9883C41.8874 38.1668 47.4012 39.6839 52.0274 42.3116C58.1411 45.7821 61.2004 49.1039 55.4685 50.6012C53.8868 51.0176 45.6757 43.9378 40.8263 44.3393C39.7702 44.4286 44.3369 46.6745 49.3945 49.8971C54.452 53.1198 51.8935 54.2601 49.2903 53.9973C46.6872 53.7346 37.7373 48.7519 35.5754 49.1485C33.4135 49.5451 39.9388 51.1317 45.1005 54.394C47.7483 56.0697 43.3105 56.9076 38.362 57.3241C40.9305 58.2462 43.0576 58.8015 44.084 58.8015C47.5698 58.8015 49.9498 57.215 49.9944 56.0251C55.0421 56.863 55.1115 52.4554 55.1115 52.4554C60.4467 52.3662 60.0054 48.3999 60.0054 48.3999C63.6647 48.3106 64.5027 46.0201 64.6812 40.9482C64.6862 40.7994 64.6663 40.6457 64.6366 40.4821L60.8434 38.1965C61.6715 41.1366 59.9658 43.0156 58.2601 43.3081Z" fill="url(#paint1_linear)"/>
<path opacity="0.5" d="M54.9974 53.2387C54.3975 52.6437 53.7479 52.0438 52.9992 51.429C36.9489 38.241 34.7424 48.1271 27.2453 43.0998C19.7482 38.0724 24.5132 32.6039 18.0722 32.2519C12.4246 31.9445 9.15205 28.7813 7.89757 24.6167C6.02825 28.5632 5.18532 33.0204 7.04473 34.1458C10.0446 35.9554 15.4691 38.246 20.715 46.4017C24.6768 52.5594 40.6032 58.7915 44.089 58.7915C47.5747 58.7915 49.9548 57.205 49.9994 56.0151C53.6736 56.6348 54.7049 54.4682 54.9974 53.2387Z" fill="url(#paint2_linear)"/>
<path d="M45.2691 38.4292C48.1995 39.3464 50.9613 40.7247 53.629 42.227C54.9529 43.0004 56.2569 43.8085 57.5461 44.6266C58.994 45.3405 59.708 46.932 60.0104 48.3897C59.5741 46.9469 58.8105 45.4843 57.4073 44.8547C56.0834 44.0812 54.7892 43.2731 53.4554 42.5294C50.8126 40.9974 48.0904 39.6141 45.2691 38.4292Z" fill="#3D2A20"/>
<path d="M41.7982 44.6909C44.2229 45.5734 46.4839 46.8476 48.6954 48.1614C49.7912 48.8407 50.8771 49.5298 51.9431 50.2487L55.1115 52.45C52.8555 51.2006 50.7184 49.7678 48.5119 48.4589C47.421 47.7797 46.3104 47.1401 45.1947 46.5005C44.0791 45.8759 42.9585 45.2512 41.7982 44.6909Z" fill="#3D2A20"/>
<path d="M36.1555 49.4951C38.605 50.2388 40.9503 51.2899 43.2609 52.3757C45.5517 53.5061 47.8276 54.6761 50.0043 56.0247C45.3831 53.8283 40.8511 51.508 36.1555 49.4951Z" fill="#3D2A20"/>
<path opacity="0.5" d="M49.3945 57.0957C24.0422 54.0664 22.2175 42.9558 19.2771 39.0787C16.3368 35.1966 19.2176 32.202 16.8078 33.2581C14.6956 34.1852 9.61816 34.8843 6.1324 30.0801C5.83985 31.9938 6.05306 33.5556 7.04475 34.1555C10.0446 35.9651 15.4691 38.2557 20.7151 46.4114C24.6768 52.5691 40.6032 58.8012 44.089 58.8012C46.5781 58.8012 48.4821 57.9881 49.3945 57.0957Z" fill="url(#paint3_linear)"/>
<path opacity="0.5" d="M29.7096 19.5638C27.0965 19.4547 24.4735 19.5687 22.4802 20.0843C18.0276 21.2395 16.312 16.4998 12.8262 18.364C16.0492 18.3937 16.7285 22.1815 20.6853 22.0823C23.3381 22.0179 25.9561 21.4626 28.2965 21.3436C28.703 20.7388 29.1691 20.129 29.7096 19.5638Z" fill="url(#paint4_linear)"/>
<path opacity="0.5" d="M63.4466 46.813C64.2796 45.6083 64.587 43.6995 64.6862 40.9429C64.8647 35.8709 42.1948 21.9839 38.8876 20.9229C36.8547 20.2734 32.9326 19.6438 29.0997 19.5347C28.7477 19.5248 24.0124 25.9006 24.1016 28.0176C24.1711 29.7232 25.3809 32.0286 29.7146 32.0286C34.0482 32.0286 34.7721 26.4113 37.0381 25.7816C40.623 24.7801 44.2129 31.4435 49.1515 33.7341C54.0901 36.0246 60.0848 38.4788 60.6748 39.4803C61.2351 40.4471 63.9622 43.2582 63.4466 46.813Z" fill="url(#paint5_linear)"/>
<path d="M26.9825 30.3184C24.8653 29.0839 25.2173 26.7041 26.2784 24.9391C27.3345 23.1741 29.5857 17.0015 35.4068 17.0015C40.6082 17.0015 44.9914 20.0506 48.2392 21.3248C50.9117 22.3709 53.9711 24.0566 56.1776 24.0566C58.3841 24.0566 62.4053 21.8801 63.7639 20.7943C64.7953 19.9713 67.4678 20.705 71.4346 27.9386C75.4013 35.1722 74.0823 36.6695 72.0544 37.2C70.0264 37.7305 67.1158 38.5238 66.4117 40.7251C65.7076 42.9314 64.4184 44.1411 64.4184 44.1411C64.4184 44.1411 62.5491 39.4658 59.6187 37.552C54.7694 34.379 50.5349 32.614 48.1549 30.8489C45.7748 29.0839 39.7752 24.3243 37.3059 24.3243C34.8316 24.3194 31.569 32.6982 26.9825 30.3184Z" fill="url(#paint6_linear)"/>
<path opacity="0.16" d="M64.4085 44.1359C64.4085 44.1359 65.6977 42.9262 66.4018 40.7199C67.1058 38.5136 70.0164 37.7204 72.0444 37.1948C73.6856 36.7684 74.8608 35.7025 73.1501 31.4832C65.415 29.862 68.1322 43.4964 61.84 36.0198C55.3148 28.2606 50.1977 29.7281 47.9664 28.4936C45.7351 27.2591 39.9834 23.0845 37.1621 23.0845C34.3407 23.0845 32.6251 31.1114 26.2387 29.7232C26.442 29.9364 26.685 30.1396 26.9825 30.3132C31.569 32.693 34.8316 24.314 37.3009 24.314C39.7702 24.314 45.7698 29.0786 48.1499 30.8387C50.5299 32.6037 54.7644 34.3638 59.6137 37.5419C62.5392 39.4656 64.4085 44.1359 64.4085 44.1359Z" fill="url(#paint7_linear)"/>
<path d="M34.6978 61.9743C32.2334 61.8256 31.5194 59.0839 32.3177 56.8132C33.4185 53.6847 35.5952 53.2633 36.7704 53.2881C37.9455 53.3129 40.0727 54.2103 39.5025 57.1701C39.0661 59.4458 38.4017 62.1974 34.6978 61.9743Z" fill="url(#paint8_linear)"/>
<path d="M42.2295 63.1495C40.6924 63.1495 39.0066 62.6586 39.1504 58.2362C39.2942 53.8137 41.7982 53.8633 42.4675 53.8633C43.1369 53.8633 45.5467 54.6516 45.5467 58.3849C45.5467 62.1133 44.0542 63.1495 42.2295 63.1495Z" fill="url(#paint9_linear)"/>
<path opacity="0.5" d="M38.6595 59.9364C37.5488 60.0753 35.7985 60.1447 34.8019 59.4159C33.5623 58.5086 33.8846 55.4297 34.9506 53.6548C33.9837 54.0812 32.9673 54.9736 32.3177 56.813C31.5194 59.0837 32.2334 61.8254 34.6978 61.9741C36.8993 62.108 38.0149 61.1809 38.6595 59.9364Z" fill="url(#paint10_linear)"/>
<path opacity="0.5" d="M45.5467 58.3797C45.5467 57.6262 45.4327 57.0163 45.2691 56.4858C44.9963 57.9286 43.6328 60.5314 42.2097 60.5314C40.9602 60.5314 39.9635 60.1943 39.1652 57.9583C39.1603 58.0525 39.1504 58.1368 39.1454 58.231C39.0016 62.6534 40.6825 63.1442 42.2246 63.1442C44.0542 63.1492 45.5467 62.113 45.5467 58.3797Z" fill="url(#paint11_linear)"/>
<path d="M22.0638 54.0615C19.5945 52.9112 19.0788 50.3133 20.6457 46.937C22.2125 43.5607 24.5926 44.4432 25.7727 44.9886C26.9478 45.5389 29.0204 48.0228 27.7114 50.8389C26.4024 53.6549 24.062 54.9936 22.0638 54.0615Z" fill="url(#paint12_linear)"/>
<path d="M27.2552 58.3454C25.0884 56.9274 25.3363 53.9278 27.6568 50.6209C29.9774 47.3139 32.0351 48.6228 33.0218 49.3863C34.0085 50.1499 35.4762 53.2089 33.4284 55.8466C31.8566 57.8793 30.4484 60.4327 27.2552 58.3454Z" fill="url(#paint13_linear)"/>
<path opacity="0.5" d="M22.8174 52.7432C20.8836 51.8408 21.072 46.8928 23.2438 44.5229C22.3364 44.6866 21.3943 45.3113 20.6407 46.9375C19.0738 50.3138 19.5895 52.9118 22.0588 54.062C24.062 54.9941 26.4023 53.6505 27.7064 50.8393C27.7064 50.8393 25.1131 53.8141 22.8174 52.7432Z" fill="url(#paint14_linear)"/>
<path opacity="0.5" d="M27.2552 58.3454C28.9411 59.4461 30.1261 59.2527 31.1029 58.5289C29.5559 58.4793 27.399 57.6613 27.399 55.45C27.399 52.8124 29.0749 49.9368 32.1293 48.8015C31.0236 48.2561 29.422 48.1123 27.6618 50.6161C25.3313 53.928 25.0884 56.9275 27.2552 58.3454Z" fill="url(#paint15_linear)"/>
<path d="M20.6407 46.937C21.0671 46.0098 21.677 45.0728 22.6588 44.6266C23.6504 44.1853 24.7958 44.4233 25.728 44.8645C26.7048 45.3355 27.394 46.2131 27.8403 47.165C28.2816 48.1318 28.3659 49.2622 28.0585 50.2885C28.0386 50.3579 27.9642 50.3976 27.8948 50.3778C27.88 50.3728 27.8651 50.3629 27.8502 50.353L27.8452 50.348C27.7857 50.3034 27.7758 50.2241 27.8205 50.1646C28.5245 49.2821 29.4666 48.3599 30.7261 48.3252C31.336 48.2955 31.931 48.4987 32.4417 48.7912C32.9425 49.0788 33.4433 49.4606 33.7606 49.9762C34.4102 50.9678 34.7027 52.1775 34.5887 53.3526C34.5738 53.5013 34.5589 53.6451 34.5242 53.7889L34.4796 54.007V54.012C34.6928 54.1607 34.187 53.8186 34.2416 53.8484L34.2515 53.8384L34.2763 53.8236L34.3259 53.7938L34.4201 53.7343C34.6779 53.5856 34.9457 53.4616 35.2283 53.3674C35.7936 53.179 36.3836 53.1047 36.9786 53.1542C38.1587 53.2584 39.3041 54.0913 39.5917 55.2762C39.6363 55.42 39.6562 55.5638 39.681 55.7126L39.6909 55.7671L39.6958 55.7919V55.7968C39.7454 55.8067 39.2744 55.7373 39.4727 55.7621L39.4777 55.7522L39.5223 55.6531L39.6115 55.4547C39.7454 55.192 39.8991 54.9391 40.0975 54.716C40.4793 54.2599 41.0296 53.9525 41.6048 53.8335C42.7651 53.5062 44.0245 54.1557 44.6691 55.0978C45.3583 56.0497 45.5567 57.2396 45.5467 58.375C45.517 57.2396 45.279 56.0646 44.5749 55.1721C43.8906 54.2846 42.7552 53.7195 41.6494 54.0269C41.1139 54.1458 40.6131 54.4334 40.266 54.8598C40.0826 55.068 39.9437 55.306 39.8198 55.5539L39.7355 55.7472L39.6958 55.8414L39.6909 55.8514C39.8892 55.8762 39.4182 55.8216 39.4628 55.8266V55.8216L39.4578 55.7968L39.4479 55.7472C39.4281 55.6134 39.4033 55.4746 39.3636 55.3456C39.0909 54.2648 38.0447 53.5261 36.9538 53.4368C36.4084 53.3972 35.8431 53.4765 35.3275 53.655C35.0696 53.7442 34.8168 53.8632 34.5837 54.007L34.4994 54.0615L34.4548 54.0913L34.435 54.1062L34.425 54.1111C34.4746 54.1508 33.9738 53.7938 34.187 53.9426V53.9376L34.2267 53.7343C34.2565 53.6004 34.2664 53.4616 34.2813 53.3228C34.3804 52.2221 34.068 51.0917 33.4829 50.1646C33.2003 49.6936 32.7689 49.3614 32.288 49.0738C31.8169 48.7962 31.2864 48.6128 30.7459 48.6326C29.6402 48.6425 28.7278 49.4755 28.0386 50.3332L28.0138 50.1497L28.0188 50.1547L27.8105 50.2191C28.108 49.2573 28.0485 48.1963 27.637 47.2642C27.2254 46.347 26.5561 45.4892 25.6536 45.043C24.7413 44.6117 23.6703 44.339 22.7083 44.7307C21.7415 45.1174 21.0969 46.0198 20.6407 46.937Z" fill="#3D2A20"/>
<path d="M33.0169 49.3862C32.2929 48.8953 31.4451 48.5136 30.6071 48.6227C29.7691 48.7268 29.0452 49.2573 28.47 49.882C27.88 50.5067 27.399 51.2504 26.9527 51.994C26.5114 52.7477 26.1247 53.5359 25.8768 54.3887C25.9958 53.5112 26.3032 52.6584 26.7147 51.8651C27.1263 51.0719 27.6122 50.3232 28.2122 49.644C28.832 49.0044 29.6303 48.4095 30.5823 48.3549C31.5393 48.2855 32.3772 48.8011 33.0169 49.3862Z" fill="#3D2A20"/>
<path d="M33.954 50.6753C34.6829 51.89 34.8168 53.4914 34.2317 54.835C33.9342 55.5092 33.4582 56.0645 33.0268 56.6049C32.5855 57.1503 32.1194 57.6957 31.569 58.1419C32.0302 57.6064 32.407 57.0214 32.8136 56.4463C33.2103 55.8563 33.6664 55.3307 33.9144 54.7011C34.4796 53.4517 34.4102 51.9991 33.954 50.6753Z" fill="#3D2A20"/>
<path d="M38.5405 53.9126C39.0661 54.2299 39.4777 54.7703 39.6363 55.39C39.8148 56.0048 39.7702 56.6592 39.6611 57.269C39.4082 58.449 39.1107 59.738 38.2281 60.6353C38.5554 60.1148 38.7587 59.5446 38.9273 58.9695C39.0909 58.3895 39.2149 57.7995 39.319 57.2046C39.5867 56.0593 39.4578 54.7752 38.5405 53.9126Z" fill="#3D2A20"/>
<path opacity="0.5" d="M36.5423 17.0808C36.1654 17.051 35.7886 17.0015 35.4019 17.0015C29.5807 17.0015 27.3296 23.1741 26.2734 24.9391C25.366 26.4513 24.9991 28.4096 26.2486 29.7136C26.3776 29.8474 26.2536 29.2079 26.0057 28.5683C25.4702 27.1751 27.2304 19.4011 36.5423 17.0808Z" fill="url(#paint16_linear)"/>
<path d="M35.4018 17.0012C34.0234 17.0061 32.6549 17.4077 31.5045 18.1514C30.3492 18.8901 29.4022 19.9115 28.6138 21.027C27.8304 22.1524 27.2056 23.3721 26.5759 24.6016C25.8718 25.7568 25.3164 27.1103 25.6387 28.4291C25.7974 29.0687 26.199 29.6389 26.7445 30.0157C27.2899 30.3925 27.9543 30.561 28.6088 30.6106C29.9526 30.5809 31.1327 29.738 32.1095 28.8258C33.1011 27.8887 33.949 26.8079 34.8862 25.7866C35.3523 25.2809 35.8431 24.7652 36.4828 24.4083C37.1571 23.9968 37.9703 24.2099 38.605 24.4331C41.2131 25.4841 43.4146 27.1896 45.6459 28.796C46.7566 29.6041 47.8276 30.4916 48.9581 31.2502C50.1035 31.9988 51.3183 32.6483 52.5232 33.3077C54.9429 34.6166 57.3577 35.9552 59.6534 37.4773C60.8038 38.2706 61.7062 39.3514 62.4747 40.4917C63.2334 41.6419 63.8829 42.8665 64.4036 44.1407C63.2681 41.6667 61.8252 39.1729 59.5592 37.6211C57.2535 36.1238 54.8388 34.805 52.4092 33.511C51.1993 32.8565 49.9746 32.217 48.8094 31.4683C47.6491 30.6999 46.588 29.8322 45.4674 29.029C43.2411 27.4425 41.0048 25.7568 38.486 24.7603C37.8563 24.5372 37.1869 24.3637 36.6365 24.7008C36.0712 25.0082 35.5853 25.504 35.1192 25.9998C34.187 26.9963 33.3243 28.0821 32.3078 29.029C31.3062 29.9562 30.0716 30.8436 28.6088 30.8684C27.8948 30.8139 27.1907 30.6255 26.6007 30.214C26.0156 29.8074 25.5792 29.1778 25.4107 28.4787C25.0735 27.0558 25.6883 25.6428 26.3924 24.4975C27.0271 23.2828 27.6618 22.0483 28.47 20.9229C29.2881 19.8123 30.2699 18.7959 31.455 18.0721C32.64 17.3482 34.0234 16.9764 35.4018 17.0012Z" fill="#3D2A20"/>
<path opacity="0.48" d="M35.1143 18.8552C36.5373 19.8071 35.4713 22.7769 33.6863 25.6326C32.2235 27.9677 29.2634 29.703 27.8949 28.7362C26.5263 27.7694 25.5049 26.644 28.8865 22.0134C30.8798 19.2816 33.721 17.9231 35.1143 18.8552Z" fill="url(#paint17_radial)"/>
<path opacity="0.48" d="M16.3715 20.1202C18.8408 21.1217 18.811 24.6319 17.7103 28.0529C16.8128 30.8541 13.5105 33.0653 11.1156 32.044C8.72067 31.0227 6.72739 29.7882 9.18676 24.2006C10.6346 20.9085 13.9567 19.1385 16.3715 20.1202Z" fill="url(#paint18_radial)"/>
<path opacity="0.48" d="M54.933 27.3236C54.0256 28.7713 50.4307 28.5383 46.8706 27.6558C43.96 26.9369 41.5453 24.7851 42.4774 23.382C43.4096 21.9789 44.5798 20.8386 50.4159 22.683C53.857 23.7737 55.8205 25.9106 54.933 27.3236Z" fill="url(#paint19_radial)"/>
<path opacity="0.48" d="M67.2398 33.1294C64.9341 34.2053 62.1326 32.3659 60.0501 29.882C58.3493 27.8493 58.5774 24.5721 60.8533 23.5557C63.1293 22.5394 65.3308 21.8899 68.3257 26.3768C70.0909 29.0193 69.4909 32.0784 67.2398 33.1294Z" fill="url(#paint20_radial)"/>
<defs>
<linearGradient id="paint0_linear" x1="9.05265" y1="64.1772" x2="39.2121" y2="31.1924" gradientUnits="userSpaceOnUse">
<stop offset="0.00132565" stop-color="#5A4539"/>
<stop offset="1" stop-color="#695042"/>
</linearGradient>
<linearGradient id="paint1_linear" x1="33.7737" y1="34.6633" x2="67.8143" y2="62.0045" gradientUnits="userSpaceOnUse">
<stop offset="0.3072" stop-color="#473226" stop-opacity="0"/>
<stop offset="1" stop-color="#473226"/>
</linearGradient>
<linearGradient id="paint2_linear" x1="41.9272" y1="6.91789" x2="26.1725" y2="54.6572" gradientUnits="userSpaceOnUse">
<stop offset="0.3072" stop-color="#473226" stop-opacity="0"/>
<stop offset="1" stop-color="#473226"/>
</linearGradient>
<linearGradient id="paint3_linear" x1="34.1475" y1="21.3915" x2="26.0351" y2="49.6116" gradientUnits="userSpaceOnUse">
<stop offset="0.3072" stop-color="#473226" stop-opacity="0"/>
<stop offset="1" stop-color="#473226"/>
</linearGradient>
<linearGradient id="paint4_linear" x1="21.2716" y1="28.1473" x2="21.2716" y2="17.7414" gradientUnits="userSpaceOnUse">
<stop offset="0.3072" stop-color="#473226" stop-opacity="0"/>
<stop offset="1" stop-color="#473226"/>
</linearGradient>
<linearGradient id="paint5_linear" x1="35.2073" y1="52.9158" x2="48.8461" y2="27.5169" gradientUnits="userSpaceOnUse">
<stop offset="0.3072" stop-color="#473226" stop-opacity="0"/>
<stop offset="1" stop-color="#473226"/>
</linearGradient>
<linearGradient id="paint6_linear" x1="48.5993" y1="43.4362" x2="50.1277" y2="26.7395" gradientUnits="userSpaceOnUse">
<stop offset="0.00132565" stop-color="#5A4539"/>
<stop offset="1" stop-color="#695042"/>
</linearGradient>
<linearGradient id="paint7_linear" x1="54.7166" y1="-1.66068" x2="48.1912" y2="46.6662" gradientUnits="userSpaceOnUse">
<stop offset="0.00132565" stop-color="#473226"/>
<stop offset="1" stop-color="#3D2A20"/>
</linearGradient>
<linearGradient id="paint8_linear" x1="32.0301" y1="65.4617" x2="37.8501" y2="53.4679" gradientUnits="userSpaceOnUse">
<stop offset="0.00132565" stop-color="#5A4539"/>
<stop offset="1" stop-color="#695042"/>
</linearGradient>
<linearGradient id="paint9_linear" x1="37.6528" y1="68.1903" x2="43.4728" y2="56.1964" gradientUnits="userSpaceOnUse">
<stop offset="0.00132565" stop-color="#5A4539"/>
<stop offset="1" stop-color="#695042"/>
</linearGradient>
<linearGradient id="paint10_linear" x1="42.8006" y1="41.893" x2="34.3353" y2="60.9419" gradientUnits="userSpaceOnUse">
<stop offset="0.3072" stop-color="#473226" stop-opacity="0"/>
<stop offset="1" stop-color="#473226"/>
</linearGradient>
<linearGradient id="paint11_linear" x1="48.8206" y1="44.5685" x2="40.3554" y2="63.6173" gradientUnits="userSpaceOnUse">
<stop offset="0.3072" stop-color="#473226" stop-opacity="0"/>
<stop offset="1" stop-color="#473226"/>
</linearGradient>
<linearGradient id="paint12_linear" x1="20.153" y1="62.6153" x2="24.4737" y2="47.7116" gradientUnits="userSpaceOnUse">
<stop offset="0.00132565" stop-color="#5A4539"/>
<stop offset="1" stop-color="#695042"/>
</linearGradient>
<linearGradient id="paint13_linear" x1="25.9901" y1="62.5311" x2="31.8102" y2="50.5372" gradientUnits="userSpaceOnUse">
<stop offset="0.00132565" stop-color="#5A4539"/>
<stop offset="1" stop-color="#695042"/>
</linearGradient>
<linearGradient id="paint14_linear" x1="29.843" y1="36.1352" x2="21.3776" y2="55.1842" gradientUnits="userSpaceOnUse">
<stop offset="0.3072" stop-color="#473226" stop-opacity="0"/>
<stop offset="1" stop-color="#473226"/>
</linearGradient>
<linearGradient id="paint15_linear" x1="36.18" y1="38.9513" x2="27.7147" y2="58.0002" gradientUnits="userSpaceOnUse">
<stop offset="0.3072" stop-color="#473226" stop-opacity="0"/>
<stop offset="1" stop-color="#473226"/>
</linearGradient>
<linearGradient id="paint16_linear" x1="36.2451" y1="12.2557" x2="28.0442" y2="27.0277" gradientUnits="userSpaceOnUse">
<stop offset="0.3072" stop-color="#473226" stop-opacity="0"/>
<stop offset="1" stop-color="#473226"/>
</linearGradient>
<radialGradient id="paint17_radial" cx="0" cy="0" r="1" gradientUnits="userSpaceOnUse" gradientTransform="translate(31.3837 23.7065) rotate(-53.8431) scale(5.19191 3.8553)">
<stop stop-color="#695042"/>
<stop offset="1" stop-color="#695042" stop-opacity="0"/>
</radialGradient>
<radialGradient id="paint18_radial" cx="0" cy="0" r="1" gradientUnits="userSpaceOnUse" gradientTransform="translate(13.5236 25.9863) rotate(-66.2147) scale(5.52876 5.99877)">
<stop stop-color="#695042"/>
<stop offset="1" stop-color="#695042" stop-opacity="0"/>
</radialGradient>
<radialGradient id="paint19_radial" cx="0" cy="0" r="1" gradientUnits="userSpaceOnUse" gradientTransform="translate(48.8024 25.2239) rotate(17.5513) scale(5.54195 3.72707)">
<stop stop-color="#695042"/>
<stop offset="1" stop-color="#695042" stop-opacity="0"/>
</radialGradient>
<radialGradient id="paint20_radial" cx="0" cy="0" r="1" gradientUnits="userSpaceOnUse" gradientTransform="translate(64.2753 28.2727) rotate(56.3051) scale(4.88299 5.66546)">
<stop stop-color="#695042"/>
<stop offset="1" stop-color="#695042" stop-opacity="0"/>
</radialGradient>
</defs>
</svg>
