<svg width="80" height="80" viewBox="0 0 80 80" fill="none" xmlns="http://www.w3.org/2000/svg">
<g clip-path="url(#clip0)">
<path d="M42.3996 34.6294C42.2432 36.042 41.0828 37.7927 40.5722 37.8304C40.0616 37.8681 39.6443 36.6385 39.5553 35.4318C39.4662 34.2251 31.9868 39.7691 31.5367 39.9891C31.1986 40.1542 27.4301 40.323 24.8967 41.6799C24.0523 42.1318 22.5649 44.2708 22.3467 44.3048C21.4726 44.4408 20.5546 43.0678 19.7509 40.9288C18.9473 38.7898 12.7042 45.5405 13.3378 48.6507C14.1872 52.8198 16.1889 66.1895 21.2278 69.8708C29.8379 76.1616 44.0446 74.8659 49.3771 68.6858C54.7096 62.5057 54.9198 58.5987 59.5086 53.5183C63.3927 49.2188 68.3883 49.8778 70.2806 47.6851C71.8718 45.841 69.5177 43.0276 68.6207 42.253C67.0258 40.8769 61.1765 39.3938 56.532 44.7764C54.7257 46.8697 52.4934 48.2476 50.3507 46.398C48.2081 44.5483 48.744 40.31 49.7474 36.8741" fill="url(#paint0_linear)"/>
<path d="M19.7509 40.928C18.9473 38.789 17.3876 33.0842 16.0467 29.9901C14.7059 26.8961 12.6578 25.8408 10.1739 27.1551C7.69006 28.4694 9.85186 34.2322 10.2895 35.656C10.9597 37.8357 12.5026 45.3388 13.3378 48.6506" fill="url(#paint1_linear)"/>
<path d="M31.5366 39.9885C31.086 40.2086 29.5745 39.0538 29.1319 35.1332C28.7937 32.1381 28.1508 23.7592 27.2563 19.5178C26.3618 15.2764 25.0413 12.8432 22.4474 12.8228C19.8535 12.8024 18.9578 16.056 19.3046 19.5759C19.733 23.9255 20.4773 28.5885 21.1882 33.0611C21.7439 36.5569 23.2202 44.168 22.3467 44.304" fill="url(#paint2_linear)"/>
<path d="M49.7464 36.8742C50.7497 33.4384 52.8565 21.116 53.6619 17.8545C54.468 14.5929 52.7674 12.6703 50.6527 12.1678C48.5385 11.6652 46.3162 12.9281 44.9846 19.4451C44.1445 23.5566 43.2253 27.1736 42.3994 34.629L46.5863 38.748L49.7464 36.8742Z" fill="url(#paint3_linear)"/>
<path d="M39.5551 35.4312C39.466 34.2245 39.5965 22.4876 39.5563 19.9128C39.4815 15.0879 41.4461 6.58901 35.5239 6.02151C32.41 5.72293 31.7473 8.60986 31.6076 9.88024C31.4679 11.1506 31.4988 25.5235 31.5947 26.8229C31.6905 28.123 31.9872 39.7684 31.5365 39.9884" fill="url(#paint4_linear)"/>
<path d="M31.5939 26.8226C31.6897 28.1227 31.9865 39.7681 31.5358 39.9882C35.4978 39.1029 34.6532 25.7235 34.3756 19.0934C34.1344 13.3443 36.0252 10.1217 34.4621 6.05029C32.2517 6.42306 31.7293 8.76908 31.6075 9.87996C31.4677 11.1503 31.4987 25.5226 31.5939 26.8226Z" fill="url(#paint5_linear)"/>
<path d="M31.2772 40.0189C30.9582 39.9664 30.236 39.0409 29.8311 38.1191C30.0413 38.9247 30.6639 40.0233 31.2772 40.0189Z" fill="url(#paint6_linear)"/>
<path d="M68.4001 43.3669C70.157 44.406 70.2769 44.8121 70.2442 44.3003C69.7416 43.3842 69.0294 42.6059 68.6202 42.253C67.0253 40.877 61.1761 39.394 56.5317 44.7762C54.7254 46.8693 52.4931 48.2471 50.3505 46.3976C49.5061 45.6689 49.0177 44.4486 48.7673 43.0219C48.7667 43.0219 48.7661 43.0219 48.7661 43.0226C48.9336 50.4348 55.2712 49.0569 58.0419 46.7531C60.8126 44.4492 63.2414 40.3169 68.4001 43.3669Z" fill="url(#paint7_linear)"/>
<path d="M49.8473 12.0698C47.9909 12.0698 46.1481 13.7538 44.9846 19.446C44.1445 23.5576 43.2253 27.1746 42.3994 34.6299C42.243 36.0425 41.0826 37.7932 40.572 37.8309C40.6196 37.7895 40.8774 38.0157 41.3979 37.5385C45.6498 33.6408 44.9611 24.4403 46.4331 19.6179C47.6113 15.7548 48.852 14.0938 49.8473 12.0698Z" fill="url(#paint8_linear)"/>
<path d="M31.5942 26.8232C31.69 28.1232 31.9868 39.7688 31.5361 39.9889C33.651 40.183 34.0133 37.9606 33.7364 34.1927C33.1682 26.4708 32.2038 15.9225 33.8421 9.33378C33.9966 8.71126 33.8674 8.03989 33.439 7.56203C32.3262 6.32007 31.7148 8.90784 31.6072 9.87965C31.4681 11.1507 31.499 25.5231 31.5942 26.8232Z" fill="url(#paint9_linear)"/>
<path d="M19.3046 19.5757C19.733 23.9252 20.4773 28.5876 21.1882 33.0608C21.744 36.5567 23.2202 44.1678 22.3467 44.3038C26.9379 43.991 20.0563 25.6834 20.8136 13.374C19.4833 14.4453 19.0444 16.9354 19.3046 19.5757Z" fill="url(#paint10_linear)"/>
<path d="M21.4127 44.3542C21.7601 44.4451 21.9919 44.4228 22.1378 44.3208C21.3762 44.34 20.4885 42.8903 19.751 40.927C18.9474 38.7881 17.3877 33.0836 16.0468 29.9896C15.4577 28.6302 14.7319 27.6652 13.8931 27.1206C14.7357 28.5752 14.0006 28.5517 15.666 32.1897C16.5562 34.1376 19.1538 43.7632 21.4127 44.3542Z" fill="url(#paint11_linear)"/>
<path d="M27.3873 29.1535C27.5944 32.7891 28.7684 39.6293 31.1422 39.9805C30.5964 39.761 29.4756 38.1828 29.1312 35.1327C28.7931 32.1375 28.1502 23.7586 27.2557 19.5172C26.5312 16.0826 25.5272 13.8342 23.7944 13.0918C27.0752 17.6713 27.1914 25.7152 27.3873 29.1535Z" fill="url(#paint12_linear)"/>
<path d="M38.2859 21.9899C38.4572 27.438 37.4007 37.0366 40.4144 37.7982C39.9773 37.606 39.6349 36.5112 39.5557 35.4312C39.4667 34.2245 39.5971 22.4876 39.557 19.9128C39.505 16.5703 40.4311 11.4647 39.0364 8.4541C39.7752 12.264 38.1468 17.5761 38.2859 21.9899Z" fill="url(#paint13_linear)"/>
<path d="M48.7662 43.0225C48.7668 43.0225 48.7668 43.0225 48.7674 43.0225C48.3829 40.8304 49.1389 38.9554 49.7466 36.874C50.7499 33.4381 52.8566 21.1158 53.6621 17.8542C53.9075 16.8601 53.9193 15.9916 53.7585 15.2485C53.3926 16.76 52.3609 18.3426 52.0029 21.3432C51.4286 26.1577 49.3386 33.631 48.6221 36.1983C47.905 38.7662 45.9986 43.2265 48.7662 43.0225Z" fill="url(#paint14_linear)"/>
<path d="M52.415 56.2247C42.0739 68.2089 32.0864 65.6768 28.6801 63.7809C25.2739 61.8843 22.9149 56.8312 21.3329 48.8794L18.7773 40.728C18.0448 41.1719 15.2796 42.9708 12.4841 44.996C12.8019 46.4073 13.0992 47.7024 13.3385 48.6501C14.1879 52.8192 16.1896 66.1887 21.2284 69.87C29.8392 76.1607 44.0453 74.865 49.3778 68.6849C54.7103 62.5049 54.9205 58.598 59.5093 53.5177C63.3934 49.2182 68.389 49.8772 70.2813 47.6845C71.1462 46.6824 70.8426 45.3947 70.2442 44.303C68.2685 48.7305 62.7542 44.243 52.415 56.2247Z" fill="url(#paint15_radial)"/>
</g>
<defs>
<linearGradient id="paint0_linear" x1="22.9064" y1="80.5292" x2="40.877" y2="48.9656" gradientUnits="userSpaceOnUse">
<stop offset="0.00132565" stop-color="#F0C492"/>
<stop offset="1" stop-color="#F8DBBA"/>
</linearGradient>
<linearGradient id="paint1_linear" x1="-3.20876" y1="65.6606" x2="14.7622" y2="34.0969" gradientUnits="userSpaceOnUse">
<stop offset="0.00132565" stop-color="#F0C492"/>
<stop offset="1" stop-color="#F8DBBA"/>
</linearGradient>
<linearGradient id="paint2_linear" x1="2.13218" y1="68.7004" x2="20.1026" y2="37.1371" gradientUnits="userSpaceOnUse">
<stop offset="0.00132565" stop-color="#F0C492"/>
<stop offset="1" stop-color="#F8DBBA"/>
</linearGradient>
<linearGradient id="paint3_linear" x1="18.4089" y1="77.9674" x2="36.3794" y2="46.4043" gradientUnits="userSpaceOnUse">
<stop offset="0.00132565" stop-color="#F0C492"/>
<stop offset="1" stop-color="#F8DBBA"/>
</linearGradient>
<linearGradient id="paint4_linear" x1="7.36703" y1="71.6809" x2="25.3374" y2="40.1175" gradientUnits="userSpaceOnUse">
<stop offset="0.00132565" stop-color="#F0C492"/>
<stop offset="1" stop-color="#F8DBBA"/>
</linearGradient>
<linearGradient id="paint5_linear" x1="39.5611" y1="22.8453" x2="30.8624" y2="23.0758" gradientUnits="userSpaceOnUse">
<stop offset="0.00132565" stop-color="#F0C492"/>
<stop offset="1" stop-color="#F8DBBA"/>
</linearGradient>
<linearGradient id="paint6_linear" x1="38.2239" y1="39.6901" x2="16.669" y2="37.9474" gradientUnits="userSpaceOnUse">
<stop stop-color="#FFBC47" stop-opacity="0"/>
<stop offset="1" stop-color="#FFA754"/>
</linearGradient>
<linearGradient id="paint7_linear" x1="64.5697" y1="33.92" x2="46.9465" y2="68.1314" gradientUnits="userSpaceOnUse">
<stop offset="0.00132565" stop-color="#F0C492"/>
<stop offset="1" stop-color="#F8DBBA"/>
</linearGradient>
<linearGradient id="paint8_linear" x1="48.8333" y1="25.5747" x2="28.7894" y2="22.1189" gradientUnits="userSpaceOnUse">
<stop stop-color="#FFBC47" stop-opacity="0"/>
<stop offset="1" stop-color="#E68E43"/>
</linearGradient>
<linearGradient id="paint9_linear" x1="37.8726" y1="23.6161" x2="25.7166" y2="23.6161" gradientUnits="userSpaceOnUse">
<stop offset="0.00132565" stop-color="#F0C492"/>
<stop offset="1" stop-color="#F8DBBA"/>
</linearGradient>
<linearGradient id="paint10_linear" x1="30.0171" y1="28.2887" x2="6.17213" y2="29.8438" gradientUnits="userSpaceOnUse">
<stop offset="0.00132565" stop-color="#F0C492"/>
<stop offset="1" stop-color="#F8DBBA"/>
</linearGradient>
<linearGradient id="paint11_linear" x1="20.0133" y1="35.122" x2="10.6826" y2="37.9731" gradientUnits="userSpaceOnUse">
<stop stop-color="#FFBC47" stop-opacity="0"/>
<stop offset="1" stop-color="#E68E43"/>
</linearGradient>
<linearGradient id="paint12_linear" x1="31.1296" y1="25.9745" x2="9.18496" y2="29.3439" gradientUnits="userSpaceOnUse">
<stop stop-color="#FFBC47" stop-opacity="0"/>
<stop offset="1" stop-color="#E68E43"/>
</linearGradient>
<linearGradient id="paint13_linear" x1="42.911" y1="22.9752" x2="26.4953" y2="23.7528" gradientUnits="userSpaceOnUse">
<stop stop-color="#FFBC47" stop-opacity="0"/>
<stop offset="1" stop-color="#E68E43"/>
</linearGradient>
<linearGradient id="paint14_linear" x1="58.1749" y1="30.5925" x2="43.8334" y2="27.6552" gradientUnits="userSpaceOnUse">
<stop offset="0.00132565" stop-color="#F0C492"/>
<stop offset="1" stop-color="#F8DBBA"/>
</linearGradient>
<radialGradient id="paint15_radial" cx="0" cy="0" r="1" gradientUnits="userSpaceOnUse" gradientTransform="translate(38.8841 51.1424) rotate(87.0101) scale(62.3441 54.2034)">
<stop offset="0.4114" stop-color="#F0C492" stop-opacity="0"/>
<stop offset="1" stop-color="#E6AF74"/>
</radialGradient>
<clipPath id="clip0">
<rect width="61.8187" height="68" fill="white" transform="translate(9 6)"/>
</clipPath>
</defs>
</svg>
