<svg width="80" height="80" viewBox="0 0 80 80" fill="none" xmlns="http://www.w3.org/2000/svg">
<path d="M52.9534 40.5849C52.5054 38.9871 51.52 38.4893 51.0521 38.34C50.8979 38.2902 50.7983 38.2802 50.7983 38.2802L42.0039 35.0547L29.407 41.5555L32.1991 49.9031C34.9016 49.5049 37.6092 49.4601 40.3266 49.4999C45.1195 49.5696 49.9373 49.8881 54.8247 48.9374C54.8944 46.0205 53.476 42.4515 52.9534 40.5849Z" fill="url(#paint0_linear)"/>
<path d="M19.4083 50.6947C19.4083 52.9943 20.5331 54.0297 21.1005 54.403C21.2896 54.5275 21.4141 54.5772 21.4141 54.5772L31.9354 62.1881L51.1912 58.2408L50.604 46.0554C46.8464 45.5726 43.2181 44.6119 39.6098 43.5367C33.2393 41.6452 26.9285 39.4053 20.0503 38.8428C18.8559 42.7104 19.4083 48.0117 19.4083 50.6947Z" fill="url(#paint1_linear)"/>
<path d="M39.9137 51.0585C44.6568 50.5607 47.6679 54.4383 48.0412 56.4593L49.589 55.8968L48.8823 48.1465L43.8555 44.906L39.0825 39.8337L30.328 39.6446L29.029 35.5728C28.9941 35.5728 28.6657 35.5679 28.6308 35.5679L22.096 36.2349C21.3892 36.4937 20.8816 36.8421 20.6477 37.2951C19.7817 38.9875 19.4482 41.1926 19.3337 43.3878C20.354 45.4386 22.6435 46.5039 24.6442 46.5039C26.9934 46.5039 28.4019 44.7169 29.248 43.2136C29.248 43.2136 29.4022 45.9364 33.1798 46.9718C33.1848 46.9718 35.9918 51.4716 39.9137 51.0585Z" fill="url(#paint2_linear)"/>
<path d="M24.5993 45.5625C21.832 45.5625 19.5426 43.3076 19.1594 39.0816C19.1196 38.6336 18.3431 30.3457 23.0713 30.3457C27.461 30.3457 28.7003 32.0381 28.989 37.6729C29.2776 43.3076 27.461 45.5625 24.5993 45.5625Z" fill="url(#paint3_linear)"/>
<path d="M35.081 46.2194C31.6668 46.2194 29.9547 44.7211 29.4818 40.4453C29.4271 39.9674 26.5305 28.4939 33.2246 28.0508C39.2369 27.6576 39.3513 31.3759 39.3513 37.5781C39.3513 43.7804 38.0224 46.2194 35.081 46.2194Z" fill="url(#paint4_linear)"/>
<path d="M34.8916 40.3012C32.2837 41.6154 30.5269 41.6452 29.4121 39.8483C29.437 40.0524 29.4669 40.2565 29.4868 40.4456C29.9596 44.7215 31.6716 46.2197 35.0857 46.2197C37.4895 46.2197 38.8134 44.587 39.2215 40.6099C38.5446 39.455 36.4295 39.5247 34.8916 40.3012Z" fill="url(#paint5_linear)"/>
<path d="M24.5047 40.1116C22.1754 40.1116 20.2493 38.663 19.9258 35.9502C20.0502 37.0154 19.0797 30.3403 23.2156 30.3403C26.9086 30.3403 27.9538 31.4255 28.1927 35.0443C28.4365 38.6631 26.9136 40.1116 24.5047 40.1116Z" fill="url(#paint6_linear)"/>
<path d="M34.6081 39.8283C29.4072 39.8283 27.6354 28.3696 33.3788 28.0411C38.311 27.7623 38.3109 31.3662 38.4155 34.4275C38.5598 38.8328 37.0219 39.8283 34.6081 39.8283Z" fill="url(#paint7_linear)"/>
<path d="M33.0454 45.9607C33.6476 46.125 34.3146 46.2146 35.086 46.2146C38.0274 46.2146 39.3563 43.7705 39.3563 37.5733C39.3563 31.5951 39.2319 27.9365 33.8417 28.0311C35.962 29.2954 37.694 32.1775 37.694 37.3842C37.689 44.7959 36.0267 45.9507 33.0454 45.9607Z" fill="url(#paint8_linear)"/>
<path d="M24.6241 42.9294C21.812 42.9294 19.4828 40.6895 19 36.5132C19.0199 37.3544 19.0796 38.2205 19.1593 39.0767C19.5425 43.3028 21.832 45.5577 24.5992 45.5577C27.2868 45.5577 29.0238 43.5367 28.9939 38.6337C28.4216 41.6452 26.824 42.9294 24.6241 42.9294Z" fill="url(#paint9_linear)"/>
<path d="M28.9891 37.6677C28.7153 32.2968 27.5706 30.5148 23.6685 30.3555C25.7141 30.689 29.6759 38.5736 24.2209 45.5225C24.3454 45.5324 24.4698 45.5623 24.5992 45.5623C27.4611 45.5623 29.2728 43.3074 28.9891 37.6677Z" fill="url(#paint10_linear)"/>
<path d="M28.8098 35.563C29.0338 37.355 29.2628 39.1768 28.984 40.9937C28.8596 41.8947 28.6357 42.8056 28.1977 43.6269C27.7746 44.4582 27.038 45.1451 26.1471 45.4836C24.3504 46.0759 22.26 45.5234 21.0307 44.1147C19.7466 42.7458 19.2688 40.8643 19.1643 39.0773C19.4082 40.8543 19.9656 42.6612 21.2049 43.9554C22.4044 45.2745 24.3902 45.7275 26.0326 45.1501C27.7348 44.5727 28.5112 42.6811 28.7601 40.9588C29.0388 39.1868 28.8994 37.3699 28.8098 35.563Z" fill="#975500"/>
<path d="M33.737 46.1055C33.1597 46.2897 32.6321 46.0359 32.1493 45.787C31.6615 45.5281 31.2236 45.1797 30.8652 44.7616C30.1385 43.9253 29.7602 42.8751 29.5313 41.8347C29.3223 40.7795 29.2974 39.7292 29.1481 38.6888C29.0187 37.6435 28.9042 36.5933 28.8594 35.543C28.9938 36.5883 29.173 37.6236 29.3472 38.6639C29.5462 39.6993 29.6358 40.7596 29.8797 41.7601C30.1136 42.7606 30.4919 43.7511 31.1638 44.5077C31.4973 44.886 31.8955 45.1996 32.3434 45.4286C32.7914 45.6625 33.2791 45.7223 33.737 46.1055Z" fill="#975500"/>
<path d="M39.9135 51.0579C35.9917 51.4711 33.1846 46.9713 33.1846 46.9713C29.4071 45.9359 29.2528 43.2131 29.2528 43.2131C28.4067 44.7164 26.9982 46.5034 24.6491 46.5034C22.6533 46.5034 20.3589 45.4381 19.3386 43.3873C19.3635 42.9294 19.4033 42.4764 19.4481 42.0234H19.4331C19.3037 43.2629 19.2739 44.5222 19.2788 45.7318C21.2995 48.0464 24.4649 48.375 26.4856 47.7776C27.033 47.6134 29.5912 45.687 31.5621 47.6233C33.7022 49.7289 36.1907 52.4168 40.466 52.3223C44.7412 52.2277 48.036 56.4537 48.036 56.4537C47.6677 54.4378 44.6566 50.5552 39.9135 51.0579Z" fill="url(#paint11_linear)"/>
<path opacity="0.75" d="M59.2741 52.5261C60.0754 51.4459 56.0689 44.7609 52.8737 42.954C49.6785 41.1521 43.3825 42.2223 42.8699 43.4866C42.3573 44.751 48.4243 46.1795 51.2761 48.5639C56.1983 52.6854 58.4728 53.6063 59.2741 52.5261Z" fill="url(#paint12_radial)"/>
<path d="M48.698 35.234C48.7179 34.8407 48.7378 34.4176 48.7528 33.9647C49.0364 26.5429 48.9917 11.5999 49.3301 9.63372C49.6884 7.54807 50.8332 6.00498 53.8294 6.00001C56.8256 5.99503 58.2839 8.80742 57.9355 12.5954C57.5821 16.3835 58.3436 30.54 58.5725 35.3086C58.9259 42.6906 60.1204 54.1343 60.1204 54.1343L49.0066 46.5333L48.698 35.234Z" fill="url(#paint13_linear)"/>
<path d="M58.5724 35.3039C58.3435 30.5353 57.587 16.3787 57.9354 12.5907C58.1643 10.1268 57.6119 8.09087 56.3826 6.96094C57.4277 10.2562 57.0047 15.1492 57.3083 28.131C57.6865 44.3135 59.0204 49.7392 59.0204 49.7392L59.6276 49.1568C59.2593 45.1796 58.7765 39.5698 58.5724 35.3039Z" fill="url(#paint14_linear)"/>
<path d="M50.3653 22.7098C50.1513 15.0741 49.8925 9.80768 50.9377 6.78125C50.0169 7.43333 49.5391 8.43883 49.3351 9.63347C48.9966 11.5997 49.0414 26.5476 48.7577 33.9643C48.7378 34.4173 49.0613 38.7628 48.7279 40.51L48.5686 40.8186L49.5541 40.9381C49.5541 40.9381 50.649 32.9937 50.3653 22.7098Z" fill="url(#paint15_linear)"/>
<path opacity="0.5" d="M51.0075 9.48941C50.3356 8.73777 51.7989 7.36892 53.0531 7.07026C54.3073 6.77159 55.8701 7.13496 56.542 7.8866C57.2139 8.63823 56.1936 9.38489 55.3027 10.0519C53.7698 11.2018 51.6745 10.241 51.0075 9.48941Z" fill="url(#paint16_radial)"/>
<path d="M44.6072 44.2641C41.3772 44.1596 39.6253 42.7808 39.471 38.933C39.2918 34.5576 37.7937 27.9174 43.7412 27.7382C49.4398 27.569 49.0616 31.133 48.8874 36.6732C48.7182 42.2133 47.3893 44.3537 44.6072 44.2641Z" fill="url(#paint17_linear)"/>
<path d="M44.3681 38.2814C41.8597 39.5258 40.1974 39.5009 39.197 37.6592C39.2169 37.8633 39.2368 38.0723 39.2468 38.2615C39.5603 42.587 41.1281 44.15 44.3631 44.2546C46.6376 44.3292 47.9416 42.7215 48.4542 38.7244C47.852 37.5397 45.8513 37.5497 44.3681 38.2814Z" fill="url(#paint18_linear)"/>
<path d="M44.1392 38.5995C41.4864 38.5149 40.496 38.2909 40.1427 35.2246C39.9585 33.6467 39.0079 27.8825 43.8854 27.7431C48.5637 27.6087 48.066 31.4864 48.066 34.5726C48.066 39.0176 46.4236 38.6742 44.1392 38.5995Z" fill="url(#paint19_linear)"/>
<path d="M42.6858 43.9752C43.2482 44.1395 43.8803 44.254 44.6069 44.2639C48.4889 44.3286 48.7179 42.2131 48.8871 36.678C49.0563 31.3419 49.4246 27.8277 44.3182 27.748C46.2891 28.9427 47.4637 31.8098 47.3193 36.459C47.1153 43.0693 45.5127 44.0499 42.6858 43.9752Z" fill="url(#paint20_linear)"/>
<path d="M43.094 44.0996C42.4868 44.2739 41.9592 43.9553 41.4814 43.6566C41.0036 43.3381 40.6104 42.9 40.3218 42.4122C39.7444 41.4316 39.5254 40.3166 39.411 39.2315C39.2218 37.0413 39.4358 34.881 39.1621 32.7207C39.6051 34.8561 39.4359 37.0712 39.7394 39.1917C39.8937 40.2469 40.1077 41.3171 40.6552 42.2081C40.924 42.6511 41.2823 43.0344 41.7054 43.3132C42.1384 43.6168 42.6411 43.6815 43.094 44.0996Z" fill="#975500"/>
<path d="M46.4136 28.0327C46.9859 28.2069 47.5384 28.5106 47.9515 28.9685C48.3546 29.4314 48.6234 30.0088 48.7777 30.5962C49.0962 31.7809 49.126 33.0054 49.141 34.2099C49.1111 35.4145 49.0614 36.6191 48.9966 37.8187C48.9668 38.416 48.9618 39.0183 48.9121 39.6256C48.8822 39.9293 48.8722 40.2329 48.7976 40.5315C48.7329 40.7904 48.6085 41.2384 48.2402 41.2135C48.5388 41.1139 48.5238 40.7555 48.5985 40.4917C48.6383 40.203 48.6781 39.9093 48.6881 39.6107C48.713 39.0134 48.698 38.4161 48.708 37.8088L48.7876 34.205C48.8125 33.0103 48.8324 31.8058 48.5637 30.6509C48.3397 29.4961 47.5682 28.4508 46.4136 28.0327Z" fill="#975500"/>
<path d="M33.1846 43.9297C33.1846 41.4259 34.9564 41.3462 39.6995 40.9231C43.0889 40.6245 46.7768 39.7335 51.4702 41.5503C56.8304 43.6211 61.8672 46.6226 61.9269 52.0085C61.9816 56.8319 58.2339 73.9899 41.8247 73.9899C25.4155 73.9899 19.9059 65.2193 19.4082 50.6894L48.041 56.4535C48.041 56.4535 48.6532 51.3315 45.1444 49.8133C43.6463 49.1662 40.4461 49.6889 38.3209 49.6889C36.1957 49.6889 33.1846 47.3145 33.1846 43.9297Z" fill="url(#paint21_linear)"/>
<path d="M53.5358 63.1284C46.583 68.2006 47.1503 71.018 40.6653 71.018C34.1853 71.018 30.0046 67.5884 27.0433 64.6317C24.0819 61.6749 21.5934 56.742 20.3741 52.9839C20.0854 52.0979 19.747 51.3562 19.4036 50.729C19.9112 65.2389 25.4258 73.9996 41.82 73.9996C58.2292 73.9996 61.9768 56.8366 61.9221 52.0182C61.8972 49.9077 61.1059 48.1705 59.8317 46.707C60.2 53.5862 59.2445 58.9621 53.5358 63.1284Z" fill="url(#paint22_linear)"/>
<path d="M49.7181 51.4461C49.5936 48.4396 45.9007 45.433 42.8299 45.7466C40.1822 46.0154 35.3843 46.3788 33.2393 44.4126C33.513 47.5286 36.3001 49.6889 38.3208 49.6889C40.4509 49.6889 43.6511 49.1663 45.1442 49.8134C48.653 51.3316 48.0408 56.4536 48.0408 56.4536C48.0408 56.4536 49.8425 54.4526 49.7181 51.4461Z" fill="url(#paint23_linear)"/>
<path d="M61.9269 52.0137C61.8622 46.6279 56.8304 43.6264 51.4702 41.5557C46.7719 39.7389 43.089 40.6299 39.6997 40.9285C36.0814 41.2521 34.2051 41.3815 33.5083 42.5313C37.9677 41.4313 42.1384 40.9783 47.2896 41.5706C53.9985 42.3372 59.0701 46.4736 59.9908 49.6344C60.9016 52.7604 60.7672 58.5792 60.7672 58.7186C61.6282 55.9162 61.9468 53.4274 61.9269 52.0137Z" fill="url(#paint24_linear)"/>
<path d="M48.0411 56.4585C48.1257 55.239 48.0262 53.9946 47.638 52.8397C47.2647 51.6949 46.5281 50.6147 45.4431 50.0771C44.388 49.4848 43.0989 49.5943 41.8994 49.6192C40.6801 49.6689 39.4657 49.8133 38.2214 49.8033C35.6732 49.5793 33.6028 47.4091 33.1349 44.96C33.0205 44.3428 32.9906 43.7106 33.115 43.0735C33.2494 42.4314 33.7371 41.854 34.3344 41.615C35.5189 41.1073 36.7682 41.0525 37.9825 40.9032C40.4312 40.7539 42.8401 40.3158 45.3137 40.2959C47.7873 40.2611 50.2509 40.8335 52.4955 41.834C54.7501 42.7898 56.9748 43.9197 58.8313 45.5573C60.6827 47.1701 61.9668 49.5296 61.927 52.0084C61.9071 49.5246 60.5832 47.2348 58.7168 45.6868C56.8703 44.0889 54.6555 42.9839 52.4059 42.0531C50.1663 41.0774 47.7524 40.5398 45.3187 40.5896C42.8899 40.6195 40.4611 41.0824 38.0174 41.2516C36.8129 41.3811 35.5587 41.4458 34.4738 41.9037C33.9263 42.1277 33.548 42.5807 33.4136 43.1432C33.2942 43.7056 33.3141 44.3229 33.4186 44.9053C33.8267 47.2298 35.8374 49.3504 38.2214 49.5694C39.4308 49.5893 40.6552 49.4549 41.8845 49.4151C43.089 49.4051 44.4029 49.2857 45.5227 49.9228C46.6376 50.5102 47.3642 51.6451 47.7126 52.8099C48.0859 53.9896 48.1556 55.2439 48.0411 56.4585Z" fill="#975500"/>
<path opacity="0.5" d="M22.4294 51.192C20.9214 53.0038 25.5052 63.452 30.0243 66.0853C34.5434 68.7185 40.2122 67.9071 41.3171 65.8165C42.422 63.7258 37.7237 60.4754 33.8765 56.8765C27.2421 50.6643 23.9374 49.3801 22.4294 51.192Z" fill="url(#paint25_radial)"/>
<path d="M36.0564 28.2505C36.6337 28.3998 37.2011 28.6387 37.6739 29.022C38.1517 29.4103 38.4852 29.9429 38.729 30.4954C39.2217 31.6154 39.3561 32.8399 39.4557 34.0345C39.5104 35.2341 39.5154 36.4338 39.4905 37.6284C39.4805 38.2207 39.4955 38.823 39.4656 39.4253C39.4457 39.724 39.4407 40.0276 39.371 40.3312C39.3163 40.5951 39.1769 41.0381 38.8136 41.0082C39.1122 40.9037 39.1023 40.5602 39.172 40.2964C39.2068 40.0077 39.2416 39.714 39.2416 39.4203C39.2516 38.828 39.2168 38.2357 39.2018 37.6334C39.167 36.4387 39.1819 35.2441 39.1023 34.0594C39.0376 32.8797 38.958 31.6801 38.525 30.585C38.1417 29.47 37.2011 28.6139 36.0564 28.2505Z" fill="#975500"/>
<defs>
<linearGradient id="paint0_linear" x1="52.2578" y1="40.9084" x2="24.6749" y2="48.6731" gradientUnits="userSpaceOnUse">
<stop offset="0.00132565" stop-color="#FFCB4B"/>
<stop offset="1" stop-color="#FFD748"/>
</linearGradient>
<linearGradient id="paint1_linear" x1="20.4852" y1="50.5174" x2="60.2111" y2="50.5174" gradientUnits="userSpaceOnUse">
<stop offset="0.00132565" stop-color="#D2A374"/>
<stop offset="1" stop-color="#DEBA94"/>
</linearGradient>
<linearGradient id="paint2_linear" x1="34.468" y1="72.489" x2="34.468" y2="42.2983" gradientUnits="userSpaceOnUse">
<stop stop-color="#D2A374" stop-opacity="0"/>
<stop offset="1" stop-color="#B88653"/>
</linearGradient>
<linearGradient id="paint3_linear" x1="24.053" y1="36.6357" x2="24.053" y2="54.0411" gradientUnits="userSpaceOnUse">
<stop offset="0.00132565" stop-color="#D2A374"/>
<stop offset="1" stop-color="#DEBA94"/>
</linearGradient>
<linearGradient id="paint4_linear" x1="34.0839" y1="36.6355" x2="34.0839" y2="54.0409" gradientUnits="userSpaceOnUse">
<stop offset="0.00132565" stop-color="#D2A374"/>
<stop offset="1" stop-color="#DEBA94"/>
</linearGradient>
<linearGradient id="paint5_linear" x1="34.3129" y1="36.2016" x2="34.3129" y2="59.2656" gradientUnits="userSpaceOnUse">
<stop stop-color="#D2A374" stop-opacity="0"/>
<stop offset="1" stop-color="#B88653"/>
</linearGradient>
<linearGradient id="paint6_linear" x1="24.0671" y1="39.1718" x2="24.0671" y2="25.8103" gradientUnits="userSpaceOnUse">
<stop offset="0.00132565" stop-color="#D2A374"/>
<stop offset="1" stop-color="#DEBA94"/>
</linearGradient>
<linearGradient id="paint7_linear" x1="34.1188" y1="39.1723" x2="34.1188" y2="25.8108" gradientUnits="userSpaceOnUse">
<stop offset="0.00132565" stop-color="#D2A374"/>
<stop offset="1" stop-color="#DEBA94"/>
</linearGradient>
<linearGradient id="paint8_linear" x1="27.3336" y1="32.9422" x2="70.2459" y2="57.3167" gradientUnits="userSpaceOnUse">
<stop stop-color="#D2A374" stop-opacity="0"/>
<stop offset="1" stop-color="#B88653"/>
</linearGradient>
<linearGradient id="paint9_linear" x1="23.9038" y1="36.1951" x2="25.0947" y2="55.9354" gradientUnits="userSpaceOnUse">
<stop stop-color="#D2A374" stop-opacity="0"/>
<stop offset="1" stop-color="#B88653"/>
</linearGradient>
<linearGradient id="paint10_linear" x1="13.4683" y1="30.7027" x2="79.6949" y2="72.7512" gradientUnits="userSpaceOnUse">
<stop stop-color="#D2A374" stop-opacity="0"/>
<stop offset="1" stop-color="#B88653"/>
</linearGradient>
<linearGradient id="paint11_linear" x1="30.8718" y1="57.9924" x2="39.9855" y2="30.1852" gradientUnits="userSpaceOnUse">
<stop stop-color="#D2A374" stop-opacity="0"/>
<stop offset="1" stop-color="#B88653"/>
</linearGradient>
<radialGradient id="paint12_radial" cx="0" cy="0" r="1" gradientUnits="userSpaceOnUse" gradientTransform="translate(51.5859 46.0266) rotate(38.2193) scale(10.1507 3.73759)">
<stop stop-color="#FBE07A"/>
<stop offset="0.2654" stop-color="#FCDF73" stop-opacity="0.7346"/>
<stop offset="0.6548" stop-color="#FDDB5F" stop-opacity="0.3452"/>
<stop offset="1" stop-color="#FFD748" stop-opacity="0"/>
</radialGradient>
<linearGradient id="paint13_linear" x1="54.4095" y1="59.9497" x2="54.4095" y2="29.9555" gradientUnits="userSpaceOnUse">
<stop offset="0.00132565" stop-color="#D2A374"/>
<stop offset="1" stop-color="#DEBA94"/>
</linearGradient>
<linearGradient id="paint14_linear" x1="54.3893" y1="-31.7736" x2="71.0368" y2="239.154" gradientUnits="userSpaceOnUse">
<stop stop-color="#D2A374" stop-opacity="0"/>
<stop offset="1" stop-color="#B88653"/>
</linearGradient>
<linearGradient id="paint15_linear" x1="46.3688" y1="-31.2811" x2="63.0161" y2="239.646" gradientUnits="userSpaceOnUse">
<stop stop-color="#D2A374" stop-opacity="0"/>
<stop offset="1" stop-color="#B88653"/>
</linearGradient>
<radialGradient id="paint16_radial" cx="0" cy="0" r="1" gradientUnits="userSpaceOnUse" gradientTransform="translate(53.8589 8.74493) rotate(166.543) scale(2.93261 1.55259)">
<stop stop-color="#E9CDB1"/>
<stop offset="1" stop-color="#E9CDB1" stop-opacity="0"/>
</radialGradient>
<linearGradient id="paint17_linear" x1="44.028" y1="35.5519" x2="43.5258" y2="51.3357" gradientUnits="userSpaceOnUse">
<stop offset="0.00132565" stop-color="#D2A374"/>
<stop offset="1" stop-color="#DEBA94"/>
</linearGradient>
<linearGradient id="paint18_linear" x1="43.9634" y1="34.1412" x2="43.2237" y2="57.3906" gradientUnits="userSpaceOnUse">
<stop stop-color="#D2A374" stop-opacity="0"/>
<stop offset="1" stop-color="#B88653"/>
</linearGradient>
<linearGradient id="paint19_linear" x1="43.8796" y1="37.9948" x2="44.2706" y2="25.704" gradientUnits="userSpaceOnUse">
<stop offset="0.00132565" stop-color="#D2A374"/>
<stop offset="1" stop-color="#DEBA94"/>
</linearGradient>
<linearGradient id="paint20_linear" x1="38.1906" y1="32.0696" x2="77.1493" y2="55.8662" gradientUnits="userSpaceOnUse">
<stop stop-color="#D2A374" stop-opacity="0"/>
<stop offset="1" stop-color="#B88653"/>
</linearGradient>
<linearGradient id="paint21_linear" x1="20.4851" y1="57.2183" x2="60.2114" y2="57.2183" gradientUnits="userSpaceOnUse">
<stop offset="0.00132565" stop-color="#D2A374"/>
<stop offset="1" stop-color="#DEBA94"/>
</linearGradient>
<linearGradient id="paint22_linear" x1="40.6694" y1="41.8641" x2="40.6694" y2="147.175" gradientUnits="userSpaceOnUse">
<stop stop-color="#D2A374" stop-opacity="0"/>
<stop offset="1" stop-color="#B88653"/>
</linearGradient>
<linearGradient id="paint23_linear" x1="33.2374" y1="50.4369" x2="49.7229" y2="50.4369" gradientUnits="userSpaceOnUse">
<stop stop-color="#D2A374" stop-opacity="0"/>
<stop offset="1" stop-color="#B88653"/>
</linearGradient>
<linearGradient id="paint24_linear" x1="49.9577" y1="36.9523" x2="43.4433" y2="69.3943" gradientUnits="userSpaceOnUse">
<stop offset="0.3118" stop-color="#F0C492" stop-opacity="0"/>
<stop offset="1" stop-color="#E6AF74"/>
</linearGradient>
<radialGradient id="paint25_radial" cx="0" cy="0" r="1" gradientUnits="userSpaceOnUse" gradientTransform="translate(31.378 60.2113) rotate(-138.963) scale(13.1642 6.00669)">
<stop stop-color="#E9CDB1"/>
<stop offset="1" stop-color="#E9CDB1" stop-opacity="0"/>
</radialGradient>
</defs>
</svg>
