<svg width="80" height="80" viewBox="0 0 80 80" fill="none" xmlns="http://www.w3.org/2000/svg">
<path d="M52.9511 40.5938C52.5004 38.9961 51.5139 38.5003 51.0532 38.35C50.898 38.2999 50.8028 38.2899 50.8028 38.2899L42.0096 35.0645L29.4106 41.5704L32.1998 49.9145C34.9039 49.5138 37.613 49.4738 40.3271 49.5138C45.1193 49.584 49.9415 49.9045 54.8289 48.9479C54.899 46.0329 53.4769 42.4569 52.9511 40.5938Z" fill="url(#paint0_linear)"/>
<path d="M19.4105 50.7052C19.4105 53.0091 20.5373 54.0409 21.1031 54.4115C21.2934 54.5367 21.4186 54.5868 21.4186 54.5868L31.9394 62.1947L51.1934 58.248L50.6025 46.0624C46.8418 45.5815 43.2164 44.6199 39.6059 43.5431C36.3561 42.5764 33.1212 41.5197 29.8162 40.6432C29.7161 40.6181 29.6159 40.5881 29.5158 40.563C29.4156 40.538 29.1802 37.4979 29.0801 37.4728C28.9799 37.4478 29.02 40.4328 28.9198 40.4078C26.0355 39.6765 23.0961 39.0956 20.0465 38.8451C18.8597 42.7167 19.4105 48.0157 19.4105 50.7052Z" fill="url(#paint1_linear)"/>
<path d="M39.9164 51.0658C44.6586 50.565 47.6681 54.4465 48.0437 56.4699L49.596 55.904L48.89 48.1509L43.8624 44.9104L39.3656 39.2309L30.337 39.6516L29.0351 35.5797C29 35.5797 28.6745 35.5747 28.6395 35.5747L22.1046 36.2408C21.3986 36.5013 20.8878 36.8469 20.6574 37.2976C19.7911 38.9905 19.4556 41.1942 19.3405 43.3879C20.362 45.4363 22.6504 46.5031 24.6484 46.5031C26.997 46.5031 28.4041 44.7201 29.2504 43.2126C29.2504 43.2126 29.4056 45.9372 33.1813 46.9689C33.1863 46.9789 35.9905 51.4765 39.9164 51.0658Z" fill="url(#paint2_linear)"/>
<path d="M24.5984 45.5663C21.8292 45.5663 19.5408 43.3125 19.1602 39.0854C19.1202 38.6347 18.344 30.3457 23.0711 30.3457C27.4577 30.3457 28.6996 32.0386 28.985 37.673C29.2755 43.3125 27.4627 45.5663 24.5984 45.5663Z" fill="url(#paint3_linear)"/>
<path d="M35.0842 46.2274C31.6691 46.2274 29.9615 44.7249 29.4858 40.4527C29.4307 39.9719 26.5363 28.5026 33.2264 28.0619C39.2405 27.6662 39.3557 31.3875 39.3557 37.5879C39.3557 43.7883 38.0237 46.2274 35.0842 46.2274Z" fill="url(#paint4_linear)"/>
<path d="M34.894 40.3074C32.2851 41.6246 30.5274 41.6496 29.4157 39.8566C29.4407 40.057 29.4708 40.2623 29.4908 40.4527C29.9665 44.7299 31.6741 46.2274 35.0893 46.2274C37.4929 46.2274 38.82 44.5946 39.2256 40.6179C38.5445 39.461 36.4313 39.5311 34.894 40.3074Z" fill="url(#paint5_linear)"/>
<path d="M24.5084 40.1173C22.1799 40.1173 20.252 38.6698 19.9315 35.9552C20.0567 37.017 19.0852 30.3457 23.2214 30.3457C26.917 30.3457 27.9585 31.4325 28.1989 35.0487C28.4392 38.6698 26.917 40.1173 24.5084 40.1173Z" fill="url(#paint6_linear)"/>
<path d="M34.6085 39.8369C29.4107 39.8369 27.638 28.3777 33.3766 28.0471C38.309 27.7667 38.309 31.3727 38.4142 34.4328C38.5644 38.8402 37.0221 39.8369 34.6085 39.8369Z" fill="url(#paint7_linear)"/>
<path d="M33.0461 45.9721C33.647 46.1374 34.318 46.2276 35.0842 46.2276C38.0236 46.2276 39.3556 43.7834 39.3556 37.583C39.3556 31.6079 39.2354 27.9467 33.8423 28.0419C35.9605 29.309 37.6931 32.1889 37.6931 37.3926C37.6931 44.8002 36.0306 45.9571 33.0461 45.9721Z" fill="url(#paint8_linear)"/>
<path d="M24.6235 42.9373C21.8093 42.9373 19.4807 40.6985 19 36.5215C19.02 37.3629 19.0801 38.2293 19.1602 39.0858C19.5408 43.3129 21.8343 45.5667 24.5985 45.5667C27.2826 45.5667 29.0202 43.5433 28.9951 38.6451C28.4243 41.6551 26.8269 42.9373 24.6235 42.9373Z" fill="url(#paint9_linear)"/>
<path d="M28.9901 37.6785C28.7197 32.3095 27.5729 30.5215 23.672 30.3662C25.7151 30.7018 29.6811 38.5851 24.2228 45.5317C24.348 45.5418 24.4732 45.5718 24.5984 45.5718C27.4628 45.5668 29.2755 43.313 28.9901 37.6785Z" fill="url(#paint10_linear)"/>
<path d="M28.8098 35.5698C29.0352 37.3578 29.2605 39.1859 28.9851 40.999C28.8599 41.9005 28.6396 42.807 28.1989 43.6284C27.7783 44.4598 27.0371 45.146 26.1458 45.4865C24.3481 46.0775 22.2599 45.5266 21.0281 44.1192C19.7461 42.7519 19.2654 40.8687 19.1602 39.0807C19.4056 40.8587 19.9614 42.6668 21.1983 43.959C22.4001 45.2762 24.3881 45.7269 26.0256 45.156C27.7282 44.58 28.5044 42.6918 28.7548 40.9639C29.0402 39.1909 28.9 37.3779 28.8098 35.5698Z" fill="#663C1D"/>
<path d="M33.7372 46.1125C33.1613 46.2978 32.6355 46.0424 32.1498 45.797C31.6641 45.5416 31.2234 45.191 30.8679 44.7703C30.1418 43.9338 29.7662 42.8821 29.5359 41.8453C29.3306 40.7885 29.3005 39.7418 29.1503 38.7C29.0201 37.6532 28.9049 36.6065 28.8599 35.5547C28.9951 36.6015 29.1753 37.6332 29.3456 38.675C29.5459 39.7067 29.636 40.7735 29.8814 41.7752C30.1167 42.7769 30.4923 43.7636 31.1633 44.5198C31.4938 44.8955 31.8944 45.211 32.3401 45.4364C32.7908 45.6718 33.2815 45.7319 33.7372 46.1125Z" fill="#663C1D"/>
<path d="M39.9166 51.0663C35.9906 51.482 33.1864 46.9794 33.1864 46.9794C29.4107 45.9477 29.2555 43.2231 29.2555 43.2231C28.4092 44.7256 27.0021 46.5136 24.6535 46.5136C22.6555 46.5136 20.3621 45.4519 19.3455 43.3984C19.3706 42.9427 19.4106 42.4869 19.4557 42.0361H19.4407C19.3155 43.2732 19.2804 44.5353 19.2904 45.7473C21.3085 48.0612 24.4783 48.3918 26.4963 47.7958C27.0421 47.6355 29.601 45.7023 31.574 47.6455C33.7122 49.749 36.201 52.4386 40.4774 52.3434C44.7539 52.2482 48.0488 56.4753 48.0488 56.4753C47.6682 54.4469 44.6587 50.5654 39.9166 51.0663Z" fill="url(#paint11_linear)"/>
<path opacity="0.75" d="M59.2757 52.5391C60.0769 51.4623 56.0709 44.7709 52.876 42.9679C49.6812 41.1648 43.3867 42.2366 42.8709 43.5038C42.3602 44.7709 48.4243 46.1984 51.2736 48.5824C56.2011 52.6944 58.4745 53.616 59.2757 52.5391Z" fill="url(#paint12_radial)"/>
<path d="M48.6997 35.2443C48.7197 34.8537 48.7398 34.4279 48.7548 33.9722C49.0402 26.5547 48.9952 11.6045 49.3307 9.63614C49.6862 7.54762 50.833 6.00502 53.8275 6.00001C56.822 5.995 58.2843 8.80474 57.9337 12.5961C57.5832 16.3825 58.3393 30.5414 58.5697 35.3094C58.9252 42.6919 60.117 54.1362 60.117 54.1362L48.7648 46.5534L48.6997 35.2443Z" fill="url(#paint13_linear)"/>
<path d="M58.5745 35.3144C58.3442 30.5464 57.588 16.3875 57.9386 12.6012C58.1689 10.137 57.6181 8.10359 56.3862 6.97168C57.4328 10.2672 57.0072 15.1605 57.3126 28.1424C57.6932 44.3246 59.0252 49.7538 59.0252 49.7538L59.6311 49.1728C59.2606 45.1861 58.7748 39.5766 58.5745 35.3144Z" fill="url(#paint14_radial)"/>
<path d="M50.3672 22.718C50.1569 15.0851 49.8915 9.81624 50.9381 6.78613C50.0167 7.43723 49.536 8.44392 49.3357 9.63593C49.0002 11.6042 49.0402 26.5494 48.7598 33.9719C48.7448 34.4277 49.0653 38.77 48.7298 40.518L48.5745 40.8285L49.561 40.9437C49.556 40.9487 50.6526 33.0003 50.3672 22.718Z" fill="url(#paint15_radial)"/>
<path opacity="0.16" d="M51.0082 9.49582C50.3372 8.74458 51.7994 7.37732 53.0513 7.07682C54.3082 6.77633 55.8705 7.14194 56.5365 7.89318C57.2075 8.64442 56.186 9.39565 55.2996 10.0617C53.7724 11.2086 51.6792 10.2471 51.0082 9.49582Z" fill="url(#paint16_radial)"/>
<path d="M44.6093 44.2697C41.3794 44.1646 39.6318 42.7873 39.4715 38.9408C39.2963 34.5685 37.794 27.9274 43.743 27.7471C49.4416 27.5768 48.8407 31.1427 48.8908 36.682C48.9509 42.8724 47.3935 44.3599 44.6093 44.2697Z" fill="url(#paint17_linear)"/>
<path d="M44.7437 38.3496C42.2349 39.5967 40.5724 39.5716 39.5709 37.7285C39.591 37.9339 39.611 38.1392 39.621 38.3295C39.9365 42.6568 41.5038 44.2194 44.7337 44.3246C47.0071 44.3997 48.3141 42.792 48.8249 38.7953C48.229 37.6083 46.226 37.6184 44.7437 38.3496Z" fill="url(#paint18_linear)"/>
<path d="M44.1378 38.6049C41.4839 38.5198 40.4974 38.2944 40.1419 35.2292C39.9616 33.6516 39.0052 27.8868 43.8824 27.7466C48.5594 27.6114 48.0637 31.4879 48.0637 34.5781C48.0687 39.0257 46.4212 38.6801 44.1378 38.6049Z" fill="url(#paint19_linear)"/>
<path d="M42.6857 43.9794C43.2515 44.1447 43.8825 44.2548 44.6086 44.2699C48.4894 44.335 48.7197 42.2164 48.89 36.682C49.0553 31.343 49.4258 27.8321 44.3231 27.752C46.2961 28.949 47.4678 31.8138 47.3226 36.4617C47.1173 43.0779 45.5099 44.0595 42.6857 43.9794Z" fill="url(#paint20_linear)"/>
<path d="M43.0963 44.105C42.4904 44.2803 41.9596 43.9648 41.4838 43.6593C41.0081 43.3387 40.6125 42.903 40.3271 42.4121C39.7512 41.4305 39.5309 40.3186 39.4157 39.2317C39.2254 37.043 39.4408 34.8794 39.1703 32.7207C39.611 34.8543 39.4408 37.0681 39.7462 39.1917C39.9015 40.2485 40.1168 41.3203 40.6626 42.2068C40.933 42.6475 41.2885 43.0332 41.7142 43.3137C42.1398 43.6242 42.6456 43.6893 43.0963 44.105Z" fill="#663C1D"/>
<path d="M46.4164 28.0425C46.9922 28.2178 47.538 28.5183 47.9536 28.9791C48.3592 29.4398 48.6296 30.0158 48.7798 30.6068C49.1003 31.7888 49.1303 33.0158 49.1453 34.2229C49.1153 35.4299 49.0652 36.6319 49.0001 37.8289C48.9701 38.4249 48.9651 39.031 48.92 39.632C48.89 39.9325 48.8799 40.238 48.8048 40.5385C48.7397 40.7989 48.6196 41.2497 48.249 41.2197C48.5495 41.1195 48.5344 40.7639 48.6045 40.4985C48.6446 40.208 48.6847 39.9125 48.6947 39.617C48.7197 39.021 48.7047 38.42 48.7147 37.8189L48.7948 34.2179C48.8199 33.0259 48.8399 31.8188 48.5745 30.6619C48.3391 29.4999 47.5731 28.4532 46.4164 28.0425Z" fill="#663C1D"/>
<path d="M33.1864 43.9387C33.1864 41.4345 34.9591 41.3544 39.7012 40.9337C43.0913 40.6332 46.7769 39.7417 51.474 41.5597C56.832 43.6332 61.8696 46.6333 61.9297 52.0174C61.9848 56.8405 58.2341 73.9994 41.8294 73.9994C25.4247 73.9994 19.9114 65.2296 19.4106 50.7001L48.0438 56.4649C48.0438 56.4649 48.6547 51.3462 45.1494 49.8237C43.6522 49.1776 40.4524 49.6985 38.3241 49.6985C36.1909 49.7035 33.1864 47.3245 33.1864 43.9387Z" fill="url(#paint21_linear)"/>
<path d="M53.537 63.1368C46.5865 68.2104 47.1524 71.0301 40.6676 71.0301C34.1829 71.0301 30.0066 67.5993 27.0471 64.6393C24.0876 61.6793 21.5989 56.746 20.3771 52.9897C20.0866 52.1032 19.7511 51.3619 19.4056 50.7309C19.9113 65.2453 25.4247 74.0001 41.8244 74.0001C58.2291 74.0001 61.9797 56.8362 61.9247 52.0181C61.8996 49.9095 61.1084 48.1716 59.8365 46.7041C60.2021 53.5957 59.2506 58.9698 53.537 63.1368Z" fill="url(#paint22_radial)"/>
<path d="M49.7162 51.4566C49.591 48.4516 45.8955 45.4415 42.8259 45.7571C40.1769 46.0275 35.3797 46.3881 33.2365 44.4248C33.5119 47.5401 36.2961 49.7037 38.3191 49.7037C40.4473 49.7037 43.6471 49.1828 45.1443 49.8289C48.6496 51.3465 48.0387 56.4701 48.0387 56.4701C48.0387 56.4701 49.8414 54.4617 49.7162 51.4566Z" fill="url(#paint23_linear)"/>
<path d="M61.9297 52.0174C61.8696 46.6283 56.832 43.6282 51.474 41.5597C46.7769 39.7417 43.0913 40.6332 39.7012 40.9337C36.0857 41.2542 34.2029 41.3844 33.5118 42.5364C37.9686 41.4345 42.1449 40.9838 47.2926 41.5748C53.9978 42.3411 59.0704 46.478 59.9918 49.6384C60.9032 52.7636 60.768 58.5834 60.768 58.7236C61.6293 55.9239 61.9448 53.4347 61.9297 52.0174Z" fill="url(#paint24_linear)"/>
<path d="M48.0438 56.4648C48.1289 55.2478 48.0287 54.0007 47.6381 52.8437C47.2676 51.6968 46.5315 50.62 45.4448 50.0791C44.3882 49.4881 43.0963 49.5982 41.8995 49.6233C40.6776 49.6734 39.4658 49.8186 38.2239 49.8086C35.6751 49.5832 33.602 47.4146 33.1413 44.9604C33.0261 44.3444 32.9961 43.7083 33.1213 43.0722C33.2565 42.4312 33.7422 41.8502 34.3431 41.6098C35.5299 41.1039 36.7768 41.0438 37.9886 40.8986C40.4373 40.7483 42.8459 40.3076 45.3196 40.2925C47.7934 40.2575 50.2571 40.8285 52.5005 41.8301C54.7539 42.7868 56.9822 43.9137 58.835 45.5514C60.6878 47.1641 61.9698 49.5231 61.9297 52.0023C61.9097 49.5181 60.5827 47.2293 58.7199 45.6816C56.8771 44.0839 54.6587 42.9821 52.4103 42.0455C50.172 41.0689 47.7583 40.5329 45.3196 40.583C42.891 40.6131 40.4573 41.0739 38.0186 41.2441C36.8118 41.3744 35.5599 41.4395 34.4783 41.8952C33.9325 42.1156 33.5519 42.5714 33.4217 43.1323C33.3015 43.6983 33.3215 44.3143 33.4267 44.8953C33.8323 47.2192 35.8454 49.3428 38.229 49.5582C39.4358 49.5782 40.6626 49.443 41.8895 49.4029C43.0963 49.3929 44.4083 49.2727 45.5249 49.9138C46.6416 50.5048 47.3677 51.6367 47.7183 52.8036C48.0888 54.0007 48.1539 55.2528 48.0438 56.4648Z" fill="#663C1D"/>
<path opacity="0.16" d="M22.4302 51.201C20.9229 53.014 25.5048 63.4616 30.0266 66.0911C34.5484 68.7205 40.212 67.9141 41.3186 65.8256C42.4253 63.7371 37.7232 60.4866 33.8774 56.8856C27.2474 50.6751 23.9375 49.3879 22.4302 51.201Z" fill="url(#paint25_radial)"/>
<path d="M36.0607 28.2578C36.6365 28.4031 37.2024 28.6435 37.6781 29.0291C38.1538 29.4148 38.4893 29.9507 38.7346 30.5066C39.2254 31.6285 39.3606 32.8506 39.4657 34.0426C39.5208 35.2446 39.5258 36.4416 39.5008 37.6337C39.4908 38.2297 39.5058 38.8257 39.4757 39.4267C39.4557 39.7272 39.4507 40.0327 39.3856 40.3332C39.3305 40.5987 39.1953 41.0394 38.8298 41.0094C39.1302 40.9042 39.1202 40.5636 39.1853 40.2982C39.2204 40.0127 39.2554 39.7172 39.2554 39.4217C39.2654 38.8307 39.2304 38.2347 39.2154 37.6337C39.1803 36.4416 39.1953 35.2446 39.1152 34.0626C39.0501 32.8856 38.97 31.6836 38.5393 30.5868C38.1438 29.4749 37.2024 28.6184 36.0607 28.2578Z" fill="#663C1D"/>
<defs>
<linearGradient id="paint0_linear" x1="52.2567" y1="40.9171" x2="24.6739" y2="48.6813" gradientUnits="userSpaceOnUse">
<stop offset="0.00132565" stop-color="#BE8D68"/>
<stop offset="1" stop-color="#CD9870"/>
</linearGradient>
<linearGradient id="paint1_linear" x1="20.4867" y1="49.8375" x2="60.2128" y2="49.8375" gradientUnits="userSpaceOnUse">
<stop offset="0.00132565" stop-color="#99643E"/>
<stop offset="1" stop-color="#AE7246"/>
</linearGradient>
<linearGradient id="paint2_linear" x1="29.1977" y1="63.2554" x2="39.7685" y2="33.3789" gradientUnits="userSpaceOnUse">
<stop stop-color="#473226" stop-opacity="0"/>
<stop offset="1" stop-color="#3D2A20"/>
</linearGradient>
<linearGradient id="paint3_linear" x1="24.0547" y1="36.6428" x2="24.0547" y2="54.0489" gradientUnits="userSpaceOnUse">
<stop offset="0.00132565" stop-color="#99643E"/>
<stop offset="1" stop-color="#AE7246"/>
</linearGradient>
<linearGradient id="paint4_linear" x1="34.0854" y1="36.6429" x2="34.0854" y2="54.0488" gradientUnits="userSpaceOnUse">
<stop offset="0.00132565" stop-color="#99643E"/>
<stop offset="1" stop-color="#AE7246"/>
</linearGradient>
<linearGradient id="paint5_linear" x1="34.3147" y1="36.2085" x2="34.3147" y2="59.2734" gradientUnits="userSpaceOnUse">
<stop stop-color="#8D562E" stop-opacity="0"/>
<stop offset="1" stop-color="#804B24"/>
</linearGradient>
<linearGradient id="paint6_linear" x1="24.0689" y1="39.1796" x2="24.0689" y2="25.8174" gradientUnits="userSpaceOnUse">
<stop offset="0.00132565" stop-color="#99643E"/>
<stop offset="1" stop-color="#AE7246"/>
</linearGradient>
<linearGradient id="paint7_linear" x1="34.1204" y1="39.1797" x2="34.1204" y2="25.8178" gradientUnits="userSpaceOnUse">
<stop offset="0.00132565" stop-color="#99643E"/>
<stop offset="1" stop-color="#AE7246"/>
</linearGradient>
<linearGradient id="paint8_linear" x1="27.3352" y1="32.9493" x2="70.2482" y2="57.3228" gradientUnits="userSpaceOnUse">
<stop stop-color="#8D562E" stop-opacity="0"/>
<stop offset="1" stop-color="#804B24"/>
</linearGradient>
<linearGradient id="paint9_linear" x1="23.9056" y1="36.2025" x2="25.0966" y2="55.9435" gradientUnits="userSpaceOnUse">
<stop stop-color="#8D562E" stop-opacity="0"/>
<stop offset="1" stop-color="#804B24"/>
</linearGradient>
<linearGradient id="paint10_linear" x1="13.4703" y1="30.7103" x2="79.6978" y2="72.7569" gradientUnits="userSpaceOnUse">
<stop stop-color="#8D562E" stop-opacity="0"/>
<stop offset="1" stop-color="#804B24"/>
</linearGradient>
<linearGradient id="paint11_linear" x1="30.8735" y1="58.0009" x2="39.9877" y2="30.193" gradientUnits="userSpaceOnUse">
<stop stop-color="#A46C3F" stop-opacity="0"/>
<stop offset="1" stop-color="#804B24"/>
</linearGradient>
<radialGradient id="paint12_radial" cx="0" cy="0" r="1" gradientUnits="userSpaceOnUse" gradientTransform="translate(51.5691 46.0234) rotate(38.2208) scale(10.1509 3.73775)">
<stop stop-color="#FBE07A"/>
<stop offset="0.2654" stop-color="#FCDF73" stop-opacity="0.7346"/>
<stop offset="0.6548" stop-color="#FDDB5F" stop-opacity="0.3452"/>
<stop offset="1" stop-color="#FFD748" stop-opacity="0"/>
</radialGradient>
<linearGradient id="paint13_linear" x1="54.411" y1="59.958" x2="54.411" y2="29.9626" gradientUnits="userSpaceOnUse">
<stop offset="0.00132565" stop-color="#99643E"/>
<stop offset="1" stop-color="#AE7246"/>
</linearGradient>
<radialGradient id="paint14_radial" cx="0" cy="0" r="1" gradientUnits="userSpaceOnUse" gradientTransform="translate(28.4584 -3.31615) scale(59.0309 59.0412)">
<stop offset="0.6147" stop-color="#8D562E" stop-opacity="0"/>
<stop offset="1" stop-color="#804B24"/>
</radialGradient>
<radialGradient id="paint15_radial" cx="0" cy="0" r="1" gradientUnits="userSpaceOnUse" gradientTransform="translate(28.4587 -3.31638) scale(59.0302 59.0412)">
<stop offset="0.6147" stop-color="#8D562E" stop-opacity="0"/>
<stop offset="1" stop-color="#804B24"/>
</radialGradient>
<radialGradient id="paint16_radial" cx="0" cy="0" r="1" gradientUnits="userSpaceOnUse" gradientTransform="translate(53.8346 8.80076) rotate(166.542) scale(2.93257 1.55259)">
<stop stop-color="#F8DBBA"/>
<stop offset="1" stop-color="#CD9870" stop-opacity="0"/>
</radialGradient>
<linearGradient id="paint17_linear" x1="44.0431" y1="35.5592" x2="43.5409" y2="51.3436" gradientUnits="userSpaceOnUse">
<stop offset="0.00132565" stop-color="#99643E"/>
<stop offset="1" stop-color="#AE7246"/>
</linearGradient>
<linearGradient id="paint18_linear" x1="44.337" y1="34.2095" x2="43.5972" y2="57.4597" gradientUnits="userSpaceOnUse">
<stop stop-color="#8D562E" stop-opacity="0"/>
<stop offset="1" stop-color="#804B24"/>
</linearGradient>
<linearGradient id="paint19_linear" x1="43.881" y1="38.0015" x2="44.272" y2="25.7102" gradientUnits="userSpaceOnUse">
<stop offset="0.00132565" stop-color="#99643E"/>
<stop offset="1" stop-color="#AE7246"/>
</linearGradient>
<linearGradient id="paint20_linear" x1="38.1921" y1="32.0766" x2="77.152" y2="55.8728" gradientUnits="userSpaceOnUse">
<stop stop-color="#8D562E" stop-opacity="0"/>
<stop offset="1" stop-color="#804B24"/>
</linearGradient>
<linearGradient id="paint21_linear" x1="20.4868" y1="57.2266" x2="60.213" y2="57.2266" gradientUnits="userSpaceOnUse">
<stop offset="0.00132565" stop-color="#99643E"/>
<stop offset="1" stop-color="#AE7246"/>
</linearGradient>
<radialGradient id="paint22_radial" cx="0" cy="0" r="1" gradientUnits="userSpaceOnUse" gradientTransform="translate(41.6053 38.4022) scale(26.5436 44.7419)">
<stop offset="0.6147" stop-color="#8D562E" stop-opacity="0"/>
<stop offset="1" stop-color="#804B24"/>
</radialGradient>
<linearGradient id="paint23_linear" x1="41.4819" y1="62.2493" x2="41.4819" y2="37.1202" gradientUnits="userSpaceOnUse">
<stop stop-color="#8D562E" stop-opacity="0"/>
<stop offset="1" stop-color="#804B24"/>
</linearGradient>
<linearGradient id="paint24_linear" x1="49.9592" y1="36.9594" x2="43.4443" y2="69.4029" gradientUnits="userSpaceOnUse">
<stop stop-color="#8D562E" stop-opacity="0"/>
<stop offset="1" stop-color="#8D562E"/>
</linearGradient>
<radialGradient id="paint25_radial" cx="0" cy="0" r="1" gradientUnits="userSpaceOnUse" gradientTransform="translate(31.3879 60.1998) rotate(-138.962) scale(13.1645 6.00681)">
<stop stop-color="#F8DBBA"/>
<stop offset="1" stop-color="#CD9870" stop-opacity="0"/>
</radialGradient>
</defs>
</svg>
