<svg width="80" height="80" viewBox="0 0 80 80" fill="none" xmlns="http://www.w3.org/2000/svg">
<path d="M40.475 70.95C57.3059 70.95 70.95 57.3059 70.95 40.475C70.95 23.6441 57.3059 10 40.475 10C23.6441 10 10 23.6441 10 40.475C10 57.3059 23.6441 70.95 40.475 70.95Z" fill="url(#paint0_radial)"/>
<path opacity="0.5" d="M40.475 70.95C57.3059 70.95 70.95 57.3059 70.95 40.475C70.95 23.6441 57.3059 10 40.475 10C23.6441 10 10 23.6441 10 40.475C10 57.3059 23.6441 70.95 40.475 70.95Z" fill="url(#paint1_radial)"/>
<path opacity="0.5" d="M40.475 70.95C57.3059 70.95 70.95 57.3059 70.95 40.475C70.95 23.6441 57.3059 10 40.475 10C23.6441 10 10 23.6441 10 40.475C10 57.3059 23.6441 70.95 40.475 70.95Z" fill="url(#paint2_radial)"/>
<path opacity="0.5" d="M40.475 70.95C57.3059 70.95 70.95 57.3059 70.95 40.475C70.95 23.6441 57.3059 10 40.475 10C23.6441 10 10 23.6441 10 40.475C10 57.3059 23.6441 70.95 40.475 70.95Z" fill="url(#paint3_radial)"/>
<path d="M33.8242 29.3606C33.9855 28.1416 32.7845 27.2094 30.5257 26.9226C28.6076 26.6716 24.2694 27.1556 20.8813 30.49C20.2539 31.0995 21.0247 31.5835 21.6163 31.2249C23.6061 29.9522 28.6255 28.6435 32.2825 29.5578C33.7525 29.8984 33.8242 29.3606 33.8242 29.3606Z" fill="url(#paint4_linear)"/>
<path d="M47.1257 29.3606C46.9644 28.1416 48.1655 27.2094 50.4242 26.9226C52.3423 26.6716 56.6805 27.1556 60.0686 30.49C60.6961 31.0995 59.9252 31.5835 59.3336 31.2249C57.3438 29.9522 52.3244 28.6435 48.6674 29.5578C47.1974 29.8984 47.1257 29.3606 47.1257 29.3606Z" fill="url(#paint5_linear)"/>
<path d="M53.0954 36.7821C53.0954 36.7821 58.1148 37.6426 59.2441 41.5864C59.3158 41.8374 59.3517 42.0884 59.3158 42.3394C59.28 42.8592 58.7601 43.3612 57.8997 42.7875C52.5755 39.3277 49.2591 40.5467 46.8032 41.3713C45.8351 41.694 45.0822 40.6901 45.4228 39.8834C45.5125 39.6504 45.6021 39.3994 45.7455 39.1843C48.076 35.8858 53.0954 36.7821 53.0954 36.7821Z" fill="url(#paint6_radial)"/>
<path d="M52.8982 37.9832C52.8982 37.9832 56.9854 38.6824 59.3159 42.0346C59.298 41.8912 59.28 41.7299 59.2442 41.5864C58.1148 37.6605 53.0954 36.7821 53.0954 36.7821C53.0954 36.7821 48.076 35.8858 45.7635 39.2022C45.6738 39.3277 45.6021 39.4532 45.5483 39.5966C48.811 37.2482 52.8982 37.9832 52.8982 37.9832Z" fill="url(#paint7_linear)"/>
<path d="M27.8547 36.7821C27.8547 36.7821 22.8353 37.6426 21.7059 41.5864C21.6342 41.8374 21.5983 42.0884 21.6342 42.3394C21.67 42.8592 22.1899 43.3612 23.0504 42.7875C28.3745 39.3277 31.6909 40.5467 34.1469 41.3713C35.1149 41.694 35.8678 40.6901 35.5272 39.8834C35.4376 39.6504 35.3479 39.3994 35.2045 39.1843C32.8741 35.8858 27.8547 36.7821 27.8547 36.7821Z" fill="url(#paint8_radial)"/>
<path d="M28.0519 37.9832C28.0519 37.9832 23.9647 38.6824 21.6343 42.0346C21.6522 41.8912 21.6701 41.7299 21.706 41.5864C22.8354 37.6605 27.8548 36.7821 27.8548 36.7821C27.8548 36.7821 32.8742 35.8858 35.1867 39.2022C35.2763 39.3277 35.348 39.4532 35.4018 39.5966C32.1392 37.2482 28.0519 37.9832 28.0519 37.9832Z" fill="url(#paint9_linear)"/>
<path d="M39.5427 63.0086C42.7157 62.4529 45.6915 61.5028 45.6915 59.9611C45.6915 58.4194 41.2099 57.0391 41.2099 56.1427C41.2099 55.2464 45.6915 53.8482 45.6915 52.3244C45.6915 50.7827 42.7157 49.8326 39.5427 49.2769C39.5427 49.2769 53.8301 48.4523 53.8301 56.1427C53.8301 63.8332 39.5427 63.0086 39.5427 63.0086Z" fill="url(#paint10_radial)"/>
<g opacity="0.75">
<path opacity="0.75" d="M41.2099 56.1427C41.2099 55.2464 45.6915 53.8481 45.6915 52.3244C45.6915 50.7827 42.7157 49.8326 39.5427 49.2769" fill="url(#paint11_radial)"/>
<path opacity="0.75" d="M41.2099 56.1427C41.2099 57.0391 45.6915 58.4373 45.6915 59.9611C45.6915 61.5027 42.7157 62.4529 39.5427 63.0086" fill="url(#paint12_radial)"/>
</g>
<path d="M39.507 62.8293C40.5826 62.5963 41.6582 62.3274 42.68 61.9688C43.1999 61.7896 43.7018 61.5745 44.15 61.3235C44.5981 61.0725 45.0284 60.7498 45.2256 60.3734C45.2614 60.2837 45.2973 60.1941 45.3152 60.0866C45.3152 60.0507 45.3152 59.979 45.3152 59.9431C45.3152 59.9252 45.3152 59.9073 45.3152 59.8894L45.2973 59.8356C45.2435 59.6742 45.1001 59.495 44.9387 59.3157C44.5802 58.9751 44.132 58.6883 43.666 58.4194C43.1999 58.1505 42.7159 57.8816 42.2139 57.5948C41.9629 57.4514 41.7299 57.308 41.4789 57.1287C41.3534 57.0391 41.228 56.9315 41.1025 56.806L41.0128 56.6985C40.977 56.6626 40.9411 56.6088 40.9232 56.555C40.8874 56.5192 40.8694 56.4296 40.8336 56.3758C40.8156 56.3041 40.7977 56.2144 40.7977 56.1248C40.7977 56.0352 40.8156 55.9455 40.8336 55.8738C40.8515 55.8201 40.8874 55.7304 40.9232 55.6946C40.9591 55.6408 40.977 55.587 41.0128 55.5512L41.1025 55.4436C41.228 55.3181 41.3534 55.2106 41.4789 55.1209C41.7299 54.9417 41.9629 54.7803 42.2139 54.6369C42.6979 54.3501 43.1819 54.0812 43.648 53.7944C44.5264 53.2566 45.5841 52.5037 45.1539 51.9479C44.9746 51.6073 44.5623 51.3026 44.1141 51.0516C43.666 50.8007 43.164 50.5855 42.6621 50.4063C41.6403 50.0298 40.5826 49.743 39.5249 49.4382C39.4174 49.4024 39.3636 49.3128 39.3995 49.2052C39.4174 49.1156 39.507 49.0618 39.5966 49.0618C40.7081 49.1514 41.8195 49.3307 42.931 49.6354C43.4867 49.7968 44.0245 49.976 44.5623 50.2449C44.8312 50.3883 45.1001 50.5318 45.3331 50.7289C45.5841 50.9261 45.8171 51.1771 45.9964 51.4998C46.086 51.6611 46.1577 51.8404 46.1757 52.0376C46.1936 52.1451 46.1936 52.2348 46.1936 52.3423C46.1936 52.3961 46.1757 52.4499 46.1757 52.5037C46.1577 52.5574 46.1577 52.6112 46.1398 52.665C46.1219 52.7726 46.0681 52.8443 46.0323 52.9339C45.9785 53.0056 45.9426 53.0952 45.8888 53.1669C45.8351 53.2387 45.7813 53.3104 45.7275 53.3641C45.6737 53.4358 45.6199 53.4896 45.5662 53.5434C45.118 53.9916 44.6161 54.2963 44.132 54.5831C43.648 54.87 43.164 55.1389 42.68 55.4257C42.447 55.5691 42.2139 55.6946 42.0167 55.838C41.9092 55.9097 41.8195 55.9814 41.7478 56.0531L41.712 56.1069C41.694 56.1248 41.694 56.1248 41.694 56.1427C41.6761 56.1607 41.694 56.1427 41.694 56.1427C41.694 56.1427 41.712 56.1069 41.694 56.1069C41.694 56.089 41.694 56.071 41.694 56.071C41.712 56.089 41.712 56.089 41.712 56.1069L41.7478 56.1607C41.8195 56.2324 41.9092 56.3041 41.9988 56.3758C42.196 56.5192 42.429 56.6626 42.6621 56.806C43.1282 57.0928 43.6122 57.3617 44.0962 57.6665C44.5802 57.9712 45.0642 58.2939 45.4945 58.7241C45.602 58.8317 45.7096 58.9572 45.7992 59.1006C45.853 59.1723 45.8888 59.244 45.9247 59.3157C45.9605 59.4054 45.9964 59.4771 46.0323 59.5846C46.1398 59.979 46.0502 60.3555 45.8888 60.6602C45.7275 60.965 45.4945 61.198 45.2435 61.3952C44.9925 61.5924 44.7415 61.7358 44.4906 61.8613C43.9707 62.1302 43.4329 62.3094 42.8772 62.4708C41.7837 62.7935 40.6902 62.9906 39.5787 63.152C39.4712 63.1699 39.3815 63.0982 39.3636 62.9906C39.3457 62.9369 39.4174 62.8472 39.507 62.8293Z" fill="#A2541E"/>
<defs>
<radialGradient id="paint0_radial" cx="0" cy="0" r="1" gradientUnits="userSpaceOnUse" gradientTransform="translate(34.479 28.1245) scale(36.7641)">
<stop stop-color="#FFDF30"/>
<stop offset="1" stop-color="#FFB82E"/>
</radialGradient>
<radialGradient id="paint1_radial" cx="0" cy="0" r="1" gradientUnits="userSpaceOnUse" gradientTransform="translate(34.479 28.1245) scale(28.924)">
<stop stop-color="#FFE95F"/>
<stop offset="1" stop-color="#FFBB47" stop-opacity="0"/>
</radialGradient>
<radialGradient id="paint2_radial" cx="0" cy="0" r="1" gradientUnits="userSpaceOnUse" gradientTransform="translate(23.872 48.0564) rotate(-2.7703) scale(12.8185 10.1427)">
<stop stop-color="#FF4C00"/>
<stop offset="0.1542" stop-color="#FF4C00"/>
<stop offset="0.1795" stop-color="#FF4C00"/>
<stop offset="0.3996" stop-color="#FA4C0B" stop-opacity="0.7318"/>
<stop offset="0.7799" stop-color="#EE4B27" stop-opacity="0.2683"/>
<stop offset="1" stop-color="#E64A3A" stop-opacity="0"/>
</radialGradient>
<radialGradient id="paint3_radial" cx="0" cy="0" r="1" gradientUnits="userSpaceOnUse" gradientTransform="translate(57.0662 48.0563) rotate(-177.23) scale(12.8185 10.1427)">
<stop stop-color="#FF4C00"/>
<stop offset="0.1542" stop-color="#FF4C00"/>
<stop offset="0.1795" stop-color="#FF4C00"/>
<stop offset="0.3996" stop-color="#FA4C0B" stop-opacity="0.7318"/>
<stop offset="0.7799" stop-color="#EE4B27" stop-opacity="0.2683"/>
<stop offset="1" stop-color="#E64A3A" stop-opacity="0"/>
</radialGradient>
<linearGradient id="paint4_linear" x1="27.1833" y1="30.5262" x2="27.6104" y2="27.3436" gradientUnits="userSpaceOnUse">
<stop offset="0.00132565" stop-color="#3C2200"/>
<stop offset="1" stop-color="#7A4400"/>
</linearGradient>
<linearGradient id="paint5_linear" x1="53.7633" y1="30.5269" x2="53.3362" y2="27.3443" gradientUnits="userSpaceOnUse">
<stop offset="0.00132565" stop-color="#3C2200"/>
<stop offset="1" stop-color="#7A4400"/>
</linearGradient>
<radialGradient id="paint6_radial" cx="0" cy="0" r="1" gradientUnits="userSpaceOnUse" gradientTransform="translate(52.6088 39.6056) rotate(9.98082) scale(5.47689 2.64255)">
<stop offset="0.00132565" stop-color="#7A4400"/>
<stop offset="1" stop-color="#643800"/>
</radialGradient>
<linearGradient id="paint7_linear" x1="53.4034" y1="35.1977" x2="52.81" y2="38.6861" gradientUnits="userSpaceOnUse">
<stop offset="0.00132565" stop-color="#3C2200"/>
<stop offset="1" stop-color="#512D00"/>
</linearGradient>
<radialGradient id="paint8_radial" cx="0" cy="0" r="1" gradientUnits="userSpaceOnUse" gradientTransform="translate(28.4087 39.5309) rotate(170.019) scale(5.4769 2.64255)">
<stop offset="0.00132565" stop-color="#7A4400"/>
<stop offset="1" stop-color="#643800"/>
</radialGradient>
<linearGradient id="paint9_linear" x1="27.503" y1="35.172" x2="28.0964" y2="38.6604" gradientUnits="userSpaceOnUse">
<stop offset="0.00132565" stop-color="#3C2200"/>
<stop offset="1" stop-color="#512D00"/>
</linearGradient>
<radialGradient id="paint10_radial" cx="0" cy="0" r="1" gradientUnits="userSpaceOnUse" gradientTransform="translate(42.6282 56.2094) rotate(89.1886) scale(7.55763 5.54029)">
<stop stop-color="#7A4400" stop-opacity="0.5"/>
<stop offset="0.6008" stop-color="#894D00" stop-opacity="0.1981"/>
<stop offset="0.995" stop-color="#965500" stop-opacity="0"/>
</radialGradient>
<radialGradient id="paint11_radial" cx="0" cy="0" r="1" gradientUnits="userSpaceOnUse" gradientTransform="translate(43.2827 52.3355) scale(3.57699 2.34436)">
<stop stop-color="white" stop-opacity="0.75"/>
<stop offset="1" stop-color="white" stop-opacity="0"/>
</radialGradient>
<radialGradient id="paint12_radial" cx="0" cy="0" r="1" gradientUnits="userSpaceOnUse" gradientTransform="translate(43.2827 59.9624) scale(3.57699 2.34436)">
<stop stop-color="white" stop-opacity="0.75"/>
<stop offset="1" stop-color="white" stop-opacity="0"/>
</radialGradient>
</defs>
</svg>
