<svg width="24" height="24" viewBox="0 0 24 24" fill="none" xmlns="http://www.w3.org/2000/svg">
<path d="M21.5658 2.44531H2.4458V21.5653H21.5658V2.44531Z" fill="url(#paint0_linear)"/>
<path d="M21.7142 21.5542V2.28564H21.5542V21.5542H2.28564V21.7142H21.5542H21.7142V21.5542Z" fill="#99AFB3"/>
<path d="M21.7142 2.28564H2.44564H2.28564V21.7142L2.44564 21.5542V2.44564H21.5542L21.7142 2.28564Z" fill="#DEE7E8"/>
<path d="M3.58276 3.74252V20.4168H3.74276V3.74252H20.4171V3.58252H3.74276H3.58276V3.74252Z" fill="#99AFB3"/>
<path d="M3.58276 20.4168H20.2571H20.4171V3.58252L20.2571 3.74252V20.2568H3.74276L3.58276 20.4168Z" fill="#DEE7E8"/>
<path d="M20.257 20.2575H3.74268V3.74316H20.257V20.2575Z" fill="url(#paint1_linear)"/>
<path d="M20.257 20.2575H3.74268V3.74316H20.257V20.2575Z" fill="url(#paint2_radial)"/>
<path d="M20.257 4.71459H3.74268V3.74316H20.257V4.71459Z" fill="url(#paint3_linear)"/>
<path d="M11.4685 7.81694C11.4685 7.82265 11.4457 8.13123 11.4457 8.13123H11.2571L11.3028 8.2798H11.3714V8.98265C11.3714 8.94837 11.3542 8.92551 11.3257 8.92551C11.2971 8.92551 11.28 8.95408 11.28 8.98265V9.02265C11.2571 9.04551 11.24 9.0798 11.24 9.1198V9.33123C11.24 9.37123 11.2571 9.40551 11.28 9.42837V9.5198H11.1885L11.2342 9.62837V9.87408H10.9657L11.0114 10.0227V10.3655H10.9657L11.0114 10.5141H11.0514V12.0055H10.8571V12.3027L10.9828 12.5712V12.8512C10.96 12.8341 10.9371 12.8227 10.9142 12.8227C10.8457 12.8227 10.7885 12.8969 10.7885 12.9884V13.3484H10.5714V13.1998C10.6 13.1827 10.6228 13.1427 10.6228 13.1027C10.6228 13.0569 10.6 13.0169 10.5714 13.0055V12.9541C10.5714 12.9312 10.56 12.9141 10.5428 12.9141C10.5257 12.9141 10.5142 12.9312 10.5142 12.9541V13.0055C10.4857 13.0227 10.4628 13.0627 10.4628 13.1027C10.4628 13.1484 10.4857 13.1884 10.5142 13.1998V13.3484H10.1542V13.1998C10.1828 13.1827 10.2057 13.1427 10.2057 13.1027C10.2057 13.0569 10.1828 13.0169 10.1542 13.0055V12.9541C10.1542 12.9312 10.1428 12.9141 10.1257 12.9141C10.1085 12.9141 10.0971 12.9312 10.0971 12.9541V13.0055C10.0685 13.0227 10.0457 13.0627 10.0457 13.1027C10.0457 13.1484 10.0685 13.1884 10.0971 13.1998V13.3484H9.75424V12.9541H9.72567V12.8398H9.6971V12.7141C9.6971 12.6741 9.67995 12.6398 9.6571 12.6227V12.5141C9.70281 12.4912 9.73138 12.4398 9.73138 12.3712C9.73138 12.3541 9.73138 12.3369 9.72567 12.3255H9.6571V12.0169C9.6571 12.0055 9.65138 11.9884 9.64567 11.9827V11.8855L9.71424 11.9769C9.72567 11.9884 9.7371 11.9884 9.74853 11.9769C9.75995 11.9655 9.75995 11.9427 9.74853 11.9312L9.6571 11.8055L9.74853 11.6798C9.75995 11.6684 9.75995 11.6455 9.74853 11.6341C9.7371 11.6227 9.72567 11.6227 9.71424 11.6341L9.64567 11.7255V11.5998C9.64567 11.5827 9.63424 11.5655 9.62281 11.5655C9.61138 11.5655 9.59995 11.5827 9.59995 11.5998V11.7255L9.53138 11.6341C9.51995 11.6227 9.50853 11.6227 9.4971 11.6341C9.48567 11.6455 9.48567 11.6684 9.4971 11.6798L9.58853 11.8055L9.4971 11.9312C9.48567 11.9427 9.48567 11.9655 9.4971 11.9769C9.50853 11.9884 9.51995 11.9884 9.53138 11.9769L9.59995 11.8855V11.9712C9.59424 11.9827 9.58853 11.9941 9.58853 12.0055V12.3141H9.51995C9.51424 12.3312 9.51424 12.3427 9.51424 12.3598C9.51424 12.4284 9.54853 12.4798 9.58853 12.5027V12.6112C9.56567 12.6284 9.54853 12.6627 9.54853 12.7027V12.8284H9.51995V12.9427H9.49138V13.3369V13.7084V14.1427V15.6512V16.0455V16.1541V16.9255V17.0341V20.2512H12.3085H15.1257V17.0341V16.9255V16.1541V16.0569V15.6627V14.1541V13.7198V13.3484V12.9541H15.0971V12.8398H15.0685V12.7141C15.0685 12.6741 15.0514 12.6398 15.0285 12.6227V12.5141C15.0742 12.4912 15.1028 12.4398 15.1028 12.3712C15.1028 12.3541 15.1028 12.3369 15.0971 12.3255H15.0285V12.0169C15.0285 12.0055 15.0228 11.9884 15.0171 11.9827V11.8855L15.0857 11.9769C15.0971 11.9884 15.1085 11.9884 15.12 11.9769C15.1314 11.9655 15.1314 11.9427 15.12 11.9312L15.0285 11.8055L15.12 11.6798C15.1314 11.6684 15.1314 11.6455 15.12 11.6341C15.1085 11.6227 15.0971 11.6227 15.0857 11.6341L15.0171 11.7255V11.5998C15.0171 11.5827 15.0057 11.5655 14.9942 11.5655C14.9828 11.5655 14.9714 11.5827 14.9714 11.5998V11.7255L14.9028 11.6341C14.8914 11.6227 14.88 11.6227 14.8685 11.6341C14.8571 11.6455 14.8571 11.6684 14.8685 11.6798L14.96 11.8055L14.8685 11.9312C14.8571 11.9427 14.8571 11.9655 14.8685 11.9769C14.88 11.9884 14.8914 11.9884 14.9028 11.9769L14.9714 11.8855V11.9712C14.9657 11.9827 14.96 11.9941 14.96 12.0055V12.3141H14.8914C14.8857 12.3312 14.8857 12.3427 14.8857 12.3598C14.8857 12.4284 14.92 12.4798 14.96 12.5027V12.6112C14.9371 12.6284 14.92 12.6627 14.92 12.7027V12.8284H14.8914V12.9427H14.8628V13.3369H14.52V13.1998C14.5485 13.1827 14.5714 13.1427 14.5714 13.1027C14.5714 13.0569 14.5485 13.0169 14.52 13.0055V12.9541C14.52 12.9312 14.5085 12.9141 14.4914 12.9141C14.4742 12.9141 14.4628 12.9312 14.4628 12.9541V13.0055C14.4342 13.0227 14.4114 13.0627 14.4114 13.1027C14.4114 13.1484 14.4342 13.1884 14.4628 13.1998V13.3484H14.1028V13.1998C14.1314 13.1827 14.1542 13.1427 14.1542 13.1027C14.1542 13.0569 14.1314 13.0169 14.1028 13.0055V12.9541C14.1028 12.9312 14.0914 12.9141 14.0742 12.9141C14.0571 12.9141 14.0457 12.9312 14.0457 12.9541V13.0055C14.0171 13.0227 13.9942 13.0627 13.9942 13.1027C13.9942 13.1484 14.0171 13.1884 14.0457 13.1998V13.3484H13.8285V12.9884C13.8285 12.8969 13.7714 12.8227 13.7028 12.8227C13.6742 12.8227 13.6514 12.8341 13.6342 12.8512V12.5712L13.76 12.3027V11.9998H13.5657V10.5084H13.6057L13.6514 10.3598H13.6057V10.0169L13.6514 9.86837H13.3828V9.62265L13.4285 9.51408H13.3371V9.42837C13.36 9.40551 13.3771 9.37123 13.3771 9.33123V9.1198C13.3771 9.0798 13.36 9.04551 13.3371 9.02265V8.98265C13.3371 8.94837 13.32 8.92551 13.2914 8.92551C13.2628 8.92551 13.2457 8.95408 13.2457 8.98265V8.28551H13.3142L13.36 8.13694H13.1657V7.83408C13.1657 7.82837 13.1657 7.82837 13.1657 7.82265V7.77123C13.1714 7.76551 13.1771 7.74837 13.1771 7.73694V7.65123C13.1771 7.63408 13.1714 7.62265 13.16 7.61122V7.59408C13.16 7.58265 13.1542 7.57123 13.1428 7.57123C13.1314 7.57123 13.1257 7.58265 13.1257 7.59408V7.61122C13.1142 7.61694 13.1085 7.63408 13.1085 7.65123V7.73694C13.1085 7.75408 13.1142 7.77123 13.1257 7.77694V7.81122H12.8V7.0798H12.8114L12.8571 6.96551H12.64V6.76551C12.64 6.5998 12.52 6.46265 12.3657 6.43408H12.2342C12.08 6.46265 11.96 6.5998 11.96 6.76551V6.96551H11.7257L11.7714 7.0798H11.7828V7.81122H11.4571L11.4685 7.81694Z" fill="#FCD2A8"/>
<path opacity="0.5" d="M13.6399 12.5659H12.3142V13.7316H13.6399V12.5659Z" fill="#FAAF5C"/>
<path d="M12.9143 13.6173V12.9487C12.9143 12.9258 12.9257 12.9087 12.9429 12.9087C12.96 12.9087 12.9714 12.9258 12.9714 12.9487V13.6173" fill="#FCD2A8"/>
<path d="M13.3313 13.6173V12.9487C13.3313 12.9258 13.3427 12.9087 13.3599 12.9087C13.377 12.9087 13.3884 12.9258 13.3884 12.9487V13.6173" fill="#FCD2A8"/>
<path d="M13.0284 13.0973C13.0284 13.1545 12.9941 13.2059 12.9484 13.2059C12.9027 13.2059 12.8684 13.1602 12.8684 13.0973C12.8684 13.0402 12.9027 12.9888 12.9484 12.9888C12.9884 12.9888 13.0284 13.0402 13.0284 13.0973Z" fill="#FCD2A8"/>
<path d="M13.4456 13.0973C13.4456 13.1545 13.4114 13.2059 13.3656 13.2059C13.3199 13.2059 13.2856 13.1602 13.2856 13.0973C13.2856 13.0402 13.3199 12.9888 13.3656 12.9888C13.4056 12.9888 13.4456 13.0402 13.4456 13.0973Z" fill="#FCD2A8"/>
<path opacity="0.5" d="M12.8171 7.81153H12.3142V6.96582L12.8171 7.08011V7.81153Z" fill="#FAAF5C"/>
<path d="M12.8342 7.08011H12.3142V6.96582H12.8799L12.8342 7.08011Z" fill="#EFA25F"/>
<path opacity="0.5" d="M13.5771 10.5088H12.3142V12.0002H13.5771V10.5088Z" fill="#FAAF5C"/>
<path d="M13.6399 12.5659H12.3142V12.2974H13.7656L13.6399 12.5659Z" fill="#EFA25F"/>
<path d="M13.7714 12H12.3142V12.2971H13.7714V12Z" fill="#FCD2A8"/>
<path d="M13.3371 10.5088H12.5085V12.0002H13.3371V10.5088Z" fill="#EFA25F"/>
<path d="M12.9143 10.6118C12.7771 10.6118 12.6628 10.7661 12.6628 10.9547V12.0004H13.1714V10.949C13.1657 10.7604 13.0514 10.6118 12.9143 10.6118Z" fill="url(#paint4_linear)"/>
<path d="M13.6114 10.5084H12.3142V10.3599H13.6571L13.6114 10.5084Z" fill="#EFA25F"/>
<path d="M13.6114 10.0172H12.3142V9.86865H13.6571L13.6114 10.0172Z" fill="#EFA25F"/>
<path d="M13.6114 10.0171H12.3142V10.3599H13.6114V10.0171Z" fill="#FCD2A8"/>
<path opacity="0.5" d="M13.2571 9.8685H12.3142V8.28564H13.2571V9.8685Z" fill="#FAAF5C"/>
<path d="M13.2113 9.74854H12.3599V9.86853H13.2113V9.74854Z" fill="#EFA25F"/>
<path d="M13.2114 9.57178L13.3886 9.62892V9.86892H13.2114V9.57178Z" fill="#FCD2A8"/>
<path d="M13.2571 9.09735C13.2571 9.13164 13.2742 9.1545 13.3028 9.1545C13.3257 9.1545 13.3485 9.12593 13.3485 9.09735V8.98878C13.3485 8.9545 13.3314 8.93164 13.3028 8.93164C13.2799 8.93164 13.2571 8.96021 13.2571 8.98878V9.09735Z" fill="#FCD2A8"/>
<path d="M13.2571 9.52607C13.2571 9.56035 13.2742 9.58321 13.3028 9.58321C13.3257 9.58321 13.3485 9.55464 13.3485 9.52607V9.41749C13.3485 9.38321 13.3314 9.36035 13.3028 9.36035C13.2799 9.36035 13.2571 9.38892 13.2571 9.41749V9.52607Z" fill="#FCD2A8"/>
<path d="M13.2112 9.62859H13.3884L13.4341 9.52002H13.1655L13.2112 9.62859Z" fill="#EFA25F"/>
<path d="M12.7826 8.45752C12.7084 8.45752 12.6455 8.53752 12.6455 8.64038V9.74895H12.9198V8.64038C12.9198 8.53752 12.8626 8.45752 12.7826 8.45752Z" fill="url(#paint5_linear)"/>
<path d="M13.3199 8.28578H12.3142V8.13721H13.3656L13.3199 8.28578Z" fill="#EFA25F"/>
<path d="M13.0171 9.86876C12.9885 9.7259 12.8914 9.62305 12.7771 9.62305C12.6628 9.62305 12.5657 9.7259 12.5371 9.86876H13.0171Z" fill="#FCD2A8"/>
<path d="M13.137 7.64035C13.137 7.65178 13.1427 7.6632 13.1541 7.6632C13.1655 7.6632 13.1712 7.65178 13.1712 7.64035V7.59463C13.1712 7.58321 13.1655 7.57178 13.1541 7.57178C13.1427 7.57178 13.137 7.58321 13.137 7.59463V7.64035Z" fill="#FCD2A8"/>
<path d="M13.1428 7.81711C13.1428 7.82854 13.1485 7.83997 13.16 7.83997C13.1714 7.83997 13.1771 7.82854 13.1771 7.81711V7.77139C13.1771 7.75996 13.1714 7.74854 13.16 7.74854C13.1485 7.74854 13.1428 7.75996 13.1428 7.77139V7.81711Z" fill="#FCD2A8"/>
<path d="M13.1771 7.81152H12.3142V8.13152H13.1771V7.81152Z" fill="#FCD2A8"/>
<path d="M15.1314 16.0571H12.3142V20.2571H15.1314V16.0571Z" fill="#FCD2A8"/>
<path opacity="0.5" d="M13.2228 17.2056H12.5828V19.5656H13.2228V17.2056Z" fill="#FAAF5C"/>
<path d="M12.7598 18.6973C12.7141 18.6973 12.6741 18.7487 12.6741 18.8116V19.5658H12.8455V18.8116C12.8455 18.7487 12.8055 18.6973 12.7598 18.6973Z" fill="#EFA25F"/>
<path d="M13.0457 18.6973C13 18.6973 12.96 18.7487 12.96 18.8116V19.5658H13.1314V18.8116C13.1314 18.7487 13.0971 18.6973 13.0457 18.6973Z" fill="#EFA25F"/>
<path opacity="0.5" d="M14.857 17.2056H14.217V19.5656H14.857V17.2056Z" fill="#FAAF5C"/>
<path d="M14.3941 18.6973C14.3483 18.6973 14.3083 18.7487 14.3083 18.8116V19.5658H14.4798V18.8116C14.4798 18.7487 14.4455 18.6973 14.3941 18.6973Z" fill="#EFA25F"/>
<path d="M14.6853 18.6973C14.6396 18.6973 14.5996 18.7487 14.5996 18.8116V19.5658H14.771V18.8116C14.771 18.7487 14.731 18.6973 14.6853 18.6973Z" fill="#EFA25F"/>
<path opacity="0.5" d="M13.2228 19.7432H12.5828V20.2575H13.2228V19.7432Z" fill="#FAAF5C"/>
<path opacity="0.5" d="M14.857 19.7432H14.217V20.2575H14.857V19.7432Z" fill="#FAAF5C"/>
<path opacity="0.5" d="M14.0512 17.2056H13.394V18.3199H14.0512V17.2056Z" fill="#FAAF5C"/>
<path d="M13.9886 17.6687C13.9886 17.4745 13.8686 17.3145 13.7257 17.3145C13.5772 17.3145 13.4629 17.4745 13.4629 17.6687V18.3202H13.9886V17.6802C13.9829 17.6745 13.9886 17.6745 13.9886 17.6687Z" fill="#EFA25F"/>
<path d="M13.5999 17.686C13.5599 17.686 13.5256 17.7318 13.5256 17.7832V18.3203H13.6685V17.7832C13.6742 17.726 13.6399 17.686 13.5999 17.686Z" fill="url(#paint6_linear)"/>
<path d="M13.8399 17.686C13.7999 17.686 13.7656 17.7318 13.7656 17.7832V18.3203H13.9085V17.7832C13.9142 17.726 13.8799 17.686 13.8399 17.686Z" fill="url(#paint7_linear)"/>
<path opacity="0.5" d="M14.0512 18.4517H13.394V19.5659H14.0512V18.4517Z" fill="#FAAF5C"/>
<path d="M13.9886 18.909C13.9886 18.7147 13.8686 18.5547 13.7257 18.5547C13.5772 18.5547 13.4629 18.7147 13.4629 18.909V19.5604H13.9886V18.9204C13.9829 18.9204 13.9886 18.9147 13.9886 18.909Z" fill="#EFA25F"/>
<path d="M13.5999 18.9258C13.5599 18.9258 13.5256 18.9715 13.5256 19.0229V19.5601H13.6685V19.0229C13.6742 18.9715 13.6399 18.9258 13.5999 18.9258Z" fill="url(#paint8_linear)"/>
<path d="M13.8399 18.9258C13.7999 18.9258 13.7656 18.9715 13.7656 19.0229V19.5601H13.9085V19.0229C13.9142 18.9715 13.8799 18.9258 13.8399 18.9258Z" fill="url(#paint9_linear)"/>
<path opacity="0.5" d="M14.0512 19.7314H13.394V20.2572H14.0512V19.7314Z" fill="#FAAF5C"/>
<path d="M13.9886 20.1888C13.9886 19.9945 13.8686 19.8345 13.7257 19.8345C13.5772 19.8345 13.4629 19.9945 13.4629 20.1888V20.2573H13.9886V20.2002C13.9886 20.2002 13.9886 20.1945 13.9886 20.1888Z" fill="#EFA25F"/>
<path d="M13.983 18.04H13.4573V18.32H13.983V18.04Z" fill="#FAAF5C"/>
<path d="M13.983 19.2803H13.4573V19.5603H13.983V19.2803Z" fill="#FAAF5C"/>
<path d="M15.1314 13.3433H12.3142V13.7147H15.1314V13.3433Z" fill="#FCD2A8"/>
<path d="M14.9999 12.8689C15.0227 12.8689 15.0341 12.846 15.0341 12.8174V12.006C15.0341 11.9774 15.017 11.9546 14.9999 11.9546C14.977 11.9546 14.9656 11.9774 14.9656 12.006V12.8174C14.9656 12.846 14.9827 12.8689 14.9999 12.8689Z" fill="#FCD2A8"/>
<path d="M14.9768 12.0116C14.9768 12.0288 14.9882 12.0459 14.9997 12.0459C15.0111 12.0459 15.0225 12.0288 15.0225 12.0116V11.6002C15.0225 11.5831 15.0111 11.5659 14.9997 11.5659C14.9882 11.5659 14.9768 11.5831 14.9768 11.6002V12.0116Z" fill="#FCD2A8"/>
<path d="M15.1255 11.6856C15.1369 11.6742 15.1369 11.6513 15.1255 11.6399C15.1141 11.6285 15.1026 11.6285 15.0912 11.6399L14.8741 11.9313C14.8626 11.9428 14.8626 11.9656 14.8741 11.9771C14.8855 11.9885 14.8969 11.9885 14.9083 11.9771L15.1255 11.6856Z" fill="#FCD2A8"/>
<path d="M14.9083 11.6345C14.8969 11.6231 14.8855 11.6231 14.8741 11.6345C14.8626 11.646 14.8626 11.6688 14.8741 11.6803L15.0912 11.9717C15.1026 11.9831 15.1141 11.9831 15.1255 11.9717C15.1369 11.9603 15.1369 11.9374 15.1255 11.926L14.9083 11.6345Z" fill="#FCD2A8"/>
<path d="M14.9998 12.9661C15.0398 12.9661 15.0741 12.9204 15.0741 12.8632V12.7147C15.0741 12.6575 15.0398 12.6118 14.9998 12.6118C14.9598 12.6118 14.9255 12.6575 14.9255 12.7147V12.8632C14.9255 12.9204 14.9598 12.9661 14.9998 12.9661Z" fill="#FCD2A8"/>
<path d="M15.1084 12.3203C15.1141 12.3375 15.1141 12.3489 15.1141 12.366C15.1141 12.4517 15.0626 12.5146 14.9998 12.5146C14.9369 12.5146 14.8855 12.446 14.8855 12.366C14.8855 12.3489 14.8855 12.3317 14.8912 12.3203H15.1084Z" fill="#FCD2A8"/>
<path d="M15.1256 12.9546H14.8684V13.3489H15.1256V12.9546Z" fill="#FCD2A8"/>
<path d="M15.1027 12.8345H14.897V12.9488H15.1027V12.8345Z" fill="#FCD2A8"/>
<path opacity="0.5" d="M14.0629 13.7201C13.9772 13.5886 13.8457 13.5029 13.7029 13.5029C13.56 13.5029 13.4343 13.5886 13.3429 13.7201H12.3086V14.1544H15.1257V13.7201H14.0629Z" fill="#FAAF5C"/>
<path opacity="0.5" d="M14.8628 16.2744H12.5828V16.823H14.8628V16.2744Z" fill="#FAAF5C"/>
<path opacity="0.5" d="M15.1314 16.9316H12.3142V17.0402H15.1314V16.9316Z" fill="#FAAF5C"/>
<path d="M14.0056 14.1489C14.0056 13.926 13.8685 13.7432 13.7028 13.7432C13.5371 13.7432 13.3999 13.926 13.3999 14.1489H12.3142V16.0574H15.1314V14.1546H14.0056V14.1489Z" fill="#FCD2A8"/>
<path d="M12.7027 14.0685C12.7427 14.0685 12.777 14.0228 12.777 13.9657C12.777 13.9085 12.7427 13.8628 12.7027 13.8628C12.6627 13.8628 12.6284 13.9085 12.6284 13.9657C12.6284 14.0228 12.6627 14.0685 12.7027 14.0685Z" fill="url(#paint10_linear)"/>
<path d="M13.1429 14.0685C13.1829 14.0685 13.2172 14.0228 13.2172 13.9657C13.2172 13.9085 13.1829 13.8628 13.1429 13.8628C13.1029 13.8628 13.0686 13.9085 13.0686 13.9657C13.0686 14.0228 13.1029 14.0685 13.1429 14.0685Z" fill="url(#paint11_linear)"/>
<path d="M14.7142 14.0685C14.7542 14.0685 14.7885 14.0228 14.7885 13.9657C14.7885 13.9085 14.7542 13.8628 14.7142 13.8628C14.6742 13.8628 14.6399 13.9085 14.6399 13.9657C14.6399 14.0228 14.6742 14.0685 14.7142 14.0685Z" fill="url(#paint12_linear)"/>
<path d="M14.28 14.0685C14.32 14.0685 14.3543 14.0228 14.3543 13.9657C14.3543 13.9085 14.32 13.8628 14.28 13.8628C14.24 13.8628 14.2057 13.9085 14.2057 13.9657C14.2 14.0228 14.2343 14.0685 14.28 14.0685Z" fill="url(#paint13_linear)"/>
<path d="M13.7085 13.8628C13.5942 13.8628 13.4971 13.9885 13.4971 14.1485V15.6571H13.9199V14.1485C13.9199 13.9942 13.8285 13.8628 13.7085 13.8628Z" fill="url(#paint14_linear)"/>
<path d="M13.1428 14.3657C13.0742 14.3657 13.0171 14.44 13.0171 14.5372V15.6572H13.2742V14.5372C13.2685 14.4457 13.2114 14.3657 13.1428 14.3657Z" fill="url(#paint15_linear)"/>
<path d="M12.7029 14.3657C12.6343 14.3657 12.5771 14.44 12.5771 14.5372V15.6572H12.8343V14.5372C12.8343 14.4457 12.7771 14.3657 12.7029 14.3657Z" fill="url(#paint16_linear)"/>
<path d="M14.28 14.3657C14.2114 14.3657 14.1543 14.44 14.1543 14.5372V15.6572H14.4114V14.5372C14.4057 14.4457 14.3486 14.3657 14.28 14.3657Z" fill="url(#paint17_linear)"/>
<path d="M14.7143 14.3657C14.6458 14.3657 14.5886 14.44 14.5886 14.5372V15.6572H14.8458V14.5372C14.8458 14.4457 14.7886 14.3657 14.7143 14.3657Z" fill="url(#paint18_linear)"/>
<path d="M15.1314 15.6631H12.3142V16.0574H15.1314V15.6631Z" fill="#FCD2A8"/>
<path opacity="0.5" d="M15.1314 16.0571H12.3142V16.1657H15.1314V16.0571Z" fill="#FAAF5C"/>
<path d="M13.217 9.33157C13.217 9.39443 13.257 9.44586 13.3028 9.44586C13.3485 9.44586 13.3885 9.39443 13.3885 9.33157V9.12014C13.3885 9.05729 13.3485 9.00586 13.3028 9.00586C13.257 9.00586 13.217 9.05729 13.217 9.12014V9.33157Z" fill="#FCD2A8"/>
<path d="M13.1257 7.7369C13.1257 7.76547 13.1429 7.78261 13.16 7.78261C13.1772 7.78261 13.1943 7.75975 13.1943 7.7369V7.65118C13.1943 7.62261 13.1772 7.60547 13.16 7.60547C13.1429 7.60547 13.1257 7.62833 13.1257 7.65118V7.7369Z" fill="#FCD2A8"/>
<path d="M12.3087 12.8684C12.2858 12.8684 12.2744 12.8455 12.2744 12.817V12.0055C12.2744 11.977 12.2916 11.9541 12.3087 11.9541C12.3316 11.9541 12.343 11.977 12.343 12.0055V12.817C12.343 12.8455 12.3258 12.8684 12.3087 12.8684Z" fill="#FCD2A8"/>
<path d="M12.3316 12.0115C12.3316 12.0286 12.3202 12.0458 12.3087 12.0458C12.2973 12.0458 12.2859 12.0286 12.2859 12.0115V11.5943C12.2859 11.5772 12.2973 11.5601 12.3087 11.5601C12.3202 11.5601 12.3316 11.5772 12.3316 11.5943V12.0115Z" fill="#FCD2A8"/>
<path d="M12.1829 11.6856C12.1715 11.6742 12.1715 11.6513 12.1829 11.6399C12.1943 11.6285 12.2057 11.6285 12.2172 11.6399L12.4343 11.9313C12.4457 11.9428 12.4457 11.9656 12.4343 11.9771C12.4229 11.9885 12.4115 11.9885 12.4 11.9771L12.1829 11.6856Z" fill="#FCD2A8"/>
<path d="M12.4 11.6341C12.4115 11.6226 12.4229 11.6226 12.4343 11.6341C12.4457 11.6455 12.4457 11.6683 12.4343 11.6798L12.2172 11.9712C12.2057 11.9826 12.1943 11.9826 12.1829 11.9712C12.1715 11.9598 12.1715 11.9369 12.1829 11.9255L12.4 11.6341Z" fill="#FCD2A8"/>
<path d="M12.3087 12.9656C12.2687 12.9656 12.2344 12.9199 12.2344 12.8628V12.7142C12.2344 12.657 12.2687 12.6113 12.3087 12.6113C12.3487 12.6113 12.3829 12.657 12.3829 12.7142V12.8628C12.3829 12.9199 12.3487 12.9656 12.3087 12.9656Z" fill="#FCD2A8"/>
<path d="M12.2001 12.3198C12.1943 12.337 12.1943 12.3484 12.1943 12.3655C12.1943 12.4513 12.2458 12.5141 12.3086 12.5141C12.3715 12.5141 12.4229 12.4455 12.4229 12.3655C12.4229 12.3484 12.4229 12.3313 12.4172 12.3198H12.2001Z" fill="#FCD2A8"/>
<path d="M12.4344 12.9541H12.1772V13.3484H12.4344V12.9541Z" fill="#FCD2A8"/>
<path d="M12.4115 12.8345H12.2058V12.9488H12.4115V12.8345Z" fill="#FCD2A8"/>
<path d="M12.4057 9.57178L12.2285 9.62892V9.86892H12.4057V9.57178Z" fill="#FCD2A8"/>
<path d="M12.36 9.09735C12.36 9.13164 12.3428 9.1545 12.3143 9.1545C12.2914 9.1545 12.2686 9.12593 12.2686 9.09735V8.98878C12.2686 8.9545 12.2857 8.93164 12.3143 8.93164C12.3371 8.93164 12.36 8.96021 12.36 8.98878V9.09735Z" fill="#FCD2A8"/>
<path d="M12.36 9.52607C12.36 9.56035 12.3428 9.58321 12.3143 9.58321C12.2914 9.58321 12.2686 9.55464 12.2686 9.52607V9.41749C12.2686 9.38321 12.2857 9.36035 12.3143 9.36035C12.3371 9.36035 12.36 9.38892 12.36 9.41749V9.52607Z" fill="#FCD2A8"/>
<path d="M12.4057 9.62859H12.2286L12.1829 9.52002H12.4514L12.4057 9.62859Z" fill="#EFA25F"/>
<path d="M12.3999 9.33157C12.3999 9.39443 12.3599 9.44586 12.3142 9.44586C12.2685 9.44586 12.2285 9.39443 12.2285 9.33157V9.12014C12.2285 9.05729 12.2685 9.00586 12.3142 9.00586C12.3599 9.00586 12.3999 9.05729 12.3999 9.12014V9.33157Z" fill="#FCD2A8"/>
<path d="M13.8342 13.4231V12.9831C13.8342 12.8917 13.777 12.8174 13.7085 12.8174C13.6399 12.8174 13.5828 12.8917 13.5828 12.9831V13.4231H13.8342Z" fill="#FCD2A8"/>
<path d="M12.2915 7.64035C12.2915 7.65178 12.2972 7.6632 12.3086 7.6632C12.3201 7.6632 12.3258 7.65178 12.3258 7.64035V7.59463C12.3258 7.58321 12.3201 7.57178 12.3086 7.57178C12.2972 7.57178 12.2915 7.58321 12.2915 7.59463V7.64035Z" fill="#FCD2A8"/>
<path d="M12.3314 7.81139V7.77139C12.3314 7.75996 12.3257 7.74854 12.3143 7.74854C12.3028 7.74854 12.2971 7.75996 12.2971 7.77139V7.81139" fill="#FCD2A8"/>
<path d="M12.2742 7.7369C12.2742 7.76547 12.2913 7.78261 12.3085 7.78261C12.3256 7.78261 12.3427 7.75975 12.3427 7.7369V7.65118C12.3427 7.62261 12.3256 7.60547 12.3085 7.60547C12.2913 7.60547 12.2742 7.62833 12.2742 7.65118V7.7369Z" fill="#FCD2A8"/>
<path d="M10.9829 13.5544H12.3143V12.5658L10.9829 12.3887V13.5544Z" fill="#E89043"/>
<path d="M11.7085 13.6173V12.9487C11.7085 12.9258 11.6971 12.9087 11.6799 12.9087C11.6628 12.9087 11.6514 12.9258 11.6514 12.9487V13.6173" fill="#FBB87A"/>
<path d="M11.2913 13.6173V12.9487C11.2913 12.9258 11.2798 12.9087 11.2627 12.9087C11.2456 12.9087 11.2341 12.9258 11.2341 12.9487V13.6173" fill="#FBB87A"/>
<path d="M11.6001 13.0973C11.6001 13.1545 11.6344 13.2059 11.6801 13.2059C11.7258 13.2059 11.7601 13.1602 11.7601 13.0973C11.7601 13.0402 11.7258 12.9888 11.6801 12.9888C11.6344 12.9888 11.6001 13.0402 11.6001 13.0973Z" fill="#FBB87A"/>
<path d="M11.1829 13.0973C11.1829 13.1545 11.2171 13.2059 11.2629 13.2059C11.3086 13.2059 11.3429 13.1602 11.3429 13.0973C11.3429 13.0402 11.3086 12.9888 11.2629 12.9888C11.2171 12.9888 11.1829 13.0402 11.1829 13.0973Z" fill="#FBB87A"/>
<path d="M10.5713 13.6173V12.9487C10.5713 12.9258 10.5599 12.9087 10.5427 12.9087C10.5256 12.9087 10.5142 12.9258 10.5142 12.9487V13.6173" fill="#FBB87A"/>
<path d="M10.4629 13.0973C10.4629 13.1545 10.4972 13.2059 10.5429 13.2059C10.5886 13.2059 10.6229 13.1602 10.6229 13.0973C10.6229 13.0402 10.5886 12.9888 10.5429 12.9888C10.5029 12.9888 10.4629 13.0402 10.4629 13.0973Z" fill="#FBB87A"/>
<path d="M10.1543 13.6173V12.9487C10.1543 12.9258 10.1429 12.9087 10.1257 12.9087C10.1086 12.9087 10.0972 12.9258 10.0972 12.9487V13.6173" fill="#FBB87A"/>
<path d="M10.0457 13.0973C10.0457 13.1545 10.0799 13.2059 10.1257 13.2059C10.1714 13.2059 10.2057 13.1602 10.2057 13.0973C10.2057 13.0402 10.1714 12.9888 10.1257 12.9888C10.0799 12.9888 10.0457 13.0402 10.0457 13.0973Z" fill="#FBB87A"/>
<path d="M11.8057 7.81153H12.3142V6.96582L11.8057 7.08011V7.81153Z" fill="#E89043"/>
<path d="M11.7942 7.08011H12.3142V6.96582H11.7485L11.7942 7.08011Z" fill="#C86F34"/>
<path d="M12.3141 10.5088H11.0513V12.0002H12.3141V10.5088Z" fill="#E89043"/>
<path d="M10.9829 12.5659H12.3143V12.2974H10.8572L10.9829 12.5659Z" fill="#C86F34"/>
<path d="M12.3143 12H10.8572V12.2971H12.3143V12Z" fill="#E89043"/>
<path d="M12.1198 10.5088H11.2913V12.0002H12.1198V10.5088Z" fill="#EFA25F"/>
<path d="M11.7086 10.6118C11.8457 10.6118 11.96 10.7661 11.96 10.9547V12.0004H11.4514V10.949C11.4571 10.7604 11.5714 10.6118 11.7086 10.6118Z" fill="url(#paint19_linear)"/>
<path d="M11.0113 10.5084H12.3141V10.3599H10.9656L11.0113 10.5084Z" fill="#C86F34"/>
<path d="M11.0113 10.0172H12.3141V9.86865H10.9656L11.0113 10.0172Z" fill="#C86F34"/>
<path d="M12.3142 10.0171H11.0171V10.3599H12.3142V10.0171Z" fill="#E89043"/>
<path d="M11.3716 9.8685H12.3144V8.28564H11.3716V9.8685Z" fill="#E89043"/>
<path d="M12.2687 9.74854H11.4172V9.86853H12.2687V9.74854Z" fill="#EFA25F"/>
<path d="M11.417 9.57178L11.2341 9.62892V9.86892H11.417V9.57178Z" fill="#FCD2A8"/>
<path d="M11.3712 9.09687C11.3712 9.13115 11.3541 9.15401 11.3255 9.15401C11.3026 9.15401 11.2798 9.12544 11.2798 9.09687V8.9883C11.2798 8.95401 11.2969 8.93115 11.3255 8.93115C11.3484 8.93115 11.3712 8.95972 11.3712 8.9883V9.09687Z" fill="#FBB87A"/>
<path d="M11.3712 9.52607C11.3712 9.56035 11.3541 9.58321 11.3255 9.58321C11.3026 9.58321 11.2798 9.55464 11.2798 9.52607V9.41749C11.2798 9.38321 11.2969 9.36035 11.3255 9.36035C11.3484 9.36035 11.3712 9.38892 11.3712 9.41749V9.52607Z" fill="#FBB87A"/>
<path d="M11.417 9.62859H11.2342L11.1885 9.52002H11.4628L11.417 9.62859Z" fill="#EFA25F"/>
<path d="M11.84 8.45752C11.9143 8.45752 11.9772 8.53752 11.9772 8.64038V9.74895H11.7029V8.64038C11.7029 8.53752 11.7657 8.45752 11.84 8.45752Z" fill="url(#paint20_linear)"/>
<path d="M11.3028 8.28578H12.3142V8.13721H11.2571L11.3028 8.28578Z" fill="#C86F34"/>
<path d="M11.6116 9.86876C11.6401 9.7259 11.7373 9.62305 11.8516 9.62305C11.9659 9.62305 12.063 9.7259 12.0916 9.86876H11.6116Z" fill="#FCD2A8"/>
<path d="M12.3143 7.81152H11.4514V8.13152H12.3143V7.81152Z" fill="#FCD2A8"/>
<path d="M12.3086 16.0571H9.49146V20.2571H12.3086V16.0571Z" fill="url(#paint21_linear)"/>
<path opacity="0.5" d="M12.0399 17.2056H11.3999V19.5656H12.0399V17.2056Z" fill="#E89043"/>
<path d="M11.8628 18.6973C11.9085 18.6973 11.9485 18.7487 11.9485 18.8116V19.5658H11.7771V18.8116C11.7771 18.7487 11.8171 18.6973 11.8628 18.6973Z" fill="#E89043"/>
<path d="M11.5769 18.6973C11.6226 18.6973 11.6626 18.7487 11.6626 18.8116V19.5658H11.4912V18.8116C11.4912 18.7487 11.5312 18.6973 11.5769 18.6973Z" fill="#E89043"/>
<path opacity="0.5" d="M10.4056 17.2056H9.76562V19.5656H10.4056V17.2056Z" fill="#E89043"/>
<path d="M10.2285 18.6973C10.2743 18.6973 10.3143 18.7487 10.3143 18.8116V19.5658H10.1428V18.8116C10.1428 18.7487 10.1828 18.6973 10.2285 18.6973Z" fill="#E89043"/>
<path d="M9.94289 18.6973C9.98861 18.6973 10.0286 18.7487 10.0286 18.8116V19.5658H9.85718V18.8116C9.85718 18.7487 9.89146 18.6973 9.94289 18.6973Z" fill="#E89043"/>
<path opacity="0.5" d="M12.0399 19.7432H11.3999V20.2575H12.0399V19.7432Z" fill="#E89043"/>
<path opacity="0.5" d="M10.4056 19.7432H9.76562V20.2575H10.4056V19.7432Z" fill="#E89043"/>
<path opacity="0.5" d="M11.234 17.2056H10.5769V18.3199H11.234V17.2056Z" fill="#FAAF5C"/>
<path d="M10.6399 17.6687C10.6399 17.4745 10.7599 17.3145 10.9028 17.3145C11.0513 17.3145 11.1656 17.4745 11.1656 17.6687V18.3202H10.6399V17.6802C10.6399 17.6745 10.6399 17.6745 10.6399 17.6687Z" fill="#E89043"/>
<path d="M11.0229 17.6855C11.0629 17.6855 11.0972 17.7313 11.0972 17.7827V18.3198H10.9543V17.7827C10.9543 17.7255 10.9829 17.6855 11.0229 17.6855Z" fill="url(#paint22_linear)"/>
<path d="M10.7829 17.6855C10.8229 17.6855 10.8572 17.7313 10.8572 17.7827V18.3198H10.7144V17.7827C10.7144 17.7255 10.7429 17.6855 10.7829 17.6855Z" fill="url(#paint23_linear)"/>
<path opacity="0.5" d="M11.234 18.4517H10.5769V19.5659H11.234V18.4517Z" fill="#FAAF5C"/>
<path d="M10.6399 18.9085C10.6399 18.7142 10.7599 18.5542 10.9028 18.5542C11.0513 18.5542 11.1656 18.7142 11.1656 18.9085V19.5599H10.6399V18.9199C10.6399 18.9199 10.6399 18.9142 10.6399 18.9085Z" fill="#E89043"/>
<path d="M11.0229 18.9258C11.0629 18.9258 11.0972 18.9715 11.0972 19.0229V19.5601H10.9543V19.0229C10.9543 18.9715 10.9829 18.9258 11.0229 18.9258Z" fill="url(#paint24_linear)"/>
<path d="M10.7829 18.9258C10.8229 18.9258 10.8572 18.9715 10.8572 19.0229V19.5601H10.7144V19.0229C10.7144 18.9715 10.7429 18.9258 10.7829 18.9258Z" fill="url(#paint25_linear)"/>
<path opacity="0.5" d="M11.234 19.7314H10.5769V20.2572H11.234V19.7314Z" fill="#FAAF5C"/>
<path d="M10.6399 20.1888C10.6399 19.9945 10.7599 19.8345 10.9028 19.8345C11.0513 19.8345 11.1656 19.9945 11.1656 20.1888V20.2573H10.6399V20.2002C10.6399 20.2002 10.6399 20.1945 10.6399 20.1888Z" fill="#E89043"/>
<path d="M11.1656 18.04H10.6399V18.32H11.1656V18.04Z" fill="#E89043"/>
<path d="M11.1656 19.2798H10.6399V19.5598H11.1656V19.2798Z" fill="#E89043"/>
<path d="M12.3086 13.3433H9.49146V13.7147H12.3086V13.3433Z" fill="url(#paint26_linear)"/>
<path d="M9.62291 12.8689C9.60005 12.8689 9.58862 12.846 9.58862 12.8174V12.006C9.58862 11.9774 9.60577 11.9546 9.62291 11.9546C9.64577 11.9546 9.6572 11.9774 9.6572 12.006V12.8174C9.66291 12.846 9.64577 12.8689 9.62291 12.8689Z" fill="#FBB87A"/>
<path d="M9.65143 12.0116C9.65143 12.0288 9.64 12.0459 9.62857 12.0459C9.61714 12.0459 9.60571 12.0288 9.60571 12.0116V11.6002C9.60571 11.5831 9.61714 11.5659 9.62857 11.5659C9.64 11.5659 9.65143 11.5831 9.65143 11.6002V12.0116Z" fill="#FBB87A"/>
<path d="M9.4971 11.6856C9.48567 11.6742 9.48567 11.6513 9.4971 11.6399C9.50853 11.6285 9.51995 11.6285 9.53138 11.6399L9.74853 11.9313C9.75996 11.9428 9.75996 11.9656 9.74853 11.9771C9.7371 11.9885 9.72567 11.9885 9.71424 11.9771L9.4971 11.6856Z" fill="#FBB87A"/>
<path d="M9.71424 11.6345C9.72567 11.6231 9.7371 11.6231 9.74853 11.6345C9.75996 11.646 9.75996 11.6688 9.74853 11.6803L9.53138 11.9717C9.51995 11.9831 9.50853 11.9831 9.4971 11.9717C9.48567 11.9603 9.48567 11.9374 9.4971 11.926L9.71424 11.6345Z" fill="#FBB87A"/>
<path d="M9.62287 12.9661C9.58287 12.9661 9.54858 12.9204 9.54858 12.8632V12.7147C9.54858 12.6575 9.58287 12.6118 9.62287 12.6118C9.66287 12.6118 9.69716 12.6575 9.69716 12.7147V12.8632C9.70287 12.9204 9.66858 12.9661 9.62287 12.9661Z" fill="#FBB87A"/>
<path d="M9.52012 12.3203C9.5144 12.3375 9.5144 12.3489 9.5144 12.366C9.5144 12.4517 9.56583 12.5146 9.62869 12.5146C9.69155 12.5146 9.74298 12.446 9.74298 12.366C9.74298 12.3489 9.74297 12.3317 9.73726 12.3203H9.52012Z" fill="#FBB87A"/>
<path d="M9.75422 12.9546H9.49707V13.3489H9.75422V12.9546Z" fill="#FBB87A"/>
<path d="M9.72573 12.8345H9.52002V12.9488H9.72573V12.8345Z" fill="#FBB87A"/>
<path d="M10.5658 13.7201C10.6515 13.5886 10.7829 13.5029 10.9258 13.5029C11.0686 13.5029 11.1944 13.5886 11.2858 13.7201H12.3201V14.1544H9.50293V13.7201H10.5658Z" fill="#E89043"/>
<path opacity="0.5" d="M12.0456 16.2744H9.76562V16.823H12.0456V16.2744Z" fill="#E89043"/>
<path opacity="0.5" d="M12.3086 16.9316H9.49146V17.0402H12.3086V16.9316Z" fill="#E89043"/>
<path d="M10.6172 14.1489C10.6172 13.926 10.7543 13.7432 10.92 13.7432C11.0857 13.7432 11.2229 13.926 11.2229 14.1489H12.3086V16.0517H9.49146V14.1489H10.6172V14.1489Z" fill="url(#paint27_linear)"/>
<path d="M11.92 14.0685C11.88 14.0685 11.8457 14.0228 11.8457 13.9657C11.8457 13.9085 11.88 13.8628 11.92 13.8628C11.96 13.8628 11.9943 13.9085 11.9943 13.9657C12 14.0228 11.9657 14.0685 11.92 14.0685Z" fill="url(#paint28_linear)"/>
<path d="M11.48 14.0685C11.44 14.0685 11.4058 14.0228 11.4058 13.9657C11.4058 13.9085 11.44 13.8628 11.48 13.8628C11.52 13.8628 11.5543 13.9085 11.5543 13.9657C11.56 14.0228 11.5258 14.0685 11.48 14.0685Z" fill="url(#paint29_linear)"/>
<path d="M9.90851 14.0685C9.86851 14.0685 9.83423 14.0228 9.83423 13.9657C9.83423 13.9085 9.86851 13.8628 9.90851 13.8628C9.94851 13.8628 9.9828 13.9085 9.9828 13.9657C9.9828 14.0228 9.94851 14.0685 9.90851 14.0685Z" fill="url(#paint30_linear)"/>
<path d="M10.3485 14.0685C10.3085 14.0685 10.2742 14.0228 10.2742 13.9657C10.2742 13.9085 10.3085 13.8628 10.3485 13.8628C10.3885 13.8628 10.4227 13.9085 10.4227 13.9657C10.4227 14.0228 10.3885 14.0685 10.3485 14.0685Z" fill="url(#paint31_linear)"/>
<path d="M10.9143 13.8628C11.0286 13.8628 11.1257 13.9885 11.1257 14.1485V15.6571H10.7029V14.1485C10.7029 13.9942 10.8 13.8628 10.9143 13.8628Z" fill="url(#paint32_linear)"/>
<path d="M11.4801 14.3657C11.5486 14.3657 11.6058 14.44 11.6058 14.5372V15.6572H11.3486V14.5372C11.3543 14.4457 11.4115 14.3657 11.4801 14.3657Z" fill="url(#paint33_linear)"/>
<path d="M11.92 14.3657C11.9886 14.3657 12.0457 14.44 12.0457 14.5372V15.6572H11.7886V14.5372C11.7943 14.4457 11.8514 14.3657 11.92 14.3657Z" fill="url(#paint34_linear)"/>
<path d="M10.3487 14.3657C10.4173 14.3657 10.4744 14.44 10.4744 14.5372V15.6572H10.2173V14.5372C10.2173 14.4457 10.2744 14.3657 10.3487 14.3657Z" fill="url(#paint35_linear)"/>
<path d="M9.90853 14.3657C9.9771 14.3657 10.0342 14.44 10.0342 14.5372V15.6572H9.7771V14.5372C9.78281 14.4457 9.83996 14.3657 9.90853 14.3657Z" fill="url(#paint36_linear)"/>
<path d="M12.3086 15.6631H9.49146V16.0574H12.3086V15.6631Z" fill="url(#paint37_linear)"/>
<path opacity="0.5" d="M12.3086 16.0571H9.49146V16.1657H12.3086V16.0571Z" fill="#E89043"/>
<path d="M11.4056 9.33157C11.4056 9.39443 11.3656 9.44586 11.3198 9.44586C11.2741 9.44586 11.2341 9.39443 11.2341 9.33157V9.12014C11.2341 9.05729 11.2741 9.00586 11.3198 9.00586C11.3656 9.00586 11.4056 9.05729 11.4056 9.12014V9.33157Z" fill="#FBB87A"/>
<path d="M12.3201 12.8689C12.3429 12.8689 12.3543 12.846 12.3543 12.8174V12.006C12.3543 11.9774 12.3372 11.9546 12.3201 11.9546C12.2972 11.9546 12.2858 11.9774 12.2858 12.006V12.8174C12.2801 12.846 12.2972 12.8689 12.3201 12.8689Z" fill="#FCD2A8"/>
<path d="M12.2915 12.0116C12.2915 12.0288 12.3029 12.0459 12.3144 12.0459C12.3258 12.0459 12.3372 12.0288 12.3372 12.0116V11.6002C12.3372 11.5831 12.3258 11.5659 12.3144 11.5659C12.3029 11.5659 12.2915 11.5831 12.2915 11.6002V12.0116Z" fill="#FCD2A8"/>
<path d="M12.4458 11.6856C12.4572 11.6742 12.4572 11.6513 12.4458 11.6399C12.4344 11.6285 12.4229 11.6285 12.4115 11.6399L12.1944 11.9313C12.1829 11.9428 12.1829 11.9656 12.1944 11.9771C12.2058 11.9885 12.2172 11.9885 12.2286 11.9771L12.4458 11.6856Z" fill="#FCD2A8"/>
<path d="M12.2286 11.6345C12.2172 11.6231 12.2058 11.6231 12.1944 11.6345C12.1829 11.646 12.1829 11.6688 12.1944 11.6803L12.4115 11.9717C12.4229 11.9831 12.4344 11.9831 12.4458 11.9717C12.4572 11.9603 12.4572 11.9374 12.4458 11.926L12.2286 11.6345Z" fill="#FCD2A8"/>
<path d="M12.32 12.9661C12.36 12.9661 12.3943 12.9204 12.3943 12.8632V12.7147C12.3943 12.6575 12.36 12.6118 12.32 12.6118C12.28 12.6118 12.2457 12.6575 12.2457 12.7147V12.8632C12.24 12.9204 12.2743 12.9661 12.32 12.9661Z" fill="#FCD2A8"/>
<path d="M12.4231 12.3203C12.4288 12.3375 12.4288 12.3489 12.4288 12.366C12.4288 12.4517 12.3773 12.5146 12.3145 12.5146C12.2516 12.5146 12.2002 12.446 12.2002 12.366C12.2002 12.3489 12.2002 12.3317 12.2059 12.3203H12.4231Z" fill="#FCD2A8"/>
<path d="M12.4459 12.9546H12.1887V13.3489H12.4459V12.9546Z" fill="#FCD2A8"/>
<path d="M12.423 12.8345H12.2173V12.9488H12.423V12.8345Z" fill="#FCD2A8"/>
<path d="M12.217 9.57178L12.3999 9.62892V9.86892H12.217V9.57178Z" fill="#FCD2A8"/>
<path d="M12.2629 9.09687C12.2629 9.13115 12.2801 9.15401 12.3087 9.15401C12.3315 9.15401 12.3544 9.12544 12.3544 9.09687V8.9883C12.3544 8.95401 12.3372 8.93115 12.3087 8.93115C12.2858 8.93115 12.2629 8.95972 12.2629 8.9883V9.09687Z" fill="#FCD2A8"/>
<path d="M12.2629 9.52607C12.2629 9.56035 12.2801 9.58321 12.3087 9.58321C12.3315 9.58321 12.3544 9.55464 12.3544 9.52607V9.41749C12.3544 9.38321 12.3372 9.36035 12.3087 9.36035C12.2858 9.36035 12.2629 9.38892 12.2629 9.41749V9.52607Z" fill="#FCD2A8"/>
<path d="M12.2171 9.62859H12.4L12.4457 9.52002H12.1714L12.2171 9.62859Z" fill="#EFA25F"/>
<path d="M12.2227 9.33157C12.2227 9.39443 12.2627 9.44586 12.3084 9.44586C12.3541 9.44586 12.3941 9.39443 12.3941 9.33157V9.12014C12.3941 9.05729 12.3541 9.00586 12.3084 9.00586C12.2627 9.00586 12.2227 9.05729 12.2227 9.12014V9.33157Z" fill="#FCD2A8"/>
<path d="M10.7886 13.4231V12.9831C10.7886 12.8917 10.8457 12.8174 10.9143 12.8174C10.9829 12.8174 11.04 12.8917 11.04 12.9831V13.4231H10.7886Z" fill="#FBB87A"/>
<path d="M12.3314 7.63986C12.3314 7.65129 12.3257 7.66272 12.3143 7.66272C12.3028 7.66272 12.2971 7.65129 12.2971 7.63986V7.59415C12.2971 7.58272 12.3028 7.57129 12.3143 7.57129C12.3257 7.57129 12.3314 7.58272 12.3314 7.59415V7.63986Z" fill="#FCD2A8"/>
<path d="M12.2915 7.81139V7.77139C12.2915 7.75996 12.2972 7.74854 12.3086 7.74854C12.3201 7.74854 12.3258 7.75996 12.3258 7.77139V7.81139" fill="#FCD2A8"/>
<path d="M12.3486 7.7369C12.3486 7.76547 12.3315 7.78261 12.3143 7.78261C12.2972 7.78261 12.28 7.75975 12.28 7.7369V7.65118C12.28 7.62261 12.2972 7.60547 12.3143 7.60547C12.3315 7.60547 12.3486 7.62833 12.3486 7.65118V7.7369Z" fill="#FCD2A8"/>
<path d="M11.4857 7.64035C11.4857 7.65178 11.48 7.6632 11.4686 7.6632C11.4571 7.6632 11.4514 7.65178 11.4514 7.64035V7.59463C11.4514 7.58321 11.4571 7.57178 11.4686 7.57178C11.48 7.57178 11.4857 7.58321 11.4857 7.59463V7.64035Z" fill="#FCD2A8"/>
<path d="M11.4857 7.81711C11.4857 7.82854 11.48 7.83997 11.4686 7.83997C11.4571 7.83997 11.4514 7.82854 11.4514 7.81711V7.77139C11.4514 7.75996 11.4571 7.74854 11.4686 7.74854C11.48 7.74854 11.4857 7.75996 11.4857 7.77139V7.81711Z" fill="#FCD2A8"/>
<path d="M11.5029 7.7369C11.5029 7.76547 11.4858 7.78261 11.4686 7.78261C11.4515 7.78261 11.4343 7.75975 11.4343 7.7369V7.65118C11.4343 7.62261 11.4515 7.60547 11.4686 7.60547C11.4858 7.60547 11.5029 7.62833 11.5029 7.65118V7.7369Z" fill="#FCD2A8"/>
<path d="M11.4858 7.81178V7.77749C11.4972 7.77178 11.5029 7.75464 11.5029 7.73749V7.65178C11.5029 7.63463 11.4972 7.62321 11.4858 7.61178V7.59463C11.4858 7.58321 11.48 7.57178 11.4686 7.57178C11.4572 7.57178 11.4515 7.58321 11.4515 7.59463V7.61178C11.44 7.61749 11.4343 7.63463 11.4343 7.65178V7.73749C11.4343 7.75464 11.44 7.76606 11.4458 7.77178V7.81178V8.13178H12.3086V7.81178H11.4858Z" fill="#EFA25F"/>
<path d="M12.4284 6.44551C12.417 6.4398 12.3998 6.43408 12.3884 6.43408H12.257C12.1027 6.46265 11.9827 6.5998 11.9827 6.76551V6.96551H12.1998V6.76551C12.1941 6.61694 12.2912 6.49123 12.4284 6.44551Z" fill="#EFA25F"/>
<path d="M12.4458 5.68018V5.60018L12.8229 5.33732C12.8343 5.3316 12.8343 5.32018 12.8286 5.30875C12.8229 5.29732 12.8115 5.29732 12.8 5.30303L12.4458 5.55446V5.50875C12.48 5.48589 12.5029 5.44589 12.5029 5.40018C12.5029 5.34303 12.4629 5.29732 12.4115 5.27446C12.4058 5.26875 12.4 5.26303 12.3943 5.25732V5.10875C12.3943 5.06875 12.36 5.03446 12.32 5.03446C12.28 5.03446 12.2458 5.06875 12.2458 5.10875V5.25732C12.24 5.26303 12.2343 5.26875 12.2286 5.27446C12.1886 5.28589 12.1543 5.32018 12.1429 5.36589L12.0629 4.69732C12.0629 4.68589 12.0515 4.68018 12.04 4.68018L11.88 4.69732L11.8915 4.78303L12.0343 4.76589L12.0629 5.01732L11.8572 5.04018L11.8629 5.0916L11.9658 5.08018L11.9715 5.14303L12.0743 5.1316L12.0915 5.26875L11.8686 5.29732C11.7258 5.31446 11.6286 5.44589 11.6458 5.58303C11.6629 5.72589 11.7943 5.82303 11.9315 5.80589L12.1543 5.77732L12.1886 6.05161C12.1886 6.05732 12.1943 6.06303 12.1943 6.06303C12.16 6.09732 12.1429 6.13732 12.1429 6.18875C12.1429 6.26303 12.1886 6.32589 12.2572 6.35446V6.42303H12.3886V6.35446C12.4572 6.32589 12.5029 6.26303 12.5029 6.18875C12.5029 6.11446 12.4572 6.05161 12.3886 6.02303V5.77732C12.4229 5.76589 12.4458 5.72589 12.4458 5.68018ZM12.2572 6.03446C12.2458 6.04018 12.24 6.04589 12.2286 6.05161L12.1543 5.46303C12.1658 5.48018 12.1772 5.49732 12.1943 5.50875V5.68589C12.1943 5.73161 12.2172 5.77161 12.2515 5.79446V6.03446H12.2572Z" fill="url(#paint38_linear)"/>
<defs>
<linearGradient id="paint0_linear" x1="6.32061" y1="-3.2461" x2="18.5534" y2="29.5666" gradientUnits="userSpaceOnUse">
<stop stop-color="white"/>
<stop offset="1" stop-color="#A9BCBE"/>
</linearGradient>
<linearGradient id="paint1_linear" x1="11.9998" y1="11.4786" x2="11.9998" y2="2.48392" gradientUnits="userSpaceOnUse">
<stop stop-color="#D1F2FF"/>
<stop offset="0.668" stop-color="#80DAFE"/>
<stop offset="1" stop-color="#0099D6"/>
</linearGradient>
<radialGradient id="paint2_radial" cx="0" cy="0" r="1" gradientUnits="userSpaceOnUse" gradientTransform="translate(14.4926 9.69983) scale(7.30642)">
<stop stop-color="white"/>
<stop offset="1" stop-color="white" stop-opacity="0"/>
</radialGradient>
<linearGradient id="paint3_linear" x1="11.9998" y1="3.71827" x2="11.9998" y2="4.62358" gradientUnits="userSpaceOnUse">
<stop stop-color="#008EE6"/>
<stop offset="1" stop-color="#0099D6" stop-opacity="0"/>
</linearGradient>
<linearGradient id="paint4_linear" x1="12.9141" y1="10.6109" x2="12.9141" y2="12.4409" gradientUnits="userSpaceOnUse">
<stop stop-color="#3C2200"/>
<stop offset="0.9996" stop-color="#975500"/>
</linearGradient>
<linearGradient id="paint5_linear" x1="12.7845" y1="8.56327" x2="12.7845" y2="10.8001" gradientUnits="userSpaceOnUse">
<stop stop-color="#3C2200"/>
<stop offset="0.9996" stop-color="#975500"/>
</linearGradient>
<linearGradient id="paint6_linear" x1="13.6015" y1="17.6849" x2="13.6015" y2="18.3169" gradientUnits="userSpaceOnUse">
<stop stop-color="#011037"/>
<stop offset="0.9996" stop-color="#BE0F00"/>
</linearGradient>
<linearGradient id="paint7_linear" x1="13.8417" y1="17.6849" x2="13.8417" y2="18.3169" gradientUnits="userSpaceOnUse">
<stop stop-color="#011037"/>
<stop offset="0.9996" stop-color="#BE0F00"/>
</linearGradient>
<linearGradient id="paint8_linear" x1="13.6015" y1="18.9263" x2="13.6015" y2="19.5621" gradientUnits="userSpaceOnUse">
<stop stop-color="#011037"/>
<stop offset="0.9996" stop-color="#BE0F00"/>
</linearGradient>
<linearGradient id="paint9_linear" x1="13.8417" y1="18.9263" x2="13.8417" y2="19.5621" gradientUnits="userSpaceOnUse">
<stop stop-color="#011037"/>
<stop offset="0.9996" stop-color="#BE0F00"/>
</linearGradient>
<linearGradient id="paint10_linear" x1="12.7041" y1="13.8562" x2="12.7041" y2="14.297" gradientUnits="userSpaceOnUse">
<stop stop-color="#011037"/>
<stop offset="0.9996" stop-color="#BE0F00"/>
</linearGradient>
<linearGradient id="paint11_linear" x1="13.1426" y1="13.8562" x2="13.1426" y2="14.297" gradientUnits="userSpaceOnUse">
<stop stop-color="#011037"/>
<stop offset="0.9996" stop-color="#BE0F00"/>
</linearGradient>
<linearGradient id="paint12_linear" x1="14.7167" y1="13.8562" x2="14.7167" y2="14.297" gradientUnits="userSpaceOnUse">
<stop stop-color="#011037"/>
<stop offset="0.9996" stop-color="#BE0F00"/>
</linearGradient>
<linearGradient id="paint13_linear" x1="14.2784" y1="13.8562" x2="14.2784" y2="14.297" gradientUnits="userSpaceOnUse">
<stop stop-color="#011037"/>
<stop offset="0.9996" stop-color="#BE0F00"/>
</linearGradient>
<linearGradient id="paint14_linear" x1="13.7104" y1="13.8652" x2="13.7104" y2="15.6603" gradientUnits="userSpaceOnUse">
<stop stop-color="#3C2200"/>
<stop offset="0.9996" stop-color="#975500"/>
</linearGradient>
<linearGradient id="paint15_linear" x1="13.1425" y1="14.3666" x2="13.1425" y2="15.6604" gradientUnits="userSpaceOnUse">
<stop stop-color="#3C2200"/>
<stop offset="0.9996" stop-color="#975500"/>
</linearGradient>
<linearGradient id="paint16_linear" x1="12.7042" y1="14.3666" x2="12.7042" y2="15.6604" gradientUnits="userSpaceOnUse">
<stop stop-color="#3C2200"/>
<stop offset="0.9996" stop-color="#975500"/>
</linearGradient>
<linearGradient id="paint17_linear" x1="14.2784" y1="14.3666" x2="14.2784" y2="15.6604" gradientUnits="userSpaceOnUse">
<stop stop-color="#3C2200"/>
<stop offset="0.9996" stop-color="#975500"/>
</linearGradient>
<linearGradient id="paint18_linear" x1="14.7168" y1="14.3666" x2="14.7168" y2="15.6604" gradientUnits="userSpaceOnUse">
<stop stop-color="#3C2200"/>
<stop offset="0.9996" stop-color="#975500"/>
</linearGradient>
<linearGradient id="paint19_linear" x1="11.711" y1="10.6109" x2="11.711" y2="12.4409" gradientUnits="userSpaceOnUse">
<stop stop-color="#3C2200"/>
<stop offset="0.9996" stop-color="#975500"/>
</linearGradient>
<linearGradient id="paint20_linear" x1="11.8404" y1="8.56327" x2="11.8404" y2="10.8001" gradientUnits="userSpaceOnUse">
<stop stop-color="#3C2200"/>
<stop offset="0.9996" stop-color="#975500"/>
</linearGradient>
<linearGradient id="paint21_linear" x1="13.5875" y1="18.1561" x2="11.353" y2="18.1561" gradientUnits="userSpaceOnUse">
<stop stop-color="#E89043"/>
<stop offset="0.9996" stop-color="#FBB87A"/>
</linearGradient>
<linearGradient id="paint22_linear" x1="11.0237" y1="17.6844" x2="11.0237" y2="18.3165" gradientUnits="userSpaceOnUse">
<stop stop-color="#011037"/>
<stop offset="0.9996" stop-color="#BE0F00"/>
</linearGradient>
<linearGradient id="paint23_linear" x1="10.7834" y1="17.6844" x2="10.7834" y2="18.3165" gradientUnits="userSpaceOnUse">
<stop stop-color="#011037"/>
<stop offset="0.9996" stop-color="#BE0F00"/>
</linearGradient>
<linearGradient id="paint24_linear" x1="11.0237" y1="18.9263" x2="11.0237" y2="19.5621" gradientUnits="userSpaceOnUse">
<stop stop-color="#011037"/>
<stop offset="0.9996" stop-color="#BE0F00"/>
</linearGradient>
<linearGradient id="paint25_linear" x1="10.7834" y1="18.9263" x2="10.7834" y2="19.5621" gradientUnits="userSpaceOnUse">
<stop stop-color="#011037"/>
<stop offset="0.9996" stop-color="#BE0F00"/>
</linearGradient>
<linearGradient id="paint26_linear" x1="12.8772" y1="13.531" x2="11.7224" y2="13.531" gradientUnits="userSpaceOnUse">
<stop stop-color="#E89043"/>
<stop offset="0.9996" stop-color="#FBB87A"/>
</linearGradient>
<linearGradient id="paint27_linear" x1="14.1499" y1="14.899" x2="11.6196" y2="14.899" gradientUnits="userSpaceOnUse">
<stop stop-color="#E89043"/>
<stop offset="0.9996" stop-color="#FBB87A"/>
</linearGradient>
<linearGradient id="paint28_linear" x1="11.9209" y1="13.8562" x2="11.9209" y2="14.297" gradientUnits="userSpaceOnUse">
<stop stop-color="#011037"/>
<stop offset="0.9996" stop-color="#BE0F00"/>
</linearGradient>
<linearGradient id="paint29_linear" x1="11.4827" y1="13.8562" x2="11.4827" y2="14.297" gradientUnits="userSpaceOnUse">
<stop stop-color="#011037"/>
<stop offset="0.9996" stop-color="#BE0F00"/>
</linearGradient>
<linearGradient id="paint30_linear" x1="9.90831" y1="13.8562" x2="9.90831" y2="14.297" gradientUnits="userSpaceOnUse">
<stop stop-color="#011037"/>
<stop offset="0.9996" stop-color="#BE0F00"/>
</linearGradient>
<linearGradient id="paint31_linear" x1="10.3466" y1="13.8562" x2="10.3466" y2="14.297" gradientUnits="userSpaceOnUse">
<stop stop-color="#011037"/>
<stop offset="0.9996" stop-color="#BE0F00"/>
</linearGradient>
<linearGradient id="paint32_linear" x1="10.9147" y1="13.8652" x2="10.9147" y2="15.6603" gradientUnits="userSpaceOnUse">
<stop stop-color="#3C2200"/>
<stop offset="0.9996" stop-color="#975500"/>
</linearGradient>
<linearGradient id="paint33_linear" x1="11.4826" y1="14.3666" x2="11.4826" y2="15.6604" gradientUnits="userSpaceOnUse">
<stop stop-color="#3C2200"/>
<stop offset="0.9996" stop-color="#975500"/>
</linearGradient>
<linearGradient id="paint34_linear" x1="11.921" y1="14.3666" x2="11.921" y2="15.6604" gradientUnits="userSpaceOnUse">
<stop stop-color="#3C2200"/>
<stop offset="0.9996" stop-color="#975500"/>
</linearGradient>
<linearGradient id="paint35_linear" x1="10.3469" y1="14.3666" x2="10.3469" y2="15.6604" gradientUnits="userSpaceOnUse">
<stop stop-color="#3C2200"/>
<stop offset="0.9996" stop-color="#975500"/>
</linearGradient>
<linearGradient id="paint36_linear" x1="9.90837" y1="14.3666" x2="9.90837" y2="15.6604" gradientUnits="userSpaceOnUse">
<stop stop-color="#3C2200"/>
<stop offset="0.9996" stop-color="#975500"/>
</linearGradient>
<linearGradient id="paint37_linear" x1="14.1499" y1="15.8579" x2="11.6196" y2="15.8579" gradientUnits="userSpaceOnUse">
<stop stop-color="#E89043"/>
<stop offset="0.9996" stop-color="#FBB87A"/>
</linearGradient>
<linearGradient id="paint38_linear" x1="11.8164" y1="6.5723" x2="12.6259" y2="4.22468" gradientUnits="userSpaceOnUse">
<stop stop-color="#011037"/>
<stop offset="0.9996" stop-color="#8EA5A8"/>
</linearGradient>
</defs>
</svg>
