<svg width="80" height="80" viewBox="0 0 80 80" fill="none" xmlns="http://www.w3.org/2000/svg">
<path d="M30.8882 36.4186C34.7911 40.8656 34.3356 47.6474 29.8737 51.556C25.4117 55.4698 18.636 55.0297 14.7331 50.5827C10.8302 46.1357 11.2857 39.3539 15.7476 35.4453C20.2096 31.5367 26.9853 31.9716 30.8882 36.4186Z" fill="url(#paint0_linear)"/>
<path d="M30.8882 36.4186C34.7911 40.8656 34.3356 47.6474 29.8737 51.556C25.4117 55.4698 18.636 55.0297 14.7331 50.5827C10.8302 46.1357 11.2857 39.3539 15.7476 35.4453C20.2096 31.5367 26.9853 31.9716 30.8882 36.4186Z" fill="url(#paint1_linear)"/>
<path d="M61.0879 40.4517C66.9785 38.2411 73.9768 17 68.8213 17C63.6657 17 38.7471 20.6808 32.9755 19.9457C27.204 19.2106 15.2364 17.7972 10.143 22.8914C5.04954 27.9855 6.08997 45.6028 6.08997 49.5321C6.08997 53.4614 9.52701 55.1802 13.3316 54.5641C17.1361 53.9481 28.1254 43.2058 28.1254 39.4008C28.1254 39.4008 22.2969 38.1117 20.4541 38.7277C18.6114 39.3438 19.3516 41.5492 19.3516 41.5492C19.3516 41.5492 15.8524 45.0488 15.2986 45.6028C15.2986 45.6028 18.1196 42.5328 18.1196 40.4465C18.1196 38.3602 18.3629 35.4145 16.0336 33.6957C16.0336 33.6957 19.9003 38.1169 23.6427 38.1169C28.3065 38.1169 27.5094 37.3196 28.3065 38.1169L61.0879 40.4517Z" fill="url(#paint2_linear)"/>
<path d="M68.8199 17C73.9755 17 74.7105 28.907 73.4838 34.5551C72.257 40.2031 66.9772 38.2359 61.0866 40.4465C55.196 42.657 52.2248 50.0704 46.6034 54.3207C41.572 58.1258 39.6309 55.4493 23.6466 63.1629C20.9808 64.452 13.3355 63.4373 15.2144 53.8082C23.1549 49.9048 29.1076 38.9141 28.3104 38.1168C28.3104 38.1168 36.4734 38.1168 40.0036 38.1168C43.5338 38.1168 59.1196 17 68.8199 17Z" fill="url(#paint3_linear)"/>
<path d="M15.085 58.3951V58.4365C16.0892 63.7377 21.488 64.2036 23.6465 63.163C39.6309 55.4494 41.572 58.131 46.6033 54.3208C52.2248 50.0705 55.1959 42.6571 61.0866 40.4466C66.9772 38.236 72.257 40.2033 73.4837 34.5552C73.6546 33.7683 73.784 32.8571 73.872 31.8787C69.555 32.8571 64.7721 31.1177 60.2273 31.1177C54.58 31.1177 47.8301 49.1646 36.6597 54.6884C25.4841 60.2174 15.085 58.3951 15.085 58.3951Z" fill="url(#paint4_linear)"/>
<path d="M29.7805 53.9166C26.8715 53.782 21.835 54.2169 19.8214 50.6344C18.3927 51.8924 16.8502 53.0055 15.2093 53.8131C13.3303 63.4422 20.9757 64.4569 23.6415 63.1678C39.6258 55.4542 41.5669 58.1358 46.5983 54.3256C51.3967 50.6966 54.2695 44.7741 58.6745 41.7404L58.6849 41.7197C58.6849 41.7197 55.812 43.2107 49.1812 49.2884C42.5504 55.3713 33.3418 54.0771 29.7805 53.9166Z" fill="url(#paint5_linear)"/>
<path d="M73.5199 34.3633C71.2579 34.6687 68.002 34.8758 64.156 34.4358C56.666 33.5764 48.9326 51.1315 44.6363 53.9581C40.34 56.7795 26.4676 59.6061 22.0471 59.6061C18.7757 59.6061 16.3221 58.1876 14.9608 55.7131C14.3965 63.5613 21.1619 64.3638 23.6414 63.1679C39.6257 55.4542 41.5668 58.1359 46.5981 54.3256C52.2195 50.0754 55.1907 42.662 61.0813 40.4514C66.9719 38.2408 72.2517 40.2081 73.4785 34.56C73.4992 34.4979 73.5044 34.4254 73.5199 34.3633Z" fill="url(#paint6_linear)"/>
<path d="M6.08858 49.5375C6.08858 53.4669 9.52564 55.1856 13.3302 54.5695C15.5353 54.2123 20.1474 50.4539 23.6414 46.6125C17.1089 51.5928 13.7547 51.5048 11.2442 51.2511C6.20764 50.7438 8.0504 43.1491 8.0504 39.6495C8.0504 36.1499 6.82362 29.1661 10.1364 22.8916C5.04298 27.9909 6.08858 45.6082 6.08858 49.5375Z" fill="url(#paint7_linear)"/>
<path d="M69.2806 17.0673C69.1357 17.0259 68.9855 17 68.8147 17C63.6592 17 38.7406 20.6807 32.969 19.9456C27.1975 19.2105 15.2299 17.7972 10.1365 22.8912C9.36519 23.6626 16.643 18.2269 30.0237 20.6807C40.1847 22.5444 55.1908 17.2433 71.7963 18.8844C71.1337 17.9008 70.3107 17.2226 69.2806 17.0673Z" fill="url(#paint8_linear)"/>
<path d="M15.2093 53.8083C20.1268 55.2319 31.7423 42.2895 31.7423 34.9227C31.7423 33.3282 27.0888 35.4766 23.0255 35.4766C19.8472 35.4766 17.6836 33.3903 15.4733 32.5309C14.0188 31.9666 18.1184 39.7735 14.8159 44.9608C12.4504 48.6727 16.581 45.6079 17.4092 44.5001C18.2374 43.3974 21.6124 42.8434 21.6124 42.8434C21.6124 42.8434 20.8152 39.7114 23.0255 40.0789C25.2357 40.4465 27.0785 40.3016 27.0785 40.3016C27.0785 40.3016 19.8162 51.7841 15.2093 53.8083Z" fill="url(#paint9_linear)"/>
<path d="M28.952 37.2885C27.9685 35.3213 25.9135 38.034 22.4868 36.952C19.8625 36.1237 17.1139 33.2815 16.4306 34.3635C15.7473 35.4455 17.2899 38.5465 17.2899 40.2342C17.2899 41.9219 15.3229 44.8365 14.8674 45.5458C14.4067 46.2499 16.56 45.2403 17.6626 44.0134C18.4597 43.123 19.6502 42.1549 20.1575 42.0876C20.6648 42.0203 20.3646 39.3231 22.3419 39.3231C24.3192 39.3231 26.9539 39.1419 27.9944 39.7321C26.9591 42.2222 23.9207 47.0161 19.8625 50.6037C19.8469 50.6141 19.8366 50.6296 19.8211 50.6399C19.5105 50.9091 19.1999 51.1732 18.879 51.4268C18.822 51.4734 18.7703 51.52 18.7133 51.5615C18.4235 51.7892 18.1284 52.0015 17.8334 52.2137C17.7454 52.2759 17.6626 52.3432 17.5746 52.4001C17.2899 52.5968 16.9948 52.7832 16.6998 52.9644C16.6014 53.0265 16.5031 53.0938 16.4047 53.1508C16.0217 53.3786 15.6283 53.5908 15.2349 53.7876C15.2245 53.7927 15.2194 53.7979 15.209 53.7979C14.8156 55.8169 14.857 57.4373 15.1676 58.7575C15.6335 55.3044 20.2507 51.6546 23.6722 47.9583C27.1092 44.2567 29.9355 39.2558 28.952 37.2885ZM20.4526 38.7329C18.6098 39.3489 19.35 41.5543 19.35 41.5543C19.35 41.5543 15.8509 45.054 15.297 45.6079C15.297 45.6079 18.1181 42.538 18.1181 40.4516C18.1181 38.7122 18.2682 36.3825 16.9689 34.6534C18.3406 35.9529 21.0168 38.1168 23.6411 38.1168C28.305 38.1168 27.5078 37.3196 28.3049 38.1168C28.4447 38.2566 28.3671 38.7277 28.1134 39.4059C28.0617 39.3955 22.285 38.122 20.4526 38.7329Z" fill="url(#paint10_linear)"/>
<path d="M28.124 39.4058C26.2709 39.2349 24.4644 38.7949 22.6165 38.7173C21.7158 38.6914 20.722 38.6189 19.9973 39.1107C19.2674 39.6181 19.2053 40.6742 19.4434 41.518V41.5232C19.4538 41.5594 19.4434 41.6008 19.4175 41.6267L15.3801 45.6958C15.3335 45.7424 15.2507 45.7424 15.2041 45.6958C15.1575 45.6492 15.1575 45.5716 15.1989 45.525C15.9236 44.7018 16.5913 43.8114 17.14 42.864C17.7042 41.9063 18.0665 40.8968 17.9682 39.7785C17.9734 38.6758 17.9371 37.568 17.6214 36.5326C17.3212 35.492 16.7052 34.5653 15.9132 33.8302L16.1617 33.5869C17.1348 34.6326 18.227 35.6007 19.4175 36.3928C20.6029 37.1745 21.9332 37.8423 23.3411 37.9252C24.775 37.9718 26.2191 37.9148 27.6426 37.6094C27.8548 37.5369 28.1654 37.7181 28.2586 37.8423C28.3311 37.9252 28.3776 37.9355 28.4656 38.0753C28.5536 38.2254 28.5278 38.3238 28.5329 38.4325C28.4967 38.8363 28.3673 39.1832 28.2379 39.53C27.9687 40.2186 27.6374 40.8709 27.2906 41.5128C25.8672 44.0651 24.1228 46.4258 22.1454 48.569C20.1577 50.6864 17.8957 52.6537 15.2041 53.8029C17.7249 52.3534 19.961 50.4897 21.928 48.3671C23.8846 46.2394 25.6135 43.889 27.0111 41.3575C27.3527 40.7259 27.6788 40.0788 27.9377 39.411C28.0619 39.0796 28.1809 38.7328 28.2068 38.4118C28.212 38.241 28.2016 38.2358 28.036 38.0753C27.8859 37.9459 27.8548 37.8993 27.6892 37.9303C26.2709 38.2358 24.7853 38.3031 23.3204 38.2617C21.809 38.1737 20.4373 37.4799 19.2157 36.6827C17.9837 35.8699 16.8915 34.8915 15.8925 33.8043C15.8252 33.7318 15.8304 33.6231 15.9029 33.5558C15.9702 33.4937 16.0789 33.4989 16.141 33.561C16.9692 34.3375 17.6162 35.3263 17.9268 36.4238C18.2529 37.5162 18.2788 38.6603 18.2632 39.7682C18.2632 40.3066 18.2684 40.9071 18.0769 41.4559C17.9061 41.9994 17.6576 42.512 17.3729 42.9934C16.8035 43.9615 16.1254 44.8468 15.3801 45.6855L15.1989 45.5146L19.2674 41.4766L19.2416 41.5801L19.2364 41.5698C18.9672 40.6949 18.962 39.5145 19.8316 38.8881C20.6909 38.3238 21.7054 38.4325 22.6165 38.4532C23.5482 38.5102 24.4747 38.6292 25.3961 38.769C26.3227 38.9243 27.2389 39.09 28.124 39.4058Z" fill="#804B24"/>
<path d="M19.2312 41.0161L19.4279 41.5338L19.3761 41.4768C20.0387 41.6839 20.665 41.9945 21.2241 42.419C21.7676 42.8332 22.3007 43.3923 22.4302 44.0912C22.0678 43.501 21.5554 43.092 21.017 42.7038C20.4787 42.3207 19.8989 41.9738 19.314 41.6373L19.2881 41.6218C19.2726 41.6115 19.2623 41.5959 19.2623 41.5804L19.2312 41.0161Z" fill="#804B24"/>
<path d="M9.40147 52.0533C5.28116 50.7331 6.76157 36.279 7.06697 30.3203L6.9738 30.3876C5.59174 37.5319 6.08866 46.8142 6.08866 49.5321C6.08866 53.4614 9.5257 55.1802 13.3303 54.5641C14.7537 54.3363 17.1711 52.6849 19.6453 50.5209C17.2487 51.9497 13.0714 53.2284 9.40147 52.0533Z" fill="url(#paint11_linear)"/>
<path d="M72.9453 36.1084C69.3892 37.2836 65.3414 36.2792 62.6808 36.2792C59.368 36.2792 51.2619 49.4184 47.2141 52.975C43.1611 56.5368 31.8664 58.4988 26.4676 60.7094C21.2137 62.8579 16.7931 61.7345 15.085 58.3953C16.0685 63.7276 21.4828 64.209 23.6413 63.1685C39.6257 55.4548 41.5668 58.1365 46.5981 54.3262C52.2195 50.0759 55.1907 42.6625 61.0813 40.4519C66.3456 38.4795 71.1129 39.8203 72.9453 36.1084Z" fill="url(#paint12_linear)"/>
<path d="M12.9264 37.102C13.4337 32.8103 11.9015 26.4685 12.8643 21.0327C11.8342 21.5297 10.9024 22.1302 10.1415 22.8964C5.04807 27.9906 6.0885 45.613 6.0885 49.5371C6.0885 53.4665 9.52556 55.1852 13.3301 54.5691C14.3499 54.4035 15.8872 53.5027 17.5902 52.2136C7.55856 48.6777 12.0671 44.3498 12.9264 37.102Z" fill="url(#paint13_linear)"/>
<path opacity="0.5" d="M48.1561 29.2383C51.2515 31.3143 49.1966 37.418 45.6042 43.2266C42.6641 47.9739 36.494 51.3752 33.5228 49.2681C30.5516 47.1663 28.2947 44.7486 35.1481 35.3627C39.1805 29.8285 45.128 27.2089 48.1561 29.2383Z" fill="url(#paint14_radial)"/>
<path opacity="0.5" d="M69.1823 22.0475C69.6896 24.2788 55.9103 26.5722 40.542 28.1356C27.9739 29.4091 13.4079 28.7724 13.1128 26.5773C12.8178 24.3823 14.0653 22.3011 40.3349 20.1786C55.8172 18.9258 68.6854 19.8731 69.1823 22.0475Z" fill="url(#paint15_radial)"/>
<path opacity="0.5" d="M22.8389 43.9979C23.7499 45.1161 22.1245 47.2801 19.9505 49.1852C18.1699 50.7383 15.3333 51.4476 14.4741 50.3345C13.6148 49.2215 13.0765 48.0567 16.9949 45.0851C19.2983 43.3301 21.9486 42.9056 22.8389 43.9979Z" fill="url(#paint16_radial)"/>
<defs>
<linearGradient id="paint0_linear" x1="14.7323" y1="50.5889" x2="30.8876" y2="36.4256" gradientUnits="userSpaceOnUse">
<stop offset="0.00132565" stop-color="#FFCB4B"/>
<stop offset="1" stop-color="#FFD748"/>
</linearGradient>
<linearGradient id="paint1_linear" x1="22.2656" y1="42.1602" x2="27.1157" y2="54.1305" gradientUnits="userSpaceOnUse">
<stop offset="0.00132565" stop-color="#D2A374"/>
<stop offset="1" stop-color="#DEBA94"/>
</linearGradient>
<linearGradient id="paint2_linear" x1="9.4876" y1="-7.1346" x2="33.7987" y2="28.2223" gradientUnits="userSpaceOnUse">
<stop offset="0.00132565" stop-color="#D2A374"/>
<stop offset="1" stop-color="#DEBA94"/>
</linearGradient>
<linearGradient id="paint3_linear" x1="46.8568" y1="53.2588" x2="44.401" y2="41.4723" gradientUnits="userSpaceOnUse">
<stop offset="0.00132565" stop-color="#D2A374"/>
<stop offset="1" stop-color="#DEBA94"/>
</linearGradient>
<linearGradient id="paint4_linear" x1="37.0239" y1="31.8854" x2="66.4925" y2="85.8427" gradientUnits="userSpaceOnUse">
<stop stop-color="#D2A374" stop-opacity="0"/>
<stop offset="1" stop-color="#B88653"/>
</linearGradient>
<linearGradient id="paint5_linear" x1="29.23" y1="56.107" x2="17.075" y2="69.1811" gradientUnits="userSpaceOnUse">
<stop stop-color="#D2A374" stop-opacity="0"/>
<stop offset="1" stop-color="#B88653"/>
</linearGradient>
<linearGradient id="paint6_linear" x1="43.5947" y1="42.7131" x2="54.7688" y2="100.786" gradientUnits="userSpaceOnUse">
<stop stop-color="#E6AF74" stop-opacity="0"/>
<stop offset="1" stop-color="#E6AF74"/>
</linearGradient>
<linearGradient id="paint7_linear" x1="18.7827" y1="10.4887" x2="5.02985" y2="119.883" gradientUnits="userSpaceOnUse">
<stop stop-color="#D2A374" stop-opacity="0"/>
<stop offset="1" stop-color="#B88653"/>
</linearGradient>
<linearGradient id="paint8_linear" x1="41.553" y1="27.2296" x2="37.501" y2="-14.5135" gradientUnits="userSpaceOnUse">
<stop stop-color="#FFBC47" stop-opacity="0"/>
<stop offset="1" stop-color="#C86F34"/>
</linearGradient>
<linearGradient id="paint9_linear" x1="21.1178" y1="14.3481" x2="24.3104" y2="61.0035" gradientUnits="userSpaceOnUse">
<stop stop-color="#D2A374" stop-opacity="0"/>
<stop offset="1" stop-color="#B88653"/>
</linearGradient>
<linearGradient id="paint10_linear" x1="48.3888" y1="27.9718" x2="2.1773" y2="54.2821" gradientUnits="userSpaceOnUse">
<stop stop-color="#D2A374" stop-opacity="0"/>
<stop offset="1" stop-color="#B88653"/>
</linearGradient>
<linearGradient id="paint11_linear" x1="19.9756" y1="-30.4998" x2="6.95946" y2="106.029" gradientUnits="userSpaceOnUse">
<stop stop-color="#D2A374" stop-opacity="0"/>
<stop offset="1" stop-color="#B88653"/>
</linearGradient>
<linearGradient id="paint12_linear" x1="36.1984" y1="7.8612" x2="48.9689" y2="72.1961" gradientUnits="userSpaceOnUse">
<stop stop-color="#D2A374" stop-opacity="0"/>
<stop offset="1" stop-color="#B88653"/>
</linearGradient>
<linearGradient id="paint13_linear" x1="19.4903" y1="37.3799" x2="-21.3892" y2="40.2031" gradientUnits="userSpaceOnUse">
<stop stop-color="#D2A374" stop-opacity="0"/>
<stop offset="1" stop-color="#B88653"/>
</linearGradient>
<radialGradient id="paint14_radial" cx="0" cy="0" r="1" gradientUnits="userSpaceOnUse" gradientTransform="translate(40.5544 39.0587) rotate(-53.8493) scale(12.733 6.65911)">
<stop stop-color="#E9CDB1"/>
<stop offset="1" stop-color="#E9CDB1" stop-opacity="0"/>
</radialGradient>
<radialGradient id="paint15_radial" cx="0" cy="0" r="1" gradientUnits="userSpaceOnUse" gradientTransform="translate(41.1245 24.1138) rotate(-4.61912) scale(28.8739 4.04634)">
<stop stop-color="#E9CDB1"/>
<stop offset="1" stop-color="#E9CDB1" stop-opacity="0"/>
</radialGradient>
<radialGradient id="paint16_radial" cx="0" cy="0" r="1" gradientUnits="userSpaceOnUse" gradientTransform="translate(18.5829 47.0662) rotate(-37.1356) scale(5.38555 2.57222)">
<stop stop-color="#E9CDB1"/>
<stop offset="1" stop-color="#E9CDB1" stop-opacity="0"/>
</radialGradient>
</defs>
</svg>
