<svg width="80" height="80" viewBox="0 0 80 80" fill="none" xmlns="http://www.w3.org/2000/svg">
<path d="M68.4047 41.1819C66.7723 39.7734 60.7752 38.2505 56.0173 43.7649C54.1659 45.9099 52.6529 45.1833 51.6625 44.1929C51.0055 43.5359 49.2388 37.3099 50.264 33.7862L41.5345 33.3682C41.3753 34.8164 40.1858 36.6081 39.6632 36.6479C39.1407 36.6877 38.7126 35.4286 38.623 34.1894C38.5335 32.9551 30.8691 38.6337 30.4062 38.8577C30.1026 39.007 27.0667 39.1613 24.5733 40.1467C18.8947 38.8975 14.2313 38.0663 12.6935 37.9419C11.494 41.9035 11.3447 47.3383 11.3447 50.0955C11.8325 64.4289 17.0532 73.2728 32.2576 73.9198C32.7205 73.9447 33.1833 73.9696 33.6412 73.9696C33.7855 73.9696 33.9149 73.9845 34.0642 73.9845C35.8858 73.9845 37.548 73.7606 39.0759 73.3773C43.0724 72.5064 46.5711 70.7197 48.6863 68.2611C54.1509 61.9305 54.3649 57.9241 59.0681 52.7183C63.0496 48.3137 68.1658 48.9906 70.1068 46.7411C71.7392 44.8598 69.3255 41.9732 68.4047 41.1819Z" fill="url(#paint0_linear)"/>
<path d="M70.1066 46.7455C70.9925 45.7202 70.6839 44.3964 70.0718 43.2766C68.0512 47.8155 62.3974 44.6303 51.8016 56.9132C41.2058 69.1912 30.9733 66.5983 27.4796 64.6573C23.9858 62.7163 21.572 56.1219 19.9495 47.9748C19.4518 45.4714 18.5261 42.5549 17.3317 39.6235C15.6196 40.6587 12.6285 45.8446 13.5443 47.6363C15.535 51.5133 12.6932 63.3135 19.84 69.4849C28.1116 76.6217 43.2165 74.6011 48.6811 68.2705C54.1457 61.9399 54.3597 57.9335 59.0629 52.7277C63.0494 48.3182 68.1706 48.995 70.1066 46.7455Z" fill="url(#paint1_linear)"/>
<path d="M40.574 34.8759C40.5939 34.4877 40.6138 34.0696 40.6287 33.6217C40.9074 26.2958 40.8676 11.5293 41.2011 9.58835C41.5544 7.52792 42.6842 6.00498 45.6454 6.00001C48.6017 5.99503 50.05 8.77213 49.7016 12.5148C49.3532 16.2574 50.1047 30.2374 50.3287 34.9456C50.6771 42.2367 51.8566 53.5392 51.8566 53.5392L40.8776 46.0291L40.574 34.8759Z" fill="url(#paint2_linear)"/>
<path d="M42.2163 22.5034C42.0073 14.9634 41.7485 9.76259 42.7837 6.77148C41.8729 7.4135 41.4001 8.40888 41.2011 9.58841C40.8676 11.5294 40.9124 26.2908 40.6287 33.6218C40.6138 34.0697 40.5939 34.4878 40.574 34.876L40.6785 38.7778L41.206 39.9872C41.206 39.9872 42.5 32.6613 42.2163 22.5034Z" fill="url(#paint3_linear)"/>
<path d="M12.2854 16.2177C8.11472 17.0389 8.80153 21.2145 9.60778 25.186C10.4738 29.4413 12.8527 45.5913 12.8527 45.5913L22.6024 46.1984C22.6024 46.1984 22.8563 44.7452 22.488 42.6649C21.3931 36.5134 18.7404 23.9468 17.75 20.0549C16.4609 14.9635 12.2854 16.2177 12.2854 16.2177Z" fill="url(#paint4_linear)"/>
<path d="M22.4929 42.6696C21.398 36.5182 18.7453 23.9515 17.7549 20.0596C17.0433 17.2626 15.4656 16.3817 14.1865 16.1577C17.4315 18.6462 18.815 31.3721 20.5818 36.8018C22.0699 41.3806 22.5228 43.2718 22.6472 43.8839C22.6124 43.5057 22.5676 43.1026 22.4929 42.6696Z" fill="url(#paint5_linear)"/>
<path d="M11.3499 50.0953C11.3499 52.4543 12.4945 53.5144 13.0619 53.8976C13.251 54.027 13.3804 54.0768 13.3804 54.0768L24.0409 61.8805L43.5553 57.8343L41.465 40.0867C38.5386 39.7085 35.861 39.4447 33.283 39.2407C33.1586 39.2307 31.6705 34.9406 31.5461 34.9307C31.4167 34.9207 30.8244 38.9022 30.695 38.8923C24.3047 38.4145 20.2784 38.5738 12.6936 37.9467C11.4942 41.9083 11.3499 47.343 11.3499 50.0953Z" fill="url(#paint6_linear)"/>
<path opacity="0.5" d="M11.0363 21.5524C10.0658 21.3434 10.4241 19.4024 11.2503 18.4319C12.0765 17.4564 13.5347 16.8393 14.5052 17.0434C15.4757 17.2524 15.1024 18.4419 14.7839 19.492C14.2364 21.3036 12.0118 21.7565 11.0363 21.5524Z" fill="url(#paint7_radial)"/>
<path opacity="0.5" d="M43.9632 7.26937C44.2767 6.32376 46.1679 6.8961 47.0439 7.82678C47.9198 8.75248 48.3777 10.2704 48.0691 11.216C47.7556 12.1616 46.6109 11.659 45.6055 11.226C43.8636 10.4795 43.6546 8.21497 43.9632 7.26937Z" fill="url(#paint8_radial)"/>
<g opacity="0.5">
<path opacity="0.75" d="M14.4106 50.603C12.8827 52.4643 17.5261 63.1746 22.1098 65.8721C26.6885 68.5695 32.4319 67.7434 33.5517 65.5983C34.6715 63.4533 29.9086 60.1238 26.0117 56.4309C19.2879 50.0655 15.9385 48.7466 14.4106 50.603Z" fill="url(#paint9_radial)"/>
</g>
<path d="M13.9126 56.4511C10.9166 51.1756 13.4498 42.0629 12.8874 40.2762C12.325 38.4895 12.5091 31.721 11.0061 25.6093C10.0904 21.8966 9.76689 19.2837 10.4288 17.0093C8.37834 18.5969 8.95565 21.9613 9.6126 25.1913C10.165 27.8987 11.3246 35.4039 12.101 40.5201C11.454 44.0188 11.3545 47.9058 11.3545 50.1006C11.8124 63.5133 16.411 72.1134 29.4505 73.701C21.4427 72.3174 16.7146 61.3882 13.9126 56.4511Z" fill="url(#paint10_linear)"/>
<path d="M32.4416 73.9298C32.0733 73.8751 31.6453 73.8402 31.1227 73.8402C30.6101 73.8402 30.1174 73.7905 29.6296 73.7158C30.5255 73.8203 31.4661 73.89 32.4416 73.9298Z" fill="url(#paint11_linear)"/>
<path d="M70.072 43.282C69.5544 42.3413 68.8277 41.545 68.4097 41.1817C66.7773 39.7733 60.7801 38.2503 56.0222 43.7647C54.1708 45.9098 51.115 45.7804 50.7467 41.3509C50.5725 39.1213 50.4182 36.8916 50.3287 34.9407C50.1047 30.2326 49.3532 16.2525 49.7016 12.5099C49.9255 10.0762 49.3831 8.07048 48.1687 6.95068C49.2039 10.2056 48.7809 15.0381 49.0844 27.8636C49.2586 35.3538 49.3283 38.0264 49.6867 41.3907C50.7517 50.7324 54.7332 48.1543 57.57 45.7903C60.4069 43.4313 62.8953 39.1959 68.1857 42.3214C69.9824 43.3865 70.1068 43.8045 70.072 43.282Z" fill="url(#paint12_linear)"/>
<path d="M37.4387 47.9551C41.9627 47.8407 42.6047 43.3963 41.679 34.1592L41.48 32.1685L31.8248 39.6985L22.4284 41.1169L21.1095 36.0554C21.0747 36.0554 21.1444 36.0554 21.1095 36.0554C21.1095 36.0554 19.2233 50.5381 28.0772 49.6473C28.0772 49.6473 27.6541 49.7269 28.0772 49.6473C32.1632 48.8759 32.1184 43.2619 32.1184 43.2619C32.1184 43.2619 33.5269 48.0547 37.4387 47.9551Z" fill="url(#paint13_linear)"/>
<path d="M27.495 49.1547C24.0311 49.1547 22.3041 47.5123 21.8213 42.8341C21.3386 38.1558 19.2582 29.7598 25.6137 29.277C31.3222 28.844 31.8249 32.9151 31.8249 39.6986C31.8249 46.4821 30.4761 49.1547 27.495 49.1547Z" fill="url(#paint14_linear)"/>
<path d="M27.0371 41.9331C24.3944 43.5705 22.6127 43.6004 21.4829 41.3707C21.5078 41.6246 21.5377 41.8734 21.5576 42.1123C22.0403 47.4326 23.7673 49.2989 27.2312 49.2989C29.6649 49.2989 31.0087 47.2683 31.4218 42.3213C30.7399 40.883 28.5999 40.9676 27.0371 41.9331Z" fill="url(#paint15_linear)"/>
<path d="M27.0122 43.9334C24.1704 43.9334 22.8914 42.097 22.4136 38.3295C22.1647 36.3935 20.5522 29.6349 25.768 29.2715C30.7698 28.9232 30.7698 33.4073 30.8743 37.2146C31.0186 42.6942 29.4609 43.9334 27.0122 43.9334Z" fill="url(#paint16_linear)"/>
<path d="M25.4294 48.876C26.0366 49.0601 26.7185 49.1547 27.4949 49.1547C30.476 49.1547 31.8198 46.4821 31.8198 39.6986C31.8198 33.1589 31.4216 29.1277 26.2307 29.262C28.3807 30.6456 30.1326 33.796 30.1326 39.4945C30.1376 47.5969 28.4554 48.861 25.4294 48.876Z" fill="url(#paint17_linear)"/>
<path d="M28.4804 29.5308C29.2718 29.7746 29.9785 30.2872 30.4513 30.9741C30.9291 31.6559 31.2277 32.4522 31.4168 33.2584C31.7851 34.8809 31.8597 36.5432 31.9095 38.1905C31.9294 39.8429 32.014 41.4902 31.8796 43.1525C31.7154 44.7899 31.3919 46.5069 30.3567 47.8905C29.3464 49.3587 27.3208 49.717 25.7232 49.284C24.8971 49.0849 24.1107 48.6669 23.5135 48.0498C22.9063 47.4426 22.5032 46.6761 22.2046 45.8948C21.6223 44.3171 21.458 42.6399 21.3635 40.9975C21.254 39.3502 21.0947 37.7078 21.1047 36.0505C21.3585 37.6879 21.4481 39.3352 21.5874 40.9776C21.7019 42.62 21.891 44.2673 22.4733 45.7902C23.0258 47.3032 24.1953 48.632 25.7929 48.9605C27.3308 49.3587 29.1374 49.0203 30.0681 47.6765C31.0535 46.4074 31.4068 44.7401 31.591 43.1326C31.7453 41.5052 31.6856 39.8478 31.6905 38.2005C31.6656 36.5531 31.6109 34.9008 31.2725 33.2933C31.1082 32.492 30.8395 31.7007 30.3916 31.0188C29.9486 30.332 29.2668 29.7995 28.4804 29.5308Z" fill="#975500"/>
<path d="M37.5431 47.2235C34.2385 47.0942 32.1432 44.9392 32.0835 40.3306C32.0337 36.4436 30.1674 27.9182 36.2441 27.7142C42.0771 27.5151 42.082 31.5016 41.9128 38.1357C41.7436 44.7699 40.3899 47.333 37.5431 47.2235Z" fill="url(#paint18_linear)"/>
<path d="M37.2894 40.0567C34.7214 41.5448 33.0243 41.5149 31.999 39.3052C32.0189 39.549 32.0388 39.7979 32.0537 40.0268C32.3822 45.2078 33.9848 47.0841 37.2944 47.2135C39.6186 47.303 41.261 45.4367 41.7736 40.6489C41.1565 39.2255 38.8024 39.1808 37.2894 40.0567Z" fill="url(#paint19_linear)"/>
<path d="M37.0556 40.4349C34.3432 40.3304 33.3329 40.0616 32.9646 36.3887C32.7755 34.4974 31.4018 27.8782 36.3937 27.7139C41.1765 27.5597 41.067 31.9144 41.0719 35.6172C41.0719 40.9425 39.3897 40.5294 37.0556 40.4349Z" fill="url(#paint20_linear)"/>
<path d="M35.5774 46.8753C36.1547 47.0743 36.8017 47.1938 37.5433 47.2237C40.39 47.3331 41.7437 44.77 41.913 38.1359C42.0772 31.7406 42.0573 27.8188 36.8365 27.7192C38.8522 29.1526 40.4498 32.298 40.3054 37.8721C40.1014 45.8003 38.464 46.9698 35.5774 46.8753Z" fill="url(#paint21_linear)"/>
<path d="M38.9766 28.0674C39.7182 28.3312 40.4199 28.7691 40.9027 29.4111C41.3904 30.0482 41.6542 30.8295 41.8134 31.6059C42.1021 33.1786 42.0722 34.7712 42.0673 36.3489C42.0474 37.9266 42.0275 39.5142 41.8732 41.0969C41.699 42.6646 41.47 44.2871 40.6489 45.7154C40.2358 46.4172 39.5589 47.0144 38.7527 47.2383C37.9414 47.4723 37.1153 47.3727 36.3289 47.2334C35.5376 47.0741 34.7662 46.7506 34.1391 46.2231C33.507 45.7005 33.0492 45.0037 32.7456 44.2622C32.1483 42.7641 32.014 41.1466 31.9642 39.5739L31.78 34.8359L32.1284 39.564C32.213 41.1367 32.3574 42.7243 32.9596 44.1676C33.5319 45.6308 34.8458 46.7008 36.3886 46.9397C37.1451 47.0691 37.9514 47.1438 38.6631 46.9198C39.3847 46.7108 39.972 46.1832 40.3502 45.5263C41.1366 44.2074 41.3954 42.6098 41.5845 41.062C41.7637 39.4993 41.7985 37.9216 41.8383 36.3439C41.8682 34.7712 41.903 33.1836 41.6492 31.6358C41.5248 30.8644 41.2958 30.098 40.838 29.4609C40.3851 28.8189 39.7132 28.356 38.9766 28.0674Z" fill="#975500"/>
<path d="M42.0175 37.3294C42.0175 37.3294 41.9677 37.3194 41.9428 37.3145C42.3907 44.4115 41.4153 47.8555 37.4387 47.955C33.5269 48.0546 32.1135 43.2569 32.1135 43.2569C32.1135 43.2569 32.1583 48.8708 28.0722 49.6422C28.0722 49.6422 28.0075 49.6571 27.9528 49.6671C27.8781 49.682 27.898 49.677 27.9528 49.6671C27.9826 49.6621 28.0026 49.6571 28.0722 49.6422C24.8273 49.9707 23.0356 48.2238 22.0552 45.8896C23.0306 48.6219 24.8174 50.1399 27.2461 50.1399C30.919 50.1399 31.8049 46.9398 32.5564 46.9398C33.3079 46.9398 36.2742 49.1545 37.822 49.1545C42.9581 49.1545 42.2066 40.8182 42.0175 37.3294Z" fill="url(#paint22_linear)"/>
<defs>
<linearGradient id="paint0_linear" x1="6.09682" y1="61.8177" x2="44.5163" y2="49.9554" gradientUnits="userSpaceOnUse">
<stop offset="0.00132565" stop-color="#F0C492"/>
<stop offset="1" stop-color="#F8DBBA"/>
</linearGradient>
<linearGradient id="paint1_linear" x1="42.0181" y1="52.8772" x2="42.0181" y2="113.357" gradientUnits="userSpaceOnUse">
<stop stop-color="#FFBC47" stop-opacity="0"/>
<stop offset="1" stop-color="#C86F34"/>
</linearGradient>
<linearGradient id="paint2_linear" x1="49.2767" y1="-30.4173" x2="46.0898" y2="40.7562" gradientUnits="userSpaceOnUse">
<stop offset="0.00132565" stop-color="#F0C492"/>
<stop offset="1" stop-color="#F8DBBA"/>
</linearGradient>
<linearGradient id="paint3_linear" x1="41.6798" y1="-1.12219" x2="41.6798" y2="61.1879" gradientUnits="userSpaceOnUse">
<stop stop-color="#FFBC47" stop-opacity="0"/>
<stop offset="1" stop-color="#C86F34"/>
</linearGradient>
<linearGradient id="paint4_linear" x1="-1.54819" y1="37.0569" x2="36.8713" y2="25.1946" gradientUnits="userSpaceOnUse">
<stop offset="0.00132565" stop-color="#F0C492"/>
<stop offset="1" stop-color="#F8DBBA"/>
</linearGradient>
<linearGradient id="paint5_linear" x1="17.2127" y1="15.0449" x2="20.6651" y2="58.0677" gradientUnits="userSpaceOnUse">
<stop stop-color="#FFBC47" stop-opacity="0"/>
<stop offset="1" stop-color="#C86F34"/>
</linearGradient>
<linearGradient id="paint6_linear" x1="4.08814" y1="55.3112" x2="42.5077" y2="43.449" gradientUnits="userSpaceOnUse">
<stop offset="0.00132565" stop-color="#F0C492"/>
<stop offset="1" stop-color="#F8DBBA"/>
</linearGradient>
<radialGradient id="paint7_radial" cx="0" cy="0" r="1" gradientUnits="userSpaceOnUse" gradientTransform="translate(12.8797 19.3265) rotate(130.273) scale(2.89645 1.5333)">
<stop stop-color="#F8E6D2"/>
<stop offset="1" stop-color="#F8E6D2" stop-opacity="0"/>
</radialGradient>
<radialGradient id="paint8_radial" cx="0" cy="0" r="1" gradientUnits="userSpaceOnUse" gradientTransform="translate(45.9727 9.27395) rotate(-133.437) scale(2.89717 1.53363)">
<stop stop-color="#F8E6D2"/>
<stop offset="1" stop-color="#F8E6D2" stop-opacity="0"/>
</radialGradient>
<radialGradient id="paint9_radial" cx="0" cy="0" r="1" gradientUnits="userSpaceOnUse" gradientTransform="translate(23.4611 59.8226) rotate(-138.629) scale(13.4094 6.12792)">
<stop stop-color="#F8E6D2"/>
<stop offset="1" stop-color="#F8E6D2" stop-opacity="0"/>
</radialGradient>
<linearGradient id="paint10_linear" x1="43.1471" y1="45.0404" x2="-92.4911" y2="46.8542" gradientUnits="userSpaceOnUse">
<stop stop-color="#FFBC47" stop-opacity="0"/>
<stop offset="1" stop-color="#C86F34"/>
</linearGradient>
<linearGradient id="paint11_linear" x1="46.6618" y1="13.0494" x2="4.25718" y2="177.965" gradientUnits="userSpaceOnUse">
<stop stop-color="#FFBC47" stop-opacity="0"/>
<stop offset="1" stop-color="#C86F34"/>
</linearGradient>
<linearGradient id="paint12_linear" x1="59.8462" y1="21.6669" x2="45.4463" y2="91.66" gradientUnits="userSpaceOnUse">
<stop stop-color="#FFBC47" stop-opacity="0"/>
<stop offset="1" stop-color="#C86F34"/>
</linearGradient>
<linearGradient id="paint13_linear" x1="28.4841" y1="65.0201" x2="32.942" y2="27.2242" gradientUnits="userSpaceOnUse">
<stop stop-color="#A1541E" stop-opacity="0"/>
<stop offset="1" stop-color="#C86F34"/>
</linearGradient>
<linearGradient id="paint14_linear" x1="26.4662" y1="38.6709" x2="26.4662" y2="57.712" gradientUnits="userSpaceOnUse">
<stop offset="0.00132565" stop-color="#F0C492"/>
<stop offset="1" stop-color="#F8DBBA"/>
</linearGradient>
<linearGradient id="paint15_linear" x1="26.4539" y1="36.8374" x2="26.4539" y2="65.5238" gradientUnits="userSpaceOnUse">
<stop stop-color="#FFBC47" stop-opacity="0"/>
<stop offset="1" stop-color="#C86F34"/>
</linearGradient>
<linearGradient id="paint16_linear" x1="26.4321" y1="43.1155" x2="26.4321" y2="26.4969" gradientUnits="userSpaceOnUse">
<stop offset="0.00132565" stop-color="#F0C492"/>
<stop offset="1" stop-color="#F8DBBA"/>
</linearGradient>
<linearGradient id="paint17_linear" x1="19.154" y1="34.7327" x2="65.0043" y2="60.7794" gradientUnits="userSpaceOnUse">
<stop stop-color="#FFBC47" stop-opacity="0"/>
<stop offset="1" stop-color="#C86F34"/>
</linearGradient>
<linearGradient id="paint18_linear" x1="36.8153" y1="36.936" x2="36.2226" y2="55.5623" gradientUnits="userSpaceOnUse">
<stop offset="0.00132565" stop-color="#F0C492"/>
<stop offset="1" stop-color="#F8DBBA"/>
</linearGradient>
<linearGradient id="paint19_linear" x1="37.0387" y1="35.1489" x2="36.1561" y2="62.8835" gradientUnits="userSpaceOnUse">
<stop stop-color="#FFBC47" stop-opacity="0"/>
<stop offset="1" stop-color="#C86F34"/>
</linearGradient>
<linearGradient id="paint20_linear" x1="36.6838" y1="39.7266" x2="37.1418" y2="25.3344" gradientUnits="userSpaceOnUse">
<stop offset="0.00132565" stop-color="#F0C492"/>
<stop offset="1" stop-color="#F8DBBA"/>
</linearGradient>
<linearGradient id="paint21_linear" x1="29.5293" y1="32.8465" x2="73.9293" y2="60.9025" gradientUnits="userSpaceOnUse">
<stop stop-color="#FFBC47" stop-opacity="0"/>
<stop offset="1" stop-color="#C86F34"/>
</linearGradient>
<linearGradient id="paint22_linear" x1="28.2892" y1="70.5671" x2="39.733" y2="-7.87493" gradientUnits="userSpaceOnUse">
<stop stop-color="#FFBC47" stop-opacity="0"/>
<stop offset="1" stop-color="#C86F34"/>
</linearGradient>
</defs>
</svg>
