<svg width="24" height="24" viewBox="0 0 24 24" fill="none" xmlns="http://www.w3.org/2000/svg">
<path d="M17.6057 5.29688H6.39429L9.93143 15.5026H14.6514H21.1429V11.7883V8.83973C21.1429 6.87973 19.56 5.29688 17.6057 5.29688Z" fill="url(#paint0_linear)"/>
<path opacity="0.75" d="M17.6057 5.29688H6.39429L9.93143 15.5026H14.6514H21.1429V11.7883V8.83973C21.1429 6.87973 19.56 5.29688 17.6057 5.29688Z" fill="url(#paint1_radial)"/>
<path opacity="0.75" d="M17.6057 5.29688H6.39429L9.93143 11.7826H21.1371V8.83402C21.1429 6.87973 19.56 5.29688 17.6057 5.29688Z" fill="url(#paint2_radial)"/>
<path d="M6.39429 5.46826C4.50286 5.46826 2.97144 6.99969 2.97144 8.89112V11.7254V15.3254H9.82286V11.7254V8.89112C9.82286 6.99969 8.28572 5.46826 6.39429 5.46826Z" fill="url(#paint3_linear)"/>
<path d="M4.30266 8.69092C4.14266 8.69092 4.01123 8.81092 4.01123 8.9652V14.9309C4.01123 15.0795 4.14266 15.2052 4.30266 15.2052H9.7598V11.6795V8.69092H4.30266V8.69092Z" fill="url(#paint4_radial)"/>
<path d="M9.7598 11.8224L8.13694 9.82812L4.01123 14.9081C4.01123 15.0738 4.13123 15.2053 4.2798 15.2053H9.7598V11.8224V11.8224Z" fill="url(#paint5_radial)"/>
<path d="M9.7598 11.8224L8.13694 9.82812L4.01123 14.9081C4.01123 15.0738 4.13123 15.2053 4.2798 15.2053H9.7598V11.8224V11.8224Z" fill="url(#paint6_linear)"/>
<path d="M6.00552 11.8794H6.49123L4.01123 14.9365L6.00552 11.8794Z" fill="url(#paint7_linear)"/>
<path d="M6.00561 11.8797H6.49133L4.00562 8.98828L6.00561 11.8797Z" fill="url(#paint8_linear)"/>
<path d="M8.76548 13.068C8.42833 13.4565 7.86833 13.4565 7.53119 13.068L6.49119 11.8794L6.36548 12.0337L7.29691 13.1365C7.51976 13.3937 7.82262 13.5994 8.14833 13.5994C8.47405 13.5994 8.77119 13.3994 8.99976 13.1365L9.75976 12.2451V11.9765L8.76548 13.068Z" fill="url(#paint9_linear)"/>
<path d="M9.7599 11.6795V8.69092H4.27419C4.12562 8.69092 4.00562 8.82806 4.00562 8.99378L7.53133 13.1423C7.86847 13.5423 8.42847 13.5423 8.76562 13.1423L9.7599 11.9766V11.6795V11.6795Z" fill="url(#paint10_radial)"/>
<path d="M6.39432 5.29688C4.44003 5.29688 2.85718 6.87973 2.85718 8.83402V11.7826V15.4969H9.93718V11.7826V8.83402C9.93718 6.87973 8.34861 5.29688 6.39432 5.29688ZM9.64003 15.2054H3.15432V8.83402C3.15432 7.04545 4.61146 5.5883 6.40003 5.5883C8.18861 5.5883 9.64575 7.04545 9.64575 8.83402V15.2054H9.64003Z" fill="url(#paint11_linear)"/>
<path d="M12.5942 12.6512V2.85693L13.9485 4.21122V12.6512C13.9485 13.1255 13.6457 13.5084 13.2685 13.5084C12.8971 13.5084 12.5942 13.1255 12.5942 12.6512Z" fill="url(#paint12_linear)"/>
<path d="M16.9028 2.85693H12.5942V4.74265H16.9028V2.85693Z" fill="url(#paint13_linear)"/>
<path d="M13.72 12.6454C13.72 12.3369 13.52 12.0854 13.2743 12.0854C13.0286 12.0854 12.8286 12.3369 12.8286 12.6454C12.8286 12.954 13.0286 13.2055 13.2743 13.2055C13.52 13.2055 13.72 12.954 13.72 12.6454Z" fill="url(#paint14_linear)"/>
<path opacity="0.75" d="M9.64001 15.2056H3.1543V15.5027H9.64001V15.2056Z" fill="url(#paint15_radial)"/>
<path d="M13.3258 15.4966H10.4858V21.1423H13.3258V15.4966Z" fill="url(#paint16_linear)"/>
<path opacity="0.5" d="M13.3258 15.4966H10.4858V21.1423H13.3258V15.4966Z" fill="url(#paint17_radial)"/>
<path opacity="0.5" d="M10.4858 15.4966V19.9423C10.4858 20.0223 11.1201 20.0851 11.903 20.0851C12.6858 20.0851 13.3201 20.0223 13.3201 19.9423V15.4966H10.4858Z" fill="url(#paint18_linear)"/>
<defs>
<linearGradient id="paint0_linear" x1="13.7696" y1="14.4162" x2="13.7696" y2="5.48729" gradientUnits="userSpaceOnUse">
<stop stop-color="#008EE6"/>
<stop offset="0.688" stop-color="#80DAFE"/>
<stop offset="0.7325" stop-color="#76D5FB"/>
<stop offset="0.8071" stop-color="#5CC8F3"/>
<stop offset="0.9026" stop-color="#32B2E6"/>
<stop offset="1" stop-color="#0099D6"/>
</linearGradient>
<radialGradient id="paint1_radial" cx="0" cy="0" r="1" gradientUnits="userSpaceOnUse" gradientTransform="translate(20.5001 18.4645) scale(13.5939 5.2418)">
<stop stop-color="#440063" stop-opacity="0.75"/>
<stop offset="1" stop-color="#420061" stop-opacity="0"/>
</radialGradient>
<radialGradient id="paint2_radial" cx="0" cy="0" r="1" gradientUnits="userSpaceOnUse" gradientTransform="translate(11.7656 5.48928) scale(11.3409 2.75243)">
<stop stop-color="white" stop-opacity="0.5"/>
<stop offset="1" stop-color="white" stop-opacity="0"/>
</radialGradient>
<linearGradient id="paint3_linear" x1="-1.6604" y1="4.80754" x2="15.8388" y2="18.8856" gradientUnits="userSpaceOnUse">
<stop stop-color="#8EA5A8"/>
<stop offset="0.9987"/>
</linearGradient>
<radialGradient id="paint4_radial" cx="0" cy="0" r="1" gradientUnits="userSpaceOnUse" gradientTransform="translate(5.43538 11.9855) scale(3.07184 3.98603)">
<stop stop-color="white"/>
<stop offset="0.2165" stop-color="#FFFCF9"/>
<stop offset="0.5184" stop-color="#FDF3E6"/>
<stop offset="0.8689" stop-color="#FBE4C9"/>
<stop offset="1" stop-color="#FADDBC"/>
</radialGradient>
<radialGradient id="paint5_radial" cx="0" cy="0" r="1" gradientUnits="userSpaceOnUse" gradientTransform="translate(7.84511 14.6016) rotate(0.967811) scale(6.78378 2.43019)">
<stop stop-color="white"/>
<stop offset="0.2165" stop-color="#FFFCF9"/>
<stop offset="0.5184" stop-color="#FDF3E6"/>
<stop offset="0.8689" stop-color="#FBE4C9"/>
<stop offset="1" stop-color="#FADDBC"/>
</radialGradient>
<linearGradient id="paint6_linear" x1="6.883" y1="15.5425" x2="6.883" y2="11.509" gradientUnits="userSpaceOnUse">
<stop stop-color="white"/>
<stop offset="0.2165" stop-color="#FFFCF9"/>
<stop offset="0.5184" stop-color="#FDF3E6"/>
<stop offset="0.8689" stop-color="#FBE4C9"/>
<stop offset="1" stop-color="#FADDBC"/>
</linearGradient>
<linearGradient id="paint7_linear" x1="7.65316" y1="8.54863" x2="3.99602" y2="15.9486" gradientUnits="userSpaceOnUse">
<stop offset="0.00132565" stop-color="#FCD2A8"/>
<stop offset="0.9987" stop-color="#FBB87A" stop-opacity="0"/>
</linearGradient>
<linearGradient id="paint8_linear" x1="6.47151" y1="7.96492" x2="2.81437" y2="15.3649" gradientUnits="userSpaceOnUse">
<stop offset="0.00132565" stop-color="#FCD2A8"/>
<stop offset="0.9987" stop-color="#FBB87A" stop-opacity="0"/>
</linearGradient>
<linearGradient id="paint9_linear" x1="8.08207" y1="10.0835" x2="8.03612" y2="15.1067" gradientUnits="userSpaceOnUse">
<stop offset="0.00132565" stop-color="#FCD2A8"/>
<stop offset="0.9987" stop-color="#FBB87A" stop-opacity="0"/>
</linearGradient>
<radialGradient id="paint10_radial" cx="0" cy="0" r="1" gradientUnits="userSpaceOnUse" gradientTransform="translate(8.63551 11.447) scale(6.66444 6.23981)">
<stop stop-color="white"/>
<stop offset="0.2165" stop-color="#FFFCF9"/>
<stop offset="0.5184" stop-color="#FDF3E6"/>
<stop offset="0.8689" stop-color="#FBE4C9"/>
<stop offset="1" stop-color="#FADDBC"/>
</radialGradient>
<linearGradient id="paint11_linear" x1="0.0549948" y1="26.1902" x2="13.1596" y2="-3.56229" gradientUnits="userSpaceOnUse">
<stop stop-color="#008EE6"/>
<stop offset="0.688" stop-color="#80DAFE"/>
<stop offset="0.7325" stop-color="#76D5FB"/>
<stop offset="0.8071" stop-color="#5CC8F3"/>
<stop offset="0.9026" stop-color="#32B2E6"/>
<stop offset="1" stop-color="#0099D6"/>
</linearGradient>
<linearGradient id="paint12_linear" x1="13.7955" y1="3.04693" x2="12.9877" y2="10.3694" gradientUnits="userSpaceOnUse">
<stop stop-color="#BD2719"/>
<stop offset="0.2151" stop-color="#D41A10"/>
<stop offset="0.5049" stop-color="#EC0C07"/>
<stop offset="0.774" stop-color="#FA0302"/>
<stop offset="1" stop-color="#FF0000"/>
</linearGradient>
<linearGradient id="paint13_linear" x1="13.4081" y1="8.17401" x2="15.3038" y2="1.98423" gradientUnits="userSpaceOnUse">
<stop stop-color="#FC8D41"/>
<stop offset="0.0900324" stop-color="#FC7837"/>
<stop offset="0.294" stop-color="#FD4D24"/>
<stop offset="0.4922" stop-color="#FE2C14"/>
<stop offset="0.6802" stop-color="#FF1409"/>
<stop offset="0.854" stop-color="#FF0502"/>
<stop offset="1" stop-color="#FF0000"/>
</linearGradient>
<linearGradient id="paint14_linear" x1="13.1037" y1="12.0855" x2="14.6076" y2="17.0404" gradientUnits="userSpaceOnUse">
<stop stop-color="#BD2719"/>
<stop offset="0.2151" stop-color="#D41A10"/>
<stop offset="0.5049" stop-color="#EC0C07"/>
<stop offset="0.774" stop-color="#FA0302"/>
<stop offset="1" stop-color="#FF0000"/>
</linearGradient>
<radialGradient id="paint15_radial" cx="0" cy="0" r="1" gradientUnits="userSpaceOnUse" gradientTransform="translate(11.9752 20.8079) scale(16.9039 16.9043)">
<stop stop-color="#440063" stop-opacity="0.75"/>
<stop offset="1" stop-color="#420061" stop-opacity="0"/>
</radialGradient>
<linearGradient id="paint16_linear" x1="8.18457" y1="19.6917" x2="16.0978" y2="16.7763" gradientUnits="userSpaceOnUse">
<stop stop-color="#939FA1"/>
<stop offset="0.1854" stop-color="#8E999B"/>
<stop offset="0.4439" stop-color="#7F8788"/>
<stop offset="0.7438" stop-color="#666B6B"/>
<stop offset="1" stop-color="#4D4D4C"/>
</linearGradient>
<radialGradient id="paint17_radial" cx="0" cy="0" r="1" gradientUnits="userSpaceOnUse" gradientTransform="translate(11.7528 18.8035) rotate(90.0299) scale(2.77767 1.11766)">
<stop stop-color="#DEE7E8" stop-opacity="0.5"/>
<stop offset="0.9111" stop-color="#DEE7E8" stop-opacity="0"/>
</radialGradient>
<linearGradient id="paint18_linear" x1="12.0688" y1="19.8096" x2="11.6688" y2="14.6832" gradientUnits="userSpaceOnUse">
<stop stop-opacity="0"/>
<stop offset="1"/>
</linearGradient>
</defs>
</svg>
