<svg width="80" height="80" viewBox="0 0 80 80" fill="none" xmlns="http://www.w3.org/2000/svg">
<path d="M55.8718 68.8018C55.8718 65.8189 56.1235 61.5345 56.1235 59.5204C56.1235 57.5062 58.7866 55.0866 58.7866 45.6473C58.7866 36.208 55.4791 34.2706 53.0593 34.3517C50.6395 34.4328 50.3407 32.5466 47.7246 32.0388C45.7145 31.6505 45.3261 32.6277 44.033 32.6277C42.7441 32.6277 42.0741 30.7202 39.9018 30.7202C37.7295 30.7202 35.9541 32.4143 35.9541 32.4143C35.9541 32.4143 35.2414 31.3688 31.5967 31.4969C26.8809 31.659 27.4399 37.3047 27.4399 40.39C27.4399 43.4752 27.3588 36.6689 27.3588 36.6689C27.3588 36.6689 19.9628 34.1725 21.1236 45.0712C21.2602 46.3514 19.8561 56.1022 32.079 60.8091C32.079 60.8091 33.3977 61.2102 31.8571 69.9028C31.8571 69.9028 32.5185 73.9994 42.8721 73.9994C53.9982 74.0079 55.8718 68.8018 55.8718 68.8018Z" fill="url(#paint0_linear)"/>
<path d="M35.954 32.4189C35.954 32.4189 37.2045 31.2326 38.8902 30.8442C38.0538 31.1259 36.4534 33.0633 35.7791 34.113C35.7791 34.113 33.2568 31.4246 31.5967 31.4971C35.1346 31.3392 35.954 32.4189 35.954 32.4189Z" fill="url(#paint1_linear)"/>
<path d="M47.4043 31.9919C46.8538 31.9535 46.9904 33.3489 44.3487 33.4898C44.3487 33.4898 42.744 32.6363 44.0329 32.6363C45.2534 32.632 45.6716 31.7615 47.4043 31.9919Z" fill="url(#paint2_linear)"/>
<path d="M54.7748 65.4736C54.3523 58.2747 48.9067 63.4082 54.7151 55.6716C58.0354 51.2506 57.1946 42.9635 56.8319 39.699C56.4691 36.4302 53.6865 35.7645 51.749 35.2823C50.0675 34.8599 49.4359 32.6921 48.0787 32.1245C50.3705 32.7262 50.7546 34.4289 53.0592 34.3521C55.479 34.271 58.7865 36.2083 58.7865 45.6476C58.7865 55.087 56.1234 57.5065 56.1234 59.5207C56.1234 61.5349 55.8716 65.8193 55.8716 68.8021C55.8716 68.8021 55.2272 70.5944 52.4446 72.0752C52.9568 70.364 54.9285 68.081 54.7748 65.4736Z" fill="url(#paint3_linear)"/>
<path d="M32.0832 60.8181C25.6986 58.3601 22.1991 54.1782 21.337 48.8525C24.222 56.6788 32.5057 58.821 33.594 60.4554C34.5969 61.9618 35.348 66.5619 32.702 71.3029C31.9594 70.5391 31.8613 69.9161 31.8613 69.9161C33.4019 61.2193 32.0832 60.8181 32.0832 60.8181Z" fill="url(#paint4_linear)"/>
<path d="M43.5677 73.9998C42.7056 68.6358 46.6405 63.6516 46.6405 55.4412C46.6405 46.4287 52.513 41.7005 49.2737 32.6025C50.6053 33.3451 51.2241 34.4162 53.0593 34.3521C55.4791 34.2711 58.7867 36.2084 58.7867 45.6477C58.7867 55.0871 56.1236 57.5066 56.1236 59.5208C56.1236 61.535 55.8718 65.8194 55.8718 68.8022C55.8718 68.8022 54.075 73.7865 43.5677 73.9998Z" fill="url(#paint5_linear)"/>
<path opacity="0.08" d="M34.2555 35.4058C36.7991 35.4058 38.2501 34.5566 40.3072 34.5566C42.3642 34.5566 49.0219 35.8027 49.0219 40.245C49.0219 44.6873 45.3901 53.6999 41.3955 54.8393C37.4008 55.9786 30.2993 50.5207 29.6976 46.885C29.0958 43.2492 30.2609 35.4058 34.2555 35.4058Z" fill="url(#paint6_radial)"/>
<path d="M44.3488 34.0149C44.3488 34.0149 44.3787 20.159 44.3787 15.802C44.3787 11.4451 44.7415 6 40.0213 6C35.301 6 35.8644 11.8078 35.8644 14.8931C35.8644 17.9784 35.7833 36.6778 35.7833 36.6778" fill="url(#paint7_linear)"/>
<path d="M44.3489 33.4901C43.7258 33.537 43.0045 32.9865 43.0045 29.9994C43.0045 27.0123 42.7612 15.4948 42.7612 10.8391C42.7612 8.05685 41.6772 6 40.0169 6C44.7373 6 44.3745 11.4451 44.3745 15.802C44.3745 20.159 44.3489 32.6153 44.3489 32.6153V33.4901Z" fill="url(#paint8_linear)"/>
<path opacity="0.08" d="M40.0212 34.1985C36.5345 34.1985 38.2544 21.1448 38.2544 19.1178C38.2544 17.0951 36.7351 9.60596 39.5689 9.60596C40.9858 9.60596 42.2021 12.9473 41.2888 19.5232C40.3755 26.0992 43.508 34.1985 40.0212 34.1985Z" fill="url(#paint9_radial)"/>
<path d="M23.7483 36.8186C25.3913 39.81 26.7869 43.5653 27.5039 47.8369V42.396L27.2905 36.6522C26.932 36.5498 25.2761 36.1273 23.7483 36.8186Z" fill="url(#paint10_linear)"/>
<path d="M27.474 36.7202L27.363 36.6732C27.363 36.6732 26.582 36.4129 25.5706 36.43C25.7328 37.1128 25.8394 37.8169 25.8736 38.5466C26.0656 42.6944 27.6489 48.0457 27.6489 48.0457L27.474 36.7202Z" fill="url(#paint11_linear)"/>
<path d="M27.6832 48.3487C27.6832 48.3487 27.4698 36.8013 27.4698 36.7203C27.4698 36.7203 27.3119 36.5581 26.8893 36.5581C26.7613 36.5624 26.629 45.033 27.6832 48.3487Z" fill="#3D2A20"/>
<defs>
<linearGradient id="paint0_linear" x1="51.8225" y1="68.542" x2="33.3977" y2="32.0899" gradientUnits="userSpaceOnUse">
<stop offset="0.00132565" stop-color="#5A4539"/>
<stop offset="1" stop-color="#695042"/>
</linearGradient>
<linearGradient id="paint1_linear" x1="33.6487" y1="21.9073" x2="36.8869" y2="40.7314" gradientUnits="userSpaceOnUse">
<stop offset="0.3072" stop-color="#473226" stop-opacity="0"/>
<stop offset="1" stop-color="#473226"/>
</linearGradient>
<linearGradient id="paint2_linear" x1="44.0865" y1="6.61557" x2="46.667" y2="54.7379" gradientUnits="userSpaceOnUse">
<stop offset="0.3072" stop-color="#473226" stop-opacity="0"/>
<stop offset="1" stop-color="#473226"/>
</linearGradient>
<linearGradient id="paint3_linear" x1="37.5786" y1="51.1993" x2="94.5622" y2="55.2483" gradientUnits="userSpaceOnUse">
<stop stop-color="#3C2200" stop-opacity="0"/>
<stop offset="0.9984"/>
</linearGradient>
<linearGradient id="paint4_linear" x1="31.9472" y1="49.7603" x2="14.8447" y2="85.6892" gradientUnits="userSpaceOnUse">
<stop stop-color="#3C2200" stop-opacity="0"/>
<stop offset="0.9984"/>
</linearGradient>
<linearGradient id="paint5_linear" x1="42.3708" y1="42.6033" x2="76.6773" y2="97.8642" gradientUnits="userSpaceOnUse">
<stop stop-color="#473226" stop-opacity="0"/>
<stop offset="1" stop-color="#473226"/>
</linearGradient>
<radialGradient id="paint6_radial" cx="0" cy="0" r="1" gradientUnits="userSpaceOnUse" gradientTransform="translate(39.2665 40.2332) rotate(180) scale(10.3594 5.25976)">
<stop stop-color="#F8DBBA"/>
<stop offset="1" stop-color="#CD9870" stop-opacity="0"/>
</radialGradient>
<linearGradient id="paint7_linear" x1="54.7988" y1="76.1054" x2="41.6436" y2="29.2471" gradientUnits="userSpaceOnUse">
<stop offset="0.00132565" stop-color="#5A4539"/>
<stop offset="1" stop-color="#695042"/>
</linearGradient>
<linearGradient id="paint8_linear" x1="42.0597" y1="6.72443" x2="44.64" y2="54.847" gradientUnits="userSpaceOnUse">
<stop offset="0.3072" stop-color="#473226" stop-opacity="0"/>
<stop offset="1" stop-color="#473226"/>
</linearGradient>
<radialGradient id="paint9_radial" cx="0" cy="0" r="1" gradientUnits="userSpaceOnUse" gradientTransform="translate(39.7733 21.9012) rotate(91.5883) scale(12.7025 1.48186)">
<stop stop-color="#F8DBBA"/>
<stop offset="1" stop-color="#CD9870" stop-opacity="0"/>
</radialGradient>
<linearGradient id="paint10_linear" x1="20.3837" y1="27.2022" x2="32.907" y2="54.0728" gradientUnits="userSpaceOnUse">
<stop offset="0.3072" stop-color="#473226" stop-opacity="0"/>
<stop offset="1" stop-color="#473226"/>
</linearGradient>
<linearGradient id="paint11_linear" x1="24.2776" y1="24.8514" x2="30.0458" y2="57.1864" gradientUnits="userSpaceOnUse">
<stop offset="0.3072" stop-color="#473226" stop-opacity="0"/>
<stop offset="1" stop-color="#473226"/>
</linearGradient>
</defs>
</svg>
