<svg width="80" height="80" viewBox="0 0 80 80" fill="none" xmlns="http://www.w3.org/2000/svg">
<path d="M40.475 69.95C57.3059 69.95 70.95 56.3059 70.95 39.475C70.95 22.6441 57.3059 9 40.475 9C23.6441 9 10 22.6441 10 39.475C10 56.3059 23.6441 69.95 40.475 69.95Z" fill="url(#paint0_radial)"/>
<path opacity="0.5" d="M40.475 69.95C57.3059 69.95 70.95 56.3059 70.95 39.475C70.95 22.6441 57.3059 9 40.475 9C23.6441 9 10 22.6441 10 39.475C10 56.3059 23.6441 69.95 40.475 69.95Z" fill="url(#paint1_radial)"/>
<path d="M40.475 69.95C57.3059 69.95 70.95 56.3059 70.95 39.475C70.95 22.6441 57.3059 9 40.475 9C23.6441 9 10 22.6441 10 39.475C10 56.3059 23.6441 69.95 40.475 69.95Z" fill="url(#paint2_radial)"/>
<path d="M33.7705 21.0199C33.7705 19.8009 32.4523 19.0355 30.1844 19.0355C28.2566 19.0355 24.0185 20.0986 21.0986 23.8548C20.5599 24.5493 21.382 24.932 21.9207 24.4785C23.7208 22.9476 28.526 20.9916 32.2822 21.4026C33.7847 21.5727 33.7705 21.0199 33.7705 21.0199Z" fill="url(#paint3_linear)"/>
<path d="M47.1796 21.0199C47.1796 19.8009 48.4978 19.0355 50.7657 19.0355C52.6934 19.0355 56.9316 20.0986 59.8515 23.8548C60.3901 24.5493 59.568 24.932 59.0294 24.4785C57.2292 22.9476 52.4241 20.9916 48.6679 21.4026C47.1654 21.5727 47.1796 21.0199 47.1796 21.0199Z" fill="url(#paint4_linear)"/>
<path d="M40.475 59.4468C24.4721 59.4468 19.341 43.132 24.217 45.6834C30.7655 49.1136 34.9045 50.1058 40.475 50.1058C46.0314 50.1058 50.1845 49.1136 56.7331 45.6834C61.6091 43.1462 56.4779 59.4468 40.475 59.4468Z" fill="#643800"/>
<path d="M50.0994 52.7706C50.0994 51.7926 49.1639 51.0697 48.2143 51.3532C45.9463 52.0335 43.3666 52.4304 40.475 52.4304C37.5834 52.4304 35.0037 52.0194 32.7358 51.3532C31.8003 51.0697 30.8506 51.7926 30.8506 52.7706V61.4312C30.8506 66.7466 35.1596 71.2682 40.475 71.2682C45.7904 71.2682 50.0994 66.7466 50.0994 61.4312V59.2341V52.7706Z" fill="url(#paint5_radial)"/>
<path d="M50.0994 52.7706C50.0994 51.7926 49.1639 51.0697 48.2143 51.3532C45.9463 52.0335 43.3666 52.4304 40.475 52.4304C37.5834 52.4304 35.0037 52.0194 32.7358 51.3532C31.8003 51.0697 30.8506 51.7926 30.8506 52.7706V61.4312C30.8506 66.7466 35.1596 71.2682 40.475 71.2682C45.7904 71.2682 50.0994 66.7466 50.0994 61.4312V59.2341V52.7706Z" fill="url(#paint6_radial)"/>
<path d="M56.7331 45.6976C50.1845 49.1278 46.0455 50.12 40.475 50.12C34.9186 50.12 30.7655 49.1278 24.2169 45.6976C22.516 44.8046 22.0341 46.2079 22.7995 48.4049C22.7995 48.3624 23.0546 46.0094 25.3509 47.6253C25.3509 47.6253 25.3651 47.6253 25.3651 47.6395C28.7811 50.2617 33.7989 52.4304 40.475 52.4304C47.1512 52.4304 52.1689 50.2617 55.5849 47.6395C55.5849 47.6395 55.5991 47.6395 55.5991 47.6253C57.8954 45.9952 58.1505 48.3482 58.1505 48.4049C58.9159 46.2079 58.4198 44.8046 56.7331 45.6976Z" fill="url(#paint7_linear)"/>
<path opacity="0.5" d="M40.475 52.4446C37.5834 52.4446 35.0037 52.0336 32.7358 51.3674C31.8003 51.0839 30.8506 51.8068 30.8506 52.7848C30.8506 54.4857 30.8506 56.4276 30.8506 56.4276C30.8506 56.4276 30.964 54.1172 40.475 54.1172C49.9719 54.1172 50.0994 56.4276 50.0994 56.4276C50.0994 56.4276 50.0994 54.4857 50.0994 52.7848C50.0994 51.8068 49.1639 51.0839 48.2143 51.3674C45.9463 52.0336 43.3666 52.4446 40.475 52.4446Z" fill="#366E0D"/>
<path opacity="0.24" d="M40.475 52.4446C40.1348 52.4446 39.8088 52.4162 39.4828 52.4021C39.497 64.0109 39.9364 68.0648 40.475 68.0648C41.0136 68.0648 41.453 64.0676 41.4672 52.4021C41.1412 52.4021 40.8152 52.4446 40.475 52.4446Z" fill="url(#paint8_linear)"/>
<path d="M29.7308 41.2468V43.1887H28.5543V41.2468C26.2297 41.0342 24.713 39.6309 24.5854 37.5756H26.3998C26.4423 38.9364 27.4912 39.7727 29.178 39.7727C30.8364 39.7727 31.8427 38.9647 31.8427 37.7883C31.8427 36.47 31.0348 36.059 29.6174 35.6337L27.8456 35.1235C26.1163 34.6132 24.7555 33.6493 24.7555 31.7499C24.7555 29.723 26.2439 28.2772 28.5543 28.0788V26.1085H29.7308V28.0929C31.8427 28.3339 33.2318 29.7088 33.3311 31.7216H31.5593C31.4884 30.375 30.4962 29.5246 28.9512 29.5246C27.4345 29.5246 26.5132 30.3325 26.5132 31.5799C26.5132 32.7138 27.4062 33.2241 28.5401 33.5501L30.7371 34.1879C32.92 34.8258 33.6571 36.0873 33.6571 37.6465C33.6854 39.7018 32.0837 41.0484 29.7308 41.2468Z" fill="url(#paint9_linear)"/>
<path d="M52.3957 41.2468V43.1887H51.2192V41.2468C48.8946 41.0342 47.3779 39.6309 47.2504 37.5756H49.0647C49.1072 38.9364 50.1561 39.7727 51.8429 39.7727C53.5013 39.7727 54.5077 38.9647 54.5077 37.7883C54.5077 36.47 53.6997 36.059 52.2823 35.6337L50.5105 35.1235C48.7812 34.6132 47.4205 33.6493 47.4205 31.7499C47.4205 29.723 48.9088 28.2772 51.2192 28.0788V26.1085H52.3957V28.0929C54.5077 28.3339 55.8968 29.7088 55.996 31.7216H54.2242C54.1533 30.375 53.1611 29.5246 51.6161 29.5246C50.0994 29.5246 49.1781 30.3325 49.1781 31.5799C49.1781 32.7138 50.0711 33.2241 51.205 33.5501L53.4021 34.1879C55.5991 34.8258 56.3503 36.0731 56.3503 37.6323C56.3503 39.7018 54.7486 41.0484 52.3957 41.2468Z" fill="url(#paint10_linear)"/>
<path d="M52.3956 28.7166C54.2808 28.9292 55.5849 30.0632 55.9251 31.7358H56.0101C55.8967 29.723 54.5218 28.3481 52.4098 28.1071V28.7166H52.3956Z" fill="url(#paint11_linear)"/>
<path d="M53.4162 34.1738L51.2192 33.5359C50.1986 33.2524 49.3624 32.7989 49.2206 31.8633C49.2064 31.9626 49.1923 32.076 49.1923 32.1752C49.1923 33.3091 50.0852 33.8194 51.2192 34.1454L53.4162 34.7833C55.4148 35.3644 56.1944 36.4842 56.322 37.8733C56.322 37.7882 56.3503 37.7174 56.3503 37.6323C56.3503 36.0731 55.5991 34.8258 53.4162 34.1738Z" fill="url(#paint12_linear)"/>
<path d="M51.2193 28.6883V28.0788C48.9088 28.2772 47.4205 29.723 47.4205 31.7499C47.4205 31.8633 47.4347 31.9484 47.4489 32.0618C47.6048 30.1908 49.0364 28.8725 51.2193 28.6883Z" fill="url(#paint13_linear)"/>
<path d="M49.0647 38.1851C49.1072 39.5459 50.1561 40.3822 51.8429 40.3822C53.5013 40.3822 54.5077 39.5742 54.5077 38.3978C54.5077 38.2702 54.4935 38.1568 54.4793 38.0434C54.3376 39.0639 53.3737 39.7585 51.8429 39.7585C50.1561 39.7585 49.1072 38.9222 49.0647 37.5615H47.2504C47.2645 37.7741 47.3071 37.9725 47.3496 38.171H49.0647V38.1851Z" fill="url(#paint14_linear)"/>
<path d="M52.3957 26.1085H51.2192V26.718H52.3957V26.1085Z" fill="url(#paint15_linear)"/>
<path d="M29.7307 28.7166C31.6159 28.9292 32.92 30.0632 33.2601 31.7358H33.3452C33.2318 29.723 31.8569 28.3481 29.7449 28.1071V28.7166H29.7307Z" fill="url(#paint16_linear)"/>
<path d="M30.7513 34.1738L28.5543 33.5359C27.5337 33.2524 26.6974 32.7989 26.5557 31.8633C26.5415 31.9626 26.5273 32.076 26.5273 32.1752C26.5273 33.3091 27.4203 33.8194 28.5543 34.1454L30.7513 34.7833C32.7499 35.3644 33.5295 36.4842 33.6571 37.8733C33.6571 37.7882 33.6854 37.7174 33.6854 37.6323C33.6854 36.0731 32.9342 34.8258 30.7513 34.1738Z" fill="url(#paint17_linear)"/>
<path d="M28.5544 28.6883V28.0788C26.2439 28.2772 24.7556 29.723 24.7556 31.7499C24.7556 31.8633 24.7698 31.9484 24.784 32.0618C24.9399 30.1908 26.3715 28.8725 28.5544 28.6883Z" fill="url(#paint18_linear)"/>
<path d="M26.3998 38.1851C26.4423 39.5459 27.4912 40.3822 29.178 40.3822C30.8364 40.3822 31.8428 39.5742 31.8428 38.3978C31.8428 38.2702 31.8286 38.1568 31.8144 38.0434C31.6727 39.0639 30.7088 39.7585 29.178 39.7585C27.4912 39.7585 26.4423 38.9222 26.3998 37.5615H24.5854C24.5996 37.7741 24.6421 37.9725 24.6847 38.171H26.3998V38.1851Z" fill="url(#paint19_linear)"/>
<path d="M29.7308 26.1085H28.5543V26.718H29.7308V26.1085Z" fill="url(#paint20_linear)"/>
<path d="M40.9852 67.5971V69.298H39.9647V67.5971C37.9236 67.4128 36.6053 66.1796 36.4919 64.3795H38.0795C38.122 65.5701 39.0292 66.3072 40.5033 66.3072C41.9633 66.3072 42.8421 65.5985 42.8421 64.5637C42.8421 63.4014 42.1334 63.0471 40.9002 62.6785L39.3552 62.225C37.8385 61.7714 36.6479 60.9351 36.6479 59.2767C36.6479 57.5049 37.9519 56.2292 39.9788 56.0591V54.3582H40.9994V56.1016C42.8421 56.3 44.0611 57.5191 44.1603 59.2767H42.6011C42.5444 58.1002 41.6656 57.349 40.319 57.349C38.9866 57.349 38.1929 58.0577 38.1929 59.1349C38.1929 60.1271 38.9725 60.5665 39.9647 60.85L41.8924 61.417C43.7918 61.984 44.4438 63.0754 44.4438 64.4362C44.4438 66.2505 43.0405 67.427 40.9852 67.5971Z" fill="url(#paint21_linear)"/>
<path d="M40.9852 56.6261C42.6437 56.8103 43.7776 57.8025 44.0611 59.2625H44.132C44.0327 57.5049 42.8279 56.2859 40.9711 56.0874V56.6261H40.9852Z" fill="url(#paint22_linear)"/>
<path d="M41.8924 61.417L39.9647 60.85C39.0717 60.5949 38.3488 60.198 38.2212 59.3901C38.207 59.4751 38.1929 59.5743 38.1929 59.6736C38.1929 60.6658 38.9725 61.1052 39.9647 61.3887L41.8924 61.9556C43.6358 62.4659 44.3304 63.444 44.4296 64.6488C44.4296 64.5779 44.4438 64.507 44.4438 64.4362C44.4438 63.0754 43.7918 61.9698 41.8924 61.417Z" fill="url(#paint23_linear)"/>
<path d="M39.9647 56.6119V56.0733C37.9519 56.2434 36.6337 57.5049 36.6337 59.2909C36.6337 59.3901 36.6478 59.4751 36.662 59.5602C36.7896 57.9301 38.0511 56.7678 39.9647 56.6119Z" fill="url(#paint24_linear)"/>
<path d="M38.0795 64.9181C38.122 66.1088 39.0292 66.8458 40.5033 66.8458C41.9633 66.8458 42.8421 66.1371 42.8421 65.1024C42.8421 64.989 42.8279 64.8898 42.8137 64.7906C42.6862 65.6835 41.8499 66.293 40.5033 66.293C39.0292 66.293 38.1078 65.5702 38.0795 64.3653H36.4919C36.5061 64.5496 36.5345 64.7339 36.577 64.904H38.0795V64.9181Z" fill="url(#paint25_linear)"/>
<path d="M40.9853 54.3582H39.9647V54.8968H40.9853V54.3582Z" fill="url(#paint26_linear)"/>
<defs>
<radialGradient id="paint0_radial" cx="0" cy="0" r="1" gradientUnits="userSpaceOnUse" gradientTransform="translate(34.479 27.1245) scale(36.7641)">
<stop stop-color="#FFDF30"/>
<stop offset="1" stop-color="#FFB82E"/>
</radialGradient>
<radialGradient id="paint1_radial" cx="0" cy="0" r="1" gradientUnits="userSpaceOnUse" gradientTransform="translate(34.479 27.1245) scale(28.924)">
<stop stop-color="#FFE95F"/>
<stop offset="1" stop-color="#FFBB47" stop-opacity="0"/>
</radialGradient>
<radialGradient id="paint2_radial" cx="0" cy="0" r="1" gradientUnits="userSpaceOnUse" gradientTransform="translate(40.5702 64.1784) scale(15.8006 5.69928)">
<stop stop-color="#7A4400" stop-opacity="0.5"/>
<stop offset="0.6008" stop-color="#894D00" stop-opacity="0.1981"/>
<stop offset="0.995" stop-color="#965500" stop-opacity="0"/>
</radialGradient>
<linearGradient id="paint3_linear" x1="27.3442" y1="23.0612" x2="27.3442" y2="19.85" gradientUnits="userSpaceOnUse">
<stop offset="0.00132565" stop-color="#3C2200"/>
<stop offset="1" stop-color="#7A4400"/>
</linearGradient>
<linearGradient id="paint4_linear" x1="53.6058" y1="23.0612" x2="53.6058" y2="19.85" gradientUnits="userSpaceOnUse">
<stop offset="0.00132565" stop-color="#3C2200"/>
<stop offset="1" stop-color="#7A4400"/>
</linearGradient>
<radialGradient id="paint5_radial" cx="0" cy="0" r="1" gradientUnits="userSpaceOnUse" gradientTransform="translate(40.4746 58.5024) scale(9.80561 18.2581)">
<stop stop-color="#7CEB00"/>
<stop offset="1" stop-color="#2F9200"/>
</radialGradient>
<radialGradient id="paint6_radial" cx="0" cy="0" r="1" gradientUnits="userSpaceOnUse" gradientTransform="translate(43.3715 64.4215) rotate(-39.9023) scale(10.0997 6.12476)">
<stop stop-color="white" stop-opacity="0.33"/>
<stop offset="1" stop-color="white" stop-opacity="0"/>
</radialGradient>
<linearGradient id="paint7_linear" x1="40.4746" y1="39.6764" x2="40.4746" y2="52.0924" gradientUnits="userSpaceOnUse">
<stop offset="0.00132565" stop-color="#3C2200"/>
<stop offset="1" stop-color="#512D00"/>
</linearGradient>
<linearGradient id="paint8_linear" x1="40.4741" y1="90.9562" x2="40.4741" y2="47.0718" gradientUnits="userSpaceOnUse">
<stop stop-color="#7CEB00"/>
<stop offset="1" stop-color="#2F9200"/>
</linearGradient>
<linearGradient id="paint9_linear" x1="29.1344" y1="6.58052" x2="29.1344" y2="65.5206" gradientUnits="userSpaceOnUse">
<stop offset="0.00132565" stop-color="#3C2200"/>
<stop offset="1" stop-color="#7A4400"/>
</linearGradient>
<linearGradient id="paint10_linear" x1="51.8002" y1="6.58052" x2="51.8002" y2="65.5206" gradientUnits="userSpaceOnUse">
<stop offset="0.00132565" stop-color="#3C2200"/>
<stop offset="1" stop-color="#7A4400"/>
</linearGradient>
<linearGradient id="paint11_linear" x1="54.2011" y1="23.1921" x2="54.2011" y2="33.8321" gradientUnits="userSpaceOnUse">
<stop offset="0.00132565" stop-color="#3C2200"/>
<stop offset="1" stop-color="#512D00"/>
</linearGradient>
<linearGradient id="paint12_linear" x1="52.7715" y1="23.7494" x2="52.7715" y2="41.3629" gradientUnits="userSpaceOnUse">
<stop offset="0.00132565" stop-color="#3C2200"/>
<stop offset="1" stop-color="#512D00"/>
</linearGradient>
<linearGradient id="paint13_linear" x1="49.3251" y1="22.697" x2="49.3251" y2="34.3642" gradientUnits="userSpaceOnUse">
<stop offset="0.00132565" stop-color="#3C2200"/>
<stop offset="1" stop-color="#512D00"/>
</linearGradient>
<linearGradient id="paint14_linear" x1="50.8829" y1="33.7748" x2="50.8829" y2="42.014" gradientUnits="userSpaceOnUse">
<stop offset="0.00132565" stop-color="#3C2200"/>
<stop offset="1" stop-color="#512D00"/>
</linearGradient>
<linearGradient id="paint15_linear" x1="51.8113" y1="25.2865" x2="51.8113" y2="27.0802" gradientUnits="userSpaceOnUse">
<stop offset="0.00132565" stop-color="#3C2200"/>
<stop offset="1" stop-color="#512D00"/>
</linearGradient>
<linearGradient id="paint16_linear" x1="31.5353" y1="23.1921" x2="31.5353" y2="33.8321" gradientUnits="userSpaceOnUse">
<stop offset="0.00132565" stop-color="#3C2200"/>
<stop offset="1" stop-color="#512D00"/>
</linearGradient>
<linearGradient id="paint17_linear" x1="30.1057" y1="23.7494" x2="30.1057" y2="41.3629" gradientUnits="userSpaceOnUse">
<stop offset="0.00132565" stop-color="#3C2200"/>
<stop offset="1" stop-color="#512D00"/>
</linearGradient>
<linearGradient id="paint18_linear" x1="26.6593" y1="22.697" x2="26.6593" y2="34.3642" gradientUnits="userSpaceOnUse">
<stop offset="0.00132565" stop-color="#3C2200"/>
<stop offset="1" stop-color="#512D00"/>
</linearGradient>
<linearGradient id="paint19_linear" x1="28.2171" y1="33.7748" x2="28.2171" y2="42.014" gradientUnits="userSpaceOnUse">
<stop offset="0.00132565" stop-color="#3C2200"/>
<stop offset="1" stop-color="#512D00"/>
</linearGradient>
<linearGradient id="paint20_linear" x1="29.1455" y1="25.2865" x2="29.1455" y2="27.0802" gradientUnits="userSpaceOnUse">
<stop offset="0.00132565" stop-color="#3C2200"/>
<stop offset="1" stop-color="#512D00"/>
</linearGradient>
<linearGradient id="paint21_linear" x1="40.4677" y1="34.1507" x2="40.4677" y2="77.9669" gradientUnits="userSpaceOnUse">
<stop offset="0.00132565" stop-color="#3C2200"/>
<stop offset="1" stop-color="#7A4400"/>
</linearGradient>
<linearGradient id="paint22_linear" x1="42.5688" y1="51.7991" x2="42.5688" y2="61.1104" gradientUnits="userSpaceOnUse">
<stop offset="0.00132565" stop-color="#3C2200"/>
<stop offset="1" stop-color="#512D00"/>
</linearGradient>
<linearGradient id="paint23_linear" x1="41.3177" y1="52.2868" x2="41.3177" y2="67.7006" gradientUnits="userSpaceOnUse">
<stop offset="0.00132565" stop-color="#3C2200"/>
<stop offset="1" stop-color="#512D00"/>
</linearGradient>
<linearGradient id="paint24_linear" x1="38.3016" y1="51.3658" x2="38.3016" y2="61.576" gradientUnits="userSpaceOnUse">
<stop offset="0.00132565" stop-color="#3C2200"/>
<stop offset="1" stop-color="#512D00"/>
</linearGradient>
<linearGradient id="paint25_linear" x1="39.6649" y1="61.0602" x2="39.6649" y2="68.2705" gradientUnits="userSpaceOnUse">
<stop offset="0.00132565" stop-color="#3C2200"/>
<stop offset="1" stop-color="#512D00"/>
</linearGradient>
<linearGradient id="paint26_linear" x1="40.4774" y1="53.632" x2="40.4774" y2="55.2017" gradientUnits="userSpaceOnUse">
<stop offset="0.00132565" stop-color="#3C2200"/>
<stop offset="1" stop-color="#512D00"/>
</linearGradient>
</defs>
</svg>
