<svg width="24" height="24" viewBox="0 0 24 24" fill="none" xmlns="http://www.w3.org/2000/svg">
<path d="M7.61128 5.00566C7.58843 3.33137 6.59985 3.01709 6.59985 3.01709C6.59985 3.01709 7.93128 2.3428 8.85128 3.86852" fill="url(#paint0_radial)"/>
<path d="M7.61128 5.00566C7.58843 3.33137 6.59985 3.01709 6.59985 3.01709C6.59985 3.01709 7.93128 2.3428 8.85128 3.86852" fill="url(#paint1_radial)"/>
<path d="M8.06263 4.38279C8.0512 3.50279 8.0512 2.99422 8.66834 2.28564C8.66834 2.28564 8.56549 3.43993 9.20549 3.89136C9.84548 4.34279 8.06263 4.38279 8.06263 4.38279Z" fill="url(#paint2_radial)"/>
<path opacity="0.5" d="M8.06263 4.38279C8.0512 3.50279 8.0512 2.99422 8.66834 2.28564C8.66834 2.28564 8.56549 3.43993 9.20549 3.89136C9.84548 4.34279 8.06263 4.38279 8.06263 4.38279Z" fill="url(#paint3_radial)"/>
<path d="M15.5485 7.29136C14.4514 8.99993 14.7657 11.1599 16.2514 12.1142C17.7371 13.0685 19.8342 12.4571 20.9314 10.7542C22.0285 9.04565 21.7142 6.88564 20.2285 5.93136C18.7428 4.97707 16.6457 5.58279 15.5485 7.29136Z" fill="url(#paint4_linear)"/>
<path d="M8.43992 7.29136C9.53706 8.99993 9.22277 11.1599 7.73706 12.1142C6.25134 13.0685 4.1542 12.4571 3.05706 10.7542C1.95991 9.05136 2.2742 6.88564 3.75991 5.93136C5.24563 4.97707 7.34277 5.58279 8.43992 7.29136Z" fill="url(#paint5_linear)"/>
<path d="M16.137 7.81135C15.2627 9.16563 15.5141 10.8856 16.697 11.6399C17.8798 12.3999 19.5427 11.9142 20.417 10.5599C21.2913 9.20563 21.0398 7.48563 19.857 6.73135C18.6741 5.97135 17.0055 6.45706 16.137 7.81135Z" fill="url(#paint6_linear)"/>
<path d="M19.8515 6.73126C20.3143 7.02841 20.6286 7.47412 20.7943 7.98269C20.2743 7.39412 19.0743 6.83412 19.2686 7.99412C19.48 9.29698 18.8915 9.76555 19.7829 11.2798C19.6286 11.4113 19.4686 11.5256 19.2972 11.6227C19.1943 11.6056 19.12 11.5827 19.12 11.5827L16.8572 7.01698C17.7543 6.29698 18.9486 6.14841 19.8515 6.73126Z" fill="url(#paint7_linear)"/>
<path d="M7.84569 7.81125C8.71997 9.16554 8.46854 10.8855 7.28568 11.6398C6.10283 12.3998 4.43997 11.9141 3.56568 10.5598C2.6914 9.20554 2.94283 7.48554 4.12568 6.73125C5.30854 5.97696 6.97711 6.45696 7.84569 7.81125Z" fill="url(#paint8_linear)"/>
<path d="M4.13133 6.73126C3.66848 7.02841 3.35419 7.47412 3.18848 7.98269C3.70848 7.39412 4.90848 6.83412 4.71419 7.99412C4.50276 9.29698 5.09133 9.76555 4.19991 11.2798C4.35419 11.4113 4.51419 11.5256 4.68562 11.6227C4.78848 11.6056 4.86276 11.5827 4.86276 11.5827L7.13133 7.01698C6.22848 6.29698 5.03991 6.14841 4.13133 6.73126Z" fill="url(#paint9_linear)"/>
<path d="M20.7371 14.4456C20.7371 13.5428 20.5142 12.6913 20.1142 11.9199C19.7371 11.1885 19.5371 10.3828 19.5371 9.5599C19.5371 9.55418 19.5371 9.54847 19.5371 9.54276C19.5371 5.82847 16.1542 2.82275 11.9771 2.82275C7.80566 2.82275 4.41709 5.83418 4.41709 9.54847C4.41709 9.5599 4.41709 9.57704 4.41709 9.58847C4.4228 10.4113 4.2228 11.2113 3.84566 11.9428C3.45137 12.7085 3.22852 13.5542 3.22852 14.4513C3.22852 17.1999 5.3028 19.5199 8.1428 20.2399C8.37137 20.297 8.58851 20.4113 8.77137 20.5599C9.67423 21.2913 10.7828 21.7199 11.9771 21.7199C13.1714 21.7199 14.2742 21.2913 15.1771 20.5656C15.3657 20.417 15.5771 20.3028 15.8114 20.2456C18.6571 19.5256 20.7371 17.1999 20.7371 14.4456Z" fill="url(#paint10_radial)"/>
<path opacity="0.15" d="M20.7371 14.4456C20.7371 13.5428 20.5142 12.6913 20.1142 11.9199C19.7371 11.1885 19.5371 10.3828 19.5371 9.5599C19.5371 9.55418 19.5371 9.54847 19.5371 9.54276C19.5371 5.82847 16.1542 2.82275 11.9771 2.82275C7.80566 2.82275 4.41709 5.83418 4.41709 9.54847C4.41709 9.5599 4.41709 9.57704 4.41709 9.58847C4.4228 10.4113 4.2228 11.2113 3.84566 11.9428C3.45137 12.7085 3.22852 13.5542 3.22852 14.4513C3.22852 17.1999 5.3028 19.5199 8.1428 20.2399C8.37137 20.297 8.58851 20.4113 8.77137 20.5599C9.67423 21.2913 10.7828 21.7199 11.9771 21.7199C13.1714 21.7199 14.2742 21.2913 15.1771 20.5656C15.3657 20.417 15.5771 20.3028 15.8114 20.2456C18.6571 19.5256 20.7371 17.1999 20.7371 14.4456Z" fill="url(#paint11_radial)"/>
<path opacity="0.5" d="M20.7371 14.4456C20.7371 13.5428 20.5142 12.6913 20.1142 11.9199C19.7371 11.1885 19.5371 10.3828 19.5371 9.5599C19.5371 9.55418 19.5371 9.54847 19.5371 9.54276C19.5371 5.82847 16.1542 2.82275 11.9771 2.82275C7.80566 2.82275 4.41709 5.83418 4.41709 9.54847C4.41709 9.5599 4.41709 9.57704 4.41709 9.58847C4.4228 10.4113 4.2228 11.2113 3.84566 11.9428C3.45137 12.7085 3.22852 13.5542 3.22852 14.4513C3.22852 17.1999 5.3028 19.5199 8.1428 20.2399C8.37137 20.297 8.58851 20.4113 8.77137 20.5599C9.67423 21.2913 10.7828 21.7199 11.9771 21.7199C13.1714 21.7199 14.2742 21.2913 15.1771 20.5656C15.3657 20.417 15.5771 20.3028 15.8114 20.2456C18.6571 19.5256 20.7371 17.1999 20.7371 14.4456Z" fill="url(#paint12_radial)"/>
<path opacity="0.5" d="M3.23413 14.4456C3.23413 13.5428 3.45699 12.6913 3.85699 11.9199C4.23413 11.1885 4.43413 10.3828 4.43413 9.5599C4.43413 9.55418 4.43413 9.54847 4.43413 9.54275C4.43413 5.82847 7.81699 2.82275 11.9941 2.82275C16.1713 2.82275 19.5541 5.83418 19.5541 9.54275C19.5541 9.55418 19.5541 9.57132 19.5541 9.58275C19.5484 10.4056 19.7484 11.2056 20.1256 11.937C20.5198 12.7028 20.7427 13.5485 20.7427 14.4456C20.7427 17.1942 18.6684 19.5142 15.8284 20.2342C15.5998 20.2913 15.3827 20.4056 15.1998 20.5542C14.297 21.2856 13.1884 21.7142 11.9941 21.7142C10.7998 21.7142 9.69699 21.2856 8.79413 20.5599C8.60556 20.4113 8.39413 20.297 8.15985 20.2399C5.31413 19.5256 3.23413 17.1999 3.23413 14.4456Z" fill="url(#paint13_radial)"/>
<path d="M9.2284 8.41134C10.0284 7.9542 10.9427 8.49706 10.9427 8.49706C10.9427 8.49706 10.6855 7.78277 10.2284 7.5542C10.2284 7.5542 11.5141 7.63991 11.7998 8.43991C11.7998 8.43991 12.457 8.1542 12.1427 7.69706C12.1427 7.69706 12.7427 7.66849 13.057 8.41134C13.3713 9.1542 14.857 8.3542 14.857 8.3542C14.857 8.3542 14.897 7.88563 14.6684 7.74849C14.6684 7.74849 15.8284 7.87991 16.137 8.7942C16.137 8.7942 16.8055 8.41134 17.4513 8.7542C17.4513 8.7542 16.977 8.97134 17.2627 9.42277C17.2627 9.42277 18.5713 9.53706 18.937 10.5828C18.937 10.5828 18.5541 10.2399 18.0227 10.2571C18.0227 10.2571 19.2398 11.0971 19.377 12.1256C19.377 12.1256 18.9941 11.5942 18.6513 11.3428C18.6513 11.3428 19.2398 12.3028 18.9198 13.1942C18.9198 13.1942 18.8627 12.3313 18.4455 11.9713C18.0284 11.6113 6.54269 10.3142 5.75411 11.5142C4.96554 12.7142 5.08554 13.1942 5.08554 13.1942C5.08554 13.1942 4.97126 11.5313 5.63983 10.8685C5.63983 10.8685 5.58269 10.6971 5.31411 10.8285C5.31411 10.8285 5.69697 10.1028 6.47411 9.97134C6.47411 9.97134 6.7884 9.49706 6.24554 9.34277C6.24554 9.34277 7.14269 8.69706 7.86269 9.02277C7.86269 9.02277 8.41697 8.10849 9.02269 7.78277C9.0284 7.78277 8.76554 8.44563 9.2284 8.41134Z" fill="url(#paint14_radial)"/>
<path d="M18.3713 11.6514C17.8913 9.85144 16.0456 8.81144 14.257 9.33715C14.2456 9.34287 14.2342 9.34287 14.2227 9.34858C12.7656 9.78858 11.2227 9.78858 9.7656 9.34858C9.75417 9.34287 9.74274 9.34287 9.73132 9.33715C7.93703 8.81715 6.09703 9.85144 5.61703 11.6514C5.26846 12.96 5.73132 14.3086 6.69703 15.1486C6.95417 15.3714 7.0856 15.7143 7.02846 16.0572C6.89132 16.9314 6.94274 18.6286 8.98274 19.6914C10.0342 20.24 10.617 21.1886 11.9885 21.1886C13.3599 21.1886 13.9427 20.24 14.9942 19.6914C17.0399 18.6286 17.0856 16.9372 16.9485 16.0572C16.897 15.7143 17.0285 15.3714 17.2799 15.1486C18.257 14.3029 18.7199 12.9543 18.3713 11.6514Z" fill="url(#paint15_linear)"/>
<path d="M18.3713 11.6514C17.8913 9.85144 16.0456 8.81144 14.257 9.33715C14.2456 9.34287 14.2342 9.34287 14.2227 9.34858C12.7656 9.78858 11.2227 9.78858 9.7656 9.34858C9.75417 9.34287 9.74274 9.34287 9.73132 9.33715C7.93703 8.81715 6.09703 9.85144 5.61703 11.6514C5.26846 12.96 5.73132 14.3086 6.69703 15.1486C6.95417 15.3714 7.0856 15.7143 7.02846 16.0572C6.89132 16.9314 6.94274 18.6286 8.98274 19.6914C10.0342 20.24 10.617 21.1886 11.9885 21.1886C13.3599 21.1886 13.9427 20.24 14.9942 19.6914C17.0399 18.6286 17.0856 16.9372 16.9485 16.0572C16.897 15.7143 17.0285 15.3714 17.2799 15.1486C18.257 14.3029 18.7199 12.9543 18.3713 11.6514Z" fill="url(#paint16_radial)"/>
<path d="M5.61135 11.6514C6.09135 9.85144 7.93707 8.81144 9.72564 9.33715C9.73707 9.34287 9.7485 9.34287 9.75993 9.34858C11.2171 9.78858 12.7599 9.78858 14.2171 9.34858C14.2285 9.34287 14.2399 9.34287 14.2514 9.33715C16.0456 8.81715 17.8856 9.85144 18.3656 11.6514C18.7142 12.96 18.2514 14.3086 17.2856 15.1486C17.0285 15.3714 16.8971 15.7143 16.9542 16.0572C17.0914 16.9314 17.0399 18.6286 14.9999 19.6914C13.9485 20.24 13.3656 21.1886 11.9942 21.1886C10.6228 21.1886 10.0399 20.24 8.9885 19.6914C6.94278 18.6286 6.89707 16.9372 7.03421 16.0572C7.08564 15.7143 6.95421 15.3714 6.70278 15.1486C5.73135 14.3029 5.26278 12.9543 5.61135 11.6514Z" fill="url(#paint17_radial)"/>
<path d="M5.61135 11.6514C6.09135 9.85144 7.93707 8.81144 9.72564 9.33715C9.73707 9.34287 9.7485 9.34287 9.75993 9.34858C11.2171 9.78858 12.7599 9.78858 14.2171 9.34858C14.2285 9.34287 14.2399 9.34287 14.2514 9.33715C16.0456 8.81715 17.8856 9.85144 18.3656 11.6514C18.7142 12.96 18.2514 14.3086 17.2856 15.1486C17.0285 15.3714 16.8971 15.7143 16.9542 16.0572C17.0914 16.9314 17.0399 18.6286 14.9999 19.6914C13.9485 20.24 13.3656 21.1886 11.9942 21.1886C10.6228 21.1886 10.0399 20.24 8.9885 19.6914C6.94278 18.6286 6.89707 16.9372 7.03421 16.0572C7.08564 15.7143 6.95421 15.3714 6.70278 15.1486C5.73135 14.3029 5.26278 12.9543 5.61135 11.6514Z" fill="url(#paint18_radial)"/>
<path d="M11.9944 15.8967C13.9087 15.8967 13.8687 14.6224 13.2629 14.4396C12.6572 14.2567 12.5201 14.7653 11.9944 14.7653C11.4687 14.7653 11.3258 14.2567 10.7258 14.4396C10.1258 14.6224 10.0801 15.8967 11.9944 15.8967Z" fill="url(#paint19_linear)"/>
<path d="M8.57708 13.4282C9.18932 13.4282 9.68565 12.9242 9.68565 12.3025C9.68565 11.6808 9.18932 11.1768 8.57708 11.1768C7.96483 11.1768 7.46851 11.6808 7.46851 12.3025C7.46851 12.9242 7.96483 13.4282 8.57708 13.4282Z" fill="url(#paint20_radial)"/>
<path opacity="0.5" d="M8.3598 12.2564C8.55231 12.2564 8.70837 12.0978 8.70837 11.9021C8.70837 11.7065 8.55231 11.5479 8.3598 11.5479C8.16729 11.5479 8.01123 11.7065 8.01123 11.9021C8.01123 12.0978 8.16729 12.2564 8.3598 12.2564Z" fill="url(#paint21_linear)"/>
<path d="M11.3542 15.0168C11.0399 15.0168 10.9542 14.6853 10.7999 14.7825C10.617 14.8968 10.7027 15.2568 10.9427 15.4453C11.1827 15.6339 11.4799 15.5768 11.6056 15.4739C11.8113 15.3196 11.7427 15.0168 11.3542 15.0168Z" fill="url(#paint22_radial)"/>
<path d="M16.3428 16.1142C16.3485 16.0742 16.3542 16.0342 16.3542 16C16.3485 15.8685 16.2742 15.7485 16.1599 15.7028C16.1028 15.68 16.0342 15.6742 15.9771 15.6914C14.6857 16.1028 13.3428 16.3085 11.9885 16.3085C10.6342 16.3085 9.29137 16.1028 7.99995 15.6914C7.93709 15.6742 7.87423 15.6742 7.81709 15.7028C7.70852 15.7485 7.63423 15.8628 7.6228 15.9942C7.6228 16.04 7.62852 16.0857 7.63423 16.1314L7.7028 16.4685C7.71995 16.5314 7.73709 16.6 7.75995 16.6685C8.19995 17.8457 9.35423 19.9142 11.9828 19.9142C14.6057 19.9142 15.7599 17.84 16.2057 16.6628C16.2285 16.6 16.2457 16.5371 16.2571 16.48L16.3428 16.1142Z" fill="url(#paint23_radial)"/>
<path d="M11.9942 19.5941C13.0114 19.5941 13.7942 19.2627 14.3885 18.7941C13.7371 18.4455 12.9428 18.2227 11.9942 18.2227C11.0457 18.2227 10.2514 18.4455 9.59424 18.7941C10.1885 19.2627 10.9714 19.5941 11.9942 19.5941Z" fill="url(#paint24_radial)"/>
<path d="M16.2686 16.4742L16.3372 16.1314C16.3429 16.08 16.3486 16.0342 16.3486 15.9942C16.3372 15.8685 16.2686 15.7485 16.1543 15.7028C16.0972 15.68 16.0286 15.6742 15.9715 15.6914C14.68 16.1028 13.3372 16.3085 11.9829 16.3085C10.6286 16.3085 9.28576 16.1028 7.99433 15.6914C7.93147 15.6742 7.86862 15.6742 7.81147 15.7028C7.7029 15.7485 7.62862 15.8628 7.61719 15.9942C7.61719 16.0342 7.6229 16.08 7.62862 16.1314L7.69719 16.4742C7.71433 16.5371 7.73147 16.6 7.75433 16.6742C7.93147 17.1485 8.22862 17.7714 8.68576 18.3428C8.25719 17.76 8.78862 17.44 9.73147 17.5657C10.68 17.6971 11.9715 17.6971 11.9715 17.6971C11.9715 17.6971 13.2629 17.6914 14.2115 17.5657C15.16 17.4342 15.6915 17.76 15.2572 18.3428C15.7143 17.7714 16.0115 17.1485 16.1886 16.6742C16.2343 16.6 16.2572 16.5371 16.2686 16.4742Z" fill="url(#paint25_linear)"/>
<path d="M11.9943 16.6399C10.6286 16.6399 9.28001 16.4285 7.97144 16.0228L7.98858 16.2228C8.02286 16.6114 8.26858 16.9314 8.60001 17.0114C9.70858 17.2857 10.8457 17.4285 11.9943 17.4285C13.2286 17.4285 14.4572 17.2628 15.6457 16.9428C15.8229 16.8971 15.9543 16.7199 15.9714 16.5142L16.0114 16.0171C14.7086 16.4342 13.3543 16.6399 11.9943 16.6399Z" fill="url(#paint26_radial)"/>
<path opacity="0.5" d="M10.7199 14.4393C11.3199 14.2565 11.4628 14.765 11.9885 14.765C12.5142 14.765 12.6571 14.2565 13.2571 14.4393C13.4399 14.4965 13.5771 14.6565 13.6113 14.8508H13.6228C13.6228 14.8508 13.4113 13.5879 11.9828 13.5879C10.5542 13.5879 10.3428 14.8508 10.3428 14.8508L10.3542 14.8565C10.4056 14.6565 10.5371 14.4965 10.7199 14.4393Z" fill="url(#paint27_radial)"/>
<path d="M15.4057 13.4282C16.0179 13.4282 16.5143 12.9242 16.5143 12.3025C16.5143 11.6808 16.0179 11.1768 15.4057 11.1768C14.7934 11.1768 14.2971 11.6808 14.2971 12.3025C14.2971 12.9242 14.7934 13.4282 15.4057 13.4282Z" fill="url(#paint28_radial)"/>
<path opacity="0.5" d="M15.1884 12.2564C15.3809 12.2564 15.537 12.0978 15.537 11.9021C15.537 11.7065 15.3809 11.5479 15.1884 11.5479C14.9959 11.5479 14.8398 11.7065 14.8398 11.9021C14.8398 12.0978 14.9959 12.2564 15.1884 12.2564Z" fill="url(#paint29_linear)"/>
<path d="M11.3543 15.0173C11.04 15.0173 10.9543 14.6858 10.8 14.783C10.7257 14.8287 10.6971 14.9201 10.7029 15.023C10.7714 14.8801 10.9257 14.9601 11.0171 15.063C11.3029 15.3944 11.7086 15.0458 11.6057 15.4744C11.8114 15.3201 11.7429 15.0173 11.3543 15.0173Z" fill="url(#paint30_linear)"/>
<path d="M12.6283 15.0173C12.9426 15.0173 13.0283 14.6858 13.1826 14.783C13.3654 14.8973 13.2797 15.2573 13.0397 15.4458C12.7997 15.6344 12.5026 15.5773 12.3769 15.4744C12.1712 15.3201 12.2454 15.0173 12.6283 15.0173Z" fill="url(#paint31_radial)"/>
<path d="M12.6283 15.0173C12.9426 15.0173 13.0283 14.6858 13.1826 14.783C13.2569 14.8287 13.2854 14.9201 13.2797 15.023C13.2112 14.8801 13.0569 14.9601 12.9654 15.063C12.6797 15.3944 12.274 15.0458 12.3769 15.4744C12.1712 15.3201 12.2454 15.0173 12.6283 15.0173Z" fill="url(#paint32_linear)"/>
<path opacity="0.5" d="M6.82852 18.171C5.60566 16.3081 4.76566 16.451 4.65709 14.2167C4.57709 12.5938 4.90852 11.5596 5.37137 10.8053C5.35423 10.811 5.33137 10.8224 5.31423 10.8338C5.31423 10.8338 5.42852 10.6167 5.65709 10.3996C5.92566 10.051 6.2228 9.77099 6.5028 9.50242C6.45709 9.43956 6.37709 9.38813 6.24566 9.34813C6.24566 9.34813 6.5828 9.10242 7.01137 8.99385C7.39423 8.58242 7.67994 8.14242 7.71994 7.50813C7.8628 5.27956 9.50851 2.82813 11.9885 2.82813C7.81709 2.82242 4.42852 5.83385 4.42852 9.54813C4.42852 9.55385 4.42852 9.55956 4.42852 9.56528C4.42852 10.3881 4.23423 11.1938 3.85137 11.9253C3.45137 12.691 3.22852 13.5481 3.22852 14.451C3.22852 17.2053 5.31423 19.531 8.15423 20.2453C8.38851 20.3024 8.59994 20.4167 8.78852 20.5653C9.69137 21.291 10.7942 21.7196 11.9885 21.7196C10.3828 21.7138 7.72566 19.531 6.82852 18.171Z" fill="url(#paint33_linear)"/>
<path opacity="0.5" d="M20.1143 11.9199C19.7372 11.1885 19.5372 10.3828 19.5372 9.5599C19.5372 9.55418 19.5372 9.54847 19.5372 9.54275C19.5372 5.82847 16.1543 2.82275 11.9772 2.82275C14.4514 2.82275 15.9029 5.29704 16.2457 7.50275C16.3029 7.8799 16.4914 8.25704 16.7257 8.61704C16.9429 8.59418 17.1943 8.62275 17.4457 8.75418C17.4457 8.75418 17.1314 8.89704 17.1657 9.1999C17.24 9.28561 17.3086 9.36561 17.3829 9.44561C17.72 9.50847 18.6343 9.74275 18.9314 10.5828C18.9314 10.5828 18.6286 10.3142 18.1886 10.2685C18.24 10.3199 18.28 10.3656 18.3029 10.3999C18.4743 10.5656 18.5829 10.7256 18.6286 10.7942C18.9543 11.1313 19.3029 11.6056 19.3657 12.1256C19.3657 12.1256 19.2114 11.9085 19.0057 11.6856C19.2343 12.3313 19.3543 13.1485 19.3029 14.217C19.1943 16.4513 18.3543 16.3085 17.1314 18.1713C16.2343 19.537 13.5829 21.7142 11.9714 21.7142C13.1657 21.7142 14.2686 21.2856 15.1714 20.5599C15.36 20.4113 15.5714 20.297 15.8057 20.2399C18.6457 19.5256 20.7314 17.2056 20.7314 14.4456C20.7372 13.5428 20.5143 12.6913 20.1143 11.9199Z" fill="url(#paint34_linear)"/>
<defs>
<radialGradient id="paint0_radial" cx="0" cy="0" r="1" gradientUnits="userSpaceOnUse" gradientTransform="translate(9.3956 5.97888) rotate(16.8092) scale(18.6415 17.6435)">
<stop stop-color="#975500"/>
<stop offset="0.2776" stop-color="#8E5000"/>
<stop offset="0.7291" stop-color="#764200"/>
<stop offset="1" stop-color="#643800"/>
</radialGradient>
<radialGradient id="paint1_radial" cx="0" cy="0" r="1" gradientUnits="userSpaceOnUse" gradientTransform="translate(8.0016 7.8953) scale(6.38471)">
<stop stop-color="#975500"/>
<stop offset="0.2776" stop-color="#8E5000"/>
<stop offset="0.7291" stop-color="#764200"/>
<stop offset="1" stop-color="#643800"/>
</radialGradient>
<radialGradient id="paint2_radial" cx="0" cy="0" r="1" gradientUnits="userSpaceOnUse" gradientTransform="translate(9.39552 5.97886) rotate(16.8092) scale(18.6415 17.6434)">
<stop stop-color="#975500"/>
<stop offset="0.2776" stop-color="#8E5000"/>
<stop offset="0.7291" stop-color="#764200"/>
<stop offset="1" stop-color="#643800"/>
</radialGradient>
<radialGradient id="paint3_radial" cx="0" cy="0" r="1" gradientUnits="userSpaceOnUse" gradientTransform="translate(8.9158 7.11433) scale(4.97593)">
<stop stop-color="#3C2200"/>
<stop offset="1" stop-color="#3C2200" stop-opacity="0"/>
</radialGradient>
<linearGradient id="paint4_linear" x1="17.8286" y1="9.47706" x2="21.2077" y2="5.71785" gradientUnits="userSpaceOnUse">
<stop stop-color="#643800"/>
<stop offset="1" stop-color="#975500"/>
</linearGradient>
<linearGradient id="paint5_linear" x1="6.15562" y1="9.47706" x2="2.77655" y2="5.71785" gradientUnits="userSpaceOnUse">
<stop stop-color="#643800"/>
<stop offset="1" stop-color="#975500"/>
</linearGradient>
<linearGradient id="paint6_linear" x1="18.2754" y1="12.2469" x2="18.2754" y2="4.7102" gradientUnits="userSpaceOnUse">
<stop stop-color="#FCD2A8"/>
<stop offset="1" stop-color="#E36179"/>
</linearGradient>
<linearGradient id="paint7_linear" x1="18.8282" y1="11.8506" x2="18.8282" y2="4.82324" gradientUnits="userSpaceOnUse">
<stop stop-color="#F78174"/>
<stop offset="1" stop-color="#E36179"/>
</linearGradient>
<linearGradient id="paint8_linear" x1="5.70885" y1="12.2468" x2="5.70885" y2="4.7101" gradientUnits="userSpaceOnUse">
<stop stop-color="#FCD2A8"/>
<stop offset="1" stop-color="#E36179"/>
</linearGradient>
<linearGradient id="paint9_linear" x1="5.15617" y1="11.8506" x2="5.15617" y2="4.82324" gradientUnits="userSpaceOnUse">
<stop stop-color="#F78174"/>
<stop offset="1" stop-color="#E36179"/>
</linearGradient>
<radialGradient id="paint10_radial" cx="0" cy="0" r="1" gradientUnits="userSpaceOnUse" gradientTransform="translate(3.69982 3.82675) scale(19.5434)">
<stop stop-color="#7A4400"/>
<stop offset="0.5153" stop-color="#713F00"/>
<stop offset="1" stop-color="#643800"/>
</radialGradient>
<radialGradient id="paint11_radial" cx="0" cy="0" r="1" gradientUnits="userSpaceOnUse" gradientTransform="translate(9.16267 22.5176) scale(17.1866)">
<stop stop-color="white"/>
<stop offset="1" stop-color="white" stop-opacity="0"/>
</radialGradient>
<radialGradient id="paint12_radial" cx="0" cy="0" r="1" gradientUnits="userSpaceOnUse" gradientTransform="translate(4.83952 16.6065) rotate(-105.29) scale(5.27491 2.23392)">
<stop stop-color="#3C2200"/>
<stop offset="1" stop-color="#3C2200" stop-opacity="0"/>
</radialGradient>
<radialGradient id="paint13_radial" cx="0" cy="0" r="1" gradientUnits="userSpaceOnUse" gradientTransform="translate(19.1452 16.6119) rotate(-74.7102) scale(5.27491 2.23392)">
<stop stop-color="#3C2200"/>
<stop offset="1" stop-color="#3C2200" stop-opacity="0"/>
</radialGradient>
<radialGradient id="paint14_radial" cx="0" cy="0" r="1" gradientUnits="userSpaceOnUse" gradientTransform="translate(12.0768 11.5653) scale(10.701)">
<stop stop-color="#975500"/>
<stop offset="0.2776" stop-color="#8E5000"/>
<stop offset="0.7291" stop-color="#764200"/>
<stop offset="1" stop-color="#643800"/>
</radialGradient>
<linearGradient id="paint15_linear" x1="11.9921" y1="19.8711" x2="11.9921" y2="3.98723" gradientUnits="userSpaceOnUse">
<stop stop-color="#FBB87A"/>
<stop offset="0.3785" stop-color="#FCD2A8"/>
<stop offset="1" stop-color="#E89043"/>
</linearGradient>
<radialGradient id="paint16_radial" cx="0" cy="0" r="1" gradientUnits="userSpaceOnUse" gradientTransform="translate(15.0468 11.9585) scale(2.75375 2.16636)">
<stop stop-color="#975500" stop-opacity="0.6"/>
<stop offset="1" stop-color="#975500" stop-opacity="0"/>
</radialGradient>
<radialGradient id="paint17_radial" cx="0" cy="0" r="1" gradientUnits="userSpaceOnUse" gradientTransform="translate(8.94191 11.9585) rotate(180) scale(2.75375 2.16636)">
<stop stop-color="#975500" stop-opacity="0.6"/>
<stop offset="1" stop-color="#975500" stop-opacity="0"/>
</radialGradient>
<radialGradient id="paint18_radial" cx="0" cy="0" r="1" gradientUnits="userSpaceOnUse" gradientTransform="translate(12.0342 19.3841) rotate(180) scale(3.6336 1.98936)">
<stop stop-color="#975500" stop-opacity="0.6"/>
<stop offset="1" stop-color="#975500" stop-opacity="0"/>
</radialGradient>
<linearGradient id="paint19_linear" x1="11.9923" y1="15.997" x2="11.9923" y2="12.671" gradientUnits="userSpaceOnUse">
<stop stop-color="#7A4400" stop-opacity="0"/>
<stop offset="1" stop-color="#A3541E"/>
</linearGradient>
<radialGradient id="paint20_radial" cx="0" cy="0" r="1" gradientUnits="userSpaceOnUse" gradientTransform="translate(8.63387 12.007) rotate(91.773) scale(1.10782 1.10312)">
<stop stop-color="#3C2200"/>
<stop offset="1" stop-color="#3C2200"/>
</radialGradient>
<linearGradient id="paint21_linear" x1="8.12664" y1="11.3942" x2="8.62456" y2="12.4767" gradientUnits="userSpaceOnUse">
<stop stop-color="#A3541E"/>
<stop offset="1" stop-color="#512D00"/>
</linearGradient>
<radialGradient id="paint22_radial" cx="0" cy="0" r="1" gradientUnits="userSpaceOnUse" gradientTransform="translate(11.8693 16.9783) rotate(-8.68518) scale(1.4829)">
<stop offset="0.00132565" stop-color="#7A4400"/>
<stop offset="1" stop-color="#643800"/>
</radialGradient>
<radialGradient id="paint23_radial" cx="0" cy="0" r="1" gradientUnits="userSpaceOnUse" gradientTransform="translate(11.979 17.7963) scale(5.45721 6.20975)">
<stop stop-color="#512D00"/>
<stop offset="0.9987" stop-color="#3C2200"/>
</radialGradient>
<radialGradient id="paint24_radial" cx="0" cy="0" r="1" gradientUnits="userSpaceOnUse" gradientTransform="translate(12.0277 19.0729) scale(2.67012 0.918361)">
<stop offset="0.2479" stop-color="#FF0000"/>
<stop offset="1" stop-color="#C20000"/>
</radialGradient>
<linearGradient id="paint25_linear" x1="11.9917" y1="20.5177" x2="11.9917" y2="18.3438" gradientUnits="userSpaceOnUse">
<stop stop-color="#3C2200"/>
<stop offset="1" stop-color="#362501"/>
</linearGradient>
<radialGradient id="paint26_radial" cx="0" cy="0" r="1" gradientUnits="userSpaceOnUse" gradientTransform="translate(11.9794 16.721) scale(7.36065 8.37569)">
<stop offset="0.00132565" stop-color="white"/>
<stop offset="1" stop-color="#A9BCBE"/>
</radialGradient>
<radialGradient id="paint27_radial" cx="0" cy="0" r="1" gradientUnits="userSpaceOnUse" gradientTransform="translate(11.9921 13.9113) scale(2.10636 0.923857)">
<stop stop-color="white"/>
<stop offset="1" stop-color="white" stop-opacity="0"/>
</radialGradient>
<radialGradient id="paint28_radial" cx="0" cy="0" r="1" gradientUnits="userSpaceOnUse" gradientTransform="translate(15.4599 12.007) rotate(91.773) scale(1.10782 1.10312)">
<stop stop-color="#3C2200"/>
<stop offset="1" stop-color="#3C2200"/>
</radialGradient>
<linearGradient id="paint29_linear" x1="14.9527" y1="11.3942" x2="15.4506" y2="12.4767" gradientUnits="userSpaceOnUse">
<stop stop-color="#A3541E"/>
<stop offset="1" stop-color="#512D00"/>
</linearGradient>
<linearGradient id="paint30_linear" x1="11.2727" y1="15.7018" x2="11.1485" y2="14.4939" gradientUnits="userSpaceOnUse">
<stop offset="0.00132565" stop-color="#3C2200"/>
<stop offset="0.5" stop-color="#512D00"/>
<stop offset="1" stop-color="#3C2200"/>
</linearGradient>
<radialGradient id="paint31_radial" cx="0" cy="0" r="1" gradientUnits="userSpaceOnUse" gradientTransform="translate(12.1239 16.9929) rotate(-171.315) scale(1.4829)">
<stop offset="0.00132565" stop-color="#7A4400"/>
<stop offset="1" stop-color="#643800"/>
</radialGradient>
<linearGradient id="paint32_linear" x1="12.7115" y1="15.7018" x2="12.8357" y2="14.4939" gradientUnits="userSpaceOnUse">
<stop offset="0.00132565" stop-color="#3C2200"/>
<stop offset="0.5" stop-color="#512D00"/>
<stop offset="1" stop-color="#3C2200"/>
</linearGradient>
<linearGradient id="paint33_linear" x1="7.61199" y1="22.3902" x2="7.61199" y2="-4.36228" gradientUnits="userSpaceOnUse">
<stop stop-color="#3C2200"/>
<stop offset="1" stop-color="#3C2200" stop-opacity="0"/>
</linearGradient>
<linearGradient id="paint34_linear" x1="16.3592" y1="22.3905" x2="16.3592" y2="-4.36195" gradientUnits="userSpaceOnUse">
<stop stop-color="#3C2200"/>
<stop offset="1" stop-color="#3C2200" stop-opacity="0"/>
</linearGradient>
</defs>
</svg>
