<svg width="80" height="80" viewBox="0 0 80 80" fill="none" xmlns="http://www.w3.org/2000/svg">
<path d="M47.0769 34.9023C45.6323 30.5634 45.4566 30.1583 45.11 29.5189C44.7635 28.8844 37.9355 22.2273 36.2566 20.3726C34.5776 18.5228 35.5635 13.8326 40.8883 15.3944C46.2131 16.9562 53.2168 28.3573 53.2168 28.3573L52.636 37.0985L50.4934 38.5432L47.0769 34.9023Z" fill="url(#paint0_linear)"/>
<path d="M52.6163 37.1133C52.3088 36.2738 51.8208 35.4783 51.0545 35.1903C49.1901 34.4973 46.4081 30.8514 45.7151 28.9382C45.022 27.025 41.0492 23.5793 39.419 21.9492C38.0866 20.6167 36.0612 18.5034 36.1539 16.3022C35.2217 17.5273 35.3388 19.3673 36.2515 20.3727C37.9305 22.2274 44.7585 28.8797 45.105 29.519C45.4515 30.1535 45.6272 30.5586 47.0719 34.9024L50.4884 38.5482L52.6163 37.1133Z" fill="url(#paint1_linear)"/>
<path d="M52.958 32.1394C51.9477 29.0842 50.7519 25.5115 50.2736 24.0766C49.644 23.2225 48.9412 22.3196 48.1896 21.4167L45.3979 18.4102C43.8849 16.9704 42.3231 15.8186 40.8833 15.394C40.0096 15.1353 39.2629 15.0621 38.6138 15.1011C38.7992 17.9124 41.8643 20.1868 44.9342 25.0284C48.3214 30.3678 49.8392 33.5792 49.8392 36.9664C49.8392 37.3324 49.8783 37.6448 49.9222 37.9376L50.4884 38.5428L52.631 37.0982L52.958 32.1394Z" fill="url(#paint2_linear)"/>
<path d="M41.2883 8.56624C44.9341 6.48221 48.3506 9.89865 55.7594 23.0373C58.063 27.1273 58.0142 29.8068 59.7664 33.9553C62.0945 39.4656 64.1736 42.3695 64.0321 46.5376C63.9149 49.9541 60.5815 56.3916 59.4443 59.4518C58.3022 62.5119 51.8207 37.0497 51.8207 37.0497C51.8207 37.0497 49.478 31.0123 48.2334 26.5758C47.3061 23.2667 35.2997 14.5548 41.2883 8.56624Z" fill="url(#paint3_linear)"/>
<path d="M52.4017 32.9304C49.6832 22.803 48.0628 23.7304 45.8031 20.4896C44.2169 18.2152 41.0981 14.4864 39.7218 11.4067C38.6481 17.039 47.4478 23.7596 48.2385 26.566C49.4831 31.0025 51.8258 37.0399 51.8258 37.0399C51.8258 37.0399 52.0601 37.9623 52.4456 39.4265L56.6381 41.3495C55.3057 40.1488 53.695 37.7573 52.4017 32.9304Z" fill="url(#paint4_linear)"/>
<path d="M63.8027 43.8925C63.2171 40.9446 61.5772 38.2309 59.7665 33.9506C58.0143 29.8069 58.0631 27.1226 55.7595 23.0326C50.9325 14.472 47.804 10.0599 45.1978 8.58594C46.7205 12.4075 50.7373 17.2832 52.7481 21.1194C55.2958 25.9805 55.9888 29.5678 56.2182 31.1882C56.4476 32.8085 61.2551 40.2759 62.1775 41.7791C62.6021 42.4771 63.2366 43.2482 63.8027 43.8925Z" fill="url(#paint5_linear)"/>
<path d="M39.7167 11.4067C39.4043 13.8519 40.644 16.1019 41.9569 18.059C43.3235 20.0357 44.9487 21.8123 46.5154 23.6474C47.2426 24.5991 48.1065 25.5167 48.4384 26.7515C48.7605 27.9082 49.1168 29.06 49.4877 30.2021C50.2442 32.4862 51.0251 34.7655 51.8255 37.0399C50.8982 34.8143 50.0392 32.5594 49.2681 30.2753C48.8776 29.1332 48.5018 27.9863 48.1602 26.8296C47.8478 25.7021 46.984 24.7992 46.247 23.867C44.7193 22.0124 43.1136 20.1968 41.7665 18.1859C41.1174 17.1659 40.4732 16.1312 40.0778 14.9745C39.6874 13.8324 39.4873 12.5976 39.7167 11.4067Z" fill="#804B24"/>
<path d="M35.7293 39.0511C38.0134 42.2186 43.1283 44.1025 45.5979 44.7077C45.9103 44.7858 45.5931 45.4886 45.2953 45.6058C43.4993 46.2988 43.6262 47.5629 42.4158 48.8172C37.2667 54.1713 33.2987 55.04 29.6822 52.5509C26.2901 50.218 28.4376 49.9447 25.5727 44.8249C22.7077 39.7051 17.9979 39.1584 15.826 41.3303C13.6542 43.5022 16.4068 45.2056 16.8022 48.3828C17.2658 52.0873 17.3244 54.2884 23.5716 61.7509C29.8237 69.2183 33.8161 71.9954 40.7612 71.9954C47.7064 71.9954 52.5675 69.9113 56.2133 67.3051C59.8592 64.6988 59.8592 53.0683 60.9036 50.3058C61.9432 47.5434 64.7252 42.4773 58.1265 39.3537C51.5279 36.2301 36.7689 29.8022 33.6453 29.8022C30.5216 29.8022 28.1448 31.0175 24.9626 31.5398C22.2538 31.9839 20.6237 33.2773 20.6237 37.0939C20.6237 38.6557 22.7077 40.0028 24.6161 40.0028C27.974 40.0077 30.4094 39.0511 35.7293 39.0511Z" fill="url(#paint6_linear)"/>
<path d="M56.2182 67.3099C59.864 64.7036 59.864 53.0731 60.9085 50.3106C61.216 49.4907 61.6748 48.4658 62.0018 47.353C61.9334 47.4457 59.1075 51.3697 58.5365 54.1175C57.9557 56.8946 58.0728 63.4347 50.7812 67.5442C47.6527 69.3061 43.2552 72.2345 35.4462 68.7595C27.6323 65.2893 19.8184 53.6539 18.7202 49.5444C17.8417 46.2646 17.217 43.3216 15.0305 42.8286C14.845 44.4002 16.5093 45.9669 16.8119 48.3877C17.2756 52.0921 17.3342 54.2932 23.5814 61.7557C29.8335 69.2231 33.8258 72.0002 40.771 72.0002C47.7112 72.0002 52.5724 69.9162 56.2182 67.3099Z" fill="url(#paint7_linear)"/>
<path d="M47.7113 43.6974C41.2445 43.0141 36.0222 37.1573 36.0222 37.1573C36.0222 37.1573 30.5803 36.9816 27.0516 37.7381C24.1525 38.3579 21.7463 38.0114 20.6823 36.2153C20.6579 36.4984 20.6287 36.7766 20.6287 37.1036C20.6287 38.6654 22.7127 40.0125 24.621 40.0125C27.9789 40.0125 30.4095 39.0559 35.7342 39.0559C38.0184 42.2234 43.1333 44.1073 45.6029 44.7125C45.9152 44.7906 45.598 45.4934 45.3003 45.6106C43.5042 46.3036 43.6311 47.5677 42.4207 48.822C37.9159 53.5075 34.314 54.7569 31.0635 53.3317C35.6513 57.7536 42.5086 51.7455 43.5481 49.6615C44.5877 47.5726 48.8095 43.8145 47.7113 43.6974Z" fill="url(#paint8_linear)"/>
<path d="M62.1433 46.8059C62.7485 44.2826 62.4557 41.4031 58.1314 39.3532C53.2362 37.0349 43.8653 32.9059 38.0671 30.9292C41.957 33.716 46.4374 35.5463 51.2986 37.3277C57.78 39.7046 62.8559 44.0679 62.1433 46.8059Z" fill="url(#paint9_linear)"/>
<path d="M59.9567 56.0063C58.9074 60.6966 56.5549 65.9043 53.4411 67.7736C50.2101 69.7112 45.6223 71.4682 45.0024 71.7025C49.7562 71.0485 53.3678 69.35 56.2181 67.3099C58.5364 65.6554 59.3808 60.3599 59.9567 56.0063Z" fill="url(#paint10_linear)"/>
<path d="M59.4444 59.4473C60.5816 56.3871 63.9199 49.9496 64.0322 46.5331C64.0322 46.4648 64.0273 46.4013 64.0273 46.333C62.2751 48.0364 60.972 50.135 60.2741 54.4007C60.0056 56.0455 59.5468 57.822 58.9417 59.5351C59.1515 59.7596 59.3272 59.7596 59.4444 59.4473Z" fill="url(#paint11_linear)"/>
<path d="M60.4986 40.876C59.5127 40.0805 58.3755 39.5534 57.1993 39.0897L53.7291 37.5913C51.4352 36.5518 49.1413 35.5219 46.8962 34.3652C49.2536 35.2535 51.5621 36.2687 53.8756 37.2741L57.3115 38.8457C58.4585 39.3484 59.6006 39.9828 60.4986 40.876Z" fill="#804B24"/>
<path opacity="0.5" d="M55.1543 39.0456C58.4389 40.3341 59.4736 42.789 59.1856 44.9316C58.9514 46.6838 55.6374 47.4501 52.4357 46.1664C49.234 44.8828 46.4521 43.5455 47.721 40.2072C48.4678 38.2354 51.9428 37.7864 55.1543 39.0456Z" fill="url(#paint12_radial)"/>
<path d="M45.0368 46.2153C46.745 45.3758 46.6279 44.4778 46.0519 44.2777C40.8101 42.4425 36.0417 38.4014 36.0417 38.4014C36.0417 38.4014 28.2571 38.8065 26.056 39.3873C24.1525 39.89 21.9757 38.9285 20.6726 37.3569C20.8874 38.8065 22.8201 40.0071 24.6259 40.0071C27.9838 40.0071 30.4144 39.0505 35.7391 39.0505C38.0233 42.218 43.1382 44.102 45.6078 44.7072C45.9202 44.7852 45.6029 45.4881 45.3052 45.6052C43.5091 46.2983 43.636 47.5623 42.4256 48.8167C40.0487 51.2911 37.9208 52.7944 35.9685 53.4679C35.9783 53.4679 35.9881 53.4679 35.9978 53.4679C41.142 52.5015 43.3285 47.0548 45.0368 46.2153Z" fill="url(#paint13_linear)"/>
<defs>
<linearGradient id="paint0_linear" x1="48.2793" y1="28.9458" x2="24.2034" y2="-0.454654" gradientUnits="userSpaceOnUse">
<stop offset="0.00132565" stop-color="#F0C492"/>
<stop offset="1" stop-color="#F8DBBA"/>
</linearGradient>
<linearGradient id="paint1_linear" x1="44.6688" y1="11.9666" x2="42.9325" y2="56.8775" gradientUnits="userSpaceOnUse">
<stop stop-color="#FFBC47" stop-opacity="0"/>
<stop offset="1" stop-color="#C86F34"/>
</linearGradient>
<linearGradient id="paint2_linear" x1="46.3001" y1="-0.0420528" x2="45.1426" y2="53.3185" gradientUnits="userSpaceOnUse">
<stop stop-color="#FFBC47" stop-opacity="0"/>
<stop offset="1" stop-color="#C86F34"/>
</linearGradient>
<linearGradient id="paint3_linear" x1="55.9209" y1="40.654" x2="45.8507" y2="11.485" gradientUnits="userSpaceOnUse">
<stop offset="0.00132565" stop-color="#F0C492"/>
<stop offset="1" stop-color="#F8DBBA"/>
</linearGradient>
<linearGradient id="paint4_linear" x1="63.6644" y1="5.95346" x2="21.1842" y2="61.9763" gradientUnits="userSpaceOnUse">
<stop stop-color="#FFBC47" stop-opacity="0"/>
<stop offset="1" stop-color="#C86F34"/>
</linearGradient>
<linearGradient id="paint5_linear" x1="57.4071" y1="12.2541" x2="41.5494" y2="88.5332" gradientUnits="userSpaceOnUse">
<stop stop-color="#FFBC47" stop-opacity="0"/>
<stop offset="1" stop-color="#C86F34"/>
</linearGradient>
<linearGradient id="paint6_linear" x1="44.423" y1="74.6893" x2="39.5615" y2="48.5299" gradientUnits="userSpaceOnUse">
<stop offset="0.00132565" stop-color="#F0C492"/>
<stop offset="1" stop-color="#F8DBBA"/>
</linearGradient>
<linearGradient id="paint7_linear" x1="47.2782" y1="29.7443" x2="5.724" y2="122.691" gradientUnits="userSpaceOnUse">
<stop stop-color="#FFBC47" stop-opacity="0"/>
<stop offset="1" stop-color="#C86F34"/>
</linearGradient>
<linearGradient id="paint8_linear" x1="12.5276" y1="49.3461" x2="73.875" y2="34.5301" gradientUnits="userSpaceOnUse">
<stop stop-color="#FFBC47" stop-opacity="0"/>
<stop offset="1" stop-color="#C86F34"/>
</linearGradient>
<linearGradient id="paint9_linear" x1="42.8908" y1="49.4701" x2="83.0559" y2="-9.56224" gradientUnits="userSpaceOnUse">
<stop stop-color="#FFBC47" stop-opacity="0"/>
<stop offset="1" stop-color="#C86F34"/>
</linearGradient>
<linearGradient id="paint10_linear" x1="60.0613" y1="73.6541" x2="31.5868" y2="36.8457" gradientUnits="userSpaceOnUse">
<stop stop-color="#FFBC47" stop-opacity="0"/>
<stop offset="1" stop-color="#C86F34"/>
</linearGradient>
<linearGradient id="paint11_linear" x1="73.8243" y1="43.8528" x2="33.1962" y2="74.4108" gradientUnits="userSpaceOnUse">
<stop stop-color="#FFBC47" stop-opacity="0"/>
<stop offset="1" stop-color="#C86F34"/>
</linearGradient>
<radialGradient id="paint12_radial" cx="0" cy="0" r="1" gradientUnits="userSpaceOnUse" gradientTransform="translate(53.5123 42.4885) rotate(-69.0871) scale(3.91197 6.31072)">
<stop stop-color="#F8E6D2"/>
<stop offset="1" stop-color="#F8E6D2" stop-opacity="0"/>
</radialGradient>
<linearGradient id="paint13_linear" x1="7.64666" y1="48.956" x2="76.5178" y2="37.1495" gradientUnits="userSpaceOnUse">
<stop stop-color="#FFBC47" stop-opacity="0"/>
<stop offset="1" stop-color="#C86F34"/>
</linearGradient>
</defs>
</svg>
