<svg width="80" height="80" viewBox="0 0 80 80" fill="none" xmlns="http://www.w3.org/2000/svg">
<path d="M47.0725 34.9025C45.628 30.5636 45.4523 30.1585 45.1058 29.5192C44.7593 28.8847 37.9322 22.2275 36.2535 20.3729C34.5748 18.5182 35.5606 13.8328 40.8846 15.3946C46.2087 16.9564 53.2115 28.3576 53.2115 28.3576L52.6307 37.0988L50.4884 38.5435L47.0725 34.9025Z" fill="url(#paint0_linear)"/>
<path d="M52.6113 37.1128C52.3038 36.2733 51.8158 35.4777 51.0497 35.1898C49.1855 34.4967 46.4039 30.8509 45.711 28.9377C45.018 27.0294 41.0457 23.5788 39.4158 21.9487C38.0836 20.6162 36.0584 18.5029 36.1511 16.3018C35.2191 17.5268 35.3362 19.3668 36.2487 20.3722C37.9274 22.2269 44.7545 28.8791 45.101 29.5185C45.4475 30.153 45.6232 30.5581 47.0676 34.9018L50.4836 38.5477L52.6113 37.1128Z" fill="url(#paint1_linear)"/>
<path d="M52.9529 32.1394C51.9428 29.0841 50.7472 25.5115 50.2689 24.0766C49.6394 23.2225 48.9367 22.3196 48.1852 21.4167L45.3938 18.4102C43.881 16.9704 42.3194 15.8186 40.8798 15.394C40.0063 15.1353 39.2596 15.0621 38.6106 15.1011C38.796 17.9124 41.8607 20.1867 44.9302 25.0283C48.3169 30.3677 49.8346 33.5792 49.8346 36.9664C49.8346 37.3324 49.8737 37.6448 49.9176 37.9376L50.4837 38.5428L52.626 37.0981L52.9529 32.1394Z" fill="url(#paint2_linear)"/>
<path d="M41.2849 8.56624C44.9303 6.4822 48.3463 9.89866 55.7541 23.0374C58.0575 27.1274 58.0087 29.8069 59.7606 33.9554C62.0884 39.4657 64.1673 42.3697 64.0257 46.5378C63.9086 49.9542 60.5756 56.3918 59.4385 59.452C58.2966 62.5122 51.8159 37.0498 51.8159 37.0498C51.8159 37.0498 49.4735 31.0124 48.2291 26.5759C47.3019 23.2668 35.2971 14.5548 41.2849 8.56624Z" fill="url(#paint3_linear)"/>
<path d="M52.3966 32.9304C49.6785 22.8031 48.0583 23.7304 45.7989 20.4896C44.2129 18.2153 41.0945 14.4864 39.7184 11.4067C38.6448 17.039 47.4434 23.7597 48.234 26.566C49.4784 31.0026 51.8208 37.0399 51.8208 37.0399C51.8208 37.0399 52.0551 37.9624 52.4406 39.4266L56.6325 41.3495C55.3003 40.1489 53.6898 37.7574 52.3966 32.9304Z" fill="url(#paint4_linear)"/>
<path d="M63.7964 43.8926C63.2108 40.9447 61.5711 38.231 59.7606 33.9507C58.0087 29.807 58.0575 27.1227 55.7541 23.0327C50.9278 14.472 47.7998 10.0599 45.1938 8.58594C46.7164 12.4075 50.7326 17.2833 52.7432 21.1194C55.2905 25.9806 55.9835 29.5679 56.2129 31.1882C56.4422 32.8086 61.249 40.276 62.1713 41.7793C62.5959 42.4772 63.2303 43.2483 63.7964 43.8926Z" fill="url(#paint5_linear)"/>
<path d="M39.7135 11.4067C39.4012 13.8519 40.6407 16.1019 41.9534 18.059C43.3198 20.0357 44.9449 21.8123 46.5113 23.6474C47.2385 24.5991 48.1022 25.5167 48.4341 26.7515C48.7561 27.9082 49.1124 29.06 49.4833 30.2021C50.2397 32.4862 51.0205 34.7655 51.8208 37.0399C50.8936 34.8143 50.0347 32.5595 49.2637 30.2753C48.8733 29.1332 48.4975 27.9863 48.1559 26.8296C47.8436 25.7021 46.9798 24.7992 46.2429 23.867C44.7155 22.0124 43.11 20.1968 41.7631 18.1859C41.114 17.1659 40.4699 16.1312 40.0746 14.9745C39.6842 13.8324 39.4841 12.5976 39.7135 11.4067Z" fill="#804B24"/>
<path d="M35.7266 39.0506C38.0105 42.2181 43.1247 44.1021 45.594 44.7073C45.9063 44.7853 45.5891 45.4882 45.2914 45.6053C43.4956 46.2984 43.6225 47.5624 42.4122 48.8168C37.2638 54.1708 33.2964 55.0396 29.6803 52.5505C26.2887 50.2175 28.4359 49.9442 25.5713 44.8244C22.7067 39.7046 17.9975 39.158 15.8259 41.3299C13.6543 43.5017 16.4066 45.2051 16.8019 48.3824C17.2655 52.0868 17.3241 54.288 23.5705 61.7505C29.8169 69.213 33.8136 71.995 40.7579 71.995C47.7021 71.995 52.5626 69.9109 56.208 67.3047C59.8533 64.6984 59.8533 53.0678 60.8977 50.3054C61.9371 47.5429 64.7187 42.4768 58.1209 39.3532C51.5232 36.2296 36.766 29.8018 33.6428 29.8018C30.5196 29.8018 28.1431 31.017 24.9613 31.5393C22.2529 31.9834 20.623 33.2768 20.623 37.0934C20.623 38.6552 22.7067 40.0023 24.6148 40.0023C27.9723 40.0072 30.4074 39.0506 35.7266 39.0506Z" fill="url(#paint6_linear)"/>
<path d="M56.2128 67.3095C59.8581 64.7032 59.8581 53.0726 60.9025 50.3102C61.2099 49.4902 61.6686 48.4653 61.9956 47.3525C61.9273 47.4452 59.1017 51.3693 58.5308 54.1171C57.9501 56.8942 58.0672 63.4342 50.7765 67.5438C47.6484 69.3057 43.2564 72.2292 35.4435 68.759C27.6306 65.2889 19.8178 53.6534 18.7198 49.5439C17.8414 46.2641 17.2167 43.3211 15.0305 42.8281C14.8451 44.3997 16.5091 45.9664 16.8117 48.3872C17.2753 52.0916 17.3338 54.2928 23.5802 61.7553C29.8266 69.2178 33.8234 71.9998 40.7676 71.9998C47.7069 71.9998 52.5674 69.9157 56.2128 67.3095Z" fill="url(#paint7_linear)"/>
<path d="M47.707 43.6969C41.241 43.0136 36.0194 37.1568 36.0194 37.1568C36.0194 37.1568 30.5782 36.9811 27.05 37.7376C24.1513 38.3575 21.7454 38.0109 20.6816 36.2148C20.6572 36.4979 20.6279 36.7761 20.6279 37.1031C20.6279 38.6649 22.7117 40.012 24.6198 40.012C27.9772 40.012 30.4074 39.0554 35.7315 39.0554C38.0153 42.2229 43.1296 44.1069 45.5988 44.7121C45.9111 44.7902 45.5939 45.493 45.2963 45.6101C43.5004 46.3032 43.6273 47.5673 42.4171 48.8216C37.9128 53.507 34.3114 54.7564 31.0613 53.3313C35.6485 57.7532 42.5049 51.7451 43.5443 49.661C44.5838 47.5721 48.805 43.814 47.707 43.6969Z" fill="url(#paint8_linear)"/>
<path d="M62.1373 46.8059C62.7424 44.2826 62.4496 41.4031 58.1259 39.3532C53.2313 37.0349 43.8617 32.9059 38.0642 30.9292C41.9536 33.716 46.4334 35.5463 51.2939 37.3277C57.7746 39.7046 62.8497 44.0679 62.1373 46.8059Z" fill="url(#paint9_linear)"/>
<path d="M59.9509 56.0063C58.9017 60.6967 56.5495 65.9043 53.4361 67.7736C50.2055 69.7112 45.6183 71.4683 44.9985 71.7025C49.7517 71.0485 53.3629 69.3501 56.2128 67.31C58.5308 65.6554 59.375 60.3599 59.9509 56.0063Z" fill="url(#paint10_linear)"/>
<path d="M59.4384 59.4469C60.5755 56.3867 63.9134 49.9491 64.0256 46.5326C64.0256 46.4643 64.0207 46.4008 64.0207 46.3325C62.2688 48.0359 60.9658 50.1346 60.2631 54.4003C59.9947 56.0451 59.536 57.8217 58.9309 59.5348C59.1456 59.7593 59.3213 59.7593 59.4384 59.4469Z" fill="url(#paint11_linear)"/>
<path d="M60.4926 40.876C59.5069 40.0805 58.3698 39.5534 57.1937 39.0897L53.7241 37.5913C51.4305 36.5518 49.1369 35.5219 46.8921 34.3652C49.2491 35.2535 51.5574 36.2687 53.8705 37.2741L57.306 38.8457C58.4528 39.3484 59.5947 39.9828 60.4926 40.876Z" fill="#804B24"/>
<path opacity="0.5" d="M55.1488 39.0461C58.4331 40.3345 59.4676 42.7895 59.1797 44.9321C58.9455 46.6842 55.632 47.4505 52.4307 46.1669C49.2294 44.8833 46.4478 43.546 47.7166 40.2077C48.4632 38.2359 51.9378 37.7869 55.1488 39.0461Z" fill="url(#paint12_radial)"/>
<path d="M45.0328 46.2158C46.7408 45.3763 46.6237 44.4783 46.0479 44.2782C40.8067 42.443 36.039 38.4019 36.039 38.4019C36.039 38.4019 28.2554 38.807 26.0545 39.3878C24.1513 39.8905 21.9748 38.929 20.6719 37.3574C20.8866 38.807 22.8191 40.0076 24.6247 40.0076C27.9821 40.0076 30.4123 39.051 35.7364 39.051C38.0203 42.2185 43.1345 44.1025 45.6038 44.7077C45.9161 44.7857 45.5989 45.4886 45.3012 45.6057C43.5054 46.2988 43.6322 47.5628 42.422 48.8172C40.0455 51.2917 37.9178 52.7949 35.9658 53.4684C35.9755 53.4684 35.9853 53.4684 35.9951 53.4684C41.1386 52.502 43.3248 47.0553 45.0328 46.2158Z" fill="url(#paint13_linear)"/>
<defs>
<linearGradient id="paint0_linear" x1="48.2747" y1="28.9461" x2="24.1981" y2="-0.451162" gradientUnits="userSpaceOnUse">
<stop offset="0.00132565" stop-color="#D2A374"/>
<stop offset="1" stop-color="#DEBA94"/>
</linearGradient>
<linearGradient id="paint1_linear" x1="44.6648" y1="11.9661" x2="42.9284" y2="56.8769" gradientUnits="userSpaceOnUse">
<stop stop-color="#D2A374" stop-opacity="0"/>
<stop offset="1" stop-color="#B88653"/>
</linearGradient>
<linearGradient id="paint2_linear" x1="46.2959" y1="-0.0419932" x2="45.1383" y2="53.3185" gradientUnits="userSpaceOnUse">
<stop stop-color="#D2A374" stop-opacity="0"/>
<stop offset="1" stop-color="#B88653"/>
</linearGradient>
<linearGradient id="paint3_linear" x1="79.1137" y1="63.0603" x2="39.0926" y2="19.7461" gradientUnits="userSpaceOnUse">
<stop offset="0.00132565" stop-color="#D2A374"/>
<stop offset="1" stop-color="#DEBA94"/>
</linearGradient>
<linearGradient id="paint4_linear" x1="63.6579" y1="5.95347" x2="21.1762" y2="61.9712" gradientUnits="userSpaceOnUse">
<stop stop-color="#D2A374" stop-opacity="0"/>
<stop offset="1" stop-color="#B88653"/>
</linearGradient>
<linearGradient id="paint5_linear" x1="57.4016" y1="12.2542" x2="41.5419" y2="88.5326" gradientUnits="userSpaceOnUse">
<stop stop-color="#D2A374" stop-opacity="0"/>
<stop offset="1" stop-color="#B88653"/>
</linearGradient>
<linearGradient id="paint6_linear" x1="44.4192" y1="74.689" x2="39.5571" y2="48.5297" gradientUnits="userSpaceOnUse">
<stop offset="0.00132565" stop-color="#D2A374"/>
<stop offset="1" stop-color="#DEBA94"/>
</linearGradient>
<linearGradient id="paint7_linear" x1="47.2739" y1="29.7438" x2="5.71597" y2="122.687" gradientUnits="userSpaceOnUse">
<stop stop-color="#D2A374" stop-opacity="0"/>
<stop offset="1" stop-color="#B88653"/>
</linearGradient>
<linearGradient id="paint8_linear" x1="12.528" y1="49.3457" x2="73.8681" y2="34.5335" gradientUnits="userSpaceOnUse">
<stop stop-color="#D2A374" stop-opacity="0"/>
<stop offset="1" stop-color="#B88653"/>
</linearGradient>
<linearGradient id="paint9_linear" x1="42.8872" y1="49.4701" x2="83.0543" y2="-9.55734" gradientUnits="userSpaceOnUse">
<stop stop-color="#D2A374" stop-opacity="0"/>
<stop offset="1" stop-color="#B88653"/>
</linearGradient>
<linearGradient id="paint10_linear" x1="60.0554" y1="73.6542" x2="31.5799" y2="36.8494" gradientUnits="userSpaceOnUse">
<stop stop-color="#D2A374" stop-opacity="0"/>
<stop offset="1" stop-color="#B88653"/>
</linearGradient>
<linearGradient id="paint11_linear" x1="73.8164" y1="43.8523" x2="33.1896" y2="74.4048" gradientUnits="userSpaceOnUse">
<stop stop-color="#D2A374" stop-opacity="0"/>
<stop offset="1" stop-color="#B88653"/>
</linearGradient>
<radialGradient id="paint12_radial" cx="0" cy="0" r="1" gradientUnits="userSpaceOnUse" gradientTransform="translate(53.4872 42.4937) rotate(-69.0933) scale(3.91208 6.30986)">
<stop stop-color="#E9CDB1"/>
<stop offset="1" stop-color="#E9CDB1" stop-opacity="0"/>
</radialGradient>
<linearGradient id="paint13_linear" x1="7.64766" y1="48.9565" x2="76.5102" y2="37.153" gradientUnits="userSpaceOnUse">
<stop stop-color="#D2A374" stop-opacity="0"/>
<stop offset="1" stop-color="#B88653"/>
</linearGradient>
</defs>
</svg>
