<svg width="80" height="80" viewBox="0 0 80 80" fill="none" xmlns="http://www.w3.org/2000/svg">
<path d="M49.0956 57.245C52.0264 57.245 54.4022 54.8694 54.4022 51.9389C54.4022 49.0084 52.0264 46.6328 49.0956 46.6328C46.1648 46.6328 43.789 49.0084 43.789 51.9389C43.789 54.8694 46.1648 57.245 49.0956 57.245Z" fill="url(#paint0_linear)"/>
<path d="M18.8549 53.8894C15.8057 55.473 8 57.6685 8 42.3055C8 26.9424 11.0493 23.7701 13.4249 23.7701C15.8005 23.7701 17.3894 24.0118 19.0966 21.8214C20.8038 19.626 23.488 18.5308 27.3908 18.8959C31.2936 19.2609 32.5637 16.9524 34.0241 14.9986C35.4896 13.0499 39.4644 10.4791 43.1204 13.163C46.7764 15.8469 49.0955 16.0886 51.6563 14.6284C54.217 13.163 60.9223 12.9214 63.7299 18.6542C66.5323 24.3871 67.8744 29.9965 67.8744 33.899C67.8744 37.8014 69.2165 41.2155 70.5586 43.8994C71.9007 46.5833 73.361 52.311 69.5816 58.8973C65.8022 65.4837 65.5553 67.5557 60.6806 67.1907C55.8008 66.8256 52.1551 65.9721 41.6549 65.9721C39.7061 65.9721 36.8985 65.1186 36.8985 62.4347C36.8985 59.7508 39.8244 56.9487 43.4855 55.4833C47.1415 54.018 57.8731 52.6812 59.462 49.6322C61.0457 46.5833 38.9759 48.6553 38.9759 48.6553L18.8549 53.8894Z" fill="url(#paint1_linear)"/>
<path d="M69.5867 58.8852C73.3662 52.2989 71.9058 46.5712 70.5637 43.8872C69.3862 41.5324 68.2087 38.6068 67.9413 35.2905C67.9413 35.2905 67.9413 35.2905 67.9413 35.2957C68.075 38.4012 62.6398 48.0057 59.4671 49.6201C58.413 51.6459 53.2606 51.1574 48.8899 52.2115C46.6839 52.741 44.7196 54.9828 43.4958 55.4712C39.8398 56.9366 36.9088 59.7387 36.9088 62.4226C36.9088 65.1066 39.7112 65.9601 41.6652 65.9601C52.1654 65.9601 55.8111 66.8136 60.6909 67.1786C65.5605 67.5437 65.8022 65.4716 69.5867 58.8852Z" fill="url(#paint2_linear)"/>
<path d="M50.4428 21.6709C50.6999 22.3085 50.9158 22.9357 51.1369 23.563C50.9158 22.9357 50.705 22.3136 50.4428 21.6709Z" fill="url(#paint3_linear)"/>
<path d="M48.1494 17.1309C48.2111 17.208 48.2677 17.2903 48.3242 17.3674C48.2677 17.2903 48.2059 17.208 48.1494 17.1309Z" fill="url(#paint4_linear)"/>
<path opacity="0.24" d="M66.2906 25.3267C66.2958 25.157 66.2495 25.013 66.2341 24.8485C66.2032 24.7508 66.1569 24.648 66.1261 24.5503C65.9255 50.2324 66.2855 56.572 58.1199 56.572C49.9491 56.572 49.3372 53.523 49.3372 52.1811C49.3372 51.6463 49.2961 49.5023 49.2498 46.8133C49.2498 46.8133 49.2498 46.8133 49.2498 46.8184C49.2498 54.3765 47.9951 57.4306 42.1383 57.4306C41.4338 57.4306 40.7653 57.41 40.138 57.3586C39.7009 57.6877 39.2999 58.0373 38.9348 58.4024C38.3949 58.9422 40.9196 61.333 49.548 60.0836C51.2655 59.8368 63.0511 63.5645 66.6608 56.1966C68.2189 53.0191 65.5913 46.767 66.2906 25.3267Z" fill="url(#paint5_linear)"/>
<path d="M66.1312 24.5343C65.5038 22.632 64.712 20.6473 63.735 18.6472C60.9326 12.9144 54.2222 13.1612 51.6614 14.6214C50.8027 15.115 49.9645 15.3926 49.1007 15.4698V34.4987C49.1007 39.4963 49.3424 50.8386 49.3424 52.1805C49.3424 53.5225 49.9543 56.5714 58.125 56.5714C66.2906 56.5714 65.9255 50.2319 66.1312 24.5343Z" fill="url(#paint6_linear)"/>
<path d="M43.1204 13.1611C39.4644 10.4772 35.4895 13.048 34.024 14.9966C33.083 16.2512 32.1832 17.3515 30.6663 18.241C30.6663 18.2461 30.6663 18.2512 30.6663 18.2564C30.7742 25.8299 30.9234 32.55 30.9234 32.55C30.9234 39.1363 32.1935 45.697 32.5277 49.512C33.0933 56.0007 36.2917 57.4249 42.1434 57.4249C47.9951 57.4249 49.2549 54.3759 49.2549 46.8127C49.2549 41.3678 49.2549 24.4777 49.2549 15.4491C47.5015 15.665 45.6246 14.9966 43.1204 13.1611Z" fill="url(#paint7_linear)"/>
<path d="M17.266 37.3007C17.0706 32.0204 17.5129 26.997 18.1299 22.7964C16.757 23.9018 15.3532 23.763 13.4249 23.763C11.0493 23.763 8 26.9354 8 42.2984C8 57.6614 15.8057 55.4659 18.8549 53.8823L19.0709 53.8257C18.0888 50.7665 17.5746 45.7021 17.266 37.3007Z" fill="url(#paint8_linear)"/>
<path d="M32.5277 49.5118C32.2141 45.9075 31.0725 39.8405 30.9491 33.6294C30.9337 33.2541 30.9234 32.8891 30.9234 32.5497C30.9234 32.5497 30.7743 25.8348 30.6663 18.2561C30.6663 18.251 30.6663 18.2459 30.6663 18.2407C29.823 18.7343 28.7843 19.0171 27.3908 18.8886C23.488 18.5235 20.8038 19.6187 19.0966 21.8141C18.7727 22.2306 18.4539 22.5391 18.1299 22.7962C17.5129 26.9917 17.0758 32.0201 17.266 37.3005C17.9962 57.2961 19.8885 58.4581 26.5321 58.4581C30.3424 58.4581 33.0831 57.3269 34.1835 54.751C34.1835 54.7459 34.1783 54.7304 34.1732 54.7202C33.2836 53.5273 32.7334 51.8512 32.5277 49.5118Z" fill="url(#paint9_linear)"/>
<path d="M42.1434 57.4249C47.9951 57.4249 49.2549 54.376 49.2549 46.8127C49.2549 46.8127 49.2549 46.8127 49.2549 46.8076C49.3011 49.4966 49.3423 51.6407 49.3423 52.1754C49.3423 53.5173 49.9542 56.5663 58.125 56.5663C66.2957 56.5663 65.9306 50.2267 66.1312 24.5343C65.8484 23.6808 65.5244 22.8118 65.1748 21.9326C63.9972 26.4212 62.1461 34.5192 62.1461 41.0953C62.1461 50.7409 59.0968 50.5969 53.8519 49.9851C48.607 49.3732 50.4375 30.3545 48.9721 30.3545C47.5066 30.3545 49.0955 46.6328 47.8768 48.5249C46.6581 50.417 41.768 51.944 36.6568 50.962C31.5455 49.9851 32.7539 31.5731 30.6663 31.5731C28.5786 31.5731 32.8773 53.5225 24.8814 53.5225C16.8855 53.5225 19.0966 36.4524 17.266 36.4524C15.4354 36.4524 17.266 46.3294 16.7981 49.1316C16.3816 51.6355 11.836 52.2782 8.57074 48.4889C10.4219 56.957 16.2993 55.2141 18.8549 53.8875L19.0709 53.831C20.4284 58.0625 22.6806 58.4635 26.5372 58.4635C30.3474 58.4635 33.0882 57.3324 34.1886 54.7564C34.1886 54.7513 34.1834 54.7359 34.1783 54.7307C35.7569 56.8336 38.4051 57.4249 42.1434 57.4249Z" fill="url(#paint10_linear)"/>
<path d="M66.2444 42.4268C66.2444 37.3675 66.1262 24.5342 66.1262 24.5342C65.9256 50.2266 66.2907 56.5661 58.1199 56.5661C49.9491 56.5661 49.3372 53.5172 49.3372 52.1752L49.2498 46.8074C49.2498 54.3655 47.9952 57.4196 42.1383 57.4196C41.4184 57.4196 40.7551 57.3888 40.1175 57.3374C40.1123 57.3425 40.1123 57.3528 40.1072 57.3528C39.6752 57.6767 39.2844 58.0263 38.9245 58.3811C48.2677 59.6151 48.5351 54.7666 49.3629 55.5892C51.4044 57.6304 58.5416 60.0984 62.6244 57.4196C67.5351 54.2062 66.2444 47.4861 66.2444 42.4268Z" fill="url(#paint11_linear)"/>
<path opacity="0.24" d="M69.5867 58.8855C73.3662 52.2992 71.9058 46.5715 70.5637 43.8876C70.1369 43.0289 69.7101 42.0932 69.3296 41.0957C69.3245 41.2705 69.3553 41.4608 69.4685 41.6921C71.0522 44.9827 72.0035 50.2271 69.4685 57.0552C66.9334 63.8832 61.3594 66.6288 57.5183 65.1017C53.6771 63.5798 45.8715 64.0631 42.6988 64.0631C40.4568 64.0631 38.1789 62.9885 37.0219 61.5437C36.9551 61.8368 36.9088 62.1247 36.9088 62.4127C36.9088 65.0966 39.7112 65.9501 41.6652 65.9501C52.1654 65.9501 55.8111 66.8036 60.6909 67.1686C65.5605 67.544 65.8022 65.4719 69.5867 58.8855Z" fill="url(#paint12_linear)"/>
<path opacity="0.24" d="M8.12854 45.4556C9.14667 57.3326 16.0319 55.3531 18.8498 53.8877L19.0658 53.8312C18.6698 52.5921 18.351 50.9982 18.0888 49.0135C17.5077 53.461 9.89742 52.0882 8.12854 45.4556Z" fill="url(#paint13_linear)"/>
<path opacity="0.24" d="M18.783 52.8441C20.0993 58.0062 22.3927 58.4587 26.5321 58.4587C30.3424 58.4587 33.0831 57.3276 34.1835 54.7516C34.1835 54.7465 34.1783 54.7311 34.1732 54.7208C33.2836 53.528 32.7283 51.8518 32.5277 49.5073C32.4403 48.5355 32.2964 47.3684 32.1267 46.083C32.0804 46.2218 32.1164 46.6332 32.2655 47.4198C33.5459 54.1552 22.2539 57.6617 18.783 52.8441Z" fill="url(#paint14_linear)"/>
<path opacity="0.24" d="M39.2382 52.0267C36.0912 52.0267 33.1757 50.7928 32.3889 48.2065C32.4403 48.6641 32.4918 49.1115 32.5277 49.5125C33.0934 56.0012 36.2918 57.4254 42.1435 57.4254C47.157 57.4254 48.7922 55.1785 49.1624 49.785L49.2035 48.4636C47.846 51.5743 42.8788 52.0267 39.2382 52.0267Z" fill="url(#paint15_linear)"/>
<path opacity="0.24" d="M57.4462 13.9121C61.4776 15.6088 63.3647 25.131 63.3647 34.8331C63.3647 45.5327 62.4495 51.5689 56.8703 51.5689C51.2912 51.5689 50.0108 50.2887 49.368 47.6356C49.3423 47.5276 49.3063 47.4608 49.2601 47.4094C49.3012 49.8105 49.3372 51.6769 49.3372 52.1756C49.3372 53.5176 49.9491 56.5665 58.1198 56.5665C66.2906 56.5665 65.9255 50.227 66.126 24.5346C65.4987 22.6322 64.7068 20.6476 63.7298 18.6475C62.2952 15.7168 59.8424 14.3543 57.4462 13.9121Z" fill="url(#paint16_linear)"/>
<path opacity="0.48" d="M12.2319 35.4399C14.3299 35.1623 15.7903 38.4067 16.4896 42.0932C17.0604 45.1113 15.7543 48.7515 13.6974 48.9726C11.6406 49.1937 9.76889 49.0292 9.07471 42.6896C8.67362 38.9517 10.1854 35.7125 12.2319 35.4399Z" fill="url(#paint17_radial)"/>
<path opacity="0.48" d="M14.1139 25.4547C16.6798 25.1771 18.1968 26.699 18.7573 28.4934C19.2149 29.9588 17.3483 31.8612 14.839 32.1028C12.3296 32.3496 10.0722 32.3856 9.72773 29.2749C9.52719 27.4394 11.6097 25.7221 14.1139 25.4547Z" fill="url(#paint18_radial)"/>
<path opacity="0.48" d="M24.3107 21.5062C26.7943 20.8018 28.5426 22.0461 29.3962 23.7222C30.0955 25.0899 28.5735 27.275 26.1413 27.9434C23.709 28.6067 21.4928 29.0283 20.6289 26.0153C20.1199 24.2312 21.8836 22.19 24.3107 21.5062Z" fill="url(#paint19_radial)"/>
<path opacity="0.48" d="M38.7342 14.5493C42.3183 13.5364 44.9407 15.6496 46.2674 18.4158C47.3575 20.6781 45.2492 24.1538 41.7372 25.1049C38.2251 26.0613 35.0113 26.6269 33.5973 21.6807C32.7694 18.7706 35.2325 15.5416 38.7342 14.5493Z" fill="url(#paint20_radial)"/>
<path opacity="0.48" d="M57.2046 16.6476C59.9916 16.9253 61.2566 19.0333 61.4365 21.239C61.5857 23.0386 59.1637 24.8021 56.4384 24.5091C53.7131 24.2109 51.3118 23.7327 51.6614 20.0513C51.8722 17.8765 54.4793 16.3751 57.2046 16.6476Z" fill="url(#paint21_radial)"/>
<path opacity="0.48" d="M23.3234 35.0794C25.6682 34.7349 27.3085 38.4317 28.0901 42.6478C28.7329 46.0927 27.2725 50.2779 24.974 50.5556C22.6755 50.8332 20.5827 50.6687 19.8011 43.4191C19.3434 39.1464 21.03 35.4188 23.3234 35.0794Z" fill="url(#paint22_radial)"/>
<path opacity="0.48" d="M39.958 31.702C43.6603 31.1879 46.1131 35.841 47.2084 41.1779C48.1031 45.5431 45.6761 50.916 42.0509 51.3479C38.4257 51.7798 35.1399 51.6358 34.1526 42.4324C33.5716 37.0081 36.3432 32.2059 39.958 31.702Z" fill="url(#paint23_radial)"/>
<path opacity="0.48" d="M57.0504 31.1772C59.9248 30.9355 61.6114 35.7583 62.2182 41.1673C62.717 45.589 60.6087 50.7718 57.7908 50.9312C54.9781 51.0957 52.4482 50.7101 52.0934 41.4552C51.8928 36 54.2428 31.4137 57.0504 31.1772Z" fill="url(#paint24_radial)"/>
<path opacity="0.24" d="M65.0771 21.6706C64.676 20.6731 64.2287 19.6603 63.7299 18.6474C60.9274 12.9145 54.217 13.1613 51.6563 14.6215C50.8181 15.0997 50.0057 15.3671 49.1675 15.4545C47.4346 15.6396 45.5835 14.966 43.1204 13.1562C39.4644 10.4723 35.4896 13.0431 34.0241 14.9917C33.0831 16.2463 32.1832 17.3466 30.6663 18.2361C29.823 18.7296 28.7843 19.0124 27.3908 18.8839C23.4879 18.5188 20.8038 19.614 19.0966 21.8094C18.7726 22.2259 18.4538 22.5344 18.1299 22.7915C16.7569 23.8969 15.3532 23.7581 13.4249 23.7581C12.1034 23.7581 10.5762 24.7453 9.4809 28.2518C11.7486 24.0409 15.3377 25.9021 18.2996 25.2234C21.4722 24.4933 21.827 17.3825 30.6663 20.1024C32.4506 20.6526 34.6 13.5161 38.8628 13.5161C43.1204 13.5161 45.8046 17.1203 49.1007 17.1203C52.3967 17.1203 58.7421 12.2564 65.0771 21.6706Z" fill="url(#paint25_linear)"/>
<path d="M49.2549 31.9076L49.5686 48.7617L49.6251 50.8698C49.6663 51.5639 49.5943 52.3042 49.7383 52.9058C50.0108 54.1758 51.1986 55.0139 52.4482 55.4612C53.7183 55.9188 55.1066 56.1039 56.4847 56.1758C57.8679 56.217 59.2717 56.2838 60.5572 55.9291C61.853 55.6051 62.9277 54.7671 63.5705 53.5948C63.951 53.0446 64.1207 52.3659 64.3778 51.7438C64.5321 51.0703 64.7429 50.4173 64.8457 49.7283C65.3394 46.9982 65.4782 44.1857 65.617 41.3887C65.7507 38.5865 65.8124 35.7792 65.8793 32.9719L66.121 24.5449C66.1981 30.1647 66.3164 35.7844 66.1775 41.4093C66.1261 44.2217 65.9667 47.0444 65.4988 49.8517C65.4011 50.5561 65.18 51.2451 65.0257 51.9443C64.7532 52.6179 64.5835 53.3274 64.167 53.9495C63.4779 55.2504 62.1873 56.2787 60.7372 56.6386C59.2923 57.0191 57.8422 56.9265 56.4333 56.8751C55.0141 56.7877 53.5794 56.5975 52.2065 56.0884C50.8747 55.6103 49.44 54.6282 49.1109 53.0498C48.9515 52.2683 49.0389 51.5896 49.0081 50.8852L48.9978 48.7771C48.9927 43.1523 49.1367 37.5274 49.2549 31.9076Z" fill="#3D2A20"/>
<path d="M39.2382 57.266C40.6008 57.3328 41.9738 57.2865 43.3056 57.158C44.6322 57.0037 45.9383 56.5924 46.8588 55.7183C47.7895 54.8443 48.2266 53.5589 48.4939 52.2683C48.7716 50.9675 48.8693 49.6153 48.9259 48.2631C49.0339 45.5637 48.9567 42.813 49.0184 40.088C49.075 37.3578 49.1367 34.6327 49.255 31.9077L49.5532 48.2785C49.5275 49.6513 49.4607 51.0344 49.1984 52.4072C48.9259 53.7645 48.4014 55.1888 47.301 56.1862C46.2057 57.2094 44.7094 57.5179 43.3467 57.5847C41.9532 57.6516 40.5854 57.5179 39.2382 57.266Z" fill="#3D2A20"/>
<path d="M30.9285 32.5503C31.1136 34.4887 31.2679 36.4219 31.4993 38.35C31.7307 40.2729 31.9569 42.201 32.2397 44.1188C32.4609 46.0418 32.7437 47.9853 32.8568 49.9236C33.0162 51.8157 33.407 53.7695 34.6514 55.2915C33.1602 53.9649 32.5637 51.9083 32.2963 49.9854C32.0649 48.0521 31.7975 46.1446 31.5147 44.2114C31.2936 42.2781 31.0519 40.3449 30.9439 38.3963C30.8205 36.4476 30.8102 34.4938 30.9285 32.5503Z" fill="#3D2A20"/>
<path d="M17.266 37.3062C17.4717 38.7561 17.6002 40.206 17.7442 41.6508L18.1299 45.9903C18.2533 47.435 18.3921 48.8747 18.5618 50.3143C18.7418 51.7488 18.9577 53.1782 19.3331 54.587C18.6698 53.2759 18.2996 51.8362 18.0065 50.4017C17.7082 48.9621 17.5437 47.507 17.4048 46.052C17.1632 43.1418 17.0912 40.2214 17.266 37.3062Z" fill="#3D2A20"/>
<defs>
<linearGradient id="paint0_linear" x1="49.0232" y1="52.8665" x2="48.7489" y2="56.3189" gradientUnits="userSpaceOnUse">
<stop offset="0.00132565" stop-color="#BE8D68"/>
<stop offset="1" stop-color="#CD9870"/>
</linearGradient>
<linearGradient id="paint1_linear" x1="47.2285" y1="85.5057" x2="42.3515" y2="59.6547" gradientUnits="userSpaceOnUse">
<stop offset="0.00132565" stop-color="#5A4539"/>
<stop offset="1" stop-color="#695042"/>
</linearGradient>
<linearGradient id="paint2_linear" x1="59.6132" y1="83.1674" x2="54.7361" y2="57.3164" gradientUnits="userSpaceOnUse">
<stop offset="0.00132565" stop-color="#5A4539"/>
<stop offset="1" stop-color="#695042"/>
</linearGradient>
<linearGradient id="paint3_linear" x1="51.484" y1="73.7438" x2="50.8744" y2="28.7485" gradientUnits="userSpaceOnUse">
<stop stop-color="#FFBC47" stop-opacity="0"/>
<stop offset="1" stop-color="#C86F34"/>
</linearGradient>
<linearGradient id="paint4_linear" x1="49.0025" y1="73.7802" x2="48.3928" y2="28.7827" gradientUnits="userSpaceOnUse">
<stop stop-color="#FFBC47" stop-opacity="0"/>
<stop offset="1" stop-color="#C86F34"/>
</linearGradient>
<linearGradient id="paint5_linear" x1="53.0186" y1="74.6168" x2="53.0186" y2="48.6438" gradientUnits="userSpaceOnUse">
<stop offset="0.00132565" stop-color="#473226"/>
<stop offset="1" stop-color="#3D2A20"/>
</linearGradient>
<linearGradient id="paint6_linear" x1="57.613" y1="56.5693" x2="57.613" y2="25.4703" gradientUnits="userSpaceOnUse">
<stop offset="0.00132565" stop-color="#5A4539"/>
<stop offset="1" stop-color="#695042"/>
</linearGradient>
<linearGradient id="paint7_linear" x1="39.9609" y1="56.6036" x2="39.9609" y2="25.5884" gradientUnits="userSpaceOnUse">
<stop offset="0.00132565" stop-color="#5A4539"/>
<stop offset="1" stop-color="#695042"/>
</linearGradient>
<linearGradient id="paint8_linear" x1="13.535" y1="56.6013" x2="13.535" y2="25.5023" gradientUnits="userSpaceOnUse">
<stop offset="0.00132565" stop-color="#5A4539"/>
<stop offset="1" stop-color="#695042"/>
</linearGradient>
<linearGradient id="paint9_linear" x1="25.7048" y1="56.6011" x2="25.7048" y2="25.5021" gradientUnits="userSpaceOnUse">
<stop offset="0.00132565" stop-color="#5A4539"/>
<stop offset="1" stop-color="#695042"/>
</linearGradient>
<linearGradient id="paint10_linear" x1="37.3499" y1="54.8164" x2="37.3499" y2="-9.93232" gradientUnits="userSpaceOnUse">
<stop offset="0.00132565" stop-color="#5A4539"/>
<stop offset="1" stop-color="#695042"/>
</linearGradient>
<linearGradient id="paint11_linear" x1="58.7815" y1="71.1483" x2="44.6381" y2="3.95999" gradientUnits="userSpaceOnUse">
<stop stop-color="#3C2200" stop-opacity="0"/>
<stop offset="0.9984"/>
</linearGradient>
<linearGradient id="paint12_linear" x1="49.5867" y1="34.7602" x2="62.511" y2="90.3645" gradientUnits="userSpaceOnUse">
<stop offset="0.00132565" stop-color="#473226"/>
<stop offset="1" stop-color="#3D2A20"/>
</linearGradient>
<linearGradient id="paint13_linear" x1="13.6004" y1="2.0635" x2="13.6004" y2="75.2266" gradientUnits="userSpaceOnUse">
<stop offset="0.00132565" stop-color="#473226"/>
<stop offset="1" stop-color="#3D2A20"/>
</linearGradient>
<linearGradient id="paint14_linear" x1="26.4863" y1="2.06391" x2="26.4863" y2="75.2266" gradientUnits="userSpaceOnUse">
<stop offset="0.00132565" stop-color="#473226"/>
<stop offset="1" stop-color="#3D2A20"/>
</linearGradient>
<linearGradient id="paint15_linear" x1="40.7976" y1="2.06365" x2="40.7976" y2="75.2269" gradientUnits="userSpaceOnUse">
<stop offset="0.00132565" stop-color="#473226"/>
<stop offset="1" stop-color="#3D2A20"/>
</linearGradient>
<linearGradient id="paint16_linear" x1="57.6973" y1="2.06354" x2="57.6973" y2="75.2266" gradientUnits="userSpaceOnUse">
<stop offset="0.00132565" stop-color="#473226"/>
<stop offset="1" stop-color="#3D2A20"/>
</linearGradient>
<radialGradient id="paint17_radial" cx="0" cy="0" r="1" gradientUnits="userSpaceOnUse" gradientTransform="translate(12.7807 42.2485) rotate(-96.1898) scale(6.98819 3.78484)">
<stop stop-color="#695042"/>
<stop offset="1" stop-color="#695042" stop-opacity="0"/>
</radialGradient>
<radialGradient id="paint18_radial" cx="0" cy="0" r="1" gradientUnits="userSpaceOnUse" gradientTransform="translate(14.2491 28.8088) rotate(-96.2218) scale(3.43362 4.61128)">
<stop stop-color="#695042"/>
<stop offset="1" stop-color="#695042" stop-opacity="0"/>
</radialGradient>
<radialGradient id="paint19_radial" cx="0" cy="0" r="1" gradientUnits="userSpaceOnUse" gradientTransform="translate(24.9946 24.7723) rotate(-105.906) scale(3.43393 4.61181)">
<stop stop-color="#695042"/>
<stop offset="1" stop-color="#695042" stop-opacity="0"/>
</radialGradient>
<radialGradient id="paint20_radial" cx="0" cy="0" r="1" gradientUnits="userSpaceOnUse" gradientTransform="translate(39.9156 19.8946) rotate(-105.897) scale(5.63311 6.65897)">
<stop stop-color="#695042"/>
<stop offset="1" stop-color="#695042" stop-opacity="0"/>
</radialGradient>
<radialGradient id="paint21_radial" cx="0" cy="0" r="1" gradientUnits="userSpaceOnUse" gradientTransform="translate(56.5735 20.5391) rotate(-84.4422) scale(4.05213 5.00966)">
<stop stop-color="#695042"/>
<stop offset="1" stop-color="#695042" stop-opacity="0"/>
</radialGradient>
<radialGradient id="paint22_radial" cx="0" cy="0" r="1" gradientUnits="userSpaceOnUse" gradientTransform="translate(23.9561 42.8346) rotate(-96.0935) scale(7.98985 4.23622)">
<stop stop-color="#695042"/>
<stop offset="1" stop-color="#695042" stop-opacity="0"/>
</radialGradient>
<radialGradient id="paint23_radial" cx="0" cy="0" r="1" gradientUnits="userSpaceOnUse" gradientTransform="translate(40.6969 41.5502) rotate(-96.0702) scale(10.1412 6.67733)">
<stop stop-color="#695042"/>
<stop offset="1" stop-color="#695042" stop-opacity="0"/>
</radialGradient>
<radialGradient id="paint24_radial" cx="0" cy="0" r="1" gradientUnits="userSpaceOnUse" gradientTransform="translate(57.1671 41.0818) rotate(-92.159) scale(10.1463 5.15348)">
<stop stop-color="#695042"/>
<stop offset="1" stop-color="#695042" stop-opacity="0"/>
</radialGradient>
<linearGradient id="paint25_linear" x1="36.5995" y1="1.91567" x2="38.7942" y2="76.3586" gradientUnits="userSpaceOnUse">
<stop offset="0.00132565" stop-color="#473226"/>
<stop offset="1" stop-color="#3D2A20"/>
</linearGradient>
</defs>
</svg>
