<svg width="80" height="80" viewBox="0 0 80 80" fill="none" xmlns="http://www.w3.org/2000/svg">
<path d="M21.5397 35.4669C22.0525 36.0806 22.4996 36.874 22.2892 37.0669C22.0788 37.2597 21.4651 36.8696 21.0049 36.3699C20.5446 35.8702 19.1989 40.9243 19.0761 41.1742C18.9841 41.3627 17.5945 42.8399 16.8362 44.2646C16.5863 44.738 16.56 46.2021 16.4679 46.2854C16.1041 46.6229 15.6614 46.5659 14.7365 45.6804C13.8115 44.795 13.1102 49.8272 14.2236 50.6732C16.126 52.1154 19.8257 57.7 24.9939 57.9016C30.9773 58.1384 36.7592 52.111 36.9389 47.5347C37.1186 42.9583 35.8562 41.1698 36.0929 37.3342C36.2945 34.0861 38.7186 32.6307 38.7844 31.0045C38.837 29.6368 36.8205 29.2248 36.1543 29.1985C34.9707 29.1502 31.8847 30.5486 31.7269 34.5376C31.6655 36.0893 31.1658 37.4745 29.579 37.4131C27.9922 37.3518 26.3045 35.103 25.3007 33.3628" fill="url(#paint0_linear)"/>
<path d="M38.7843 31.0046C38.815 30.2594 38.232 29.7991 37.5833 29.5317C38.2671 32.1706 34.2737 32.1268 33.923 41.0034C33.5724 49.8843 28.3034 52.2646 26.1423 52.624C23.9813 52.9835 20.2027 52.9659 17.4718 49.3233C16.6345 48.2055 15.4816 46.9825 14.1973 45.8208C13.5967 46.737 13.3513 50.0115 14.228 50.6778C16.1304 52.1199 19.8301 57.7045 24.9982 57.9062C30.9817 58.1429 36.7635 52.1155 36.9433 47.5392C37.123 42.9628 35.8562 41.1699 36.0929 37.3344C36.2945 34.0862 38.7186 32.6265 38.7843 31.0046Z" fill="url(#paint1_linear)"/>
<path d="M14.7409 45.685C13.816 44.7995 11.6374 42.2878 10.2084 41.0516C8.77933 39.8111 7.4862 39.7761 6.54813 41.0429C5.61006 42.3097 8.10427 44.7031 8.67412 45.3168C9.54206 46.2593 13.119 49.8318 14.2324 50.6778" fill="url(#paint2_linear)"/>
<path d="M19.0803 41.1789C18.9575 41.4332 18.1992 41.5822 16.7658 39.8945C15.6699 38.6058 12.7461 34.9017 11.0015 33.2053C9.25685 31.5089 7.87604 30.79 6.66181 31.5922C5.44758 32.3944 6.04812 34.1916 7.31057 35.7215C8.8711 37.6151 10.6815 39.5526 12.413 41.4156C13.7675 42.8709 16.8403 45.9525 16.4721 46.2901" fill="url(#paint3_linear)"/>
<path d="M12.413 41.4154C13.6886 42.7874 16.494 45.6104 16.5028 46.2066C16.9499 45.5666 16.2573 43.5896 15.4727 42.8751C10.9358 38.7371 6.65746 32.1925 6.07446 32.3591C5.78953 33.2752 6.36377 34.5727 7.31499 35.7212C8.87552 37.6149 10.6815 39.5524 12.413 41.4154Z" fill="url(#paint4_linear)"/>
<path d="M25.3049 33.3582C24.3011 31.618 20.1236 25.9808 19.111 24.3852C18.1028 22.794 16.6606 22.737 15.6393 23.3989C14.6179 24.0608 14.2628 25.4548 16.3888 28.5232C17.7302 30.4607 18.8392 32.236 21.5438 35.4667L24.8402 35.3659L25.3049 33.3582Z" fill="url(#paint5_linear)"/>
<path d="M21.0048 36.3697C20.5446 35.87 16.4986 30.6711 15.5781 29.5533C13.8597 27.4624 11.7513 23.0438 8.9502 24.8674C7.47735 25.8273 8.19624 27.3265 8.57761 27.9314C8.95897 28.5364 14 34.8398 14.4953 35.3746C14.9907 35.9138 19.1944 40.9241 19.0761 41.1784" fill="url(#paint6_linear)"/>
<path d="M21.5395 35.4671C22.0304 36.0545 22.4644 36.8084 22.311 37.0407C24.0775 35.7301 20.6146 31.5394 18.6595 29.0277C17.1472 27.0858 16.8097 24.6749 15.7226 23.3467C15.6963 23.3642 15.6656 23.3817 15.6393 23.3993C14.6136 24.0612 14.2629 25.4551 16.3889 28.5236C17.7302 30.4611 18.8393 32.2364 21.5395 35.4671Z" fill="url(#paint7_linear)"/>
<path d="M14.4995 35.3749C14.9949 35.9141 19.1986 40.9244 19.0803 41.1787C20.5093 39.4034 15.4595 33.8232 13.0179 31.0089C10.9007 28.5673 10.607 26.4896 8.49412 25.249C7.65249 26.1871 8.24426 27.3969 8.58179 27.9273C8.96315 28.5367 14.0042 34.8357 14.4995 35.3749Z" fill="url(#paint8_linear)"/>
<path d="M18.9749 41.2797C18.8171 41.3674 18.5015 41.363 18.0237 41.0605C18.3744 41.3718 18.7075 41.4989 18.9749 41.2797Z" fill="url(#paint9_linear)"/>
<path d="M36.4477 29.7639C37.5831 29.6061 37.7759 29.742 37.5831 29.5272C37.0439 29.2993 36.4565 29.2072 36.154 29.1941C34.9705 29.1459 31.8845 30.5442 31.7267 34.5332C31.6653 36.0849 31.1656 37.4701 29.5788 37.4088C28.9519 37.3825 28.3119 37.0186 27.7026 36.4795C30.3678 39.675 32.6691 36.852 33.0812 34.8707C33.4932 32.8937 33.1163 30.2286 36.4477 29.7639Z" fill="url(#paint10_radial)"/>
<path d="M15.2842 23.6885C14.5653 24.4424 14.5303 25.8408 16.3889 28.5235C17.7302 30.461 18.8392 32.2363 21.5439 35.4669C22.0567 36.0806 22.5038 36.8741 22.2934 37.0669C22.894 33.8538 18.4228 30.4961 17.0201 28.0018C15.9111 26.0249 15.7182 24.8764 15.2842 23.6885Z" fill="url(#paint11_linear)"/>
<path d="M14.4995 35.3746C14.9949 35.9138 19.1987 40.9241 19.0803 41.1784C20.0754 40.5252 19.4573 39.4206 18.0195 37.8644C15.0694 34.6689 10.9577 30.373 9.37084 26.9101C9.2218 26.5813 8.92811 26.3314 8.57304 26.2701C7.64812 26.1123 8.28812 27.4624 8.57743 27.927C8.96318 28.5363 14.0042 34.8354 14.4995 35.3746Z" fill="url(#paint12_linear)"/>
<path d="M7.31063 35.7215C8.87116 37.6152 10.6815 39.5527 12.413 41.4157C13.7675 42.871 16.8404 45.9526 16.4721 46.2901C18.5149 44.7077 9.5769 38.3341 6.07448 32.3594C5.78955 33.2755 6.36379 34.573 7.31063 35.7215Z" fill="url(#paint13_linear)"/>
<path d="M16.0558 46.6053C16.2442 46.5395 16.3451 46.4562 16.3845 46.3642C16.0338 46.6097 15.5955 46.5001 14.7451 45.6847C13.8202 44.7993 11.6416 42.2875 10.2125 41.0514C9.5857 40.5078 8.98078 40.1966 8.42407 40.1221C9.20434 40.6525 8.82735 40.819 10.5545 42.2568C11.475 43.0239 14.8152 47.0392 16.0558 46.6053Z" fill="url(#paint14_linear)"/>
<path d="M14.0788 37.6497C15.315 39.2804 17.7391 41.985 18.9051 41.31C18.5895 41.4064 17.8793 41.2048 16.7659 39.8897C15.6701 38.601 12.7463 34.8969 11.0016 33.2005C9.59013 31.8285 8.41536 31.0964 7.37646 31.2893C10.3353 32.3983 12.9084 36.1111 14.0788 37.6497Z" fill="url(#paint15_linear)"/>
<path d="M15.7487 30.9121C17.73 33.2441 20.6231 37.8293 22.21 37.1104C21.9513 37.1805 21.4166 36.8167 21.0045 36.3696C20.5442 35.8699 16.4983 30.671 15.5777 29.5532C14.3854 28.1023 13.009 25.5379 11.3433 24.7051C13.0002 26.1209 14.1443 29.0228 15.7487 30.9121Z" fill="url(#paint16_linear)"/>
<path d="M27.707 36.4791C26.7733 35.6507 25.9142 34.4101 25.3049 33.3537C24.301 31.6178 20.1236 25.9806 19.111 24.385C18.8041 23.8985 18.4578 23.5566 18.094 23.333C18.563 24.0694 18.8041 25.0996 19.8825 26.4102C21.6096 28.5143 23.832 32.2622 24.5947 33.5466C25.3575 34.8397 26.5629 37.5399 27.707 36.4791Z" fill="url(#paint17_linear)"/>
<path d="M32.9192 54.737C32.3099 53.0756 31.3674 52.0411 29.9121 52.9222C25.9406 55.32 21.5221 54.2855 16.1172 49.5513C11.2954 45.33 8.83621 42.3492 6.45159 41.2095C5.82036 42.5114 8.13047 44.7294 8.67402 45.3168C9.54196 46.2593 13.1189 49.8318 14.2323 50.6778C16.1347 52.12 19.8344 57.7046 25.0026 57.9062C27.8913 58.0202 30.7318 56.6745 32.9192 54.737Z" fill="url(#paint18_linear)"/>
<path d="M36.0926 37.3343C36.2942 34.0861 38.7183 32.6308 38.784 31.0045C38.8016 30.5267 38.5692 30.1673 38.2273 29.8955C38.6087 31.1799 37.5347 32.2582 35.926 34.1081C34.1813 36.1113 33.686 39.3113 34.703 42.5682C35.72 45.8252 34.1068 50.1999 31.7266 51.5149C29.3463 52.8256 26.0105 58.8748 17.4364 51.5588L17.432 51.5544C16.9103 51.0328 16.3975 50.5681 15.8671 50.2087C12.22 47.7451 10.1729 45.5797 8.63429 43.7649C8.33183 43.4098 7.53403 42.0553 6.50391 42.4499C6.95979 43.6159 8.27922 44.8915 8.67374 45.3167C9.54167 46.2591 13.1186 49.8317 14.232 50.6777C14.3767 50.7873 14.5345 50.9232 14.6967 51.0766C14.7405 51.116 14.7843 51.1555 14.8282 51.1993C14.8413 51.2125 14.8501 51.2212 14.8632 51.2344C14.8895 51.2607 14.9202 51.287 14.9465 51.3177C14.9509 51.3221 14.9597 51.3308 14.9641 51.3352C16.0819 52.4355 17.6161 54.2459 19.5185 55.688C19.5185 55.688 19.5185 55.688 19.5229 55.688C19.6895 55.8152 19.8604 55.9379 20.0314 56.0606C20.0358 56.0606 20.0358 56.065 20.0402 56.065C20.2111 56.1834 20.3865 56.3017 20.5618 56.4113L20.5662 56.4157C21.89 57.2486 23.3716 57.8447 24.9979 57.9061C30.9814 58.1428 36.7632 52.1155 36.943 47.5391C37.1227 42.9627 35.8558 41.1699 36.0926 37.3343Z" fill="url(#paint19_radial)"/>
<path d="M58.4574 35.4674C57.9445 36.081 57.4974 36.8745 57.7078 37.0673C57.9182 37.2646 58.5319 36.8701 58.9922 36.3704C59.4525 35.8706 60.7982 40.9248 60.9209 41.1747C61.013 41.3632 62.4026 42.8404 63.1609 44.265C63.4108 44.7385 63.4371 46.2026 63.5291 46.2858C63.8929 46.6234 64.3357 46.5664 65.2606 45.6809C66.1855 44.7954 66.8869 49.8277 65.7735 50.6737C63.871 52.1159 60.1714 57.7005 55.0032 57.9021C49.0197 58.1388 43.2379 52.1115 43.0582 47.5351C42.8784 42.9588 44.1497 41.1659 43.9129 37.3303C43.7113 34.0822 41.2872 32.6268 41.2215 31.0006C41.1689 29.6329 43.1853 29.2209 43.8516 29.1946C45.0351 29.1463 48.1211 30.5447 48.2789 34.5337C48.3403 36.0854 48.84 37.4706 50.4268 37.4092C52.0137 37.3479 53.7013 35.0991 54.7051 33.3589" fill="url(#paint20_linear)"/>
<path d="M41.217 31.0051C41.1863 30.2599 41.7693 29.7996 42.4181 29.5322C41.7342 32.1711 45.7276 32.1273 46.0783 41.0039C46.429 49.8804 51.6979 52.2651 53.859 52.6245C56.0201 52.984 59.7986 52.9664 62.5296 49.3237C63.3668 48.2059 64.5197 46.983 65.804 45.8213C66.4046 46.7375 66.6501 50.012 65.7734 50.6782C63.8709 52.1204 60.1712 57.705 55.0031 57.9066C49.0196 58.1434 43.2378 52.116 43.0581 47.5397C42.8783 42.9633 44.1495 41.1704 43.9128 37.3349C43.7024 34.0867 41.2783 32.627 41.217 31.0051Z" fill="url(#paint21_linear)"/>
<path d="M65.2561 45.6855C66.181 44.8 68.3596 42.2883 69.7886 41.0521C71.2177 39.8116 72.5108 39.7765 73.4489 41.0434C74.3869 42.3102 71.8927 44.7036 71.3229 45.3173C70.4549 46.2597 66.878 49.8323 65.7646 50.6783" fill="url(#paint22_linear)"/>
<path d="M60.9209 41.1794C61.0436 41.4336 61.802 41.5827 63.2354 39.895C64.3313 38.6063 67.2551 34.9022 68.9997 33.2058C70.7443 31.5094 72.1207 30.7905 73.335 31.5927C74.5492 32.3949 73.9487 34.1921 72.6862 35.7219C71.1257 37.6156 69.3153 39.5531 67.5838 41.4161C66.2293 42.8714 63.1565 45.953 63.5247 46.2906" fill="url(#paint23_linear)"/>
<path d="M67.5883 41.4154C66.3127 42.7874 63.5072 45.6104 63.4984 46.2066C63.0513 45.5666 63.7439 43.5896 64.5286 42.8751C69.0611 38.7415 73.3438 32.1925 73.9268 32.3591C74.2117 33.2752 73.6375 34.5727 72.6863 35.7212C71.1257 37.6149 69.3197 39.5524 67.5883 41.4154Z" fill="url(#paint24_linear)"/>
<path d="M54.6963 33.3589C55.7001 31.6187 59.8776 25.9815 60.8902 24.3859C61.9028 22.7903 63.3362 22.7377 64.3619 23.3996C65.3877 24.0615 65.7383 25.4555 63.6123 28.5239C62.271 30.4614 61.162 32.2367 58.4573 35.4674L55.1609 35.3666L54.6963 33.3589Z" fill="url(#paint25_linear)"/>
<path d="M58.9922 36.3708C59.4525 35.8711 63.4984 30.6723 64.419 29.5545C66.1373 27.4635 68.2501 23.0406 71.0468 24.8641C72.5197 25.8241 71.8008 27.3233 71.4194 27.9282C71.0381 28.5331 65.997 34.8366 65.5017 35.3714C65.0064 35.9105 60.8026 40.9209 60.9209 41.1751" fill="url(#paint26_linear)"/>
<path d="M58.4574 35.4676C57.9664 36.0549 57.5324 36.8089 57.6859 37.0412C55.9193 35.7306 59.3823 31.5399 61.3373 29.0282C62.8496 27.0863 63.1872 24.6754 64.2743 23.3472C64.3006 23.3647 64.3313 23.3822 64.3576 23.3998C65.3833 24.0617 65.734 25.4556 63.608 28.5241C62.271 30.4616 61.162 32.2369 58.4574 35.4676Z" fill="url(#paint27_linear)"/>
<path d="M65.4973 35.3754C65.002 35.9146 60.7982 40.9249 60.9165 41.1792C59.4875 39.4038 64.5373 33.8236 66.9789 31.0094C69.0961 28.5678 69.3942 26.4944 71.5027 25.2495C72.3443 26.1876 71.7525 27.3974 71.415 27.9278C71.0337 28.5371 65.997 34.8362 65.4973 35.3754Z" fill="url(#paint28_linear)"/>
<path d="M61.0217 41.2802C61.1795 41.3679 61.4952 41.3635 61.973 41.061C61.6267 41.3723 61.2891 41.4994 61.0217 41.2802Z" fill="url(#paint29_linear)"/>
<path d="M43.5491 29.7644C42.4138 29.6066 42.2209 29.7425 42.4138 29.5277C42.9529 29.2998 43.5403 29.2077 43.8428 29.1946C45.0263 29.1463 48.1123 30.5447 48.2701 34.5337C48.3315 36.0854 48.8312 37.4706 50.418 37.4092C51.0449 37.3829 51.6849 37.0191 52.2942 36.4799C49.629 39.6755 47.3277 36.8525 46.9156 34.8712C46.5036 32.8942 46.8806 30.2291 43.5491 29.7644Z" fill="url(#paint30_radial)"/>
<path d="M64.7126 23.689C65.4315 24.4429 65.4665 25.8413 63.6079 28.524C62.2666 30.4615 61.1575 32.2368 58.4529 35.4674C57.9401 36.0811 57.4929 36.8745 57.7033 37.0674C57.1028 33.8543 61.574 30.4965 62.9767 28.0023C64.0857 26.0254 64.2786 24.8769 64.7126 23.689Z" fill="url(#paint31_linear)"/>
<path d="M65.4972 35.3751C65.0019 35.9143 60.7981 40.9246 60.9165 41.1789C59.9214 40.5257 60.5395 39.4211 61.9773 37.8649C64.9274 34.6738 69.0391 30.3779 70.6259 26.9106C70.775 26.5818 71.0686 26.3319 71.4237 26.275C72.3486 26.1172 71.7086 27.4673 71.4193 27.9319C71.0336 28.5368 65.9969 34.8359 65.4972 35.3751Z" fill="url(#paint32_linear)"/>
<path d="M72.6863 35.722C71.1258 37.6157 69.3154 39.5532 67.5839 41.4162C66.2294 42.8715 63.1566 45.9531 63.5248 46.2906C61.4821 44.7082 70.4244 38.3346 73.9268 32.3599C74.2118 33.276 73.6332 34.5735 72.6863 35.722Z" fill="url(#paint33_linear)"/>
<path d="M63.9455 46.6058C63.757 46.54 63.6562 46.4567 63.6167 46.3647C63.9674 46.6101 64.4057 46.5006 65.2561 45.6852C66.181 44.7998 68.3596 42.288 69.7887 41.0519C70.4155 40.5083 71.0204 40.1971 71.5771 40.1226C70.7969 40.653 71.1739 40.8195 69.4468 42.2573C68.5262 43.0244 65.1816 47.0397 63.9455 46.6058Z" fill="url(#paint34_linear)"/>
<path d="M65.9224 37.6502C64.6863 39.2809 62.2622 41.9855 61.0962 41.3105C61.4118 41.4069 62.1219 41.2053 63.2353 39.8902C64.3312 38.6015 67.255 34.8974 68.9996 33.201C70.4111 31.8289 71.5859 31.0969 72.6248 31.2898C69.6616 32.3988 67.0884 36.1116 65.9224 37.6502Z" fill="url(#paint35_linear)"/>
<path d="M64.2525 30.9131C62.2712 33.2451 59.3781 37.8303 57.7913 37.1114C58.0499 37.1815 58.5847 36.8177 58.9967 36.3706C59.457 35.8708 63.503 30.672 64.4235 29.5542C65.6158 28.1033 66.9922 25.5389 68.658 24.7061C66.9966 26.1219 65.8569 29.0238 64.2525 30.9131Z" fill="url(#paint36_linear)"/>
<path d="M52.2942 36.4801C53.2279 35.6516 54.087 34.4111 54.6964 33.3547C55.7002 31.6144 59.8776 25.9772 60.8902 24.3816C61.1971 23.8951 61.5434 23.5531 61.9072 23.3296C61.4382 24.066 61.1971 25.0961 60.1187 26.4068C58.3916 28.5109 56.1692 32.2588 55.4065 33.5432C54.6437 34.8407 53.4383 37.5409 52.2942 36.4801Z" fill="url(#paint37_linear)"/>
<path d="M47.082 54.7375C47.6913 53.0761 48.6338 52.0416 50.0891 52.9227C54.0606 55.3205 58.4791 54.286 63.884 49.5518C68.7059 45.3305 71.165 42.3497 73.5496 41.21C74.1808 42.5119 71.8707 44.7299 71.3272 45.3173C70.4593 46.2598 66.8823 49.8323 65.7689 50.6783C63.8665 52.1205 60.1668 57.7051 54.9986 57.9067C52.1099 58.0207 49.2694 56.675 47.082 54.7375Z" fill="url(#paint38_linear)"/>
<path d="M43.9041 37.3348C43.7024 34.0866 41.2784 32.6313 41.2126 31.005C41.1951 30.5272 41.4274 30.1678 41.7693 29.896C41.3879 31.1804 42.4619 32.2587 44.0706 34.1085C45.8153 36.1118 46.3106 39.3118 45.2936 42.5687C44.2767 45.8256 45.8898 50.2004 48.27 51.5154C50.6503 52.8261 53.9861 58.8753 62.5603 51.5593L62.5646 51.5549C63.0863 51.0332 63.5991 50.5686 64.1296 50.2092C67.7766 47.7456 69.8237 45.5802 71.3623 43.7654C71.6648 43.4103 72.4626 42.0558 73.4927 42.4503C73.0324 43.6164 71.7174 44.8963 71.3229 45.3215C70.4549 46.264 66.878 49.8366 65.7646 50.6826C65.6199 50.7922 65.4621 50.928 65.3 51.0815C65.2561 51.1209 65.2123 51.1604 65.1684 51.2042C65.1553 51.2174 65.1465 51.2261 65.1334 51.2393C65.1071 51.2656 65.0764 51.2919 65.0501 51.3226C65.0457 51.3269 65.0369 51.3357 65.0326 51.3401C63.9148 52.4404 62.3805 54.2507 60.4781 55.6929C60.4781 55.6929 60.4781 55.6929 60.4737 55.6929C60.3071 55.82 60.1362 55.9428 59.9652 56.0655C59.9608 56.0655 59.9608 56.0699 59.9565 56.0699C59.7855 56.1882 59.6102 56.3066 59.4348 56.4162L59.4304 56.4206C58.1066 57.2534 56.625 57.8496 54.9987 57.911C49.0152 58.1477 43.2334 52.1204 43.0537 47.544C42.8739 42.9676 44.1452 41.1704 43.9041 37.3348Z" fill="url(#paint39_radial)"/>
<defs>
<linearGradient id="paint0_linear" x1="33.5695" y1="59.4264" x2="29.0933" y2="47.6837" gradientUnits="userSpaceOnUse">
<stop offset="0.00132565" stop-color="#FFCB4B"/>
<stop offset="1" stop-color="#FFD748"/>
</linearGradient>
<linearGradient id="paint1_linear" x1="34.8673" y1="51.4319" x2="25.0129" y2="38.6932" gradientUnits="userSpaceOnUse">
<stop offset="0.00132565" stop-color="#FFCB4B"/>
<stop offset="1" stop-color="#FFD748"/>
</linearGradient>
<linearGradient id="paint2_linear" x1="7.55589" y1="42.1354" x2="13.4719" y2="46.8611" gradientUnits="userSpaceOnUse">
<stop offset="0.00132565" stop-color="#FFCB4B"/>
<stop offset="1" stop-color="#FFD748"/>
</linearGradient>
<linearGradient id="paint3_linear" x1="5.80542" y1="30.1727" x2="16.0554" y2="41.7806" gradientUnits="userSpaceOnUse">
<stop offset="0.00132565" stop-color="#FFCB4B"/>
<stop offset="1" stop-color="#FFD748"/>
</linearGradient>
<linearGradient id="paint4_linear" x1="13.7497" y1="37.1392" x2="10.0844" y2="40.3292" gradientUnits="userSpaceOnUse">
<stop stop-color="#FFBC47" stop-opacity="0"/>
<stop offset="1" stop-color="#FFA754"/>
</linearGradient>
<linearGradient id="paint5_linear" x1="17.5597" y1="25.3463" x2="23.3805" y2="35.3381" gradientUnits="userSpaceOnUse">
<stop offset="0.00132565" stop-color="#FFCB4B"/>
<stop offset="1" stop-color="#FFD748"/>
</linearGradient>
<linearGradient id="paint6_linear" x1="11.0925" y1="26.7145" x2="19.0648" y2="38.4178" gradientUnits="userSpaceOnUse">
<stop offset="0.00132565" stop-color="#FFCB4B"/>
<stop offset="1" stop-color="#FFD748"/>
</linearGradient>
<linearGradient id="paint7_linear" x1="21.0509" y1="28.4804" x2="15.5439" y2="33.0717" gradientUnits="userSpaceOnUse">
<stop stop-color="#FFBC47" stop-opacity="0"/>
<stop offset="1" stop-color="#FFA754"/>
</linearGradient>
<linearGradient id="paint8_linear" x1="16.025" y1="31.7085" x2="8.5023" y2="36.7658" gradientUnits="userSpaceOnUse">
<stop stop-color="#FFBC47" stop-opacity="0"/>
<stop offset="1" stop-color="#FFA754"/>
</linearGradient>
<linearGradient id="paint9_linear" x1="21.1774" y1="39.3733" x2="13.6547" y2="44.4305" gradientUnits="userSpaceOnUse">
<stop stop-color="#FFBC47" stop-opacity="0"/>
<stop offset="1" stop-color="#FFA754"/>
</linearGradient>
<radialGradient id="paint10_radial" cx="0" cy="0" r="1" gradientUnits="userSpaceOnUse" gradientTransform="translate(31.1094 31.0706) rotate(2.24821) scale(8.78359 8.78508)">
<stop stop-color="#FFBC47" stop-opacity="0"/>
<stop offset="1" stop-color="#FFA754"/>
</radialGradient>
<linearGradient id="paint11_linear" x1="22.0611" y1="27.5757" x2="17.3529" y2="31.6067" gradientUnits="userSpaceOnUse">
<stop offset="0.3118" stop-color="#FFBC47" stop-opacity="0"/>
<stop offset="1" stop-color="#FF8900"/>
</linearGradient>
<linearGradient id="paint12_linear" x1="18.4932" y1="29.7206" x2="12.2982" y2="34.8766" gradientUnits="userSpaceOnUse">
<stop offset="0.3118" stop-color="#FFBC47" stop-opacity="0"/>
<stop offset="1" stop-color="#FF8900"/>
</linearGradient>
<linearGradient id="paint13_linear" x1="16.2417" y1="35.4735" x2="8.61132" y2="41.3866" gradientUnits="userSpaceOnUse">
<stop offset="0.3118" stop-color="#FFBC47" stop-opacity="0"/>
<stop offset="1" stop-color="#FF8900"/>
</linearGradient>
<linearGradient id="paint14_linear" x1="8.00591" y1="39.6635" x2="16.3163" y2="46.9795" gradientUnits="userSpaceOnUse">
<stop stop-color="#FFBC47" stop-opacity="0"/>
<stop offset="1" stop-color="#FFBC47"/>
</linearGradient>
<linearGradient id="paint15_linear" x1="9.99025" y1="31.0767" x2="16.292" y2="41.5312" gradientUnits="userSpaceOnUse">
<stop stop-color="#FFBC47" stop-opacity="0"/>
<stop offset="1" stop-color="#FFBC47"/>
</linearGradient>
<linearGradient id="paint16_linear" x1="15.2109" y1="32.0107" x2="17.151" y2="30.6447" gradientUnits="userSpaceOnUse">
<stop stop-color="#FFBC47" stop-opacity="0"/>
<stop offset="1" stop-color="#FFA754"/>
</linearGradient>
<linearGradient id="paint17_linear" x1="24.2796" y1="38.0656" x2="22.2381" y2="26.0025" gradientUnits="userSpaceOnUse">
<stop stop-color="#FFBC47" stop-opacity="0"/>
<stop offset="1" stop-color="#FFBC47"/>
</linearGradient>
<linearGradient id="paint18_linear" x1="18.0951" y1="49.3243" x2="14.1919" y2="52.6381" gradientUnits="userSpaceOnUse">
<stop offset="0.3118" stop-color="#FFBC47" stop-opacity="0"/>
<stop offset="1" stop-color="#FF8900"/>
</linearGradient>
<radialGradient id="paint19_radial" cx="0" cy="0" r="1" gradientUnits="userSpaceOnUse" gradientTransform="translate(21.0394 37.9751) rotate(50.4002) scale(25.4602 23.1149)">
<stop offset="0.6134" stop-color="#FFBC47" stop-opacity="0"/>
<stop offset="1" stop-color="#FF8900"/>
</radialGradient>
<linearGradient id="paint20_linear" x1="46.4132" y1="59.427" x2="50.8895" y2="47.6843" gradientUnits="userSpaceOnUse">
<stop offset="0.00132565" stop-color="#FFCB4B"/>
<stop offset="1" stop-color="#FFD748"/>
</linearGradient>
<linearGradient id="paint21_linear" x1="45.1153" y1="51.4325" x2="54.9697" y2="38.6938" gradientUnits="userSpaceOnUse">
<stop offset="0.00132565" stop-color="#FFCB4B"/>
<stop offset="1" stop-color="#FFD748"/>
</linearGradient>
<linearGradient id="paint22_linear" x1="72.4267" y1="42.136" x2="66.5108" y2="46.8617" gradientUnits="userSpaceOnUse">
<stop offset="0.00132565" stop-color="#FFCB4B"/>
<stop offset="1" stop-color="#FFD748"/>
</linearGradient>
<linearGradient id="paint23_linear" x1="74.177" y1="30.1733" x2="63.927" y2="41.7812" gradientUnits="userSpaceOnUse">
<stop offset="0.00132565" stop-color="#FFCB4B"/>
<stop offset="1" stop-color="#FFD748"/>
</linearGradient>
<linearGradient id="paint24_linear" x1="66.2328" y1="37.1393" x2="69.8981" y2="40.3293" gradientUnits="userSpaceOnUse">
<stop stop-color="#FFBC47" stop-opacity="0"/>
<stop offset="1" stop-color="#FFA754"/>
</linearGradient>
<linearGradient id="paint25_linear" x1="62.4227" y1="25.3471" x2="56.602" y2="35.3389" gradientUnits="userSpaceOnUse">
<stop offset="0.00132565" stop-color="#FFCB4B"/>
<stop offset="1" stop-color="#FFD748"/>
</linearGradient>
<linearGradient id="paint26_linear" x1="68.8902" y1="26.7157" x2="60.9179" y2="38.4191" gradientUnits="userSpaceOnUse">
<stop offset="0.00132565" stop-color="#FFCB4B"/>
<stop offset="1" stop-color="#FFD748"/>
</linearGradient>
<linearGradient id="paint27_linear" x1="58.9316" y1="28.481" x2="64.4386" y2="33.0723" gradientUnits="userSpaceOnUse">
<stop stop-color="#FFBC47" stop-opacity="0"/>
<stop offset="1" stop-color="#FFA754"/>
</linearGradient>
<linearGradient id="paint28_linear" x1="63.9574" y1="31.7091" x2="71.4801" y2="36.7664" gradientUnits="userSpaceOnUse">
<stop stop-color="#FFBC47" stop-opacity="0"/>
<stop offset="1" stop-color="#FFA754"/>
</linearGradient>
<linearGradient id="paint29_linear" x1="58.8049" y1="39.3739" x2="66.3276" y2="44.4311" gradientUnits="userSpaceOnUse">
<stop stop-color="#FFBC47" stop-opacity="0"/>
<stop offset="1" stop-color="#FFA754"/>
</linearGradient>
<radialGradient id="paint30_radial" cx="0" cy="0" r="1" gradientUnits="userSpaceOnUse" gradientTransform="translate(48.8805 31.0705) rotate(177.752) scale(8.78359 8.78508)">
<stop stop-color="#FFBC47" stop-opacity="0"/>
<stop offset="1" stop-color="#FFA754"/>
</radialGradient>
<linearGradient id="paint31_linear" x1="57.9213" y1="27.5763" x2="62.6296" y2="31.6073" gradientUnits="userSpaceOnUse">
<stop offset="0.3118" stop-color="#FFBC47" stop-opacity="0"/>
<stop offset="1" stop-color="#FF8900"/>
</linearGradient>
<linearGradient id="paint32_linear" x1="61.4892" y1="29.7213" x2="67.6842" y2="34.8773" gradientUnits="userSpaceOnUse">
<stop offset="0.3118" stop-color="#FFBC47" stop-opacity="0"/>
<stop offset="1" stop-color="#FF8900"/>
</linearGradient>
<linearGradient id="paint33_linear" x1="63.7409" y1="35.4741" x2="71.3713" y2="41.3872" gradientUnits="userSpaceOnUse">
<stop offset="0.3118" stop-color="#FFBC47" stop-opacity="0"/>
<stop offset="1" stop-color="#FF8900"/>
</linearGradient>
<linearGradient id="paint34_linear" x1="71.9766" y1="39.6641" x2="63.6662" y2="46.9801" gradientUnits="userSpaceOnUse">
<stop stop-color="#FFBC47" stop-opacity="0"/>
<stop offset="1" stop-color="#FFBC47"/>
</linearGradient>
<linearGradient id="paint35_linear" x1="69.9923" y1="31.0773" x2="63.6905" y2="41.5318" gradientUnits="userSpaceOnUse">
<stop stop-color="#FFBC47" stop-opacity="0"/>
<stop offset="1" stop-color="#FFBC47"/>
</linearGradient>
<linearGradient id="paint36_linear" x1="64.7716" y1="32.0118" x2="62.8315" y2="30.6458" gradientUnits="userSpaceOnUse">
<stop stop-color="#FFBC47" stop-opacity="0"/>
<stop offset="1" stop-color="#FFA754"/>
</linearGradient>
<linearGradient id="paint37_linear" x1="55.7029" y1="38.0666" x2="57.7444" y2="26.0035" gradientUnits="userSpaceOnUse">
<stop stop-color="#FFBC47" stop-opacity="0"/>
<stop offset="1" stop-color="#FFBC47"/>
</linearGradient>
<linearGradient id="paint38_linear" x1="61.8874" y1="49.3249" x2="65.7906" y2="52.6387" gradientUnits="userSpaceOnUse">
<stop offset="0.3118" stop-color="#FFBC47" stop-opacity="0"/>
<stop offset="1" stop-color="#FF8900"/>
</linearGradient>
<radialGradient id="paint39_radial" cx="0" cy="0" r="1" gradientUnits="userSpaceOnUse" gradientTransform="translate(58.9578 38.0032) rotate(129.6) scale(25.4602 23.1149)">
<stop offset="0.6134" stop-color="#FFBC47" stop-opacity="0"/>
<stop offset="1" stop-color="#FF8900"/>
</radialGradient>
</defs>
</svg>
