<svg width="80" height="80" viewBox="0 0 80 80" fill="none" xmlns="http://www.w3.org/2000/svg">
<path d="M21.5424 35.4714C22.0544 36.0815 22.5023 36.8794 22.2933 37.0714C22.0842 37.2677 21.4699 36.8709 21.0092 36.3717C20.5484 35.8725 19.2046 40.9243 19.0808 41.1803C18.9913 41.3723 17.5962 42.8443 16.8411 44.2694C16.5894 44.743 16.5681 46.2065 16.4742 46.2918C16.1116 46.6289 15.6679 46.5734 14.7422 45.686C13.8164 44.7985 13.1167 49.8332 14.2302 50.678C16.1329 52.1202 19.8317 57.7054 25.0023 57.9059C30.9835 58.1406 36.7684 52.1159 36.9476 47.5377C37.1268 42.9595 35.8554 41.1675 36.0943 37.3317C36.2949 34.0847 38.7223 32.6255 38.7863 30.9998C38.8418 29.6345 36.8239 29.2206 36.1583 29.195C34.9766 29.1481 31.8879 30.5433 31.7343 34.5327C31.6746 36.0858 31.1754 37.4682 29.5884 37.4085C28.0014 37.3487 26.3163 35.0959 25.3095 33.3551" fill="url(#paint0_linear)"/>
<path d="M14.2045 45.8221C13.6073 46.7394 13.3556 50.012 14.2344 50.6776C16.1371 52.1198 19.8359 57.705 25.0065 57.9055C30.9876 58.1402 36.7726 52.1155 36.9517 47.5373C37.1309 42.9591 35.8596 41.167 36.0985 37.3312C36.299 34.0842 38.7265 32.625 38.7905 30.9994C38.8203 30.257 38.2359 29.7961 37.5917 29.5273C38.2743 32.1642 34.2811 32.1215 33.9313 41.0006C33.5815 49.8798 28.3128 52.2649 26.1498 52.6233C23.9911 52.9817 20.2113 52.9646 17.4809 49.3251" fill="url(#paint1_linear)"/>
<path d="M14.7464 45.69C13.8206 44.8026 11.6449 42.2937 10.2157 41.0564C8.78652 39.819 7.49387 39.7806 6.55531 41.0478C5.61675 42.315 8.11247 44.7087 8.67987 45.3231C9.55017 46.2618 13.1252 49.8373 14.2387 50.6821" fill="url(#paint2_linear)"/>
<path d="M19.0808 41.1798C18.9614 41.4358 18.1977 41.5809 16.7643 39.8955C15.6679 38.607 12.7456 34.9034 11.0007 33.2095C9.25582 31.5156 7.87785 30.7946 6.66199 31.5967C5.44613 32.3988 6.04766 34.1952 7.31472 35.7269C8.87614 37.6171 10.685 39.5585 12.4128 41.4188C13.7652 42.8737 16.8368 45.9586 16.4742 46.2957" fill="url(#paint3_linear)"/>
<path d="M12.4172 41.4191C13.6928 42.793 16.4999 45.6133 16.5042 46.2107C16.9479 45.5706 16.2568 43.5952 15.476 42.8783C10.9411 38.7439 6.66213 32.1944 6.07767 32.3651C5.79183 33.2824 6.36777 34.5795 7.31486 35.7273C8.88054 37.6174 10.6851 39.5545 12.4172 41.4191Z" fill="url(#paint4_linear)"/>
<path d="M25.305 33.3589C24.3024 31.6181 20.1216 25.9817 19.1148 24.3859C18.1037 22.7945 16.666 22.7347 15.6421 23.4003C14.6182 24.0659 14.2684 25.4526 16.393 28.5247C17.7325 30.4618 18.8417 32.2367 21.5465 35.4667L24.84 35.3685L25.305 33.3589Z" fill="url(#paint5_linear)"/>
<path d="M21.0092 36.3712C20.5484 35.872 16.4998 30.6708 15.5826 29.5572C13.8633 27.4665 11.7516 23.0461 8.95297 24.868C7.48114 25.828 8.19786 27.3257 8.58181 27.9316C8.96577 28.5374 14.0041 34.8394 14.499 35.377C14.9939 35.9147 19.196 40.9238 19.0766 41.1798" fill="url(#paint6_linear)"/>
<path d="M21.5422 35.4711C22.0328 36.0599 22.468 36.8151 22.3144 37.0455C24.0806 35.7356 20.6165 31.5457 18.6626 29.0326C17.1481 27.0869 16.811 24.6805 15.7232 23.3535C15.6933 23.3706 15.6677 23.3876 15.6421 23.4047C14.6182 24.0661 14.2684 25.457 16.393 28.5291C17.7325 30.4619 18.8417 32.2411 21.5422 35.4711Z" fill="url(#paint7_linear)"/>
<path d="M14.5031 35.3771C14.998 35.9147 19.2002 40.9238 19.0808 41.1798C20.5099 39.4049 15.463 33.824 13.0228 31.0122C10.9068 28.5716 10.6081 26.4937 8.50064 25.2563C7.66021 26.195 8.25321 27.4068 8.58597 27.9359C8.96992 28.5417 14.0083 34.8395 14.5031 35.3771Z" fill="url(#paint8_linear)"/>
<path d="M18.9785 41.2821C18.8206 41.3717 18.5049 41.3674 18.0271 41.0645C18.3769 41.376 18.7097 41.4997 18.9785 41.2821Z" fill="url(#paint9_linear)"/>
<path d="M36.4484 29.7664C37.5832 29.6085 37.7795 29.745 37.5832 29.5317C37.0414 29.3056 36.457 29.2117 36.1541 29.1989C34.9723 29.152 31.8836 30.5472 31.73 34.5366C31.6703 36.0897 31.1712 37.4721 29.5842 37.4123C28.957 37.3867 28.3171 37.0241 27.707 36.4822C30.3734 39.678 32.6729 36.8577 33.0824 34.8736C33.492 32.8896 33.1165 30.2314 36.4484 29.7664Z" fill="url(#paint10_linear)"/>
<path d="M15.2884 23.6909C14.5674 24.4461 14.5332 25.8456 16.3933 28.5251C17.7329 30.4623 18.8421 32.2372 21.5468 35.4672C22.0588 36.0773 22.5067 36.8752 22.2977 37.0672C22.8949 33.8543 18.424 30.4964 17.0247 28.0003C15.9155 26.0291 15.7235 24.8813 15.2884 23.6909Z" fill="url(#paint11_linear)"/>
<path d="M14.5032 35.3769C14.9981 35.9145 19.2003 40.9237 19.0808 41.1797C20.0791 40.5269 19.4605 39.4218 18.0186 37.8644C15.0707 34.6729 10.9581 30.3763 9.37104 26.9117C9.22173 26.5831 8.93163 26.3357 8.57327 26.2759C7.65178 26.1181 8.28744 27.4706 8.57754 27.9357C8.97002 28.5416 14.0084 34.8393 14.5032 35.3769Z" fill="url(#paint12_linear)"/>
<path d="M7.31886 35.7225C8.88028 37.6127 10.6891 39.5541 12.4169 41.4144C13.7693 42.8693 16.841 45.9542 16.4783 46.2913C18.5176 44.7083 9.57993 38.3338 6.0774 32.3604C5.79157 33.2777 6.3675 34.5748 7.31886 35.7225Z" fill="url(#paint13_linear)"/>
<path d="M16.056 46.607C16.248 46.5387 16.3461 46.4577 16.3845 46.3638C16.0347 46.6113 15.5953 46.5003 14.742 45.6854C13.8163 44.7979 11.6405 42.2891 10.2114 41.0517C9.58423 40.5056 8.9827 40.1941 8.42383 40.1216C9.20454 40.6549 8.82485 40.8213 10.5526 42.2549C11.4784 43.0272 14.8188 47.0422 16.056 46.607Z" fill="url(#paint14_linear)"/>
<path d="M14.0809 37.6559C15.3139 39.2858 17.7413 41.9909 18.906 41.3167C18.5903 41.4106 17.8821 41.2101 16.7644 39.8959C15.668 38.6073 12.7456 34.9038 11.0008 33.2099C9.58866 31.836 8.41546 31.1021 7.37451 31.3027C10.3395 32.4035 12.912 36.1156 14.0809 37.6559Z" fill="url(#paint15_linear)"/>
<path d="M15.7533 30.9143C17.7328 33.2482 20.6252 37.8307 22.2165 37.1139C21.9563 37.1821 21.423 36.8195 21.0135 36.3757C20.5527 35.8765 16.5041 30.6754 15.5869 29.5617C14.3966 28.111 13.0187 25.5467 11.3506 24.7104C13.0059 26.1227 14.1492 29.0241 15.7533 30.9143Z" fill="url(#paint16_linear)"/>
<path d="M27.7071 36.4867C27.7071 36.4824 27.7071 36.4824 27.7071 36.4867C26.7728 35.6589 25.9153 34.4173 25.3053 33.3634C24.3027 31.6226 20.1219 25.9862 19.1151 24.3904C18.8079 23.904 18.4581 23.5627 18.0955 23.3408C18.5647 24.0747 18.8079 25.1073 19.883 26.4171C21.6108 28.5207 23.8292 32.2669 24.5928 33.5554C25.3565 34.844 27.7071 36.4867 27.7071 36.4867Z" fill="url(#paint17_linear)"/>
<path d="M32.9203 54.7398C32.3102 53.0801 31.3717 52.0432 29.9126 52.9222C25.9408 55.3201 21.5211 54.2833 16.1158 49.5514C11.295 45.3274 8.83346 42.3492 6.45294 41.21C5.82155 42.5113 8.12954 44.73 8.67561 45.3188C9.54591 46.2575 13.121 49.8331 14.2344 50.6779C16.1371 52.12 19.8359 57.7052 25.0065 57.9057C27.8905 58.0209 30.7317 56.6769 32.9203 54.7398Z" fill="url(#paint18_radial)"/>
<path d="M36.0943 37.3357C36.2948 34.0887 38.7223 32.6295 38.7863 31.0039C38.8034 30.526 38.5687 30.1633 38.2274 29.8945C38.6114 31.1788 37.5363 32.2583 35.928 34.1101C34.1831 36.1112 33.6882 39.3112 34.7078 42.571C35.7274 45.8308 34.1106 50.2043 31.73 51.5141C29.3495 52.824 26.0176 58.87 17.4426 51.5568L17.4384 51.5525C16.9179 51.0277 16.4017 50.5627 15.8727 50.2085C12.2251 47.7466 10.1816 45.5791 8.64152 43.7657C8.33862 43.4116 7.54084 42.0548 6.5127 42.4516C6.97344 43.6207 8.28742 44.8964 8.68418 45.3231C9.55448 46.2618 13.1295 49.8373 14.243 50.6821C14.3881 50.7931 14.5459 50.9253 14.708 51.0789C14.7507 51.1173 14.7933 51.16 14.8403 51.2027C14.8531 51.2155 14.8616 51.224 14.8744 51.2368C14.9043 51.2624 14.9299 51.2923 14.9597 51.3179C14.9682 51.3221 14.9725 51.3307 14.981 51.3349C16.0988 52.4358 17.6303 54.2449 19.5373 55.687C19.5373 55.687 19.5373 55.687 19.5416 55.687C19.708 55.815 19.8786 55.9388 20.0535 56.0582C20.0578 56.0582 20.0578 56.0625 20.0621 56.0625C20.2327 56.182 20.4076 56.2972 20.5868 56.4081L20.5911 56.4124C21.9178 57.2444 23.3939 57.8417 25.0194 57.9057C31.0005 58.1404 36.7855 52.1158 36.9646 47.5375C37.131 42.9593 35.8554 41.1715 36.0943 37.3357Z" fill="url(#paint19_linear)"/>
<path d="M58.4576 35.4714C57.9457 36.0815 57.4978 36.8794 57.7068 37.0714C57.9158 37.2677 58.5302 36.8709 58.9909 36.3717C59.4517 35.8725 60.7955 40.9243 60.9192 41.1803C61.0088 41.3723 62.4038 42.8443 63.159 44.2694C63.4107 44.743 63.432 46.2065 63.5259 46.2918C63.8885 46.6289 64.3322 46.5734 65.2579 45.686C66.1837 44.7985 66.8833 49.8332 65.7699 50.678C63.8671 52.1202 60.1684 57.7054 54.9978 57.9059C49.0166 58.1406 43.2317 52.1159 43.0525 47.5377C42.8733 42.9595 44.1446 41.1675 43.9057 37.3317C43.7052 34.0847 41.2778 32.6255 41.2138 30.9998C41.1583 29.6345 43.1762 29.2206 43.8417 29.195C45.0235 29.1481 48.1122 30.5433 48.2658 34.5327C48.3255 36.0858 48.8246 37.4682 50.4116 37.4085C51.9987 37.3445 53.6838 35.0959 54.6906 33.3551" fill="url(#paint20_linear)"/>
<path d="M65.7955 45.8221C66.3928 46.7394 66.6445 50.012 65.7657 50.6776C63.863 52.1198 60.1642 57.705 54.9936 57.9055C49.0124 58.1402 43.2275 52.1155 43.0483 47.5373C42.8691 42.9591 44.1405 41.167 43.9015 37.3312C43.701 34.0842 41.2736 32.625 41.2096 30.9994C41.1797 30.257 41.7642 29.7961 42.4084 29.5273C41.7258 32.1642 45.7189 32.1215 46.0688 41.0006C46.4186 49.8798 51.6873 52.2649 53.8503 52.6233C56.0089 52.9817 59.7888 52.9646 62.5191 49.3251" fill="url(#paint21_linear)"/>
<path d="M65.2581 45.69C66.1838 44.8026 68.3595 42.2937 69.7887 41.0564C71.2179 39.819 72.5105 39.7806 73.4491 41.0478C74.3876 42.315 71.8919 44.7087 71.3245 45.3231C70.4542 46.2618 66.8792 49.8373 65.7657 50.6821" fill="url(#paint22_linear)"/>
<path d="M60.9192 41.1798C61.0386 41.4358 61.8023 41.5809 63.2357 39.8955C64.3321 38.607 67.2544 34.9034 68.9993 33.2095C70.7442 31.5156 72.1221 30.7946 73.338 31.5967C74.5538 32.3988 73.9523 34.1952 72.6853 35.7269C71.1238 37.6171 69.315 39.5585 67.5872 41.4188C66.2348 42.8737 63.1632 45.9586 63.5258 46.2957" fill="url(#paint23_linear)"/>
<path d="M67.5829 41.4191C66.3073 42.793 63.5002 45.6133 63.4959 46.2107C63.0522 45.5706 63.7433 43.5952 64.524 42.8783C69.059 38.7439 73.338 32.1944 73.9224 32.3651C74.2083 33.2824 73.6323 34.5795 72.6852 35.7273C71.1238 37.6174 69.315 39.5545 67.5829 41.4191Z" fill="url(#paint24_linear)"/>
<path d="M54.6948 33.3589C55.6974 31.6181 59.8782 25.9817 60.885 24.3859C61.8961 22.7945 63.3338 22.7347 64.3577 23.4003C65.3816 24.0617 65.7314 25.4526 63.6068 28.5247C62.2673 30.4618 61.1581 32.2367 58.4533 35.4667L55.1598 35.3685L54.6948 33.3589Z" fill="url(#paint25_linear)"/>
<path d="M58.991 36.3712C59.4517 35.872 63.5003 30.6708 64.4175 29.5572C66.1368 27.4665 68.2486 23.0461 71.0472 24.868C72.519 25.828 71.8023 27.3257 71.4183 27.9316C71.0344 28.5374 65.996 34.8394 65.5011 35.377C65.0063 35.9147 60.8041 40.9238 60.9235 41.1798" fill="url(#paint26_linear)"/>
<path d="M58.4578 35.4711C57.9672 36.0599 57.532 36.8151 57.6856 37.0455C55.9194 35.7356 59.3835 31.5457 61.3374 29.0326C62.8519 27.0869 63.1889 24.6805 64.2768 23.3535C64.3067 23.3706 64.3323 23.3876 64.3579 23.4047C65.3817 24.0661 65.7316 25.457 63.607 28.5291C62.2674 30.4619 61.1582 32.2411 58.4578 35.4711Z" fill="url(#paint27_linear)"/>
<path d="M65.4967 35.3771C65.0019 35.9147 60.7997 40.9238 60.9191 41.1798C59.49 39.4049 64.5369 33.824 66.9771 31.0122C69.0931 28.5716 69.3918 26.4937 71.4993 25.2563C72.3397 26.195 71.7467 27.4068 71.4139 27.9359C71.0342 28.5417 65.9916 34.8395 65.4967 35.3771Z" fill="url(#paint28_linear)"/>
<path d="M61.0217 41.2821C61.1796 41.3717 61.4953 41.3674 61.9731 41.0645C61.6233 41.376 61.2905 41.4997 61.0217 41.2821Z" fill="url(#paint29_linear)"/>
<path d="M43.5516 29.7664C42.4168 29.6085 42.2206 29.745 42.4168 29.5317C42.9586 29.3056 43.5431 29.2117 43.846 29.1989C45.0277 29.152 48.1164 30.5472 48.27 34.5366C48.3297 36.0897 48.8289 37.4721 50.4159 37.4123C51.043 37.3867 51.6829 37.0241 52.293 36.4822C49.6266 39.678 47.3272 36.8577 46.9176 34.8736C46.5038 32.8981 46.8835 30.2314 43.5516 29.7664Z" fill="url(#paint30_linear)"/>
<path d="M64.7119 23.6909C65.4328 24.4461 65.467 25.8456 63.6069 28.5251C62.2673 30.4623 61.1581 32.2372 58.4534 35.4672C57.9414 36.0773 57.4935 36.8752 57.7025 37.0672C57.1053 33.8543 61.5762 30.4964 62.9755 28.0003C64.0847 26.0291 64.2767 24.8813 64.7119 23.6909Z" fill="url(#paint31_linear)"/>
<path d="M65.4968 35.3769C65.0019 35.9145 60.7997 40.9237 60.9192 41.1797C59.9209 40.5269 60.5395 39.4218 61.9814 37.8644C64.9294 34.6729 69.042 30.3763 70.629 26.9117C70.7783 26.5831 71.0684 26.3357 71.4267 26.2759C72.3482 26.1181 71.7126 27.4706 71.4225 27.9357C71.0343 28.5416 65.9916 34.8393 65.4968 35.3769Z" fill="url(#paint32_linear)"/>
<path d="M72.6854 35.7225C71.124 37.6127 69.3151 39.5541 67.5873 41.4144C66.2349 42.8693 63.1633 45.9542 63.5259 46.2913C61.4867 44.7083 70.4243 38.3338 73.9269 32.3604C74.2084 33.2777 73.6325 34.5748 72.6854 35.7225Z" fill="url(#paint33_linear)"/>
<path d="M63.944 46.607C63.752 46.5387 63.6539 46.4577 63.6155 46.3638C63.9653 46.6113 64.4047 46.5003 65.2579 45.6854C66.1837 44.7979 68.3594 42.2891 69.7886 41.0517C70.4157 40.5056 71.0173 40.1941 71.5761 40.1216C70.7954 40.6549 71.1751 40.8213 69.4473 42.2549C68.5216 43.0272 65.1812 47.0422 63.944 46.607Z" fill="url(#paint34_linear)"/>
<path d="M65.919 37.6559C64.6861 39.2858 62.2587 41.9909 61.094 41.3167C61.4097 41.4106 62.1179 41.2101 63.2356 39.8959C64.332 38.6073 67.2543 34.9038 68.9992 33.2099C70.4113 31.836 71.5845 31.1021 72.6255 31.3027C69.6605 32.4035 67.088 36.1156 65.919 37.6559Z" fill="url(#paint35_linear)"/>
<path d="M64.2467 30.9143C62.2672 33.2482 59.3747 37.8307 57.7834 37.1139C58.0437 37.1821 58.577 36.8195 58.9865 36.3757C59.4473 35.8765 63.4959 30.6754 64.4131 29.5617C65.6033 28.111 66.9813 25.5467 68.6494 24.7104C66.9941 26.1227 65.8508 29.0241 64.2467 30.9143Z" fill="url(#paint36_linear)"/>
<path d="M52.293 36.4867C52.293 36.4824 52.293 36.4824 52.293 36.4867C53.2273 35.6589 54.0848 34.4173 54.6948 33.3634C55.6974 31.6226 59.8782 25.9862 60.885 24.3904C61.1922 23.904 61.542 23.5627 61.9047 23.3408C61.4354 24.0747 61.1922 25.1073 60.1171 26.4171C58.3893 28.5207 56.1709 32.2669 55.4073 33.5554C54.6436 34.844 52.293 36.4867 52.293 36.4867Z" fill="url(#paint37_linear)"/>
<path d="M47.0796 54.7398C47.6897 53.0801 48.6282 52.0432 50.0872 52.9222C54.0591 55.3201 58.4788 54.2833 63.8841 49.5514C68.7048 45.3274 71.1664 42.3492 73.547 41.21C74.1783 42.5113 71.8703 44.73 71.3243 45.3188C70.454 46.2575 66.8789 49.8331 65.7654 50.6779C63.8627 52.12 60.164 57.7052 54.9934 57.9057C52.1094 58.0209 49.2681 56.6769 47.0796 54.7398Z" fill="url(#paint38_radial)"/>
<path d="M43.9057 37.3357C43.7052 34.0887 41.2778 32.6295 41.2138 31.0039C41.1967 30.526 41.4313 30.1633 41.7726 29.8945C41.3887 31.1788 42.4638 32.2583 44.0721 34.1101C45.817 36.1112 46.3118 39.3112 45.2922 42.571C44.2726 45.8308 45.8895 50.2043 48.27 51.5141C50.6505 52.824 53.9824 58.87 62.5574 51.5568L62.5617 51.5525C63.0822 51.0277 63.5984 50.5627 64.1274 50.2085C67.775 47.7466 69.8185 45.5791 71.3586 43.7657C71.6615 43.4116 72.4592 42.0548 73.4874 42.4516C73.0266 43.6207 71.7126 44.8964 71.3159 45.3231C70.4456 46.2618 66.8705 49.8373 65.7571 50.6821C65.612 50.7931 65.4542 50.9253 65.2921 51.0789C65.2494 51.1173 65.2067 51.16 65.1598 51.2027C65.147 51.2155 65.1385 51.224 65.1257 51.2368C65.0958 51.2624 65.0702 51.2923 65.0404 51.3179C65.0318 51.3221 65.0276 51.3307 65.019 51.3349C63.9013 52.4358 62.3697 54.2449 60.4627 55.687C60.4627 55.687 60.4627 55.687 60.4585 55.687C60.2921 55.815 60.1215 55.9388 59.9465 56.0582C59.9423 56.0582 59.9423 56.0625 59.938 56.0625C59.7674 56.182 59.5924 56.2972 59.4133 56.4081L59.409 56.4124C58.0822 57.2444 56.6061 57.8417 54.9807 57.9057C48.9995 58.1404 43.2146 52.1158 43.0354 47.5375C42.8562 42.9593 44.1446 41.1715 43.9057 37.3357Z" fill="url(#paint39_linear)"/>
<defs>
<linearGradient id="paint0_linear" x1="33.5711" y1="59.4294" x2="29.0943" y2="47.6869" gradientUnits="userSpaceOnUse">
<stop offset="0.00132565" stop-color="#D2A374"/>
<stop offset="1" stop-color="#DEBA94"/>
</linearGradient>
<linearGradient id="paint1_linear" x1="20.9573" y1="29.7003" x2="48.2811" y2="84.1379" gradientUnits="userSpaceOnUse">
<stop offset="0.3118" stop-color="#D2A374" stop-opacity="0"/>
<stop offset="1" stop-color="#B88653"/>
</linearGradient>
<linearGradient id="paint2_linear" x1="7.56047" y1="42.1377" x2="13.4764" y2="46.8627" gradientUnits="userSpaceOnUse">
<stop offset="0.00132565" stop-color="#D2A374"/>
<stop offset="1" stop-color="#DEBA94"/>
</linearGradient>
<linearGradient id="paint3_linear" x1="5.81051" y1="30.1744" x2="16.0608" y2="41.7811" gradientUnits="userSpaceOnUse">
<stop offset="0.00132565" stop-color="#D2A374"/>
<stop offset="1" stop-color="#DEBA94"/>
</linearGradient>
<linearGradient id="paint4_linear" x1="13.7898" y1="34.3254" x2="9.53943" y2="42.7743" gradientUnits="userSpaceOnUse">
<stop offset="0.3118" stop-color="#F0C492" stop-opacity="0"/>
<stop offset="1" stop-color="#E6AF74"/>
</linearGradient>
<linearGradient id="paint5_linear" x1="17.5632" y1="25.3485" x2="23.3844" y2="35.3397" gradientUnits="userSpaceOnUse">
<stop offset="0.00132565" stop-color="#D2A374"/>
<stop offset="1" stop-color="#DEBA94"/>
</linearGradient>
<linearGradient id="paint6_linear" x1="11.0968" y1="26.7167" x2="19.0696" y2="38.4192" gradientUnits="userSpaceOnUse">
<stop offset="0.00132565" stop-color="#D2A374"/>
<stop offset="1" stop-color="#DEBA94"/>
</linearGradient>
<linearGradient id="paint7_linear" x1="21.054" y1="28.4824" x2="15.547" y2="33.0731" gradientUnits="userSpaceOnUse">
<stop offset="0.3118" stop-color="#F0C492" stop-opacity="0"/>
<stop offset="1" stop-color="#E6AF74"/>
</linearGradient>
<linearGradient id="paint8_linear" x1="16.0288" y1="31.7106" x2="8.50637" y2="36.767" gradientUnits="userSpaceOnUse">
<stop offset="0.3118" stop-color="#F0C492" stop-opacity="0"/>
<stop offset="1" stop-color="#E6AF74"/>
</linearGradient>
<linearGradient id="paint9_linear" x1="21.1809" y1="39.3748" x2="13.658" y2="44.4311" gradientUnits="userSpaceOnUse">
<stop stop-color="#FFBC47" stop-opacity="0"/>
<stop offset="1" stop-color="#FFA754"/>
</linearGradient>
<linearGradient id="paint10_linear" x1="33.139" y1="21.3026" x2="31.6209" y2="60.1596" gradientUnits="userSpaceOnUse">
<stop stop-color="#D2A374" stop-opacity="0"/>
<stop offset="1" stop-color="#B88653"/>
</linearGradient>
<linearGradient id="paint11_linear" x1="-46.1209" y1="-62.9073" x2="48.9836" y2="73.6869" gradientUnits="userSpaceOnUse">
<stop stop-color="#D2A374" stop-opacity="0"/>
<stop offset="1" stop-color="#B88653"/>
</linearGradient>
<linearGradient id="paint12_linear" x1="-50.9446" y1="-59.5495" x2="44.1598" y2="77.0448" gradientUnits="userSpaceOnUse">
<stop stop-color="#D2A374" stop-opacity="0"/>
<stop offset="1" stop-color="#B88653"/>
</linearGradient>
<linearGradient id="paint13_linear" x1="-55.3799" y1="-56.4613" x2="39.7242" y2="80.1329" gradientUnits="userSpaceOnUse">
<stop stop-color="#D2A374" stop-opacity="0"/>
<stop offset="1" stop-color="#B88653"/>
</linearGradient>
<linearGradient id="paint14_linear" x1="12.217" y1="7.80894" x2="12.479" y2="55.3219" gradientUnits="userSpaceOnUse">
<stop stop-color="#D2A374" stop-opacity="0"/>
<stop offset="1" stop-color="#B88653"/>
</linearGradient>
<linearGradient id="paint15_linear" x1="12.9911" y1="7.80496" x2="13.2531" y2="55.3182" gradientUnits="userSpaceOnUse">
<stop stop-color="#D2A374" stop-opacity="0"/>
<stop offset="1" stop-color="#B88653"/>
</linearGradient>
<linearGradient id="paint16_linear" x1="16.6589" y1="7.78465" x2="16.9209" y2="55.2978" gradientUnits="userSpaceOnUse">
<stop stop-color="#D2A374" stop-opacity="0"/>
<stop offset="1" stop-color="#B88653"/>
</linearGradient>
<linearGradient id="paint17_linear" x1="22.7871" y1="8.0257" x2="23.0444" y2="54.6997" gradientUnits="userSpaceOnUse">
<stop stop-color="#D2A374" stop-opacity="0"/>
<stop offset="1" stop-color="#B88653"/>
</linearGradient>
<radialGradient id="paint18_radial" cx="0" cy="0" r="1" gradientUnits="userSpaceOnUse" gradientTransform="translate(19.5776 49.7079) rotate(2.24861) scale(30.8281 30.837)">
<stop offset="0.6134" stop-color="#F0C492" stop-opacity="0"/>
<stop offset="1" stop-color="#E6AF74"/>
</radialGradient>
<linearGradient id="paint19_linear" x1="18.3291" y1="28.7365" x2="53.3436" y2="92.2802" gradientUnits="userSpaceOnUse">
<stop stop-color="#D2A374" stop-opacity="0"/>
<stop offset="1" stop-color="#B88653"/>
</linearGradient>
<linearGradient id="paint20_linear" x1="46.4045" y1="59.4296" x2="50.8813" y2="47.6871" gradientUnits="userSpaceOnUse">
<stop offset="0.00132565" stop-color="#D2A374"/>
<stop offset="1" stop-color="#DEBA94"/>
</linearGradient>
<linearGradient id="paint21_linear" x1="59.0437" y1="29.7003" x2="31.7199" y2="84.1379" gradientUnits="userSpaceOnUse">
<stop offset="0.3118" stop-color="#D2A374" stop-opacity="0"/>
<stop offset="1" stop-color="#B88653"/>
</linearGradient>
<linearGradient id="paint22_linear" x1="72.4152" y1="42.1379" x2="66.4993" y2="46.8629" gradientUnits="userSpaceOnUse">
<stop offset="0.00132565" stop-color="#D2A374"/>
<stop offset="1" stop-color="#DEBA94"/>
</linearGradient>
<linearGradient id="paint23_linear" x1="74.165" y1="30.1746" x2="63.9147" y2="41.7813" gradientUnits="userSpaceOnUse">
<stop offset="0.00132565" stop-color="#D2A374"/>
<stop offset="1" stop-color="#DEBA94"/>
</linearGradient>
<linearGradient id="paint24_linear" x1="66.2112" y1="34.3254" x2="70.4616" y2="42.7743" gradientUnits="userSpaceOnUse">
<stop offset="0.3118" stop-color="#F0C492" stop-opacity="0"/>
<stop offset="1" stop-color="#E6AF74"/>
</linearGradient>
<linearGradient id="paint25_linear" x1="62.4122" y1="25.3487" x2="56.591" y2="35.3399" gradientUnits="userSpaceOnUse">
<stop offset="0.00132565" stop-color="#D2A374"/>
<stop offset="1" stop-color="#DEBA94"/>
</linearGradient>
<linearGradient id="paint26_linear" x1="68.8789" y1="26.7168" x2="60.9062" y2="38.4194" gradientUnits="userSpaceOnUse">
<stop offset="0.00132565" stop-color="#D2A374"/>
<stop offset="1" stop-color="#DEBA94"/>
</linearGradient>
<linearGradient id="paint27_linear" x1="58.9216" y1="28.4826" x2="64.4286" y2="33.0732" gradientUnits="userSpaceOnUse">
<stop offset="0.3118" stop-color="#F0C492" stop-opacity="0"/>
<stop offset="1" stop-color="#E6AF74"/>
</linearGradient>
<linearGradient id="paint28_linear" x1="63.9467" y1="31.7107" x2="71.4691" y2="36.7671" gradientUnits="userSpaceOnUse">
<stop offset="0.3118" stop-color="#F0C492" stop-opacity="0"/>
<stop offset="1" stop-color="#E6AF74"/>
</linearGradient>
<linearGradient id="paint29_linear" x1="58.7949" y1="39.375" x2="66.3178" y2="44.4311" gradientUnits="userSpaceOnUse">
<stop stop-color="#FFBC47" stop-opacity="0"/>
<stop offset="1" stop-color="#FFA754"/>
</linearGradient>
<linearGradient id="paint30_linear" x1="46.862" y1="21.3026" x2="48.38" y2="60.1596" gradientUnits="userSpaceOnUse">
<stop stop-color="#D2A374" stop-opacity="0"/>
<stop offset="1" stop-color="#B88653"/>
</linearGradient>
<linearGradient id="paint31_linear" x1="126.097" y1="-62.9071" x2="30.9922" y2="73.6871" gradientUnits="userSpaceOnUse">
<stop stop-color="#D2A374" stop-opacity="0"/>
<stop offset="1" stop-color="#B88653"/>
</linearGradient>
<linearGradient id="paint32_linear" x1="130.92" y1="-59.5493" x2="35.8157" y2="77.0449" gradientUnits="userSpaceOnUse">
<stop stop-color="#D2A374" stop-opacity="0"/>
<stop offset="1" stop-color="#B88653"/>
</linearGradient>
<linearGradient id="paint33_linear" x1="135.355" y1="-56.4611" x2="40.2513" y2="80.1331" gradientUnits="userSpaceOnUse">
<stop stop-color="#D2A374" stop-opacity="0"/>
<stop offset="1" stop-color="#B88653"/>
</linearGradient>
<linearGradient id="paint34_linear" x1="67.7585" y1="7.80911" x2="67.4965" y2="55.3221" gradientUnits="userSpaceOnUse">
<stop stop-color="#D2A374" stop-opacity="0"/>
<stop offset="1" stop-color="#B88653"/>
</linearGradient>
<linearGradient id="paint35_linear" x1="66.9844" y1="7.80512" x2="66.7225" y2="55.3184" gradientUnits="userSpaceOnUse">
<stop stop-color="#D2A374" stop-opacity="0"/>
<stop offset="1" stop-color="#B88653"/>
</linearGradient>
<linearGradient id="paint36_linear" x1="63.3167" y1="7.78482" x2="63.0547" y2="55.298" gradientUnits="userSpaceOnUse">
<stop stop-color="#D2A374" stop-opacity="0"/>
<stop offset="1" stop-color="#B88653"/>
</linearGradient>
<linearGradient id="paint37_linear" x1="57.1886" y1="8.02587" x2="56.9313" y2="54.6999" gradientUnits="userSpaceOnUse">
<stop stop-color="#D2A374" stop-opacity="0"/>
<stop offset="1" stop-color="#B88653"/>
</linearGradient>
<radialGradient id="paint38_radial" cx="0" cy="0" r="1" gradientUnits="userSpaceOnUse" gradientTransform="translate(60.4186 49.7145) rotate(177.751) scale(30.8281 30.837)">
<stop offset="0.6134" stop-color="#F0C492" stop-opacity="0"/>
<stop offset="1" stop-color="#E6AF74"/>
</radialGradient>
<linearGradient id="paint39_linear" x1="61.6719" y1="28.7365" x2="26.6574" y2="92.2802" gradientUnits="userSpaceOnUse">
<stop stop-color="#D2A374" stop-opacity="0"/>
<stop offset="1" stop-color="#B88653"/>
</linearGradient>
</defs>
</svg>
