<svg width="80" height="80" viewBox="0 0 80 80" fill="none" xmlns="http://www.w3.org/2000/svg">
<path d="M21.545 35.4645C22.057 36.0755 22.5045 36.8715 22.2937 37.0651C22.0829 37.2588 21.4675 36.8672 21.0071 36.3681C20.5467 35.8689 19.1999 40.9205 19.0795 41.1744C18.9891 41.3637 17.595 42.8396 16.842 44.2638C16.5881 44.7371 16.5666 46.2001 16.4762 46.2862C16.1105 46.6218 15.6716 46.5702 14.7422 45.6838C13.8128 44.7974 13.12 49.8317 14.2301 50.6751C16.132 52.1166 19.8325 57.7017 25.0002 57.9039C30.9812 58.1406 36.7642 52.1166 36.945 47.5383C37.1257 42.9601 35.852 41.1701 36.0887 37.3362C36.2909 34.0875 38.7134 32.6332 38.778 31.0067C38.8339 29.6384 36.8159 29.2296 36.1489 29.2038C34.9656 29.1565 31.8805 30.5506 31.7213 34.5394C31.661 36.0884 31.1619 37.4739 29.5741 37.4137C27.9864 37.3534 26.2997 35.103 25.2971 33.3604" fill="url(#paint0_linear)"/>
<path d="M14.2 45.8171C13.6019 46.7336 13.3523 50.0081 14.2301 50.6707C16.132 52.1122 19.8324 57.6973 25.0002 57.8996C30.9812 58.1362 36.7642 52.1122 36.9449 47.5339C37.1256 42.9557 35.852 41.1657 36.0887 37.3319C36.2909 34.0832 38.7134 32.6288 38.7779 31.0023C38.8081 30.2579 38.2229 29.7975 37.5774 29.5308C38.2616 32.1684 34.2685 32.1254 33.92 41.0022C33.5715 49.8833 28.3005 52.2628 26.1404 52.6242C23.9804 52.9814 20.2025 52.9642 17.4702 49.3239" fill="url(#paint1_linear)"/>
<path d="M14.7421 45.6794C13.817 44.793 11.6398 42.2844 10.2112 41.0452C8.78267 39.806 7.48751 39.7672 6.54949 41.0366C5.61146 42.3059 8.10712 44.6983 8.6751 45.3093C9.54428 46.2517 13.12 49.823 14.2344 50.6664" fill="url(#paint2_linear)"/>
<path d="M19.0794 41.174C18.9589 41.4279 18.1973 41.5742 16.7645 39.8874C15.6672 38.5966 12.7456 34.8961 10.9986 33.2008C9.25167 31.5055 7.87476 30.7869 6.66135 31.5872C5.44794 32.3876 6.04604 34.1862 7.31108 35.718C8.87302 37.6112 10.6802 39.5475 12.41 41.4107C13.7654 42.865 16.8333 45.9502 16.4719 46.2858" fill="url(#paint3_linear)"/>
<path d="M25.3057 33.3561C24.3031 31.6134 20.1251 25.9767 19.1139 24.3846C18.1027 22.7926 16.6655 22.7366 15.6415 23.3993C14.6174 24.0619 14.2645 25.4517 16.3902 28.524C17.7327 30.4603 18.8428 32.2373 21.545 35.4645L24.841 35.3655L25.3057 33.3561Z" fill="url(#paint4_linear)"/>
<path d="M21.0071 36.3678C20.5467 35.8687 16.502 30.6666 15.5811 29.5521C13.86 27.4609 11.7516 23.0419 8.95473 24.862C7.48315 25.8215 8.20173 27.3189 8.58469 27.9256C8.96764 28.5323 14.0063 34.8317 14.5054 35.3696C15.0003 35.9074 19.2042 40.916 19.0837 41.1698" fill="url(#paint5_linear)"/>
<path d="M14.5011 35.3694C14.9959 35.9072 19.1998 40.9158 19.0794 41.1696C20.5079 39.3968 15.4606 33.816 13.0209 31.002C10.9039 28.5622 10.607 26.4882 8.49861 25.249C7.65955 26.187 8.24905 27.4005 8.58467 27.9297C8.96763 28.5321 14.0063 34.8358 14.5011 35.3694Z" fill="url(#paint6_linear)"/>
<path d="M18.9761 41.2771C18.8169 41.3674 18.5028 41.3631 18.0251 41.0576C18.378 41.3674 18.7093 41.4922 18.9761 41.2771Z" fill="url(#paint7_linear)"/>
<path d="M36.4501 29.763C37.586 29.6038 37.7797 29.7415 37.586 29.5263C37.0439 29.2983 36.4587 29.2079 36.1575 29.195C34.9742 29.1477 31.8891 30.5418 31.7298 34.5306C31.6696 36.0796 31.1705 37.4651 29.5827 37.4049C28.9588 37.3791 28.3177 37.0133 27.7067 36.4755C30.3701 39.6725 32.6722 36.8498 33.0852 34.8705C33.494 32.8912 33.1154 30.2277 36.4501 29.763Z" fill="url(#paint8_linear)"/>
<path d="M15.2886 23.6831C14.5701 24.4361 14.5356 25.8388 16.3902 28.5195C17.7327 30.4558 18.8428 32.2329 21.545 35.46C22.057 36.0711 22.5045 36.8671 22.2937 37.0607C22.8918 33.8465 18.4211 30.4902 17.0227 27.9946C15.9125 26.0239 15.7232 24.875 15.2886 23.6831Z" fill="url(#paint9_linear)"/>
<path d="M14.5011 35.3697C14.996 35.9076 19.1999 40.9161 19.0794 41.17C20.0777 40.5159 19.458 39.4144 18.0166 37.8568C15.0648 34.664 10.9556 30.3698 9.37212 26.906C9.22152 26.5789 8.92893 26.3294 8.57609 26.2691C7.65528 26.1142 8.2878 27.4653 8.5804 27.9257C8.96765 28.5324 14.0063 34.8361 14.5011 35.3697Z" fill="url(#paint10_linear)"/>
<path d="M7.31543 35.718C8.87737 37.6112 10.6846 39.5475 12.4143 41.4107C13.7697 42.865 16.8377 45.9502 16.4762 46.2858C18.5158 44.7023 9.57873 38.3298 6.0762 32.3574C5.79221 33.2696 6.3688 34.5691 7.31543 35.718Z" fill="url(#paint11_linear)"/>
<path d="M16.0545 46.6001C16.2438 46.5356 16.3471 46.4495 16.3815 46.3592C16.033 46.6087 15.5898 46.4969 14.7421 45.6793C13.817 44.7929 11.6398 42.2844 10.2112 41.0451C9.58301 40.4987 8.98061 40.1889 8.42554 40.1157C9.20436 40.645 8.8257 40.8128 10.5555 42.2499C11.4763 43.0202 14.8196 47.0347 16.0545 46.6001Z" fill="url(#paint12_linear)"/>
<path d="M14.0796 37.6457C15.3145 39.2765 17.7413 41.983 18.9031 41.3032C18.5847 41.3978 17.879 41.1956 16.7646 39.8832C15.6674 38.5924 12.7457 34.8919 10.9987 33.1966C9.5874 31.824 8.41272 31.0925 7.37573 31.2861C10.3404 32.3962 12.9135 36.1053 14.0796 37.6457Z" fill="url(#paint13_linear)"/>
<path d="M15.7491 30.9079C17.7284 33.24 20.62 37.8226 22.212 37.104C21.9539 37.1728 21.4203 36.8114 21.0072 36.3639C20.5468 35.8691 16.5021 30.6669 15.5813 29.5525C14.3894 28.1024 13.0125 25.5379 11.3473 24.7031C13.0039 26.1188 14.1485 29.0189 15.7491 30.9079Z" fill="url(#paint14_linear)"/>
<path d="M27.7067 36.4797C26.773 35.6493 25.9124 34.41 25.3057 33.3558C24.3032 31.6132 20.1251 25.9764 19.1139 24.3844C18.8084 23.8981 18.4599 23.5582 18.0941 23.3345C18.5631 24.0703 18.8041 25.103 19.8841 26.411C21.6139 28.5151 23.8298 32.2629 24.5957 33.5495C25.3617 34.836 27.7067 36.4797 27.7067 36.4797Z" fill="url(#paint15_linear)"/>
<path d="M32.9174 54.7323C32.3107 53.0714 31.3684 52.0387 29.9097 52.9165C25.9382 55.3132 21.5191 54.2762 16.1147 49.5431C11.2955 45.3219 8.8343 42.3401 6.45051 41.2041C5.81799 42.5036 8.12863 44.7238 8.67079 45.3133C9.53997 46.2557 13.1157 49.827 14.2301 50.6704C16.132 52.1119 19.8324 57.697 25.0002 57.8992C27.8917 58.0111 30.7316 56.6686 32.9174 54.7323Z" fill="url(#paint16_radial)"/>
<path d="M36.093 37.3273C36.2952 34.0787 38.7177 32.6243 38.7823 30.9978C38.7995 30.5202 38.5671 30.1588 38.2229 29.8877C38.6059 31.1699 37.5302 32.25 35.9209 34.1002C34.1782 36.101 33.6834 39.3024 34.6989 42.5596C35.7186 45.8169 34.1008 50.1929 31.7213 51.5053C29.3418 52.8177 26.0071 58.8632 17.4315 51.5483L17.4272 51.544C16.9065 51.0191 16.3902 50.5544 15.8652 50.2015C12.2207 47.7403 10.1725 45.5759 8.63212 43.7601C8.33091 43.403 7.53058 42.0519 6.5022 42.4435C6.9626 43.6095 8.27928 44.8875 8.67084 45.3135C9.54002 46.2558 13.1157 49.8272 14.2301 50.6705C14.3764 50.7824 14.5313 50.9158 14.6949 51.0707C14.7379 51.1094 14.7809 51.1525 14.8239 51.1955C14.8368 51.2084 14.8455 51.217 14.8584 51.2299C14.8885 51.2557 14.9143 51.2858 14.9444 51.3117C14.9487 51.316 14.9573 51.3246 14.9659 51.3289C16.0847 52.4304 17.6165 54.2376 19.5227 55.6791C19.5227 55.6791 19.5227 55.6791 19.527 55.6791C19.6948 55.8038 19.8626 55.9286 20.039 56.0491C20.0433 56.0491 20.0433 56.0534 20.0476 56.0534C20.2197 56.1739 20.3918 56.2901 20.5726 56.3976L20.5769 56.4019C21.9021 57.2324 23.3823 57.8305 25.0088 57.895C30.9898 58.1317 36.7729 52.1077 36.9536 47.5294C37.13 42.9555 35.8563 41.1655 36.093 37.3273Z" fill="url(#paint17_radial)"/>
<path d="M58.4551 35.4645C57.943 36.0755 57.4955 36.8715 57.7064 37.0651C57.9172 37.2588 58.5325 36.8672 58.9929 36.3681C59.4533 35.8689 60.8001 40.9205 60.9206 41.1744C61.011 41.3637 62.4051 42.8396 63.1581 44.2638C63.412 44.7371 63.4335 46.2001 63.5238 46.2862C63.8896 46.6218 64.3285 46.5702 65.2579 45.6838C66.183 44.7974 66.8801 49.8317 65.7699 50.6751C63.8681 52.1166 60.1676 57.7017 54.9999 57.9039C49.0189 58.1406 43.2358 52.1166 43.0551 47.5383C42.8744 42.9601 44.148 41.1701 43.9114 37.3362C43.7091 34.0875 41.2866 32.6332 41.2221 31.0067C41.1662 29.6384 43.1842 29.2296 43.8511 29.2038C45.0344 29.1565 48.1196 30.5506 48.2788 34.5394C48.339 36.0884 48.8382 37.4739 50.4259 37.4137C52.0137 37.3534 53.7004 35.103 54.703 33.3604" fill="url(#paint18_linear)"/>
<path d="M65.8001 45.8171C66.3982 46.7336 66.6478 50.0081 65.77 50.6707C63.8682 52.1122 60.1677 57.6973 55 57.8996C49.019 58.1362 43.2359 52.1122 43.0552 47.5339C42.8745 42.9557 44.1481 41.1657 43.9115 37.3319C43.7092 34.0832 41.2867 32.6288 41.2222 31.0023C41.1921 30.2579 41.7773 29.7975 42.4227 29.5308C41.7385 32.1684 45.7316 32.1254 46.0801 41.0022C46.4287 49.8833 51.6997 52.2628 53.8597 52.6242C56.0197 52.9814 59.7976 52.9642 62.53 49.3239" fill="url(#paint19_linear)"/>
<path d="M65.2578 45.6794C66.1829 44.793 68.3602 42.2844 69.7887 41.0452C71.2173 39.806 72.5124 39.7672 73.4505 41.0366C74.3885 42.3059 71.8928 44.6983 71.3249 45.3093C70.4557 46.2517 66.88 49.823 65.7656 50.6664" fill="url(#paint20_linear)"/>
<path d="M60.9205 41.174C61.041 41.4279 61.8026 41.5742 63.2355 39.8874C64.3327 38.5966 67.2543 34.8961 69.0013 33.2008C70.7483 31.5055 72.1252 30.7869 73.3386 31.5872C74.552 32.3919 73.9539 34.1862 72.6889 35.718C71.1269 37.6112 69.3197 39.5475 67.59 41.4107C66.2346 42.865 63.1666 45.9502 63.5281 46.2858" fill="url(#paint21_linear)"/>
<path d="M54.6943 33.3561C55.6969 31.6134 59.875 25.9767 60.8862 24.3846C61.8973 22.7926 63.3345 22.7366 64.3586 23.3993C65.3827 24.0619 65.7355 25.4517 63.6099 28.524C62.2674 30.4603 61.1572 32.2373 58.455 35.4645L55.159 35.3655L54.6943 33.3561Z" fill="url(#paint22_linear)"/>
<path d="M58.9929 36.3678C59.4533 35.8687 63.5023 30.6709 64.4188 29.5521C66.14 27.4609 68.2484 23.0419 71.0452 24.862C72.5168 25.8215 71.7982 27.3189 71.4153 27.9256C71.0323 28.5323 65.9937 34.8317 65.4945 35.3696C64.9997 35.9074 60.7958 40.916 60.9163 41.1698" fill="url(#paint23_linear)"/>
<path d="M65.4989 35.3698C65.004 35.9076 60.8002 40.9162 60.9206 41.17C59.4921 39.3972 64.5393 33.8164 66.9791 31.0024C69.0961 28.5626 69.393 26.4843 71.5014 25.2451C72.3404 26.1831 71.7509 27.3966 71.4153 27.9258C71.0324 28.5325 65.9937 34.8362 65.4989 35.3698Z" fill="url(#paint24_linear)"/>
<path d="M61.0239 41.2776C61.1831 41.3679 61.4972 41.3636 61.9749 41.0581C61.622 41.3679 61.2907 41.4927 61.0239 41.2776Z" fill="url(#paint25_linear)"/>
<path d="M43.55 29.763C42.4141 29.6038 42.2204 29.7415 42.4141 29.5263C42.9562 29.2983 43.5414 29.2079 43.8426 29.195C45.0259 29.1477 48.1111 30.5418 48.2703 34.5306C48.3305 36.0796 48.8296 37.4651 50.4174 37.4049C51.0413 37.3791 51.6824 37.0133 52.2934 36.4755C49.63 39.6725 47.3279 36.8498 46.9149 34.8705C46.5061 32.8912 46.8847 30.2277 43.55 29.763Z" fill="url(#paint26_linear)"/>
<path d="M64.7114 23.6831C65.43 24.4361 65.4644 25.8388 63.6099 28.5195C62.2674 30.4558 61.1572 32.2329 58.455 35.46C57.943 36.0711 57.4955 36.8671 57.7063 37.0607C57.1082 33.8465 61.5789 30.4902 62.9774 27.9946C64.0875 26.0239 64.2768 24.875 64.7114 23.6831Z" fill="url(#paint27_linear)"/>
<path d="M65.4989 35.3697C65.004 35.9076 60.8001 40.9161 60.9206 41.17C59.9224 40.5159 60.542 39.4144 61.9834 37.8568C64.9352 34.664 69.0444 30.3698 70.6279 26.906C70.7785 26.5789 71.0711 26.3294 71.4239 26.2691C72.3447 26.1142 71.7122 27.4653 71.4196 27.9257C71.0324 28.5324 65.9937 34.8361 65.4989 35.3697Z" fill="url(#paint28_linear)"/>
<path d="M72.6846 35.718C71.1227 37.6112 69.3155 39.5475 67.5857 41.4107C66.2303 42.865 63.1624 45.9502 63.5238 46.2858C61.4843 44.7023 70.4213 38.3298 73.9239 32.3574C74.2078 33.2696 73.6313 34.5691 72.6846 35.718Z" fill="url(#paint29_linear)"/>
<path d="M63.9455 46.6001C63.7562 46.5356 63.653 46.4495 63.6185 46.3592C63.9671 46.6087 64.4103 46.4969 65.2579 45.6793C66.183 44.7929 68.3603 42.2844 69.7888 41.0451C70.4171 40.4987 71.0195 40.1889 71.5745 40.1157C70.7957 40.645 71.1744 40.8128 69.4446 42.2499C68.5238 43.0202 65.1805 47.0347 63.9455 46.6001Z" fill="url(#paint30_linear)"/>
<path d="M65.9206 37.6457C64.6856 39.2765 62.2588 41.983 61.097 41.3032C61.4155 41.3978 62.1211 41.1956 63.2356 39.8832C64.3328 38.5924 67.2544 34.8919 69.0014 33.1966C70.4127 31.824 71.5874 31.0925 72.6244 31.2861C69.6597 32.3962 67.0866 36.1053 65.9206 37.6457Z" fill="url(#paint31_linear)"/>
<path d="M64.251 30.9078C62.2717 33.2399 59.3801 37.8225 57.7881 37.1039C58.0463 37.1727 58.5798 36.8113 58.9929 36.3638C59.4533 35.8647 63.5023 30.6668 64.4188 29.5481C65.6107 28.098 66.9876 25.5335 68.6528 24.6987C66.9962 26.1187 65.8517 29.0188 64.251 30.9078Z" fill="url(#paint32_linear)"/>
<path d="M52.2933 36.4797C53.2271 35.6493 54.0876 34.41 54.6943 33.3558C55.6969 31.6132 59.875 25.9764 60.8862 24.3844C61.1917 23.8981 61.5402 23.5582 61.9059 23.3345C61.4369 24.0703 61.196 25.103 60.1159 26.411C58.3862 28.5151 56.1702 32.2629 55.4043 33.5495C54.6427 34.836 52.2933 36.4797 52.2933 36.4797Z" fill="url(#paint33_linear)"/>
<path d="M47.0826 54.7323C47.6893 53.0714 48.6317 52.0387 50.0903 52.9165C54.0619 55.3132 58.4809 54.2762 63.8853 49.5431C68.7045 45.3219 71.1658 42.3401 73.5496 41.2041C74.1821 42.5036 71.8714 44.7238 71.3293 45.3133C70.4601 46.2557 66.8844 49.827 65.77 50.6704C63.8681 52.1119 60.1677 57.697 54.9999 57.8992C52.1084 58.0111 49.2685 56.6686 47.0826 54.7323Z" fill="url(#paint34_radial)"/>
<path d="M43.9071 37.3273C43.7049 34.0787 41.2824 32.6243 41.2178 30.9978C41.2006 30.5202 41.433 30.1588 41.7772 29.8877C41.3942 31.1699 42.4699 32.25 44.0792 34.1002C45.8219 36.101 46.3167 39.3024 45.3012 42.5596C44.2815 45.8169 45.8993 50.1929 48.2788 51.5053C50.6583 52.8177 53.993 58.8632 62.5686 51.5483L62.5729 51.544C63.0936 51.0191 63.6099 50.5544 64.1349 50.2015C67.7794 47.7403 69.8276 45.5759 71.368 43.7601C71.6692 43.403 72.4695 42.0519 73.4979 42.4435C73.0375 43.6095 71.7208 44.8875 71.3293 45.3135C70.4601 46.2558 66.8844 49.8272 65.77 50.6705C65.6237 50.7824 65.4688 50.9158 65.3052 51.0707C65.2622 51.1094 65.2192 51.1525 65.1762 51.1955C65.1633 51.2084 65.1547 51.217 65.1417 51.2299C65.1116 51.2557 65.0858 51.2858 65.0557 51.3117C65.0514 51.316 65.0428 51.3246 65.0342 51.3289C63.9154 52.4304 62.3836 54.2376 60.4774 55.6791C60.4774 55.6791 60.4774 55.6791 60.4731 55.6791C60.3053 55.8038 60.1375 55.9286 59.9611 56.0491C59.9568 56.0491 59.9568 56.0534 59.9525 56.0534C59.7804 56.1739 59.6083 56.2901 59.4275 56.3976L59.4232 56.4019C58.098 57.2324 56.6178 57.8305 54.9913 57.895C49.0103 58.1317 43.2273 52.1077 43.0465 47.5294C42.8701 42.9555 44.1438 41.1655 43.9071 37.3273Z" fill="url(#paint35_radial)"/>
<defs>
<linearGradient id="paint0_linear" x1="33.5702" y1="59.4206" x2="29.0942" y2="47.6788" gradientUnits="userSpaceOnUse">
<stop offset="0.00132565" stop-color="#BE8D68"/>
<stop offset="1" stop-color="#CD9870"/>
</linearGradient>
<linearGradient id="paint1_linear" x1="20.9561" y1="29.6947" x2="48.275" y2="84.1302" gradientUnits="userSpaceOnUse">
<stop offset="0.3118" stop-color="#D2A374" stop-opacity="0"/>
<stop offset="1" stop-color="#B88653"/>
</linearGradient>
<linearGradient id="paint2_linear" x1="7.55844" y1="42.1306" x2="13.474" y2="46.856" gradientUnits="userSpaceOnUse">
<stop offset="0.00132565" stop-color="#BE8D68"/>
<stop offset="1" stop-color="#CD9870"/>
</linearGradient>
<linearGradient id="paint3_linear" x1="5.80836" y1="30.1684" x2="16.0575" y2="41.7754" gradientUnits="userSpaceOnUse">
<stop offset="0.00132565" stop-color="#BE8D68"/>
<stop offset="1" stop-color="#CD9870"/>
</linearGradient>
<linearGradient id="paint4_linear" x1="17.5618" y1="25.3433" x2="23.3821" y2="35.3343" gradientUnits="userSpaceOnUse">
<stop offset="0.00132565" stop-color="#BE8D68"/>
<stop offset="1" stop-color="#CD9870"/>
</linearGradient>
<linearGradient id="paint5_linear" x1="11.0948" y1="26.7111" x2="19.0664" y2="38.4136" gradientUnits="userSpaceOnUse">
<stop offset="0.00132565" stop-color="#BE8D68"/>
<stop offset="1" stop-color="#CD9870"/>
</linearGradient>
<linearGradient id="paint6_linear" x1="16.0271" y1="31.7043" x2="8.50498" y2="36.7612" gradientUnits="userSpaceOnUse">
<stop offset="0.3118" stop-color="#F0C492" stop-opacity="0"/>
<stop offset="1" stop-color="#E6AF74"/>
</linearGradient>
<linearGradient id="paint7_linear" x1="21.1793" y1="39.3681" x2="13.6571" y2="44.4249" gradientUnits="userSpaceOnUse">
<stop stop-color="#FFBC47" stop-opacity="0"/>
<stop offset="1" stop-color="#FFA754"/>
</linearGradient>
<linearGradient id="paint8_linear" x1="33.1381" y1="21.2975" x2="31.6204" y2="60.1511" gradientUnits="userSpaceOnUse">
<stop stop-color="#D2A374" stop-opacity="0"/>
<stop offset="1" stop-color="#B88653"/>
</linearGradient>
<linearGradient id="paint9_linear" x1="-46.1254" y1="-62.9049" x2="48.9656" y2="73.6888" gradientUnits="userSpaceOnUse">
<stop offset="0.3072" stop-color="#B37E53" stop-opacity="0"/>
<stop offset="1" stop-color="#B37E53"/>
</linearGradient>
<linearGradient id="paint10_linear" x1="-50.9492" y1="-59.5468" x2="44.1419" y2="77.0469" gradientUnits="userSpaceOnUse">
<stop offset="0.3072" stop-color="#B37E53" stop-opacity="0"/>
<stop offset="1" stop-color="#B37E53"/>
</linearGradient>
<linearGradient id="paint11_linear" x1="-55.3845" y1="-56.4593" x2="39.7065" y2="80.1344" gradientUnits="userSpaceOnUse">
<stop offset="0.3072" stop-color="#B37E53" stop-opacity="0"/>
<stop offset="1" stop-color="#B37E53"/>
</linearGradient>
<linearGradient id="paint12_linear" x1="12.2153" y1="7.80513" x2="12.4772" y2="55.314" gradientUnits="userSpaceOnUse">
<stop stop-color="#D2A374" stop-opacity="0"/>
<stop offset="1" stop-color="#B88653"/>
</linearGradient>
<linearGradient id="paint13_linear" x1="12.9893" y1="7.8007" x2="13.2512" y2="55.3096" gradientUnits="userSpaceOnUse">
<stop stop-color="#D2A374" stop-opacity="0"/>
<stop offset="1" stop-color="#B88653"/>
</linearGradient>
<linearGradient id="paint14_linear" x1="16.6573" y1="7.7809" x2="16.9192" y2="55.2898" gradientUnits="userSpaceOnUse">
<stop stop-color="#D2A374" stop-opacity="0"/>
<stop offset="1" stop-color="#B88653"/>
</linearGradient>
<linearGradient id="paint15_linear" x1="22.7856" y1="8.02158" x2="23.0429" y2="54.6913" gradientUnits="userSpaceOnUse">
<stop stop-color="#D2A374" stop-opacity="0"/>
<stop offset="1" stop-color="#B88653"/>
</linearGradient>
<radialGradient id="paint16_radial" cx="0" cy="0" r="1" gradientUnits="userSpaceOnUse" gradientTransform="translate(19.5728 49.7019) rotate(2.24816) scale(30.8307 30.834)">
<stop offset="0.6134" stop-color="#F0C492" stop-opacity="0"/>
<stop offset="1" stop-color="#E6AF74"/>
</radialGradient>
<radialGradient id="paint17_radial" cx="0" cy="0" r="1" gradientUnits="userSpaceOnUse" gradientTransform="translate(24.3146 33.5794) scale(20.1954 26.7487)">
<stop offset="0.6147" stop-color="#B37E53" stop-opacity="0"/>
<stop offset="1" stop-color="#B37E53"/>
</radialGradient>
<linearGradient id="paint18_linear" x1="46.4087" y1="59.4207" x2="50.8846" y2="47.6789" gradientUnits="userSpaceOnUse">
<stop offset="0.00132565" stop-color="#BE8D68"/>
<stop offset="1" stop-color="#CD9870"/>
</linearGradient>
<linearGradient id="paint19_linear" x1="59.044" y1="29.6947" x2="31.7251" y2="84.1302" gradientUnits="userSpaceOnUse">
<stop offset="0.3118" stop-color="#D2A374" stop-opacity="0"/>
<stop offset="1" stop-color="#B88653"/>
</linearGradient>
<linearGradient id="paint20_linear" x1="72.4203" y1="42.1307" x2="66.5048" y2="46.8561" gradientUnits="userSpaceOnUse">
<stop offset="0.00132565" stop-color="#BE8D68"/>
<stop offset="1" stop-color="#CD9870"/>
</linearGradient>
<linearGradient id="paint21_linear" x1="74.1704" y1="30.1685" x2="63.9212" y2="41.7756" gradientUnits="userSpaceOnUse">
<stop offset="0.00132565" stop-color="#BE8D68"/>
<stop offset="1" stop-color="#CD9870"/>
</linearGradient>
<linearGradient id="paint22_linear" x1="62.417" y1="25.3434" x2="56.5967" y2="35.3344" gradientUnits="userSpaceOnUse">
<stop offset="0.00132565" stop-color="#BE8D68"/>
<stop offset="1" stop-color="#CD9870"/>
</linearGradient>
<linearGradient id="paint23_linear" x1="68.8839" y1="26.7113" x2="60.9123" y2="38.4137" gradientUnits="userSpaceOnUse">
<stop offset="0.00132565" stop-color="#BE8D68"/>
<stop offset="1" stop-color="#CD9870"/>
</linearGradient>
<linearGradient id="paint24_linear" x1="63.9517" y1="31.7048" x2="71.4738" y2="36.7617" gradientUnits="userSpaceOnUse">
<stop offset="0.3118" stop-color="#F0C492" stop-opacity="0"/>
<stop offset="1" stop-color="#E6AF74"/>
</linearGradient>
<linearGradient id="paint25_linear" x1="58.7995" y1="39.3687" x2="66.3216" y2="44.4256" gradientUnits="userSpaceOnUse">
<stop stop-color="#FFBC47" stop-opacity="0"/>
<stop offset="1" stop-color="#FFA754"/>
</linearGradient>
<linearGradient id="paint26_linear" x1="46.8619" y1="21.2975" x2="48.3796" y2="60.1511" gradientUnits="userSpaceOnUse">
<stop stop-color="#D2A374" stop-opacity="0"/>
<stop offset="1" stop-color="#B88653"/>
</linearGradient>
<linearGradient id="paint27_linear" x1="126.104" y1="-62.9047" x2="31.0132" y2="73.689" gradientUnits="userSpaceOnUse">
<stop offset="0.3072" stop-color="#B37E53" stop-opacity="0"/>
<stop offset="1" stop-color="#B37E53"/>
</linearGradient>
<linearGradient id="paint28_linear" x1="130.928" y1="-59.5467" x2="35.8369" y2="77.0471" gradientUnits="userSpaceOnUse">
<stop offset="0.3072" stop-color="#B37E53" stop-opacity="0"/>
<stop offset="1" stop-color="#B37E53"/>
</linearGradient>
<linearGradient id="paint29_linear" x1="135.363" y1="-56.4592" x2="40.2722" y2="80.1345" gradientUnits="userSpaceOnUse">
<stop offset="0.3072" stop-color="#B37E53" stop-opacity="0"/>
<stop offset="1" stop-color="#B37E53"/>
</linearGradient>
<linearGradient id="paint30_linear" x1="67.7636" y1="7.80527" x2="67.5016" y2="55.3141" gradientUnits="userSpaceOnUse">
<stop stop-color="#D2A374" stop-opacity="0"/>
<stop offset="1" stop-color="#B88653"/>
</linearGradient>
<linearGradient id="paint31_linear" x1="66.9896" y1="7.80084" x2="66.7277" y2="55.3097" gradientUnits="userSpaceOnUse">
<stop stop-color="#D2A374" stop-opacity="0"/>
<stop offset="1" stop-color="#B88653"/>
</linearGradient>
<linearGradient id="paint32_linear" x1="63.3216" y1="7.78094" x2="63.0597" y2="55.2898" gradientUnits="userSpaceOnUse">
<stop stop-color="#D2A374" stop-opacity="0"/>
<stop offset="1" stop-color="#B88653"/>
</linearGradient>
<linearGradient id="paint33_linear" x1="57.1932" y1="8.02172" x2="56.9359" y2="54.6915" gradientUnits="userSpaceOnUse">
<stop stop-color="#D2A374" stop-opacity="0"/>
<stop offset="1" stop-color="#B88653"/>
</linearGradient>
<radialGradient id="paint34_radial" cx="0" cy="0" r="1" gradientUnits="userSpaceOnUse" gradientTransform="translate(60.406 49.702) rotate(177.752) scale(30.8307 30.834)">
<stop offset="0.6134" stop-color="#F0C492" stop-opacity="0"/>
<stop offset="1" stop-color="#E6AF74"/>
</radialGradient>
<radialGradient id="paint35_radial" cx="0" cy="0" r="1" gradientUnits="userSpaceOnUse" gradientTransform="translate(55.6854 33.5794) rotate(180) scale(20.1954 26.7487)">
<stop offset="0.6147" stop-color="#B37E53" stop-opacity="0"/>
<stop offset="1" stop-color="#B37E53"/>
</radialGradient>
</defs>
</svg>
