<svg width="24" height="24" viewBox="0 0 24 24" fill="none" xmlns="http://www.w3.org/2000/svg">
<path d="M9.8641 8.93962C10.3148 8.93962 10.6801 8.57428 10.6801 8.12362C10.6801 7.67295 10.3148 7.30762 9.8641 7.30762C9.41343 7.30762 9.0481 7.67295 9.0481 8.12362C9.0481 8.57428 9.41343 8.93962 9.8641 8.93962Z" fill="url(#paint0_linear)"/>
<path d="M11.52 4.43387C12.198 2.57387 14.562 1.73987 15.06 1.80587C15.06 1.80587 14.868 2.07587 14.544 2.43587C14.046 2.98787 14.214 3.49187 13.236 4.57787C12.654 5.21987 11.52 4.43387 11.52 4.43387Z" fill="url(#paint1_linear)"/>
<path d="M14.778 1.8238C14.424 2.0338 14.172 2.2738 14.07 2.4898C14.07 2.4898 13.506 2.6638 13.434 2.7058C13.434 2.7058 13.644 2.6878 13.872 2.6698C14.022 2.6578 13.614 3.2098 13.614 3.2098C13.614 3.2098 13.038 3.3778 12.804 3.5338C12.804 3.5338 13.17 3.4258 13.314 3.4378C13.458 3.4498 13.074 4.0438 12.696 3.9778C12.36 3.9178 12.036 3.7858 11.82 3.8158C11.76 3.9058 11.706 4.0018 11.658 4.1038C11.682 4.2238 11.736 4.3438 11.736 4.3438L12.942 4.6318L13.278 4.5298C14.208 3.4798 14.058 2.9818 14.544 2.4358C14.868 2.0758 15.06 1.8058 15.06 1.8058C14.994 1.7938 14.898 1.7998 14.778 1.8238Z" fill="url(#paint2_linear)"/>
<path d="M12.888 4.1278C12.576 4.2418 12.324 4.0438 11.754 3.9238C11.658 4.0858 11.58 4.2538 11.514 4.4338C11.514 4.4338 12.648 5.2198 13.23 4.5718C14.208 3.4858 14.046 2.9818 14.538 2.4298C14.862 2.0698 15.054 1.7998 15.054 1.7998C13.884 2.2078 13.692 3.8278 12.888 4.1278Z" fill="#407817"/>
<path d="M11.688 4.21179C11.244 2.99379 8.98201 2.18379 8.23801 2.06979C8.00401 2.03979 8.08801 2.15379 8.39401 2.27979C8.70001 2.40579 9.81001 3.26379 9.86401 4.03179C9.91801 4.79979 11.688 4.21179 11.688 4.21179Z" fill="url(#paint3_linear)"/>
<path d="M8.39401 2.27979C8.68801 2.40579 9.75601 3.22179 9.85801 3.97779L11.064 4.26579C11.064 4.26579 11.484 4.17579 11.604 4.01979C11.544 3.91179 11.478 3.80979 11.394 3.70779C10.908 3.46179 10.212 3.49779 10.14 3.48579C10.062 3.47379 9.81001 3.14979 9.86401 3.14379C10.002 3.11379 10.38 3.19779 10.38 3.19779C10.248 3.10179 9.71401 3.06579 9.71401 3.06579C9.52201 2.80179 9.30601 2.64579 9.43201 2.65779C9.55801 2.68179 9.66001 2.63979 9.66001 2.63979C9.66001 2.63979 9.28201 2.59779 9.20401 2.56179C9.12001 2.52579 8.69401 2.21379 8.24401 2.06979C8.00401 2.03979 8.08801 2.15379 8.39401 2.27979Z" fill="url(#paint4_linear)"/>
<path d="M11.688 4.21159C11.652 4.10959 11.598 4.00759 11.538 3.91159C10.74 3.47959 10.152 3.70759 9.94801 3.44359C9.74401 3.17959 9.16801 2.45959 8.29201 2.08159C8.27401 2.07559 8.25601 2.07559 8.24401 2.07559C8.00401 2.03959 8.08801 2.15359 8.39401 2.27959C8.70001 2.40559 9.81001 3.26359 9.86401 4.03159C9.92401 4.80559 11.688 4.21159 11.688 4.21159Z" fill="#407817"/>
<path d="M14.898 6.81588C16.176 6.58788 16.722 6.07788 17.526 5.39388C18.33 4.70988 19.398 4.42788 20.016 4.61988C20.016 4.61988 19.23 3.26988 16.128 3.30588C13.026 3.34188 12.03 5.75988 12.03 5.75988L14.898 6.81588Z" fill="url(#paint5_linear)"/>
<path d="M16.1281 3.31168C15.6841 3.31768 15.2821 3.37168 14.9221 3.46168C14.1541 3.77968 13.5361 4.09768 13.1341 4.35568C12.9241 4.52968 12.7501 4.70968 12.6061 4.87768C12.6661 4.95568 13.0921 5.07568 13.6621 4.66168C15.9001 3.04168 19.4701 4.12768 18.1021 3.51568C17.5801 3.38368 16.9321 3.29968 16.1281 3.31168Z" fill="url(#paint6_linear)"/>
<path d="M18.372 4.26581C17.85 4.33181 16.872 4.03781 16.452 4.00781C16.452 4.00781 17.364 4.35581 17.46 4.55381C17.46 4.55381 17.532 4.64381 17.298 4.68581C17.064 4.73381 16.644 5.08181 16.644 5.08181C16.644 5.08181 15.45 4.70981 14.85 4.78781C14.85 4.78781 16.008 4.98581 16.284 5.28581C16.566 5.58581 15.15 5.72381 15.15 5.72381L15.93 6.50381C16.548 6.23381 16.974 5.84981 17.52 5.38781C18.324 4.70381 19.392 4.42181 20.01 4.61381C19.782 4.33181 18.9 4.19981 18.372 4.26581Z" fill="url(#paint7_linear)"/>
<path d="M17.0701 5.09981C16.4041 5.76581 15.6601 5.98781 15.6601 5.98781C14.6701 5.15981 13.7521 4.54781 13.0801 4.40381C12.9121 4.40381 12.9721 4.49981 12.9181 4.54781C13.6981 4.89581 14.7661 5.60381 15.7081 6.60581C16.4521 6.33581 16.9141 5.91581 17.5261 5.39981C18.3301 4.71581 19.3981 4.43381 20.0161 4.62581C19.2781 4.22381 17.7361 4.43381 17.0701 5.09981Z" fill="#407817"/>
<path d="M11.3941 4.4879L11.4901 4.1159C11.4901 4.1159 11.1001 3.9419 10.4821 3.8039C10.1161 3.6719 9.62408 3.5639 8.96408 3.5219C5.89208 3.3119 4.15808 6.1319 4.00208 6.35991C3.84608 6.58791 3.91808 6.68991 3.91808 6.68991L4.66208 6.3119C6.22208 5.7419 7.75208 6.4559 7.75208 6.4559L9.37208 5.8859L11.4661 5.1899C11.4661 5.1839 11.5921 4.8599 11.3941 4.4879Z" fill="url(#paint8_linear)"/>
<path d="M4.66208 6.31212C6.22208 5.74212 7.75208 6.45612 7.75208 6.45612L9.37208 5.88612L11.4661 5.19012C11.4661 5.19012 11.5921 4.86012 11.3941 4.49412L11.4901 4.12212C11.4901 4.12212 11.2021 3.99012 10.7281 3.87012C10.2781 4.09812 9.64808 4.25412 8.82008 4.08012C7.68608 3.82812 5.86808 4.80012 4.79408 5.34012C4.32608 5.84412 4.05608 6.27612 4.00208 6.36012C3.84608 6.58812 3.91808 6.69012 3.91808 6.69012L4.66208 6.31212Z" fill="url(#paint9_linear)"/>
<path d="M12.0481 4.30179C13.2181 4.25379 18.5881 7.55978 17.7001 12.5518C17.7001 12.5518 17.2801 11.4538 15.8941 10.8658C14.8681 10.4278 13.6321 9.72578 12.8401 7.69178C11.9461 5.39978 12.0481 4.30179 12.0481 4.30179Z" fill="url(#paint10_linear)"/>
<path d="M16.8601 8.67562C17.5141 9.68362 17.4181 11.0576 16.6021 9.93562C15.8941 8.96962 13.6441 7.46362 14.1661 5.26762C13.8121 5.02162 13.4701 4.81762 13.1641 4.66162L12.0601 4.70362C12.1021 5.20762 12.2581 6.19762 12.8461 7.69162C13.6381 9.72562 14.8741 10.4276 15.9001 10.8656C17.2861 11.4536 17.7061 12.5516 17.7061 12.5516C18.0421 10.6736 17.4901 9.03562 16.6081 7.72162C16.5601 7.96162 16.6021 8.27362 16.8601 8.67562Z" fill="url(#paint11_linear)"/>
<path d="M17.6999 12.5518C17.7179 12.4438 17.7359 12.3298 17.7479 12.2218C17.6639 11.0398 16.7999 11.0278 16.4159 10.6378C16.0319 10.2538 15.9419 9.0598 15.9419 9.0598C15.7679 9.6598 16.0199 10.4398 16.0199 10.4398C16.0199 10.4398 15.2819 10.3498 15.0059 9.6598C14.7239 8.9698 14.9219 7.4338 14.9219 7.4338C14.5739 7.9078 14.7239 9.6898 14.7239 9.6898C14.0219 8.8858 13.9199 7.8298 14.0579 6.9718C14.1599 6.3358 14.2439 5.7118 13.9799 5.1358C13.8179 5.0278 13.6619 4.9318 13.5059 4.8418L13.2119 6.3058L13.1279 8.3398C13.9139 9.8758 14.9819 10.4758 15.8879 10.8598C17.2799 11.4538 17.6999 12.5518 17.6999 12.5518Z" fill="url(#paint12_linear)"/>
<path d="M11.046 21.948C12.66 16.128 12.048 11.97 11.862 9.25797L12.984 7.27197C12.984 7.27197 15.108 14.496 13.872 21.9C13.872 21.9 13.314 22.2 12.654 22.2C12.276 22.2 11.724 22.134 11.046 21.948Z" fill="url(#paint13_linear)"/>
<path d="M12.468 11.6159C12.774 13.6499 11.616 21.1019 11.502 21.5459C11.394 21.9899 11.916 21.6539 12.348 21.1259C12.78 20.5979 12.402 20.0039 12.588 18.2519C12.774 16.4999 13.092 11.9879 12.804 11.2859C12.516 10.5899 12.192 9.77391 12.468 11.6159Z" fill="url(#paint14_linear)"/>
<path d="M12.9839 7.27197L11.9399 10.272C11.9939 10.944 12.0539 11.688 12.0899 12.504C14.0819 10.77 13.4459 12.048 13.3559 14.808C13.3139 16.146 12.9239 20.898 13.2719 22.116C13.5839 22.056 13.8659 21.9 13.8719 21.9C13.8779 21.9 13.8719 21.9 13.8719 21.9C15.1079 14.496 12.9839 7.27197 12.9839 7.27197Z" fill="url(#paint15_linear)"/>
<path d="M14.13 13.9676C14.118 13.7876 14.1 13.6136 14.082 13.4336C13.584 14.0396 12.852 14.6576 12.12 14.6636C12.12 14.7416 12.114 14.8256 12.114 14.9036C12.45 14.9396 13.104 14.8316 14.13 13.9676Z" fill="url(#paint16_linear)"/>
<path d="M12.108 12.8339C12.114 12.9179 12.114 13.0079 12.114 13.0919C12.516 13.0259 13.284 12.7799 13.89 11.8259C13.866 11.6339 13.836 11.4419 13.806 11.2559C13.608 11.8439 12.828 12.5339 12.108 12.8339Z" fill="url(#paint17_linear)"/>
<path d="M14.2261 15.5518C13.5061 16.1458 12.9781 16.3678 12.0241 16.5478C12.0181 16.6138 12.0121 16.6798 12.0061 16.7458C13.0501 16.7218 13.8421 16.2958 14.2441 16.0258C14.2381 15.8638 14.2381 15.7078 14.2261 15.5518Z" fill="url(#paint18_linear)"/>
<path d="M14.0641 20.5437C14.0821 20.3757 14.1001 20.2017 14.1181 20.0337C13.4461 20.4417 12.2041 20.7777 11.3341 20.8377C11.3101 20.9337 11.2861 21.0297 11.2621 21.1317C12.4621 21.1737 13.6561 20.7177 14.0641 20.5437Z" fill="url(#paint19_linear)"/>
<path d="M14.238 18.2038C14.244 17.9998 14.25 17.7958 14.256 17.5918C14.256 17.5978 14.25 17.5978 14.25 17.5978C13.83 18.0718 12.93 18.8218 11.754 18.7618C11.742 18.8398 11.73 18.9178 11.712 18.9958C12.792 19.2118 13.89 18.4678 14.238 18.2038Z" fill="url(#paint20_linear)"/>
<path d="M12.0181 11.2437C12.0241 11.3157 12.0301 11.3817 12.0301 11.4537C12.5281 11.3097 13.1941 10.9677 13.6261 10.1637C13.6021 10.0257 13.5781 9.89372 13.5541 9.76172C13.2961 10.2717 12.8581 10.8717 12.0181 11.2437Z" fill="url(#paint21_linear)"/>
<path d="M5.83206 14.2796C6.55806 12.5276 7.77006 11.8496 8.54406 10.4456C9.16806 9.30556 9.52806 7.87756 9.99006 7.17556C10.4521 6.47356 10.1281 5.35156 10.1281 5.35156C10.1281 5.35156 5.66406 6.49756 5.01006 9.58156C4.35606 12.6656 5.83206 14.2796 5.83206 14.2796Z" fill="#76AB50"/>
<path d="M5.83206 14.2796C6.55806 12.5276 7.77006 11.8496 8.54406 10.4456C9.16806 9.30556 9.52806 7.87756 9.99006 7.17556C10.4521 6.47356 10.1281 5.35156 10.1281 5.35156C10.1281 5.35156 5.66406 6.49756 5.01006 9.58156C4.35606 12.6656 5.83206 14.2796 5.83206 14.2796Z" fill="url(#paint22_linear)"/>
<path d="M10.1341 5.35791C10.1341 5.35791 9.75607 5.45391 9.19807 5.66991C9.24607 6.44391 8.71207 7.15791 8.50207 7.32591C8.26807 7.51791 6.73807 8.82591 6.27607 10.5779C5.81407 12.3299 5.49007 12.6419 5.28007 11.4359C5.11207 10.4699 5.24407 8.99991 6.66607 7.09191C5.89207 7.72191 5.23807 8.54391 5.01607 9.58191C4.36207 12.6719 5.83207 14.2799 5.83207 14.2799C6.55807 12.5279 7.77007 11.8499 8.54407 10.4459C9.16807 9.30591 9.52807 7.87791 9.99007 7.17591C10.4521 6.47391 10.1341 5.35791 10.1341 5.35791Z" fill="url(#paint23_linear)"/>
<path d="M6.37206 10.5601C6.63006 10.6621 6.73206 11.5021 6.91206 11.7661C6.97206 11.8561 7.96206 10.5601 7.96206 10.5601C7.96206 10.5601 7.68006 9.42607 7.20006 8.99406C7.20006 8.99406 7.75806 9.20407 8.05206 9.84607C8.34606 10.4881 8.65206 8.83206 8.68206 8.54406C8.71206 8.25606 8.27406 7.48206 8.12406 7.33206C8.12406 7.33206 8.69406 7.99806 8.95206 7.83606C9.21006 7.67406 9.51006 7.33206 9.44406 6.82206C9.37806 6.31206 9.66606 5.66406 9.66606 5.66406L9.65406 6.58806L9.15006 8.83206L8.05206 11.0881L6.00006 13.5841L5.70005 14.3101C5.70005 14.3101 5.67005 13.1401 6.63006 12.2701L6.71406 11.8081L6.37206 10.5601Z" fill="url(#paint24_linear)"/>
<path d="M10.2121 6.57556C10.3081 5.96956 10.1281 5.35156 10.1281 5.35156C10.1281 5.35156 9.97807 5.38756 9.72607 5.47156C9.65407 5.49556 9.51607 6.24556 9.58207 6.79156C9.60607 6.98956 9.55807 7.18156 9.45607 7.34956C8.85007 8.39356 8.94007 9.62956 7.89007 10.9196C6.91207 12.1196 6.07207 13.0196 5.70007 14.1056C5.78407 14.2196 5.83807 14.2796 5.83807 14.2796C6.56407 12.5276 7.77607 11.8496 8.55007 10.4456C9.17407 9.30556 9.53407 7.87756 9.99607 7.17556C10.1101 7.00156 10.1761 6.80356 10.2121 6.60556C10.2121 6.59956 10.2121 6.59956 10.2121 6.59356C10.2121 6.59356 10.2121 6.58756 10.2121 6.57556C10.2121 6.58156 10.2121 6.58156 10.2121 6.57556Z" fill="#407817"/>
<path d="M17.2981 11.4416C16.6501 10.7216 15.0541 10.4756 14.4781 9.68959C13.9021 8.90359 13.5661 8.53159 13.8481 7.35559C14.0521 6.50359 14.0221 5.62759 13.8121 5.02759C13.4041 4.64359 12.9661 4.57759 12.7621 4.47559C13.1581 4.80559 13.8061 5.56159 13.6801 6.41359C13.5901 7.03759 13.4401 7.70359 13.1701 8.41759C13.9501 9.89959 15.0001 10.4816 15.8941 10.8656C17.2801 11.4536 17.7001 12.5516 17.7001 12.5516C17.7181 12.4436 17.7361 12.3296 17.7481 12.2216C17.6941 12.0116 17.5681 11.7416 17.2981 11.4416Z" fill="#407817"/>
<path d="M10.974 12.0597C11.7 11.0997 9.828 9.34769 9.828 7.03769C9.828 4.45169 10.998 3.85769 11.484 4.11569C11.484 4.11569 13.68 4.06769 13.716 6.37769C13.746 8.00969 12.954 11.4777 10.974 12.0597Z" fill="url(#paint25_linear)"/>
<path d="M12.666 4.42188C13.05 4.95587 13.362 5.78387 13.32 7.04387C13.212 10.1099 11.43 11.0579 11.832 9.65387C12.186 8.41187 10.338 6.40787 10.272 4.81787C10.02 5.28587 9.828 5.99987 9.828 7.03187C9.828 9.34787 11.7 11.0999 10.974 12.0539C12.954 11.4719 13.746 7.99787 13.722 6.36587C13.704 5.27387 13.194 4.70987 12.666 4.42188Z" fill="url(#paint26_linear)"/>
<path d="M6.94202 5.94614C7.52402 5.01614 8.16002 4.56614 8.44802 4.49414C8.44802 4.49414 7.37402 5.25614 7.33802 5.87414" fill="url(#paint27_linear)"/>
<path d="M8.91602 2.50809C9.27002 2.49609 9.61802 2.62809 9.66002 2.64009C9.70202 2.65209 9.70202 2.6941 9.51602 2.64009C9.33002 2.58609 9.06602 2.61009 9.06602 2.61009" fill="#407817"/>
<path d="M9.52808 3.02979C10.3021 3.05979 10.4941 3.25779 10.3081 3.18579C10.1281 3.11979 9.79808 3.07179 9.64808 3.15579C9.49808 3.23979 9.52808 3.02979 9.52808 3.02979Z" fill="#407817"/>
<path d="M14.346 2.38818C13.902 2.43618 13.494 2.65818 13.446 2.68218C13.398 2.70618 13.404 2.75418 13.626 2.65818C13.848 2.56218 14.184 2.54418 14.184 2.54418" fill="#407817"/>
<path d="M13.812 3.12598C12.864 3.35398 12.678 3.64198 12.882 3.50998C13.086 3.38398 13.482 3.23998 13.692 3.31198C13.902 3.38398 13.812 3.12598 13.812 3.12598Z" fill="#407817"/>
<path d="M18.288 4.51752C16.71 3.82152 16.152 4.02552 16.578 4.06752C16.998 4.10952 17.712 4.33752 17.928 4.65552C18.144 4.97952 18.288 4.51752 18.288 4.51752Z" fill="#407817"/>
<path d="M17.214 5.18978C15.186 4.46978 14.484 4.81778 15.024 4.81178C15.558 4.81178 16.47 5.02178 16.758 5.42378C17.052 5.83178 17.214 5.18978 17.214 5.18978Z" fill="#407817"/>
<path d="M8.13607 10.9315C8.01007 9.3655 6.85807 8.6215 7.24207 9.0775C7.59007 9.4855 7.85407 10.2955 7.92607 11.3515C7.99807 11.2555 8.07607 11.1655 8.14807 11.0635C8.14807 11.0215 8.14207 10.9795 8.13607 10.9315Z" fill="url(#paint28_linear)"/>
<path d="M9.09002 9.26389C8.94602 8.81389 8.68802 8.08189 8.37602 7.63789C7.99802 7.10989 7.99202 7.22989 8.35202 7.87189C8.65202 8.39989 8.79602 9.12589 8.88002 9.76789C8.95202 9.59989 9.02402 9.43189 9.09002 9.26389Z" fill="url(#paint29_linear)"/>
<path d="M6.78007 12.7081C6.76807 11.7721 6.53407 10.4701 6.37207 10.5601C6.37207 10.6681 6.39007 10.7821 6.42007 10.8841C6.66007 11.6701 6.55207 12.2701 6.57607 12.9781C6.64207 12.8821 6.70807 12.7921 6.78007 12.7081Z" fill="url(#paint30_linear)"/>
<path d="M15.0601 10.188C14.6281 9.70204 14.6581 8.29804 14.8861 7.65004C15.1021 7.02604 14.4241 7.65604 14.4781 10.038C14.6821 10.206 14.8921 10.344 15.1021 10.464C15.1861 10.434 15.2041 10.35 15.0601 10.188Z" fill="#407817"/>
<path d="M16.344 10.7938C15.966 10.5058 15.876 9.65382 15.948 9.15582C16.02 8.68182 15.618 9.22182 15.972 10.9018C16.104 10.9618 16.23 11.0278 16.35 11.0998C16.464 11.0278 16.524 10.9318 16.344 10.7938Z" fill="#407817"/>
<path d="M8.08203 6.17383C7.93803 6.24583 7.79403 6.32983 7.65003 6.41383C4.05004 9.77983 5.73003 14.4598 5.73003 14.4598L5.83803 14.2858C4.69204 10.7398 6.54603 7.57783 8.08203 6.17383Z" fill="url(#paint31_linear)"/>
<path d="M11.94 4.51769C11.832 4.36169 11.736 4.22969 11.652 4.12169C11.55 4.11569 11.49 4.11569 11.49 4.11569C11.466 4.10369 11.442 4.09769 11.418 4.08569C11.322 4.05569 11.208 4.06769 11.082 4.11569C11.94 4.72169 12.522 6.65969 12.318 8.39969C12.312 8.40569 13.008 6.09569 11.94 4.51769Z" fill="url(#paint32_linear)"/>
<path d="M11.724 4.10387C11.586 4.09787 11.502 4.09787 11.502 4.09787C11.448 4.07987 11.388 4.07387 11.322 4.06787C12.174 4.54187 12.624 6.43787 12.378 8.03387C12.372 8.05787 12.318 8.40587 12.318 8.40587C12.366 8.41187 12.522 8.12387 12.54 7.99787C12.762 6.20387 12.27 4.79987 11.724 4.10387Z" fill="url(#paint33_linear)"/>
<path d="M6.78005 4.55371C6.78005 4.55371 5.87405 5.19571 5.74805 5.75971C6.20405 5.68171 6.64805 5.66971 7.08605 5.70571L7.11005 5.69371C7.11005 5.69371 6.43805 5.69971 6.08405 5.56171C5.88605 5.47771 6.78005 4.55371 6.78005 4.55371Z" fill="url(#paint34_linear)"/>
<path d="M8.44806 4.48769C8.44806 4.48769 7.53006 5.14169 7.36206 5.72369C7.92006 5.77769 8.47806 5.64569 8.93406 5.32769C9.37206 5.02169 10.0321 4.56569 10.9621 3.92969C10.0861 4.18169 8.86806 5.08769 8.48406 5.38169C8.10006 5.67569 7.66806 5.64569 7.69206 5.42369C7.72806 5.14169 8.44806 4.48769 8.44806 4.48769Z" fill="url(#paint35_linear)"/>
<path d="M6.00008 4.31982C4.78208 5.11182 4.09808 6.22182 4.00208 6.35982C3.84608 6.58782 3.91808 6.68982 3.91808 6.68982L4.66208 6.31182C4.98008 6.19782 5.29208 6.13182 5.59808 6.10782C5.73608 5.79582 5.84408 5.47782 5.74808 5.46582C5.56208 5.44182 4.42208 6.22782 4.62008 5.84982C4.76408 5.58582 5.34608 4.84782 6.00008 4.31982Z" fill="url(#paint36_linear)"/>
<path d="M7.65009 6.41355C8.70609 5.78955 9.67209 5.69955 9.97809 5.61555C10.3201 4.49955 11.0461 3.95955 11.4241 4.09155C11.3401 4.05555 11.1841 3.99555 10.9681 3.93555C10.0381 4.57155 9.37809 5.02755 8.94009 5.33355C8.47209 5.65755 7.90809 5.78955 7.34409 5.72955C6.51609 5.63955 5.70609 5.68155 4.78809 6.02355C3.93609 6.33555 3.91809 6.68955 3.91809 6.68955L4.45809 6.41355C4.63209 6.32355 4.81809 6.25155 5.01009 6.20355C6.21009 5.90355 7.32009 6.28155 7.65009 6.41355Z" fill="#407817"/>
<path d="M5.36401 5.92171C5.91001 5.04571 6.50401 4.62571 6.77401 4.55371C6.77401 4.55371 5.76601 5.27371 5.73001 5.84971" fill="url(#paint37_linear)"/>
<path d="M10.8001 9.43167C10.4041 9.03567 10.1941 8.05767 10.1941 8.05767L10.3741 7.63167C10.3741 7.63167 10.1221 7.73967 10.0381 7.33767C9.63011 5.38766 10.6561 4.75766 11.2561 4.13366L11.2201 4.05566C10.6681 4.08566 9.83411 4.84766 9.83411 7.03167C9.83411 9.34767 11.7061 11.0997 10.9801 12.0537C11.7481 11.4777 11.1961 9.82767 10.8001 9.43167Z" fill="url(#paint38_linear)"/>
<path d="M10.992 6.354C10.908 6.714 10.65 7.41 10.038 8.43C10.062 8.514 10.086 8.598 10.116 8.676C10.116 8.676 10.344 8.406 10.476 8.076C10.674 7.584 10.92 6.816 10.992 6.354Z" fill="url(#paint39_linear)"/>
<path d="M10.038 8.43C10.02 8.37 10.008 8.31 9.98999 8.25C10.008 8.31 10.02 8.37 10.038 8.43Z" fill="#4B8C1C"/>
<path d="M9.92407 7.95009C9.95407 8.11209 9.99607 8.27409 10.0381 8.43009C11.2321 6.45609 11.0701 5.68809 10.9381 6.24609C10.8061 6.79809 10.3801 7.69209 9.92407 7.95009Z" fill="url(#paint40_linear)"/>
<path d="M10.8361 9.53988L10.5541 9.79188C10.6081 9.91188 10.6621 10.0259 10.7101 10.1399C11.3521 9.41988 11.4901 8.14188 11.5441 7.77588L11.3521 8.50188L10.8361 9.53988Z" fill="url(#paint41_linear)"/>
<path d="M11.448 7.86578C11.316 8.40578 10.902 9.28778 10.452 9.55778C10.506 9.68978 10.566 9.80978 10.62 9.93578C11.742 8.04578 11.58 7.31378 11.448 7.86578Z" fill="url(#paint42_linear)"/>
<path d="M12.0659 3.47977C12.8039 3.50377 13.2659 2.74777 13.9619 2.24977C14.0939 2.15977 14.1959 2.06377 14.2799 1.96777C13.6139 2.20177 12.7019 2.69977 12.0659 3.47977Z" fill="url(#paint43_linear)"/>
<defs>
<linearGradient id="paint0_linear" x1="10.3125" y1="7.13118" x2="8.98047" y2="10.099" gradientUnits="userSpaceOnUse">
<stop stop-color="#3C2200"/>
<stop offset="1" stop-color="#643800"/>
</linearGradient>
<linearGradient id="paint1_linear" x1="13.5177" y1="4.36539" x2="13.1205" y2="2.21534" gradientUnits="userSpaceOnUse">
<stop stop-color="#4B8C1C"/>
<stop offset="1" stop-color="#76AB50"/>
</linearGradient>
<linearGradient id="paint2_linear" x1="14.4634" y1="4.41144" x2="12.3604" y2="1.76524" gradientUnits="userSpaceOnUse">
<stop stop-color="#4B8C1C"/>
<stop offset="1" stop-color="#4B8C1C" stop-opacity="0"/>
</linearGradient>
<linearGradient id="paint3_linear" x1="10.2706" y1="4.06789" x2="9.63971" y2="2.52565" gradientUnits="userSpaceOnUse">
<stop stop-color="#4B8C1C"/>
<stop offset="1" stop-color="#76AB50"/>
</linearGradient>
<linearGradient id="paint4_linear" x1="9.75603" y1="3.60805" x2="9.97514" y2="2.36354" gradientUnits="userSpaceOnUse">
<stop stop-color="#4B8C1C"/>
<stop offset="1" stop-color="#4B8C1C" stop-opacity="0"/>
</linearGradient>
<linearGradient id="paint5_linear" x1="13.8746" y1="5.24853" x2="17.2624" y2="4.82798" gradientUnits="userSpaceOnUse">
<stop stop-color="#4B8C1C"/>
<stop offset="1" stop-color="#76AB50"/>
</linearGradient>
<linearGradient id="paint6_linear" x1="15.0345" y1="4.59873" x2="16.7426" y2="3.26826" gradientUnits="userSpaceOnUse">
<stop stop-color="#76AB50" stop-opacity="0"/>
<stop offset="1" stop-color="#76AB50"/>
</linearGradient>
<linearGradient id="paint7_linear" x1="17.4971" y1="6.51058" x2="17.3802" y2="3.15707" gradientUnits="userSpaceOnUse">
<stop stop-color="#4B8C1C"/>
<stop offset="1" stop-color="#4B8C1C" stop-opacity="0"/>
</linearGradient>
<linearGradient id="paint8_linear" x1="8.25583" y1="8.47386" x2="7.37948" y2="3.63638" gradientUnits="userSpaceOnUse">
<stop stop-color="#4B8C1C"/>
<stop offset="1" stop-color="#76AB50"/>
</linearGradient>
<linearGradient id="paint9_linear" x1="11.2532" y1="16.6593" x2="6.44839" y2="1.43055" gradientUnits="userSpaceOnUse">
<stop stop-color="#4B8C1C"/>
<stop offset="1" stop-color="#4B8C1C" stop-opacity="0"/>
</linearGradient>
<linearGradient id="paint10_linear" x1="11.4715" y1="7.6415" x2="17.2427" y2="8.94996" gradientUnits="userSpaceOnUse">
<stop stop-color="#4B8C1C"/>
<stop offset="1" stop-color="#76AB50"/>
</linearGradient>
<linearGradient id="paint11_linear" x1="13.0197" y1="12.1496" x2="17.3669" y2="3.92276" gradientUnits="userSpaceOnUse">
<stop stop-color="#4B8C1C"/>
<stop offset="1" stop-color="#4B8C1C" stop-opacity="0"/>
</linearGradient>
<linearGradient id="paint12_linear" x1="14.9399" y1="9.97113" x2="15.8864" y2="8.16567" gradientUnits="userSpaceOnUse">
<stop stop-color="#4B8C1C"/>
<stop offset="1" stop-color="#4B8C1C" stop-opacity="0"/>
</linearGradient>
<linearGradient id="paint13_linear" x1="12.1579" y1="14.7552" x2="15.4288" y2="14.6618" gradientUnits="userSpaceOnUse">
<stop stop-color="#A3541E"/>
<stop offset="1" stop-color="#512D00"/>
</linearGradient>
<linearGradient id="paint14_linear" x1="9.80768" y1="16.1421" x2="13.9782" y2="16.1071" gradientUnits="userSpaceOnUse">
<stop stop-color="#C86F34"/>
<stop offset="1" stop-color="#A3541E"/>
</linearGradient>
<linearGradient id="paint15_linear" x1="7.17232" y1="16.6563" x2="16.3013" y2="13.6614" gradientUnits="userSpaceOnUse">
<stop stop-color="#A3541E"/>
<stop offset="1" stop-color="#512D00"/>
</linearGradient>
<linearGradient id="paint16_linear" x1="14.2746" y1="13.6497" x2="12.8726" y2="14.4909" gradientUnits="userSpaceOnUse">
<stop stop-color="#3C2200"/>
<stop offset="1" stop-color="#643800"/>
</linearGradient>
<linearGradient id="paint17_linear" x1="13.9474" y1="11.5831" x2="12.6155" y2="12.6346" gradientUnits="userSpaceOnUse">
<stop stop-color="#3C2200"/>
<stop offset="1" stop-color="#643800"/>
</linearGradient>
<linearGradient id="paint18_linear" x1="14.2355" y1="15.8996" x2="12.2378" y2="16.4603" gradientUnits="userSpaceOnUse">
<stop stop-color="#3C2200"/>
<stop offset="1" stop-color="#643800"/>
</linearGradient>
<linearGradient id="paint19_linear" x1="14.2015" y1="20.4455" x2="12.5193" y2="20.6208" gradientUnits="userSpaceOnUse">
<stop stop-color="#3C2200"/>
<stop offset="1" stop-color="#643800"/>
</linearGradient>
<linearGradient id="paint20_linear" x1="14.0409" y1="18.1444" x2="12.3594" y2="18.5419" gradientUnits="userSpaceOnUse">
<stop stop-color="#3C2200"/>
<stop offset="1" stop-color="#643800"/>
</linearGradient>
<linearGradient id="paint21_linear" x1="13.1214" y1="10.4651" x2="11.8947" y2="11.2712" gradientUnits="userSpaceOnUse">
<stop stop-color="#3C2200"/>
<stop offset="1" stop-color="#643800"/>
</linearGradient>
<linearGradient id="paint22_linear" x1="10.0564" y1="5.73873" x2="6.93682" y2="9.69959" gradientUnits="userSpaceOnUse">
<stop stop-color="#4B8C1C"/>
<stop offset="1" stop-color="#76AB50"/>
</linearGradient>
<linearGradient id="paint23_linear" x1="10.8527" y1="17.1065" x2="6.33049" y2="5.95884" gradientUnits="userSpaceOnUse">
<stop stop-color="#4B8C1C"/>
<stop offset="1" stop-color="#4B8C1C" stop-opacity="0"/>
</linearGradient>
<linearGradient id="paint24_linear" x1="8.46891" y1="10.5731" x2="6.64832" y2="9.20769" gradientUnits="userSpaceOnUse">
<stop stop-color="#4B8C1C"/>
<stop offset="1" stop-color="#4B8C1C" stop-opacity="0"/>
</linearGradient>
<linearGradient id="paint25_linear" x1="9.5373" y1="12.5216" x2="11.8622" y2="6.75596" gradientUnits="userSpaceOnUse">
<stop stop-color="#4B8C1C"/>
<stop offset="1" stop-color="#76AB50"/>
</linearGradient>
<linearGradient id="paint26_linear" x1="11.776" y1="23.642" x2="11.776" y2="1.94353" gradientUnits="userSpaceOnUse">
<stop stop-color="#4B8C1C"/>
<stop offset="1" stop-color="#4B8C1C" stop-opacity="0"/>
</linearGradient>
<linearGradient id="paint27_linear" x1="7.88802" y1="4.15704" x2="7.58423" y2="5.83958" gradientUnits="userSpaceOnUse">
<stop stop-color="#4B8C1C"/>
<stop offset="0.9987" stop-color="#407817"/>
</linearGradient>
<linearGradient id="paint28_linear" x1="6.76045" y1="8.88587" x2="7.69519" y2="10.2646" gradientUnits="userSpaceOnUse">
<stop stop-color="#4B8C1C"/>
<stop offset="0.9987" stop-color="#407817"/>
</linearGradient>
<linearGradient id="paint29_linear" x1="7.59766" y1="7.59752" x2="8.48565" y2="8.53224" gradientUnits="userSpaceOnUse">
<stop stop-color="#4B8C1C"/>
<stop offset="0.9987" stop-color="#407817"/>
</linearGradient>
<linearGradient id="paint30_linear" x1="6.27304" y1="10.6927" x2="6.62358" y2="12.1884" gradientUnits="userSpaceOnUse">
<stop stop-color="#4B8C1C"/>
<stop offset="0.9987" stop-color="#407817"/>
</linearGradient>
<linearGradient id="paint31_linear" x1="6.68264" y1="7.90367" x2="6.79949" y2="12.6594" gradientUnits="userSpaceOnUse">
<stop stop-color="#4B8C1C"/>
<stop offset="0.9987" stop-color="#407817"/>
</linearGradient>
<linearGradient id="paint32_linear" x1="9.93484" y1="3.7653" x2="12.4157" y2="6.7926" gradientUnits="userSpaceOnUse">
<stop stop-color="#4B8C1C"/>
<stop offset="1" stop-color="#76AB50"/>
</linearGradient>
<linearGradient id="paint33_linear" x1="12.2071" y1="6.54975" x2="10.0689" y2="2.9568" gradientUnits="userSpaceOnUse">
<stop stop-color="#4B8C1C"/>
<stop offset="0.9987" stop-color="#407817"/>
</linearGradient>
<linearGradient id="paint34_linear" x1="6.41291" y1="6.06603" x2="6.48301" y2="4.71646" gradientUnits="userSpaceOnUse">
<stop stop-color="#4B8C1C"/>
<stop offset="1" stop-color="#4B8C1C" stop-opacity="0"/>
</linearGradient>
<linearGradient id="paint35_linear" x1="9.09094" y1="6.25267" x2="9.20179" y2="4.11877" gradientUnits="userSpaceOnUse">
<stop stop-color="#4B8C1C"/>
<stop offset="1" stop-color="#4B8C1C" stop-opacity="0"/>
</linearGradient>
<linearGradient id="paint36_linear" x1="5.00988" y1="6.44031" x2="4.92224" y2="5.0206" gradientUnits="userSpaceOnUse">
<stop stop-color="#4B8C1C"/>
<stop offset="1" stop-color="#4B8C1C" stop-opacity="0"/>
</linearGradient>
<linearGradient id="paint37_linear" x1="6.31907" y1="3.87327" x2="6.01528" y2="5.55581" gradientUnits="userSpaceOnUse">
<stop stop-color="#4B8C1C"/>
<stop offset="0.9987" stop-color="#407817"/>
</linearGradient>
<linearGradient id="paint38_linear" x1="9.91692" y1="4.63031" x2="12.1304" y2="11.0456" gradientUnits="userSpaceOnUse">
<stop stop-color="#4B8C1C"/>
<stop offset="1" stop-color="#4B8C1C" stop-opacity="0"/>
</linearGradient>
<linearGradient id="paint39_linear" x1="10.0907" y1="8.66743" x2="11.0194" y2="6.36419" gradientUnits="userSpaceOnUse">
<stop stop-color="#4B8C1C"/>
<stop offset="1" stop-color="#4B8C1C" stop-opacity="0"/>
</linearGradient>
<linearGradient id="paint40_linear" x1="11.0102" y1="6.94796" x2="9.85348" y2="7.6665" gradientUnits="userSpaceOnUse">
<stop stop-color="#4B8C1C"/>
<stop offset="0.9987" stop-color="#407817"/>
</linearGradient>
<linearGradient id="paint41_linear" x1="10.7202" y1="10.069" x2="11.3161" y2="8.10607" gradientUnits="userSpaceOnUse">
<stop stop-color="#4B8C1C"/>
<stop offset="1" stop-color="#4B8C1C" stop-opacity="0"/>
</linearGradient>
<linearGradient id="paint42_linear" x1="11.8629" y1="8.32072" x2="10.7062" y2="9.03926" gradientUnits="userSpaceOnUse">
<stop stop-color="#4B8C1C"/>
<stop offset="0.9987" stop-color="#407817"/>
</linearGradient>
<linearGradient id="paint43_linear" x1="16.2063" y1="5.96717" x2="13.2401" y2="2.79086" gradientUnits="userSpaceOnUse">
<stop stop-color="#4B8C1C"/>
<stop offset="1" stop-color="#76AB50"/>
</linearGradient>
</defs>
</svg>
