<svg width="80" height="80" viewBox="0 0 80 80" fill="none" xmlns="http://www.w3.org/2000/svg">
<path d="M13.9575 47.7139C14.4594 47.8544 14.7123 38.0543 14.5999 35.1597L20.8034 34.8345C20.6508 35.9747 20.4621 38.3314 20.8716 38.3876C21.2812 38.4438 20.8716 37.5003 21.0041 36.5327C21.1366 35.5652 26.8864 40.4231 27.2357 40.6238C27.5007 40.7764 28.4483 39.9373 30.5121 41.0012C31.2027 41.3545 33.4753 44.2491 33.652 44.2772C33.652 44.2772 33.2264 40.2825 33.4592 38.4478C33.6921 36.617 39.731 42.9323 39.5262 44.9317C39.1568 48.5409 41.4856 58.5418 34.0736 64.1464C27.1996 69.3456 15.407 66.9929 11.4279 61.7295" fill="url(#paint0_linear)"/>
<path d="M33.4592 38.4518C33.6921 36.621 33.7925 31.6748 34.2703 28.9889C34.7481 26.303 36.1615 25.0946 38.3618 25.6647C40.5621 26.2348 39.9357 31.173 39.8554 32.3734C39.735 34.2122 39.739 42.8399 39.5262 44.9357" fill="url(#paint1_linear)"/>
<path d="M27.2357 40.6279C27.6894 40.7001 27.2478 38.8373 27.5529 35.6616C27.7858 33.2367 28.2556 26.6123 28.633 23.1274C29.0988 18.8075 30.0102 17.6994 32.1061 17.6473C34.2021 17.5951 34.969 20.2127 34.7361 23.0632C34.5393 25.4721 34.0655 29.258 33.395 33.9874C32.9935 36.8219 32.9453 44.1769 33.652 44.2773" fill="url(#paint2_linear)"/>
<path d="M14.5999 35.1633C14.4835 32.2727 15.5355 22.0831 15.5395 19.3651C15.5435 16.6471 17.254 15.4748 19.0126 15.4949C20.7713 15.515 21.9678 16.8318 21.7389 22.2036C21.5944 25.5921 21.486 28.8159 20.8034 34.8381L16.463 38.4795L14.5999 35.1633Z" fill="url(#paint3_linear)"/>
<path d="M21.0042 36.5366C21.1367 35.569 21.6426 26.0942 21.8072 24.0185C22.1525 19.6785 21.8554 13.1465 25.7822 13.022C28.3078 12.9417 28.6932 15.3064 28.7414 16.3382C28.7896 17.37 27.8059 28.9487 27.6613 29.9925C27.5168 31.0364 26.8864 40.4269 27.2357 40.6277" fill="url(#paint4_linear)"/>
<path opacity="0.5" d="M21.0443 16.6918C21.6064 17.7236 21.8554 19.5222 21.7389 22.2041C21.5944 25.5926 21.4458 28.8164 20.8034 34.8386C20.6829 35.9828 20.4621 38.3355 20.8716 38.3917C18.7115 36.7296 20.7472 27.8208 21.0684 23.7137C21.4057 19.3496 20.6187 15.921 21.0443 16.6918Z" fill="url(#paint5_linear)"/>
<path opacity="0.5" d="M27.6613 29.9929C27.5168 31.0368 26.8864 40.4273 27.2357 40.6281C27.2357 40.6281 25.8625 38.8857 26.2841 35.8625C27.1434 29.6637 27.7456 23.0313 27.6011 19.4742C27.4646 16.1259 28.1913 14.1947 28.4081 14.7046C28.6209 15.2145 28.7213 15.9412 28.7414 16.3386C28.7856 17.3704 27.8059 28.9491 27.6613 29.9929Z" fill="url(#paint6_linear)"/>
<path opacity="0.5" d="M34.7361 23.0675C34.5393 25.4764 34.0655 29.2623 33.395 33.9918C32.9935 36.8262 32.9453 44.1813 33.652 44.2816C29.9379 44.0889 35.2098 21.7868 33.4351 18.0771C34.5233 18.9243 34.9127 20.9317 34.7361 23.0675Z" fill="url(#paint7_linear)"/>
<path opacity="0.5" d="M34.4108 44.3092C34.1298 44.3855 33.7724 44.3614 33.656 44.2811C33.656 44.2811 33.2504 40.1339 33.4632 38.4517C33.6961 36.6209 33.7965 31.6747 34.2743 28.9888C34.4831 27.8085 34.8766 26.9172 35.4347 26.3311C35.0412 27.6318 35.6154 27.4753 34.985 30.6469C34.6437 32.3452 36.2257 43.7994 34.4108 44.3092Z" fill="url(#paint8_linear)"/>
<path opacity="0.5" d="M28.6571 30.9202C28.2435 33.835 29.171 40.4674 27.2357 40.628C27.6894 40.4794 27.316 38.1308 27.5529 35.6617C27.7858 33.2368 28.1913 26.6043 28.633 23.1275C29.0867 19.5423 29.5645 18.4543 30.9578 17.832C28.368 21.5818 29.6729 23.7619 28.6571 30.9202Z" fill="url(#paint9_linear)"/>
<path opacity="0.5" d="M22.7226 25.761C22.3011 30.1451 22.016 38.2751 20.8716 38.3955C21.233 38.263 20.8837 37.4079 21.0041 36.5407C21.1366 35.5731 21.6426 26.0982 21.8072 24.0226C22.024 21.3287 21.9638 17.0328 23.2446 14.6802C22.4496 17.7113 23.0639 22.2079 22.7226 25.761Z" fill="url(#paint10_linear)"/>
<path opacity="0.5" d="M33.652 44.2812C33.652 44.2812 33.2465 40.1339 33.4593 38.4517C33.6922 36.6209 33.7925 31.6747 34.2703 28.9888C34.4791 27.8085 34.8726 26.9172 35.4308 26.3311C35.0373 27.6318 34.3908 30.1531 34.1178 35.4888C33.7604 44.8794 33.7725 44.3615 33.652 44.2812Z" fill="url(#paint11_linear)"/>
<path d="M33.636 44.5583C33.656 44.5583 33.7765 43.2535 33.7966 42.9644C33.8046 42.8119 33.9772 30.3901 34.3346 28.6638C34.3346 28.6638 34.3025 28.8364 34.2061 28.8003C34.1298 28.7722 34.1298 28.5835 34.1298 28.5835C33.7966 30.1734 32.7245 36.9664 33.1943 42.6674C33.2385 43.2375 33.5115 44.5503 33.636 44.5583Z" fill="#3D2A20"/>
<path d="M27.2196 40.9089C27.8621 40.7564 28.2756 24.5768 28.898 21.2726C28.898 21.2726 28.7815 21.5336 28.629 21.5055C28.4884 21.4693 28.4362 21.1763 28.4362 21.1763C27.8018 24.5126 26.794 40.7564 27.2196 40.9089Z" fill="#3D2A20"/>
<path d="M20.8515 38.6727C21.0443 38.6366 21.0684 37.8457 21.0724 37.6891C21.0884 34.8225 21.4097 31.8998 21.6465 28.3949C21.8393 25.5363 21.9718 22.726 21.9959 20.843C21.9959 20.843 21.9878 21.0639 21.8995 21.0719C21.7469 21.0679 21.767 20.7788 21.767 20.7788C21.7429 22.6457 21.2852 25.5042 21.0925 28.3507C20.8556 31.8676 20.6267 34.7302 20.6066 37.6168C20.6026 37.7694 20.707 38.6607 20.8515 38.6727Z" fill="#3D2A20"/>
<path d="M11.4279 61.7377C7.05131 56.4502 7.90655 50.1591 8.46867 44.6548C8.94247 39.9936 7.68973 36.1314 8.14746 33.8309C9.25164 31.4421 14.3549 31.8155 14.9653 38.4198C15.0014 39.2188 14.9773 40.0699 14.8609 40.9772C14.5798 43.1934 14.5798 47.7542 14.5798 47.7542" fill="url(#paint12_linear)"/>
<path d="M10.2836 54.0372C8.74577 49.637 12.4197 43.0608 10.0547 39.588C8.18766 36.8499 8.42054 34.6177 9.14729 32.9395C8.69357 33.1282 8.3322 33.4253 8.14349 33.8308C7.68576 36.1312 8.94251 39.9935 8.46471 44.6546C7.90258 50.1589 7.04734 56.4541 11.4239 61.7375C15.407 66.9969 27.1755 69.3255 34.0696 64.1545C41.6984 58.4334 39.0524 48.0712 39.5784 44.5583C39.6266 44.2371 39.731 34.2162 39.8514 32.3734C39.9076 31.5423 40.2208 28.9167 39.6788 27.1943C38.1691 27.6882 38.5023 29.9244 38.4863 30.5989C38.406 34.0235 38.9842 41.5151 38.3738 46.2726C38.2574 47.1799 38.3859 50.4721 38.2012 51.5159C38.2012 51.5199 38.1972 51.5239 38.1972 51.528C34.0937 67.2298 15.941 65.7363 10.2836 54.0372Z" fill="url(#paint13_linear)"/>
<path opacity="0.5" d="M14.5397 36.2275L14.5437 36.2396C15.0135 37.6849 15.1018 41.4187 14.7003 44.7509C14.2988 48.0832 19.0005 46.0075 22.1444 51.4998C22.1444 51.4998 20.7552 46.3046 18.4906 44.5261C16.2301 42.7516 18.1533 39.612 14.5397 36.2275Z" fill="url(#paint14_linear)"/>
<path d="M10.6931 32.498C11.7451 32.5181 12.7368 33.0962 13.4475 33.8751C14.1542 34.6781 14.6119 35.6617 14.881 36.6975C15.3026 38.7812 15.2423 40.8769 15.146 42.9606C15.1058 43.4825 15.0576 44.0004 14.9934 44.5183C14.9332 45.0362 14.893 45.4979 15.1179 45.8753C15.5676 46.6301 16.7159 46.8549 17.6354 47.3006C18.599 47.7141 19.5305 48.2561 20.3015 48.9828C21.0603 49.7175 21.6666 50.5847 22.1484 51.5C21.0202 49.7536 19.4221 48.3605 17.4748 47.698C16.997 47.5174 16.5071 47.3568 16.0132 47.148C15.5354 46.9352 14.9934 46.6662 14.6762 46.1282C14.351 45.5943 14.4152 44.9559 14.4634 44.4581C14.5196 43.9482 14.5557 43.4343 14.5878 42.9204C14.7284 40.8769 14.7766 38.7852 14.4594 36.7858C14.2586 35.8102 13.8651 34.8387 13.2387 34.0478C12.6284 33.2528 11.729 32.6466 10.6931 32.498Z" fill="#3D2A20"/>
<path opacity="0.48" d="M34.6317 46.4375C33.925 48.0233 26.2841 51.7129 23.0559 49.6694C19.8237 47.6258 17.7037 40.5317 18.7275 39.1145C19.7514 37.6973 23.4494 39.6525 27.0992 40.9332C33.399 43.1453 35.3424 44.8556 34.6317 46.4375Z" fill="url(#paint15_radial)"/>
<path opacity="0.48" d="M34.6317 46.4369C38.0325 46.6537 39.8193 49.7852 34.6638 57.0198C29.5806 64.1501 23.4012 61.7171 22.4255 59.509C21.4498 57.3009 23.879 54.3018 27.1835 53.6755C30.484 53.0492 30.8855 46.196 34.6317 46.4369Z" fill="url(#paint16_radial)"/>
<path d="M40.4697 44.9359C40.2569 42.8401 40.2609 34.2124 40.1405 32.3736C40.1084 31.8918 39.9959 30.8078 40.004 29.6516L39.9959 29.6436L39.9919 29.6476C40 30.8078 39.8875 31.8918 39.8554 32.3736C39.735 34.2124 39.739 42.8401 39.5262 44.9359C39.3455 46.6863 39.7952 49.9343 39.4659 53.4592C39.5302 52.6282 39.9598 52.576 39.9598 52.576C39.9598 52.576 40.4577 52.5399 40.5259 53.4793C40.2007 49.9503 40.6504 46.6903 40.4697 44.9359Z" fill="#3D2A20"/>
<path d="M66.0385 47.6983C65.5366 47.8388 65.2836 38.0387 65.3961 35.144L59.1926 34.8188C59.3452 35.959 59.5339 38.3157 59.1243 38.3719C58.7148 38.4281 59.1243 37.4847 58.9918 36.5171C58.8593 35.5495 53.1096 40.4074 52.7603 40.6082C52.4953 40.7607 51.5477 39.9216 49.4839 40.9855C48.7932 41.3389 46.5207 44.2335 46.344 44.2616C46.344 44.2616 46.7696 40.2669 46.5367 38.4322C46.3038 36.6014 40.265 42.9167 40.4698 44.916C40.8392 48.5253 38.5104 58.5261 45.9224 64.1308C52.7964 69.3299 64.589 66.9772 68.5681 61.7139" fill="url(#paint17_linear)"/>
<path d="M46.5367 38.4322C46.3039 36.6015 46.2035 31.6553 45.7257 28.9694C45.2479 26.2835 43.8345 25.0751 41.6342 25.6452C39.4339 26.2153 40.0602 31.1534 40.1405 32.3539C40.261 34.1926 40.257 42.8204 40.4698 44.9161" fill="url(#paint18_linear)"/>
<path d="M52.7643 40.6079C52.3106 40.6801 52.7522 38.8173 52.4471 35.6416C52.2142 33.2166 51.7444 26.5922 51.367 23.1074C50.9012 18.7875 49.9898 17.6794 47.8938 17.6272C45.7979 17.575 45.027 20.1967 45.2599 23.0472C45.4566 25.4561 45.9304 29.242 46.601 33.9714C47.0025 36.8059 47.0507 44.161 46.344 44.2613" fill="url(#paint19_linear)"/>
<path d="M65.396 35.1438C65.5125 32.2531 64.4605 22.0636 64.4565 19.3456C64.4525 16.6316 62.742 15.4553 60.9833 15.4754C59.2247 15.4954 58.0282 16.8123 58.257 22.1841C58.4016 25.5725 58.51 28.7964 59.1926 34.8186L63.533 38.46L65.396 35.1438Z" fill="url(#paint20_linear)"/>
<path d="M58.9958 36.5166C58.8633 35.549 58.3574 26.0741 58.1928 23.9985C57.8475 19.6585 58.1446 13.1265 54.2177 13.002C51.6922 12.9217 51.3067 15.2864 51.2585 16.3182C51.2104 17.35 52.1941 28.9286 52.3386 29.9725C52.4832 31.0163 53.1136 40.4069 52.7642 40.6077" fill="url(#paint21_linear)"/>
<path opacity="0.5" d="M58.9556 16.6713C58.3935 17.7031 58.1446 19.5017 58.261 22.1836C58.4056 25.5721 58.5541 28.7959 59.1965 34.8181C59.317 35.9623 59.5378 38.315 59.1283 38.3712C61.2884 36.7091 59.2528 27.8003 58.9315 23.6931C58.5943 19.3291 59.3772 15.9004 58.9556 16.6713Z" fill="url(#paint22_linear)"/>
<path opacity="0.5" d="M52.3387 29.9724C52.4832 31.0163 53.1136 40.4068 52.7643 40.6076C52.7643 40.6076 54.1375 38.8652 53.7159 35.842C52.8566 29.6432 52.2544 23.0108 52.3989 19.4537C52.5354 16.1053 51.8087 14.1742 51.5918 14.6841C51.379 15.194 51.2787 15.9207 51.2586 16.3181C51.2144 17.3499 52.1941 28.9286 52.3387 29.9724Z" fill="url(#paint23_linear)"/>
<path opacity="0.5" d="M45.2599 23.047C45.4566 25.4559 45.9304 29.2418 46.6009 33.9712C47.0025 36.8057 47.0506 44.1608 46.344 44.2611C50.058 44.0684 44.7861 21.7663 46.5608 18.0566C45.4727 18.9038 45.0872 20.9112 45.2599 23.047Z" fill="url(#paint24_linear)"/>
<path opacity="0.5" d="M45.5891 44.2897C45.8702 44.366 46.2275 44.3419 46.344 44.2616C46.344 44.2616 46.7495 40.1144 46.5367 38.4322C46.3038 36.6014 46.2034 31.6552 45.7256 28.9693C45.5168 27.789 45.1234 26.8977 44.5652 26.3115C44.9587 27.6123 44.3846 27.4557 45.0149 30.6274C45.3522 32.3297 43.7702 43.7799 45.5891 44.2897Z" fill="url(#paint25_linear)"/>
<path opacity="0.5" d="M51.3429 30.9002C51.7565 33.8149 50.829 40.4474 52.7643 40.608C52.3106 40.4594 52.684 38.1108 52.4471 35.6417C52.2142 33.2167 51.8087 26.5843 51.367 23.1075C50.9133 19.5223 50.4355 18.4343 49.0422 17.812C51.632 21.5618 50.3271 23.7418 51.3429 30.9002Z" fill="url(#paint26_linear)"/>
<path opacity="0.5" d="M57.2733 25.741C57.6949 30.1251 57.98 38.255 59.1243 38.3755C58.763 38.243 59.1123 37.3879 58.9918 36.5207C58.8593 35.5531 58.3534 26.0782 58.1888 24.0026C57.972 21.3086 58.0322 17.0128 56.7513 14.6602C57.5504 17.6913 56.936 22.1879 57.2733 25.741Z" fill="url(#paint27_linear)"/>
<path opacity="0.5" d="M46.344 44.2616C46.344 44.2616 46.7495 40.1144 46.5367 38.4322C46.3038 36.6014 46.2034 31.6552 45.7256 28.9693C45.5168 27.789 45.1234 26.8977 44.5652 26.3115C44.9587 27.6123 45.6052 30.1336 45.8782 35.4692C46.2355 44.8598 46.2275 44.3419 46.344 44.2616Z" fill="url(#paint28_linear)"/>
<path d="M46.3641 44.5383C46.344 44.5383 46.2235 43.2335 46.2034 42.9444C46.1954 42.7919 46.0228 30.3701 45.6654 28.6438C45.6654 28.6438 45.6975 28.8164 45.7939 28.7803C45.8702 28.7522 45.8702 28.5635 45.8702 28.5635C46.2034 30.1533 47.2755 36.9463 46.8057 42.6473C46.7616 43.2174 46.4885 44.5303 46.3641 44.5383Z" fill="#3D2A20"/>
<path d="M52.7804 40.8889C52.7804 40.8889 52.7764 40.8889 52.7804 40.8889C52.138 40.7364 51.7244 24.5568 51.1021 21.2526C51.1021 21.2526 51.2185 21.5136 51.3711 21.4855C51.5116 21.4493 51.5638 21.1562 51.5638 21.1562C52.1982 24.4965 53.206 40.7364 52.7804 40.8889Z" fill="#3D2A20"/>
<path d="M59.1444 38.6527C58.9517 38.6166 58.9276 37.8256 58.9235 37.6691C58.9075 34.8025 58.5863 31.8797 58.3494 28.3748C58.1567 25.5163 58.0242 22.706 58.0001 20.823C58.0001 20.823 58.0081 21.0438 58.0964 21.0519C58.249 21.0479 58.2289 20.7588 58.2289 20.7588C58.253 22.6257 58.7107 25.4842 58.9035 28.3307C59.1404 31.8476 59.3692 34.7102 59.3893 37.5968C59.3933 37.7534 59.2929 38.6447 59.1444 38.6527Z" fill="#3D2A20"/>
<path d="M68.572 61.7177C72.9486 56.4302 72.0933 50.139 71.5312 44.6348C71.0574 39.9736 72.3102 36.1114 71.8524 33.8109C70.7483 31.4221 65.645 31.7955 65.0346 38.3998C64.9985 39.1987 65.0226 40.0499 65.139 40.9572C65.4201 43.1734 65.4201 47.7342 65.4201 47.7342" fill="url(#paint29_linear)"/>
<path d="M69.7164 54.0172C71.2543 49.617 67.5803 43.0407 69.9453 39.568C71.8124 36.8259 71.5795 34.5977 70.8527 32.9195C71.3064 33.1082 71.6678 33.4053 71.8565 33.8108C72.3143 36.1112 71.0575 39.9735 71.5353 44.6346C72.0974 50.1389 72.9527 56.4341 68.5761 61.7175C64.593 66.9769 52.8245 69.3055 45.9304 64.1344C38.3016 58.4134 40.9476 48.0512 40.4216 44.5383C40.3734 44.2171 40.269 34.1962 40.1486 32.3534C40.0923 31.5223 39.7792 28.8967 40.3212 27.1743C41.8309 27.6681 41.4977 29.9044 41.5137 30.5789C41.594 34.0035 41.0158 41.4951 41.6261 46.2526C41.7426 47.1599 41.6141 50.452 41.7988 51.4959C41.7988 51.4999 41.8028 51.5039 41.8028 51.5079C45.9063 67.2098 64.059 65.7203 69.7164 54.0172Z" fill="url(#paint30_linear)"/>
<path opacity="0.5" d="M65.4562 36.2075L65.4522 36.2196C64.9824 37.6649 64.8941 41.3986 65.2956 44.7309C65.6971 48.0632 60.9954 45.9875 57.8515 51.4798C57.8515 51.4798 59.2407 46.2846 61.5053 44.5061C63.7699 42.7315 61.8426 39.592 65.4562 36.2075Z" fill="url(#paint31_linear)"/>
<path d="M69.3029 32.478C68.2509 32.4981 67.2591 33.0762 66.5484 33.8551C65.8418 34.6581 65.384 35.6417 65.115 36.6775C64.6934 38.7612 64.7537 40.8569 64.85 42.9406C64.8902 43.4625 64.9384 43.9804 65.0026 44.4983C65.0628 45.0162 65.103 45.4779 64.8781 45.8553C64.4284 46.6101 63.2801 46.8349 62.3606 47.2805C61.397 47.6941 60.4654 48.2361 59.6945 48.9627C58.9357 49.6974 58.3294 50.5646 57.8475 51.48C58.9758 49.7336 60.5738 48.3404 62.5212 47.678C62.999 47.4973 63.4889 47.3367 63.9827 47.128C64.4605 46.9152 65.0026 46.6462 65.3198 46.1082C65.645 45.5743 65.5808 44.9359 65.5326 44.4381C65.4764 43.9282 65.4403 43.4143 65.4081 42.9004C65.2676 40.8569 65.2194 38.7652 65.5366 36.7658C65.7374 35.7902 66.1309 34.8186 66.7572 34.0277C67.3675 33.2328 68.271 32.6266 69.3029 32.478Z" fill="#3D2A20"/>
<path opacity="0.48" d="M45.3643 46.421C46.0709 48.0068 53.7119 51.6964 56.9401 49.6529C60.1683 47.6094 62.2923 40.5152 61.2685 39.098C60.2446 37.6808 56.5466 39.632 52.8968 40.9127C46.5969 43.1249 44.6576 44.8352 45.3643 46.421Z" fill="url(#paint32_radial)"/>
<path opacity="0.48" d="M45.3643 46.4212C41.9634 46.638 40.1767 49.7696 45.3322 57.0042C50.4154 64.1345 56.5948 61.7015 57.5705 59.4934C58.5462 57.2852 56.117 54.2862 52.8125 53.6599C49.512 53.0336 49.1145 46.1804 45.3643 46.4212Z" fill="url(#paint33_radial)"/>
<defs>
<linearGradient id="paint0_linear" x1="30.5629" y1="71.5028" x2="24.9138" y2="51.2246" gradientUnits="userSpaceOnUse">
<stop offset="0.00132565" stop-color="#5A4539"/>
<stop offset="1" stop-color="#695042"/>
</linearGradient>
<linearGradient id="paint1_linear" x1="39.4516" y1="28.3073" x2="36.2013" y2="39.2683" gradientUnits="userSpaceOnUse">
<stop offset="0.00132565" stop-color="#5A4539"/>
<stop offset="1" stop-color="#695042"/>
</linearGradient>
<linearGradient id="paint2_linear" x1="33.2748" y1="15.3305" x2="30.613" y2="38.4102" gradientUnits="userSpaceOnUse">
<stop offset="0.00132565" stop-color="#5A4539"/>
<stop offset="1" stop-color="#695042"/>
</linearGradient>
<linearGradient id="paint3_linear" x1="17.5446" y1="19.6428" x2="18.9647" y2="37.1281" gradientUnits="userSpaceOnUse">
<stop offset="0.00132565" stop-color="#5A4539"/>
<stop offset="1" stop-color="#695042"/>
</linearGradient>
<linearGradient id="paint4_linear" x1="24.7827" y1="16.9757" x2="24.9977" y2="37.3633" gradientUnits="userSpaceOnUse">
<stop offset="0.00132565" stop-color="#5A4539"/>
<stop offset="1" stop-color="#695042"/>
</linearGradient>
<linearGradient id="paint5_linear" x1="22.6016" y1="-18.3628" x2="20.7451" y2="30.054" gradientUnits="userSpaceOnUse">
<stop offset="0.3072" stop-color="#473226" stop-opacity="0"/>
<stop offset="1" stop-color="#473226"/>
</linearGradient>
<linearGradient id="paint6_linear" x1="29.1905" y1="-18.11" x2="27.334" y2="30.3068" gradientUnits="userSpaceOnUse">
<stop offset="0.3072" stop-color="#473226" stop-opacity="0"/>
<stop offset="1" stop-color="#473226"/>
</linearGradient>
<linearGradient id="paint7_linear" x1="35.4049" y1="-17.8716" x2="33.5484" y2="30.5452" gradientUnits="userSpaceOnUse">
<stop offset="0.3072" stop-color="#473226" stop-opacity="0"/>
<stop offset="1" stop-color="#473226"/>
</linearGradient>
<linearGradient id="paint8_linear" x1="34.7082" y1="17.6523" x2="34.0655" y2="57.714" gradientUnits="userSpaceOnUse">
<stop offset="0.3072" stop-color="#473226" stop-opacity="0"/>
<stop offset="1" stop-color="#473226"/>
</linearGradient>
<linearGradient id="paint9_linear" x1="30.91" y1="-18.0442" x2="29.0535" y2="30.3726" gradientUnits="userSpaceOnUse">
<stop offset="0.3072" stop-color="#473226" stop-opacity="0"/>
<stop offset="1" stop-color="#473226"/>
</linearGradient>
<linearGradient id="paint10_linear" x1="23.7766" y1="-18.318" x2="21.9201" y2="30.0989" gradientUnits="userSpaceOnUse">
<stop offset="0.3072" stop-color="#473226" stop-opacity="0"/>
<stop offset="1" stop-color="#473226"/>
</linearGradient>
<linearGradient id="paint11_linear" x1="36" y1="-29.3936" x2="34.7479" y2="19.0406" gradientUnits="userSpaceOnUse">
<stop offset="0.3072" stop-color="#473226" stop-opacity="0"/>
<stop offset="1" stop-color="#473226"/>
</linearGradient>
<linearGradient id="paint12_linear" x1="2.32303" y1="22.1689" x2="13.748" y2="52.0196" gradientUnits="userSpaceOnUse">
<stop offset="0.00132565" stop-color="#5A4539"/>
<stop offset="1" stop-color="#695042"/>
</linearGradient>
<linearGradient id="paint13_linear" x1="23.2797" y1="32.954" x2="28.8492" y2="92.9396" gradientUnits="userSpaceOnUse">
<stop offset="0.00132565" stop-color="#5A4539"/>
<stop offset="1" stop-color="#695042"/>
</linearGradient>
<linearGradient id="paint14_linear" x1="12.5983" y1="55.6189" x2="21.8812" y2="36.6228" gradientUnits="userSpaceOnUse">
<stop offset="0.3072" stop-color="#473226" stop-opacity="0"/>
<stop offset="1" stop-color="#473226"/>
</linearGradient>
<radialGradient id="paint15_radial" cx="0" cy="0" r="1" gradientUnits="userSpaceOnUse" gradientTransform="translate(25.0878 44.5445) rotate(21.4332) scale(15.9903 4.43255)">
<stop stop-color="#695042"/>
<stop offset="1" stop-color="#695042" stop-opacity="0"/>
</radialGradient>
<radialGradient id="paint16_radial" cx="0" cy="0" r="1" gradientUnits="userSpaceOnUse" gradientTransform="translate(33.6428 52.6293) rotate(125.195) scale(9.08991 5.40469)">
<stop stop-color="#695042"/>
<stop offset="1" stop-color="#695042" stop-opacity="0"/>
</radialGradient>
<linearGradient id="paint17_linear" x1="49.4237" y1="71.4848" x2="55.0727" y2="51.2067" gradientUnits="userSpaceOnUse">
<stop offset="0.00132565" stop-color="#5A4539"/>
<stop offset="1" stop-color="#695042"/>
</linearGradient>
<linearGradient id="paint18_linear" x1="40.5565" y1="28.2804" x2="43.8068" y2="39.2414" gradientUnits="userSpaceOnUse">
<stop offset="0.00132565" stop-color="#5A4539"/>
<stop offset="1" stop-color="#695042"/>
</linearGradient>
<linearGradient id="paint19_linear" x1="46.7333" y1="15.3031" x2="49.3951" y2="38.3828" gradientUnits="userSpaceOnUse">
<stop offset="0.00132565" stop-color="#5A4539"/>
<stop offset="1" stop-color="#695042"/>
</linearGradient>
<linearGradient id="paint20_linear" x1="62.4636" y1="19.6159" x2="61.0434" y2="37.1011" gradientUnits="userSpaceOnUse">
<stop offset="0.00132565" stop-color="#5A4539"/>
<stop offset="1" stop-color="#695042"/>
</linearGradient>
<linearGradient id="paint21_linear" x1="55.2253" y1="16.9483" x2="55.0104" y2="37.3359" gradientUnits="userSpaceOnUse">
<stop offset="0.00132565" stop-color="#5A4539"/>
<stop offset="1" stop-color="#695042"/>
</linearGradient>
<linearGradient id="paint22_linear" x1="57.3968" y1="-18.3823" x2="59.2533" y2="30.0345" gradientUnits="userSpaceOnUse">
<stop offset="0.3072" stop-color="#473226" stop-opacity="0"/>
<stop offset="1" stop-color="#473226"/>
</linearGradient>
<linearGradient id="paint23_linear" x1="50.8079" y1="-18.1296" x2="52.6644" y2="30.2873" gradientUnits="userSpaceOnUse">
<stop offset="0.3072" stop-color="#473226" stop-opacity="0"/>
<stop offset="1" stop-color="#473226"/>
</linearGradient>
<linearGradient id="paint24_linear" x1="44.5934" y1="-17.8912" x2="46.4499" y2="30.5257" gradientUnits="userSpaceOnUse">
<stop offset="0.3072" stop-color="#473226" stop-opacity="0"/>
<stop offset="1" stop-color="#473226"/>
</linearGradient>
<linearGradient id="paint25_linear" x1="45.2902" y1="17.6338" x2="45.9328" y2="57.6955" gradientUnits="userSpaceOnUse">
<stop offset="0.3072" stop-color="#473226" stop-opacity="0"/>
<stop offset="1" stop-color="#473226"/>
</linearGradient>
<linearGradient id="paint26_linear" x1="49.0885" y1="-18.0633" x2="50.945" y2="30.3536" gradientUnits="userSpaceOnUse">
<stop offset="0.3072" stop-color="#473226" stop-opacity="0"/>
<stop offset="1" stop-color="#473226"/>
</linearGradient>
<linearGradient id="paint27_linear" x1="56.2218" y1="-18.337" x2="58.0783" y2="30.0798" gradientUnits="userSpaceOnUse">
<stop offset="0.3072" stop-color="#473226" stop-opacity="0"/>
<stop offset="1" stop-color="#473226"/>
</linearGradient>
<linearGradient id="paint28_linear" x1="43.9866" y1="-29.4114" x2="45.2387" y2="19.0228" gradientUnits="userSpaceOnUse">
<stop offset="0.3072" stop-color="#473226" stop-opacity="0"/>
<stop offset="1" stop-color="#473226"/>
</linearGradient>
<linearGradient id="paint29_linear" x1="77.6753" y1="22.1499" x2="66.2503" y2="52.0006" gradientUnits="userSpaceOnUse">
<stop offset="0.00132565" stop-color="#5A4539"/>
<stop offset="1" stop-color="#695042"/>
</linearGradient>
<linearGradient id="paint30_linear" x1="56.7188" y1="32.935" x2="51.1492" y2="92.9206" gradientUnits="userSpaceOnUse">
<stop offset="0.00132565" stop-color="#5A4539"/>
<stop offset="1" stop-color="#695042"/>
</linearGradient>
<linearGradient id="paint31_linear" x1="67.4" y1="55.5999" x2="58.1171" y2="36.6038" gradientUnits="userSpaceOnUse">
<stop offset="0.3072" stop-color="#473226" stop-opacity="0"/>
<stop offset="1" stop-color="#473226"/>
</linearGradient>
<radialGradient id="paint32_radial" cx="0" cy="0" r="1" gradientUnits="userSpaceOnUse" gradientTransform="translate(54.904 44.5265) rotate(158.567) scale(15.9903 4.43255)">
<stop stop-color="#695042"/>
<stop offset="1" stop-color="#695042" stop-opacity="0"/>
</radialGradient>
<radialGradient id="paint33_radial" cx="0" cy="0" r="1" gradientUnits="userSpaceOnUse" gradientTransform="translate(46.3583 52.6067) rotate(54.8054) scale(9.0899 5.40469)">
<stop stop-color="#695042"/>
<stop offset="1" stop-color="#695042" stop-opacity="0"/>
</radialGradient>
</defs>
</svg>
