<svg width="80" height="80" viewBox="0 0 80 80" fill="none" xmlns="http://www.w3.org/2000/svg">
<path d="M13.9575 47.8966C14.4594 48.0372 14.7124 38.2348 14.6 35.3394L20.8034 35.0142C20.6509 36.1546 20.4622 38.5119 20.8717 38.5681C21.2813 38.6243 20.8717 37.6806 21.0042 36.7128C21.1367 35.745 26.8865 40.6041 27.2358 40.8048C27.5008 40.9574 28.4484 40.1182 30.5122 41.1823C31.2028 41.5357 33.4754 44.431 33.6521 44.4592C33.6521 44.4592 33.2264 40.4635 33.4593 38.6283C33.6922 36.7971 39.7311 43.1139 39.5263 45.1137C39.1569 48.7239 41.4857 58.727 34.0737 64.333C27.1996 69.5334 15.407 67.1801 11.428 61.9155" fill="url(#paint0_linear)"/>
<path d="M33.4592 38.6323C33.6921 36.8011 33.7925 31.8537 34.2703 29.1672C34.7481 26.4847 36.1615 25.272 38.3618 25.8422C40.5621 26.4124 39.9357 31.3518 39.8554 32.5525C39.735 34.3917 39.739 43.0215 39.5262 45.1177" fill="url(#paint1_linear)"/>
<path d="M27.2356 40.8086C27.6893 40.8809 27.2476 39.0176 27.5528 35.8411C27.7857 33.4156 28.2555 26.7897 28.6329 23.304C29.0986 18.9831 30.0101 17.8747 32.106 17.8225C34.2019 17.7703 34.9688 20.3886 34.736 23.2398C34.5392 25.6492 34.0654 29.436 33.3949 34.1666C32.9934 37.0017 32.9452 44.3585 33.6519 44.4589" fill="url(#paint2_linear)"/>
<path d="M14.6001 35.3432C14.4836 32.4519 15.5356 22.26 15.5396 19.5413C15.5436 16.8227 17.2541 15.6501 19.0128 15.6702C20.7714 15.6903 21.9679 17.0074 21.7391 22.3805C21.5945 25.7697 21.4861 28.9944 20.8035 35.018L16.4631 38.6602L14.6001 35.3432Z" fill="url(#paint3_linear)"/>
<path d="M21.0042 36.7169C21.1367 35.7492 21.6426 26.272 21.8072 24.1959C22.1525 19.8549 21.8554 13.3213 25.7822 13.1968C28.3078 13.1165 28.6932 15.4818 28.7414 16.5138C28.7896 17.5459 27.8059 29.1272 27.6613 30.1713C27.5168 31.2154 26.8864 40.6082 27.2357 40.809" fill="url(#paint4_linear)"/>
<path d="M21.0443 16.8671C21.6065 17.8992 21.8554 19.6982 21.739 22.3807C21.5944 25.77 21.4459 28.9946 20.8034 35.0182C20.683 36.1627 20.4621 38.5159 20.8717 38.5721C18.7115 36.9096 20.7472 27.9987 21.0684 23.8906C21.4057 19.5255 20.6187 16.0961 21.0443 16.8671Z" fill="url(#paint5_linear)"/>
<path d="M27.6613 30.1713C27.5167 31.2154 26.8863 40.6082 27.2356 40.809C27.2356 40.809 25.8624 39.0662 26.284 36.0423C27.1433 29.842 27.7456 23.2081 27.601 19.6501C27.4645 16.301 28.1913 14.3694 28.4081 14.8794C28.6209 15.3894 28.7213 16.1163 28.7413 16.5138C28.7855 17.5459 27.8058 29.1272 27.6613 30.1713Z" fill="url(#paint6_linear)"/>
<path d="M34.7362 23.244C34.5394 25.6534 34.0656 29.4403 33.3951 34.1708C32.9936 37.0059 32.9454 44.3627 33.6521 44.4631C29.938 44.2703 35.21 21.963 33.4353 18.2524C34.5234 19.0998 34.9128 21.1076 34.7362 23.244Z" fill="url(#paint7_linear)"/>
<path d="M34.4109 44.4912C34.1299 44.5675 33.7725 44.5434 33.6561 44.4631C33.6561 44.4631 33.2506 40.3149 33.4634 38.6323C33.6962 36.8011 33.7966 31.8537 34.2744 29.1672C34.4832 27.9866 34.8767 27.0951 35.4348 26.5088C35.0413 27.8099 35.6155 27.6533 34.9851 30.8257C34.6438 32.5244 36.2258 43.9812 34.4109 44.4912Z" fill="url(#paint8_linear)"/>
<path d="M28.657 31.0986C28.2434 34.014 29.1709 40.648 27.2356 40.8086C27.6893 40.6601 27.3159 38.3109 27.5528 35.8412C27.7857 33.4157 28.1912 26.7817 28.6329 23.3041C29.0866 19.718 29.5644 18.6298 30.9577 18.0073C28.3679 21.758 29.6728 23.9386 28.657 31.0986Z" fill="url(#paint9_linear)"/>
<path d="M22.7226 25.9389C22.301 30.3241 22.0159 38.4559 20.8716 38.5764C21.2329 38.4439 20.8836 37.5885 21.0041 36.7211C21.1366 35.7533 21.6425 26.2762 21.8071 24.2001C22.0239 21.5055 21.9637 17.2087 23.2446 14.8555C22.4496 17.8873 23.0639 22.385 22.7226 25.9389Z" fill="url(#paint10_linear)"/>
<path d="M33.6519 44.4631C33.6519 44.4631 33.2464 40.3149 33.4592 38.6323C33.6921 36.8011 33.7925 31.8537 34.2703 29.1672C34.4791 27.9866 34.8726 27.0951 35.4307 26.5088C35.0372 27.8099 34.3907 30.3318 34.1177 35.6687C33.7604 45.0615 33.7724 44.5434 33.6519 44.4631Z" fill="url(#paint11_linear)"/>
<path d="M33.636 44.7403C33.6561 44.7403 33.7765 43.4352 33.7966 43.1461C33.8047 42.9935 33.9773 30.5688 34.3347 28.842C34.3347 28.842 34.3025 29.0147 34.2062 28.9786C34.1299 28.9505 34.1299 28.7617 34.1299 28.7617C33.7966 30.3519 32.7246 37.1466 33.1943 42.8489C33.2385 43.4191 33.5115 44.7323 33.636 44.7403Z" fill="#975500"/>
<path d="M27.2196 41.0898C27.8621 40.9372 28.2756 24.7539 28.898 21.4489C28.898 21.4489 28.7816 21.7099 28.629 21.6818C28.4885 21.6457 28.4363 21.3525 28.4363 21.3525C27.8018 24.6896 26.794 40.9372 27.2196 41.0898Z" fill="#975500"/>
<path d="M20.8517 38.8532C21.0445 38.817 21.0685 38.0259 21.0726 37.8693C21.0886 35.0021 21.4098 32.0786 21.6467 28.5729C21.8395 25.7137 21.972 22.9027 21.9961 21.0193C21.9961 21.0193 21.988 21.2402 21.8997 21.2482C21.7471 21.2442 21.7672 20.9551 21.7672 20.9551C21.7431 22.8224 21.2854 25.6816 21.0926 28.5287C20.8557 32.0465 20.6269 34.9097 20.6068 37.797C20.6028 37.9496 20.7072 38.8411 20.8517 38.8532Z" fill="#975500"/>
<path d="M11.4278 61.9233C7.05125 56.6345 7.90649 50.3419 8.46861 44.8363C8.9424 40.1741 7.68967 36.311 8.1474 34.0099C9.25157 31.6206 14.3549 31.994 14.9652 38.5999C15.0013 39.399 14.9772 40.2504 14.8608 41.1579C14.5797 43.3746 14.5797 47.9365 14.5797 47.9365" fill="url(#paint12_linear)"/>
<path d="M10.2836 54.2212C8.74577 49.816 12.4197 43.2422 10.0547 39.7686C8.18766 37.0299 8.42054 34.7972 9.14729 33.1186C8.69357 33.3073 8.3322 33.6045 8.14349 34.0101C7.68576 36.3111 8.94251 40.1742 8.46471 44.8365C7.90258 50.342 7.04734 56.6387 11.4239 61.9234C15.407 67.184 27.1755 69.5131 34.0696 64.3409C41.6984 58.6185 39.0524 48.2539 39.5784 44.7401C39.6266 44.4188 39.731 34.3956 39.8515 32.5524C39.9077 31.7211 40.2209 29.0948 39.6788 27.3721C38.1691 27.866 38.5023 30.1028 38.4863 30.7774C38.406 34.2028 38.9842 41.6962 38.3739 46.4548C38.2574 47.3624 38.3859 50.6553 38.2012 51.6994C38.2012 51.7034 38.1972 51.7074 38.1972 51.7114C34.0937 67.4169 15.941 65.9231 10.2836 54.2212Z" fill="url(#paint13_radial)"/>
<path d="M14.5398 36.4077L14.5438 36.4198C15.0136 37.8654 15.1019 41.6001 14.7004 44.9331C14.2989 48.2662 19.0047 46.19 22.1486 51.6835C22.1486 51.6835 20.7593 46.4872 18.4948 44.7082C16.2302 42.9333 18.1535 39.793 14.5398 36.4077Z" fill="url(#paint14_linear)"/>
<path d="M10.6931 32.6772C11.7451 32.6973 12.7368 33.2756 13.4475 34.0546C14.1542 34.8578 14.6119 35.8416 14.881 36.8777C15.3026 38.9619 15.2423 41.0581 15.146 43.1422C15.1058 43.6643 15.0576 44.1823 14.9934 44.7003C14.9332 45.2184 14.893 45.6802 15.1179 46.0577C15.5676 46.8126 16.7159 47.0375 17.6354 47.4832C18.599 47.8969 19.5305 48.439 20.3015 49.1658C21.0603 49.9007 21.6666 50.7681 22.1485 51.6837C21.0202 49.9369 19.4221 48.5434 17.4748 47.8808C16.997 47.7001 16.5071 47.5395 16.0132 47.3306C15.5354 47.1178 14.9934 46.8488 14.6762 46.3106C14.351 45.7766 14.4152 45.1381 14.4634 44.6401C14.5196 44.1301 14.5557 43.6161 14.5878 43.1021C14.7284 41.0581 14.7766 38.9659 14.4594 36.966C14.2586 35.9902 13.8651 35.0184 13.2387 34.2273C12.6284 33.4322 11.729 32.8258 10.6931 32.6772Z" fill="#975500"/>
<path opacity="0.24" d="M34.6318 46.6195C33.9251 48.2057 26.2842 51.8962 23.056 49.8521C19.8278 47.8081 17.7037 40.7124 18.7276 39.2948C19.7515 37.8772 23.4495 39.8329 27.0993 41.1139C33.3991 43.3266 35.3424 45.0373 34.6318 46.6195Z" fill="url(#paint15_radial)"/>
<path opacity="0.24" d="M34.6317 46.6195C38.0326 46.8363 39.8194 49.9686 34.6639 57.2049C29.5806 64.3369 23.4013 61.9033 22.4256 59.6947C21.4499 57.486 23.8791 54.4863 27.1836 53.8598C30.4881 53.2334 30.8856 46.3785 34.6317 46.6195Z" fill="url(#paint16_radial)"/>
<path d="M40.4698 45.1177C40.257 43.0215 40.2611 34.3917 40.1406 32.5525C40.1085 32.0706 39.9961 30.9863 40.0041 29.8298L39.9961 29.8218L39.992 29.8258C40.0001 30.9863 39.8877 32.0706 39.8555 32.5525C39.7351 34.3917 39.7391 43.0215 39.5263 45.1177C39.3456 46.8686 39.7953 50.1173 39.4661 53.6431C39.5303 52.8118 39.9599 52.7596 39.9599 52.7596C39.9599 52.7596 40.4578 52.7235 40.5261 53.6632C40.2008 50.1293 40.6505 46.8726 40.4698 45.1177Z" fill="#975500"/>
<path d="M66.0386 47.8966C65.5367 48.0372 65.2837 38.2348 65.3961 35.3394L59.1927 35.0142C59.3452 36.1546 59.534 38.5119 59.1244 38.5681C58.7149 38.6243 59.1244 37.6806 58.9919 36.7128C58.8594 35.745 53.1096 40.6041 52.7603 40.8048C52.4953 40.9574 51.5477 40.1182 49.4839 41.1823C48.7933 41.5357 46.5207 44.431 46.344 44.4592C46.344 44.4592 46.7697 40.4635 46.5368 38.6283C46.3039 36.7971 40.265 43.1139 40.4698 45.1137C40.8392 48.7239 38.5104 58.727 45.9225 64.333C52.7965 69.5334 64.5891 67.1801 68.5681 61.9155" fill="url(#paint17_linear)"/>
<path d="M46.5369 38.6325C46.304 36.8014 46.2036 31.854 45.7258 29.1675C45.248 26.481 43.8346 25.2722 41.6343 25.8425C39.434 26.4127 40.0604 31.352 40.1407 32.5527C40.2611 34.3919 40.2571 43.0217 40.4699 45.1179" fill="url(#paint18_linear)"/>
<path d="M52.7603 40.8086C52.3066 40.8809 52.7482 39.0176 52.4431 35.8411C52.2102 33.4156 51.7404 26.7897 51.363 23.304C50.8972 18.9831 49.9858 17.8747 47.8899 17.8225C45.7939 17.7703 45.027 20.3886 45.2599 23.2398C45.4566 25.6492 45.9304 29.436 46.601 34.1666C47.0025 37.0017 47.0507 44.3585 46.344 44.4589" fill="url(#paint19_linear)"/>
<path d="M65.3961 35.3432C65.5125 32.4519 64.4605 22.26 64.4565 19.5413C64.4525 16.8267 62.742 15.6501 60.9834 15.6702C59.2247 15.6903 58.0282 17.0074 58.257 22.3805C58.4016 25.7697 58.51 28.9944 59.1926 35.018L63.533 38.6602L65.3961 35.3432Z" fill="url(#paint20_linear)"/>
<path d="M58.9958 36.7169C58.8633 35.7492 58.3574 26.272 58.1928 24.1959C57.8475 19.8549 58.1446 13.3213 54.2177 13.1968C51.6922 13.1165 51.3067 15.4818 51.2585 16.5138C51.2104 17.5459 52.1941 29.1272 52.3386 30.1713C52.4832 31.2154 53.1136 40.6082 52.7642 40.809" fill="url(#paint21_linear)"/>
<path d="M58.9558 16.8671C58.3937 17.8992 58.1448 19.6982 58.2612 22.3807C58.4057 25.77 58.5543 28.9946 59.1967 35.0182C59.3172 36.1627 59.538 38.5159 59.1285 38.5721C61.2886 36.9096 59.2529 27.9987 58.9317 23.8906C58.5904 19.5255 59.3774 16.0961 58.9558 16.8671Z" fill="url(#paint22_linear)"/>
<path d="M52.3386 30.1713C52.4832 31.2154 53.1136 40.6082 52.7642 40.809C52.7642 40.809 54.1374 39.0662 53.7158 36.0423C52.8566 29.842 52.2543 23.2081 52.3989 19.6501C52.5354 16.301 51.8086 14.3694 51.5918 14.8794C51.379 15.3894 51.2786 16.1163 51.2585 16.5138C51.2104 17.5459 52.1941 29.1272 52.3386 30.1713Z" fill="url(#paint23_linear)"/>
<path d="M45.2599 23.244C45.4566 25.6534 45.9304 29.4403 46.6009 34.1708C47.0024 37.0059 47.0506 44.3627 46.344 44.4631C50.058 44.2703 44.7861 21.963 46.5608 18.2524C45.4727 19.0998 45.0832 21.1076 45.2599 23.244Z" fill="url(#paint24_linear)"/>
<path d="M45.5891 44.4912C45.8701 44.5675 46.2275 44.5434 46.3439 44.4631C46.3439 44.4631 46.7495 40.3149 46.5367 38.6323C46.3038 36.8011 46.2034 31.8537 45.7256 29.1672C45.5168 27.9866 45.1233 27.0951 44.5652 26.5088C44.9587 27.8099 44.3845 27.6533 45.0149 30.8257C45.3522 32.5244 43.7702 43.9812 45.5891 44.4912Z" fill="url(#paint25_linear)"/>
<path d="M51.3388 31.0986C51.7524 34.014 50.8248 40.648 52.7602 40.8086C52.3064 40.6601 52.6799 38.3109 52.443 35.8412C52.2101 33.4157 51.8046 26.7817 51.3629 23.3041C50.9092 19.718 50.4314 18.6298 49.0381 18.0073C51.6279 21.758 50.3229 23.9386 51.3388 31.0986Z" fill="url(#paint26_linear)"/>
<path d="M57.2734 25.9389C57.695 30.3241 57.9801 38.4559 59.1244 38.5764C58.7631 38.4439 59.1124 37.5885 58.9919 36.7211C58.8594 35.7533 58.3535 26.2762 58.1889 24.2001C57.9721 21.5055 58.0323 17.2087 56.7515 14.8555C57.5465 17.8873 56.9321 22.385 57.2734 25.9389Z" fill="url(#paint27_linear)"/>
<path d="M46.3439 44.4631C46.3439 44.4631 46.7495 40.3149 46.5367 38.6323C46.3038 36.8011 46.2034 31.8537 45.7256 29.1672C45.5168 27.9866 45.1233 27.0951 44.5652 26.5088C44.9587 27.8099 45.6051 30.3318 45.8782 35.6687C46.2355 45.0615 46.2235 44.5434 46.3439 44.4631Z" fill="url(#paint28_linear)"/>
<path d="M46.36 44.7403C46.3399 44.7403 46.2195 43.4352 46.1994 43.1461C46.1914 42.9935 46.0187 30.5688 45.6614 28.842C45.6614 28.842 45.6935 29.0147 45.7899 28.9786C45.8662 28.9505 45.8662 28.7617 45.8662 28.7617C46.1994 30.3519 47.2715 37.1466 46.8017 42.8489C46.7575 43.4191 46.4845 44.7323 46.36 44.7403Z" fill="#975500"/>
<path d="M52.7804 41.0898C52.7764 41.0898 52.7764 41.0898 52.7804 41.0898C52.138 40.9372 51.7244 24.7539 51.1021 21.4489C51.1021 21.4489 51.2185 21.7099 51.3711 21.6818C51.5116 21.6457 51.5638 21.3525 51.5638 21.3525C52.1942 24.6896 53.202 40.9372 52.7804 41.0898Z" fill="#975500"/>
<path d="M59.1443 38.8532C58.9516 38.817 58.9275 38.0259 58.9235 37.8693C58.9074 35.0021 58.5862 32.0786 58.3493 28.5729C58.1566 25.7137 58.0241 22.9027 58 21.0193C58 21.0193 58.008 21.2402 58.0964 21.2482C58.2489 21.2442 58.2289 20.9551 58.2289 20.9551C58.253 22.8224 58.7107 25.6816 58.9034 28.5287C59.1403 32.0465 59.3692 34.9097 59.3892 37.797C59.3933 37.9496 59.2929 38.8411 59.1443 38.8532Z" fill="#975500"/>
<path d="M68.568 61.9233C72.9445 56.6345 72.0893 50.3419 71.5272 44.8363C71.0534 40.1741 72.3061 36.311 71.8484 34.0099C70.7442 31.6206 65.6409 31.994 65.0306 38.5999C64.9945 39.399 65.0186 40.2504 65.135 41.1579C65.4161 43.3746 65.4161 47.9365 65.4161 47.9365" fill="url(#paint29_linear)"/>
<path d="M69.7164 54.2212C71.2542 49.82 67.5803 43.2422 69.9452 39.7686C71.8123 37.0259 71.5794 34.7972 70.8527 33.1186C71.3064 33.3073 71.6677 33.6045 71.8565 34.0101C72.3142 36.3111 71.0574 40.1742 71.5352 44.8365C72.0974 50.342 72.9526 56.6387 68.576 61.9234C64.593 67.184 52.8244 69.5131 45.9304 64.3409C38.3015 58.6185 40.9475 48.2539 40.4215 44.7401C40.3733 44.4188 40.2689 34.3956 40.1485 32.5524C40.0923 31.7211 39.7791 29.0948 40.3211 27.3721C41.8309 27.866 41.4976 30.1028 41.5137 30.7774C41.594 34.2028 41.0158 41.6962 41.6261 46.4548C41.7425 47.3624 41.614 50.6553 41.7987 51.6994C41.7987 51.7034 41.8027 51.7074 41.8027 51.7114C45.9023 67.4169 64.0549 65.9231 69.7164 54.2212Z" fill="url(#paint30_radial)"/>
<path d="M65.4563 36.4077L65.4523 36.4198C64.9825 37.8654 64.8942 41.6001 65.2957 44.9331C65.6972 48.2662 60.9954 46.19 57.8516 51.6835C57.8516 51.6835 59.2408 46.4872 61.5054 44.7082C63.7699 42.9333 61.8426 39.793 65.4563 36.4077Z" fill="url(#paint31_linear)"/>
<path d="M69.303 32.6772C68.251 32.6973 67.2593 33.2756 66.5486 34.0546C65.8419 34.8578 65.3842 35.8416 65.1152 36.8777C64.6936 38.9619 64.7538 41.0581 64.8502 43.1422C64.8903 43.6643 64.9385 44.1823 65.0027 44.7003C65.063 45.2184 65.1031 45.6802 64.8783 46.0577C64.4286 46.8126 63.2802 47.0375 62.3607 47.4832C61.3971 47.8969 60.4656 48.439 59.6946 49.1658C58.9358 49.9007 58.3295 50.7681 57.8477 51.6837C58.9759 49.9369 60.574 48.5434 62.5213 47.8808C62.9991 47.7001 63.489 47.5395 63.9829 47.3306C64.4607 47.1178 65.0027 46.8488 65.3199 46.3106C65.6452 45.7766 65.5809 45.1381 65.5327 44.6401C65.4765 44.1301 65.4404 43.6161 65.4083 43.1021C65.2677 41.0581 65.2195 38.9659 65.5367 36.966C65.7375 35.9902 66.131 35.0184 66.7574 34.2273C67.3677 33.4322 68.2671 32.8258 69.303 32.6772Z" fill="#975500"/>
<path opacity="0.24" d="M45.3643 46.6195C46.0709 48.2057 53.7119 51.8962 56.9401 49.8521C60.1723 47.8081 62.2923 40.7124 61.2684 39.2948C60.2446 37.8772 56.5466 39.8329 52.8968 41.1139C46.5969 43.3266 44.6576 45.0373 45.3643 46.6195Z" fill="url(#paint32_radial)"/>
<path opacity="0.24" d="M45.3642 46.6195C41.9633 46.8363 40.1766 49.9686 45.3321 57.2049C50.4153 64.3369 56.5947 61.9033 57.5704 59.6947C58.5461 57.486 56.1169 54.4863 52.8124 53.8598C49.5079 53.2334 49.1144 46.3785 45.3642 46.6195Z" fill="url(#paint33_radial)"/>
<defs>
<linearGradient id="paint0_linear" x1="30.5546" y1="71.6908" x2="24.9031" y2="51.4085" gradientUnits="userSpaceOnUse">
<stop offset="0.00132565" stop-color="#D2A374"/>
<stop offset="1" stop-color="#DEBA94"/>
</linearGradient>
<linearGradient id="paint1_linear" x1="39.4582" y1="28.4894" x2="36.2066" y2="39.4526" gradientUnits="userSpaceOnUse">
<stop offset="0.00132565" stop-color="#D2A374"/>
<stop offset="1" stop-color="#DEBA94"/>
</linearGradient>
<linearGradient id="paint2_linear" x1="33.2813" y1="15.5093" x2="30.6182" y2="38.5942" gradientUnits="userSpaceOnUse">
<stop offset="0.00132565" stop-color="#D2A374"/>
<stop offset="1" stop-color="#DEBA94"/>
</linearGradient>
<linearGradient id="paint3_linear" x1="17.5513" y1="19.8231" x2="18.9721" y2="37.3124" gradientUnits="userSpaceOnUse">
<stop offset="0.00132565" stop-color="#D2A374"/>
<stop offset="1" stop-color="#DEBA94"/>
</linearGradient>
<linearGradient id="paint4_linear" x1="24.7894" y1="17.1555" x2="25.0044" y2="37.5478" gradientUnits="userSpaceOnUse">
<stop offset="0.00132565" stop-color="#D2A374"/>
<stop offset="1" stop-color="#DEBA94"/>
</linearGradient>
<linearGradient id="paint5_linear" x1="20.8274" y1="-0.388242" x2="20.8274" y2="61.2542" gradientUnits="userSpaceOnUse">
<stop stop-color="#D2A374" stop-opacity="0"/>
<stop offset="1" stop-color="#B88653"/>
</linearGradient>
<linearGradient id="paint6_linear" x1="27.4721" y1="-0.388125" x2="27.4721" y2="61.2543" gradientUnits="userSpaceOnUse">
<stop stop-color="#D2A374" stop-opacity="0"/>
<stop offset="1" stop-color="#B88653"/>
</linearGradient>
<linearGradient id="paint7_linear" x1="33.5365" y1="-0.388337" x2="33.5365" y2="61.2541" gradientUnits="userSpaceOnUse">
<stop stop-color="#D2A374" stop-opacity="0"/>
<stop offset="1" stop-color="#B88653"/>
</linearGradient>
<linearGradient id="paint8_linear" x1="46.1288" y1="-143.578" x2="42.8544" y2="-92.6308" gradientUnits="userSpaceOnUse">
<stop stop-color="#D2A374" stop-opacity="0"/>
<stop offset="1" stop-color="#B88653"/>
</linearGradient>
<linearGradient id="paint9_linear" x1="40.1952" y1="-143.96" x2="36.9208" y2="-93.0124" gradientUnits="userSpaceOnUse">
<stop stop-color="#D2A374" stop-opacity="0"/>
<stop offset="1" stop-color="#B88653"/>
</linearGradient>
<linearGradient id="paint10_linear" x1="434.104" y1="568.806" x2="407.995" y2="534.465" gradientUnits="userSpaceOnUse">
<stop stop-color="#D2A374" stop-opacity="0"/>
<stop offset="1" stop-color="#B88653"/>
</linearGradient>
<linearGradient id="paint11_linear" x1="35.8497" y1="34.9161" x2="31.7027" y2="36.7518" gradientUnits="userSpaceOnUse">
<stop stop-color="#FFBC47" stop-opacity="0"/>
<stop offset="1" stop-color="#E68E43"/>
</linearGradient>
<linearGradient id="paint12_linear" x1="2.32297" y1="22.3452" x2="13.7526" y2="52.2011" gradientUnits="userSpaceOnUse">
<stop offset="0.00132565" stop-color="#D2A374"/>
<stop offset="1" stop-color="#DEBA94"/>
</linearGradient>
<radialGradient id="paint13_radial" cx="0" cy="0" r="1" gradientUnits="userSpaceOnUse" gradientTransform="translate(24.9593 54.0115) rotate(-176.416) scale(48.7481 57.1165)">
<stop offset="0.6134" stop-color="#F0C492" stop-opacity="0"/>
<stop offset="1" stop-color="#E6AF74"/>
</radialGradient>
<linearGradient id="paint14_linear" x1="22.1215" y1="33.9184" x2="15.2637" y2="52.2986" gradientUnits="userSpaceOnUse">
<stop offset="0.3118" stop-color="#D2A374" stop-opacity="0"/>
<stop offset="1" stop-color="#B88653"/>
</linearGradient>
<radialGradient id="paint15_radial" cx="0" cy="0" r="1" gradientUnits="userSpaceOnUse" gradientTransform="translate(25.0937 44.7247) rotate(21.4379) scale(15.9903 4.43338)">
<stop stop-color="#F8DBBA"/>
<stop offset="1" stop-color="#CD9870" stop-opacity="0"/>
</radialGradient>
<radialGradient id="paint16_radial" cx="0" cy="0" r="1" gradientUnits="userSpaceOnUse" gradientTransform="translate(33.6188 52.8258) rotate(125.189) scale(9.09122 5.40476)">
<stop stop-color="#F8DBBA"/>
<stop offset="1" stop-color="#CD9870" stop-opacity="0"/>
</radialGradient>
<linearGradient id="paint17_linear" x1="49.417" y1="71.6923" x2="55.0686" y2="51.41" gradientUnits="userSpaceOnUse">
<stop offset="0.00132565" stop-color="#D2A374"/>
<stop offset="1" stop-color="#DEBA94"/>
</linearGradient>
<linearGradient id="paint18_linear" x1="40.5595" y1="28.4717" x2="43.8112" y2="39.4349" gradientUnits="userSpaceOnUse">
<stop offset="0.00132565" stop-color="#D2A374"/>
<stop offset="1" stop-color="#DEBA94"/>
</linearGradient>
<linearGradient id="paint19_linear" x1="46.7362" y1="15.4913" x2="49.3993" y2="38.5762" gradientUnits="userSpaceOnUse">
<stop offset="0.00132565" stop-color="#D2A374"/>
<stop offset="1" stop-color="#DEBA94"/>
</linearGradient>
<linearGradient id="paint20_linear" x1="62.4665" y1="19.8051" x2="61.0456" y2="37.2944" gradientUnits="userSpaceOnUse">
<stop offset="0.00132565" stop-color="#D2A374"/>
<stop offset="1" stop-color="#DEBA94"/>
</linearGradient>
<linearGradient id="paint21_linear" x1="55.2283" y1="17.1375" x2="55.0132" y2="37.5299" gradientUnits="userSpaceOnUse">
<stop offset="0.00132565" stop-color="#D2A374"/>
<stop offset="1" stop-color="#DEBA94"/>
</linearGradient>
<linearGradient id="paint22_linear" x1="59.1696" y1="-0.388242" x2="59.1696" y2="61.2542" gradientUnits="userSpaceOnUse">
<stop stop-color="#D2A374" stop-opacity="0"/>
<stop offset="1" stop-color="#B88653"/>
</linearGradient>
<linearGradient id="paint23_linear" x1="52.5246" y1="-0.388125" x2="52.5246" y2="61.2543" gradientUnits="userSpaceOnUse">
<stop stop-color="#D2A374" stop-opacity="0"/>
<stop offset="1" stop-color="#B88653"/>
</linearGradient>
<linearGradient id="paint24_linear" x1="46.4604" y1="-0.388337" x2="46.4604" y2="61.2541" gradientUnits="userSpaceOnUse">
<stop stop-color="#D2A374" stop-opacity="0"/>
<stop offset="1" stop-color="#B88653"/>
</linearGradient>
<linearGradient id="paint25_linear" x1="33.8428" y1="-143.576" x2="37.1171" y2="-92.6293" gradientUnits="userSpaceOnUse">
<stop stop-color="#D2A374" stop-opacity="0"/>
<stop offset="1" stop-color="#B88653"/>
</linearGradient>
<linearGradient id="paint26_linear" x1="39.7761" y1="-143.958" x2="43.0505" y2="-93.0109" gradientUnits="userSpaceOnUse">
<stop stop-color="#D2A374" stop-opacity="0"/>
<stop offset="1" stop-color="#B88653"/>
</linearGradient>
<linearGradient id="paint27_linear" x1="-354.086" y1="568.788" x2="-327.977" y2="534.447" gradientUnits="userSpaceOnUse">
<stop stop-color="#D2A374" stop-opacity="0"/>
<stop offset="1" stop-color="#B88653"/>
</linearGradient>
<linearGradient id="paint28_linear" x1="44.1217" y1="34.9176" x2="48.2687" y2="36.7533" gradientUnits="userSpaceOnUse">
<stop stop-color="#FFBC47" stop-opacity="0"/>
<stop offset="1" stop-color="#E68E43"/>
</linearGradient>
<linearGradient id="paint29_linear" x1="77.6737" y1="22.3452" x2="66.2441" y2="52.2011" gradientUnits="userSpaceOnUse">
<stop offset="0.00132565" stop-color="#D2A374"/>
<stop offset="1" stop-color="#DEBA94"/>
</linearGradient>
<radialGradient id="paint30_radial" cx="0" cy="0" r="1" gradientUnits="userSpaceOnUse" gradientTransform="translate(55.0164 54.0059) rotate(-3.58392) scale(48.7481 57.1165)">
<stop offset="0.6134" stop-color="#F0C492" stop-opacity="0"/>
<stop offset="1" stop-color="#E6AF74"/>
</radialGradient>
<linearGradient id="paint31_linear" x1="57.8755" y1="33.9184" x2="64.7333" y2="52.2986" gradientUnits="userSpaceOnUse">
<stop offset="0.3118" stop-color="#D2A374" stop-opacity="0"/>
<stop offset="1" stop-color="#B88653"/>
</linearGradient>
<radialGradient id="paint32_radial" cx="0" cy="0" r="1" gradientUnits="userSpaceOnUse" gradientTransform="translate(54.9015 44.7396) rotate(158.562) scale(15.9903 4.43338)">
<stop stop-color="#F8DBBA"/>
<stop offset="1" stop-color="#CD9870" stop-opacity="0"/>
</radialGradient>
<radialGradient id="paint33_radial" cx="0" cy="0" r="1" gradientUnits="userSpaceOnUse" gradientTransform="translate(46.3711 52.8183) rotate(54.8109) scale(9.09122 5.40476)">
<stop stop-color="#F8DBBA"/>
<stop offset="1" stop-color="#CD9870" stop-opacity="0"/>
</radialGradient>
</defs>
</svg>
