<svg width="80" height="80" viewBox="0 0 80 80" fill="none" xmlns="http://www.w3.org/2000/svg">
<g clip-path="url(#clip0)">
<path d="M29.048 52.1873C29.048 46.923 31.2809 41.5634 36.2785 34.066C41.2761 26.5686 41.4567 25.4947 41.2761 21.3896C41.0955 17.2846 40.5636 14.0679 43.6846 14.0679C46.8106 14.0679 52.0742 18.2632 52.0742 23.3518C52.0742 28.4404 49.2643 32.41 49.2643 36.5601C49.2643 37.1272 49.4048 37.6491 49.6105 38.1108C50.1424 39.3002 51.6577 39.6866 52.7215 38.9338C54.1565 37.9151 56.289 36.6304 57.7743 36.7408C57.7743 36.7408 56.7206 30.5833 58.3262 28.9774C58.3262 28.9774 54.3121 26.6539 52.9723 22.7296C52.3903 21.0333 49.8865 17.7112 49.8865 17.7112C49.8865 17.7112 43.1578 12.999 46.8608 9.20508C49.5001 6.50019 52.6612 8.84879 55.6066 11.3479C58.552 13.8471 63.4593 16.572 67.9702 23.8436C68.4619 24.6416 69.6662 30.6736 69.6662 35.2704C69.6662 42.3664 70.2031 48.5239 64.3123 54.9524C58.4216 61.3809 48.4263 71.9998 38.963 71.9998C29.4996 71.9998 19.0578 70.6599 12.9011 71.7338C12.9011 71.7338 9.14786 56.7691 12.1886 52.0066C14.2308 48.7949 24.226 52.1873 29.048 52.1873Z" fill="url(#paint0_linear)"/>
<path d="M36.2735 34.0663C31.2759 41.5638 29.043 46.9184 29.043 52.1876C29.043 52.1876 28.4158 52.8149 26.7249 56.4733C26.7249 56.4733 30.7591 58.0591 33.4385 54.6667C34.3166 53.5526 33.3131 47.4905 34.1811 42.8384C34.7431 39.8224 38.3508 36.0135 41.7979 30.5284C41.1055 29.876 40.3679 29.2638 39.6604 28.6816C38.9028 30.0466 37.8189 31.7478 36.2735 34.0663Z" fill="url(#paint1_linear)"/>
<path d="M42.2346 14.4341C40.7594 15.3775 41.1307 18.0975 41.2712 21.3895C41.3967 24.2249 41.3465 25.615 39.6555 28.6762C40.363 29.2633 41.1006 29.8705 41.7931 30.5229C43.75 27.4115 45.2854 24.4959 45.2854 22.4584C45.2904 18.8302 43.1378 16.3561 42.2346 14.4341Z" fill="url(#paint2_linear)"/>
<path d="M12.8911 71.7342C19.0478 70.6652 29.4897 72.0001 38.953 72.0001C48.4164 72.0001 58.4116 61.3763 64.3024 54.9528C70.1931 48.5242 69.6562 42.3667 69.6562 35.2707C69.6562 30.6739 68.457 24.6418 67.9603 23.8439C63.4544 16.5673 58.5421 13.8473 55.5967 11.3482C54.0914 10.0685 52.5309 8.83899 51.0105 8.29199C54.5379 11.6694 62.0946 16.8082 66.2643 24.0346C67.604 26.3531 67.9603 37.6344 67.9603 42.5423C67.9603 47.4503 59.661 55.6654 45.2903 64.859C39.0433 68.8586 31.01 68.3217 29.0481 65.6469C27.0862 62.9671 26.9055 62.8065 26.9055 64.5027C26.9055 66.1989 25.7465 68.0708 19.4091 68.0708C16.5942 68.0708 13.9047 67.2076 11.7822 66.2491C12.3041 69.3806 12.8911 71.7342 12.8911 71.7342Z" fill="url(#paint3_linear)"/>
<path d="M60.0776 34.6281C58.5923 31.1152 61.8037 31.1755 60.198 27.9035C58.5923 24.6315 56.5702 23.3819 54.7839 19.4525C53.0076 15.5432 45.461 13.6161 46.1885 10.1133C45.1298 12.0203 46.2136 14.0326 47.4881 15.5131C46.6301 14.9209 45.742 14.4843 44.9241 14.2535C45.8273 15.4027 47.1519 17.1992 48.597 19.5127C48.868 19.9443 49.0737 20.4963 49.2293 21.0985C49.8615 23.5324 49.6106 26.1269 48.6221 28.4404C47.4078 31.2909 46.8107 33.7499 46.8107 35.1651C46.8107 36.9516 46.891 39.9275 49.8565 41.5936C52.8219 43.2597 55.6168 41.2373 57.935 41.0567C60.2532 40.876 61.5628 38.141 60.0776 34.6281ZM49.8765 17.7111C49.8765 17.7111 49.9318 17.7864 50.0171 17.8968C49.9619 17.8265 49.9066 17.7563 49.8515 17.691C49.8565 17.6961 49.8765 17.7111 49.8765 17.7111ZM57.7644 36.7408C56.2792 36.6304 54.1466 37.9202 52.7115 38.9339C51.6528 39.6866 50.1324 39.3002 49.6006 38.1109C49.3948 37.6542 49.2543 37.1323 49.2543 36.5602C49.2543 32.41 52.0643 28.4354 52.0643 23.3518C52.0643 21.6305 51.4521 20.0196 50.5389 18.6295C51.3217 19.7385 52.5711 21.5853 52.9574 22.7245C54.3022 26.6489 58.3113 28.9724 58.3113 28.9724C56.7157 30.5833 57.7644 36.7408 57.7644 36.7408Z" fill="url(#paint4_linear)"/>
<path d="M57.2474 26.2973C56.1787 24.6914 54.2569 19.111 53.4089 18.2629C52.7014 17.5553 48.1905 15.282 45.8924 12.7778C46.1734 13.7765 46.8006 14.7199 47.478 15.5078C46.7755 15.0261 46.063 14.6497 45.3806 14.4038C49.8865 18.3532 50.017 22.5988 50.017 24.5961C50.017 26.7389 43.7699 40.3085 51.3567 40.3085C53.5895 40.3085 55.6418 37.157 57.9599 37.7492C60.2781 38.3464 57.6037 35.4006 59.0287 31.8275C60.4638 28.2645 58.3212 27.9032 57.2474 26.2973ZM49.8764 17.7109C49.8764 17.7109 49.9317 17.7862 50.017 17.8966C49.9618 17.8263 49.9065 17.756 49.8514 17.6908C49.8564 17.6958 49.8764 17.7109 49.8764 17.7109ZM57.7643 36.7405C56.279 36.6301 54.1465 37.9198 52.7114 38.9335C51.6527 39.6863 50.1323 39.2999 49.6005 38.1105C49.3947 37.6538 49.2543 37.1319 49.2543 36.5598C49.2543 32.4097 52.0642 28.4351 52.0642 23.3515C52.0642 21.6302 51.452 20.0193 50.5388 18.6292C51.3215 19.7383 52.571 21.585 52.9573 22.7242C54.3021 26.6486 58.3112 28.9721 58.3112 28.9721C56.7156 30.583 57.7643 36.7405 57.7643 36.7405Z" fill="url(#paint5_linear)"/>
<path opacity="0.4" d="M40.9801 36.1237C44.5878 36.2592 46.0028 42.3364 45.9978 48.9606C45.9928 54.3753 42.6359 60.3221 39.1135 60.1013C35.591 59.8805 32.5001 59.0374 33.3732 47.8064C33.885 41.1822 37.4526 35.9882 40.9801 36.1237Z" fill="url(#paint6_radial)"/>
<path opacity="0.4" d="M61.5928 42.0706C63.3941 43.6966 60.0173 48.7853 55.5164 53.6732C51.8384 57.6679 46.038 60.6438 44.342 58.9927C42.641 57.3417 41.5923 55.4096 49.6708 47.4805C54.4326 42.8033 59.8316 40.4798 61.5928 42.0706Z" fill="url(#paint7_radial)"/>
<path opacity="0.4" d="M25.4955 61.3917C25.3751 65.03 22.2742 66.7664 18.9124 67.1026C16.1677 67.3786 13.1972 64.3074 13.3578 60.7544C13.5184 57.2014 13.99 54.0499 19.675 54.341C23.0268 54.5116 25.6109 57.8337 25.4955 61.3917Z" fill="url(#paint8_radial)"/>
<path d="M43.6846 14.0675C44.8236 14.0374 45.9426 14.4389 46.9361 14.9959C47.9346 15.558 48.8277 16.3007 49.6055 17.1338C50.3631 17.9919 51.0204 18.9504 51.457 20.0093C51.9036 21.0632 52.1294 22.2124 52.0692 23.3466C51.9036 21.0783 50.8448 19.0006 49.3395 17.3697C48.6019 16.5366 47.7339 15.8189 46.7905 15.2268C45.8522 14.6547 44.8136 14.1729 43.6846 14.0675Z" fill="#804B24"/>
<path d="M29.0479 52.1877C24.2259 52.1877 14.2307 48.7953 12.1785 52.007C11.9276 52.3985 11.7269 52.8652 11.5613 53.3871C15.9718 49.3524 18.9875 56.4733 26.7247 56.4733C28.4207 52.81 29.0479 52.1877 29.0479 52.1877Z" fill="url(#paint9_linear)"/>
</g>
<defs>
<linearGradient id="paint0_linear" x1="-7.33768" y1="74.8803" x2="81.4433" y2="17.0494" gradientUnits="userSpaceOnUse">
<stop offset="0.00132565" stop-color="#D2A374"/>
<stop offset="1" stop-color="#DEBA94"/>
</linearGradient>
<linearGradient id="paint1_linear" x1="41.5088" y1="44.4029" x2="4.30823" y2="36.3282" gradientUnits="userSpaceOnUse">
<stop stop-color="#D2A374" stop-opacity="0"/>
<stop offset="1" stop-color="#B88653"/>
</linearGradient>
<linearGradient id="paint2_linear" x1="48.4526" y1="23.8103" x2="15.2511" y2="16.9388" gradientUnits="userSpaceOnUse">
<stop stop-color="#FFBC47" stop-opacity="0"/>
<stop offset="1" stop-color="#C86F34"/>
</linearGradient>
<linearGradient id="paint3_linear" x1="31.6942" y1="32.908" x2="55.0229" y2="72.6566" gradientUnits="userSpaceOnUse">
<stop offset="0.6428" stop-color="#D2A374" stop-opacity="0"/>
<stop offset="1" stop-color="#B88653"/>
</linearGradient>
<linearGradient id="paint4_linear" x1="3.76311" y1="23.9393" x2="108.722" y2="29.1151" gradientUnits="userSpaceOnUse">
<stop stop-color="#D2A374" stop-opacity="0"/>
<stop offset="1" stop-color="#B88653"/>
</linearGradient>
<linearGradient id="paint5_linear" x1="26.9738" y1="-17.1674" x2="53.1496" y2="32.5599" gradientUnits="userSpaceOnUse">
<stop stop-color="#D2A374" stop-opacity="0"/>
<stop offset="1" stop-color="#B88653"/>
</linearGradient>
<radialGradient id="paint6_radial" cx="0" cy="0" r="1" gradientUnits="userSpaceOnUse" gradientTransform="translate(39.7124 48.0908) rotate(-85.5438) scale(12.3431 6.45458)">
<stop stop-color="#E9CDB1"/>
<stop offset="1" stop-color="#E9CDB1" stop-opacity="0"/>
</radialGradient>
<radialGradient id="paint7_radial" cx="0" cy="0" r="1" gradientUnits="userSpaceOnUse" gradientTransform="translate(52.8087 50.3785) rotate(-44.4468) scale(12.4035 4.33595)">
<stop stop-color="#E9CDB1"/>
<stop offset="1" stop-color="#E9CDB1" stop-opacity="0"/>
</radialGradient>
<radialGradient id="paint8_radial" cx="0" cy="0" r="1" gradientUnits="userSpaceOnUse" gradientTransform="translate(19.4427 60.7598) rotate(3.00148) scale(6.23868 6.50598)">
<stop stop-color="#E9CDB1"/>
<stop offset="1" stop-color="#E9CDB1" stop-opacity="0"/>
</radialGradient>
<linearGradient id="paint9_linear" x1="19.1574" y1="55.9524" x2="23.0405" y2="45.1968" gradientUnits="userSpaceOnUse">
<stop stop-color="#D2A374" stop-opacity="0"/>
<stop offset="1" stop-color="#B88653"/>
</linearGradient>
<clipPath id="clip0">
<rect width="80" height="80" fill="white"/>
</clipPath>
</defs>
</svg>
