<svg width="80" height="80" viewBox="0 0 80 80" fill="none" xmlns="http://www.w3.org/2000/svg">
<path d="M6.02134 21.9888C6.02134 23.9123 10.1029 27.0328 14.55 27.0328C18.9921 27.0328 22.718 26.5519 23.6746 26.5519C24.6361 26.5519 28.2369 30.0331 37.727 29.1967C37.727 29.1967 39.2294 33.2188 40.2511 34.2406C41.2727 35.2624 39.9205 36.2542 37.6369 36.2542C35.3532 36.2542 28.6325 35.7733 24.546 33.8499C20.4644 31.9265 16.1075 29.5573 12.9875 29.5573C9.86749 29.5573 9.6271 32.202 9.6271 32.9183C9.6271 33.6345 11.43 38.0824 23.7998 43.3668C36.1695 48.6512 37.8522 53.4847 43.0155 53.4847C48.1787 53.4847 52.08 53.2143 54.003 54.6568C55.9261 56.0994 60.9842 60.2117 62.111 61.7444C63.1927 63.217 74 59.5756 74 50.6046C74 48.8014 72.2572 48.3506 68.4762 44.5689C64.6951 40.7872 55.9862 30.2485 52.2052 24.5684C48.7847 19.4343 44.6381 17 40.9472 17C35.9041 17 31.3719 19.4643 27.4055 19.4643C23.4442 19.4643 12.5117 19.3442 9.03116 19.3442C5.55059 19.3442 6.02134 20.7867 6.02134 21.9888Z" fill="url(#paint0_linear)"/>
<path d="M34.6371 49.3729C34.627 49.2227 34.587 49.0624 34.4818 48.892C32.3183 45.4109 33.8808 37.8425 39.9956 35.9641L39.7352 35.884C39.2194 36.1144 38.4932 36.2496 37.6368 36.2496C35.3532 36.2496 28.6325 35.7688 24.5459 33.8454C20.4644 31.922 16.1074 29.5527 12.9875 29.5527C9.86246 29.5527 9.62708 32.1974 9.62708 32.9137C9.62708 33.635 11.43 38.0779 23.7997 43.3623C28.9029 45.5511 32.1781 47.6549 34.6371 49.3729Z" fill="url(#paint1_linear)"/>
<path d="M40.2461 34.2414C39.2245 33.2196 37.7221 29.1975 37.7221 29.1975C28.2369 30.039 24.6311 26.5527 23.6696 26.5527C23.5394 26.5527 23.3491 26.5628 23.1237 26.5778C22.8332 29.523 23.8399 32.6636 24.536 33.8507C28.6175 35.7741 35.3433 36.255 37.6269 36.255C39.9156 36.255 41.2677 35.2632 40.2461 34.2414Z" fill="url(#paint2_linear)"/>
<path d="M40.2459 34.2415C39.2243 33.2196 37.7219 29.1975 37.7219 29.1975C28.2368 30.039 24.6311 26.5527 23.6696 26.5527C23.5393 26.5527 23.349 26.5628 23.1237 26.5778C23.0886 26.9184 23.0786 27.259 23.0786 27.5996C23.5994 27.4494 23.94 27.4293 24.0902 27.5746C24.3156 27.8 27.736 31.2662 32.0178 31.4916C36.2996 31.717 36.9707 31.4014 36.7904 33.0694C36.6803 34.0862 36.9407 35.3885 37.161 36.245C37.3363 36.25 37.4915 36.2501 37.6318 36.2501C39.9154 36.2551 41.2675 35.2633 40.2459 34.2415Z" fill="url(#paint3_linear)"/>
<path d="M40.246 34.2412C39.2244 33.2194 37.7219 29.1973 37.7219 29.1973C37.2061 29.2423 36.7153 29.2724 36.2346 29.2924C34.0511 31.7368 33.1296 34.101 33.1847 35.9593C35.0777 36.1747 36.7153 36.2548 37.6268 36.2548C39.9155 36.2548 41.2676 35.263 40.246 34.2412Z" fill="url(#paint4_linear)"/>
<path d="M42.4696 28.7162C41.3879 25.8311 40.1258 25.2952 37.6068 25.2952C35.0878 25.2952 32.2032 25.8361 27.5207 24.4837C22.8382 23.1313 18.6916 24.1231 15.6317 24.1231C13.3631 24.1231 7.58385 25.4755 6.03638 22.1045C6.18662 24.0329 10.188 27.0383 14.55 27.0383C18.9921 27.0383 22.718 26.5574 23.6745 26.5574C24.6361 26.5574 28.2368 30.0386 37.727 29.2021C37.727 29.2021 39.2294 33.2243 40.251 34.2461C41.0072 35.0024 40.4614 35.7337 39.2044 36.0693C39.2094 36.0693 39.2144 36.0693 39.2194 36.0693C44.3376 35.6636 43.5463 31.5964 42.4696 28.7162Z" fill="url(#paint5_linear)"/>
<path d="M57.8692 52.8585C54.0882 49.5275 47.7831 50.5143 43.9069 50.5143C40.0307 50.5143 38.1427 48.0799 35.6186 46.4621C33.0946 44.8392 22.2873 40.3362 18.2358 37.9019C15.2811 36.1287 10.0928 34.1101 10.4183 30.5889C9.71723 31.4153 9.61707 32.4923 9.61707 32.918C9.61707 33.6393 11.4199 38.0822 23.7897 43.3666C36.1595 48.651 37.8422 53.4846 43.0054 53.4846C48.1687 53.4846 52.0749 53.2141 53.993 54.6567C55.9161 56.0992 60.9742 60.2115 62.101 61.7443C62.6068 62.4305 65.2209 61.9897 67.8702 60.4319C64.7001 59.4352 61.0593 55.6684 57.8692 52.8585Z" fill="url(#paint6_linear)"/>
<path d="M37.6018 27.0933C28.5974 27.2736 26.6142 24.9294 24.0902 24.9294C23.0986 24.9294 20.9401 25.3802 17.4245 25.3802C14.9656 25.3802 10.5285 25.5505 7.30835 24.2031C8.85582 25.6757 11.6152 27.0281 14.5399 27.0281C18.982 27.0281 22.708 26.5473 23.6645 26.5473C24.626 26.5473 28.2268 30.0284 37.717 29.1919C37.717 29.1919 39.2194 33.2141 40.241 34.2359C40.9972 34.9922 40.4513 35.7235 39.1943 36.0591C39.1993 36.0591 39.2043 36.0591 39.2093 36.0591C40.8319 35.9339 41.8586 35.438 42.4746 34.7318C40.4864 31.4259 43.2057 26.9831 37.6018 27.0933Z" fill="url(#paint7_linear)"/>
<path d="M40.2461 34.2414C39.2245 33.2196 37.7221 29.1975 37.7221 29.1975C28.2369 30.039 24.6311 26.5527 23.6696 26.5527C23.5394 26.5527 23.3491 26.5628 23.1237 26.5778C22.8332 29.523 23.8399 32.6636 24.536 33.8507C28.6175 35.7741 35.3433 36.255 37.6269 36.255C39.9156 36.255 41.2677 35.2632 40.2461 34.2414Z" fill="url(#paint8_linear)"/>
<path opacity="0.16" d="M48.1787 27.0074C50.9882 27.4382 54.2985 35.8682 52.3854 40.8721C50.8179 44.9644 46.6262 48.5408 44.0922 47.4088C41.5581 46.2768 39.5199 44.7941 43.4061 36.5394C45.6947 31.6707 45.4343 26.5817 48.1787 27.0074Z" fill="url(#paint9_radial)"/>
<path opacity="0.16" d="M29.3736 21.4932C29.1633 20.3912 34.8373 17.7515 38.9539 17.6062C42.3193 17.486 45.7998 18.4127 45.4342 19.5297C45.0736 20.6467 44.3525 21.6435 37.4264 21.6235C33.3449 21.6084 29.5839 22.5651 29.3736 21.4932Z" fill="url(#paint10_radial)"/>
<path d="M62.1009 61.7442C62.4064 62.1599 63.4932 62.1549 64.8854 61.7442C60.3631 59.6004 55.7708 53.2691 52.9513 52.8534C49.6861 52.3725 41.3227 54.2959 36.1595 49.6126C30.9962 44.9293 19.9486 40.0055 14.5449 37.0002C11.5201 35.3172 10.223 33.6743 9.73726 32.0264C9.65212 32.397 9.62207 32.7276 9.62207 32.9179C9.62207 33.6392 11.425 38.0821 23.7947 43.3665C36.1645 48.6509 37.8472 53.4845 43.0104 53.4845C48.1737 53.4845 52.0799 53.214 53.998 54.6566C55.916 56.0991 60.9792 60.2165 62.1009 61.7442Z" fill="url(#paint11_linear)"/>
<path d="M22.2823 26.6418L23.2739 26.5417C23.5944 26.4765 23.965 26.5166 24.2655 26.6719C24.8765 26.9424 25.4725 27.2279 26.0834 27.4783C27.3104 27.9592 28.5624 28.3549 29.8545 28.5903C32.4336 29.0762 35.0828 29.0912 37.697 28.8658C37.8473 28.8508 37.9825 28.9459 38.0326 29.0812C38.3781 29.9778 38.7587 30.8694 39.1694 31.741C39.6051 32.6075 39.9757 33.4641 40.6267 34.1603C40.807 34.3857 40.9773 34.7264 40.9122 35.097C40.8471 35.4627 40.6067 35.7181 40.3813 35.8934C39.9056 36.224 39.3948 36.3743 38.8889 36.4645C37.8623 36.6398 36.8757 36.5396 35.9042 36.4945C33.951 36.3542 32.0129 36.0788 30.0949 35.6881C28.1868 35.2874 26.2938 34.7163 24.546 33.8498C26.3439 34.6011 28.2569 34.9918 30.165 35.3074C32.073 35.623 34.0061 35.7983 35.9392 35.8884C36.9058 35.9235 37.8773 35.9986 38.7738 35.8283C39.6452 35.6931 40.6718 35.122 40.0959 34.5761C39.4048 33.8448 38.949 32.9031 38.5434 32.0265C38.1327 31.1299 37.7671 30.2283 37.4216 29.3016L37.7571 29.517C35.0929 29.7173 32.3785 29.6723 29.7593 29.0411C28.4572 28.7356 27.1702 28.3148 25.9733 27.7238C25.3723 27.4332 24.7964 27.0977 24.2104 26.7921C23.92 26.6218 23.6195 26.5667 23.2789 26.6068L22.2823 26.6418Z" fill="#663C1D"/>
<defs>
<linearGradient id="paint0_linear" x1="39.0172" y1="88.221" x2="40.08" y2="31.3718" gradientUnits="userSpaceOnUse">
<stop offset="0.00132565" stop-color="#99643E"/>
<stop offset="1" stop-color="#AE7246"/>
</linearGradient>
<linearGradient id="paint1_linear" x1="9.62227" y1="39.4653" x2="39.9945" y2="39.4653" gradientUnits="userSpaceOnUse">
<stop offset="0.00132565" stop-color="#99643E"/>
<stop offset="1" stop-color="#AE7246"/>
</linearGradient>
<linearGradient id="paint2_linear" x1="32.6532" y1="24.4331" x2="29.5898" y2="48.9361" gradientUnits="userSpaceOnUse">
<stop offset="0.00132565" stop-color="#99643E"/>
<stop offset="1" stop-color="#AE7246"/>
</linearGradient>
<linearGradient id="paint3_linear" x1="13.4748" y1="50.8254" x2="34.6388" y2="27.8948" gradientUnits="userSpaceOnUse">
<stop stop-color="#8D562E" stop-opacity="0"/>
<stop offset="1" stop-color="#8D562E"/>
</linearGradient>
<linearGradient id="paint4_linear" x1="33.4258" y1="36.4051" x2="43.5201" y2="28.0831" gradientUnits="userSpaceOnUse">
<stop stop-color="#8D562E" stop-opacity="0"/>
<stop offset="1" stop-color="#8D562E"/>
</linearGradient>
<linearGradient id="paint5_linear" x1="23.066" y1="35.6825" x2="29.2065" y2="3.80478" gradientUnits="userSpaceOnUse">
<stop offset="0.00132565" stop-color="#99643E"/>
<stop offset="1" stop-color="#AE7246"/>
</linearGradient>
<linearGradient id="paint6_linear" x1="43.5128" y1="18.1442" x2="33.2391" y2="79.3024" gradientUnits="userSpaceOnUse">
<stop stop-color="#8D562E" stop-opacity="0"/>
<stop offset="1" stop-color="#8D562E"/>
</linearGradient>
<linearGradient id="paint7_linear" x1="24.6857" y1="9.12755" x2="24.9219" y2="32.0324" gradientUnits="userSpaceOnUse">
<stop stop-color="#8D562E" stop-opacity="0"/>
<stop offset="1" stop-color="#8D562E"/>
</linearGradient>
<linearGradient id="paint8_linear" x1="25.3138" y1="47.9316" x2="40.9006" y2="7.20035" gradientUnits="userSpaceOnUse">
<stop stop-color="#473226" stop-opacity="0"/>
<stop offset="1" stop-color="#3D2A20"/>
</linearGradient>
<radialGradient id="paint9_radial" cx="0" cy="0" r="1" gradientUnits="userSpaceOnUse" gradientTransform="translate(47.7608 37.8909) rotate(-64.7857) scale(10.6179 5.39186)">
<stop stop-color="#F8DBBA"/>
<stop offset="1" stop-color="#CD9870" stop-opacity="0"/>
</radialGradient>
<radialGradient id="paint10_radial" cx="0" cy="0" r="1" gradientUnits="userSpaceOnUse" gradientTransform="translate(37.5857 19.7938) rotate(-179.821) scale(8.05931 2.17543)">
<stop stop-color="#F8DBBA"/>
<stop offset="1" stop-color="#CD9870" stop-opacity="0"/>
</radialGradient>
<linearGradient id="paint11_linear" x1="38.5313" y1="24.0248" x2="36.8781" y2="54.1318" gradientUnits="userSpaceOnUse">
<stop stop-color="#8D562E" stop-opacity="0"/>
<stop offset="1" stop-color="#8D562E"/>
</linearGradient>
</defs>
</svg>
