<svg width="80" height="80" viewBox="0 0 80 80" fill="none" xmlns="http://www.w3.org/2000/svg">
<path d="M6.02238 21.9831C6.02238 23.9044 10.1047 27.0277 14.55 27.0277C18.9952 27.0277 22.7179 26.5482 23.6769 26.5482C24.6392 26.5482 28.242 30.0311 37.7286 29.192C37.7286 29.192 39.2287 33.216 40.2526 34.2366C41.2732 35.2572 39.9221 36.2486 37.6412 36.2486C35.3602 36.2486 28.6341 35.7691 24.5485 33.8478C20.4629 31.9265 16.1116 29.5548 12.9883 29.5548C9.86498 29.5548 9.62522 32.1987 9.62522 32.918C9.62522 33.6372 11.4266 38.0825 23.7968 43.3668C36.167 48.6512 37.8485 53.4852 43.013 53.4852C48.1775 53.4852 52.0817 53.2163 54.003 54.6548C55.9243 56.0934 60.9851 60.2114 62.1093 61.7406C63.1915 63.2116 74 59.5699 74 50.6017C74 48.8002 72.2569 48.3499 68.4759 44.5656C64.6916 40.7813 55.9858 30.245 52.2015 24.5686C48.7769 19.4332 44.633 17 40.9427 17C35.8981 17 31.3654 19.4624 27.3996 19.4624C23.4339 19.4624 12.5055 19.3425 9.02259 19.3425C5.54287 19.3393 6.02238 20.7811 6.02238 21.9831Z" fill="url(#paint0_linear)"/>
<path d="M34.6472 49.3673C34.6375 49.2151 34.5954 49.0596 34.4885 48.8878C32.3274 45.4049 33.8891 37.8363 40.0029 35.9604L39.7404 35.8794C39.222 36.1062 38.4963 36.2455 37.6409 36.2455C35.36 36.2455 28.6339 35.766 24.5483 33.8447C20.4659 31.9234 16.1114 29.5518 12.9881 29.5518C9.86476 29.5518 9.625 32.1956 9.625 32.9148C9.625 33.6341 11.4264 38.0793 23.7998 43.3637C28.9125 45.5474 32.1849 47.6469 34.6472 49.3673Z" fill="url(#paint1_radial)"/>
<path d="M40.2556 34.2343C39.235 33.2137 37.7316 29.1897 37.7316 29.1897C28.2418 30.0321 24.639 26.5459 23.6799 26.5459C23.5503 26.5459 23.3624 26.5556 23.1356 26.5718C22.844 29.5169 23.8517 32.6565 24.5515 33.8423C28.6338 35.7636 35.36 36.2431 37.6442 36.2431C39.9251 36.2463 41.2762 35.2549 40.2556 34.2343Z" fill="url(#paint2_linear)"/>
<path d="M40.2557 34.2343C39.2351 33.2137 37.7318 29.1897 37.7318 29.1897C28.2419 30.0321 24.6391 26.5459 23.6801 26.5459C23.5505 26.5459 23.3626 26.5556 23.1358 26.5718C23.1034 26.9088 23.0904 27.2522 23.0872 27.5924C23.6088 27.4434 23.9522 27.4207 24.098 27.5697C24.3248 27.7965 27.7462 31.2633 32.0262 31.4868C36.3062 31.7136 36.9801 31.3961 36.8019 33.0647C36.6918 34.0821 36.951 35.3813 37.1713 36.2431C37.343 36.2463 37.5017 36.2496 37.6443 36.2496C39.9252 36.2463 41.2763 35.2549 40.2557 34.2343Z" fill="url(#paint3_linear)"/>
<path d="M40.2557 34.2331C39.2352 33.2125 37.7318 29.1885 37.7318 29.1885C37.2167 29.2338 36.7274 29.263 36.2479 29.2824C34.0609 31.7254 33.144 34.0938 33.1991 35.9471C35.0912 36.1641 36.7274 36.2451 37.6443 36.2451C39.9253 36.2451 41.2763 35.2537 40.2557 34.2331Z" fill="url(#paint4_linear)"/>
<path d="M42.4749 28.7088C41.3928 25.8252 40.1324 25.2841 37.6117 25.2841C35.0878 25.2841 32.2075 25.8252 27.5225 24.4741C22.8375 23.1231 18.6936 24.1145 15.6319 24.1145C13.3639 24.1145 7.58379 25.4656 6.03833 22.0928C6.18737 24.0206 10.192 27.0272 14.5529 27.0272C18.9982 27.0272 22.7209 26.5477 23.6799 26.5477C24.6422 26.5477 28.245 30.0307 37.7316 29.1915C37.7316 29.1915 39.2317 33.2156 40.2556 34.2361C41.0105 34.9911 40.4629 35.7265 39.2123 36.0603C39.2155 36.0603 39.222 36.0603 39.2253 36.0603C44.3476 35.6585 43.5571 31.5923 42.4749 28.7088Z" fill="url(#paint5_radial)"/>
<path d="M57.881 52.85C54.0967 49.516 47.7917 50.5075 43.9168 50.5075C40.0418 50.5075 38.1529 48.0743 35.6289 46.4543C33.105 44.8343 22.2965 40.3275 18.2433 37.8975C15.2885 36.1253 10.1013 34.1068 10.4253 30.585C9.72545 31.4079 9.625 32.4901 9.625 32.9112C9.625 33.6305 11.4264 38.0757 23.7998 43.3601C36.17 48.6445 37.8515 53.4785 43.016 53.4785C48.1805 53.4785 52.0847 53.2096 54.006 54.6481C55.9273 56.0867 60.9881 60.2047 62.1124 61.7339C62.6146 62.4208 65.2325 61.9802 67.8827 60.425C64.7141 59.4271 61.0723 55.6622 57.881 52.85Z" fill="url(#paint6_radial)"/>
<path d="M37.6122 27.087C28.6051 27.2685 26.6223 24.926 24.0984 24.926C23.1069 24.926 20.9459 25.3763 17.4338 25.3763C14.9746 25.3763 10.5359 25.548 7.3186 24.2002C8.8673 25.6744 11.6278 27.0254 14.5534 27.0254C18.9987 27.0254 22.7214 26.5459 23.6804 26.5459C24.6427 26.5459 28.2455 30.0289 37.7321 29.1897C37.7321 29.1897 39.2322 33.2138 40.2561 34.2344C41.011 34.9893 40.4634 35.7247 39.2128 36.0585C39.216 36.0585 39.2225 36.0585 39.2257 36.0585C40.849 35.9321 41.8728 35.4364 42.4884 34.7301C40.4926 31.4188 43.2141 26.9769 37.6122 27.087Z" fill="url(#paint7_linear)"/>
<path d="M22.2869 26.6373L23.2783 26.5368C23.5991 26.472 23.9684 26.5109 24.2697 26.6664C24.8821 26.9353 25.475 27.2237 26.0873 27.4699C27.312 27.9527 28.5691 28.3447 29.8587 28.5845C32.4377 29.0737 35.0847 29.0867 37.6994 28.8599C37.8484 28.8469 37.9845 28.9409 38.0363 29.0737C38.383 29.9679 38.7621 30.8622 39.1735 31.7305C39.6077 32.5955 39.9803 33.4541 40.6283 34.1507C40.8097 34.3775 40.9782 34.7145 40.9134 35.0871C40.8486 35.4532 40.6088 35.7092 40.382 35.8841C39.909 36.2146 39.3971 36.3636 38.8884 36.4576C37.8614 36.6325 36.8764 36.5321 35.9012 36.4867C33.9475 36.3442 32.0068 36.0688 30.0919 35.68C28.1804 35.2782 26.2882 34.708 24.5451 33.8397C26.3465 34.5914 28.2549 34.9834 30.1632 35.2977C32.0748 35.6119 34.0058 35.7901 35.9368 35.8809C36.9023 35.9133 37.8776 35.991 38.7718 35.8225C39.6401 35.6897 40.6672 35.1162 40.0937 34.5719C39.4036 33.8397 38.95 32.8969 38.5385 32.0221C38.127 31.1246 37.7609 30.2207 37.4175 29.3005L37.7544 29.5143C35.0912 29.7152 32.3729 29.6731 29.7582 29.0413C28.4525 28.7335 27.1695 28.3156 25.9707 27.7226C25.3713 27.431 24.7914 27.0973 24.2082 26.7895C23.9166 26.6178 23.6185 26.566 23.2751 26.6049L22.2869 26.6373Z" fill="#975500"/>
<path d="M40.2556 34.2343C39.235 33.2137 37.7316 29.1897 37.7316 29.1897C28.2418 30.0321 24.639 26.5459 23.6799 26.5459C23.5503 26.5459 23.3624 26.5556 23.1356 26.5718C22.844 29.5169 23.8517 32.6565 24.5515 33.8423C28.6338 35.7636 35.36 36.2431 37.6442 36.2431C39.9251 36.2463 41.2762 35.2549 40.2556 34.2343Z" fill="url(#paint8_linear)"/>
<path opacity="0.75" d="M48.1875 26.9991C50.9965 27.4333 54.311 35.8571 52.3929 40.8629C50.8248 44.9549 46.6355 48.5319 44.0986 47.4011C41.565 46.2704 39.527 44.7865 43.4118 36.5311C45.7024 31.6646 45.4432 26.5779 48.1875 26.9991Z" fill="url(#paint9_radial)"/>
<path opacity="0.75" d="M29.3794 21.4844C29.1656 20.386 34.8452 17.7455 38.96 17.5964C42.3263 17.4766 45.806 18.4 45.4431 19.521C45.0802 20.6388 44.3577 21.6334 37.4339 21.614C33.3516 21.6043 29.59 22.5601 29.3794 21.4844Z" fill="url(#paint10_radial)"/>
<path d="M62.1158 61.7407C62.4203 62.1554 63.5057 62.1521 64.8989 61.7439C60.3759 59.599 55.7849 53.2682 52.9661 52.8535C49.7003 52.3739 41.3379 54.2952 36.1734 49.6102C31.0089 44.9253 19.9574 40.0005 14.5532 36.9971C11.5238 35.3155 10.2311 33.6696 9.74182 32.0205C9.65758 32.3931 9.62842 32.7236 9.62842 32.9115C9.62842 33.6308 11.4298 38.076 23.8032 43.3604C36.1734 48.6447 37.855 53.4788 43.0195 53.4788C48.184 53.4788 52.0881 53.2098 54.0094 54.6484C55.9275 56.0934 60.9915 60.2082 62.1158 61.7407Z" fill="url(#paint11_radial)"/>
<defs>
<linearGradient id="paint0_linear" x1="22.3037" y1="50.1276" x2="49.8091" y2="31.7507" gradientUnits="userSpaceOnUse">
<stop offset="0.00132565" stop-color="#FFCB4B"/>
<stop offset="1" stop-color="#FFD748"/>
</linearGradient>
<radialGradient id="paint1_radial" cx="0" cy="0" r="1" gradientUnits="userSpaceOnUse" gradientTransform="translate(-24.846 0.00247067) scale(79.2258)">
<stop stop-color="#FFA754"/>
<stop offset="1" stop-color="#FFBC47" stop-opacity="0"/>
</radialGradient>
<linearGradient id="paint2_linear" x1="32.6602" y1="24.4274" x2="29.5974" y2="48.93" gradientUnits="userSpaceOnUse">
<stop offset="0.00132565" stop-color="#FFCB4B"/>
<stop offset="1" stop-color="#FFD748"/>
</linearGradient>
<linearGradient id="paint3_linear" x1="29.7106" y1="42.4485" x2="33.449" y2="22.2248" gradientUnits="userSpaceOnUse">
<stop stop-color="#FFBC47" stop-opacity="0"/>
<stop offset="1" stop-color="#C86F34"/>
</linearGradient>
<linearGradient id="paint4_linear" x1="37.8177" y1="55.4738" x2="36.0161" y2="16.1977" gradientUnits="userSpaceOnUse">
<stop stop-color="#FFBC47" stop-opacity="0"/>
<stop offset="1" stop-color="#C86F34"/>
</linearGradient>
<radialGradient id="paint5_radial" cx="0" cy="0" r="1" gradientUnits="userSpaceOnUse" gradientTransform="translate(24.6554 29.0554) scale(30.7956 14.6526)">
<stop stop-color="#FFBC47" stop-opacity="0"/>
<stop offset="1" stop-color="#FFA754"/>
</radialGradient>
<radialGradient id="paint6_radial" cx="0" cy="0" r="1" gradientUnits="userSpaceOnUse" gradientTransform="translate(51.3079 25.718) rotate(-68.3582) scale(53.5978 61.2148)">
<stop stop-color="#FFBC47" stop-opacity="0"/>
<stop offset="0.4648" stop-color="#FFB54B" stop-opacity="0.4648"/>
<stop offset="1" stop-color="#FFA754"/>
</radialGradient>
<linearGradient id="paint7_linear" x1="33.4109" y1="6.91632" x2="17.0138" y2="50.3687" gradientUnits="userSpaceOnUse">
<stop stop-color="#FFBC47" stop-opacity="0"/>
<stop offset="1" stop-color="#C86F34"/>
</linearGradient>
<linearGradient id="paint8_linear" x1="36.1614" y1="46.6009" x2="28.4743" y2="21.0774" gradientUnits="userSpaceOnUse">
<stop stop-color="#FFBC47" stop-opacity="0"/>
<stop offset="1" stop-color="#C86F34"/>
</linearGradient>
<radialGradient id="paint9_radial" cx="0" cy="0" r="1" gradientUnits="userSpaceOnUse" gradientTransform="translate(47.7606 37.8897) rotate(-64.7798) scale(10.6178 5.39275)">
<stop stop-color="#FBE07A"/>
<stop offset="0.2654" stop-color="#FCDF73" stop-opacity="0.7346"/>
<stop offset="0.6548" stop-color="#FDDB5F" stop-opacity="0.3452"/>
<stop offset="1" stop-color="#FFD748" stop-opacity="0"/>
</radialGradient>
<radialGradient id="paint10_radial" cx="0" cy="0" r="1" gradientUnits="userSpaceOnUse" gradientTransform="translate(37.6211 19.8051) rotate(-179.821) scale(8.06034 2.17556)">
<stop stop-color="#FBE07A"/>
<stop offset="0.2654" stop-color="#FCDF73" stop-opacity="0.7346"/>
<stop offset="0.6548" stop-color="#FDDB5F" stop-opacity="0.3452"/>
<stop offset="1" stop-color="#FFD748" stop-opacity="0"/>
</radialGradient>
<radialGradient id="paint11_radial" cx="0" cy="0" r="1" gradientUnits="userSpaceOnUse" gradientTransform="translate(52.2945 21.2507) rotate(-68.3582) scale(51.0965 58.3581)">
<stop stop-color="#FFBC47" stop-opacity="0"/>
<stop offset="1" stop-color="#FFA754"/>
</radialGradient>
</defs>
</svg>
