<svg width="80" height="80" viewBox="0 0 80 80" fill="none" xmlns="http://www.w3.org/2000/svg">
<g clip-path="url(#clip0)">
<path d="M29.0523 52.1875C29.0523 46.9232 31.2857 41.5636 36.2844 34.0661C41.2832 26.5687 41.4639 25.4947 41.2832 21.3897C41.1026 17.2847 40.5706 14.0679 43.6923 14.0679C46.8191 14.0679 52.0839 18.2632 52.0839 23.3519C52.0839 28.4405 49.2733 32.4101 49.2733 36.5603C49.2733 37.1273 49.4138 37.6492 49.6196 38.1109C50.1516 39.3003 51.6673 39.6867 52.7313 38.9339C54.1667 37.9152 56.2997 36.6305 57.7853 36.7409C57.7853 36.7409 56.7313 30.5834 58.3374 28.9775C58.3374 28.9775 54.3223 26.654 52.9822 22.7296C52.4 21.0334 49.8956 17.7112 49.8956 17.7112C49.8956 17.7112 43.1653 12.999 46.8693 9.20509C49.5092 6.50019 52.6711 8.84879 55.6171 11.3479C58.5632 13.8471 63.4717 16.5721 67.9836 23.8437C68.4755 24.6416 69.68 30.6737 69.68 35.2705C69.68 42.3665 70.217 48.5241 64.3249 54.9526C58.4327 61.3811 48.4351 72 38.9695 72C29.509 72 19.0597 70.6601 12.9015 71.734C12.9015 71.734 9.14743 56.7692 12.1889 52.0068C14.2315 48.795 24.2291 52.1875 29.0523 52.1875Z" fill="url(#paint0_linear)"/>
<path opacity="0.5" d="M36.2795 34.0658C31.2807 41.5633 29.0473 46.9179 29.0473 52.1872C29.0473 52.1872 28.42 52.8145 26.7286 56.4729C26.7286 56.4729 30.7638 58.0587 33.4438 54.6662C34.3221 53.5522 33.3183 47.49 34.1866 42.838C34.7487 39.8219 38.3572 36.013 41.8052 30.5279C41.1126 29.8755 40.3748 29.2633 39.6672 28.6812C38.9093 30.0461 37.8253 31.7474 36.2795 34.0658Z" fill="url(#paint1_linear)"/>
<path opacity="0.5" d="M42.2419 14.4341C40.7663 15.3775 41.1377 18.0975 41.2782 21.3895C41.4037 24.2249 41.3535 25.615 39.6621 28.6762C40.3698 29.2634 41.1076 29.8706 41.8002 30.523C43.7576 27.4116 45.2934 24.4959 45.2934 22.4585C45.2984 18.8302 43.1453 16.3561 42.2419 14.4341Z" fill="url(#paint2_linear)"/>
<path opacity="0.5" d="M12.8915 71.7342C19.0497 70.6652 29.4939 72.0001 38.9595 72.0001C48.4201 72.0001 58.4227 61.3763 64.3148 54.9528C70.207 48.5242 69.67 42.3667 69.67 35.2707C69.67 30.6739 68.4705 24.6418 67.9736 23.8439C63.4667 16.5673 58.5532 13.8473 55.6071 11.3482C54.1014 10.0685 52.5406 8.83899 51.0199 8.29199C54.5481 11.6694 62.1065 16.8082 66.2772 24.0346C67.6173 26.3531 67.9736 37.6344 67.9736 42.5423C67.9736 47.4503 59.6724 55.6654 45.2983 64.859C39.0499 68.8586 31.0146 68.3217 29.0523 65.6469C27.0899 62.9721 26.9092 62.8065 26.9092 64.5027C26.9092 66.1989 25.7499 68.0707 19.411 68.0707C16.5954 68.0707 13.9053 67.2076 11.7823 66.2491C12.3043 69.3806 12.8915 71.7342 12.8915 71.7342Z" fill="url(#paint3_linear)"/>
<path opacity="0.5" d="M60.089 34.6281C58.6034 31.1152 61.8155 31.1755 60.2094 27.9035C58.6034 24.6315 56.5808 23.3819 54.7941 19.4525C53.0174 15.5432 45.469 13.6161 46.1967 10.1133C45.1377 12.0203 46.2218 14.0326 47.4966 15.5131C46.6384 14.9209 45.7501 14.4843 44.932 14.2535C45.8354 15.4027 47.1603 17.1992 48.6058 19.5127C48.8768 19.9443 49.0826 20.4963 49.2382 21.0985C49.8705 23.5325 49.6196 26.1269 48.6309 28.4404C47.4163 31.2909 46.8191 33.7499 46.8191 35.1651C46.8191 36.9516 46.8994 39.9275 49.8655 41.5936C52.8317 43.2597 55.6272 41.2373 57.9459 41.0567C60.2646 40.881 61.5746 38.141 60.089 34.6281ZM49.8856 17.7111C49.8856 17.7111 49.9408 17.7864 50.0261 17.8968C49.9709 17.8266 49.9157 17.7563 49.8605 17.691C49.8655 17.6961 49.8856 17.7111 49.8856 17.7111ZM57.7753 36.7409C56.2897 36.6305 54.1567 37.9151 52.7213 38.9339C51.6623 39.6866 50.1416 39.3002 49.6096 38.1109C49.4038 37.6542 49.2633 37.1323 49.2633 36.5602C49.2633 32.41 52.0738 28.4354 52.0738 23.3518C52.0738 21.6305 51.4615 20.0196 50.5481 18.6295C51.331 19.7385 52.5808 21.5853 52.9672 22.7245C54.3123 26.6489 58.3223 28.9724 58.3223 28.9724C56.7263 30.5833 57.7753 36.7409 57.7753 36.7409Z" fill="url(#paint4_linear)"/>
<path opacity="0.5" d="M57.2582 26.2973C56.1892 24.6914 54.267 19.111 53.4188 18.2629C52.7111 17.5553 48.1992 15.282 45.9006 12.7778C46.1816 13.7765 46.809 14.7199 47.4865 15.5078C46.7839 15.0261 46.0712 14.6497 45.3887 14.4038C49.8956 18.3532 50.0261 22.5988 50.0261 24.5961C50.0261 26.7389 43.7776 40.3086 51.3661 40.3086C53.5995 40.3086 55.6522 37.1571 57.9709 37.7492C60.2896 38.3464 57.6145 35.4006 59.0399 31.8275C60.4652 28.2545 58.3322 27.9032 57.2582 26.2973ZM49.8855 17.7109C49.8855 17.7109 49.9407 17.7862 50.0261 17.8966C49.9709 17.8263 49.9156 17.7561 49.8604 17.6908C49.8654 17.6958 49.8855 17.7109 49.8855 17.7109ZM57.7751 36.7405C56.2896 36.6301 54.1565 37.9148 52.7212 38.9336C51.6622 39.6863 50.1415 39.2999 49.6095 38.1106C49.4037 37.6539 49.2632 37.132 49.2632 36.5599C49.2632 32.4097 52.0737 28.4351 52.0737 23.3515C52.0737 21.6302 51.4614 20.0193 50.548 18.6292C51.331 19.7383 52.5807 21.5851 52.9671 22.7242C54.3121 26.6486 58.3222 28.9721 58.3222 28.9721C56.7262 30.583 57.7751 36.7405 57.7751 36.7405Z" fill="url(#paint5_linear)"/>
<path opacity="0.08" d="M40.9872 36.1237C44.5958 36.2592 46.0111 42.3364 46.0061 48.9606C46.0011 54.3754 42.6434 60.3221 39.1201 60.1013C35.5969 59.8805 32.5052 59.0374 33.3785 47.8064C33.8904 41.1822 37.4589 35.9882 40.9872 36.1237Z" fill="url(#paint6_radial)"/>
<path opacity="0.08" d="M61.6047 42.0706C63.4065 43.6966 60.0288 48.7852 55.5269 53.673C51.848 57.6726 46.0462 60.6435 44.3498 58.9924C42.6484 57.3414 41.5995 55.4093 49.6799 47.4804C54.4428 42.8033 59.8431 40.4798 61.6047 42.0706Z" fill="url(#paint7_radial)"/>
<path opacity="0.08" d="M25.4988 61.3914C25.3784 65.0297 22.2767 66.7661 18.9141 67.1024C16.1688 67.3784 13.1976 64.3071 13.3582 60.7541C13.5188 57.201 13.9906 54.0494 19.677 54.3405C23.0296 54.5111 25.6143 57.8333 25.4988 61.3914Z" fill="url(#paint8_radial)"/>
<path d="M43.6923 14.0675C44.8316 14.0374 45.9508 14.4389 46.9445 14.9959C47.9433 15.558 48.8366 16.3007 49.6146 17.1338C50.3724 17.9919 51.0299 18.9505 51.4665 20.0093C51.9132 21.0632 52.1391 22.2124 52.0789 23.3466C51.9132 21.0783 50.8542 19.0007 49.3486 17.3697C48.6108 16.5366 47.7425 15.8189 46.799 15.2268C45.8604 14.6547 44.8215 14.1729 43.6923 14.0675Z" fill="#3D2A20"/>
<path opacity="0.5" d="M29.0523 52.1877C24.2291 52.1877 14.2315 48.7953 12.1788 52.007C11.9279 52.3985 11.7271 52.8652 11.5615 53.3871C15.9731 49.3524 18.9894 56.4733 26.7285 56.4733C28.4249 52.81 29.0523 52.1877 29.0523 52.1877Z" fill="url(#paint9_linear)"/>
</g>
<defs>
<linearGradient id="paint0_linear" x1="-7.342" y1="74.8807" x2="81.4477" y2="17.0307" gradientUnits="userSpaceOnUse">
<stop offset="0.00132565" stop-color="#5A4539"/>
<stop offset="1" stop-color="#695042"/>
</linearGradient>
<linearGradient id="paint1_linear" x1="12.2249" y1="3.62725" x2="44.0006" y2="61.1145" gradientUnits="userSpaceOnUse">
<stop offset="0.3072" stop-color="#473226" stop-opacity="0"/>
<stop offset="1" stop-color="#473226"/>
</linearGradient>
<linearGradient id="paint2_linear" x1="26.6474" y1="-4.34476" x2="58.4229" y2="53.143" gradientUnits="userSpaceOnUse">
<stop offset="0.3072" stop-color="#473226" stop-opacity="0"/>
<stop offset="1" stop-color="#473226"/>
</linearGradient>
<linearGradient id="paint3_linear" x1="23.0546" y1="-3.31288" x2="46.0824" y2="64.3491" gradientUnits="userSpaceOnUse">
<stop stop-color="#695042" stop-opacity="0"/>
<stop offset="1" stop-color="#473226"/>
</linearGradient>
<linearGradient id="paint4_linear" x1="29.3861" y1="-19.8542" x2="56.9962" y2="40.3703" gradientUnits="userSpaceOnUse">
<stop offset="0.3072" stop-color="#473226" stop-opacity="0"/>
<stop offset="1" stop-color="#473226"/>
</linearGradient>
<linearGradient id="paint5_linear" x1="43.4958" y1="10.0096" x2="52.0644" y2="29.8264" gradientUnits="userSpaceOnUse">
<stop offset="0.3072" stop-color="#473226" stop-opacity="0"/>
<stop offset="1" stop-color="#473226"/>
</linearGradient>
<radialGradient id="paint6_radial" cx="0" cy="0" r="1" gradientUnits="userSpaceOnUse" gradientTransform="translate(39.7348 48.0878) rotate(-85.5433) scale(12.3433 6.4562)">
<stop stop-color="#F8DBBA"/>
<stop offset="1" stop-color="#CD9870" stop-opacity="0"/>
</radialGradient>
<radialGradient id="paint7_radial" cx="0" cy="0" r="1" gradientUnits="userSpaceOnUse" gradientTransform="translate(52.823 50.3888) rotate(-44.4406) scale(12.4048 4.33672)">
<stop stop-color="#F8DBBA"/>
<stop offset="1" stop-color="#CD9870" stop-opacity="0"/>
</radialGradient>
<radialGradient id="paint8_radial" cx="0" cy="0" r="1" gradientUnits="userSpaceOnUse" gradientTransform="translate(19.4441 60.7362) rotate(3.00077) scale(6.24016 6.50581)">
<stop stop-color="#F8DBBA"/>
<stop offset="1" stop-color="#CD9870" stop-opacity="0"/>
</radialGradient>
<linearGradient id="paint9_linear" x1="-2.40103" y1="11.7128" x2="29.3736" y2="69.1997" gradientUnits="userSpaceOnUse">
<stop offset="0.3072" stop-color="#473226" stop-opacity="0"/>
<stop offset="1" stop-color="#473226"/>
</linearGradient>
<clipPath id="clip0">
<rect width="80" height="80" fill="white"/>
</clipPath>
</defs>
</svg>
