<svg width="80" height="80" viewBox="0 0 80 80" fill="none" xmlns="http://www.w3.org/2000/svg">
<path d="M40.475 70.95C57.3059 70.95 70.95 57.3059 70.95 40.475C70.95 23.6441 57.3059 10 40.475 10C23.6441 10 10 23.6441 10 40.475C10 57.3059 23.6441 70.95 40.475 70.95Z" fill="url(#paint0_radial)"/>
<path opacity="0.5" d="M40.475 70.95C57.3059 70.95 70.95 57.3059 70.95 40.475C70.95 23.6441 57.3059 10 40.475 10C23.6441 10 10 23.6441 10 40.475C10 57.3059 23.6441 70.95 40.475 70.95Z" fill="url(#paint1_radial)"/>
<path d="M32.6508 23.8059C32.4807 22.5869 31.0775 22.0199 28.8237 22.3317C26.9102 22.6011 22.8563 24.2311 20.4892 28.3559C20.0498 29.1213 20.9286 29.3764 21.3822 28.8662C22.9555 27.1085 27.4488 24.5146 31.2192 24.4012C32.7217 24.3445 32.6508 23.8059 32.6508 23.8059Z" fill="url(#paint2_linear)"/>
<path d="M40.3191 59.9648C33.9406 59.9648 32.1688 59.1569 32.2539 58.1505C32.3389 57.1441 34.2525 56.3362 40.631 56.3362C47.0095 56.3362 48.7813 57.1441 48.6962 58.1505C48.6112 59.1427 46.6976 59.9648 40.3191 59.9648Z" fill="url(#paint3_radial)"/>
<path d="M40.6452 57.1441C44.8691 57.1441 47.3497 57.4843 48.6821 57.9946C48.5828 57.0591 46.6693 56.3362 40.6168 56.3362C34.3801 56.3362 32.424 57.1158 32.2539 58.0796C33.6288 57.5127 36.1944 57.1441 40.6452 57.1441Z" fill="url(#paint4_linear)"/>
<path d="M35.4636 42.9928C37.8308 39.2752 36.7361 34.3426 33.0185 31.9754C29.3009 29.6082 24.3682 30.7029 22.001 34.4205C19.6338 38.1381 20.7285 43.0708 24.4461 45.438C28.1637 47.8051 33.0964 46.7104 35.4636 42.9928Z" fill="white"/>
<path d="M28.7386 46.6834C33.146 46.6834 36.7188 43.1105 36.7188 38.7032C36.7188 34.2959 33.146 30.723 28.7386 30.723C24.3313 30.723 20.7584 34.2959 20.7584 38.7032C20.7584 43.1105 24.3313 46.6834 28.7386 46.6834Z" fill="url(#paint5_radial)"/>
<path d="M28.7386 46.6834C33.146 46.6834 36.7188 43.1105 36.7188 38.7032C36.7188 34.2959 33.146 30.723 28.7386 30.723C24.3313 30.723 20.7584 34.2959 20.7584 38.7032C20.7584 43.1105 24.3313 46.6834 28.7386 46.6834Z" fill="url(#paint6_radial)"/>
<path d="M28.7387 47.3354C33.5061 47.3354 37.3709 43.4706 37.3709 38.7032C37.3709 33.9358 33.5061 30.071 28.7387 30.071C23.9712 30.071 20.1064 33.9358 20.1064 38.7032C20.1064 43.4706 23.9712 47.3354 28.7387 47.3354Z" fill="url(#paint7_radial)"/>
<path d="M28.7387 47.3354C33.5061 47.3354 37.3709 43.4706 37.3709 38.7032C37.3709 33.9358 33.5061 30.071 28.7387 30.071C23.9712 30.071 20.1064 33.9358 20.1064 38.7032C20.1064 43.4706 23.9712 47.3354 28.7387 47.3354Z" fill="url(#paint8_radial)"/>
<path d="M33.9123 35.358C35.514 38.5473 34.2383 42.4311 31.0774 44.047C27.9165 45.6628 24.0611 44.3871 22.4735 41.1979C20.886 38.0086 22.1475 34.1249 25.3084 32.509C28.4693 30.8931 32.3247 32.183 33.9123 35.358Z" fill="url(#paint9_linear)"/>
<path d="M30.1986 42.2752C27.9449 43.4233 25.4077 43.3949 23.2673 42.4169C25.1384 44.6848 28.3701 45.4361 31.0774 44.047C33.7989 42.6579 35.103 39.582 34.4084 36.733C33.9265 39.0434 32.4524 41.127 30.1986 42.2752Z" fill="url(#paint10_linear)"/>
<path d="M48.2992 23.8059C48.4693 22.5869 49.8726 22.0199 52.1263 22.3317C54.0399 22.6011 58.0938 24.2311 60.4609 28.3559C60.9003 29.1213 60.0215 29.3764 59.5679 28.8662C57.9945 27.1085 53.5012 24.5146 49.7308 24.4012C48.2284 24.3445 48.2992 23.8059 48.2992 23.8059Z" fill="url(#paint11_linear)"/>
<path d="M56.4933 45.4347C60.2109 43.0675 61.3056 38.1348 58.9385 34.4172C56.5713 30.6996 51.6386 29.6049 47.921 31.9721C44.2034 34.3393 43.1087 39.2719 45.4759 42.9895C47.843 46.7071 52.7757 47.8019 56.4933 45.4347Z" fill="white"/>
<path d="M52.2115 46.6834C56.6189 46.6834 60.1917 43.1105 60.1917 38.7032C60.1917 34.2958 56.6189 30.723 52.2115 30.723C47.8042 30.723 44.2313 34.2958 44.2313 38.7032C44.2313 43.1105 47.8042 46.6834 52.2115 46.6834Z" fill="url(#paint12_radial)"/>
<path d="M52.2115 46.6834C56.6189 46.6834 60.1917 43.1105 60.1917 38.7032C60.1917 34.2958 56.6189 30.723 52.2115 30.723C47.8042 30.723 44.2313 34.2958 44.2313 38.7032C44.2313 43.1105 47.8042 46.6834 52.2115 46.6834Z" fill="url(#paint13_radial)"/>
<path d="M52.2114 47.3354C56.9789 47.3354 60.8437 43.4706 60.8437 38.7032C60.8437 33.9358 56.9789 30.071 52.2114 30.071C47.444 30.071 43.5792 33.9358 43.5792 38.7032C43.5792 43.4706 47.444 47.3354 52.2114 47.3354Z" fill="url(#paint14_radial)"/>
<path d="M52.2114 47.3354C56.9789 47.3354 60.8437 43.4706 60.8437 38.7032C60.8437 33.9358 56.9789 30.071 52.2114 30.071C47.444 30.071 43.5792 33.9358 43.5792 38.7032C43.5792 43.4706 47.444 47.3354 52.2114 47.3354Z" fill="url(#paint15_radial)"/>
<path d="M29.2064 35.4714C29.9152 36.818 29.3765 38.4906 28.0016 39.1851C26.6267 39.8797 24.9541 39.3694 24.2454 38.0228C23.5367 36.6763 24.0753 35.0037 25.4502 34.3091C26.8251 33.6004 28.4977 34.1249 29.2064 35.4714Z" fill="url(#paint16_radial)"/>
<path opacity="0.5" d="M31.9703 39.9505C32.3955 40.3049 32.1546 41.0562 31.4317 41.6515C30.7088 42.2326 29.7733 42.4169 29.3481 42.0625C28.9228 41.7082 29.1638 40.9569 29.8867 40.3616C30.6096 39.7805 31.5451 39.5962 31.9703 39.9505Z" fill="url(#paint17_radial)"/>
<path d="M57.3851 35.358C58.9868 38.5473 57.7111 42.4311 54.5502 44.047C51.3893 45.6628 47.5338 44.3871 45.9463 41.1979C44.3446 38.0087 45.6203 34.1249 48.7812 32.509C51.9421 30.9073 55.7975 32.183 57.3851 35.358Z" fill="url(#paint18_linear)"/>
<path d="M53.6714 42.2752C51.4177 43.4233 48.8804 43.3949 46.7401 42.4169C48.6111 44.6848 51.8429 45.4361 54.5502 44.047C57.2717 42.6579 58.5757 39.582 57.8812 36.733C57.3993 39.0434 55.9251 41.127 53.6714 42.2752Z" fill="url(#paint19_linear)"/>
<path d="M52.6791 35.4714C53.3878 36.818 52.8492 38.4906 51.4743 39.1851C50.0994 39.8938 48.4268 39.3694 47.7181 38.0228C47.0093 36.6763 47.548 35.0037 48.9229 34.3091C50.2978 33.6146 51.9704 34.1249 52.6791 35.4714Z" fill="url(#paint20_radial)"/>
<path opacity="0.5" d="M55.4431 39.9505C55.8683 40.3049 55.6274 41.0562 54.9045 41.6515C54.1816 42.2326 53.2461 42.4169 52.8208 42.0625C52.3956 41.7082 52.6366 40.9569 53.3595 40.3616C54.0824 39.7805 55.0179 39.5962 55.4431 39.9505Z" fill="url(#paint21_radial)"/>
<defs>
<radialGradient id="paint0_radial" cx="0" cy="0" r="1" gradientUnits="userSpaceOnUse" gradientTransform="translate(34.479 28.1245) scale(36.7641)">
<stop stop-color="#FFDF30"/>
<stop offset="1" stop-color="#FFB82E"/>
</radialGradient>
<radialGradient id="paint1_radial" cx="0" cy="0" r="1" gradientUnits="userSpaceOnUse" gradientTransform="translate(34.479 28.1245) scale(28.924)">
<stop stop-color="#FFE95F"/>
<stop offset="1" stop-color="#FFBB47" stop-opacity="0"/>
</radialGradient>
<linearGradient id="paint2_linear" x1="26.5583" y1="26.7164" x2="26.1167" y2="23.5357" gradientUnits="userSpaceOnUse">
<stop offset="0.00132565" stop-color="#3C2200"/>
<stop offset="1" stop-color="#7A4400"/>
</linearGradient>
<radialGradient id="paint3_radial" cx="0" cy="0" r="1" gradientUnits="userSpaceOnUse" gradientTransform="translate(40.3097 57.6067) rotate(174.532) scale(7.76233 1.76914)">
<stop offset="0.00132565" stop-color="#7A4400"/>
<stop offset="1" stop-color="#643800"/>
</radialGradient>
<linearGradient id="paint4_linear" x1="40.4782" y1="58.1886" x2="40.4782" y2="55.3922" gradientUnits="userSpaceOnUse">
<stop offset="0.00132565" stop-color="#3C2200"/>
<stop offset="1" stop-color="#512D00"/>
</linearGradient>
<radialGradient id="paint5_radial" cx="0" cy="0" r="1" gradientUnits="userSpaceOnUse" gradientTransform="translate(28.7387 39.6806) rotate(90) scale(10.0236 10.1456)">
<stop stop-color="#CEDBDD" stop-opacity="0"/>
<stop offset="0.8869" stop-color="#CEDBDD" stop-opacity="0.8869"/>
<stop offset="1" stop-color="#CEDBDD"/>
</radialGradient>
<radialGradient id="paint6_radial" cx="0" cy="0" r="1" gradientUnits="userSpaceOnUse" gradientTransform="translate(28.6471 39.2609) scale(8.61319)">
<stop stop-color="white" stop-opacity="0"/>
<stop offset="0.4363" stop-color="#FDFEFE" stop-opacity="0.3489"/>
<stop offset="0.5934" stop-color="#F6F8F8" stop-opacity="0.4745"/>
<stop offset="0.7054" stop-color="#EBEFF0" stop-opacity="0.5641"/>
<stop offset="0.7959" stop-color="#DAE2E3" stop-opacity="0.6365"/>
<stop offset="0.8726" stop-color="#C4D1D2" stop-opacity="0.6978"/>
<stop offset="0.9004" stop-color="#BAC9CB" stop-opacity="0.72"/>
<stop offset="1" stop-color="#98AEB2"/>
</radialGradient>
<radialGradient id="paint7_radial" cx="0" cy="0" r="1" gradientUnits="userSpaceOnUse" gradientTransform="translate(28.7931 38.7097) scale(8.75502)">
<stop offset="0.8945" stop-color="#E78F43" stop-opacity="0"/>
<stop offset="0.9103" stop-color="#ED9540" stop-opacity="0.0748107"/>
<stop offset="0.9488" stop-color="#F79E3C" stop-opacity="0.2573"/>
<stop offset="1" stop-color="#FAA13B" stop-opacity="0.5"/>
</radialGradient>
<radialGradient id="paint8_radial" cx="0" cy="0" r="1" gradientUnits="userSpaceOnUse" gradientTransform="translate(28.7931 38.7097) scale(8.75502)">
<stop offset="0.8827" stop-color="#FAA13B" stop-opacity="0"/>
<stop offset="0.9161" stop-color="#FAA13B" stop-opacity="0.5"/>
<stop offset="0.9866" stop-color="#E78F43" stop-opacity="0"/>
</radialGradient>
<linearGradient id="paint9_linear" x1="18.909" y1="27.0334" x2="31.4109" y2="42.1801" gradientUnits="userSpaceOnUse">
<stop offset="0.00132565" stop-color="#3C2200"/>
<stop offset="1" stop-color="#512D00"/>
</linearGradient>
<linearGradient id="paint10_linear" x1="24.3895" y1="44.6518" x2="35.5732" y2="39.0485" gradientUnits="userSpaceOnUse">
<stop offset="0.00132565" stop-color="#3C2200"/>
<stop offset="1" stop-color="#512D00"/>
</linearGradient>
<linearGradient id="paint11_linear" x1="54.3921" y1="26.7241" x2="54.8336" y2="23.5433" gradientUnits="userSpaceOnUse">
<stop offset="0.00132565" stop-color="#3C2200"/>
<stop offset="1" stop-color="#7A4400"/>
</linearGradient>
<radialGradient id="paint12_radial" cx="0" cy="0" r="1" gradientUnits="userSpaceOnUse" gradientTransform="translate(52.2114 39.6789) rotate(90) scale(10.0236 10.1456)">
<stop stop-color="#CEDBDD" stop-opacity="0"/>
<stop offset="0.8869" stop-color="#CEDBDD" stop-opacity="0.8869"/>
<stop offset="1" stop-color="#CEDBDD"/>
</radialGradient>
<radialGradient id="paint13_radial" cx="0" cy="0" r="1" gradientUnits="userSpaceOnUse" gradientTransform="translate(52.3043 39.2609) rotate(180) scale(8.61319)">
<stop stop-color="white" stop-opacity="0"/>
<stop offset="0.4363" stop-color="#FDFEFE" stop-opacity="0.3489"/>
<stop offset="0.5934" stop-color="#F6F8F8" stop-opacity="0.4745"/>
<stop offset="0.7054" stop-color="#EBEFF0" stop-opacity="0.5641"/>
<stop offset="0.7959" stop-color="#DAE2E3" stop-opacity="0.6365"/>
<stop offset="0.8726" stop-color="#C4D1D2" stop-opacity="0.6978"/>
<stop offset="0.9004" stop-color="#BAC9CB" stop-opacity="0.72"/>
<stop offset="1" stop-color="#98AEB2"/>
</radialGradient>
<radialGradient id="paint14_radial" cx="0" cy="0" r="1" gradientUnits="userSpaceOnUse" gradientTransform="translate(52.1582 38.7097) rotate(180) scale(8.75502)">
<stop offset="0.8945" stop-color="#E78F43" stop-opacity="0"/>
<stop offset="0.9103" stop-color="#ED9540" stop-opacity="0.0748107"/>
<stop offset="0.9488" stop-color="#F79E3C" stop-opacity="0.2573"/>
<stop offset="1" stop-color="#FAA13B" stop-opacity="0.5"/>
</radialGradient>
<radialGradient id="paint15_radial" cx="0" cy="0" r="1" gradientUnits="userSpaceOnUse" gradientTransform="translate(52.1582 38.7097) rotate(180) scale(8.75502)">
<stop offset="0.8827" stop-color="#FAA13B" stop-opacity="0"/>
<stop offset="0.9161" stop-color="#FAA13B" stop-opacity="0.5"/>
<stop offset="0.9866" stop-color="#E78F43" stop-opacity="0"/>
</radialGradient>
<radialGradient id="paint16_radial" cx="0" cy="0" r="1" gradientUnits="userSpaceOnUse" gradientTransform="translate(26.7292 36.7443) rotate(-0.767056) scale(5.30442 5.2032)">
<stop offset="0.00132565" stop-color="white"/>
<stop offset="0.1915" stop-color="#F5F8F8"/>
<stop offset="0.5101" stop-color="#DCE3E4"/>
<stop offset="0.9157" stop-color="#B2C3C4"/>
<stop offset="1" stop-color="#A8BBBD"/>
</radialGradient>
<radialGradient id="paint17_radial" cx="0" cy="0" r="1" gradientUnits="userSpaceOnUse" gradientTransform="translate(30.6606 40.9993) rotate(-23.175) scale(2.65407 1.59451)">
<stop offset="0.00132565" stop-color="white"/>
<stop offset="1" stop-color="#A8BBBD"/>
</radialGradient>
<linearGradient id="paint18_linear" x1="42.3818" y1="27.0334" x2="54.8836" y2="42.1802" gradientUnits="userSpaceOnUse">
<stop offset="0.00132565" stop-color="#3C2200"/>
<stop offset="1" stop-color="#512D00"/>
</linearGradient>
<linearGradient id="paint19_linear" x1="47.8632" y1="44.6516" x2="59.0469" y2="39.0482" gradientUnits="userSpaceOnUse">
<stop offset="0.00132565" stop-color="#3C2200"/>
<stop offset="1" stop-color="#512D00"/>
</linearGradient>
<radialGradient id="paint20_radial" cx="0" cy="0" r="1" gradientUnits="userSpaceOnUse" gradientTransform="translate(50.1999 36.7443) rotate(-0.767056) scale(5.30442 5.2032)">
<stop offset="0.00132565" stop-color="white"/>
<stop offset="0.1915" stop-color="#F5F8F8"/>
<stop offset="0.5101" stop-color="#DCE3E4"/>
<stop offset="0.9157" stop-color="#B2C3C4"/>
<stop offset="1" stop-color="#A8BBBD"/>
</radialGradient>
<radialGradient id="paint21_radial" cx="0" cy="0" r="1" gradientUnits="userSpaceOnUse" gradientTransform="translate(54.1302 40.9987) rotate(-23.1749) scale(2.65407 1.59451)">
<stop offset="0.00132565" stop-color="white"/>
<stop offset="1" stop-color="#A8BBBD"/>
</radialGradient>
</defs>
</svg>
