<svg width="80" height="80" viewBox="0 0 80 80" fill="none" xmlns="http://www.w3.org/2000/svg">
<path d="M10.6776 39.5826C10.5918 38.2133 10.5918 34.513 10.3642 32.5041C10.1367 30.4908 9.14928 29.525 7.49212 29.8426C5.83495 30.1603 6.06249 33.8476 6.06678 34.7448C6.06678 36.1142 5.87788 43.2356 6.13547 44.708" fill="url(#paint0_linear)"/>
<path d="M10.0808 43.7336C10.2826 43.8065 10.5488 43.8023 10.6432 43.7465C10.6432 43.7465 10.7591 40.8361 10.6819 39.5783C10.596 38.209 10.596 34.5087 10.3685 32.4998C10.2697 31.6155 10.0207 30.9329 9.63433 30.4736C9.86187 31.4566 9.44543 31.315 9.76312 33.6931C9.93056 34.9723 8.75423 43.27 10.0808 43.7336Z" fill="url(#paint1_linear)"/>
<path d="M10.639 43.7508C10.639 43.7508 10.7549 40.8404 10.6777 39.5827C10.5918 38.2133 10.5918 34.5131 10.3643 32.5041C10.2655 31.6199 10.0165 30.9373 9.63013 30.478C9.85767 31.461 10.2183 33.3584 10.1668 37.3247C9.98646 44.3002 10.5489 43.8023 10.639 43.7508Z" fill="url(#paint2_linear)"/>
<path d="M35.1701 6.45226C35.183 6.32348 35.1315 6.199 35.0371 6.10885C34.9426 6.023 34.8095 5.98436 34.685 6.00582L32.8561 6.31919C32.7359 6.34065 32.6329 6.40934 32.5728 6.51665C32.5084 6.61968 32.4998 6.74416 32.5341 6.86006C33.9981 11.8095 34.9512 14.0846 34.9555 14.0588C35.2002 11.7794 35.1659 6.49948 35.1701 6.45226Z" fill="#975500"/>
<path d="M23.9736 13.0803C23.9307 12.9729 23.8448 12.8914 23.7375 12.8485C23.6301 12.8098 23.5099 12.8141 23.4069 12.8656L21.7454 13.6941C21.6123 13.7628 21.5265 13.8959 21.5179 14.0418C21.5093 14.192 21.5995 14.3122 21.7111 14.411C24.9009 17.4029 25.4161 18.7894 25.4504 18.7809C25.6351 18.7379 25.5749 16.978 23.9736 13.0803Z" fill="#975500"/>
<path d="M44.8298 6.45226C44.817 6.32348 44.8685 6.199 44.9629 6.10885C45.0574 6.023 45.1905 5.98436 45.315 6.00582L47.1438 6.31919C47.2641 6.34065 47.3671 6.40934 47.4272 6.51665C47.4916 6.61968 47.5002 6.74416 47.4658 6.86006C46.0019 11.8095 45.0488 14.0846 45.0445 14.0588C44.7998 11.7794 44.8341 6.49948 44.8298 6.45226Z" fill="#975500"/>
<path d="M56.0264 13.0798C56.0694 12.9724 56.1552 12.8909 56.2626 12.848C56.3699 12.8093 56.4901 12.8136 56.5931 12.8651L58.2546 13.6936C58.3877 13.7623 58.4736 13.8954 58.4821 14.0413C58.4907 14.1916 58.4006 14.3117 58.289 14.4105C55.0991 17.4024 54.5839 18.789 54.5496 18.7804C54.365 18.7374 54.4251 16.9775 56.0264 13.0798Z" fill="#975500"/>
<path d="M26.3992 58.7534C24.287 60.698 24.7206 69.9529 24.9095 72.2194C25.1456 75.0697 10.8107 74.0995 11.0726 72.0906C11.2572 70.6654 10.8021 59.7922 10.8021 59.2728" fill="url(#paint3_linear)"/>
<path d="M26.5152 58.6417C26.4722 58.676 26.425 58.7104 26.3778 58.7447L25.3904 58.5215C24.7979 59.028 24.2956 59.6075 24.0208 60.3158C23.1322 60.7923 22.1791 60.8824 21.4707 61.2387C18.5213 62.7197 24.3257 61.4362 24.1754 63.5481C23.6731 66.3641 24.4287 72.2149 24.9009 72.2149C24.7163 69.9484 24.2784 60.6936 26.3907 58.749C26.4422 58.7147 26.4765 58.6803 26.5152 58.6417Z" fill="url(#paint4_linear)"/>
<path d="M11.0726 72.0905C10.991 72.7301 12.3949 73.2667 14.3354 73.6058C13.056 72.0046 13.2149 62.8871 13.6614 61.7968C14.0349 60.891 13.2707 59.1482 12.2961 57.8647L10.8021 59.2727C10.8021 59.7878 11.2615 70.661 11.0726 72.0905Z" fill="url(#paint5_linear)"/>
<path d="M12.0773 60.4917C11.6351 60.2728 11.2186 60.011 10.8151 59.7319C10.888 61.904 11.2401 70.8069 11.0727 72.0861C11.0297 72.3994 11.3689 72.6913 11.9699 72.9446C12.1717 71.0043 11.2787 65.1192 11.5921 64.2907C12.4336 62.0585 14.0264 62.0886 13.6829 61.2129C13.2321 61.1399 12.6268 60.8995 12.0773 60.4917Z" fill="url(#paint6_linear)"/>
<path d="M11.0726 72.0907C11.2572 70.6655 10.8021 59.7924 10.8021 59.2729C13.6013 62.9474 20.8739 61.8829 24.3385 60.1487C24.8236 59.904 25.2229 59.7537 25.562 59.6722C24.4201 61.2347 24.7506 70.3178 24.9052 72.2195C25.1413 75.0697 10.8107 74.0953 11.0726 72.0907Z" fill="url(#paint7_linear)"/>
<path d="M39.1714 43.0811C39.7896 41.2481 35.8184 38.8399 32.2594 42.2311C31.8473 42.6604 31.4394 43.1411 31.053 43.6992C30.1042 45.0599 28.812 46.1674 27.524 45.06C26.2361 43.9482 26.2318 39.9603 26.455 37.8226L21.8699 37.2817C21.93 38.1317 21.9558 39.8916 21.651 39.9131C21.3462 39.9346 21.0929 39.1962 21.0413 38.4751C20.9898 37.7496 16.4992 41.0807 16.2287 41.2095C16.0269 41.3082 14.7089 40.7845 13.1247 41.4713C12.5967 41.7031 10.7721 43.7378 10.6433 43.7464C10.6433 43.7464 10.7678 40.9476 10.6819 39.5783C10.5961 38.2089 5.88217 43.2313 6.13546 44.7037C6.56907 47.2191 5.85211 55.5296 10.0422 59.144C14.8892 63.325 23.7417 62.1445 26.9445 58.4314C30.1472 54.7226 30.8469 51.5761 33.2769 48.2579C35.3247 45.4592 38.2655 44.5663 39.1714 43.0811Z" fill="url(#paint8_linear)"/>
<path d="M16.2243 41.2099C15.4988 41.2829 15.6448 40.0208 15.5675 37.6556C15.5117 35.8484 15.4773 30.9162 15.3657 28.3148C15.224 25.0911 14.6058 24.2283 13.0517 24.0866C11.5018 23.9492 10.8063 25.8509 10.845 27.9757C10.875 29.77 11.0468 32.5989 11.3215 36.136C11.4847 38.2566 11.1713 43.7082 10.6389 43.7511" fill="url(#paint9_linear)"/>
<path d="M26.4507 37.8179C26.6739 35.6802 26.5923 28.1766 26.7168 26.1634C26.8413 24.1501 25.6307 23.1972 24.3255 23.1285C23.0204 23.0598 22.0716 23.9784 21.9858 27.9706C21.93 30.4904 21.6466 32.7869 21.8656 37.2813L24.9094 40.1875L26.4507 37.8179Z" fill="url(#paint10_linear)"/>
<path d="M21.0413 38.4752C20.9898 37.7497 21.0671 30.7056 21.0413 29.1602C20.9898 25.9279 21.5221 21.0987 18.62 20.8197C16.7524 20.6394 16.3532 22.3736 16.2673 23.1377C16.1814 23.9018 16.3575 32.5299 16.4176 33.3069C16.4734 34.0881 16.4948 41.0765 16.2244 41.2096" fill="url(#paint11_linear)"/>
<path d="M22.7671 23.9187C22.2991 24.6571 22.033 25.9792 21.99 27.971C21.9342 30.4908 21.6809 32.7873 21.8698 37.2817C21.9042 38.1359 21.9557 39.8916 21.6509 39.9131C23.3295 38.7841 22.458 32.182 22.4151 29.1214C22.3721 25.8719 23.1191 23.3693 22.7671 23.9187Z" fill="url(#paint12_linear)"/>
<path d="M16.4176 33.3068C16.4734 34.0881 16.4948 41.0764 16.2244 41.2095C16.2244 41.2095 17.3234 39.9818 17.156 37.7239C16.8168 33.0879 16.6837 28.1428 16.9585 25.5158C17.2204 23.0389 16.7696 21.5752 16.5893 21.9443C16.4047 22.3135 16.2973 22.8458 16.2673 23.1377C16.1857 23.8975 16.3617 32.5256 16.4176 33.3068Z" fill="url(#paint13_linear)"/>
<path d="M10.8494 27.9752C10.8794 29.7695 11.0512 32.5984 11.3259 36.1355C11.4891 38.2561 11.1757 43.7077 10.6433 43.7506C13.4081 43.785 10.5617 27.0051 12.0515 24.3394C11.2014 24.9146 10.8193 26.3826 10.8494 27.9752Z" fill="url(#paint14_linear)"/>
<path d="M14.9794 34.0841C15.1469 36.2647 14.563 40.9909 15.9883 41.2012C15.6621 41.0682 15.6277 39.4928 15.5719 37.6512C15.5161 35.844 15.5032 30.9118 15.3701 28.3105C15.2284 25.5546 14.9022 24.8034 13.9019 24.2754C15.6406 27.1772 14.5673 28.7311 14.9794 34.0841Z" fill="url(#paint15_linear)"/>
<path d="M20.2771 30.405C20.3802 33.676 19.7448 39.4366 21.5565 39.8959C21.2946 39.78 21.0886 39.1233 21.0413 38.4751C20.9898 37.7496 21.0671 30.7055 21.0413 29.1601C21.0113 27.1555 21.2603 23.9747 20.4231 22.1675C20.8653 24.4511 20.1956 27.7565 20.2771 30.405Z" fill="url(#paint16_linear)"/>
<path d="M26.5709 43.0291C26.3391 41.7113 26.3176 39.1099 26.4507 37.8179C26.674 35.6801 26.5924 28.1766 26.7169 26.1634C26.7556 25.5496 26.6697 25.0344 26.4937 24.6138C26.4422 25.5453 26 26.5927 26.1116 28.4042C26.2919 31.3103 25.8583 35.9463 25.7123 37.5431C25.5663 39.1314 24.9095 43.1536 26.5709 43.0291Z" fill="url(#paint17_linear)"/>
<path d="M6.45318 38.647C6.46177 38.6213 6.46606 38.6084 6.46606 38.6084C7.93862 48.7948 8.93463 54.4181 14.1981 60.6167C14.9408 61.4924 13.3609 61.4409 12.0815 60.4922C11.3474 60.1273 10.6605 59.6809 10.0423 59.1443C5.85214 55.5299 6.56909 47.2194 6.13548 44.7039C5.9981 43.9313 6.54334 40.4414 6.45318 38.647Z" fill="url(#paint18_radial)"/>
<path opacity="0.16" d="M29.8852 49.6229C30.6365 50.5244 28.1164 54.3277 26.2017 55.9202C24.2869 57.5128 22.1317 58.0708 21.3804 57.1693C20.6291 56.2679 22.3335 54.0057 23.819 52.0096C26.382 48.567 29.1382 48.7215 29.8852 49.6229Z" fill="url(#paint19_radial)"/>
<path opacity="0.16" d="M8.57402 48.7686C7.74114 49.7688 10.2698 55.5381 12.7684 56.9891C15.2628 58.44 18.3925 57.9978 19.0021 56.8431C19.6118 55.6884 17.0187 53.8941 14.8936 51.9066C11.2315 48.4767 9.40689 47.7684 8.57402 48.7686Z" fill="url(#paint20_radial)"/>
<path d="M39.1714 43.0808C39.2787 42.7675 39.2401 42.4412 39.1027 42.1279C38.6434 43.3942 37.2695 44.5961 34.977 45.2658C32.2508 46.0642 29.6878 49.3824 28.3698 52.7865C27.0518 56.1905 22.7844 58.7747 19.9208 58.2853C17.0573 57.796 10.2397 60.6334 7.93861 48.7986C7.93861 48.7943 7.93861 48.7943 7.93861 48.79C7.85274 48.0045 7.72824 47.2747 7.52646 46.6223C6.1183 42.1322 7.05851 36.0366 7.16154 33.4954C7.18301 32.9975 7.53505 31.3534 6.44029 30.9155C5.95516 32.1647 6.06678 34.1264 6.06678 34.7446C6.06678 36.1139 5.87788 43.2354 6.13547 44.7077C6.16982 44.9009 6.17841 45.4847 6.19987 45.7251C6.20417 45.7895 6.21275 45.8496 6.21704 45.9183C6.21704 45.9354 6.22134 45.9526 6.22134 45.9698C6.22563 46.0127 6.22563 46.0513 6.22992 46.0943C6.22992 46.1028 6.22992 46.1157 6.22992 46.1243C6.33725 47.7984 6.11401 55.6368 10.0423 59.1481C14.812 63.4193 23.7418 62.1487 26.9445 58.4356C30.1472 54.7267 30.847 51.5802 33.2769 48.262C35.3247 45.4589 38.2656 44.5661 39.1714 43.0808Z" fill="url(#paint21_radial)"/>
<path d="M32.2594 42.2266C31.8472 42.6559 31.4394 43.1366 31.053 43.6947C30.1042 45.0554 28.8119 46.1629 27.524 45.0554C27.0174 44.6176 26.7255 43.8835 26.5752 43.0293C26.6739 47.4807 28.9665 46.5964 30.482 45.0511C31.9932 43.5058 33.1695 40.8616 36.4967 40.8401C37.0978 40.8358 37.6859 40.9646 38.1195 41.0633C36.7715 40.252 34.4403 40.149 32.2594 42.2266Z" fill="url(#paint22_radial)"/>
<path d="M26.9358 58.4355C30.1385 54.7267 30.8383 51.5802 33.2683 48.262C35.3247 45.4546 38.2655 44.5617 39.1671 43.0765C39.2744 42.7631 39.2358 42.4369 39.0984 42.1235C38.639 43.3899 36.8573 43.7934 34.9726 45.2614C32.2508 47.382 29.6835 50.3611 28.3655 53.7651C27.0475 57.1692 22.78 58.7703 19.9165 58.281L26.9358 58.4355Z" fill="url(#paint23_linear)"/>
<path d="M53.6008 58.7534C55.7131 60.698 55.2795 69.9529 55.0906 72.2194C54.8544 75.0697 69.1893 74.0995 68.9274 72.0906C68.7428 70.6654 69.1979 59.7922 69.1979 59.2728" fill="url(#paint24_linear)"/>
<path d="M53.4849 58.6417C53.5278 58.676 53.575 58.7104 53.6222 58.7447L54.6097 58.5215C55.2021 59.028 55.7044 59.6075 55.9792 60.3158C56.8679 60.7923 57.821 60.8824 58.5293 61.2387C61.4788 62.7197 55.6744 61.4362 55.8246 63.5481C56.3269 66.3641 55.5713 72.2149 55.0991 72.2149C55.2837 69.9484 55.7216 60.6936 53.6094 58.749C53.5578 58.7147 53.5235 58.6803 53.4849 58.6417Z" fill="url(#paint25_linear)"/>
<path d="M68.9274 72.0905C69.0089 72.7301 67.6051 73.2667 65.6646 73.6058C66.9439 72.0046 66.7851 62.8871 66.3386 61.7968C65.9651 60.891 66.7293 59.1482 67.7038 57.8647L69.1978 59.2727C69.1978 59.7878 68.7385 70.661 68.9274 72.0905Z" fill="url(#paint26_linear)"/>
<path d="M67.9227 60.4917C68.3649 60.2728 68.7813 60.011 69.1849 59.7319C69.1119 61.904 68.7599 70.8069 68.9273 72.0861C68.9702 72.3994 68.6311 72.6913 68.03 72.9446C67.8283 71.0043 68.7212 65.1192 68.4078 64.2907C67.5664 62.0585 65.9736 62.0886 66.3171 61.2129C66.7678 61.1399 67.3732 60.8995 67.9227 60.4917Z" fill="url(#paint27_linear)"/>
<path d="M68.9274 72.0907C68.7428 70.6655 69.1979 59.7924 69.1979 59.2729C66.3988 62.9474 59.1261 61.8829 55.6615 60.1487C55.1764 59.904 54.7771 59.7537 54.438 59.6722C55.58 61.2347 55.2494 70.3178 55.0948 72.2195C54.8587 75.0697 69.1893 74.0953 68.9274 72.0907Z" fill="url(#paint28_linear)"/>
<path d="M40.8286 43.0807C40.2104 41.2477 44.1816 38.8396 47.7406 42.2307C48.1528 42.66 48.5606 43.1408 48.947 43.6988C49.8958 45.0596 51.188 46.1671 52.476 45.0596C53.7639 43.9478 53.7682 39.9599 53.545 37.8222L58.1258 37.2856C58.0657 38.1356 58.0399 39.8955 58.3447 39.917C58.6496 39.9385 58.9029 39.2001 58.9544 38.479C59.0059 37.7535 63.4966 41.0846 63.767 41.2134C63.9688 41.3121 65.2868 40.7884 66.871 41.4752C67.399 41.707 69.2236 43.7418 69.3524 43.7503C69.3524 43.7503 69.2279 40.9515 69.3138 39.5822C69.3997 38.2129 74.1136 43.2352 73.8603 44.7076C73.4267 47.2231 74.1436 55.5336 69.9535 59.148C65.1065 63.329 56.254 62.1485 53.0513 58.4354C49.8486 54.7265 49.1488 51.5801 46.7188 48.2619C44.6753 45.4588 41.7302 44.5659 40.8286 43.0807Z" fill="url(#paint29_linear)"/>
<path d="M69.3223 39.5826C69.4081 38.2133 69.4081 34.513 69.6357 32.5041C69.8632 30.4908 70.8506 29.525 72.5078 29.8426C74.1649 30.1603 73.9374 33.8476 73.9331 34.7448C73.9331 36.1142 74.122 43.2356 73.8644 44.708" fill="url(#paint30_linear)"/>
<path d="M63.7756 41.2099C64.5012 41.2829 64.3552 40.0208 64.4325 37.6556C64.4883 35.8484 64.5226 30.9162 64.6343 28.3148C64.7759 25.0911 65.3942 24.2283 66.9483 24.0866C68.4981 23.9492 69.1936 25.8509 69.155 27.9757C69.1249 29.77 68.9532 32.5989 68.6784 36.136C68.5153 38.2566 68.8287 43.7082 69.361 43.7511" fill="url(#paint31_linear)"/>
<path d="M53.5492 37.8179C53.3259 35.6802 53.4075 28.1766 53.283 26.1634C53.1585 24.1501 54.3692 23.1972 55.6743 23.1285C56.9794 23.0598 57.9282 23.9784 58.0141 27.9706C58.0699 30.4904 58.3532 32.7869 58.1343 37.2813L55.0904 40.1875L53.5492 37.8179Z" fill="url(#paint32_linear)"/>
<path d="M58.9587 38.4752C59.0102 37.7497 58.9329 30.7056 58.9587 29.1602C59.0102 25.9279 58.4779 21.0987 61.3801 20.8197C63.2476 20.6394 63.6468 22.3736 63.7327 23.1377C63.8186 23.9018 63.6426 32.5299 63.5824 33.3069C63.5223 34.0838 63.5052 41.0765 63.7756 41.2096" fill="url(#paint33_linear)"/>
<path d="M57.2328 23.9187C57.7007 24.6571 57.9669 25.9792 58.0098 27.971C58.0657 30.4908 58.319 32.7873 58.1301 37.2817C58.0957 38.1359 58.0442 39.8916 58.349 39.9131C56.6704 38.7841 57.5419 32.182 57.5848 29.1214C57.6278 25.8719 56.8807 23.3693 57.2328 23.9187Z" fill="url(#paint34_linear)"/>
<path d="M63.5823 33.3068C63.5265 34.0881 63.505 41.0764 63.7755 41.2095C63.7755 41.2095 62.6765 39.9818 62.8439 37.7239C63.1831 33.0879 63.3161 28.1428 63.0414 25.5158C62.7795 23.0389 63.2303 21.5752 63.4106 21.9443C63.5952 22.3135 63.7025 22.8458 63.7326 23.1377C63.8142 23.8975 63.6381 32.5256 63.5823 33.3068Z" fill="url(#paint35_linear)"/>
<path d="M69.1506 27.9752C69.1205 29.7695 68.9488 32.5984 68.674 36.1355C68.5109 38.2561 68.8243 43.7077 69.3567 43.7506C66.5918 43.785 69.4382 27.0051 67.9485 24.3394C68.7985 24.9146 69.1806 26.3826 69.1506 27.9752Z" fill="url(#paint36_linear)"/>
<path d="M69.9191 43.7336C69.7173 43.8065 69.4512 43.8023 69.3567 43.7465C69.3567 43.7465 69.2408 40.8361 69.3181 39.5783C69.4039 38.209 69.4039 34.5087 69.6315 32.4998C69.7302 31.6155 69.9792 30.9329 70.3656 30.4736C70.1381 31.4566 70.5545 31.315 70.2368 33.6931C70.0694 34.9723 71.2457 43.27 69.9191 43.7336Z" fill="url(#paint37_linear)"/>
<path d="M65.0206 34.0841C64.8532 36.2647 65.437 40.9909 64.0117 41.2012C64.338 41.0682 64.3723 39.4928 64.4282 37.6512C64.484 35.844 64.4968 30.9118 64.6299 28.3105C64.7716 25.5546 65.0979 24.8034 66.0982 24.2754C64.3595 27.1772 65.4328 28.7311 65.0206 34.0841Z" fill="url(#paint38_linear)"/>
<path d="M59.7227 30.405C59.6197 33.676 60.2551 39.4366 58.4434 39.8959C58.7052 39.78 58.9113 39.1233 58.9585 38.4751C59.0101 37.7496 58.9328 30.7055 58.9585 29.1601C58.9886 27.1555 58.7396 23.9747 59.5768 22.1675C59.1346 24.4511 59.8043 27.7565 59.7227 30.405Z" fill="url(#paint39_linear)"/>
<path d="M53.429 43.0291C53.6609 41.7113 53.6823 39.1099 53.5492 37.8179C53.326 35.6801 53.4076 28.1766 53.2831 26.1634C53.2444 25.5496 53.3303 25.0344 53.5063 24.6138C53.5578 25.5453 54 26.5927 53.8884 28.4042C53.7081 31.3103 54.1417 35.9463 54.2877 37.5431C54.4336 39.1314 55.0905 43.1536 53.429 43.0291Z" fill="url(#paint40_linear)"/>
<path d="M73.5468 38.647C73.5383 38.6213 73.534 38.6084 73.534 38.6084C72.0614 48.7948 71.0654 54.4181 65.802 60.6167C65.0592 61.4924 66.6391 61.4409 67.9185 60.4922C68.6526 60.1273 69.3395 59.6809 69.9578 59.1443C74.1479 55.5299 73.4309 47.2194 73.8645 44.7039C74.0019 43.9313 73.4567 40.4414 73.5468 38.647Z" fill="url(#paint41_radial)"/>
<path opacity="0.16" d="M50.1147 49.6229C49.3634 50.5244 51.8835 54.3277 53.7983 55.9202C55.713 57.5128 57.8682 58.0708 58.6195 57.1693C59.3708 56.2679 57.6664 54.0057 56.181 52.0096C53.618 48.567 50.8617 48.7215 50.1147 49.6229Z" fill="url(#paint42_radial)"/>
<path opacity="0.16" d="M71.4259 48.7686C72.2588 49.7688 69.7301 55.5381 67.2315 56.9891C64.7372 58.44 61.6075 57.9978 60.9978 56.8431C60.3882 55.6884 62.9813 53.8941 65.1064 51.9066C68.7685 48.4767 70.5931 47.7684 71.4259 48.7686Z" fill="url(#paint43_radial)"/>
<path d="M69.361 43.7508C69.361 43.7508 69.2451 40.8404 69.3223 39.5827C69.4082 38.2133 69.4082 34.5131 69.6357 32.5041C69.7345 31.6199 69.9835 30.9373 70.3699 30.478C70.1423 31.461 69.7817 33.3584 69.8332 37.3247C70.0135 44.3002 69.4511 43.8023 69.361 43.7508Z" fill="url(#paint44_linear)"/>
<path d="M40.8286 43.0808C40.7213 42.7675 40.7599 42.4412 40.8973 42.1279C41.3567 43.3942 42.7305 44.5961 45.023 45.2658C47.7492 46.0642 50.3122 49.3824 51.6302 52.7865C52.9482 56.1905 57.2156 58.7747 60.0792 58.2853C62.9427 57.796 69.7603 60.6334 72.0614 48.7986C72.0614 48.7943 72.0614 48.7943 72.0614 48.79C72.1473 48.0045 72.2718 47.2747 72.4736 46.6223C73.8817 42.1322 72.9415 36.0366 72.8385 33.4954C72.817 32.9975 72.465 31.3534 73.5597 30.9155C74.0449 32.1647 73.9332 34.1264 73.9332 34.7446C73.9332 36.1139 74.1221 43.2354 73.8646 44.7077C73.8302 44.9009 73.8216 45.4847 73.8002 45.7251C73.7959 45.7895 73.7873 45.8496 73.783 45.9183C73.783 45.9354 73.7787 45.9526 73.7787 45.9698C73.7744 46.0127 73.7744 46.0513 73.7701 46.0943C73.7701 46.1028 73.7701 46.1157 73.7701 46.1243C73.6628 47.7984 73.886 55.6368 69.9578 59.1481C65.1881 63.4193 56.2583 62.1487 53.0556 58.4356C49.8529 54.7267 49.1531 51.5802 46.7231 48.262C44.6753 45.4589 41.7302 44.5661 40.8286 43.0808Z" fill="url(#paint45_radial)"/>
<path d="M47.7405 42.2266C48.1527 42.6559 48.5605 43.1366 48.9469 43.6947C49.8957 45.0554 51.1879 46.1629 52.4759 45.0554C52.9825 44.6176 53.2744 43.8835 53.4247 43.0293C53.3259 47.4807 51.0334 46.5964 49.5179 45.0511C48.0067 43.5058 46.8304 40.8616 43.5032 40.8401C42.9021 40.8358 42.314 40.9646 41.8804 41.0633C43.2284 40.252 45.5596 40.149 47.7405 42.2266Z" fill="url(#paint46_radial)"/>
<path d="M53.064 58.4355C49.8613 54.7267 49.1615 51.5802 46.7316 48.262C44.6752 45.4546 41.7343 44.5617 40.8328 43.0765C40.7254 42.7631 40.7641 42.4369 40.9015 42.1235C41.3608 43.3899 43.1425 43.7934 45.0272 45.2614C47.7491 47.382 50.3164 50.3611 51.6344 53.7651C52.9524 57.1692 57.2198 58.7703 60.0833 58.281L53.064 58.4355Z" fill="url(#paint47_linear)"/>
<defs>
<linearGradient id="paint0_linear" x1="6.7156" y1="31.8007" x2="8.70288" y2="40.5188" gradientUnits="userSpaceOnUse">
<stop offset="0.00132565" stop-color="#99643E"/>
<stop offset="1" stop-color="#AE7246"/>
</linearGradient>
<linearGradient id="paint1_linear" x1="7.06994" y1="18.8665" x2="13.1402" y2="58.1259" gradientUnits="userSpaceOnUse">
<stop offset="0.3072" stop-color="#8D562E" stop-opacity="0"/>
<stop offset="1" stop-color="#804B24"/>
</linearGradient>
<linearGradient id="paint2_linear" x1="10.354" y1="16.609" x2="9.84819" y2="68.9207" gradientUnits="userSpaceOnUse">
<stop offset="0.3072" stop-color="#8D562E" stop-opacity="0"/>
<stop offset="1" stop-color="#804B24"/>
</linearGradient>
<linearGradient id="paint3_linear" x1="18.5688" y1="59.8335" x2="18.3179" y2="66.0848" gradientUnits="userSpaceOnUse">
<stop offset="0.00132565" stop-color="#99643E"/>
<stop offset="1" stop-color="#AE7246"/>
</linearGradient>
<linearGradient id="paint4_linear" x1="23.5789" y1="75.536" x2="23.5789" y2="50.0326" gradientUnits="userSpaceOnUse">
<stop offset="0.3072" stop-color="#8D562E" stop-opacity="0"/>
<stop offset="1" stop-color="#804B24"/>
</linearGradient>
<linearGradient id="paint5_linear" x1="18.713" y1="65.9592" x2="0.649528" y2="65.2001" gradientUnits="userSpaceOnUse">
<stop offset="0.3118" stop-color="#B37E53" stop-opacity="0"/>
<stop offset="1" stop-color="#B37E53"/>
</linearGradient>
<linearGradient id="paint6_linear" x1="12.2742" y1="75.5359" x2="12.2742" y2="50.0326" gradientUnits="userSpaceOnUse">
<stop offset="0.3072" stop-color="#8D562E" stop-opacity="0"/>
<stop offset="1" stop-color="#804B24"/>
</linearGradient>
<linearGradient id="paint7_linear" x1="17.3942" y1="66.3198" x2="2.58639" y2="76.1161" gradientUnits="userSpaceOnUse">
<stop offset="0.3072" stop-color="#8D562E" stop-opacity="0"/>
<stop offset="1" stop-color="#804B24"/>
</linearGradient>
<linearGradient id="paint8_linear" x1="14.8805" y1="65.9631" x2="20.3965" y2="50.1629" gradientUnits="userSpaceOnUse">
<stop offset="0.00132565" stop-color="#99643E"/>
<stop offset="1" stop-color="#AE7246"/>
</linearGradient>
<linearGradient id="paint9_linear" x1="12.4089" y1="22.303" x2="13.2829" y2="39.536" gradientUnits="userSpaceOnUse">
<stop offset="0.00132565" stop-color="#99643E"/>
<stop offset="1" stop-color="#AE7246"/>
</linearGradient>
<linearGradient id="paint10_linear" x1="25.1196" y1="26.2408" x2="23.242" y2="39.0822" gradientUnits="userSpaceOnUse">
<stop offset="0.00132565" stop-color="#99643E"/>
<stop offset="1" stop-color="#AE7246"/>
</linearGradient>
<linearGradient id="paint11_linear" x1="19.1784" y1="23.7915" x2="18.0485" y2="38.8922" gradientUnits="userSpaceOnUse">
<stop offset="0.00132565" stop-color="#99643E"/>
<stop offset="1" stop-color="#AE7246"/>
</linearGradient>
<linearGradient id="paint12_linear" x1="20.8477" y1="12.1862" x2="23.2758" y2="46.1839" gradientUnits="userSpaceOnUse">
<stop offset="0.3072" stop-color="#8D562E" stop-opacity="0"/>
<stop offset="1" stop-color="#804B24"/>
</linearGradient>
<linearGradient id="paint13_linear" x1="15.2736" y1="6.87642" x2="17.4993" y2="48.7661" gradientUnits="userSpaceOnUse">
<stop offset="0.3072" stop-color="#8D562E" stop-opacity="0"/>
<stop offset="1" stop-color="#804B24"/>
</linearGradient>
<linearGradient id="paint14_linear" x1="7.98057" y1="3.30543" x2="13.9497" y2="57.8435" gradientUnits="userSpaceOnUse">
<stop offset="0.3072" stop-color="#8D562E" stop-opacity="0"/>
<stop offset="1" stop-color="#804B24"/>
</linearGradient>
<linearGradient id="paint15_linear" x1="15.0997" y1="16.6551" x2="14.5938" y2="68.9669" gradientUnits="userSpaceOnUse">
<stop offset="0.3072" stop-color="#8D562E" stop-opacity="0"/>
<stop offset="1" stop-color="#804B24"/>
</linearGradient>
<linearGradient id="paint16_linear" x1="17.5567" y1="10.0144" x2="23.4246" y2="49.4759" gradientUnits="userSpaceOnUse">
<stop offset="0.3072" stop-color="#8D562E" stop-opacity="0"/>
<stop offset="1" stop-color="#804B24"/>
</linearGradient>
<linearGradient id="paint17_linear" x1="31.1647" y1="6.29422" x2="20.0865" y2="72.1649" gradientUnits="userSpaceOnUse">
<stop offset="0.3072" stop-color="#8D562E" stop-opacity="0"/>
<stop offset="1" stop-color="#804B24"/>
</linearGradient>
<radialGradient id="paint18_radial" cx="0" cy="0" r="1" gradientUnits="userSpaceOnUse" gradientTransform="translate(10.1744 54.3567) rotate(-13.0335) scale(14.1099 35.8064)">
<stop offset="0.6147" stop-color="#B37E53" stop-opacity="0"/>
<stop offset="1" stop-color="#B37E53"/>
</radialGradient>
<radialGradient id="paint19_radial" cx="0" cy="0" r="1" gradientUnits="userSpaceOnUse" gradientTransform="translate(25.5884 53.2711) rotate(-39.7623) scale(5.64841 2.62162)">
<stop stop-color="#F8DBBA"/>
<stop offset="1" stop-color="#CD9870" stop-opacity="0"/>
</radialGradient>
<radialGradient id="paint20_radial" cx="0" cy="0" r="1" gradientUnits="userSpaceOnUse" gradientTransform="translate(13.5226 53.7538) rotate(-138.97) scale(7.26877 3.31653)">
<stop stop-color="#F8DBBA"/>
<stop offset="1" stop-color="#CD9870" stop-opacity="0"/>
</radialGradient>
<radialGradient id="paint21_radial" cx="0" cy="0" r="1" gradientUnits="userSpaceOnUse" gradientTransform="translate(20.9876 36.3629) scale(23.6579 35.491)">
<stop offset="0.6147" stop-color="#8D562E" stop-opacity="0"/>
<stop offset="1" stop-color="#804B24"/>
</radialGradient>
<radialGradient id="paint22_radial" cx="0" cy="0" r="1" gradientUnits="userSpaceOnUse" gradientTransform="translate(32.3336 43.4096) scale(16.6467 16.6444)">
<stop stop-color="#B37E53" stop-opacity="0"/>
<stop offset="1" stop-color="#B37E53"/>
</radialGradient>
<linearGradient id="paint23_linear" x1="26.5531" y1="49.6873" x2="51.091" y2="53.9669" gradientUnits="userSpaceOnUse">
<stop stop-color="#C86F34" stop-opacity="0"/>
<stop offset="1" stop-color="#C86F34"/>
</linearGradient>
<linearGradient id="paint24_linear" x1="61.4316" y1="59.8335" x2="61.6825" y2="66.0848" gradientUnits="userSpaceOnUse">
<stop offset="0.00132565" stop-color="#99643E"/>
<stop offset="1" stop-color="#AE7246"/>
</linearGradient>
<linearGradient id="paint25_linear" x1="56.421" y1="75.536" x2="56.421" y2="50.0326" gradientUnits="userSpaceOnUse">
<stop offset="0.3072" stop-color="#8D562E" stop-opacity="0"/>
<stop offset="1" stop-color="#804B24"/>
</linearGradient>
<linearGradient id="paint26_linear" x1="61.2869" y1="65.9591" x2="79.3504" y2="65.2001" gradientUnits="userSpaceOnUse">
<stop offset="0.3118" stop-color="#B37E53" stop-opacity="0"/>
<stop offset="1" stop-color="#B37E53"/>
</linearGradient>
<linearGradient id="paint27_linear" x1="67.7257" y1="75.5359" x2="67.7257" y2="50.0325" gradientUnits="userSpaceOnUse">
<stop offset="0.3072" stop-color="#8D562E" stop-opacity="0"/>
<stop offset="1" stop-color="#804B24"/>
</linearGradient>
<linearGradient id="paint28_linear" x1="62.6062" y1="66.3197" x2="77.414" y2="76.116" gradientUnits="userSpaceOnUse">
<stop offset="0.3072" stop-color="#8D562E" stop-opacity="0"/>
<stop offset="1" stop-color="#804B24"/>
</linearGradient>
<linearGradient id="paint29_linear" x1="65.1194" y1="65.9627" x2="59.6034" y2="50.1625" gradientUnits="userSpaceOnUse">
<stop offset="0.00132565" stop-color="#99643E"/>
<stop offset="1" stop-color="#AE7246"/>
</linearGradient>
<linearGradient id="paint30_linear" x1="73.2825" y1="31.802" x2="71.2952" y2="40.5201" gradientUnits="userSpaceOnUse">
<stop offset="0.00132565" stop-color="#99643E"/>
<stop offset="1" stop-color="#AE7246"/>
</linearGradient>
<linearGradient id="paint31_linear" x1="67.5892" y1="22.3043" x2="66.7152" y2="39.5373" gradientUnits="userSpaceOnUse">
<stop offset="0.00132565" stop-color="#99643E"/>
<stop offset="1" stop-color="#AE7246"/>
</linearGradient>
<linearGradient id="paint32_linear" x1="54.8784" y1="26.242" x2="56.756" y2="39.0835" gradientUnits="userSpaceOnUse">
<stop offset="0.00132565" stop-color="#99643E"/>
<stop offset="1" stop-color="#AE7246"/>
</linearGradient>
<linearGradient id="paint33_linear" x1="60.8198" y1="23.7928" x2="61.9497" y2="38.8935" gradientUnits="userSpaceOnUse">
<stop offset="0.00132565" stop-color="#99643E"/>
<stop offset="1" stop-color="#AE7246"/>
</linearGradient>
<linearGradient id="paint34_linear" x1="59.1521" y1="12.1861" x2="56.724" y2="46.1838" gradientUnits="userSpaceOnUse">
<stop offset="0.3072" stop-color="#8D562E" stop-opacity="0"/>
<stop offset="1" stop-color="#804B24"/>
</linearGradient>
<linearGradient id="paint35_linear" x1="64.7262" y1="6.87635" x2="62.5005" y2="48.766" gradientUnits="userSpaceOnUse">
<stop offset="0.3072" stop-color="#8D562E" stop-opacity="0"/>
<stop offset="1" stop-color="#804B24"/>
</linearGradient>
<linearGradient id="paint36_linear" x1="72.0194" y1="3.30538" x2="66.0504" y2="57.8435" gradientUnits="userSpaceOnUse">
<stop offset="0.3072" stop-color="#8D562E" stop-opacity="0"/>
<stop offset="1" stop-color="#804B24"/>
</linearGradient>
<linearGradient id="paint37_linear" x1="72.93" y1="18.8664" x2="66.8597" y2="58.1259" gradientUnits="userSpaceOnUse">
<stop offset="0.3072" stop-color="#8D562E" stop-opacity="0"/>
<stop offset="1" stop-color="#804B24"/>
</linearGradient>
<linearGradient id="paint38_linear" x1="64.9003" y1="16.655" x2="65.4062" y2="68.9669" gradientUnits="userSpaceOnUse">
<stop offset="0.3072" stop-color="#8D562E" stop-opacity="0"/>
<stop offset="1" stop-color="#804B24"/>
</linearGradient>
<linearGradient id="paint39_linear" x1="62.4431" y1="10.0143" x2="56.5752" y2="49.4759" gradientUnits="userSpaceOnUse">
<stop offset="0.3072" stop-color="#8D562E" stop-opacity="0"/>
<stop offset="1" stop-color="#804B24"/>
</linearGradient>
<linearGradient id="paint40_linear" x1="48.8352" y1="6.29417" x2="59.9134" y2="72.1649" gradientUnits="userSpaceOnUse">
<stop offset="0.3072" stop-color="#8D562E" stop-opacity="0"/>
<stop offset="1" stop-color="#804B24"/>
</linearGradient>
<radialGradient id="paint41_radial" cx="0" cy="0" r="1" gradientUnits="userSpaceOnUse" gradientTransform="translate(69.8257 54.3575) rotate(-166.967) scale(14.1099 35.8064)">
<stop offset="0.6147" stop-color="#B37E53" stop-opacity="0"/>
<stop offset="1" stop-color="#B37E53"/>
</radialGradient>
<radialGradient id="paint42_radial" cx="0" cy="0" r="1" gradientUnits="userSpaceOnUse" gradientTransform="translate(54.4116 53.2713) rotate(-140.238) scale(5.64842 2.62162)">
<stop stop-color="#F8DBBA"/>
<stop offset="1" stop-color="#CD9870" stop-opacity="0"/>
</radialGradient>
<radialGradient id="paint43_radial" cx="0" cy="0" r="1" gradientUnits="userSpaceOnUse" gradientTransform="translate(66.4773 53.7541) rotate(-41.0296) scale(7.26877 3.31653)">
<stop stop-color="#F8DBBA"/>
<stop offset="1" stop-color="#CD9870" stop-opacity="0"/>
</radialGradient>
<linearGradient id="paint44_linear" x1="69.6459" y1="16.609" x2="70.1517" y2="68.9206" gradientUnits="userSpaceOnUse">
<stop offset="0.3072" stop-color="#8D562E" stop-opacity="0"/>
<stop offset="1" stop-color="#804B24"/>
</linearGradient>
<radialGradient id="paint45_radial" cx="0" cy="0" r="1" gradientUnits="userSpaceOnUse" gradientTransform="translate(59.0124 36.3629) rotate(180) scale(23.6579 35.491)">
<stop offset="0.6147" stop-color="#8D562E" stop-opacity="0"/>
<stop offset="1" stop-color="#804B24"/>
</radialGradient>
<radialGradient id="paint46_radial" cx="0" cy="0" r="1" gradientUnits="userSpaceOnUse" gradientTransform="translate(47.6662 43.409) rotate(180) scale(16.6467 16.6444)">
<stop stop-color="#B37E53" stop-opacity="0"/>
<stop offset="1" stop-color="#B37E53"/>
</radialGradient>
<linearGradient id="paint47_linear" x1="53.4467" y1="49.6872" x2="28.9088" y2="53.9669" gradientUnits="userSpaceOnUse">
<stop stop-color="#C86F34" stop-opacity="0"/>
<stop offset="1" stop-color="#C86F34"/>
</linearGradient>
</defs>
</svg>
