<svg width="80" height="80" viewBox="0 0 80 80" fill="none" xmlns="http://www.w3.org/2000/svg">
<path d="M35.1682 6.44946C35.181 6.32148 35.1298 6.19349 35.036 6.10817C34.9421 6.02285 34.8098 5.98446 34.6861 6.00579L32.8558 6.32148C32.7363 6.34281 32.6339 6.41533 32.5699 6.51772C32.5059 6.62011 32.4974 6.74808 32.5315 6.86327C33.9949 11.8119 34.9506 14.09 34.9506 14.0602C35.2023 11.7693 35.1682 6.49212 35.1682 6.44946Z" fill="#975500"/>
<path d="M23.9772 13.0748C23.9345 12.9681 23.8492 12.8828 23.7382 12.8444C23.6316 12.806 23.5121 12.8103 23.4097 12.8614L21.7501 13.6933C21.6178 13.7616 21.5282 13.8938 21.5197 14.0431C21.5111 14.1925 21.6007 14.3119 21.7117 14.4143C24.8987 17.4091 25.415 18.7956 25.4534 18.7828C25.6368 18.7316 25.5771 16.9697 23.9772 13.0748Z" fill="#975500"/>
<path d="M44.8318 6.44946C44.819 6.32148 44.8702 6.19349 44.9641 6.10817C45.058 6.02285 45.1902 5.98446 45.314 6.00579L47.1443 6.32148C47.2638 6.34281 47.3661 6.41533 47.4301 6.51772C47.4941 6.62011 47.5027 6.74808 47.4685 6.86327C46.0051 11.8162 45.0494 14.0901 45.0494 14.0602C44.7977 11.7693 44.8361 6.49212 44.8318 6.44946Z" fill="#975500"/>
<path d="M56.0228 13.0748C56.0655 12.9681 56.1508 12.8828 56.2617 12.8444C56.3684 12.806 56.4879 12.8103 56.5903 12.8614L58.2499 13.6933C58.3822 13.7616 58.4718 13.8938 58.4803 14.0431C58.4889 14.1924 58.3993 14.3119 58.2883 14.4143C55.1012 17.409 54.585 18.7955 54.5466 18.7827C54.3631 18.7315 54.4229 16.9696 56.0228 13.0748Z" fill="#975500"/>
<path d="M26.4005 58.7432C24.2886 60.6885 24.7238 69.9416 24.9073 72.2069C25.1419 75.0567 10.8107 74.084 11.0752 72.079C11.263 70.6541 10.8065 59.7798 10.8065 59.2636" fill="url(#paint0_linear)"/>
<path opacity="0.24" d="M26.52 58.6323C26.4773 58.6664 26.4304 58.7005 26.3835 58.7389L25.3979 58.5171C24.8049 59.0248 24.3057 59.6049 24.0284 60.3088C23.1409 60.7866 22.1852 60.8762 21.4813 61.2303C18.5331 62.7106 24.3356 61.4265 24.1862 63.5425C23.6828 66.3624 24.4422 72.2069 24.9115 72.2069C24.7238 69.9374 24.2886 60.6842 26.4048 58.7432C26.4432 58.7048 26.4816 58.6707 26.52 58.6323Z" fill="url(#paint1_linear)"/>
<path d="M11.0752 72.0786C10.9899 72.7185 12.3979 73.2518 14.3349 73.5931C13.0549 71.9933 13.2128 62.8766 13.6607 61.7845C14.0319 60.8758 13.2725 59.1353 12.2955 57.8555L10.8022 59.2633C10.8065 59.7795 11.263 70.6537 11.0752 72.0786Z" fill="url(#paint2_linear)"/>
<path opacity="0.24" d="M12.0822 60.4835C11.6427 60.2616 11.2246 60.0057 10.8193 59.7241C10.8918 61.8998 11.2459 70.7989 11.0753 72.0787C11.0326 72.3944 11.3739 72.6845 11.9755 72.9362C12.176 70.9951 11.2843 65.1122 11.6 64.2846C12.4448 62.0534 14.0319 62.0833 13.6906 61.2045C13.2341 61.1319 12.6325 60.893 12.0822 60.4835Z" fill="url(#paint3_linear)"/>
<path d="M11.0752 72.0785C11.263 70.6536 10.8065 59.7794 10.8065 59.2632C13.6053 62.9406 20.8797 61.874 24.3441 60.1377C24.8305 59.8946 25.2272 59.7452 25.5686 59.6642C24.4251 61.2298 24.7537 70.3081 24.9115 72.2108C25.1462 75.0562 10.815 74.0836 11.0752 72.0785Z" fill="url(#paint4_linear)"/>
<path d="M39.1701 43.0692C39.7888 41.239 35.8167 38.8245 32.2584 42.216C31.8488 42.6426 31.4392 43.1246 31.051 43.6835C30.0996 45.0444 28.8111 46.1535 27.5226 45.0444C26.2341 43.9352 26.2298 39.9422 26.4517 37.8049L21.8737 37.2759C21.9335 38.1248 21.9591 39.8824 21.6562 39.908C21.349 39.9294 21.0972 39.1913 21.046 38.4661C20.9948 37.7409 16.5022 41.0684 16.2334 41.2006C16.0286 41.2988 14.7146 40.774 13.1317 41.4651C12.6026 41.6955 10.7808 43.7304 10.6486 43.7432C10.6486 43.7432 10.7723 40.9447 10.687 39.5753C10.6016 38.2059 5.88716 43.227 6.13888 44.6988C6.57407 47.2158 5.85729 55.5261 10.0427 59.1394C14.8895 63.3201 23.7382 62.1385 26.9424 58.427C30.1422 54.7155 30.8462 51.5714 33.2738 48.2567C35.326 45.4497 38.2699 44.558 39.1701 43.0692Z" fill="url(#paint5_linear)"/>
<path d="M10.6827 39.5711C10.5974 38.2017 10.5974 34.503 10.3713 32.4937C10.1452 30.4844 9.15532 29.516 7.49992 29.836C5.84452 30.1559 6.07064 33.8418 6.07064 34.7377C6.07064 36.1071 5.88292 43.2314 6.13891 44.7032" fill="url(#paint6_linear)"/>
<path d="M16.2292 41.2009C15.5039 41.2777 15.649 40.0107 15.5764 37.6473C15.521 35.8385 15.4868 30.9069 15.3716 28.3088C15.2308 25.0837 14.6079 24.2219 13.0592 24.0811C11.5062 23.9446 10.815 25.8473 10.8534 27.9675C10.8833 29.7593 11.0539 32.592 11.327 36.1286C11.4891 38.2488 11.1777 43.7009 10.6443 43.7392" fill="url(#paint7_linear)"/>
<path d="M26.456 37.8092C26.6778 35.6719 26.5968 28.1679 26.7247 26.1543C26.8485 24.1407 25.6368 23.1894 24.3355 23.1211C23.0342 23.0529 22.0828 23.9743 21.9975 27.9631C21.942 30.4801 21.6561 32.7795 21.878 37.2716L24.92 40.1768L26.456 37.8092Z" fill="url(#paint8_linear)"/>
<path d="M21.0418 38.4661C20.9906 37.7408 21.0674 30.6976 21.0418 29.149C20.9906 25.9153 21.5239 21.0904 18.6227 20.8088C16.754 20.6296 16.3572 22.3617 16.2719 23.1253C16.1865 23.8889 16.3657 32.5149 16.4212 33.2956C16.4766 34.0763 16.498 41.0684 16.2292 41.1964" fill="url(#paint9_linear)"/>
<path opacity="0.5" d="M22.7697 23.9146C22.3046 24.6527 22.0358 25.9751 21.9932 27.9674C21.9377 30.4843 21.686 32.7837 21.8737 37.2759C21.9079 38.1291 21.9591 39.8825 21.6561 39.908C23.3371 38.7775 22.4625 32.178 22.4241 29.1192C22.3772 25.8642 23.1195 23.36 22.7697 23.9146Z" fill="url(#paint10_linear)"/>
<path opacity="0.5" d="M16.4212 33.2959C16.4766 34.0766 16.498 41.0687 16.2292 41.1967C16.2292 41.1967 17.3299 39.9723 17.1635 37.7113C16.8222 33.0783 16.69 28.1297 16.9673 25.5018C17.2275 23.0275 16.7796 21.5599 16.5961 21.9311C16.4126 22.298 16.306 22.8312 16.2719 23.1256C16.1865 23.8892 16.3657 32.5195 16.4212 33.2959Z" fill="url(#paint11_linear)"/>
<path opacity="0.5" d="M10.8491 27.9676C10.879 29.7593 11.0497 32.592 11.3227 36.1286C11.4848 38.2488 11.1734 43.7008 10.6401 43.7392C13.4005 43.7733 10.5547 26.9949 12.048 24.3286C11.2075 24.9088 10.8235 26.3763 10.8491 27.9676Z" fill="url(#paint12_linear)"/>
<path opacity="0.5" d="M10.0812 43.7262C10.286 43.7988 10.5505 43.7945 10.6443 43.739C10.6443 43.739 10.7595 40.8296 10.6827 39.5711C10.5974 38.2017 10.5974 34.503 10.3713 32.4937C10.2732 31.6106 10.0257 30.928 9.63745 30.4673C9.86358 31.4485 9.44973 31.3077 9.76545 33.6882C9.93184 34.9637 8.75855 43.2612 10.0812 43.7262Z" fill="url(#paint13_linear)"/>
<path opacity="0.5" d="M14.9834 34.0764C15.1497 36.2564 14.5652 40.9832 15.9945 41.1965C15.666 41.0642 15.6361 39.4858 15.5764 37.6471C15.5209 35.8383 15.5081 30.9067 15.3716 28.3087C15.2308 25.5528 14.9023 24.8019 13.8997 24.2729C15.6447 27.1696 14.5738 28.7267 14.9834 34.0764Z" fill="url(#paint14_linear)"/>
<path opacity="0.5" d="M20.2823 30.3949C20.3847 33.6669 19.749 39.4261 21.558 39.8826C21.2978 39.7674 21.0887 39.1104 21.0418 38.462C20.9863 37.7367 21.0674 30.6935 21.0418 29.1449C21.0119 27.1398 21.2594 23.9574 20.4231 22.1528C20.8668 24.4437 20.197 27.7456 20.2823 30.3949Z" fill="url(#paint15_linear)"/>
<path opacity="0.5" d="M26.5712 43.022C26.5712 43.022 26.5754 43.022 26.5712 43.022C26.3408 41.7038 26.3152 39.1058 26.4517 37.8089C26.6736 35.6716 26.5925 28.1676 26.7205 26.154C26.7589 25.5397 26.6736 25.0278 26.4987 24.6055C26.4432 25.5355 26.0037 26.5849 26.1189 28.3937C26.2981 31.2989 25.8672 35.9361 25.7179 37.5316C25.5686 39.1228 24.9115 43.1457 26.5712 43.022Z" fill="url(#paint16_linear)"/>
<path d="M6.45461 38.637C6.46314 38.6114 6.46741 38.5986 6.46741 38.5986C7.94362 48.786 8.93345 54.4087 14.1983 60.6073C14.9407 61.4818 13.3621 61.4349 12.0821 60.4835C11.3483 60.1167 10.6614 59.673 10.0427 59.1355C5.85303 55.5221 6.5698 47.2118 6.13889 44.6948C6.00236 43.9227 6.5442 40.433 6.45461 38.637Z" fill="url(#paint17_radial)"/>
<path opacity="0.48" d="M29.8905 49.6135C30.6414 50.5136 28.1199 54.319 26.2085 55.9103C24.2971 57.5015 22.1383 58.0604 21.3874 57.1602C20.6365 56.2601 22.3388 53.999 23.8236 52.0025C26.3835 48.5555 29.1396 48.7133 29.8905 49.6135Z" fill="url(#paint18_radial)"/>
<path opacity="0.48" d="M8.57932 48.7601C7.74735 49.7626 10.2774 55.5261 12.7733 56.9809C15.2692 58.4313 18.3965 57.9877 19.0066 56.8315C19.6168 55.6754 17.0227 53.8837 14.898 51.8957C11.2374 48.47 9.41129 47.7576 8.57932 48.7601Z" fill="url(#paint19_radial)"/>
<path opacity="0.5" d="M10.6443 43.739C10.6443 43.739 10.7595 40.8295 10.6827 39.5711C10.5974 38.2017 10.5974 34.503 10.3713 32.4937C10.2732 31.6106 10.0257 30.928 9.63745 30.4673C9.86358 31.4485 10.2262 33.3469 10.175 37.3143C9.99157 44.2936 10.5547 43.7944 10.6443 43.739Z" fill="url(#paint20_linear)"/>
<path opacity="0.24" d="M39.1702 43.0696C39.2768 42.7582 39.2384 42.4297 39.1019 42.1182C38.6411 43.381 37.2673 44.584 34.9762 45.2538C32.2499 46.0516 29.69 49.3706 28.3674 52.7707C27.049 56.175 22.7825 58.756 19.9197 58.2654C17.0569 57.7748 10.239 60.6117 7.93936 48.7819C7.93936 48.7776 7.93936 48.7776 7.93936 48.7733C7.85403 47.9884 7.73031 47.2546 7.52551 46.6062C6.11757 42.1182 7.0562 36.022 7.16286 33.4794C7.18419 32.9803 7.53831 31.3378 6.44182 30.8984C5.95971 32.1484 6.06637 34.1108 6.06637 34.7294C6.06637 36.0988 5.87864 43.2232 6.13463 44.695C6.16877 44.8869 6.1773 45.4714 6.19863 45.7103C6.2029 45.7743 6.21143 45.8383 6.2157 45.9023C6.2157 45.9193 6.21996 45.9364 6.21996 45.9535C6.22423 45.9961 6.22423 46.0388 6.2285 46.0815C6.2285 46.09 6.2285 46.1028 6.2285 46.1113C6.33516 47.7879 6.1133 55.6204 10.0385 59.1357C14.8084 63.406 23.734 62.1347 26.9381 58.4232C30.138 54.7117 30.842 51.5676 33.2696 48.2529C35.326 45.4501 38.2699 44.5585 39.1702 43.0696Z" fill="url(#paint21_linear)"/>
<path opacity="0.5" d="M32.2584 42.2204C31.8488 42.6471 31.4392 43.1291 31.051 43.688C30.0996 45.0488 28.8111 46.158 27.5226 45.0488C27.0149 44.6094 26.7205 43.8799 26.5712 43.0225C26.6736 47.4719 28.9647 46.5931 30.475 45.0445C31.9896 43.5002 33.1586 40.8553 36.4908 40.834C37.0924 40.8297 37.6769 40.9577 38.112 41.0558C36.7724 40.241 34.4429 40.1386 32.2584 42.2204Z" fill="url(#paint22_linear)"/>
<path opacity="0.24" d="M26.9381 58.4275C30.1379 54.716 30.8419 51.5719 33.2696 48.2572C35.326 45.4501 38.2656 44.5585 39.1701 43.0739C39.2768 42.7625 39.2384 42.434 39.1019 42.1226C38.6411 43.3853 36.862 43.7949 34.9762 45.2581C32.2541 47.3784 29.69 50.3561 28.3674 53.7604C27.049 57.1648 22.7825 58.7645 19.9197 58.2739L26.9381 58.4275Z" fill="url(#paint23_linear)"/>
<path d="M53.5995 58.7432C55.7114 60.6885 55.2762 69.9416 55.0928 72.2069C54.8581 75.0567 69.1893 74.084 68.9248 72.079C68.737 70.6541 69.1936 59.7798 69.1936 59.2636" fill="url(#paint24_linear)"/>
<path opacity="0.24" d="M53.48 58.6323C53.5227 58.6664 53.5696 58.7005 53.6166 58.7389L54.6021 58.5171C55.1952 59.0248 55.6944 59.6049 55.9717 60.3088C56.8591 60.7866 57.8148 60.8762 58.5188 61.2303C61.467 62.7106 55.6645 61.4265 55.8138 63.5425C56.3173 66.3624 55.5578 72.2069 55.0885 72.2069C55.2762 69.9374 55.7114 60.6842 53.5952 58.7432C53.5568 58.7048 53.5227 58.6707 53.48 58.6323Z" fill="url(#paint25_linear)"/>
<path d="M68.9248 72.0786C69.0101 72.7185 67.6022 73.2518 65.6652 73.5931C66.9451 71.9933 66.7872 62.8766 66.3393 61.7845C65.9681 60.8758 66.7275 59.1353 67.7045 57.8555L69.1978 59.2633C69.1936 59.7795 68.737 70.6537 68.9248 72.0786Z" fill="url(#paint26_linear)"/>
<path opacity="0.24" d="M67.9178 60.4835C68.3573 60.2616 68.7754 60.0057 69.1807 59.7241C69.1082 61.8998 68.7541 70.7989 68.9247 72.0787C68.9674 72.3944 68.6261 72.6845 68.0245 72.9362C67.824 70.9951 68.7157 65.1122 68.4 64.2846C67.5552 62.0534 65.9681 62.0833 66.3094 61.2045C66.7659 61.1319 67.3675 60.893 67.9178 60.4835Z" fill="url(#paint27_linear)"/>
<path d="M68.9248 72.0785C68.737 70.6536 69.1936 59.7794 69.1936 59.2632C66.3947 62.9406 59.1203 61.874 55.6559 60.1377C55.1696 59.8946 54.7728 59.7452 54.4315 59.6642C55.5749 61.2298 55.2464 70.3081 55.0885 72.2108C54.8538 75.0562 69.185 74.0836 68.9248 72.0785Z" fill="url(#paint28_linear)"/>
<path d="M40.8298 43.0689C40.2112 41.2388 44.1833 38.8242 47.7416 42.2157C48.1512 42.6423 48.5607 43.1244 48.949 43.6832C49.9004 45.0441 51.1889 46.1533 52.4774 45.0441C53.7659 43.9349 53.7701 39.9419 53.5483 37.8046L58.1305 37.2671C58.0708 38.116 58.0452 39.8736 58.3481 39.8992C58.6553 39.9206 58.907 39.1825 58.9582 38.4573C59.0094 37.7321 63.502 41.0596 63.7708 41.1919C63.9756 41.29 65.2897 40.7653 66.8726 41.4564C67.4016 41.6867 69.2234 43.7216 69.3557 43.7344C69.3557 43.7344 69.232 40.9359 69.3173 39.5665C69.4026 38.1971 74.1171 43.2182 73.8654 44.69C73.4302 47.207 74.147 55.5173 69.9615 59.1307C65.1148 63.3114 56.266 62.1297 53.0619 58.4182C49.862 54.7068 49.1581 51.5627 46.7304 48.2479C44.674 45.4494 41.7343 44.5578 40.8298 43.0689Z" fill="url(#paint29_linear)"/>
<path d="M69.3173 39.5711C69.4026 38.2017 69.4026 34.503 69.6287 32.4937C69.8548 30.4844 70.8447 29.516 72.5 29.836C74.1554 30.1559 73.9293 33.8418 73.9293 34.7377C73.9293 36.1071 74.117 43.2314 73.861 44.7032" fill="url(#paint30_linear)"/>
<path d="M63.7708 41.2008C64.4961 41.2776 64.3511 40.0106 64.4236 37.6472C64.4791 35.8384 64.5132 30.9068 64.6284 28.3088C64.7692 25.0836 65.3921 24.2218 66.9408 24.0811C68.4896 23.9403 69.185 25.8472 69.1466 27.9675C69.1167 29.7592 68.9461 32.5919 68.673 36.1285C68.5109 38.2487 68.8224 43.7008 69.3557 43.7392" fill="url(#paint31_linear)"/>
<path d="M53.5483 37.8092C53.3264 35.6719 53.4075 28.1679 53.2795 26.1543C53.1515 24.1407 54.3674 23.1894 55.6687 23.1211C56.97 23.0529 57.9214 23.9743 58.0068 27.9631C58.0622 30.4801 58.3481 32.7795 58.1262 37.2716L55.0842 40.1768L53.5483 37.8092Z" fill="url(#paint32_linear)"/>
<path d="M58.9582 38.4661C59.0094 37.7408 58.9326 30.6976 58.9582 29.149C59.0094 25.9153 58.4761 21.0904 61.3773 20.8088C63.246 20.6296 63.6428 22.3617 63.7281 23.1253C63.8135 23.8889 63.6343 32.5149 63.5788 33.2956C63.5233 34.0763 63.502 41.0684 63.7708 41.2006" fill="url(#paint33_linear)"/>
<path opacity="0.5" d="M57.2303 23.9146C57.6953 24.6527 57.9641 25.9751 58.0068 27.9674C58.0622 30.4843 58.3139 32.7837 58.1262 37.2759C58.0921 38.1291 58.0409 39.8825 58.3438 39.908C56.6628 38.7775 57.5375 32.178 57.5758 29.1192C57.627 25.8642 56.8804 23.36 57.2303 23.9146Z" fill="url(#paint34_linear)"/>
<path opacity="0.5" d="M63.5788 33.2955C63.5234 34.0762 63.502 41.0683 63.7708 41.2005C63.7708 41.2005 62.6701 39.9762 62.8365 37.7152C63.1778 33.0779 63.31 28.1336 63.0327 25.5057C62.7725 23.0314 63.2204 21.5639 63.4039 21.935C63.5873 22.3019 63.694 22.8351 63.7281 23.1295C63.8135 23.8889 63.6343 32.5191 63.5788 33.2955Z" fill="url(#paint35_linear)"/>
<path opacity="0.5" d="M69.1508 27.9676C69.121 29.7593 68.9503 32.592 68.6773 36.1286C68.5151 38.2488 68.8266 43.7008 69.3599 43.7392C66.5995 43.7733 69.4452 26.9949 67.952 24.3286C68.7925 24.9088 69.1764 26.3763 69.1508 27.9676Z" fill="url(#paint36_linear)"/>
<path opacity="0.5" d="M69.9189 43.7262C69.7141 43.7988 69.4496 43.7945 69.3557 43.739C69.3557 43.739 69.2405 40.8296 69.3173 39.5711C69.4026 38.2017 69.4026 34.503 69.6287 32.4937C69.7269 31.6106 69.9743 30.928 70.3626 30.4673C70.1365 31.4485 70.5503 31.3077 70.2346 33.6882C70.0682 34.9637 71.2415 43.2612 69.9189 43.7262Z" fill="url(#paint37_linear)"/>
<path opacity="0.5" d="M65.0167 34.0764C64.8503 36.2564 65.4348 40.9832 64.0055 41.1965C64.334 41.0642 64.3639 39.4858 64.4236 37.6471C64.4791 35.8383 64.4919 30.9067 64.6284 28.3087C64.7692 25.5528 65.0977 24.8019 66.1004 24.2729C64.3596 27.1696 65.4305 28.7267 65.0167 34.0764Z" fill="url(#paint38_linear)"/>
<path opacity="0.5" d="M59.7176 30.3949C59.6152 33.6669 60.251 39.4261 58.442 39.8826C58.7022 39.7674 58.9113 39.1104 58.9582 38.462C59.0137 37.7367 58.9326 30.6935 58.9582 29.1449C58.9881 27.1398 58.7406 23.9574 59.5768 22.1528C59.1331 24.4437 59.803 27.7456 59.7176 30.3949Z" fill="url(#paint39_linear)"/>
<path opacity="0.5" d="M53.4288 43.0221C53.6592 41.7038 53.6848 39.1058 53.5482 37.8089C53.3264 35.6716 53.4075 28.1676 53.2795 26.1541C53.2411 25.5397 53.3264 25.0278 53.5013 24.6055C53.5568 25.5355 53.9962 26.5849 53.881 28.3937C53.7018 31.2989 54.1328 35.9361 54.2821 37.5316C54.4314 39.1271 55.0885 43.1458 53.4288 43.0221Z" fill="url(#paint40_linear)"/>
<path d="M73.5453 38.637C73.5368 38.6114 73.5326 38.5986 73.5326 38.5986C72.0563 48.786 71.0665 54.4087 65.8017 60.6073C65.0593 61.4818 66.6379 61.4349 67.9178 60.4835C68.6517 60.1167 69.3386 59.673 69.9572 59.1355C74.1469 55.5221 73.4302 47.2118 73.8611 44.6948C73.9976 43.9227 73.4558 40.433 73.5453 38.637Z" fill="url(#paint41_radial)"/>
<path opacity="0.48" d="M50.1137 49.6135C49.3628 50.5136 51.8843 54.319 53.7957 55.9103C55.7071 57.5015 57.8659 58.0604 58.6168 57.1602C59.3677 56.2601 57.6654 53.999 56.1807 52.0025C53.6165 48.5555 50.8646 48.7133 50.1137 49.6135Z" fill="url(#paint42_radial)"/>
<path opacity="0.48" d="M71.4207 48.7601C72.2526 49.7626 69.7226 55.5261 67.2267 56.9809C64.7308 58.4313 61.6035 57.9877 60.9934 56.8315C60.3833 55.6754 62.9773 53.8837 65.102 51.8957C68.7626 48.47 70.5887 47.7576 71.4207 48.7601Z" fill="url(#paint43_radial)"/>
<path opacity="0.5" d="M69.3557 43.739C69.3557 43.739 69.2405 40.8295 69.3173 39.5711C69.4026 38.2017 69.4026 34.503 69.6287 32.4937C69.7269 31.6106 69.9743 30.928 70.3626 30.4673C70.1365 31.4485 69.7738 33.3469 69.825 37.3143C70.0085 44.2936 69.4496 43.7944 69.3557 43.739Z" fill="url(#paint44_linear)"/>
<path opacity="0.24" d="M40.8298 43.0694C40.7232 42.758 40.7616 42.4295 40.8981 42.1181C41.3589 43.3808 42.7327 44.5839 45.0238 45.2536C47.7501 46.0514 50.31 49.3704 51.6326 52.7704C52.951 56.1748 57.2175 58.7557 60.0803 58.2651C62.9431 57.7745 69.761 60.6115 72.0606 48.7774C72.0606 48.7731 72.0606 48.7731 72.0606 48.7689C72.146 47.9839 72.2697 47.2501 72.4745 46.6017C73.8824 42.1138 72.9438 36.0176 72.8371 33.475C72.8158 32.9759 72.4617 31.3334 73.5582 30.894C74.0403 32.144 73.9336 34.1064 73.9336 34.725C73.9336 36.0944 74.1214 43.2187 73.8654 44.6905C73.8312 44.8825 73.8227 45.4669 73.8014 45.7058C73.7971 45.7698 73.7886 45.8338 73.7843 45.8978C73.7843 45.9149 73.78 45.9319 73.78 45.949C73.7758 45.9917 73.7758 46.0343 73.7715 46.077C73.7715 46.0855 73.7715 46.0983 73.7715 46.1068C73.6648 47.7834 73.8867 55.6159 69.9615 59.1312C65.1916 63.4015 56.266 62.1302 53.0619 58.4187C49.862 54.7072 49.158 51.5631 46.7304 48.2484C44.6739 45.4499 41.7343 44.5583 40.8298 43.0694Z" fill="url(#paint45_linear)"/>
<path opacity="0.5" d="M47.7416 42.2201C48.1512 42.6467 48.5607 43.1288 48.949 43.6876C49.9004 45.0485 51.1889 46.1577 52.4774 45.0485C52.9851 44.6091 53.2795 43.8796 53.4288 43.0221C53.3264 47.4717 51.0353 46.5928 49.525 45.0442C48.0104 43.4999 46.8413 40.855 43.5092 40.8336C42.9076 40.8294 42.3231 40.9573 41.8879 41.0555C43.2276 40.2449 45.5614 40.1383 47.7416 42.2201Z" fill="url(#paint46_linear)"/>
<path opacity="0.24" d="M53.0619 58.4275C49.862 54.716 49.158 51.5719 46.7304 48.2572C44.6739 45.4501 41.7343 44.5585 40.8298 43.0739C40.7232 42.7625 40.7616 42.434 40.8981 42.1226C41.3589 43.3853 43.138 43.7949 45.0238 45.2581C47.7458 47.3784 50.31 50.3561 51.6326 53.7604C52.951 57.1648 57.2175 58.7645 60.0803 58.2739L53.0619 58.4275Z" fill="url(#paint47_linear)"/>
<defs>
<linearGradient id="paint0_linear" x1="18.5717" y1="59.8237" x2="18.3208" y2="66.0745" gradientUnits="userSpaceOnUse">
<stop offset="0.00132565" stop-color="#5A4539"/>
<stop offset="1" stop-color="#695042"/>
</linearGradient>
<linearGradient id="paint1_linear" x1="23.5812" y1="71.8827" x2="23.5812" y2="57.3129" gradientUnits="userSpaceOnUse">
<stop offset="0.00132565" stop-color="#473226"/>
<stop offset="1" stop-color="#3D2A20"/>
</linearGradient>
<linearGradient id="paint2_linear" x1="18.7159" y1="65.9486" x2="0.654426" y2="65.1897" gradientUnits="userSpaceOnUse">
<stop offset="0.3118" stop-color="#B37E53" stop-opacity="0"/>
<stop offset="1" stop-color="#B37E53"/>
</linearGradient>
<linearGradient id="paint3_linear" x1="12.2777" y1="71.8825" x2="12.2777" y2="57.3126" gradientUnits="userSpaceOnUse">
<stop offset="0.00132565" stop-color="#473226"/>
<stop offset="1" stop-color="#3D2A20"/>
</linearGradient>
<linearGradient id="paint4_linear" x1="17.3972" y1="66.3089" x2="2.5908" y2="76.104" gradientUnits="userSpaceOnUse">
<stop offset="0.3045" stop-color="#3D2A20" stop-opacity="0"/>
<stop offset="1" stop-color="#3D2A20"/>
</linearGradient>
<linearGradient id="paint5_linear" x1="14.8838" y1="65.9523" x2="20.3994" y2="50.1536" gradientUnits="userSpaceOnUse">
<stop offset="0.00132565" stop-color="#5A4539"/>
<stop offset="1" stop-color="#695042"/>
</linearGradient>
<linearGradient id="paint6_linear" x1="6.71983" y1="31.793" x2="8.70697" y2="40.5103" gradientUnits="userSpaceOnUse">
<stop offset="0.00132565" stop-color="#5A4539"/>
<stop offset="1" stop-color="#695042"/>
</linearGradient>
<linearGradient id="paint7_linear" x1="12.4126" y1="22.2958" x2="13.2866" y2="39.5274" gradientUnits="userSpaceOnUse">
<stop offset="0.00132565" stop-color="#5A4539"/>
<stop offset="1" stop-color="#695042"/>
</linearGradient>
<linearGradient id="paint8_linear" x1="25.1218" y1="26.2339" x2="23.2443" y2="39.0741" gradientUnits="userSpaceOnUse">
<stop offset="0.00132565" stop-color="#5A4539"/>
<stop offset="1" stop-color="#695042"/>
</linearGradient>
<linearGradient id="paint9_linear" x1="19.1812" y1="23.7842" x2="18.0514" y2="38.8836" gradientUnits="userSpaceOnUse">
<stop offset="0.00132565" stop-color="#5A4539"/>
<stop offset="1" stop-color="#695042"/>
</linearGradient>
<linearGradient id="paint10_linear" x1="22.2592" y1="10.773" x2="22.2592" y2="40.609" gradientUnits="userSpaceOnUse">
<stop offset="0.3072" stop-color="#473226" stop-opacity="0"/>
<stop offset="1" stop-color="#473226"/>
</linearGradient>
<linearGradient id="paint11_linear" x1="16.7044" y1="10.7731" x2="16.7044" y2="40.6093" gradientUnits="userSpaceOnUse">
<stop offset="0.3072" stop-color="#473226" stop-opacity="0"/>
<stop offset="1" stop-color="#473226"/>
</linearGradient>
<linearGradient id="paint12_linear" x1="11.3493" y1="10.7731" x2="11.3493" y2="40.6093" gradientUnits="userSpaceOnUse">
<stop offset="0.3072" stop-color="#473226" stop-opacity="0"/>
<stop offset="1" stop-color="#473226"/>
</linearGradient>
<linearGradient id="paint13_linear" x1="10.0773" y1="10.7729" x2="10.0773" y2="40.6091" gradientUnits="userSpaceOnUse">
<stop offset="0.3072" stop-color="#473226" stop-opacity="0"/>
<stop offset="1" stop-color="#473226"/>
</linearGradient>
<linearGradient id="paint14_linear" x1="14.9473" y1="10.7729" x2="14.9473" y2="40.6091" gradientUnits="userSpaceOnUse">
<stop offset="0.3072" stop-color="#473226" stop-opacity="0"/>
<stop offset="1" stop-color="#473226"/>
</linearGradient>
<linearGradient id="paint15_linear" x1="20.9064" y1="10.7731" x2="20.9064" y2="40.6092" gradientUnits="userSpaceOnUse">
<stop offset="0.3072" stop-color="#473226" stop-opacity="0"/>
<stop offset="1" stop-color="#473226"/>
</linearGradient>
<linearGradient id="paint16_linear" x1="26.0974" y1="10.7727" x2="26.0974" y2="40.6088" gradientUnits="userSpaceOnUse">
<stop offset="0.3072" stop-color="#473226" stop-opacity="0"/>
<stop offset="1" stop-color="#473226"/>
</linearGradient>
<radialGradient id="paint17_radial" cx="0" cy="0" r="1" gradientUnits="userSpaceOnUse" gradientTransform="translate(10.1621 54.3626) rotate(-13.0349) scale(14.1094 35.8036)">
<stop offset="0.6147" stop-color="#B37E53" stop-opacity="0"/>
<stop offset="1" stop-color="#B37E53"/>
</radialGradient>
<radialGradient id="paint18_radial" cx="0" cy="0" r="1" gradientUnits="userSpaceOnUse" gradientTransform="translate(25.6009 53.262) rotate(-39.7615) scale(5.64744 2.62116)">
<stop stop-color="#695042"/>
<stop offset="1" stop-color="#695042" stop-opacity="0"/>
</radialGradient>
<radialGradient id="paint19_radial" cx="0" cy="0" r="1" gradientUnits="userSpaceOnUse" gradientTransform="translate(13.5096 53.7306) rotate(-138.972) scale(7.26779 3.31601)">
<stop stop-color="#695042"/>
<stop offset="1" stop-color="#695042" stop-opacity="0"/>
</radialGradient>
<linearGradient id="paint20_linear" x1="10.3578" y1="16.6025" x2="9.85201" y2="68.9096" gradientUnits="userSpaceOnUse">
<stop offset="0.3072" stop-color="#473226" stop-opacity="0"/>
<stop offset="1" stop-color="#473226"/>
</linearGradient>
<linearGradient id="paint21_linear" x1="6.00237" y1="46.3622" x2="39.2316" y2="46.3622" gradientUnits="userSpaceOnUse">
<stop offset="0.00132565" stop-color="#473226"/>
<stop offset="1" stop-color="#3D2A20"/>
</linearGradient>
<linearGradient id="paint22_linear" x1="35.9954" y1="37.3438" x2="31.2151" y2="43.4906" gradientUnits="userSpaceOnUse">
<stop offset="0.3072" stop-color="#473226" stop-opacity="0"/>
<stop offset="1" stop-color="#473226"/>
</linearGradient>
<linearGradient id="paint23_linear" x1="26.555" y1="49.6786" x2="51.0902" y2="53.9577" gradientUnits="userSpaceOnUse">
<stop offset="0.00132565" stop-color="#473226"/>
<stop offset="1" stop-color="#3D2A20"/>
</linearGradient>
<linearGradient id="paint24_linear" x1="61.4295" y1="59.827" x2="61.6805" y2="66.0778" gradientUnits="userSpaceOnUse">
<stop offset="0.00132565" stop-color="#5A4539"/>
<stop offset="1" stop-color="#695042"/>
</linearGradient>
<linearGradient id="paint25_linear" x1="56.4197" y1="71.8812" x2="56.4195" y2="57.3113" gradientUnits="userSpaceOnUse">
<stop offset="0.00132565" stop-color="#473226"/>
<stop offset="1" stop-color="#3D2A20"/>
</linearGradient>
<linearGradient id="paint26_linear" x1="61.285" y1="65.9471" x2="79.3464" y2="65.1881" gradientUnits="userSpaceOnUse">
<stop offset="0.3118" stop-color="#B37E53" stop-opacity="0"/>
<stop offset="1" stop-color="#B37E53"/>
</linearGradient>
<linearGradient id="paint27_linear" x1="67.7231" y1="71.8808" x2="67.723" y2="57.311" gradientUnits="userSpaceOnUse">
<stop offset="0.00132565" stop-color="#473226"/>
<stop offset="1" stop-color="#3D2A20"/>
</linearGradient>
<linearGradient id="paint28_linear" x1="62.604" y1="66.3122" x2="77.4104" y2="76.1072" gradientUnits="userSpaceOnUse">
<stop offset="0.3045" stop-color="#3D2A20" stop-opacity="0"/>
<stop offset="1" stop-color="#3D2A20"/>
</linearGradient>
<linearGradient id="paint29_linear" x1="65.117" y1="65.9504" x2="59.6013" y2="50.1518" gradientUnits="userSpaceOnUse">
<stop offset="0.00132565" stop-color="#5A4539"/>
<stop offset="1" stop-color="#695042"/>
</linearGradient>
<linearGradient id="paint30_linear" x1="73.2795" y1="31.7907" x2="71.2924" y2="40.5079" gradientUnits="userSpaceOnUse">
<stop offset="0.00132565" stop-color="#5A4539"/>
<stop offset="1" stop-color="#695042"/>
</linearGradient>
<linearGradient id="paint31_linear" x1="67.5868" y1="22.2934" x2="66.7128" y2="39.525" gradientUnits="userSpaceOnUse">
<stop offset="0.00132565" stop-color="#5A4539"/>
<stop offset="1" stop-color="#695042"/>
</linearGradient>
<linearGradient id="paint32_linear" x1="54.8776" y1="26.2316" x2="56.755" y2="39.0718" gradientUnits="userSpaceOnUse">
<stop offset="0.00132565" stop-color="#5A4539"/>
<stop offset="1" stop-color="#695042"/>
</linearGradient>
<linearGradient id="paint33_linear" x1="60.8181" y1="23.7818" x2="61.948" y2="38.8813" gradientUnits="userSpaceOnUse">
<stop offset="0.00132565" stop-color="#5A4539"/>
<stop offset="1" stop-color="#695042"/>
</linearGradient>
<linearGradient id="paint34_linear" x1="57.7416" y1="10.7715" x2="57.7419" y2="40.6075" gradientUnits="userSpaceOnUse">
<stop offset="0.3072" stop-color="#473226" stop-opacity="0"/>
<stop offset="1" stop-color="#473226"/>
</linearGradient>
<linearGradient id="paint35_linear" x1="63.2965" y1="10.7712" x2="63.2968" y2="40.6073" gradientUnits="userSpaceOnUse">
<stop offset="0.3072" stop-color="#473226" stop-opacity="0"/>
<stop offset="1" stop-color="#473226"/>
</linearGradient>
<linearGradient id="paint36_linear" x1="68.6515" y1="10.7715" x2="68.6518" y2="40.6076" gradientUnits="userSpaceOnUse">
<stop offset="0.3072" stop-color="#473226" stop-opacity="0"/>
<stop offset="1" stop-color="#473226"/>
</linearGradient>
<linearGradient id="paint37_linear" x1="69.9236" y1="10.7712" x2="69.9239" y2="40.6074" gradientUnits="userSpaceOnUse">
<stop offset="0.3072" stop-color="#473226" stop-opacity="0"/>
<stop offset="1" stop-color="#473226"/>
</linearGradient>
<linearGradient id="paint38_linear" x1="65.0535" y1="10.7713" x2="65.0538" y2="40.6075" gradientUnits="userSpaceOnUse">
<stop offset="0.3072" stop-color="#473226" stop-opacity="0"/>
<stop offset="1" stop-color="#473226"/>
</linearGradient>
<linearGradient id="paint39_linear" x1="59.0944" y1="10.7715" x2="59.0947" y2="40.6076" gradientUnits="userSpaceOnUse">
<stop offset="0.3072" stop-color="#473226" stop-opacity="0"/>
<stop offset="1" stop-color="#473226"/>
</linearGradient>
<linearGradient id="paint40_linear" x1="53.9034" y1="10.7712" x2="53.9037" y2="40.6073" gradientUnits="userSpaceOnUse">
<stop offset="0.3072" stop-color="#473226" stop-opacity="0"/>
<stop offset="1" stop-color="#473226"/>
</linearGradient>
<radialGradient id="paint41_radial" cx="0" cy="0" r="1" gradientUnits="userSpaceOnUse" gradientTransform="translate(69.8196 54.3472) rotate(-166.965) scale(14.1094 35.8036)">
<stop offset="0.6147" stop-color="#B37E53" stop-opacity="0"/>
<stop offset="1" stop-color="#B37E53"/>
</radialGradient>
<radialGradient id="paint42_radial" cx="0" cy="0" r="1" gradientUnits="userSpaceOnUse" gradientTransform="translate(54.4184 53.2734) rotate(-140.238) scale(5.64744 2.62116)">
<stop stop-color="#695042"/>
<stop offset="1" stop-color="#695042" stop-opacity="0"/>
</radialGradient>
<radialGradient id="paint43_radial" cx="0" cy="0" r="1" gradientUnits="userSpaceOnUse" gradientTransform="translate(66.4853 53.7129) rotate(-41.0337) scale(7.26838 3.31606)">
<stop stop-color="#695042"/>
<stop offset="1" stop-color="#695042" stop-opacity="0"/>
</radialGradient>
<linearGradient id="paint44_linear" x1="69.643" y1="16.6008" x2="70.1494" y2="68.9079" gradientUnits="userSpaceOnUse">
<stop offset="0.3072" stop-color="#473226" stop-opacity="0"/>
<stop offset="1" stop-color="#473226"/>
</linearGradient>
<linearGradient id="paint45_linear" x1="73.9984" y1="46.3603" x2="40.7692" y2="46.3603" gradientUnits="userSpaceOnUse">
<stop offset="0.00132565" stop-color="#473226"/>
<stop offset="1" stop-color="#3D2A20"/>
</linearGradient>
<linearGradient id="paint46_linear" x1="44.0054" y1="37.342" x2="48.7859" y2="43.4887" gradientUnits="userSpaceOnUse">
<stop offset="0.3072" stop-color="#473226" stop-opacity="0"/>
<stop offset="1" stop-color="#473226"/>
</linearGradient>
<linearGradient id="paint47_linear" x1="53.4458" y1="49.6771" x2="28.9105" y2="53.9562" gradientUnits="userSpaceOnUse">
<stop offset="0.00132565" stop-color="#473226"/>
<stop offset="1" stop-color="#3D2A20"/>
</linearGradient>
</defs>
</svg>
