<svg width="80" height="80" viewBox="0 0 80 80" fill="none" xmlns="http://www.w3.org/2000/svg">
<path d="M26.4019 58.7515C24.2891 60.6977 24.723 69.9511 24.9115 72.2173C25.1438 75.0665 10.8144 74.0978 11.0774 72.0858C11.2659 70.6612 10.8057 59.7859 10.8057 59.2687" fill="url(#paint0_linear)"/>
<path d="M26.5202 58.6413C26.4764 58.6764 26.4281 58.7114 26.3843 58.7465L25.398 58.5229C24.8063 59.0314 24.3022 59.61 24.0304 60.3158C23.145 60.7936 22.1894 60.8812 21.4836 61.2363C18.5336 62.7179 24.3373 61.4335 24.1882 63.5463C23.6885 66.3649 24.4425 72.2124 24.9159 72.2124C24.7274 69.9461 24.2934 60.6884 26.4062 58.7465C26.4413 58.7158 26.4807 58.6808 26.5202 58.6413Z" fill="url(#paint1_linear)"/>
<path d="M11.0774 72.0894C10.9942 72.7294 12.3968 73.2642 14.3387 73.6017C13.0587 72.0017 13.2165 62.8842 13.6637 61.7928C14.0362 60.8854 13.2735 59.1452 12.3004 57.8608L10.8057 59.2679C10.8057 59.7895 11.2615 70.6648 11.0774 72.0894Z" fill="url(#paint2_linear)"/>
<path d="M12.0813 60.4961C11.6385 60.277 11.2221 60.0183 10.8188 59.7378C10.8934 61.912 11.244 70.8103 11.0775 72.0946C11.038 72.4103 11.3755 72.6996 11.9761 72.9538C12.1777 71.0119 11.2879 65.1294 11.5991 64.3009C12.4407 62.0698 14.0319 62.1005 13.69 61.2194C13.2341 61.1405 12.6292 60.9038 12.0813 60.4961Z" fill="url(#paint3_linear)"/>
<path d="M11.0774 72.0896C11.2659 70.665 10.8057 59.7897 10.8057 59.2725C13.6023 62.9501 20.8788 61.8806 24.3417 60.1491C24.8282 59.9037 25.2271 59.7546 25.5646 59.6757C24.4206 61.2406 24.7537 70.3187 24.9071 72.2211C25.1438 75.0703 10.8144 74.0972 11.0774 72.0896Z" fill="url(#paint4_linear)"/>
<path d="M39.1708 43.08C39.7888 41.2478 35.8175 38.8369 32.2581 42.2297C31.8461 42.6548 31.4384 43.1414 31.0483 43.6981C30.0971 45.0613 28.8084 46.166 27.5197 45.057C26.2309 43.9479 26.2266 39.9547 26.4501 37.8199L21.8694 37.2852C21.9308 38.1355 21.9571 39.8933 21.6503 39.9152C21.3434 39.9371 21.0936 39.2007 21.041 38.4731C20.9884 37.7498 16.4954 41.0768 16.228 41.2083C16.0263 41.3091 14.7069 40.7831 13.1245 41.4713C12.5985 41.6993 10.775 43.7375 10.6435 43.7507C10.6435 43.7507 10.7662 40.9497 10.683 39.5821C10.5953 38.2101 5.87873 43.2335 6.13297 44.7063C6.56692 47.2224 5.85243 55.5333 10.0386 59.1453C14.8867 63.327 23.7368 62.1435 26.9367 58.4351C30.1366 54.7268 30.8423 51.5795 33.2707 48.2612C35.3265 45.4558 38.2678 44.566 39.1708 43.08Z" fill="url(#paint5_linear)"/>
<path d="M10.683 39.5824C10.5953 38.2148 10.5953 34.5152 10.3674 32.5032C10.1394 30.4912 9.15315 29.5269 7.49622 29.8425C5.83929 30.1625 6.06723 33.8489 6.06723 34.7432C6.06723 36.1108 5.87874 43.2338 6.13298 44.7067" fill="url(#paint6_linear)"/>
<path d="M16.228 41.2086C15.5048 41.2831 15.6494 40.0207 15.5749 37.6536C15.5179 35.8433 15.4872 30.9119 15.3733 28.3126C15.233 25.0864 14.6105 24.2228 13.0588 24.0869C11.5071 23.9511 10.8145 25.8535 10.8496 27.975C10.8803 29.7678 11.0512 32.5995 11.323 36.137C11.4852 38.2541 11.1696 43.7115 10.6436 43.751" fill="url(#paint7_linear)"/>
<path d="M26.4544 37.816C26.678 35.6769 26.5947 28.1725 26.7218 26.1605C26.849 24.1485 25.6347 23.1929 24.3329 23.1272C23.031 23.057 22.0798 23.9776 21.9921 27.9708C21.9395 30.4913 21.6546 32.7838 21.8738 37.2812L24.9159 40.1874L26.4544 37.816Z" fill="url(#paint8_linear)"/>
<path d="M21.041 38.4736C20.9884 37.7503 21.0673 30.7018 21.041 29.1588C20.9928 25.9239 21.5232 21.0977 18.6214 20.8172C16.754 20.6375 16.3551 22.3689 16.2719 23.1316C16.1886 23.8943 16.3639 32.5209 16.4209 33.3012C16.4779 34.0814 16.4998 41.073 16.228 41.2045" fill="url(#paint9_linear)"/>
<path d="M22.7723 23.9204C22.3077 24.6568 22.0359 25.9806 21.9965 27.9707C21.9439 30.4912 21.6896 32.7881 21.8781 37.2811C21.9132 38.1315 21.9658 39.8892 21.6589 39.9111C23.3378 38.7846 22.4655 32.1788 22.426 29.1192C22.3734 25.8711 23.1186 23.3681 22.7723 23.9204Z" fill="url(#paint10_linear)"/>
<path d="M16.4209 33.3054C16.4779 34.0856 16.4998 41.0772 16.228 41.2087C16.228 41.2087 17.3283 39.9813 17.1617 37.7195C16.8198 33.0818 16.6883 28.1373 16.9644 25.5117C17.2231 23.035 16.776 21.571 16.5919 21.9392C16.4077 22.3074 16.3025 22.8422 16.2675 23.1315C16.1886 23.8942 16.3639 32.5251 16.4209 33.3054Z" fill="url(#paint11_linear)"/>
<path d="M10.8496 27.9752C10.8803 29.768 11.0512 32.5997 11.323 36.1371C11.4852 38.2543 11.1696 43.7116 10.6436 43.7511C13.4051 43.7861 10.5603 27.0064 12.055 24.3369C11.2046 24.9155 10.8233 26.384 10.8496 27.9752Z" fill="url(#paint12_linear)"/>
<path d="M10.0823 43.7335C10.284 43.8036 10.5513 43.8036 10.6434 43.7466C10.6434 43.7466 10.7574 40.836 10.6828 39.578C10.5952 38.2104 10.5952 34.5108 10.3672 32.4988C10.2664 31.6133 10.0209 30.9339 9.63521 30.4736C9.86314 31.4555 9.44672 31.3152 9.76233 33.6954C9.93328 34.971 8.75852 43.2732 10.0823 43.7335Z" fill="url(#paint13_linear)"/>
<path d="M14.9831 34.0855C15.1497 36.264 14.5667 40.9938 15.9913 41.2042C15.6625 41.0727 15.6319 39.4946 15.5749 37.6536C15.5179 35.8432 15.5047 30.9119 15.3732 28.3125C15.233 25.5554 14.9042 24.8058 13.9048 24.2798C15.6406 27.1772 14.5711 28.7333 14.9831 34.0855Z" fill="url(#paint14_linear)"/>
<path d="M20.2827 30.4034C20.3835 33.6735 19.7523 39.4376 21.5583 39.8935C21.2953 39.7796 21.0892 39.122 21.041 38.4733C20.9884 37.75 21.0673 30.7015 21.041 29.1585C21.0103 27.1509 21.2602 23.9729 20.423 22.1626C20.8657 24.4507 20.1994 27.7515 20.2827 30.4034Z" fill="url(#paint15_linear)"/>
<path d="M26.5727 43.0319C26.3448 41.7169 26.3185 39.1131 26.4543 37.82C26.6779 35.6809 26.5946 28.1765 26.7217 26.1645C26.7612 25.5509 26.6735 25.038 26.4982 24.6172C26.4456 25.5509 26.0072 26.5941 26.1168 28.4045C26.2965 31.3107 25.8626 35.9483 25.7179 37.5439C25.5689 39.1351 24.9114 43.1503 26.5727 43.0319Z" fill="url(#paint16_linear)"/>
<path d="M18.7704 61.7713C19.3665 59.9784 19.2701 58.4837 17.4641 58.2514C12.5459 57.6114 8.65344 53.8504 7.28582 46.289C6.06723 39.5429 6.18996 33.4807 7.29459 29.9038C5.85682 30.4649 6.06723 33.884 6.06723 34.7431C6.06723 36.1107 5.87874 43.2338 6.13298 44.7066C6.56694 47.2227 5.84806 55.5337 10.0386 59.1456C12.3793 61.1663 15.6538 61.9334 18.7704 61.7713Z" fill="url(#paint17_linear)"/>
<path d="M6.45731 38.6439C6.46608 38.6176 6.47046 38.6045 6.47046 38.6045C7.94329 48.7916 8.93394 54.4155 14.1984 60.618C14.9392 61.4903 13.3612 61.4421 12.0812 60.4953C11.3492 60.1315 10.661 59.6843 10.0386 59.1496C5.8524 55.5333 6.5669 47.2223 6.13294 44.7062C6.00143 43.9303 6.54498 40.4411 6.45731 38.6439Z" fill="url(#paint18_radial)"/>
<path d="M29.8867 49.6252C30.6363 50.5282 28.1158 54.3286 26.2047 55.9242C24.2935 57.5197 22.1325 58.0764 21.3829 57.1734C20.6333 56.2705 22.3341 54.0086 23.8201 52.0142C26.3844 48.5644 29.1372 48.7222 29.8867 49.6252Z" fill="url(#paint19_radial)"/>
<path opacity="0.75" d="M8.57887 48.77C7.74602 49.7694 10.2752 55.538 12.7738 56.9933C15.2723 58.4486 18.3977 58.0015 19.007 56.8442C19.6163 55.6914 17.0213 53.8942 14.8998 51.9085C11.2352 48.4763 9.41172 47.7662 8.57887 48.77Z" fill="url(#paint20_radial)"/>
<path d="M10.6434 43.751C10.6434 43.751 10.7574 40.8404 10.6829 39.5824C10.5952 38.2148 10.5952 34.5152 10.3673 32.5032C10.2665 31.6177 10.021 30.9383 9.63525 30.478C9.86319 31.4599 10.2226 33.3579 10.17 37.3249C9.99031 44.2989 10.5514 43.8036 10.6434 43.751Z" fill="url(#paint21_linear)"/>
<path d="M39.1708 43.08C39.276 42.7688 39.2409 42.44 39.105 42.1288C38.6448 43.3956 37.2728 44.5966 34.9802 45.2673C32.2538 46.0651 29.6938 49.3833 28.3744 52.7849C27.055 56.1864 22.79 58.7726 19.9232 58.2817C17.0565 57.7907 10.2402 60.6268 7.94333 48.7916C7.94333 48.7872 7.94333 48.7872 7.94333 48.7828C7.85566 47.9982 7.73293 47.2661 7.53129 46.6174C6.11983 42.1288 7.05788 36.0315 7.16308 33.4891C7.18062 32.9894 7.53567 31.3456 6.43982 30.9116C5.95764 32.1609 6.06285 34.1203 6.06723 34.7427C6.06723 36.1104 5.87874 43.2334 6.13298 44.7062C6.16805 44.8991 6.17681 45.4821 6.19873 45.7232C6.20311 45.7846 6.21188 45.8503 6.21626 45.9161C6.21626 45.9336 6.22065 45.9511 6.22065 45.9687C6.22503 46.0081 6.22503 46.0519 6.22941 46.0958C6.22941 46.1045 6.22941 46.1133 6.22941 46.1265C6.339 47.8009 6.11106 55.6385 10.0386 59.1496C14.8078 63.419 23.7368 62.1479 26.9367 58.4395C30.1366 54.7311 30.8423 51.5838 33.2707 48.2656C35.3265 45.4558 38.2678 44.566 39.1708 43.08Z" fill="url(#paint22_radial)"/>
<path d="M32.258 42.2254C31.846 42.6506 31.4383 43.1371 31.0482 43.6938C30.097 45.0571 28.8083 46.1617 27.5196 45.0527C27.0111 44.6143 26.7174 43.8823 26.5684 43.0275C26.6692 47.4767 28.9617 46.5956 30.474 45.0483C31.9863 43.5009 33.161 40.8577 36.488 40.8358C37.0886 40.8314 37.6759 40.9629 38.1099 41.0594C36.773 40.2528 34.441 40.1476 32.258 42.2254Z" fill="url(#paint23_radial)"/>
<path d="M26.941 58.4352C30.1409 54.7268 30.8466 51.5795 33.275 48.2613C35.3308 45.4559 38.2721 44.5617 39.1751 43.0757C39.2803 42.7645 39.2452 42.4357 39.1093 42.1245C38.6491 43.3913 36.8694 43.7946 34.9845 45.263C32.2624 47.3846 29.6981 50.361 28.3787 53.7669C27.0593 57.1684 22.7942 58.7683 19.9275 58.2818L26.941 58.4352Z" fill="url(#paint24_linear)"/>
<path d="M53.6006 58.7515C55.7134 60.6977 55.2794 69.9511 55.0909 72.2173C54.8586 75.0665 69.188 74.0978 68.925 72.0858C68.7365 70.6612 69.1968 59.7859 69.1968 59.2687" fill="url(#paint25_linear)"/>
<path d="M53.4822 58.6423C53.526 58.6773 53.5742 58.7124 53.6181 58.7475L54.6043 58.5239C55.1961 59.0324 55.7002 59.611 55.972 60.3167C56.8574 60.7945 57.813 60.8822 58.5187 61.2373C61.4688 62.7189 55.6651 61.4345 55.8142 63.5473C56.3139 66.3659 55.5599 72.2133 55.0865 72.2133C55.275 69.9471 55.709 60.6893 53.5962 58.7475C53.5567 58.7168 53.5216 58.6817 53.4822 58.6423Z" fill="url(#paint26_linear)"/>
<path d="M68.9248 72.0904C69.0081 72.7304 67.6054 73.2651 65.6636 73.6027C66.9435 72.0027 66.7857 62.8852 66.3386 61.7937C65.966 60.8864 66.7287 59.1462 67.7019 57.8618L69.1966 59.2689C69.1966 59.7905 68.7364 70.6658 68.9248 72.0904Z" fill="url(#paint27_linear)"/>
<path d="M67.9215 60.4961C68.3642 60.277 68.7807 60.0183 69.1839 59.7378C69.1094 61.912 68.7587 70.8103 68.9253 72.0946C68.9648 72.4103 68.6272 72.6996 68.0267 72.9538C67.8251 71.0119 68.7149 65.1294 68.4037 64.3009C67.5621 62.0698 65.9709 62.1005 66.3128 61.2194C66.7643 61.1405 67.3692 60.9038 67.9215 60.4961Z" fill="url(#paint28_linear)"/>
<path d="M68.9254 72.0896C68.7369 70.665 69.1972 59.7897 69.1972 59.2725C66.4006 62.9501 59.1241 61.8806 55.6612 60.1491C55.1746 59.9037 54.7758 59.7546 54.4382 59.6757C55.5823 61.2406 55.2492 70.3187 55.0957 72.2211C54.8547 75.0703 69.1884 74.0972 68.9254 72.0896Z" fill="url(#paint29_linear)"/>
<path d="M40.8321 43.08C40.214 41.2478 44.1854 38.8369 47.7448 42.2297C48.1568 42.6548 48.5645 43.1414 48.9546 43.6981C49.9058 45.0613 51.1945 46.166 52.4832 45.057C53.772 43.9479 53.7763 39.9547 53.5528 37.8199L58.1335 37.2852C58.0721 38.1355 58.0458 39.8933 58.3526 39.9152C58.6595 39.9371 58.9093 39.2007 58.9619 38.4731C59.0145 37.7498 63.5075 41.0768 63.7749 41.2083C63.9766 41.3091 65.296 40.7831 66.8784 41.4713C67.4044 41.6993 69.2279 43.7375 69.3594 43.7507C69.3594 43.7507 69.2367 40.9497 69.3199 39.5821C69.4076 38.2144 74.1198 43.2378 73.8655 44.7063C73.4316 47.2224 74.1461 55.5333 69.9599 59.1453C65.1119 63.327 56.2617 62.1435 53.0618 58.4351C49.8619 54.7268 49.1562 51.5795 46.7278 48.2612C44.6764 45.4558 41.7307 44.566 40.8321 43.08Z" fill="url(#paint30_linear)"/>
<path d="M69.3198 39.5824C69.4075 38.2148 69.4075 34.5152 69.6354 32.5032C69.8634 30.4912 70.8496 29.5269 72.5066 29.8425C74.1635 30.1625 73.9356 33.8489 73.9356 34.7432C73.9356 36.1108 74.1241 43.2382 73.8698 44.7067" fill="url(#paint31_linear)"/>
<path d="M63.7705 41.2086C64.4938 41.2831 64.3491 40.0207 64.4236 37.6536C64.4806 35.8433 64.5113 30.9119 64.6253 28.3126C64.7655 25.0864 65.388 24.2228 66.9397 24.0869C68.4914 23.9511 69.184 25.8535 69.149 27.975C69.1183 29.7678 68.9473 32.5995 68.6756 36.137C68.5134 38.2541 68.829 43.7115 69.355 43.751" fill="url(#paint32_linear)"/>
<path d="M53.5483 37.816C53.3247 35.6769 53.408 28.1725 53.2809 26.1605C53.1538 24.1485 54.368 23.1929 55.6699 23.1272C56.9717 23.057 57.9229 23.9776 58.0106 27.9708C58.0632 30.4913 58.3481 32.7838 58.129 37.2812L55.0869 40.1874L53.5483 37.816Z" fill="url(#paint33_linear)"/>
<path d="M58.9576 38.4736C59.0102 37.7503 58.9313 30.7018 58.9576 29.1588C59.0058 25.9239 58.4754 21.0977 61.3772 20.8172C63.2446 20.6375 63.6435 22.3689 63.7267 23.1316C63.81 23.8943 63.6347 32.5209 63.5777 33.3012C63.5207 34.0814 63.4988 41.073 63.7706 41.2045" fill="url(#paint34_linear)"/>
<path d="M57.2304 23.9204C57.695 24.6568 57.9668 25.9806 58.0063 27.9707C58.0589 30.4912 58.3131 32.7881 58.1246 37.2811C58.0895 38.1315 58.0369 39.8892 58.3438 39.9111C56.6649 38.7846 57.5372 32.1788 57.5767 29.1192C57.6249 25.8711 56.8797 23.3681 57.2304 23.9204Z" fill="url(#paint35_linear)"/>
<path d="M63.5778 33.3054C63.5208 34.0856 63.4989 41.0772 63.7707 41.2087C63.7707 41.2087 62.6704 39.9813 62.837 37.7195C63.1789 33.0818 63.3104 28.1373 63.0342 25.5117C62.7756 23.035 63.2227 21.571 63.4068 21.9392C63.5909 22.3074 63.6961 22.8422 63.7312 23.1315C63.8145 23.8942 63.6392 32.5251 63.5778 33.3054Z" fill="url(#paint36_linear)"/>
<path d="M69.1488 27.9752C69.1181 29.768 68.9472 32.5997 68.6754 36.1371C68.5132 38.2543 68.8288 43.7116 69.3548 43.7511C66.5933 43.7861 69.4381 27.0064 67.9434 24.3369C68.7937 24.9155 69.1795 26.384 69.1488 27.9752Z" fill="url(#paint37_linear)"/>
<path d="M69.9161 43.7335C69.7144 43.8036 69.4471 43.8036 69.355 43.7466C69.355 43.7466 69.241 40.836 69.3156 39.578C69.4032 38.2104 69.4032 34.5108 69.6312 32.4988C69.732 31.6133 69.9775 30.9339 70.3632 30.4736C70.1353 31.4555 70.5517 31.3152 70.2361 33.6954C70.0695 34.971 71.2399 43.2732 69.9161 43.7335Z" fill="url(#paint38_linear)"/>
<path d="M65.0155 34.0855C64.8489 36.264 65.4319 40.9938 64.0073 41.2042C64.3361 41.0727 64.3668 39.4946 64.4237 37.6536C64.4807 35.8432 64.4939 30.9119 64.6254 28.3125C64.7657 25.5554 65.0944 24.8058 66.0938 24.2798C64.358 27.1772 65.4276 28.7333 65.0155 34.0855Z" fill="url(#paint39_linear)"/>
<path d="M59.7202 30.4034C59.6193 33.6735 60.2505 39.4376 58.4446 39.8935C58.7076 39.7796 58.9136 39.122 58.9618 38.4733C59.0144 37.75 58.9355 30.7015 58.9618 29.1585C58.9925 27.1509 58.7427 23.9729 59.5799 22.1626C59.1328 24.4507 59.8034 27.7515 59.7202 30.4034Z" fill="url(#paint40_linear)"/>
<path d="M53.4301 43.0319C53.4301 43.0319 53.4257 43.0319 53.4301 43.0319C53.658 41.7169 53.6843 39.1131 53.5485 37.82C53.3249 35.6809 53.4082 28.1765 53.2811 26.1645C53.2416 25.5509 53.3293 25.038 53.5046 24.6172C53.5572 25.5509 53.9956 26.5941 53.886 28.4045C53.7063 31.3107 54.1402 35.9483 54.2849 37.5439C54.4295 39.1351 55.0914 43.1503 53.4301 43.0319Z" fill="url(#paint41_linear)"/>
<path d="M61.2281 61.7713C60.632 59.9784 60.7284 58.4837 62.5344 58.2514C67.4525 57.6114 71.345 53.8504 72.7127 46.289C73.9312 39.5429 73.8085 33.4807 72.7039 29.9038C74.146 30.4693 73.9356 33.8883 73.9356 34.7431C73.9356 36.1107 74.1241 43.2382 73.8699 44.7066C73.4359 47.2227 74.1548 55.5337 69.9642 59.1456C67.6191 61.1663 64.3491 61.9334 61.2281 61.7713Z" fill="url(#paint42_linear)"/>
<path d="M73.5456 38.6439C73.5368 38.6176 73.5324 38.6045 73.5324 38.6045C72.0596 48.7916 71.0645 54.4155 65.8044 60.6136C65.0636 61.4859 66.6417 61.4377 67.9216 60.4909C68.6537 60.1271 69.3419 59.68 69.9643 59.1452C74.1548 55.5289 73.436 47.2223 73.8699 44.7062C74.0014 43.9303 73.4579 40.4411 73.5456 38.6439Z" fill="url(#paint43_radial)"/>
<path d="M50.1117 49.6252C49.3621 50.5282 51.8826 54.3286 53.7938 55.9242C55.705 57.5154 57.866 58.0764 58.6155 57.1734C59.3651 56.2705 57.6643 54.0086 56.1784 52.0142C53.6184 48.5644 50.8613 48.7222 50.1117 49.6252Z" fill="url(#paint44_radial)"/>
<path opacity="0.75" d="M71.4238 48.77C72.2566 49.7694 69.7274 55.538 67.2288 56.9933C64.7347 58.4442 61.6049 58.0015 60.9956 56.8442C60.3863 55.6914 62.9813 53.8942 65.1029 51.9085C68.763 48.4763 70.5909 47.7662 71.4238 48.77Z" fill="url(#paint45_radial)"/>
<path d="M69.355 43.751C69.355 43.751 69.241 40.8404 69.3156 39.5824C69.4032 38.2148 69.4032 34.5152 69.6312 32.5032C69.732 31.6177 69.9775 30.9383 70.3632 30.478C70.1353 31.4599 69.7758 33.3579 69.8284 37.3249C70.0125 44.2989 69.4471 43.8036 69.355 43.751Z" fill="url(#paint46_linear)"/>
<path d="M40.8322 43.0805C40.727 42.7693 40.7621 42.4405 40.8979 42.1293C41.3582 43.3961 42.7302 44.5971 45.0227 45.2678C47.7492 46.0656 50.3091 49.3838 51.6286 52.7854C52.948 56.1869 57.213 58.7731 60.0798 58.2822C62.9465 57.7912 69.7627 60.6273 72.0597 48.7965C72.0597 48.7921 72.0597 48.7921 72.0597 48.7877C72.1473 48.0031 72.2701 47.271 72.4717 46.6223C73.8788 42.1337 72.9407 36.0363 72.8355 33.494C72.818 32.9942 72.4629 31.3505 73.5588 30.9165C74.041 32.1658 73.9358 34.1252 73.9314 34.7476C73.9314 36.1152 74.1199 43.2383 73.8656 44.7111C73.8306 44.904 73.8218 45.487 73.7999 45.7281C73.7955 45.7894 73.7867 45.8552 73.7823 45.9209C73.7823 45.9385 73.778 45.956 73.778 45.9735C73.7736 46.013 73.7736 46.0568 73.7692 46.1007C73.7692 46.1094 73.7692 46.1182 73.7692 46.1313C73.6596 47.8058 73.8875 55.6434 69.96 59.1545C65.1908 63.4239 56.2618 62.1527 53.0619 58.4444C49.862 54.736 49.1563 51.5887 46.7279 48.2705C44.6765 45.4563 41.7308 44.5665 40.8322 43.0805Z" fill="url(#paint47_radial)"/>
<path d="M47.7403 42.2254C48.1523 42.6506 48.56 43.1371 48.9501 43.6938C49.9013 45.0571 51.19 46.1617 52.4788 45.0527C52.9872 44.6143 53.2809 43.8823 53.43 43.0275C53.3291 47.4767 51.0366 46.5956 49.5243 45.0483C48.0121 43.5009 46.8373 40.8577 43.5103 40.8358C42.9098 40.8314 42.3224 40.9629 41.8884 41.0594C43.2254 40.2528 45.5573 40.1476 47.7403 42.2254Z" fill="url(#paint48_radial)"/>
<path d="M53.0619 58.4352C49.862 54.7268 49.1563 51.5795 46.7279 48.2613C44.6721 45.4559 41.7308 44.5617 40.8278 43.0757C40.7226 42.7645 40.7577 42.4357 40.8935 42.1245C41.3538 43.3913 43.1335 43.7946 45.0183 45.263C47.7404 47.3846 50.3047 50.361 51.6242 53.7669C52.9436 57.1684 57.2086 58.7683 60.0754 58.2818L53.0619 58.4352Z" fill="url(#paint49_linear)"/>
<path d="M35.1687 6.45306C35.1819 6.32594 35.1336 6.19882 35.0372 6.11115C34.9408 6.02348 34.8093 5.98403 34.6865 6.00595L32.8587 6.32155C32.7403 6.34347 32.6351 6.41361 32.5737 6.51881C32.5124 6.62401 32.5036 6.74675 32.5343 6.8651C33.9983 11.8184 34.9539 14.089 34.9539 14.0627C35.1994 11.7745 35.1643 6.49689 35.1687 6.45306Z" fill="#975500"/>
<path d="M23.978 13.0808C23.9342 12.9756 23.8465 12.8923 23.7413 12.8485C23.6317 12.8091 23.5134 12.8134 23.4125 12.866L21.7512 13.6945C21.6197 13.7603 21.5321 13.8961 21.5233 14.0452C21.5145 14.1942 21.6066 14.3126 21.7162 14.4178C24.9029 17.4116 25.4201 18.7968 25.4552 18.788C25.6349 18.7398 25.5779 16.9777 23.978 13.0808Z" fill="#975500"/>
<path d="M44.8298 6.45306C44.8166 6.32594 44.8648 6.19882 44.9613 6.11115C45.0577 6.02348 45.1892 5.98403 45.3119 6.00595L47.1398 6.32155C47.2582 6.34347 47.3634 6.41361 47.4248 6.51881C47.4861 6.62401 47.4949 6.74675 47.4642 6.8651C46.0001 11.8184 45.0446 14.089 45.0446 14.0627C44.7991 11.7745 44.8342 6.49689 44.8298 6.45306Z" fill="#975500"/>
<path d="M56.025 13.0808C56.0688 12.9756 56.1565 12.8923 56.2617 12.8485C56.3713 12.8091 56.4896 12.8134 56.5904 12.866L58.2517 13.6945C58.3832 13.7603 58.4709 13.8961 58.4797 14.0452C58.4884 14.1942 58.3964 14.3126 58.2868 14.4178C55.1001 17.4116 54.5828 18.7968 54.5478 18.788C54.3637 18.7398 54.4206 16.9777 56.025 13.0808Z" fill="#975500"/>
<defs>
<linearGradient id="paint0_linear" x1="18.5707" y1="59.8342" x2="18.3198" y2="66.0858" gradientUnits="userSpaceOnUse">
<stop offset="0.00132565" stop-color="#FFCB4B"/>
<stop offset="1" stop-color="#FFD748"/>
</linearGradient>
<linearGradient id="paint1_linear" x1="17.0812" y1="70.4628" x2="41.3648" y2="55.1513" gradientUnits="userSpaceOnUse">
<stop stop-color="#FFBC47" stop-opacity="0"/>
<stop offset="1" stop-color="#C86F34"/>
</linearGradient>
<linearGradient id="paint2_linear" x1="11.6641" y1="71.3119" x2="14.1538" y2="57.9302" gradientUnits="userSpaceOnUse">
<stop offset="0.00132565" stop-color="#FFCB4B"/>
<stop offset="1" stop-color="#FFD748"/>
</linearGradient>
<linearGradient id="paint3_linear" x1="9.57414" y1="54.153" x2="15.0198" y2="78.4637" gradientUnits="userSpaceOnUse">
<stop stop-color="#FFBC47" stop-opacity="0"/>
<stop offset="1" stop-color="#C86F34"/>
</linearGradient>
<linearGradient id="paint4_linear" x1="17.3962" y1="66.32" x2="2.5886" y2="76.1149" gradientUnits="userSpaceOnUse">
<stop stop-color="#C86F34" stop-opacity="0"/>
<stop offset="1" stop-color="#C86F34"/>
</linearGradient>
<linearGradient id="paint5_linear" x1="14.8831" y1="65.9634" x2="20.3999" y2="50.163" gradientUnits="userSpaceOnUse">
<stop offset="0.00132565" stop-color="#FFCB4B"/>
<stop offset="1" stop-color="#FFD748"/>
</linearGradient>
<linearGradient id="paint6_linear" x1="6.7196" y1="31.8002" x2="8.70716" y2="40.5184" gradientUnits="userSpaceOnUse">
<stop offset="0.00132565" stop-color="#FFCB4B"/>
<stop offset="1" stop-color="#FFD748"/>
</linearGradient>
<linearGradient id="paint7_linear" x1="12.4125" y1="22.3016" x2="13.2867" y2="39.5352" gradientUnits="userSpaceOnUse">
<stop offset="0.00132565" stop-color="#FFCB4B"/>
<stop offset="1" stop-color="#FFD748"/>
</linearGradient>
<linearGradient id="paint8_linear" x1="25.122" y1="26.2405" x2="23.244" y2="39.0823" gradientUnits="userSpaceOnUse">
<stop offset="0.00132565" stop-color="#FFCB4B"/>
<stop offset="1" stop-color="#FFD748"/>
</linearGradient>
<linearGradient id="paint9_linear" x1="19.1814" y1="23.7906" x2="18.0512" y2="38.8919" gradientUnits="userSpaceOnUse">
<stop offset="0.00132565" stop-color="#FFCB4B"/>
<stop offset="1" stop-color="#FFD748"/>
</linearGradient>
<linearGradient id="paint10_linear" x1="24.5229" y1="31.797" x2="21.2629" y2="31.9128" gradientUnits="userSpaceOnUse">
<stop stop-color="#FFBC47" stop-opacity="0"/>
<stop offset="1" stop-color="#E68E43"/>
</linearGradient>
<linearGradient id="paint11_linear" x1="20.809" y1="31.4521" x2="15.197" y2="31.5731" gradientUnits="userSpaceOnUse">
<stop stop-color="#FFBC47" stop-opacity="0"/>
<stop offset="1" stop-color="#E68E43"/>
</linearGradient>
<linearGradient id="paint12_linear" x1="15.4201" y1="33.8154" x2="10.3371" y2="34.1007" gradientUnits="userSpaceOnUse">
<stop offset="0.3118" stop-color="#FFBC47" stop-opacity="0"/>
<stop offset="1" stop-color="#FF8900"/>
</linearGradient>
<linearGradient id="paint13_linear" x1="8.47909" y1="37.3152" x2="11.4528" y2="36.9694" gradientUnits="userSpaceOnUse">
<stop stop-color="#FFBC47" stop-opacity="0"/>
<stop offset="1" stop-color="#E68E43"/>
</linearGradient>
<linearGradient id="paint14_linear" x1="15.791" y1="14.6252" x2="14.6474" y2="39.161" gradientUnits="userSpaceOnUse">
<stop stop-color="#FFBC47" stop-opacity="0"/>
<stop offset="1" stop-color="#E68E43"/>
</linearGradient>
<linearGradient id="paint15_linear" x1="18.6315" y1="30.8889" x2="21.119" y2="31.036" gradientUnits="userSpaceOnUse">
<stop stop-color="#FFBC47" stop-opacity="0"/>
<stop offset="1" stop-color="#E68E43"/>
</linearGradient>
<linearGradient id="paint16_linear" x1="22.1324" y1="41.7849" x2="28.6547" y2="29.9881" gradientUnits="userSpaceOnUse">
<stop stop-color="#FFBC47" stop-opacity="0"/>
<stop offset="1" stop-color="#FFBC47"/>
</linearGradient>
<linearGradient id="paint17_linear" x1="10.0626" y1="46.4247" x2="4.7669" y2="47.4722" gradientUnits="userSpaceOnUse">
<stop offset="0.3118" stop-color="#FFBC47" stop-opacity="0"/>
<stop offset="1" stop-color="#FF8900"/>
</linearGradient>
<radialGradient id="paint18_radial" cx="0" cy="0" r="1" gradientUnits="userSpaceOnUse" gradientTransform="translate(11.0313 55.6325) rotate(-13.0366) scale(14.1081 35.8081)">
<stop stop-color="#FFBC47" stop-opacity="0"/>
<stop offset="1" stop-color="#FF8900"/>
</radialGradient>
<radialGradient id="paint19_radial" cx="0" cy="0" r="1" gradientUnits="userSpaceOnUse" gradientTransform="translate(25.5963 53.2777) rotate(-39.768) scale(5.64788 2.62149)">
<stop stop-color="#FBE07A"/>
<stop offset="1" stop-color="#FFD748" stop-opacity="0"/>
</radialGradient>
<radialGradient id="paint20_radial" cx="0" cy="0" r="1" gradientUnits="userSpaceOnUse" gradientTransform="translate(13.5103 53.7491) rotate(-138.968) scale(7.26842 3.31678)">
<stop stop-color="#FBE07A"/>
<stop offset="0.2654" stop-color="#FCDF73" stop-opacity="0.7346"/>
<stop offset="0.6548" stop-color="#FDDB5F" stop-opacity="0.3452"/>
<stop offset="1" stop-color="#FFD748" stop-opacity="0"/>
</radialGradient>
<linearGradient id="paint21_linear" x1="9.10338" y1="36.6098" x2="12.2846" y2="38.2696" gradientUnits="userSpaceOnUse">
<stop stop-color="#FFBC47" stop-opacity="0"/>
<stop offset="1" stop-color="#E68E43"/>
</linearGradient>
<radialGradient id="paint22_radial" cx="0" cy="0" r="1" gradientUnits="userSpaceOnUse" gradientTransform="translate(17.7648 47.5282) scale(35.0385)">
<stop offset="0.5212" stop-color="#FFBC47" stop-opacity="0"/>
<stop offset="1" stop-color="#FF8900"/>
</radialGradient>
<radialGradient id="paint23_radial" cx="0" cy="0" r="1" gradientUnits="userSpaceOnUse" gradientTransform="translate(30.5975 36.391) scale(17.3751)">
<stop stop-color="#FFBC47" stop-opacity="0"/>
<stop offset="1" stop-color="#FFA754"/>
</radialGradient>
<linearGradient id="paint24_linear" x1="26.5545" y1="49.6873" x2="51.0904" y2="53.966" gradientUnits="userSpaceOnUse">
<stop stop-color="#C86F34" stop-opacity="0"/>
<stop offset="1" stop-color="#C86F34"/>
</linearGradient>
<linearGradient id="paint25_linear" x1="61.4299" y1="59.8342" x2="61.6809" y2="66.0858" gradientUnits="userSpaceOnUse">
<stop offset="0.00132565" stop-color="#FFCB4B"/>
<stop offset="1" stop-color="#FFD748"/>
</linearGradient>
<linearGradient id="paint26_linear" x1="62.9189" y1="70.4638" x2="38.6353" y2="55.1523" gradientUnits="userSpaceOnUse">
<stop stop-color="#FFBC47" stop-opacity="0"/>
<stop offset="1" stop-color="#C86F34"/>
</linearGradient>
<linearGradient id="paint27_linear" x1="68.3359" y1="71.3129" x2="65.8463" y2="57.9312" gradientUnits="userSpaceOnUse">
<stop offset="0.00132565" stop-color="#FFCB4B"/>
<stop offset="1" stop-color="#FFD748"/>
</linearGradient>
<linearGradient id="paint28_linear" x1="70.4264" y1="54.153" x2="64.9807" y2="78.4637" gradientUnits="userSpaceOnUse">
<stop stop-color="#FFBC47" stop-opacity="0"/>
<stop offset="1" stop-color="#C86F34"/>
</linearGradient>
<linearGradient id="paint29_linear" x1="62.6049" y1="66.32" x2="77.4125" y2="76.1149" gradientUnits="userSpaceOnUse">
<stop stop-color="#C86F34" stop-opacity="0"/>
<stop offset="1" stop-color="#C86F34"/>
</linearGradient>
<linearGradient id="paint30_linear" x1="65.1175" y1="65.9634" x2="59.6008" y2="50.163" gradientUnits="userSpaceOnUse">
<stop offset="0.00132565" stop-color="#FFCB4B"/>
<stop offset="1" stop-color="#FFD748"/>
</linearGradient>
<linearGradient id="paint31_linear" x1="73.2787" y1="31.8018" x2="71.2912" y2="40.5201" gradientUnits="userSpaceOnUse">
<stop offset="0.00132565" stop-color="#FFCB4B"/>
<stop offset="1" stop-color="#FFD748"/>
</linearGradient>
<linearGradient id="paint32_linear" x1="67.5859" y1="22.3032" x2="66.7118" y2="39.5368" gradientUnits="userSpaceOnUse">
<stop offset="0.00132565" stop-color="#FFCB4B"/>
<stop offset="1" stop-color="#FFD748"/>
</linearGradient>
<linearGradient id="paint33_linear" x1="54.8763" y1="26.2421" x2="56.7542" y2="39.084" gradientUnits="userSpaceOnUse">
<stop offset="0.00132565" stop-color="#FFCB4B"/>
<stop offset="1" stop-color="#FFD748"/>
</linearGradient>
<linearGradient id="paint34_linear" x1="60.8172" y1="23.7923" x2="61.9473" y2="38.8936" gradientUnits="userSpaceOnUse">
<stop offset="0.00132565" stop-color="#FFCB4B"/>
<stop offset="1" stop-color="#FFD748"/>
</linearGradient>
<linearGradient id="paint35_linear" x1="55.4754" y1="31.7987" x2="58.7354" y2="31.9145" gradientUnits="userSpaceOnUse">
<stop stop-color="#FFBC47" stop-opacity="0"/>
<stop offset="1" stop-color="#E68E43"/>
</linearGradient>
<linearGradient id="paint36_linear" x1="59.1896" y1="31.4538" x2="64.8016" y2="31.5748" gradientUnits="userSpaceOnUse">
<stop stop-color="#FFBC47" stop-opacity="0"/>
<stop offset="1" stop-color="#E68E43"/>
</linearGradient>
<linearGradient id="paint37_linear" x1="64.5804" y1="33.8154" x2="69.6634" y2="34.1007" gradientUnits="userSpaceOnUse">
<stop offset="0.3118" stop-color="#FFBC47" stop-opacity="0"/>
<stop offset="1" stop-color="#FF8900"/>
</linearGradient>
<linearGradient id="paint38_linear" x1="71.5215" y1="37.3152" x2="68.5477" y2="36.9694" gradientUnits="userSpaceOnUse">
<stop stop-color="#FFBC47" stop-opacity="0"/>
<stop offset="1" stop-color="#E68E43"/>
</linearGradient>
<linearGradient id="paint39_linear" x1="64.2097" y1="14.6252" x2="65.3533" y2="39.161" gradientUnits="userSpaceOnUse">
<stop stop-color="#FFBC47" stop-opacity="0"/>
<stop offset="1" stop-color="#E68E43"/>
</linearGradient>
<linearGradient id="paint40_linear" x1="61.3668" y1="30.8906" x2="58.8793" y2="31.0377" gradientUnits="userSpaceOnUse">
<stop stop-color="#FFBC47" stop-opacity="0"/>
<stop offset="1" stop-color="#E68E43"/>
</linearGradient>
<linearGradient id="paint41_linear" x1="57.866" y1="41.7866" x2="51.3436" y2="29.9898" gradientUnits="userSpaceOnUse">
<stop stop-color="#FFBC47" stop-opacity="0"/>
<stop offset="1" stop-color="#FFBC47"/>
</linearGradient>
<linearGradient id="paint42_linear" x1="69.9358" y1="46.4264" x2="75.2315" y2="47.4739" gradientUnits="userSpaceOnUse">
<stop offset="0.3118" stop-color="#FFBC47" stop-opacity="0"/>
<stop offset="1" stop-color="#FF8900"/>
</linearGradient>
<radialGradient id="paint43_radial" cx="0" cy="0" r="1" gradientUnits="userSpaceOnUse" gradientTransform="translate(68.9901 55.6255) rotate(-166.963) scale(14.1081 35.8081)">
<stop stop-color="#FFBC47" stop-opacity="0"/>
<stop offset="1" stop-color="#FF8900"/>
</radialGradient>
<radialGradient id="paint44_radial" cx="0" cy="0" r="1" gradientUnits="userSpaceOnUse" gradientTransform="translate(54.4184 53.268) rotate(-140.232) scale(5.64788 2.62149)">
<stop stop-color="#FBE07A"/>
<stop offset="1" stop-color="#FFD748" stop-opacity="0"/>
</radialGradient>
<radialGradient id="paint45_radial" cx="0" cy="0" r="1" gradientUnits="userSpaceOnUse" gradientTransform="translate(66.4784 53.7354) rotate(-41.0323) scale(7.26842 3.31678)">
<stop stop-color="#FBE07A"/>
<stop offset="0.2654" stop-color="#FCDF73" stop-opacity="0.7346"/>
<stop offset="0.6548" stop-color="#FDDB5F" stop-opacity="0.3452"/>
<stop offset="1" stop-color="#FFD748" stop-opacity="0"/>
</radialGradient>
<linearGradient id="paint46_linear" x1="70.8972" y1="36.6098" x2="67.716" y2="38.2696" gradientUnits="userSpaceOnUse">
<stop stop-color="#FFBC47" stop-opacity="0"/>
<stop offset="1" stop-color="#E68E43"/>
</linearGradient>
<radialGradient id="paint47_radial" cx="0" cy="0" r="1" gradientUnits="userSpaceOnUse" gradientTransform="translate(62.2101 47.5287) rotate(180) scale(35.0385)">
<stop offset="0.5212" stop-color="#FFBC47" stop-opacity="0"/>
<stop offset="1" stop-color="#FF8900"/>
</radialGradient>
<radialGradient id="paint48_radial" cx="0" cy="0" r="1" gradientUnits="userSpaceOnUse" gradientTransform="translate(49.3771 36.391) rotate(180) scale(17.3751)">
<stop stop-color="#FFBC47" stop-opacity="0"/>
<stop offset="1" stop-color="#FFA754"/>
</radialGradient>
<linearGradient id="paint49_linear" x1="53.4461" y1="49.6873" x2="28.9102" y2="53.966" gradientUnits="userSpaceOnUse">
<stop stop-color="#C86F34" stop-opacity="0"/>
<stop offset="1" stop-color="#C86F34"/>
</linearGradient>
</defs>
</svg>
