<svg width="80" height="80" viewBox="0 0 80 80" fill="none" xmlns="http://www.w3.org/2000/svg">
<path d="M40.6651 34.9644C40.633 36.2959 40.8717 37.802 41.3493 37.8341C41.8268 37.8663 42.2171 36.7184 42.3043 35.5842C42.387 34.4547 49.3985 39.6479 49.8209 39.8545C50.1377 40.0106 53.4897 40.4835 55.96 41.5626C56.7819 41.9207 58.3338 43.8079 58.5405 43.8217C59.367 43.8814 59.8858 43.3533 60.1751 41.232C60.4644 39.1106 66.608 44.9604 66.0341 47.2195C65.0515 51.0857 66.0249 62.2251 59.4818 67.8682C51.9147 74.3976 38.0938 72.5518 33.0981 66.7571C28.1023 60.9624 27.9049 57.3028 23.6025 52.5413C19.9613 48.5098 15.2778 49.1297 13.5054 47.0726C12.0131 45.3461 14.2217 42.7059 15.062 41.9804C16.5589 40.6902 22.0413 39.2989 26.3942 44.3451C28.0885 46.3058 30.1777 47.6006 32.1889 45.865C34.2 44.1293 34.0623 39.4412 33.5618 36.1215" fill="url(#paint0_linear)"/>
<path d="M13.5055 47.073C12.6927 46.1317 12.9774 44.9241 13.5376 43.9001C15.3881 48.0556 20.5583 43.845 30.2467 55.0763C39.9397 66.3075 49.3021 63.9336 52.4933 62.1566C55.6845 60.3796 60.6022 56.4216 60.3864 48.827C60.3221 46.4944 60.5517 43.7027 61.02 40.8467C62.7557 41.4206 66.4841 45.4383 66.0296 47.2199C65.0469 51.0861 66.0204 62.2255 59.4773 67.8686C51.9102 74.398 38.0893 72.5521 33.0935 66.7575C28.0978 60.9628 27.9003 57.3032 23.5979 52.5417C19.9613 48.5102 15.2779 49.13 13.5055 47.073Z" fill="url(#paint1_linear)"/>
<path d="M60.1752 41.2319C60.4644 39.1106 60.694 33.573 61.2726 30.4645C61.8511 27.3559 63.5041 25.9647 66.0479 26.6488C68.5917 27.3284 67.8203 33.0496 67.7193 34.4409C67.5632 36.5714 66.6127 44.9604 66.0341 47.2195" fill="url(#paint2_linear)"/>
<path d="M49.8209 39.8594C50.2434 40.066 51.3913 39.4691 51.5107 35.7728C51.6025 32.9489 51.5658 25.0742 52.0846 21.0427C52.5989 17.0112 53.6504 14.6419 56.0702 14.4261C58.49 14.2103 59.5736 17.1811 59.5185 20.4963C59.4451 24.5921 59.1053 29.0047 58.7793 33.2382C58.5267 36.5442 57.7186 43.7669 58.5451 43.8312" fill="url(#paint3_linear)"/>
<path d="M58.7701 33.2333C58.5313 36.3556 57.8012 42.9584 58.4119 43.7436C57.163 43.3717 56.0105 40.0703 56.2906 38.3209C57.9114 28.2054 56.6947 15.1972 57.6314 14.8115C58.9538 15.7115 59.5553 18.0073 59.5093 20.4914C59.4405 24.5872 59.0961 28.9998 58.7701 33.2333Z" fill="url(#paint4_linear)"/>
<path d="M33.5574 36.1262C33.0569 32.8064 32.6528 21.0977 32.313 17.9662C31.9732 14.8346 33.7961 13.2643 35.8256 13.0623C37.8506 12.8602 39.7561 14.3158 40.1739 20.5329C40.4357 24.4588 40.8351 27.9347 40.6653 34.9599L36.2573 38.2613L33.5574 36.1262Z" fill="url(#paint5_linear)"/>
<path d="M42.3044 35.5886C42.387 34.459 42.2677 23.4574 42.3044 21.0422C42.3733 16.5194 40.532 8.55284 46.0833 8.02021C49.0036 7.74011 49.6235 10.4446 49.7521 11.6384C49.8806 12.8323 49.8531 26.2996 49.7658 27.521C49.6786 28.7424 49.3985 39.6568 49.8209 39.8634" fill="url(#paint6_linear)"/>
<path d="M40.6652 34.9645C40.6331 36.2456 40.8535 37.6782 41.2943 37.8205C37.6209 37.9491 37.7862 28.8714 37.7311 23.5588C37.6852 19.4447 35.6235 15.9458 35.6603 13.0806C35.7154 13.0714 35.7659 13.0668 35.821 13.0623C37.8459 12.8602 39.7515 14.3158 40.1693 20.5329C40.4356 24.4588 40.8351 27.9347 40.6652 34.9645Z" fill="url(#paint7_linear)"/>
<path d="M50.0643 39.8868C50.3628 39.8363 50.7714 39.5057 51.0791 38.6104C50.9413 39.3818 50.6383 39.8914 50.0643 39.8868Z" fill="url(#paint8_linear)"/>
<path d="M15.2687 43.0269C13.6203 44.0004 13.5101 44.3815 13.5422 43.9039C14.0152 43.0453 14.681 42.3152 15.0621 41.9846C16.559 40.6944 22.0414 39.3031 26.3943 44.3493C28.0887 46.31 30.1778 47.6048 32.189 45.8692C32.9788 45.185 33.4379 44.0417 33.6721 42.7055C33.516 49.6527 27.5744 48.3624 24.9755 46.2044C22.3766 44.0417 20.1037 40.1663 15.2687 43.0269Z" fill="url(#paint9_linear)"/>
<path d="M36.5833 13.0713C38.3097 13.3055 39.8066 15.1008 40.1739 20.5328C40.4356 24.4586 40.8351 27.9345 40.6652 34.9598C40.6331 36.2914 40.8719 37.7974 41.3494 37.8296C37.2261 34.2572 39.577 25.2208 38.8056 20.5052C38.1995 16.7768 37.2536 15.0778 36.5833 13.0713Z" fill="url(#paint10_linear)"/>
<path d="M49.7659 27.5164C49.6741 28.7332 49.3986 39.6522 49.821 39.8588C47.8374 40.0425 47.4976 37.9579 47.7593 34.4269C48.292 27.1904 49.1965 17.3046 47.6583 11.1288C47.5114 10.5456 47.6354 9.91656 48.0348 9.46658C49.0771 8.30488 49.6511 10.7293 49.7521 11.6384C49.8853 12.8277 49.8531 26.2996 49.7659 27.5164Z" fill="url(#paint11_linear)"/>
<path d="M59.514 20.4917C59.4405 24.5875 59.1007 29.0001 58.7747 33.2336C58.5222 36.5396 57.714 43.7623 58.5405 43.8266C54.229 43.8817 59.2752 26.2588 57.636 14.8164C58.9584 15.7118 59.5553 18.0076 59.514 20.4917Z" fill="url(#paint12_linear)"/>
<path d="M59.4175 43.8032C59.1006 43.9134 58.8803 43.9088 58.7379 43.8262C59.4496 43.7848 59.9134 43.1833 60.1751 41.2319C60.4644 39.1105 60.694 33.573 61.2725 30.4644C61.525 29.1007 61.9888 28.0676 62.6408 27.3926C62.1725 28.8986 62.8429 28.7242 62.0806 32.3929C61.672 34.3627 61.4791 43.0777 59.4175 43.8032Z" fill="url(#paint13_linear)"/>
<path d="M52.6861 30.0509C52.7687 33.4625 52.4152 39.5189 50.1882 39.8495C50.6979 39.6429 51.4142 38.6419 51.506 35.7675C51.5979 32.9436 51.5611 25.0689 52.08 21.0374C52.4979 17.7728 53.2647 15.5963 54.8304 14.7744C52.1076 19.3018 52.608 26.8229 52.6861 30.0509Z" fill="url(#paint14_linear)"/>
<path d="M43.4936 22.9895C43.3329 28.0954 44.3247 37.0905 41.5009 37.8068C41.9095 37.6278 42.2309 36.5992 42.3044 35.5891C42.387 34.4595 42.2677 23.4579 42.3044 21.0426C42.3549 17.9111 41.4871 13.122 42.7911 10.3027C42.0978 13.8751 43.6222 18.8524 43.4936 22.9895Z" fill="url(#paint15_linear)"/>
<path d="M33.672 42.7013C33.6674 42.7013 33.6674 42.7013 33.672 42.7013C34.0302 40.6443 33.8649 38.1326 33.5618 36.1215C33.0613 32.8017 32.6573 21.0929 32.3175 17.9614C32.2165 17.0063 32.3129 16.1982 32.5562 15.5278C32.7078 16.9788 33.4654 18.5767 33.4195 21.4098C33.346 25.9601 35.0679 42.9447 33.672 42.7013Z" fill="url(#paint16_linear)"/>
<path d="M45.8492 71.9638C44.9171 69.1628 45.0686 66.8303 47.8879 66.4629C55.5651 65.462 60.2624 59.5112 62.3975 47.706C64.3031 37.1727 64.4133 30.7214 66.3464 26.7588C68.5274 27.8011 67.8157 33.1045 67.7193 34.4361C67.5632 36.5666 66.6127 44.9556 66.0342 47.2147C65.0515 51.0809 66.025 62.2202 59.4818 67.8634C55.8269 71.0179 50.7209 72.2163 45.8492 71.9638Z" fill="url(#paint17_linear)"/>
<path d="M23.6025 52.5412C19.9613 48.5097 15.2778 49.1296 13.5054 47.0725C12.982 46.4664 12.9131 45.7501 13.083 45.043C13.9187 47.1139 16.4441 47.4123 20.471 48.1516C24.8285 48.9551 28.8049 52.6147 30.8619 57.9272C32.919 63.2398 39.5815 67.2759 44.0538 66.5091C48.5261 65.7469 59.1696 70.1732 62.7603 51.6964C62.7603 51.6918 62.7602 51.6872 62.7648 51.6826C62.9026 50.4566 63.0908 49.3133 63.4077 48.2985C65.6071 41.287 66.0295 36.3326 66.1535 32.3608C66.181 31.5803 65.8137 28.9814 67.5677 28.4258C68.1784 30.4277 67.7881 33.4674 67.7193 34.4317C67.5631 36.5622 66.6127 44.9512 66.0341 47.2103C65.9606 47.5042 65.8963 47.8439 65.8412 48.2159C65.8275 48.3123 65.8137 48.4133 65.7999 48.5143C65.7953 48.5419 65.7908 48.5648 65.7908 48.5924C65.7816 48.6567 65.7724 48.721 65.7678 48.7898C65.7678 48.8036 65.7632 48.822 65.7632 48.8357C65.4464 51.4392 65.327 55.3926 64.3398 59.2588V59.2634C64.2525 59.6032 64.1607 59.943 64.0597 60.2782C64.0597 60.2828 64.0551 60.2874 64.0551 60.292C63.9541 60.6271 63.8485 60.9578 63.7337 61.2884C63.7337 61.2929 63.7337 61.2929 63.7291 61.2975C62.8658 63.7633 61.5526 66.0821 59.4956 67.8544C51.9285 74.3838 38.1076 72.5379 33.1118 66.7433C28.1161 60.9486 27.9003 57.3028 23.6025 52.5412Z" fill="url(#paint18_radial)"/>
<path opacity="0.16" d="M28.4927 53.0005C27.3218 54.4101 31.2569 60.3472 34.2415 62.8313C37.2261 65.3153 40.5964 66.1878 41.7718 64.7781C42.9473 63.3685 40.2841 59.8375 37.9653 56.7243C33.966 51.3429 29.6636 51.5909 28.4927 53.0005Z" fill="url(#paint19_radial)"/>
<path opacity="0.16" d="M61.7639 51.6594C63.0633 53.2206 59.1145 62.2295 55.2162 64.4978C51.3179 66.766 46.4369 66.0681 45.4818 64.2682C44.5268 62.4682 48.5812 59.6627 51.8964 56.5634C57.613 51.2095 60.4645 50.0983 61.7639 51.6594Z" fill="url(#paint20_radial)"/>
<defs>
<linearGradient id="paint0_linear" x1="58.0366" y1="75.8111" x2="41.3008" y2="49.0339" gradientUnits="userSpaceOnUse">
<stop offset="0.00132565" stop-color="#BE8D68"/>
<stop offset="1" stop-color="#CD9870"/>
</linearGradient>
<linearGradient id="paint1_linear" x1="39.535" y1="84.4111" x2="39.535" y2="28.0039" gradientUnits="userSpaceOnUse">
<stop offset="0.00132565" stop-color="#BE8D68"/>
<stop offset="1" stop-color="#CD9870"/>
</linearGradient>
<linearGradient id="paint2_linear" x1="80.7092" y1="61.6407" x2="63.9735" y2="34.8635" gradientUnits="userSpaceOnUse">
<stop offset="0.00132565" stop-color="#BE8D68"/>
<stop offset="1" stop-color="#CD9870"/>
</linearGradient>
<linearGradient id="paint3_linear" x1="-169.975" y1="-231.976" x2="-145.765" y2="-203.92" gradientUnits="userSpaceOnUse">
<stop offset="0.00132565" stop-color="#BE8D68"/>
<stop offset="1" stop-color="#CD9870"/>
</linearGradient>
<linearGradient id="paint4_linear" x1="57.6175" y1="16.5182" x2="58.6432" y2="66.7794" gradientUnits="userSpaceOnUse">
<stop stop-color="#D2A374" stop-opacity="0"/>
<stop offset="1" stop-color="#B88653"/>
</linearGradient>
<linearGradient id="paint5_linear" x1="-179.088" y1="-224.112" x2="-154.878" y2="-196.056" gradientUnits="userSpaceOnUse">
<stop offset="0.00132565" stop-color="#BE8D68"/>
<stop offset="1" stop-color="#CD9870"/>
</linearGradient>
<linearGradient id="paint6_linear" x1="-172.215" y1="-230.044" x2="-148.005" y2="-201.988" gradientUnits="userSpaceOnUse">
<stop offset="0.00132565" stop-color="#BE8D68"/>
<stop offset="1" stop-color="#CD9870"/>
</linearGradient>
<linearGradient id="paint7_linear" x1="34.0405" y1="25.3304" x2="46.007" y2="25.5986" gradientUnits="userSpaceOnUse">
<stop stop-color="#D2A374" stop-opacity="0"/>
<stop offset="1" stop-color="#B88653"/>
</linearGradient>
<linearGradient id="paint8_linear" x1="45.2036" y1="39.6875" x2="60.2869" y2="38.4682" gradientUnits="userSpaceOnUse">
<stop stop-color="#FFBC47" stop-opacity="0"/>
<stop offset="1" stop-color="#FFA754"/>
</linearGradient>
<linearGradient id="paint9_linear" x1="34.7121" y1="49.0891" x2="8.79868" y2="35.8085" gradientUnits="userSpaceOnUse">
<stop stop-color="#B37E53"/>
<stop offset="1" stop-color="#CD9870"/>
</linearGradient>
<linearGradient id="paint10_linear" x1="36.4332" y1="3.17039" x2="41.5079" y2="40.4209" gradientUnits="userSpaceOnUse">
<stop offset="0.3072" stop-color="#B37E53" stop-opacity="0"/>
<stop offset="1" stop-color="#B37E53"/>
</linearGradient>
<linearGradient id="paint11_linear" x1="53.0497" y1="-0.525191" x2="46.2474" y2="39.7485" gradientUnits="userSpaceOnUse">
<stop offset="0.3072" stop-color="#B37E53" stop-opacity="0"/>
<stop offset="1" stop-color="#B37E53"/>
</linearGradient>
<linearGradient id="paint12_linear" x1="57.3913" y1="2.73882" x2="58.3631" y2="38.3697" gradientUnits="userSpaceOnUse">
<stop offset="0.3072" stop-color="#B37E53" stop-opacity="0"/>
<stop offset="1" stop-color="#B37E53"/>
</linearGradient>
<linearGradient id="paint13_linear" x1="64.9697" y1="11.8364" x2="60.111" y2="40.881" gradientUnits="userSpaceOnUse">
<stop offset="0.3072" stop-color="#B37E53" stop-opacity="0"/>
<stop offset="1" stop-color="#B37E53"/>
</linearGradient>
<linearGradient id="paint14_linear" x1="54.0315" y1="-2.01746" x2="52.3039" y2="31.2381" gradientUnits="userSpaceOnUse">
<stop offset="0.3072" stop-color="#B37E53" stop-opacity="0"/>
<stop offset="1" stop-color="#B37E53"/>
</linearGradient>
<linearGradient id="paint15_linear" x1="38.7705" y1="2.66533" x2="43.8452" y2="34.8411" gradientUnits="userSpaceOnUse">
<stop offset="0.3072" stop-color="#B37E53" stop-opacity="0"/>
<stop offset="1" stop-color="#B37E53"/>
</linearGradient>
<linearGradient id="paint16_linear" x1="31.4619" y1="6.66122" x2="34.9147" y2="48.0946" gradientUnits="userSpaceOnUse">
<stop offset="0.3072" stop-color="#B37E53" stop-opacity="0"/>
<stop offset="1" stop-color="#B37E53"/>
</linearGradient>
<linearGradient id="paint17_linear" x1="58.8599" y1="50.4031" x2="78.079" y2="57.6372" gradientUnits="userSpaceOnUse">
<stop offset="0.3118" stop-color="#F0C492" stop-opacity="0"/>
<stop offset="1" stop-color="#F0C492"/>
</linearGradient>
<radialGradient id="paint18_radial" cx="0" cy="0" r="1" gradientUnits="userSpaceOnUse" gradientTransform="translate(46.7441 46.6902) rotate(91.2386) scale(39.9605 30.0203)">
<stop offset="0.6147" stop-color="#B37E53" stop-opacity="0"/>
<stop offset="1" stop-color="#B37E53"/>
</radialGradient>
<radialGradient id="paint19_radial" cx="0" cy="0" r="1" gradientUnits="userSpaceOnUse" gradientTransform="translate(35.1963 58.6878) rotate(-140.233) scale(8.81857 4.0931)">
<stop stop-color="#F8DBBA"/>
<stop offset="1" stop-color="#CD9870" stop-opacity="0"/>
</radialGradient>
<radialGradient id="paint20_radial" cx="0" cy="0" r="1" gradientUnits="userSpaceOnUse" gradientTransform="translate(54.0611 59.4231) rotate(-41.0326) scale(11.3483 5.17837)">
<stop stop-color="#F8DBBA"/>
<stop offset="1" stop-color="#CD9870" stop-opacity="0"/>
</radialGradient>
</defs>
</svg>
