<svg width="80" height="80" viewBox="0 0 80 80" fill="none" xmlns="http://www.w3.org/2000/svg">
<path d="M57.4775 26.2703C56.8639 24.0825 55.5148 23.4032 54.8778 23.197C54.667 23.1314 54.5358 23.1127 54.5358 23.1127L42.5019 18.6948L25.259 27.5962L29.0814 39.018C32.782 38.4699 36.4873 38.4136 40.2066 38.4652C46.7646 38.5589 53.3647 38.9992 60.0492 37.6922C60.1382 33.7147 58.1942 28.8236 57.4775 26.2703Z" fill="url(#paint0_linear)"/>
<path d="M60.9861 35.8698C55.9459 35.6543 53.5194 33.3774 53.0838 27.1606C53.0369 26.4625 49.4675 9.68581 59.3701 9.4703C68.2655 9.27822 68.1999 14.6659 67.8205 23.6375C67.4364 32.6044 65.3238 36.0525 60.9861 35.8698Z" fill="url(#paint1_linear)"/>
<path d="M60.6818 26.5982C53.0136 26.2703 51.1071 9.57787 59.595 9.47012C66.8884 9.37174 66.6683 14.5907 66.6308 19.0274C66.5746 25.4035 64.2418 26.7481 60.6818 26.5982Z" fill="url(#paint2_linear)"/>
<path d="M57.9929 35.3729C58.8689 35.6493 59.8526 35.8227 60.9815 35.8695C65.3191 36.0569 67.4317 32.6041 67.8158 23.6372C68.1859 14.9935 68.2327 9.69022 60.2695 9.48877C63.3189 11.4564 65.6938 15.7291 65.3706 23.2624C64.9162 33.9721 62.3961 35.5369 57.9929 35.3729Z" fill="url(#paint3_linear)"/>
<path d="M63.5344 9.93896C64.6259 10.2482 65.6892 10.8385 66.3965 11.7708C67.1179 12.6843 67.516 13.8134 67.7456 14.9378C68.2046 17.2099 68.1297 19.5243 68.0454 21.8058C67.9376 24.0874 67.8533 26.3877 67.4458 28.6505C67.2444 29.7796 66.982 30.9039 66.5792 31.9815C66.1717 33.0449 65.5814 34.1225 64.6118 34.7596C65.4924 34.0147 65.9983 32.9653 66.3918 31.9112C66.7853 30.8477 67.0429 29.7327 67.2256 28.613C67.6003 26.3643 67.68 24.0827 67.7362 21.7965C67.7784 19.5196 67.8674 17.224 67.502 14.9846C67.3052 13.8743 66.9492 12.7733 66.27 11.8691C65.6002 10.9603 64.6165 10.2997 63.5344 9.93896Z" fill="#975500"/>
<path d="M11.5717 40.1098C11.5717 43.2581 13.1128 44.6729 13.8858 45.1836C14.1434 45.3522 14.312 45.4225 14.312 45.4225L28.7115 55.8371L55.0653 50.4354L54.2596 33.7571C49.1163 33.0965 44.1509 31.78 39.209 30.3136C30.4916 27.7229 26.7113 12.8202 12.4383 23.8859C10.8176 29.1799 11.5717 36.4368 11.5717 40.1098Z" fill="url(#paint4_linear)"/>
<path d="M39.6353 40.6063C46.1277 39.9223 50.2452 45.2349 50.7605 47.999L52.8825 47.226L51.9175 36.6194L53.3884 26.9778L52.8638 23.1081L39.3964 23.169L26.524 24.9821L24.744 19.4117C24.6971 19.4117 24.2474 19.407 24.2006 19.4023L15.2583 20.3159C14.2933 20.672 13.5954 21.1451 13.2768 21.7635C12.0917 24.0826 11.6327 27.095 11.4734 30.1027C12.8693 32.9089 16.0031 34.3659 18.7387 34.3659C21.9521 34.3659 23.8821 31.9251 25.0391 29.8638C25.0391 29.8638 25.2499 33.5929 30.4167 35.0078C30.426 35.0125 34.2624 41.1684 39.6353 40.6063Z" fill="url(#paint5_linear)"/>
<path d="M18.673 33.0821C14.8881 33.0821 11.7543 29.9947 11.2297 24.2089C10.705 18.423 10.5786 12.2529 16.5838 12.2529C22.5891 12.2529 24.2895 14.5673 24.6783 22.2833C25.0717 29.9947 22.5937 33.0821 18.673 33.0821Z" fill="url(#paint6_linear)"/>
<path d="M33.0209 33.9815C28.346 33.9815 26.0085 31.9295 25.3574 26.0781C25.2825 25.4222 21.3195 9.72301 30.4773 9.11866C38.7076 8.57521 38.8622 13.6677 38.8622 22.1568C38.8622 30.6459 37.0494 33.9815 33.0209 33.9815Z" fill="url(#paint7_linear)"/>
<path d="M32.7586 25.8816C29.1892 27.6807 26.7861 27.7181 25.259 25.2632C25.2965 25.5396 25.334 25.8207 25.3621 26.0784C26.0132 31.9299 28.3507 33.9819 33.0256 33.9819C36.314 33.9819 38.1268 31.7472 38.6842 26.308C37.7567 24.7245 34.8665 24.8228 32.7586 25.8816Z" fill="url(#paint8_linear)"/>
<path d="M18.5465 25.624C15.3612 25.624 12.7239 23.6422 12.2836 19.9271C11.8433 16.212 11.7356 12.2485 16.7899 12.2485C21.8442 12.2485 23.273 13.7336 23.6009 18.6856C23.9288 23.6375 21.8396 25.624 18.5465 25.624Z" fill="url(#paint9_linear)"/>
<path d="M32.3744 25.2395C25.259 25.2395 22.8326 9.55436 30.6881 9.10461C37.4381 8.72044 37.4428 13.6537 37.5834 17.8467C37.7848 23.8761 35.6768 25.2395 32.3744 25.2395Z" fill="url(#paint10_linear)"/>
<path d="M30.2339 33.6351C31.0583 33.8647 31.9718 33.9865 33.021 33.9865C37.0448 33.9865 38.867 30.6414 38.867 22.157C38.867 13.9772 38.6984 8.96899 31.3206 9.10017C34.2249 10.8336 36.5905 14.7736 36.5905 21.8994C36.5905 32.0329 34.3186 33.6164 30.2339 33.6351Z" fill="url(#paint11_linear)"/>
<path d="M18.7105 29.4841C14.86 29.4841 11.6746 26.4202 11.0142 20.7046C11.0376 21.8524 11.1266 23.0424 11.2296 24.2136C11.7543 29.9995 14.8881 33.0868 18.673 33.0868C22.3502 33.0868 24.7251 30.318 24.6877 23.6139C23.9054 27.7273 21.7178 29.4841 18.7105 29.4841Z" fill="url(#paint12_linear)"/>
<path d="M24.683 22.2834C24.3082 14.9327 22.7437 12.4919 17.4036 12.2764C20.2048 12.7355 25.6245 23.5249 18.1624 33.0306C18.3357 33.0446 18.5044 33.0821 18.6777 33.0821C22.5938 33.0821 25.0717 29.9947 24.683 22.2834Z" fill="url(#paint13_linear)"/>
<path d="M24.4394 19.4023C24.7204 21.8572 25.0108 24.3496 24.6267 26.828C24.4534 28.0601 24.1442 29.2922 23.5447 30.4072C22.9685 31.5316 21.9661 32.4546 20.7669 32.909C18.3404 33.7148 15.5064 32.9793 13.8248 31.0772C12.0775 29.222 11.4077 26.6593 11.2344 24.2138C11.5389 26.6452 12.2883 29.1376 13.9887 30.9226C15.6376 32.745 18.3779 33.3869 20.6545 32.5951C21.7787 32.1828 22.7296 31.3442 23.3058 30.2714C23.9007 29.2126 24.2239 28.0086 24.4113 26.7952C24.8 24.3543 24.5893 21.8713 24.4394 19.4023Z" fill="#975500"/>
<path d="M31.1754 33.8271C30.4118 33.9582 29.6998 33.6537 29.044 33.3117C28.3882 32.965 27.7933 32.4919 27.3108 31.9297C26.3318 30.8006 25.8118 29.3764 25.498 27.9616C25.2076 26.528 25.156 25.0897 24.9406 23.6655C24.7532 22.2366 24.5846 20.803 24.5002 19.3647C24.6642 20.7983 24.8984 22.2179 25.1233 23.6374C25.3856 25.0522 25.4933 26.5046 25.8212 27.8866C26.1397 29.264 26.655 30.632 27.5872 31.6814C28.0462 32.2061 28.6037 32.6418 29.222 32.9604C29.8497 33.3024 30.5242 33.4288 31.1754 33.8271Z" fill="#975500"/>
<path d="M39.6352 40.6061C34.267 41.173 30.4259 35.0124 30.4259 35.0124C25.2592 33.5975 25.0484 29.8683 25.0484 29.8683C23.8914 31.925 21.9614 34.3705 18.748 34.3705C16.0124 34.3705 12.8786 32.9135 11.4827 30.1073C11.5155 29.4842 11.5717 28.8611 11.6326 28.2427H11.6092C11.4359 29.9386 11.3937 31.6627 11.4031 33.3211C14.1668 36.4928 18.4998 36.9425 21.2682 36.1227C22.0177 35.9025 25.5168 33.2602 28.215 35.9165C31.1426 38.7931 34.5481 42.4754 40.3988 42.3442C46.2494 42.2177 50.7604 48.0036 50.7604 48.0036C50.2451 45.2348 46.1276 39.9221 39.6352 40.6061Z" fill="url(#paint14_linear)"/>
<path d="M46.6433 31.9906C41.9496 31.8407 39.4154 29.8355 39.1906 24.2558C38.9329 17.9078 36.7594 8.26623 45.3879 8.00856C53.6603 7.76026 52.7937 12.9324 52.8593 20.9764C52.9436 30.8194 50.6858 32.1218 46.6433 31.9906Z" fill="url(#paint15_linear)"/>
<path d="M46.3011 23.3095C42.6567 25.1178 40.2443 25.0804 38.7969 22.4053C38.825 22.7004 38.8531 23.0003 38.8718 23.2814C39.3262 29.5592 41.6028 31.8314 46.2964 31.9813C49.5988 32.0891 51.4913 29.7559 52.2314 23.956C51.3554 22.2319 48.4465 22.2413 46.3011 23.3095Z" fill="url(#paint16_linear)"/>
<path d="M45.9638 23.7688C42.1133 23.647 40.6799 23.319 40.1647 18.8683C39.9023 16.5774 38.5158 8.21015 45.5984 8.0087C52.3859 7.81662 51.6692 13.4385 51.6692 17.9267C51.6692 24.3778 49.2803 23.8765 45.9638 23.7688Z" fill="url(#paint17_linear)"/>
<path d="M43.8557 31.5691C44.6755 31.8127 45.5889 31.972 46.6429 31.9907C52.2781 32.0844 52.606 29.0111 52.8589 20.9765C53.1025 13.2277 53.6365 8.1305 46.226 8.01807C49.0881 9.75148 50.7931 13.9117 50.5777 20.6579C50.2826 30.262 47.9545 31.6815 43.8557 31.5691Z" fill="url(#paint18_linear)"/>
<path d="M44.4459 31.7515C43.6075 31.8545 42.8439 31.4563 42.1647 31.0159C41.4855 30.5615 40.9234 29.9384 40.5111 29.245C39.682 27.8442 39.3635 26.2373 39.1855 24.6725C39.0122 23.0937 39.045 21.5102 39.0168 19.9408C38.9841 18.3666 38.97 16.7925 38.7405 15.2324C39.0356 16.7831 39.1199 18.3619 39.1902 19.9361C39.2651 21.5102 39.2698 23.089 39.4993 24.6351C39.7148 26.1717 40.0286 27.7412 40.8297 29.0576C41.2278 29.7088 41.7525 30.2804 42.3849 30.6974C43.0125 31.1378 43.7527 31.297 44.4459 31.7515Z" fill="#975500"/>
<path d="M49.2708 8.43066C50.0999 8.68365 50.9009 9.12872 51.4817 9.80335C52.0579 10.478 52.428 11.3119 52.6528 12.1645C53.0978 13.8792 53.1353 15.6501 53.14 17.3976C53.1025 19.1498 53.0275 20.8926 52.9479 22.6353C52.9151 23.5021 52.9057 24.3781 52.8449 25.2542C52.8074 25.6899 52.784 26.1303 52.6856 26.566C52.6387 26.7815 52.5779 27.0017 52.4654 27.1985C52.3624 27.3859 52.1703 27.6107 51.9314 27.5639C52.3858 27.4561 52.3999 26.9127 52.5029 26.5285C52.5685 26.1069 52.62 25.6759 52.6387 25.2402C52.6809 24.3735 52.6668 23.5021 52.6809 22.626L52.8121 17.3929C52.8402 15.6595 52.8542 13.9027 52.4561 12.2161C52.2593 11.3775 51.9221 10.5623 51.3787 9.89236C50.8494 9.20836 50.0858 8.7305 49.2708 8.43066Z" fill="#975500"/>
<path d="M34.356 9.39062C35.1476 9.58739 35.9205 9.92471 36.5529 10.4682C37.19 11.0069 37.649 11.7237 37.9816 12.4827C38.6281 14.0193 38.8154 15.6825 38.9372 17.3128C39.0169 18.9525 39.0216 20.5923 38.9981 22.2273C38.9934 23.0425 39.0122 23.8623 38.9794 24.6822C38.956 25.0945 38.9466 25.5067 38.8576 25.9143C38.8154 26.1205 38.7592 26.3266 38.6562 26.514C38.5625 26.6967 38.3611 26.8841 38.1409 26.8466C38.5625 26.7389 38.5859 26.247 38.6702 25.8815C38.7264 25.488 38.7639 25.0804 38.7686 24.6775C38.7826 23.867 38.7452 23.0518 38.7311 22.2273C38.6983 20.5923 38.7124 18.9572 38.6093 17.3316C38.5203 15.7153 38.3845 14.0662 37.7943 12.5576C37.2321 11.0444 35.9486 9.83101 34.356 9.39062Z" fill="#975500"/>
<path d="M53.7819 29.8356L53.3509 27.0059C53.1776 26.0689 52.9528 25.1319 52.8591 24.1762C52.6342 22.2741 52.6202 20.3346 52.9528 18.4419C52.9855 20.358 53.0792 22.246 53.201 24.1434C53.2854 25.0898 53.3135 26.0455 53.4212 26.9965L53.7819 29.8356Z" fill="#975500"/>
<path d="M30.4258 30.8519C30.4258 27.4226 32.8523 27.3148 39.34 26.7386C43.9821 26.3263 49.0224 25.1082 55.454 27.5959C62.7896 30.4303 69.6801 34.539 69.7645 41.9084C69.8394 48.5094 64.7101 71.995 42.2536 71.995C19.7971 71.995 12.2554 59.9969 11.5715 40.1094L50.7603 47.9941C50.7603 47.9941 51.5941 40.9854 46.7974 38.91C44.7504 38.0246 40.3705 38.7367 37.4569 38.7367C34.5386 38.7414 30.4258 35.4806 30.4258 30.8519Z" fill="url(#paint19_linear)"/>
<path d="M58.2786 57.1251C48.7648 64.0681 49.5377 67.9238 40.6657 67.9238C31.7936 67.9238 26.0741 63.2295 22.0222 59.1817C17.975 55.134 14.5648 48.383 12.8925 43.2389C12.4991 42.0255 12.0353 41.0089 11.5669 40.1516C12.2602 60.011 19.8065 71.9997 42.249 71.9997C64.7054 71.9997 69.8347 48.5142 69.7598 41.9131C69.727 39.0272 68.6402 36.6472 66.9023 34.6421C67.3989 44.0682 66.092 51.4235 58.2786 57.1251Z" fill="url(#paint20_linear)"/>
<path d="M53.0509 41.1399C52.8776 37.0265 47.8232 32.9132 43.6214 33.3395C39.9958 33.7096 33.4284 34.2015 30.4961 31.5171C30.8708 35.7804 34.6838 38.7412 37.4522 38.7412C40.3659 38.7412 44.7456 38.0244 46.7927 38.9146C51.5941 40.9947 50.7556 47.9986 50.7556 47.9986C50.7556 47.9986 53.2242 45.2532 53.0509 41.1399Z" fill="url(#paint21_linear)"/>
<path d="M69.7644 41.9131C69.6801 34.539 62.7848 30.435 55.4539 27.5959C49.0271 25.1082 43.9821 26.3263 39.34 26.7386C34.3887 27.179 31.8171 27.357 30.8708 28.9358C36.9698 27.4273 42.6846 26.8135 49.7297 27.6193C58.9109 28.6688 65.8484 34.3282 67.1084 38.6571C68.3544 42.9344 68.1718 50.8988 68.1671 51.0909C69.3522 47.2539 69.7878 43.8527 69.7644 41.9131Z" fill="url(#paint22_linear)"/>
<path d="M50.7604 47.9988C50.8822 46.331 50.751 44.6257 50.2217 43.0422C49.7158 41.468 48.7134 39.9829 47.2191 39.2333C45.7623 38.4134 43.9916 38.5681 42.3474 38.5962C40.6751 38.6618 39.0122 38.8585 37.3212 38.8445C35.5927 38.7554 34.0281 37.8419 32.8149 36.6753C31.6111 35.4807 30.7164 33.9394 30.4259 32.2528C30.2713 31.4142 30.2292 30.5522 30.4025 29.6948C30.5852 28.8375 31.2316 28.0692 32.0373 27.7459C33.6393 27.0666 35.3444 26.9823 37.0073 26.7855C40.3566 26.5747 43.6543 25.9703 47.0364 25.9469C48.718 25.9422 50.4091 26.0921 52.0579 26.4529C53.7068 26.8042 55.2995 27.3852 56.8453 28.0364C59.9275 29.3435 62.9723 30.8801 65.5112 33.1101C66.7619 34.2345 67.8627 35.5463 68.6169 37.0548C69.3804 38.5587 69.7645 40.2359 69.7739 41.9131C69.7364 40.2359 69.3242 38.5727 68.5466 37.0923C67.7737 35.6072 66.6635 34.3235 65.4081 33.2319C62.8786 31.0347 59.8479 29.5215 56.7656 28.2378C53.7021 26.8979 50.3857 26.153 47.0458 26.2233C43.7106 26.2655 40.3894 26.8886 37.0448 27.1181C35.396 27.3008 33.6768 27.3852 32.1732 28.0223C31.4143 28.3315 30.8709 28.978 30.6882 29.7651C30.5243 30.5522 30.5524 31.4001 30.7023 32.2059C30.974 33.8316 31.8312 35.3355 32.9929 36.502C34.164 37.6451 35.6911 38.5353 37.3352 38.629C38.9982 38.6524 40.6705 38.4697 42.3474 38.4088C43.1859 38.376 44.0291 38.3619 44.8723 38.4275C45.7014 38.4978 46.582 38.6336 47.3081 39.0974C48.8305 39.8939 49.8282 41.4305 50.3107 43.0234C50.8072 44.621 50.9056 46.331 50.7604 47.9988Z" fill="#975500"/>
<path opacity="0.5" d="M15.7078 40.7888C13.6467 43.2718 19.9143 57.5702 26.1022 61.1682C32.2901 64.7709 40.0426 63.6653 41.5556 60.8028C43.0686 57.9403 36.6371 53.4943 31.3767 48.5658C22.2939 40.0673 17.7689 38.3058 15.7078 40.7888Z" fill="url(#paint23_radial)"/>
<path opacity="0.5" d="M66.1341 42.6206C67.2302 41.1449 61.7496 31.9905 57.3745 29.5216C52.9994 27.0526 44.385 28.519 43.6823 30.2524C42.9797 31.9858 51.2802 33.9394 55.1869 37.2002C61.9229 42.8314 65.0379 44.0964 66.1341 42.6206Z" fill="url(#paint24_radial)"/>
<defs>
<linearGradient id="paint0_linear" x1="56.5339" y1="26.7105" x2="18.7843" y2="37.337" gradientUnits="userSpaceOnUse">
<stop offset="0.00132565" stop-color="#FFCB4B"/>
<stop offset="1" stop-color="#FFD748"/>
</linearGradient>
<linearGradient id="paint1_linear" x1="60.6367" y1="9.48216" x2="59.5117" y2="35.8056" gradientUnits="userSpaceOnUse">
<stop offset="0.00132565" stop-color="#D2A374"/>
<stop offset="1" stop-color="#DEBA94"/>
</linearGradient>
<linearGradient id="paint2_linear" x1="62.2508" y1="-11.1118" x2="58.417" y2="46.8866" gradientUnits="userSpaceOnUse">
<stop offset="0.00132565" stop-color="#D2A374"/>
<stop offset="1" stop-color="#DEBA94"/>
</linearGradient>
<linearGradient id="paint3_linear" x1="50.3757" y1="16.1777" x2="111.512" y2="55.1588" gradientUnits="userSpaceOnUse">
<stop stop-color="#D2A374" stop-opacity="0"/>
<stop offset="1" stop-color="#B88653"/>
</linearGradient>
<linearGradient id="paint4_linear" x1="6.51564" y1="59.3614" x2="38.0139" y2="33.6997" gradientUnits="userSpaceOnUse">
<stop offset="0.00132565" stop-color="#D2A374"/>
<stop offset="1" stop-color="#DEBA94"/>
</linearGradient>
<linearGradient id="paint5_linear" x1="26.1207" y1="72.0113" x2="32.1213" y2="38.2348" gradientUnits="userSpaceOnUse">
<stop stop-color="#D2A374" stop-opacity="0"/>
<stop offset="1" stop-color="#B88653"/>
</linearGradient>
<linearGradient id="paint6_linear" x1="18.2737" y1="12.3063" x2="17.3879" y2="33.0339" gradientUnits="userSpaceOnUse">
<stop offset="0.00132565" stop-color="#D2A374"/>
<stop offset="1" stop-color="#DEBA94"/>
</linearGradient>
<linearGradient id="paint7_linear" x1="32.1465" y1="9.0875" x2="31.0856" y2="33.9134" gradientUnits="userSpaceOnUse">
<stop offset="0.00132565" stop-color="#D2A374"/>
<stop offset="1" stop-color="#DEBA94"/>
</linearGradient>
<linearGradient id="paint8_linear" x1="31.9689" y1="20.2739" x2="31.9689" y2="51.8393" gradientUnits="userSpaceOnUse">
<stop stop-color="#D2A374" stop-opacity="0"/>
<stop offset="1" stop-color="#B88653"/>
</linearGradient>
<linearGradient id="paint9_linear" x1="20.0018" y1="-13.9041" x2="16.1681" y2="44.094" gradientUnits="userSpaceOnUse">
<stop offset="0.00132565" stop-color="#D2A374"/>
<stop offset="1" stop-color="#DEBA94"/>
</linearGradient>
<linearGradient id="paint10_linear" x1="33.7056" y1="-12.9987" x2="29.8719" y2="44.9996" gradientUnits="userSpaceOnUse">
<stop offset="0.00132565" stop-color="#D2A374"/>
<stop offset="1" stop-color="#DEBA94"/>
</linearGradient>
<linearGradient id="paint11_linear" x1="22.417" y1="15.8133" x2="81.1464" y2="49.172" gradientUnits="userSpaceOnUse">
<stop stop-color="#D2A374" stop-opacity="0"/>
<stop offset="1" stop-color="#B88653"/>
</linearGradient>
<linearGradient id="paint12_linear" x1="17.7232" y1="20.265" x2="19.3529" y2="47.2813" gradientUnits="userSpaceOnUse">
<stop stop-color="#D2A374" stop-opacity="0"/>
<stop offset="1" stop-color="#B88653"/>
</linearGradient>
<linearGradient id="paint13_linear" x1="3.44169" y1="12.7485" x2="94.0778" y2="70.2929" gradientUnits="userSpaceOnUse">
<stop stop-color="#D2A374" stop-opacity="0"/>
<stop offset="1" stop-color="#B88653"/>
</linearGradient>
<linearGradient id="paint14_linear" x1="31.0796" y1="51.9226" x2="31.0796" y2="26.3011" gradientUnits="userSpaceOnUse">
<stop stop-color="#D2A374" stop-opacity="0"/>
<stop offset="1" stop-color="#B88653"/>
</linearGradient>
<linearGradient id="paint15_linear" x1="46.2992" y1="8.00001" x2="45.2764" y2="31.9328" gradientUnits="userSpaceOnUse">
<stop offset="0.00132565" stop-color="#D2A374"/>
<stop offset="1" stop-color="#DEBA94"/>
</linearGradient>
<linearGradient id="paint16_linear" x1="45.6996" y1="17.2953" x2="44.6268" y2="51.0439" gradientUnits="userSpaceOnUse">
<stop stop-color="#D2A374" stop-opacity="0"/>
<stop offset="1" stop-color="#B88653"/>
</linearGradient>
<linearGradient id="paint17_linear" x1="47.6752" y1="-12.075" x2="43.8415" y2="45.9233" gradientUnits="userSpaceOnUse">
<stop offset="0.00132565" stop-color="#D2A374"/>
<stop offset="1" stop-color="#DEBA94"/>
</linearGradient>
<linearGradient id="paint18_linear" x1="37.3197" y1="14.2896" x2="93.8711" y2="48.8319" gradientUnits="userSpaceOnUse">
<stop stop-color="#D2A374" stop-opacity="0"/>
<stop offset="1" stop-color="#B88653"/>
</linearGradient>
<linearGradient id="paint19_linear" x1="14.9134" y1="69.6689" x2="46.4117" y2="44.0071" gradientUnits="userSpaceOnUse">
<stop offset="0.00132565" stop-color="#D2A374"/>
<stop offset="1" stop-color="#DEBA94"/>
</linearGradient>
<linearGradient id="paint20_linear" x1="40.3911" y1="44.3443" x2="29.5011" y2="155.23" gradientUnits="userSpaceOnUse">
<stop stop-color="#E6AF74" stop-opacity="0"/>
<stop offset="1" stop-color="#E6AF74"/>
</linearGradient>
<linearGradient id="paint21_linear" x1="38.3647" y1="43.6278" x2="57.3654" y2="11.9644" gradientUnits="userSpaceOnUse">
<stop stop-color="#D2A374" stop-opacity="0"/>
<stop offset="1" stop-color="#B88653"/>
</linearGradient>
<linearGradient id="paint22_linear" x1="53.3801" y1="21.3008" x2="44.4644" y2="65.7013" gradientUnits="userSpaceOnUse">
<stop stop-color="#E6AF74" stop-opacity="0"/>
<stop offset="1" stop-color="#E6AF74"/>
</linearGradient>
<radialGradient id="paint23_radial" cx="0" cy="0" r="1" gradientUnits="userSpaceOnUse" gradientTransform="translate(27.952 53.1273) rotate(-138.963) scale(18.0165 8.22073)">
<stop stop-color="#E9CDB1"/>
<stop offset="1" stop-color="#E9CDB1" stop-opacity="0"/>
</radialGradient>
<radialGradient id="paint24_radial" cx="0" cy="0" r="1" gradientUnits="userSpaceOnUse" gradientTransform="translate(55.6044 33.7197) rotate(38.2193) scale(13.8922 5.11523)">
<stop stop-color="#E9CDB1"/>
<stop offset="1" stop-color="#E9CDB1" stop-opacity="0"/>
</radialGradient>
</defs>
</svg>
