<svg width="80" height="80" viewBox="0 0 80 80" fill="none" xmlns="http://www.w3.org/2000/svg">
<path d="M40.6634 34.9624C40.6315 36.2963 40.8682 37.7987 41.3508 37.8352C41.8287 37.8716 42.2202 36.7197 42.3021 35.5861C42.3841 34.4571 49.3943 39.6517 49.8177 39.8566C50.1363 40.0114 53.4867 40.4894 55.9539 41.5638C56.7778 41.9235 58.3255 43.8083 58.5349 43.822C59.3634 43.8812 59.8823 43.353 60.1691 41.2315C60.4559 39.1099 66.6012 44.9601 66.0277 47.2183C65.0444 51.0835 66.0186 62.224 59.4772 67.8648C51.9116 74.3934 38.096 72.545 33.0978 66.754C28.0996 60.9629 27.9039 57.298 23.6021 52.5359C19.9604 48.5067 15.2809 49.1213 13.5056 47.068C12.0125 45.338 14.2202 42.702 15.0624 41.9781C16.5555 40.6897 22.0407 39.2966 26.3926 44.341C28.0859 46.3032 30.1754 47.5962 32.1874 45.8616C34.1949 44.127 34.0583 39.4377 33.5621 36.1188" fill="url(#paint0_linear)"/>
<path d="M13.5055 47.0732C12.6952 46.1353 12.9774 44.9243 13.5373 43.8999C15.3855 48.052 20.5567 43.8453 30.2481 55.0768C39.9395 66.3084 49.2986 63.9364 52.4941 62.1609C55.6852 60.3853 60.6014 56.429 60.3875 48.8305C60.3192 46.4995 60.5513 43.7042 61.0202 40.8496C62.7545 41.4233 66.4827 45.4387 66.032 47.2234C65.0488 51.0887 66.0229 62.2291 59.4816 67.87C51.916 74.3985 38.1004 72.5501 33.1022 66.7591C28.104 60.968 27.9083 57.3031 23.6066 52.541C19.9603 48.5118 15.2762 49.1264 13.5055 47.0732Z" fill="url(#paint1_linear)"/>
<path d="M60.1692 41.2317C60.456 39.1101 60.6881 33.5695 61.2663 30.4645C61.8444 27.3596 63.4968 25.9664 66.0369 26.6448C68.577 27.3231 67.8122 33.0459 67.7075 34.4345C67.5527 36.5651 66.5968 44.9558 66.0232 47.2139" fill="url(#paint2_linear)"/>
<path d="M49.8132 39.8572C50.2366 40.0621 51.3837 39.4657 51.502 35.7689C51.5931 32.9462 51.5612 25.07 52.0756 21.0363C52.5899 17.0026 53.6415 14.6352 56.0631 14.4167C58.4848 14.2027 59.5681 17.1711 59.5089 20.49C59.4361 24.5874 59.0947 28.999 58.767 33.233C58.5121 36.5428 57.7064 43.7634 58.5348 43.8226" fill="url(#paint3_linear)"/>
<path d="M58.767 33.2328C58.5258 36.3559 57.7975 42.9573 58.412 43.745C57.1648 43.3716 56.0131 40.0709 56.2908 38.3227C57.9113 28.2066 56.6959 15.1995 57.629 14.8125C58.9536 15.7139 59.5499 18.0085 59.509 20.4943C59.4361 24.5872 59.0902 29.0033 58.767 33.2328Z" fill="url(#paint4_linear)"/>
<path d="M33.5576 36.1234C33.0568 32.8045 32.6517 21.0949 32.3148 17.9672C31.978 14.8395 33.7988 13.2643 35.8245 13.064C37.8502 12.8636 39.7576 14.316 40.1718 20.535C40.4359 24.4594 40.8319 27.9331 40.6635 34.9625L36.257 38.2632L33.5576 36.1234Z" fill="url(#paint5_linear)"/>
<path d="M42.2976 35.5865C42.3796 34.4575 42.2567 23.4536 42.2976 21.0406C42.3659 16.5198 40.5269 8.55254 46.0759 8.01988C48.9938 7.74216 49.6175 10.4465 49.7449 11.6347C49.8724 12.823 49.8451 26.299 49.7586 27.5146C49.6675 28.7347 49.3899 39.6475 49.8132 39.857" fill="url(#paint6_linear)"/>
<path d="M40.6633 34.9625C40.6314 36.2418 40.8545 37.6805 41.2961 37.8216C37.6271 37.9491 37.791 28.871 37.7318 23.558C37.6863 19.4423 35.6242 15.9458 35.6606 13.0822C35.7153 13.0731 35.7699 13.0685 35.82 13.064C37.8456 12.8636 39.7529 14.316 40.1671 20.535C40.4357 24.4594 40.8317 27.9331 40.6633 34.9625Z" fill="url(#paint7_linear)"/>
<path d="M49.7585 27.5191C49.6674 28.7393 49.3897 39.6521 49.8131 39.8615C46.0986 39.0329 46.8907 26.4902 47.1547 20.2758C47.3823 14.8854 45.607 11.8669 47.0728 8.05176C49.1439 8.40232 49.631 10.6013 49.7494 11.6393C49.8814 12.8275 49.8495 26.299 49.7585 27.5191Z" fill="url(#paint8_linear)"/>
<path d="M50.0588 39.8885C50.3593 39.8384 50.7689 39.5061 51.0739 38.6138C50.9374 39.3832 50.6324 39.8931 50.0588 39.8885Z" fill="url(#paint9_linear)"/>
<path d="M15.2672 43.0258C13.6194 44.0001 13.5101 44.3825 13.5374 43.8999C14.0109 43.0395 14.6755 42.311 15.0578 41.9787C16.5509 40.6903 22.0362 39.2971 26.3881 44.3415C28.0814 46.3038 30.1709 47.5967 32.1829 45.8622C32.975 45.1792 33.4302 44.0365 33.6669 42.698C33.5121 49.6455 27.5716 48.3525 24.9723 46.1945C22.3776 44.0411 20.1016 40.1667 15.2672 43.0258Z" fill="url(#paint10_linear)"/>
<path d="M36.5847 13.0732C38.31 13.3054 39.8076 15.1037 40.1717 20.5351C40.4358 24.4596 40.8318 27.9333 40.6634 34.9627C40.6315 36.2966 40.8682 37.799 41.3507 37.8354C37.2265 34.2615 39.5754 25.229 38.8061 20.5124C38.1961 16.7746 37.2539 15.0764 36.5847 13.0732Z" fill="url(#paint11_linear)"/>
<path d="M49.7585 27.5191C49.6675 28.7393 49.3898 39.6521 49.8131 39.8615C47.833 40.0436 47.4916 37.9585 47.751 34.4301C48.2836 27.1913 49.1895 17.3074 47.6509 11.1294C47.5052 10.5466 47.6281 9.91835 48.0287 9.46764C49.0711 8.30214 49.6447 10.7287 49.7448 11.6393C49.8814 12.8275 49.8495 26.299 49.7585 27.5191Z" fill="url(#paint12_linear)"/>
<path d="M59.5044 20.4943C59.4315 24.5917 59.0901 29.0033 58.7623 33.2373C58.5074 36.5471 57.7017 43.7677 58.5302 43.8269C54.2192 43.8815 59.2631 26.258 57.6243 14.8125C58.9535 15.7139 59.5499 18.0085 59.5044 20.4943Z" fill="url(#paint13_linear)"/>
<path d="M59.409 43.8044C59.0903 43.9137 58.8718 43.9137 58.7307 43.8272C59.4454 43.7862 59.9051 43.1807 60.1692 41.2367C60.4559 39.1152 60.6881 33.5745 61.2662 30.4696C61.5211 29.1038 61.9809 28.0703 62.6364 27.3965C62.1721 28.9034 62.8367 28.7259 62.0765 32.3999C61.6668 34.3621 61.4756 43.0806 59.409 43.8044Z" fill="url(#paint14_linear)"/>
<path d="M52.681 30.0504C52.763 33.4604 52.4125 39.52 50.1865 39.8478C50.6964 39.6429 51.411 38.6413 51.5066 35.7686C51.5977 32.9459 51.5658 25.0697 52.0802 21.036C52.499 17.7717 53.2637 15.5955 54.8296 14.7715C52.1029 19.3014 52.6037 26.8271 52.681 30.0504Z" fill="url(#paint15_linear)"/>
<path d="M43.4904 22.989C43.3311 28.0972 44.3189 37.0933 41.4966 37.8081C41.9063 37.626 42.2249 36.6016 42.3023 35.5909C42.3842 34.4618 42.2613 23.4579 42.3023 21.045C42.3524 17.9128 41.4829 13.1279 42.7894 10.3052C42.0929 13.8745 43.6179 18.8506 43.4904 22.989Z" fill="url(#paint16_linear)"/>
<path d="M33.6668 42.7021C34.0264 40.6489 33.858 38.1358 33.553 36.1235C33.0523 32.8046 32.6472 21.095 32.3103 17.9673C32.2056 17.0112 32.3058 16.2054 32.547 15.5361C32.6972 16.9839 33.4574 18.5864 33.4119 21.4182C33.3391 25.9618 34.3405 33.1688 34.6819 35.6409C35.0279 38.113 36.2615 42.8934 33.6668 42.7021Z" fill="url(#paint17_linear)"/>
<path d="M45.8435 71.9675C44.9103 69.163 45.065 66.8366 47.8783 66.4678C55.5578 65.4662 60.251 59.5158 62.386 47.7107C64.2888 37.1803 64.4026 30.7291 66.3327 26.7637C68.5132 27.8017 67.8031 33.1056 67.7029 34.4395C67.5481 36.5702 66.5922 44.9608 66.0186 47.219C65.0353 51.0842 66.0095 62.2247 59.4681 67.8655C55.8218 71.0205 50.7143 72.2179 45.8435 71.9675Z" fill="url(#paint18_linear)"/>
<path d="M23.6021 52.5407C19.9604 48.5115 15.2808 49.1261 13.5055 47.0729C12.982 46.4674 12.9137 45.7526 13.0821 45.0469C13.9152 47.1184 16.4416 47.4143 20.4657 48.1564C24.8266 48.9577 28.796 52.6181 30.8581 57.9311C32.9157 63.2441 39.5754 67.2778 44.0501 66.5129C48.5248 65.7481 59.1631 70.1779 62.7547 51.703C62.7547 51.6984 62.7547 51.6939 62.7593 51.6893C62.8959 50.4646 63.087 49.3219 63.4057 48.3067C65.6043 41.2955 66.0277 36.3376 66.1506 32.3676C66.1779 31.5891 65.8092 28.9895 67.5663 28.4341C68.1808 30.4373 67.7893 33.4739 67.7165 34.4391C67.5617 36.5698 66.6104 44.9604 66.0322 47.2186C65.9594 47.5145 65.8957 47.8514 65.8365 48.2247C65.8228 48.3203 65.8092 48.4205 65.7955 48.5206C65.791 48.5479 65.7864 48.5753 65.7864 48.598C65.7773 48.6618 65.7682 48.7301 65.7591 48.7938C65.7591 48.8075 65.7546 48.8257 65.7546 48.8393C65.4359 51.4435 65.3176 55.3952 64.3298 59.265V59.2696C64.2433 59.611 64.1477 59.9479 64.0475 60.2848C64.0475 60.2894 64.043 60.2939 64.043 60.2985C63.9428 60.6308 63.8336 60.9632 63.7198 61.2955C63.7198 61.3001 63.7198 61.3001 63.7152 61.3046C62.8503 63.7677 61.5393 66.0895 59.4818 67.8605C51.9162 74.3891 38.1005 72.5407 33.1023 66.7497C28.1041 60.9586 27.8992 57.3028 23.6021 52.5407Z" fill="url(#paint19_linear)"/>
<path opacity="0.5" d="M28.4911 53.0004C27.3212 54.4072 31.2543 60.3485 34.2404 62.8343C37.2266 65.3201 40.5951 66.1896 41.7696 64.7829C42.944 63.3761 40.2856 59.8432 37.964 56.7291C33.9627 51.3432 29.661 51.5891 28.4911 53.0004Z" fill="url(#paint20_radial)"/>
<path opacity="0.5" d="M61.7577 51.6621C63.055 53.2237 59.1084 62.229 55.2118 64.4962C51.3152 66.7635 46.4308 66.0669 45.4795 64.264C44.5281 62.4612 48.5794 59.6612 51.8933 56.5563C57.6107 51.2069 60.4604 50.1006 61.7577 51.6621Z" fill="url(#paint21_radial)"/>
<defs>
<linearGradient id="paint0_linear" x1="58.0312" y1="75.8108" x2="41.2945" y2="49.0356" gradientUnits="userSpaceOnUse">
<stop offset="0.00132565" stop-color="#D2A374"/>
<stop offset="1" stop-color="#DEBA94"/>
</linearGradient>
<linearGradient id="paint1_linear" x1="39.5319" y1="84.411" x2="39.5319" y2="28.0038" gradientUnits="userSpaceOnUse">
<stop offset="0.00132565" stop-color="#D2A374"/>
<stop offset="1" stop-color="#DEBA94"/>
</linearGradient>
<linearGradient id="paint2_linear" x1="80.7009" y1="61.6406" x2="63.9642" y2="34.8654" gradientUnits="userSpaceOnUse">
<stop offset="0.00132565" stop-color="#D2A374"/>
<stop offset="1" stop-color="#DEBA94"/>
</linearGradient>
<linearGradient id="paint3_linear" x1="-169.944" y1="-231.975" x2="-145.734" y2="-203.923" gradientUnits="userSpaceOnUse">
<stop offset="0.00132565" stop-color="#D2A374"/>
<stop offset="1" stop-color="#DEBA94"/>
</linearGradient>
<linearGradient id="paint4_linear" x1="57.6122" y1="16.5183" x2="58.6381" y2="66.7795" gradientUnits="userSpaceOnUse">
<stop stop-color="#D2A374" stop-opacity="0"/>
<stop offset="1" stop-color="#B88653"/>
</linearGradient>
<linearGradient id="paint5_linear" x1="-179.064" y1="-224.112" x2="-154.854" y2="-196.059" gradientUnits="userSpaceOnUse">
<stop offset="0.00132565" stop-color="#D2A374"/>
<stop offset="1" stop-color="#DEBA94"/>
</linearGradient>
<linearGradient id="paint6_linear" x1="-172.192" y1="-230.042" x2="-147.982" y2="-201.989" gradientUnits="userSpaceOnUse">
<stop offset="0.00132565" stop-color="#D2A374"/>
<stop offset="1" stop-color="#DEBA94"/>
</linearGradient>
<linearGradient id="paint7_linear" x1="34.0375" y1="25.3309" x2="46.0022" y2="25.599" gradientUnits="userSpaceOnUse">
<stop stop-color="#D2A374" stop-opacity="0"/>
<stop offset="1" stop-color="#B88653"/>
</linearGradient>
<linearGradient id="paint8_linear" x1="43.9567" y1="24.3185" x2="59.038" y2="23.0995" gradientUnits="userSpaceOnUse">
<stop stop-color="#F0C492" stop-opacity="0"/>
<stop offset="1" stop-color="#F0C492"/>
</linearGradient>
<linearGradient id="paint9_linear" x1="45.199" y1="39.6879" x2="60.2801" y2="38.4689" gradientUnits="userSpaceOnUse">
<stop stop-color="#FFBC47" stop-opacity="0"/>
<stop offset="1" stop-color="#FFA754"/>
</linearGradient>
<linearGradient id="paint10_linear" x1="24.3834" y1="38.8798" x2="20.3879" y2="63.1734" gradientUnits="userSpaceOnUse">
<stop stop-color="#D2A374" stop-opacity="0"/>
<stop offset="1" stop-color="#B88653"/>
</linearGradient>
<linearGradient id="paint11_linear" x1="35.4135" y1="24.3451" x2="52.2553" y2="29.5264" gradientUnits="userSpaceOnUse">
<stop stop-color="#D2A374" stop-opacity="0"/>
<stop offset="1" stop-color="#B88653"/>
</linearGradient>
<linearGradient id="paint12_linear" x1="46.9941" y1="7.84225" x2="51.2056" y2="48.1159" gradientUnits="userSpaceOnUse">
<stop stop-color="#D2A374" stop-opacity="0"/>
<stop offset="1" stop-color="#B88653"/>
</linearGradient>
<linearGradient id="paint13_linear" x1="59.0741" y1="17.188" x2="53.9989" y2="79.1641" gradientUnits="userSpaceOnUse">
<stop stop-color="#D2A374" stop-opacity="0"/>
<stop offset="1" stop-color="#B88653"/>
</linearGradient>
<linearGradient id="paint14_linear" x1="61.0479" y1="24.3614" x2="60.1841" y2="50.9226" gradientUnits="userSpaceOnUse">
<stop stop-color="#D2A374" stop-opacity="0"/>
<stop offset="1" stop-color="#B88653"/>
</linearGradient>
<linearGradient id="paint15_linear" x1="52.7288" y1="12.8463" x2="52.0808" y2="54.4157" gradientUnits="userSpaceOnUse">
<stop stop-color="#D2A374" stop-opacity="0"/>
<stop offset="1" stop-color="#B88653"/>
</linearGradient>
<linearGradient id="paint16_linear" x1="45.3343" y1="23.8666" x2="41.3805" y2="24.1005" gradientUnits="userSpaceOnUse">
<stop stop-color="#D2A374" stop-opacity="0"/>
<stop offset="1" stop-color="#B88653"/>
</linearGradient>
<linearGradient id="paint17_linear" x1="31.7868" y1="15.1902" x2="36.4302" y2="58.4871" gradientUnits="userSpaceOnUse">
<stop stop-color="#D2A374" stop-opacity="0"/>
<stop offset="1" stop-color="#B88653"/>
</linearGradient>
<linearGradient id="paint18_linear" x1="58.8543" y1="50.4037" x2="78.0717" y2="57.6364" gradientUnits="userSpaceOnUse">
<stop offset="0.3118" stop-color="#F0C492" stop-opacity="0"/>
<stop offset="1" stop-color="#F0C492"/>
</linearGradient>
<linearGradient id="paint19_linear" x1="40.4492" y1="23.2341" x2="40.4492" y2="169.006" gradientUnits="userSpaceOnUse">
<stop stop-color="#D2A374" stop-opacity="0"/>
<stop offset="1" stop-color="#B88653"/>
</linearGradient>
<radialGradient id="paint20_radial" cx="0" cy="0" r="1" gradientUnits="userSpaceOnUse" gradientTransform="translate(35.2095 58.6853) rotate(-140.23) scale(8.81773 4.0928)">
<stop stop-color="#E9CDB1"/>
<stop offset="1" stop-color="#E9CDB1" stop-opacity="0"/>
</radialGradient>
<radialGradient id="paint21_radial" cx="0" cy="0" r="1" gradientUnits="userSpaceOnUse" gradientTransform="translate(54.0451 59.431) rotate(-41.0369) scale(11.3473 5.17764)">
<stop stop-color="#E9CDB1"/>
<stop offset="1" stop-color="#E9CDB1" stop-opacity="0"/>
</radialGradient>
</defs>
</svg>
