<svg width="80" height="80" viewBox="0 0 80 80" fill="none" xmlns="http://www.w3.org/2000/svg">
<path d="M57.4823 26.2715C56.8681 24.0839 55.5167 23.4035 54.8836 23.2003C54.6709 23.1342 54.5387 23.12 54.5387 23.12L42.5042 18.7021L25.2581 27.604L29.0806 39.0242C32.7802 38.4761 36.4846 38.4194 40.2031 38.4761C46.7614 38.5706 53.3621 39.01 60.048 37.7012C60.1425 33.7181 58.2005 28.8277 57.4823 26.2715Z" fill="url(#paint0_linear)"/>
<path d="M60.993 35.8683C55.9515 35.6509 53.5276 33.3735 53.0929 27.1602C53.0456 26.4609 49.4783 9.68724 59.3771 9.46989C68.2694 9.27617 68.208 14.6674 67.8253 23.6353C67.4426 32.6033 65.3305 36.0573 60.993 35.8683Z" fill="url(#paint1_linear)"/>
<path d="M60.686 26.598C53.0174 26.272 51.1085 9.57869 59.5993 9.47002C66.8946 9.37552 66.6725 14.5919 66.6347 19.0239C66.578 25.4073 64.2486 26.7492 60.686 26.598Z" fill="url(#paint2_linear)"/>
<path d="M58.0022 35.3721C58.8763 35.6509 59.8591 35.821 60.9931 35.8682C65.3306 36.0525 67.4427 32.6033 67.8254 23.6353C68.1939 14.9886 68.2412 9.68722 60.2796 9.48877C63.332 11.4544 65.7039 15.7304 65.3826 23.262C64.9243 33.9735 62.4011 35.5422 58.0022 35.3721Z" fill="url(#paint3_linear)"/>
<path d="M63.5398 9.94189C64.6313 10.249 65.6944 10.8444 66.4031 11.7752C67.126 12.6918 67.5229 13.8164 67.7545 14.9409C68.2128 17.2136 68.1372 19.5288 68.0521 21.8063C67.9435 24.0884 67.8631 26.3895 67.4521 28.648C67.2489 29.7773 66.989 30.9018 66.5874 31.9791C66.181 33.0422 65.5904 34.1195 64.6218 34.7574C65.5006 34.0109 66.0062 32.9619 66.4031 31.9083C66.8 30.8451 67.0552 29.73 67.2394 28.6102C67.6174 26.3611 67.693 24.079 67.7497 21.7921C67.7923 19.5147 67.882 17.2183 67.5182 14.9834C67.3198 13.8731 66.9654 12.7721 66.285 11.865C65.6046 10.9625 64.6265 10.301 63.5398 9.94189Z" fill="#975500"/>
<path d="M11.5699 40.1115C11.5699 43.263 13.115 44.6758 13.8851 45.1861C14.1403 45.3562 14.3151 45.4271 14.3151 45.4271L28.7168 55.8409L55.0726 50.4402L54.2647 33.7658C49.1192 33.1043 44.1532 31.7908 39.2109 30.3213C30.4934 27.7321 26.7134 12.8248 12.4346 23.8954C10.8139 29.1826 11.5699 36.4355 11.5699 40.1115Z" fill="url(#paint4_linear)"/>
<path d="M39.6362 40.6072C46.1283 39.922 50.2485 45.2376 50.7635 48.0017L52.885 47.2315L51.9211 36.624L53.3906 26.9804L52.8661 23.1106L39.3953 23.172L26.5198 24.9864L24.7384 19.4157C24.6912 19.4157 24.2423 19.411 24.1951 19.4062L15.2554 20.3182C14.2915 20.6773 13.5923 21.145 13.2757 21.7687C12.0897 24.0887 11.6314 27.0985 11.4755 30.1083C12.8693 32.9149 16.0067 34.3702 18.7425 34.3702C21.9554 34.3702 23.8832 31.9274 25.0408 29.872C25.0408 29.872 25.2535 33.6 30.4178 35.0128C30.4273 35.0128 34.2687 41.1694 39.6362 40.6072Z" fill="url(#paint5_linear)"/>
<path d="M18.6763 33.0853C14.8869 33.0853 11.7542 29.9999 11.2297 24.2118C10.7053 18.4237 10.5777 12.2529 16.5831 12.2529C22.5886 12.2529 24.2895 14.5682 24.6817 22.2793C25.0739 29.9999 22.5933 33.0853 18.6763 33.0853Z" fill="url(#paint6_linear)"/>
<path d="M33.026 33.9829C28.3483 33.9829 26.0142 31.9322 25.3621 26.078C25.2913 25.4212 21.3223 9.72018 30.484 9.12011C38.7149 8.57673 38.8708 13.6702 38.8708 22.1563C38.8708 30.6423 37.0517 33.9829 33.026 33.9829Z" fill="url(#paint7_linear)"/>
<path d="M32.7613 25.8841C29.1892 27.6843 26.7889 27.7221 25.2581 25.2651C25.2959 25.5439 25.3337 25.8227 25.362 26.0778C26.0093 31.932 28.3482 33.9827 33.0259 33.9827C36.3145 33.9827 38.1289 31.7478 38.6864 26.3093C37.7603 24.7265 34.8686 24.821 32.7613 25.8841Z" fill="url(#paint8_linear)"/>
<path d="M18.544 25.629C15.3547 25.629 12.7181 23.6492 12.2787 19.9354C11.8393 16.2216 11.7306 12.2573 16.7863 12.2573C21.842 12.2573 23.269 13.741 23.5997 18.6975C23.9305 23.6539 21.842 25.629 18.544 25.629Z" fill="url(#paint9_linear)"/>
<path d="M32.3739 25.2413C25.2581 25.2413 22.8295 9.55446 30.6871 9.11031C37.439 8.72759 37.439 13.6605 37.5808 17.8515C37.7887 23.8758 35.6766 25.2413 32.3739 25.2413Z" fill="url(#paint10_linear)"/>
<path d="M30.2335 33.6332C31.0557 33.86 31.9723 33.9828 33.0212 33.9828C37.0469 33.9828 38.866 30.6423 38.866 22.1563C38.866 13.9774 38.7007 8.96889 31.3155 9.10119C34.2167 10.8353 36.5886 14.7759 36.5886 21.9011C36.5933 32.0362 34.3206 33.6143 30.2335 33.6332Z" fill="url(#paint11_linear)"/>
<path d="M18.7093 29.4845C14.8584 29.4845 11.6738 26.418 11.0123 20.7056C11.036 21.8537 11.1257 23.0397 11.2297 24.2162C11.7541 30.0043 14.8868 33.0897 18.6762 33.0897C22.3522 33.0897 24.7289 30.3209 24.6911 23.6161C23.9067 27.7269 21.7191 29.4845 18.7093 29.4845Z" fill="url(#paint12_linear)"/>
<path d="M24.6817 22.2838C24.3084 14.9365 22.7397 12.4937 17.4005 12.2764C20.2024 12.7347 25.6219 23.5265 18.1565 33.0284C18.3313 33.0426 18.4967 33.0804 18.6715 33.0804C22.5932 33.0851 25.0739 29.9997 24.6817 22.2838Z" fill="url(#paint13_linear)"/>
<path d="M24.4408 19.4014C24.7195 21.8536 25.0125 24.3484 24.6298 26.8243C24.4549 28.0575 24.1478 29.2907 23.5477 30.4011C22.9713 31.5256 21.9696 32.447 20.7695 32.9006C18.3408 33.7038 15.5059 32.9715 13.8285 31.0673C12.0803 29.2104 11.4093 26.6495 11.2345 24.2067C11.5369 26.64 12.2882 29.1301 13.9892 30.9161C15.6382 32.7399 18.3786 33.3778 20.6561 32.5887C21.7806 32.1777 22.7351 31.3366 23.3068 30.2641C23.9021 29.2057 24.2234 28.0008 24.4124 26.7912C24.7999 24.3579 24.592 21.8725 24.4408 19.4014Z" fill="#975500"/>
<path d="M31.1786 33.827C30.4131 33.9593 29.6997 33.6522 29.0476 33.312C28.3909 32.9671 27.7955 32.4946 27.3135 31.9323C26.3308 30.8031 25.8157 29.3761 25.4992 27.9634C25.2062 26.527 25.1542 25.0906 24.9416 23.6684C24.7573 22.2414 24.5825 20.805 24.5022 19.3687C24.6676 20.8003 24.8991 22.2178 25.1259 23.6447C25.3858 25.0622 25.4944 26.5128 25.8252 27.8972C26.1418 29.2769 26.6615 30.6424 27.5923 31.6961C28.0507 32.2206 28.6082 32.6553 29.2272 32.9766C29.8509 33.3026 30.5265 33.4302 31.1786 33.827Z" fill="#975500"/>
<path d="M39.6362 40.6076C34.2639 41.1746 30.4273 35.0132 30.4273 35.0132C25.2581 33.6004 25.0502 29.8725 25.0502 29.8725C23.8926 31.9278 21.9648 34.3706 18.7519 34.3706C16.0161 34.3706 12.8787 32.9153 11.4849 30.1087C11.518 29.485 11.5747 28.8613 11.6361 28.2471H11.6125C11.4376 29.9433 11.3951 31.6679 11.4046 33.3217C14.1687 36.4921 18.5014 36.941 21.2703 36.1236C22.0215 35.9015 25.518 33.2602 28.2207 35.9157C31.1502 38.7932 34.5569 42.4739 40.4064 42.3464C46.2559 42.2188 50.7682 48.0021 50.7682 48.0021C50.2485 45.2333 46.1283 39.9225 39.6362 40.6076Z" fill="url(#paint14_linear)"/>
<path d="M46.6476 31.9938C41.9557 31.8426 39.4184 29.8392 39.1916 24.259C38.9365 17.9086 36.7583 8.26973 45.3908 8.00986C53.6642 7.76416 52.7995 12.9333 52.8657 20.9751C52.946 30.822 50.6875 32.1213 46.6476 31.9938Z" fill="url(#paint15_linear)"/>
<path d="M46.3031 23.3087C42.6602 25.1184 40.2457 25.0806 38.7952 22.4062C38.8235 22.7039 38.8519 23.0016 38.8708 23.2804C39.3244 29.5598 41.6018 31.8278 46.2937 31.979C49.5964 32.083 51.4911 29.7536 52.2282 23.956C51.3588 22.2362 48.453 22.2456 46.3031 23.3087Z" fill="url(#paint16_linear)"/>
<path d="M45.9676 23.7674C42.1168 23.6445 40.6804 23.3185 40.1653 18.8676C39.9007 16.5807 38.5163 8.20805 45.5991 8.00487C52.3888 7.81115 51.6706 13.4339 51.6706 17.9226C51.6706 24.3769 49.2845 23.876 45.9676 23.7674Z" fill="url(#paint17_linear)"/>
<path d="M43.8604 31.573C44.6778 31.814 45.5944 31.9746 46.6481 31.9935C52.285 32.088 52.611 29.0168 52.8661 20.9796C53.1071 13.2354 53.6457 8.13244 46.2323 8.01904C49.0956 9.7531 50.7966 13.9111 50.5887 20.6583C50.2863 30.2594 47.9616 31.6864 43.8604 31.573Z" fill="url(#paint18_linear)"/>
<path d="M44.4509 31.7527C43.6099 31.8566 42.8492 31.4597 42.1688 31.0203C41.4884 30.5667 40.9261 29.943 40.515 29.2485C39.6834 27.8451 39.3669 26.2434 39.1873 24.6747C39.0125 23.0965 39.0456 21.5137 39.0172 19.9403C38.9841 18.3669 38.97 16.7935 38.7432 15.2295C39.0408 16.7793 39.1259 18.3621 39.192 19.9355C39.2676 21.509 39.2676 23.0871 39.4992 24.6369C39.7165 26.1772 40.0284 27.7412 40.8316 29.0547C41.2285 29.7068 41.753 30.2785 42.3861 30.6943C43.0192 31.1432 43.7564 31.2944 44.4509 31.7527Z" fill="#975500"/>
<path d="M49.2751 8.43506C50.1067 8.69021 50.9053 9.12962 51.4864 9.81002C52.0629 10.4857 52.4314 11.3173 52.6582 12.1678C53.1071 13.8829 53.1402 15.6548 53.1449 17.3983C53.1071 19.1465 53.0315 20.8901 52.9512 22.6336C52.9181 23.503 52.9086 24.3771 52.8472 25.2512C52.8094 25.6859 52.7858 26.13 52.6866 26.5647C52.6393 26.7821 52.5779 26.9994 52.4645 27.1979C52.3605 27.3869 52.1715 27.609 51.9306 27.5617C52.3842 27.453 52.3983 26.9097 52.5023 26.5269C52.5684 26.1064 52.6204 25.6717 52.6393 25.237C52.6818 24.3676 52.6677 23.4982 52.6818 22.6241L52.8142 17.3936C52.8425 15.6595 52.8567 13.9018 52.4598 12.215C52.2613 11.3787 51.9259 10.5613 51.3825 9.89507C50.8533 9.20995 50.0926 8.73273 49.2751 8.43506Z" fill="#975500"/>
<path d="M34.3585 9.39404C35.1523 9.59249 35.9225 9.92795 36.5556 10.4713C37.1935 11.01 37.6518 11.7282 37.9826 12.4842C38.6299 14.0198 38.8189 15.683 38.9417 17.3131C39.0221 18.9526 39.0268 20.5922 39.0032 22.227C38.9984 23.0397 39.0173 23.8619 38.9843 24.684C38.9606 25.0951 38.9512 25.5109 38.8614 25.9172C38.8189 26.1204 38.7669 26.3283 38.6582 26.5173C38.5637 26.7016 38.3606 26.8859 38.1432 26.8481C38.5685 26.7394 38.5874 26.248 38.6771 25.8842C38.7338 25.4873 38.7716 25.0856 38.7764 24.6793C38.7905 23.8666 38.7527 23.0539 38.7386 22.2318C38.7055 20.5969 38.7197 18.9621 38.6157 17.3367C38.5307 15.716 38.3936 14.0717 37.7983 12.5645C37.236 11.0478 35.9508 9.83346 34.3585 9.39404Z" fill="#975500"/>
<path d="M53.7874 29.8343L53.3527 27.004C53.1779 26.0685 52.9558 25.1282 52.8613 24.1738C52.6345 22.2743 52.6204 20.3324 52.9558 18.4424C52.9889 20.356 53.0834 22.246 53.2063 24.1454C53.2866 25.0904 53.3197 26.0448 53.4283 26.9946L53.7874 29.8343Z" fill="#975500"/>
<path d="M30.4273 30.8553C30.4273 27.425 32.8512 27.3163 39.3433 26.7398C43.9832 26.3288 49.0295 25.1097 55.4554 27.5951C62.7933 30.43 69.6823 34.536 69.7721 41.9117C69.8477 48.5125 64.7164 71.9955 42.2586 71.9955C19.8009 71.9955 12.2598 59.9941 11.5747 40.1115L50.7683 47.9975C50.7683 47.9975 51.6046 40.9903 46.804 38.9113C44.7581 38.023 40.3733 38.7413 37.4628 38.7413C34.5427 38.7413 30.4273 35.4858 30.4273 30.8553Z" fill="url(#paint19_linear)"/>
<path d="M58.2855 57.1259C48.7695 64.0669 49.5444 67.9272 40.6709 67.9272C31.7974 67.9272 26.0755 63.2353 22.0262 59.186C17.9769 55.1367 14.5702 48.3847 12.8975 43.244C12.5054 42.0296 12.0423 41.0138 11.5698 40.1538C12.2644 60.0176 19.8102 72.0001 42.2537 72.0001C64.7115 72.0001 69.8428 48.5123 69.7672 41.9162C69.7341 39.0293 68.6474 36.6479 66.9086 34.6445C67.4047 44.0661 66.1006 51.4229 58.2855 57.1259Z" fill="url(#paint20_radial)"/>
<path d="M53.0551 41.1413C52.885 37.0259 47.8245 32.9105 43.6288 33.3404C40 33.709 33.437 34.2051 30.5028 31.5166C30.8761 35.7832 34.6891 38.7411 37.458 38.7411C40.3733 38.7411 44.7533 38.0276 46.7992 38.9112C51.5998 40.9901 50.7634 47.9973 50.7634 47.9973C50.7634 47.9973 53.2252 45.2568 53.0551 41.1413Z" fill="url(#paint21_linear)"/>
<path d="M69.772 41.9114C69.6869 34.5405 62.7932 30.4345 55.4553 27.5948C49.0246 25.1094 43.9831 26.3238 39.3432 26.7395C34.3914 27.179 31.8211 27.3585 30.8713 28.9367C36.9713 27.4294 42.6837 26.8152 49.7334 27.6184C58.914 28.6673 65.855 34.3278 67.1165 38.6559C68.3639 42.932 68.1796 50.8983 68.1749 51.0873C69.3609 47.2553 69.7909 43.8534 69.772 41.9114Z" fill="url(#paint22_linear)"/>
<path d="M50.7635 47.9972C50.8816 46.3292 50.754 44.6235 50.2249 43.0407C49.7193 41.4673 48.7176 39.9789 47.2245 39.2323C45.7692 38.4102 43.9926 38.5661 42.3531 38.5945C40.6804 38.6606 39.0172 38.8543 37.3257 38.8402C35.5964 38.7504 34.0324 37.8385 32.8181 36.6714C31.6132 35.4807 30.7202 33.9357 30.4273 32.2488C30.2713 31.4125 30.2335 30.5479 30.4036 29.6926C30.5879 28.8327 31.2305 28.0673 32.0385 27.7412C33.6402 27.0608 35.3459 26.9805 37.0091 26.7821C40.3544 26.5694 43.6571 25.9646 47.0402 25.941C48.7223 25.9363 50.4138 26.0875 52.0629 26.4466C53.7119 26.7962 55.3042 27.3821 56.8493 28.0295C59.9347 29.3335 62.9775 30.8739 65.5148 33.1041C66.7669 34.2286 67.8631 35.5421 68.6191 37.0494C69.3799 38.5519 69.7673 40.2293 69.7768 41.9067C69.739 40.2293 69.3279 38.5661 68.5483 37.0872C67.7734 35.6036 66.663 34.3184 65.4062 33.2269C62.8783 31.0345 59.8449 29.5178 56.7642 28.2326C53.6977 26.8907 50.3855 26.1489 47.0402 26.2151C43.7091 26.2576 40.3828 26.8813 37.0422 27.1081C35.3932 27.2876 33.678 27.3774 32.1708 28.0106C31.4148 28.3177 30.8714 28.9697 30.6871 29.7541C30.5218 30.5431 30.5548 31.3889 30.7013 32.1922C30.9754 33.8175 31.8306 35.3201 32.9929 36.4871C34.1647 37.6306 35.6909 38.5236 37.3352 38.6134C38.9983 38.637 40.671 38.4527 42.3483 38.396C43.1894 38.3629 44.0304 38.3535 44.8715 38.4149C45.7031 38.4858 46.5819 38.6228 47.3048 39.0811C48.8263 39.8749 49.8232 41.4153 50.3052 43.0076C50.8107 44.6235 50.91 46.334 50.7635 47.9972Z" fill="#975500"/>
<path opacity="0.16" d="M15.7089 40.7915C13.6488 43.2721 19.9189 57.5699 26.1038 61.1703C32.2935 64.7707 40.0472 63.6651 41.5592 60.8065C43.0712 57.9479 36.6358 53.4969 31.3769 48.5735C22.2955 40.0733 17.769 38.3109 15.7089 40.7915Z" fill="url(#paint23_radial)"/>
<path opacity="0.16" d="M66.1385 42.6203C67.2347 41.1461 61.7537 31.9939 57.3784 29.5227C53.0031 27.0515 44.3895 28.521 43.6855 30.2551C42.9862 31.9891 51.288 33.9405 55.1908 37.2055C61.9286 42.8377 65.0423 44.0945 66.1385 42.6203Z" fill="url(#paint24_radial)"/>
<defs>
<linearGradient id="paint0_linear" x1="56.5443" y1="26.7075" x2="18.7907" y2="37.3366" gradientUnits="userSpaceOnUse">
<stop offset="0.00132565" stop-color="#FFCB4B"/>
<stop offset="1" stop-color="#FFD748"/>
</linearGradient>
<linearGradient id="paint1_linear" x1="60.6423" y1="9.48399" x2="59.5176" y2="35.8072" gradientUnits="userSpaceOnUse">
<stop offset="0.00132565" stop-color="#BE8D68"/>
<stop offset="1" stop-color="#CD9870"/>
</linearGradient>
<linearGradient id="paint2_linear" x1="62.2567" y1="-11.1094" x2="58.4235" y2="46.8883" gradientUnits="userSpaceOnUse">
<stop offset="0.00132565" stop-color="#BE8D68"/>
<stop offset="1" stop-color="#CD9870"/>
</linearGradient>
<linearGradient id="paint3_linear" x1="50.3801" y1="16.1798" x2="111.519" y2="55.1684" gradientUnits="userSpaceOnUse">
<stop stop-color="#8D562E" stop-opacity="0"/>
<stop offset="1" stop-color="#8D562E"/>
</linearGradient>
<linearGradient id="paint4_linear" x1="6.51447" y1="59.3628" x2="38.0133" y2="33.6971" gradientUnits="userSpaceOnUse">
<stop offset="0.00132565" stop-color="#BE8D68"/>
<stop offset="1" stop-color="#CD9870"/>
</linearGradient>
<linearGradient id="paint5_linear" x1="30.8103" y1="55.5273" x2="33.9213" y2="17.0843" gradientUnits="userSpaceOnUse">
<stop stop-color="#473226" stop-opacity="0"/>
<stop offset="1" stop-color="#3D2A20"/>
</linearGradient>
<linearGradient id="paint6_linear" x1="18.2741" y1="12.3084" x2="17.3885" y2="33.0357" gradientUnits="userSpaceOnUse">
<stop offset="0.00132565" stop-color="#BE8D68"/>
<stop offset="1" stop-color="#CD9870"/>
</linearGradient>
<linearGradient id="paint7_linear" x1="32.1488" y1="9.08946" x2="31.088" y2="33.9151" gradientUnits="userSpaceOnUse">
<stop offset="0.00132565" stop-color="#BE8D68"/>
<stop offset="1" stop-color="#CD9870"/>
</linearGradient>
<linearGradient id="paint8_linear" x1="31.971" y1="20.2753" x2="31.971" y2="51.8402" gradientUnits="userSpaceOnUse">
<stop stop-color="#8D562E" stop-opacity="0"/>
<stop offset="1" stop-color="#8D562E"/>
</linearGradient>
<linearGradient id="paint9_linear" x1="20.0025" y1="-13.9025" x2="16.1693" y2="44.0953" gradientUnits="userSpaceOnUse">
<stop offset="0.00132565" stop-color="#BE8D68"/>
<stop offset="1" stop-color="#CD9870"/>
</linearGradient>
<linearGradient id="paint10_linear" x1="33.708" y1="-12.9969" x2="29.8748" y2="45.0009" gradientUnits="userSpaceOnUse">
<stop offset="0.00132565" stop-color="#BE8D68"/>
<stop offset="1" stop-color="#CD9870"/>
</linearGradient>
<linearGradient id="paint11_linear" x1="27.9799" y1="22.7449" x2="79.478" y2="9.24548" gradientUnits="userSpaceOnUse">
<stop stop-color="#8D562E" stop-opacity="0"/>
<stop offset="1" stop-color="#8D562E"/>
</linearGradient>
<linearGradient id="paint12_linear" x1="17.7234" y1="20.2665" x2="19.353" y2="47.2827" gradientUnits="userSpaceOnUse">
<stop stop-color="#8D562E" stop-opacity="0"/>
<stop offset="1" stop-color="#8D562E"/>
</linearGradient>
<linearGradient id="paint13_linear" x1="17.4843" y1="26.9486" x2="36.8169" y2="-10.2167" gradientUnits="userSpaceOnUse">
<stop stop-color="#8D562E" stop-opacity="0"/>
<stop offset="1" stop-color="#8D562E"/>
</linearGradient>
<linearGradient id="paint14_linear" x1="31.0816" y1="52.8666" x2="31.0816" y2="-4.82524" gradientUnits="userSpaceOnUse">
<stop stop-color="#A46C3F" stop-opacity="0"/>
<stop offset="1" stop-color="#804B24"/>
</linearGradient>
<linearGradient id="paint15_linear" x1="46.3023" y1="8.00187" x2="45.2797" y2="31.9345" gradientUnits="userSpaceOnUse">
<stop offset="0.00132565" stop-color="#BE8D68"/>
<stop offset="1" stop-color="#CD9870"/>
</linearGradient>
<linearGradient id="paint16_linear" x1="45.7032" y1="17.297" x2="44.6305" y2="51.0451" gradientUnits="userSpaceOnUse">
<stop stop-color="#8D562E" stop-opacity="0"/>
<stop offset="1" stop-color="#8D562E"/>
</linearGradient>
<linearGradient id="paint17_linear" x1="47.6791" y1="-12.0733" x2="43.8459" y2="45.9245" gradientUnits="userSpaceOnUse">
<stop offset="0.00132565" stop-color="#BE8D68"/>
<stop offset="1" stop-color="#CD9870"/>
</linearGradient>
<linearGradient id="paint18_linear" x1="48.0658" y1="23.7835" x2="58.2321" y2="-25.4646" gradientUnits="userSpaceOnUse">
<stop stop-color="#8D562E" stop-opacity="0"/>
<stop offset="1" stop-color="#8D562E"/>
</linearGradient>
<linearGradient id="paint19_linear" x1="14.9135" y1="69.6706" x2="46.4123" y2="44.0049" gradientUnits="userSpaceOnUse">
<stop offset="0.00132565" stop-color="#BE8D68"/>
<stop offset="1" stop-color="#CD9870"/>
</linearGradient>
<radialGradient id="paint20_radial" cx="0" cy="0" r="1" gradientUnits="userSpaceOnUse" gradientTransform="translate(40.671 31.0893) scale(38.5858 48.6722)">
<stop offset="0.6147" stop-color="#B37E53" stop-opacity="0"/>
<stop offset="1" stop-color="#B37E53"/>
</radialGradient>
<linearGradient id="paint21_linear" x1="41.7814" y1="45.5334" x2="41.7814" y2="24.1998" gradientUnits="userSpaceOnUse">
<stop stop-color="#B37E53"/>
<stop offset="1" stop-color="#CD9870"/>
</linearGradient>
<linearGradient id="paint22_linear" x1="53.3849" y1="21.3028" x2="44.4705" y2="65.7031" gradientUnits="userSpaceOnUse">
<stop stop-color="#B37E53"/>
<stop offset="1" stop-color="#CD9870"/>
</linearGradient>
<radialGradient id="paint23_radial" cx="0" cy="0" r="1" gradientUnits="userSpaceOnUse" gradientTransform="translate(27.9298 53.1194) rotate(-138.967) scale(18.018 8.22179)">
<stop stop-color="#F8DBBA"/>
<stop offset="1" stop-color="#CD9870" stop-opacity="0"/>
</radialGradient>
<radialGradient id="paint24_radial" cx="0" cy="0" r="1" gradientUnits="userSpaceOnUse" gradientTransform="translate(55.6053 33.7198) rotate(38.2129) scale(13.8931 5.11554)">
<stop stop-color="#F8DBBA"/>
<stop offset="1" stop-color="#CD9870" stop-opacity="0"/>
</radialGradient>
</defs>
</svg>
