<svg width="80" height="80" viewBox="0 0 80 80" fill="none" xmlns="http://www.w3.org/2000/svg">
<path d="M26.401 58.7534C24.289 60.6991 24.7242 69.954 24.9077 72.2197C25.1423 75.07 10.8112 74.0971 11.0757 72.0917C11.2634 70.6665 10.8069 59.7903 10.8069 59.274" fill="url(#paint0_linear)"/>
<path d="M26.5206 58.6425C26.478 58.6767 26.431 58.7108 26.3841 58.7492L25.3985 58.5273C24.8054 59.0351 24.3061 59.6154 24.0288 60.3194C23.1413 60.7973 22.1855 60.8869 21.4815 61.2411C18.533 62.7217 24.336 61.4373 24.1867 63.5537C23.6832 66.3741 24.4427 72.2198 24.912 72.2198C24.7243 69.9498 24.2891 60.6949 26.4054 58.7535C26.4438 58.7151 26.4822 58.6809 26.5206 58.6425Z" fill="url(#paint1_linear)"/>
<path d="M11.0756 72.0915C10.9902 72.7315 12.3983 73.2649 14.3355 73.6062C13.0554 72.0062 13.2133 62.8878 13.6613 61.7955C14.0325 60.8867 13.273 59.1458 12.2959 57.8657L10.8025 59.2738C10.8068 59.7901 11.2633 70.6664 11.0756 72.0915Z" fill="url(#paint2_linear)"/>
<path d="M12.0828 60.4939C11.6433 60.272 11.2252 60.016 10.8198 59.7344C10.8924 61.9105 11.2465 70.8112 11.0758 72.0913C11.0332 72.407 11.3745 72.6972 11.9761 72.9489C12.1767 71.0075 11.2849 65.1234 11.6007 64.2957C12.4455 62.0641 14.0328 62.094 13.6914 61.215C13.2349 61.1425 12.6332 60.9035 12.0828 60.4939Z" fill="url(#paint3_linear)"/>
<path d="M11.0757 72.0916C11.2634 70.6665 10.8069 59.7902 10.8069 59.2739C13.6057 62.952 20.8801 61.8853 24.3445 60.1486C24.8309 59.9054 25.2277 59.7561 25.569 59.675C24.4256 61.241 24.7541 70.3209 24.9119 72.2239C25.1466 75.0699 10.8154 74.0971 11.0757 72.0916Z" fill="url(#paint4_linear)"/>
<path d="M39.1702 43.077C39.7888 41.2465 35.8167 38.8315 32.2584 42.2236C31.8488 42.6503 31.4393 43.1325 31.051 43.6914C30.0996 45.0526 28.8111 46.162 27.5226 45.0526C26.2341 43.9432 26.2299 39.9494 26.4517 37.8117L21.8738 37.2783C21.9335 38.1274 21.9591 39.8854 21.6562 39.911C21.349 39.9323 21.0972 39.1942 21.0461 38.4688C20.9949 37.7434 16.5022 41.0716 16.2334 41.2039C16.0286 41.302 14.7146 40.7772 13.1317 41.4684C12.6026 41.6988 10.7808 43.7341 10.6486 43.7469C10.6486 43.7469 10.7723 40.9478 10.687 39.5782C10.6016 38.2085 5.88716 43.2306 6.13888 44.7027C6.57407 47.2202 5.85729 55.532 10.0427 59.1461C14.8895 63.3276 23.7382 62.1457 26.9424 58.4335C30.1422 54.7213 30.8462 51.5766 33.2739 48.2613C35.326 45.4579 38.2699 44.5662 39.1702 43.077Z" fill="url(#paint5_linear)"/>
<path d="M10.6833 39.5779C10.5979 38.2082 10.5979 34.5088 10.3718 32.4991C10.1456 30.4894 9.15572 29.5208 7.50017 29.8408C5.84463 30.1609 6.07077 33.8475 6.07077 34.7435C6.07077 36.1132 5.88303 43.2388 6.13904 44.7109" fill="url(#paint6_linear)"/>
<path d="M16.2301 41.208C15.5047 41.2848 15.6498 40.0175 15.5773 37.6536C15.5218 35.8445 15.4877 30.912 15.3725 28.3135C15.2317 25.0877 14.6087 24.2258 13.0598 24.085C11.511 23.9442 10.8155 25.8515 10.8539 27.9721C10.8837 29.7642 11.0544 32.5974 11.3275 36.1346C11.4896 38.2553 11.1781 43.7083 10.6448 43.7467" fill="url(#paint7_linear)"/>
<path d="M26.4562 37.8154C26.6781 35.6777 26.5971 28.1723 26.7251 26.1583C26.8531 24.1443 25.637 23.1928 24.3356 23.1245C23.0342 23.0563 22.0827 23.9779 21.9974 27.9675C21.9419 30.4849 21.656 32.7848 21.8779 37.2778L24.9202 40.1835L26.4562 37.8154Z" fill="url(#paint8_linear)"/>
<path d="M21.043 38.4728C20.9918 37.7475 21.0686 30.7029 21.043 29.154C20.9918 25.9197 21.5252 21.0938 18.6237 20.8122C16.7548 20.633 16.358 22.3654 16.2726 23.1291C16.1873 23.8929 16.3665 32.5205 16.422 33.3014C16.4775 34.0822 16.4988 41.0756 16.23 41.2037" fill="url(#paint9_linear)"/>
<path d="M22.7697 23.9186C22.3046 24.6567 22.0358 25.9795 21.9931 27.9721C21.9376 30.4895 21.6859 32.7894 21.8736 37.2824C21.9078 38.1358 21.959 39.8895 21.656 39.9151C23.3372 38.7844 22.4624 32.1835 22.424 29.1241C22.3771 25.8685 23.1195 23.3639 22.7697 23.9186Z" fill="url(#paint10_linear)"/>
<path d="M16.422 33.301C16.4775 34.0818 16.4988 41.0753 16.23 41.2033C16.23 41.2033 17.3308 39.9787 17.1644 37.7172C16.8231 33.0834 16.6908 28.1338 16.9682 25.5054C17.2284 23.0306 16.7804 21.5628 16.5969 21.934C16.4135 22.301 16.3068 22.8344 16.2726 23.1288C16.1873 23.8925 16.3665 32.5244 16.422 33.301Z" fill="url(#paint11_linear)"/>
<path d="M10.8495 27.9722C10.8793 29.7643 11.05 32.5975 11.3231 36.1347C11.4852 38.2553 11.1737 43.7084 10.6404 43.7468C13.4011 43.7809 10.555 26.9993 12.0485 24.3325C11.2079 24.9128 10.8239 26.3806 10.8495 27.9722Z" fill="url(#paint12_linear)"/>
<path d="M10.0815 43.7341C10.2863 43.8067 10.5508 43.8024 10.6447 43.7469C10.6447 43.7469 10.7599 40.8369 10.6831 39.5782C10.5978 38.2085 10.5978 34.5091 10.3716 32.4994C10.2735 31.6162 10.026 30.9335 9.63771 30.4727C9.86386 31.454 9.44997 31.3132 9.76572 33.6941C9.93213 34.9699 8.75874 43.269 10.0815 43.7341Z" fill="url(#paint13_linear)"/>
<path d="M14.9842 34.0821C15.1506 36.2625 14.566 40.9902 15.9954 41.2036C15.6669 41.0713 15.637 39.4925 15.5773 37.6535C15.5218 35.8444 15.509 30.9119 15.3725 28.3133C15.2317 25.5569 14.9031 24.8059 13.9004 24.2769C15.6455 27.1741 14.5746 28.7315 14.9842 34.0821Z" fill="url(#paint14_linear)"/>
<path d="M20.2823 30.3999C20.3847 33.6726 19.7489 39.4328 21.5581 39.8894C21.2978 39.7742 21.0887 39.1171 21.0418 38.4685C20.9863 37.7432 21.0674 30.6985 21.0418 29.1497C21.0119 27.1442 21.2594 23.9611 20.4231 22.1562C20.8668 24.4476 20.1969 27.7501 20.2823 30.3999Z" fill="url(#paint15_linear)"/>
<path d="M26.5713 43.0295C26.5713 43.0295 26.5756 43.0295 26.5713 43.0295C26.3409 41.711 26.3153 39.1125 26.4518 37.8154C26.6737 35.6777 26.5926 28.1722 26.7206 26.1583C26.759 25.5438 26.6737 25.0318 26.4988 24.6094C26.4433 25.5396 26.0038 26.5892 26.119 28.3984C26.2982 31.3041 25.8673 35.9422 25.7179 37.538C25.5686 39.1296 24.9115 43.1532 26.5713 43.0295Z" fill="url(#paint16_linear)"/>
<path d="M18.772 61.774C19.3693 59.9776 19.2712 58.4885 17.4665 58.2538C12.5472 57.6138 8.65614 53.8504 7.29086 46.2895C6.07064 39.5435 6.19436 33.4803 7.29939 29.9004C5.85731 30.4636 6.06637 33.8857 6.06637 34.7433C6.06637 36.113 5.87864 43.2386 6.13463 44.7107C6.56982 47.2282 5.85304 55.5401 10.0385 59.1541C12.3808 61.1681 15.6532 61.9361 18.772 61.774Z" fill="url(#paint17_radial)"/>
<path d="M6.45464 38.6434C6.46317 38.6178 6.46744 38.605 6.46744 38.605C7.94378 48.7943 8.93369 54.418 14.199 60.6178C14.9415 61.4925 13.3627 61.4456 12.0827 60.4941C11.3487 60.1271 10.6618 59.6834 10.0431 59.1457C5.85301 55.5317 6.56984 47.2198 6.13889 44.7024C6.00235 43.9301 6.54424 40.4397 6.45464 38.6434Z" fill="url(#paint18_radial)"/>
<path opacity="0.75" d="M29.8914 49.6224C30.6424 50.5227 28.1207 54.3287 26.2091 55.9203C24.2975 57.5118 22.1385 58.0708 21.3875 57.1705C20.6365 56.2702 22.339 54.0087 23.8239 52.0118C26.384 48.5642 29.1404 48.7221 29.8914 49.6224Z" fill="url(#paint19_radial)"/>
<path opacity="0.75" d="M8.57952 48.769C7.74748 49.7717 10.2777 55.5363 12.7739 56.9913C15.27 58.4463 18.3976 57.9983 19.0078 56.8419C19.6179 55.6856 17.0237 53.8935 14.8988 51.9051C11.2378 48.4788 9.41156 47.7663 8.57952 48.769Z" fill="url(#paint20_radial)"/>
<path d="M10.6447 43.7469C10.6447 43.7469 10.7599 40.8369 10.6831 39.5782C10.5977 38.2085 10.5977 34.5091 10.3716 32.4994C10.2735 31.6162 10.026 30.9335 9.6377 30.4727C9.86384 31.454 10.2265 33.3528 10.1753 37.321C9.99185 44.3016 10.5551 43.8024 10.6447 43.7469Z" fill="url(#paint21_linear)"/>
<path d="M39.1702 43.0767C39.2768 42.7652 39.2384 42.4367 39.1019 42.1252C38.6411 43.3882 37.2673 44.5915 34.9762 45.2614C32.2499 46.0593 29.69 49.3789 28.3674 52.7796C27.049 56.1846 22.7825 58.766 19.9197 58.2753C17.0526 57.7846 10.239 60.6221 7.93936 48.7901C7.93936 48.7858 7.93936 48.7858 7.93936 48.7815C7.85403 47.9964 7.73031 47.2625 7.52551 46.614C6.11757 42.1252 7.0562 36.0278 7.16286 33.4848C7.18419 32.9856 7.53831 31.3428 6.44182 30.9033C5.95971 32.1535 6.06637 34.1163 6.06637 34.735C6.06637 36.1046 5.87864 43.2303 6.13463 44.7024C6.16877 44.8944 6.1773 45.479 6.19863 45.7179C6.2029 45.7819 6.21143 45.8459 6.2157 45.9099C6.2157 45.927 6.21996 45.9441 6.21996 45.9611C6.22423 46.0038 6.22423 46.0465 6.2285 46.0891C6.2285 46.0977 6.2285 46.1105 6.2285 46.119C6.33516 47.7959 6.1133 55.6299 10.0385 59.1458C14.8084 63.4169 23.734 62.1454 26.9381 58.4332C30.138 54.721 30.842 51.5764 33.2696 48.261C35.3261 45.4576 38.27 44.5659 39.1702 43.0767Z" fill="url(#paint22_radial)"/>
<path d="M32.2585 42.2276C31.849 42.6543 31.4394 43.1365 31.0511 43.6954C30.0997 45.0566 28.8112 46.166 27.5227 45.0566C27.015 44.6171 26.7206 43.8874 26.5713 43.0298C26.6737 47.4802 28.9648 46.6012 30.4751 45.0523C31.9897 43.5077 33.1588 40.8622 36.4909 40.8409C37.0925 40.8366 37.677 40.9646 38.1122 41.0628C36.7725 40.2478 34.443 40.1454 32.2585 42.2276Z" fill="url(#paint23_linear)"/>
<path d="M26.9381 58.4374C30.138 54.7252 30.8419 51.5805 33.2696 48.2652C35.326 45.4576 38.2656 44.5658 39.1701 43.0809C39.2768 42.7694 39.2384 42.4409 39.1019 42.1294C38.6411 43.3924 36.862 43.802 34.9762 45.2656C32.2541 47.3862 29.69 50.3645 28.3674 53.7695C27.049 57.1744 22.7825 58.7745 19.9197 58.2838L26.9381 58.4374Z" fill="url(#paint24_linear)"/>
<path d="M35.1681 6.44954C35.1809 6.32153 35.1297 6.19353 35.0359 6.10819C34.942 6.02285 34.8097 5.98446 34.686 6.00579L32.8555 6.32153C32.736 6.34287 32.6336 6.41541 32.5696 6.51782C32.5056 6.62022 32.4971 6.74822 32.5312 6.86343C33.9947 11.813 34.9505 14.0915 34.9505 14.0617C35.2023 11.7703 35.1681 6.49221 35.1681 6.44954Z" fill="#975500"/>
<path d="M23.9771 13.0758C23.9344 12.9691 23.8491 12.8838 23.7381 12.8454C23.6315 12.807 23.512 12.8112 23.4096 12.8624L21.7498 13.6945C21.6175 13.7627 21.5279 13.895 21.5194 14.0444C21.5108 14.1937 21.6004 14.3132 21.7114 14.4156C24.8987 17.4109 25.415 18.7977 25.4534 18.7849C25.6369 18.7337 25.5772 16.9714 23.9771 13.0758Z" fill="#975500"/>
<path d="M53.5994 58.7529C55.7113 60.6986 55.2761 69.9535 55.0926 72.2192C54.858 75.0695 69.1892 74.0966 68.9247 72.0912C68.7369 70.6661 69.1934 59.7898 69.1934 59.2735" fill="url(#paint25_linear)"/>
<path d="M53.48 58.642C53.5226 58.6762 53.5696 58.7103 53.6165 58.7487L54.6022 58.5269C55.1953 59.0346 55.6945 59.6149 55.9718 60.3189C56.8593 60.7968 57.8151 60.8864 58.5192 61.2406C61.4676 62.7212 55.6646 61.4369 55.814 63.5532C56.3175 66.3736 55.5579 72.2193 55.0886 72.2193C55.2763 69.9493 55.7116 60.6944 53.5952 58.753C53.5568 58.7146 53.5226 58.6805 53.48 58.642Z" fill="url(#paint26_linear)"/>
<path d="M68.9252 72.091C69.0105 72.731 67.6024 73.2644 65.6653 73.6057C66.9453 72.0057 66.7875 62.8873 66.3394 61.795C65.9682 60.8862 66.7277 59.1453 67.7048 57.8652L69.1983 59.2733C69.194 59.7896 68.7374 70.6659 68.9252 72.091Z" fill="url(#paint27_linear)"/>
<path d="M67.9179 60.4939C68.3574 60.272 68.7756 60.016 69.1809 59.7344C69.1084 61.9105 68.7542 70.8112 68.9249 72.0913C68.9676 72.407 68.6262 72.6972 68.0246 72.9489C67.8241 71.0075 68.7158 65.1234 68.4001 64.2957C67.5552 62.0641 65.968 62.094 66.3093 61.215C66.7659 61.1425 67.3675 60.9035 67.9179 60.4939Z" fill="url(#paint28_linear)"/>
<path d="M68.9247 72.0916C68.737 70.6665 69.1935 59.7902 69.1935 59.2739C66.3947 62.952 59.1203 61.8853 55.6559 60.1486C55.1695 59.9054 54.7727 59.7561 54.4314 59.675C55.5748 61.241 55.2463 70.3209 55.0884 72.2239C54.8538 75.0699 69.185 74.0971 68.9247 72.0916Z" fill="url(#paint29_linear)"/>
<path d="M40.8298 43.0764C40.2111 41.2459 44.1832 38.8308 47.7415 42.223C48.1511 42.6497 48.5607 43.1319 48.9489 43.6908C49.9004 45.052 51.1888 46.1613 52.4773 45.0519C53.7658 43.9426 53.7701 39.9488 53.5482 37.8111L58.1305 37.2734C58.0707 38.1225 58.0451 39.8805 58.348 39.9061C58.6552 39.9274 58.9069 39.1893 58.9581 38.4639C59.0093 37.7385 63.502 41.0667 63.7708 41.199C63.9756 41.2971 65.2896 40.7723 66.8725 41.4635C67.4016 41.6939 69.2234 43.7292 69.3556 43.742C69.3556 43.742 69.2319 40.9429 69.3172 39.5733C69.4026 38.2036 74.117 43.2257 73.8653 44.6978C73.4301 47.2153 74.1469 55.5271 69.9615 59.1412C65.1147 63.3227 56.266 62.1408 53.0618 58.4286C49.862 54.7164 49.158 51.5717 46.7303 48.2564C44.6739 45.4573 41.7343 44.5655 40.8298 43.0764Z" fill="url(#paint30_linear)"/>
<path d="M69.3174 39.5774C69.4027 38.2077 69.4027 34.5083 69.6289 32.4986C69.855 30.4889 70.8449 29.5203 72.5005 29.8404C74.156 30.1604 73.9299 33.847 73.9299 34.743C73.9299 36.1127 74.1176 43.2384 73.8616 44.7104" fill="url(#paint31_linear)"/>
<path d="M63.7708 41.2075C64.4961 41.2843 64.351 40.0171 64.4236 37.6532C64.4791 35.8441 64.5132 30.9116 64.6284 28.313C64.7692 25.0873 65.3922 24.2254 66.941 24.0846C68.4942 23.948 69.1854 25.8511 69.147 27.9717C69.1172 29.7638 68.9465 32.597 68.6734 36.1342C68.5113 38.2549 68.8227 43.7079 69.3561 43.7463" fill="url(#paint32_linear)"/>
<path d="M53.5483 37.8154C53.3264 35.6777 53.4075 28.1723 53.2795 26.1583C53.1557 24.1443 54.3675 23.1928 55.6689 23.1245C56.9703 23.0563 57.9218 23.9779 58.0072 27.9675C58.0627 30.4849 58.3485 32.7848 58.1267 37.2778L55.0844 40.1835L53.5483 37.8154Z" fill="url(#paint33_linear)"/>
<path d="M58.9583 38.4724C59.0095 37.747 58.9327 30.7024 58.9583 29.1535C59.0095 25.9192 58.4761 21.0934 61.3776 20.8117C63.2465 20.6325 63.6433 22.3649 63.7287 23.1287C63.814 23.8924 63.6348 32.5201 63.5793 33.3009C63.5239 34.0817 63.5025 41.0752 63.7713 41.2032" fill="url(#paint34_linear)"/>
<path d="M57.2301 23.9186C57.6952 24.6567 57.9641 25.9795 58.0067 27.9721C58.0622 30.4895 58.3139 32.7894 58.1262 37.2824C58.0921 38.1358 58.0409 39.8895 58.3438 39.9151C56.6627 38.7844 57.5374 32.1835 57.5758 29.1241C57.627 25.8685 56.8803 23.3639 57.2301 23.9186Z" fill="url(#paint35_linear)"/>
<path d="M63.5791 33.301C63.5237 34.0818 63.5023 41.0753 63.7712 41.2033C63.7712 41.2033 62.6703 39.9787 62.8367 37.7172C63.1781 33.0834 63.3103 28.1338 63.033 25.5054C62.7727 23.0306 63.2207 21.5628 63.4042 21.934C63.5877 22.301 63.6944 22.8344 63.7285 23.1288C63.8138 23.8925 63.6346 32.5244 63.5791 33.301Z" fill="url(#paint36_linear)"/>
<path d="M69.1511 27.9717C69.1213 29.7638 68.9506 32.597 68.6775 36.1342C68.5154 38.2548 68.8269 43.7079 69.3602 43.7463C66.5995 43.7805 69.4456 26.9988 67.9521 24.332C68.7927 24.9123 69.1767 26.3801 69.1511 27.9717Z" fill="url(#paint37_linear)"/>
<path d="M69.9188 43.7336C69.714 43.8062 69.4494 43.8019 69.3556 43.7464C69.3556 43.7464 69.2404 40.8364 69.3172 39.5777C69.4025 38.208 69.4025 34.5086 69.6287 32.4989C69.7268 31.6157 69.9743 30.933 70.3626 30.4722C70.1364 31.4536 70.5503 31.3127 70.2346 33.6937C70.0681 34.9695 71.2415 43.2685 69.9188 43.7336Z" fill="url(#paint38_linear)"/>
<path d="M65.0166 34.0821C64.8502 36.2625 65.4348 40.9902 64.0054 41.2036C64.3339 41.0713 64.3638 39.4925 64.4235 37.6535C64.479 35.8444 64.4918 30.9119 64.6283 28.3133C64.7691 25.5569 65.0977 24.8059 66.1004 24.2769C64.3595 27.1741 65.4305 28.7315 65.0166 34.0821Z" fill="url(#paint39_linear)"/>
<path d="M59.7177 30.3999C59.6153 33.6726 60.2511 39.4328 58.4419 39.8894C58.7022 39.7742 58.9113 39.1171 58.9582 38.4685C59.0137 37.7432 58.9326 30.6985 58.9582 29.1497C58.9881 27.1442 58.7406 23.9611 59.5769 22.1562C59.1331 24.4476 59.803 27.7501 59.7177 30.3999Z" fill="url(#paint40_linear)"/>
<path d="M53.4289 43.0295C53.6593 41.711 53.6849 39.1125 53.5484 37.8154C53.3265 35.6777 53.4076 28.1722 53.2796 26.1583C53.2412 25.5438 53.3265 25.0318 53.5015 24.6094C53.5569 25.5396 53.9964 26.5892 53.8812 28.3984C53.702 31.3041 54.133 35.9422 54.2823 37.538C54.4316 39.1296 55.0887 43.1532 53.4289 43.0295Z" fill="url(#paint41_linear)"/>
<path d="M61.228 61.7738C60.6307 59.9775 60.7289 58.4884 62.5336 58.2494C67.4529 57.6094 71.3439 53.846 72.7092 46.2851C73.9294 39.5391 73.8057 33.4759 72.7007 29.896C74.1427 30.4592 73.9337 33.8813 73.9337 34.7389C73.9337 36.1086 74.1214 43.2343 73.8654 44.7063C73.4302 47.2238 74.147 55.5357 69.9616 59.1497C67.6193 61.1679 64.3468 61.936 61.228 61.7738Z" fill="url(#paint42_radial)"/>
<path d="M73.5463 38.6429C73.5378 38.6173 73.5335 38.6045 73.5335 38.6045C72.0572 48.7938 71.0673 54.4176 65.8019 60.6173C65.0595 61.492 66.6382 61.4451 67.9183 60.4936C68.6522 60.1266 69.3392 59.6829 69.9579 59.1453C74.1479 55.5312 73.4311 47.2193 73.8621 44.7019C73.9986 43.9296 73.4567 40.4392 73.5463 38.6429Z" fill="url(#paint43_radial)"/>
<path opacity="0.75" d="M50.1136 49.6224C49.3626 50.5227 51.8843 54.3287 53.7959 55.9203C55.7075 57.5118 57.8665 58.0708 58.6175 57.1705C59.3684 56.2702 57.666 54.0087 56.1811 52.0118C53.6167 48.5642 50.8646 48.7221 50.1136 49.6224Z" fill="url(#paint44_radial)"/>
<path opacity="0.75" d="M71.4214 48.7685C72.2535 49.7712 69.7232 55.5358 67.2271 56.9908C64.731 58.4415 61.6034 57.9978 60.9932 56.8414C60.383 55.6851 62.9773 53.893 65.1022 51.9047C68.7632 48.4783 70.5894 47.7658 71.4214 48.7685Z" fill="url(#paint45_radial)"/>
<path d="M69.3556 43.7464C69.3556 43.7464 69.2404 40.8364 69.3172 39.5777C69.4025 38.208 69.4025 34.5086 69.6287 32.4989C69.7268 31.6157 69.9743 30.933 70.3626 30.4722C70.1364 31.4536 69.7737 33.3523 69.8249 37.3205C70.0084 44.3011 69.4494 43.8019 69.3556 43.7464Z" fill="url(#paint46_linear)"/>
<path d="M40.8299 43.0767C40.7233 42.7652 40.7617 42.4367 40.8982 42.1252C41.359 43.3882 42.7328 44.5915 45.0239 45.2614C47.7502 46.0593 50.3101 49.3789 51.6327 52.7796C52.9511 56.1846 57.2176 58.766 60.0804 58.2753C62.9475 57.7846 69.7611 60.6221 72.0608 48.7901C72.0608 48.7858 72.0608 48.7858 72.0608 48.7815C72.1461 47.9964 72.2698 47.2625 72.4746 46.614C73.8826 42.1252 72.9439 36.0278 72.8373 33.4848C72.8159 32.9856 72.4618 31.3428 73.5583 30.9033C74.0404 32.1535 73.9338 34.1163 73.9338 34.735C73.9338 36.1046 74.1215 43.2303 73.8655 44.7024C73.8314 44.8944 73.8228 45.479 73.8015 45.7179C73.7972 45.7819 73.7887 45.8459 73.7844 45.9099C73.7844 45.927 73.7802 45.9441 73.7802 45.9611C73.7759 46.0038 73.7759 46.0465 73.7716 46.0891C73.7716 46.0977 73.7716 46.1105 73.7716 46.119C73.665 47.7959 73.8868 55.6299 69.9616 59.1458C65.1917 63.4169 56.2662 62.1454 53.062 58.4332C49.8621 54.721 49.1582 51.5764 46.7305 48.261C44.6741 45.4576 41.7344 44.5659 40.8299 43.0767Z" fill="url(#paint47_radial)"/>
<path d="M47.7413 42.2271C48.1509 42.6538 48.5605 43.136 48.9488 43.6949C49.9002 45.0561 51.1887 46.1655 52.4772 45.0561C52.9849 44.6166 53.2793 43.887 53.4286 43.0293C53.3262 47.4797 51.0351 46.6007 49.5247 45.0518C48.0101 43.5072 46.8411 40.8617 43.509 40.8404C42.9074 40.8361 42.3229 40.9641 41.8877 41.0623C43.2274 40.2473 45.5612 40.1449 47.7413 42.2271Z" fill="url(#paint48_linear)"/>
<path d="M53.062 58.4374C49.8621 54.7252 49.1582 51.5805 46.7305 48.2652C44.6741 45.4576 41.7344 44.5658 40.8299 43.0809C40.7233 42.7694 40.7617 42.4409 40.8982 42.1294C41.359 43.3924 43.1381 43.802 45.0239 45.2656C47.7459 47.3862 50.3101 50.3645 51.6327 53.7695C52.9511 57.1744 57.2176 58.7745 60.0804 58.2838L53.062 58.4374Z" fill="url(#paint49_linear)"/>
<path d="M44.8318 6.45003C44.819 6.32202 44.8702 6.19402 44.9641 6.10868C45.0579 6.02334 45.1902 5.98494 45.3139 6.00628L47.1444 6.32202C47.2639 6.34336 47.3663 6.4159 47.4303 6.5183C47.4943 6.62071 47.5028 6.74871 47.4687 6.86391C46.0052 11.8178 45.0494 14.092 45.0494 14.0621C44.7976 11.7708 44.836 6.4927 44.8318 6.45003Z" fill="#975500"/>
<path d="M56.0232 13.0768C56.0658 12.9701 56.1512 12.8847 56.2621 12.8463C56.3688 12.8079 56.4883 12.8122 56.5907 12.8634L58.2505 13.6955C58.3828 13.7637 58.4724 13.896 58.4809 14.0453C58.4894 14.1947 58.3998 14.3141 58.2889 14.4166C55.1015 17.4119 54.5852 18.7986 54.5468 18.7858C54.3634 18.7346 54.4231 16.9724 56.0232 13.0768Z" fill="#975500"/>
<defs>
<linearGradient id="paint0_linear" x1="18.5721" y1="59.8342" x2="18.3211" y2="66.0861" gradientUnits="userSpaceOnUse">
<stop offset="0.00132565" stop-color="#F0C492"/>
<stop offset="1" stop-color="#F8DBBA"/>
</linearGradient>
<linearGradient id="paint1_linear" x1="15.389" y1="75.3685" x2="30.4163" y2="58.3679" gradientUnits="userSpaceOnUse">
<stop offset="0.3118" stop-color="#F0C492" stop-opacity="0"/>
<stop offset="1" stop-color="#E6AF74"/>
</linearGradient>
<linearGradient id="paint2_linear" x1="13.5491" y1="69.0406" x2="7.93289" y2="55.9866" gradientUnits="userSpaceOnUse">
<stop offset="0.3118" stop-color="#F0C492" stop-opacity="0"/>
<stop offset="1" stop-color="#E6AF74"/>
</linearGradient>
<linearGradient id="paint3_linear" x1="9.57542" y1="54.152" x2="15.0214" y2="78.4643" gradientUnits="userSpaceOnUse">
<stop offset="0.3118" stop-color="#F0C492" stop-opacity="0"/>
<stop offset="1" stop-color="#D2A374"/>
</linearGradient>
<linearGradient id="paint4_linear" x1="17.3976" y1="66.3209" x2="2.58952" y2="76.1152" gradientUnits="userSpaceOnUse">
<stop offset="0.3118" stop-color="#F0C492" stop-opacity="0"/>
<stop offset="1" stop-color="#E6AF74"/>
</linearGradient>
<linearGradient id="paint5_linear" x1="14.8838" y1="65.9645" x2="20.4013" y2="50.1634" gradientUnits="userSpaceOnUse">
<stop offset="0.00132565" stop-color="#F0C492"/>
<stop offset="1" stop-color="#F8DBBA"/>
</linearGradient>
<linearGradient id="paint6_linear" x1="6.72003" y1="31.7982" x2="8.70773" y2="40.517" gradientUnits="userSpaceOnUse">
<stop offset="0.00132565" stop-color="#F0C492"/>
<stop offset="1" stop-color="#F8DBBA"/>
</linearGradient>
<linearGradient id="paint7_linear" x1="12.4132" y1="22.2993" x2="13.2874" y2="39.534" gradientUnits="userSpaceOnUse">
<stop offset="0.00132565" stop-color="#F0C492"/>
<stop offset="1" stop-color="#F8DBBA"/>
</linearGradient>
<linearGradient id="paint8_linear" x1="25.122" y1="26.2379" x2="23.244" y2="39.0805" gradientUnits="userSpaceOnUse">
<stop offset="0.00132565" stop-color="#F0C492"/>
<stop offset="1" stop-color="#F8DBBA"/>
</linearGradient>
<linearGradient id="paint9_linear" x1="19.1823" y1="23.7881" x2="18.0521" y2="38.8904" gradientUnits="userSpaceOnUse">
<stop offset="0.00132565" stop-color="#F0C492"/>
<stop offset="1" stop-color="#F8DBBA"/>
</linearGradient>
<linearGradient id="paint10_linear" x1="24.5229" y1="31.7953" x2="21.2627" y2="31.9111" gradientUnits="userSpaceOnUse">
<stop offset="0.3118" stop-color="#F0C492" stop-opacity="0"/>
<stop offset="1" stop-color="#D2A374"/>
</linearGradient>
<linearGradient id="paint11_linear" x1="20.8101" y1="31.4499" x2="15.1977" y2="31.5709" gradientUnits="userSpaceOnUse">
<stop offset="0.3118" stop-color="#F0C492" stop-opacity="0"/>
<stop offset="1" stop-color="#D2A374"/>
</linearGradient>
<linearGradient id="paint12_linear" x1="15.4215" y1="33.8139" x2="10.3382" y2="34.0992" gradientUnits="userSpaceOnUse">
<stop offset="0.3118" stop-color="#F0C492" stop-opacity="0"/>
<stop offset="1" stop-color="#D2A374"/>
</linearGradient>
<linearGradient id="paint13_linear" x1="8.48023" y1="37.3141" x2="11.4541" y2="36.9683" gradientUnits="userSpaceOnUse">
<stop offset="0.3118" stop-color="#F0C492" stop-opacity="0"/>
<stop offset="1" stop-color="#D2A374"/>
</linearGradient>
<linearGradient id="paint14_linear" x1="15.7926" y1="14.6223" x2="14.6489" y2="39.1598" gradientUnits="userSpaceOnUse">
<stop offset="0.3118" stop-color="#F0C492" stop-opacity="0"/>
<stop offset="1" stop-color="#D2A374"/>
</linearGradient>
<linearGradient id="paint15_linear" x1="18.6313" y1="30.8871" x2="21.1189" y2="31.0342" gradientUnits="userSpaceOnUse">
<stop offset="0.3118" stop-color="#F0C492" stop-opacity="0"/>
<stop offset="1" stop-color="#D2A374"/>
</linearGradient>
<linearGradient id="paint16_linear" x1="26.0975" y1="44.1106" x2="26.0975" y2="-17.8504" gradientUnits="userSpaceOnUse">
<stop stop-color="#C86F34" stop-opacity="0"/>
<stop offset="1" stop-color="#C86F34"/>
</linearGradient>
<radialGradient id="paint17_radial" cx="0" cy="0" r="1" gradientUnits="userSpaceOnUse" gradientTransform="translate(11.39 55.6487) rotate(40.7933) scale(19.125 19.1253)">
<stop offset="0.6134" stop-color="#F0C492" stop-opacity="0"/>
<stop offset="1" stop-color="#E6AF74"/>
</radialGradient>
<radialGradient id="paint18_radial" cx="0" cy="0" r="1" gradientUnits="userSpaceOnUse" gradientTransform="translate(8.7458 56.0922) rotate(-13.0362) scale(14.1107 35.8103)">
<stop offset="0.0877149" stop-color="#F0C492" stop-opacity="0"/>
<stop offset="1" stop-color="#E6AF74"/>
</radialGradient>
<radialGradient id="paint19_radial" cx="0" cy="0" r="1" gradientUnits="userSpaceOnUse" gradientTransform="translate(25.601 53.2714) rotate(-39.7642) scale(5.64816 2.62154)">
<stop stop-color="#F8E6D2"/>
<stop offset="1" stop-color="#F8E6D2" stop-opacity="0"/>
</radialGradient>
<radialGradient id="paint20_radial" cx="0" cy="0" r="1" gradientUnits="userSpaceOnUse" gradientTransform="translate(13.5104 53.7398) rotate(-138.969) scale(7.26874 3.31649)">
<stop stop-color="#F8E6D2"/>
<stop offset="1" stop-color="#F8E6D2" stop-opacity="0"/>
</radialGradient>
<linearGradient id="paint21_linear" x1="6.85757" y1="28.4894" x2="25.1736" y2="76.7587" gradientUnits="userSpaceOnUse">
<stop stop-color="#C86F34" stop-opacity="0"/>
<stop offset="1" stop-color="#C86F34"/>
</linearGradient>
<radialGradient id="paint22_radial" cx="0" cy="0" r="1" gradientUnits="userSpaceOnUse" gradientTransform="translate(17.7678 47.5285) scale(35.0364 35.0395)">
<stop offset="0.6134" stop-color="#F0C492" stop-opacity="0"/>
<stop offset="1" stop-color="#E6AF74"/>
</radialGradient>
<linearGradient id="paint23_linear" x1="35.0019" y1="34.5337" x2="28.6262" y2="52.5458" gradientUnits="userSpaceOnUse">
<stop offset="0.3118" stop-color="#F0C492" stop-opacity="0"/>
<stop offset="1" stop-color="#E6AF74"/>
</linearGradient>
<linearGradient id="paint24_linear" x1="26.555" y1="49.6868" x2="51.0905" y2="53.9651" gradientUnits="userSpaceOnUse">
<stop stop-color="#C86F34" stop-opacity="0"/>
<stop offset="1" stop-color="#C86F34"/>
</linearGradient>
<linearGradient id="paint25_linear" x1="61.4295" y1="59.8336" x2="61.6806" y2="66.0856" gradientUnits="userSpaceOnUse">
<stop offset="0.00132565" stop-color="#F0C492"/>
<stop offset="1" stop-color="#F8DBBA"/>
</linearGradient>
<linearGradient id="paint26_linear" x1="64.6124" y1="75.3679" x2="49.5851" y2="58.3674" gradientUnits="userSpaceOnUse">
<stop offset="0.3118" stop-color="#F0C492" stop-opacity="0"/>
<stop offset="1" stop-color="#E6AF74"/>
</linearGradient>
<linearGradient id="paint27_linear" x1="66.4524" y1="69.04" x2="72.0687" y2="55.9861" gradientUnits="userSpaceOnUse">
<stop offset="0.3118" stop-color="#F0C492" stop-opacity="0"/>
<stop offset="1" stop-color="#E6AF74"/>
</linearGradient>
<linearGradient id="paint28_linear" x1="70.4261" y1="54.1519" x2="64.9802" y2="78.4643" gradientUnits="userSpaceOnUse">
<stop offset="0.3118" stop-color="#F0C492" stop-opacity="0"/>
<stop offset="1" stop-color="#D2A374"/>
</linearGradient>
<linearGradient id="paint29_linear" x1="62.6041" y1="66.3208" x2="77.4122" y2="76.1152" gradientUnits="userSpaceOnUse">
<stop offset="0.3118" stop-color="#F0C492" stop-opacity="0"/>
<stop offset="1" stop-color="#E6AF74"/>
</linearGradient>
<linearGradient id="paint30_linear" x1="65.1169" y1="65.9638" x2="59.5994" y2="50.1627" gradientUnits="userSpaceOnUse">
<stop offset="0.00132565" stop-color="#F0C492"/>
<stop offset="1" stop-color="#F8DBBA"/>
</linearGradient>
<linearGradient id="paint31_linear" x1="73.2792" y1="31.7994" x2="71.2915" y2="40.5182" gradientUnits="userSpaceOnUse">
<stop offset="0.00132565" stop-color="#F0C492"/>
<stop offset="1" stop-color="#F8DBBA"/>
</linearGradient>
<linearGradient id="paint32_linear" x1="67.5862" y1="22.3005" x2="66.712" y2="39.5353" gradientUnits="userSpaceOnUse">
<stop offset="0.00132565" stop-color="#F0C492"/>
<stop offset="1" stop-color="#F8DBBA"/>
</linearGradient>
<linearGradient id="paint33_linear" x1="54.8768" y1="26.2395" x2="56.7549" y2="39.0822" gradientUnits="userSpaceOnUse">
<stop offset="0.00132565" stop-color="#F0C492"/>
<stop offset="1" stop-color="#F8DBBA"/>
</linearGradient>
<linearGradient id="paint34_linear" x1="60.8175" y1="23.7893" x2="61.9477" y2="38.8916" gradientUnits="userSpaceOnUse">
<stop offset="0.00132565" stop-color="#F0C492"/>
<stop offset="1" stop-color="#F8DBBA"/>
</linearGradient>
<linearGradient id="paint35_linear" x1="55.4754" y1="31.7969" x2="58.7357" y2="31.9127" gradientUnits="userSpaceOnUse">
<stop offset="0.3118" stop-color="#F0C492" stop-opacity="0"/>
<stop offset="1" stop-color="#D2A374"/>
</linearGradient>
<linearGradient id="paint36_linear" x1="59.1896" y1="31.4515" x2="64.8019" y2="31.5726" gradientUnits="userSpaceOnUse">
<stop offset="0.3118" stop-color="#F0C492" stop-opacity="0"/>
<stop offset="1" stop-color="#D2A374"/>
</linearGradient>
<linearGradient id="paint37_linear" x1="64.5799" y1="33.8133" x2="69.6632" y2="34.0986" gradientUnits="userSpaceOnUse">
<stop offset="0.3118" stop-color="#F0C492" stop-opacity="0"/>
<stop offset="1" stop-color="#D2A374"/>
</linearGradient>
<linearGradient id="paint38_linear" x1="71.5208" y1="37.3136" x2="68.5469" y2="36.9677" gradientUnits="userSpaceOnUse">
<stop offset="0.3118" stop-color="#F0C492" stop-opacity="0"/>
<stop offset="1" stop-color="#D2A374"/>
</linearGradient>
<linearGradient id="paint39_linear" x1="64.209" y1="14.6223" x2="65.3527" y2="39.1598" gradientUnits="userSpaceOnUse">
<stop offset="0.3118" stop-color="#F0C492" stop-opacity="0"/>
<stop offset="1" stop-color="#D2A374"/>
</linearGradient>
<linearGradient id="paint40_linear" x1="61.3673" y1="30.8887" x2="58.8796" y2="31.0359" gradientUnits="userSpaceOnUse">
<stop offset="0.3118" stop-color="#F0C492" stop-opacity="0"/>
<stop offset="1" stop-color="#D2A374"/>
</linearGradient>
<linearGradient id="paint41_linear" x1="53.9035" y1="44.1106" x2="53.9035" y2="-17.8504" gradientUnits="userSpaceOnUse">
<stop stop-color="#C86F34" stop-opacity="0"/>
<stop offset="1" stop-color="#C86F34"/>
</linearGradient>
<radialGradient id="paint42_radial" cx="0" cy="0" r="1" gradientUnits="userSpaceOnUse" gradientTransform="translate(68.6085 55.6502) rotate(139.207) scale(19.125 19.1253)">
<stop offset="0.6134" stop-color="#F0C492" stop-opacity="0"/>
<stop offset="1" stop-color="#E6AF74"/>
</radialGradient>
<radialGradient id="paint43_radial" cx="0" cy="0" r="1" gradientUnits="userSpaceOnUse" gradientTransform="translate(71.2259 56.0755) rotate(-166.964) scale(14.1107 35.8103)">
<stop offset="0.0877149" stop-color="#F0C492" stop-opacity="0"/>
<stop offset="1" stop-color="#E6AF74"/>
</radialGradient>
<radialGradient id="paint44_radial" cx="0" cy="0" r="1" gradientUnits="userSpaceOnUse" gradientTransform="translate(54.4296 53.2904) rotate(-140.236) scale(5.64816 2.62154)">
<stop stop-color="#F8E6D2"/>
<stop offset="1" stop-color="#F8E6D2" stop-opacity="0"/>
</radialGradient>
<radialGradient id="paint45_radial" cx="0" cy="0" r="1" gradientUnits="userSpaceOnUse" gradientTransform="translate(66.482 53.7388) rotate(-41.0309) scale(7.26874 3.31649)">
<stop stop-color="#F8E6D2"/>
<stop offset="1" stop-color="#F8E6D2" stop-opacity="0"/>
</radialGradient>
<linearGradient id="paint46_linear" x1="73.1435" y1="28.4888" x2="54.8274" y2="76.7582" gradientUnits="userSpaceOnUse">
<stop stop-color="#C86F34" stop-opacity="0"/>
<stop offset="1" stop-color="#C86F34"/>
</linearGradient>
<radialGradient id="paint47_radial" cx="0" cy="0" r="1" gradientUnits="userSpaceOnUse" gradientTransform="translate(62.2223 47.5284) rotate(180) scale(35.0364 35.0395)">
<stop offset="0.6134" stop-color="#F0C492" stop-opacity="0"/>
<stop offset="1" stop-color="#E6AF74"/>
</radialGradient>
<linearGradient id="paint48_linear" x1="44.9988" y1="34.5332" x2="51.3744" y2="52.5453" gradientUnits="userSpaceOnUse">
<stop offset="0.3118" stop-color="#F0C492" stop-opacity="0"/>
<stop offset="1" stop-color="#E6AF74"/>
</linearGradient>
<linearGradient id="paint49_linear" x1="53.4458" y1="49.6868" x2="28.9103" y2="53.9651" gradientUnits="userSpaceOnUse">
<stop stop-color="#C86F34" stop-opacity="0"/>
<stop offset="1" stop-color="#C86F34"/>
</linearGradient>
</defs>
</svg>
