<svg width="80" height="80" viewBox="0 0 80 80" fill="none" xmlns="http://www.w3.org/2000/svg">
<path d="M49.1119 36.4138C45.209 40.8598 45.6645 47.64 50.1265 51.5477C54.5884 55.4605 61.3641 55.0206 65.267 50.5746C69.1699 46.1286 68.7144 39.3484 64.2525 35.4408C59.7905 31.5331 53.0148 31.9679 49.1119 36.4138Z" fill="url(#paint0_linear)"/>
<path d="M49.1119 36.4138C45.209 40.8598 45.6645 47.64 50.1265 51.5477C54.5884 55.4605 61.3641 55.0206 65.267 50.5746C69.1699 46.1286 68.7144 39.3484 64.2525 35.4408C59.7905 31.5331 53.0148 31.9679 49.1119 36.4138Z" fill="url(#paint1_linear)"/>
<path d="M49.1119 36.4138C45.209 40.8598 45.6645 47.64 50.1265 51.5477C54.5884 55.4605 61.3641 55.0206 65.267 50.5746C69.1699 46.1286 68.7144 39.3484 64.2525 35.4408C59.7905 31.5331 53.0148 31.9679 49.1119 36.4138Z" fill="url(#paint2_linear)"/>
<path d="M18.9127 40.4462C13.0221 38.2362 6.02374 17 11.1793 17C16.3349 17 41.2535 20.68 47.025 19.945C52.7966 19.21 64.7641 17.7971 69.8576 22.89C74.951 27.983 73.9106 45.5961 73.9106 49.5245C73.9106 53.4529 70.4736 55.1713 66.669 54.5554C62.8644 53.9395 51.8752 43.1997 51.8752 39.3955C51.8752 39.3955 57.7037 38.1068 59.5464 38.7227C61.3892 39.3386 60.649 41.5435 60.649 41.5435C60.649 41.5435 64.1481 45.0423 64.702 45.5961C64.702 45.5961 61.8809 42.5269 61.8809 40.4411C61.8809 38.3552 61.6377 35.4102 63.967 33.6919C63.967 33.6919 60.1003 38.112 56.3579 38.112C51.694 38.112 52.4912 37.3149 51.694 38.112L18.9127 40.4462Z" fill="url(#paint3_linear)"/>
<path d="M11.1801 17C6.02454 17 5.28952 28.9042 6.5163 34.551C7.74308 40.1977 13.0229 38.231 18.9135 40.441C24.8041 42.651 27.7753 50.0627 33.3967 54.312C38.428 58.1162 40.3692 55.4403 56.3535 63.1522C59.0193 64.441 66.6646 63.4265 64.7856 53.7996C56.8452 49.8971 50.8925 38.909 51.6897 38.1119C51.6897 38.1119 43.5267 38.1119 39.9965 38.1119C36.4714 38.1119 20.8805 17 11.1801 17Z" fill="url(#paint4_linear)"/>
<path d="M64.915 58.3854V58.4268C63.9108 63.7268 58.512 64.1926 56.3535 63.1523C40.3691 55.4404 38.428 58.1215 33.3966 54.3121C27.7752 50.0628 24.804 42.6511 18.9134 40.441C13.0228 38.231 7.74297 40.1978 6.51619 34.551C6.34537 33.7643 6.21597 32.8533 6.12797 31.8751C10.445 32.8533 15.2279 31.1143 19.7727 31.1143C25.42 31.1143 32.1699 49.157 43.3403 54.6796C54.5159 60.2073 64.915 58.3854 64.915 58.3854Z" fill="url(#paint5_radial)"/>
<path d="M50.2196 53.9084C53.1287 53.7739 58.1652 54.2086 60.1788 50.627C61.6074 51.8847 63.15 52.9975 64.7908 53.8049C66.6698 63.4318 59.0244 64.4463 56.3587 63.1575C40.3743 55.4456 38.4332 58.1267 33.4019 54.3173C28.6035 50.6891 25.7306 44.768 21.3256 41.7351L21.3153 41.7144C21.3153 41.7144 24.1881 43.205 30.8189 49.2813C37.4497 55.3628 46.6583 54.0741 50.2196 53.9084Z" fill="url(#paint6_radial)"/>
<path d="M6.4801 34.3594C8.74213 34.6647 11.998 34.8718 15.844 34.4318C23.334 33.5727 31.0674 51.1237 35.3637 53.9497C39.66 56.7705 53.5324 59.5965 57.953 59.5965C61.2244 59.5965 63.6779 58.1783 65.0393 55.7043C65.6035 63.5508 58.8381 64.353 56.3587 63.1574C40.3743 55.4455 38.4332 58.1266 33.4019 54.3172C27.7805 50.0679 24.8093 42.6562 18.9187 40.4461C13.0281 38.236 7.74828 40.2028 6.5215 34.556C6.5008 34.4939 6.49563 34.4215 6.4801 34.3594Z" fill="url(#paint7_linear)"/>
<path d="M73.9114 49.5299C73.9114 53.4583 70.4744 55.1767 66.6698 54.5607C64.4647 54.2036 59.8526 50.446 56.3586 46.6056C62.8911 51.5847 66.2453 51.4967 68.7558 51.2431C73.7924 50.7359 71.9496 43.143 71.9496 39.6441C71.9496 36.1453 73.1764 29.1632 69.8636 22.8901C74.957 27.9883 73.9114 45.6015 73.9114 49.5299Z" fill="url(#paint8_radial)"/>
<path opacity="0.24" d="M10.7194 17.0673C10.8643 17.0259 11.0144 17 11.1853 17C16.3408 17 41.2594 20.68 47.031 19.9451C52.8025 19.2101 64.7701 17.7971 69.8635 22.8901C70.6348 23.6613 63.357 18.2267 49.9763 20.68C39.8153 22.5433 24.8092 17.2433 8.20373 18.884C8.86629 17.9006 9.68932 17.2226 10.7194 17.0673Z" fill="url(#paint9_linear)"/>
<path opacity="0.5" d="M64.7908 53.7999C59.8734 55.2232 48.2578 42.2838 48.2578 34.9187C48.2578 33.3245 52.9113 35.4725 56.9747 35.4725C60.1529 35.4725 62.3166 33.3867 64.5269 32.5275C65.9814 31.9633 61.8818 39.7684 65.1842 44.9545C67.5498 48.6655 63.4191 45.6015 62.5909 44.4938C61.7627 43.3862 58.3878 42.8376 58.3878 42.8376C58.3878 42.8376 59.1849 39.7063 56.9747 40.0737C54.7644 40.4412 52.9217 40.2963 52.9217 40.2963C52.9217 40.2963 60.184 51.7762 64.7908 53.7999Z" fill="url(#paint10_linear)"/>
<path d="M51.0478 37.2839C52.0313 35.3171 54.0863 38.0292 57.513 36.9474C60.1373 36.1193 62.8859 33.2778 63.5692 34.3596C64.2525 35.4413 62.7099 38.5416 62.7099 40.2289C62.7099 41.9162 64.6769 44.8301 65.1324 45.5392C65.5931 46.2431 63.4398 45.2338 62.3373 44.0072C61.5401 43.1169 60.3496 42.1491 59.8423 42.0818C59.335 42.0145 59.6352 39.3179 57.6579 39.3179C55.6806 39.3179 53.0459 39.1368 52.0054 39.7268C53.0407 42.2164 56.0791 47.0091 60.1373 50.5959C60.1529 50.6063 60.1632 50.6218 60.1788 50.6322C60.4893 50.9013 60.7999 51.1653 61.1208 51.4189C61.1778 51.4655 61.2295 51.5121 61.2865 51.5535C61.5763 51.7812 61.8714 51.9934 62.1664 52.2056C62.2544 52.2677 62.3373 52.335 62.4252 52.3919C62.7099 52.5886 63.005 52.7749 63.3 52.9561C63.3984 53.0182 63.4967 53.0855 63.5951 53.1424C63.9781 53.3701 64.3715 53.5824 64.7649 53.779C64.7753 53.7842 64.7805 53.7894 64.7908 53.7894C65.1842 55.8079 65.1428 57.428 64.8322 58.7478C64.3663 55.2955 59.7491 51.6466 56.3276 47.9511C52.8906 44.2505 50.0643 39.2507 51.0478 37.2839ZM59.5473 38.7279C61.39 39.3438 60.6498 41.5487 60.6498 41.5487C60.6498 41.5487 64.1489 45.0475 64.7028 45.6013C64.7028 45.6013 61.8817 42.5321 61.8817 40.4463C61.8817 38.7072 61.7316 36.3781 63.0309 34.6494C61.6592 35.9485 58.983 38.112 56.3587 38.112C51.6948 38.112 52.492 37.3149 51.6949 38.112C51.5551 38.2517 51.6327 38.7227 51.8864 39.4007C51.9381 39.3904 57.7149 38.1172 59.5473 38.7279Z" fill="url(#paint11_linear)"/>
<path d="M51.8759 39.401C53.729 39.2302 55.5356 38.7902 57.3835 38.7126C58.2842 38.6867 59.278 38.6143 60.0027 39.106C60.7326 39.6132 60.7947 40.6691 60.5566 41.5127V41.5179C60.5462 41.5541 60.5566 41.5955 60.5825 41.6214L64.62 45.6895C64.6666 45.7361 64.7494 45.7361 64.796 45.6895C64.8425 45.6429 64.8425 45.5653 64.8011 45.5187C64.0765 44.6958 63.4087 43.8056 62.86 42.8584C62.2958 41.9009 61.9335 40.8916 62.0318 39.7736C62.0266 38.6712 62.0629 37.5636 62.3786 36.5284C62.6789 35.4881 63.2948 34.5617 64.0868 33.8267L63.8383 33.5834C62.8652 34.6289 61.773 35.5968 60.5825 36.3887C59.3971 37.1702 58.0668 37.8379 56.6588 37.9207C55.225 37.9673 53.7808 37.9104 52.3573 37.605C52.1451 37.5325 51.8345 37.7137 51.7413 37.8379C51.6689 37.9207 51.6223 37.9311 51.5343 38.0708C51.4463 38.2209 51.4722 38.3193 51.467 38.4279C51.5032 38.8317 51.6326 39.1784 51.762 39.5252C52.0312 40.2136 52.3625 40.8657 52.7093 41.5075C54.1328 44.0592 55.8772 46.4193 57.8545 48.5621C59.8422 50.679 62.1043 52.6457 64.796 53.7948C62.2751 52.3455 60.0389 50.4823 58.0719 48.3602C56.1153 46.233 54.3864 43.878 52.9888 41.3522C52.6472 40.7156 52.3211 40.0738 52.0623 39.4062C51.938 39.0749 51.819 38.7281 51.7931 38.4072C51.7879 38.2364 51.7983 38.2313 51.9639 38.0708C52.114 37.9414 52.1451 37.8948 52.3107 37.9259C53.729 38.2313 55.2146 38.2985 56.6795 38.2571C58.191 38.1691 59.5627 37.4756 60.7843 36.6785C62.0163 35.8659 63.1085 34.8877 64.1023 33.8008C64.1696 33.7284 64.1645 33.6197 64.092 33.5524C64.0247 33.4903 63.916 33.4954 63.8539 33.5576C63.0257 34.3339 62.3786 35.3225 62.068 36.4197C61.7419 37.5118 61.7161 38.6557 61.7316 39.7633C61.7316 40.3016 61.7264 40.902 61.9179 41.4506C62.0888 41.994 62.3372 42.5064 62.6219 42.9878C63.1913 43.9557 63.8694 44.8407 64.6148 45.6792L64.796 45.5084L60.7274 41.4713L60.7533 41.5748L60.7584 41.5645C61.0276 40.6898 61.0328 39.5097 60.1632 38.8834C59.3039 38.3192 58.2893 38.4279 57.3783 38.4486C56.4466 38.5004 55.52 38.6246 54.5986 38.7644C53.6773 38.9196 52.7611 39.0853 51.8759 39.401Z" fill="#3D2A20"/>
<path d="M60.7689 41.0103L60.5722 41.5279L60.6239 41.4709C59.9614 41.678 59.335 41.9885 58.776 42.413C58.2325 42.8271 57.6993 43.3861 57.5699 44.0849C57.9323 43.4948 58.4447 43.0859 58.983 42.6977C59.5214 42.3146 60.1011 41.9678 60.686 41.6314L60.7119 41.6159C60.7275 41.6055 60.7378 41.59 60.7378 41.5744L60.7689 41.0103Z" fill="#3D2A20"/>
<path d="M70.5986 52.0452C74.7189 50.7254 73.2385 36.2747 72.9331 30.3174L73.0263 30.3847C74.4083 37.5272 73.9114 46.8073 73.9114 49.5246C73.9114 53.453 70.4744 55.1714 66.6698 54.5555C65.2463 54.3277 62.829 52.6767 60.3547 50.5132C62.7513 51.9417 66.9286 53.2201 70.5986 52.0452Z" fill="url(#paint12_radial)"/>
<path opacity="0.5" d="M7.05462 36.104C10.6107 37.2789 14.6586 36.2748 17.3192 36.2748C20.632 36.2748 28.738 49.4109 32.7859 52.9667C36.8389 56.5276 48.1336 58.4892 53.5324 60.6993C58.7863 62.8472 63.2069 61.7241 64.915 58.3857C63.9315 63.7168 58.5172 64.1981 56.3587 63.1578C40.3743 55.4459 38.4332 58.1269 33.4019 54.3176C27.7804 50.0682 24.8092 42.6565 18.9186 40.4465C13.6544 38.4745 8.88702 39.815 7.05462 36.104Z" fill="url(#paint13_linear)"/>
<path opacity="0.5" d="M67.0735 37.0978C66.5663 32.8071 68.0984 26.4668 67.1356 21.0322C68.1657 21.5291 69.0975 22.1295 69.8584 22.8955C74.9518 27.9884 73.9114 45.6067 73.9114 49.5299C73.9114 53.4583 70.4744 55.1767 66.6698 54.5608C65.6501 54.3951 64.1127 53.4946 62.4097 52.2058C72.4413 48.6708 67.9328 44.3438 67.0735 37.0978Z" fill="url(#paint14_linear)"/>
<path opacity="0.08" d="M31.8438 29.2362C28.7484 31.3117 30.8034 37.4139 34.3957 43.2211C37.3358 47.9672 43.506 51.3677 46.4771 49.2612C49.4483 47.1598 51.7051 44.7427 44.8518 35.3591C40.8195 29.8262 34.872 27.2073 31.8438 29.2362Z" fill="url(#paint15_radial)"/>
<path opacity="0.08" d="M10.8177 22.0464C10.3104 24.2771 24.0897 26.5699 39.4581 28.1329C52.0261 29.4062 66.5922 28.7695 66.8873 26.5751C67.1823 24.3806 65.9348 22.3 39.6652 20.1779C24.1829 18.9254 11.3146 19.8726 10.8177 22.0464Z" fill="url(#paint16_radial)"/>
<path opacity="0.08" d="M57.1609 43.9914C56.2499 45.1094 57.8753 47.2729 60.0493 49.1776C61.83 50.7304 64.6666 51.4395 65.5258 50.3267C66.3851 49.2139 66.9234 48.0493 63.005 45.0784C60.7015 43.3237 58.0513 42.8993 57.1609 43.9914Z" fill="url(#paint17_radial)"/>
<defs>
<linearGradient id="paint0_linear" x1="65.2693" y1="50.5828" x2="49.1173" y2="36.4191" gradientUnits="userSpaceOnUse">
<stop offset="0.00132565" stop-color="#FFCB4B"/>
<stop offset="1" stop-color="#FFD748"/>
</linearGradient>
<linearGradient id="paint1_linear" x1="57.7345" y1="42.1542" x2="52.8863" y2="54.1225" gradientUnits="userSpaceOnUse">
<stop offset="0.00132565" stop-color="#BE8D68"/>
<stop offset="1" stop-color="#CD9870"/>
</linearGradient>
<linearGradient id="paint2_linear" x1="57.3729" y1="45.7695" x2="58.7536" y2="62.9849" gradientUnits="userSpaceOnUse">
<stop offset="0.00132565" stop-color="#5A4539"/>
<stop offset="1" stop-color="#695042"/>
</linearGradient>
<linearGradient id="paint3_linear" x1="70.5129" y1="-7.12891" x2="46.2095" y2="28.225" gradientUnits="userSpaceOnUse">
<stop offset="0.00132565" stop-color="#5A4539"/>
<stop offset="1" stop-color="#695042"/>
</linearGradient>
<linearGradient id="paint4_linear" x1="33.1432" y1="53.2505" x2="35.598" y2="41.4665" gradientUnits="userSpaceOnUse">
<stop offset="0.00132565" stop-color="#5A4539"/>
<stop offset="1" stop-color="#695042"/>
</linearGradient>
<radialGradient id="paint5_radial" cx="0" cy="0" r="1" gradientUnits="userSpaceOnUse" gradientTransform="translate(40.0055 -6.28924) rotate(180) scale(53.6937 53.6884)">
<stop stop-color="#695042"/>
<stop offset="0.9987" stop-color="#5A4539"/>
</radialGradient>
<radialGradient id="paint6_radial" cx="0" cy="0" r="1" gradientUnits="userSpaceOnUse" gradientTransform="translate(54.2457 27.3442) rotate(180) scale(36.8122 36.8085)">
<stop stop-color="#695042"/>
<stop offset="0.9987" stop-color="#5A4539"/>
</radialGradient>
<linearGradient id="paint7_linear" x1="39.2814" y1="14.974" x2="18.8456" y2="194.679" gradientUnits="userSpaceOnUse">
<stop stop-color="#3C2200" stop-opacity="0"/>
<stop offset="0.9984"/>
</linearGradient>
<radialGradient id="paint8_radial" cx="0" cy="0" r="1" gradientUnits="userSpaceOnUse" gradientTransform="translate(65.1798 38.7885) rotate(180) scale(12.8552 12.854)">
<stop stop-color="#695042"/>
<stop offset="0.9987" stop-color="#5A4539"/>
</radialGradient>
<linearGradient id="paint9_linear" x1="39.0588" y1="33.2363" x2="39.0588" y2="0.269547" gradientUnits="userSpaceOnUse">
<stop offset="0.00132565" stop-color="#473226"/>
<stop offset="1" stop-color="#3D2A20"/>
</linearGradient>
<linearGradient id="paint10_linear" x1="77.2" y1="58.2078" x2="70.5716" y2="51.3486" gradientUnits="userSpaceOnUse">
<stop offset="0.3072" stop-color="#473226" stop-opacity="0"/>
<stop offset="1" stop-color="#473226"/>
</linearGradient>
<linearGradient id="paint11_linear" x1="80.9171" y1="42.5516" x2="8.64234" y2="58.9416" gradientUnits="userSpaceOnUse">
<stop stop-color="#3C2200" stop-opacity="0"/>
<stop offset="0.9984"/>
</linearGradient>
<radialGradient id="paint12_radial" cx="0" cy="0" r="1" gradientUnits="userSpaceOnUse" gradientTransform="translate(56.5781 22.9253) rotate(180) scale(42.8196 42.8152)">
<stop stop-color="#695042"/>
<stop offset="0.9987" stop-color="#5A4539"/>
</radialGradient>
<linearGradient id="paint13_linear" x1="39.471" y1="19.7328" x2="28.1791" y2="108.849" gradientUnits="userSpaceOnUse">
<stop stop-color="#695042" stop-opacity="0"/>
<stop offset="1" stop-color="#473226"/>
</linearGradient>
<linearGradient id="paint14_linear" x1="74.0002" y1="37.8578" x2="62.4112" y2="37.8578" gradientUnits="userSpaceOnUse">
<stop stop-color="#695042" stop-opacity="0"/>
<stop offset="1" stop-color="#473226"/>
</linearGradient>
<radialGradient id="paint15_radial" cx="0" cy="0" r="1" gradientUnits="userSpaceOnUse" gradientTransform="translate(39.4273 39.0628) rotate(-126.159) scale(12.7308 6.65843)">
<stop stop-color="#F8DBBA"/>
<stop offset="1" stop-color="#CD9870" stop-opacity="0"/>
</radialGradient>
<radialGradient id="paint16_radial" cx="0" cy="0" r="1" gradientUnits="userSpaceOnUse" gradientTransform="translate(38.8763 24.1258) rotate(-175.382) scale(28.8739 4.04567)">
<stop stop-color="#F8DBBA"/>
<stop offset="1" stop-color="#CD9870" stop-opacity="0"/>
</radialGradient>
<radialGradient id="paint17_radial" cx="0" cy="0" r="1" gradientUnits="userSpaceOnUse" gradientTransform="translate(61.4223 47.0545) rotate(-142.87) scale(5.38521 2.5723)">
<stop stop-color="#F8DBBA"/>
<stop offset="1" stop-color="#CD9870" stop-opacity="0"/>
</radialGradient>
</defs>
</svg>
