<svg width="80" height="80" viewBox="0 0 80 80" fill="none" xmlns="http://www.w3.org/2000/svg">
<path d="M49.1118 36.4186C45.2089 40.8656 45.6644 47.6474 50.1263 51.556C54.5883 55.4698 61.364 55.0297 65.2669 50.5827C69.1698 46.1357 68.7143 39.3539 64.2524 35.4453C59.7904 31.5367 53.0147 31.9716 49.1118 36.4186Z" fill="url(#paint0_linear)"/>
<path d="M49.1118 36.4186C45.2089 40.8656 45.6644 47.6474 50.1263 51.556C54.5883 55.4698 61.364 55.0297 65.2669 50.5827C69.1698 46.1357 68.7143 39.3539 64.2524 35.4453C59.7904 31.5367 53.0147 31.9716 49.1118 36.4186Z" fill="url(#paint1_linear)"/>
<path d="M18.9121 40.4517C13.0215 38.2411 6.02318 17 11.1787 17C16.3343 17 41.2529 20.6808 47.0245 19.9457C52.796 19.2106 64.7636 17.7972 69.857 22.8914C74.9505 27.9855 73.91 45.6028 73.91 49.5321C73.91 53.4614 70.473 55.1802 66.6684 54.5641C62.8639 53.9481 51.8746 43.2058 51.8746 39.4008C51.8746 39.4008 57.7031 38.1117 59.5459 38.7277C61.3886 39.3438 60.6484 41.5492 60.6484 41.5492C60.6484 41.5492 64.1476 45.0488 64.7014 45.6028C64.7014 45.6028 61.8804 42.5328 61.8804 40.4465C61.8804 38.3602 61.6371 35.4145 63.9664 33.6957C63.9664 33.6957 60.0997 38.1169 56.3573 38.1169C51.6935 38.1169 52.4906 37.3196 51.6935 38.1169L18.9121 40.4517Z" fill="url(#paint2_linear)"/>
<path d="M11.1801 17C6.02449 17 5.28947 28.907 6.51625 34.5551C7.74302 40.2031 13.0228 38.2359 18.9134 40.4465C24.804 42.657 27.7752 50.0704 33.3966 54.3207C38.428 58.1258 40.3691 55.4493 56.3534 63.1629C59.0192 64.452 66.6645 63.4373 64.7856 53.8082C56.8451 49.9048 50.8924 38.9141 51.6896 38.1168C51.6896 38.1168 43.5266 38.1168 39.9964 38.1168C36.4662 38.1168 20.8804 17 11.1801 17Z" fill="url(#paint3_linear)"/>
<path d="M64.915 58.3951V58.4365C63.9108 63.7377 58.512 64.2036 56.3535 63.163C40.3691 55.4494 38.428 58.131 33.3967 54.3208C27.7752 50.0705 24.8041 42.6571 18.9134 40.4466C13.0228 38.236 7.74303 40.2033 6.51625 34.5552C6.34544 33.7683 6.21603 32.8571 6.12803 31.8787C10.445 32.8571 15.2279 31.1177 19.7727 31.1177C25.42 31.1177 32.1699 49.1646 43.3403 54.6884C54.5159 60.2174 64.915 58.3951 64.915 58.3951Z" fill="url(#paint4_linear)"/>
<path d="M50.2195 53.9166C53.1285 53.782 58.165 54.2169 60.1786 50.6344C61.6073 51.8924 63.1498 53.0055 64.7907 53.8131C66.6697 63.4422 59.0243 64.4569 56.3585 63.1678C40.3742 55.4542 38.4331 58.1358 33.4017 54.3256C28.6033 50.6966 25.7305 44.7741 21.3255 41.7404L21.3151 41.7197C21.3151 41.7197 24.188 43.2107 30.8188 49.2884C37.4496 55.3713 46.6582 54.0771 50.2195 53.9166Z" fill="url(#paint5_linear)"/>
<path d="M6.48011 34.3633C8.74214 34.6687 11.998 34.8758 15.844 34.4358C23.334 33.5764 31.0674 51.1315 35.3637 53.9581C39.66 56.7795 53.5324 59.6061 57.9529 59.6061C61.2243 59.6061 63.6779 58.1876 65.0392 55.7131C65.6035 63.5613 58.8381 64.3638 56.3586 63.1679C40.3743 55.4542 38.4332 58.1359 33.4019 54.3256C27.7805 50.0754 24.8093 42.662 18.9187 40.4514C13.0281 38.2408 7.74829 40.2081 6.52151 34.56C6.50081 34.4979 6.49564 34.4254 6.48011 34.3633Z" fill="url(#paint6_linear)"/>
<path d="M73.9114 49.5375C73.9114 53.4669 70.4744 55.1856 66.6698 54.5695C64.4647 54.2123 59.8526 50.4539 56.3586 46.6125C62.8911 51.5928 66.2453 51.5048 68.7558 51.2511C73.7924 50.7438 71.9496 43.1491 71.9496 39.6495C71.9496 36.1499 73.1764 29.1661 69.8636 22.8916C74.957 27.9909 73.9114 45.6082 73.9114 49.5375Z" fill="url(#paint7_linear)"/>
<path d="M10.7194 17.0673C10.8643 17.0259 11.0145 17 11.1853 17C16.3408 17 41.2594 20.6807 47.031 19.9456C52.8025 19.2105 64.7701 17.7972 69.8635 22.8912C70.6348 23.6626 63.357 18.2269 49.9763 20.6807C39.8153 22.5444 24.8092 17.2433 8.20373 18.8844C8.86629 17.9008 9.68932 17.2226 10.7194 17.0673Z" fill="url(#paint8_linear)"/>
<path d="M64.7907 53.8083C59.8732 55.2319 48.2577 42.2895 48.2577 34.9227C48.2577 33.3282 52.9112 35.4766 56.9745 35.4766C60.1528 35.4766 62.3164 33.3903 64.5267 32.5309C65.9812 31.9666 61.8816 39.7735 65.1841 44.9608C67.5496 48.6727 63.419 45.6079 62.5908 44.5001C61.7626 43.3974 58.3876 42.8434 58.3876 42.8434C58.3876 42.8434 59.1848 39.7114 56.9745 40.0789C54.7643 40.4465 52.9215 40.3016 52.9215 40.3016C52.9215 40.3016 60.1838 51.7841 64.7907 53.8083Z" fill="url(#paint9_linear)"/>
<path d="M51.048 37.2885C52.0315 35.3213 54.0865 38.034 57.5132 36.952C60.1375 36.1237 62.8861 33.2815 63.5694 34.3635C64.2527 35.4455 62.7101 38.5465 62.7101 40.2342C62.7101 41.9219 64.6771 44.8365 65.1326 45.5458C65.5933 46.2499 63.44 45.2403 62.3374 44.0134C61.5403 43.123 60.3498 42.1549 59.8425 42.0876C59.3352 42.0203 59.6354 39.3231 57.6581 39.3231C55.6808 39.3231 53.0461 39.1419 52.0056 39.7321C53.0409 42.2222 56.0793 47.0161 60.1375 50.6037C60.1531 50.6141 60.1634 50.6296 60.1789 50.6399C60.4895 50.9091 60.8001 51.1732 61.121 51.4268C61.178 51.4734 61.2297 51.52 61.2867 51.5615C61.5765 51.7892 61.8716 52.0015 62.1666 52.2137C62.2546 52.2759 62.3374 52.3432 62.4254 52.4001C62.7101 52.5968 63.0052 52.7832 63.3002 52.9644C63.3986 53.0265 63.4969 53.0938 63.5953 53.1508C63.9783 53.3786 64.3717 53.5908 64.7651 53.7876C64.7755 53.7927 64.7806 53.7979 64.791 53.7979C65.1844 55.8169 65.143 57.4373 64.8324 58.7575C64.3665 55.3044 59.7493 51.6546 56.3278 47.9583C52.8908 44.2567 50.0645 39.2558 51.048 37.2885ZM59.5474 38.7329C61.3902 39.3489 60.65 41.5543 60.65 41.5543C60.65 41.5543 64.1491 45.054 64.703 45.6079C64.703 45.6079 61.8819 42.538 61.8819 40.4516C61.8819 38.7122 61.7318 36.3825 63.0311 34.6534C61.6594 35.9529 58.9832 38.1168 56.3589 38.1168C51.695 38.1168 52.4922 37.3196 51.6951 38.1168C51.5553 38.2566 51.6329 38.7277 51.8866 39.4059C51.9383 39.3955 57.715 38.122 59.5474 38.7329Z" fill="url(#paint10_linear)"/>
<path d="M51.876 39.4058C53.7291 39.2349 55.5356 38.7949 57.3835 38.7173C58.2842 38.6914 59.278 38.6189 60.0027 39.1107C60.7326 39.6181 60.7947 40.6742 60.5566 41.518V41.5232C60.5462 41.5594 60.5566 41.6008 60.5825 41.6267L64.6199 45.6958C64.6665 45.7424 64.7493 45.7424 64.7959 45.6958C64.8425 45.6492 64.8425 45.5716 64.8011 45.525C64.0764 44.7018 63.4087 43.8114 62.86 42.864C62.2958 41.9063 61.9335 40.8968 62.0318 39.7785C62.0266 38.6758 62.0629 37.568 62.3786 36.5326C62.6788 35.492 63.2948 34.5653 64.0868 33.8302L63.8383 33.5869C62.8652 34.6326 61.773 35.6007 60.5825 36.3928C59.3971 37.1745 58.0668 37.8423 56.6589 37.9252C55.225 37.9718 53.7809 37.9148 52.3574 37.6094C52.1452 37.5369 51.8346 37.7181 51.7414 37.8423C51.6689 37.9252 51.6224 37.9355 51.5344 38.0753C51.4464 38.2254 51.4722 38.3238 51.4671 38.4325C51.5033 38.8363 51.6327 39.1832 51.7621 39.53C52.0313 40.2186 52.3626 40.8709 52.7094 41.5128C54.1328 44.0651 55.8772 46.4258 57.8546 48.569C59.8423 50.6864 62.1043 52.6537 64.7959 53.8029C62.2751 52.3534 60.039 50.4897 58.072 48.3671C56.1154 46.2394 54.3865 43.889 52.9889 41.3575C52.6473 40.7259 52.3212 40.0788 52.0623 39.411C51.9381 39.0796 51.8191 38.7328 51.7932 38.4118C51.788 38.241 51.7984 38.2358 51.964 38.0753C52.1141 37.9459 52.1452 37.8993 52.3108 37.9303C53.7291 38.2358 55.2147 38.3031 56.6796 38.2617C58.191 38.1737 59.5627 37.4799 60.7843 36.6827C62.0163 35.8699 63.1085 34.8915 64.1075 33.8043C64.1748 33.7318 64.1696 33.6231 64.0971 33.5558C64.0298 33.4937 63.9211 33.4989 63.859 33.561C63.0308 34.3375 62.3838 35.3263 62.0732 36.4238C61.7471 37.5162 61.7212 38.6603 61.7368 39.7682C61.7368 40.3066 61.7316 40.9071 61.9231 41.4559C62.0939 41.9994 62.3424 42.512 62.6271 42.9934C63.1965 43.9615 63.8746 44.8468 64.6199 45.6855L64.8011 45.5146L60.7326 41.4766L60.7584 41.5801L60.7636 41.5698C61.0328 40.6949 61.038 39.5145 60.1684 38.8881C59.3091 38.3238 58.2946 38.4325 57.3835 38.4532C56.4518 38.5102 55.5253 38.6292 54.6039 38.769C53.6773 38.9243 52.7611 39.09 51.876 39.4058Z" fill="#804B24"/>
<path d="M60.7688 41.0161L60.5721 41.5338L60.6239 41.4768C59.9613 41.6839 59.335 41.9945 58.7759 42.419C58.2324 42.8332 57.6993 43.3923 57.5698 44.0912C57.9322 43.501 58.4446 43.092 58.983 42.7038C59.5213 42.3207 60.1011 41.9738 60.686 41.6373L60.7119 41.6218C60.7274 41.6115 60.7377 41.5959 60.7377 41.5804L60.7688 41.0161Z" fill="#804B24"/>
<path d="M70.5985 52.0533C74.7188 50.7331 73.2384 36.279 72.933 30.3203L73.0262 30.3876C74.4083 37.5319 73.9113 46.8142 73.9113 49.5321C73.9113 53.4614 70.4743 55.1802 66.6697 54.5641C65.2463 54.3363 62.8289 52.6849 60.3547 50.5209C62.7513 51.9497 66.9286 53.2284 70.5985 52.0533Z" fill="url(#paint11_linear)"/>
<path d="M7.05466 36.1084C10.6108 37.2836 14.6586 36.2792 17.3192 36.2792C20.632 36.2792 28.7381 49.4184 32.7859 52.975C36.8389 56.5368 48.1336 58.4988 53.5324 60.7094C58.7863 62.8579 63.2069 61.7345 64.915 58.3953C63.9315 63.7276 58.5172 64.209 56.3587 63.1685C40.3743 55.4548 38.4332 58.1365 33.4019 54.3262C27.7805 50.0759 24.8093 42.6625 18.9187 40.4519C13.6544 38.4795 8.88706 39.8203 7.05466 36.1084Z" fill="url(#paint12_linear)"/>
<path d="M67.0736 37.102C66.5663 32.8103 68.0985 26.4685 67.1357 21.0327C68.1658 21.5297 69.0976 22.1302 69.8585 22.8964C74.9519 27.9906 73.9115 45.613 73.9115 49.5371C73.9115 53.4665 70.4744 55.1852 66.6699 54.5691C65.6501 54.4035 64.1128 53.5027 62.4098 52.2136C72.4414 48.6777 67.9329 44.3498 67.0736 37.102Z" fill="url(#paint13_linear)"/>
<path opacity="0.5" d="M31.8439 29.2383C28.7485 31.3143 30.8034 37.418 34.3958 43.2266C37.3359 47.9739 43.506 51.3752 46.4772 49.2681C49.4484 47.1663 51.7053 44.7486 44.8519 35.3627C40.8195 29.8285 34.872 27.2089 31.8439 29.2383Z" fill="url(#paint14_radial)"/>
<path opacity="0.5" d="M10.8177 22.0475C10.3104 24.2788 24.0897 26.5722 39.458 28.1356C52.0261 29.4091 66.5921 28.7724 66.8872 26.5773C67.1822 24.3823 65.9347 22.3011 39.6651 20.1786C24.1828 18.9258 11.3146 19.8731 10.8177 22.0475Z" fill="url(#paint15_radial)"/>
<path opacity="0.5" d="M57.1611 43.9979C56.2501 45.1161 57.8755 47.2801 60.0495 49.1852C61.8301 50.7383 64.6667 51.4476 65.5259 50.3345C66.3852 49.2215 66.9235 48.0567 63.0051 45.0851C60.7017 43.3301 58.0514 42.9056 57.1611 43.9979Z" fill="url(#paint16_radial)"/>
<defs>
<linearGradient id="paint0_linear" x1="65.2677" y1="50.5889" x2="49.1124" y2="36.4256" gradientUnits="userSpaceOnUse">
<stop offset="0.00132565" stop-color="#FFCB4B"/>
<stop offset="1" stop-color="#FFD748"/>
</linearGradient>
<linearGradient id="paint1_linear" x1="57.7344" y1="42.1602" x2="52.8843" y2="54.1305" gradientUnits="userSpaceOnUse">
<stop offset="0.00132565" stop-color="#D2A374"/>
<stop offset="1" stop-color="#DEBA94"/>
</linearGradient>
<linearGradient id="paint2_linear" x1="70.5124" y1="-7.1346" x2="46.2013" y2="28.2223" gradientUnits="userSpaceOnUse">
<stop offset="0.00132565" stop-color="#D2A374"/>
<stop offset="1" stop-color="#DEBA94"/>
</linearGradient>
<linearGradient id="paint3_linear" x1="33.1432" y1="53.2588" x2="35.599" y2="41.4723" gradientUnits="userSpaceOnUse">
<stop offset="0.00132565" stop-color="#D2A374"/>
<stop offset="1" stop-color="#DEBA94"/>
</linearGradient>
<linearGradient id="paint4_linear" x1="42.9761" y1="31.8854" x2="13.5075" y2="85.8427" gradientUnits="userSpaceOnUse">
<stop stop-color="#D2A374" stop-opacity="0"/>
<stop offset="1" stop-color="#B88653"/>
</linearGradient>
<linearGradient id="paint5_linear" x1="50.77" y1="56.107" x2="62.925" y2="69.1811" gradientUnits="userSpaceOnUse">
<stop stop-color="#D2A374" stop-opacity="0"/>
<stop offset="1" stop-color="#B88653"/>
</linearGradient>
<linearGradient id="paint6_linear" x1="36.4053" y1="42.7131" x2="25.2312" y2="100.786" gradientUnits="userSpaceOnUse">
<stop stop-color="#E6AF74" stop-opacity="0"/>
<stop offset="1" stop-color="#E6AF74"/>
</linearGradient>
<linearGradient id="paint7_linear" x1="61.2173" y1="10.4887" x2="74.9702" y2="119.883" gradientUnits="userSpaceOnUse">
<stop stop-color="#D2A374" stop-opacity="0"/>
<stop offset="1" stop-color="#B88653"/>
</linearGradient>
<linearGradient id="paint8_linear" x1="38.447" y1="27.2296" x2="42.499" y2="-14.5135" gradientUnits="userSpaceOnUse">
<stop stop-color="#FFBC47" stop-opacity="0"/>
<stop offset="1" stop-color="#C86F34"/>
</linearGradient>
<linearGradient id="paint9_linear" x1="58.8822" y1="14.3481" x2="55.6896" y2="61.0035" gradientUnits="userSpaceOnUse">
<stop stop-color="#D2A374" stop-opacity="0"/>
<stop offset="1" stop-color="#B88653"/>
</linearGradient>
<linearGradient id="paint10_linear" x1="31.6112" y1="27.9718" x2="77.8227" y2="54.2821" gradientUnits="userSpaceOnUse">
<stop stop-color="#D2A374" stop-opacity="0"/>
<stop offset="1" stop-color="#B88653"/>
</linearGradient>
<linearGradient id="paint11_linear" x1="60.0244" y1="-30.4998" x2="73.0405" y2="106.029" gradientUnits="userSpaceOnUse">
<stop stop-color="#D2A374" stop-opacity="0"/>
<stop offset="1" stop-color="#B88653"/>
</linearGradient>
<linearGradient id="paint12_linear" x1="43.8016" y1="7.8612" x2="31.0311" y2="72.1961" gradientUnits="userSpaceOnUse">
<stop stop-color="#D2A374" stop-opacity="0"/>
<stop offset="1" stop-color="#B88653"/>
</linearGradient>
<linearGradient id="paint13_linear" x1="60.5097" y1="37.3799" x2="101.389" y2="40.2031" gradientUnits="userSpaceOnUse">
<stop stop-color="#D2A374" stop-opacity="0"/>
<stop offset="1" stop-color="#B88653"/>
</linearGradient>
<radialGradient id="paint14_radial" cx="0" cy="0" r="1" gradientUnits="userSpaceOnUse" gradientTransform="translate(39.4456 39.0587) rotate(-126.151) scale(12.733 6.65911)">
<stop stop-color="#E9CDB1"/>
<stop offset="1" stop-color="#E9CDB1" stop-opacity="0"/>
</radialGradient>
<radialGradient id="paint15_radial" cx="0" cy="0" r="1" gradientUnits="userSpaceOnUse" gradientTransform="translate(38.8755 24.1138) rotate(-175.381) scale(28.8739 4.04634)">
<stop stop-color="#E9CDB1"/>
<stop offset="1" stop-color="#E9CDB1" stop-opacity="0"/>
</radialGradient>
<radialGradient id="paint16_radial" cx="0" cy="0" r="1" gradientUnits="userSpaceOnUse" gradientTransform="translate(61.4171 47.0662) rotate(-142.864) scale(5.38555 2.57222)">
<stop stop-color="#E9CDB1"/>
<stop offset="1" stop-color="#E9CDB1" stop-opacity="0"/>
</radialGradient>
</defs>
</svg>
