<svg width="80" height="80" viewBox="0 0 80 80" fill="none" xmlns="http://www.w3.org/2000/svg">
<path d="M49.1113 36.4194C45.2105 40.8679 45.6636 47.6447 50.1269 51.5567C54.585 55.4686 61.3658 55.031 65.2667 50.5826C69.1675 46.1341 68.7144 39.3573 64.2511 35.4453C59.793 31.5334 53.0121 31.9709 49.1113 36.4194Z" fill="url(#paint0_linear)"/>
<path d="M49.1113 36.4194C45.2105 40.8679 45.6636 47.6447 50.1269 51.5567C54.585 55.4686 61.3658 55.031 65.2667 50.5826C69.1675 46.1341 68.7144 39.3573 64.2511 35.4453C59.793 31.5334 53.0121 31.9709 49.1113 36.4194Z" fill="url(#paint1_linear)"/>
<path d="M49.1113 36.4194C45.2105 40.8679 45.6636 47.6447 50.1269 51.5567C54.585 55.4686 61.3658 55.031 65.2667 50.5826C69.1675 46.1341 68.7144 39.3573 64.2511 35.4453C59.793 31.5334 53.0121 31.9709 49.1113 36.4194Z" fill="url(#paint2_linear)"/>
<path d="M18.915 40.4509C13.0247 38.2423 6.02507 17 11.1811 17C16.337 17 41.2576 20.6828 47.0282 19.9483C52.7987 19.2138 64.7668 17.8022 69.8603 22.8966C74.9538 27.991 73.9122 45.613 73.9122 49.5406C73.9122 53.4682 70.4749 55.1872 66.6678 54.5725C62.8607 53.9578 51.8769 43.2169 51.8769 39.4091C51.8769 39.4091 57.7047 38.1225 59.5484 38.7319C61.392 39.3414 60.6525 41.5552 60.6525 41.5552C60.6525 41.5552 64.1523 45.0557 64.7043 45.6078C64.7043 45.6078 61.8816 42.5397 61.8816 40.4509C61.8816 38.3621 61.6368 35.419 63.97 33.7001C63.97 33.7001 60.1056 38.1225 56.361 38.1225C51.6946 38.1225 52.4966 37.3255 51.6946 38.1225L18.915 40.4509Z" fill="url(#paint3_linear)"/>
<path d="M11.1811 17C6.0251 17 5.29076 28.9078 6.51465 34.5596C7.74375 40.2061 13.0195 38.2423 18.915 40.4509C24.8106 42.6595 27.7791 50.072 33.3986 54.3277C38.4296 58.1355 40.3722 55.4581 56.3558 63.1674C59.0223 64.454 66.6677 63.4435 64.7876 53.812C56.8453 49.9053 50.8925 38.9195 51.6893 38.1225C51.6893 38.1225 43.5283 38.1225 39.9973 38.1225C36.4662 38.1225 20.8785 17 11.1811 17Z" fill="url(#paint4_linear)"/>
<path d="M64.9126 58.3957V58.4374C63.9127 63.7349 58.5067 64.2037 56.3506 63.1619C40.367 55.4474 38.4296 58.13 33.3934 54.3223C27.7687 50.0717 24.8001 42.6593 18.9098 40.4455C13.0195 38.2369 7.73852 40.2007 6.50942 34.5541C6.33756 33.7676 6.21256 32.856 6.12402 31.8819C10.4415 32.8612 15.2225 31.1162 19.7691 31.1162C25.4147 31.1162 32.1695 49.1602 43.3408 54.6869C54.5173 60.2189 64.9126 58.3957 64.9126 58.3957Z" fill="url(#paint5_linear)"/>
<path d="M50.2206 53.9157C53.1267 53.7855 58.1629 54.2179 60.1785 50.6289C61.6055 51.8842 63.1523 52.999 64.7876 53.8064C66.6677 63.4378 59.0223 64.4483 56.3557 63.1617C40.3722 55.4472 38.4348 58.1298 33.3986 54.322C28.5968 50.6914 25.7272 44.7688 21.3263 41.7371L21.3159 41.7163C21.3159 41.7163 24.1908 43.2113 30.8206 49.2849C37.4505 55.369 46.6583 54.0772 50.2206 53.9157Z" fill="url(#paint6_radial)"/>
<path d="M6.47815 34.3618C8.74366 34.6691 11.9987 34.8723 15.8422 34.4347C23.3314 33.5752 31.0654 51.1349 35.3621 53.9582C39.6587 56.7814 53.533 59.6047 57.9494 59.6047C61.2201 59.6047 63.6783 58.1879 65.0324 55.7084C65.6001 63.5584 58.8296 64.3606 56.3505 63.1625C40.367 55.4479 38.4296 58.1306 33.3934 54.3228C27.7687 50.0722 24.8001 42.6598 18.9098 40.446C13.0195 38.2373 7.7385 40.2011 6.5094 34.5546C6.50419 34.4973 6.49377 34.4243 6.47815 34.3618Z" fill="url(#paint7_radial)"/>
<path d="M73.9122 49.5358C73.9122 53.4634 70.4748 55.1823 66.6677 54.5677C64.4595 54.2135 59.8503 50.4526 56.3557 46.6136C62.8867 51.5986 66.2407 51.51 68.751 51.2548C73.7872 50.7443 71.9435 43.1496 71.9435 39.6492C71.9435 36.1487 73.1726 29.1687 69.8551 22.8867C74.9538 27.9915 73.9122 45.6083 73.9122 49.5358Z" fill="url(#paint8_linear)"/>
<path d="M10.7176 17.0677C10.8582 17.026 11.0145 17 11.1811 17C16.3371 17 41.2577 20.6827 47.0282 19.9483C52.7987 19.2138 64.7668 17.8022 69.8603 22.8965C70.6311 23.6675 63.3554 18.2293 49.9707 20.6879C39.8098 22.5527 24.8054 17.25 8.1969 18.8908C8.86874 17.8959 9.69161 17.224 10.7176 17.0677Z" fill="url(#paint9_linear)"/>
<path d="M64.7877 53.8124C59.8713 55.2345 48.2521 42.2953 48.2521 34.9298C48.2521 33.3359 52.9029 35.482 56.9704 35.482C60.1473 35.482 62.3086 33.3932 64.5221 32.5337C65.9803 31.9659 61.8816 39.7794 65.1835 44.9675C67.5479 48.6816 63.418 45.6135 62.5899 44.5092C61.7618 43.4049 58.387 42.8527 58.387 42.8527C58.387 42.8527 59.1838 39.7221 56.9756 40.0919C54.7674 40.4618 52.9237 40.3159 52.9237 40.3159C52.9237 40.3159 60.1838 51.7861 64.7877 53.8124Z" fill="url(#paint10_linear)"/>
<path d="M56.3245 47.9733C59.7462 51.6716 64.3605 55.3179 64.8293 58.7715C65.1417 57.4536 65.1834 55.8284 64.7876 53.8073C64.7772 53.8021 64.772 53.7969 64.7616 53.7969C64.3658 53.6042 63.9752 53.3906 63.5898 53.1614C63.4908 53.1041 63.3918 53.0364 63.2981 52.9739C63.0064 52.7916 62.7096 52.6093 62.4231 52.4113C62.3346 52.3488 62.2513 52.2863 62.1679 52.2238C61.8711 52.0102 61.5742 51.7967 61.2878 51.5675C61.2305 51.5258 61.1784 51.4789 61.1211 51.432C60.8034 51.1768 60.4857 50.9163 60.1785 50.6455C60.1628 50.6351 60.1524 50.6194 60.1368 50.609C56.0745 47.02 53.0382 42.2278 52.0018 39.7326C53.0434 39.1388 55.6787 39.3211 57.6578 39.3211C59.6368 39.3211 59.34 42.0142 59.8451 42.0819C60.3503 42.1496 61.543 43.1185 62.3398 44.0092C63.4439 45.2385 65.5949 46.2491 65.1313 45.5459C64.673 44.8427 62.7044 41.9256 62.7044 40.2379C62.7044 38.5502 64.246 35.4509 63.5637 34.3674C62.8815 33.2839 60.1316 36.128 57.5067 36.9563C54.0746 38.0397 52.0226 35.3311 51.0383 37.2949C50.0644 39.2534 52.8872 44.2593 56.3245 47.9733ZM51.882 39.4045C51.632 38.7273 51.5487 38.2585 51.6893 38.1179C52.4862 37.3209 51.6893 38.1179 56.3557 38.1179C58.9754 38.1179 61.6524 35.9561 63.0273 34.6539C61.7305 36.3781 61.8815 38.7117 61.8815 40.4515C61.8815 42.5403 64.7043 45.6084 64.7043 45.6084C64.1522 45.0562 60.6524 41.5558 60.6524 41.5558C60.6524 41.5558 61.3867 39.3472 59.5483 38.7325C57.7151 38.1231 51.9393 39.3941 51.882 39.4045Z" fill="url(#paint11_linear)"/>
<path d="M51.8769 39.4094C52.757 39.0969 53.6788 38.925 54.5955 38.7844C55.5173 38.6437 56.4391 38.5239 57.3714 38.4666C58.2828 38.4458 59.2983 38.3364 60.1577 38.899C61.0274 39.5292 61.0222 40.7065 60.7514 41.5816L60.7462 41.592L60.7201 41.4878L64.7876 45.5248L64.6106 45.6967C63.8658 44.8632 63.1888 43.9725 62.6159 43.0036C62.3294 42.5192 62.0847 42.0087 61.9128 41.467C61.7201 40.92 61.7253 40.321 61.7253 39.7793C61.7149 38.6698 61.7357 37.529 62.0638 36.4351C62.3711 35.336 63.0221 34.3463 63.845 33.5702C63.9127 33.5025 64.0273 33.5024 64.0898 33.5754C64.1523 33.6431 64.1523 33.7473 64.095 33.815C63.1002 34.9037 62.0065 35.883 60.7722 36.6904C59.5535 37.4873 58.1786 38.1801 56.6683 38.2687C55.2048 38.3103 53.7205 38.2478 52.3039 37.9405C52.1425 37.9093 52.1112 37.9561 51.9602 38.0864C51.7935 38.2426 51.7831 38.253 51.7883 38.4197C51.8144 38.7375 51.9341 39.0865 52.0539 39.4146C52.3091 40.0814 52.6372 40.7273 52.981 41.3628C54.3767 43.8892 56.1058 46.2436 58.064 48.3741C60.0327 50.4942 62.2669 52.359 64.7876 53.8123C62.0951 52.6611 59.8348 50.6973 57.8453 48.5772C55.8662 46.4363 54.1215 44.0767 52.6997 41.5243C52.3508 40.8836 52.0175 40.2272 51.7519 39.5397C51.6217 39.1907 51.4967 38.8469 51.4602 38.4406C51.4654 38.3312 51.4394 38.2322 51.5279 38.0811C51.6164 37.9353 51.6633 37.9301 51.7362 37.8467C51.83 37.7165 52.1425 37.5394 52.356 37.6123C53.783 37.9145 55.2256 37.9718 56.6579 37.9249C58.0692 37.8415 59.3973 37.1748 60.5847 36.3934C61.7774 35.5965 62.8711 34.6328 63.845 33.5858L64.095 33.8306C63.3033 34.5651 62.6836 35.4871 62.3867 36.5289C62.069 37.5655 62.0326 38.675 62.0378 39.7793C61.9388 40.9044 62.3034 41.9098 62.8659 42.8682C63.4179 43.8163 64.0846 44.707 64.8085 45.53C64.8553 45.5821 64.8501 45.6602 64.8033 45.7071C64.7564 45.754 64.6783 45.7488 64.6314 45.7019L60.5952 41.6337C60.5691 41.6076 60.5587 41.566 60.5691 41.5295V41.5243C60.8087 40.6804 60.7462 39.623 60.0171 39.1177C59.2931 38.6281 58.2984 38.701 57.3974 38.7271C55.5381 38.7948 53.7309 39.2323 51.8769 39.4094Z" fill="#663C1D"/>
<path d="M60.7723 41.0127L60.741 41.5805C60.741 41.5961 60.7306 41.6117 60.715 41.6221L60.6889 41.6378C60.1056 41.9764 59.5276 42.3201 58.9859 42.7056C58.4443 43.0911 57.9339 43.5026 57.5746 44.0912C57.6996 43.3932 58.236 42.8306 58.7776 42.4191C59.3349 41.9972 59.9598 41.6899 60.6212 41.4815L60.5692 41.5388L60.7723 41.0127Z" fill="#663C1D"/>
<path d="M70.5998 52.0567C74.7246 50.7388 73.2403 36.2786 72.933 30.3247L73.0267 30.3924C74.4121 37.5392 73.9121 46.8164 73.9121 49.5407C73.9121 53.4683 70.4748 55.1873 66.6677 54.5726C65.2459 54.3434 62.8294 52.6922 60.3503 50.5252C62.7513 51.9473 66.9281 53.2287 70.5998 52.0567Z" fill="url(#paint12_radial)"/>
<path d="M7.05627 36.1064C10.6134 37.2837 14.66 36.2731 17.3214 36.2731C20.6337 36.2731 28.7374 49.4102 32.7893 52.9732C36.8412 56.5361 48.1323 58.4999 53.5382 60.7086C58.7932 62.8599 63.2096 61.7347 64.9178 58.3957C63.9335 63.7298 58.5223 64.209 56.361 63.1672C40.3774 55.4527 38.44 58.1353 33.4039 54.3275C27.7791 50.077 24.8105 42.6646 18.9202 40.4507C13.6549 38.4765 8.88951 39.8153 7.05627 36.1064Z" fill="url(#paint13_linear)"/>
<path d="M67.074 37.1009C66.5689 32.8087 68.1 26.4694 67.1365 21.0312C68.1677 21.5261 69.1 22.1303 69.8604 22.8961C74.9539 27.9904 73.9122 45.6124 73.9122 49.54C73.9122 53.4675 70.4749 55.1865 66.6678 54.5718C65.647 54.4051 64.1106 53.504 62.4076 52.2122C72.4384 48.6753 67.9282 44.3518 67.074 37.1009Z" fill="url(#paint14_radial)"/>
<path opacity="0.16" d="M31.8466 29.2359C28.753 31.3143 30.805 37.414 34.3986 43.222C37.3359 47.9726 43.5075 51.3688 46.4813 49.2644C49.4551 47.16 51.7102 44.7482 44.8564 35.3564C40.8149 29.8297 34.8673 27.2044 31.8466 29.2359Z" fill="url(#paint15_radial)"/>
<path opacity="0.16" d="M10.8165 22.0476C10.3061 24.277 24.0866 26.5742 39.4608 28.1369C52.0279 29.413 66.5948 28.7776 66.8917 26.5794C67.1833 24.3812 65.9386 22.3028 39.6691 20.1776C24.1856 18.9222 11.3165 19.8703 10.8165 22.0476Z" fill="url(#paint16_radial)"/>
<path opacity="0.16" d="M57.163 43.9934C56.2516 45.1081 57.8765 47.2802 60.0535 49.1815C61.8346 50.7338 64.673 51.4422 65.5324 50.3327C66.3917 49.218 66.9334 48.0564 63.0117 45.0873C60.6993 43.3318 58.0484 42.9047 57.163 43.9934Z" fill="url(#paint17_radial)"/>
<defs>
<linearGradient id="paint0_linear" x1="65.2711" y1="50.5962" x2="49.1151" y2="36.433" gradientUnits="userSpaceOnUse">
<stop offset="0.00132565" stop-color="#FFCB4B"/>
<stop offset="1" stop-color="#FFD748"/>
</linearGradient>
<linearGradient id="paint1_linear" x1="57.7343" y1="42.1602" x2="52.8837" y2="54.1309" gradientUnits="userSpaceOnUse">
<stop offset="0.00132565" stop-color="#BE8D68"/>
<stop offset="1" stop-color="#CD9870"/>
</linearGradient>
<linearGradient id="paint2_linear" x1="41.3177" y1="18.3042" x2="52.9216" y2="36.7198" gradientUnits="userSpaceOnUse">
<stop stop-color="#A46C3F" stop-opacity="0"/>
<stop offset="1" stop-color="#804B24"/>
</linearGradient>
<linearGradient id="paint3_linear" x1="70.5137" y1="-7.13755" x2="46.201" y2="28.2201" gradientUnits="userSpaceOnUse">
<stop offset="0.00132565" stop-color="#99643E"/>
<stop offset="1" stop-color="#AE7246"/>
</linearGradient>
<linearGradient id="paint4_linear" x1="33.143" y1="53.259" x2="35.5991" y2="41.4719" gradientUnits="userSpaceOnUse">
<stop offset="0.00132565" stop-color="#99643E"/>
<stop offset="1" stop-color="#AE7246"/>
</linearGradient>
<linearGradient id="paint5_linear" x1="42.9759" y1="31.8841" x2="13.505" y2="85.843" gradientUnits="userSpaceOnUse">
<stop stop-color="#A46C3F" stop-opacity="0"/>
<stop offset="1" stop-color="#804B24"/>
</linearGradient>
<radialGradient id="paint6_radial" cx="0" cy="0" r="1" gradientUnits="userSpaceOnUse" gradientTransform="translate(54.2548 27.3349) rotate(180) scale(36.8123 36.8188)">
<stop offset="0.6147" stop-color="#8D562E" stop-opacity="0"/>
<stop offset="1" stop-color="#804B24"/>
</radialGradient>
<radialGradient id="paint7_radial" cx="0" cy="0" r="1" gradientUnits="userSpaceOnUse" gradientTransform="translate(63.1555 -17.2351) rotate(180) scale(93.7535 93.7707)">
<stop offset="0.6147" stop-color="#8D562E" stop-opacity="0"/>
<stop offset="1" stop-color="#804B24"/>
</radialGradient>
<linearGradient id="paint8_linear" x1="61.2171" y1="10.487" x2="74.971" y2="119.886" gradientUnits="userSpaceOnUse">
<stop offset="0.00132565" stop-color="#99643E"/>
<stop offset="1" stop-color="#AE7246"/>
</linearGradient>
<linearGradient id="paint9_linear" x1="39.0587" y1="33.2386" x2="39.0587" y2="0.263313" gradientUnits="userSpaceOnUse">
<stop stop-color="#8D562E" stop-opacity="0"/>
<stop offset="1" stop-color="#804B24"/>
</linearGradient>
<linearGradient id="paint10_linear" x1="40.4224" y1="4.97065" x2="68.1742" y2="56.9039" gradientUnits="userSpaceOnUse">
<stop stop-color="#A46C3F" stop-opacity="0"/>
<stop offset="1" stop-color="#804B24"/>
</linearGradient>
<linearGradient id="paint11_linear" x1="52.3399" y1="8.87459" x2="59.2169" y2="47.5509" gradientUnits="userSpaceOnUse">
<stop stop-color="#A46C3F" stop-opacity="0"/>
<stop offset="1" stop-color="#804B24"/>
</linearGradient>
<radialGradient id="paint12_radial" cx="0" cy="0" r="1" gradientUnits="userSpaceOnUse" gradientTransform="translate(56.5875 22.9151) rotate(180) scale(42.8196 42.8274)">
<stop offset="0.6147" stop-color="#8D562E" stop-opacity="0"/>
<stop offset="1" stop-color="#804B24"/>
</radialGradient>
<linearGradient id="paint13_linear" x1="39.4708" y1="19.7313" x2="28.1728" y2="108.872" gradientUnits="userSpaceOnUse">
<stop stop-color="#A46C3F" stop-opacity="0"/>
<stop offset="1" stop-color="#804B24"/>
</linearGradient>
<radialGradient id="paint14_radial" cx="0" cy="0" r="1" gradientUnits="userSpaceOnUse" gradientTransform="translate(44.4953 30.2815) rotate(180) scale(41.2861 41.2932)">
<stop offset="0.6147" stop-color="#8D562E" stop-opacity="0"/>
<stop offset="1" stop-color="#804B24"/>
</radialGradient>
<radialGradient id="paint15_radial" cx="0" cy="0" r="1" gradientUnits="userSpaceOnUse" gradientTransform="translate(39.4357 39.0598) rotate(-126.15) scale(12.7333 6.65922)">
<stop stop-color="#F8DBBA"/>
<stop offset="1" stop-color="#CD9870" stop-opacity="0"/>
</radialGradient>
<radialGradient id="paint16_radial" cx="0" cy="0" r="1" gradientUnits="userSpaceOnUse" gradientTransform="translate(38.8739 24.1257) rotate(-175.381) scale(28.874 4.04649)">
<stop stop-color="#F8DBBA"/>
<stop offset="1" stop-color="#CD9870" stop-opacity="0"/>
</radialGradient>
<radialGradient id="paint17_radial" cx="0" cy="0" r="1" gradientUnits="userSpaceOnUse" gradientTransform="translate(61.4249 47.0616) rotate(-142.863) scale(5.38571 2.57233)">
<stop stop-color="#F8DBBA"/>
<stop offset="1" stop-color="#CD9870" stop-opacity="0"/>
</radialGradient>
</defs>
</svg>
