<svg width="80" height="80" viewBox="0 0 80 80" fill="none" xmlns="http://www.w3.org/2000/svg">
<path d="M40 70.4762C56.8315 70.4762 70.4762 56.8315 70.4762 40C70.4762 23.1685 56.8315 9.5238 40 9.5238C23.1685 9.5238 9.5238 23.1685 9.5238 40C9.5238 56.8315 23.1685 70.4762 40 70.4762Z" fill="url(#paint0_radial)"/>
<path opacity="0.5" d="M40 70.4762C56.8315 70.4762 70.4762 56.8315 70.4762 40C70.4762 23.1685 56.8315 9.5238 40 9.5238C23.1685 9.5238 9.5238 23.1685 9.5238 40C9.5238 56.8315 23.1685 70.4762 40 70.4762Z" fill="url(#paint1_radial)"/>
<path d="M33.9996 54.1903L37.7901 57.276C39.0663 58.3237 40.9139 58.3237 42.1901 57.276L45.9806 54.1903L49.7711 57.276C51.0473 58.3237 52.8949 58.3237 54.1901 57.276L56.4758 55.4094C56.8377 55.1237 57.0473 54.6856 57.0473 54.2094C57.0473 53.7332 56.8377 53.3141 56.4758 53.0094C55.9044 52.5522 55.0854 52.5522 54.533 53.0094L51.9996 55.0856L48.0568 51.8856C46.8568 50.9141 45.1235 50.9141 43.9235 51.8856L39.9996 55.0856L36.0568 51.8856C34.8568 50.9141 33.1235 50.9141 31.9235 51.8856L27.9996 55.0856L25.4473 53.0094C24.8758 52.5522 24.0568 52.5522 23.5044 53.0094C23.1425 53.2951 22.933 53.7332 22.933 54.2094C22.933 54.6856 23.1425 55.1046 23.5044 55.4094L25.7901 57.276C27.0663 58.3237 28.9139 58.3237 30.2092 57.276L33.9996 54.1903Z" fill="#643800"/>
<path d="M56.5143 53.0094C55.9429 52.5522 55.1238 52.5522 54.5714 53.0094L53.2191 54.1141C52.5143 54.6856 51.5238 54.6856 50.8191 54.1141L48.0762 51.8856C46.8762 50.9141 45.1429 50.9141 43.9429 51.8856L41.2 54.1141C40.4952 54.6856 39.5048 54.6856 38.8 54.1141L36.0572 51.8856C34.8572 50.9141 33.1238 50.9141 31.9238 51.8856L29.181 54.1141C28.4762 54.6856 27.4857 54.6856 26.781 54.1141L25.4286 53.0094C24.8572 52.5522 24.0381 52.5522 23.4857 53.0094C23.2191 53.2379 23.0286 53.5237 22.9524 53.8665C25.0857 52.7427 26.3048 56.0951 28.0191 56.0951C29.5429 56.0951 31.8667 52.2475 33.9619 52.2475C35.7524 52.2475 38.381 56.057 40 56.057C41.6191 56.057 44.2476 52.2475 46.0381 52.2475C48.1333 52.2475 50.4381 56.0951 51.981 56.0951C53.6952 56.0951 54.9143 52.7427 57.0476 53.8665C56.9524 53.5427 56.781 53.2379 56.5143 53.0094Z" fill="url(#paint2_linear)"/>
<path d="M20.1906 24.3998C20.0192 25.6188 21.2192 26.5522 23.4668 26.876C25.3715 27.1426 29.7144 26.6855 33.143 23.3712C33.7715 22.7617 33.0096 22.2665 32.4192 22.6474C30.4192 23.9046 25.3906 25.1617 21.7334 24.2474C20.2668 23.8474 20.1906 24.3998 20.1906 24.3998Z" fill="url(#paint3_linear)"/>
<path d="M21.0098 31.0097C21.1241 30.6668 21.4479 30.4763 21.8098 30.5335C23.6955 30.9144 26.9146 32.3049 29.9812 34.0763C32.4193 35.4668 35.2574 39.0287 34.9146 40.2478C34.5336 41.5811 30.7241 42.5906 29.105 42.9716C26.5717 43.562 23.2384 44.0001 21.486 43.5049C21.0288 43.3716 20.8765 43.0478 20.8765 42.7811C20.8955 42.4192 21.2003 42.1144 21.6765 42.0192C26.8003 41.0097 30.2288 39.7144 30.286 38.9335C30.286 38.9335 30.5336 37.7144 27.3146 35.6192C25.3527 34.343 23.2003 33.2382 21.8669 32.5906C21.105 32.1335 20.8574 31.5049 21.0098 31.0097Z" fill="url(#paint4_radial)"/>
<path d="M21.8096 30.5334C23.6954 30.9143 27.0096 31.9048 29.9811 34.0762C32.7049 36.0572 35.2573 39.0286 34.9144 40.2477C34.6858 41.0286 33.3144 41.6953 31.8858 42.1905C31.8287 42.2096 31.7715 42.2286 31.7144 42.2477H31.6954C33.0477 41.2001 33.8668 39.8858 32.3811 38.0001C31.4287 36.8191 28.6287 33.181 21.0096 30.9905C21.1239 30.6667 21.4477 30.4762 21.8096 30.5334Z" fill="url(#paint5_linear)"/>
<path d="M20.8765 42.781C20.8955 42.4191 21.2003 42.1144 21.6765 42.0191C26.8003 41.0096 30.2289 39.7144 30.286 38.9334C30.1908 40.2667 30.1336 40.9144 25.8669 41.8667C22.705 42.5715 21.2193 42.8382 21.4669 43.5048C21.0288 43.3715 20.8765 43.0477 20.8765 42.781Z" fill="url(#paint6_linear)"/>
<path d="M59.8096 24.3998C59.981 25.6188 58.781 26.5522 56.5334 26.876C54.6286 27.1426 50.2858 26.6855 46.8572 23.3712C46.2286 22.7617 46.9905 22.2665 47.581 22.6474C49.581 23.9046 54.6096 25.1617 58.2667 24.2474C59.7334 23.8474 59.8096 24.3998 59.8096 24.3998Z" fill="url(#paint7_linear)"/>
<path d="M58.9902 31.0097C58.8759 30.6668 58.5521 30.4763 58.1902 30.5335C56.3045 30.9144 53.0854 32.3049 50.0188 34.0763C47.5807 35.4668 44.7426 39.0287 45.0854 40.2478C45.4664 41.5811 49.2759 42.5906 50.895 42.9716C53.4283 43.562 56.7616 44.0001 58.514 43.5049C58.9711 43.3716 59.1235 43.0478 59.1235 42.7811C59.1045 42.4192 58.7997 42.1144 58.3235 42.0192C53.1997 41.0097 49.7711 39.7144 49.714 38.9335C49.714 38.9335 49.4664 37.7144 52.6854 35.6192C54.6473 34.343 56.7997 33.2382 58.133 32.5906C58.8949 32.1335 59.1426 31.5049 58.9902 31.0097Z" fill="url(#paint8_radial)"/>
<path d="M58.1904 30.5334C56.3047 30.9143 52.9904 31.9048 50.0189 34.0762C47.2951 36.0572 44.7427 39.0286 45.0856 40.2477C45.3142 41.0286 46.6856 41.6953 48.1142 42.1905C48.1713 42.2096 48.2285 42.2286 48.2856 42.2477H48.3047C46.9523 41.2001 46.1332 39.8858 47.6189 38.0001C48.5713 36.8191 51.3713 33.181 58.9904 30.9905C58.8761 30.6667 58.5523 30.4762 58.1904 30.5334Z" fill="url(#paint9_linear)"/>
<path d="M59.1238 42.781C59.1047 42.4191 58.8 42.1144 58.3238 42.0191C53.2 41.0096 49.7714 39.7144 49.7142 38.9334C49.8095 40.2667 49.8666 40.9144 54.1333 41.8667C57.2952 42.5715 58.7809 42.8382 58.5333 43.5048C58.9714 43.3715 59.1238 43.0477 59.1238 42.781Z" fill="url(#paint10_linear)"/>
<defs>
<radialGradient id="paint0_radial" cx="0" cy="0" r="1" gradientUnits="userSpaceOnUse" gradientTransform="translate(34.0037 27.649) scale(36.7656)">
<stop stop-color="#FFE030"/>
<stop offset="1" stop-color="#FFB92E"/>
</radialGradient>
<radialGradient id="paint1_radial" cx="0" cy="0" r="1" gradientUnits="userSpaceOnUse" gradientTransform="translate(34.0037 27.649) scale(28.9251)">
<stop stop-color="#FFEA5F"/>
<stop offset="1" stop-color="#FFBC47" stop-opacity="0"/>
</radialGradient>
<linearGradient id="paint2_linear" x1="39.9996" y1="53.4157" x2="39.9996" y2="63.971" gradientUnits="userSpaceOnUse">
<stop offset="0.00132565" stop-color="#3C2200"/>
<stop offset="1" stop-color="#512D00"/>
</linearGradient>
<linearGradient id="paint3_linear" x1="24.6468" y1="28.2246" x2="27.4223" y2="22.3987" gradientUnits="userSpaceOnUse">
<stop offset="0.00132565" stop-color="#3C2200"/>
<stop offset="1" stop-color="#7A4400"/>
</linearGradient>
<radialGradient id="paint4_radial" cx="0" cy="0" r="1" gradientUnits="userSpaceOnUse" gradientTransform="translate(27.1025 38.6103) rotate(-57.9897) scale(7.16826 4.63724)">
<stop offset="0.00132565" stop-color="#7A4400"/>
<stop offset="1" stop-color="#643800"/>
</radialGradient>
<linearGradient id="paint5_linear" x1="35.336" y1="38.813" x2="20.0406" y2="34.4656" gradientUnits="userSpaceOnUse">
<stop offset="0.00132565" stop-color="#3C2200"/>
<stop offset="1" stop-color="#512D00"/>
</linearGradient>
<linearGradient id="paint6_linear" x1="30.0747" y1="41.495" x2="20.9513" y2="40.8951" gradientUnits="userSpaceOnUse">
<stop offset="0.00132565" stop-color="#3C2200"/>
<stop offset="1" stop-color="#512D00"/>
</linearGradient>
<linearGradient id="paint7_linear" x1="55.3693" y1="28.2235" x2="52.5939" y2="22.3976" gradientUnits="userSpaceOnUse">
<stop offset="0.00132565" stop-color="#3C2200"/>
<stop offset="1" stop-color="#7A4400"/>
</linearGradient>
<radialGradient id="paint8_radial" cx="0" cy="0" r="1" gradientUnits="userSpaceOnUse" gradientTransform="translate(52.8689 38.5714) rotate(-122.01) scale(7.16826 4.63724)">
<stop offset="0.00132565" stop-color="#7A4400"/>
<stop offset="1" stop-color="#643800"/>
</radialGradient>
<linearGradient id="paint9_linear" x1="44.6695" y1="38.8019" x2="59.9649" y2="34.4544" gradientUnits="userSpaceOnUse">
<stop offset="0.00132565" stop-color="#3C2200"/>
<stop offset="1" stop-color="#512D00"/>
</linearGradient>
<linearGradient id="paint10_linear" x1="49.877" y1="41.4919" x2="59.0003" y2="40.892" gradientUnits="userSpaceOnUse">
<stop offset="0.00132565" stop-color="#3C2200"/>
<stop offset="1" stop-color="#512D00"/>
</linearGradient>
</defs>
</svg>
