<svg width="80" height="80" viewBox="0 0 80 80" fill="none" xmlns="http://www.w3.org/2000/svg">
<path d="M48.5759 34.8804C48.5958 34.4921 48.6157 34.074 48.6307 33.626C48.9094 26.2989 48.8696 11.5302 49.203 9.58891C49.5564 7.52815 50.6862 6.00498 53.6475 6.00001C56.6038 5.99503 58.0521 8.77257 57.7037 12.5158C57.3553 16.259 58.1069 30.2412 58.3308 34.9501C58.6792 42.2424 59.8588 53.5466 59.8588 53.5466L48.8795 46.0353L48.5759 34.8804Z" fill="url(#paint0_linear)"/>
<path d="M58.326 34.9499C58.1021 30.2411 57.3506 16.2588 57.6989 12.5156C57.9229 10.0815 57.3804 8.07554 56.166 6.95557C57.2012 10.211 56.7782 15.0443 57.0818 27.8717C57.46 43.86 58.774 49.2159 58.774 49.2159L59.3762 48.6435C59.0079 44.7062 58.5251 39.161 58.326 34.9499Z" fill="url(#paint1_linear)"/>
<path d="M50.2184 22.5107C50.0094 14.9696 49.7506 9.76794 50.7858 6.77637C49.875 7.41848 49.4022 8.41401 49.1982 9.59371C48.8647 11.535 48.9095 26.2987 48.6258 33.6308C48.6109 34.0788 48.591 34.4969 48.571 34.8852L48.6756 38.7877L49.4619 40.0968C49.4669 40.0918 50.5021 32.6651 50.2184 22.5107Z" fill="url(#paint2_linear)"/>
<path d="M20.2869 16.2192C16.1162 17.0405 16.803 21.2167 17.6093 25.1889C18.4753 29.4448 20.8543 45.5974 20.8543 45.5974L30.6042 46.2046C30.6042 46.2046 30.858 44.7512 30.4897 42.6705C29.3948 36.5181 26.7421 23.9495 25.7516 20.057C24.4576 14.9648 20.2869 16.2192 20.2869 16.2192Z" fill="url(#paint3_linear)"/>
<path d="M30.4897 42.6756C29.3947 36.5232 26.742 23.9547 25.7516 20.0621C25.0399 17.2647 23.4622 16.3837 22.1831 16.1597C25.4281 18.6485 26.8117 31.3764 28.5785 36.807C30.0666 41.3864 30.5195 43.2779 30.6439 43.8902C30.6141 43.5119 30.5693 43.1137 30.4897 42.6756Z" fill="url(#paint4_linear)"/>
<path d="M19.3462 50.107C19.3462 52.4665 20.4909 53.5267 21.0583 53.91C21.2474 54.0394 21.3768 54.0892 21.3768 54.0892L32.0375 61.8942L51.5523 57.8473L50.9551 45.3534C40.4238 43.9895 31.6194 38.8575 20.6949 37.9565C19.4955 41.9138 19.3462 47.3494 19.3462 50.107Z" fill="url(#paint5_linear)"/>
<path d="M40.13 50.4755C44.9378 49.9628 47.9887 53.9449 48.3669 56.0156L49.9396 55.4382L49.2279 47.4889L44.1365 44.1638L39.8264 37.5982L30.4299 38.768L29.111 34.5967C29.0761 34.5967 29.1458 34.5967 29.111 34.5967C29.111 34.5967 28.1604 44.9951 33.3165 46.2843C33.3116 46.2843 36.1534 50.8986 40.13 50.4755Z" fill="url(#paint6_linear)"/>
<path d="M35.4966 45.3931C32.0326 45.3931 30.3056 44.0392 29.8228 40.1815C29.34 36.3238 27.2596 29.375 33.6153 29.0017C39.7071 28.6433 39.8266 31.9982 39.8266 37.5931C39.8216 43.193 38.4778 45.3931 35.4966 45.3931Z" fill="url(#paint7_linear)"/>
<path d="M35.0387 39.4452C32.3959 40.7942 30.6142 40.8241 29.4844 38.9823C29.5093 39.1914 29.5391 39.4004 29.559 39.5946C30.0418 43.98 31.7688 45.5181 35.2328 45.5181C37.6666 45.5181 39.0103 43.8456 39.4234 39.7688C38.7416 38.5741 36.5965 38.6488 35.0387 39.4452Z" fill="url(#paint8_linear)"/>
<path d="M35.0138 41.0924C32.1719 41.0924 30.8929 39.5792 30.4151 36.4732C30.1662 34.8753 28.5537 29.3054 33.7696 29.0017C38.7714 28.713 38.7714 32.4114 38.876 35.5523C39.0203 40.067 37.4575 41.0924 35.0138 41.0924Z" fill="url(#paint9_linear)"/>
<path d="M33.426 45.1641C34.0332 45.3135 34.7151 45.3931 35.4915 45.3931C38.4727 45.3931 39.8165 43.188 39.8165 37.5981C39.8165 32.2074 39.6921 28.9072 34.2273 28.9918C36.3774 30.1317 38.1293 32.73 38.1293 37.4289C38.1343 44.1089 36.452 45.1542 33.426 45.1641Z" fill="url(#paint10_linear)"/>
<path d="M33.8689 45.3933C33.2817 45.5775 32.7442 45.3137 32.2564 45.0598C31.7637 44.796 31.3208 44.4326 30.9575 44.0095C30.2258 43.1534 29.8476 42.0832 29.6137 41.0229C29.3897 39.9527 29.3798 38.8725 29.2952 37.8073L29.1011 34.5967L29.4942 37.7874C29.6286 38.8477 29.6983 39.9278 29.9571 40.9482C30.191 41.9687 30.5742 42.9792 31.2511 43.7557C31.5845 44.1439 31.9927 44.4625 32.4456 44.7014C32.9034 44.9454 33.4011 45.015 33.8689 45.3933Z" fill="#975500"/>
<path d="M36.4819 29.2158C37.0742 29.3701 37.6515 29.619 38.1343 30.0172C38.617 30.4204 38.9555 30.968 39.1993 31.5354C39.692 32.6853 39.8264 33.9347 39.9309 35.1592C39.9857 36.3887 39.9907 37.6132 39.9658 38.8327C39.9558 39.44 39.9707 40.0523 39.9409 40.6695C39.921 40.9781 39.916 41.2867 39.8463 41.5953C39.7916 41.8641 39.6572 42.3171 39.2839 42.2922C39.5875 42.1877 39.5776 41.8343 39.6473 41.5605C39.6821 41.2668 39.7169 40.9632 39.7169 40.6645C39.7269 40.0572 39.692 39.4499 39.6771 38.8377C39.6423 37.6132 39.6572 36.3936 39.5776 35.1841C39.5129 33.9795 39.4332 32.745 38.9953 31.625C38.6071 30.4752 37.6515 29.5891 36.4819 29.2158Z" fill="#975500"/>
<path d="M40.1299 50.4754C36.1533 50.8985 33.3114 46.2842 33.3114 46.2842C29.4841 45.224 29.1058 34.5967 29.1058 34.5967C28.2498 36.1397 29.6732 44.9701 31.674 46.9612C33.8439 49.1165 36.3623 51.8741 40.6973 51.7795C45.0322 51.6849 48.3668 56.0205 48.3668 56.0205C47.9836 53.9398 44.9377 49.9627 40.1299 50.4754Z" fill="url(#paint11_linear)"/>
<path opacity="0.5" d="M19.0375 21.555C18.067 21.3459 18.4254 19.4047 19.2515 18.4341C20.0777 17.4585 21.536 16.8412 22.5065 17.0453C23.477 17.2544 23.1037 18.444 22.7852 19.4943C22.2377 21.3061 20.008 21.7641 19.0375 21.555Z" fill="url(#paint12_radial)"/>
<path opacity="0.5" d="M51.9653 7.27433C52.2788 6.32857 54.1701 6.901 55.0461 7.83183C55.922 8.75768 56.3799 10.2759 56.0714 11.2216C55.7628 12.1674 54.6131 11.6647 53.6077 11.2316C51.8657 10.4849 51.6517 8.21511 51.9653 7.27433Z" fill="url(#paint13_radial)"/>
<path d="M45.331 43.8005C42.1358 43.696 40.5829 42.3222 40.2594 38.5342C39.9359 34.7462 38.2238 27.892 44.1017 27.7128C49.7307 27.5435 49.7357 30.8288 49.5664 36.2992C49.3873 41.7746 48.0783 43.8901 45.331 43.8005Z" fill="url(#paint14_linear)"/>
<path d="M45.0922 37.8921C42.6137 39.1216 40.9713 39.0967 39.9858 37.2749C40.0057 37.479 40.0257 37.6831 40.0356 37.8722C40.3442 42.1431 41.897 43.6911 45.0872 43.7907C47.3319 43.8654 48.6209 42.2775 49.1286 38.3302C48.5363 37.1604 46.5555 37.1654 45.0922 37.8921Z" fill="url(#paint15_linear)"/>
<path d="M44.868 38.2057C42.2501 38.1211 41.2697 37.9021 40.9213 34.8707C40.7421 33.3127 39.4232 27.8522 44.2409 27.7178C48.8596 27.5883 48.7501 31.1772 48.7501 34.2286C48.7451 38.6189 47.1226 38.2754 44.868 38.2057Z" fill="url(#paint16_linear)"/>
<path d="M43.4297 43.5118C43.9871 43.676 44.6092 43.7756 45.3259 43.8005C48.0732 43.8901 49.3822 41.7746 49.5564 36.3041C49.7206 31.0328 49.7107 27.7973 44.669 27.7227C46.615 28.9024 48.1529 31.4957 48.0085 36.0901C47.8045 42.6208 46.2218 43.5914 43.4297 43.5118Z" fill="url(#paint17_linear)"/>
<path d="M43.8329 43.6362C43.2556 43.8005 42.7479 43.5118 42.295 43.238C41.8371 42.9493 41.434 42.566 41.1204 42.128C40.4883 41.247 40.1897 40.2017 40.0155 39.1713C39.8811 38.126 39.8612 37.0956 39.7816 36.0652L39.6074 32.9741L39.9757 36.0553C40.1051 37.0807 40.1798 38.116 40.3589 39.1165C40.5381 40.1121 40.8417 41.1026 41.434 41.899C41.7276 42.2972 42.0909 42.6357 42.509 42.8896C42.932 43.1584 43.4049 43.238 43.8329 43.6362Z" fill="#975500"/>
<path d="M46.7395 28.0068C47.3019 28.1761 47.8444 28.4548 48.2774 28.8779C48.7054 29.301 49.009 29.8436 49.2031 30.4111C49.6063 31.546 49.6959 32.7506 49.7506 33.9303C49.7606 35.115 49.7307 36.2947 49.666 37.4694C49.6411 38.0568 49.6312 38.6441 49.5864 39.2365C49.5565 39.5301 49.5466 39.8288 49.4719 40.1275C49.4072 40.3813 49.2828 40.8194 48.9244 40.7945C49.2181 40.6949 49.2031 40.3465 49.2778 40.0876C49.3176 39.8039 49.3574 39.5152 49.3674 39.2215C49.3923 38.6391 49.3773 38.0518 49.3873 37.4594C49.3923 36.2797 49.442 35.105 49.4072 33.9352C49.3873 32.7705 49.3525 31.5858 49.0041 30.4807C48.6905 29.3558 47.8544 28.415 46.7395 28.0068Z" fill="#975500"/>
<path d="M33.3116 43.1678C33.3116 40.5993 35.1083 40.5147 39.9111 40.0866C43.3452 39.778 47.0829 38.8671 51.8409 40.7288C57.2708 42.8542 62.3772 45.9304 62.437 51.4557C62.4917 56.3985 58.6943 73.9996 42.0661 73.9996C25.438 73.9996 19.8538 65.0099 19.3462 50.1067L48.362 56.0152C48.362 56.0152 48.9792 50.7638 45.4256 49.2058C43.9076 48.5437 40.6676 49.0763 38.5076 49.0763C36.3575 49.0763 33.3116 46.6373 33.3116 43.1678Z" fill="url(#paint18_linear)"/>
<path d="M53.9365 62.8548C46.894 68.0564 47.4663 70.9485 40.8967 70.9485C34.327 70.9485 30.0916 67.4342 27.0954 64.3978C24.0993 61.3615 21.5759 56.3042 20.3367 52.4514C20.043 51.5405 19.7046 50.7839 19.3562 50.1368C19.8688 65.0201 25.458 73.9998 42.0762 73.9998C58.7044 73.9998 62.5069 56.3987 62.4471 51.4559C62.4223 49.2906 61.616 47.5086 60.3319 46.0054C60.6903 53.0687 59.7197 58.579 53.9365 62.8548Z" fill="url(#paint19_linear)"/>
<path d="M50.0641 50.8733C49.9396 47.7921 46.192 44.7059 43.0814 45.0295C40.3938 45.3082 35.5363 45.6766 33.3613 43.6606C33.64 46.8563 36.462 49.0763 38.5125 49.0763C40.6725 49.0763 43.9125 48.5388 45.4305 49.2058C48.9841 50.7638 48.3669 56.0152 48.3669 56.0152C48.3669 56.0152 50.1885 53.9594 50.0641 50.8733Z" fill="url(#paint20_linear)"/>
<path d="M62.4369 51.4556C62.3722 45.9304 57.2708 42.8542 51.8409 40.7287C47.0829 38.8671 43.3452 39.778 39.9111 40.0866C36.2481 40.4152 34.3419 40.5496 33.6401 41.7293C38.1592 40.5993 42.3896 40.1364 47.6055 40.7437C54.4041 41.5302 59.5403 45.7711 60.476 49.0115C61.3967 52.2171 61.2623 58.1853 61.2623 58.3247C62.1333 55.4576 62.4568 52.9041 62.4369 51.4556Z" fill="url(#paint21_linear)"/>
<path d="M48.367 56.0152C48.4516 54.7758 48.3521 53.5115 47.9639 52.3318C47.5956 51.162 46.8639 50.047 45.769 49.4895C44.7039 48.8673 43.385 48.9768 42.1657 49.0017C40.9214 49.0515 39.6871 49.2008 38.423 49.1909C35.825 48.9619 33.7396 46.7319 33.2668 44.2431C33.1473 43.6159 33.1175 42.9738 33.2369 42.3267C33.3514 41.6746 33.8342 41.0723 34.4414 40.8135C35.6408 40.2809 36.9149 40.2212 38.1492 40.0718C40.6377 39.9175 43.0914 39.4646 45.6097 39.4496C48.1231 39.4098 50.6315 40.0071 52.911 41.0375C55.2004 42.0231 57.46 43.1829 59.3313 44.8703C61.2027 46.5278 62.4818 48.937 62.4419 51.4607C62.422 48.937 61.0982 46.5926 59.2169 44.9997C57.3555 43.3571 55.1059 42.2172 52.8214 41.2565C50.5469 40.251 48.0933 39.6886 45.6147 39.7483C43.1461 39.7831 40.6676 40.256 38.1841 40.4302C36.9597 40.5646 35.6806 40.6293 34.5857 41.1122C34.0432 41.3511 33.66 41.824 33.5405 42.4014C33.431 42.9788 33.446 43.606 33.5555 44.1983C33.9735 46.5627 35.9992 48.7379 38.4329 48.9619C39.6622 48.9768 40.9115 48.8424 42.1607 48.7976C43.385 48.7877 44.7288 48.6682 45.8536 49.3402C46.9834 49.9524 47.7001 51.1222 48.0485 52.3069C48.4118 53.5015 48.4815 54.7758 48.367 56.0152Z" fill="#975500"/>
<path opacity="0.5" d="M22.412 50.6143C20.8841 52.476 25.5276 63.1879 30.1115 65.8858C34.6903 68.5837 40.4338 67.7574 41.5536 65.6121C42.6734 63.4667 37.9104 60.1366 34.0134 56.4432C27.2895 50.0718 23.94 48.7527 22.412 50.6143Z" fill="url(#paint22_radial)"/>
<path opacity="0.5" d="M59.7494 51.9834C60.5606 50.8784 56.5044 44.0191 53.2644 42.1674C50.0243 40.3157 43.6488 41.4157 43.1262 42.7149C42.6086 44.0141 48.7552 45.4775 51.6419 47.9216C56.6338 52.1427 58.9381 53.0885 59.7494 51.9834Z" fill="url(#paint23_radial)"/>
<path d="M21.9093 56.4587C18.9132 51.1824 21.4465 42.0683 20.8841 40.2813C20.3217 38.4943 20.5058 31.7247 19.0027 25.6121C18.087 21.8988 17.7635 19.2855 18.4254 17.0107C16.3749 18.5986 16.9522 21.9635 17.6092 25.194C18.1616 27.9019 19.3213 35.4082 20.0977 40.5252C19.4507 44.0245 19.3511 47.912 19.3511 50.1072C19.809 63.522 24.4077 72.1234 37.4475 73.7113C29.4445 72.3324 24.7163 61.4015 21.9093 56.4587Z" fill="url(#paint24_linear)"/>
<path d="M40.4387 73.9401C40.0704 73.8854 39.6424 73.8505 39.1198 73.8505C38.6072 73.8505 38.1145 73.8007 37.6267 73.7261C38.5275 73.8306 39.4632 73.9053 40.4387 73.9401Z" fill="url(#paint25_linear)"/>
<defs>
<linearGradient id="paint0_linear" x1="54.215" y1="59.2946" x2="54.215" y2="29.6664" gradientUnits="userSpaceOnUse">
<stop offset="0.00132565" stop-color="#D2A374"/>
<stop offset="1" stop-color="#DEBA94"/>
</linearGradient>
<linearGradient id="paint1_linear" x1="58.7154" y1="7.14898" x2="54.4651" y2="100.055" gradientUnits="userSpaceOnUse">
<stop stop-color="#D2A374" stop-opacity="0"/>
<stop offset="1" stop-color="#B88653"/>
</linearGradient>
<linearGradient id="paint2_linear" x1="49.7501" y1="9.80988" x2="49.1598" y2="102.48" gradientUnits="userSpaceOnUse">
<stop stop-color="#D2A374" stop-opacity="0"/>
<stop offset="1" stop-color="#B88653"/>
</linearGradient>
<linearGradient id="paint3_linear" x1="6.95736" y1="41.3528" x2="53.23" y2="15.623" gradientUnits="userSpaceOnUse">
<stop offset="0.00132565" stop-color="#D2A374"/>
<stop offset="1" stop-color="#DEBA94"/>
</linearGradient>
<linearGradient id="paint4_linear" x1="23.261" y1="14.8651" x2="34.861" y2="66.6591" gradientUnits="userSpaceOnUse">
<stop stop-color="#D2A374" stop-opacity="0"/>
<stop offset="1" stop-color="#B88653"/>
</linearGradient>
<linearGradient id="paint5_linear" x1="16.627" y1="58.7428" x2="62.8997" y2="33.0131" gradientUnits="userSpaceOnUse">
<stop offset="0.00132565" stop-color="#D2A374"/>
<stop offset="1" stop-color="#DEBA94"/>
</linearGradient>
<linearGradient id="paint6_linear" x1="36.6037" y1="69.7099" x2="41.0427" y2="32.0808" gradientUnits="userSpaceOnUse">
<stop stop-color="#A1541E" stop-opacity="0"/>
<stop offset="1" stop-color="#C86F34"/>
</linearGradient>
<linearGradient id="paint7_linear" x1="34.4656" y1="36.7514" x2="34.4656" y2="52.4513" gradientUnits="userSpaceOnUse">
<stop offset="0.00132565" stop-color="#D2A374"/>
<stop offset="1" stop-color="#DEBA94"/>
</linearGradient>
<linearGradient id="paint8_linear" x1="34.4535" y1="35.2402" x2="34.4535" y2="58.8931" gradientUnits="userSpaceOnUse">
<stop stop-color="#D2A374" stop-opacity="0"/>
<stop offset="1" stop-color="#B88653"/>
</linearGradient>
<linearGradient id="paint9_linear" x1="34.4317" y1="40.4166" x2="34.4317" y2="26.7142" gradientUnits="userSpaceOnUse">
<stop offset="0.00132565" stop-color="#D2A374"/>
<stop offset="1" stop-color="#DEBA94"/>
</linearGradient>
<linearGradient id="paint10_linear" x1="28.2983" y1="33.3042" x2="68.5492" y2="56.1672" gradientUnits="userSpaceOnUse">
<stop stop-color="#D2A374" stop-opacity="0"/>
<stop offset="1" stop-color="#B88653"/>
</linearGradient>
<linearGradient id="paint11_linear" x1="31.9763" y1="65.9023" x2="51.3967" y2="6.64778" gradientUnits="userSpaceOnUse">
<stop stop-color="#D2A374" stop-opacity="0"/>
<stop offset="1" stop-color="#B88653"/>
</linearGradient>
<radialGradient id="paint12_radial" cx="0" cy="0" r="1" gradientUnits="userSpaceOnUse" gradientTransform="translate(20.8417 19.3498) rotate(130.278) scale(2.89676 1.53358)">
<stop stop-color="#E9CDB1"/>
<stop offset="1" stop-color="#E9CDB1" stop-opacity="0"/>
</radialGradient>
<radialGradient id="paint13_radial" cx="0" cy="0" r="1" gradientUnits="userSpaceOnUse" gradientTransform="translate(54.0111 9.34183) rotate(-133.441) scale(2.89712 1.53366)">
<stop stop-color="#E9CDB1"/>
<stop offset="1" stop-color="#E9CDB1" stop-opacity="0"/>
</radialGradient>
<linearGradient id="paint14_linear" x1="44.6522" y1="35.3185" x2="44.1636" y2="50.6735" gradientUnits="userSpaceOnUse">
<stop offset="0.00132565" stop-color="#D2A374"/>
<stop offset="1" stop-color="#DEBA94"/>
</linearGradient>
<linearGradient id="paint15_linear" x1="44.6908" y1="33.7977" x2="43.9601" y2="56.7637" gradientUnits="userSpaceOnUse">
<stop stop-color="#D2A374" stop-opacity="0"/>
<stop offset="1" stop-color="#B88653"/>
</linearGradient>
<linearGradient id="paint16_linear" x1="44.5468" y1="37.6166" x2="44.9242" y2="25.7561" gradientUnits="userSpaceOnUse">
<stop offset="0.00132565" stop-color="#D2A374"/>
<stop offset="1" stop-color="#DEBA94"/>
</linearGradient>
<linearGradient id="paint17_linear" x1="38.7698" y1="31.8142" x2="76.6709" y2="54.9651" gradientUnits="userSpaceOnUse">
<stop stop-color="#D2A374" stop-opacity="0"/>
<stop offset="1" stop-color="#B88653"/>
</linearGradient>
<linearGradient id="paint18_linear" x1="21.8178" y1="68.0776" x2="68.0904" y2="42.3479" gradientUnits="userSpaceOnUse">
<stop offset="0.00132565" stop-color="#D2A374"/>
<stop offset="1" stop-color="#DEBA94"/>
</linearGradient>
<linearGradient id="paint19_linear" x1="40.8949" y1="40.3086" x2="40.8949" y2="130.631" gradientUnits="userSpaceOnUse">
<stop stop-color="#D2A374" stop-opacity="0"/>
<stop offset="1" stop-color="#B88653"/>
</linearGradient>
<linearGradient id="paint20_linear" x1="35.7344" y1="58.0766" x2="46.8318" y2="40.3704" gradientUnits="userSpaceOnUse">
<stop stop-color="#D2A374" stop-opacity="0"/>
<stop offset="1" stop-color="#B88653"/>
</linearGradient>
<linearGradient id="paint21_linear" x1="43.9659" y1="32.0605" x2="53.293" y2="64.0514" gradientUnits="userSpaceOnUse">
<stop offset="0.3118" stop-color="#F0C492" stop-opacity="0"/>
<stop offset="1" stop-color="#E6AF74"/>
</linearGradient>
<radialGradient id="paint22_radial" cx="0" cy="0" r="1" gradientUnits="userSpaceOnUse" gradientTransform="translate(31.4965 59.8508) rotate(-138.626) scale(13.4097 6.12828)">
<stop stop-color="#E9CDB1"/>
<stop offset="1" stop-color="#E9CDB1" stop-opacity="0"/>
</radialGradient>
<radialGradient id="paint23_radial" cx="0" cy="0" r="1" gradientUnits="userSpaceOnUse" gradientTransform="translate(51.9457 45.3189) rotate(38.551) scale(10.3341 3.8155)">
<stop stop-color="#E9CDB1"/>
<stop offset="1" stop-color="#E9CDB1" stop-opacity="0"/>
</radialGradient>
<linearGradient id="paint24_linear" x1="24.0246" y1="51.9226" x2="-8.20541" y2="108.052" gradientUnits="userSpaceOnUse">
<stop stop-color="#D2A374" stop-opacity="0"/>
<stop offset="1" stop-color="#B88653"/>
</linearGradient>
<linearGradient id="paint25_linear" x1="54.6622" y1="13.0516" x2="12.2452" y2="177.991" gradientUnits="userSpaceOnUse">
<stop stop-color="#FFBC47" stop-opacity="0"/>
<stop offset="1" stop-color="#C86F34"/>
</linearGradient>
</defs>
</svg>
