<svg width="80" height="80" viewBox="0 0 80 80" fill="none" xmlns="http://www.w3.org/2000/svg">
<path d="M48.5801 34.8803C48.6 34.492 48.6199 34.0739 48.6348 33.6259C48.9136 26.2988 48.8738 11.5302 49.2073 9.58889C49.5607 7.52815 50.6906 6.00498 53.6523 6.00001C56.614 5.99503 58.0575 8.77256 57.7091 12.5158C57.3606 16.2589 58.1123 30.2411 58.3363 34.95C58.6847 42.2422 59.8644 53.5465 59.8644 53.5465L48.8837 46.0352L48.5801 34.8803Z" fill="url(#paint0_linear)"/>
<path d="M58.3314 34.9498C58.1074 30.241 57.3558 16.2588 57.7043 12.5156C57.9283 10.0815 57.3857 8.07554 56.1711 6.95557C57.2065 10.2109 56.7834 15.0442 57.087 27.8716C57.4653 43.8598 58.7794 49.2158 58.7794 49.2158L59.3817 48.6433C59.0134 44.706 58.5305 39.1609 58.3314 34.9498Z" fill="url(#paint1_linear)"/>
<path d="M50.2228 22.5107C50.0137 14.9696 49.7549 9.76793 50.7902 6.77637C49.8793 7.41848 49.4065 8.41401 49.2024 9.59371C48.8689 11.535 48.9137 26.2987 48.63 33.6308C48.615 34.0788 48.5951 34.4969 48.5752 34.8851L48.6797 38.7876L49.4662 40.0967C49.4712 40.0918 50.5065 32.6651 50.2228 22.5107Z" fill="url(#paint2_linear)"/>
<path d="M20.2873 16.2192C16.1161 17.0405 16.803 21.2167 17.6093 25.1889C18.4755 29.4448 20.8548 45.5972 20.8548 45.5972L30.606 46.2045C30.606 46.2045 30.8598 44.751 30.4915 42.6704C29.3964 36.518 26.7433 23.9495 25.7528 20.0569C24.4586 14.9648 20.2873 16.2192 20.2873 16.2192Z" fill="url(#paint3_linear)"/>
<path d="M30.4915 42.6751C29.3964 36.5227 26.7434 23.9542 25.7528 20.0616C25.041 17.2642 23.4631 16.3832 22.1838 16.1592C25.4293 18.648 26.813 31.3758 28.5801 36.8065C30.0684 41.3859 30.5214 43.2774 30.6458 43.8896C30.616 43.5113 30.5712 43.1131 30.4915 42.6751Z" fill="url(#paint4_linear)"/>
<path d="M19.3464 50.1065C19.3464 52.4659 20.4913 53.5261 21.0587 53.9094C21.2479 54.0388 21.3773 54.0886 21.3773 54.0886L32.0394 61.8936L51.5568 57.8467L50.9595 45.3528C40.4268 43.989 31.6213 38.857 20.6954 37.9561C19.4958 41.9133 19.3464 47.3489 19.3464 50.1065Z" fill="url(#paint5_linear)"/>
<path d="M40.1332 50.4754C44.9416 49.9627 47.9929 53.9448 48.3712 56.0155L49.9441 55.4381L49.2323 47.4888L44.1402 44.1637L39.8296 37.5982L30.4318 38.7679L29.1127 34.5967C29.0779 34.5967 29.1475 34.5967 29.1127 34.5967C29.1127 34.5967 28.162 44.995 33.3188 46.2842C33.3138 46.2842 36.1561 50.8985 40.1332 50.4754Z" fill="url(#paint6_linear)"/>
<path d="M35.4991 45.393C32.0347 45.393 30.3074 44.0391 29.8246 40.1814C29.3418 36.3238 27.2611 29.375 33.6176 29.0017C39.7102 28.6433 39.8297 32.0032 39.8297 37.5931C39.8247 43.1929 38.4807 45.393 35.4991 45.393Z" fill="url(#paint7_linear)"/>
<path d="M35.0409 39.4447C32.3978 40.7937 30.6158 40.8235 29.4858 38.9818C29.5107 39.1909 29.5406 39.3999 29.5605 39.5941C30.0433 43.9794 31.7706 45.5175 35.235 45.5175C37.6691 45.5175 39.013 43.845 39.4262 39.7683C38.7443 38.5737 36.5989 38.6483 35.0409 39.4447Z" fill="url(#paint8_linear)"/>
<path d="M35.0162 41.0924C32.1739 41.0924 30.8947 39.5792 30.4168 36.4732C30.1679 34.8754 28.5552 29.3054 33.7718 29.0017C38.7743 28.713 38.7743 32.4114 38.8788 35.5523C39.0232 40.067 37.4602 41.0924 35.0162 41.0924Z" fill="url(#paint9_linear)"/>
<path d="M33.4282 45.1642C34.0355 45.3135 34.7174 45.3932 35.4939 45.3932C38.4756 45.3932 39.8195 43.1881 39.8195 37.5982C39.8195 32.2074 39.6951 28.9072 34.2296 28.9918C36.38 30.1317 38.1321 32.73 38.1321 37.4289C38.1371 44.1089 36.4546 45.1542 33.4282 45.1642Z" fill="url(#paint10_linear)"/>
<path d="M33.8711 45.3932C33.2838 45.5774 32.7462 45.3135 32.2584 45.0597C31.7656 44.7959 31.3226 44.4325 30.9592 44.0094C30.2275 43.1532 29.8492 42.083 29.6152 41.0228C29.3912 39.9526 29.3813 38.8725 29.2967 37.8073L29.1025 34.5967L29.4908 37.7874C29.6252 38.8476 29.6949 39.9277 29.9537 40.9481C30.1877 41.9686 30.5709 42.979 31.2479 43.7556C31.5814 44.1438 31.9896 44.4624 32.4425 44.7013C32.9055 44.9452 33.4032 45.0149 33.8711 45.3932Z" fill="#975500"/>
<path d="M36.4844 29.2158C37.0767 29.3701 37.6541 29.619 38.137 30.0172C38.6198 30.4204 38.9583 30.9679 39.2022 31.5354C39.695 32.6852 39.8294 33.9346 39.9339 35.1591C39.9887 36.3886 39.9936 37.6131 39.9687 38.8326C39.9588 39.4399 39.9737 40.0522 39.9438 40.6694C39.9239 40.978 39.919 41.2866 39.8493 41.5952C39.7945 41.864 39.6601 42.317 39.2868 42.2921C39.5904 42.1875 39.5805 41.8342 39.6502 41.5604C39.685 41.2667 39.7198 40.968 39.7198 40.6644C39.7298 40.0571 39.695 39.4498 39.68 38.8376C39.6452 37.6131 39.6601 36.3936 39.5805 35.184C39.5158 33.9794 39.4361 32.745 38.9981 31.625C38.6098 30.4752 37.6541 29.5891 36.4844 29.2158Z" fill="#975500"/>
<path d="M40.1333 50.4754C36.1562 50.8985 33.3139 46.2842 33.3139 46.2842C29.4861 45.224 29.1078 34.5967 29.1078 34.5967C28.2516 36.1397 29.6753 44.9701 31.6763 46.9612C33.8465 49.1165 36.3652 51.8741 40.7007 51.7795C45.0363 51.6849 48.3713 56.0205 48.3713 56.0205C47.988 53.9398 44.9417 49.9627 40.1333 50.4754Z" fill="url(#paint11_linear)"/>
<path opacity="0.5" d="M19.0379 21.5551C18.0672 21.346 18.4256 19.4047 19.2519 18.4341C20.0782 17.4585 21.5366 16.8412 22.5073 17.0453C23.4779 17.2544 23.1046 18.444 22.786 19.4943C22.2385 21.3062 20.0085 21.7641 19.0379 21.5551Z" fill="url(#paint12_radial)"/>
<path opacity="0.5" d="M51.9699 7.27432C52.2835 6.32857 54.175 6.901 55.0511 7.83182C55.9271 8.75766 56.3851 10.2758 56.0765 11.2216C55.7629 12.1674 54.618 11.6646 53.6125 11.2316C51.8704 10.4849 51.6563 8.2151 51.9699 7.27432Z" fill="url(#paint13_radial)"/>
<path d="M45.3349 43.8005C42.1392 43.696 40.5862 42.3222 40.2626 38.5342C39.9391 34.7462 38.2268 27.892 44.1054 27.7128C49.7351 27.5435 49.7401 30.8288 49.5708 36.2992C49.3916 41.7746 48.0825 43.8901 45.3349 43.8005Z" fill="url(#paint14_linear)"/>
<path d="M45.0961 37.8921C42.6172 39.1216 40.9746 39.0967 39.989 37.2749C40.0089 37.479 40.0288 37.6831 40.0388 37.8722C40.3474 42.143 41.9004 43.6911 45.0911 43.7906C47.336 43.8653 48.6252 42.2774 49.133 38.3302C48.5406 37.1604 46.5595 37.1654 45.0961 37.8921Z" fill="url(#paint15_linear)"/>
<path d="M44.872 38.2057C42.2538 38.121 41.2732 37.902 40.9248 34.8706C40.7456 33.3126 39.4265 27.8522 44.2448 27.7178C48.8641 27.5883 48.7546 31.1772 48.7546 34.2285C48.7496 38.6188 47.1269 38.2753 44.872 38.2057Z" fill="url(#paint16_linear)"/>
<path d="M43.4333 43.5117C43.9908 43.676 44.6131 43.7756 45.3298 43.8004C48.0775 43.89 49.3866 41.7745 49.5608 36.3041C49.7251 31.0328 49.7151 27.7973 44.6728 27.7227C46.619 28.9024 48.1571 31.4957 48.0128 36.0901C47.8087 42.6207 46.2258 43.5914 43.4333 43.5117Z" fill="url(#paint17_linear)"/>
<path d="M43.8366 43.6363C43.2592 43.8006 42.7515 43.5119 42.2985 43.2381C41.8406 42.9494 41.4374 42.5661 41.1238 42.1281C40.4916 41.2471 40.193 40.2018 40.0187 39.1714C39.8844 38.1261 39.8645 37.0957 39.7848 36.0653L39.6106 32.9692L39.9789 36.0504C40.1084 37.0758 40.183 38.1111 40.3622 39.1116C40.5414 40.1072 40.845 41.0977 41.4374 41.8941C41.7311 42.2924 42.0944 42.6309 42.5126 42.8847C42.9357 43.1585 43.4085 43.2381 43.8366 43.6363Z" fill="#975500"/>
<path d="M46.7437 28.0068C47.3061 28.1761 47.8487 28.4548 48.2817 28.8729C48.7098 29.296 49.0135 29.8386 49.2076 30.4061C49.6108 31.541 49.7004 32.7455 49.7551 33.9253C49.7651 35.1099 49.7352 36.2896 49.6705 37.4644C49.6456 38.0467 49.6357 38.6391 49.5909 39.2314C49.561 39.5251 49.551 39.8287 49.4764 40.1224C49.4117 40.3763 49.2872 40.8143 48.9288 40.7894C49.2225 40.6899 49.2076 40.3414 49.2823 40.0826C49.3221 39.7989 49.3619 39.5102 49.3718 39.2215C49.3967 38.6391 49.3818 38.0517 49.3918 37.4594C49.3967 36.2797 49.4465 35.1049 49.4117 33.9352C49.3918 32.7704 49.3569 31.5858 49.0085 30.4807C48.6949 29.3558 47.8586 28.415 46.7437 28.0068Z" fill="#975500"/>
<path d="M33.3137 43.1683C33.3137 40.5998 35.1106 40.5152 39.914 40.0871C43.3486 39.7785 47.0868 38.8676 51.8455 40.7292C57.2761 42.8547 62.3831 45.9309 62.4429 51.4561C62.4976 56.3989 58.6997 73.9998 42.0694 73.9998C25.4391 73.9998 19.8542 65.0102 19.3464 50.1071L48.3661 56.0156C48.3661 56.0156 48.9833 50.7642 45.4293 49.2062C43.9111 48.5442 40.6707 49.0768 38.5104 49.0768C36.36 49.0768 33.3137 46.6377 33.3137 43.1683Z" fill="url(#paint18_linear)"/>
<path d="M53.9411 62.8552C46.8978 68.0568 47.4702 70.9488 40.8997 70.9488C34.3292 70.9488 30.0932 67.4346 27.0967 64.3983C24.1001 61.3619 21.5765 56.3046 20.337 52.4519C20.0434 51.541 19.7049 50.7844 19.3564 50.1373C19.8691 65.0205 25.459 74.0001 42.0794 74.0001C58.7097 74.0001 62.5126 56.3992 62.4529 51.4564C62.428 49.2911 61.6216 47.5091 60.3374 46.0059C60.6958 53.0691 59.7251 58.5794 53.9411 62.8552Z" fill="url(#paint19_linear)"/>
<path d="M50.0685 50.8738C49.9441 47.7926 46.1959 44.7064 43.0849 45.03C40.3969 45.3087 35.5388 45.6771 33.3635 43.6611C33.6423 46.8568 36.4646 49.0768 38.5154 49.0768C40.6757 49.0768 43.9161 48.5392 45.4343 49.2062C48.9884 50.7643 48.3711 56.0157 48.3711 56.0157C48.3711 56.0157 50.1929 53.9599 50.0685 50.8738Z" fill="url(#paint20_radial)"/>
<path d="M62.443 51.4561C62.3783 45.9309 57.2762 42.8547 51.8456 40.7292C47.087 38.8676 43.3487 39.7785 39.9142 40.0871C36.2506 40.4157 34.3442 40.55 33.6423 41.7297C38.162 40.5998 42.393 40.1419 47.6096 40.7442C54.4091 41.5307 59.546 45.7716 60.4818 49.012C61.4027 52.2176 61.2683 58.1858 61.2683 58.3252C62.1393 55.4581 62.4629 52.9095 62.443 51.4561Z" fill="url(#paint21_linear)"/>
<path d="M48.3712 56.0157C48.4558 54.7763 48.3562 53.512 47.968 52.3323C47.5996 51.1625 46.8679 50.0475 45.7728 49.49C44.7076 48.8678 43.3886 48.9773 42.169 49.0022C40.9246 49.052 39.6902 49.2013 38.4258 49.1914C35.8275 48.9624 33.7419 46.7324 33.269 44.2436C33.1495 43.6164 33.1197 42.9743 33.2391 42.3272C33.3536 41.6751 33.8364 41.0728 34.4437 40.814C35.6433 40.2814 36.9176 40.2217 38.1521 40.0723C40.6409 39.918 43.0949 39.465 45.6136 39.4501C48.1273 39.4103 50.636 40.0076 52.9158 41.038C55.2055 42.0236 57.4653 43.1834 59.3369 44.8708C61.2085 46.5283 62.4878 48.9375 62.448 51.4612C62.428 48.9375 61.104 46.593 59.2225 45.0002C57.3608 43.3576 55.1109 42.2177 52.8262 41.257C50.5514 40.2515 48.0974 39.689 45.6185 39.7488C43.1496 39.7836 40.6708 40.2565 38.1869 40.4307C36.9624 40.5651 35.6832 40.6298 34.5881 41.1127C34.0455 41.3516 33.6622 41.8245 33.5428 42.4019C33.4333 42.9793 33.4482 43.6065 33.5577 44.1988C33.9758 46.5632 36.0017 48.7434 38.4358 48.9624C39.6653 48.9773 40.9147 48.8429 42.1641 48.8031C43.3886 48.7932 44.7325 48.6737 45.8575 49.3457C46.9874 49.9579 47.7042 51.1277 48.0526 52.3124C48.416 53.507 48.4857 54.7763 48.3712 56.0157Z" fill="#975500"/>
<path opacity="0.5" d="M22.4128 50.6148C20.8847 52.4765 25.5288 63.1884 30.1132 65.8862C34.6927 68.5841 40.4369 67.7578 41.5568 65.6125C42.6768 63.4671 37.9132 60.1371 34.0157 56.4437C27.2909 50.0723 23.9409 48.7532 22.4128 50.6148Z" fill="url(#paint22_radial)"/>
<path opacity="0.5" d="M59.755 51.9838C60.5663 50.8787 56.5096 44.0195 53.2691 42.1679C50.0287 40.3162 43.6523 41.4162 43.1296 42.7154C42.612 44.0146 48.7594 45.478 51.6464 47.922C56.639 52.1431 58.9436 53.0888 59.755 51.9838Z" fill="url(#paint23_radial)"/>
<path d="M21.91 56.4586C18.9134 51.1823 21.447 42.0682 20.8846 40.2812C20.3221 38.4943 20.5063 31.7247 19.003 25.6121C18.0871 21.8988 17.7636 19.2855 18.4256 17.0107C16.3748 18.5986 16.9522 21.9635 17.6093 25.194C18.1618 27.9018 19.3216 35.4081 20.0981 40.5251C19.451 44.0244 19.3514 47.912 19.3514 50.1071C19.8094 63.5218 24.4087 72.1232 37.4502 73.7111C29.4461 72.3323 24.7174 61.4014 21.91 56.4586Z" fill="url(#paint24_linear)"/>
<path d="M40.4418 73.9401C40.0734 73.8854 39.6453 73.8505 39.1227 73.8505C38.61 73.8505 38.1172 73.8007 37.6294 73.7261C38.5303 73.8306 39.4661 73.9053 40.4418 73.9401Z" fill="url(#paint25_linear)"/>
<defs>
<linearGradient id="paint0_linear" x1="54.2199" y1="59.2945" x2="54.2199" y2="29.6663" gradientUnits="userSpaceOnUse">
<stop offset="0.00132565" stop-color="#F0C492"/>
<stop offset="1" stop-color="#F8DBBA"/>
</linearGradient>
<linearGradient id="paint1_linear" x1="58.7209" y1="7.14899" x2="54.4711" y2="100.055" gradientUnits="userSpaceOnUse">
<stop stop-color="#FFBC47" stop-opacity="0"/>
<stop offset="1" stop-color="#C86F34"/>
</linearGradient>
<linearGradient id="paint2_linear" x1="49.7544" y1="9.8099" x2="49.1641" y2="102.479" gradientUnits="userSpaceOnUse">
<stop stop-color="#FFBC47" stop-opacity="0"/>
<stop offset="1" stop-color="#C86F34"/>
</linearGradient>
<linearGradient id="paint3_linear" x1="22.8872" y1="39.1469" x2="25.2381" y2="23.725" gradientUnits="userSpaceOnUse">
<stop offset="0.00132565" stop-color="#F0C492"/>
<stop offset="1" stop-color="#F8DBBA"/>
</linearGradient>
<linearGradient id="paint4_linear" x1="23.2619" y1="14.8647" x2="34.8604" y2="66.6592" gradientUnits="userSpaceOnUse">
<stop stop-color="#FFBC47" stop-opacity="0"/>
<stop offset="1" stop-color="#C86F34"/>
</linearGradient>
<linearGradient id="paint5_linear" x1="20.5656" y1="49.9205" x2="60.668" y2="49.9205" gradientUnits="userSpaceOnUse">
<stop offset="0.00132565" stop-color="#F0C492"/>
<stop offset="1" stop-color="#F8DBBA"/>
</linearGradient>
<linearGradient id="paint6_linear" x1="36.6064" y1="69.7097" x2="41.0447" y2="32.0807" gradientUnits="userSpaceOnUse">
<stop stop-color="#A1541E" stop-opacity="0"/>
<stop offset="1" stop-color="#C86F34"/>
</linearGradient>
<linearGradient id="paint7_linear" x1="34.468" y1="36.7514" x2="34.468" y2="52.4512" gradientUnits="userSpaceOnUse">
<stop offset="0.00132565" stop-color="#F0C492"/>
<stop offset="1" stop-color="#F8DBBA"/>
</linearGradient>
<linearGradient id="paint8_linear" x1="34.4557" y1="35.2398" x2="34.4557" y2="58.8923" gradientUnits="userSpaceOnUse">
<stop stop-color="#FFBC47" stop-opacity="0"/>
<stop offset="1" stop-color="#C86F34"/>
</linearGradient>
<linearGradient id="paint9_linear" x1="34.434" y1="40.4167" x2="34.434" y2="26.7143" gradientUnits="userSpaceOnUse">
<stop offset="0.00132565" stop-color="#F0C492"/>
<stop offset="1" stop-color="#F8DBBA"/>
</linearGradient>
<linearGradient id="paint10_linear" x1="28.2998" y1="33.3042" x2="68.5535" y2="56.1716" gradientUnits="userSpaceOnUse">
<stop stop-color="#FFBC47" stop-opacity="0"/>
<stop offset="1" stop-color="#C86F34"/>
</linearGradient>
<linearGradient id="paint11_linear" x1="31.9787" y1="65.9024" x2="51.397" y2="6.64631" gradientUnits="userSpaceOnUse">
<stop stop-color="#FFBC47" stop-opacity="0"/>
<stop offset="1" stop-color="#C86F34"/>
</linearGradient>
<radialGradient id="paint12_radial" cx="0" cy="0" r="1" gradientUnits="userSpaceOnUse" gradientTransform="translate(20.8845 19.3386) rotate(130.273) scale(2.8969 1.53353)">
<stop stop-color="#F8E6D2"/>
<stop offset="1" stop-color="#F8E6D2" stop-opacity="0"/>
</radialGradient>
<radialGradient id="paint13_radial" cx="0" cy="0" r="1" gradientUnits="userSpaceOnUse" gradientTransform="translate(53.977 9.28864) rotate(-133.437) scale(2.89761 1.53387)">
<stop stop-color="#F8E6D2"/>
<stop offset="1" stop-color="#F8E6D2" stop-opacity="0"/>
</radialGradient>
<linearGradient id="paint14_linear" x1="44.6559" y1="35.3184" x2="44.1674" y2="50.6735" gradientUnits="userSpaceOnUse">
<stop offset="0.00132565" stop-color="#F0C492"/>
<stop offset="1" stop-color="#F8DBBA"/>
</linearGradient>
<linearGradient id="paint15_linear" x1="44.6945" y1="33.7977" x2="43.9639" y2="56.7635" gradientUnits="userSpaceOnUse">
<stop stop-color="#FFBC47" stop-opacity="0"/>
<stop offset="1" stop-color="#C86F34"/>
</linearGradient>
<linearGradient id="paint16_linear" x1="44.5507" y1="37.6165" x2="44.928" y2="25.756" gradientUnits="userSpaceOnUse">
<stop offset="0.00132565" stop-color="#F0C492"/>
<stop offset="1" stop-color="#F8DBBA"/>
</linearGradient>
<linearGradient id="paint17_linear" x1="38.7728" y1="31.8141" x2="76.676" y2="54.9693" gradientUnits="userSpaceOnUse">
<stop stop-color="#FFBC47" stop-opacity="0"/>
<stop offset="1" stop-color="#C86F34"/>
</linearGradient>
<linearGradient id="paint18_linear" x1="20.4406" y1="56.7933" x2="60.7048" y2="56.7933" gradientUnits="userSpaceOnUse">
<stop offset="0.00132565" stop-color="#F0C492"/>
<stop offset="1" stop-color="#F8DBBA"/>
</linearGradient>
<linearGradient id="paint19_linear" x1="40.8979" y1="40.3092" x2="40.8979" y2="130.632" gradientUnits="userSpaceOnUse">
<stop stop-color="#FFBC47" stop-opacity="0"/>
<stop offset="1" stop-color="#C86F34"/>
</linearGradient>
<radialGradient id="paint20_radial" cx="0" cy="0" r="1" gradientUnits="userSpaceOnUse" gradientTransform="translate(45.6552 40.9827) scale(47.0361 20.3859)">
<stop stop-color="#FFBC47" stop-opacity="0"/>
<stop offset="1" stop-color="#FFA754"/>
</radialGradient>
<linearGradient id="paint21_linear" x1="43.9695" y1="32.061" x2="53.2955" y2="64.0526" gradientUnits="userSpaceOnUse">
<stop offset="0.3118" stop-color="#F0C492" stop-opacity="0"/>
<stop offset="1" stop-color="#E6AF74"/>
</linearGradient>
<radialGradient id="paint22_radial" cx="0" cy="0" r="1" gradientUnits="userSpaceOnUse" gradientTransform="translate(31.4632 59.8355) rotate(-138.629) scale(13.4114 6.12885)">
<stop stop-color="#F8E6D2"/>
<stop offset="1" stop-color="#F8E6D2" stop-opacity="0"/>
</radialGradient>
<radialGradient id="paint23_radial" cx="0" cy="0" r="1" gradientUnits="userSpaceOnUse" gradientTransform="translate(51.9577 45.3243) rotate(38.5458) scale(10.3351 3.81515)">
<stop stop-color="#F8E6D2"/>
<stop offset="1" stop-color="#F8E6D2" stop-opacity="0"/>
</radialGradient>
<linearGradient id="paint24_linear" x1="24.0256" y1="51.9225" x2="-8.20218" y2="108.055" gradientUnits="userSpaceOnUse">
<stop stop-color="#FFBC47" stop-opacity="0"/>
<stop offset="1" stop-color="#C86F34"/>
</linearGradient>
<linearGradient id="paint25_linear" x1="54.6672" y1="13.0489" x2="12.2516" y2="177.997" gradientUnits="userSpaceOnUse">
<stop stop-color="#FFBC47" stop-opacity="0"/>
<stop offset="1" stop-color="#C86F34"/>
</linearGradient>
</defs>
</svg>
