<svg width="80" height="80" viewBox="0 0 80 80" fill="none" xmlns="http://www.w3.org/2000/svg">
<path d="M48.5762 34.8818C48.5962 34.4962 48.6162 34.0755 48.6313 33.6247C48.9117 26.2979 48.8666 11.534 49.2021 9.59083C49.5576 7.52749 50.6892 6.00501 53.6435 6.00001C56.6027 5.995 58.0448 8.7745 57.6993 12.5156C57.3538 16.2566 58.0999 30.2393 58.3252 34.9519C58.6757 42.2437 59.8524 53.552 59.8524 53.552L48.8766 46.0449L48.5762 34.8818Z" fill="url(#paint0_linear)"/>
<path d="M58.3253 34.9465C58.1 30.2389 57.3489 16.2562 57.6994 12.5102C57.9248 10.0762 57.379 8.06798 56.1672 6.95117C57.2037 10.2064 56.7781 15.0393 57.0835 27.865C57.4591 43.8509 58.776 49.2096 58.776 49.2096L59.3768 48.6337C59.0063 44.7023 58.5306 39.1583 58.3253 34.9465Z" fill="url(#paint1_linear)"/>
<path d="M50.2187 22.5065C50.0084 14.9643 49.753 9.76084 50.7845 6.771C49.8732 7.41704 49.4025 8.40865 49.1972 9.58555C48.8617 11.5287 48.9068 26.2926 48.6264 33.6195C48.6114 34.0652 48.5913 34.4859 48.5713 34.8765L48.6764 38.7778L49.4626 40.0899C49.4676 40.0899 50.5041 32.6629 50.2187 22.5065Z" fill="url(#paint2_linear)"/>
<path d="M20.2905 16.2165C16.1195 17.0378 16.8055 21.2145 17.6117 25.186C18.4779 29.4429 20.8614 45.594 20.8614 45.594L30.6104 46.2C30.6104 46.2 30.8658 44.7426 30.4952 42.6642C29.4037 36.5143 26.7448 23.944 25.7584 20.0477C24.4615 14.9644 20.2905 16.2165 20.2905 16.2165Z" fill="url(#paint3_linear)"/>
<path d="M30.4952 42.6742C29.4036 36.5242 26.7448 23.9539 25.7584 20.0576C25.0473 17.258 23.4701 16.3816 22.1882 16.1562C25.4329 18.6453 26.8149 31.3759 28.5824 36.8047C30.0746 41.3821 30.5202 43.2752 30.6504 43.8862C30.6154 43.5105 30.5703 43.1099 30.4952 42.6742Z" fill="url(#paint4_linear)"/>
<path d="M19.3541 50.1015C19.3541 52.4603 20.4958 53.522 21.0666 53.9026C21.2569 54.0279 21.382 54.0829 21.382 54.0829L32.0424 61.8856L51.5555 57.839L50.9596 45.3438C40.4295 43.9766 31.6218 38.8482 20.7011 37.9468C19.4993 41.9082 19.3541 47.347 19.3541 50.1015Z" fill="url(#paint5_linear)"/>
<path d="M40.1341 50.4721C36.1584 50.8978 33.3143 46.2804 33.3143 46.2804C29.4888 45.2187 29.1032 35.3076 29.1032 35.3076C28.247 36.8501 29.2034 45.4039 31.2063 47.3922C33.3744 49.5507 36.3687 51.8694 40.6999 51.7742C45.0312 51.6791 48.371 56.0111 48.371 56.0111C47.9854 53.9378 44.941 49.9563 40.1341 50.4721Z" fill="url(#paint6_linear)"/>
<path d="M40.134 50.4721C44.9409 49.9612 47.9903 53.9427 48.3708 56.0111L49.9431 55.4351L49.2271 47.4872L44.1348 44.1618L39.8286 37.5962L30.4301 38.7631L29.1132 34.5913C29.0781 34.5913 29.1482 34.5913 29.1132 34.5913C29.1132 34.5913 28.1618 44.9882 33.3192 46.2803C33.3142 46.2803 36.1583 50.8928 40.134 50.4721Z" fill="url(#paint7_linear)"/>
<path d="M35.4974 45.3937C32.0374 45.3937 30.3049 44.0415 29.8242 40.1853C29.3435 36.329 27.2605 29.3778 33.6147 29.0072C39.7085 28.6516 39.8237 32.007 39.8237 37.6011C39.8237 43.1951 38.4767 45.3937 35.4974 45.3937Z" fill="url(#paint8_linear)"/>
<path d="M35.0418 39.439C32.398 40.7862 30.6204 40.8162 29.4888 38.9732C29.5138 39.1785 29.5438 39.3889 29.5639 39.5842C30.0446 43.9713 31.7771 45.5088 35.237 45.5088C37.6705 45.5088 39.0175 43.8361 39.4281 39.7595C38.7421 38.5726 36.599 38.6427 35.0418 39.439Z" fill="url(#paint9_linear)"/>
<path d="M35.0168 41.0872C32.1777 41.0872 30.9008 39.5747 30.4151 36.4697C30.1698 34.8721 28.5524 29.303 33.765 28.9975C38.7622 28.7071 38.7672 32.4081 38.8673 35.5482C39.0226 40.0655 37.4603 41.0872 35.0168 41.0872Z" fill="url(#paint10_linear)"/>
<path d="M33.4294 45.1633C34.0403 45.3135 34.7163 45.3937 35.4924 45.3937C38.4717 45.3937 39.8187 43.1901 39.8187 37.596C39.8187 32.2073 39.6935 28.9019 34.2306 28.992C36.3787 30.1339 38.1312 32.7331 38.1312 37.4257C38.1362 44.1066 36.4538 45.1483 33.4294 45.1633Z" fill="url(#paint11_linear)"/>
<path d="M33.8701 45.3937C33.2843 45.574 32.7485 45.3136 32.2578 45.0582C31.7621 44.7927 31.3215 44.4321 30.9609 44.0065C30.2299 43.1501 29.8493 42.0783 29.619 41.0216C29.3987 39.9499 29.3837 38.8731 29.3036 37.8064L29.1133 34.5962L29.5038 37.7864C29.639 38.8481 29.7091 39.9248 29.9695 40.9465C30.2049 41.9682 30.5854 42.9748 31.2664 43.7511C31.6019 44.1367 32.0074 44.4572 32.4581 44.6976C32.9087 44.943 33.4045 45.0081 33.8701 45.3937Z" fill="#663C1D"/>
<path d="M36.4838 29.2124C37.0746 29.3626 37.6505 29.6181 38.1362 30.0137C38.6169 30.4143 38.9574 30.9602 39.2027 31.5312C39.6985 32.683 39.8286 33.93 39.9338 35.152C39.9889 36.379 39.9939 37.606 39.9689 38.828C39.9588 39.434 39.9739 40.05 39.9438 40.666C39.9238 40.9714 39.9188 41.282 39.8487 41.5925C39.7936 41.8629 39.6584 42.3136 39.2879 42.2886C39.5933 42.1834 39.5833 41.8278 39.6534 41.5574C39.6885 41.2619 39.7235 40.9614 39.7235 40.6609C39.7335 40.055 39.6985 39.444 39.6834 38.833C39.6484 37.611 39.6634 36.389 39.5833 35.1771C39.5182 33.9701 39.4381 32.7381 39.0025 31.6163C38.6119 30.4744 37.6555 29.588 36.4838 29.2124Z" fill="#663C1D"/>
<path opacity="0.16" d="M19.0388 21.5553C18.0674 21.3499 18.4279 19.4068 19.2541 18.4353C20.0803 17.4637 21.5374 16.8427 22.5088 17.048C23.4802 17.2534 23.1046 18.4453 22.7892 19.497C22.2434 21.3049 20.0152 21.7606 19.0388 21.5553Z" fill="url(#paint12_radial)"/>
<path opacity="0.16" d="M51.9662 7.27211C52.2766 6.32558 54.1694 6.9015 55.0456 7.828C55.9219 8.75449 56.3825 10.2719 56.0671 11.2135C55.7516 12.155 54.61 11.6542 53.6035 11.2235C51.866 10.4823 51.6557 8.21363 51.9662 7.27211Z" fill="url(#paint13_radial)"/>
<path d="M45.3316 43.7963C42.1371 43.6911 40.5848 42.3189 40.2593 38.5328C39.9339 34.7467 38.2264 27.8906 44.0999 27.7153C49.7279 27.545 49.733 30.8303 49.5627 36.3042C49.3925 41.768 48.0806 43.8864 45.3316 43.7963Z" fill="url(#paint14_linear)"/>
<path d="M45.0962 37.887C42.6177 39.119 40.9753 39.094 39.9889 37.271C40.0089 37.4713 40.0239 37.6767 40.039 37.867C40.3494 42.1389 41.8966 43.6864 45.0912 43.7866C47.3345 43.8567 48.6263 42.2741 49.1321 38.3277C48.5362 37.1558 46.5583 37.1608 45.0962 37.887Z" fill="url(#paint15_linear)"/>
<path d="M44.8709 38.202C42.2522 38.1169 41.2758 37.8966 40.9253 34.8666C40.745 33.3091 39.4281 27.8502 44.245 27.71C48.8667 27.5798 48.7515 31.1706 48.7515 34.2206C48.7515 38.6127 47.1242 38.2722 44.8709 38.202Z" fill="url(#paint16_linear)"/>
<path d="M43.4338 43.511C43.9896 43.6762 44.6155 43.7764 45.3316 43.7964C48.0806 43.8866 49.3925 41.7681 49.5627 36.2993C49.728 31.0257 49.7129 27.7955 44.6756 27.7153C46.6234 28.8973 48.1607 31.4865 48.0155 36.0789C47.8102 42.6195 46.2229 43.5861 43.4338 43.511Z" fill="url(#paint17_linear)"/>
<path d="M43.8345 43.6361C43.2587 43.8014 42.7479 43.5159 42.2923 43.2354C41.8316 42.945 41.431 42.5644 41.1206 42.1237C40.4847 41.2422 40.1892 40.1955 40.014 39.1639C39.8788 38.1222 39.8588 37.0855 39.7837 36.0589L39.6084 32.9639L39.979 36.0438C40.1091 37.0705 40.1842 38.1072 40.3645 39.1038C40.5447 40.1004 40.8502 41.092 41.441 41.8883C41.7315 42.2839 42.097 42.6245 42.5176 42.8799C42.9332 43.1553 43.4089 43.2354 43.8345 43.6361Z" fill="#663C1D"/>
<path d="M46.7386 28.0005C47.2995 28.1708 47.8452 28.4512 48.2759 28.8669C48.7065 29.2926 49.0069 29.8335 49.2022 30.3994C49.6028 31.5362 49.6979 32.7382 49.753 33.9201C49.763 35.107 49.733 36.2839 49.6679 37.4608C49.6428 38.0468 49.6328 38.6377 49.5878 39.2287C49.5577 39.5241 49.5477 39.8246 49.4726 40.1201C49.4075 40.3755 49.2873 40.8162 48.9268 40.7862C49.2172 40.686 49.2022 40.3405 49.2773 40.08C49.3174 39.7996 49.3574 39.5091 49.3674 39.2186C49.3925 38.6327 49.3775 38.0467 49.3875 37.4558C49.3925 36.2789 49.4425 35.102 49.4075 33.9301C49.3875 32.7632 49.3524 31.5813 49.0069 30.4745C48.6915 29.3527 47.8553 28.4162 46.7386 28.0005Z" fill="#663C1D"/>
<path d="M33.3142 43.1651C33.3142 40.596 35.1118 40.5158 39.9137 40.0801C43.3487 39.7696 47.0841 38.8582 51.8459 40.7212C57.2788 42.8446 62.3811 45.9246 62.4412 51.4485C62.4963 56.3915 58.6958 73.9901 42.0719 73.9901C25.4479 73.9901 19.8599 65.0005 19.3541 50.0963L48.3709 56.0059C48.3709 56.0059 48.9918 50.7574 45.4367 49.1999C43.9195 48.5338 40.6799 49.0697 38.5217 49.0697C36.3636 49.0697 33.3142 46.6307 33.3142 43.1651Z" fill="url(#paint18_linear)"/>
<path d="M53.9389 62.8521C46.8938 68.0555 47.4646 70.9452 40.9002 70.9452C34.3307 70.9452 30.0946 67.4295 27.0953 64.3945C24.0959 61.3596 21.5723 56.3014 20.3355 52.4502C20.0451 51.5387 19.7046 50.7825 19.3541 50.1365C19.8699 65.0206 25.4579 74.0001 42.0719 74.0001C58.6958 74.0001 62.4963 56.4016 62.4412 51.4586C62.4161 49.2951 61.61 47.5122 60.3231 46.0098C60.6887 53.0662 59.7223 58.5751 53.9389 62.8521Z" fill="url(#paint19_radial)"/>
<path d="M50.0685 50.8723C49.9433 47.7873 46.1979 44.7074 43.0884 45.0279C40.4045 45.3033 35.5425 45.6739 33.3694 43.6606C33.6498 46.8558 36.4689 49.0744 38.5218 49.0744C40.68 49.0744 43.9246 48.5386 45.4368 49.2046C48.992 50.7622 48.3711 56.0107 48.3711 56.0107C48.3711 56.0107 50.1937 53.9573 50.0685 50.8723Z" fill="url(#paint20_linear)"/>
<path d="M62.4411 51.4486C62.376 45.9246 57.2737 42.8496 51.8459 40.7212C47.0891 38.8582 43.3537 39.7696 39.9138 40.0801C36.2485 40.4107 34.3458 40.5459 33.6398 41.7228C38.1563 40.591 42.3873 40.1302 47.6048 40.7362C54.3996 41.5225 59.542 45.7644 60.4733 49.0046C61.3946 52.2098 61.2644 58.1795 61.2594 58.3197C62.1357 55.4551 62.4561 52.9059 62.4411 51.4486Z" fill="url(#paint21_linear)"/>
<path d="M48.371 56.0107C48.4561 54.7687 48.356 53.5067 47.9704 52.3247C47.5999 51.1579 46.8688 50.0411 45.7722 49.4802C44.7057 48.8591 43.3888 48.9693 42.1721 48.9944C40.9303 49.0444 39.6935 49.1897 38.4317 49.1847C35.8329 48.9593 33.75 46.7257 33.2743 44.2417C33.1541 43.6157 33.1241 42.9696 33.2442 42.3236C33.3594 41.6725 33.8451 41.0715 34.446 40.8061C35.6477 40.2752 36.9195 40.2152 38.1513 40.0649C40.6399 39.9097 43.0934 39.4589 45.612 39.4389C48.1256 39.3988 50.6342 39.9998 52.9125 41.0265C55.2008 42.013 57.4591 43.1749 59.3318 44.8577C61.2045 46.5153 62.4813 48.9242 62.4412 51.4483C62.4212 48.9242 61.0993 46.5804 59.2166 44.9879C57.3539 43.3452 55.1057 42.2084 52.8224 41.2468C50.5491 40.2402 48.0956 39.6793 45.617 39.7344C43.1485 39.7694 40.6699 40.2402 38.1863 40.4155C36.9596 40.5507 35.6827 40.6158 34.5862 41.0966C34.0404 41.337 33.6598 41.8077 33.5447 42.3887C33.4345 42.9646 33.4495 43.5956 33.5597 44.1866C33.9753 46.5504 36.0032 48.7289 38.4367 48.9493C39.6685 48.9643 40.9153 48.8291 42.162 48.789C43.3888 48.779 44.7308 48.6588 45.8574 49.3299C46.989 49.9459 47.705 51.1128 48.0505 52.2997C48.411 53.5017 48.4811 54.7737 48.371 56.0107Z" fill="#663C1D"/>
<path opacity="0.16" d="M22.4136 50.6069C20.8864 52.4649 25.5281 63.1773 30.1097 65.8766C34.6913 68.576 40.4295 67.7447 41.5511 65.6012C42.6727 63.4577 37.9059 60.1223 34.0153 56.4313C27.2906 50.071 23.9408 48.7489 22.4136 50.6069Z" fill="url(#paint22_radial)"/>
<path opacity="0.16" d="M59.7524 51.9789C60.5635 50.8721 56.5077 44.016 53.268 42.163C50.0283 40.315 43.6492 41.4118 43.1334 42.7139C42.6127 44.011 48.7615 45.4734 51.6507 47.9223C56.6329 52.1392 58.9412 53.0857 59.7524 51.9789Z" fill="url(#paint23_radial)"/>
<path d="M21.9128 56.4566C18.9185 51.1781 21.4522 42.0684 20.8864 40.2805C20.3206 38.4926 20.5108 31.7216 19.0037 25.6117C18.0873 21.8957 17.7619 19.2815 18.4278 17.0078C16.3749 18.5954 16.9507 21.9608 17.6117 25.1911C18.1624 27.8954 19.3241 35.4076 20.1002 40.5209C19.4543 44.0165 19.3542 47.9078 19.3542 50.1014C19.8098 63.5131 24.4115 72.117 37.4452 73.7045C29.4487 72.3273 24.7169 61.3946 21.9128 56.4566Z" fill="url(#paint24_radial)"/>
<path d="M40.4446 73.935C40.079 73.8799 39.6484 73.8498 39.1277 73.8498C38.6169 73.8498 38.1212 73.7997 37.6355 73.7246C38.5318 73.8298 39.4681 73.8999 40.4446 73.935Z" fill="url(#paint25_linear)"/>
<defs>
<linearGradient id="paint0_linear" x1="54.217" y1="59.2913" x2="54.217" y2="29.6636" gradientUnits="userSpaceOnUse">
<stop offset="0.00132565" stop-color="#99643E"/>
<stop offset="1" stop-color="#AE7246"/>
</linearGradient>
<linearGradient id="paint1_linear" x1="57.7727" y1="24.4592" x2="57.7727" y2="-34.3971" gradientUnits="userSpaceOnUse">
<stop offset="0.00132565" stop-color="#99643E"/>
<stop offset="1" stop-color="#AE7246"/>
</linearGradient>
<linearGradient id="paint2_linear" x1="49.6822" y1="24.4594" x2="49.6822" y2="-34.397" gradientUnits="userSpaceOnUse">
<stop offset="0.00132565" stop-color="#99643E"/>
<stop offset="1" stop-color="#AE7246"/>
</linearGradient>
<linearGradient id="paint3_linear" x1="6.96236" y1="41.3496" x2="53.2329" y2="15.6221" gradientUnits="userSpaceOnUse">
<stop offset="0.00132565" stop-color="#99643E"/>
<stop offset="1" stop-color="#AE7246"/>
</linearGradient>
<linearGradient id="paint4_linear" x1="26.4174" y1="24.4594" x2="26.4174" y2="-34.3969" gradientUnits="userSpaceOnUse">
<stop offset="0.00132565" stop-color="#99643E"/>
<stop offset="1" stop-color="#AE7246"/>
</linearGradient>
<linearGradient id="paint5_linear" x1="16.6314" y1="58.7395" x2="62.902" y2="33.012" gradientUnits="userSpaceOnUse">
<stop offset="0.00132565" stop-color="#99643E"/>
<stop offset="1" stop-color="#AE7246"/>
</linearGradient>
<linearGradient id="paint6_linear" x1="38.5784" y1="71.043" x2="38.5784" y2="25.3572" gradientUnits="userSpaceOnUse">
<stop stop-color="#A46C3F" stop-opacity="0"/>
<stop offset="1" stop-color="#804B24"/>
</linearGradient>
<linearGradient id="paint7_linear" x1="39.4895" y1="71.7381" x2="39.4895" y2="37.693" gradientUnits="userSpaceOnUse">
<stop stop-color="#473226" stop-opacity="0"/>
<stop offset="1" stop-color="#3D2A20"/>
</linearGradient>
<linearGradient id="paint8_linear" x1="34.4687" y1="36.7485" x2="34.4687" y2="52.4481" gradientUnits="userSpaceOnUse">
<stop offset="0.00132565" stop-color="#99643E"/>
<stop offset="1" stop-color="#AE7246"/>
</linearGradient>
<linearGradient id="paint9_linear" x1="34.4567" y1="35.2368" x2="34.4567" y2="58.889" gradientUnits="userSpaceOnUse">
<stop stop-color="#8D562E" stop-opacity="0"/>
<stop offset="1" stop-color="#8D562E"/>
</linearGradient>
<linearGradient id="paint10_linear" x1="34.435" y1="40.414" x2="34.435" y2="26.7118" gradientUnits="userSpaceOnUse">
<stop offset="0.00132565" stop-color="#99643E"/>
<stop offset="1" stop-color="#AE7246"/>
</linearGradient>
<linearGradient id="paint11_linear" x1="28.302" y1="33.3012" x2="68.5514" y2="56.162" gradientUnits="userSpaceOnUse">
<stop stop-color="#8D562E" stop-opacity="0"/>
<stop offset="1" stop-color="#8D562E"/>
</linearGradient>
<radialGradient id="paint12_radial" cx="0" cy="0" r="1" gradientUnits="userSpaceOnUse" gradientTransform="translate(20.8859 19.3255) rotate(130.277) scale(2.89667 1.53351)">
<stop stop-color="#F8DBBA"/>
<stop offset="1" stop-color="#CD9870" stop-opacity="0"/>
</radialGradient>
<radialGradient id="paint13_radial" cx="0" cy="0" r="1" gradientUnits="userSpaceOnUse" gradientTransform="translate(53.9659 9.35102) rotate(-133.44) scale(2.89694 1.53356)">
<stop stop-color="#F8DBBA"/>
<stop offset="1" stop-color="#CD9870" stop-opacity="0"/>
</radialGradient>
<linearGradient id="paint14_linear" x1="44.6548" y1="35.3154" x2="44.1663" y2="50.6701" gradientUnits="userSpaceOnUse">
<stop offset="0.00132565" stop-color="#99643E"/>
<stop offset="1" stop-color="#AE7246"/>
</linearGradient>
<linearGradient id="paint15_linear" x1="44.6932" y1="33.7949" x2="43.9625" y2="56.7604" gradientUnits="userSpaceOnUse">
<stop stop-color="#8D562E" stop-opacity="0"/>
<stop offset="1" stop-color="#8D562E"/>
</linearGradient>
<linearGradient id="paint16_linear" x1="44.5495" y1="37.6133" x2="44.9269" y2="25.7529" gradientUnits="userSpaceOnUse">
<stop offset="0.00132565" stop-color="#99643E"/>
<stop offset="1" stop-color="#AE7246"/>
</linearGradient>
<linearGradient id="paint17_linear" x1="38.7728" y1="31.8113" x2="76.6726" y2="54.9603" gradientUnits="userSpaceOnUse">
<stop stop-color="#8D562E" stop-opacity="0"/>
<stop offset="1" stop-color="#8D562E"/>
</linearGradient>
<linearGradient id="paint18_linear" x1="21.8218" y1="68.0743" x2="68.0924" y2="42.3468" gradientUnits="userSpaceOnUse">
<stop offset="0.00132565" stop-color="#99643E"/>
<stop offset="1" stop-color="#AE7246"/>
</linearGradient>
<radialGradient id="paint19_radial" cx="0" cy="0" r="1" gradientUnits="userSpaceOnUse" gradientTransform="translate(39.6113 38.2513) scale(26.7331 41.2579)">
<stop offset="0.6147" stop-color="#8D562E" stop-opacity="0"/>
<stop offset="1" stop-color="#804B24"/>
</radialGradient>
<linearGradient id="paint20_linear" x1="41.7197" y1="66.0713" x2="41.7197" y2="36.6512" gradientUnits="userSpaceOnUse">
<stop stop-color="#8D562E" stop-opacity="0"/>
<stop offset="1" stop-color="#804B24"/>
</linearGradient>
<linearGradient id="paint21_linear" x1="49.5583" y1="40.4745" x2="43.0671" y2="70.6825" gradientUnits="userSpaceOnUse">
<stop stop-color="#8D562E" stop-opacity="0"/>
<stop offset="1" stop-color="#8D562E"/>
</linearGradient>
<radialGradient id="paint22_radial" cx="0" cy="0" r="1" gradientUnits="userSpaceOnUse" gradientTransform="translate(31.4805 59.8513) rotate(-138.624) scale(13.4091 6.12806)">
<stop stop-color="#F8DBBA"/>
<stop offset="1" stop-color="#CD9870" stop-opacity="0"/>
</radialGradient>
<radialGradient id="paint23_radial" cx="0" cy="0" r="1" gradientUnits="userSpaceOnUse" gradientTransform="translate(51.9457 45.3087) rotate(38.5521) scale(10.3336 3.81535)">
<stop stop-color="#F8DBBA"/>
<stop offset="1" stop-color="#CD9870" stop-opacity="0"/>
</radialGradient>
<radialGradient id="paint24_radial" cx="0" cy="0" r="1" gradientUnits="userSpaceOnUse" gradientTransform="translate(27.5699 45.7131) scale(17.3806 55.4249)">
<stop offset="0.6147" stop-color="#8D562E" stop-opacity="0"/>
<stop offset="1" stop-color="#804B24"/>
</radialGradient>
<linearGradient id="paint25_linear" x1="54.6642" y1="13.0494" x2="12.2471" y2="177.984" gradientUnits="userSpaceOnUse">
<stop stop-color="#FFBC47" stop-opacity="0"/>
<stop offset="1" stop-color="#C86F34"/>
</linearGradient>
</defs>
</svg>
