<svg width="80" height="80" viewBox="0 0 80 80" fill="none" xmlns="http://www.w3.org/2000/svg">
<path d="M40 70.4952C56.8315 70.4952 70.4762 56.8505 70.4762 40.019C70.4762 23.1874 56.8315 9.54279 40 9.54279C23.1685 9.54279 9.5238 23.1874 9.5238 40.019C9.5238 56.8505 23.1685 70.4952 40 70.4952Z" fill="url(#paint0_radial)"/>
<path opacity="0.5" d="M40 70.4952C56.8315 70.4952 70.4762 56.8505 70.4762 40.019C70.4762 23.1874 56.8315 9.54279 40 9.54279C23.1685 9.54279 9.5238 23.1874 9.5238 40.019C9.5238 56.8505 23.1685 70.4952 40 70.4952Z" fill="url(#paint1_radial)"/>
<path opacity="0.24" d="M40 70.4952C56.8315 70.4952 70.4762 56.8505 70.4762 40.019C70.4762 23.1874 56.8315 9.54279 40 9.54279C23.1685 9.54279 9.5238 23.1874 9.5238 40.019C9.5238 56.8505 23.1685 70.4952 40 70.4952Z" fill="url(#paint2_radial)"/>
<path opacity="0.24" d="M40 70.4952C56.8315 70.4952 70.4762 56.8505 70.4762 40.019C70.4762 23.1874 56.8315 9.54279 40 9.54279C23.1685 9.54279 9.5238 23.1874 9.5238 40.019C9.5238 56.8505 23.1685 70.4952 40 70.4952Z" fill="url(#paint3_radial)"/>
<path d="M48.1526 26.4569C48.1716 25.2379 49.505 24.495 51.7716 24.5331C53.6954 24.5712 57.924 25.695 60.7811 29.4855C61.3145 30.1902 60.4764 30.5521 59.9621 30.095C58.1907 28.5521 53.4097 26.5141 49.6573 26.8569C48.1526 26.9902 48.1526 26.4569 48.1526 26.4569Z" fill="url(#paint4_linear)"/>
<path d="M27.295 41.0854C27.295 41.0854 22.2092 40.7616 20.6664 36.9712C20.5711 36.7235 20.514 36.4759 20.514 36.2283C20.495 35.714 20.9521 35.1616 21.8664 35.6188C27.5426 38.4759 30.6854 36.9331 33.0473 35.8473C33.9616 35.4283 34.8188 36.3426 34.5711 37.1807C34.495 37.4283 34.4569 37.6759 34.3235 37.9045C32.3807 41.4283 27.295 41.0854 27.295 41.0854Z" fill="url(#paint5_radial)"/>
<path opacity="0.16" d="M45.0861 27.4097H40.4765L45.7146 19.8668C46.0004 19.4668 46.0384 18.9335 45.8099 18.4954C45.5813 18.0573 45.1242 17.7716 44.6289 17.7716H38.2099C37.467 17.7716 37.067 18.3621 37.067 19.1049C37.067 19.8478 37.467 20.4382 38.2099 20.4382H42.0765L36.8384 27.9811C36.5527 28.3811 36.5146 28.9144 36.7432 29.3525C36.9718 29.7906 37.4289 30.0763 37.9242 30.0763H45.067C45.8099 30.0763 46.2099 29.4859 46.2099 28.743C46.2099 28.0001 45.8289 27.4097 45.0861 27.4097Z" fill="#612D5B"/>
<path d="M40 60.781C43.2611 60.781 45.9048 58.6405 45.9048 56.0001C45.9048 53.3596 43.2611 51.2191 40 51.2191C36.7389 51.2191 34.0952 53.3596 34.0952 56.0001C34.0952 58.6405 36.7389 60.781 40 60.781Z" fill="url(#paint6_radial)"/>
<path d="M39.9998 52.6858C42.5332 52.6858 44.7427 53.8477 45.8665 55.5429C45.5808 53.1048 43.0665 51.2191 39.9998 51.2191C36.9332 51.2191 34.3998 53.1239 34.1332 55.5429C35.257 53.8477 37.4665 52.6858 39.9998 52.6858Z" fill="url(#paint7_linear)"/>
<path d="M34.1712 35.9619C33.8855 35.7333 33.4665 35.6381 33.0474 35.8285C30.7045 36.9143 27.5426 38.4762 21.8664 35.6C21.4474 35.3904 21.1236 35.3904 20.895 35.5047C22.9712 38.0952 30.9141 39.6571 34.1712 35.9619Z" fill="url(#paint8_linear)"/>
<path d="M52.7044 41.0858C52.7044 41.0858 57.7901 40.762 59.333 36.9716C59.4282 36.7239 59.4854 36.4763 59.4854 36.2287C59.5044 35.7144 59.0473 35.162 58.133 35.6192C52.4568 38.4763 49.314 36.9335 46.952 35.8477C46.0378 35.4287 45.1806 36.343 45.4282 37.1811C45.5044 37.4287 45.5425 37.6763 45.6759 37.9049C47.6187 41.4287 52.7044 41.0858 52.7044 41.0858Z" fill="url(#paint9_radial)"/>
<path d="M45.8289 35.9619C46.1146 35.7333 46.5336 35.6381 46.9527 35.8285C49.2955 36.9143 52.4574 38.4762 58.1336 35.6C58.5527 35.3904 58.8765 35.3904 59.105 35.5047C57.0288 38.0952 49.086 39.6571 45.8289 35.9619Z" fill="url(#paint10_linear)"/>
<path d="M31.8477 26.4573C31.8286 25.2382 30.4953 24.4954 28.2286 24.5335C26.3048 24.5716 22.0763 25.6954 19.2191 29.4858C18.6858 30.1906 19.5239 30.5525 20.0382 30.0954C21.8096 28.5525 26.5906 26.5144 30.3429 26.8573C31.8477 26.9906 31.8477 26.4573 31.8477 26.4573Z" fill="url(#paint11_linear)"/>
<path opacity="0.16" d="M54.5335 13.2191L48.9526 21.2763C48.6478 21.7144 48.6097 22.2858 48.8574 22.762C49.105 23.2382 49.6002 23.5239 50.1145 23.5239H58.8002C59.5812 23.5239 60.0383 22.8763 60.0383 22.0953C60.0383 21.3144 59.5812 20.6667 58.8002 20.6667H52.8383L56.9716 14.7048C56.1907 14.1715 55.3716 13.6763 54.5335 13.2191Z" fill="#612D5B"/>
<path opacity="0.24" d="M51.5425 11.8094C50.8187 11.5046 50.0568 11.2379 49.314 10.9903C49.4854 11.4665 49.8854 11.8094 50.4568 11.8094H51.5425Z" fill="#612D5B"/>
<path opacity="0.16" d="M65.0096 22.6094L62.762 25.8475C62.4953 26.2094 62.4001 26.6856 62.5144 27.1237C62.6858 27.8284 63.3144 28.2856 64.0001 28.2856H64.0382C65.6001 28.2856 66.9525 28.457 68.4001 28.9332C67.5048 26.6665 66.362 24.5522 65.0096 22.6094Z" fill="#612D5B"/>
<path d="M44.3236 29.5049H37.1807C36.6855 29.5049 36.2284 29.2383 35.9998 28.7811C35.7712 28.324 35.8093 27.8097 36.095 27.4097L41.3331 19.8668H37.4665C36.7236 19.8668 36.3236 19.2764 36.3236 18.5335C36.3236 17.7906 36.7236 17.2002 37.4665 17.2002H43.8855C44.3807 17.2002 44.8379 17.4668 45.0665 17.924C45.295 18.3811 45.2569 18.8954 44.9712 19.2954L39.7331 26.8383H44.3427C45.0855 26.8383 45.4855 27.4287 45.4855 28.1716C45.4855 28.9145 45.0665 29.5049 44.3236 29.5049Z" fill="url(#paint12_linear)"/>
<path d="M57.6575 22.9524H48.9718C48.4384 22.9524 47.9432 22.6667 47.7146 22.1905C47.486 21.7143 47.5051 21.1429 47.8099 20.7048L54.3622 11.2381H49.2956C48.5146 11.2381 48.0575 10.5905 48.0575 9.80952C48.0575 9.02857 48.5146 8.38095 49.2956 8.38095H57.086C57.6194 8.38095 58.1146 8.66667 58.3432 9.14286C58.5717 9.61905 58.5527 10.1905 58.2479 10.6286L51.6765 20.0952H57.6384C58.4194 20.0952 58.8765 20.7429 58.8765 21.5238C58.8765 22.3048 58.4384 22.9524 57.6575 22.9524Z" fill="url(#paint13_linear)"/>
<path d="M72.6857 27.5049H62.8571C62.2857 27.5049 61.7714 27.1811 61.5048 26.6859C61.2381 26.1906 61.2762 25.5811 61.6 25.1049L69.1428 14.2478H63.2381C62.4 14.2478 61.9048 13.5621 61.9048 12.724C61.9048 11.8859 62.4 11.2002 63.2381 11.2002H72.0571C72.6286 11.2002 73.1428 11.524 73.4095 12.0192C73.6762 12.5145 73.6381 13.124 73.3143 13.6002L65.7714 24.4573H72.6857C73.5238 24.4573 74.019 25.143 74.019 25.9811C74.019 26.8192 73.5238 27.5049 72.6857 27.5049Z" fill="url(#paint14_linear)"/>
<defs>
<radialGradient id="paint0_radial" cx="0" cy="0" r="1" gradientUnits="userSpaceOnUse" gradientTransform="translate(34.0037 27.6669) scale(36.7656)">
<stop stop-color="#FFE030"/>
<stop offset="1" stop-color="#FFB92E"/>
</radialGradient>
<radialGradient id="paint1_radial" cx="0" cy="0" r="1" gradientUnits="userSpaceOnUse" gradientTransform="translate(34.0037 27.6669) scale(28.9251)">
<stop stop-color="#FFEA5F"/>
<stop offset="1" stop-color="#FFBC47" stop-opacity="0"/>
</radialGradient>
<radialGradient id="paint2_radial" cx="0" cy="0" r="1" gradientUnits="userSpaceOnUse" gradientTransform="translate(23.3963 47.5996) rotate(-2.7703) scale(12.819 10.143)">
<stop stop-color="#FF4C00"/>
<stop offset="0.1542" stop-color="#FF4C00"/>
<stop offset="0.1795" stop-color="#FF4C00"/>
<stop offset="0.3996" stop-color="#FB4C0B" stop-opacity="0.7318"/>
<stop offset="0.7799" stop-color="#EF4B27" stop-opacity="0.2683"/>
<stop offset="1" stop-color="#E74A3A" stop-opacity="0"/>
</radialGradient>
<radialGradient id="paint3_radial" cx="0" cy="0" r="1" gradientUnits="userSpaceOnUse" gradientTransform="translate(56.5699 47.5995) rotate(-177.23) scale(12.819 10.143)">
<stop stop-color="#FF4C00"/>
<stop offset="0.1542" stop-color="#FF4C00"/>
<stop offset="0.1795" stop-color="#FF4C00"/>
<stop offset="0.3996" stop-color="#FB4C0B" stop-opacity="0.7318"/>
<stop offset="0.7799" stop-color="#EF4B27" stop-opacity="0.2683"/>
<stop offset="1" stop-color="#E74A3A" stop-opacity="0"/>
</radialGradient>
<linearGradient id="paint4_linear" x1="54.5724" y1="28.5907" x2="54.6242" y2="25.382" gradientUnits="userSpaceOnUse">
<stop offset="0.00132565" stop-color="#3C2200"/>
<stop offset="1" stop-color="#7A4400"/>
</linearGradient>
<radialGradient id="paint5_radial" cx="0" cy="0" r="1" gradientUnits="userSpaceOnUse" gradientTransform="translate(27.4256 38.2011) rotate(-176.151) scale(5.47719 2.64254)">
<stop offset="0.00132565" stop-color="#7A4400"/>
<stop offset="1" stop-color="#643800"/>
</radialGradient>
<radialGradient id="paint6_radial" cx="0" cy="0" r="1" gradientUnits="userSpaceOnUse" gradientTransform="translate(39.6352 56.2726) rotate(70.3551) scale(5.91471 4.537)">
<stop offset="0.00132565" stop-color="#7A4400"/>
<stop offset="1" stop-color="#643800"/>
</radialGradient>
<linearGradient id="paint7_linear" x1="39.9999" y1="48.9562" x2="39.9999" y2="56.7522" gradientUnits="userSpaceOnUse">
<stop offset="0.00132565" stop-color="#3C2200"/>
<stop offset="1" stop-color="#512D00"/>
</linearGradient>
<linearGradient id="paint8_linear" x1="26.5594" y1="33.213" x2="28.7991" y2="39.0454" gradientUnits="userSpaceOnUse">
<stop offset="0.00132565" stop-color="#3C2200"/>
<stop offset="1" stop-color="#512D00"/>
</linearGradient>
<radialGradient id="paint9_radial" cx="0" cy="0" r="1" gradientUnits="userSpaceOnUse" gradientTransform="translate(52.5735 38.2016) rotate(-3.84889) scale(5.47718 2.64254)">
<stop offset="0.00132565" stop-color="#7A4400"/>
<stop offset="1" stop-color="#643800"/>
</radialGradient>
<linearGradient id="paint10_linear" x1="53.4406" y1="33.2127" x2="51.2008" y2="39.0452" gradientUnits="userSpaceOnUse">
<stop offset="0.00132565" stop-color="#3C2200"/>
<stop offset="1" stop-color="#512D00"/>
</linearGradient>
<linearGradient id="paint11_linear" x1="25.4269" y1="28.5911" x2="25.3751" y2="25.3824" gradientUnits="userSpaceOnUse">
<stop offset="0.00132565" stop-color="#3C2200"/>
<stop offset="1" stop-color="#7A4400"/>
</linearGradient>
<linearGradient id="paint12_linear" x1="24.777" y1="12.8079" x2="46.6818" y2="27.4746" gradientUnits="userSpaceOnUse">
<stop stop-color="#80DAFE"/>
<stop offset="1" stop-color="#7000A3"/>
</linearGradient>
<linearGradient id="paint13_linear" x1="46.9748" y1="6.24933" x2="56.7843" y2="21.4874" gradientUnits="userSpaceOnUse">
<stop stop-color="#80DAFE"/>
<stop offset="1" stop-color="#7000A3"/>
</linearGradient>
<linearGradient id="paint14_linear" x1="62.7125" y1="7.07344" x2="70.4268" y2="27.0734" gradientUnits="userSpaceOnUse">
<stop stop-color="#80DAFE"/>
<stop offset="1" stop-color="#7000A3"/>
</linearGradient>
</defs>
</svg>
