<svg width="80" height="80" viewBox="0 0 80 80" fill="none" xmlns="http://www.w3.org/2000/svg">
<path d="M40.0001 70.4762C56.8316 70.4762 70.4763 56.8315 70.4763 40C70.4763 23.1685 56.8316 9.5238 40.0001 9.5238C23.1686 9.5238 9.52393 23.1685 9.52393 40C9.52393 56.8315 23.1686 70.4762 40.0001 70.4762Z" fill="url(#paint0_radial)"/>
<path opacity="0.5" d="M40.0001 70.4762C56.8316 70.4762 70.4763 56.8315 70.4763 40C70.4763 23.1685 56.8316 9.5238 40.0001 9.5238C23.1686 9.5238 9.52393 23.1685 9.52393 40C9.52393 56.8315 23.1686 70.4762 40.0001 70.4762Z" fill="url(#paint1_radial)"/>
<path d="M33.2953 24.2095C33.2953 22.9905 31.981 22.2286 29.6953 22.2286C27.7715 22.2286 23.5239 23.2952 20.6096 27.0476C20.0763 27.7333 20.8953 28.1143 21.4286 27.6762C23.2191 26.1524 28.0382 24.1905 31.7905 24.6095C33.2953 24.7619 33.2953 24.2095 33.2953 24.2095Z" fill="url(#paint2_linear)"/>
<path d="M30.0383 39.0096C31.6584 39.0096 32.9717 37.0225 32.9717 34.5715C32.9717 32.1204 31.6584 30.1334 30.0383 30.1334C28.4183 30.1334 27.105 32.1204 27.105 34.5715C27.105 37.0225 28.4183 39.0096 30.0383 39.0096Z" fill="url(#paint3_radial)"/>
<path d="M30.0383 31.6381C31.2955 31.6381 32.4002 32.7428 32.9717 34.3619C32.9336 31.9619 31.6383 30.0381 30.0383 30.0381C28.4383 30.0381 27.1431 31.9619 27.105 34.3619C27.6764 32.7428 28.7812 31.6381 30.0383 31.6381Z" fill="url(#paint4_linear)"/>
<path d="M46.7048 24.2095C46.7048 22.9905 48.0191 22.2286 50.3049 22.2286C52.2287 22.2286 56.4763 23.2952 59.3906 27.0476C59.9239 27.7333 59.1049 28.1143 58.5715 27.6762C56.7811 26.1524 51.962 24.1905 48.2096 24.6095C46.6858 24.7619 46.7048 24.2095 46.7048 24.2095Z" fill="url(#paint5_linear)"/>
<path d="M53.4667 48.9143C53.2191 48.8762 52.9524 48.9524 52.781 49.1238C49.5048 52.1905 44.4571 53.8476 40.6476 53.8476H40H39.3524C35.5429 53.8476 30.4952 52.1905 27.219 49.1238C27.0286 48.9524 26.781 48.8762 26.5333 48.9143C26.2667 48.9714 26.1333 49.2571 26.2667 49.4857C29.0667 54.3238 34.2286 57.3143 39.8476 57.3143H40.0191H40.1905C45.8095 57.3143 50.9714 54.3238 53.7714 49.4857C53.8667 49.2571 53.7333 48.9714 53.4667 48.9143Z" fill="#643800"/>
<path d="M49.9429 39.0096C51.5629 39.0096 52.8762 37.0225 52.8762 34.5715C52.8762 32.1204 51.5629 30.1334 49.9429 30.1334C48.3228 30.1334 47.0095 32.1204 47.0095 34.5715C47.0095 37.0225 48.3228 39.0096 49.9429 39.0096Z" fill="url(#paint6_radial)"/>
<path d="M49.9429 31.6381C48.6857 31.6381 47.581 32.7429 47.0095 34.362C47.0476 31.962 48.3429 30.0381 49.9429 30.0381C51.5429 30.0381 52.8381 31.962 52.8762 34.362C52.3048 32.7429 51.2 31.6381 49.9429 31.6381Z" fill="url(#paint7_linear)"/>
<path d="M53.4667 48.9143C53.219 48.8762 52.9524 48.9524 52.7809 49.1238C49.5048 52.1905 44.4571 53.8476 40.6476 53.8476H40H39.3524C35.5429 53.8476 30.4952 52.1905 27.219 49.1238C27.0286 48.9524 26.781 48.8762 26.5333 48.9143C26.2667 48.9714 26.1333 49.2571 26.2667 49.4857C26.2857 49.5428 26.3238 49.5809 26.3619 49.619C26.6286 49.4667 26.9143 49.3143 27.2 49.6381C30.3048 53.1238 34.9143 55.219 39.8476 55.219H40.019H40.1905C45.1619 55.219 49.7905 53.1048 52.8952 49.5619C53.1809 49.2381 53.4476 49.3905 53.6952 49.5619C53.7143 49.5238 53.7333 49.5048 53.7524 49.4667C53.8667 49.2571 53.7333 48.9714 53.4667 48.9143Z" fill="url(#paint8_linear)"/>
<defs>
<radialGradient id="paint0_radial" cx="0" cy="0" r="1" gradientUnits="userSpaceOnUse" gradientTransform="translate(33.9963 27.649) scale(36.7656)">
<stop stop-color="#FFE030"/>
<stop offset="1" stop-color="#FFB92E"/>
</radialGradient>
<radialGradient id="paint1_radial" cx="0" cy="0" r="1" gradientUnits="userSpaceOnUse" gradientTransform="translate(33.9963 27.649) scale(28.9251)">
<stop stop-color="#FFEA5F"/>
<stop offset="1" stop-color="#FFBC47" stop-opacity="0"/>
</radialGradient>
<linearGradient id="paint2_linear" x1="26.8613" y1="26.2522" x2="26.8613" y2="23.0409" gradientUnits="userSpaceOnUse">
<stop offset="0.00132565" stop-color="#3C2200"/>
<stop offset="1" stop-color="#7A4400"/>
</linearGradient>
<radialGradient id="paint3_radial" cx="0" cy="0" r="1" gradientUnits="userSpaceOnUse" gradientTransform="translate(29.1624 34.6974) rotate(73.8539) scale(4.30606 2.78596)">
<stop offset="0.00132565" stop-color="#7A4400"/>
<stop offset="1" stop-color="#643800"/>
</radialGradient>
<linearGradient id="paint4_linear" x1="30.0426" y1="30.1161" x2="30.0426" y2="34.2522" gradientUnits="userSpaceOnUse">
<stop offset="0.00132565" stop-color="#3C2200"/>
<stop offset="1" stop-color="#512D00"/>
</linearGradient>
<linearGradient id="paint5_linear" x1="53.1238" y1="26.2522" x2="53.1238" y2="23.0409" gradientUnits="userSpaceOnUse">
<stop offset="0.00132565" stop-color="#3C2200"/>
<stop offset="1" stop-color="#7A4400"/>
</linearGradient>
<radialGradient id="paint6_radial" cx="0" cy="0" r="1" gradientUnits="userSpaceOnUse" gradientTransform="translate(49.0633 34.6981) rotate(73.8539) scale(4.30606 2.78596)">
<stop offset="0.00132565" stop-color="#7A4400"/>
<stop offset="1" stop-color="#643800"/>
</radialGradient>
<linearGradient id="paint7_linear" x1="49.9425" y1="30.1162" x2="49.9425" y2="34.2523" gradientUnits="userSpaceOnUse">
<stop offset="0.00132565" stop-color="#3C2200"/>
<stop offset="1" stop-color="#512D00"/>
</linearGradient>
<linearGradient id="paint8_linear" x1="39.9925" y1="51.0685" x2="39.9925" y2="55.6182" gradientUnits="userSpaceOnUse">
<stop offset="0.00132565" stop-color="#3C2200"/>
<stop offset="1" stop-color="#512D00"/>
</linearGradient>
</defs>
</svg>
