<svg width="80" height="80" viewBox="0 0 80 80" fill="none" xmlns="http://www.w3.org/2000/svg">
<path d="M39.962 70.4762C56.7936 70.4762 70.4382 56.8315 70.4382 40C70.4382 23.1685 56.7936 9.52381 39.962 9.52381C23.1305 9.52381 9.48584 23.1685 9.48584 40C9.48584 56.8315 23.1305 70.4762 39.962 70.4762Z" fill="url(#paint0_radial)"/>
<path opacity="0.5" d="M39.962 70.4762C56.7936 70.4762 70.4382 56.8315 70.4382 40C70.4382 23.1685 56.7936 9.52381 39.962 9.52381C23.1305 9.52381 9.48584 23.1685 9.48584 40C9.48584 56.8315 23.1305 70.4762 39.962 70.4762Z" fill="url(#paint1_radial)"/>
<path d="M60.9717 50.1335C60.9908 49.9621 61.0098 49.7907 61.0289 49.6383C60.9908 49.0859 60.6479 48.5716 60.0955 48.3811C59.8098 48.2669 59.505 48.2669 59.2003 48.343C52.9717 50.0764 46.4955 50.9716 39.9622 50.9716C33.4288 50.9716 26.9527 50.0954 20.7241 48.343C20.4384 48.2669 20.1146 48.2669 19.8288 48.3811C19.2955 48.5907 18.9527 49.0669 18.8955 49.6192C18.9146 49.8097 18.9336 50.0002 18.9717 50.2097L19.3146 51.6383C19.3907 51.9049 19.486 52.1907 19.6003 52.4954C21.7336 57.4859 27.2955 66.2668 39.9812 66.2668C52.6479 66.2668 58.2098 57.4668 60.3622 52.4764C60.4574 52.2097 60.5527 51.9621 60.6098 51.7145L60.9717 50.1335Z" fill="url(#paint2_radial)"/>
<path d="M39.9618 64.8762C44.8761 64.8762 48.6475 63.4667 51.5237 61.4667C48.3618 60 44.5523 59.0476 39.9618 59.0476C35.3713 59.0476 31.5428 60 28.3809 61.4857C31.2761 63.4857 35.0475 64.8762 39.9618 64.8762Z" fill="url(#paint3_radial)"/>
<path d="M60.6098 51.6573L60.9527 50.1907C60.9907 49.9811 61.0098 49.7907 61.0098 49.6192C60.9717 49.0669 60.6098 48.5907 60.0765 48.3811C59.7907 48.2669 59.486 48.2669 59.1812 48.343C52.9527 50.0764 46.4765 50.9716 39.9431 50.9716C33.4098 50.9716 26.9336 50.0954 20.705 48.343C20.4193 48.2669 20.0955 48.2669 19.8098 48.3811C19.2765 48.5907 18.9336 49.0669 18.8765 49.6192C18.8955 49.7907 18.9146 50.0002 18.9336 50.2097L19.2765 51.6573C19.3527 51.924 19.4479 52.2097 19.5622 52.4954C20.4193 54.5145 21.8479 57.1431 24.0574 59.5621C21.9812 57.0859 24.5336 55.7335 29.1241 56.2859C33.6955 56.8383 39.9431 56.8573 39.9431 56.8573C39.9431 56.8573 46.1908 56.8383 50.7622 56.2859C55.3336 55.7335 57.905 57.105 55.8288 59.5621C58.0574 57.1431 59.4669 54.5145 60.3241 52.4954C60.4384 52.1907 60.5336 51.924 60.6098 51.6573Z" fill="url(#paint4_linear)"/>
<path d="M39.962 52.3618C33.3715 52.3618 26.8573 51.4856 20.5525 49.7333L20.6287 50.5904C20.7811 52.2285 21.9811 53.5809 23.5811 53.9428C28.9334 55.1237 34.4192 55.7142 39.943 55.7142C45.9049 55.7142 51.8096 55.0285 57.562 53.6571C58.4192 53.4475 59.0477 52.7237 59.143 51.8475L59.3525 49.7523C53.0668 51.4856 46.5525 52.3618 39.962 52.3618Z" fill="url(#paint5_radial)"/>
<path d="M39.962 70.4762C56.7936 70.4762 70.4382 56.8315 70.4382 40C70.4382 23.1685 56.7936 9.52381 39.962 9.52381C23.1305 9.52381 9.48584 23.1685 9.48584 40C9.48584 56.8315 23.1305 70.4762 39.962 70.4762Z" fill="url(#paint6_radial)"/>
<path d="M39.962 70.4762C56.7936 70.4762 70.4382 56.8315 70.4382 40C70.4382 23.1685 56.7936 9.52381 39.962 9.52381C23.1305 9.52381 9.48584 23.1685 9.48584 40C9.48584 56.8315 23.1305 70.4762 39.962 70.4762Z" fill="url(#paint7_radial)"/>
<path opacity="0.24" d="M64.6096 36.4379C64.8953 36.3998 65.162 36.3808 65.4286 36.3617C65.4286 36.3808 65.4096 36.4189 65.4096 36.457L65.3334 46.7427C65.3334 47.5808 64.381 48.0379 63.7144 47.5236L55.6001 41.2189C55.4858 41.1236 55.3334 41.1046 55.2001 41.1427L45.3905 44.2474C44.5905 44.4951 43.8667 43.7332 44.1524 42.9522L47.5429 33.5617C47.6572 33.257 47.6001 32.9141 47.4096 32.6475L41.6001 24.5332C41.4096 24.2665 41.3715 23.9427 41.4477 23.657L42.4191 23.7522C51.4858 23.8665 51.7334 38.0189 64.6096 36.4379Z" fill="url(#paint8_radial)"/>
<path d="M59.1621 14.781L53.0478 23.2C52.9716 23.3143 52.8192 23.3905 52.6859 23.3714L42.2859 23.1048C41.4478 23.0857 40.9526 24.0381 41.4478 24.7048L47.3907 32.8762C47.5811 33.1429 47.6383 33.4857 47.524 33.8095L44.1526 43.3333C43.8669 44.1333 44.6288 44.8952 45.4288 44.6286L55.3145 41.4095C55.4478 41.3714 55.6002 41.3905 55.7145 41.4857L63.9621 47.8095C64.6288 48.3238 65.5812 47.8476 65.5812 47.0095V36.6095C65.5812 36.4571 65.6573 36.3238 65.7716 36.2476L74.3431 30.3619C75.0288 29.8857 74.8764 28.8191 74.0764 28.5714L64.1907 25.3524C64.0573 25.3143 63.9431 25.2 63.905 25.0667L60.9526 15.0857C60.724 14.2857 59.6573 14.0952 59.1621 14.781Z" fill="url(#paint9_radial)"/>
<path d="M68.4953 32.5716C70.7239 30.9906 73.7906 29.2954 73.3715 28.343L74.0953 28.5716C74.8953 28.8383 75.0477 29.8859 74.362 30.3621L65.7906 36.2478C65.6763 36.324 65.6001 36.4573 65.6001 36.6097C65.6382 34.7811 66.2668 34.1335 68.4953 32.5716Z" fill="url(#paint10_radial)"/>
<path d="M60.9526 15.0857L63.905 25.0476C63.9431 25.181 64.0573 25.2952 64.1907 25.3333L74.0954 28.5524C74.8954 28.8191 75.0478 29.8667 74.3621 30.3429L66.0383 36.0762C65.7716 36.2667 65.6002 36.5714 65.6002 36.9143V47.0095C65.6002 47.8476 64.6478 48.3238 63.9811 47.8095L55.7335 41.4857C55.6192 41.3905 55.4669 41.3714 55.3335 41.4095L45.4478 44.6286C44.6478 44.8952 43.905 44.1143 44.1716 43.3333L47.6192 33.5238C47.6764 33.3905 47.6383 33.2381 47.5621 33.1238L41.4478 24.7048C40.9526 24.0191 41.4478 23.0857 42.2859 23.1048L52.6859 23.3714C52.8383 23.3714 52.9716 23.3143 53.0478 23.2L59.1621 14.781C59.6573 14.0952 60.724 14.2857 60.9526 15.0857Z" fill="url(#paint11_radial)"/>
<path d="M60.9526 15.0857L63.905 25.0476C63.9431 25.181 64.0573 25.2952 64.1907 25.3333L74.0954 28.5524C74.8954 28.8191 75.0478 29.8667 74.3621 30.3429L66.0383 36.0762C65.7716 36.2667 65.6002 36.5714 65.6002 36.9143V47.0095C65.6002 47.8476 64.6478 48.3238 63.9811 47.8095L55.7335 41.4857C55.6192 41.3905 55.4669 41.3714 55.3335 41.4095L45.4478 44.6286C44.6478 44.8952 43.905 44.1143 44.1716 43.3333L47.6192 33.5238C47.6764 33.3905 47.6383 33.2381 47.5621 33.1238L41.4478 24.7048C40.9526 24.0191 41.4478 23.0857 42.2859 23.1048L52.6859 23.3714C52.8383 23.3714 52.9716 23.3143 53.0478 23.2L59.1621 14.781C59.6573 14.0952 60.724 14.2857 60.9526 15.0857Z" fill="url(#paint12_radial)"/>
<path opacity="0.24" d="M60.9526 15.0857L63.905 25.0476C63.9431 25.181 64.0573 25.2952 64.1907 25.3333L74.0954 28.5524C74.8954 28.8191 75.0478 29.8667 74.3621 30.3429L66.0383 36.0762C65.7716 36.2667 65.6002 36.5714 65.6002 36.9143V47.0095C65.6002 47.8476 64.6478 48.3238 63.9811 47.8095L55.7335 41.4857C55.6192 41.3905 55.4669 41.3714 55.3335 41.4095L45.4478 44.6286C44.6478 44.8952 43.905 44.1143 44.1716 43.3333L47.6192 33.5238C47.6764 33.3905 47.6383 33.2381 47.5621 33.1238L41.4478 24.7048C40.9526 24.0191 41.4478 23.0857 42.2859 23.1048L52.6859 23.3714C52.8383 23.3714 52.9716 23.3143 53.0478 23.2L59.1621 14.781C59.6573 14.0952 60.724 14.2857 60.9526 15.0857Z" fill="url(#paint13_radial)"/>
<path opacity="0.24" d="M60.9526 15.0857L63.905 25.0476C63.9431 25.181 64.0573 25.2952 64.1907 25.3333L74.0954 28.5524C74.8954 28.8191 75.0478 29.8667 74.3621 30.3429L66.0383 36.0762C65.7716 36.2667 65.6002 36.5714 65.6002 36.9143V47.0095C65.6002 47.8476 64.6478 48.3238 63.9811 47.8095L55.7335 41.4857C55.6192 41.3905 55.4669 41.3714 55.3335 41.4095L45.4478 44.6286C44.6478 44.8952 43.905 44.1143 44.1716 43.3333L47.6192 33.5238C47.6764 33.3905 47.6383 33.2381 47.5621 33.1238L41.4478 24.7048C40.9526 24.0191 41.4478 23.0857 42.2859 23.1048L52.6859 23.3714C52.8383 23.3714 52.9716 23.3143 53.0478 23.2L59.1621 14.781C59.6573 14.0952 60.724 14.2857 60.9526 15.0857Z" fill="url(#paint14_radial)"/>
<path d="M74.0953 28.5522L64.1905 25.3522C64.0572 25.3141 63.9429 25.1998 63.9048 25.0665L60.9524 15.0856C60.9524 15.0856 60.4572 15.5237 61.0477 17.6379C61.4477 19.0094 62.4382 22.7998 63.0096 24.7618C63.3334 25.8665 64.0763 26.0189 65.181 26.3618L72.4953 28.6094C72.4953 28.6094 73.3144 28.8189 74.0953 28.5522Z" fill="url(#paint15_radial)"/>
<path d="M44.1526 43.3333C43.8669 44.1333 44.6288 44.8952 45.4288 44.6286L55.3145 41.4095C55.4478 41.3714 55.6002 41.3905 55.7145 41.4857L63.9621 47.8095C64.6288 48.3238 65.5812 47.8476 65.5812 47.0095V36.6095C65.5812 36.4571 65.6573 36.3238 65.7716 36.2476L74.3431 30.3619C75.0288 29.8857 74.8764 28.8191 74.0764 28.5714L64.1907 25.3524C64.0573 25.3143 63.9431 25.2 63.905 25.0667L60.9526 15.0857C60.705 14.2857 59.6573 14.0952 59.1621 14.781L53.0478 23.2C52.9716 23.3143 52.8192 23.3905 52.6859 23.3714L42.2859 23.1048C41.4478 23.0857 40.9526 24.0381 41.4478 24.7048L47.3907 32.8762C47.5811 33.1429 47.6383 33.4857 47.524 33.8095L44.1526 43.3333ZM44.6859 43.5238L48.0573 34C48.2288 33.5048 48.1526 32.9714 47.8478 32.5333L41.905 24.381C41.7526 24.1905 41.8288 23.981 41.8669 23.9238C41.905 23.8476 42.0192 23.6952 42.2478 23.6952C42.2478 23.6952 42.2478 23.6952 42.2669 23.6952L52.6669 23.9619C52.9907 23.981 53.3145 23.8095 53.505 23.5429L59.6192 15.1238C59.7335 14.9714 59.8669 14.9333 59.9621 14.9333C60.0002 14.9333 60.0193 14.9333 60.0383 14.9333C60.1145 14.9524 60.324 15.0095 60.3812 15.2381L63.3335 25.2C63.4288 25.5238 63.6764 25.7714 63.9812 25.8667L73.8669 29.0857C74.0954 29.1619 74.1526 29.3524 74.1716 29.4476C74.1907 29.5238 74.1907 29.7333 73.9812 29.8667L65.4097 35.7524C65.1431 35.9429 64.9716 36.2476 64.9716 36.5905V46.9905C64.9716 47.2381 64.8002 47.3524 64.724 47.3905C64.6478 47.4286 64.4573 47.5048 64.2669 47.3524L56.0192 41.0286C55.7526 40.8191 55.4097 40.7619 55.0859 40.8762L45.2002 44.0952C44.9716 44.1714 44.8002 44.0381 44.7431 43.981C44.7431 43.9238 44.6097 43.7524 44.6859 43.5238Z" fill="url(#paint16_radial)"/>
<path opacity="0.24" d="M15.3142 36.438C15.0285 36.3999 14.7618 36.3809 14.4951 36.3618C14.4951 36.3809 14.5142 36.419 14.5142 36.4571L14.5904 46.7428C14.5904 47.5809 15.5427 48.038 16.2094 47.5237L24.3237 41.219C24.438 41.1237 24.5904 41.1047 24.7237 41.1428L34.5332 44.2475C35.3332 44.4952 36.057 43.7332 35.7713 42.9523L32.3808 33.5428C32.2665 33.238 32.3237 32.8952 32.5142 32.6285L38.3237 24.5142C38.5142 24.2475 38.5523 23.9237 38.4761 23.638L37.5046 23.7332C28.438 23.8666 28.1904 38.019 15.3142 36.438Z" fill="url(#paint17_radial)"/>
<path d="M20.762 14.7809L26.8763 23.1999C26.9525 23.3142 27.1049 23.3904 27.2382 23.3714L37.6382 23.1047C38.4763 23.0857 38.9715 24.038 38.4763 24.7047L32.5334 32.8761C32.343 33.1428 32.2858 33.4856 32.4001 33.8095L35.7715 43.3333C36.0573 44.1333 35.2954 44.8952 34.4954 44.6285L24.6096 41.4095C24.4763 41.3714 24.3239 41.3904 24.2096 41.4856L15.962 47.8095C15.2954 48.3237 14.343 47.8475 14.343 47.0095V36.6095C14.343 36.4571 14.2668 36.3237 14.1525 36.2476L5.58106 30.3618C4.89535 29.8856 5.04773 28.819 5.84773 28.5714L15.7334 25.3523C15.8668 25.3142 15.9811 25.1999 16.0192 25.0666L18.9715 15.1047C19.2192 14.2857 20.2668 14.0952 20.762 14.7809Z" fill="url(#paint18_radial)"/>
<path d="M11.4477 32.5716C9.21916 30.9906 6.15249 29.2954 6.57154 28.343L5.84773 28.5716C5.04773 28.8383 4.89535 29.8859 5.58106 30.3621L14.1525 36.2478C14.2668 36.324 14.343 36.4573 14.343 36.6097C14.3049 34.7811 13.6573 34.1335 11.4477 32.5716Z" fill="url(#paint19_radial)"/>
<path d="M33.6953 28.743C35.2763 26.5144 37.581 23.8859 36.8763 23.124L37.6382 23.1049C38.4763 23.0859 38.9715 24.0382 38.4763 24.7049L32.381 33.124C32.3048 33.2382 32.2667 33.3906 32.3239 33.524C31.7334 31.7906 32.1144 30.9716 33.6953 28.743Z" fill="url(#paint20_radial)"/>
<path d="M37.6382 23.1047L27.2382 23.3714C27.0858 23.3714 26.9525 23.3142 26.8763 23.1999L20.762 14.7809C20.762 14.7809 20.4382 15.3713 21.7144 17.1428C22.5335 18.3047 24.743 21.5428 25.943 23.1999C26.6097 24.1523 27.3525 24.038 28.5144 23.9809L36.1716 23.6571C36.1525 23.6761 37.0097 23.5999 37.6382 23.1047Z" fill="url(#paint21_radial)"/>
<path d="M18.9715 15.0857L16.0192 25.0476C15.9811 25.181 15.8668 25.2952 15.7334 25.3333L5.84773 28.5524C5.04773 28.8191 4.89535 29.8667 5.58106 30.3429L13.9049 36.0762C14.1715 36.2667 14.343 36.5714 14.343 36.9143V47.0095C14.343 47.8476 15.2954 48.3238 15.962 47.8095L24.2096 41.4857C24.3239 41.3905 24.4763 41.3714 24.6096 41.4095L34.4954 44.6286C35.2954 44.8952 36.0382 44.1143 35.7715 43.3333L32.3049 33.5238C32.2477 33.3905 32.2858 33.2381 32.362 33.1238L38.4763 24.7048C38.9715 24.0191 38.4763 23.0857 37.6382 23.1048L27.2382 23.3714C27.0858 23.3714 26.9525 23.3143 26.8763 23.2L20.762 14.781C20.2668 14.0952 19.2192 14.2857 18.9715 15.0857Z" fill="url(#paint22_radial)"/>
<path d="M18.9715 15.0857L16.0192 25.0476C15.9811 25.181 15.8668 25.2952 15.7334 25.3333L5.84773 28.5524C5.04773 28.8191 4.89535 29.8667 5.58106 30.3429L13.9049 36.0762C14.1715 36.2667 14.343 36.5714 14.343 36.9143V47.0095C14.343 47.8476 15.2954 48.3238 15.962 47.8095L24.2096 41.4857C24.3239 41.3905 24.4763 41.3714 24.6096 41.4095L34.4954 44.6286C35.2954 44.8952 36.0382 44.1143 35.7715 43.3333L32.3049 33.5238C32.2477 33.3905 32.2858 33.2381 32.362 33.1238L38.4763 24.7048C38.9715 24.0191 38.4763 23.0857 37.6382 23.1048L27.2382 23.3714C27.0858 23.3714 26.9525 23.3143 26.8763 23.2L20.762 14.781C20.2668 14.0952 19.2192 14.2857 18.9715 15.0857Z" fill="url(#paint23_radial)"/>
<path opacity="0.24" d="M18.9715 15.0857L16.0192 25.0476C15.9811 25.181 15.8668 25.2952 15.7334 25.3333L5.84773 28.5524C5.04773 28.8191 4.89535 29.8667 5.58106 30.3429L13.9049 36.0762C14.1715 36.2667 14.343 36.5714 14.343 36.9143V47.0095C14.343 47.8476 15.2954 48.3238 15.962 47.8095L24.2096 41.4857C24.3239 41.3905 24.4763 41.3714 24.6096 41.4095L34.4954 44.6286C35.2954 44.8952 36.0382 44.1143 35.7715 43.3333L32.3049 33.5238C32.2477 33.3905 32.2858 33.2381 32.362 33.1238L38.4763 24.7048C38.9715 24.0191 38.4763 23.0857 37.6382 23.1048L27.2382 23.3714C27.0858 23.3714 26.9525 23.3143 26.8763 23.2L20.762 14.781C20.2668 14.0952 19.2192 14.2857 18.9715 15.0857Z" fill="url(#paint24_radial)"/>
<path opacity="0.24" d="M18.9715 15.0857L16.0192 25.0476C15.9811 25.181 15.8668 25.2952 15.7334 25.3333L5.84773 28.5524C5.04773 28.8191 4.89535 29.8667 5.58106 30.3429L13.9049 36.0762C14.1715 36.2667 14.343 36.5714 14.343 36.9143V47.0095C14.343 47.8476 15.2954 48.3238 15.962 47.8095L24.2096 41.4857C24.3239 41.3905 24.4763 41.3714 24.6096 41.4095L34.4954 44.6286C35.2954 44.8952 36.0382 44.1143 35.7715 43.3333L32.3049 33.5238C32.2477 33.3905 32.2858 33.2381 32.362 33.1238L38.4763 24.7048C38.9715 24.0191 38.4763 23.0857 37.6382 23.1048L27.2382 23.3714C27.0858 23.3714 26.9525 23.3143 26.8763 23.2L20.762 14.781C20.2668 14.0952 19.2192 14.2857 18.9715 15.0857Z" fill="url(#paint25_radial)"/>
<path d="M5.8479 28.5522L15.7336 25.3332C15.8669 25.2951 15.9812 25.1808 16.0193 25.0475L18.9717 15.0856C18.9717 15.0856 19.4669 15.5237 18.8765 17.6379C18.4765 19.0094 17.486 22.7998 16.9146 24.7618C16.5908 25.8665 15.8479 26.0189 14.7431 26.3618L7.42885 28.6094C7.42885 28.6094 6.60981 28.8189 5.8479 28.5522Z" fill="url(#paint26_radial)"/>
<path d="M46.2476 28.743C44.6666 26.5144 42.3619 23.8859 43.0666 23.124L42.3047 23.1049C41.4666 23.0859 40.9714 24.0382 41.4666 24.7049L47.5809 33.124C47.6571 33.2382 47.6952 33.3906 47.638 33.524C48.1904 31.7906 47.8095 30.9716 46.2476 28.743Z" fill="url(#paint27_radial)"/>
<path d="M26.3051 25.1429C27.5432 27.2381 25.486 30.7238 21.7337 32.9143C17.9813 35.1048 13.9432 35.2 12.7241 33.1048C11.5051 31.0095 13.5432 27.5238 17.2956 25.3333C21.0479 23.1429 25.067 23.0667 26.3051 25.1429Z" fill="url(#paint28_radial)"/>
<path d="M62.2477 24.1141C63.4858 26.2094 61.4287 29.6951 57.6763 31.8856C53.9239 34.076 49.8858 34.1713 48.6668 32.076C47.4477 29.9808 49.4858 26.4951 53.2382 24.3046C56.9906 22.1141 61.0096 22.0189 62.2477 24.1141Z" fill="url(#paint29_radial)"/>
<path d="M32.4192 33.8095C32.3049 33.5048 32.362 33.1429 32.5525 32.8762L38.4763 24.7048C38.9715 24.0191 38.4763 23.0857 37.6382 23.1048L27.2382 23.3714C27.0858 23.3714 26.9525 23.3143 26.8763 23.2L20.762 14.781C20.2668 14.0952 19.2192 14.2857 18.9715 15.0857L16.0192 25.0476C15.9811 25.181 15.8668 25.2952 15.7334 25.3333L5.84773 28.5524C5.04773 28.8191 4.89535 29.8667 5.58106 30.3429L14.1525 36.2286C14.2668 36.3048 14.343 36.4381 14.343 36.5905V46.9905C14.343 47.8286 15.2954 48.3048 15.962 47.7905L24.2096 41.4667C24.3239 41.3714 24.4763 41.3524 24.6096 41.3905L34.4954 44.6095C35.2954 44.8762 36.0382 44.0952 35.7715 43.3143L32.4192 33.8095ZM35.143 43.981C35.0858 44.0381 34.9335 44.1714 34.6858 44.0952L24.8001 40.8762C24.4763 40.781 24.1334 40.8381 23.8668 41.0286L15.6192 47.3714C15.4287 47.5238 15.2382 47.4476 15.162 47.4095C15.0858 47.3714 14.9144 47.2572 14.9144 47.0095V36.6095C14.9144 36.2857 14.743 35.9619 14.4763 35.7714L5.90487 29.8857C5.69535 29.7524 5.7144 29.5429 5.7144 29.4667C5.73345 29.3905 5.77154 29.181 6.01916 29.1048L15.9049 25.8857C16.2287 25.7905 16.4573 25.5238 16.5525 25.2191L19.5049 15.2572C19.5811 15.0286 19.7715 14.9714 19.8477 14.9524C19.8668 14.9524 19.8858 14.9524 19.9239 14.9524C20.0192 14.9524 20.1715 14.9905 20.2668 15.1429L26.3811 23.5619C26.5715 23.8286 26.8954 23.981 27.2192 23.981L37.6192 23.7143C37.6192 23.7143 37.6192 23.7143 37.6382 23.7143C37.8668 23.7143 37.9811 23.8857 38.0192 23.9429C38.0573 24.0191 38.1334 24.2095 37.9811 24.4L32.0382 32.5714C31.7334 32.9905 31.6573 33.5429 31.8287 34.0381L35.2001 43.5619C35.3144 43.7524 35.2001 43.9238 35.143 43.981Z" fill="url(#paint30_radial)"/>
<defs>
<radialGradient id="paint0_radial" cx="0" cy="0" r="1" gradientUnits="userSpaceOnUse" gradientTransform="translate(33.9695 27.649) scale(36.7656)">
<stop stop-color="#FFE030"/>
<stop offset="1" stop-color="#FFB92E"/>
</radialGradient>
<radialGradient id="paint1_radial" cx="0" cy="0" r="1" gradientUnits="userSpaceOnUse" gradientTransform="translate(33.9695 27.649) scale(28.9251)">
<stop stop-color="#FFEA5F"/>
<stop offset="1" stop-color="#FFBC47" stop-opacity="0"/>
</radialGradient>
<radialGradient id="paint2_radial" cx="0" cy="0" r="1" gradientUnits="userSpaceOnUse" gradientTransform="translate(39.9631 57.2824) scale(16.1933)">
<stop offset="0.00132565" stop-color="#7A4400"/>
<stop offset="1" stop-color="#643800"/>
</radialGradient>
<radialGradient id="paint3_radial" cx="0" cy="0" r="1" gradientUnits="userSpaceOnUse" gradientTransform="translate(40.1976 62.6656) scale(12.8839 3.89558)">
<stop offset="0.2479" stop-color="#FF0000"/>
<stop offset="1" stop-color="#C20000"/>
</radialGradient>
<linearGradient id="paint4_linear" x1="60.7938" y1="53.9324" x2="19.3912" y2="53.9324" gradientUnits="userSpaceOnUse">
<stop offset="0.00132565" stop-color="#3C2200"/>
<stop offset="0.5" stop-color="#512D00"/>
<stop offset="1" stop-color="#3C2200"/>
</linearGradient>
<radialGradient id="paint5_radial" cx="0" cy="0" r="1" gradientUnits="userSpaceOnUse" gradientTransform="translate(39.9642 52.7224) scale(35.5167)">
<stop offset="0.00132565" stop-color="white"/>
<stop offset="1" stop-color="#A9BCBE"/>
</radialGradient>
<radialGradient id="paint6_radial" cx="0" cy="0" r="1" gradientUnits="userSpaceOnUse" gradientTransform="translate(67.9921 38.9418) rotate(34.2288) scale(17.2949 17.4009)">
<stop stop-color="#FF8000" stop-opacity="0.5"/>
<stop offset="0.995" stop-color="#FF8000" stop-opacity="0"/>
</radialGradient>
<radialGradient id="paint7_radial" cx="0" cy="0" r="1" gradientUnits="userSpaceOnUse" gradientTransform="translate(11.9423 38.9474) rotate(145.771) scale(17.2949 17.4009)">
<stop stop-color="#FF8000" stop-opacity="0.5"/>
<stop offset="0.995" stop-color="#FF8000" stop-opacity="0"/>
</radialGradient>
<radialGradient id="paint8_radial" cx="0" cy="0" r="1" gradientUnits="userSpaceOnUse" gradientTransform="translate(54.4621 34.6846) rotate(180) scale(25.6368)">
<stop stop-color="white"/>
<stop offset="1" stop-color="white" stop-opacity="0"/>
</radialGradient>
<radialGradient id="paint9_radial" cx="0" cy="0" r="1" gradientUnits="userSpaceOnUse" gradientTransform="translate(58.813 27.1534) rotate(-170.266) scale(16.6121)">
<stop stop-color="#FFEA5F"/>
<stop offset="0.4904" stop-color="#FFE95D"/>
<stop offset="0.667" stop-color="#FFE756"/>
<stop offset="0.793" stop-color="#FFE34B"/>
<stop offset="0.8947" stop-color="#FEDD3A"/>
<stop offset="0.9809" stop-color="#FED524"/>
<stop offset="1" stop-color="#FED31E"/>
</radialGradient>
<radialGradient id="paint10_radial" cx="0" cy="0" r="1" gradientUnits="userSpaceOnUse" gradientTransform="translate(69.7904 35.6938) rotate(-130.782) scale(3.07234 8.27258)">
<stop stop-color="#D86D00"/>
<stop offset="0.3292" stop-color="#DC6C0A" stop-opacity="0.6708"/>
<stop offset="0.8792" stop-color="#E86823" stop-opacity="0.1208"/>
<stop offset="1" stop-color="#EB672A" stop-opacity="0"/>
</radialGradient>
<radialGradient id="paint11_radial" cx="0" cy="0" r="1" gradientUnits="userSpaceOnUse" gradientTransform="translate(50.6268 45.8981) rotate(-16.5811) scale(9.13376 4.32829)">
<stop stop-color="#D86D00"/>
<stop offset="0.3292" stop-color="#DC6C0A" stop-opacity="0.6708"/>
<stop offset="0.8792" stop-color="#E86823" stop-opacity="0.1208"/>
<stop offset="1" stop-color="#EB672A" stop-opacity="0"/>
</radialGradient>
<radialGradient id="paint12_radial" cx="0" cy="0" r="1" gradientUnits="userSpaceOnUse" gradientTransform="translate(53.7258 51.4111) rotate(12.5087) scale(12.0755 12.3797)">
<stop stop-color="#D86D00"/>
<stop offset="0.3292" stop-color="#DC6C0A" stop-opacity="0.6708"/>
<stop offset="0.8792" stop-color="#E86823" stop-opacity="0.1208"/>
<stop offset="1" stop-color="#EB672A" stop-opacity="0"/>
</radialGradient>
<radialGradient id="paint13_radial" cx="0" cy="0" r="1" gradientUnits="userSpaceOnUse" gradientTransform="translate(52.0835 37.4883) rotate(31.2857) scale(12.7681 9.65073)">
<stop stop-color="#FFA754"/>
<stop offset="0.3697" stop-color="#FFB152" stop-opacity="0.6303"/>
<stop offset="0.9874" stop-color="#FFCA4B" stop-opacity="0.0126062"/>
<stop offset="1" stop-color="#FFCB4B" stop-opacity="0"/>
</radialGradient>
<radialGradient id="paint14_radial" cx="0" cy="0" r="1" gradientUnits="userSpaceOnUse" gradientTransform="translate(59.3927 26.8288) rotate(31.2857) scale(7.69288 5.81465)">
<stop stop-color="white"/>
<stop offset="1" stop-color="white" stop-opacity="0"/>
</radialGradient>
<radialGradient id="paint15_radial" cx="0" cy="0" r="1" gradientUnits="userSpaceOnUse" gradientTransform="translate(69.9666 19.5098) rotate(56.5612) scale(12.0323 8.28065)">
<stop stop-color="#ED9900"/>
<stop offset="1" stop-color="#ED9900" stop-opacity="0"/>
</radialGradient>
<radialGradient id="paint16_radial" cx="0" cy="0" r="1" gradientUnits="userSpaceOnUse" gradientTransform="translate(57.2882 30.9938) rotate(180) scale(14.2364)">
<stop stop-color="#A3541E" stop-opacity="0.5"/>
<stop offset="0.5109" stop-color="#A5551D" stop-opacity="0.7555"/>
<stop offset="0.695" stop-color="#AC5819" stop-opacity="0.8475"/>
<stop offset="0.8261" stop-color="#B75E12" stop-opacity="0.9131"/>
<stop offset="0.9315" stop-color="#C86609" stop-opacity="0.9657"/>
<stop offset="1" stop-color="#D86D00"/>
</radialGradient>
<radialGradient id="paint17_radial" cx="0" cy="0" r="1" gradientUnits="userSpaceOnUse" gradientTransform="translate(25.4691 34.6847) scale(25.6368)">
<stop stop-color="white"/>
<stop offset="1" stop-color="white" stop-opacity="0"/>
</radialGradient>
<radialGradient id="paint18_radial" cx="0" cy="0" r="1" gradientUnits="userSpaceOnUse" gradientTransform="translate(21.1207 27.1537) rotate(-9.73431) scale(16.6121)">
<stop stop-color="#FFEA5F"/>
<stop offset="0.4904" stop-color="#FFE95D"/>
<stop offset="0.667" stop-color="#FFE756"/>
<stop offset="0.793" stop-color="#FFE34B"/>
<stop offset="0.8947" stop-color="#FEDD3A"/>
<stop offset="0.9809" stop-color="#FED524"/>
<stop offset="1" stop-color="#FED31E"/>
</radialGradient>
<radialGradient id="paint19_radial" cx="0" cy="0" r="1" gradientUnits="userSpaceOnUse" gradientTransform="translate(10.1429 35.6925) rotate(-49.2176) scale(3.07235 8.27259)">
<stop stop-color="#D86D00"/>
<stop offset="0.3292" stop-color="#DC6C0A" stop-opacity="0.6708"/>
<stop offset="0.8792" stop-color="#E86823" stop-opacity="0.1208"/>
<stop offset="1" stop-color="#EB672A" stop-opacity="0"/>
</radialGradient>
<radialGradient id="paint20_radial" cx="0" cy="0" r="1" gradientUnits="userSpaceOnUse" gradientTransform="translate(35.7099 31.7973) rotate(-150.251) scale(3.0725 8.2725)">
<stop stop-color="#D86D00"/>
<stop offset="0.3292" stop-color="#DC6C0A" stop-opacity="0.6708"/>
<stop offset="0.8792" stop-color="#E86823" stop-opacity="0.1208"/>
<stop offset="1" stop-color="#EB672A" stop-opacity="0"/>
</radialGradient>
<radialGradient id="paint21_radial" cx="0" cy="0" r="1" gradientUnits="userSpaceOnUse" gradientTransform="translate(30.7362 15.9596) rotate(37.0947) scale(12.0305 8.28054)">
<stop stop-color="#ED9900"/>
<stop offset="1" stop-color="#ED9900" stop-opacity="0"/>
</radialGradient>
<radialGradient id="paint22_radial" cx="0" cy="0" r="1" gradientUnits="userSpaceOnUse" gradientTransform="translate(29.3053 45.8932) rotate(-163.419) scale(9.13376 4.32829)">
<stop stop-color="#D86D00"/>
<stop offset="0.3292" stop-color="#DC6C0A" stop-opacity="0.6708"/>
<stop offset="0.8792" stop-color="#E86823" stop-opacity="0.1208"/>
<stop offset="1" stop-color="#EB672A" stop-opacity="0"/>
</radialGradient>
<radialGradient id="paint23_radial" cx="0" cy="0" r="1" gradientUnits="userSpaceOnUse" gradientTransform="translate(26.2087 51.4109) rotate(167.491) scale(12.0755 12.3797)">
<stop stop-color="#D86D00"/>
<stop offset="0.3292" stop-color="#DC6C0A" stop-opacity="0.6708"/>
<stop offset="0.8792" stop-color="#E86823" stop-opacity="0.1208"/>
<stop offset="1" stop-color="#EB672A" stop-opacity="0"/>
</radialGradient>
<radialGradient id="paint24_radial" cx="0" cy="0" r="1" gradientUnits="userSpaceOnUse" gradientTransform="translate(27.8518 37.493) rotate(148.714) scale(12.7681 9.65073)">
<stop stop-color="#FFA754"/>
<stop offset="0.3697" stop-color="#FFB152" stop-opacity="0.6303"/>
<stop offset="0.9874" stop-color="#FFCA4B" stop-opacity="0.0126062"/>
<stop offset="1" stop-color="#FFCB4B" stop-opacity="0"/>
</radialGradient>
<radialGradient id="paint25_radial" cx="0" cy="0" r="1" gradientUnits="userSpaceOnUse" gradientTransform="translate(20.5426 26.8335) rotate(148.714) scale(7.69288 5.81465)">
<stop stop-color="white"/>
<stop offset="1" stop-color="white" stop-opacity="0"/>
</radialGradient>
<radialGradient id="paint26_radial" cx="0" cy="0" r="1" gradientUnits="userSpaceOnUse" gradientTransform="translate(9.96912 19.5054) rotate(123.439) scale(12.0323 8.28064)">
<stop stop-color="#ED9900"/>
<stop offset="1" stop-color="#ED9900" stop-opacity="0"/>
</radialGradient>
<radialGradient id="paint27_radial" cx="0" cy="0" r="1" gradientUnits="userSpaceOnUse" gradientTransform="translate(44.2254 31.7952) rotate(-29.7489) scale(3.0725 8.2725)">
<stop stop-color="#D86D00"/>
<stop offset="0.3292" stop-color="#DC6C0A" stop-opacity="0.6708"/>
<stop offset="0.8792" stop-color="#E86823" stop-opacity="0.1208"/>
<stop offset="1" stop-color="#EB672A" stop-opacity="0"/>
</radialGradient>
<radialGradient id="paint28_radial" cx="0" cy="0" r="1" gradientUnits="userSpaceOnUse" gradientTransform="translate(19.5146 29.0835) rotate(-31.91) scale(7.92832 4.2672)">
<stop stop-color="white" stop-opacity="0.5"/>
<stop offset="0.995" stop-color="white" stop-opacity="0"/>
</radialGradient>
<radialGradient id="paint29_radial" cx="0" cy="0" r="1" gradientUnits="userSpaceOnUse" gradientTransform="translate(55.451 28.0368) rotate(-31.91) scale(7.92833 4.26721)">
<stop stop-color="white" stop-opacity="0.5"/>
<stop offset="0.995" stop-color="white" stop-opacity="0"/>
</radialGradient>
<radialGradient id="paint30_radial" cx="0" cy="0" r="1" gradientUnits="userSpaceOnUse" gradientTransform="translate(22.6434 30.9938) scale(14.2364)">
<stop stop-color="#A3541E" stop-opacity="0.5"/>
<stop offset="0.5109" stop-color="#A5551D" stop-opacity="0.7555"/>
<stop offset="0.695" stop-color="#AC5819" stop-opacity="0.8475"/>
<stop offset="0.8261" stop-color="#B75E12" stop-opacity="0.9131"/>
<stop offset="0.9315" stop-color="#C86609" stop-opacity="0.9657"/>
<stop offset="1" stop-color="#D86D00"/>
</radialGradient>
</defs>
</svg>
