<svg width="80" height="80" viewBox="0 0 80 80" fill="none" xmlns="http://www.w3.org/2000/svg">
<path d="M39.8084 72.0002C37.3296 72.0002 36.3871 70.0162 36.5803 66.1755C36.7075 63.6449 37.5605 56.5808 33.9837 53.004C30.6472 49.6675 29.6764 49.9644 25.8781 45.6571C22.0798 41.3499 18.913 42.2358 14.4785 42.6175C8.9083 43.0935 10.8075 12.1934 14.733 12.7306C17.5181 13.1124 23.8517 13.8711 24.8649 13.8711C25.8781 13.8711 32.8244 8.48936 38.9224 8.42338C48.7999 8.3197 54.2476 10.0681 54.2476 10.0681L57.1411 16.6326L58.1072 36.6562L53.4842 46.2886C53.4842 46.2886 47.2778 45.2754 45.5058 48.0605C43.7339 50.8456 46.9008 54.2669 46.9008 62.2452C46.9008 70.2236 41.0761 72.0002 39.8084 72.0002Z" fill="url(#paint0_linear)"/>
<path d="M54.5916 10.1292L54.2146 11.5005C53.1025 11.6184 51.6699 11.1141 49.7142 11.1283C40.3739 11.1989 31.4437 13.8804 27.6124 16.9153C25.1053 18.8992 24.0026 21.5477 22.2307 20.7842C20.044 19.8464 13.8376 18.3903 11.5568 21.2743C12.193 16.3309 13.3334 12.5373 14.733 12.7305C17.5181 13.1122 23.8518 13.871 24.865 13.871C25.8782 13.871 32.6312 8.63061 38.9225 8.42326C47.061 8.15936 54.29 9.55898 54.29 9.55898L54.5916 10.1292Z" fill="url(#paint1_linear)"/>
<path d="M45.5058 48.0649C43.7339 50.8501 46.9007 54.2714 46.9007 62.2497C46.9007 70.228 41.076 71.9999 39.8083 71.9999C39.4738 71.9999 39.1769 71.9622 38.913 71.8915C44.0779 71.5664 47.1929 65.0536 45.4115 58.3336C43.9648 52.8812 43.2485 48.5126 45.6048 45.9443C47.1316 44.2855 50.1665 44.5682 53.4888 46.2883C53.4841 46.2883 47.2777 45.2751 45.5058 48.0649Z" fill="url(#paint2_linear)"/>
<path d="M45.8545 45.2184C42.815 44.2052 35.1382 41.8207 29.323 36.5473C14.5916 23.1873 39.7471 21.5143 44.9403 10.0864C45.9347 7.89983 51.7405 21.5426 51.7405 21.5426L53.6161 24.7L48.192 39.1439L45.8545 45.2184Z" fill="url(#paint3_linear)"/>
<path d="M46.3023 44.0639C43.2627 43.0508 30.8452 35.096 30.8452 31.1705C30.8452 19.8368 39.4456 25.4306 44.0922 12.0564C44.7378 10.2044 47.0092 8.64453 47.0092 8.64453C48.8942 10.1808 51.7453 21.5475 51.7453 21.5475L53.6209 24.7049L48.1968 39.1488L46.3023 44.0639Z" fill="url(#paint4_linear)"/>
<path d="M53.3146 9.3186L59.1346 15.968L60.4164 43.7531L45.8546 45.2187C42.5135 43.4185 42.127 40.9586 43.3664 37.0095C43.8895 35.3459 41.7642 34.87 41.6275 30.0302C41.5333 26.6749 43.7293 26.656 43.7293 25.6617C43.7293 24.6626 42.636 24.7521 42.2731 21.8634C41.7547 17.7305 45.2185 17.6504 45.2185 16.7644C45.2185 15.8784 43.2957 15.3554 43.4136 11.9859C43.5644 7.71162 35.6237 8.57402 30.2562 12.4666C28.0507 14.0641 26.128 14.2291 24.6294 13.8662C24.7236 13.8709 24.8038 13.8756 24.8603 13.8756C25.8735 13.8756 32.6784 8.55988 38.9178 8.42793C46.3023 8.2677 51.2646 8.85206 53.3146 9.3186Z" fill="url(#paint5_linear)"/>
<path d="M54.6529 43.39C50.1572 43.39 47.6878 38.9979 49.3984 35.619C51.1091 32.2401 46.2316 27.7773 46.7406 25.5766C47.2448 23.3758 48.1355 17.8103 48.8282 16.8914C49.5257 15.9724 47.6878 13.8801 47.6878 13.8801L53.3852 13.1826L58.7057 15.5295L58.5172 31.6133L59.0874 41.684L54.6529 43.39Z" fill="url(#paint6_linear)"/>
<path d="M39.8084 71.9996C37.3297 71.9996 36.3871 70.0157 36.5804 66.1749C36.7076 63.6443 37.5606 56.5802 33.9837 53.0034C30.6473 49.6669 29.6765 49.9638 25.8782 45.6566C23.4088 42.8573 21.2081 42.2541 18.7575 42.2777C17.4333 42.2918 16.0337 42.485 14.4833 42.617C14.4833 41.6556 14.766 41.6792 18.4371 40.666C18.8565 40.5482 19.2571 40.4728 19.6435 40.4209C19.832 39.8413 19.9357 39.2475 19.9074 38.6632C19.7755 35.4634 20.4776 31.5237 21.0149 35.6236C21.2222 37.2117 21.8772 38.993 22.8009 40.7932C24.1911 41.3493 25.3174 42.3908 26.3165 43.6066C28.1826 45.8733 29.799 47.8809 34.4833 50.9205C39.1675 53.9601 38.569 62.3201 38.1873 65.1052C37.8056 67.8903 38.0648 71.9996 39.8084 71.9996Z" fill="url(#paint7_linear)"/>
<path d="M58.06 46.4154C52.7442 46.618 43.1872 46.9196 42.9751 41.3494C42.8196 37.3108 45.6849 35.9866 50.1146 35.8169C54.5444 35.6473 56.7593 35.5624 58.5925 35.4917C60.4257 35.4211 66.1985 35.4588 66.2551 40.3315C66.3258 46.4295 58.06 46.4154 58.06 46.4154Z" fill="url(#paint8_linear)"/>
<path d="M49.3183 26.2836C47.8951 26.326 43.6633 25.2563 43.2674 22.5701C42.9564 20.4542 44.0355 17.7256 47.716 17.08C52.3814 16.2647 60.1524 15.8359 63.0601 16.9245C64.356 17.4099 65.487 18.7671 65.5483 20.8265C65.6095 22.8859 64.0732 25.6615 60.7509 25.7558C57.4286 25.85 55.6944 25.7982 53.7999 26.0244C51.5238 26.293 50.454 26.2506 49.3183 26.2836Z" fill="url(#paint9_linear)"/>
<path d="M47.8338 16.8917C46.2174 16.8917 44.224 15.4685 44.224 13.0934C44.224 10.7183 44.8413 8.9605 48.3098 8.29603C51.7782 7.63156 57.3343 8.20178 59.4219 8.86625C61.0478 9.38463 61.6557 10.9068 61.6557 13.4233C61.6557 15.9398 60.0864 16.378 58.3805 16.378C56.6745 16.378 54.5963 16.067 53.4087 16.1283C50.0958 16.3073 49.4502 16.8917 47.8338 16.8917Z" fill="url(#paint10_linear)"/>
<path d="M57.6077 45.2938C52.9658 45.4729 44.6199 45.7368 44.455 41.3353C44.3325 38.1449 46.8395 37.0846 50.7085 36.9385C54.5775 36.7924 64.7519 36.6039 64.7849 40.4587C64.8273 45.2749 57.6077 45.2938 57.6077 45.2938Z" fill="url(#paint11_linear)"/>
<path d="M49.7424 25.1531C48.503 25.1908 45.0299 24.8939 44.6953 22.3256C44.4691 20.5867 45.3692 18.3576 48.5784 17.8251C52.6406 17.1512 59.4079 16.7884 61.9338 17.6743C63.0601 18.0702 64.045 19.1823 64.0921 20.8647C64.1392 22.5518 62.5888 24.6206 59.6953 24.7054C56.8018 24.7903 55.2655 24.5216 53.6161 24.7054C51.6369 24.9269 50.7368 25.1201 49.7424 25.1531Z" fill="url(#paint12_linear)"/>
<path d="M48.5219 16.0243C47.127 16.0243 45.3975 14.8792 45.3975 12.9659C45.3975 11.0526 45.93 9.63884 48.9319 9.10161C51.929 8.56438 56.7358 9.02621 58.5454 9.55872C59.9545 9.97814 60.4776 11.2034 60.4776 13.2298C60.4776 15.2562 59.1204 15.6096 57.6453 15.6096C56.1703 15.6096 54.3701 15.3599 53.3475 15.407C50.4823 15.5531 49.9215 16.0243 48.5219 16.0243Z" fill="url(#paint13_linear)"/>
<path d="M18.1779 13.1688C14.4408 14.7758 10.9441 36.7833 17.8386 42.3111C16.7877 42.3771 15.6802 42.5138 14.4785 42.6175C8.9083 43.0934 10.8075 12.1933 14.733 12.7306C15.6189 12.8484 16.8631 13.0086 18.1779 13.1688Z" fill="url(#paint14_linear)"/>
<path d="M47.6735 41.3311C47.7914 44.366 50.2089 45.8175 53.2626 46.4866C48.3851 46.3735 43.1307 45.464 42.9751 41.35C42.8196 37.3113 45.6849 35.9871 50.1146 35.8175C50.6 35.7986 51.0619 35.7798 51.5001 35.7656C49.0072 36.4961 47.551 38.136 47.6735 41.3311Z" fill="url(#paint15_linear)"/>
<path opacity="0.16" d="M40.5295 14.0313C39.7802 12.3065 36.2081 12.1981 32.5512 13.7909C28.8943 15.3838 26.538 18.0699 27.292 19.7947C28.046 21.5195 31.6134 21.6279 35.2703 20.0351C38.9272 18.4422 41.2835 15.7561 40.5295 14.0313Z" fill="url(#paint16_radial)"/>
<path opacity="0.16" d="M62.0421 40.5202C62.0044 38.1922 58.8895 37.0847 55.4776 36.8774C52.6878 36.7077 49.5963 38.6823 49.6765 40.9584C49.7566 43.2346 50.1618 45.2515 55.9535 45.0489C59.3701 44.9311 62.0751 42.7963 62.0421 40.5202Z" fill="url(#paint17_radial)"/>
<path opacity="0.16" d="M62.6595 20.0351C62.6407 16.807 59.0921 17.4291 55.685 17.2029C51.3636 16.9201 48.4984 18.2632 48.4937 20.5394C48.4937 22.8155 50.1336 24.4743 55.93 24.4837C59.3466 24.4932 62.6831 24.1821 62.6595 20.0351Z" fill="url(#paint18_radial)"/>
<path opacity="0.16" d="M59.535 11.9011C59.5161 9.14899 56.2928 8.7767 53.239 8.77198C50.1853 8.76727 46.8677 10.3884 46.8677 12.3299C46.8677 14.2715 48.3333 15.6853 53.5171 15.6947C56.5708 15.7041 59.5585 15.4355 59.535 11.9011Z" fill="url(#paint19_radial)"/>
<path d="M47.2259 21.9199C47.7113 25.5909 50.5294 25.3789 53.7622 25.7606C50.044 26.0386 48.4841 26.081 48.4841 26.081C48.1354 26.114 47.749 26.1187 47.3437 26.0763C46.1373 25.8124 44.766 25.261 43.9554 24.229C43.6774 23.8379 43.4559 23.3713 43.3098 22.8247C43.2956 22.7445 43.2815 22.6644 43.2674 22.5796C43.0035 20.459 44.0355 17.7351 47.716 17.0895C48.2485 16.9953 48.8187 16.9104 49.4219 16.8256C49.7094 16.7879 50.0204 16.7502 50.3597 16.7078C50.4493 16.6984 50.5388 16.6842 50.6331 16.6748C48.5973 17.6314 46.8725 19.2196 47.2259 21.9199Z" fill="url(#paint20_linear)"/>
<path opacity="0.5" d="M51.3211 16.331C49.7 16.5666 49.0308 16.8918 47.8338 16.8918C46.2174 16.8918 44.224 15.4686 44.224 13.0935C44.224 12.2311 44.3041 11.4488 44.5774 10.7749C44.8508 10.2141 45.2466 9.69104 45.7933 9.25277C46.3918 8.83336 47.207 8.51291 48.3098 8.30084C49.0496 8.15947 49.8885 8.07464 50.765 8.03223C49.0685 9.01715 46.1985 9.54495 46.8018 12.839C47.4662 16.4771 49.6387 15.9823 51.3211 16.331Z" fill="url(#paint21_linear)"/>
<path d="M47.7631 16.8917C46.1608 16.8493 44.224 15.4355 44.224 13.0934C44.224 10.9162 44.7424 9.26211 47.4992 8.48926C43.1967 11.2508 44.5774 15.9115 47.7631 16.8917Z" fill="url(#paint22_linear)"/>
<path d="M66.2552 40.3364C66.2599 40.8831 66.1986 41.3779 66.0855 41.8303C66.5143 39.9264 64.8178 38.0367 60.3221 37.1178C57.3437 36.5098 49.4314 35.7511 43.9554 37.9236C45.1383 36.4957 47.3108 35.9255 50.1147 35.8171C54.5445 35.6475 56.7594 35.5626 58.5926 35.4919C60.4305 35.426 66.1986 35.4637 66.2552 40.3364Z" fill="url(#paint23_linear)"/>
<path d="M65.5435 20.9585C65.5388 23.0037 64.0025 25.6616 60.7509 25.7559C57.4286 25.8501 55.6943 25.7983 53.7999 26.0245C51.5237 26.2931 50.454 26.2507 49.3136 26.2837C48.4512 26.3072 46.3305 26.048 44.8838 25.1527C46.5096 24.5871 49.1533 23.7436 52.8762 23.9792C61.8018 24.5542 64.3418 23.475 65.5435 20.9585Z" fill="url(#paint24_linear)"/>
<path d="M47.405 35.5017C45.5058 35.5394 42.4898 34.4226 42.4097 30.4782C42.3296 26.5385 45.7792 25.596 47.3013 25.5677C48.8187 25.5394 54.1345 25.1766 60.6849 25.0446C67.2353 24.9127 68.1166 28.4282 68.1543 30.2708C68.192 32.1134 67.0233 35.4452 63.0836 35.5253C51.684 35.7515 47.405 35.5017 47.405 35.5017Z" fill="url(#paint25_linear)"/>
<path d="M48.4229 34.3566C46.7735 34.3895 44.1534 33.5319 44.0921 30.4923C44.0308 27.4527 47.0327 26.7175 48.3522 26.694C49.6717 26.6657 53.7999 26.0295 59.9875 26.2651C65.6802 26.4819 66.439 28.8617 66.4672 30.2849C66.4955 31.7081 66.2976 34.2812 62.8716 34.3471C52.9658 34.5403 48.4229 34.3566 48.4229 34.3566Z" fill="url(#paint26_linear)"/>
<path d="M46.486 30.8551C46.6745 34.9032 49.5021 34.9126 52.6924 35.6148C48.9648 35.5912 47.405 35.497 47.405 35.497C45.5058 35.5347 42.4898 34.4178 42.4097 30.4734C42.3296 26.529 45.7792 25.5912 47.3013 25.5629C47.848 25.5535 48.8894 25.497 50.3032 25.4263C48.1967 26.2981 46.3447 27.8815 46.486 30.8551Z" fill="url(#paint27_linear)"/>
<path opacity="0.16" d="M64.8131 30.4399C64.945 27.2166 61.3635 26.6086 57.9516 26.4484C54.5397 26.2835 50.7461 28.0083 50.6378 30.2844C50.5294 32.5606 52.0939 34.2948 57.8809 34.5728C61.2975 34.7378 64.6481 34.5775 64.8131 30.4399Z" fill="url(#paint28_radial)"/>
<path opacity="0.5" d="M68.1402 30.6667C67.3155 24.8326 51.8961 25.9023 43.5643 27.1558C44.6906 25.9494 46.3636 25.5866 47.3014 25.5677C48.8188 25.5394 54.1345 25.1766 60.685 25.0446C67.2354 24.9127 68.1166 28.4282 68.1543 30.2708C68.1543 30.3981 68.1496 30.53 68.1402 30.6667Z" fill="url(#paint29_linear)"/>
<path opacity="0.5" d="M60.4163 17.6787C57.4286 17.5467 49.5256 16.5665 43.7622 19.6532C44.4031 18.461 45.6519 17.443 47.7113 17.0849C52.3767 16.2696 60.1477 15.8408 63.0553 16.9294C64.3513 17.4148 65.4823 18.772 65.5435 20.8314C65.3503 19.0359 63.6444 17.8248 60.4163 17.6787Z" fill="url(#paint30_linear)"/>
<path d="M61.4248 11.199C59.4691 9.70979 56.0855 8.82855 51.2033 9.65324C48.1873 10.1622 46.1232 10.3366 44.766 10.3743C45.3079 9.39405 46.3588 8.67304 48.3098 8.29603C51.7782 7.63156 57.3343 8.20178 59.422 8.86625C60.4917 9.21026 61.1185 9.98783 61.4248 11.199Z" fill="url(#paint31_linear)"/>
<path d="M44.865 15.228C48.4795 16.5428 50.2561 14.5918 54.1251 14.5918C58.1449 14.5918 60.0582 16.2129 61.4861 14.6719C61.0384 16.0951 59.7566 16.3826 58.3805 16.3826C56.6699 16.3826 54.5964 16.0715 53.4088 16.1328C50.1006 16.3072 49.4503 16.8915 47.8386 16.8915C46.7877 16.8915 45.586 16.293 44.865 15.228Z" fill="url(#paint32_linear)"/>
<path d="M14.733 12.7306C17.5182 13.1123 23.8518 13.871 24.865 13.871C15.6803 20.4356 19.766 34.3988 23.1543 41.4629C23.6303 42.4525 23.9225 43.2678 24.0827 43.9605C21.0243 41.6278 18.2015 42.3017 14.4833 42.6222C8.90835 43.0934 10.8075 12.1933 14.733 12.7306Z" fill="url(#paint33_linear)"/>
<path d="M20.5247 19.0733C19.5727 20.341 20.3974 17.6171 21.1561 15.652C21.8018 13.9838 16.8489 14.9687 13.0553 14.5587C13.5501 13.3335 14.1156 12.6454 14.733 12.7255C17.5181 13.1073 23.8517 13.866 24.8649 13.866C23.437 15.0818 21.4719 17.8057 20.5247 19.0733Z" fill="url(#paint34_linear)"/>
<path opacity="0.16" d="M42.7632 60.3839C40.9583 59.9927 39.4974 62.4856 38.668 65.398C37.9941 67.7778 38.9083 70.808 40.685 71.1473C42.4616 71.4866 44.0921 71.5054 45.0723 66.463C45.6426 63.4894 44.5257 60.7656 42.7632 60.3839Z" fill="url(#paint35_radial)"/>
<path d="M47.7963 16.9106C46.8019 16.8069 45.9018 16.2744 45.2845 15.5439C44.6577 14.8041 44.3655 13.8427 44.4268 12.8719C44.4315 11.8964 44.5776 10.9021 45.1337 10.1104C45.6803 9.31397 46.604 8.83801 47.5324 8.50342C46.5757 8.72019 45.5719 9.11605 44.931 9.95488C44.2807 10.7843 44.1299 11.8682 44.0969 12.8578C44.0545 13.8757 44.3797 14.9549 45.096 15.7042C45.7934 16.4629 46.7972 16.9294 47.7963 16.9106Z" fill="#804B24"/>
<path d="M46.2035 25.7421C45.5484 25.4594 44.9452 25.0682 44.4504 24.5875C43.9415 24.1116 43.6729 23.4565 43.4844 22.7921V22.8015C43.244 21.5904 43.4466 20.3038 44.1582 19.3001C44.851 18.2822 45.9773 17.613 47.1743 17.2266C45.9396 17.4622 44.7002 18.0654 43.9226 19.1351C43.5362 19.6629 43.2676 20.2756 43.1403 20.9212C43.0084 21.5668 43.0696 22.236 43.1922 22.8628L43.1969 22.8722C43.3901 23.5696 43.7388 24.2671 44.3091 24.7383C44.8557 25.2237 45.5296 25.5253 46.2035 25.7421Z" fill="#804B24"/>
<path d="M47.0847 35.5111C45.9113 35.3792 44.7756 34.8891 43.9651 34.0691C43.1545 33.2491 42.7162 32.1181 42.6455 30.9635C42.5277 29.8136 42.7115 28.6167 43.3713 27.6647C44.0169 26.7081 45.0772 26.0672 46.2129 25.7373C45.0536 25.9494 43.8991 26.5196 43.1639 27.5186C42.4146 28.5083 42.2167 29.7995 42.3157 30.9965C42.4146 32.1982 42.8859 33.4235 43.7907 34.2576C44.6861 35.0917 45.9019 35.497 47.0847 35.5111Z" fill="#804B24"/>
<path d="M48.1263 45.9588C46.8727 45.6148 45.6239 45.1388 44.6343 44.3282C43.6352 43.5177 43.0933 42.2689 43.1781 40.9871C43.164 39.7147 43.5787 38.4187 44.5448 37.5705C45.4967 36.7175 46.7832 36.3028 48.0556 36.0342C46.7691 36.185 45.426 36.5101 44.3798 37.3773C43.3054 38.2349 42.853 39.6628 42.8482 40.9823C42.7776 42.3207 43.3808 43.725 44.4741 44.5262C45.5438 45.3414 46.8445 45.7326 48.1263 45.9588Z" fill="#804B24"/>
<path d="M43.8 19.6719C44.6624 18.1733 46.326 17.4004 47.9659 17.1789C49.6342 16.9197 51.3165 16.7454 53.0036 16.637C54.686 16.4956 56.3778 16.4061 58.0649 16.4108C58.9084 16.4202 59.7567 16.4438 60.5955 16.5239C61.4344 16.5899 62.2826 16.6794 63.0885 16.9433C61.4909 16.3448 59.7567 16.2458 58.0696 16.1893C56.3731 16.1469 54.6719 16.194 52.9754 16.3024C51.2836 16.4485 49.5965 16.6605 47.9235 16.9574C47.0847 17.0941 46.2459 17.358 45.506 17.8057C44.785 18.2628 44.1818 18.9131 43.8 19.6719Z" fill="#804B24"/>
<path d="M43.6022 27.1741C44.2478 26.5285 45.0819 26.1043 45.9537 25.8876C46.8208 25.6284 47.7304 25.6849 48.6446 25.6425L54.1064 25.487L59.5682 25.2184C61.3778 25.11 63.2252 25.0817 64.9594 25.6755C63.2676 24.9545 61.3684 24.8979 59.5635 24.9969L54.1017 25.1571L48.6399 25.4257C47.7398 25.487 46.7973 25.4446 45.9113 25.732C45.0301 26.0054 44.2101 26.4908 43.6022 27.1741Z" fill="#804B24"/>
<path d="M63.1167 35.5442C61.8114 35.5395 60.5013 35.5018 59.1959 35.5159L55.2751 35.5065L51.359 35.4547C50.0536 35.4452 48.7482 35.4405 47.4476 35.3887H47.4381C46.1516 35.4075 44.8227 34.9693 43.899 34.0503C42.9565 33.1408 42.5088 31.8166 42.4523 30.4971C42.4617 31.1568 42.5324 31.826 42.735 32.4669C42.9424 33.1031 43.2911 33.7016 43.7671 34.1823C44.719 35.1578 46.0904 35.6432 47.4429 35.6479H47.4334C50.0489 35.8034 52.6643 35.8081 55.2798 35.7657C57.8905 35.7374 60.506 35.6856 63.1167 35.5442Z" fill="#804B24"/>
<defs>
<linearGradient id="paint0_linear" x1="53.6901" y1="40.7384" x2="34.638" y2="39.9735" gradientUnits="userSpaceOnUse">
<stop offset="0.00132565" stop-color="#BE8D68"/>
<stop offset="1" stop-color="#CD9870"/>
</linearGradient>
<linearGradient id="paint1_linear" x1="22.0686" y1="-11.9999" x2="33.0868" y2="15.7356" gradientUnits="userSpaceOnUse">
<stop stop-color="#B37E53"/>
<stop offset="1" stop-color="#CD9870"/>
</linearGradient>
<linearGradient id="paint2_linear" x1="58.1887" y1="73.2294" x2="19.3083" y2="27.3836" gradientUnits="userSpaceOnUse">
<stop stop-color="#A46C3F" stop-opacity="0"/>
<stop offset="1" stop-color="#804B24"/>
</linearGradient>
<linearGradient id="paint3_linear" x1="87.7631" y1="28.0203" x2="21.6538" y2="27.2604" gradientUnits="userSpaceOnUse">
<stop stop-color="#B37E53"/>
<stop offset="1" stop-color="#CD9870"/>
</linearGradient>
<linearGradient id="paint4_linear" x1="75.9618" y1="27.126" x2="18.4011" y2="25.6062" gradientUnits="userSpaceOnUse">
<stop stop-color="#B37E53"/>
<stop offset="1" stop-color="#CD9870"/>
</linearGradient>
<linearGradient id="paint5_linear" x1="16.5607" y1="29.0889" x2="112.305" y2="20.6353" gradientUnits="userSpaceOnUse">
<stop stop-color="#473226" stop-opacity="0"/>
<stop offset="1" stop-color="#3D2A20"/>
</linearGradient>
<linearGradient id="paint6_linear" x1="45.0327" y1="27.1344" x2="58.1836" y2="28.8623" gradientUnits="userSpaceOnUse">
<stop stop-color="#643800" stop-opacity="0"/>
<stop offset="1" stop-color="#643800"/>
</linearGradient>
<linearGradient id="paint7_linear" x1="3.01545" y1="65.3868" x2="49.3679" y2="44.1103" gradientUnits="userSpaceOnUse">
<stop stop-color="#B37E53"/>
<stop offset="1" stop-color="#CD9870"/>
</linearGradient>
<linearGradient id="paint8_linear" x1="54.6239" y1="37.8242" x2="54.5605" y2="53.8132" gradientUnits="userSpaceOnUse">
<stop offset="0.00132565" stop-color="#BE8D68"/>
<stop offset="1" stop-color="#CD9870"/>
</linearGradient>
<linearGradient id="paint9_linear" x1="71.7589" y1="19.8149" x2="51.4797" y2="21.5721" gradientUnits="userSpaceOnUse">
<stop offset="0.00132565" stop-color="#BE8D68"/>
<stop offset="1" stop-color="#CD9870"/>
</linearGradient>
<linearGradient id="paint10_linear" x1="70.0548" y1="12.0719" x2="52.1027" y2="12.4044" gradientUnits="userSpaceOnUse">
<stop offset="0.00132565" stop-color="#BE8D68"/>
<stop offset="1" stop-color="#CD9870"/>
</linearGradient>
<linearGradient id="paint11_linear" x1="51.9423" y1="31.0258" x2="56.185" y2="46.73" gradientUnits="userSpaceOnUse">
<stop stop-color="#B37E53"/>
<stop offset="1" stop-color="#CD9870"/>
</linearGradient>
<linearGradient id="paint12_linear" x1="51.1044" y1="11.2377" x2="55.6004" y2="25.1054" gradientUnits="userSpaceOnUse">
<stop stop-color="#B37E53"/>
<stop offset="1" stop-color="#CD9870"/>
</linearGradient>
<linearGradient id="paint13_linear" x1="49.0982" y1="-4.0525" x2="53.7524" y2="16.3692" gradientUnits="userSpaceOnUse">
<stop stop-color="#B37E53"/>
<stop offset="1" stop-color="#CD9870"/>
</linearGradient>
<linearGradient id="paint14_linear" x1="20.4073" y1="32.8237" x2="3.59499" y2="14.3018" gradientUnits="userSpaceOnUse">
<stop offset="0.3105" stop-color="#D2A374" stop-opacity="0"/>
<stop offset="1" stop-color="#B88653"/>
</linearGradient>
<linearGradient id="paint15_linear" x1="52.9151" y1="41.2606" x2="39.3323" y2="39.7408" gradientUnits="userSpaceOnUse">
<stop offset="0.3131" stop-color="#8D562E" stop-opacity="0"/>
<stop offset="1" stop-color="#8D562E"/>
</linearGradient>
<radialGradient id="paint16_radial" cx="0" cy="0" r="1" gradientUnits="userSpaceOnUse" gradientTransform="translate(33.9312 16.913) rotate(-7.5619) scale(5.64393 2.6824)">
<stop stop-color="#F8DBBA"/>
<stop offset="1" stop-color="#CD9870" stop-opacity="0"/>
</radialGradient>
<radialGradient id="paint17_radial" cx="0" cy="0" r="1" gradientUnits="userSpaceOnUse" gradientTransform="translate(55.8847 40.9447) rotate(-2.02658) scale(6.34899 4.16592)">
<stop stop-color="#F8DBBA"/>
<stop offset="1" stop-color="#CD9870" stop-opacity="0"/>
</radialGradient>
<radialGradient id="paint18_radial" cx="0" cy="0" r="1" gradientUnits="userSpaceOnUse" gradientTransform="translate(55.5652 20.4958) rotate(0.0543808) scale(6.81945 3.67442)">
<stop stop-color="#F8DBBA"/>
<stop offset="1" stop-color="#CD9870" stop-opacity="0"/>
</radialGradient>
<radialGradient id="paint19_radial" cx="0" cy="0" r="1" gradientUnits="userSpaceOnUse" gradientTransform="translate(53.2223 12.2359) rotate(0.0539422) scale(6.24298 3.90583)">
<stop stop-color="#F8DBBA"/>
<stop offset="1" stop-color="#CD9870" stop-opacity="0"/>
</radialGradient>
<linearGradient id="paint20_linear" x1="51.0333" y1="21.4066" x2="34.601" y2="21.2166" gradientUnits="userSpaceOnUse">
<stop stop-color="#8D562E" stop-opacity="0"/>
<stop offset="1" stop-color="#8D562E"/>
</linearGradient>
<linearGradient id="paint21_linear" x1="62.6226" y1="14.0366" x2="37.1668" y2="11.0446" gradientUnits="userSpaceOnUse">
<stop offset="0.3131" stop-color="#8D562E" stop-opacity="0"/>
<stop offset="1" stop-color="#8D562E"/>
</linearGradient>
<linearGradient id="paint22_linear" x1="49.7827" y1="17.1298" x2="38.0996" y2="0.0325594" gradientUnits="userSpaceOnUse">
<stop stop-color="#D2A374" stop-opacity="0"/>
<stop offset="1" stop-color="#99643E"/>
</linearGradient>
<linearGradient id="paint23_linear" x1="54.5503" y1="42.1675" x2="56.9565" y2="30.5161" gradientUnits="userSpaceOnUse">
<stop stop-color="#A46C3F" stop-opacity="0"/>
<stop offset="1" stop-color="#804B24"/>
</linearGradient>
<linearGradient id="paint24_linear" x1="58.764" y1="31.7116" x2="51.9884" y2="15.1842" gradientUnits="userSpaceOnUse">
<stop stop-color="#A46C3F" stop-opacity="0"/>
<stop offset="1" stop-color="#804B24"/>
</linearGradient>
<linearGradient id="paint25_linear" x1="73.0157" y1="27.3522" x2="56.1085" y2="30.3917" gradientUnits="userSpaceOnUse">
<stop offset="0.00132565" stop-color="#BE8D68"/>
<stop offset="1" stop-color="#CD9870"/>
</linearGradient>
<linearGradient id="paint26_linear" x1="51.8402" y1="16.9596" x2="57.1594" y2="37.7928" gradientUnits="userSpaceOnUse">
<stop stop-color="#B37E53"/>
<stop offset="1" stop-color="#CD9870"/>
</linearGradient>
<linearGradient id="paint27_linear" x1="49.4297" y1="30.5228" x2="38.7496" y2="30.5228" gradientUnits="userSpaceOnUse">
<stop offset="0.2173" stop-color="#8D562E" stop-opacity="0"/>
<stop offset="1" stop-color="#8D562E"/>
</linearGradient>
<radialGradient id="paint28_radial" cx="0" cy="0" r="1" gradientUnits="userSpaceOnUse" gradientTransform="translate(57.6759 30.4979) rotate(2.73365) scale(7.24678 4.75258)">
<stop stop-color="#F8DBBA"/>
<stop offset="1" stop-color="#CD9870" stop-opacity="0"/>
</radialGradient>
<linearGradient id="paint29_linear" x1="55.4359" y1="31.5634" x2="57.4623" y2="18.6772" gradientUnits="userSpaceOnUse">
<stop stop-color="#A46C3F" stop-opacity="0"/>
<stop offset="1" stop-color="#804B24"/>
</linearGradient>
<linearGradient id="paint30_linear" x1="54.8071" y1="22.5439" x2="54.1897" y2="13.1404" gradientUnits="userSpaceOnUse">
<stop stop-color="#A46C3F" stop-opacity="0"/>
<stop offset="1" stop-color="#804B24"/>
</linearGradient>
<linearGradient id="paint31_linear" x1="52.9953" y1="11.7076" x2="53.7552" y2="4.58371" gradientUnits="userSpaceOnUse">
<stop stop-color="#A46C3F" stop-opacity="0"/>
<stop offset="1" stop-color="#804B24"/>
</linearGradient>
<linearGradient id="paint32_linear" x1="53.1747" y1="12.7884" x2="53.1747" y2="17.9415" gradientUnits="userSpaceOnUse">
<stop stop-color="#B37E53"/>
<stop offset="1" stop-color="#A46C3F"/>
</linearGradient>
<linearGradient id="paint33_linear" x1="13.2042" y1="-9.28484" x2="23.1775" y2="60.75" gradientUnits="userSpaceOnUse">
<stop offset="0.3105" stop-color="#D2A374" stop-opacity="0"/>
<stop offset="1" stop-color="#B88653"/>
</linearGradient>
<linearGradient id="paint34_linear" x1="18.2265" y1="23.6523" x2="20.1262" y2="-0.8537" gradientUnits="userSpaceOnUse">
<stop stop-color="#B37E53"/>
<stop offset="1" stop-color="#CD9870"/>
</linearGradient>
<radialGradient id="paint35_radial" cx="0" cy="0" r="1" gradientUnits="userSpaceOnUse" gradientTransform="translate(41.8331 65.7925) rotate(-79.0615) scale(5.24754 3.18567)">
<stop stop-color="#F8DBBA"/>
<stop offset="1" stop-color="#CD9870" stop-opacity="0"/>
</radialGradient>
</defs>
</svg>
