<svg width="80" height="80" viewBox="0 0 80 80" fill="none" xmlns="http://www.w3.org/2000/svg">
<path d="M39.8133 8C37.3318 8 36.3925 9.98128 36.5841 13.827C36.7102 16.3597 37.5654 23.4203 33.9857 26.9996C30.649 30.336 29.677 30.0416 25.8776 34.3453C22.0783 38.649 18.9098 37.7658 14.4795 37.3826C8.909 36.906 10.8063 67.8073 14.7319 67.2746C17.5172 66.8961 23.8541 66.1344 24.8635 66.1344C25.8729 66.1344 32.8268 71.5175 38.9254 71.5783C48.8046 71.6811 54.2537 69.9334 54.2537 69.9334L57.1464 63.3681L58.1138 43.3451L53.4919 33.7098C53.4919 33.7098 47.2858 34.7238 45.51 31.9388C43.7388 29.1538 46.9026 25.7333 46.9026 17.7522C46.9026 9.771 41.0797 8 39.8133 8Z" fill="url(#paint0_linear)"/>
<path opacity="0.5" d="M54.5995 69.8735L54.2256 68.5043C53.1134 68.3875 51.6787 68.8922 49.7253 68.8782C40.3834 68.8081 31.4528 66.1259 27.6207 63.0932C25.1112 61.1072 24.013 58.4624 22.2371 59.224C20.05 60.1633 13.8439 61.6212 11.5587 58.7334C12.199 63.6773 13.3392 67.4716 14.7319 67.28C17.5171 66.9015 23.8541 66.1399 24.8635 66.1399C25.8776 66.1399 32.6305 71.3828 38.9254 71.5838C47.0662 71.8454 54.3004 70.4436 54.3004 70.4436L54.5995 69.8735Z" fill="url(#paint1_radial)"/>
<path opacity="0.5" d="M45.5147 31.9341C43.7435 29.1491 46.9073 25.7286 46.9073 17.7475C46.9073 9.7663 41.0797 8 39.8133 8C39.4815 8 39.1824 8.03737 38.916 8.10747C44.0847 8.42989 47.1971 14.9485 45.4119 21.668C43.9678 27.1211 43.2481 31.4902 45.6081 34.0555C47.1363 35.7144 50.1693 35.434 53.4919 33.7098C53.4919 33.7098 47.2858 34.7238 45.5147 31.9341Z" fill="url(#paint2_radial)"/>
<path opacity="0.16" d="M45.8605 34.7803C42.8182 35.7943 35.1447 38.1774 29.3265 43.4483C14.5917 56.8126 39.7526 58.4854 44.9446 69.9105C45.94 72.0973 51.7442 58.4528 51.7442 58.4528L53.6228 55.2939L48.1972 40.8503L45.8605 34.7803Z" fill="url(#paint3_linear)"/>
<path opacity="0.16" d="M46.3091 35.9346C43.2668 36.9486 30.85 44.9017 30.85 48.8315C30.85 60.1677 39.4488 54.5743 44.0987 67.9479C44.7436 69.7983 47.0148 71.359 47.0148 71.359C48.8981 69.8217 51.7488 58.4575 51.7488 58.4575L53.6274 55.2987L48.2018 40.855L46.3091 35.9346Z" fill="url(#paint4_linear)"/>
<path d="M53.3237 70.6814L59.1419 64.032L60.4224 36.2476L45.8605 34.7803C42.5191 36.5793 42.1312 39.0419 43.3743 42.9904C43.8977 44.6539 41.7714 45.1306 41.6359 49.9716C41.5424 53.3267 43.7388 53.3454 43.7388 54.3407C43.7388 55.336 42.6453 55.2472 42.2808 58.1397C41.762 62.2751 45.2249 62.3545 45.2249 63.2377C45.2249 64.1208 43.2995 64.6488 43.421 68.0179C43.5706 72.2936 35.6307 71.4291 30.2658 67.5367C28.06 65.9386 26.1393 65.775 24.6345 66.1348C24.728 66.1301 24.8074 66.1255 24.8682 66.1255C25.8823 66.1255 32.6866 71.4384 38.93 71.5693C46.3091 71.7328 51.2721 71.1534 53.3237 70.6814Z" fill="url(#paint5_linear)"/>
<path d="M54.6649 36.6123C50.1693 36.6123 47.6971 41.0047 49.4075 44.3832C51.1179 47.7616 46.239 52.2288 46.7484 54.425C47.2531 56.6259 48.1411 62.1912 48.8374 63.1117C49.5337 64.0323 47.6971 66.121 47.6971 66.121L53.3985 66.8173L58.7167 64.4715L58.5251 48.3878L59.0952 38.3179L54.6649 36.6123Z" fill="url(#paint6_linear)"/>
<path opacity="0.5" d="M39.8133 8C37.3318 8 36.3925 9.98128 36.5841 13.827C36.7103 16.3596 37.5655 23.4202 33.9858 26.9996C30.649 30.336 29.677 30.0416 25.8776 34.3452C23.4102 37.1442 21.2091 37.747 18.7556 37.7236C17.4331 37.7096 16.0358 37.5181 14.4796 37.3825C14.4796 38.3451 14.7599 38.3218 18.4331 39.3358C18.8537 39.4526 19.251 39.532 19.6388 39.5788C19.8258 40.1629 19.9286 40.7516 19.9052 41.3357C19.7697 44.5366 20.4754 48.4758 21.0128 44.3777C21.2231 42.789 21.8727 41.004 22.8026 39.2049C24.1953 38.6489 25.3215 37.6068 26.3216 36.3919C28.1862 34.1256 29.8032 32.1163 34.4905 29.079C39.1778 26.0417 38.5749 17.682 38.1964 14.8924C37.8178 12.1027 38.0702 8 39.8133 8Z" fill="url(#paint7_radial)"/>
<path d="M58.0671 33.5831C52.7489 33.3822 43.1921 33.0784 42.9818 38.6485C42.8275 42.6859 45.6923 44.013 50.1225 44.1812C54.5528 44.3494 56.7679 44.4336 58.6045 44.5036C60.4411 44.5737 66.2126 44.5363 66.2686 39.6625C66.3387 33.5691 58.0671 33.5831 58.0671 33.5831Z" fill="url(#paint8_linear)"/>
<path d="M49.3234 53.7131C47.8981 53.671 43.6688 54.7411 43.2715 57.428C42.9584 59.54 44.0379 62.2736 47.7205 62.9185C52.3844 63.7362 60.1607 64.1614 63.0628 63.0774C64.362 62.5914 65.4929 61.2363 65.549 59.1756C65.6097 57.1149 64.0816 54.3439 60.7542 54.2458C57.4315 54.1477 55.6977 54.1991 53.8051 53.9795C51.5339 53.7084 50.4637 53.7458 49.3234 53.7131Z" fill="url(#paint9_linear)"/>
<path d="M47.842 63.1064C46.225 63.1064 44.2342 64.5316 44.2342 66.9054C44.2342 69.2791 44.8511 71.0361 48.3186 71.7043C51.7862 72.3678 57.3427 71.7977 59.4317 71.1342C61.0579 70.6155 61.6655 69.0922 61.6655 66.5736C61.6655 64.055 60.0999 63.6158 58.3895 63.6158C56.6791 63.6158 54.6042 63.9289 53.4172 63.8634C50.1038 63.6952 49.4589 63.1064 47.842 63.1064Z" fill="url(#paint10_linear)"/>
<path opacity="0.5" d="M57.6185 34.7056C52.9779 34.528 44.6315 34.2616 44.4632 38.6635C44.3417 41.8551 46.8466 42.9111 50.716 43.0607C54.5855 43.2102 64.7639 43.3924 64.7966 39.5373C64.834 34.7242 57.6185 34.7056 57.6185 34.7056Z" fill="url(#paint11_linear)"/>
<path opacity="0.5" d="M49.7533 54.8495C48.5149 54.8121 45.038 55.1112 44.7062 57.6766C44.4819 59.4148 45.3838 61.6438 48.5897 62.1812C52.6554 62.8587 59.4223 63.2185 61.9505 62.3307C63.0768 61.9335 64.0629 60.826 64.1096 59.1391C64.1563 57.4523 62.6048 55.3822 59.7121 55.3028C56.8193 55.2187 55.2818 55.485 53.6275 55.3028C51.646 55.0738 50.7441 54.8776 49.7533 54.8495Z" fill="url(#paint12_radial)"/>
<path opacity="0.5" d="M48.5289 63.9766C47.1316 63.9766 45.4072 65.1261 45.4072 67.0373C45.4072 68.9485 45.9399 70.3643 48.9402 70.9017C51.9404 71.4391 56.7492 70.9765 58.5531 70.4438C59.9597 70.0279 60.4831 68.799 60.4831 66.771C60.4831 64.7429 59.1279 64.3878 57.6464 64.3878C56.165 64.3878 54.3705 64.6401 53.347 64.5887C50.4917 64.4485 49.9262 63.9766 48.5289 63.9766Z" fill="url(#paint13_linear)"/>
<path opacity="0.5" d="M18.1855 66.8301C14.4468 65.2227 10.9512 43.2138 17.8443 37.6859C16.7928 37.6205 15.6853 37.4803 14.4842 37.3775C8.9137 36.9009 10.811 67.802 14.7366 67.2693C15.6198 67.1525 16.8676 66.9936 18.1855 66.8301Z" fill="url(#paint14_radial)"/>
<path d="M47.6784 38.6685C47.7952 35.6359 50.2113 34.1826 53.2676 33.5098C48.3887 33.6219 43.136 34.5331 42.9771 38.6452C42.8229 42.6825 45.6876 44.0096 50.1178 44.1778C50.6039 44.1965 51.0665 44.2151 51.5011 44.2292C49.0196 43.5049 47.5569 41.8647 47.6784 38.6685Z" fill="url(#paint15_linear)"/>
<path opacity="0.5" d="M48.099 34.0596C45.2623 34.6811 43.0846 36.0221 42.9818 38.6482C42.8556 42.008 44.8137 43.4846 48.0242 43.9893C41.5144 41.3866 43.851 34.9848 48.099 34.0596Z" fill="url(#paint16_radial)"/>
<path opacity="0.16" d="M40.5376 65.9717C39.7852 67.696 36.2149 67.8035 32.5557 66.2147C28.9012 64.626 26.5459 61.9344 27.2936 60.2101C28.046 58.4859 31.6164 58.3784 35.2755 59.9671C38.9347 61.5559 41.29 64.2475 40.5376 65.9717Z" fill="url(#paint17_radial)"/>
<path opacity="0.16" d="M62.0534 39.48C62.016 41.8117 58.8989 42.9145 55.4921 43.1201C52.7022 43.2883 49.6085 41.3164 49.6879 39.0408C49.7673 36.7651 50.1739 34.7465 55.9641 34.9474C59.3803 35.0689 62.0861 37.2044 62.0534 39.48Z" fill="url(#paint18_radial)"/>
<path opacity="0.16" d="M62.6702 59.966C62.6515 63.1903 59.0999 62.5735 55.6931 62.7978C51.3703 63.0828 48.5056 61.737 48.5009 59.4613C48.5009 57.1856 50.1412 55.5221 55.9407 55.5127C59.3569 55.5081 62.6936 55.8211 62.6702 59.966Z" fill="url(#paint19_radial)"/>
<path opacity="0.16" d="M59.5438 68.1022C59.5251 70.8544 56.3006 71.2282 53.2489 71.2282C50.1973 71.2282 46.8792 69.6115 46.8746 67.6723C46.8746 65.7284 48.342 64.3172 53.5246 64.3078C56.581 64.2985 59.5672 64.5649 59.5438 68.1022Z" fill="url(#paint20_radial)"/>
<path d="M47.2345 58.0819C47.7205 54.4091 50.5385 54.6241 53.7677 54.2409C50.0478 53.9652 48.4869 53.9232 48.4869 53.9232C48.1411 53.8905 47.7532 53.8858 47.3466 53.9278C46.1363 54.1942 44.767 54.7455 43.9538 55.7735C43.6781 56.166 43.4538 56.6287 43.3043 57.1801C43.2902 57.2595 43.2762 57.3389 43.2622 57.423C43.0005 59.5444 44.0286 62.2686 47.7111 62.9135C48.2439 63.0069 48.814 63.0957 49.4169 63.1751C49.7066 63.2125 50.0197 63.2499 50.3562 63.2919C50.445 63.3013 50.5385 63.3153 50.6273 63.3247C48.6037 62.3668 46.8793 60.778 47.2345 58.0819Z" fill="url(#paint21_linear)"/>
<path opacity="0.5" d="M48.1364 53.901C47.884 53.8916 47.6223 53.901 47.3466 53.929C46.1268 54.2 44.7482 54.7561 43.9351 55.8028C43.6687 56.1906 43.4537 56.6486 43.3089 57.1813C43.2948 57.2607 43.2855 57.3402 43.2668 57.4243C42.8929 59.513 43.9304 61.9755 47.1456 62.7886C41.6639 59.7653 44.0052 53.9056 48.1364 53.901Z" fill="url(#paint22_radial)"/>
<path d="M51.3329 63.6672C49.7113 63.4289 49.043 63.1064 47.842 63.1064C46.225 63.1064 44.2342 64.5316 44.2342 66.9054C44.2342 67.7699 44.3183 68.5503 44.5847 69.2232C44.8557 69.7839 45.253 70.3072 45.7997 70.7465C46.3979 71.1624 47.2111 71.4895 48.3186 71.6998C49.0617 71.8399 49.8982 71.9287 50.7768 71.9661C49.0804 70.9801 46.211 70.4521 46.8138 67.1578C47.4728 63.527 49.6458 64.0176 51.3329 63.6672Z" fill="url(#paint23_linear)"/>
<path opacity="0.5" d="M47.7718 63.1113C46.1689 63.1534 44.2342 64.5693 44.2342 66.9103C44.2342 69.0879 44.7529 70.742 47.5101 71.5177C43.2061 68.7514 44.5847 64.0879 47.7718 63.1113Z" fill="url(#paint24_radial)"/>
<path opacity="0.5" d="M66.2687 39.6623C66.2734 39.1156 66.2126 38.6203 66.0958 38.167C66.521 40.0688 64.8293 41.9613 60.3336 42.8819C57.3521 43.4893 49.4403 44.251 43.9632 42.0781C45.1455 43.508 47.3186 44.0781 50.1226 44.1855C54.5528 44.3538 56.7679 44.4379 58.6045 44.508C60.4411 44.5734 66.2079 44.536 66.2687 39.6623Z" fill="url(#paint25_linear)"/>
<path d="M65.5536 59.0454C65.549 57.0033 64.0161 54.3398 60.7589 54.2463C57.4362 54.1482 55.7024 54.1996 53.8097 53.9799C51.5338 53.7136 50.4637 53.7509 49.3234 53.7182C48.4635 53.6949 46.3372 53.9519 44.8931 54.8491C46.5194 55.4145 49.1645 56.2603 52.8891 56.022C61.815 55.4473 64.3526 56.5267 65.5536 59.0454Z" fill="url(#paint26_linear)"/>
<path d="M47.412 44.4989C45.5147 44.4615 42.4958 45.5783 42.4163 49.5221C42.3369 53.4659 45.7857 54.4051 47.3046 54.4332C48.8234 54.4612 54.1369 54.8256 60.6934 54.9565C67.25 55.0873 68.1239 51.5688 68.1613 49.7277C68.1987 47.8866 67.0304 44.5503 63.0861 44.4708C51.6927 44.2465 47.412 44.4989 47.412 44.4989Z" fill="url(#paint27_linear)"/>
<path opacity="0.5" d="M48.4308 45.6438C46.7811 45.6111 44.1594 46.4662 44.0987 49.5082C44.0379 52.5501 47.0382 53.2837 48.3607 53.3071C49.6832 53.3304 53.8097 53.9753 59.9971 53.737C65.6938 53.5174 66.4509 51.139 66.4789 49.7184C66.5069 48.2979 66.3107 45.7233 62.8852 45.6532C52.9779 45.4569 48.4308 45.6438 48.4308 45.6438Z" fill="url(#paint28_linear)"/>
<path d="M46.4914 49.1446C46.683 45.0979 49.5056 45.0839 52.6975 44.3877C48.9682 44.4111 47.4073 44.5045 47.4073 44.5045C45.51 44.4671 42.4911 45.5839 42.4116 49.5278C42.3322 53.4716 45.781 54.4108 47.2999 54.4388C47.8466 54.4482 48.8888 54.5043 50.3048 54.5744C48.2065 53.7005 46.3512 52.1211 46.4914 49.1446Z" fill="url(#paint29_linear)"/>
<path opacity="0.16" d="M64.8246 49.5641C64.9555 52.7883 61.3758 53.3958 57.9643 53.5593C54.5528 53.7229 50.7581 51.9986 50.6506 49.7229C50.5431 47.4472 52.104 45.7136 57.8989 45.4333C61.3057 45.265 64.6564 45.4193 64.8246 49.5641Z" fill="url(#paint30_radial)"/>
<path opacity="0.5" d="M47.0569 44.5088C45.1595 44.6116 42.4911 45.8218 42.4163 49.5227C42.3415 53.2703 45.4539 54.303 47.0662 54.4245C40.8227 51.9058 42.8696 44.8779 47.0569 44.5088Z" fill="url(#paint31_radial)"/>
<path opacity="0.5" d="M68.152 49.3311C67.3295 55.1626 51.903 54.0973 43.5706 52.845C44.6969 54.0505 46.3699 54.415 47.3046 54.4337C48.8234 54.4664 54.1369 54.8262 60.6934 54.957C67.2454 55.0878 68.1239 51.5693 68.1613 49.7282C68.166 49.6021 68.1613 49.4712 68.152 49.3311Z" fill="url(#paint32_linear)"/>
<path opacity="0.5" d="M60.4271 62.3215C57.4409 62.4524 49.5337 63.4337 43.7715 60.3496C44.4118 61.5459 45.6595 62.5599 47.7205 62.9197C52.3844 63.7374 60.1607 64.1626 63.0628 63.0786C64.362 62.5926 65.4929 61.2375 65.549 59.1768C65.3621 60.9664 63.6563 62.1767 60.4271 62.3215Z" fill="url(#paint33_linear)"/>
<path d="M61.4318 68.8037C59.4737 70.2943 56.0903 71.1727 51.2114 70.3457C48.1971 69.8364 46.1315 69.6635 44.7716 69.6261C45.3137 70.6073 46.3652 71.3316 48.3186 71.7054C51.7862 72.3689 57.3427 71.7989 59.4316 71.1353C60.5018 70.7942 61.128 70.0139 61.4318 68.8037Z" fill="url(#paint34_linear)"/>
<path d="M44.8745 64.7697C48.4916 63.452 50.2627 65.4053 54.1368 65.4053C58.1558 65.4053 60.0719 63.7838 61.4972 65.3258C61.0486 63.9006 59.7634 63.6156 58.3895 63.6156C56.6791 63.6156 54.6042 63.9287 53.4172 63.8632C50.1085 63.6903 49.4589 63.1016 47.842 63.1016C46.7952 63.1062 45.5941 63.7043 44.8745 64.7697Z" fill="url(#paint35_linear)"/>
<path d="M14.7366 67.2703C17.5218 66.8918 23.8541 66.1302 24.8682 66.1302C15.6806 59.5649 19.765 45.6026 23.1578 38.5373C23.6345 37.5467 23.9289 36.7336 24.0831 36.042C21.0268 38.3737 18.1995 37.7009 14.4795 37.3784C8.909 36.9065 10.811 67.8077 14.7366 67.2703Z" fill="url(#paint36_linear)"/>
<path opacity="0.5" d="M20.5267 60.9292C19.578 59.6628 20.4005 62.3871 21.1623 64.3497C21.8072 66.0226 16.8535 65.032 13.0588 65.4432C13.5542 66.6675 14.1197 67.3591 14.7365 67.275C17.5218 66.8965 23.8541 66.1348 24.8682 66.1348C23.4382 64.9198 21.4754 62.1956 20.5267 60.9292Z" fill="url(#paint37_radial)"/>
<path opacity="0.5" d="M24.8682 66.1346C24.0784 65.4664 23.1297 64.3356 22.2745 63.2422C22.2745 63.2422 17.662 65.6019 12.7177 64.4898C13.2879 66.2935 13.9701 67.3776 14.7319 67.2701C17.5218 66.8916 23.8541 66.1346 24.8682 66.1346Z" fill="url(#paint38_radial)"/>
<path opacity="0.16" d="M42.7715 19.6125C40.9676 20.0004 39.5049 17.5098 38.6777 14.5987C38.0001 12.2202 38.9207 9.19226 40.6919 8.84647C42.463 8.50069 44.1034 8.49133 45.0801 13.5332C45.6502 16.5098 44.5333 19.234 42.7715 19.6125Z" fill="url(#paint39_radial)"/>
<path d="M47.7718 63.1099C46.7764 63.2127 45.8792 63.7455 45.2623 64.4791C44.6361 65.2174 44.3417 66.1799 44.4071 67.1519C44.4118 68.1238 44.5613 69.1238 45.1128 69.9135C45.6595 70.7079 46.5802 71.1845 47.5101 71.5163C46.5521 71.3013 45.552 70.9041 44.9071 70.063C44.2575 69.2313 44.1033 68.1519 44.0753 67.1566C44.0332 66.1426 44.3557 65.0585 45.0754 64.3108C45.7623 63.5538 46.7671 63.0912 47.7718 63.1099Z" fill="#3D2A20"/>
<path d="M46.1783 54.2734C45.524 54.5585 44.9211 54.9463 44.4211 55.4276C43.9117 55.9043 43.6407 56.5584 43.4584 57.222V57.2127C43.2201 58.4229 43.421 59.7079 44.1314 60.7173C44.8277 61.7359 45.9493 62.4041 47.1503 62.792C45.9166 62.5537 44.6735 61.9556 43.8977 60.8855C43.5098 60.3574 43.2434 59.7453 43.1173 59.1004C42.9864 58.4556 43.0472 57.7827 43.1687 57.1566L43.1733 57.1472C43.3696 56.451 43.7154 55.7547 44.2856 55.2827C44.8277 54.7921 45.5006 54.4931 46.1783 54.2734Z" fill="#3D2A20"/>
<path d="M47.0568 44.5088C45.8839 44.6443 44.7483 45.1303 43.9351 45.9527C43.122 46.7751 42.6827 47.9059 42.6126 49.0601C42.4958 50.2096 42.6827 51.4058 43.3369 52.3591C43.9865 53.317 45.0427 53.9572 46.1783 54.2889C45.0193 54.0787 43.865 53.5039 43.1313 52.5086C42.3836 51.5227 42.1827 50.2236 42.2855 49.032C42.3836 47.8311 42.8556 46.6069 43.7622 45.7704C44.6548 44.9247 45.8745 44.5181 47.0568 44.5088Z" fill="#3D2A20"/>
<path d="M48.099 34.0596C46.8419 34.4007 45.5941 34.8773 44.6034 35.6904C43.6033 36.4988 43.0659 37.7511 43.15 39.0314C43.1313 40.3024 43.5472 41.6015 44.5193 42.4473C45.4726 43.3024 46.7577 43.7136 48.0289 43.9846C46.7391 43.8351 45.4025 43.508 44.351 42.6388C43.2762 41.779 42.8229 40.3539 42.8182 39.0361C42.7481 37.695 43.3509 36.2932 44.4445 35.4894C45.5147 34.6717 46.8138 34.2839 48.099 34.0596Z" fill="#3D2A20"/>
<path d="M43.7715 60.3486C44.6361 61.844 46.2951 62.6197 47.9401 62.844C49.6085 63.1011 51.2955 63.2786 52.9779 63.3861C54.6602 63.531 56.352 63.6151 58.0437 63.6104C58.8896 63.601 59.7354 63.5777 60.5719 63.4936C61.4131 63.4281 62.259 63.3394 63.0675 63.073C61.4692 63.6711 59.7354 63.7693 58.0484 63.8254C56.352 63.8674 54.6509 63.8207 52.9545 63.7086C51.2628 63.5637 49.5757 63.3487 47.9027 63.0543C47.0615 62.9141 46.2203 62.6571 45.4866 62.2085C44.7529 61.7552 44.1501 61.1057 43.7715 60.3486Z" fill="#3D2A20"/>
<path d="M43.5706 52.8447C44.2155 53.4896 45.052 53.9148 45.9213 54.1298C46.7858 54.3868 47.6971 54.3307 48.6131 54.3728L54.0761 54.5316L59.5392 54.8027C61.3524 54.9148 63.1937 54.9382 64.9321 54.3447C63.2404 55.0644 61.3384 55.1251 59.5345 55.027L54.0715 54.8681L48.6084 54.5971C47.7111 54.5363 46.7671 54.5784 45.8792 54.2886C45.0006 54.0129 44.1781 53.527 43.5706 52.8447Z" fill="#3D2A20"/>
<path d="M63.0908 44.476C61.7823 44.4806 60.4784 44.518 59.1699 44.504L55.2491 44.5133L51.3329 44.5694C50.029 44.5788 48.7205 44.5834 47.4214 44.6348H47.412C46.1269 44.6115 44.795 45.0507 43.8697 45.9712C42.9257 46.8824 42.4817 48.2048 42.421 49.5272C42.4303 48.8637 42.5004 48.2001 42.706 47.56C42.9117 46.9198 43.2621 46.3264 43.7388 45.8451C44.6922 44.8685 46.0614 44.3825 47.4167 44.3778H47.4073C50.0244 44.219 52.6367 44.219 55.2537 44.261C57.8661 44.2797 60.4785 44.3311 63.0908 44.476Z" fill="#3D2A20"/>
<defs>
<linearGradient id="paint0_linear" x1="53.6991" y1="39.2615" x2="34.6441" y2="40.0265" gradientUnits="userSpaceOnUse">
<stop offset="0.00132565" stop-color="#5A4539"/>
<stop offset="1" stop-color="#695042"/>
</linearGradient>
<radialGradient id="paint1_radial" cx="0" cy="0" r="1" gradientUnits="userSpaceOnUse" gradientTransform="translate(33.1147 65.1101) scale(15.8808 15.8795)">
<stop stop-color="#695042" stop-opacity="0"/>
<stop offset="1" stop-color="#5A4539"/>
</radialGradient>
<radialGradient id="paint2_radial" cx="0" cy="0" r="1" gradientUnits="userSpaceOnUse" gradientTransform="translate(46.2385 21.5304) scale(10.8965 10.8955)">
<stop stop-color="#695042" stop-opacity="0"/>
<stop offset="1" stop-color="#5A4539"/>
</radialGradient>
<linearGradient id="paint3_linear" x1="27.9738" y1="51.2451" x2="69.0134" y2="54.0953" gradientUnits="userSpaceOnUse">
<stop offset="0.00132565" stop-color="#473226"/>
<stop offset="1" stop-color="#3D2A20"/>
</linearGradient>
<linearGradient id="paint4_linear" x1="32.1729" y1="52.9127" x2="67.7025" y2="54.7178" gradientUnits="userSpaceOnUse">
<stop offset="0.00132565" stop-color="#473226"/>
<stop offset="1" stop-color="#3D2A20"/>
</linearGradient>
<linearGradient id="paint5_linear" x1="23.1878" y1="57.1577" x2="93.6768" y2="45.3767" gradientUnits="userSpaceOnUse">
<stop stop-color="#3C2200" stop-opacity="0"/>
<stop offset="0.9984"/>
</linearGradient>
<linearGradient id="paint6_linear" x1="45.0404" y1="52.8664" x2="58.1933" y2="51.1382" gradientUnits="userSpaceOnUse">
<stop stop-color="#3C2200" stop-opacity="0"/>
<stop offset="1" stop-color="#3C2200"/>
</linearGradient>
<radialGradient id="paint7_radial" cx="0" cy="0" r="1" gradientUnits="userSpaceOnUse" gradientTransform="translate(27.1845 27.0144) scale(16.1829 16.1813)">
<stop stop-color="#695042" stop-opacity="0"/>
<stop offset="1" stop-color="#5A4539"/>
</radialGradient>
<linearGradient id="paint8_linear" x1="64.3693" y1="37.6266" x2="85.364" y2="34.2064" gradientUnits="userSpaceOnUse">
<stop offset="0.00132565" stop-color="#5A4539"/>
<stop offset="1" stop-color="#695042"/>
</linearGradient>
<linearGradient id="paint9_linear" x1="55.3809" y1="63.185" x2="50.9168" y2="42.6196" gradientUnits="userSpaceOnUse">
<stop offset="0.00132565" stop-color="#5A4539"/>
<stop offset="1" stop-color="#695042"/>
</linearGradient>
<linearGradient id="paint10_linear" x1="52.9073" y1="73.1541" x2="53.0497" y2="50.6894" gradientUnits="userSpaceOnUse">
<stop offset="0.00132565" stop-color="#5A4539"/>
<stop offset="1" stop-color="#695042"/>
</linearGradient>
<linearGradient id="paint11_linear" x1="44.4556" y1="38.8751" x2="64.793" y2="38.8751" gradientUnits="userSpaceOnUse">
<stop offset="0.3072" stop-color="#473226" stop-opacity="0"/>
<stop offset="1" stop-color="#473226"/>
</linearGradient>
<radialGradient id="paint12_radial" cx="0" cy="0" r="1" gradientUnits="userSpaceOnUse" gradientTransform="translate(54.4225 58.7945) scale(7.43052 7.42979)">
<stop stop-color="#473226"/>
<stop offset="0.6928" stop-color="#473226" stop-opacity="0"/>
</radialGradient>
<linearGradient id="paint13_linear" x1="45.4084" y1="67.5558" x2="60.4872" y2="67.5558" gradientUnits="userSpaceOnUse">
<stop offset="0.3072" stop-color="#473226" stop-opacity="0"/>
<stop offset="1" stop-color="#473226"/>
</linearGradient>
<radialGradient id="paint14_radial" cx="0" cy="0" r="1" gradientUnits="userSpaceOnUse" gradientTransform="translate(14.6329 52.2709) scale(10.8711 10.8699)">
<stop stop-color="#695042" stop-opacity="0"/>
<stop offset="1" stop-color="#5A4539"/>
</radialGradient>
<linearGradient id="paint15_linear" x1="52.9241" y1="38.7403" x2="39.3393" y2="40.2604" gradientUnits="userSpaceOnUse">
<stop offset="0.3131" stop-color="#473226" stop-opacity="0"/>
<stop offset="1" stop-color="#3D2A20"/>
</linearGradient>
<radialGradient id="paint16_radial" cx="0" cy="0" r="1" gradientUnits="userSpaceOnUse" gradientTransform="translate(45.569 38.9697) scale(3.94901 3.94864)">
<stop stop-color="#695042" stop-opacity="0"/>
<stop offset="1" stop-color="#5A4539"/>
</radialGradient>
<radialGradient id="paint17_radial" cx="0" cy="0" r="1" gradientUnits="userSpaceOnUse" gradientTransform="translate(33.8823 63.089) rotate(7.55825) scale(5.647 2.68257)">
<stop stop-color="#695042"/>
<stop offset="1" stop-color="#5A4539" stop-opacity="0"/>
</radialGradient>
<radialGradient id="paint18_radial" cx="0" cy="0" r="1" gradientUnits="userSpaceOnUse" gradientTransform="translate(55.8723 39.096) rotate(2.02597) scale(6.35118 4.16737)">
<stop stop-color="#99643E"/>
<stop offset="1" stop-color="#CD9870" stop-opacity="0"/>
</radialGradient>
<radialGradient id="paint19_radial" cx="0" cy="0" r="1" gradientUnits="userSpaceOnUse" gradientTransform="translate(55.5628 59.505) rotate(-0.0543715) scale(6.82111 3.6747)">
<stop stop-color="#99643E"/>
<stop offset="1" stop-color="#CD9870" stop-opacity="0"/>
</radialGradient>
<radialGradient id="paint20_radial" cx="0" cy="0" r="1" gradientUnits="userSpaceOnUse" gradientTransform="translate(53.2274 67.7659) rotate(-0.0539342) scale(6.24422 3.90602)">
<stop stop-color="#99643E"/>
<stop offset="1" stop-color="#CD9870" stop-opacity="0"/>
</radialGradient>
<linearGradient id="paint21_linear" x1="53.5835" y1="58.7349" x2="33.7287" y2="58.1649" gradientUnits="userSpaceOnUse">
<stop offset="0.2173" stop-color="#473226" stop-opacity="0"/>
<stop offset="1" stop-color="#3D2A20"/>
</linearGradient>
<radialGradient id="paint22_radial" cx="0" cy="0" r="1" gradientUnits="userSpaceOnUse" gradientTransform="translate(45.7001 58.289) scale(3.59643 3.59605)">
<stop stop-color="#695042" stop-opacity="0"/>
<stop offset="1" stop-color="#5A4539"/>
</radialGradient>
<linearGradient id="paint23_linear" x1="54.1941" y1="66.8116" x2="37.2844" y2="69.2819" gradientUnits="userSpaceOnUse">
<stop offset="0.2173" stop-color="#473226" stop-opacity="0"/>
<stop offset="1" stop-color="#3D2A20"/>
</linearGradient>
<radialGradient id="paint24_radial" cx="0" cy="0" r="1" gradientUnits="userSpaceOnUse" gradientTransform="translate(46.0329 67.2527) scale(3.22337 3.22305)">
<stop stop-color="#695042" stop-opacity="0"/>
<stop offset="1" stop-color="#5A4539"/>
</radialGradient>
<linearGradient id="paint25_linear" x1="54.7757" y1="38.8917" x2="56.0105" y2="44.8128" gradientUnits="userSpaceOnUse">
<stop stop-color="#695042" stop-opacity="0"/>
<stop offset="1" stop-color="#473226"/>
</linearGradient>
<linearGradient id="paint26_linear" x1="55.0071" y1="60.4833" x2="55.862" y2="46.5669" gradientUnits="userSpaceOnUse">
<stop stop-color="#3C2200" stop-opacity="0"/>
<stop offset="0.9984"/>
</linearGradient>
<linearGradient id="paint27_linear" x1="55.4493" y1="48.3022" x2="57.2064" y2="33.9589" gradientUnits="userSpaceOnUse">
<stop offset="0.00132565" stop-color="#5A4539"/>
<stop offset="1" stop-color="#695042"/>
</linearGradient>
<linearGradient id="paint28_linear" x1="44.0986" y1="49.6785" x2="66.4832" y2="49.6785" gradientUnits="userSpaceOnUse">
<stop offset="0.3072" stop-color="#473226" stop-opacity="0"/>
<stop offset="1" stop-color="#473226"/>
</linearGradient>
<linearGradient id="paint29_linear" x1="49.4381" y1="49.4782" x2="38.7564" y2="49.4782" gradientUnits="userSpaceOnUse">
<stop offset="0.2173" stop-color="#473226" stop-opacity="0"/>
<stop offset="1" stop-color="#3D2A20"/>
</linearGradient>
<radialGradient id="paint30_radial" cx="0" cy="0" r="1" gradientUnits="userSpaceOnUse" gradientTransform="translate(57.7424 49.4806) rotate(-2.73464) scale(7.24464 4.75215)">
<stop stop-color="#99643E"/>
<stop offset="1" stop-color="#CD9870" stop-opacity="0"/>
</radialGradient>
<radialGradient id="paint31_radial" cx="0" cy="0" r="1" gradientUnits="userSpaceOnUse" gradientTransform="translate(44.7748 49.4094) scale(3.87176 3.87135)">
<stop stop-color="#695042" stop-opacity="0"/>
<stop offset="1" stop-color="#5A4539"/>
</radialGradient>
<linearGradient id="paint32_linear" x1="55.6888" y1="48.835" x2="56.1954" y2="55.4209" gradientUnits="userSpaceOnUse">
<stop stop-color="#695042" stop-opacity="0"/>
<stop offset="1" stop-color="#473226"/>
</linearGradient>
<linearGradient id="paint33_linear" x1="54.9931" y1="54.3084" x2="54.6765" y2="59.5645" gradientUnits="userSpaceOnUse">
<stop stop-color="#695042" stop-opacity="0"/>
<stop offset="1" stop-color="#473226"/>
</linearGradient>
<linearGradient id="paint34_linear" x1="53.0043" y1="68.2949" x2="53.7641" y2="75.4189" gradientUnits="userSpaceOnUse">
<stop stop-color="#695042" stop-opacity="0"/>
<stop offset="1" stop-color="#473226"/>
</linearGradient>
<linearGradient id="paint35_linear" x1="53.217" y1="69.064" x2="53.122" y2="57.6177" gradientUnits="userSpaceOnUse">
<stop stop-color="#3C2200" stop-opacity="0"/>
<stop offset="0.9984"/>
</linearGradient>
<linearGradient id="paint36_linear" x1="18.3705" y1="52.9861" x2="2.22286" y2="77.3999" gradientUnits="userSpaceOnUse">
<stop offset="0.3105" stop-color="#804B24" stop-opacity="0"/>
<stop offset="1" stop-color="#804B24"/>
</linearGradient>
<radialGradient id="paint37_radial" cx="0" cy="0" r="1" gradientUnits="userSpaceOnUse" gradientTransform="translate(7.64361 93.207) scale(32.8639 32.8615)">
<stop stop-color="#695042" stop-opacity="0"/>
<stop offset="1" stop-color="#5A4539"/>
</radialGradient>
<radialGradient id="paint38_radial" cx="0" cy="0" r="1" gradientUnits="userSpaceOnUse" gradientTransform="translate(7.64364 93.2059) scale(32.8639 32.8605)">
<stop stop-color="#695042" stop-opacity="0"/>
<stop offset="1" stop-color="#5A4539"/>
</radialGradient>
<radialGradient id="paint39_radial" cx="0" cy="0" r="1" gradientUnits="userSpaceOnUse" gradientTransform="translate(41.8508 14.2082) rotate(79.0605) scale(5.24784 3.18585)">
<stop stop-color="#695042"/>
<stop offset="1" stop-color="#5A4539" stop-opacity="0"/>
</radialGradient>
</defs>
</svg>
