<svg width="80" height="80" viewBox="0 0 80 80" fill="none" xmlns="http://www.w3.org/2000/svg">
<path d="M39.8101 8C37.33 8 36.3883 9.9823 36.5803 13.8269C36.7062 16.361 37.5609 23.4205 33.9832 26.9983C30.6484 30.3331 29.6767 30.0362 25.8771 34.3427C22.0774 38.6491 18.9105 37.7615 14.4781 37.3836C8.90911 36.9068 10.8074 67.8078 14.73 67.271C17.516 66.8901 23.8498 66.1314 24.8604 66.1314C25.8711 66.1314 32.8196 71.5145 38.9194 71.5775C48.7979 71.6794 54.244 69.9311 54.244 69.9311L57.1379 63.3664L58.1066 43.3455L53.4852 33.7129C53.4852 33.7129 47.2804 34.7265 45.5081 31.9405C43.7357 29.1545 46.9026 25.7357 46.9026 17.7555C46.9026 9.77537 41.0757 8 39.8101 8Z" fill="url(#paint0_linear)"/>
<path d="M54.5921 69.8707L54.2173 68.5002C53.1047 68.3833 51.6742 68.8871 49.7159 68.8721C40.3772 68.8001 31.4463 66.1191 27.6167 63.0871C25.1066 61.1018 24.006 58.4567 22.2336 59.2155C20.0474 60.1541 13.8396 61.6116 11.5574 58.7236C12.1961 63.6659 13.3357 67.4596 14.7332 67.2706C17.5193 66.8898 23.853 66.131 24.8637 66.131C25.8773 66.131 32.6309 71.3732 38.9227 71.5771C47.0618 71.8411 54.2922 70.4405 54.2922 70.4405L54.5921 69.8707Z" fill="url(#paint1_linear)"/>
<path d="M45.508 31.9375C43.7356 29.1515 46.9025 25.7327 46.9025 17.7525C46.9025 9.77237 41.0756 8 39.81 8C39.4771 8 39.1802 8.03599 38.9133 8.10796C44.0805 8.43185 47.1904 14.9485 45.409 21.6661C43.9636 27.1182 43.2438 31.4876 45.604 34.0547C47.1304 35.7131 50.1654 35.4312 53.4852 33.7099C53.4882 33.7099 47.2804 34.7235 45.508 31.9375Z" fill="url(#paint2_linear)"/>
<path d="M45.8561 34.7803C42.8151 35.7939 35.1409 38.1781 29.326 43.4502C14.5922 56.8105 39.7472 58.4869 44.9444 69.9128C45.937 72.0961 51.743 58.4569 51.743 58.4569L53.6203 55.299L48.1982 40.8531L45.8561 34.7803Z" fill="url(#paint3_linear)"/>
<path d="M46.3029 35.9346C43.262 36.9482 30.8464 44.9014 30.8464 48.83C30.8464 60.166 39.4444 54.57 44.0927 67.9452C44.7375 69.7986 47.0077 71.355 47.0077 71.355C48.891 69.8196 51.74 58.4536 51.74 58.4536L53.6173 55.2957L48.1983 40.8528L46.3029 35.9346Z" fill="url(#paint4_linear)"/>
<path d="M53.3172 70.6775L59.1352 64.0259L60.4187 36.2438L45.8559 34.7773C42.5121 36.5767 42.1252 39.0358 43.3668 42.9884C43.8886 44.6498 41.7654 45.1267 41.6274 49.9699C41.5314 53.3257 43.7297 53.3407 43.7297 54.3394C43.7297 55.338 42.635 55.248 42.2722 58.139C41.7534 62.2745 45.2171 62.3525 45.2171 63.2372C45.2171 64.1219 43.2948 64.6467 43.4118 68.0175C43.5617 72.291 35.6235 71.4273 30.2555 67.5377C28.0512 65.9392 26.1289 65.7773 24.6265 66.1372C24.7194 66.1312 24.8004 66.1282 24.8604 66.1282C25.874 66.1282 32.6786 71.5742 38.9194 71.5742C46.2188 71.5772 51.266 71.1484 53.3172 70.6775Z" fill="url(#paint5_linear)"/>
<path d="M54.6551 36.6104C50.1596 36.6104 47.6885 41.0038 49.3979 44.3806C51.1073 47.7574 46.231 52.2228 46.7378 54.424C47.2447 56.6223 48.1323 62.1913 48.8281 63.112C49.5239 64.0326 47.6885 66.1229 47.6885 66.1229L53.3865 66.8187L58.7067 64.4735L58.5177 48.3932L59.0876 38.3257L54.6551 36.6104Z" fill="url(#paint6_linear)"/>
<path d="M39.8102 8C37.3301 8 36.3884 9.9823 36.5804 13.8269C36.7063 16.361 37.561 23.4205 33.9833 26.9983C30.6485 30.3331 29.6768 30.0362 25.8802 34.3427C23.412 37.1407 21.2108 37.7435 18.7577 37.7225C17.4322 37.7105 16.0347 37.5155 14.4812 37.3836C14.4812 38.3463 14.7631 38.3223 18.4368 39.3359C18.8567 39.4529 19.2555 39.5308 19.6424 39.5788C19.8313 40.1606 19.9333 40.7514 19.9093 41.3362C19.7773 44.5361 20.4791 48.4767 21.0189 44.3771C21.2288 42.7877 21.8796 41.0063 22.8063 39.2069C24.1978 38.6491 25.3254 37.6085 26.324 36.3939C28.1893 34.1267 29.8058 32.1205 34.4931 29.0795C39.1775 26.0386 38.5777 17.6806 38.1968 14.8946C37.8159 12.1085 38.0648 8 39.8102 8Z" fill="url(#paint7_radial)"/>
<path d="M58.0617 33.5842C52.7476 33.3803 43.19 33.0804 42.977 38.6494C42.8241 42.686 45.6881 44.0115 50.1175 44.1824C54.547 44.3504 56.7602 44.4343 58.5955 44.5063C60.4309 44.5753 66.2008 44.5423 66.2578 39.666C66.3298 33.5692 58.0617 33.5842 58.0617 33.5842Z" fill="url(#paint8_linear)"/>
<path d="M49.3197 53.7121C47.8952 53.6701 43.6637 54.7378 43.2679 57.4248C42.956 59.5391 44.0356 62.2681 47.7183 62.9129C52.3846 63.7286 60.1549 64.1574 63.0608 63.0688C64.3564 62.583 65.49 61.2275 65.5499 59.1672C65.6099 57.1069 64.0805 54.3359 60.7577 54.2399C57.4348 54.144 55.7045 54.195 53.8091 53.973C51.5269 53.7061 50.4593 53.7451 49.3197 53.7121Z" fill="url(#paint9_linear)"/>
<path d="M47.8353 63.1055C46.2219 63.1055 44.2246 64.53 44.2246 66.9051C44.2246 69.2803 44.8424 71.0376 48.3092 71.7004C51.7759 72.3661 57.333 71.7964 59.4232 71.1306C61.0516 70.6118 61.6544 69.0883 61.6544 66.5722C61.6544 64.0561 60.086 63.6153 58.3766 63.6153C56.6672 63.6153 54.5919 63.9272 53.4044 63.8642C50.0995 63.6933 49.4518 63.1055 47.8353 63.1055Z" fill="url(#paint10_linear)"/>
<path d="M57.6088 34.7092C52.9665 34.5323 44.6234 34.2654 44.4555 38.6678C44.3325 41.8587 46.8397 42.9173 50.7053 43.0642C54.5709 43.2112 64.7493 43.3971 64.7823 39.5435C64.8272 34.7242 57.6088 34.7092 57.6088 34.7092Z" fill="url(#paint11_linear)"/>
<path d="M49.7456 54.8493C48.507 54.8134 45.0342 55.1103 44.7013 57.6774C44.4764 59.4138 45.3761 61.648 48.582 62.1788C52.6455 62.8536 59.4111 63.2165 61.9392 62.3318C63.0668 61.9359 64.0505 60.8263 64.0985 59.1409C64.1465 57.4554 62.593 55.3862 59.699 55.3022C56.8051 55.2182 55.2666 55.4851 53.6172 55.2992C51.6379 55.0743 50.7382 54.8763 49.7456 54.8493Z" fill="url(#paint12_linear)"/>
<path d="M48.5252 63.9717C47.1277 63.9717 45.4033 65.1203 45.4033 67.0306C45.4033 68.9438 45.9371 70.3563 48.9361 70.8931C51.935 71.4299 56.7422 70.9711 58.5476 70.4343C59.9571 70.0175 60.4789 68.7909 60.4789 66.7637C60.4789 64.7364 59.1234 64.3825 57.6449 64.3825C56.1664 64.3825 54.3701 64.6344 53.3445 64.5835C50.4835 64.4425 49.9227 63.9717 48.5252 63.9717Z" fill="url(#paint13_linear)"/>
<path d="M18.1818 66.8299C14.4421 65.2224 10.9483 43.2163 17.8399 37.6893C16.7872 37.6263 15.6806 37.4854 14.4811 37.3834C8.91203 36.9066 10.8104 67.8075 14.733 67.2707C15.6207 67.1478 16.8652 66.9888 18.1818 66.8299Z" fill="url(#paint14_linear)"/>
<path d="M47.6734 38.6669C47.7903 35.632 50.2075 34.1805 53.2634 33.5117C48.3871 33.6257 43.133 34.5374 42.977 38.6489C42.8241 42.6854 45.6881 44.011 50.1175 44.1819C50.6063 44.1999 51.0652 44.2179 51.5 44.2359C49.0109 43.5041 47.5534 41.8637 47.6734 38.6669Z" fill="url(#paint15_linear)"/>
<path d="M48.0901 34.0605C45.2531 34.6813 43.0759 36.0219 42.9769 38.6489C42.848 42.0047 44.8093 43.4862 48.0181 43.987C41.5075 41.387 43.8436 34.9872 48.0901 34.0605Z" fill="url(#paint16_linear)"/>
<path opacity="0.24" d="M40.533 65.9661C39.7832 67.6905 36.2115 67.7985 32.5558 66.206C28.9001 64.6166 26.5459 61.9265 27.2957 60.2022C28.0454 58.4778 31.6171 58.3698 35.2728 59.9622C38.9285 61.5547 41.2827 64.2417 40.533 65.9661Z" fill="url(#paint17_radial)"/>
<path opacity="0.5" d="M62.0443 39.4798C62.0083 41.81 58.8924 42.9136 55.4826 43.1205C52.6936 43.2884 49.6017 41.3181 49.6797 39.0419C49.7606 36.7658 50.1655 34.7475 55.9565 34.9484C59.3723 35.0684 62.0773 37.2036 62.0443 39.4798Z" fill="url(#paint18_radial)"/>
<path opacity="0.5" d="M62.662 59.9632C62.644 63.1901 59.0933 62.5693 55.6865 62.7942C51.3651 63.0791 48.4981 61.7326 48.4951 59.4564C48.4921 57.1802 50.1355 55.5188 55.9325 55.5098C59.3482 55.5068 62.686 55.8187 62.662 59.9632Z" fill="url(#paint19_radial)"/>
<path opacity="0.5" d="M59.5372 68.0986C59.5192 70.8486 56.2953 71.2235 53.2424 71.2265C50.1865 71.2295 46.8726 69.61 46.8696 67.6697C46.8666 65.7294 48.3361 64.3139 53.5213 64.3049C56.5742 64.2959 59.5582 64.5628 59.5372 68.0986Z" fill="url(#paint20_radial)"/>
<path d="M47.2294 58.0791C47.7152 54.4054 50.5312 54.6213 53.7641 54.2405C50.0454 53.9646 48.4859 53.9226 48.4859 53.9226C48.138 53.8896 47.7512 53.8866 47.3463 53.9286C46.1378 54.1955 44.7702 54.7443 43.9575 55.7759C43.6816 56.1688 43.4567 56.6336 43.3098 57.1824C43.2948 57.2634 43.2798 57.3444 43.2678 57.4283C43.0069 59.5486 44.0355 62.2716 47.7182 62.9164C48.249 63.0094 48.8218 63.0963 49.4216 63.1773C49.7095 63.2133 50.0214 63.2523 50.3573 63.2973C50.4472 63.3093 50.5372 63.3183 50.6302 63.3303C48.5969 62.3676 46.8725 60.7782 47.2294 58.0791Z" fill="url(#paint21_linear)"/>
<path d="M48.1295 53.9018C47.8806 53.8928 47.6137 53.9018 47.3408 53.9318C46.1232 54.2017 44.7406 54.7565 43.9309 55.8061C43.664 56.193 43.4481 56.6488 43.3041 57.1856C43.2891 57.2636 43.2802 57.3446 43.2652 57.4285C42.8933 59.5188 43.9279 61.9809 47.1428 62.7936C41.6577 59.7647 43.9999 53.9048 48.1295 53.9018Z" fill="url(#paint22_linear)"/>
<path d="M51.3261 63.6692C49.7037 63.4323 49.0379 63.1084 47.8353 63.1084C46.2219 63.1084 44.2246 64.5329 44.2246 66.9081C44.2246 67.7718 44.3056 68.5515 44.5755 69.2293C44.8484 69.7871 45.2442 70.3119 45.7901 70.7528C46.3868 71.1696 47.2026 71.4935 48.3062 71.7064C49.0469 71.8474 49.8836 71.9344 50.7623 71.9734C49.0679 70.9897 46.1979 70.4589 46.7977 67.166C47.4695 63.5253 49.6407 64.0141 51.3261 63.6692Z" fill="url(#paint23_linear)"/>
<path d="M47.7634 63.1084C46.1619 63.1504 44.2246 64.5659 44.2246 66.905C44.2246 69.0792 44.7434 70.7376 47.4994 71.5113C43.199 68.7493 44.5785 64.089 47.7634 63.1084Z" fill="url(#paint24_linear)"/>
<path d="M66.2576 39.6625C66.2636 39.1167 66.2036 38.6189 66.0867 38.166C66.5155 40.0704 64.8181 41.9597 60.3227 42.8774C57.3448 43.4862 49.4306 44.2449 43.9575 42.0737C45.1391 43.5012 47.3133 44.071 50.1173 44.1789C54.5468 44.3469 56.76 44.4309 58.5953 44.5028C60.4307 44.5718 66.2006 44.5358 66.2576 39.6625Z" fill="url(#paint25_linear)"/>
<path d="M65.5472 59.0425C65.5412 56.9972 64.0088 54.3371 60.7549 54.2442C57.4321 54.1482 55.7018 54.1992 53.8064 53.9773C51.5302 53.7074 50.4596 53.7493 49.32 53.7163C48.4593 53.6924 46.3361 53.9503 44.8906 54.8499C46.516 55.4137 49.1611 56.2624 52.8858 56.0225C61.8046 55.4467 64.3447 56.5264 65.5472 59.0425Z" fill="url(#paint26_linear)"/>
<path d="M47.4064 44.5006C45.5081 44.4616 42.4911 45.5802 42.4132 49.5208C42.3352 53.4614 45.784 54.4031 47.3014 54.4331C48.8219 54.4631 54.133 54.8259 60.6857 54.9579C67.2384 55.0898 68.1171 51.5721 68.1531 49.7308C68.1891 47.8864 67.0225 44.5546 63.0819 44.4766C51.6859 44.2457 47.4064 44.5006 47.4064 44.5006Z" fill="url(#paint27_linear)"/>
<path d="M48.4261 45.6456C46.7737 45.6126 44.1556 46.4703 44.0956 49.5112C44.0356 52.5521 47.0346 53.2839 48.3571 53.3109C49.6796 53.3379 53.8062 53.9766 59.993 53.7397C65.685 53.5208 66.4467 51.1426 66.4737 49.7211C66.5007 48.2997 66.3057 45.7266 62.881 45.6576C52.9695 45.4597 48.4261 45.6456 48.4261 45.6456Z" fill="url(#paint28_linear)"/>
<path d="M46.4887 49.1421C46.6776 45.0936 49.5056 45.0816 52.6935 44.3828C48.9628 44.4068 47.4064 44.4998 47.4064 44.4998C45.508 44.4608 42.4911 45.5794 42.4132 49.52C42.3352 53.4606 45.7839 54.4023 47.3014 54.4323C47.8502 54.4443 48.8908 54.4982 50.3033 54.5672C48.1981 53.7005 46.3477 52.1201 46.4887 49.1421Z" fill="url(#paint29_linear)"/>
<path opacity="0.5" d="M64.8184 49.5626C64.9504 52.7864 61.3696 53.3922 57.9568 53.5542C54.544 53.7161 50.7533 51.9947 50.6424 49.7185C50.5344 47.4423 52.0968 45.7089 57.8878 45.43C61.3006 45.2651 64.6475 45.421 64.8184 49.5626Z" fill="url(#paint30_radial)"/>
<path d="M47.0497 44.5068C45.1513 44.6088 42.4852 45.8174 42.4103 49.5211C42.3353 53.2697 45.4482 54.3014 47.0617 54.4213C40.8208 51.9022 42.8661 44.8787 47.0497 44.5068Z" fill="url(#paint31_linear)"/>
<path d="M68.1442 49.3311C67.3225 55.164 51.8989 54.0964 43.5679 52.8428C44.6925 54.0484 46.3659 54.4143 47.3045 54.4323C48.825 54.4623 54.1361 54.8251 60.6888 54.9571C67.2415 55.089 68.1202 51.5713 68.1562 49.7299C68.1562 49.604 68.1532 49.469 68.1442 49.3311Z" fill="url(#paint32_linear)"/>
<path d="M60.4189 62.3198C57.432 62.4518 49.5268 63.4324 43.7659 60.3465C44.4076 61.5401 45.6522 62.5537 47.7155 62.9166C52.3818 63.7323 60.152 64.1612 63.058 63.0726C64.3535 62.5867 65.4871 61.2312 65.5471 59.1709C65.3521 60.9643 63.6487 62.1759 60.4189 62.3198Z" fill="url(#paint33_linear)"/>
<path d="M61.4264 68.7998C59.4681 70.2873 56.0853 71.1689 51.2061 70.3442C48.1921 69.8344 46.1259 69.6605 44.7673 69.6245C45.3101 70.6081 46.3598 71.3279 48.3121 71.7027C51.7788 72.3685 57.3359 71.7987 59.4261 71.1329C60.4968 70.7911 61.1205 70.0114 61.4264 68.7998Z" fill="url(#paint34_linear)"/>
<path d="M44.8665 64.7699C48.4832 63.4533 50.2555 65.4057 54.1242 65.4057C58.1428 65.4057 60.0591 63.7832 61.4866 65.3247C61.0367 63.9002 59.7562 63.6153 58.3797 63.6153C56.6703 63.6153 54.595 63.9272 53.4074 63.8642C50.0996 63.6903 49.4488 63.1055 47.8354 63.1055C46.7918 63.1055 45.5862 63.7053 44.8665 64.7699Z" fill="url(#paint35_linear)"/>
<path d="M14.733 67.2708C17.519 66.89 23.8528 66.1312 24.8634 66.1312C15.6777 59.5666 19.7622 45.6035 23.151 38.541C23.6278 37.5514 23.9217 36.7357 24.0777 36.0459C21.0218 38.3761 18.1938 37.7043 14.4781 37.3834C8.91206 36.9036 10.8104 67.8046 14.733 67.2708Z" fill="url(#paint36_linear)"/>
<path d="M20.5238 60.925C19.5732 59.6595 20.3979 62.3825 21.1566 64.3438C21.8044 66.0143 16.8471 65.0276 13.0535 65.4355C13.5483 66.659 14.1151 67.3518 14.7329 67.2678C17.5189 66.887 23.8526 66.1282 24.8633 66.1282C23.4388 64.9166 21.4745 62.1936 20.5238 60.925Z" fill="url(#paint37_radial)"/>
<path d="M24.8664 66.1313C24.0777 65.4595 23.127 64.3319 22.2753 63.2402C22.2753 63.2402 17.666 65.6004 12.7207 64.4908C13.2905 66.2962 13.9743 67.3758 14.736 67.2739C17.519 66.89 23.8528 66.1313 24.8664 66.1313Z" fill="url(#paint38_radial)"/>
<path opacity="0.24" d="M42.764 19.6151C40.9587 20.005 39.4952 17.5129 38.6705 14.6039C37.9958 12.2257 38.9134 9.19679 40.6858 8.85491C42.4582 8.51303 44.0956 8.49804 45.0732 13.5393C45.646 16.5082 44.5274 19.2343 42.764 19.6151Z" fill="url(#paint39_radial)"/>
<path opacity="0.5" d="M42.764 20.9472C40.9587 21.337 39.4952 18.8449 38.6705 15.9359C37.9958 13.5578 38.9134 10.5288 40.6858 10.1869C42.4582 9.84506 44.0956 9.83007 45.0732 14.8713C45.646 17.8402 44.5274 20.5663 42.764 20.9472Z" fill="url(#paint40_radial)"/>
<path d="M47.7634 63.1081C46.7707 63.2131 45.871 63.7439 45.2533 64.4756C44.6265 65.2133 44.3326 66.179 44.3956 67.1477C44.4016 68.1223 44.5485 69.1179 45.1033 69.9067C45.6521 70.7014 46.5728 71.1782 47.4994 71.5111C46.5398 71.2952 45.5382 70.8993 44.8964 70.0596C44.2456 69.2289 44.0957 68.1463 44.0627 67.1537C44.0207 66.137 44.3446 65.0574 45.0613 64.3077C45.7571 63.5519 46.7617 63.0871 47.7634 63.1081Z" fill="#804B24"/>
<path d="M46.171 54.2734C45.5172 54.5583 44.9145 54.9452 44.4166 55.428C43.9098 55.9049 43.6369 56.5586 43.451 57.2214L43.454 57.2124C43.214 58.421 43.418 59.7105 44.1287 60.7152C44.8215 61.7348 45.9491 62.4006 47.1457 62.7904C45.9131 62.5535 44.6715 61.9537 43.8918 60.8831C43.5049 60.3553 43.238 59.7405 43.1121 59.0987C42.9801 58.454 43.0401 57.7822 43.1631 57.1554L43.1661 57.1464C43.361 56.4507 43.7089 55.7519 44.2787 55.2811C44.8245 54.7923 45.4963 54.4924 46.171 54.2734Z" fill="#804B24"/>
<path d="M47.0497 44.5068C45.8741 44.6388 44.7405 45.1276 43.9307 45.9493C43.118 46.771 42.6802 47.9016 42.6082 49.0532C42.4882 50.2018 42.6772 51.4014 43.3339 52.3521C43.9817 53.3087 45.0404 53.9505 46.174 54.2804C45.0134 54.0704 43.8588 53.4977 43.127 52.499C42.3773 51.5124 42.1793 50.2168 42.2783 49.0232C42.3773 47.8237 42.8481 46.5971 43.7538 45.7634C44.6505 44.9267 45.8681 44.5188 47.0497 44.5068Z" fill="#804B24"/>
<path d="M48.0902 34.0576C46.8336 34.3995 45.5861 34.8763 44.5964 35.689C43.5978 36.4988 43.058 37.7493 43.1419 39.0299C43.1269 40.3014 43.5408 41.5999 44.5094 42.4456C45.4631 43.2973 46.7496 43.7142 48.0182 43.9841C46.7316 43.8312 45.3911 43.5103 44.3415 42.6376C43.2679 41.7799 42.812 40.3554 42.809 39.0359C42.7401 37.6953 43.3429 36.2918 44.4345 35.4911C45.5111 34.6724 46.8096 34.2855 48.0902 34.0576Z" fill="#804B24"/>
<path d="M43.7659 60.3467C44.6296 61.8431 46.291 62.6169 47.9314 62.8388C49.6018 63.0967 51.2842 63.2736 52.9696 63.3816C54.652 63.5255 56.3434 63.6125 58.0318 63.6065C58.8745 63.5945 59.7202 63.5735 60.5599 63.4925C61.3996 63.4236 62.2453 63.3396 63.055 63.0727C61.4566 63.6725 59.7232 63.7684 58.0348 63.8284C56.3374 63.8704 54.637 63.8224 52.9426 63.7145C51.2512 63.5675 49.5658 63.3546 47.8924 63.0577C47.0527 62.9198 46.213 62.6588 45.4783 62.212C44.7495 61.7562 44.1467 61.1054 43.7659 60.3467Z" fill="#804B24"/>
<path d="M43.5679 52.8438C44.2156 53.4885 45.0493 53.9144 45.919 54.1303C46.7857 54.3882 47.6944 54.3313 48.6091 54.3732L54.0701 54.5322L59.5312 54.8021C61.3426 54.9131 63.1869 54.9371 64.9233 54.3433C63.2319 55.063 61.3306 55.123 59.5282 55.024L54.0672 54.8651L48.6061 54.5952C47.7064 54.5352 46.7647 54.5772 45.8771 54.2863C44.9954 54.0104 44.1737 53.5275 43.5679 52.8438Z" fill="#804B24"/>
<path d="M63.0818 44.4731C61.7743 44.4761 60.4668 44.5121 59.1622 44.5001L55.2426 44.5091L51.326 44.5631C50.0215 44.5721 48.7139 44.5781 47.4124 44.6291H47.4004C46.1168 44.6081 44.7853 45.0459 43.8586 45.9666C42.914 46.8783 42.4701 48.2008 42.4102 49.5204C42.4192 48.8576 42.4911 48.1918 42.6951 47.5501C42.899 46.9113 43.2529 46.3145 43.7297 45.8347C44.6804 44.857 46.0539 44.3712 47.4064 44.3682H47.3974C50.0155 44.2092 52.6275 44.2092 55.2426 44.2512C57.8577 44.2812 60.4698 44.3322 63.0818 44.4731Z" fill="#804B24"/>
<defs>
<linearGradient id="paint0_linear" x1="53.692" y1="39.2615" x2="34.6402" y2="40.0263" gradientUnits="userSpaceOnUse">
<stop offset="0.00132565" stop-color="#D2A374"/>
<stop offset="1" stop-color="#DEBA94"/>
</linearGradient>
<linearGradient id="paint1_linear" x1="33.1283" y1="65.6663" x2="32.7456" y2="55.6525" gradientUnits="userSpaceOnUse">
<stop offset="0.3118" stop-color="#F0C492" stop-opacity="0"/>
<stop offset="1" stop-color="#B88653"/>
</linearGradient>
<linearGradient id="paint2_linear" x1="20.2993" y1="19.7986" x2="57.0579" y2="22.5531" gradientUnits="userSpaceOnUse">
<stop stop-color="#D2A374" stop-opacity="0"/>
<stop offset="1" stop-color="#B88653"/>
</linearGradient>
<linearGradient id="paint3_linear" x1="9.07119" y1="52.4639" x2="62.2642" y2="52.4639" gradientUnits="userSpaceOnUse">
<stop offset="0.3118" stop-color="#D2A374" stop-opacity="0"/>
<stop offset="1" stop-color="#D2A374"/>
</linearGradient>
<linearGradient id="paint4_linear" x1="8.81793" y1="53.6467" x2="58.1101" y2="53.6467" gradientUnits="userSpaceOnUse">
<stop offset="0.3118" stop-color="#D2A374" stop-opacity="0"/>
<stop offset="1" stop-color="#B88653"/>
</linearGradient>
<linearGradient id="paint5_linear" x1="26.9685" y1="64.9923" x2="42.7358" y2="56.4438" gradientUnits="userSpaceOnUse">
<stop stop-color="#D2A374" stop-opacity="0"/>
<stop offset="1" stop-color="#B88653"/>
</linearGradient>
<linearGradient id="paint6_linear" x1="45.0349" y1="52.8654" x2="58.1857" y2="51.1375" gradientUnits="userSpaceOnUse">
<stop stop-color="#643800" stop-opacity="0"/>
<stop offset="1" stop-color="#643800"/>
</linearGradient>
<radialGradient id="paint7_radial" cx="0" cy="0" r="1" gradientUnits="userSpaceOnUse" gradientTransform="translate(16.2461 24.0739) scale(27.8057)">
<stop stop-color="#D2A374" stop-opacity="0"/>
<stop offset="1" stop-color="#D2A374"/>
</radialGradient>
<linearGradient id="paint8_linear" x1="54.3946" y1="44.724" x2="55.4077" y2="19.5218" gradientUnits="userSpaceOnUse">
<stop offset="0.00132565" stop-color="#D2A374"/>
<stop offset="1" stop-color="#DEBA94"/>
</linearGradient>
<linearGradient id="paint9_linear" x1="65.3572" y1="58.7182" x2="46.6855" y2="58.7182" gradientUnits="userSpaceOnUse">
<stop offset="0.00132565" stop-color="#D2A374"/>
<stop offset="1" stop-color="#DEBA94"/>
</linearGradient>
<linearGradient id="paint10_linear" x1="65.3574" y1="67.5529" x2="46.696" y2="67.5529" gradientUnits="userSpaceOnUse">
<stop offset="0.00132565" stop-color="#D2A374"/>
<stop offset="1" stop-color="#DEBA94"/>
</linearGradient>
<linearGradient id="paint11_linear" x1="53.2286" y1="48.4969" x2="57.5029" y2="19.6219" gradientUnits="userSpaceOnUse">
<stop stop-color="#D2A374"/>
<stop offset="0.9987" stop-color="#E9CDB1"/>
</linearGradient>
<linearGradient id="paint12_linear" x1="53.9376" y1="65.4244" x2="55.3308" y2="44.2112" gradientUnits="userSpaceOnUse">
<stop stop-color="#D2A374"/>
<stop offset="0.9987" stop-color="#E9CDB1"/>
</linearGradient>
<linearGradient id="paint13_linear" x1="59.3721" y1="77.7732" x2="42.8453" y2="50.5449" gradientUnits="userSpaceOnUse">
<stop stop-color="#D2A374"/>
<stop offset="0.9987" stop-color="#E9CDB1"/>
</linearGradient>
<linearGradient id="paint14_linear" x1="20.4096" y1="47.1757" x2="3.59761" y2="65.6975" gradientUnits="userSpaceOnUse">
<stop offset="0.3105" stop-color="#D2A374" stop-opacity="0"/>
<stop offset="1" stop-color="#B88653"/>
</linearGradient>
<linearGradient id="paint15_linear" x1="49.0835" y1="38.8712" x2="43.797" y2="38.8712" gradientUnits="userSpaceOnUse">
<stop offset="0.3118" stop-color="#D2A374" stop-opacity="0"/>
<stop offset="1" stop-color="#B88653"/>
</linearGradient>
<linearGradient id="paint16_linear" x1="48.1336" y1="39.0231" x2="42.0539" y2="39.0231" gradientUnits="userSpaceOnUse">
<stop stop-color="#D2A374" stop-opacity="0"/>
<stop offset="1" stop-color="#B88653"/>
</linearGradient>
<radialGradient id="paint17_radial" cx="0" cy="0" r="1" gradientUnits="userSpaceOnUse" gradientTransform="translate(33.9141 63.0863) rotate(7.56083) scale(5.64468 2.68237)">
<stop stop-color="#F8DBBA"/>
<stop offset="1" stop-color="#CD9870" stop-opacity="0"/>
</radialGradient>
<radialGradient id="paint18_radial" cx="0" cy="0" r="1" gradientUnits="userSpaceOnUse" gradientTransform="translate(55.8596 39.0535) rotate(2.02594) scale(6.35089 4.16699)">
<stop stop-color="#E9CDB1"/>
<stop offset="1" stop-color="#E9CDB1" stop-opacity="0"/>
</radialGradient>
<radialGradient id="paint19_radial" cx="0" cy="0" r="1" gradientUnits="userSpaceOnUse" gradientTransform="translate(55.5525 59.5045) rotate(-0.0543699) scale(6.82074 3.67438)">
<stop stop-color="#E9CDB1"/>
<stop offset="1" stop-color="#E9CDB1" stop-opacity="0"/>
</radialGradient>
<radialGradient id="paint20_radial" cx="0" cy="0" r="1" gradientUnits="userSpaceOnUse" gradientTransform="translate(53.2131 67.7634) rotate(-0.0539413) scale(6.24304 3.90579)">
<stop stop-color="#E9CDB1"/>
<stop offset="1" stop-color="#E9CDB1" stop-opacity="0"/>
</radialGradient>
<linearGradient id="paint21_linear" x1="49.7166" y1="58.613" x2="42.0546" y2="58.613" gradientUnits="userSpaceOnUse">
<stop offset="0.3118" stop-color="#D2A374" stop-opacity="0"/>
<stop offset="1" stop-color="#B88653"/>
</linearGradient>
<linearGradient id="paint22_linear" x1="48.0885" y1="58.3455" x2="43.9613" y2="58.3455" gradientUnits="userSpaceOnUse">
<stop stop-color="#D2A374" stop-opacity="0"/>
<stop offset="1" stop-color="#B88653"/>
</linearGradient>
<linearGradient id="paint23_linear" x1="49.4414" y1="67.6031" x2="40.4813" y2="65.9568" gradientUnits="userSpaceOnUse">
<stop offset="0.3118" stop-color="#D2A374" stop-opacity="0"/>
<stop offset="1" stop-color="#B88653"/>
</linearGradient>
<linearGradient id="paint24_linear" x1="48.5149" y1="67.3104" x2="44.7275" y2="67.3104" gradientUnits="userSpaceOnUse">
<stop stop-color="#D2A374" stop-opacity="0"/>
<stop offset="1" stop-color="#B88653"/>
</linearGradient>
<linearGradient id="paint25_linear" x1="54.5521" y1="37.8319" x2="56.9584" y2="49.4833" gradientUnits="userSpaceOnUse">
<stop stop-color="#D2A374" stop-opacity="0"/>
<stop offset="1" stop-color="#B88653"/>
</linearGradient>
<linearGradient id="paint26_linear" x1="54.8536" y1="61.1491" x2="55.7085" y2="51.2708" gradientUnits="userSpaceOnUse">
<stop stop-color="#D2A374" stop-opacity="0"/>
<stop offset="1" stop-color="#B88653"/>
</linearGradient>
<linearGradient id="paint27_linear" x1="65.3573" y1="49.6704" x2="46.6959" y2="49.6704" gradientUnits="userSpaceOnUse">
<stop offset="0.00132565" stop-color="#D2A374"/>
<stop offset="1" stop-color="#DEBA94"/>
</linearGradient>
<linearGradient id="paint28_linear" x1="54.6401" y1="56.0954" x2="56.4131" y2="38.1753" gradientUnits="userSpaceOnUse">
<stop stop-color="#D2A374"/>
<stop offset="0.9987" stop-color="#E9CDB1"/>
</linearGradient>
<linearGradient id="paint29_linear" x1="51.5213" y1="49.4767" x2="40.8414" y2="49.4767" gradientUnits="userSpaceOnUse">
<stop offset="0.3118" stop-color="#D2A374" stop-opacity="0"/>
<stop offset="1" stop-color="#B88653"/>
</linearGradient>
<radialGradient id="paint30_radial" cx="0" cy="0" r="1" gradientUnits="userSpaceOnUse" gradientTransform="translate(57.7207 49.5022) rotate(-2.73453) scale(7.2444 4.75173)">
<stop stop-color="#E9CDB1"/>
<stop offset="1" stop-color="#E9CDB1" stop-opacity="0"/>
</radialGradient>
<linearGradient id="paint31_linear" x1="46.5572" y1="49.4648" x2="43.1852" y2="49.4648" gradientUnits="userSpaceOnUse">
<stop stop-color="#D2A374" stop-opacity="0"/>
<stop offset="1" stop-color="#B88653"/>
</linearGradient>
<linearGradient id="paint32_linear" x1="55.438" y1="48.4362" x2="57.4643" y2="61.3223" gradientUnits="userSpaceOnUse">
<stop stop-color="#D2A374" stop-opacity="0"/>
<stop offset="1" stop-color="#B88653"/>
</linearGradient>
<linearGradient id="paint33_linear" x1="54.0323" y1="58.4052" x2="59.2248" y2="69.6767" gradientUnits="userSpaceOnUse">
<stop stop-color="#D2A374" stop-opacity="0"/>
<stop offset="1" stop-color="#B88653"/>
</linearGradient>
<linearGradient id="paint34_linear" x1="52.9973" y1="68.2912" x2="53.7571" y2="75.4148" gradientUnits="userSpaceOnUse">
<stop stop-color="#D2A374" stop-opacity="0"/>
<stop offset="1" stop-color="#B88653"/>
</linearGradient>
<linearGradient id="paint35_linear" x1="53.1768" y1="67.2109" x2="53.1768" y2="62.0579" gradientUnits="userSpaceOnUse">
<stop stop-color="#D2A374" stop-opacity="0"/>
<stop offset="1" stop-color="#B88653"/>
</linearGradient>
<linearGradient id="paint36_linear" x1="18.3692" y1="52.9846" x2="2.22204" y2="77.3954" gradientUnits="userSpaceOnUse">
<stop offset="0.3105" stop-color="#D2A374" stop-opacity="0"/>
<stop offset="1" stop-color="#B88653"/>
</linearGradient>
<radialGradient id="paint37_radial" cx="0" cy="0" r="1" gradientUnits="userSpaceOnUse" gradientTransform="translate(18.9641 63.9387) scale(4.7959)">
<stop stop-color="#D2A374" stop-opacity="0"/>
<stop offset="1" stop-color="#D2A374"/>
</radialGradient>
<radialGradient id="paint38_radial" cx="0" cy="0" r="1" gradientUnits="userSpaceOnUse" gradientTransform="translate(18.7953 65.2572) scale(4.52564)">
<stop stop-color="#D2A374" stop-opacity="0"/>
<stop offset="1" stop-color="#D2A374"/>
</radialGradient>
<radialGradient id="paint39_radial" cx="0" cy="0" r="1" gradientUnits="userSpaceOnUse" gradientTransform="translate(41.8386 14.1731) rotate(79.066) scale(5.24955 3.18618)">
<stop stop-color="#F8DBBA"/>
<stop offset="1" stop-color="#CD9870" stop-opacity="0"/>
</radialGradient>
<radialGradient id="paint40_radial" cx="0" cy="0" r="1" gradientUnits="userSpaceOnUse" gradientTransform="translate(41.8855 15.534) rotate(79.0632) scale(5.41308 3.17713)">
<stop stop-color="#E9CDB1"/>
<stop offset="1" stop-color="#E9CDB1" stop-opacity="0"/>
</radialGradient>
</defs>
</svg>
