<svg width="80" height="80" viewBox="0 0 80 80" fill="none" xmlns="http://www.w3.org/2000/svg">
<path d="M40.2557 72C37.7747 72 36.8356 70.019 37.0271 66.1737C37.1533 63.6413 38.0083 56.5814 34.4293 53.0024C31.0933 49.6664 30.1214 49.9607 26.3229 45.6575C22.5243 41.3496 19.3564 42.2374 14.9271 42.6158C9.35767 43.0924 11.2546 12.1944 15.1794 12.727C17.9641 13.1055 24.2997 13.867 25.309 13.867C26.3182 13.867 33.2706 8.48454 39.368 8.4238C49.2452 8.32101 54.6932 10.0685 54.6932 10.0685L57.5853 16.6331L58.5525 36.6539L53.9316 46.2883C53.9316 46.2883 47.7267 45.2744 45.9513 48.0591C44.1805 50.8438 47.3436 54.2639 47.3436 62.2442C47.3436 70.2246 41.5219 72 40.2557 72Z" fill="url(#paint0_linear)"/>
<path d="M45.9513 48.0639C44.1805 50.8486 47.3437 54.2687 47.3437 62.249C47.3437 70.2293 41.5173 72.0001 40.2511 72.0001C39.9194 72.0001 39.6203 71.9628 39.354 71.8927C44.5216 71.5703 47.6334 65.0524 45.8485 58.3336C44.4048 52.881 43.6852 48.5124 46.0448 45.9473C47.5726 44.2886 50.6049 44.569 53.927 46.293C53.9316 46.293 47.7268 45.2792 45.9513 48.0639Z" fill="url(#paint1_linear)"/>
<path d="M46.3019 45.223C43.2602 44.2091 35.5882 41.8262 29.7712 36.5558C15.0394 23.193 40.1951 21.5203 45.3861 10.0918C46.3813 7.90517 52.1843 21.5483 52.1843 21.5483L54.0626 24.7068L48.638 39.149L46.3019 45.223Z" fill="url(#paint2_linear)"/>
<path d="M46.7456 44.0644C43.7039 43.0505 31.2896 35.0982 31.2896 31.1688C31.2896 19.8338 39.8866 25.4265 44.5356 12.0543C45.1804 10.2041 47.4511 8.64355 47.4511 8.64355C49.334 10.1807 52.1842 21.5438 52.1842 21.5438L54.0624 24.7023L48.6379 39.1445L46.7456 44.0644Z" fill="url(#paint3_linear)"/>
<path d="M53.7634 9.32539L59.5805 15.9741L60.8607 43.7557L46.3017 45.2228C42.961 43.424 42.5732 40.9617 43.8161 37.0136C44.3394 35.3502 42.2135 34.8736 42.078 30.0331C41.9845 26.6784 44.1805 26.6597 44.1805 25.6645C44.1805 24.6693 43.0872 24.7581 42.7227 21.8659C42.2041 17.7309 45.6663 17.6515 45.6663 16.7684C45.6663 15.8853 43.7413 15.3574 43.8628 11.9886C44.0123 7.71344 36.074 8.57782 30.7102 12.4699C28.5049 14.0678 26.5846 14.2313 25.0801 13.8716C25.1735 13.8762 25.253 13.8809 25.3137 13.8809C26.3276 13.8809 33.1305 8.43765 39.3727 8.43765C46.6615 8.42831 51.7123 8.85349 53.7634 9.32539Z" fill="url(#paint4_linear)"/>
<path d="M55.0999 43.3913C50.6051 43.3913 48.1334 38.9993 49.8435 35.6213C51.5536 32.2432 46.6757 27.7764 47.1849 25.5804C47.6896 23.3798 48.5773 17.815 49.2735 16.8946C49.9696 15.9742 48.1334 13.8856 48.1334 13.8856L53.8337 13.1895L59.1508 15.535L58.9592 31.6171L59.5292 41.6859L55.0999 43.3913Z" fill="url(#paint5_linear)"/>
<path d="M40.2559 72.0002C37.7749 72.0002 36.8358 70.0191 37.0273 66.1738C37.1535 63.6414 38.0085 56.5815 34.4295 53.0025C31.0935 49.6665 30.1216 49.9608 26.323 45.6576C23.856 42.8589 21.6554 42.2562 19.2024 42.2795C17.8802 42.2936 16.4831 42.4851 14.9272 42.6206C14.9272 41.6581 15.2076 41.6815 18.88 40.6676C19.3005 40.5508 19.6977 40.4713 20.0855 40.4246C20.2724 39.8406 20.3752 39.2519 20.3518 38.6678C20.2163 35.4673 20.9218 31.5285 21.4592 35.6262C21.6694 37.2147 22.3188 38.9996 23.2486 40.7984C24.641 41.3544 25.767 42.3963 26.7669 43.6111C28.6312 45.8772 30.2478 47.8863 34.9341 50.9233C39.6205 53.965 39.0177 62.3191 38.6393 65.1085C38.2608 67.8979 38.5084 72.0002 40.2559 72.0002Z" fill="url(#paint6_radial)"/>
<path d="M58.5061 46.4191C53.189 46.62 43.6342 46.9237 43.4239 41.3543C43.2697 37.3174 46.1338 35.9905 50.5632 35.8223C54.9926 35.6541 57.2072 35.57 59.0435 35.4999C60.8797 35.4298 66.65 35.4672 66.7061 40.3404C66.7715 46.4331 58.5061 46.4191 58.5061 46.4191Z" fill="url(#paint7_linear)"/>
<path d="M49.7639 26.2858C48.3389 26.3279 44.1104 25.2579 43.7133 22.5713C43.4002 20.4594 44.4796 17.7261 48.1613 17.0813C52.8243 16.2637 60.5991 15.8385 63.5006 16.9225C64.7995 17.4084 65.9302 18.7634 65.9862 20.8239C66.0423 22.8844 64.5191 25.6644 61.1971 25.7578C57.8751 25.856 56.1417 25.8046 54.2494 26.0242C51.974 26.2952 50.904 26.2531 49.7639 26.2858Z" fill="url(#paint8_linear)"/>
<path d="M48.2782 16.8946C46.6616 16.8946 44.6711 15.4695 44.6711 13.096C44.6711 10.7224 45.2879 8.96565 48.7548 8.2975C52.2216 7.62936 57.777 8.20406 59.8655 8.86753C61.4915 9.38615 62.0989 10.9093 62.0989 13.4277C62.0989 15.9461 60.5337 16.3853 58.8236 16.3853C57.1135 16.3853 55.039 16.0722 53.8522 16.1377C50.5442 16.3105 49.8948 16.8946 48.2782 16.8946Z" fill="url(#paint9_linear)"/>
<path d="M58.0526 45.2931C53.4129 45.4707 45.0682 45.737 44.9 41.3357C44.7785 38.1445 47.2829 37.0885 51.1515 36.939C55.0202 36.7895 65.1965 36.6073 65.2292 40.4619C65.2713 45.2791 58.0526 45.2931 58.0526 45.2931Z" fill="url(#paint10_linear)"/>
<path d="M50.1891 25.1507C48.951 25.1881 45.4748 24.8891 45.143 22.324C44.9187 20.5859 45.8205 18.3572 49.0257 17.8199C53.0906 17.1424 59.8561 16.7826 62.3839 17.6703C63.5099 18.0675 64.4958 19.1748 64.5425 20.8615C64.5892 22.5482 63.038 24.6181 60.1458 24.6975C57.2537 24.7816 55.7165 24.5153 54.0625 24.7022C52.0814 24.9264 51.1843 25.1227 50.1891 25.1507Z" fill="url(#paint11_linear)"/>
<path d="M48.9697 16.0303C47.5727 16.0303 45.8486 14.8809 45.8486 12.9699C45.8486 11.0589 46.3813 9.6432 49.3809 9.10589C52.3805 8.56857 57.1883 9.03113 58.9919 9.56377C60.3982 9.97961 60.9215 11.2084 60.9215 13.2362C60.9215 15.264 59.5666 15.6191 58.0854 15.6191C56.6043 15.6191 54.8101 15.3668 53.7869 15.4182C50.9274 15.5584 50.3668 16.0303 48.9697 16.0303Z" fill="url(#paint12_linear)"/>
<path d="M18.6275 13.1755C14.8897 14.7828 11.3948 36.7894 18.2865 42.3168C17.2352 42.3822 16.1279 42.5223 14.9271 42.6251C9.35767 43.1017 11.2546 12.2037 15.1794 12.7363C16.0671 12.8531 17.31 13.012 18.6275 13.1755Z" fill="url(#paint13_linear)"/>
<path d="M48.1194 41.3355C48.2362 44.3678 50.6518 45.8209 53.7075 46.4937C48.8296 46.3816 43.5779 45.4705 43.419 41.3588C43.2648 37.3219 46.129 35.995 50.5583 35.8268C51.0442 35.8081 51.5068 35.7894 51.9413 35.7754C49.4556 36.4996 47.9979 38.1349 48.1194 41.3355Z" fill="url(#paint14_linear)"/>
<path d="M48.5353 45.9423C45.6992 45.3209 43.5219 43.98 43.4191 41.3541C43.2929 37.9947 45.2506 36.5183 48.4605 36.0137C41.952 38.6115 44.2881 45.0126 48.5353 45.9423Z" fill="url(#paint15_linear)"/>
<path opacity="0.65" d="M40.9752 14.0352C40.223 12.3111 36.6533 12.2036 32.9949 13.7922C29.3365 15.3808 26.9863 18.0721 27.7338 19.7961C28.4861 21.5202 32.0557 21.6277 35.7142 20.0391C39.3726 18.4458 41.7274 15.7593 40.9752 14.0352Z" fill="url(#paint16_radial)"/>
<path opacity="0.75" d="M62.4868 40.5228C62.4494 38.1913 59.333 37.0887 55.9268 36.8831C53.1375 36.7149 50.0444 38.6866 50.1238 40.962C50.2032 43.2374 50.6097 45.2559 56.3987 45.055C59.8142 44.9335 62.5241 42.7982 62.4868 40.5228Z" fill="url(#paint17_radial)"/>
<path opacity="0.75" d="M63.1081 20.0387C63.0894 16.8148 59.5385 17.4315 56.1323 17.2073C51.8104 16.9223 48.9463 18.2679 48.9417 20.5433C48.9417 22.8187 50.5816 24.4821 56.38 24.4914C59.7954 24.4961 63.1315 24.183 63.1081 20.0387Z" fill="url(#paint18_radial)"/>
<path opacity="0.75" d="M59.9823 11.9046C59.9637 9.15259 56.7397 8.77881 53.6887 8.77881C50.6377 8.77881 47.3204 10.3954 47.3157 12.3344C47.311 14.2735 48.7828 15.6892 53.9644 15.6985C57.0201 15.7032 60.0057 15.4369 59.9823 11.9046Z" fill="url(#paint19_radial)"/>
<path d="M47.6753 21.922C48.1612 25.5945 50.9786 25.3795 54.2072 25.7627C50.488 26.0383 48.9274 26.0804 48.9274 26.0804C48.5817 26.1131 48.1939 26.1178 47.7874 26.0757C46.5773 25.8094 45.2083 25.2581 44.3953 24.2302C44.1196 23.8377 43.8954 23.3751 43.7458 22.8238C43.7318 22.7444 43.7178 22.6649 43.7038 22.5808C43.4421 20.4596 44.47 17.7356 48.1518 17.0909C48.6845 16.9974 49.2545 16.9086 49.8572 16.8292C50.1469 16.7918 50.46 16.7544 50.7964 16.7124C50.8851 16.703 50.9786 16.689 51.0674 16.6797C49.0442 17.6328 47.3155 19.2214 47.6753 21.922Z" fill="url(#paint20_linear)"/>
<path d="M48.5725 26.104C48.3202 26.1134 48.0585 26.104 47.7829 26.076C46.5634 25.805 45.185 25.249 44.3721 24.2024C44.1057 23.8146 43.8908 23.3567 43.746 22.8241C43.732 22.7446 43.7226 22.6652 43.7039 22.5811C43.3301 20.4926 44.3674 18.0303 47.5819 17.2173C42.1013 20.2356 44.4421 26.0994 48.5725 26.104Z" fill="url(#paint21_linear)"/>
<path d="M51.7684 16.3337C50.1471 16.572 49.479 16.8944 48.2782 16.8944C46.6616 16.8944 44.6711 15.4693 44.6711 13.0958C44.6711 12.2314 44.7552 11.4511 45.0216 10.7783C45.2926 10.2176 45.6897 9.69432 46.2364 9.25512C46.8344 8.83928 47.6474 8.51222 48.7548 8.30197C49.4977 8.1618 50.334 8.07302 51.2124 8.03564C49.5163 9.0215 46.6475 9.54948 47.2503 12.8435C47.9137 16.4785 50.0864 15.9879 51.7684 16.3337Z" fill="url(#paint22_linear)"/>
<path d="M48.2081 16.8943C46.6055 16.8522 44.6711 15.4365 44.6711 13.0957C44.6711 10.9184 45.1898 9.26437 47.9464 8.48877C43.6432 11.2548 45.0262 15.9131 48.2081 16.8943Z" fill="url(#paint23_linear)"/>
<path d="M66.7011 40.34C66.7058 40.8867 66.6451 41.382 66.5282 41.8352C66.9534 39.9335 65.262 38.0413 60.7673 37.1208C57.7863 36.5134 49.8761 35.7518 44.4001 37.9245C45.5822 36.4947 47.7549 35.9247 50.5583 35.8172C54.9876 35.649 57.2023 35.5649 59.0385 35.4948C60.8747 35.4294 66.6451 35.4621 66.7011 40.34Z" fill="url(#paint24_linear)"/>
<path d="M65.991 20.9595C65.9864 23.0013 64.4538 25.6645 61.1972 25.7579C57.8752 25.8561 56.1418 25.8047 54.2495 26.0243C51.9741 26.2906 50.9041 26.2532 49.7641 26.2859C48.9044 26.3093 46.7785 26.0523 45.3347 25.1552C46.9607 24.5899 49.6052 23.7442 53.329 23.9825C62.2485 24.5572 64.7902 23.4779 65.991 20.9595Z" fill="url(#paint25_linear)"/>
<path d="M47.8483 35.4997C45.9514 35.5371 42.9331 34.4204 42.8536 30.477C42.7742 26.5336 46.2224 25.5944 47.7409 25.5664C49.2594 25.5384 54.5718 25.1739 61.1271 25.0431C67.6824 24.9123 68.5561 28.4305 68.5934 30.2714C68.6308 32.1123 67.4628 35.4484 63.5193 35.5278C52.1282 35.7567 47.8483 35.4997 47.8483 35.4997Z" fill="url(#paint26_linear)"/>
<path d="M48.8671 34.355C47.2177 34.3877 44.5966 33.5326 44.5358 30.491C44.4751 27.4493 47.4747 26.7157 48.797 26.6924C50.1192 26.6643 54.2449 26.0242 60.431 26.2625C66.1266 26.4821 66.8835 28.8603 66.9116 30.2807C66.9396 31.7011 66.7434 34.2755 63.3185 34.3456C53.4132 34.5419 48.8671 34.355 48.8671 34.355Z" fill="url(#paint27_linear)"/>
<path d="M46.9326 30.8604C47.1241 34.9066 49.9462 34.9206 53.1374 35.6168C49.4089 35.5934 47.8483 35.5 47.8483 35.5C45.9514 35.5374 42.9331 34.4207 42.8536 30.4773C42.7742 26.5338 46.2224 25.5947 47.7409 25.5666C48.2876 25.5573 49.3295 25.5012 50.7452 25.4312C48.6426 26.3002 46.7924 27.8841 46.9326 30.8604Z" fill="url(#paint28_linear)"/>
<path opacity="0.75" d="M65.2619 30.4397C65.3928 27.2158 61.8138 26.6083 58.403 26.4448C54.9922 26.2813 51.1983 28.0054 51.0908 30.2808C50.9833 32.5562 52.5439 34.2896 58.3376 34.57C61.7437 34.7382 65.0937 34.5793 65.2619 30.4397Z" fill="url(#paint29_radial)"/>
<path d="M47.4932 35.4952C45.5963 35.3924 42.9284 34.1823 42.8536 30.4818C42.7789 26.7346 45.8906 25.702 47.5026 25.5806C41.265 28.0989 43.3115 35.1214 47.4932 35.4952Z" fill="url(#paint30_linear)"/>
<path d="M68.5888 30.6686C67.7665 24.8375 52.3432 25.9028 44.0125 27.155C45.1385 25.9495 46.8112 25.5851 47.7456 25.5664C49.2641 25.5384 54.5766 25.1739 61.1318 25.0431C67.6824 24.9123 68.5608 28.4305 68.5982 30.2714C68.5982 30.3976 68.5982 30.5331 68.5888 30.6686Z" fill="url(#paint31_linear)"/>
<path d="M60.8606 17.6838C57.875 17.553 49.9695 16.5718 44.2085 19.6555C44.8486 18.4594 46.0961 17.4455 48.1566 17.0857C52.8196 16.2681 60.5943 15.8429 63.4958 16.9269C64.7947 17.4128 65.9254 18.7678 65.9815 20.8283C65.7993 19.0388 64.0892 17.824 60.8606 17.6838Z" fill="url(#paint32_linear)"/>
<path d="M61.87 11.2038C59.9123 9.71331 56.5295 8.83491 51.6516 9.66191C48.6379 10.1712 46.5728 10.3441 45.2131 10.3814C45.7551 9.40026 46.8064 8.67605 48.7594 8.30227C52.2263 7.6388 57.7817 8.20882 59.8702 8.87229C60.9402 9.21337 61.5663 9.99365 61.87 11.2038Z" fill="url(#paint33_linear)"/>
<path d="M45.3113 15.2311C48.9277 16.5487 50.6985 14.5957 54.5718 14.5957C58.59 14.5957 60.5057 16.217 61.9307 14.6751C61.4822 16.1002 60.1973 16.3852 58.8236 16.3852C57.1136 16.3852 55.039 16.0722 53.8523 16.1376C50.5443 16.3104 49.8948 16.8992 48.2782 16.8992C47.2363 16.8945 46.0308 16.2964 45.3113 15.2311Z" fill="url(#paint34_linear)"/>
<path d="M15.1794 12.7319C17.9641 13.1104 24.2951 13.872 25.309 13.872C16.1279 20.4366 20.2115 34.4021 23.599 41.462C24.0755 42.4525 24.3699 43.2655 24.5241 43.957C21.4684 41.6255 18.6416 42.2983 14.9225 42.6207C9.35773 43.0973 11.2547 12.1993 15.1794 12.7319Z" fill="url(#paint35_linear)"/>
<path d="M20.9686 19.077C20.0201 20.3432 20.8424 17.6192 21.604 15.6568C22.2488 13.9842 17.2961 14.9747 13.5022 14.5635C13.9975 13.3394 14.5628 12.6479 15.1796 12.732C17.9643 13.1104 24.2953 13.872 25.3091 13.872C23.8841 15.0868 21.9217 17.8108 20.9686 19.077Z" fill="url(#paint36_radial)"/>
<path d="M25.3092 13.8717C24.5195 14.5398 23.5711 15.6705 22.716 16.7639C22.716 16.7639 18.1044 14.4043 13.1611 15.5163C13.7312 13.7128 14.4133 12.6289 15.1749 12.7363C17.9643 13.1101 24.2999 13.8717 25.3092 13.8717Z" fill="url(#paint37_linear)"/>
<path d="M53.9317 46.293C53.9317 46.293 47.7269 45.2791 45.9514 48.0639C44.1806 50.8486 47.3438 54.2687 47.3438 62.249C47.3438 70.2293 41.5174 72.0001 40.2512 72.0001C37.7702 72.0001 36.831 70.0191 37.0226 66.1738C37.1488 63.6414 38.0038 56.5815 34.4248 53.0025C31.0888 49.6665 30.1169 49.9655 26.3183 45.6576C22.5197 41.3497 49.8762 44.4615 53.9317 46.293Z" fill="url(#paint38_linear)"/>
<path d="M48.208 16.8943C47.2128 16.7915 46.3157 16.2588 45.6989 15.5253C45.0729 14.7871 44.7785 13.8246 44.8439 12.8527C44.8486 11.8809 44.9981 10.881 45.5494 10.0914C46.0961 9.29708 47.0165 8.8205 47.9463 8.48877C46.9885 8.7037 45.9886 9.10084 45.3439 9.94186C44.6944 10.7735 44.5402 11.8528 44.5122 12.848C44.4701 13.8619 44.7925 14.9459 45.512 15.6935C46.2036 16.4504 47.2081 16.913 48.208 16.8943Z" fill="#804B24"/>
<path d="M46.6147 25.7296C45.9606 25.4445 45.3579 25.0567 44.858 24.5755C44.3487 24.0989 44.0777 23.4448 43.8955 22.7813V22.7907C43.6572 21.5805 43.8581 20.2956 44.5683 19.2864C45.2644 18.2679 46.3858 17.5997 47.5866 17.2119C46.3531 17.4502 45.1103 18.0483 44.3347 19.1182C43.9469 19.6462 43.6805 20.2583 43.5544 20.903C43.4236 21.5478 43.4843 22.2206 43.6058 22.8467L43.6104 22.8561C43.8067 23.5523 44.1524 24.2484 44.7225 24.7203C45.2691 25.2109 45.9419 25.51 46.6147 25.7296Z" fill="#804B24"/>
<path d="M47.4932 35.495C46.3205 35.3595 45.1851 34.8736 44.3721 34.0512C43.5591 33.2289 43.1199 32.0982 43.0498 30.9441C42.933 29.7948 43.1199 28.5986 43.774 27.6455C44.4235 26.6877 45.4794 26.0476 46.6148 25.7158C45.4561 25.9261 44.302 26.5008 43.5685 27.496C42.8209 28.4818 42.62 29.7807 42.7228 30.9722C42.8209 32.173 43.2928 33.3971 44.1992 34.2335C45.0916 35.0791 46.3111 35.4856 47.4932 35.495Z" fill="#804B24"/>
<path d="M48.535 45.9421C47.2781 45.601 46.0306 45.1244 45.0401 44.3114C44.0402 43.5031 43.5029 42.2509 43.587 40.9707C43.5683 39.6999 43.9841 38.401 44.956 37.5553C45.9091 36.7002 47.194 36.2891 48.4649 36.0181C47.1753 36.1676 45.839 36.4946 44.7878 37.3637C43.7131 38.2234 43.2599 39.6485 43.2553 40.9661C43.1852 42.307 43.7879 43.7087 44.8812 44.5123C45.9558 45.3253 47.2548 45.7178 48.535 45.9421Z" fill="#804B24"/>
<path d="M44.2134 19.656C45.0778 18.1609 46.7364 17.3853 48.3811 17.161C50.0491 16.904 51.7358 16.7265 53.4178 16.619C55.0999 16.4742 56.7913 16.3901 58.4826 16.3947C59.3283 16.4041 60.174 16.4274 61.0104 16.5116C61.8514 16.577 62.6971 16.6657 63.5054 16.9321C61.9074 16.334 60.174 16.2359 58.4873 16.1798C56.7913 16.1378 55.0905 16.1845 53.3945 16.2966C51.7031 16.4415 50.0164 16.6564 48.3437 16.9507C47.5027 17.0909 46.6617 17.3479 45.9281 17.7964C45.1946 18.245 44.5918 18.8991 44.2134 19.656Z" fill="#804B24"/>
<path d="M44.0122 27.1598C44.657 26.515 45.4933 26.0898 46.3624 25.8749C47.2268 25.6179 48.1379 25.674 49.0536 25.6319L54.5156 25.4731L59.9775 25.2021C61.7904 25.09 63.6313 25.0666 65.3694 25.66C63.678 24.9404 61.7764 24.8797 59.9728 24.9778L54.5109 25.1367L49.049 25.4077C48.1519 25.4684 47.2081 25.4264 46.3203 25.716C45.4373 25.9917 44.6196 26.4776 44.0122 27.1598Z" fill="#804B24"/>
<path d="M63.5238 35.5278C62.2156 35.5232 60.912 35.4858 59.6037 35.4998L55.6837 35.4904L51.7683 35.4344C50.4647 35.425 49.1564 35.4204 47.8575 35.369H47.8482C46.5633 35.3923 45.2317 34.9531 44.3066 34.0327C43.3628 33.1216 42.9189 31.7993 42.8582 30.4771C42.8675 31.1405 42.9376 31.804 43.1432 32.4441C43.3487 33.0842 43.6992 33.6776 44.1757 34.1588C45.1289 35.1354 46.4979 35.6213 47.8529 35.6259H47.8435C50.46 35.7848 53.0718 35.7848 55.6883 35.7428C58.3002 35.7194 60.9167 35.6727 63.5238 35.5278Z" fill="#804B24"/>
<path d="M14.7738 12.6181C17.5898 12.9956 23.9919 13.7552 25.0172 13.7552C15.7283 20.3024 19.8577 34.2264 23.2879 41.2723C23.7699 42.2602 24.0675 43.071 24.2234 43.7607C21.1334 41.4354 18.2749 42.1064 14.514 42.4279C8.88675 42.9033 10.805 12.0869 14.7738 12.6181Z" fill="url(#paint39_linear)"/>
<defs>
<linearGradient id="paint0_linear" x1="54.1363" y1="40.7401" x2="35.0852" y2="39.9753" gradientUnits="userSpaceOnUse">
<stop offset="0.00132565" stop-color="#F0C492"/>
<stop offset="1" stop-color="#F8DBBA"/>
</linearGradient>
<linearGradient id="paint1_linear" x1="20.745" y1="60.2024" x2="57.5022" y2="57.4479" gradientUnits="userSpaceOnUse">
<stop offset="0.3118" stop-color="#F0C492" stop-opacity="0"/>
<stop offset="1" stop-color="#E6AF74"/>
</linearGradient>
<linearGradient id="paint2_linear" x1="9.51714" y1="27.5379" x2="62.7083" y2="27.5379" gradientUnits="userSpaceOnUse">
<stop offset="0.3118" stop-color="#F0C492" stop-opacity="0"/>
<stop offset="1" stop-color="#E6AF74"/>
</linearGradient>
<linearGradient id="paint3_linear" x1="9.26371" y1="26.355" x2="58.5541" y2="26.355" gradientUnits="userSpaceOnUse">
<stop offset="0.3118" stop-color="#F0C492" stop-opacity="0"/>
<stop offset="1" stop-color="#E6AF74"/>
</linearGradient>
<linearGradient id="paint4_linear" x1="-0.095707" y1="27.3191" x2="98.6834" y2="26.1794" gradientUnits="userSpaceOnUse">
<stop stop-color="#D2A374" stop-opacity="0"/>
<stop offset="1" stop-color="#B88653"/>
</linearGradient>
<linearGradient id="paint5_linear" x1="45.4796" y1="27.1371" x2="58.6298" y2="28.8649" gradientUnits="userSpaceOnUse">
<stop stop-color="#643800" stop-opacity="0"/>
<stop offset="1" stop-color="#643800"/>
</linearGradient>
<radialGradient id="paint6_radial" cx="0" cy="0" r="1" gradientUnits="userSpaceOnUse" gradientTransform="translate(16.7163 55.9625) scale(27.8005)">
<stop stop-color="#F0C492" stop-opacity="0"/>
<stop offset="1" stop-color="#F0C492"/>
</radialGradient>
<linearGradient id="paint7_linear" x1="54.8391" y1="35.278" x2="55.8522" y2="60.4793" gradientUnits="userSpaceOnUse">
<stop offset="0.00132565" stop-color="#F0C492"/>
<stop offset="1" stop-color="#F8DBBA"/>
</linearGradient>
<linearGradient id="paint8_linear" x1="65.8011" y1="21.2832" x2="47.1301" y2="21.2832" gradientUnits="userSpaceOnUse">
<stop offset="0.00132565" stop-color="#F0C492"/>
<stop offset="1" stop-color="#F8DBBA"/>
</linearGradient>
<linearGradient id="paint9_linear" x1="65.8013" y1="12.4496" x2="47.1405" y2="12.4496" gradientUnits="userSpaceOnUse">
<stop offset="0.00132565" stop-color="#F0C492"/>
<stop offset="1" stop-color="#F8DBBA"/>
</linearGradient>
<linearGradient id="paint10_linear" x1="41.5739" y1="40.833" x2="51.2935" y2="41.0547" gradientUnits="userSpaceOnUse">
<stop offset="0.00132565" stop-color="#F0C492"/>
<stop offset="1" stop-color="#EFD8B7"/>
</linearGradient>
<linearGradient id="paint11_linear" x1="61.6221" y1="21.1513" x2="51.7144" y2="21.1513" gradientUnits="userSpaceOnUse">
<stop offset="0.00132565" stop-color="#F0C492"/>
<stop offset="1" stop-color="#EFD8B7"/>
</linearGradient>
<linearGradient id="paint12_linear" x1="59.8162" y1="2.22903" x2="43.2897" y2="29.4566" gradientUnits="userSpaceOnUse">
<stop offset="0.00132565" stop-color="#F0C492"/>
<stop offset="1" stop-color="#EFD8B7"/>
</linearGradient>
<linearGradient id="paint13_linear" x1="17.3614" y1="27.6752" x2="11.5236" y2="27.6752" gradientUnits="userSpaceOnUse">
<stop offset="0.3118" stop-color="#F0C492" stop-opacity="0"/>
<stop offset="1" stop-color="#E6AF74"/>
</linearGradient>
<linearGradient id="paint14_linear" x1="49.5281" y1="41.1299" x2="44.2417" y2="41.1299" gradientUnits="userSpaceOnUse">
<stop offset="0.3118" stop-color="#F0C492" stop-opacity="0"/>
<stop offset="1" stop-color="#E6AF74"/>
</linearGradient>
<linearGradient id="paint15_linear" x1="48.5783" y1="40.9781" x2="42.4989" y2="40.9781" gradientUnits="userSpaceOnUse">
<stop offset="0.3118" stop-color="#F0C492" stop-opacity="0"/>
<stop offset="1" stop-color="#E6AF74"/>
</linearGradient>
<radialGradient id="paint16_radial" cx="0" cy="0" r="1" gradientUnits="userSpaceOnUse" gradientTransform="translate(33.8697 18.2455) rotate(-23.5256) scale(7.41849 3.44429)">
<stop stop-color="#F8E6D2"/>
<stop offset="0.7237" stop-color="#F8E6D2" stop-opacity="0"/>
</radialGradient>
<radialGradient id="paint17_radial" cx="0" cy="0" r="1" gradientUnits="userSpaceOnUse" gradientTransform="translate(56.3624 40.9468) rotate(-2.02715) scale(6.34688 4.16572)">
<stop stop-color="#F8E6D2"/>
<stop offset="1" stop-color="#F8E6D2" stop-opacity="0"/>
</radialGradient>
<radialGradient id="paint18_radial" cx="0" cy="0" r="1" gradientUnits="userSpaceOnUse" gradientTransform="translate(56.0244 20.4979) rotate(0.0543868) scale(6.81836 3.67424)">
<stop stop-color="#F8E6D2"/>
<stop offset="1" stop-color="#F8E6D2" stop-opacity="0"/>
</radialGradient>
<radialGradient id="paint19_radial" cx="0" cy="0" r="1" gradientUnits="userSpaceOnUse" gradientTransform="translate(53.6478 12.2391) rotate(0.0539333) scale(6.24371 3.90564)">
<stop stop-color="#F8E6D2"/>
<stop offset="1" stop-color="#F8E6D2" stop-opacity="0"/>
</radialGradient>
<linearGradient id="paint20_linear" x1="50.161" y1="21.3891" x2="42.4993" y2="21.3891" gradientUnits="userSpaceOnUse">
<stop offset="0.3118" stop-color="#F0C492" stop-opacity="0"/>
<stop offset="1" stop-color="#E6AF74"/>
</linearGradient>
<linearGradient id="paint21_linear" x1="48.5327" y1="21.657" x2="44.4057" y2="21.657" gradientUnits="userSpaceOnUse">
<stop offset="0.3118" stop-color="#F0C492" stop-opacity="0"/>
<stop offset="1" stop-color="#E6AF74"/>
</linearGradient>
<linearGradient id="paint22_linear" x1="49.8859" y1="12.3991" x2="40.9261" y2="14.0454" gradientUnits="userSpaceOnUse">
<stop offset="0.3118" stop-color="#F0C492" stop-opacity="0"/>
<stop offset="1" stop-color="#E6AF74"/>
</linearGradient>
<linearGradient id="paint23_linear" x1="48.9594" y1="12.6917" x2="45.1721" y2="12.6917" gradientUnits="userSpaceOnUse">
<stop offset="0.3118" stop-color="#F0C492" stop-opacity="0"/>
<stop offset="1" stop-color="#E6AF74"/>
</linearGradient>
<linearGradient id="paint24_linear" x1="54.9966" y1="42.169" x2="57.4027" y2="30.5181" gradientUnits="userSpaceOnUse">
<stop stop-color="#E6AF74" stop-opacity="0"/>
<stop offset="1" stop-color="#E6AF74"/>
</linearGradient>
<linearGradient id="paint25_linear" x1="55.2978" y1="18.8537" x2="56.1526" y2="28.7316" gradientUnits="userSpaceOnUse">
<stop stop-color="#D2A374" stop-opacity="0"/>
<stop offset="1" stop-color="#B88653"/>
</linearGradient>
<linearGradient id="paint26_linear" x1="65.8013" y1="30.332" x2="47.1406" y2="30.332" gradientUnits="userSpaceOnUse">
<stop offset="0.00132565" stop-color="#F0C492"/>
<stop offset="1" stop-color="#F8DBBA"/>
</linearGradient>
<linearGradient id="paint27_linear" x1="55.0845" y1="23.9065" x2="56.8575" y2="41.826" gradientUnits="userSpaceOnUse">
<stop offset="0.00132565" stop-color="#F0C492"/>
<stop offset="1" stop-color="#EFD8B7"/>
</linearGradient>
<linearGradient id="paint28_linear" x1="51.9659" y1="30.525" x2="41.2863" y2="30.525" gradientUnits="userSpaceOnUse">
<stop offset="0.3118" stop-color="#F0C492" stop-opacity="0"/>
<stop offset="1" stop-color="#E6AF74"/>
</linearGradient>
<radialGradient id="paint29_radial" cx="0" cy="0" r="1" gradientUnits="userSpaceOnUse" gradientTransform="translate(58.157 30.5004) rotate(2.73442) scale(7.24438 4.75234)">
<stop stop-color="#F8E6D2"/>
<stop offset="1" stop-color="#F8E6D2" stop-opacity="0"/>
</radialGradient>
<linearGradient id="paint30_linear" x1="47.0017" y1="30.5379" x2="43.6299" y2="30.5379" gradientUnits="userSpaceOnUse">
<stop offset="0.3118" stop-color="#F0C492" stop-opacity="0"/>
<stop offset="1" stop-color="#E6AF74"/>
</linearGradient>
<linearGradient id="paint31_linear" x1="55.8823" y1="31.5652" x2="57.9085" y2="18.6796" gradientUnits="userSpaceOnUse">
<stop stop-color="#E6AF74" stop-opacity="0"/>
<stop offset="1" stop-color="#E6AF74"/>
</linearGradient>
<linearGradient id="paint32_linear" x1="54.4765" y1="21.5965" x2="59.6687" y2="10.3256" gradientUnits="userSpaceOnUse">
<stop stop-color="#E6AF74" stop-opacity="0"/>
<stop offset="1" stop-color="#E6AF74"/>
</linearGradient>
<linearGradient id="paint33_linear" x1="53.4417" y1="11.7108" x2="54.2016" y2="4.58729" gradientUnits="userSpaceOnUse">
<stop stop-color="#E6AF74" stop-opacity="0"/>
<stop offset="1" stop-color="#E6AF74"/>
</linearGradient>
<linearGradient id="paint34_linear" x1="53.6211" y1="12.7915" x2="53.6211" y2="17.9443" gradientUnits="userSpaceOnUse">
<stop stop-color="#FFBA47" stop-opacity="0"/>
<stop offset="1" stop-color="#C66F34"/>
</linearGradient>
<linearGradient id="paint35_linear" x1="18.8149" y1="27.0175" x2="2.6683" y2="2.60772" gradientUnits="userSpaceOnUse">
<stop offset="0.3118" stop-color="#F0C492" stop-opacity="0"/>
<stop offset="1" stop-color="#D2A374"/>
</linearGradient>
<radialGradient id="paint36_radial" cx="0" cy="0" r="1" gradientUnits="userSpaceOnUse" gradientTransform="translate(19.4339 16.105) scale(4.79501)">
<stop stop-color="#F0C492" stop-opacity="0"/>
<stop offset="1" stop-color="#F0C492"/>
</radialGradient>
<linearGradient id="paint37_linear" x1="19.3603" y1="19.3927" x2="18.9803" y2="4.86076" gradientUnits="userSpaceOnUse">
<stop stop-color="#F0C492" stop-opacity="0"/>
<stop offset="1" stop-color="#E6AF74"/>
</linearGradient>
<linearGradient id="paint38_linear" x1="39.7107" y1="43.4805" x2="44.5863" y2="87.5826" gradientUnits="userSpaceOnUse">
<stop stop-color="#F0C492" stop-opacity="0"/>
<stop offset="1" stop-color="#E6AF74"/>
</linearGradient>
<linearGradient id="paint39_linear" x1="17.8304" y1="31.5316" x2="11.273" y2="51.8098" gradientUnits="userSpaceOnUse">
<stop stop-color="#F0C492" stop-opacity="0"/>
<stop offset="1" stop-color="#E6AF74"/>
</linearGradient>
</defs>
</svg>
