<svg width="80" height="80" viewBox="0 0 80 80" fill="none" xmlns="http://www.w3.org/2000/svg">
<path d="M48.6165 30.8213C48.435 31.6474 47.9685 32.2273 47.4178 32.2273C46.8703 32.2273 46.3747 31.6312 46.19 30.8149L36.3254 33.7564L37.3006 41.5995L39.2022 42.9925L48.205 42.296L51.2211 33.3418L50.7092 30.6982L48.6165 30.8213Z" fill="url(#paint0_linear)"/>
<path d="M47.9229 33.8477C48.0169 33.4654 48.114 33.054 48.2145 32.6102C49.8731 25.3859 52.6074 10.717 53.3071 8.85099C54.049 6.8716 55.4712 5.57252 58.4419 6.12973C61.4126 6.68695 62.3391 9.71921 61.2862 13.367C60.2334 17.0148 57.6968 31.0001 57.6968 35.7623C57.6968 40.5245 59.4915 49.929 59.4915 49.929L46.1282 44.9789L47.9229 33.8477Z" fill="url(#paint1_linear)"/>
<path d="M19.4049 50.9854C19.4049 53.2596 20.5193 54.2801 21.0765 54.6494C21.2612 54.7725 21.3843 54.8211 21.3843 54.8211L31.7769 62.337L50.7998 58.4397L50.2167 46.4046C39.9504 45.0894 30.6787 40.149 20.0269 39.2808C18.8607 43.097 19.4049 48.3322 19.4049 50.9854Z" fill="url(#paint2_linear)"/>
<path d="M43.773 37.6533C43.773 37.6533 22.5925 33.9407 20.6423 37.7473C20.3993 38.2202 20.1985 38.7353 20.03 39.2796C30.6818 40.1478 39.9535 45.0882 50.2198 46.4034L49.9671 41.178L43.773 37.6533Z" fill="url(#paint3_linear)"/>
<path d="M35.3049 6.44027C31.6539 7.92401 32.0264 11.5135 33.4486 15.3492C34.8708 19.1848 37.6568 36.0113 37.6568 36.0113H47.4307C47.4307 36.0113 47.1164 34.6831 46.6208 32.6097C45.1565 26.4804 42.1178 13.8589 40.9969 9.96495C39.6978 5.4522 35.3049 6.44027 35.3049 6.44027Z" fill="url(#paint4_linear)"/>
<path d="M39.6622 51.3421C44.3499 50.8497 47.3206 54.6821 47.6932 56.6777L49.2255 56.1205L48.529 48.4653L43.5627 45.2646L36.928 43.593L30.1994 40.0683L28.9165 36.048C28.8809 36.048 28.5602 36.0447 28.5245 36.0415L22.0712 36.7024C21.3747 36.9615 20.8726 37.3017 20.6426 37.7488C19.7841 39.4204 19.4569 41.5974 19.3435 43.7679C20.351 45.7927 22.6155 46.8455 24.5884 46.8455C26.908 46.8455 28.301 45.0832 29.1368 43.5962C29.1368 43.5962 29.2891 46.2883 33.0178 47.3088C33.0146 47.3056 35.7877 51.7503 39.6622 51.3421Z" fill="url(#paint5_linear)"/>
<path d="M40.5918 41.5512C39.756 38.953 40.2776 40.8546 39.7074 35.7037C39.0757 30.002 37.268 27.5367 35.8588 19.3697C34.9646 14.1895 32.833 10.7037 34.2876 6.98145C31.751 8.68871 32.1721 11.9153 33.4453 15.3461C34.5241 18.2552 36.3868 28.6381 37.2226 33.4813L36.322 33.7502L37.2972 41.5933L39.1988 42.9863L40.3553 42.8956C40.6566 42.5781 40.783 42.144 40.5918 41.5512Z" fill="url(#paint6_radial)"/>
<path d="M58.899 46.5407C58.3774 43.3692 57.6971 38.6977 57.6971 35.7658C57.6971 31.0004 60.2337 17.0215 61.2866 13.3705C61.8567 11.3879 61.8243 9.60611 61.2185 8.2876C60.5026 13.5973 57.412 21.1391 57.2047 28.1884C56.8159 41.4448 53.9035 41.1792 51.9338 42.2936C54.6065 43.3918 57.1301 44.7427 58.899 46.5407Z" fill="url(#paint7_linear)"/>
<path d="M56.7349 6.03564C54.9013 6.18467 53.8873 7.30557 53.3074 8.85409C53.1454 9.28496 52.8765 10.3994 52.5364 11.9447C51.5159 16.5838 49.8637 25.1201 48.6165 30.8283C48.4837 31.4243 48.0463 32.231 47.4211 32.2278C47.4211 32.2278 47.4243 32.2278 47.4211 32.2278C46.8736 32.2278 46.3779 31.6317 46.1933 30.8153C44.6285 24.2875 42.0207 13.5126 41.0002 9.96851C40.281 7.47078 38.6191 6.66089 37.2747 6.43088C41.5704 7.27641 43.2388 29.053 47.379 34.1035C47.379 34.1035 50.4792 34.0031 52.7696 14.7631C53.4629 8.87029 55.7242 6.21382 56.7349 6.03564Z" fill="url(#paint8_radial)"/>
<path d="M24.5334 45.9119C21.7992 45.9119 19.538 43.6863 19.1589 39.5072C19.1233 39.1088 18.3458 30.877 23.0238 30.877C27.3583 30.877 28.5861 32.5486 28.868 38.1142C29.1498 43.6798 27.3616 45.9119 24.5334 45.9119Z" fill="url(#paint9_linear)"/>
<path d="M34.8902 46.5633C31.5146 46.5633 29.8268 45.0828 29.3603 40.8584C28.8905 36.634 26.8593 29.0242 33.0566 28.616C38.9948 28.2272 39.1082 31.9009 39.1082 38.027C39.1082 44.1531 37.7962 46.5633 34.8902 46.5633Z" fill="url(#paint10_linear)"/>
<path d="M34.699 40.7166C32.1203 42.0157 30.3871 42.0416 29.2856 40.2696C29.3116 40.4704 29.3375 40.6713 29.3602 40.8559C29.8299 45.0804 31.5177 46.5608 34.8901 46.5608C37.2648 46.5608 38.5736 44.9475 38.9753 41.0211C38.3079 39.8808 36.2184 39.9521 34.699 40.7166Z" fill="url(#paint11_linear)"/>
<path d="M24.4391 40.5311C22.139 40.5311 20.2342 39.1025 19.9167 36.4201C20.0463 37.5183 19.0744 30.8804 23.1692 30.8804C26.817 30.8804 27.8504 31.9527 28.0869 35.5259C28.3267 39.1025 26.8203 40.5311 24.4391 40.5311Z" fill="url(#paint12_linear)"/>
<path d="M34.4205 40.2532C31.6506 40.2532 30.4066 38.7954 29.9369 35.8052C29.6939 34.2664 28.1227 28.8984 33.2056 28.6101C38.078 28.3315 38.0812 31.895 38.1816 34.9176C38.3274 39.2684 36.8048 40.2532 34.4205 40.2532Z" fill="url(#paint13_linear)"/>
<path d="M32.8752 46.3115C33.4681 46.4767 34.129 46.5641 34.8903 46.5641C37.7962 46.5641 39.1082 44.1507 39.1082 38.0278C39.1082 32.1253 38.9884 28.5099 33.6592 28.6038C35.7552 29.8543 37.4625 32.6987 37.4625 37.8432C37.4657 45.1582 35.8233 46.2985 32.8752 46.3115Z" fill="url(#paint14_linear)"/>
<path d="M33.0146 44.3055C33.0146 41.8304 34.764 41.7527 39.4485 41.3348C42.7982 41.0367 46.4395 40.1588 51.0786 41.9535C56.3721 44.001 61.3481 46.9652 61.4097 52.2846C61.4647 57.0468 57.7586 73.9996 41.551 73.9996C25.3433 73.9996 19.8975 65.3369 19.4019 50.9855L47.69 56.6775C47.69 56.6775 48.2926 51.6205 44.8294 50.1206C43.3522 49.4791 40.1903 49.9974 38.0846 49.9974C35.9853 49.9974 33.0146 47.6455 33.0146 44.3055Z" fill="url(#paint15_linear)"/>
<path d="M53.123 63.267C46.255 68.2786 46.8122 71.0614 40.4108 71.0614C34.0094 71.0614 29.8789 67.6728 26.9535 64.7507C24.0314 61.8286 21.5726 56.9563 20.3642 53.2437C20.0791 52.369 19.7454 51.6368 19.4053 51.0148C19.9074 65.35 25.3532 73.9998 41.5511 73.9998C57.7588 73.9998 61.4649 57.047 61.4098 52.2848C61.3872 50.2017 60.6 48.4847 59.3462 47.0366C59.7058 53.843 58.7631 59.1495 53.123 63.267Z" fill="url(#paint16_radial)"/>
<path d="M24.5559 43.3147C21.7763 43.3147 19.4762 41.102 19 36.978C19.0194 37.8074 19.081 38.6659 19.1587 39.5114C19.5345 43.6872 21.799 45.9161 24.5332 45.9161C27.1865 45.9161 28.9034 43.9172 28.8743 39.0805C28.3074 42.048 26.7297 43.3147 24.5559 43.3147Z" fill="url(#paint17_linear)"/>
<path d="M28.8677 38.1174C28.5988 32.8141 27.4682 31.0486 23.613 30.8931C25.6345 31.2235 29.548 39.0147 24.1605 45.8729C24.2869 45.8827 24.4067 45.9118 24.5331 45.9118C27.3613 45.9118 29.1495 43.6862 28.8677 38.1174Z" fill="url(#paint18_linear)"/>
<path d="M49.3486 51.7304C49.2255 48.7597 45.5745 45.7922 42.5422 46.0999C39.9246 46.3656 35.1851 46.7219 33.0664 44.7847C33.3385 47.8623 36.0889 50.0004 38.0878 50.0004C40.1903 50.0004 43.3521 49.4853 44.8326 50.1235C48.2957 51.6235 47.6932 56.6805 47.6932 56.6805C47.6932 56.6805 49.4717 54.6978 49.3486 51.7304Z" fill="url(#paint19_radial)"/>
<path d="M61.4127 52.2846C61.3511 46.9652 56.3751 44.001 51.0816 41.9535C46.4425 40.1588 42.8012 41.0367 39.4515 41.3348C35.8782 41.6523 34.0219 41.7818 33.3384 42.9189C37.741 41.8304 41.865 41.3866 46.9512 41.9697C53.5794 42.7278 58.5878 46.8097 59.4981 49.9359C60.3955 53.0232 60.2659 58.7735 60.2626 58.9096C61.1147 56.143 61.4289 53.6873 61.4127 52.2846Z" fill="url(#paint20_linear)"/>
<path d="M47.6931 56.6774C47.7741 55.4755 47.6769 54.2445 47.2914 53.1041C46.9221 51.9735 46.1964 50.9077 45.1241 50.3764C44.0842 49.79 42.8078 49.9034 41.6221 49.9261C40.417 49.9747 39.2151 50.1172 37.9905 50.1108C35.4733 49.8905 33.4227 47.7459 32.9659 45.3226C32.8525 44.7136 32.8201 44.0851 32.9465 43.4566C33.0793 42.8249 33.562 42.2483 34.1548 42.0118C35.3276 41.5129 36.5586 41.4546 37.7573 41.312C40.174 41.163 42.5551 40.7289 45.001 40.7159C47.4436 40.6803 49.8798 41.2472 52.0957 42.2353C54.3213 43.1813 56.521 44.2957 58.3546 45.9123C60.185 47.5061 61.4516 49.8386 61.4128 52.2878C61.3933 49.8354 60.0813 47.5709 58.2412 46.0418C56.4173 44.4642 54.2306 43.3756 52.0082 42.4524C49.7956 41.487 47.4145 40.9557 45.0075 41.0075C42.6102 41.0399 40.2064 41.4967 37.7961 41.6619C36.6072 41.7915 35.3664 41.853 34.2974 42.3033C33.7596 42.5236 33.3838 42.9707 33.2542 43.5247C33.1376 44.0819 33.157 44.6909 33.2607 45.2676C33.6624 47.5644 35.6483 49.6572 38.0035 49.8743C39.1989 49.8905 40.4105 49.7609 41.6188 49.722C42.811 49.7123 44.1069 49.5957 45.2116 50.2274C46.3163 50.8105 47.0322 51.9282 47.3788 53.0815C47.7352 54.2412 47.8032 55.4788 47.6931 56.6774Z" fill="#975500"/>
<path d="M28.6928 36.0371C28.9163 37.8059 29.1399 39.6071 28.8645 41.4019C28.7414 42.2928 28.5244 43.1901 28.087 44.0033C27.6691 44.8229 26.9402 45.5032 26.059 45.8401C24.2805 46.4232 22.2169 45.879 21.002 44.4892C19.7353 43.1383 19.2624 41.2755 19.1587 39.51C19.3984 41.2626 19.9524 43.0508 21.1737 44.3272C22.3594 45.6295 24.3226 46.0734 25.9392 45.5064C27.6205 44.9395 28.3851 43.0735 28.6313 41.3695C28.9164 39.6136 28.7803 37.8221 28.6928 36.0371Z" fill="#975500"/>
<path d="M33.5589 46.4492C32.9887 46.6371 32.4672 46.3812 31.9909 46.1382C31.5082 45.8855 31.0774 45.5356 30.7243 45.1242C30.0083 44.2981 29.6325 43.2582 29.409 42.2313C29.2049 41.1849 29.1757 40.1514 29.03 39.1212C28.9036 38.091 28.7902 37.0511 28.7449 36.0112C28.8777 37.0447 29.0559 38.0651 29.2276 39.0921C29.4252 40.1126 29.5127 41.1654 29.7556 42.1503C29.9856 43.1416 30.3582 44.1167 31.0223 44.8618C31.3495 45.2344 31.7447 45.5421 32.1853 45.7689C32.6259 46.0119 33.1086 46.0702 33.5589 46.4492Z" fill="#975500"/>
<path d="M35.8523 28.813C36.4225 28.9588 36.9829 29.1953 37.4527 29.5743C37.9224 29.9566 38.2561 30.4846 38.4958 31.0321C38.9817 32.1401 39.1146 33.3484 39.2182 34.5276C39.2733 35.7133 39.2798 36.8958 39.2506 38.075C39.2409 38.6614 39.2539 39.2542 39.2247 39.847C39.202 40.1418 39.202 40.4431 39.134 40.7412C39.0789 41.0003 38.9429 41.4377 38.5833 41.4085C38.8781 41.3049 38.8684 40.9679 38.9332 40.7055C38.9688 40.4237 39.0012 40.1321 39.0012 39.8406C39.0077 39.2542 38.9753 38.6678 38.9623 38.075C38.9299 36.8958 38.9429 35.7166 38.8619 34.5471C38.7971 33.3841 38.7193 32.1951 38.2917 31.1163C37.9127 30.0181 36.9829 29.1726 35.8523 28.813Z" fill="#975500"/>
<path d="M39.6618 51.3413C35.784 51.7495 33.0142 47.3047 33.0142 47.3047C29.2854 46.2843 29.1331 43.5922 29.1331 43.5922C28.2973 45.0759 26.9075 46.8415 24.5847 46.8415C22.6118 46.8415 20.3474 45.7886 19.3398 43.7639C19.3625 43.3136 19.4046 42.8633 19.45 42.4194H19.4338C19.3075 43.644 19.2783 44.888 19.2848 46.0834C21.2804 48.3706 24.4066 48.6945 26.4054 48.1049C26.9464 47.9462 29.4733 46.0381 31.4203 47.9559C33.5357 50.0325 35.9946 52.6889 40.2158 52.595C44.437 52.501 47.696 56.6769 47.696 56.6769C47.3202 54.6813 44.3495 50.8489 39.6618 51.3413Z" fill="url(#paint21_linear)"/>
<path opacity="0.75" d="M22.3918 51.4741C20.9048 53.2656 25.4305 63.5837 29.8947 66.1851C34.3621 68.7832 39.9569 67.9863 41.0486 65.9227C42.1404 63.859 37.498 60.6454 33.698 57.0915C27.1443 50.9557 23.8788 49.6858 22.3918 51.4741Z" fill="url(#paint22_radial)"/>
<path opacity="0.75" d="M58.7919 52.7965C59.5824 51.7306 55.6268 45.1251 52.4682 43.3433C49.3096 41.5616 43.0928 42.6209 42.5875 43.8714C42.0821 45.1219 48.0721 46.5311 50.8905 48.8863C55.7499 52.952 57.9982 53.8623 58.7919 52.7965Z" fill="url(#paint23_radial)"/>
<path opacity="0.75" d="M33.614 9.90007C33.3937 9.09989 35.0005 7.72306 36.0534 7.44769C37.1063 7.17233 38.1397 7.59672 38.36 8.3969C38.5803 9.19708 37.5339 9.94218 36.6203 10.6095C35.0426 11.7596 33.8343 10.7002 33.614 9.90007Z" fill="url(#paint24_radial)"/>
<path opacity="0.75" d="M55.6173 7.16863C55.8862 6.33281 57.9012 6.65677 58.8796 7.37272C59.8579 8.08867 60.4281 9.34888 60.156 10.1847C59.8838 11.0205 58.656 10.6901 57.574 10.4115C55.7048 9.932 55.3452 8.00768 55.6173 7.16863Z" fill="url(#paint25_radial)"/>
<defs>
<linearGradient id="paint0_linear" x1="43.7718" y1="51.7591" x2="43.7718" y2="31.7139" gradientUnits="userSpaceOnUse">
<stop offset="0.00132565" stop-color="#FFBA47"/>
<stop offset="1" stop-color="#FFD748"/>
</linearGradient>
<linearGradient id="paint1_linear" x1="53.9178" y1="51.7596" x2="53.9178" y2="31.7145" gradientUnits="userSpaceOnUse">
<stop offset="0.00132565" stop-color="#FFBA47"/>
<stop offset="1" stop-color="#FFD748"/>
</linearGradient>
<linearGradient id="paint2_linear" x1="20.4682" y1="50.8098" x2="59.7152" y2="50.8098" gradientUnits="userSpaceOnUse">
<stop offset="0.00132565" stop-color="#FFCB4B"/>
<stop offset="1" stop-color="#FFD748"/>
</linearGradient>
<linearGradient id="paint3_linear" x1="35.1243" y1="51.7587" x2="35.1243" y2="31.7135" gradientUnits="userSpaceOnUse">
<stop offset="0.00132565" stop-color="#FFBA47"/>
<stop offset="1" stop-color="#FFD748"/>
</linearGradient>
<linearGradient id="paint4_linear" x1="39.9305" y1="51.7592" x2="39.9305" y2="31.714" gradientUnits="userSpaceOnUse">
<stop offset="0.00132565" stop-color="#FFBA47"/>
<stop offset="1" stop-color="#FFD748"/>
</linearGradient>
<linearGradient id="paint5_linear" x1="31.9655" y1="69.3313" x2="36.2343" y2="33.1392" gradientUnits="userSpaceOnUse">
<stop stop-color="#A1541E" stop-opacity="0"/>
<stop offset="1" stop-color="#C86F34"/>
</linearGradient>
<radialGradient id="paint6_radial" cx="0" cy="0" r="1" gradientUnits="userSpaceOnUse" gradientTransform="translate(47.5039 -0.951092) scale(63.3868)">
<stop offset="0.1388" stop-color="#FFBC47" stop-opacity="0"/>
<stop offset="1" stop-color="#FF8900"/>
</radialGradient>
<linearGradient id="paint7_linear" x1="18.5135" y1="11.9895" x2="97.8266" y2="41.438" gradientUnits="userSpaceOnUse">
<stop stop-color="#FFBC47" stop-opacity="0"/>
<stop offset="1" stop-color="#FFBC47"/>
</linearGradient>
<radialGradient id="paint8_radial" cx="0" cy="0" r="1" gradientUnits="userSpaceOnUse" gradientTransform="translate(47.875 -1.45323) rotate(90) scale(50.4052 19.0582)">
<stop offset="0.1388" stop-color="#FFBC47" stop-opacity="0"/>
<stop offset="1" stop-color="#FF8900"/>
</radialGradient>
<linearGradient id="paint9_linear" x1="23.9938" y1="37.0972" x2="23.9938" y2="54.2903" gradientUnits="userSpaceOnUse">
<stop offset="0.00132565" stop-color="#FFCB4B"/>
<stop offset="1" stop-color="#FFD748"/>
</linearGradient>
<linearGradient id="paint10_linear" x1="33.887" y1="37.0974" x2="33.887" y2="54.2905" gradientUnits="userSpaceOnUse">
<stop offset="0.00132565" stop-color="#FFCB4B"/>
<stop offset="1" stop-color="#FFD748"/>
</linearGradient>
<linearGradient id="paint11_linear" x1="34.1292" y1="36.6693" x2="34.1292" y2="59.452" gradientUnits="userSpaceOnUse">
<stop stop-color="#FFBC47" stop-opacity="0"/>
<stop offset="1" stop-color="#C86F34"/>
</linearGradient>
<linearGradient id="paint12_linear" x1="24.0076" y1="39.603" x2="24.0076" y2="26.4045" gradientUnits="userSpaceOnUse">
<stop offset="0.00132565" stop-color="#FFCB4B"/>
<stop offset="1" stop-color="#FFD748"/>
</linearGradient>
<linearGradient id="paint13_linear" x1="33.854" y1="39.6037" x2="33.854" y2="26.4052" gradientUnits="userSpaceOnUse">
<stop offset="0.00132565" stop-color="#FFCB4B"/>
<stop offset="1" stop-color="#FFD748"/>
</linearGradient>
<linearGradient id="paint14_linear" x1="27.234" y1="33.4498" x2="69.6258" y2="57.5318" gradientUnits="userSpaceOnUse">
<stop stop-color="#FFBC47" stop-opacity="0"/>
<stop offset="1" stop-color="#C86F34"/>
</linearGradient>
<linearGradient id="paint15_linear" x1="20.4683" y1="57.4293" x2="59.7154" y2="57.4293" gradientUnits="userSpaceOnUse">
<stop offset="0.00132565" stop-color="#FFCB4B"/>
<stop offset="1" stop-color="#FFD748"/>
</linearGradient>
<radialGradient id="paint16_radial" cx="0" cy="0" r="1" gradientUnits="userSpaceOnUse" gradientTransform="translate(39.7091 16.3106) scale(70.3513)">
<stop offset="0.6134" stop-color="#FFBC47" stop-opacity="0"/>
<stop offset="1" stop-color="#FF8900"/>
</radialGradient>
<linearGradient id="paint17_linear" x1="23.8457" y1="36.6628" x2="25.0219" y2="56.1623" gradientUnits="userSpaceOnUse">
<stop stop-color="#FFBC47" stop-opacity="0"/>
<stop offset="1" stop-color="#C86F34"/>
</linearGradient>
<linearGradient id="paint18_linear" x1="13.5363" y1="31.2367" x2="78.958" y2="72.7782" gradientUnits="userSpaceOnUse">
<stop stop-color="#FFBC47" stop-opacity="0"/>
<stop offset="1" stop-color="#C86F34"/>
</linearGradient>
<radialGradient id="paint19_radial" cx="0" cy="0" r="1" gradientUnits="userSpaceOnUse" gradientTransform="translate(45.0459 42.1908) scale(45.8481 19.6321)">
<stop stop-color="#FFBC47" stop-opacity="0"/>
<stop offset="1" stop-color="#FFA754"/>
</radialGradient>
<linearGradient id="paint20_linear" x1="49.5851" y1="37.4101" x2="43.151" y2="69.4571" gradientUnits="userSpaceOnUse">
<stop stop-color="#FFBC47" stop-opacity="0"/>
<stop offset="1" stop-color="#FFBC47"/>
</linearGradient>
<linearGradient id="paint21_linear" x1="30.7293" y1="58.1932" x2="39.7309" y2="30.7244" gradientUnits="userSpaceOnUse">
<stop stop-color="#FFBC47" stop-opacity="0"/>
<stop offset="1" stop-color="#C86F34"/>
</linearGradient>
<radialGradient id="paint22_radial" cx="0" cy="0" r="1" gradientUnits="userSpaceOnUse" gradientTransform="translate(31.2222 60.3699) rotate(-138.967) scale(13.0049 5.93426)">
<stop stop-color="#FBE07A"/>
<stop offset="0.2654" stop-color="#FCDF73" stop-opacity="0.7346"/>
<stop offset="0.6548" stop-color="#FDDB5F" stop-opacity="0.3452"/>
<stop offset="1" stop-color="#FFD748" stop-opacity="0"/>
</radialGradient>
<radialGradient id="paint23_radial" cx="0" cy="0" r="1" gradientUnits="userSpaceOnUse" gradientTransform="translate(51.1929 46.373) rotate(38.2129) scale(10.0277 3.69226)">
<stop stop-color="#FBE07A"/>
<stop offset="0.2654" stop-color="#FCDF73" stop-opacity="0.7346"/>
<stop offset="0.6548" stop-color="#FDDB5F" stop-opacity="0.3452"/>
<stop offset="1" stop-color="#FFD748" stop-opacity="0"/>
</radialGradient>
<radialGradient id="paint24_radial" cx="0" cy="0" r="1" gradientUnits="userSpaceOnUse" gradientTransform="translate(35.9929 9.2851) rotate(165.356) scale(2.47326 1.45167)">
<stop stop-color="#FBE07A"/>
<stop offset="0.2654" stop-color="#FCDF73" stop-opacity="0.7346"/>
<stop offset="0.6548" stop-color="#FDDB5F" stop-opacity="0.3452"/>
<stop offset="1" stop-color="#FFD748" stop-opacity="0"/>
</radialGradient>
<radialGradient id="paint25_radial" cx="0" cy="0" r="1" gradientUnits="userSpaceOnUse" gradientTransform="translate(57.8206 8.75312) rotate(-143.703) scale(2.74836 1.46081)">
<stop stop-color="#FBE07A"/>
<stop offset="0.2654" stop-color="#FCDF73" stop-opacity="0.7346"/>
<stop offset="0.6548" stop-color="#FDDB5F" stop-opacity="0.3452"/>
<stop offset="1" stop-color="#FFD748" stop-opacity="0"/>
</radialGradient>
</defs>
</svg>
