<svg width="80" height="80" viewBox="0 0 80 80" fill="none" xmlns="http://www.w3.org/2000/svg">
<path d="M48.6149 30.8188C48.4307 31.6451 47.9678 32.2274 47.4152 32.2274C46.8676 32.2274 46.3748 31.6301 46.1856 30.8138L36.3189 33.7556L37.2947 41.5954L39.1963 42.9891L48.1968 42.2922L51.2135 33.3375L50.7008 30.6943L48.6149 30.8188Z" fill="url(#paint0_linear)"/>
<path d="M47.9229 33.8453C48.0175 33.462 48.1121 33.0489 48.2166 32.6108C49.8743 25.3883 52.6073 10.7192 53.3093 8.8526C54.051 6.8715 55.4747 5.57234 58.4467 6.12984C61.4186 6.68733 62.3446 9.71871 61.2942 13.3673C60.2438 17.0159 57.705 30.9981 57.705 35.7617C57.705 40.5253 59.4971 49.928 59.4971 49.928L46.1308 44.9803L47.9229 33.8453Z" fill="url(#paint1_linear)"/>
<path d="M19.3983 50.9832C19.3983 53.2579 20.5134 54.2784 21.071 54.6467C21.2552 54.7711 21.3796 54.8209 21.3796 54.8209L31.774 62.3371L50.8004 58.4397L50.218 46.4038C39.953 45.0897 30.6788 40.1469 20.0256 39.2808C18.8557 43.0936 19.3983 48.3301 19.3983 50.9832Z" fill="url(#paint2_linear)"/>
<path d="M43.7712 37.653C43.7712 37.653 22.5893 33.9397 20.6379 37.7475C20.394 38.2204 20.1948 38.7381 20.0256 39.2807C30.6787 40.1517 39.953 45.0896 50.2178 46.4036L49.964 41.1771L43.7712 37.653Z" fill="url(#paint3_linear)"/>
<path d="M35.2984 6.43867C31.6494 7.92201 32.0178 11.5109 33.4415 15.3486C34.8653 19.1864 37.648 36.0108 37.648 36.0108H47.4251C47.4251 36.0108 47.1115 34.6818 46.6136 32.6111C45.1501 26.4836 42.1084 13.8603 40.9884 9.96782C39.694 5.44812 35.2984 6.43867 35.2984 6.43867Z" fill="url(#paint4_linear)"/>
<path d="M39.6592 51.3369C44.3436 50.8441 47.3206 54.6769 47.6889 56.6729L49.2222 56.1154L48.5253 48.4598L43.5621 45.2592L36.9262 43.5867L30.1958 40.0626L28.9114 36.0406C28.8766 36.0406 28.553 36.0356 28.5182 36.0356L22.0615 36.6927C21.3646 36.9515 20.8618 37.29 20.6328 37.738C19.7766 39.4105 19.448 41.5857 19.3335 43.756C20.3391 45.7819 22.6041 46.8321 24.5805 46.8321C26.9003 46.8321 28.2941 45.0701 29.1305 43.5817C29.1305 43.5817 29.2848 46.2746 33.0134 47.2951C33.0134 47.3 35.7813 51.7451 39.6592 51.3369Z" fill="url(#paint5_linear)"/>
<path opacity="0.24" d="M40.5901 41.5506C39.7537 38.9523 40.2765 40.8538 39.704 35.7019C39.0718 30.0025 37.2647 27.5336 35.8559 19.3703C34.9648 14.1935 32.8293 10.7042 34.2829 6.98096C31.749 8.68829 32.1672 11.9138 33.4416 15.3484C34.5218 18.2603 36.3836 28.6386 37.2199 33.4869L36.3189 33.7557L37.2946 41.5954L39.1962 42.9892L40.3561 42.8996C40.6548 42.576 40.7792 42.143 40.5901 41.5506Z" fill="url(#paint6_linear)"/>
<path opacity="0.24" d="M58.8998 46.5383C58.3771 43.3675 57.7001 38.6985 57.7001 35.7617C57.7001 30.9981 60.2389 17.0159 61.2893 13.3673C61.8618 11.3862 61.827 9.60423 61.2196 8.28516C60.5028 13.5963 57.4113 21.1374 57.2022 28.1857C56.8139 41.4412 53.9017 41.1773 51.9304 42.2923C54.6036 43.3874 57.1276 44.7364 58.8998 46.5383Z" fill="url(#paint7_linear)"/>
<path opacity="0.24" d="M56.7342 6.03027C54.9023 6.1796 53.8867 7.29957 53.3043 8.85259C53.145 9.28565 52.8712 10.3957 52.5327 11.9437C51.5122 16.5829 49.8594 25.1195 48.6099 30.8288C48.4755 31.4262 48.0424 32.2325 47.4152 32.2276C47.4152 32.2276 47.4201 32.2276 47.4152 32.2276C46.8676 32.2276 46.3747 31.6302 46.1856 30.8139C44.6224 24.2882 42.0089 13.5117 40.9884 9.96758C40.2715 7.46881 38.6089 6.65746 37.2648 6.43346C41.5609 7.27966 43.2286 29.0568 47.3704 34.1041C47.3704 34.1041 50.4717 34.0046 52.7617 14.766C53.4636 8.86753 55.7237 6.20947 56.7342 6.03027Z" fill="url(#paint8_linear)"/>
<path d="M24.5257 45.9109C21.7927 45.9109 19.5277 43.6859 19.1543 39.5096C19.1195 39.1114 18.3429 30.8784 23.0173 30.8784C27.3533 30.8784 28.5779 32.5509 28.8617 38.1159C29.1454 43.6809 27.3583 45.9109 24.5257 45.9109Z" fill="url(#paint9_linear)"/>
<path d="M34.8852 46.5583C31.51 46.5583 29.8225 45.075 29.3545 40.854C28.8866 36.6329 26.8555 29.0221 33.0533 28.614C38.9922 28.2257 39.1067 31.8992 39.1067 38.0217C39.1067 44.1442 37.7925 46.5583 34.8852 46.5583Z" fill="url(#paint10_linear)"/>
<path opacity="0.24" d="M34.6961 40.7142C32.1174 42.0134 30.385 42.0383 29.2799 40.2663C29.3048 40.4654 29.3346 40.6694 29.3545 40.8536C29.8225 45.0796 31.5101 46.558 34.8852 46.558C37.2598 46.558 38.5691 44.9452 38.9673 41.0179C38.3052 39.878 36.2144 39.9477 34.6961 40.7142Z" fill="url(#paint11_linear)"/>
<path d="M24.436 40.5301C22.1361 40.5301 20.2295 39.1015 19.9159 36.4185C20.0453 37.5136 19.0746 30.8784 23.1666 30.8784C26.8156 30.8784 27.846 31.9486 28.085 35.5275C28.3239 39.0965 26.8156 40.5301 24.436 40.5301Z" fill="url(#paint12_linear)"/>
<path d="M34.4172 40.2513C31.6494 40.2513 30.3999 38.7929 29.932 35.8013C29.6881 34.2632 28.115 28.8973 33.2026 28.6086C38.0761 28.3299 38.0761 31.8939 38.1806 34.9153C38.325 39.2658 36.8017 40.2513 34.4172 40.2513Z" fill="url(#paint13_linear)"/>
<path opacity="0.24" d="M32.8741 46.3093C33.4665 46.4736 34.1285 46.5632 34.8902 46.5632C37.7974 46.5632 39.1117 44.149 39.1117 38.0265C39.1117 32.1231 38.9922 28.5093 33.6606 28.6039C35.7564 29.8533 37.4639 32.7005 37.4639 37.8424C37.4639 45.1545 35.8211 46.2944 32.8741 46.3093Z" fill="url(#paint14_linear)"/>
<path d="M33.0134 44.3034C33.0134 41.8296 34.7657 41.7499 39.4501 41.3318C42.8004 41.0331 46.4394 40.1571 51.084 41.949C56.3807 43.9948 61.3539 46.9615 61.4186 52.2826C61.4733 57.0462 57.7696 74.0001 41.5559 74.0001C25.3421 74.0001 19.901 65.339 19.4032 50.9834L47.6939 56.6729C47.6939 56.6729 48.2963 51.6156 44.8315 50.1173C43.353 49.4752 40.1919 49.9929 38.0861 49.9929C35.9804 49.9929 33.0134 47.6434 33.0134 44.3034Z" fill="url(#paint15_linear)"/>
<path opacity="0.24" d="M24.5556 43.3126C21.7778 43.3126 19.4779 41.1025 19 36.9761C19.0199 37.8073 19.0796 38.6635 19.1593 39.5097C19.5376 43.6859 21.7977 45.9109 24.5307 45.9109C27.1841 45.9109 28.9016 43.9149 28.8717 39.0717C28.3042 42.0433 26.7261 43.3126 24.5556 43.3126Z" fill="url(#paint16_linear)"/>
<path opacity="0.24" d="M28.8666 38.1161C28.5978 32.8099 27.4678 31.0479 23.6097 30.8936C25.6309 31.2271 29.5437 39.0121 24.1573 45.8713C24.2818 45.8812 24.4013 45.9111 24.5307 45.9111C27.3583 45.9111 29.1454 43.6811 28.8666 38.1161Z" fill="url(#paint17_linear)"/>
<path opacity="0.24" d="M49.3467 51.7246C49.2222 48.753 45.5733 45.7863 42.5416 46.0949C39.9231 46.3637 35.1839 46.7172 33.0632 44.7759C33.332 47.857 36.0849 49.9924 38.0861 49.9924C40.1919 49.9924 43.353 49.4748 44.8315 50.1169C48.2963 51.6151 47.6939 56.6724 47.6939 56.6724C47.6939 56.6724 49.4711 54.6963 49.3467 51.7246Z" fill="url(#paint18_linear)"/>
<path opacity="0.24" d="M61.4088 52.2826C61.3491 46.9615 56.3709 43.9998 51.0742 41.949C46.4346 40.1571 42.7905 41.0331 39.4402 41.3318C35.8659 41.6504 34.0091 41.7798 33.3271 42.9147C37.7327 41.8246 41.8547 41.3816 46.9423 41.964C53.5682 42.7206 58.5812 46.8072 59.4922 49.9282C60.3933 53.0143 60.2589 58.7635 60.2589 58.9029C61.1151 56.1403 61.4287 53.6813 61.4088 52.2826Z" fill="url(#paint19_linear)"/>
<path d="M47.689 56.6728C47.7736 55.4682 47.6741 54.2387 47.2907 53.0988C46.9224 51.9689 46.1956 50.9037 45.1253 50.3711C44.0848 49.7887 42.8055 49.8982 41.6207 49.9231C40.416 49.9729 39.2162 50.1123 37.9866 50.1073C35.4677 49.8883 33.4217 47.7429 32.9587 45.3188C32.8442 44.7115 32.8143 44.0844 32.9388 43.4522C33.0682 42.82 33.5561 42.2426 34.1485 42.0087C35.3183 41.5109 36.5529 41.4512 37.7526 41.3068C40.172 41.1575 42.5516 40.7245 44.9958 40.7095C47.4401 40.6747 49.8744 41.2421 52.0897 42.2327C54.3149 43.1784 56.5152 44.2934 58.3472 45.9111C60.1791 47.504 61.4486 49.8385 61.4038 52.2875C61.3838 49.8335 60.0746 47.5687 58.2327 46.0406C56.4107 44.4627 54.2203 43.3726 52.0001 42.4517C49.7898 41.486 47.4052 40.9584 44.9958 41.0082C42.5964 41.038 40.1919 41.496 37.7825 41.6603C36.5927 41.7897 35.3532 41.8544 34.2829 42.3024C33.7453 42.5214 33.3719 42.9694 33.2375 43.5219C33.118 44.0794 33.1379 44.6867 33.2425 45.2641C33.6407 47.5587 35.632 49.6543 37.9866 49.8684C39.1814 49.8833 40.3911 49.7539 41.6057 49.7141C42.7955 49.7041 44.0948 49.5846 45.1999 50.2168C46.3051 50.7992 47.0219 51.9191 47.3654 53.069C47.7338 54.2387 47.8035 55.4732 47.689 56.6728Z" fill="#3D2A20"/>
<path d="M28.6874 36.0356C28.9114 37.8027 29.1354 39.6046 28.8616 41.4015C28.7372 42.2925 28.5181 43.1885 28.0851 43.9999C27.6669 44.8212 26.9351 45.4981 26.059 45.8366C24.2818 46.419 22.2159 45.8764 21.0012 44.4877C19.7318 43.1387 19.2589 41.2771 19.1593 39.51C19.3983 41.2622 19.9558 43.0491 21.1754 44.3284C22.3602 45.6325 24.3216 46.0755 25.9395 45.5081C27.6221 44.9406 28.3887 43.074 28.6326 41.3717C28.9114 39.6146 28.777 37.8176 28.6874 36.0356Z" fill="#3D2A20"/>
<path d="M33.5561 46.4487C32.9936 46.5931 32.4758 46.3542 32.0029 46.1103C31.525 45.8564 31.0919 45.5129 30.7434 45.1048C30.0316 44.2835 29.6582 43.2481 29.4292 42.2277C29.2201 41.1874 29.1903 40.152 29.0409 39.1217C28.9115 38.0913 28.792 37.0559 28.7422 36.0156C28.8667 37.046 29.0409 38.0714 29.2102 39.0968C29.4043 40.1172 29.4889 41.1675 29.7279 42.158C29.9569 43.1486 30.3302 44.1292 30.9973 44.8808C31.3259 45.2541 31.7241 45.5677 32.1672 45.7967C32.6102 46.0356 33.0931 46.1103 33.5561 46.4487Z" fill="#3D2A20"/>
<path d="M35.851 28.813C36.4234 28.9573 36.981 29.1963 37.4539 29.5746C37.9268 29.9578 38.2553 30.4855 38.4992 31.033C38.9871 32.143 39.1165 33.3476 39.2211 34.5273C39.2758 35.712 39.2808 36.8967 39.2559 38.0764C39.246 38.6637 39.2609 39.2561 39.231 39.8484C39.2111 40.1471 39.2061 40.4457 39.1414 40.7444C39.0866 41.0032 38.9522 41.4412 38.5938 41.4114C38.8875 41.3069 38.8776 40.9684 38.9473 40.7095C38.9821 40.4258 39.017 40.1371 39.012 39.8434C39.0219 39.261 38.9871 38.6737 38.9722 38.0764C38.9373 36.8967 38.9522 35.717 38.8726 34.5472C38.8079 33.3825 38.7332 32.1978 38.3051 31.1176C37.9119 30.0176 36.981 29.1714 35.851 28.813Z" fill="#3D2A20"/>
<path d="M39.6592 51.3369C35.7813 51.7451 33.0085 47.3001 33.0085 47.3001C29.2798 46.2796 29.1255 43.5867 29.1255 43.5867C28.2892 45.0701 26.9003 46.8371 24.5755 46.8371C22.5992 46.8371 20.3391 45.7869 19.3286 43.761C19.3534 43.313 19.3933 42.86 19.4381 42.417H19.4231C19.2987 43.6415 19.2638 44.8859 19.2738 46.0805C21.27 48.3703 24.3963 48.6938 26.3925 48.1015C26.9351 47.9422 29.459 46.0357 31.4105 47.9521C33.5262 50.0278 35.9854 52.6859 40.2068 52.5913C44.4283 52.4967 47.684 56.673 47.684 56.673C47.3206 54.6819 44.3486 50.8441 39.6592 51.3369Z" fill="url(#paint20_linear)"/>
<path opacity="0.08" d="M22.3851 51.471C20.8967 53.263 25.4218 63.5816 29.8872 66.1799C34.3526 68.7783 39.953 67.9818 41.0432 65.9161C42.1334 63.8504 37.4888 60.6398 33.6955 57.0858C27.1393 50.9533 23.8736 49.684 22.3851 51.471Z" fill="url(#paint21_radial)"/>
<path opacity="0.08" d="M58.7902 52.7953C59.5817 51.7301 55.6241 45.1248 52.468 43.3428C49.3119 41.5608 43.0892 42.621 42.5864 43.8704C42.0836 45.1198 48.0723 46.5285 50.8899 48.8879C55.7486 52.9496 57.9987 53.8605 58.7902 52.7953Z" fill="url(#paint22_radial)"/>
<path opacity="0.08" d="M33.6109 9.89806C33.3919 9.09666 34.9948 7.72283 36.0502 7.44409C37.1055 7.16534 38.136 7.59342 38.36 8.39482C38.579 9.19622 37.5336 9.94286 36.6177 10.6099C35.0396 11.7597 33.8299 10.6995 33.6109 9.89806Z" fill="url(#paint23_radial)"/>
<path opacity="0.08" d="M55.6141 7.17004C55.883 6.3338 57.8991 6.65735 58.8749 7.37413C59.8506 8.09091 60.4231 9.35025 60.1543 10.1865C59.8854 11.0227 58.6558 10.6942 57.5706 10.4105C55.7037 9.92766 55.3453 8.00629 55.6141 7.17004Z" fill="url(#paint24_radial)"/>
<path opacity="0.24" d="M59.4572 47.1558C59.7659 53.8855 58.7454 59.1618 53.1201 63.2634C46.1457 68.3505 46.7132 71.1778 40.2118 71.1778C33.7104 71.1778 29.5188 67.7383 26.5469 64.7716C23.5799 61.8049 21.0809 56.8572 19.8563 53.0891C19.7318 52.7108 19.5974 52.3723 19.458 52.0438C20.1898 65.7522 25.7454 74.0001 41.546 74.0001C57.7547 74.0001 61.4634 57.0463 61.4087 52.2877C61.3888 50.2568 60.652 48.5794 59.4572 47.1558Z" fill="url(#paint25_linear)"/>
<defs>
<linearGradient id="paint0_linear" x1="43.7695" y1="51.7565" x2="43.7695" y2="31.7115" gradientUnits="userSpaceOnUse">
<stop offset="0.00132565" stop-color="#5A4539"/>
<stop offset="1" stop-color="#695042"/>
</linearGradient>
<linearGradient id="paint1_linear" x1="53.9167" y1="51.7566" x2="53.9167" y2="31.7116" gradientUnits="userSpaceOnUse">
<stop offset="0.00132565" stop-color="#5A4539"/>
<stop offset="1" stop-color="#695042"/>
</linearGradient>
<linearGradient id="paint2_linear" x1="20.4639" y1="50.8064" x2="59.7146" y2="50.8064" gradientUnits="userSpaceOnUse">
<stop offset="0.00132565" stop-color="#5A4539"/>
<stop offset="1" stop-color="#695042"/>
</linearGradient>
<linearGradient id="paint3_linear" x1="35.1215" y1="51.7564" x2="35.1215" y2="31.7114" gradientUnits="userSpaceOnUse">
<stop offset="0.00132565" stop-color="#5A4539"/>
<stop offset="1" stop-color="#695042"/>
</linearGradient>
<linearGradient id="paint4_linear" x1="39.9278" y1="51.7569" x2="39.9278" y2="31.7118" gradientUnits="userSpaceOnUse">
<stop offset="0.00132565" stop-color="#5A4539"/>
<stop offset="1" stop-color="#695042"/>
</linearGradient>
<linearGradient id="paint5_linear" x1="34.8499" y1="69.1165" x2="33.0793" y2="9.61925" gradientUnits="userSpaceOnUse">
<stop stop-color="#3C2200" stop-opacity="0"/>
<stop offset="0.9984"/>
</linearGradient>
<linearGradient id="paint6_linear" x1="50.9265" y1="-1.8732" x2="36.7611" y2="25.5154" gradientUnits="userSpaceOnUse">
<stop stop-color="#3D2A20"/>
<stop offset="0.9987" stop-color="#473226"/>
</linearGradient>
<linearGradient id="paint7_linear" x1="70.0831" y1="8.03425" x2="55.918" y2="35.4231" gradientUnits="userSpaceOnUse">
<stop stop-color="#3D2A20"/>
<stop offset="0.9987" stop-color="#473226"/>
</linearGradient>
<linearGradient id="paint8_linear" x1="53.4068" y1="-0.590494" x2="39.2416" y2="26.7983" gradientUnits="userSpaceOnUse">
<stop stop-color="#3D2A20"/>
<stop offset="0.9987" stop-color="#473226"/>
</linearGradient>
<linearGradient id="paint9_linear" x1="23.9896" y1="50.1767" x2="23.9896" y2="25.9162" gradientUnits="userSpaceOnUse">
<stop offset="0.00132565" stop-color="#5A4539"/>
<stop offset="1" stop-color="#695042"/>
</linearGradient>
<linearGradient id="paint10_linear" x1="33.8839" y1="50.177" x2="33.8839" y2="25.9166" gradientUnits="userSpaceOnUse">
<stop offset="0.00132565" stop-color="#5A4539"/>
<stop offset="1" stop-color="#695042"/>
</linearGradient>
<linearGradient id="paint11_linear" x1="34.1262" y1="36.6652" x2="34.1262" y2="59.4477" gradientUnits="userSpaceOnUse">
<stop offset="0.00132565" stop-color="#473226"/>
<stop offset="1" stop-color="#3D2A20"/>
</linearGradient>
<linearGradient id="paint12_linear" x1="24.0036" y1="45.2776" x2="24.0036" y2="33.0389" gradientUnits="userSpaceOnUse">
<stop offset="0.00132565" stop-color="#5A4539"/>
<stop offset="1" stop-color="#695042"/>
</linearGradient>
<linearGradient id="paint13_linear" x1="33.8509" y1="45.2776" x2="33.8509" y2="33.0389" gradientUnits="userSpaceOnUse">
<stop offset="0.00132565" stop-color="#5A4539"/>
<stop offset="1" stop-color="#695042"/>
</linearGradient>
<linearGradient id="paint14_linear" x1="27.2302" y1="33.446" x2="69.6239" y2="57.5315" gradientUnits="userSpaceOnUse">
<stop offset="0.00132565" stop-color="#473226"/>
<stop offset="1" stop-color="#3D2A20"/>
</linearGradient>
<linearGradient id="paint15_linear" x1="20.4638" y1="57.426" x2="59.7144" y2="57.426" gradientUnits="userSpaceOnUse">
<stop offset="0.00132565" stop-color="#5A4539"/>
<stop offset="1" stop-color="#695042"/>
</linearGradient>
<linearGradient id="paint16_linear" x1="23.8417" y1="36.6589" x2="25.0178" y2="56.1582" gradientUnits="userSpaceOnUse">
<stop offset="0.00132565" stop-color="#473226"/>
<stop offset="1" stop-color="#3D2A20"/>
</linearGradient>
<linearGradient id="paint17_linear" x1="13.5315" y1="31.234" x2="78.9553" y2="72.7809" gradientUnits="userSpaceOnUse">
<stop offset="0.00132565" stop-color="#473226"/>
<stop offset="1" stop-color="#3D2A20"/>
</linearGradient>
<linearGradient id="paint18_linear" x1="41.2076" y1="58.381" x2="41.2076" y2="41.4587" gradientUnits="userSpaceOnUse">
<stop offset="0.00132565" stop-color="#473226"/>
<stop offset="1" stop-color="#3D2A20"/>
</linearGradient>
<linearGradient id="paint19_linear" x1="43.9978" y1="51.9988" x2="90.7488" y2="30.8347" gradientUnits="userSpaceOnUse">
<stop offset="0.00132565" stop-color="#473226"/>
<stop offset="1" stop-color="#3D2A20"/>
</linearGradient>
<linearGradient id="paint20_linear" x1="33.051" y1="56.9793" x2="36.5036" y2="5.71594" gradientUnits="userSpaceOnUse">
<stop stop-color="#3C2200" stop-opacity="0"/>
<stop offset="0.9984"/>
</linearGradient>
<radialGradient id="paint21_radial" cx="0" cy="0" r="1" gradientUnits="userSpaceOnUse" gradientTransform="translate(31.2156 60.3674) rotate(-138.97) scale(13.0055 5.93447)">
<stop stop-color="#F8DBBA"/>
<stop offset="1" stop-color="#CD9870" stop-opacity="0"/>
</radialGradient>
<radialGradient id="paint22_radial" cx="0" cy="0" r="1" gradientUnits="userSpaceOnUse" gradientTransform="translate(51.1918 46.3678) rotate(38.2101) scale(10.0282 3.69237)">
<stop stop-color="#F8DBBA"/>
<stop offset="1" stop-color="#CD9870" stop-opacity="0"/>
</radialGradient>
<radialGradient id="paint23_radial" cx="0" cy="0" r="1" gradientUnits="userSpaceOnUse" gradientTransform="translate(35.9982 9.28537) rotate(165.358) scale(2.47344 1.45167)">
<stop stop-color="#F8DBBA"/>
<stop offset="1" stop-color="#CD9870" stop-opacity="0"/>
</radialGradient>
<radialGradient id="paint24_radial" cx="0" cy="0" r="1" gradientUnits="userSpaceOnUse" gradientTransform="translate(57.8096 8.75643) rotate(-143.706) scale(2.74854 1.46086)">
<stop stop-color="#F8DBBA"/>
<stop offset="1" stop-color="#CD9870" stop-opacity="0"/>
</radialGradient>
<linearGradient id="paint25_linear" x1="39.44" y1="60.3327" x2="102.131" y2="61.7496" gradientUnits="userSpaceOnUse">
<stop stop-color="#3D2A20"/>
<stop offset="0.9987" stop-color="#473226"/>
</linearGradient>
</defs>
</svg>
