<svg width="80" height="80" viewBox="0 0 80 80" fill="none" xmlns="http://www.w3.org/2000/svg">
<path d="M48.6119 30.8193C48.4277 31.6456 47.9648 32.2279 47.4123 32.2279C46.8647 32.2279 46.3719 31.6306 46.1828 30.8143L36.3171 33.7561L37.2928 41.5958L39.1942 42.9896L48.1938 42.2927L51.2102 33.338L50.6975 30.6948L48.6119 30.8193Z" fill="url(#paint0_linear)"/>
<path d="M47.9201 33.8453C48.0147 33.462 48.1093 33.0489 48.2138 32.6109C49.8714 25.3883 52.6041 10.7192 53.3059 8.8526C54.0476 6.87151 55.4712 5.57234 58.4428 6.12984C61.4145 6.68733 62.3403 9.71871 61.29 13.3673C60.2398 17.0159 57.7012 30.9981 57.7012 35.7617C57.7012 40.5253 59.4931 49.9281 59.4931 49.9281L46.1282 44.9803L47.9201 33.8453Z" fill="url(#paint1_linear)"/>
<path d="M19.3984 50.9832C19.3984 53.258 20.5133 54.2784 21.0708 54.6467C21.255 54.7712 21.3795 54.8209 21.3795 54.8209L31.7728 62.3372L50.7973 58.4397L50.2149 46.4038C39.951 45.0897 30.6777 40.1469 20.0255 39.2808C18.8558 43.0936 19.3984 48.3301 19.3984 50.9832Z" fill="url(#paint2_linear)"/>
<path d="M43.7687 37.6481C43.7687 37.6481 22.5889 33.9348 20.6376 37.7427C20.3937 38.2155 20.1946 38.7332 20.0254 39.2758C30.6775 40.1469 39.9509 45.0847 50.2147 46.3988L49.9609 41.1722L43.7687 37.6481Z" fill="url(#paint3_linear)"/>
<path d="M35.2969 6.43818C31.6483 7.92152 32.0167 11.5104 33.4403 15.3482C34.8639 19.1859 37.6463 36.0103 37.6463 36.0103H47.4224C47.4224 36.0103 47.1088 34.6813 46.6111 32.6106C45.1477 26.4831 42.1063 13.8598 40.9863 9.96733C39.6922 5.44763 35.2969 6.43818 35.2969 6.43818Z" fill="url(#paint4_linear)"/>
<path d="M39.6572 51.3369C44.3412 50.8441 47.3178 54.6769 47.6861 56.6729L49.2192 56.1154L48.5223 48.4598L43.5597 45.2592L36.9245 43.5867L30.1947 40.0626L28.9105 36.0406C28.8756 36.0406 28.5521 36.0356 28.5172 36.0356L22.0612 36.6927C21.3644 36.9515 20.8616 37.29 20.6327 37.738C19.7765 39.4105 19.448 41.5857 19.3335 43.756C20.339 45.7819 22.6038 46.8321 24.5799 46.8321C26.8995 46.8321 28.2932 45.0701 29.1295 43.5817C29.1295 43.5817 29.2838 46.2746 33.012 47.2951C33.012 47.3 35.7796 51.7451 39.6572 51.3369Z" fill="url(#paint5_linear)"/>
<path d="M40.5879 41.5506C39.7517 38.9523 40.2743 40.8538 39.7019 35.7019C39.0697 30.0025 37.2628 27.5336 35.8542 19.3703C34.9632 14.1936 32.8278 10.7042 34.2812 6.98096C31.7476 8.68829 32.1657 11.9138 33.44 15.3484C34.5202 18.2603 36.3818 28.6387 37.2181 33.4869L36.3171 33.7557L37.2927 41.5954L39.1942 42.9892L40.354 42.8996C40.6526 42.576 40.7771 42.143 40.5879 41.5506Z" fill="url(#paint6_linear)"/>
<path d="M58.8957 46.5383C58.373 43.3675 57.6961 38.6985 57.6961 35.7617C57.6961 30.9981 60.2347 17.0159 61.285 13.3673C61.8574 11.3862 61.8225 9.60423 61.2153 8.28516C60.4985 13.5963 57.4074 21.1374 57.1983 28.1857C56.8101 41.4412 53.8981 41.1774 51.927 42.2924C54.6 43.3874 57.1237 44.7364 58.8957 46.5383Z" fill="url(#paint7_linear)"/>
<path d="M56.7305 6.03027C54.8987 6.1796 53.8833 7.29957 53.3009 8.85259C53.1416 9.28565 52.8678 10.3957 52.5293 11.9437C51.5089 16.5829 49.8564 25.1195 48.607 30.8289C48.4726 31.4262 48.0395 32.2326 47.4123 32.2276C47.4123 32.2276 47.4173 32.2276 47.4123 32.2276C46.8648 32.2276 46.372 31.6303 46.1828 30.8139C44.6199 24.2882 42.0066 13.5117 40.9862 9.96758C40.2694 7.46881 38.6069 6.65746 37.2629 6.43346C41.5586 7.27966 43.2261 29.0568 47.3675 34.1041C47.3675 34.1041 50.4686 34.0046 52.7583 14.766C53.4602 8.86753 55.72 6.20947 56.7305 6.03027Z" fill="url(#paint8_linear)"/>
<path d="M24.5251 45.9109C21.7924 45.9109 19.5275 43.6859 19.1542 39.5096C19.1194 39.1114 18.3428 30.8784 23.0168 30.8784C27.3524 30.8784 28.5769 32.5509 28.8606 38.1159C29.1443 43.6809 27.3573 45.9109 24.5251 45.9109Z" fill="url(#paint9_linear)"/>
<path d="M34.8836 46.5583C31.5088 46.5583 29.8214 45.075 29.3535 40.854C28.8856 36.6329 26.8547 29.0221 33.0519 28.614C38.9902 28.2257 39.1047 31.8992 39.1047 38.0217C39.1047 44.1442 37.7906 46.5583 34.8836 46.5583Z" fill="url(#paint10_linear)"/>
<path d="M34.6945 40.7142C32.1161 42.0134 30.3838 42.0383 29.2788 40.2663C29.3037 40.4654 29.3336 40.6694 29.3535 40.8536C29.8214 45.0796 31.5088 46.558 34.8836 46.558C37.258 46.558 38.5671 44.9452 38.9653 41.0179C38.3033 39.878 36.2127 39.9477 34.6945 40.7142Z" fill="url(#paint11_linear)"/>
<path d="M24.4356 40.5252C22.1359 40.5252 20.2295 39.0966 19.9159 36.4136C20.0453 37.5087 19.0747 30.8735 23.1663 30.8735C26.8149 30.8735 27.8453 31.9437 28.0842 35.5226C28.3231 39.0966 26.8149 40.5252 24.4356 40.5252Z" fill="url(#paint12_linear)"/>
<path d="M34.4157 40.2513C31.6482 40.2513 30.3988 38.7929 29.9309 35.8013C29.687 34.2632 28.114 28.8973 33.2012 28.6086C38.0743 28.3299 38.0743 31.8939 38.1788 34.9153C38.3232 39.2658 36.8 40.2513 34.4157 40.2513Z" fill="url(#paint13_linear)"/>
<path d="M32.8726 46.3093C33.4649 46.4736 34.1269 46.5632 34.8885 46.5632C37.7954 46.5632 39.1096 44.149 39.1096 38.0265C39.1096 32.1231 38.9901 28.5093 33.659 28.6039C35.7546 29.8532 37.4619 32.7005 37.4619 37.8424C37.4619 45.1545 35.8193 46.2944 32.8726 46.3093Z" fill="url(#paint14_linear)"/>
<path d="M33.0122 44.3034C33.0122 41.8296 34.7643 41.7499 39.4483 41.3318C42.7982 41.0331 46.4369 40.1571 51.081 41.949C56.3772 43.9948 61.3498 46.9615 61.4146 52.2826C61.4693 57.0462 57.766 74 41.5538 74C25.3416 74 19.9011 65.3389 19.4033 50.9834L47.6912 56.6729C47.6912 56.6729 48.2935 51.6156 44.8291 50.1173C43.3507 49.4752 40.1899 49.9929 38.0844 49.9929C35.9789 49.9929 33.0122 47.6434 33.0122 44.3034Z" fill="url(#paint15_linear)"/>
<path d="M24.555 43.3126C21.7775 43.3126 19.4779 41.1025 19 36.9761C19.0199 37.8073 19.0796 38.6635 19.1593 39.5097C19.5376 43.6859 21.7974 45.9109 24.5302 45.9109C27.1832 45.9109 28.9005 43.9149 28.8707 39.0717C28.3032 42.0433 26.7253 43.3126 24.555 43.3126Z" fill="url(#paint16_linear)"/>
<path d="M28.8658 38.1161C28.597 32.8099 27.467 31.0479 23.6094 30.8936C25.6303 31.2271 29.5427 39.0121 24.1569 45.8713C24.2814 45.8812 24.4008 45.9111 24.5302 45.9111C27.3575 45.9111 29.1445 43.6811 28.8658 38.1161Z" fill="url(#paint17_linear)"/>
<path d="M49.3436 51.7251C49.2192 48.7535 45.5706 45.7868 42.5392 46.0954C39.921 46.3642 35.1822 46.7176 33.0618 44.7764C33.3306 47.8575 36.0832 49.9929 38.0842 49.9929C40.1897 49.9929 43.3505 49.4753 44.8289 50.1174C48.2933 51.6156 47.691 56.6729 47.691 56.6729C47.691 56.6729 49.468 54.6968 49.3436 51.7251Z" fill="url(#paint18_radial)"/>
<path d="M61.4045 52.2826C61.3448 46.9615 56.3672 43.9998 51.071 41.949C46.4318 40.1571 42.7882 41.0331 39.4382 41.3318C35.8643 41.6504 34.0076 41.7798 33.3257 42.9147C37.7309 41.8246 41.8524 41.3816 46.9395 41.964C53.5648 42.7206 58.5772 46.8072 59.4881 49.9282C60.3891 53.0143 60.2547 58.7635 60.2547 58.9028C61.1108 56.1403 61.4244 53.6813 61.4045 52.2826Z" fill="url(#paint19_linear)"/>
<path d="M47.6863 56.6728C47.7709 55.4682 47.6713 54.2387 47.2881 53.0989C46.9197 51.9689 46.193 50.8987 45.1228 50.3711C44.0825 49.7887 42.8032 49.8982 41.6185 49.9231C40.414 49.9729 39.2143 50.1123 37.9849 50.1073C35.4662 49.8883 33.4204 47.7429 32.9575 45.3188C32.843 44.7115 32.8131 44.0844 32.9375 43.4522C33.067 42.82 33.5548 42.2426 34.1471 42.0087C35.3168 41.5109 36.5513 41.4512 37.7509 41.3068C40.17 41.1575 42.5493 40.7245 44.9934 40.7095C47.4374 40.6747 49.8715 41.2421 52.0865 42.2277C54.3115 43.1735 56.5116 44.2884 58.3434 45.9062C60.1752 47.499 61.4395 49.8335 61.3997 52.2825C61.3798 49.8286 60.0706 47.5637 58.2289 46.0356C56.4071 44.4577 54.2169 43.3676 51.9969 42.4467C49.7868 41.4811 47.4025 40.9485 44.9934 41.0032C42.5941 41.0331 40.19 41.491 37.7808 41.6553C36.5911 41.7847 35.3517 41.8494 34.2815 42.2974C33.7439 42.5164 33.3706 42.9644 33.2362 43.5169C33.1167 44.0744 33.1366 44.6817 33.2412 45.2591C33.6394 47.5538 35.6304 49.6494 37.9849 49.8634C39.1795 49.8833 40.3891 49.7489 41.6036 49.7091C42.7932 49.6991 44.0924 49.5797 45.1975 50.2118C46.3025 50.7942 47.0193 51.9142 47.3627 53.064C47.7311 54.2387 47.8008 55.4732 47.6863 56.6728Z" fill="#975500"/>
<path d="M28.6864 36.0356C28.9104 37.8027 29.1344 39.6046 28.8606 41.4015C28.7362 42.2925 28.5171 43.1885 28.0841 43.9999C27.666 44.8212 26.9343 45.4981 26.0582 45.8366C24.2812 46.419 22.2154 45.8715 21.0009 44.4877C19.7316 43.1387 19.2587 41.2771 19.1592 39.51C19.3981 41.2622 19.9556 43.0491 21.1751 44.3284C22.3598 45.6276 24.321 46.0755 25.9387 45.5081C27.6212 44.9406 28.3877 43.074 28.6316 41.3717C28.9104 39.6146 28.776 37.8176 28.6864 36.0356Z" fill="#975500"/>
<path d="M33.5547 46.4488C32.9823 46.638 32.4646 46.3841 31.9867 46.1353C31.5039 45.8814 31.0708 45.533 30.7174 45.1198C30.0007 44.2935 29.6273 43.2532 29.3984 42.2278C29.1943 41.1825 29.1644 40.1472 29.0201 39.1218C28.8956 38.0914 28.7811 37.0511 28.7363 36.0107C28.8707 37.0411 29.0499 38.0665 29.2192 39.0919C29.4183 40.1123 29.5029 41.1626 29.7468 42.1531C29.9758 43.1437 30.3491 44.1193 31.0111 44.866C31.3396 45.2393 31.7329 45.5479 32.1759 45.7719C32.6189 46.0108 33.1017 46.0656 33.5547 46.4488Z" fill="#975500"/>
<path d="M35.8494 28.813C36.4218 28.9573 36.9793 29.1963 37.4521 29.5746C37.925 29.9578 38.2535 30.4855 38.4975 31.033C38.9853 32.143 39.1147 33.3476 39.2192 34.5273C39.274 35.712 39.279 36.8967 39.2541 38.0764C39.2441 38.6637 39.259 39.2561 39.2292 39.8484C39.2093 40.1471 39.2043 40.4457 39.1396 40.7444C39.0848 41.0032 38.9504 41.4413 38.592 41.4114C38.8857 41.3069 38.8758 40.9684 38.9454 40.7095C38.9803 40.4258 39.0151 40.1371 39.0102 39.8434C39.0201 39.2561 38.9853 38.6737 38.9703 38.0764C38.9355 36.8967 38.9504 35.717 38.8708 34.5472C38.8061 33.3825 38.7314 32.1978 38.3033 31.1176C37.9101 30.0126 36.9793 29.1714 35.8494 28.813Z" fill="#975500"/>
<path d="M39.6573 51.3369C35.7797 51.7451 33.0071 47.3001 33.0071 47.3001C29.2789 46.2796 29.1246 43.5867 29.1246 43.5867C28.2883 45.0701 26.8996 46.8371 24.575 46.8371C22.5989 46.8371 20.339 45.7869 19.3286 43.761C19.3535 43.313 19.3933 42.86 19.4381 42.417H19.4231C19.2987 43.6415 19.2639 44.8859 19.2738 46.0805C21.2699 48.3702 24.3958 48.6938 26.3918 48.1015C26.9344 47.9422 29.4581 46.0357 31.4093 47.9521C33.5248 50.0278 35.9838 52.6859 40.2048 52.5913C44.4258 52.4967 47.6812 56.6729 47.6812 56.6729C47.3178 54.6819 44.3462 50.8441 39.6573 51.3369Z" fill="url(#paint20_linear)"/>
<path opacity="0.5" d="M22.385 51.4712C20.8967 53.2632 25.4213 63.5818 29.8863 66.1801C34.3512 68.7785 39.9511 67.982 41.0412 65.9163C42.1313 63.8506 37.4871 60.64 33.6942 57.086C27.1386 50.9535 23.8733 49.6793 22.385 51.4712Z" fill="url(#paint21_radial)"/>
<path opacity="0.5" d="M58.7862 52.7953C59.5776 51.7301 55.6204 45.1248 52.4646 43.3428C49.3088 41.5608 43.0867 42.621 42.584 43.8704C42.0812 45.1198 48.0693 46.5285 50.8867 48.8879C55.7449 52.9496 57.9948 53.8605 58.7862 52.7953Z" fill="url(#paint22_radial)"/>
<path opacity="0.5" d="M33.6094 9.89807C33.3904 9.09667 34.9932 7.72285 36.0485 7.4441C37.1037 7.17033 38.1341 7.59343 38.3581 8.39483C38.5771 9.19623 37.5318 9.94287 36.6159 10.6099C35.038 11.7597 33.8284 10.6995 33.6094 9.89807Z" fill="url(#paint23_radial)"/>
<path opacity="0.5" d="M55.6105 7.17004C55.8793 6.3338 57.8952 6.65735 58.8708 7.37413C59.8465 8.09091 60.4189 9.35025 60.1501 10.1865C59.8813 11.0227 58.6518 10.6942 57.5667 10.4105C55.7001 9.92766 55.3417 8.00629 55.6105 7.17004Z" fill="url(#paint24_radial)"/>
<path d="M59.4533 47.1558C59.7619 53.8855 58.7415 59.1618 53.1168 63.2634C46.1431 68.3505 46.7106 71.1778 40.2098 71.1778C33.709 71.1778 29.5178 67.7383 26.5462 64.7716C23.5795 61.8049 21.0807 56.8572 19.8562 53.0891C19.7318 52.7108 19.5974 52.3723 19.458 52.0438C20.1847 65.7522 25.7448 74.0002 41.5438 74.0002C57.751 74.0002 61.4593 57.0463 61.4046 52.2877C61.3846 50.2568 60.6479 48.5794 59.4533 47.1558Z" fill="url(#paint25_linear)"/>
<defs>
<linearGradient id="paint0_linear" x1="43.7669" y1="51.7565" x2="43.7669" y2="31.7115" gradientUnits="userSpaceOnUse">
<stop offset="0.00132565" stop-color="#F0C492"/>
<stop offset="1" stop-color="#F8DBBA"/>
</linearGradient>
<linearGradient id="paint1_linear" x1="53.9133" y1="51.7562" x2="53.9133" y2="31.7111" gradientUnits="userSpaceOnUse">
<stop offset="0.00132565" stop-color="#F0C492"/>
<stop offset="1" stop-color="#F8DBBA"/>
</linearGradient>
<linearGradient id="paint2_linear" x1="20.4638" y1="50.8059" x2="59.7106" y2="50.8059" gradientUnits="userSpaceOnUse">
<stop offset="0.00132565" stop-color="#F0C492"/>
<stop offset="1" stop-color="#F8DBBA"/>
</linearGradient>
<linearGradient id="paint3_linear" x1="35.1198" y1="51.756" x2="35.1198" y2="31.711" gradientUnits="userSpaceOnUse">
<stop offset="0.00132565" stop-color="#F0C492"/>
<stop offset="1" stop-color="#F8DBBA"/>
</linearGradient>
<linearGradient id="paint4_linear" x1="39.9259" y1="51.7559" x2="39.9259" y2="31.7109" gradientUnits="userSpaceOnUse">
<stop offset="0.00132565" stop-color="#F0C492"/>
<stop offset="1" stop-color="#F8DBBA"/>
</linearGradient>
<linearGradient id="paint5_linear" x1="31.9608" y1="69.3272" x2="36.2296" y2="33.1355" gradientUnits="userSpaceOnUse">
<stop stop-color="#FFBC47" stop-opacity="0"/>
<stop offset="1" stop-color="#C86F34"/>
</linearGradient>
<linearGradient id="paint6_linear" x1="32.1114" y1="12.1413" x2="44.6837" y2="53.6654" gradientUnits="userSpaceOnUse">
<stop stop-color="#FFBC47" stop-opacity="0"/>
<stop offset="1" stop-color="#C86F34"/>
</linearGradient>
<linearGradient id="paint7_linear" x1="28.0981" y1="-37.7331" x2="134.343" y2="197.423" gradientUnits="userSpaceOnUse">
<stop stop-color="#FFBC47" stop-opacity="0"/>
<stop offset="1" stop-color="#C86F34"/>
</linearGradient>
<linearGradient id="paint8_linear" x1="46.9973" y1="-3.67882" x2="46.9973" y2="79.3883" gradientUnits="userSpaceOnUse">
<stop stop-color="#FFBC47" stop-opacity="0"/>
<stop offset="1" stop-color="#C86F34"/>
</linearGradient>
<linearGradient id="paint9_linear" x1="23.989" y1="37.0937" x2="23.989" y2="54.2866" gradientUnits="userSpaceOnUse">
<stop offset="0.00132565" stop-color="#F0C492"/>
<stop offset="1" stop-color="#F8DBBA"/>
</linearGradient>
<linearGradient id="paint10_linear" x1="33.8824" y1="37.094" x2="33.8824" y2="54.2869" gradientUnits="userSpaceOnUse">
<stop offset="0.00132565" stop-color="#F0C492"/>
<stop offset="1" stop-color="#F8DBBA"/>
</linearGradient>
<linearGradient id="paint11_linear" x1="34.1246" y1="36.6647" x2="34.1246" y2="59.4472" gradientUnits="userSpaceOnUse">
<stop stop-color="#FFBC47" stop-opacity="0"/>
<stop offset="1" stop-color="#C86F34"/>
</linearGradient>
<linearGradient id="paint12_linear" x1="24.0032" y1="39.5993" x2="24.0032" y2="26.4009" gradientUnits="userSpaceOnUse">
<stop offset="0.00132565" stop-color="#F0C492"/>
<stop offset="1" stop-color="#F8DBBA"/>
</linearGradient>
<linearGradient id="paint13_linear" x1="33.8494" y1="39.5993" x2="33.8494" y2="26.4009" gradientUnits="userSpaceOnUse">
<stop offset="0.00132565" stop-color="#F0C492"/>
<stop offset="1" stop-color="#F8DBBA"/>
</linearGradient>
<linearGradient id="paint14_linear" x1="27.2293" y1="33.4455" x2="69.6208" y2="57.5274" gradientUnits="userSpaceOnUse">
<stop stop-color="#FFBC47" stop-opacity="0"/>
<stop offset="1" stop-color="#C86F34"/>
</linearGradient>
<linearGradient id="paint15_linear" x1="20.4638" y1="57.4255" x2="59.7106" y2="57.4255" gradientUnits="userSpaceOnUse">
<stop offset="0.00132565" stop-color="#F0C492"/>
<stop offset="1" stop-color="#F8DBBA"/>
</linearGradient>
<linearGradient id="paint16_linear" x1="23.8412" y1="36.6584" x2="25.0174" y2="56.1578" gradientUnits="userSpaceOnUse">
<stop stop-color="#FFBC47" stop-opacity="0"/>
<stop offset="1" stop-color="#C86F34"/>
</linearGradient>
<linearGradient id="paint17_linear" x1="13.5322" y1="31.2335" x2="78.9532" y2="72.7746" gradientUnits="userSpaceOnUse">
<stop stop-color="#FFBC47" stop-opacity="0"/>
<stop offset="1" stop-color="#C86F34"/>
</linearGradient>
<radialGradient id="paint18_radial" cx="0" cy="0" r="1" gradientUnits="userSpaceOnUse" gradientTransform="translate(45.0411 42.1874) scale(45.8476 19.632)">
<stop stop-color="#FFBC47" stop-opacity="0"/>
<stop offset="1" stop-color="#FFA754"/>
</radialGradient>
<linearGradient id="paint19_linear" x1="41.0573" y1="39.8547" x2="69.9795" y2="67.7146" gradientUnits="userSpaceOnUse">
<stop offset="0.3118" stop-color="#F0C492" stop-opacity="0"/>
<stop offset="1" stop-color="#E6AF74"/>
</linearGradient>
<linearGradient id="paint20_linear" x1="30.7251" y1="58.1901" x2="39.7266" y2="30.7215" gradientUnits="userSpaceOnUse">
<stop stop-color="#FFBC47" stop-opacity="0"/>
<stop offset="1" stop-color="#C86F34"/>
</linearGradient>
<radialGradient id="paint21_radial" cx="0" cy="0" r="1" gradientUnits="userSpaceOnUse" gradientTransform="translate(31.2151 60.3671) rotate(-138.967) scale(13.0048 5.93421)">
<stop stop-color="#F8E6D2"/>
<stop offset="1" stop-color="#F8E6D2" stop-opacity="0"/>
</radialGradient>
<radialGradient id="paint22_radial" cx="0" cy="0" r="1" gradientUnits="userSpaceOnUse" gradientTransform="translate(51.1886 46.3672) rotate(38.2129) scale(10.0276 3.69223)">
<stop stop-color="#F8E6D2"/>
<stop offset="1" stop-color="#F8E6D2" stop-opacity="0"/>
</radialGradient>
<radialGradient id="paint23_radial" cx="0" cy="0" r="1" gradientUnits="userSpaceOnUse" gradientTransform="translate(35.9952 9.28387) rotate(165.356) scale(2.47324 1.45166)">
<stop stop-color="#F8E6D2"/>
<stop offset="1" stop-color="#F8E6D2" stop-opacity="0"/>
</radialGradient>
<radialGradient id="paint24_radial" cx="0" cy="0" r="1" gradientUnits="userSpaceOnUse" gradientTransform="translate(57.8075 8.75514) rotate(-143.703) scale(2.74833 1.4608)">
<stop stop-color="#F8E6D2"/>
<stop offset="1" stop-color="#F8E6D2" stop-opacity="0"/>
</radialGradient>
<linearGradient id="paint25_linear" x1="40.4341" y1="41.775" x2="40.4341" y2="138.474" gradientUnits="userSpaceOnUse">
<stop stop-color="#FFBC47" stop-opacity="0"/>
<stop offset="1" stop-color="#C86F34"/>
</linearGradient>
</defs>
</svg>
