<svg width="80" height="80" viewBox="0 0 80 80" fill="none" xmlns="http://www.w3.org/2000/svg">
<path d="M48.606 30.8225C48.4207 31.6488 47.9601 32.2297 47.4093 32.2297C46.8636 32.2297 46.3679 31.6337 46.1826 30.8175L36.319 33.757L37.2953 41.5993L39.198 42.9915L48.1954 42.2954L51.2096 33.3414L50.6989 30.6973L48.606 30.8225Z" fill="url(#paint0_linear)"/>
<path d="M47.915 33.8473C48.0052 33.4667 48.1053 33.0511 48.2054 32.6104C49.8627 25.3891 52.5965 10.7212 53.2975 8.85326C54.0385 6.87517 55.4605 5.57313 58.4296 6.129C61.3987 6.68487 62.325 9.7146 61.2735 13.3653C60.222 17.016 57.6886 30.9978 57.6886 35.7603C57.6886 40.5227 59.481 49.9274 59.481 49.9274L46.1226 44.9797L47.915 33.8473Z" fill="url(#paint1_linear)"/>
<path d="M19.4006 50.984C19.4006 53.2576 20.5121 54.2792 21.0729 54.6448C21.2582 54.7649 21.3833 54.82 21.3833 54.82L31.7727 62.3368L50.794 58.4407L50.2132 46.4069C39.949 45.0898 30.6812 40.1521 20.0315 39.2808C18.8598 43.0967 19.4006 48.3299 19.4006 50.984Z" fill="url(#paint2_linear)"/>
<path d="M43.7642 37.6531C43.7642 37.6531 22.5899 33.9424 20.6422 37.7483C20.4019 38.224 20.1966 38.7398 20.0314 39.2807C30.6811 40.152 39.9489 45.0898 50.2131 46.4068L49.9628 41.1837L43.7642 37.6531Z" fill="url(#paint3_linear)"/>
<path d="M35.2976 6.44469C31.6476 7.927 32.0181 11.5176 33.44 15.3536C34.862 19.1896 37.6458 36.0159 37.6458 36.0159H47.4194C47.4194 36.0159 47.1039 34.6838 46.6083 32.6156C45.1462 26.486 42.107 13.8663 40.9855 9.9752C39.6887 5.45314 35.2976 6.44469 35.2976 6.44469Z" fill="url(#paint4_linear)"/>
<path d="M39.6536 51.3399C44.3401 50.8441 47.3092 54.6801 47.6797 56.6732L49.2118 56.1174L48.5158 48.4604L43.554 45.2604L36.9198 43.5928L30.1955 40.0673L28.9137 36.046C28.8787 36.046 28.5582 36.041 28.5232 36.041L22.0692 36.702C21.3733 36.9625 20.8676 37.298 20.6423 37.7487C19.7861 39.4213 19.4556 41.5947 19.3405 43.7681C20.3468 45.7912 22.61 46.8429 24.5827 46.8429C26.9009 46.8429 28.2928 45.0801 29.129 43.5928C29.129 43.5928 29.2792 46.282 33.0094 47.3036C33.0094 47.3036 35.7782 51.7505 39.6536 51.3399Z" fill="url(#paint5_linear)"/>
<path d="M40.5849 41.5492C39.7487 38.9502 40.2694 40.8531 39.6986 35.7051C39.0678 30.0062 37.2603 27.5373 35.8533 19.3746C34.9621 14.1965 32.8292 10.706 34.2812 6.99023C31.7477 8.6979 32.1682 11.9229 33.44 15.3533C34.5215 18.2628 36.3791 28.6441 37.2152 33.4866L36.314 33.757L37.2903 41.5993L39.1929 42.9915L40.3495 42.9013C40.65 42.5758 40.7751 42.1451 40.5849 41.5492Z" fill="url(#paint6_linear)"/>
<path d="M58.8902 46.5422C58.3695 43.3723 57.6885 38.7 57.6885 35.7704C57.6885 31.008 60.2271 17.0261 61.2735 13.3754C61.8443 11.3923 61.8093 9.61455 61.2034 8.29248C60.4874 13.6008 57.3981 21.1426 57.1879 28.1886C56.7973 41.4443 53.8883 41.1788 51.9205 42.2906C54.5942 43.3923 57.1178 44.7394 58.8902 46.5422Z" fill="url(#paint7_linear)"/>
<path d="M56.7222 6.03857C54.8896 6.18881 53.8783 7.30555 53.2975 8.85798C53.1372 9.28865 52.8669 10.4004 52.5264 11.9478C51.505 16.585 49.8577 25.1234 48.6059 30.8323C48.4708 31.4282 48.0352 32.2345 47.4093 32.2295C47.4093 32.2295 47.4143 32.2295 47.4093 32.2295C46.8635 32.2295 46.3679 31.6336 46.1826 30.8173C44.6204 24.2921 42.0118 13.5153 40.9904 9.96971C40.2744 7.47081 38.6071 6.65954 37.2653 6.43419C41.5612 7.28051 43.2285 29.0545 47.3642 34.1024C47.3642 34.1024 50.4635 34.0023 52.7517 14.7622C53.4527 8.873 55.7108 6.21385 56.7222 6.03857Z" fill="url(#paint8_linear)"/>
<path d="M24.5276 45.9109C21.7938 45.9109 19.5307 43.6824 19.1552 39.5059C19.1201 39.1053 18.3441 30.8774 23.0205 30.8774C27.3565 30.8774 28.5782 32.5501 28.8636 38.1137C29.149 43.6774 27.3565 45.9109 24.5276 45.9109Z" fill="url(#paint9_linear)"/>
<path d="M34.882 46.5622C31.5073 46.5622 29.82 45.0799 29.3543 40.8583C28.8837 36.6367 26.8559 29.0248 33.0494 28.6191C38.9877 28.2285 39.1028 31.9043 39.1028 38.0288C39.1028 44.1534 37.791 46.5622 34.882 46.5622Z" fill="url(#paint10_linear)"/>
<path d="M34.6917 40.7183C32.1131 42.0153 30.3807 42.0454 29.2792 40.2726C29.3042 40.4729 29.3343 40.6733 29.3543 40.8585C29.8249 45.0801 31.5123 46.5624 34.882 46.5624C37.2553 46.5624 38.5621 44.9499 38.9626 41.0238C38.3017 39.882 36.2138 39.9521 34.6917 40.7183Z" fill="url(#paint11_linear)"/>
<path d="M24.4376 40.5329C22.1394 40.5329 20.2367 39.1057 19.9163 36.4215C20.0465 37.5182 19.0751 30.8828 23.1658 30.8828C26.8158 30.8828 27.8423 31.9545 28.0826 35.5301C28.3229 39.1057 26.8159 40.5329 24.4376 40.5329Z" fill="url(#paint12_linear)"/>
<path d="M34.4163 40.2525C31.6474 40.2525 30.4007 38.7952 29.9301 35.8055C29.6898 34.2681 28.1126 28.8997 33.1996 28.6093C38.0713 28.3338 38.0713 31.8944 38.1765 34.9191C38.3217 39.2659 36.7996 40.2525 34.4163 40.2525Z" fill="url(#paint13_linear)"/>
<path d="M32.8691 46.3117C33.46 46.4769 34.1259 46.5621 34.8819 46.5621C37.7859 46.5621 39.0977 44.1483 39.0977 38.0237C39.0977 32.1195 38.9776 28.5039 33.6502 28.599C35.7431 29.851 37.4555 32.6954 37.4555 37.8384C37.4605 45.1549 35.8182 46.2967 32.8691 46.3117Z" fill="url(#paint14_linear)"/>
<path d="M33.0094 44.3035C33.0094 41.8297 34.7619 41.7495 39.4433 41.3339C42.793 41.0384 46.433 40.157 51.0694 41.9549C56.3617 44.0031 61.3386 46.9677 61.3987 52.286C61.4538 57.0484 57.7486 73.9999 41.5462 73.9999C25.3438 73.9999 19.8963 65.3414 19.4056 50.989L47.6847 56.6779C47.6847 56.6779 48.2856 51.62 44.8258 50.1226C43.3487 49.4816 40.1894 49.9974 38.0865 49.9974C35.9786 49.9974 33.0094 47.6437 33.0094 44.3035Z" fill="url(#paint15_linear)"/>
<path d="M24.5527 43.3121C21.7738 43.3121 19.4757 41.0986 19 36.9722C19.02 37.8035 19.0801 38.6598 19.1552 39.5061C19.5307 43.6826 21.7939 45.9111 24.5276 45.9111C27.1813 45.9111 28.8937 43.913 28.8687 39.0755C28.3029 42.0451 26.7257 43.3121 24.5527 43.3121Z" fill="url(#paint16_linear)"/>
<path d="M28.8636 38.1192C28.5932 32.8159 27.4617 31.0532 23.6113 30.8979C25.6291 31.2285 29.5446 39.0156 24.1571 45.8763C24.2823 45.8864 24.4024 45.9164 24.5276 45.9164C27.3565 45.9114 29.149 43.6879 28.8636 38.1192Z" fill="url(#paint17_linear)"/>
<path d="M49.3369 51.73C49.2118 48.7604 45.5667 45.7908 42.5325 46.1012C39.9139 46.3667 35.1774 46.7222 33.0594 44.7842C33.3298 47.864 36.0786 49.9973 38.0814 49.9973C40.1843 49.9973 43.3436 49.4815 44.8257 50.1225C48.2905 51.6249 47.6846 56.6778 47.6846 56.6778C47.6846 56.6778 49.4621 54.6947 49.3369 51.73Z" fill="url(#paint18_linear)"/>
<path d="M61.3986 52.2864C61.3385 46.9681 56.3616 44.0035 51.0693 41.9553C46.4329 40.1625 42.7928 41.0388 39.4432 41.3393C35.8732 41.6548 34.0157 41.785 33.3297 42.9218C37.7308 41.8351 41.8565 41.3894 46.9386 41.9703C53.5627 42.7265 58.5747 46.8129 59.4809 49.9327C60.3772 53.0175 60.252 58.7665 60.247 58.9067C61.1032 56.1424 61.4136 53.6836 61.3986 52.2864Z" fill="url(#paint19_linear)"/>
<path d="M47.6846 56.6783C47.7647 55.4764 47.6696 54.2445 47.2841 53.1027C46.9135 51.9709 46.1876 50.9042 45.1161 50.3734C44.0746 49.7875 42.7979 49.8977 41.6162 49.9227C40.4096 49.9728 39.2129 50.113 37.9862 50.108C35.4677 49.8876 33.4199 47.7443 32.9643 45.3205C32.8491 44.7096 32.8191 44.0836 32.9442 43.4576C33.0744 42.8266 33.5601 42.2507 34.1509 42.0154C35.3225 41.5146 36.5542 41.4595 37.7509 41.3143C40.1692 41.164 42.5475 40.7334 44.9959 40.7183C47.4393 40.6833 49.8726 41.2492 52.0857 42.2407C54.3088 43.1872 56.5118 44.2989 58.3443 45.9165C60.1769 47.5089 61.4436 49.8426 61.3986 52.2914C61.3785 49.8376 60.0667 47.574 58.2292 46.0467C56.4067 44.4692 54.2186 43.3775 51.9956 42.456C49.7825 41.4895 47.4042 40.9587 44.9959 41.0138C42.5976 41.0438 40.1943 41.4996 37.7859 41.6698C36.5943 41.8 35.3576 41.8601 34.2861 42.3108C33.7453 42.5312 33.3748 42.9769 33.2396 43.5327C33.1245 44.0886 33.1445 44.6996 33.2447 45.2754C33.6452 47.569 35.633 49.6673 37.9862 49.8826C39.1779 49.9027 40.3895 49.7675 41.6012 49.7274C42.7928 49.7174 44.0897 49.6022 45.1912 50.2332C46.2927 50.8141 47.0137 51.9358 47.3541 53.0876C47.7247 54.2394 47.7948 55.4764 47.6846 56.6783Z" fill="#975500"/>
<path d="M28.6883 36.041C28.9137 37.8088 29.134 39.6116 28.8586 41.4044C28.7384 42.2958 28.5181 43.1922 28.0825 44.0035C27.6669 44.8247 26.9359 45.5008 26.0547 45.8413C24.2772 46.4272 22.2144 45.8764 20.9977 44.4892C19.7309 43.1371 19.2603 41.2792 19.1552 39.5114C19.3955 41.2642 19.9513 43.052 21.1679 44.329C22.3546 45.631 24.3173 46.0767 25.9345 45.5108C27.6169 44.9449 28.3829 43.077 28.6283 41.3743C28.9137 39.6166 28.7785 37.8238 28.6883 36.041Z" fill="#975500"/>
<path d="M33.5551 46.4471C32.9843 46.6323 32.4636 46.382 31.9879 46.1366C31.5073 45.8812 31.0717 45.5356 30.7212 45.125C30.0052 44.2987 29.6296 43.2571 29.4043 42.2305C29.199 41.1838 29.174 40.1522 29.0238 39.1206C28.8986 38.089 28.7835 37.0524 28.7384 36.0107C28.8686 37.0424 29.0488 38.064 29.2191 39.0906C29.4144 40.1122 29.5045 41.1638 29.7448 42.1503C29.9751 43.1419 30.3456 44.1184 31.0116 44.8596C31.337 45.2302 31.7326 45.5406 32.1732 45.766C32.6188 46.0114 33.1045 46.0715 33.5551 46.4471Z" fill="#975500"/>
<path d="M35.8483 28.8145C36.419 28.9597 36.9798 29.195 37.4505 29.5756C37.9211 29.9562 38.2515 30.4871 38.4919 31.0329C38.9775 32.1396 39.1077 33.3465 39.2129 34.5284C39.268 35.7152 39.2729 36.8971 39.2479 38.0739C39.2379 38.6598 39.2529 39.2508 39.2229 39.8467C39.2029 40.1421 39.1979 40.4426 39.1328 40.7431C39.0777 41.0035 38.9425 41.4392 38.582 41.4091C38.8774 41.304 38.8674 40.9684 38.9325 40.708C38.9675 40.4226 38.9976 40.1371 38.9976 39.8417C39.0076 39.2558 38.9725 38.6698 38.9575 38.0739C38.9225 36.8921 38.9375 35.7152 38.8574 34.5484C38.7923 33.3866 38.7172 32.1947 38.2866 31.1181C37.9061 30.0163 36.9798 29.175 35.8483 28.8145Z" fill="#975500"/>
<path d="M39.6535 51.3393C35.7781 51.75 33.0093 47.303 33.0093 47.303C29.2791 46.2814 29.1289 43.5922 29.1289 43.5922C28.2928 45.0746 26.9008 46.8423 24.5826 46.8423C22.6099 46.8423 20.3468 45.7907 19.3404 43.7675C19.3654 43.3168 19.4055 42.8661 19.4505 42.4204H19.4355C19.3103 43.6423 19.2803 44.8893 19.2853 46.0861C21.2781 48.3747 24.4074 48.7002 26.4052 48.1093C26.9459 47.949 29.4694 46.0461 31.4221 47.9591C33.535 50.0373 35.9934 52.6915 40.2143 52.5963C44.4351 52.5012 47.6896 56.6777 47.6896 56.6777C47.3141 54.6796 44.34 50.8486 39.6535 51.3393Z" fill="url(#paint20_linear)"/>
<path opacity="0.16" d="M22.3897 51.475C20.9027 53.2678 25.4289 63.584 29.8901 66.183C34.3562 68.7821 39.949 67.9858 41.0405 65.9176C42.132 63.8544 37.4906 60.6444 33.6953 57.0888C27.1413 50.9542 23.8768 49.6822 22.3897 51.475Z" fill="url(#paint21_radial)"/>
<path opacity="0.16" d="M58.7801 52.7972C59.5712 51.7305 55.6157 45.1252 52.4613 43.3475C49.3019 41.5647 43.0883 42.6263 42.5826 43.8733C42.0769 45.1202 48.0652 46.5324 50.8841 48.8861C55.7409 52.9525 57.989 53.8589 58.7801 52.7972Z" fill="url(#paint22_radial)"/>
<path opacity="0.16" d="M33.6102 9.90487C33.3899 9.10362 34.9971 7.72647 36.0486 7.45104C37.1 7.17561 38.1365 7.60127 38.3568 8.39752C38.5771 9.19376 37.5306 9.94493 36.6193 10.611C35.0372 11.7628 33.8305 10.7061 33.6102 9.90487Z" fill="url(#paint23_radial)"/>
<path opacity="0.16" d="M55.6056 7.17575C55.8759 6.33944 57.8887 6.66495 58.8651 7.38107C59.8414 8.09719 60.4122 9.35916 60.1418 10.1955C59.8715 11.0318 58.6448 10.7013 57.5583 10.4208C55.6957 9.93506 55.3352 8.01206 55.6056 7.17575Z" fill="url(#paint24_radial)"/>
<path d="M59.4459 47.1577C59.7514 53.8882 58.735 59.1615 53.1122 63.2629C46.1426 68.3508 46.7084 71.1752 40.2094 71.1752C33.7104 71.1752 29.5196 67.7349 26.5505 64.7702C23.5814 61.8006 21.0879 56.8579 19.8612 53.087C19.7361 52.7064 19.6009 52.3709 19.4657 52.0403C20.1967 65.7468 25.7494 73.9946 41.5462 73.9946C57.7486 73.9946 61.4537 57.0432 61.3986 52.2807C61.3736 50.2626 60.6376 48.5799 59.4459 47.1577Z" fill="url(#paint25_radial)"/>
<defs>
<linearGradient id="paint0_linear" x1="43.764" y1="51.7585" x2="43.764" y2="31.7149" gradientUnits="userSpaceOnUse">
<stop offset="0.00132565" stop-color="#99643E"/>
<stop offset="1" stop-color="#AE7246"/>
</linearGradient>
<linearGradient id="paint1_linear" x1="53.9077" y1="51.7586" x2="53.9077" y2="31.715" gradientUnits="userSpaceOnUse">
<stop offset="0.00132565" stop-color="#99643E"/>
<stop offset="1" stop-color="#AE7246"/>
</linearGradient>
<linearGradient id="paint2_linear" x1="20.4666" y1="50.8085" x2="59.7035" y2="50.8085" gradientUnits="userSpaceOnUse">
<stop offset="0.00132565" stop-color="#99643E"/>
<stop offset="1" stop-color="#AE7246"/>
</linearGradient>
<linearGradient id="paint3_linear" x1="35.119" y1="51.7585" x2="35.119" y2="31.7149" gradientUnits="userSpaceOnUse">
<stop offset="0.00132565" stop-color="#99643E"/>
<stop offset="1" stop-color="#AE7246"/>
</linearGradient>
<linearGradient id="paint4_linear" x1="39.9238" y1="51.7588" x2="39.9238" y2="31.7152" gradientUnits="userSpaceOnUse">
<stop offset="0.00132565" stop-color="#99643E"/>
<stop offset="1" stop-color="#AE7246"/>
</linearGradient>
<linearGradient id="paint5_linear" x1="34.277" y1="72.2276" x2="34.277" y2="25.2497" gradientUnits="userSpaceOnUse">
<stop stop-color="#473226" stop-opacity="0"/>
<stop offset="1" stop-color="#3D2A20"/>
</linearGradient>
<linearGradient id="paint6_linear" x1="36.5148" y1="38.0835" x2="36.6918" y2="-14.8582" gradientUnits="userSpaceOnUse">
<stop offset="0.00132565" stop-color="#99643E"/>
<stop offset="1" stop-color="#AE7246"/>
</linearGradient>
<linearGradient id="paint7_linear" x1="65.0741" y1="50.5631" x2="37.6255" y2="-31.0598" gradientUnits="userSpaceOnUse">
<stop offset="0.00132565" stop-color="#99643E"/>
<stop offset="1" stop-color="#AE7246"/>
</linearGradient>
<linearGradient id="paint8_linear" x1="46.8869" y1="38.118" x2="47.064" y2="-14.8236" gradientUnits="userSpaceOnUse">
<stop offset="0.00132565" stop-color="#99643E"/>
<stop offset="1" stop-color="#AE7246"/>
</linearGradient>
<linearGradient id="paint9_linear" x1="23.991" y1="50.1787" x2="23.991" y2="25.92" gradientUnits="userSpaceOnUse">
<stop offset="0.00132565" stop-color="#99643E"/>
<stop offset="1" stop-color="#AE7246"/>
</linearGradient>
<linearGradient id="paint10_linear" x1="33.8819" y1="50.179" x2="33.8819" y2="25.9203" gradientUnits="userSpaceOnUse">
<stop offset="0.00132565" stop-color="#99643E"/>
<stop offset="1" stop-color="#AE7246"/>
</linearGradient>
<linearGradient id="paint11_linear" x1="34.1241" y1="36.6687" x2="34.1241" y2="59.4496" gradientUnits="userSpaceOnUse">
<stop stop-color="#8D562E" stop-opacity="0"/>
<stop offset="1" stop-color="#8D562E"/>
</linearGradient>
<linearGradient id="paint12_linear" x1="24.0052" y1="45.2804" x2="24.0052" y2="33.0426" gradientUnits="userSpaceOnUse">
<stop offset="0.00132565" stop-color="#99643E"/>
<stop offset="1" stop-color="#AE7246"/>
</linearGradient>
<linearGradient id="paint13_linear" x1="33.8489" y1="45.2804" x2="33.8489" y2="33.0426" gradientUnits="userSpaceOnUse">
<stop offset="0.00132565" stop-color="#99643E"/>
<stop offset="1" stop-color="#AE7246"/>
</linearGradient>
<linearGradient id="paint14_linear" x1="27.2306" y1="33.4491" x2="69.615" y2="57.5225" gradientUnits="userSpaceOnUse">
<stop stop-color="#8D562E" stop-opacity="0"/>
<stop offset="1" stop-color="#8D562E"/>
</linearGradient>
<linearGradient id="paint15_linear" x1="20.4666" y1="57.4273" x2="59.7035" y2="57.4273" gradientUnits="userSpaceOnUse">
<stop offset="0.00132565" stop-color="#99643E"/>
<stop offset="1" stop-color="#AE7246"/>
</linearGradient>
<linearGradient id="paint16_linear" x1="23.8433" y1="36.6621" x2="25.0195" y2="56.16" gradientUnits="userSpaceOnUse">
<stop stop-color="#8D562E" stop-opacity="0"/>
<stop offset="1" stop-color="#8D562E"/>
</linearGradient>
<linearGradient id="paint17_linear" x1="13.5366" y1="31.2377" x2="78.9481" y2="72.7655" gradientUnits="userSpaceOnUse">
<stop stop-color="#8D562E" stop-opacity="0"/>
<stop offset="1" stop-color="#8D562E"/>
</linearGradient>
<linearGradient id="paint18_linear" x1="41.2031" y1="58.3827" x2="41.2031" y2="41.4615" gradientUnits="userSpaceOnUse">
<stop stop-color="#8D562E" stop-opacity="0"/>
<stop offset="1" stop-color="#804B24"/>
</linearGradient>
<linearGradient id="paint19_linear" x1="43.9921" y1="52.0009" x2="90.7311" y2="30.8481" gradientUnits="userSpaceOnUse">
<stop stop-color="#8D562E" stop-opacity="0"/>
<stop offset="1" stop-color="#8D562E"/>
</linearGradient>
<linearGradient id="paint20_linear" x1="30.7252" y1="58.1916" x2="39.7274" y2="30.7259" gradientUnits="userSpaceOnUse">
<stop stop-color="#A46C3F" stop-opacity="0"/>
<stop offset="1" stop-color="#804B24"/>
</linearGradient>
<radialGradient id="paint21_radial" cx="0" cy="0" r="1" gradientUnits="userSpaceOnUse" gradientTransform="translate(31.2328 60.3641) rotate(-138.962) scale(13.0024 5.93284)">
<stop stop-color="#F8DBBA"/>
<stop offset="1" stop-color="#CD9870" stop-opacity="0"/>
</radialGradient>
<radialGradient id="paint22_radial" cx="0" cy="0" r="1" gradientUnits="userSpaceOnUse" gradientTransform="translate(51.1657 46.3611) rotate(38.2204) scale(10.0259 3.69169)">
<stop stop-color="#F8DBBA"/>
<stop offset="1" stop-color="#CD9870" stop-opacity="0"/>
</radialGradient>
<radialGradient id="paint23_radial" cx="0" cy="0" r="1" gradientUnits="userSpaceOnUse" gradientTransform="translate(35.9731 9.27936) rotate(165.355) scale(2.47295 1.45193)">
<stop stop-color="#F8DBBA"/>
<stop offset="1" stop-color="#CD9870" stop-opacity="0"/>
</radialGradient>
<radialGradient id="paint24_radial" cx="0" cy="0" r="1" gradientUnits="userSpaceOnUse" gradientTransform="translate(57.8053 8.76685) rotate(-143.692) scale(2.74764 1.46047)">
<stop stop-color="#F8DBBA"/>
<stop offset="1" stop-color="#CD9870" stop-opacity="0"/>
</radialGradient>
<radialGradient id="paint25_radial" cx="0" cy="0" r="1" gradientUnits="userSpaceOnUse" gradientTransform="translate(41.8981 43.2737) scale(28.4846 38.7881)">
<stop offset="0.6147" stop-color="#8D562E" stop-opacity="0"/>
<stop offset="1" stop-color="#804B24"/>
</radialGradient>
</defs>
</svg>
