<svg width="80" height="80" viewBox="0 0 80 80" fill="none" xmlns="http://www.w3.org/2000/svg">
<path d="M48.6223 30.8167C48.4416 31.6451 47.9747 32.2225 47.4224 32.2225C46.8751 32.2225 46.3781 31.6251 46.1923 30.8117L36.3265 33.7488L37.3006 41.5912L39.2034 42.982L48.2056 42.2841L51.2231 33.3271L50.711 30.6812L48.6223 30.8167Z" fill="url(#paint0_linear)"/>
<path d="M47.9294 33.8442C48.0198 33.4626 48.1202 33.0509 48.2206 32.6091C49.8774 25.3842 52.6137 10.7136 53.3116 8.85093C54.0547 6.87276 55.4756 5.57239 58.4479 6.12969C61.4201 6.68699 62.3439 9.71952 61.2946 13.3696C60.2453 17.0197 57.7048 31.0025 57.7048 35.7671C57.7048 40.5318 59.4972 49.9357 59.4972 49.9357L46.132 44.9852L47.9294 33.8442Z" fill="url(#paint1_linear)"/>
<path d="M19.4066 50.9852C19.4066 53.2596 20.5212 54.2788 21.0785 54.6504C21.2643 54.7709 21.3898 54.8211 21.3898 54.8211L31.7827 62.3371L50.8063 58.441L50.2239 46.4013C39.9565 45.0859 30.6832 40.1454 20.0342 39.2769C18.8593 43.0926 19.4066 48.3293 19.4066 50.9852Z" fill="url(#paint2_linear)"/>
<path d="M43.7774 37.6499C43.7774 37.6499 22.5949 33.9396 20.6468 37.7403C20.4058 38.2173 20.2 38.7294 20.0343 39.2716C30.6833 40.1402 39.9616 45.0806 50.224 46.3961L49.973 41.1695L43.7774 37.6499Z" fill="url(#paint3_linear)"/>
<path d="M35.3073 6.43608C31.6573 7.92222 32.0288 11.512 33.4497 15.3479C34.8705 19.1837 37.6571 36.0133 37.6571 36.0133H47.4325C47.4325 36.0133 47.1161 34.6828 46.6241 32.6092C45.158 26.4789 42.1205 13.8567 41.0009 9.96064C39.7005 5.44699 35.3073 6.43608 35.3073 6.43608Z" fill="url(#paint4_linear)"/>
<path d="M39.6654 51.3363C44.3498 50.8443 47.3271 54.6751 47.6986 56.6733L49.2299 56.116L48.532 48.4594L43.5665 45.2562L36.9291 43.5893L30.2013 40.0647L28.916 36.0431C28.8808 36.0431 28.5595 36.0381 28.5244 36.0381L22.0677 36.6958C21.3698 36.9519 20.8677 37.2933 20.6368 37.7401C19.7782 39.412 19.4519 41.586 19.3364 43.76C20.3456 45.7834 22.6049 46.8377 24.5831 46.8377C26.9027 46.8377 28.2934 45.0754 29.1319 43.5893C29.1319 43.5893 29.2825 46.2804 33.0129 47.2996C33.0179 47.2996 35.7894 51.748 39.6654 51.3363Z" fill="url(#paint5_linear)"/>
<path d="M40.5942 41.5458C39.7607 38.9451 40.2829 40.848 39.7105 35.6967C39.0779 29.9981 37.2705 27.5279 35.8596 19.3642C34.9659 14.1828 32.8321 10.6984 34.2881 6.97803C31.7526 8.68508 32.1744 11.9134 33.4447 15.3426C34.5241 18.2546 36.3868 28.6375 37.2202 33.4825L36.3266 33.7486L37.3006 41.591L39.2034 42.9818L40.3632 42.8914C40.6594 42.5701 40.785 42.1383 40.5942 41.5458Z" fill="url(#paint6_linear)"/>
<path d="M58.9048 46.5367C58.3827 43.3636 57.7049 38.6943 57.7049 35.7622C57.7049 30.9975 60.2403 17.0148 61.2947 13.3647C61.8671 11.3815 61.8319 9.59913 61.2244 8.28369C60.5115 13.5956 57.4187 21.1368 57.2078 28.1859C56.8162 41.4457 53.9042 41.1796 51.936 42.2942C54.6071 43.3837 57.1325 44.7393 58.9048 46.5367Z" fill="url(#paint7_linear)"/>
<path d="M56.7408 6.0293C54.9083 6.17992 53.8941 7.29955 53.3117 8.85096C53.151 9.28274 52.8799 10.3973 52.5385 11.9437C51.5193 16.5829 49.8674 25.1182 48.6173 30.8318C48.4817 31.4292 48.0499 32.2326 47.4223 32.2326C47.4223 32.2326 47.4274 32.2326 47.4223 32.2326C46.8751 32.2326 46.378 31.6351 46.1923 30.8217C44.6258 24.2948 42.02 13.5202 40.9958 9.97058C40.2778 7.47025 38.6159 6.66191 37.2704 6.43598C41.5681 7.27946 43.235 29.0594 47.3772 34.1103C47.3772 34.1103 50.48 34.0099 52.7694 14.7704C53.4673 8.86602 55.7267 6.20502 56.7408 6.0293Z" fill="url(#paint8_linear)"/>
<path d="M24.5329 45.9091C21.7966 45.9091 19.5372 43.6799 19.1607 39.5076C19.1255 39.111 18.3473 30.877 23.0267 30.877C27.3646 30.877 28.5896 32.5489 28.8708 38.1169C29.152 43.6849 27.3646 45.9091 24.5329 45.9091Z" fill="url(#paint9_linear)"/>
<path d="M34.8906 46.5567C31.5167 46.5567 29.8297 45.0756 29.3577 40.8481C28.8908 36.6257 26.8574 29.0142 33.053 28.6076C38.9925 28.216 39.108 31.8911 39.108 38.0164C39.108 44.1418 37.7976 46.5567 34.8906 46.5567Z" fill="url(#paint10_linear)"/>
<path d="M34.6999 40.7125C32.1192 42.0128 30.387 42.0379 29.2825 40.2656C29.3076 40.4664 29.3377 40.6673 29.3578 40.853C29.8247 45.0755 31.5167 46.5616 34.8906 46.5616C37.2655 46.5616 38.5759 44.95 38.9725 41.0187C38.3098 39.874 36.2211 39.9443 34.6999 40.7125Z" fill="url(#paint11_linear)"/>
<path d="M24.4425 40.527C22.143 40.527 20.2401 39.096 19.9188 36.415C20.0493 37.5095 19.0753 30.8721 23.1722 30.8721C26.8223 30.8721 27.8515 31.9465 28.0925 35.5213C28.3335 39.096 26.8223 40.527 24.4425 40.527Z" fill="url(#paint12_linear)"/>
<path d="M34.4236 40.2456C31.6522 40.2456 30.407 38.7846 29.9401 35.7972C29.6991 34.2609 28.1226 28.8887 33.2086 28.6025C38.0837 28.3264 38.0837 31.8861 38.1841 34.9136C38.3297 39.2616 36.8085 40.2456 34.4236 40.2456Z" fill="url(#paint13_linear)"/>
<path d="M32.8773 46.3054C33.4698 46.471 34.1325 46.5564 34.8906 46.5564C37.7976 46.5564 39.1081 44.1414 39.1081 38.0161C39.1081 32.1117 38.9876 28.4968 33.6605 28.5922C35.7542 29.8423 37.4663 32.6891 37.4663 37.8303C37.4663 45.1506 35.8295 46.2903 32.8773 46.3054Z" fill="url(#paint14_linear)"/>
<path d="M33.0179 44.3022C33.0179 41.827 34.7701 41.7467 39.4544 41.33C42.8033 41.0337 46.4483 40.1551 51.0875 41.9475C56.3844 43.996 61.3599 46.9582 61.4202 52.2802C61.4754 57.0449 57.7701 73.9999 41.5581 73.9999C25.3462 73.9999 19.9037 65.3392 19.4066 50.9849L47.6985 56.6784C47.6985 56.6784 48.301 51.6225 44.8367 50.1213C43.3606 49.4837 40.1975 49.9958 38.0938 49.9958C35.9901 49.9958 33.0179 47.641 33.0179 44.3022Z" fill="url(#paint15_linear)"/>
<path d="M24.558 43.3083C21.7765 43.3083 19.477 41.0942 19 36.9722C19.0201 37.8006 19.0803 38.6591 19.1556 39.5076C19.5322 43.6849 21.7966 45.9091 24.5278 45.9091C27.1788 45.9091 28.8959 43.9108 28.8708 39.0708C28.3085 42.0431 26.732 43.3083 24.558 43.3083Z" fill="url(#paint16_linear)"/>
<path d="M28.8707 38.1121C28.5996 32.8051 27.4699 31.0429 23.614 30.8872C25.6374 31.2186 29.5485 39.0058 24.1613 45.8691C24.2868 45.8791 24.4073 45.9093 24.5328 45.9093C27.3595 45.9093 29.1519 43.6801 28.8707 38.1121Z" fill="url(#paint17_linear)"/>
<path d="M49.3504 51.723C49.2249 48.7507 45.5748 45.7834 42.5422 46.0947C39.9264 46.3608 35.1869 46.7173 33.0681 44.7793C33.3392 47.857 36.0906 49.9958 38.0889 49.9958C40.1926 49.9958 43.3556 49.4787 44.8317 50.1214C48.296 51.6226 47.6935 56.6785 47.6935 56.6785C47.6935 56.6785 49.4759 54.6953 49.3504 51.723Z" fill="url(#paint18_linear)"/>
<path d="M61.4151 52.2802C61.3549 46.9582 56.3793 43.996 51.0824 41.9475C46.4433 40.1551 42.8032 41.0337 39.4494 41.33C35.8746 41.6463 34.0169 41.7768 33.3341 42.9165C37.7373 41.827 41.8644 41.3852 46.9504 41.9676C53.5778 42.7257 58.5885 46.8076 59.4972 49.9355C60.3959 53.0233 60.2654 58.772 60.2654 58.9076C61.1189 56.1361 61.4352 53.681 61.4151 52.2802Z" fill="url(#paint19_linear)"/>
<path d="M47.6986 56.6737C47.7789 55.4687 47.6835 54.2386 47.2969 53.0989C46.9304 51.9642 46.2024 50.8998 45.1279 50.3676C44.0887 49.7852 42.8084 49.8907 41.6235 49.9158C40.4185 49.966 39.2186 50.1066 37.9935 50.1015C35.4731 49.8806 33.4246 47.7368 32.9677 45.3118C32.8522 44.6992 32.8221 44.0767 32.9476 43.4491C33.0782 42.8164 33.5652 42.2391 34.1526 42.0031C35.3224 41.506 36.5575 41.4458 37.7575 41.3002C40.1725 41.1496 42.5523 40.7178 45.0024 40.7027C47.4425 40.6676 49.8826 41.2349 52.0968 42.224C54.3209 43.1729 56.525 44.2825 58.3576 45.9042C60.1902 47.4958 61.4554 49.8304 61.4153 52.2805C61.3952 49.8304 60.0848 47.5611 58.2421 46.0347C56.4196 44.4582 54.2306 43.3687 52.0064 42.4449C49.7922 41.4809 47.4124 40.9487 45.0024 41.004C42.6025 41.0341 40.2026 41.491 37.7876 41.6567C36.5977 41.7872 35.3576 41.8474 34.2882 42.2993C33.7509 42.5202 33.3744 42.9671 33.2439 43.5194C33.1284 44.0767 33.1485 44.6842 33.2489 45.2615C33.6505 47.556 35.6388 49.6497 37.9935 49.8656C39.1884 49.8806 40.3984 49.7501 41.6084 49.7099C42.7983 49.6999 44.0937 49.5844 45.2033 50.212C46.3078 50.7944 47.0258 51.914 47.3672 53.0638C47.7387 54.2386 47.809 55.4737 47.6986 56.6737Z" fill="#975500"/>
<path d="M28.695 36.0332C28.921 37.8005 29.1419 39.603 28.8657 41.4004C28.7452 42.2941 28.5243 43.1878 28.0875 44.0011C27.6708 44.8195 26.9378 45.5023 26.0591 45.8387C24.2818 46.4211 22.2183 45.8739 21.0033 44.4881C19.733 43.1376 19.2611 41.2749 19.1606 39.5076C19.4016 41.2598 19.9539 43.0472 21.174 44.3225C22.3589 45.6228 24.322 46.0697 25.9386 45.5023C27.6206 44.935 28.3837 43.0673 28.6298 41.3652C28.921 39.613 28.7804 37.8156 28.695 36.0332Z" fill="#975500"/>
<path d="M33.5601 46.4463C32.9878 46.6321 32.4706 46.381 31.9937 46.135C31.5117 45.8789 31.0799 45.5325 30.7234 45.1208C30.0054 44.2924 29.6339 43.2531 29.408 42.2289C29.2021 41.1846 29.177 40.1503 29.0314 39.121C28.9059 38.0868 28.7904 37.0525 28.7452 36.0132C28.8758 37.0475 29.0565 38.0667 29.2272 39.0959C29.423 40.1151 29.5134 41.1695 29.7544 42.1586C29.9854 43.1477 30.3569 44.1267 31.0196 44.8698C31.346 45.2413 31.7426 45.5526 32.1844 45.7735C32.6263 46.0095 33.1083 46.0697 33.5601 46.4463Z" fill="#975500"/>
<path d="M35.8546 28.8081C36.427 28.9537 36.9843 29.1897 37.4562 29.5713C37.9282 29.9528 38.2595 30.48 38.5005 31.0273C38.9875 32.1369 39.1181 33.3418 39.2235 34.5217C39.2788 35.7066 39.2838 36.8915 39.2587 38.0714C39.2486 38.6588 39.2637 39.2513 39.2336 39.8437C39.2135 40.1399 39.2085 40.4412 39.1432 40.7374C39.088 40.9985 38.9524 41.4353 38.5959 41.4052C38.8922 41.2997 38.8821 40.9633 38.9474 40.7022C38.9825 40.4211 39.0127 40.1299 39.0127 39.8387C39.0227 39.2513 38.9876 38.6638 38.9725 38.0714C38.9374 36.8915 38.9524 35.7116 38.8721 34.5418C38.8068 33.377 38.7315 32.1921 38.3047 31.1126C37.9131 30.0131 36.9893 29.1646 35.8546 28.8081Z" fill="#975500"/>
<path d="M39.6654 51.3364C35.7893 51.7431 33.0179 47.2997 33.0179 47.2997C29.2875 46.2805 29.1369 43.5894 29.1369 43.5894C28.3034 45.0755 26.9076 46.8378 24.5881 46.8378C22.6149 46.8378 20.3506 45.7885 19.3414 43.7601C19.3665 43.3082 19.4067 42.8614 19.4518 42.4146H19.4368C19.3113 43.6396 19.2811 44.8848 19.2862 46.0797C21.2794 48.3692 24.4073 48.6905 26.4056 48.1031C26.9478 47.9424 29.4732 46.0395 31.4213 47.9524C33.535 50.031 35.9952 52.687 40.2176 52.5916C44.4401 52.4962 47.6985 56.6735 47.6985 56.6735C47.327 54.6802 44.3547 50.8444 39.6654 51.3364Z" fill="url(#paint20_linear)"/>
<path opacity="0.16" d="M22.394 51.4718C20.9079 53.2643 25.4316 63.5819 29.9 66.1826C34.3685 68.7834 39.9616 67.9851 41.0561 65.9165C42.1456 63.853 37.5015 60.6397 33.7058 57.085C27.1487 50.9547 23.8802 49.6794 22.394 51.4718Z" fill="url(#paint21_radial)"/>
<path opacity="0.16" d="M58.7943 52.7925C59.5876 51.7281 55.6313 45.1208 52.4732 43.3384C49.3152 41.5561 43.0945 42.6154 42.5924 43.8656C42.0853 45.1158 48.0801 46.5266 50.8967 48.8813C55.7568 52.9481 58.0061 53.8569 58.7943 52.7925Z" fill="url(#paint22_radial)"/>
<path opacity="0.16" d="M33.6154 9.89503C33.3945 9.09673 35.0012 7.71603 36.0555 7.44491C37.1099 7.16877 38.1442 7.59553 38.3651 8.39383C38.586 9.19213 37.5417 9.94022 36.6229 10.608C35.0463 11.7527 33.8363 10.6933 33.6154 9.89503Z" fill="url(#paint23_radial)"/>
<path opacity="0.16" d="M55.6212 7.16385C55.8923 6.32538 57.9056 6.65173 58.8847 7.3697C59.8587 8.08766 60.4311 9.34787 60.165 10.1813C59.8939 11.0198 58.6638 10.6884 57.5843 10.4072C55.7066 9.92525 55.3501 8.00231 55.6212 7.16385Z" fill="url(#paint24_radial)"/>
<path d="M59.4622 47.1538C59.7684 53.8816 58.7492 59.1584 53.126 63.2604C46.1522 68.3514 46.7195 71.1781 40.2177 71.1781C33.7158 71.1781 29.5235 67.7389 26.5562 64.7716C23.5889 61.8043 21.0886 56.8539 19.8636 53.0883C19.738 52.7118 19.6075 52.3704 19.4669 52.044C20.1949 65.7557 25.7529 73.9997 41.5582 73.9997C57.7702 73.9997 61.4755 57.0447 61.4202 52.285C61.3951 50.2566 60.6571 48.5747 59.4622 47.1538Z" fill="url(#paint25_radial)"/>
<defs>
<linearGradient id="paint0_linear" x1="43.7752" y1="51.7561" x2="43.7752" y2="31.709" gradientUnits="userSpaceOnUse">
<stop offset="0.00132565" stop-color="#BE8D68"/>
<stop offset="1" stop-color="#CD9870"/>
</linearGradient>
<linearGradient id="paint1_linear" x1="53.9224" y1="51.7561" x2="53.9224" y2="31.709" gradientUnits="userSpaceOnUse">
<stop offset="0.00132565" stop-color="#BE8D68"/>
<stop offset="1" stop-color="#CD9870"/>
</linearGradient>
<linearGradient id="paint2_linear" x1="20.4695" y1="50.8061" x2="59.7203" y2="50.8061" gradientUnits="userSpaceOnUse">
<stop offset="0.00132565" stop-color="#BE8D68"/>
<stop offset="1" stop-color="#CD9870"/>
</linearGradient>
<linearGradient id="paint3_linear" x1="35.1273" y1="51.7561" x2="35.1273" y2="31.709" gradientUnits="userSpaceOnUse">
<stop offset="0.00132565" stop-color="#BE8D68"/>
<stop offset="1" stop-color="#CD9870"/>
</linearGradient>
<linearGradient id="paint4_linear" x1="39.9336" y1="51.7562" x2="39.9336" y2="31.7091" gradientUnits="userSpaceOnUse">
<stop offset="0.00132565" stop-color="#BE8D68"/>
<stop offset="1" stop-color="#CD9870"/>
</linearGradient>
<linearGradient id="paint5_linear" x1="34.285" y1="72.2282" x2="34.285" y2="25.2421" gradientUnits="userSpaceOnUse">
<stop stop-color="#473226" stop-opacity="0"/>
<stop offset="1" stop-color="#3D2A20"/>
</linearGradient>
<linearGradient id="paint6_linear" x1="32.1186" y1="12.1371" x2="44.6922" y2="53.6654" gradientUnits="userSpaceOnUse">
<stop stop-color="#D2A374" stop-opacity="0"/>
<stop offset="1" stop-color="#B88653"/>
</linearGradient>
<linearGradient id="paint7_linear" x1="28.1047" y1="-37.7422" x2="134.361" y2="197.437" gradientUnits="userSpaceOnUse">
<stop stop-color="#D2A374" stop-opacity="0"/>
<stop offset="1" stop-color="#B88653"/>
</linearGradient>
<linearGradient id="paint8_linear" x1="47.0058" y1="-3.68452" x2="47.0058" y2="79.3911" gradientUnits="userSpaceOnUse">
<stop stop-color="#D2A374" stop-opacity="0"/>
<stop offset="1" stop-color="#B88653"/>
</linearGradient>
<linearGradient id="paint9_linear" x1="23.9954" y1="37.0923" x2="23.9954" y2="54.287" gradientUnits="userSpaceOnUse">
<stop offset="0.00132565" stop-color="#BE8D68"/>
<stop offset="1" stop-color="#CD9870"/>
</linearGradient>
<linearGradient id="paint10_linear" x1="33.8896" y1="37.0923" x2="33.8896" y2="54.287" gradientUnits="userSpaceOnUse">
<stop offset="0.00132565" stop-color="#BE8D68"/>
<stop offset="1" stop-color="#CD9870"/>
</linearGradient>
<linearGradient id="paint11_linear" x1="34.132" y1="36.6632" x2="34.132" y2="59.448" gradientUnits="userSpaceOnUse">
<stop stop-color="#8D562E" stop-opacity="0"/>
<stop offset="1" stop-color="#8D562E"/>
</linearGradient>
<linearGradient id="paint12_linear" x1="24.0094" y1="39.5983" x2="24.0094" y2="26.3986" gradientUnits="userSpaceOnUse">
<stop offset="0.00132565" stop-color="#BE8D68"/>
<stop offset="1" stop-color="#CD9870"/>
</linearGradient>
<linearGradient id="paint13_linear" x1="33.8566" y1="39.5981" x2="33.8566" y2="26.3984" gradientUnits="userSpaceOnUse">
<stop offset="0.00132565" stop-color="#BE8D68"/>
<stop offset="1" stop-color="#CD9870"/>
</linearGradient>
<linearGradient id="paint14_linear" x1="27.236" y1="33.4432" x2="69.6317" y2="57.5274" gradientUnits="userSpaceOnUse">
<stop stop-color="#8D562E" stop-opacity="0"/>
<stop offset="1" stop-color="#8D562E"/>
</linearGradient>
<linearGradient id="paint15_linear" x1="20.4695" y1="57.4258" x2="59.7203" y2="57.4258" gradientUnits="userSpaceOnUse">
<stop offset="0.00132565" stop-color="#BE8D68"/>
<stop offset="1" stop-color="#CD9870"/>
</linearGradient>
<linearGradient id="paint16_linear" x1="23.8475" y1="36.657" x2="25.0237" y2="56.1583" gradientUnits="userSpaceOnUse">
<stop stop-color="#8D562E" stop-opacity="0"/>
<stop offset="1" stop-color="#8D562E"/>
</linearGradient>
<linearGradient id="paint17_linear" x1="13.5372" y1="31.2316" x2="78.965" y2="72.7769" gradientUnits="userSpaceOnUse">
<stop stop-color="#8D562E" stop-opacity="0"/>
<stop offset="1" stop-color="#8D562E"/>
</linearGradient>
<linearGradient id="paint18_linear" x1="41.2134" y1="54.1186" x2="41.2134" y2="28.8137" gradientUnits="userSpaceOnUse">
<stop stop-color="#B37E53"/>
<stop offset="1" stop-color="#CD9870"/>
</linearGradient>
<linearGradient id="paint19_linear" x1="44.0034" y1="51.9979" x2="90.756" y2="30.8353" gradientUnits="userSpaceOnUse">
<stop stop-color="#8D562E" stop-opacity="0"/>
<stop offset="1" stop-color="#8D562E"/>
</linearGradient>
<linearGradient id="paint20_linear" x1="30.732" y1="58.1904" x2="39.7344" y2="30.719" gradientUnits="userSpaceOnUse">
<stop stop-color="#A46C3F" stop-opacity="0"/>
<stop offset="1" stop-color="#804B24"/>
</linearGradient>
<radialGradient id="paint21_radial" cx="0" cy="0" r="1" gradientUnits="userSpaceOnUse" gradientTransform="translate(31.2171 60.3686) rotate(-138.967) scale(13.0061 5.93482)">
<stop stop-color="#F8DBBA"/>
<stop offset="1" stop-color="#CD9870" stop-opacity="0"/>
</radialGradient>
<radialGradient id="paint22_radial" cx="0" cy="0" r="1" gradientUnits="userSpaceOnUse" gradientTransform="translate(51.198 46.3678) rotate(38.2129) scale(10.0286 3.6926)">
<stop stop-color="#F8DBBA"/>
<stop offset="1" stop-color="#CD9870" stop-opacity="0"/>
</radialGradient>
<radialGradient id="paint23_radial" cx="0" cy="0" r="1" gradientUnits="userSpaceOnUse" gradientTransform="translate(36.0125 9.29264) rotate(165.356) scale(2.47349 1.45181)">
<stop stop-color="#F8DBBA"/>
<stop offset="1" stop-color="#CD9870" stop-opacity="0"/>
</radialGradient>
<radialGradient id="paint24_radial" cx="0" cy="0" r="1" gradientUnits="userSpaceOnUse" gradientTransform="translate(57.8019 8.75683) rotate(-143.703) scale(2.74862 1.46095)">
<stop stop-color="#F8DBBA"/>
<stop offset="1" stop-color="#CD9870" stop-opacity="0"/>
</radialGradient>
<radialGradient id="paint25_radial" cx="0" cy="0" r="1" gradientUnits="userSpaceOnUse" gradientTransform="translate(41.7407 48.5935) scale(28.4948)">
<stop offset="0.6147" stop-color="#B37E53" stop-opacity="0"/>
<stop offset="1" stop-color="#B37E53"/>
</radialGradient>
</defs>
</svg>
