<svg width="80" height="80" viewBox="0 0 80 80" fill="none" xmlns="http://www.w3.org/2000/svg">
<path d="M40 66.8572C56.8315 66.8572 70.4762 53.2125 70.4762 36.381C70.4762 19.5494 56.8315 5.90479 40 5.90479C23.1685 5.90479 9.5238 19.5494 9.5238 36.381C9.5238 53.2125 23.1685 66.8572 40 66.8572Z" fill="url(#paint0_radial)"/>
<path opacity="0.5" d="M40 66.8572C56.8315 66.8572 70.4762 53.2125 70.4762 36.381C70.4762 19.5494 56.8315 5.90479 40 5.90479C23.1685 5.90479 9.5238 19.5494 9.5238 36.381C9.5238 53.2125 23.1685 66.8572 40 66.8572Z" fill="url(#paint1_radial)"/>
<path opacity="0.24" d="M40 66.8572C56.8315 66.8572 70.4762 53.2125 70.4762 36.381C70.4762 19.5494 56.8315 5.90479 40 5.90479C23.1685 5.90479 9.5238 19.5494 9.5238 36.381C9.5238 53.2125 23.1685 66.8572 40 66.8572Z" fill="url(#paint2_radial)"/>
<path d="M40.0002 63.8286C49.5416 63.8286 57.2764 58.2599 57.2764 51.3905C57.2764 44.5211 49.5416 38.9524 40.0002 38.9524C30.4588 38.9524 22.724 44.5211 22.724 51.3905C22.724 58.2599 30.4588 63.8286 40.0002 63.8286Z" fill="url(#paint3_radial)"/>
<path d="M22.724 51.3905C22.724 54.3048 24.1145 56.9714 26.4383 59.0857C24.8002 57.0476 23.8288 54.6095 23.8288 52C23.8288 50.0191 24.5335 49.6952 25.3526 50.2667C27.4478 51.7333 28.6859 50 31.2002 48.6667C33.7335 47.3524 36.743 38.9524 39.9811 38.9524C30.4573 38.9524 22.724 44.5333 22.724 51.3905Z" fill="url(#paint4_linear)"/>
<path d="M40 38.9524C43.7333 38.9524 47.1809 47.6 49.9238 49.3143C53.7333 51.6952 56.1714 47.8095 56.1714 52C56.1714 54.6095 55.219 57.0476 53.5619 59.0857C55.8857 56.9714 57.2762 54.2857 57.2762 51.3905C57.2762 44.5333 49.5428 38.9524 40 38.9524Z" fill="url(#paint5_linear)"/>
<path d="M59.6571 18.3808C59.5618 19.5998 58.1904 20.2665 55.9237 20.076C53.9999 19.9237 49.8666 18.5332 47.238 14.5522C46.7618 13.8284 47.619 13.5046 48.0952 13.9998C49.7714 15.657 54.3999 17.9998 58.1714 17.8856C59.7142 17.8284 59.6571 18.3808 59.6571 18.3808Z" fill="url(#paint6_linear)"/>
<path d="M20.3427 18.2666C20.4379 19.4857 21.8093 20.1523 24.076 19.9618C25.9998 19.8095 30.1331 18.419 32.7617 14.438C33.2379 13.7142 32.3808 13.3904 31.9046 13.8857C30.2284 15.5428 25.5998 17.8857 21.8284 17.7714C20.2855 17.7333 20.3427 18.2666 20.3427 18.2666Z" fill="url(#paint7_linear)"/>
<path d="M59.3337 23.9621C59.2384 23.6002 58.9146 23.3907 58.5527 23.4478C56.6479 23.7335 53.3718 24.9335 50.1908 26.5335C47.6765 27.7907 44.686 29.5621 44.686 30.8192C44.686 32.2097 48.0765 34.2288 49.5241 35.0288C51.8098 36.2859 54.8956 37.6192 56.7051 37.6192C57.1813 37.6192 57.4289 37.3526 57.486 37.0859C57.5813 36.724 57.3527 36.3621 56.9146 36.1335C52.2479 33.7526 49.467 31.5621 49.467 30.8192C49.467 30.8192 49.4098 30.1335 52.7432 28.2288C54.7813 27.0669 57.067 25.9811 58.3432 25.505C59.1051 25.2192 59.467 24.4764 59.3337 23.9621Z" fill="url(#paint8_radial)"/>
<path d="M62.7429 64.8C62.7429 64.8 62.1715 64.6095 61.2762 64.381C61.2953 62.7619 60.0381 60.9714 58.3048 60.9714C57.1239 60.9714 56.2858 61.6952 55.2762 61.9619C55.2572 61.8476 55.2381 61.7143 55.2001 61.6C54.5524 59.3143 54.6286 50.6476 54.6477 44.781C51.9429 41.6953 47.4286 39.5238 42.1715 39.0476L40.0191 38.9524L37.8667 39.0476C32.6096 39.5238 28.0762 41.6953 25.3905 44.781C25.4286 50.6476 25.5048 59.3143 24.8381 61.6C24.8381 61.6 24.8381 61.6 24.8381 61.6191C24.0001 61.3905 23.162 60.6857 21.9429 60.6857C20.4381 60.6857 18.9905 62.7238 19.7143 64.1524C18.2858 64.4762 17.2953 64.8191 17.2953 64.8191C15.8667 64.8191 12.2858 65.9619 12.2858 68.1333C12.2858 69.8857 15.162 72.0381 18.4762 71.4286C19.3715 71.2762 19.3715 71.2762 19.3715 71.2762C19.3715 71.2762 20.4572 72.8381 23.3715 73.2952C25.5239 73.6381 27.6572 73.0667 28.762 72.4762C28.762 72.4762 29.8096 73.6952 33.6191 73.8667C35.1429 73.9238 35.8286 73.581 36.381 73.2952C37.2001 74.4 38.5143 75.1048 39.981 75.1048C41.3143 75.1048 42.4953 74.5333 43.3334 73.6191C44.4953 74.5524 46.7048 75.7143 49.1048 73.7333C50.6667 72.4381 52.0572 72.4 52.0572 72.4C53.162 72.9905 54.7429 74.1714 56.9905 74.1714C60.0762 74.1714 61.6191 71.581 61.6191 71.581C63.7334 72.381 66.2667 70.3238 66.2667 68.1524C66.2667 65.981 64.1715 64.8 62.7429 64.8Z" fill="url(#paint9_linear)"/>
<path d="M25.3522 44.781C25.3903 50.6476 25.4665 59.3143 24.7998 61.6C24.5141 62.6095 24.895 63.2 25.4855 63.5429C26.6474 64.2476 53.3331 64.2476 54.4951 63.5429C55.0855 63.2 55.4665 62.5905 55.1808 61.6C54.5331 59.3143 54.6093 50.6476 54.6284 44.781C51.9236 41.6953 47.4093 39.5238 42.1522 39.0476L39.9998 38.9524L37.8474 39.0476C32.5903 39.5238 28.0569 41.6953 25.3522 44.781Z" fill="url(#paint10_linear)"/>
<path d="M62.7427 64.7999C62.7427 64.7999 54.9712 62.2856 52.1522 64.1142L42.5903 61.4856V66.9142C41.8474 66.3809 40.9332 66.0571 39.9427 66.0571C38.9903 66.0571 38.1141 66.3428 37.3903 66.8571V59.0856L27.8284 64.1142C25.0284 62.2856 17.2379 64.7999 17.2379 64.7999C15.8093 64.7999 12.2284 65.9428 12.2284 68.1142C12.2284 69.8666 15.1046 72.019 18.4189 71.4094C19.3141 71.2571 19.3141 71.2571 19.3141 71.2571C19.3141 71.2571 20.3998 72.819 23.3141 73.2761C25.4665 73.619 27.5998 73.0475 28.7046 72.4571C28.7046 72.4571 29.7522 73.6761 33.5617 73.8475C35.0855 73.9047 35.7712 73.5618 36.3236 73.2761C37.1427 74.3809 38.457 75.0856 39.9236 75.0856C40.7046 75.0856 41.4474 74.8951 42.076 74.5332C42.857 74.1142 43.7903 74.0571 44.5903 74.419C45.7903 74.9332 47.3522 75.0856 49.0284 73.7142C49.1046 73.6571 49.1617 73.5999 49.2379 73.5428C50.457 72.6094 52.1331 72.5142 53.5046 73.238C54.4189 73.7142 55.5427 74.1523 56.9141 74.1523C59.9998 74.1523 61.5427 71.5618 61.5427 71.5618C63.657 72.3618 66.1903 70.3047 66.1903 68.1332C66.1903 65.9618 64.1712 64.7999 62.7427 64.7999Z" fill="url(#paint11_linear)"/>
<path d="M44.0761 56.5714V44.2095H39.9999H35.9238V51.7333L32.5142 52.6666C32.5142 53.2761 32.5142 53.8857 32.4952 54.5142L29.6761 47.1809C29.6761 52.5142 29.1618 62.3619 25.9618 64.8761C22.7618 67.3904 20.3999 65.638 18.419 65.5619C14.7999 65.4095 13.9237 70.819 18.419 70.819C19.1809 70.819 20.1333 70.7428 21.3904 70.4761C22.3618 70.2666 23.3714 70.6095 23.9999 71.3714C24.6857 72.1904 25.9809 72.3809 27.7523 72.3809C28.9714 72.3809 30.0761 72.1333 31.0666 71.4857C31.8857 70.9523 32.9333 71.0095 33.6571 71.6571C33.9809 71.9428 34.3619 72.1714 34.8571 72.3618C36.5142 73.0095 38.0761 72.8761 39.238 72.2666C39.7333 71.9999 40.3428 72.019 40.7999 72.3238C41.4666 72.7619 42.4571 72.9904 43.8095 72.9904C47.1238 72.9904 47.4095 70.419 45.8095 68.019C44.2095 65.619 44.0761 60.1714 44.0761 56.5714Z" fill="#216B00"/>
<path d="M61.5805 65.5618C59.5995 65.638 57.2376 67.3904 54.0376 64.8761C50.8376 62.3618 50.3234 52.5142 50.3234 47.1808L47.5043 54.5142C47.5043 53.9047 47.4853 53.2761 47.4853 52.6666L43.2567 51.7142C42.8757 65.9428 46.171 72.3428 52.0186 72.3428C53.6376 72.3428 54.7614 72.019 55.39 71.4285C56.0948 70.7618 57.0472 70.419 58.0186 70.5714C59.4853 70.7999 60.7805 70.819 61.5995 70.819C66.0948 70.819 65.2186 65.4094 61.5805 65.5618Z" fill="#216B00"/>
<path d="M32.3422 42.9904C29.6375 44.5523 26.9708 47.4284 27.1613 50.5332C27.5803 57.6189 27.7899 60.2475 24.9518 60.9713C23.9994 61.2189 22.9327 59.638 21.4851 59.638C19.1803 59.638 17.4089 65.4856 23.066 65.4856C25.7327 65.4856 32.3613 67.5427 32.3422 42.9904Z" fill="url(#paint12_linear)"/>
<path d="M28.8188 57.4855C28.4759 61.4855 24.8569 63.7712 23.5807 64.076C22.5521 64.3236 20.6473 64.2093 19.3331 62.1332C19.1045 63.7331 19.9616 65.4855 23.0664 65.4855C24.7426 65.4855 27.9616 66.2855 30.1331 60.8951C29.6378 58.0379 29.0283 55.2379 28.8188 57.4855Z" fill="url(#paint13_linear)"/>
<path d="M32.6476 54.1332C35.4095 68.3618 21.9237 70.057 18.419 70.057C13.9237 70.057 14.7999 64.6475 18.419 64.7999C20.3999 64.876 22.7618 66.6284 25.9618 64.1141C29.1618 61.5999 29.6761 51.7522 29.6761 46.4189L32.6476 54.1332Z" fill="url(#paint14_linear)"/>
<path d="M32.5139 51.9235C32.5139 58.4949 32.2663 65.714 27.5996 65.714C23.8092 65.714 21.9234 71.9997 27.752 71.9997C33.5806 71.9997 36.8187 62.7616 36.8187 50.7426L32.5139 51.9235Z" fill="url(#paint15_linear)"/>
<path d="M35.9236 53.9047C35.9236 58.0571 35.4284 62.2476 33.8284 64.6476C32.2284 67.0476 31.7331 70.3809 34.8189 71.5809C38.4379 73.0095 41.6189 70.6095 40.9331 68.0381C40.2474 65.4666 39.6569 58.2285 39.9808 51.4285C39.9808 47.2761 39.9808 43.4476 39.9808 43.4476H35.9046L35.9236 53.9047Z" fill="url(#paint16_linear)"/>
<path d="M47.6376 42.9904C50.4757 44.1713 52.2661 47.0285 52.0757 50.1142C51.7519 55.2189 51.6947 62.0761 54.5519 62.0761C55.9233 62.0761 56.8566 60.9713 58.3233 60.9713C61.5995 60.9713 63.1995 67.4285 57.5804 66.857C52.0185 66.3047 47.6376 67.5428 47.6376 42.9904Z" fill="url(#paint17_linear)"/>
<path d="M57.5619 66.8759C60.5333 67.1807 61.4857 65.5235 61.2381 63.8854C59.4667 64.1521 58.5143 64.7807 57.6571 64.7807C51.0476 64.7807 50.7619 54.6283 50.5714 52.6473L48 53.3711C49.1429 67.1807 52.9524 66.3997 57.5619 66.8759Z" fill="url(#paint18_linear)"/>
<path d="M46.9709 49.7713C46.9709 54.6475 47.39 64.6475 50.5138 64.6475C53.6376 64.6475 52.2662 60.6856 50.7424 60.6856C49.2186 60.6856 49.1995 57.3332 49.1995 47.5618L46.9709 49.7713Z" fill="url(#paint19_linear)"/>
<path d="M47.352 54.1332C46.0186 69.6951 58.0758 70.057 61.5805 70.057C66.0758 70.057 65.1996 64.6475 61.5805 64.7999C59.5996 64.876 57.2377 66.6284 54.0377 64.1141C50.8377 61.5999 50.3234 51.7522 50.3234 46.4189L47.352 54.1332Z" fill="url(#paint20_linear)"/>
<path d="M44.0762 55.8095C44.0762 59.4095 44.1904 64.8571 45.7904 67.2571C47.3904 69.6571 47.1047 72.2285 43.7904 72.2285C40.4762 72.2285 39.2762 70.8571 39.9619 68.2857C40.6476 65.7142 38.8571 62.6857 39.219 51.2571C39.4285 46.2857 40.2476 43.0857 40 43.4476H44.0762V55.8095Z" fill="url(#paint21_linear)"/>
<path d="M47.2575 46.2668C47.5051 54.5334 47.7527 65.7144 52.4194 65.7144C56.2099 65.7144 58.0956 72.0001 52.267 72.0001C46.4385 72.0001 43.6766 60.3239 44.0766 46.6477L47.2575 46.2668Z" fill="url(#paint22_linear)"/>
<path d="M26.3809 68.2667C26.1142 68.2476 27.1999 65.7143 26.838 65.7905C23.6571 66.5143 23.7142 68.4572 22.3047 68.8572C19.1619 69.7524 16.7809 69.7715 15.4476 66.8953C15.0476 68.3619 15.8857 70.0762 18.3999 70.0762C19.9238 70.0572 23.2761 69.7524 26.3809 68.2667Z" fill="url(#paint23_linear)"/>
<path d="M39.9618 68.2858C40.6475 65.7144 38.876 62.362 39.238 50.9334C38.4951 59.981 39.6189 63.2191 38.8189 67.4668C38.476 69.3144 38.838 70.4763 39.676 71.2001C39.8284 71.0858 39.9618 70.9715 40.0951 70.8572C39.7141 70.2096 39.676 69.3525 39.9618 68.2858Z" fill="url(#paint24_linear)"/>
<path d="M33.8287 64.6476C34.0954 64.2476 34.343 63.7714 34.5525 63.2762C34.8001 62.5524 35.0287 61.7905 35.2573 61.0286C35.7525 58.8952 35.9239 56.4 35.9239 53.9047V44.0762C35.6192 44.019 35.2954 44.019 34.9716 44.1143C34.0763 44.3619 33.4287 45.1809 33.4097 46.1143C33.2382 53.1809 31.9049 65.7143 27.5811 65.7143C23.7906 65.7143 21.9049 72 27.7335 72C29.543 72 31.1811 70.4 32.6097 67.8286C32.7239 66.7619 33.1811 65.619 33.8287 64.6476Z" fill="url(#paint25_linear)"/>
<path d="M34.7238 45.5428C36.1524 58.5904 32.419 65.638 29.2952 65.638C26.1714 65.638 26.6857 61.4095 29.5238 59.5428C32.1524 57.8285 32 52.819 31.8857 45.7523L34.7238 45.5428Z" fill="url(#paint26_linear)"/>
<path d="M34.7239 45.5428C36.1525 58.5904 32.5906 64.6475 29.4668 64.6475C26.343 64.6475 26.6858 61.4095 29.543 59.5428C32.1715 57.8285 32.0192 52.819 31.9049 45.7523L34.7239 45.5428Z" fill="url(#paint27_linear)"/>
<path d="M30.4765 49.5809C30.4765 50.0189 30.1146 50.3809 29.6765 50.3809C29.2384 50.3809 28.8765 50.0189 28.8765 49.5809C28.8765 49.238 28.8765 48.9713 28.8765 48.9713C28.9527 48.9332 30.3622 48.9713 30.4574 48.9713C30.4765 48.9713 30.4765 49.1428 30.4765 49.5809Z" fill="#216B00"/>
<path d="M29.6765 49.9237C30.1183 49.9237 30.4765 49.4973 30.4765 48.9714C30.4765 48.4454 30.1183 48.019 29.6765 48.019C29.2346 48.019 28.8765 48.4454 28.8765 48.9714C28.8765 49.4973 29.2346 49.9237 29.6765 49.9237Z" fill="#7CEC00"/>
<path d="M42.9527 58.0571C42.9527 58.4951 42.5908 58.857 42.1527 58.857C41.7146 58.857 41.3527 58.4951 41.3527 58.0571C41.3527 57.7142 41.3527 57.4475 41.3527 57.4475C41.4289 57.4094 42.8384 57.4475 42.9336 57.4475C42.9527 57.4475 42.9527 57.619 42.9527 58.0571Z" fill="#216B00"/>
<path d="M42.1527 58.3999C42.5945 58.3999 42.9527 57.9735 42.9527 57.4476C42.9527 56.9216 42.5945 56.4952 42.1527 56.4952C41.7108 56.4952 41.3527 56.9216 41.3527 57.4476C41.3527 57.9735 41.7108 58.3999 42.1527 58.3999Z" fill="#7CEC00"/>
<path d="M49.9051 63.8666C49.9051 64.3047 49.5431 64.6666 49.1051 64.6666C48.667 64.6666 48.3051 64.3047 48.3051 63.8666C48.3051 63.5237 48.3051 63.257 48.3051 63.257C48.3812 63.2189 49.7908 63.257 49.886 63.257C49.9051 63.257 49.9051 63.4285 49.9051 63.8666Z" fill="#216B00"/>
<path d="M49.1051 64.2094C49.5469 64.2094 49.9051 63.7831 49.9051 63.2571C49.9051 62.7311 49.5469 62.3047 49.1051 62.3047C48.6632 62.3047 48.3051 62.7311 48.3051 63.2571C48.3051 63.7831 48.6632 64.2094 49.1051 64.2094Z" fill="url(#paint28_radial)"/>
<path d="M39.6194 43.9618C39.6194 44.3999 39.2575 44.7618 38.8194 44.7618C38.3813 44.7618 38.0194 44.3999 38.0194 43.9618C38.0194 43.619 38.0194 43.3523 38.0194 43.3523C38.0956 43.3142 39.5051 43.3523 39.6004 43.3523C39.6194 43.3523 39.6194 43.5237 39.6194 43.9618Z" fill="#216B00"/>
<path d="M38.8194 44.3047C39.2612 44.3047 39.6194 43.8783 39.6194 43.3523C39.6194 42.8264 39.2612 42.4 38.8194 42.4C38.3776 42.4 38.0194 42.8264 38.0194 43.3523C38.0194 43.8783 38.3776 44.3047 38.8194 44.3047Z" fill="url(#paint29_radial)"/>
<path d="M50.0003 48.1713C50.0003 48.6094 49.6384 48.9713 49.2003 48.9713C48.7622 48.9713 48.4003 48.6094 48.4003 48.1713C48.4003 47.8284 48.4003 47.5617 48.4003 47.5617C48.4765 47.5236 49.886 47.5617 49.9812 47.5617C50.0003 47.5617 50.0003 47.7332 50.0003 48.1713Z" fill="#216B00"/>
<path d="M49.2197 48.5141C49.6615 48.5141 50.0197 48.0877 50.0197 47.5618C50.0197 47.0358 49.6615 46.6094 49.2197 46.6094C48.7778 46.6094 48.4197 47.0358 48.4197 47.5618C48.4197 48.0877 48.7778 48.5141 49.2197 48.5141Z" fill="url(#paint30_radial)"/>
<path d="M37.2384 68.762C37.2384 69.2001 36.8765 69.562 36.4384 69.562C36.0003 69.562 35.6384 69.2001 35.6384 68.762C35.6384 68.4192 35.6384 68.1525 35.6384 68.1525C35.7146 68.1144 37.1241 68.1525 37.2194 68.1525C37.2384 68.1715 37.2384 68.3239 37.2384 68.762Z" fill="#216B00"/>
<path d="M36.4578 69.1239C36.8997 69.1239 37.2578 68.6975 37.2578 68.1715C37.2578 67.6455 36.8997 67.2191 36.4578 67.2191C36.016 67.2191 35.6578 67.6455 35.6578 68.1715C35.6578 68.6975 36.016 69.1239 36.4578 69.1239Z" fill="url(#paint31_radial)"/>
<path d="M15.0854 61.2572C14.4949 61.8287 12.4378 60.9334 12.5711 62.3048C12.7616 64.0763 14.7426 64.5334 15.9616 63.981C17.1807 63.4287 17.714 62.4001 17.4854 61.3906C17.3521 60.8191 16.4188 59.981 15.0854 61.2572Z" fill="url(#paint32_linear)"/>
<path d="M17.4476 62.4002C16.3047 63.6002 13.9809 63.943 12.5714 62.2478C12.5714 62.2669 12.5714 62.2859 12.5714 62.2859C12.7619 64.0573 14.7428 64.5145 15.9619 63.9621C16.7619 63.6002 17.2571 63.0288 17.4476 62.4002Z" fill="url(#paint33_linear)"/>
<path d="M58.667 60.0193C59.2765 59.7145 60.0384 60.8764 60.6099 59.8097C61.3527 58.4002 60.1146 57.8669 59.1432 58.0193C58.1718 58.1717 57.6956 58.5526 57.3527 59.3717C57.1432 59.8288 57.2765 60.6859 58.667 60.0193Z" fill="url(#paint34_linear)"/>
<path d="M50.0003 48.1713C50.0003 48.6094 49.6384 48.9713 49.2003 48.9713C48.7622 48.9713 48.4003 48.6094 48.4003 48.1713C48.4003 47.8284 48.4003 47.5617 48.4003 47.5617C48.4765 47.5236 49.886 47.5617 49.9812 47.5617C50.0003 47.5617 50.0003 47.7332 50.0003 48.1713Z" fill="#216B00"/>
<path d="M49.2197 48.5141C49.6615 48.5141 50.0197 48.0877 50.0197 47.5618C50.0197 47.0358 49.6615 46.6094 49.2197 46.6094C48.7778 46.6094 48.4197 47.0358 48.4197 47.5618C48.4197 48.0877 48.7778 48.5141 49.2197 48.5141Z" fill="url(#paint35_linear)"/>
<path d="M22.0568 67.105C21.6949 67.3526 21.2568 67.3336 21.0473 67.0669C20.8378 66.7812 20.9711 66.3622 21.333 66.0955C21.6188 65.886 21.8283 65.7526 21.8283 65.7526C21.8854 65.7907 22.514 66.705 22.5521 66.7622C22.533 66.7431 22.3997 66.8383 22.0568 67.105Z" fill="#216B00"/>
<path d="M22.5331 66.743C22.114 67.0478 21.5997 67.0668 21.3902 66.8002C21.1807 66.5145 21.3712 66.0383 21.8093 65.7335C22.2283 65.4287 22.7426 65.4097 22.9521 65.6764C23.1426 65.9621 22.9712 66.4383 22.5331 66.743Z" fill="url(#paint36_linear)"/>
<path d="M54.6478 44.781C51.943 41.6953 47.4287 39.5238 42.1716 39.0476L40.0192 38.9524L37.8668 39.0476C32.6097 39.5238 28.0763 41.6953 25.3906 44.781C25.3906 45.8667 25.4097 47.0476 25.4097 48.2667C26.0382 46.9905 28.0954 44.8 29.0478 45.1238C30.0002 45.4476 30.343 43.5619 32.0954 44.6476C32.0954 44.6476 32.343 42.3238 35.524 42.4C37.5621 42.4572 38.9906 41.4667 39.9811 41.6C40.8954 41.7143 43.143 41.5048 44.1906 42.5524C44.1906 42.5524 46.2478 42.3619 47.524 43.8476C47.524 43.8476 49.9049 43.8857 50.8002 45.2762C50.8002 45.2762 53.4097 45.6 54.6478 48.5714C54.6287 47.2381 54.6287 45.9619 54.6478 44.781Z" fill="url(#paint37_linear)"/>
<path d="M34.0765 57.8096C34.0574 58.2477 33.6955 58.5905 33.2574 58.5715C32.8193 58.5524 32.4765 58.1905 32.4955 57.7524C32.4955 57.4096 32.5146 57.1429 32.5146 57.1429C32.5907 57.1239 34.0003 57.181 34.0955 57.181C34.0955 57.2191 34.0955 57.3715 34.0765 57.8096Z" fill="#216B00"/>
<path d="M34.0959 57.2189C34.0768 57.7523 33.7149 58.1713 33.2768 58.1523C32.8387 58.1332 32.4959 57.6951 32.5149 57.1808C32.534 56.6475 32.8959 56.2285 33.334 56.2475C33.7721 56.2666 34.1149 56.6856 34.0959 57.2189Z" fill="url(#paint38_radial)"/>
<path d="M60.5903 59.7904C60.6094 59.7333 60.6475 59.6761 60.6665 59.638C59.7141 60.0761 59.5808 59.1047 58.8379 59.5047C57.7713 60.0761 57.4284 59.6952 57.3713 59.2571C57.3522 59.2952 57.3332 59.3333 57.3141 59.3904C57.1237 59.8476 57.257 60.7047 58.6475 60.038C59.276 59.7142 60.0379 60.8761 60.5903 59.7904Z" fill="url(#paint39_linear)"/>
<path d="M58.5527 23.4667C56.6479 23.7524 53.3717 24.9524 50.1908 26.5524C47.6765 27.8095 44.686 29.581 44.686 30.8381C44.686 31.6381 45.8289 32.6667 47.067 33.5238C47.1241 33.5619 47.1622 33.581 47.2003 33.6191C47.2003 33.6191 47.2003 33.6191 47.2194 33.6191C46.2098 32.2476 45.7717 30.7619 47.7146 29.3524C48.9527 28.4572 54.6289 24.9905 59.3146 23.9619C59.2384 23.6191 58.9146 23.4095 58.5527 23.4667Z" fill="url(#paint40_linear)"/>
<path d="M57.5045 37.0859C57.5997 36.724 57.3711 36.3621 56.9331 36.1335C52.2664 33.7525 49.4854 31.5621 49.4854 30.8192C49.4854 30.8192 48.5902 32.9525 55.4854 36.1906C56.1521 36.4954 56.9521 37.0097 57.3902 37.3144C57.4473 37.2383 57.4854 37.1621 57.5045 37.0859Z" fill="url(#paint41_linear)"/>
<path d="M20.6667 23.9621C20.7619 23.6002 21.0857 23.3907 21.4476 23.4478C23.3524 23.7335 26.6286 24.9335 29.8095 26.5335C32.3238 27.7907 35.3143 29.5621 35.3143 30.8192C35.3143 32.2097 31.9238 34.2288 30.4762 35.0288C28.1905 36.2859 25.1048 37.6192 23.2953 37.6192C22.8191 37.6192 22.5714 37.3526 22.5143 37.0859C22.4191 36.724 22.6476 36.3621 23.0857 36.1335C27.7524 33.7526 30.5334 31.5621 30.5334 30.8192C30.5334 30.8192 30.5905 30.1335 27.2572 28.2288C25.2191 27.0669 22.9334 25.9811 21.6572 25.505C20.8953 25.2192 20.5334 24.4764 20.6667 23.9621Z" fill="url(#paint42_radial)"/>
<path d="M21.4479 23.4667C23.3527 23.7524 26.6289 24.9524 29.8098 26.5524C32.3241 27.8095 35.3146 29.581 35.3146 30.8381C35.3146 31.6381 34.1718 32.6667 32.9337 33.5238C32.8765 33.5619 32.8384 33.581 32.8003 33.6191C32.8003 33.6191 32.8003 33.6191 32.7813 33.6191C33.7908 32.2476 34.2289 30.7619 32.286 29.3524C31.0479 28.4572 25.3718 24.9905 20.686 23.9619C20.7622 23.6191 21.086 23.4095 21.4479 23.4667Z" fill="url(#paint43_linear)"/>
<path d="M22.4956 37.0859C22.4004 36.724 22.629 36.3621 23.0671 36.1335C27.7337 33.7525 30.5147 31.5621 30.5147 30.8192C30.5147 30.8192 31.4099 32.9525 24.5147 36.1906C23.848 36.4954 23.048 37.0097 22.6099 37.3144C22.5528 37.2383 22.5147 37.1621 22.4956 37.0859Z" fill="url(#paint44_linear)"/>
<defs>
<radialGradient id="paint0_radial" cx="0" cy="0" r="1" gradientUnits="userSpaceOnUse" gradientTransform="translate(34.0037 24.03) scale(36.7656)">
<stop stop-color="#FFE030"/>
<stop offset="1" stop-color="#FFB92E"/>
</radialGradient>
<radialGradient id="paint1_radial" cx="0" cy="0" r="1" gradientUnits="userSpaceOnUse" gradientTransform="translate(34.0037 24.03) scale(28.9251)">
<stop stop-color="#FFEA5F"/>
<stop offset="1" stop-color="#FFBC47" stop-opacity="0"/>
</radialGradient>
<radialGradient id="paint2_radial" cx="0" cy="0" r="1" gradientUnits="userSpaceOnUse" gradientTransform="translate(39.4894 58.6419) scale(22.9079 8.28578)">
<stop stop-color="#FF4C00"/>
<stop offset="0.5676" stop-color="#FF4C00"/>
<stop offset="0.661" stop-color="#FF4C00"/>
<stop offset="0.752" stop-color="#FB4C0B" stop-opacity="0.7318"/>
<stop offset="0.9091" stop-color="#EF4B27" stop-opacity="0.2683"/>
<stop offset="1" stop-color="#E74A3A" stop-opacity="0"/>
</radialGradient>
<radialGradient id="paint3_radial" cx="0" cy="0" r="1" gradientUnits="userSpaceOnUse" gradientTransform="translate(40.0002 51.3916) scale(15.0558)">
<stop offset="0.00132565" stop-color="#7A4400"/>
<stop offset="1" stop-color="#643800"/>
</radialGradient>
<linearGradient id="paint4_linear" x1="22.7152" y1="49.0259" x2="40.0002" y2="49.0259" gradientUnits="userSpaceOnUse">
<stop offset="0.00132565" stop-color="#3C2200"/>
<stop offset="1" stop-color="#512D00"/>
</linearGradient>
<linearGradient id="paint5_linear" x1="40" y1="49.0259" x2="57.285" y2="49.0259" gradientUnits="userSpaceOnUse">
<stop offset="0.00132565" stop-color="#3C2200"/>
<stop offset="1" stop-color="#512D00"/>
</linearGradient>
<linearGradient id="paint6_linear" x1="54.5093" y1="21.1509" x2="53.0684" y2="14.8604" gradientUnits="userSpaceOnUse">
<stop offset="0.00132565" stop-color="#3C2200"/>
<stop offset="1" stop-color="#7A4400"/>
</linearGradient>
<linearGradient id="paint7_linear" x1="25.5545" y1="21.0732" x2="26.9955" y2="14.7827" gradientUnits="userSpaceOnUse">
<stop offset="0.00132565" stop-color="#3C2200"/>
<stop offset="1" stop-color="#7A4400"/>
</linearGradient>
<radialGradient id="paint8_radial" cx="0" cy="0" r="1" gradientUnits="userSpaceOnUse" gradientTransform="translate(52.0233 30.5305) rotate(-106.146) scale(7.20914 4.66419)">
<stop offset="0.00132565" stop-color="#7A4400"/>
<stop offset="1" stop-color="#643800"/>
</radialGradient>
<linearGradient id="paint9_linear" x1="37.598" y1="35.5052" x2="39.6298" y2="75.8861" gradientUnits="userSpaceOnUse">
<stop stop-color="#2F9300"/>
<stop offset="1" stop-color="#7CEC00"/>
</linearGradient>
<linearGradient id="paint10_linear" x1="22.1559" y1="51.5138" x2="58.3916" y2="51.5138" gradientUnits="userSpaceOnUse">
<stop stop-color="#216B00"/>
<stop offset="0.1469" stop-color="#2F9300"/>
<stop offset="0.8554" stop-color="#2F9300"/>
<stop offset="0.9004" stop-color="#2C8C00"/>
<stop offset="0.9676" stop-color="#257700"/>
<stop offset="1" stop-color="#216B00"/>
</linearGradient>
<linearGradient id="paint11_linear" x1="39.2379" y1="54.7064" x2="39.2379" y2="83.5967" gradientUnits="userSpaceOnUse">
<stop stop-color="#2F9300"/>
<stop offset="1" stop-color="#7CEC00"/>
</linearGradient>
<linearGradient id="paint12_linear" x1="26.1667" y1="54.1588" x2="24.5804" y2="64.2478" gradientUnits="userSpaceOnUse">
<stop stop-color="#2F9300"/>
<stop offset="1" stop-color="#7CEC00"/>
</linearGradient>
<linearGradient id="paint13_linear" x1="25.3294" y1="56.2694" x2="23.2341" y2="74.555" gradientUnits="userSpaceOnUse">
<stop stop-color="#2F9300"/>
<stop offset="1" stop-color="#7CEC00"/>
</linearGradient>
<linearGradient id="paint14_linear" x1="28.6678" y1="57.0087" x2="17.6202" y2="64.6754" gradientUnits="userSpaceOnUse">
<stop stop-color="#2F9300"/>
<stop offset="1" stop-color="#7CEC00"/>
</linearGradient>
<linearGradient id="paint15_linear" x1="30.4118" y1="52.5437" x2="30.4118" y2="74.2865" gradientUnits="userSpaceOnUse">
<stop stop-color="#2F9300"/>
<stop offset="1" stop-color="#7CEC00"/>
</linearGradient>
<linearGradient id="paint16_linear" x1="36.9926" y1="48.6657" x2="36.8021" y2="68.9832" gradientUnits="userSpaceOnUse">
<stop stop-color="#2F9300"/>
<stop offset="1" stop-color="#7CEC00"/>
</linearGradient>
<linearGradient id="paint17_linear" x1="51.226" y1="55.5462" x2="60.4641" y2="68.4986" gradientUnits="userSpaceOnUse">
<stop stop-color="#2F9300"/>
<stop offset="1" stop-color="#7CEC00"/>
</linearGradient>
<linearGradient id="paint18_linear" x1="54.9286" y1="62.1581" x2="55.754" y2="71.5549" gradientUnits="userSpaceOnUse">
<stop stop-color="#2F9300"/>
<stop offset="1" stop-color="#57C300" stop-opacity="0"/>
</linearGradient>
<linearGradient id="paint19_linear" x1="49.2668" y1="56.1091" x2="53.7431" y2="66.9662" gradientUnits="userSpaceOnUse">
<stop stop-color="#2F9300"/>
<stop offset="1" stop-color="#7CEC00"/>
</linearGradient>
<linearGradient id="paint20_linear" x1="52.9745" y1="52.982" x2="56.5936" y2="65.4582" gradientUnits="userSpaceOnUse">
<stop stop-color="#2F9300"/>
<stop offset="1" stop-color="#7CEC00"/>
</linearGradient>
<linearGradient id="paint21_linear" x1="41.2851" y1="46.9218" x2="43.1914" y2="69.035" gradientUnits="userSpaceOnUse">
<stop stop-color="#2F9300"/>
<stop offset="1" stop-color="#7CEC00"/>
</linearGradient>
<linearGradient id="paint22_linear" x1="48.5975" y1="48.1062" x2="51.6451" y2="76.3919" gradientUnits="userSpaceOnUse">
<stop stop-color="#2F9300"/>
<stop offset="1" stop-color="#7CEC00"/>
</linearGradient>
<linearGradient id="paint23_linear" x1="23.9356" y1="71.6339" x2="19.4118" y2="64.253" gradientUnits="userSpaceOnUse">
<stop stop-color="#2F9300"/>
<stop offset="1" stop-color="#57C300" stop-opacity="0"/>
</linearGradient>
<linearGradient id="paint24_linear" x1="39.279" y1="61.3978" x2="29.4378" y2="74.2231" gradientUnits="userSpaceOnUse">
<stop stop-color="#2F9300"/>
<stop offset="1" stop-color="#57C300" stop-opacity="0"/>
</linearGradient>
<linearGradient id="paint25_linear" x1="32.2436" y1="55.0315" x2="28.3081" y2="70.0117" gradientUnits="userSpaceOnUse">
<stop stop-color="#2F9300"/>
<stop offset="1" stop-color="#7CEC00"/>
</linearGradient>
<linearGradient id="paint26_linear" x1="31.2847" y1="58.4779" x2="26.8561" y2="73.9065" gradientUnits="userSpaceOnUse">
<stop stop-color="#2F9300"/>
<stop offset="1" stop-color="#57C300" stop-opacity="0"/>
</linearGradient>
<linearGradient id="paint27_linear" x1="34.7457" y1="47.6078" x2="28.5552" y2="64.8459" gradientUnits="userSpaceOnUse">
<stop stop-color="#2F9300"/>
<stop offset="1" stop-color="#7CEC00"/>
</linearGradient>
<radialGradient id="paint28_radial" cx="0" cy="0" r="1" gradientUnits="userSpaceOnUse" gradientTransform="translate(49.1723 62.3876) scale(2.45082)">
<stop stop-color="#FF0000"/>
<stop offset="1" stop-color="#C20000"/>
</radialGradient>
<radialGradient id="paint29_radial" cx="0" cy="0" r="1" gradientUnits="userSpaceOnUse" gradientTransform="translate(38.2041 40.4036) scale(3.9784)">
<stop stop-color="#FF0000"/>
<stop offset="1" stop-color="#C20000"/>
</radialGradient>
<radialGradient id="paint30_radial" cx="0" cy="0" r="1" gradientUnits="userSpaceOnUse" gradientTransform="translate(48.4107 46.6415) scale(2.35947)">
<stop stop-color="#FFE030"/>
<stop offset="1" stop-color="#FFB92E"/>
</radialGradient>
<radialGradient id="paint31_radial" cx="0" cy="0" r="1" gradientUnits="userSpaceOnUse" gradientTransform="translate(36.2838 67.3402) scale(2.59077)">
<stop stop-color="#FFE030"/>
<stop offset="1" stop-color="#FFB92E"/>
</radialGradient>
<linearGradient id="paint32_linear" x1="15.7286" y1="65.8832" x2="14.5562" y2="59.1149" gradientUnits="userSpaceOnUse">
<stop stop-color="#2F9300"/>
<stop offset="1" stop-color="#7CEC00"/>
</linearGradient>
<linearGradient id="paint33_linear" x1="14.8329" y1="64.1965" x2="15.6372" y2="55.9845" gradientUnits="userSpaceOnUse">
<stop stop-color="#2F9300"/>
<stop offset="1" stop-color="#7CEC00"/>
</linearGradient>
<linearGradient id="paint34_linear" x1="57.9016" y1="62.3333" x2="60.1159" y2="56.6547" gradientUnits="userSpaceOnUse">
<stop stop-color="#2F9300"/>
<stop offset="1" stop-color="#7CEC00"/>
</linearGradient>
<linearGradient id="paint35_linear" x1="48.3679" y1="48.7744" x2="49.7012" y2="46.8696" gradientUnits="userSpaceOnUse">
<stop stop-color="#FF8000"/>
<stop offset="1" stop-color="#FF9214"/>
</linearGradient>
<linearGradient id="paint36_linear" x1="21.6663" y1="68.4269" x2="22.3012" y2="65.6967" gradientUnits="userSpaceOnUse">
<stop stop-color="#FF8000"/>
<stop offset="1" stop-color="#FF9214"/>
</linearGradient>
<linearGradient id="paint37_linear" x1="40.0002" y1="39.975" x2="40.0002" y2="47.7368" gradientUnits="userSpaceOnUse">
<stop stop-color="#216B00"/>
<stop offset="1" stop-color="#216B00" stop-opacity="0"/>
</linearGradient>
<radialGradient id="paint38_radial" cx="0" cy="0" r="1" gradientUnits="userSpaceOnUse" gradientTransform="translate(32.5295 56.2464) rotate(1.53839) scale(2.35939)">
<stop stop-color="#FFE030"/>
<stop offset="1" stop-color="#FFB92E"/>
</radialGradient>
<linearGradient id="paint39_linear" x1="58.6858" y1="60.5566" x2="59.3763" y2="58.2471" gradientUnits="userSpaceOnUse">
<stop stop-color="#2F9300"/>
<stop offset="1" stop-color="#57C300" stop-opacity="0"/>
</linearGradient>
<linearGradient id="paint40_linear" x1="44.6904" y1="28.5347" x2="59.3301" y2="28.5347" gradientUnits="userSpaceOnUse">
<stop offset="0.00132565" stop-color="#3C2200"/>
<stop offset="1" stop-color="#512D00"/>
</linearGradient>
<linearGradient id="paint41_linear" x1="54.4615" y1="30.6857" x2="52.39" y2="37.7096" gradientUnits="userSpaceOnUse">
<stop offset="0.00132565" stop-color="#3C2200"/>
<stop offset="1" stop-color="#512D00"/>
</linearGradient>
<radialGradient id="paint42_radial" cx="0" cy="0" r="1" gradientUnits="userSpaceOnUse" gradientTransform="translate(27.9222 30.577) rotate(-73.8539) scale(7.20914 4.66419)">
<stop offset="0.00132565" stop-color="#7A4400"/>
<stop offset="1" stop-color="#643800"/>
</radialGradient>
<linearGradient id="paint43_linear" x1="35.3102" y1="28.5347" x2="20.6705" y2="28.5347" gradientUnits="userSpaceOnUse">
<stop offset="0.00132565" stop-color="#3C2200"/>
<stop offset="1" stop-color="#512D00"/>
</linearGradient>
<linearGradient id="paint44_linear" x1="25.5386" y1="30.6857" x2="27.61" y2="37.7096" gradientUnits="userSpaceOnUse">
<stop offset="0.00132565" stop-color="#3C2200"/>
<stop offset="1" stop-color="#512D00"/>
</linearGradient>
</defs>
</svg>
