<svg width="80" height="80" viewBox="0 0 80 80" fill="none" xmlns="http://www.w3.org/2000/svg">
<path d="M68.7943 47.6245C70.2954 44.8191 64.4971 39.8318 57.802 44.378C57.0203 44.9582 56.2289 45.6344 55.4424 46.44C53.5336 48.3918 51.1356 49.8448 49.3467 47.6964C47.5578 45.548 48.6225 39.0646 49.5626 35.655L42.6852 33.521C42.5317 34.9165 41.7068 37.8082 41.2032 37.7602C40.6996 37.7122 41.1457 36.6572 41.256 35.468C41.3663 34.2787 32.3211 38.5419 31.8751 38.7577C31.5394 38.9207 27.2134 37.5732 24.8299 39.1125C24.0337 39.6256 21.6166 43.4237 21.4056 43.4716C21.4056 43.4716 20.8588 38.8919 20.3552 36.6908C19.8517 34.4897 13.5306 43.9032 14.3363 46.229C15.7128 50.1997 14.7967 63.6941 21.6933 69.6453C29.669 76.5268 44.2391 74.5799 49.5098 68.4752C54.7806 62.3706 52.9821 59.1816 57.8212 54.4533C61.9073 50.449 66.9287 49.792 68.7943 47.6245Z" fill="url(#paint0_linear)"/>
<path d="M20.3504 36.6957C19.8468 34.4946 18.8589 28.486 17.9524 25.2826C17.0508 22.0745 15.1852 20.7701 12.5762 21.7292C9.97197 22.6883 11.3244 28.6154 11.5642 30.0685C11.9335 32.2935 13.5258 43.9129 14.3267 46.2339" fill="url(#paint1_linear)"/>
<path d="M31.875 38.7579C29.7456 38.7771 28.537 36.0868 27.7841 32.26C27.2085 29.3396 25.8417 21.3359 24.964 17.1447C23.8753 11.9464 22.638 10.7092 20.0817 10.8962C17.5255 11.0832 16.9068 14.3633 17.5302 17.8017C18.0578 20.7077 19.0889 25.2538 20.475 30.9269C21.3047 34.3269 22.2495 43.2704 21.3958 43.4719" fill="url(#paint2_linear)"/>
<path d="M49.5625 35.6503C50.5025 32.2407 52.3921 20.0363 53.1403 16.7993C53.8884 13.5672 52.1763 11.6922 50.0805 11.227C47.9847 10.7618 46.1911 11.9991 44.9777 18.4586C44.2104 22.5347 43.6541 26.1697 42.6853 33.5115L46.4261 39.0791L49.5625 35.6503Z" fill="url(#paint3_linear)"/>
<path d="M41.256 35.4633C41.3663 34.2741 43.3902 22.8561 43.7691 20.3385C44.5604 15.0731 46.7233 7.38119 42.0857 6.14397C39.0978 5.34792 37.9851 8.05735 37.6446 9.2706C37.3041 10.4838 35.2611 24.5441 35.146 25.8245C35.0308 27.1049 33.1364 38.2927 31.8751 38.753" fill="url(#paint4_linear)"/>
<path d="M47.3324 12.0947C46.378 13.1641 45.5819 15.2405 44.9776 18.463C44.2103 22.5392 43.7019 26.1837 42.6851 33.516C42.4933 34.9067 41.7068 37.8031 41.2032 37.7551C44.2342 36.3741 44.5987 25.4212 45.3565 20.4436C46.1622 15.1542 48.047 11.289 47.3324 12.0947Z" fill="url(#paint5_linear)"/>
<path d="M35.1459 25.8291C35.0308 27.1095 33.2467 38.1438 31.8751 38.7576C31.8751 38.7576 33.5872 40.1243 34.6375 33.4203C35.5296 27.7473 36.9731 17.5138 38.1289 13.3226C39.2176 9.37111 38.8866 6.87268 38.4886 7.42416C38.0905 7.97084 37.774 8.81004 37.6397 9.2752C37.304 10.4884 35.261 24.5439 35.1459 25.8291Z" fill="url(#paint6_linear)"/>
<path d="M17.5352 17.8015C18.0628 20.7075 19.0939 25.2536 20.4799 30.9267C21.3096 34.3266 22.2544 43.2702 21.4008 43.4716C25.8946 42.7906 16.8014 16.2957 18.5184 11.5674C17.2954 12.7327 17.0652 15.2215 17.5352 17.8015Z" fill="url(#paint7_linear)"/>
<path d="M25.8754 26.6204C27.2134 33.593 27.53 39.1461 31.8751 38.7529C30.1725 38.7529 28.657 36.8251 27.7842 32.255C27.2278 29.3298 25.8754 21.3262 24.9641 17.1397C24.0001 12.6991 23.2664 11.5674 21.5015 10.9775C25.1032 15.2263 24.2112 17.9406 25.8754 26.6204Z" fill="url(#paint8_linear)"/>
<path d="M42.196 22.1607C41.4814 27.498 39.9275 36.9451 41.0546 37.7027C40.6613 37.4438 41.1601 36.5326 41.256 35.4633C41.3663 34.274 43.3902 22.856 43.7691 20.3384C44.2583 17.0727 45.5196 11.9751 44.6516 8.81494C44.7523 12.6513 42.7764 17.8352 42.196 22.1607Z" fill="url(#paint9_linear)"/>
<path d="M48.349 44.1478C48.3298 41.9467 48.9917 37.7171 49.5624 35.6502C50.5024 32.2407 52.3921 20.0362 53.1403 16.7993C53.3657 15.8114 53.3657 14.953 53.1979 14.2241C52.8573 15.7251 51.8645 17.3028 51.5576 20.2712C51.0636 25.0379 49.1116 32.4517 48.4449 34.998C47.7734 37.5492 47.7207 40.5272 48.349 44.1478Z" fill="url(#paint10_linear)"/>
<path d="M36.0619 73.9661C37.0451 71.0121 36.882 68.5569 33.9133 68.1684C25.8178 67.1134 19.8133 60.4861 17.0987 48.133C14.6816 37.113 11.4347 27.9777 12.274 21.873C10.0823 23.1726 11.334 28.673 11.5642 30.0637C11.9335 32.2888 13.5258 43.9082 14.3267 46.2292C15.7031 50.1998 14.7871 63.6943 21.6837 69.6454C25.5396 72.9687 30.9254 74.2299 36.0619 73.9661Z" fill="url(#paint11_radial)"/>
<path d="M13.2381 36.2976C13.2429 36.2545 13.2477 36.2305 13.2477 36.2305C18.3554 52.3816 19.8709 61.8574 28.5324 72.0574C29.7554 73.496 27.156 73.4145 25.0506 71.856C23.8468 71.2565 22.7149 70.5228 21.6934 69.6405C14.7968 63.6941 15.7128 50.1997 14.3363 46.2242C13.9095 45.0062 13.8615 39.1893 13.2381 36.2976Z" fill="url(#paint12_radial)"/>
<path opacity="0.08" d="M54.3585 53.9686C55.5958 55.4552 51.4426 61.7133 48.2964 64.3316C45.1503 66.9499 41.5965 67.8706 40.3591 66.384C39.1217 64.8974 41.9274 61.1762 44.3685 57.8913C48.589 52.2279 53.1211 52.4868 54.3585 53.9686Z" fill="url(#paint13_radial)"/>
<path opacity="0.08" d="M19.281 52.5634C17.9141 54.2131 22.077 63.7033 26.1823 66.0963C30.2877 68.4892 35.4385 67.7555 36.4456 65.8517C37.4528 63.9479 33.1796 60.9987 29.6834 57.7282C23.6597 52.0839 20.6526 50.9138 19.281 52.5634Z" fill="url(#paint14_radial)"/>
<path d="M21.4008 43.4715C21.4008 43.4715 20.8109 38.7144 20.3505 36.6908C19.8469 34.4897 18.8589 28.481 17.9525 25.2776C17.5544 23.8678 16.9741 22.8272 16.2212 22.1846C16.8542 23.7191 17.9429 26.7067 18.9165 33.1661C20.4847 44.5409 21.2665 43.5866 21.4008 43.4715Z" fill="url(#paint15_linear)"/>
<path d="M57.7972 44.3779C57.0154 44.9581 56.2241 45.6343 55.4376 46.4399C53.5288 48.3916 51.1308 49.8446 49.3419 47.6963C48.6369 46.8475 48.3587 45.5815 48.3443 44.1477C47.3084 51.3983 51.2651 50.5879 54.1379 48.4827C57.0106 46.3824 59.6292 42.407 65.0391 43.2701C66.0175 43.4284 66.9335 43.7928 67.6097 44.071C65.6626 42.3878 61.9025 41.5917 57.7972 44.3779Z" fill="url(#paint16_linear)"/>
<path d="M49.505 68.475C54.7758 62.3704 52.9773 59.1814 57.8164 54.4531C61.9122 50.4489 66.9288 49.7967 68.7944 47.6243C69.0486 47.1448 69.0774 46.6077 68.9431 46.061C67.8544 47.9888 64.8521 48.171 61.399 50.0413C56.4064 52.7507 54.0324 55.1868 51.8646 60.7879C49.6921 66.389 42.6756 69.0217 37.9563 68.2161L49.505 68.475Z" fill="url(#paint17_radial)"/>
<path opacity="0.24" d="M11.1566 23.7432C10.7058 25.9059 11.4012 29.0565 11.569 30.0636C11.9383 32.2887 13.5306 43.9033 14.3315 46.2291C15.7079 50.1998 14.7919 63.6942 21.6885 69.6454C29.6641 76.5268 44.2342 74.5799 49.505 68.4753C54.7757 62.3706 52.9772 59.1817 57.8163 54.4533C61.9121 50.4491 66.9286 49.7969 68.7942 47.6246L69.341 46.512C69.1348 46.3346 68.9717 46.1716 68.943 46.0613C67.8543 47.989 65.3028 49.5715 61.3989 50.0415C56.7612 50.6026 54.0323 53.571 51.8646 59.1721C49.692 64.7732 42.6755 69.0267 37.9563 68.2211C33.2371 67.4155 22.0242 72.0815 18.2354 52.6071C18.2354 52.6023 18.2354 52.5975 18.2306 52.5927C18.0867 51.3027 17.8853 49.7202 17.5112 48.6652C14.9214 41.3665 13.521 31.9002 13.0126 27.7426C12.9119 26.9226 13.051 24.1604 11.1566 23.7432Z" fill="url(#paint18_radial)"/>
<defs>
<linearGradient id="paint0_linear" x1="29.6221" y1="80.4957" x2="38.2576" y2="55.7605" gradientUnits="userSpaceOnUse">
<stop offset="0.00132565" stop-color="#5A4539"/>
<stop offset="1" stop-color="#695042"/>
</linearGradient>
<linearGradient id="paint1_linear" x1="360.056" y1="-706.276" x2="341.953" y2="-667.551" gradientUnits="userSpaceOnUse">
<stop offset="0.00132565" stop-color="#5A4539"/>
<stop offset="1" stop-color="#695042"/>
</linearGradient>
<linearGradient id="paint2_linear" x1="529.286" y1="-711.707" x2="505.152" y2="-676.424" gradientUnits="userSpaceOnUse">
<stop offset="0.00132565" stop-color="#5A4539"/>
<stop offset="1" stop-color="#695042"/>
</linearGradient>
<linearGradient id="paint3_linear" x1="705.781" y1="-661.321" x2="676.193" y2="-630.47" gradientUnits="userSpaceOnUse">
<stop offset="0.00132565" stop-color="#5A4539"/>
<stop offset="1" stop-color="#695042"/>
</linearGradient>
<linearGradient id="paint4_linear" x1="537.573" y1="-706.031" x2="513.44" y2="-670.748" gradientUnits="userSpaceOnUse">
<stop offset="0.00132565" stop-color="#5A4539"/>
<stop offset="1" stop-color="#695042"/>
</linearGradient>
<linearGradient id="paint5_linear" x1="44.3478" y1="-15.9129" x2="44.3478" y2="75.2037" gradientUnits="userSpaceOnUse">
<stop offset="0.3072" stop-color="#473226" stop-opacity="0"/>
<stop offset="1" stop-color="#473226"/>
</linearGradient>
<linearGradient id="paint6_linear" x1="22.6025" y1="-20.2723" x2="43.9252" y2="52.5722" gradientUnits="userSpaceOnUse">
<stop offset="0.3072" stop-color="#473226" stop-opacity="0"/>
<stop offset="1" stop-color="#473226"/>
</linearGradient>
<linearGradient id="paint7_linear" x1="19.9861" y1="-15.9128" x2="19.9861" y2="75.204" gradientUnits="userSpaceOnUse">
<stop offset="0.3072" stop-color="#473226" stop-opacity="0"/>
<stop offset="1" stop-color="#473226"/>
</linearGradient>
<linearGradient id="paint8_linear" x1="26.6896" y1="-15.9128" x2="26.6896" y2="75.204" gradientUnits="userSpaceOnUse">
<stop offset="0.3072" stop-color="#473226" stop-opacity="0"/>
<stop offset="1" stop-color="#473226"/>
</linearGradient>
<linearGradient id="paint9_linear" x1="42.8032" y1="-15.9126" x2="42.8032" y2="75.204" gradientUnits="userSpaceOnUse">
<stop offset="0.3072" stop-color="#473226" stop-opacity="0"/>
<stop offset="1" stop-color="#473226"/>
</linearGradient>
<linearGradient id="paint10_linear" x1="50.6127" y1="-15.9127" x2="50.6127" y2="75.204" gradientUnits="userSpaceOnUse">
<stop offset="0.3072" stop-color="#473226" stop-opacity="0"/>
<stop offset="1" stop-color="#473226"/>
</linearGradient>
<radialGradient id="paint11_radial" cx="0" cy="0" r="1" gradientUnits="userSpaceOnUse" gradientTransform="translate(11.56 21.0693) rotate(83.6839) scale(227.468 153.239)">
<stop offset="0.6134" stop-color="#F0C492" stop-opacity="0"/>
<stop offset="1" stop-color="#E6AF74"/>
</radialGradient>
<radialGradient id="paint12_radial" cx="0" cy="0" r="1" gradientUnits="userSpaceOnUse" gradientTransform="translate(22.4922 63.9755) rotate(-13.0315) scale(23.9868 60.875)">
<stop offset="0.6134" stop-color="#F0C492" stop-opacity="0"/>
<stop offset="1" stop-color="#E6AF74"/>
</radialGradient>
<radialGradient id="paint13_radial" cx="0" cy="0" r="1" gradientUnits="userSpaceOnUse" gradientTransform="translate(47.2991 59.9663) rotate(-39.7637) scale(9.29643 4.31481)">
<stop stop-color="#F8DBBA"/>
<stop offset="1" stop-color="#CD9870" stop-opacity="0"/>
</radialGradient>
<radialGradient id="paint14_radial" cx="0" cy="0" r="1" gradientUnits="userSpaceOnUse" gradientTransform="translate(27.4042 60.7452) rotate(-138.97) scale(11.9633 5.45889)">
<stop stop-color="#F8DBBA"/>
<stop offset="1" stop-color="#CD9870" stop-opacity="0"/>
</radialGradient>
<linearGradient id="paint15_linear" x1="18.8147" y1="-15.9125" x2="18.8147" y2="75.2038" gradientUnits="userSpaceOnUse">
<stop offset="0.3072" stop-color="#473226" stop-opacity="0"/>
<stop offset="1" stop-color="#473226"/>
</linearGradient>
<linearGradient id="paint16_linear" x1="74.448" y1="28.0349" x2="41.95" y2="59.7689" gradientUnits="userSpaceOnUse">
<stop offset="0.3072" stop-color="#473226" stop-opacity="0"/>
<stop offset="1" stop-color="#473226"/>
</linearGradient>
<radialGradient id="paint17_radial" cx="0" cy="0" r="1" gradientUnits="userSpaceOnUse" gradientTransform="translate(53.4883 57.2663) scale(62.9032 62.8965)">
<stop offset="0.6134" stop-color="#F0C492" stop-opacity="0"/>
<stop offset="1" stop-color="#E6AF74"/>
</radialGradient>
<radialGradient id="paint18_radial" cx="0" cy="0" r="1" gradientUnits="userSpaceOnUse" gradientTransform="translate(39.8501 27.9075) rotate(94.0913) scale(52.9773 40.2349)">
<stop offset="0.00132565" stop-color="#473226" stop-opacity="0"/>
<stop offset="1" stop-color="#3D2A20"/>
</radialGradient>
</defs>
</svg>
