<svg width="80" height="80" viewBox="0 0 80 80" fill="none" xmlns="http://www.w3.org/2000/svg">
<path d="M68.7899 47.6216C70.2894 44.8161 64.4897 39.829 57.7951 44.3759C57.0115 44.9564 56.2231 45.6335 55.4394 46.4365C53.5288 48.3907 51.1344 49.8418 49.3447 47.6942C47.555 45.5465 48.624 39.0599 49.5624 35.6497L42.684 33.5166C42.5292 34.9145 41.7069 37.8023 41.2038 37.7587C40.7008 37.7104 41.1458 36.6559 41.257 35.4659C41.3683 34.276 32.3229 38.5424 31.8779 38.7552C31.5441 38.9196 27.2149 37.5701 24.8302 39.1131C24.0369 39.6259 21.6184 43.423 21.4056 43.4714C21.4056 43.4714 20.8589 38.8906 20.3559 36.6897C19.8528 34.4888 13.5307 43.9019 14.3337 46.2285C15.7074 50.1998 14.7981 63.6953 21.6909 69.645C29.6673 76.5282 44.2367 74.5788 49.5092 68.4744C54.7768 62.37 52.9822 59.1775 57.8193 54.4516C61.9018 50.4465 66.9227 49.7935 68.7899 47.6216Z" fill="url(#paint0_linear)"/>
<path d="M20.3463 36.6894C19.8432 34.4885 18.8516 28.4808 17.9519 25.2738C17.0474 22.0668 15.1851 20.7608 12.5779 21.7186C9.97068 22.6763 11.325 28.6066 11.5669 30.0577C11.9345 32.2828 13.5259 43.9015 14.3289 46.2282" fill="url(#paint1_linear)"/>
<path d="M31.8684 38.7548C29.74 38.7741 28.5308 36.0799 27.7762 32.2585C27.2006 29.3369 25.8365 21.3364 24.9561 17.1426C23.8678 11.9427 22.6295 10.7044 20.0707 10.893C17.5118 11.0817 16.8975 14.3612 17.5215 17.8004C18.0487 20.7075 19.0839 25.2544 20.4673 30.9283C21.2993 34.3288 22.2377 43.2727 21.3912 43.4758" fill="url(#paint2_linear)"/>
<path d="M49.5576 35.6498C50.496 32.2396 52.3873 20.0307 53.137 16.7996C53.882 13.5635 52.1744 11.6916 50.0751 11.2272C47.9807 10.7628 46.1861 12.0011 44.972 18.4587C44.2029 22.5315 43.6515 26.169 42.6792 33.5166L46.4231 39.0841L49.5576 35.6498Z" fill="url(#paint3_linear)"/>
<path d="M41.2523 35.461C41.3636 34.2711 43.3903 22.8507 43.7676 20.3354C44.5561 15.0726 46.7231 7.37676 42.0843 6.14329C39.095 5.35001 37.9824 8.05394 37.6438 9.26806C37.3004 10.4822 35.2592 24.5437 35.1431 25.8255C35.027 27.1073 33.1308 38.2956 31.8732 38.7551" fill="url(#paint4_linear)"/>
<path d="M47.3277 12.0877C46.37 13.1567 45.5767 15.2318 44.972 18.4582C44.2029 22.531 43.6999 26.183 42.6793 33.5161C42.4858 34.9092 41.7022 37.8018 41.1991 37.7582C44.232 36.3797 44.5947 25.4236 45.3542 20.4462C46.1571 15.1496 48.0436 11.2847 47.3277 12.0877Z" fill="url(#paint5_linear)"/>
<path d="M35.1431 25.8257C35.027 27.1076 33.2421 38.141 31.8732 38.7553C31.8732 38.7553 33.5855 40.1194 34.6352 33.42C35.5252 27.7509 36.9715 17.5156 38.1275 13.3218C39.2207 9.3699 38.887 6.87395 38.4903 7.42054C38.0937 7.96714 37.7744 8.8088 37.6438 9.27316C37.3004 10.4824 35.2592 24.5439 35.1431 25.8257Z" fill="url(#paint6_linear)"/>
<path d="M17.5262 17.7956C18.0534 20.7027 19.0886 25.2496 20.472 30.9236C21.304 34.324 22.2424 43.2679 21.3959 43.471C25.8944 42.7938 16.7958 16.2913 18.513 11.5654C17.2892 12.7263 17.057 15.2126 17.5262 17.7956Z" fill="url(#paint7_linear)"/>
<path d="M25.8703 26.6188C27.2053 33.594 27.5246 39.147 31.8732 38.7552C30.1705 38.7552 28.6516 36.83 27.781 32.2589C27.2247 29.3325 25.8703 21.327 24.9609 17.1429C23.9983 12.7025 23.2631 11.5706 21.4976 10.9805C25.1012 15.2226 24.2063 17.9362 25.8703 26.6188Z" fill="url(#paint8_linear)"/>
<path d="M42.1907 22.1542C41.4748 27.4944 39.9221 36.9413 41.0492 37.7007C40.6525 37.4443 41.1508 36.5301 41.2523 35.4611C41.3636 34.2712 43.3903 22.8508 43.7676 20.3355C44.2562 17.0704 45.5187 11.9721 44.648 8.81348C44.7496 12.6445 42.7712 17.8299 42.1907 22.1542Z" fill="url(#paint9_linear)"/>
<path d="M48.3434 44.1435C48.3434 44.1483 48.3483 44.1435 48.3434 44.1435C48.3241 41.9426 48.9868 37.715 49.5576 35.6447C50.496 32.2346 52.3873 20.0257 53.137 16.7945C53.3644 15.8077 53.3643 14.9515 53.1902 14.2163C52.8516 15.7158 51.8552 17.2927 51.5504 20.2627C51.057 25.0272 49.1077 32.4426 48.4353 34.9917C47.7678 37.5457 47.7146 40.5253 48.3434 44.1435Z" fill="url(#paint10_linear)"/>
<path d="M36.0573 73.9648C37.0392 71.0093 36.8796 68.552 33.9096 68.1651C25.8123 67.1106 19.8094 60.4789 17.0958 48.1298C14.6772 37.1108 11.4315 27.9735 12.2732 21.8643C10.082 23.1654 11.3348 28.6652 11.5621 30.0583C11.9298 32.2834 13.5211 43.9021 14.3241 46.2288C15.6978 50.2 14.7885 63.6956 21.6814 69.6452C25.5365 72.9683 30.9202 74.2356 36.0573 73.9648Z" fill="url(#paint11_radial)"/>
<path d="M13.2357 36.2982C13.2406 36.2547 13.2454 36.2305 13.2454 36.2305C18.3534 52.3864 19.8674 61.8623 28.5307 72.0638C29.7545 73.5004 27.1521 73.423 25.048 71.8606C23.8435 71.2608 22.7116 70.5256 21.691 69.6452C14.7981 63.6956 15.7075 50.2001 14.3338 46.2288C13.9032 45.005 13.8549 39.1908 13.2357 36.2982Z" fill="url(#paint12_radial)"/>
<path opacity="0.16" d="M54.356 53.9731C55.5895 55.4581 51.4441 61.7173 48.2951 64.339C45.1462 66.9608 41.5957 67.8798 40.3574 66.3948C39.1191 64.9098 41.9246 61.1901 44.3674 57.9008C48.5853 52.2269 53.1177 52.4881 54.356 53.9731Z" fill="url(#paint13_radial)"/>
<path opacity="0.16" d="M19.2773 52.5602C17.9084 54.2096 22.0731 63.7 26.1798 66.0944C30.2865 68.4839 35.4381 67.7535 36.4394 65.8526C37.4455 63.9516 33.1695 61.0009 29.6771 57.7262C23.65 52.0813 20.6462 50.9155 19.2773 52.5602Z" fill="url(#paint14_radial)"/>
<path d="M21.396 43.4712C21.396 43.4712 20.8107 38.7115 20.3463 36.6895C19.8432 34.4887 18.8516 28.481 17.9519 25.274C17.5553 23.8664 16.97 22.8216 16.2251 22.1782C16.8588 23.7164 17.9471 26.7009 18.9194 33.1585C20.4817 44.5402 21.2605 43.5824 21.396 43.4712Z" fill="url(#paint15_linear)"/>
<path d="M57.7952 44.3757C57.0116 44.9562 56.2231 45.6334 55.4395 46.4363C53.5288 48.3905 51.1345 49.8416 49.3447 47.694C48.6385 46.8475 48.3628 45.5802 48.3483 44.1484C47.3132 51.3992 51.2699 50.5866 54.1432 48.4873C57.0164 46.3831 59.6333 42.407 65.046 43.2728C66.0231 43.4276 66.9421 43.7953 67.6193 44.071C65.6603 42.3828 61.9019 41.5895 57.7952 44.3757Z" fill="url(#paint16_linear)"/>
<path d="M49.4995 68.4742C54.7671 62.3698 52.9725 59.1773 57.8096 54.4514C61.9018 50.4463 66.9227 49.7933 68.7899 47.6214C69.0462 47.1425 69.0753 46.6008 68.9398 46.0542C67.8515 47.9842 64.8525 48.1632 61.3988 50.0352C56.4069 52.7439 54.0318 55.1818 51.8648 60.7832C49.693 66.3846 42.6743 69.0208 37.9581 68.213L49.4995 68.4742Z" fill="url(#paint17_radial)"/>
<path d="M11.151 23.7407C10.7011 25.9029 11.3977 29.0567 11.5621 30.0628C11.9297 32.2879 13.5211 43.9066 14.3241 46.2284C15.6978 50.1997 14.7885 63.6953 21.6813 69.6449C29.6577 76.5281 44.2271 74.5787 49.4996 68.4743C54.7672 62.3699 52.9726 59.1774 57.8097 54.4515C61.9019 50.4464 66.9228 49.7934 68.79 47.6215L69.3365 46.509C69.1285 46.33 68.969 46.1704 68.9399 46.0543C67.8516 47.9843 65.2976 49.5661 61.3989 50.0353C56.7601 50.5964 54.0319 53.5615 51.8649 59.1677C49.6931 64.7691 42.6744 69.0209 37.9582 68.218C33.242 67.4102 22.0248 72.078 18.2373 52.6037C18.2373 52.5989 18.2373 52.5941 18.2325 52.5892C18.0874 51.2977 17.8891 49.716 17.5118 48.6615C14.9191 41.3623 13.5212 31.8912 13.0133 27.7362C12.9068 26.9187 13.0471 24.1567 11.151 23.7407Z" fill="url(#paint18_radial)"/>
<defs>
<linearGradient id="paint0_linear" x1="29.6166" y1="80.4988" x2="38.2539" y2="55.7611" gradientUnits="userSpaceOnUse">
<stop offset="0.00132565" stop-color="#BE8D68"/>
<stop offset="1" stop-color="#CD9870"/>
</linearGradient>
<linearGradient id="paint1_linear" x1="360.058" y1="-706.376" x2="341.952" y2="-667.647" gradientUnits="userSpaceOnUse">
<stop offset="0.00132565" stop-color="#BE8D68"/>
<stop offset="1" stop-color="#CD9870"/>
</linearGradient>
<linearGradient id="paint2_linear" x1="529.289" y1="-711.802" x2="505.152" y2="-676.517" gradientUnits="userSpaceOnUse">
<stop offset="0.00132565" stop-color="#BE8D68"/>
<stop offset="1" stop-color="#CD9870"/>
</linearGradient>
<linearGradient id="paint3_linear" x1="705.807" y1="-661.409" x2="676.215" y2="-630.557" gradientUnits="userSpaceOnUse">
<stop offset="0.00132565" stop-color="#BE8D68"/>
<stop offset="1" stop-color="#CD9870"/>
</linearGradient>
<linearGradient id="paint4_linear" x1="537.581" y1="-706.129" x2="513.443" y2="-670.844" gradientUnits="userSpaceOnUse">
<stop offset="0.00132565" stop-color="#BE8D68"/>
<stop offset="1" stop-color="#CD9870"/>
</linearGradient>
<linearGradient id="paint5_linear" x1="41.8055" y1="-12.8992" x2="45.0472" y2="35.3852" gradientUnits="userSpaceOnUse">
<stop offset="0.3072" stop-color="#B37E53" stop-opacity="0"/>
<stop offset="1" stop-color="#B37E53"/>
</linearGradient>
<linearGradient id="paint6_linear" x1="935.76" y1="-1173.59" x2="906.67" y2="-1134.92" gradientUnits="userSpaceOnUse">
<stop offset="0.3072" stop-color="#B37E53" stop-opacity="0"/>
<stop offset="1" stop-color="#B37E53"/>
</linearGradient>
<linearGradient id="paint7_linear" x1="13.1072" y1="-0.806322" x2="20.6143" y2="30.2458" gradientUnits="userSpaceOnUse">
<stop offset="0.3072" stop-color="#B37E53" stop-opacity="0"/>
<stop offset="1" stop-color="#B37E53"/>
</linearGradient>
<linearGradient id="paint8_linear" x1="18.9984" y1="-19.3909" x2="29.5766" y2="41.519" gradientUnits="userSpaceOnUse">
<stop offset="0.3072" stop-color="#B37E53" stop-opacity="0"/>
<stop offset="1" stop-color="#B37E53"/>
</linearGradient>
<linearGradient id="paint9_linear" x1="40.3596" y1="-12.8016" x2="43.6012" y2="35.4828" gradientUnits="userSpaceOnUse">
<stop offset="0.3072" stop-color="#B37E53" stop-opacity="0"/>
<stop offset="1" stop-color="#B37E53"/>
</linearGradient>
<linearGradient id="paint10_linear" x1="47.8571" y1="-13.3051" x2="51.0988" y2="34.9792" gradientUnits="userSpaceOnUse">
<stop offset="0.3072" stop-color="#B37E53" stop-opacity="0"/>
<stop offset="1" stop-color="#B37E53"/>
</linearGradient>
<radialGradient id="paint11_radial" cx="0" cy="0" r="1" gradientUnits="userSpaceOnUse" gradientTransform="translate(11.5545 21.0651) rotate(83.6845) scale(227.496 153.244)">
<stop offset="0.6134" stop-color="#F0C492" stop-opacity="0"/>
<stop offset="1" stop-color="#E6AF74"/>
</radialGradient>
<radialGradient id="paint12_radial" cx="0" cy="0" r="1" gradientUnits="userSpaceOnUse" gradientTransform="translate(22.4864 63.9771) rotate(-13.0328) scale(23.9874 60.8824)">
<stop offset="0.6134" stop-color="#F0C492" stop-opacity="0"/>
<stop offset="1" stop-color="#E6AF74"/>
</radialGradient>
<radialGradient id="paint13_radial" cx="0" cy="0" r="1" gradientUnits="userSpaceOnUse" gradientTransform="translate(47.2929 59.9673) rotate(-39.7667) scale(9.29705 4.31518)">
<stop stop-color="#F8DBBA"/>
<stop offset="1" stop-color="#CD9870" stop-opacity="0"/>
</radialGradient>
<radialGradient id="paint14_radial" cx="0" cy="0" r="1" gradientUnits="userSpaceOnUse" gradientTransform="translate(27.3947 60.747) rotate(-138.967) scale(11.9641 5.45934)">
<stop stop-color="#F8DBBA"/>
<stop offset="1" stop-color="#CD9870" stop-opacity="0"/>
</radialGradient>
<linearGradient id="paint15_linear" x1="15.8563" y1="-11.1567" x2="19.098" y2="37.1277" gradientUnits="userSpaceOnUse">
<stop offset="0.3072" stop-color="#B37E53" stop-opacity="0"/>
<stop offset="1" stop-color="#B37E53"/>
</linearGradient>
<linearGradient id="paint16_linear" x1="37.6564" y1="50.6065" x2="68.879" y2="41.3932" gradientUnits="userSpaceOnUse">
<stop stop-color="#B37E53"/>
<stop offset="1" stop-color="#CD9870"/>
</linearGradient>
<radialGradient id="paint17_radial" cx="0" cy="0" r="1" gradientUnits="userSpaceOnUse" gradientTransform="translate(53.4834 57.2665) scale(62.9045)">
<stop offset="0.6134" stop-color="#F0C492" stop-opacity="0"/>
<stop offset="1" stop-color="#E6AF74"/>
</radialGradient>
<radialGradient id="paint18_radial" cx="0" cy="0" r="1" gradientUnits="userSpaceOnUse" gradientTransform="translate(37.115 33.0223) rotate(94.0909) scale(52.984 40.2359)">
<stop offset="0.6147" stop-color="#B37E53" stop-opacity="0"/>
<stop offset="1" stop-color="#B37E53"/>
</radialGradient>
</defs>
</svg>
