<svg width="80" height="80" viewBox="0 0 80 80" fill="none" xmlns="http://www.w3.org/2000/svg">
<path d="M67.389 47.1761C68.8016 44.5358 63.345 39.8419 57.0443 44.1206C56.3087 44.6667 55.5639 45.3031 54.8237 46.0614C53.0274 47.8983 50.7707 49.2658 49.0873 47.2438C47.4038 45.2219 48.4057 39.1198 49.2904 35.9108L42.8182 33.9023C42.6738 35.2157 41.8975 37.9373 41.4236 37.8922C40.9497 37.847 41.3694 36.8541 41.4732 35.7348C41.577 34.6155 33.0648 38.6278 32.6451 38.8309C32.3291 38.9844 28.2581 37.7161 26.0149 39.1649C25.2657 39.6479 22.991 43.2225 22.7924 43.2676C22.7924 43.2676 22.2779 38.9573 21.804 36.8857C21.3301 34.814 15.3814 43.6738 16.1397 45.8628C17.435 49.5998 16.573 62.3005 23.0632 67.9015C30.5689 74.3782 44.2805 72.5458 49.2407 66.8003C54.2009 61.0548 52.5084 58.0534 57.0624 53.6032C60.9078 49.8345 65.6333 49.2162 67.389 47.1761Z" fill="url(#paint0_linear)"/>
<path d="M21.7995 36.8901C21.3256 34.8184 20.3958 29.1632 19.5428 26.1482C18.6943 23.1288 16.9386 21.9012 14.4833 22.8038C12.0325 23.7065 13.3053 29.285 13.531 30.6526C13.8785 32.7468 15.3769 43.6827 16.1307 45.8671" fill="url(#paint1_linear)"/>
<path d="M32.6451 38.8312C30.6411 38.8492 29.5038 36.3172 28.7952 32.7156C28.2536 29.9669 26.9672 22.4341 26.1413 18.4894C25.1168 13.5969 23.9523 12.4325 21.5467 12.6085C19.1411 12.7845 18.5588 15.8717 19.1456 19.1078C19.642 21.8429 20.6124 26.1215 21.9168 31.4609C22.6976 34.6608 23.5867 43.0783 22.7833 43.2678" fill="url(#paint2_linear)"/>
<path d="M49.2903 35.9062C50.1749 32.6972 51.9532 21.2106 52.6573 18.1641C53.3613 15.1176 51.7501 13.3574 49.7777 12.9196C47.8054 12.4818 46.1174 13.6462 44.9755 19.7257C44.2534 23.5621 43.7298 26.9832 42.8181 33.8932L46.3385 39.1332L49.2903 35.9062Z" fill="url(#paint3_linear)"/>
<path d="M41.4732 35.7302C41.577 34.6109 43.4816 23.8646 43.8382 21.4951C44.5829 16.5394 46.6184 9.29995 42.254 8.1355C39.4421 7.38628 38.395 9.93633 38.0746 11.0782C37.7541 12.2201 35.8315 25.4533 35.7231 26.6584C35.6148 27.8634 33.832 38.3931 32.645 38.8264" fill="url(#paint4_linear)"/>
<path d="M47.1917 13.7364C46.2935 14.7429 45.5443 16.6971 44.9756 19.7301C44.2535 23.5665 43.775 26.9967 42.8182 33.8976C42.6377 35.2065 41.8975 37.9325 41.4236 37.8874C44.276 36.5876 44.6191 26.279 45.3322 21.5941C46.0904 16.6159 47.8642 12.9781 47.1917 13.7364Z" fill="url(#paint5_linear)"/>
<path d="M35.7231 26.6629C35.6148 27.868 33.9358 38.2532 32.645 38.8309C32.645 38.8309 34.2563 40.1172 35.2447 33.8076C36.0842 28.4682 37.4427 18.8367 38.5304 14.892C39.555 11.173 39.2436 8.82155 38.8689 9.34058C38.4943 9.85511 38.1965 10.645 38.0701 11.0827C37.7542 12.2246 35.8315 25.4533 35.7231 26.6629Z" fill="url(#paint6_linear)"/>
<path d="M19.15 19.1071C19.6465 21.8422 20.6168 26.1209 21.9212 31.4602C22.702 34.6602 23.5911 43.0776 22.7878 43.2672C27.0168 42.6263 18.4594 17.6899 20.0752 13.2397C18.9243 14.3365 18.7077 16.6789 19.15 19.1071Z" fill="url(#paint7_linear)"/>
<path d="M26.999 27.4077C28.2582 33.9701 28.5561 39.1966 32.6452 38.8265C31.043 38.8265 29.6168 37.0121 28.7953 32.7109C28.2718 29.9577 26.999 22.4249 26.1415 18.4847C25.2343 14.3054 24.5437 13.2402 22.8828 12.6851C26.2724 16.6839 25.4329 19.2385 26.999 27.4077Z" fill="url(#paint8_linear)"/>
<path d="M42.3578 23.2101C41.6853 28.2335 40.223 37.1248 41.2836 37.8379C40.9135 37.5942 41.3829 36.7367 41.4732 35.7302C41.577 34.6109 43.4816 23.8646 43.8382 21.495C44.2986 18.4214 45.4856 13.6237 44.6687 10.6494C44.7634 14.2601 42.9039 19.1391 42.3578 23.2101Z" fill="url(#paint9_linear)"/>
<path d="M48.1484 43.9041C48.1304 41.8325 48.7532 37.8517 49.2903 35.9064C50.1749 32.6974 51.9532 21.2109 52.6573 18.1644C52.8694 17.2346 52.8694 16.4268 52.7115 15.7407C52.391 17.1534 51.4567 18.6383 51.1679 21.4321C50.703 25.9184 48.8661 32.896 48.2387 35.2926C47.6068 37.6937 47.5572 40.4965 48.1484 43.9041Z" fill="url(#paint10_linear)"/>
<path d="M36.5853 71.9682C37.5105 69.1879 37.3571 66.8771 34.5633 66.5115C26.9448 65.5186 21.294 59.2811 18.7395 47.6546C16.4647 37.2829 13.4092 28.685 14.199 22.9395C12.1364 24.1626 13.3144 29.3394 13.531 30.6483C13.8786 32.7425 15.377 43.6784 16.1307 45.8629C17.4261 49.5999 16.564 62.3005 23.0542 67.9016C26.683 71.0294 31.7515 72.2164 36.5853 71.9682Z" fill="url(#paint11_radial)"/>
<path d="M15.1062 36.5153C15.1107 36.4747 15.1152 36.4521 15.1152 36.4521C19.922 51.6532 21.3482 60.5716 29.4993 70.1715C30.6502 71.5255 28.204 71.4488 26.2226 69.982C25.0898 69.4178 24.0246 68.7272 23.0633 67.8968C16.5731 62.3002 17.4351 49.5996 16.1398 45.858C15.7381 44.7116 15.6929 39.2369 15.1062 36.5153Z" fill="url(#paint12_radial)"/>
<path opacity="0.5" d="M53.8036 53.1473C54.9681 54.5464 51.0595 60.4364 48.0987 62.9007C45.138 65.365 41.7936 66.2315 40.6291 64.8324C39.4647 63.4333 42.105 59.9309 44.4023 56.8392C48.3741 51.5089 52.6392 51.7527 53.8036 53.1473Z" fill="url(#paint13_radial)"/>
<path opacity="0.5" d="M20.7929 51.8248C19.5066 53.3774 23.4242 62.3093 27.2876 64.5615C31.1511 66.8137 35.9984 66.1231 36.9462 64.3313C37.8941 62.5395 33.8726 59.7638 30.5824 56.6857C24.9136 51.3735 22.0837 50.2722 20.7929 51.8248Z" fill="url(#paint14_radial)"/>
<path d="M22.7878 43.2673C22.7878 43.2673 22.2326 38.79 21.7993 36.8854C21.3254 34.8137 20.3957 29.1585 19.5427 26.1435C19.1681 24.8166 18.6219 23.8372 17.9133 23.2324C18.5091 24.6767 19.5336 27.4885 20.4498 33.568C21.9257 44.2737 22.6614 43.3756 22.7878 43.2673Z" fill="url(#paint15_linear)"/>
<path d="M57.0398 44.1206C56.3041 44.6667 55.5594 45.3031 54.8192 46.0613C53.0228 47.8983 50.7662 49.2658 49.0827 47.2438C48.4192 46.4449 48.1574 45.2534 48.1439 43.9039C47.169 50.7281 50.8926 49.9654 53.5961 47.984C56.2996 46.0072 58.7639 42.2656 63.8549 43.078C64.7757 43.2269 65.6377 43.5699 66.2741 43.8317C64.4417 42.2475 60.9032 41.4983 57.0398 44.1206Z" fill="url(#paint16_radial)"/>
<path d="M49.2361 66.8001C54.1963 61.0545 52.5038 58.0532 57.0578 53.603C60.9077 49.8343 65.6332 49.2205 67.3889 47.1759C67.6281 46.7246 67.6552 46.2191 67.5288 45.7046C66.5043 47.519 63.6789 47.6905 60.4293 49.4507C55.7309 52.0007 53.4967 54.2935 51.4567 59.5651C49.4121 64.8367 42.8091 67.3146 38.3679 66.5563L49.2361 66.8001Z" fill="url(#paint17_radial)"/>
<path d="M13.1474 24.6997C12.7232 26.7352 13.3776 29.7005 13.5356 30.6483C13.8831 32.7425 15.3816 43.6739 16.1353 45.8629C17.4306 49.6 16.5686 62.3006 23.0588 67.9017C30.5645 74.3783 44.2761 72.5459 49.2363 66.8004C54.1965 61.0549 52.504 58.0535 57.058 53.6033C60.9124 49.8347 65.6334 49.2208 67.3891 47.1763L67.9036 46.1292C67.7095 45.9622 67.5561 45.8087 67.529 45.7049C66.5045 47.5193 64.1034 49.0087 60.4295 49.451C56.0651 49.9791 53.4969 52.7729 51.4569 58.0445C49.4123 63.3161 42.8093 67.3194 38.3681 66.5612C33.927 65.8029 23.3747 70.1945 19.8092 51.8657C19.8092 51.8612 19.8092 51.8566 19.8047 51.8521C19.6693 50.638 19.4797 49.1486 19.1277 48.1557C16.6904 41.2863 15.3725 32.3769 14.8941 28.4639C14.7993 27.6921 14.9302 25.0924 13.1474 24.6997Z" fill="url(#paint18_radial)"/>
<defs>
<linearGradient id="paint0_linear" x1="30.5248" y1="78.1137" x2="38.6529" y2="54.8342" gradientUnits="userSpaceOnUse">
<stop offset="0.00132565" stop-color="#F0C492"/>
<stop offset="1" stop-color="#F8DBBA"/>
</linearGradient>
<linearGradient id="paint1_linear" x1="341.489" y1="-662.38" x2="324.451" y2="-625.935" gradientUnits="userSpaceOnUse">
<stop offset="0.00132565" stop-color="#F0C492"/>
<stop offset="1" stop-color="#F8DBBA"/>
</linearGradient>
<linearGradient id="paint2_linear" x1="500.745" y1="-667.485" x2="478.03" y2="-634.28" gradientUnits="userSpaceOnUse">
<stop offset="0.00132565" stop-color="#F0C492"/>
<stop offset="1" stop-color="#F8DBBA"/>
</linearGradient>
<linearGradient id="paint3_linear" x1="666.854" y1="-620.064" x2="639.007" y2="-591.031" gradientUnits="userSpaceOnUse">
<stop offset="0.00132565" stop-color="#F0C492"/>
<stop offset="1" stop-color="#F8DBBA"/>
</linearGradient>
<linearGradient id="paint4_linear" x1="508.547" y1="-662.147" x2="485.833" y2="-628.942" gradientUnits="userSpaceOnUse">
<stop offset="0.00132565" stop-color="#F0C492"/>
<stop offset="1" stop-color="#F8DBBA"/>
</linearGradient>
<linearGradient id="paint5_linear" x1="43.0251" y1="24.9645" x2="48.8053" y2="28.3898" gradientUnits="userSpaceOnUse">
<stop offset="0.3118" stop-color="#F0C492" stop-opacity="0"/>
<stop offset="1" stop-color="#E6AF74"/>
</linearGradient>
<linearGradient id="paint6_linear" x1="61.3117" y1="23.558" x2="27.3475" y2="24.2905" gradientUnits="userSpaceOnUse">
<stop offset="0.3118" stop-color="#F0C492" stop-opacity="0"/>
<stop offset="1" stop-color="#E6AF74"/>
</linearGradient>
<linearGradient id="paint7_linear" x1="27.5964" y1="26.8837" x2="19.8985" y2="28.5944" gradientUnits="userSpaceOnUse">
<stop offset="0.3118" stop-color="#F0C492" stop-opacity="0"/>
<stop offset="1" stop-color="#E6AF74"/>
</linearGradient>
<linearGradient id="paint8_linear" x1="21.147" y1="27.5516" x2="29.6071" y2="25.2568" gradientUnits="userSpaceOnUse">
<stop offset="0.3118" stop-color="#F0C492" stop-opacity="0"/>
<stop offset="1" stop-color="#E6AF74"/>
</linearGradient>
<linearGradient id="paint9_linear" x1="37.2884" y1="22.1216" x2="45.3164" y2="25.1188" gradientUnits="userSpaceOnUse">
<stop offset="0.3118" stop-color="#F0C492" stop-opacity="0"/>
<stop offset="1" stop-color="#E6AF74"/>
</linearGradient>
<linearGradient id="paint10_linear" x1="48.0238" y1="29.3206" x2="53.4025" y2="30.4446" gradientUnits="userSpaceOnUse">
<stop stop-color="#FFBC47" stop-opacity="0"/>
<stop offset="1" stop-color="#E68E43"/>
</linearGradient>
<radialGradient id="paint11_radial" cx="0" cy="0" r="1" gradientUnits="userSpaceOnUse" gradientTransform="translate(13.527 22.1831) rotate(83.6845) scale(214.087 144.211)">
<stop offset="0.6134" stop-color="#F0C492" stop-opacity="0"/>
<stop offset="1" stop-color="#E6AF74"/>
</radialGradient>
<radialGradient id="paint12_radial" cx="0" cy="0" r="1" gradientUnits="userSpaceOnUse" gradientTransform="translate(23.815 62.5651) rotate(-13.0328) scale(22.5735 57.2937)">
<stop offset="0.6134" stop-color="#F0C492" stop-opacity="0"/>
<stop offset="1" stop-color="#E6AF74"/>
</radialGradient>
<radialGradient id="paint13_radial" cx="0" cy="0" r="1" gradientUnits="userSpaceOnUse" gradientTransform="translate(47.1603 58.7922) rotate(-39.7667) scale(8.74904 4.06083)">
<stop stop-color="#F8E6D2"/>
<stop offset="1" stop-color="#F8E6D2" stop-opacity="0"/>
</radialGradient>
<radialGradient id="paint14_radial" cx="0" cy="0" r="1" gradientUnits="userSpaceOnUse" gradientTransform="translate(28.438 59.5252) rotate(-138.967) scale(11.2589 5.13755)">
<stop stop-color="#F8E6D2"/>
<stop offset="1" stop-color="#F8E6D2" stop-opacity="0"/>
</radialGradient>
<linearGradient id="paint15_linear" x1="19.8169" y1="30.7143" x2="23.6703" y2="44.4153" gradientUnits="userSpaceOnUse">
<stop offset="0.00132565" stop-color="#F0C492"/>
<stop offset="1" stop-color="#F8DBBA"/>
</linearGradient>
<radialGradient id="paint16_radial" cx="0" cy="0" r="1" gradientUnits="userSpaceOnUse" gradientTransform="translate(55.9965 34.7861) rotate(9.43312) scale(26.9126)">
<stop stop-color="#F0C492" stop-opacity="0"/>
<stop offset="1" stop-color="#F0C492"/>
</radialGradient>
<radialGradient id="paint17_radial" cx="0" cy="0" r="1" gradientUnits="userSpaceOnUse" gradientTransform="translate(52.9846 56.2508) scale(59.1967)">
<stop offset="0.6134" stop-color="#F0C492" stop-opacity="0"/>
<stop offset="1" stop-color="#E6AF74"/>
</radialGradient>
<radialGradient id="paint18_radial" cx="0" cy="0" r="1" gradientUnits="userSpaceOnUse" gradientTransform="translate(32.4445 50.1174) scale(56.5971)">
<stop offset="0.6134" stop-color="#F0C492" stop-opacity="0"/>
<stop offset="1" stop-color="#E6AF74"/>
</radialGradient>
</defs>
</svg>
