<svg width="80" height="80" viewBox="0 0 80 80" fill="none" xmlns="http://www.w3.org/2000/svg">
<path d="M44.9055 37.3249C45.74 38.245 46.4889 39.4518 46.1722 39.7684C45.8555 40.0851 44.8799 39.5117 44.131 38.7628C43.3821 38.0139 41.6019 45.952 41.4265 46.3542C41.2981 46.6581 39.2226 49.0331 38.1357 51.2968C37.772 52.05 37.8276 54.3265 37.6907 54.4635C37.1429 55.0112 36.4539 54.9513 34.9605 53.629C33.467 52.3067 32.6882 60.1763 34.4726 61.4216C37.5195 63.5484 43.6132 72 51.6668 72C60.9828 72 69.6056 62.2817 69.6056 55.1525C69.6056 48.0232 67.513 45.3187 67.6499 39.3405C67.7655 34.2824 71.4457 31.8646 71.4457 29.3355C71.4457 27.2087 68.2833 26.6909 67.2477 26.6909C65.4076 26.6909 60.6918 29.0488 60.6918 35.2581C60.6918 37.6716 60.0029 39.8583 57.5294 39.8583C55.056 39.8583 52.2959 36.4648 50.6312 33.8202" fill="url(#paint0_linear)"/>
<path d="M71.4413 29.3309C71.4413 28.1755 70.5042 27.4951 69.4857 27.1143C70.7096 31.171 64.5004 31.3465 64.5004 45.1771C64.5004 59.0078 56.451 63.0303 53.1132 63.7193C49.7796 64.4082 43.8999 64.6094 39.428 59.119C38.0544 57.433 36.1929 55.6015 34.1217 53.8726C33.2445 55.3362 33.0604 60.4371 34.4641 61.4213C37.5109 63.5481 43.6046 71.9997 51.6582 71.9997C60.9742 71.9997 69.597 62.2814 69.597 55.1522C69.597 48.0229 67.5044 45.3183 67.6413 39.3402C67.7612 34.2778 71.4413 31.86 71.4413 29.3309Z" fill="url(#paint1_linear)"/>
<path d="M34.9561 53.6249C33.4626 52.3026 29.9237 48.5368 27.6257 46.6967C25.3277 44.8566 23.3122 44.878 21.9342 46.9107C20.5563 48.9434 24.5788 52.5037 25.4989 53.4238C26.9068 54.8317 32.6881 60.1722 34.4683 61.4175" fill="url(#paint2_linear)"/>
<path d="M41.4265 46.3498C41.2553 46.752 40.0785 47.0302 37.7463 44.4926C35.9618 42.5541 31.1904 36.9781 28.3747 34.4491C25.5589 31.92 23.3722 30.8844 21.5321 32.2067C19.692 33.529 20.7361 36.2849 22.7987 38.5914C25.3449 41.4372 28.2719 44.3428 31.0792 47.1286C33.2744 49.3068 38.2384 53.9156 37.6907 54.459" fill="url(#paint3_linear)"/>
<path d="M50.6269 33.8161C48.9579 31.1715 42.1153 22.66 40.4507 20.2465C38.7818 17.833 36.5395 17.833 34.9861 18.9242C33.4327 20.0154 32.9748 22.2022 36.4667 26.8452C38.6705 29.7765 40.5063 32.4682 44.9054 37.3251L50.0235 36.97L50.6269 33.8161Z" fill="url(#paint4_linear)"/>
<path d="M44.1268 38.7627C43.3779 38.0138 36.7664 30.1784 35.2729 28.4967C32.47 25.3471 28.9182 18.6072 24.6774 21.6113C22.4479 23.1903 23.6547 25.4798 24.288 26.3998C24.9214 27.3199 33.1419 36.807 33.9464 37.6115C34.7509 38.4161 41.5934 45.9476 41.4223 46.3498" fill="url(#paint5_linear)"/>
<path d="M31.0749 47.1289C33.146 49.1829 37.6778 53.398 37.7249 54.3266C38.3796 53.3039 37.1814 50.2742 35.919 49.2086C28.6143 43.055 21.5577 33.1399 20.6591 33.4352C20.274 34.8773 21.2496 36.8586 22.7945 38.5874C25.3406 41.4374 28.2677 44.3388 31.0749 47.1289Z" fill="url(#paint6_linear)"/>
<path d="M44.9054 37.3249C45.7057 38.2107 46.4246 39.3576 46.1978 39.7256C48.8638 37.5817 43.2237 31.2783 40.0271 27.4911C37.5536 24.5598 36.8818 20.8368 35.1102 18.8384C35.0674 18.8641 35.0246 18.894 34.9861 18.924C33.4327 20.0152 32.9748 22.2019 36.4667 26.8449C38.6705 29.772 40.5063 32.4679 44.9054 37.3249Z" fill="url(#paint7_linear)"/>
<path d="M33.9505 37.6113C34.755 38.4158 41.5976 45.9474 41.4265 46.3496C43.5404 43.5039 35.3456 35.1379 31.3787 30.91C27.9381 27.2469 27.3476 24.0374 23.9926 22.2358C22.7431 23.7421 23.7359 25.5951 24.2922 26.3953C24.9212 27.3196 33.146 36.8068 33.9505 37.6113Z" fill="url(#paint8_linear)"/>
<path d="M41.2724 46.5217C41.0328 46.6672 40.5406 46.6843 39.7789 46.2393C40.3438 46.7014 40.8701 46.8726 41.2724 46.5217Z" fill="url(#paint9_linear)"/>
<path d="M26.5046 61.6184C26.4532 61.6184 26.4019 61.6098 26.3548 61.597C21.1084 59.9965 15.4212 54.258 14.1888 49.3197C14.1203 49.0415 14.2872 48.7634 14.5654 48.6906C14.8435 48.6222 15.1217 48.7891 15.1944 49.0672C16.3327 53.6204 21.7974 59.1193 26.6586 60.6042C26.9325 60.6898 27.0866 60.9765 27.001 61.2503C26.9325 61.4729 26.7271 61.6184 26.5046 61.6184Z" fill="#955500"/>
<path d="M29.008 68.1313C28.9694 68.1313 28.9309 68.1271 28.8881 68.1185C24.5447 67.1086 19.4994 63.8649 15.0404 59.2176C10.8723 54.8741 8.17639 50.2525 8.00094 47.1585C7.98382 46.8718 8.20206 46.6279 8.48878 46.6108C8.77121 46.5937 9.0194 46.8119 9.03652 47.0986C9.19485 49.9144 11.8437 54.3905 15.7892 58.4987C20.1113 63.0047 24.9683 66.1415 29.1235 67.1086C29.4017 67.1728 29.5771 67.4509 29.5086 67.7291C29.453 67.9687 29.2433 68.1313 29.008 68.1313Z" fill="#955500"/>
<path d="M51.2603 22.8351C51.0292 22.8351 50.8195 22.681 50.7596 22.4499C50.0321 19.6855 46.7243 15.7229 43.7116 14.9398C43.4335 14.867 43.2709 14.5846 43.3393 14.3107C43.4121 14.0326 43.6945 13.8657 43.9684 13.9384C47.3619 14.8157 50.9394 19.0907 51.7567 22.1846C51.8295 22.4628 51.6668 22.7452 51.3887 22.8179C51.3459 22.8265 51.3031 22.8351 51.2603 22.8351Z" fill="#955500"/>
<path d="M57.7862 23.7551C57.5551 23.7551 57.3454 23.6011 57.2855 23.3657C55.3427 15.7272 48.0936 9.77042 43.9513 9.02582C43.6688 8.97447 43.4848 8.70487 43.5319 8.42672C43.5832 8.14429 43.8528 7.96027 44.131 8.00734C48.6456 8.8204 56.2114 14.9569 58.2826 23.1089C58.3511 23.3871 58.1841 23.6695 57.9103 23.738C57.8718 23.7466 57.8247 23.7551 57.7862 23.7551Z" fill="#955500"/>
<path d="M67.7355 27.547C69.49 27.2304 69.8024 27.4315 69.4858 27.1105C68.6299 26.7896 67.7141 26.6826 67.2434 26.6826C65.4033 26.6826 60.6875 29.0405 60.6875 35.2498C60.6875 37.6633 59.9986 39.85 57.5251 39.85C56.5495 39.85 55.531 39.3236 54.551 38.5191C58.8902 43.3248 62.2965 38.7973 62.8143 35.6948C63.3321 32.5966 62.5833 28.4756 67.7355 27.547Z" fill="url(#paint10_radial)"/>
<path d="M34.4553 19.395C33.3812 20.6103 33.4155 22.7885 36.4666 26.8453C38.6704 29.7766 40.5063 32.4682 44.9054 37.3252C45.7398 38.2453 46.4887 39.452 46.172 39.7687C46.9081 34.7363 39.7488 29.7937 37.4209 25.9979C35.5723 22.9896 35.2042 21.218 34.4553 19.395Z" fill="url(#paint11_linear)"/>
<path d="M33.9504 37.6119C34.7549 38.4164 41.5975 45.9479 41.4264 46.3501C42.9369 45.2718 41.9056 43.5943 39.5734 41.2621C34.7892 36.4778 28.1349 30.0546 25.4561 24.7612C25.2036 24.2605 24.7329 23.8925 24.1766 23.8197C22.7302 23.6314 23.8043 25.694 24.2878 26.3958C24.9212 27.3202 33.1459 36.8074 33.9504 37.6119Z" fill="url(#paint12_linear)"/>
<path d="M22.7943 38.5873C25.3405 41.433 28.2675 44.3387 31.0747 47.1245C33.27 49.3026 38.234 53.9114 37.6862 54.4549C40.763 51.8659 26.4702 42.5029 20.6589 33.4351C20.2781 34.8772 21.2495 36.8628 22.7943 38.5873Z" fill="url(#paint13_linear)"/>
<path d="M37.0573 54.9769C37.3483 54.8614 37.5023 54.7244 37.5494 54.5789C37.0231 54.9855 36.3298 54.84 34.9562 53.6246C33.4627 52.3023 29.9237 48.5366 27.6258 46.6965C26.6158 45.8877 25.6615 45.4384 24.7886 45.3613C26.0338 46.1402 25.4561 46.4226 28.2291 48.5494C29.714 49.6877 35.1573 55.7258 37.0573 54.9769Z" fill="url(#paint14_radial)"/>
<path d="M33.4328 41.1762C35.4526 43.6325 39.3895 47.6935 41.1612 46.5724C40.6733 46.7392 39.5607 46.4696 37.7463 44.4969C35.9618 42.5584 31.1904 36.9825 28.3747 34.4534C26.0938 32.4036 24.228 31.3381 22.6233 31.7061C27.292 33.2381 31.5242 38.8525 33.4328 41.1762Z" fill="url(#paint15_radial)"/>
<path d="M35.6194 30.598C38.8417 34.1027 43.6217 41.0523 46.0481 39.837C45.6501 39.9611 44.7985 39.4304 44.1309 38.7628C43.3821 38.014 36.7706 30.1786 35.2771 28.4968C33.3343 26.3144 31.032 22.4117 28.3917 21.2178C31.0534 23.3146 33.0091 27.7565 35.6194 30.598Z" fill="url(#paint16_radial)"/>
<path d="M54.5511 38.5274C53.0448 37.295 51.6369 35.4206 50.6228 33.8159C48.9538 31.1713 42.1112 22.6598 40.4466 20.2463C39.9374 19.5102 39.3768 19.001 38.7991 18.6758C39.5779 19.7884 40.0144 21.3803 41.7689 23.353C44.5847 26.5154 48.2649 32.2069 49.5315 34.1625C50.7982 36.1181 52.8394 40.2391 54.5511 38.5274Z" fill="url(#paint17_linear)"/>
<path d="M63.7771 66.5865C62.7287 64.0403 61.201 62.4912 58.9929 63.9462C52.9634 67.9174 46.0266 66.5737 37.3354 59.5471C29.5813 53.2779 25.5716 48.7932 21.7973 47.1714C20.8944 49.234 24.6216 52.5419 25.5032 53.4234C26.9111 54.8313 32.6924 60.1719 34.4726 61.4171C37.5194 63.5439 43.6131 71.9955 51.6667 71.9955C56.1557 71.9955 60.4906 69.7318 63.7771 66.5865Z" fill="url(#paint18_linear)"/>
<path d="M67.6457 39.3359C67.7612 34.2778 71.4414 31.86 71.4414 29.3309C71.4414 28.5863 71.052 28.0386 70.5042 27.6406C71.1761 29.6091 69.5756 31.3593 67.1835 34.3334C64.5945 37.5514 64.0211 42.5582 65.8056 47.5607C67.59 52.5632 65.3477 59.4614 61.7231 61.6481C58.0986 63.8348 53.2886 73.4375 39.5051 62.5853C39.5008 62.581 39.5008 62.581 39.4965 62.5767C38.6535 61.7936 37.8233 61.1046 36.9803 60.5826C31.1604 56.9751 27.844 53.7357 25.3364 51.0098C24.8442 50.4749 23.5176 48.4208 21.9429 49.0927C22.7303 50.8771 24.8571 52.7857 25.4947 53.4233C26.9026 54.8312 32.6839 60.1718 34.4641 61.417C34.6951 61.5796 34.9476 61.7808 35.2129 62.0076C35.2814 62.0675 35.3542 62.1274 35.4226 62.1916C35.4397 62.2087 35.4611 62.2258 35.4783 62.2429C35.5253 62.2814 35.5681 62.3242 35.6152 62.367C35.6237 62.3756 35.6366 62.3841 35.6452 62.397C37.4553 64.0402 39.9458 66.7576 42.997 68.8844C42.997 68.8844 43.0012 68.8844 43.0012 68.8887C43.2708 69.077 43.5404 69.2567 43.8186 69.4321C43.8229 69.4364 43.8271 69.4364 43.8314 69.4407C44.1053 69.6161 44.3834 69.783 44.6659 69.9456C44.6702 69.9456 44.6702 69.9499 44.6744 69.9499C46.7841 71.161 49.1249 71.9997 51.654 71.9997C60.97 71.9997 69.5927 62.2814 69.5927 55.1522C69.5927 48.0229 67.5087 45.3141 67.6457 39.3359Z" fill="url(#paint19_radial)"/>
<defs>
<linearGradient id="paint0_linear" x1="65.074" y1="73.84" x2="57.3977" y2="55.8556" gradientUnits="userSpaceOnUse">
<stop offset="0.00132565" stop-color="#BE8D68"/>
<stop offset="1" stop-color="#CD9870"/>
</linearGradient>
<linearGradient id="paint1_linear" x1="70.5897" y1="66.0887" x2="54.4894" y2="46.8833" gradientUnits="userSpaceOnUse">
<stop offset="0.00132565" stop-color="#BE8D68"/>
<stop offset="1" stop-color="#CD9870"/>
</linearGradient>
<linearGradient id="paint2_linear" x1="23.567" y1="48.5456" x2="33.0547" y2="55.532" gradientUnits="userSpaceOnUse">
<stop offset="0.00132565" stop-color="#BE8D68"/>
<stop offset="1" stop-color="#CD9870"/>
</linearGradient>
<linearGradient id="paint3_linear" x1="20.1125" y1="30.0538" x2="36.759" y2="47.4766" gradientUnits="userSpaceOnUse">
<stop offset="0.00132565" stop-color="#BE8D68"/>
<stop offset="1" stop-color="#CD9870"/>
</linearGradient>
<linearGradient id="paint4_linear" x1="38.0925" y1="21.8341" x2="47.7527" y2="37.0144" gradientUnits="userSpaceOnUse">
<stop offset="0.00132565" stop-color="#BE8D68"/>
<stop offset="1" stop-color="#CD9870"/>
</linearGradient>
<linearGradient id="paint5_linear" x1="28.1208" y1="24.3556" x2="41.2311" y2="42.0659" gradientUnits="userSpaceOnUse">
<stop offset="0.00132565" stop-color="#BE8D68"/>
<stop offset="1" stop-color="#CD9870"/>
</linearGradient>
<linearGradient id="paint6_linear" x1="32.8916" y1="40.4002" x2="27.3888" y2="45.584" gradientUnits="userSpaceOnUse">
<stop stop-color="#BE8D68" stop-opacity="0"/>
<stop offset="1" stop-color="#B37E53"/>
</linearGradient>
<linearGradient id="paint7_linear" x1="43.7127" y1="26.4927" x2="35.4326" y2="33.9679" gradientUnits="userSpaceOnUse">
<stop stop-color="#BE8D68" stop-opacity="0"/>
<stop offset="1" stop-color="#B37E53"/>
</linearGradient>
<linearGradient id="paint8_linear" x1="36.0963" y1="31.818" x2="24.7111" y2="40.1413" gradientUnits="userSpaceOnUse">
<stop stop-color="#BE8D68" stop-opacity="0"/>
<stop offset="1" stop-color="#B37E53"/>
</linearGradient>
<linearGradient id="paint9_linear" x1="44.5776" y1="43.4202" x2="33.1923" y2="51.7435" gradientUnits="userSpaceOnUse">
<stop stop-color="#BE8D68" stop-opacity="0"/>
<stop offset="1" stop-color="#B37E53"/>
</linearGradient>
<radialGradient id="paint10_radial" cx="0" cy="0" r="1" gradientUnits="userSpaceOnUse" gradientTransform="translate(59.5124 29.9068) scale(13.6676)">
<stop stop-color="#B37E53" stop-opacity="0"/>
<stop offset="1" stop-color="#B37E53"/>
</radialGradient>
<linearGradient id="paint11_linear" x1="45.2279" y1="25.025" x2="38.1553" y2="31.5802" gradientUnits="userSpaceOnUse">
<stop offset="0.3072" stop-color="#B37E53" stop-opacity="0"/>
<stop offset="1" stop-color="#B37E53"/>
</linearGradient>
<linearGradient id="paint12_linear" x1="39.8121" y1="28.5779" x2="30.4969" y2="36.973" gradientUnits="userSpaceOnUse">
<stop offset="0.3072" stop-color="#B37E53" stop-opacity="0"/>
<stop offset="1" stop-color="#B37E53"/>
</linearGradient>
<linearGradient id="paint13_linear" x1="36.6639" y1="37.6579" x2="25.1637" y2="47.3181" gradientUnits="userSpaceOnUse">
<stop offset="0.3072" stop-color="#B37E53" stop-opacity="0"/>
<stop offset="1" stop-color="#B37E53"/>
</linearGradient>
<radialGradient id="paint14_radial" cx="0" cy="0" r="1" gradientUnits="userSpaceOnUse" gradientTransform="translate(31.168 50.2013) scale(5.66209)">
<stop stop-color="#B37E53" stop-opacity="0"/>
<stop offset="1" stop-color="#B37E53"/>
</radialGradient>
<radialGradient id="paint15_radial" cx="0" cy="0" r="1" gradientUnits="userSpaceOnUse" gradientTransform="translate(31.8885 39.1964) scale(8.46148)">
<stop stop-color="#B37E53" stop-opacity="0"/>
<stop offset="1" stop-color="#B37E53"/>
</radialGradient>
<radialGradient id="paint16_radial" cx="0" cy="0" r="1" gradientUnits="userSpaceOnUse" gradientTransform="translate(37.2165 30.5973) scale(9.10873)">
<stop stop-color="#B37E53" stop-opacity="0"/>
<stop offset="1" stop-color="#B37E53"/>
</radialGradient>
<linearGradient id="paint17_linear" x1="46.9574" y1="27.1" x2="41.5523" y2="55.9655" gradientUnits="userSpaceOnUse">
<stop offset="0.3118" stop-color="#DEBA94" stop-opacity="0"/>
<stop offset="1" stop-color="#D2A374"/>
</linearGradient>
<linearGradient id="paint18_linear" x1="40.3946" y1="59.0785" x2="34.5295" y2="64.4692" gradientUnits="userSpaceOnUse">
<stop offset="0.3118" stop-color="#B37E53" stop-opacity="0"/>
<stop offset="1" stop-color="#B37E53"/>
</linearGradient>
<radialGradient id="paint19_radial" cx="0" cy="0" r="1" gradientUnits="userSpaceOnUse" gradientTransform="translate(45.4605 45.5586) rotate(48.1444) scale(39.6055 35.9567)">
<stop offset="0.6147" stop-color="#B37E53" stop-opacity="0"/>
<stop offset="1" stop-color="#B37E53"/>
</radialGradient>
</defs>
</svg>
