<svg width="24" height="24" viewBox="0 0 24 24" fill="none" xmlns="http://www.w3.org/2000/svg">
<path opacity="0.5" d="M13.6329 5.35825C10.9072 2.63254 6.48436 2.63254 3.75864 5.35825C1.03293 8.08397 1.03293 12.5068 3.75864 15.2325C6.48436 17.9583 10.9072 17.9583 13.6329 15.2325C16.3644 12.5068 16.3644 8.08397 13.6329 5.35825Z" fill="url(#paint0_radial)"/>
<path d="M8.69575 15.2782C11.4477 15.2782 13.6786 13.0473 13.6786 10.2954C13.6786 7.5434 11.4477 5.3125 8.69575 5.3125C5.94379 5.3125 3.71289 7.5434 3.71289 10.2954C3.71289 13.0473 5.94379 15.2782 8.69575 15.2782Z" fill="url(#paint1_radial)"/>
<path d="M8.69575 15.2782C11.4477 15.2782 13.6786 13.0473 13.6786 10.2954C13.6786 7.5434 11.4477 5.3125 8.69575 5.3125C5.94379 5.3125 3.71289 7.5434 3.71289 10.2954C3.71289 13.0473 5.94379 15.2782 8.69575 15.2782Z" fill="url(#paint2_radial)"/>
<path d="M9.53587 16.8154C11.5967 16.8154 13.2673 15.1448 13.2673 13.084C13.2673 11.0232 11.5967 9.35254 9.53587 9.35254C7.47506 9.35254 5.80444 11.0232 5.80444 13.084C5.80444 15.1448 7.47506 16.8154 9.53587 16.8154Z" fill="url(#paint3_radial)"/>
<path d="M14.473 16.0954C16.7547 16.0954 18.6044 14.2457 18.6044 11.9639C18.6044 9.68222 16.7547 7.83252 14.473 7.83252C12.1913 7.83252 10.3416 9.68222 10.3416 11.9639C10.3416 14.2457 12.1913 16.0954 14.473 16.0954Z" fill="url(#paint4_radial)"/>
<path d="M12.713 19.5525C14.6223 19.5525 16.1701 18.0047 16.1701 16.0953C16.1701 14.186 14.6223 12.6382 12.713 12.6382C10.8037 12.6382 9.25586 14.186 9.25586 16.0953C9.25586 18.0047 10.8037 19.5525 12.713 19.5525Z" fill="url(#paint5_radial)"/>
<path d="M6.0271 20.644H17.65V15.6211H6.68996L6.0271 20.644Z" fill="url(#paint6_linear)"/>
<path d="M17.6499 20.6441C20.2094 20.6441 22.2842 18.5692 22.2842 16.0098C22.2842 13.4503 20.2094 11.3755 17.6499 11.3755C15.0905 11.3755 13.0156 13.4503 13.0156 16.0098C13.0156 18.5692 15.0905 20.6441 17.6499 20.6441Z" fill="url(#paint7_radial)"/>
<path d="M18.9413 20.4609C16.4842 21.1752 13.9127 19.7581 13.1985 17.3009C12.4842 14.8438 13.9013 12.2724 16.3585 11.5581C18.8156 10.8438 21.387 12.2609 22.1013 14.7181C22.8156 17.1752 21.3985 19.7466 18.9413 20.4609Z" fill="url(#paint8_radial)"/>
<path d="M10.2102 9.40954C9.99302 9.36954 9.76444 9.34668 9.53587 9.34668C7.47301 9.34668 5.80444 11.021 5.80444 13.0781C5.80444 13.8895 6.0673 14.6438 6.5073 15.261L7.91873 14.2381C7.09016 12.3524 7.52444 9.90097 10.2102 9.40954Z" fill="url(#paint9_radial)"/>
<path d="M6.02733 20.644C8.08814 20.644 9.75876 18.9734 9.75876 16.9126C9.75876 14.8518 8.08814 13.1812 6.02733 13.1812C3.96652 13.1812 2.2959 14.8518 2.2959 16.9126C2.2959 18.9734 3.96652 20.644 6.02733 20.644Z" fill="url(#paint10_radial)"/>
<defs>
<radialGradient id="paint0_radial" cx="0" cy="0" r="1" gradientUnits="userSpaceOnUse" gradientTransform="translate(8.69692 10.2965) scale(6.9839)">
<stop offset="0.682292" stop-color="#FCCE38" stop-opacity="0"/>
<stop offset="1" stop-color="#FCCE38"/>
</radialGradient>
<radialGradient id="paint1_radial" cx="0" cy="0" r="1" gradientUnits="userSpaceOnUse" gradientTransform="translate(7.3707 8.29139) scale(6.82362)">
<stop stop-color="#FBE07A"/>
<stop offset="1" stop-color="#FF9D00"/>
</radialGradient>
<radialGradient id="paint2_radial" cx="0" cy="0" r="1" gradientUnits="userSpaceOnUse" gradientTransform="translate(7.27959 7.92) rotate(60.3595) scale(2.17687 4.09342)">
<stop stop-color="white" stop-opacity="0.5"/>
<stop offset="1" stop-color="white" stop-opacity="0"/>
</radialGradient>
<radialGradient id="paint3_radial" cx="0" cy="0" r="1" gradientUnits="userSpaceOnUse" gradientTransform="translate(10.1295 14.381) scale(8.6494)">
<stop stop-color="white"/>
<stop offset="0.3454" stop-color="#FCFDFD"/>
<stop offset="0.5956" stop-color="#F3F6F7"/>
<stop offset="0.815" stop-color="#E3EBEC"/>
<stop offset="1" stop-color="#CFDCDE"/>
</radialGradient>
<radialGradient id="paint4_radial" cx="0" cy="0" r="1" gradientUnits="userSpaceOnUse" gradientTransform="translate(11.9714 13.2635) scale(6.94231)">
<stop stop-color="white"/>
<stop offset="0.3454" stop-color="#FCFDFD"/>
<stop offset="0.5956" stop-color="#F3F6F7"/>
<stop offset="0.815" stop-color="#E3EBEC"/>
<stop offset="1" stop-color="#CFDCDE"/>
</radialGradient>
<radialGradient id="paint5_radial" cx="0" cy="0" r="1" gradientUnits="userSpaceOnUse" gradientTransform="translate(12.1784 16.3677) scale(4.65688)">
<stop stop-color="white"/>
<stop offset="0.3454" stop-color="#FCFDFD"/>
<stop offset="0.5956" stop-color="#F3F6F7"/>
<stop offset="0.815" stop-color="#E3EBEC"/>
<stop offset="1" stop-color="#CFDCDE"/>
</radialGradient>
<linearGradient id="paint6_linear" x1="11.8376" y1="14.0085" x2="11.8376" y2="20.8425" gradientUnits="userSpaceOnUse">
<stop stop-color="white"/>
<stop offset="0.3454" stop-color="#FCFDFD"/>
<stop offset="0.5956" stop-color="#F3F6F7"/>
<stop offset="0.815" stop-color="#E3EBEC"/>
<stop offset="1" stop-color="#CFDCDE"/>
</linearGradient>
<radialGradient id="paint7_radial" cx="0" cy="0" r="1" gradientUnits="userSpaceOnUse" gradientTransform="translate(16.193 12.0219) scale(9.16822)">
<stop stop-color="white"/>
<stop offset="0.345" stop-color="#FCFDFD"/>
<stop offset="0.5948" stop-color="#F3F6F7"/>
<stop offset="0.8139" stop-color="#E3EBEC"/>
<stop offset="0.9987" stop-color="#CFDCDE"/>
</radialGradient>
<radialGradient id="paint8_radial" cx="0" cy="0" r="1" gradientUnits="userSpaceOnUse" gradientTransform="translate(14.0774 12.8593) rotate(73.8122) scale(8.54839 8.54757)">
<stop stop-color="white"/>
<stop offset="0.3454" stop-color="#FCFDFD"/>
<stop offset="0.5956" stop-color="#F3F6F7"/>
<stop offset="0.815" stop-color="#E3EBEC"/>
<stop offset="1" stop-color="#CFDCDE"/>
</radialGradient>
<radialGradient id="paint9_radial" cx="0" cy="0" r="1" gradientUnits="userSpaceOnUse" gradientTransform="translate(7.99874 9.36955) rotate(119.175) scale(9.26054)">
<stop stop-color="#CFDCDE" stop-opacity="0"/>
<stop offset="0.8869" stop-color="#CFDCDE" stop-opacity="0.8869"/>
<stop offset="1" stop-color="#CFDCDE"/>
</radialGradient>
<radialGradient id="paint10_radial" cx="0" cy="0" r="1" gradientUnits="userSpaceOnUse" gradientTransform="translate(8.49462 13.6568) scale(7.20081)">
<stop stop-color="white"/>
<stop offset="0.3454" stop-color="#FCFDFD"/>
<stop offset="0.5956" stop-color="#F3F6F7"/>
<stop offset="0.815" stop-color="#E3EBEC"/>
<stop offset="1" stop-color="#CFDCDE"/>
</radialGradient>
</defs>
</svg>
