<svg width="80" height="80" viewBox="0 0 80 80" fill="none" xmlns="http://www.w3.org/2000/svg">
<path d="M40.0001 70.4762C56.8316 70.4762 70.4763 56.8315 70.4763 40C70.4763 23.1685 56.8316 9.52381 40.0001 9.52381C23.1686 9.52381 9.52393 23.1685 9.52393 40C9.52393 56.8315 23.1686 70.4762 40.0001 70.4762Z" fill="url(#paint0_radial)"/>
<path opacity="0.5" d="M40.0001 70.4762C56.8316 70.4762 70.4763 56.8315 70.4763 40C70.4763 23.1685 56.8316 9.52381 40.0001 9.52381C23.1686 9.52381 9.52393 23.1685 9.52393 40C9.52393 56.8315 23.1686 70.4762 40.0001 70.4762Z" fill="url(#paint1_radial)"/>
<path d="M31.4859 26.1143C31.0097 24.9904 29.4859 24.819 27.4097 25.7143C25.6382 26.4762 22.1716 29.1238 20.9716 33.7333C20.743 34.5904 21.6573 34.6095 21.962 33.9809C23.0097 31.8666 26.6478 28.1714 30.2668 27.0666C31.7144 26.6095 31.4859 26.1143 31.4859 26.1143Z" fill="url(#paint2_linear)"/>
<path d="M30.0383 43.3903C31.6584 43.3903 32.9717 41.4033 32.9717 38.9522C32.9717 36.5011 31.6584 34.5141 30.0383 34.5141C28.4183 34.5141 27.105 36.5011 27.105 38.9522C27.105 41.4033 28.4183 43.3903 30.0383 43.3903Z" fill="url(#paint3_radial)"/>
<path d="M30.0383 36.0189C31.2955 36.0189 32.4002 37.1236 32.9717 38.7427C32.9336 36.3427 31.6383 34.4189 30.0383 34.4189C28.4383 34.4189 27.1431 36.3427 27.105 38.7427C27.6764 37.1236 28.7812 36.0189 30.0383 36.0189Z" fill="url(#paint4_linear)"/>
<path d="M45.8857 30.019C45.7524 28.8 46.9905 27.9047 49.2572 27.6762C51.181 27.4857 55.5048 28.0952 58.8 31.5238C59.4096 32.1523 58.6286 32.6285 58.0572 32.2285C56.1143 30.8952 51.1238 29.4476 47.4286 30.2285C45.9238 30.5714 45.8857 30.019 45.8857 30.019Z" fill="url(#paint5_linear)"/>
<path d="M50.9145 36.0761C50.9145 36.0761 55.3716 35.8094 57.1049 38.9523C57.2192 39.1428 57.2954 39.3714 57.3335 39.5809C57.3907 40.019 57.0669 40.5523 56.2097 40.2476C50.9716 38.3618 48.4002 40.038 46.4573 41.238C45.6954 41.7142 44.8573 40.9904 44.9906 40.2476C45.0287 40.019 45.0478 39.8095 45.124 39.5999C46.4573 36.3047 50.9145 36.0761 50.9145 36.0761Z" fill="url(#paint6_radial)"/>
<path d="M50.9905 37.1236C50.9905 37.1236 54.6286 36.9141 57.2762 39.2951C57.2381 39.1617 57.1809 39.0474 57.1238 38.9332C55.3714 35.8094 50.9333 36.057 50.9333 36.057C50.9333 36.057 46.4762 36.2855 45.1619 39.5808C45.1047 39.6951 45.0857 39.8284 45.0667 39.9617C47.3524 37.3141 50.9905 37.1236 50.9905 37.1236Z" fill="url(#paint7_linear)"/>
<path d="M40.0001 61.6192C31.0668 61.6192 28.1906 50.8383 30.9334 52.5145C34.5906 54.7811 36.8953 54.9906 40.0001 54.9906C43.1049 54.9906 45.4287 54.7811 49.0668 52.5145C51.7906 50.8383 48.9334 61.6192 40.0001 61.6192Z" fill="#643800"/>
<path d="M49.0668 52.5332C45.4097 54.7998 43.1049 55.0094 40.0001 55.0094C36.8954 55.0094 34.5716 54.7998 30.9335 52.5332C29.9811 51.9427 29.7144 52.876 30.1335 54.3236C30.1335 54.2855 30.2859 52.7427 31.562 53.8093C33.4668 55.5427 36.2668 56.9713 40.0001 56.9713C43.7335 56.9713 46.5335 55.5427 48.4382 53.8093C49.7144 52.7427 49.8668 54.2855 49.8668 54.3236C50.2859 52.876 50.0192 51.9427 49.0668 52.5332Z" fill="url(#paint8_linear)"/>
<defs>
<radialGradient id="paint0_radial" cx="0" cy="0" r="1" gradientUnits="userSpaceOnUse" gradientTransform="translate(33.9967 27.65) scale(36.7656)">
<stop stop-color="#FFE030"/>
<stop offset="1" stop-color="#FFB92E"/>
</radialGradient>
<radialGradient id="paint1_radial" cx="0" cy="0" r="1" gradientUnits="userSpaceOnUse" gradientTransform="translate(33.9967 27.65) scale(28.9251)">
<stop stop-color="#FFEA5F"/>
<stop offset="1" stop-color="#FFBC47" stop-opacity="0"/>
</radialGradient>
<linearGradient id="paint2_linear" x1="26.3912" y1="30.5286" x2="25.1215" y2="27.579" gradientUnits="userSpaceOnUse">
<stop offset="0.00132565" stop-color="#3C2200"/>
<stop offset="1" stop-color="#7A4400"/>
</linearGradient>
<radialGradient id="paint3_radial" cx="0" cy="0" r="1" gradientUnits="userSpaceOnUse" gradientTransform="translate(29.1521 39.074) rotate(73.8539) scale(4.30606 2.78596)">
<stop offset="0.00132565" stop-color="#7A4400"/>
<stop offset="1" stop-color="#643800"/>
</radialGradient>
<linearGradient id="paint4_linear" x1="30.043" y1="34.4979" x2="30.043" y2="38.6339" gradientUnits="userSpaceOnUse">
<stop offset="0.00132565" stop-color="#3C2200"/>
<stop offset="1" stop-color="#512D00"/>
</linearGradient>
<linearGradient id="paint5_linear" x1="52.4935" y1="31.3925" x2="52.1624" y2="28.1981" gradientUnits="userSpaceOnUse">
<stop offset="0.00132565" stop-color="#3C2200"/>
<stop offset="1" stop-color="#7A4400"/>
</linearGradient>
<radialGradient id="paint6_radial" cx="0" cy="0" r="1" gradientUnits="userSpaceOnUse" gradientTransform="translate(51.0689 38.5927) rotate(-3.13012) scale(4.79704 2.31436)">
<stop offset="0.00132565" stop-color="#7A4400"/>
<stop offset="1" stop-color="#643800"/>
</radialGradient>
<linearGradient id="paint7_linear" x1="50.8631" y1="34.6747" x2="51.05" y2="37.7685" gradientUnits="userSpaceOnUse">
<stop offset="0.00132565" stop-color="#3C2200"/>
<stop offset="1" stop-color="#512D00"/>
</linearGradient>
<linearGradient id="paint8_linear" x1="39.9925" y1="48.551" x2="39.9925" y2="56.761" gradientUnits="userSpaceOnUse">
<stop offset="0.00132565" stop-color="#3C2200"/>
<stop offset="1" stop-color="#512D00"/>
</linearGradient>
</defs>
</svg>
