<svg width="80" height="80" viewBox="0 0 80 80" fill="none" xmlns="http://www.w3.org/2000/svg">
<path d="M40.475 70.95C57.3059 70.95 70.95 57.3059 70.95 40.475C70.95 23.6441 57.3059 10 40.475 10C23.6441 10 10 23.6441 10 40.475C10 57.3059 23.6441 70.95 40.475 70.95Z" fill="url(#paint0_radial)"/>
<path opacity="0.5" d="M40.475 70.95C57.3059 70.95 70.95 57.3059 70.95 40.475C70.95 23.6441 57.3059 10 40.475 10C23.6441 10 10 23.6441 10 40.475C10 57.3059 23.6441 70.95 40.475 70.95Z" fill="url(#paint1_radial)"/>
<path d="M33.884 25.9604C33.799 24.5004 32.4382 23.65 30.1703 23.7775C28.2426 23.8768 24.0753 25.3934 21.4105 30.0426C20.9144 30.9073 21.7649 31.3183 22.2752 30.7514C23.9619 28.8236 28.6395 26.2155 32.4099 26.499C33.9266 26.6124 33.884 25.9604 33.884 25.9604Z" fill="url(#paint2_linear)"/>
<path d="M30.5244 41.779C32.1449 41.779 33.4585 39.7927 33.4585 37.3425C33.4585 34.8922 32.1449 32.9059 30.5244 32.9059C28.904 32.9059 27.5903 34.8922 27.5903 37.3425C27.5903 39.7927 28.904 41.779 30.5244 41.779Z" fill="url(#paint3_radial)"/>
<path d="M30.5244 34.4083C31.786 34.4083 32.8774 35.4998 33.4585 37.1298C33.416 34.7344 32.1262 32.8066 30.5244 32.8066C28.9227 32.8066 27.6329 34.7344 27.5903 37.1298C28.1715 35.4998 29.2629 34.4083 30.5244 34.4083Z" fill="url(#paint4_linear)"/>
<path d="M50.4254 41.779C52.0459 41.779 53.3595 39.7927 53.3595 37.3425C53.3595 34.8922 52.0459 32.9059 50.4254 32.9059C48.805 32.9059 47.4913 34.8922 47.4913 37.3425C47.4913 39.7927 48.805 41.779 50.4254 41.779Z" fill="url(#paint5_radial)"/>
<path d="M47.0662 26.0738C47.1512 24.6138 48.5119 23.7634 50.7799 23.8909C52.7076 23.9902 56.8748 25.5068 59.5396 30.156C60.0357 31.0207 59.1853 31.4317 58.675 30.8648C56.9882 28.937 52.3107 26.3289 48.5403 26.6124C47.0236 26.7258 47.0662 26.0738 47.0662 26.0738Z" fill="url(#paint6_linear)"/>
<path d="M50.4254 34.5076C49.1639 34.5076 48.0725 35.599 47.4913 37.2291C47.5339 34.8336 48.8237 32.9059 50.4254 32.9059C52.0271 32.9059 53.317 34.8336 53.3595 37.2291C52.7784 35.6132 51.687 34.5076 50.4254 34.5076Z" fill="url(#paint7_linear)"/>
<path d="M40.475 50.9499C51.2901 50.9499 54.7628 61.6516 51.4602 59.979C47.0378 57.7394 44.2312 57.5126 40.475 57.5126C36.7188 57.5126 33.9123 57.7253 29.4898 59.979C26.1872 61.6516 29.6599 50.9499 40.475 50.9499Z" fill="#643800"/>
<path d="M40.475 52.8493C46.8677 52.8493 50.8932 56.4496 52.6508 59.4404C52.75 57.2717 48.7812 50.9641 40.475 50.9641C32.1688 50.9641 28.2 57.2717 28.2992 59.4404C30.0568 56.4496 34.0823 52.8493 40.475 52.8493Z" fill="url(#paint8_linear)"/>
<defs>
<radialGradient id="paint0_radial" cx="0" cy="0" r="1" gradientUnits="userSpaceOnUse" gradientTransform="translate(34.479 28.1245) scale(36.7641)">
<stop stop-color="#FFDF30"/>
<stop offset="1" stop-color="#FFB82E"/>
</radialGradient>
<radialGradient id="paint1_radial" cx="0" cy="0" r="1" gradientUnits="userSpaceOnUse" gradientTransform="translate(34.479 28.1245) scale(28.924)">
<stop stop-color="#FFE95F"/>
<stop offset="1" stop-color="#FFBB47" stop-opacity="0"/>
</radialGradient>
<linearGradient id="paint2_linear" x1="27.6007" y1="28.7627" x2="27.3888" y2="24.916" gradientUnits="userSpaceOnUse">
<stop offset="0.00132565" stop-color="#3C2200"/>
<stop offset="1" stop-color="#7A4400"/>
</linearGradient>
<radialGradient id="paint3_radial" cx="0" cy="0" r="1" gradientUnits="userSpaceOnUse" gradientTransform="translate(29.635 37.4493) rotate(73.8539) scale(4.30589 2.78584)">
<stop offset="0.00132565" stop-color="#7A4400"/>
<stop offset="1" stop-color="#643800"/>
</radialGradient>
<linearGradient id="paint4_linear" x1="30.5252" y1="32.8772" x2="30.5252" y2="37.0131" gradientUnits="userSpaceOnUse">
<stop offset="0.00132565" stop-color="#3C2200"/>
<stop offset="1" stop-color="#512D00"/>
</linearGradient>
<radialGradient id="paint5_radial" cx="0" cy="0" r="1" gradientUnits="userSpaceOnUse" gradientTransform="translate(49.5354 37.45) rotate(73.8539) scale(4.30589 2.78584)">
<stop offset="0.00132565" stop-color="#7A4400"/>
<stop offset="1" stop-color="#643800"/>
</radialGradient>
<linearGradient id="paint6_linear" x1="53.3494" y1="28.8715" x2="53.5613" y2="25.0249" gradientUnits="userSpaceOnUse">
<stop offset="0.00132565" stop-color="#3C2200"/>
<stop offset="1" stop-color="#7A4400"/>
</linearGradient>
<linearGradient id="paint7_linear" x1="50.4247" y1="32.986" x2="50.4247" y2="37.1219" gradientUnits="userSpaceOnUse">
<stop offset="0.00132565" stop-color="#3C2200"/>
<stop offset="1" stop-color="#512D00"/>
</linearGradient>
<linearGradient id="paint8_linear" x1="40.4746" y1="48.1598" x2="40.4746" y2="56.6954" gradientUnits="userSpaceOnUse">
<stop offset="0.00132565" stop-color="#3C2200"/>
<stop offset="1" stop-color="#512D00"/>
</linearGradient>
</defs>
</svg>
