<svg width="80" height="80" viewBox="0 0 80 80" fill="none" xmlns="http://www.w3.org/2000/svg">
<path d="M35.5881 42.3657C33.46 45.5124 30.441 47.1927 28.8424 46.1132C27.2489 45.0338 27.6816 41.607 29.8097 38.4603C31.9378 35.3136 34.9568 33.6334 36.5503 34.7128C38.1438 35.7923 37.7213 39.2139 35.5881 42.3657Z" fill="url(#paint0_linear)"/>
<path d="M35.5881 42.3657C33.46 45.5124 30.441 47.1927 28.8424 46.1132C27.2489 45.0338 27.6816 41.607 29.8097 38.4603C31.9378 35.3136 34.9568 33.6334 36.5503 34.7128C38.1438 35.7923 37.7213 39.2139 35.5881 42.3657Z" fill="url(#paint1_linear)"/>
<path d="M61.4149 60.6705C57.1588 60.6705 56.9755 63.9292 51.9048 63.9292C46.8341 63.9292 44.1155 61.8467 39.4063 59.0361C35.4811 56.6938 30.8635 57.1827 28.4402 56.6938L30.2475 57.9821C30.2475 57.9821 33.633 62.2948 38.7444 64.8661C46.157 68.5933 54.9289 64.3009 58.7421 64.5657C63.492 64.8916 69.3671 65.9303 70.4566 65.8488C69.9221 65.411 69.474 60.6705 61.4149 60.6705Z" fill="url(#paint2_linear)"/>
<path d="M61.4149 60.6705C57.1588 60.6705 56.9755 63.9292 51.9048 63.9292C46.8341 63.9292 44.1155 61.8467 39.4063 59.0361C35.4811 56.6938 30.8635 57.1827 28.4402 56.6938L31.6933 59.4332C31.6933 59.4332 33.633 62.2948 38.7444 64.8661C46.157 68.5933 54.9289 64.3009 58.7421 64.5657C63.492 64.8916 69.3671 65.9303 70.4566 65.8488C69.9221 65.411 69.474 60.6705 61.4149 60.6705Z" fill="url(#paint3_linear)"/>
<path d="M61.4149 60.6707C57.1588 60.6707 56.9755 63.9294 51.9048 63.9294C46.8341 63.9294 44.1155 61.8469 39.4063 59.0363C35.4811 56.6941 30.8635 57.183 28.4402 58.1402L31.6933 59.4284C31.6933 59.4284 32.8541 61.1188 35.7 63.0689C36.0411 62.8092 36.2091 63.7614 36.1226 62.9365C35.3742 55.7522 42.8529 64.8153 49.5527 64.6371C57.0773 64.4386 61.4149 60.6707 61.4149 60.6707Z" fill="url(#paint4_linear)"/>
<path d="M17.9881 50.6196L10.092 62.02C9.40472 63.0078 7.35307 68.1352 6.06505 71.4296C5.75959 72.2137 6.5945 72.7942 7.22579 72.229C9.81201 69.9072 13.8288 66.2767 14.791 65.2737L23.1809 53.1706C20.778 53.1146 18.7467 52.4985 17.9881 50.6196Z" fill="url(#paint5_linear)"/>
<path d="M6.1311 72.178C6.35511 72.4886 6.82855 72.5802 7.22056 72.2289C9.80681 69.907 13.8237 66.2766 14.7859 65.2736L23.1759 53.1705C22.4428 53.1552 21.7454 53.0737 21.109 52.9312L13.8338 63.4151C13.3451 63.8937 10.3821 68.0638 6.1311 72.178Z" fill="url(#paint6_linear)"/>
<path d="M18.6958 51.7856C18.146 51.4037 18.258 51.2866 17.9882 50.6196L10.0919 62.02C9.40463 63.0078 7.35294 68.1351 6.0649 71.4295C5.75944 72.2136 10.5043 63.5984 11.1101 62.7277L18.6958 51.7856Z" fill="url(#paint7_linear)"/>
<path d="M28.4198 62.9364C31.561 66.4395 34.3357 67.3459 36.9322 67.3459C39.5286 67.3459 40.0734 66.078 39.5286 65.1412C38.9839 64.2043 37.4158 62.3356 34.9415 61.969C32.4672 61.6024 30.3544 55.9913 30.3544 55.9913L27.2743 55.9302L24.3774 59.5504L28.4198 62.9364Z" fill="url(#paint8_linear)"/>
<path d="M28.4198 62.9364C31.561 66.4395 34.3357 67.3459 36.9322 67.3459C39.5286 67.3459 40.0734 66.078 39.5286 65.1412C38.9839 64.2043 37.4158 62.3356 34.9415 61.969C32.4672 61.6024 30.3544 55.9913 30.3544 55.9913L27.2743 55.9302L24.3774 59.5504L28.4198 62.9364Z" fill="url(#paint9_linear)"/>
<path d="M29.7842 63.8123C28.71 61.7908 30.3035 60.248 32.4672 60.0036C31.2097 58.2571 30.3544 55.9913 30.3544 55.9913L27.2743 55.9302L25.6911 57.9058L25.4976 58.471C25.4976 58.471 31.0213 66.1392 29.7842 63.8123Z" fill="url(#paint10_linear)"/>
<path d="M30.3545 55.9912C30.9451 57.203 31.5305 58.4149 32.2942 59.5147C33.0527 60.5687 33.9335 61.7398 35.2674 61.8467C36.6318 62.1268 37.8639 62.8956 38.7752 63.9191C39.1926 64.4486 39.7068 64.9578 39.7984 65.7012C39.8443 66.4802 39.1315 66.9792 38.5053 67.132C39.1264 66.9232 39.7272 66.3733 39.6203 65.7165C39.5184 65.1004 38.994 64.5861 38.5664 64.1075C37.65 63.1655 36.4791 62.4374 35.191 62.2031C34.5139 62.137 33.8113 61.7551 33.3328 61.2764C32.8338 60.7927 32.4113 60.2479 32.0549 59.6725C31.6986 59.0921 31.3778 58.4964 31.0927 57.8803C30.8229 57.254 30.5989 56.6175 30.3545 55.9912Z" fill="#804B24"/>
<path d="M23.0489 63.4763C23.9551 66.6179 27.6971 68.8481 30.2935 68.6088C31.9176 68.4561 32.3453 65.9509 30.4157 64.0212C28.4862 62.0914 27.2695 58.7562 27.2695 58.7562L25.5232 53.3335L22.8046 60.2787L21.0532 64.0212L23.0489 63.4763Z" fill="url(#paint11_linear)"/>
<path d="M23.0489 63.4763C23.9551 66.6179 27.6971 68.8481 30.2935 68.6088C31.9176 68.4561 32.3453 65.9509 30.4157 64.0212C28.4862 62.0914 27.2695 58.7562 27.2695 58.7562L25.5232 53.3335L22.8046 60.2787L21.0532 64.0212L23.0489 63.4763Z" fill="url(#paint12_linear)"/>
<path d="M28.7151 61.7396C27.8038 60.2019 27.2693 58.7507 27.2693 58.7507L26.3834 55.9961L24.4183 56.1641L22.8095 60.2732L21.8931 62.2386L22.504 63.6235L23.0538 63.4759C23.4662 64.9066 24.4794 66.1287 25.691 67.035C24.4081 64.7233 26.4089 62.0654 28.7151 61.7396Z" fill="url(#paint13_linear)"/>
<path d="M31.6832 66.9841C31.6629 65.9301 31.1283 64.9932 30.4309 64.2753C29.6774 63.537 29.0919 62.6306 28.5828 61.7243C27.5646 59.8913 26.7348 57.9717 26.0679 55.9961C26.969 57.8749 27.8599 59.7589 28.8883 61.5512C29.4279 62.4372 29.9319 63.3333 30.665 64.0614C31.3829 64.8455 31.8461 65.9352 31.6832 66.9841Z" fill="#804B24"/>
<path d="M16.5476 62.6254C16.5476 65.4309 20.091 68.6082 22.2038 68.6082C24.3166 68.6082 24.3776 65.7721 24.0162 64.6825C23.6547 63.5979 23.1202 61.2048 23.1202 61.2048L21.2975 60.0337L16.5476 62.6254Z" fill="url(#paint14_linear)"/>
<path d="M16.5476 62.6254C16.5476 65.4309 20.091 68.6082 22.2038 68.6082C24.3166 68.6082 24.3776 65.7721 24.0162 64.6825C23.6547 63.5979 23.1202 61.2048 23.1202 61.2048L21.2975 60.0337L16.5476 62.6254Z" fill="url(#paint15_linear)"/>
<path d="M23.4817 62.7425C23.278 61.9227 23.1202 61.2048 23.1202 61.2048L21.2976 60.0337L16.5476 62.6203C16.5476 64.3413 17.8764 66.1947 19.3935 67.376C18.9659 64.9931 21.878 63.4146 23.4817 62.7425Z" fill="url(#paint16_linear)"/>
<path d="M23.9042 67.4378C24.0976 66.7351 24.0824 66.0172 23.9907 65.3298C23.8787 64.673 23.5783 63.9601 23.446 63.2575C23.0998 61.8521 22.8198 60.4366 22.606 59.0059C23.0387 60.3857 23.4154 61.7809 23.7769 63.176C23.9398 63.8888 24.2096 64.5202 24.3064 65.2942C24.3726 66.0325 24.2605 66.8013 23.9042 67.4378Z" fill="#804B24"/>
<path d="M12.8464 58.3436C12.9228 61.5311 15.8654 62.8396 18.2174 62.8396C20.5695 62.8396 25.5435 60.0188 27.2642 58.751C28.985 57.4831 34.6972 56.2305 39.4064 59.0361C44.1156 61.8417 46.8342 63.9293 51.9049 63.9293C56.9756 63.9293 57.1589 60.6706 61.415 60.6706C70.3803 60.6706 69.9273 66.5566 70.6502 65.8336C71.3731 65.1106 74.0001 59.0412 74.0001 53.2468C74.0001 49.4127 73.0888 47.3811 72.4728 45.4666C72.2029 44.6214 71.3731 44.1275 70.4924 44.2344C64.1846 44.9931 54.8476 37.2434 48.4634 34.1375C41.5803 30.7871 35.9649 27.2534 31.8004 27.2534C27.6359 27.2534 14.1446 34.7688 12.4238 36.4898C10.7031 38.2109 9.98013 40.2017 9.98013 42.6509C9.98013 45.0949 8.44263 50.8944 8.44263 55.8741C8.44263 59.8559 9.42523 61.3478 10.8405 60.4923C11.1969 60.2785 11.5736 59.917 11.9758 59.4078C12.0929 59.2551 12.8515 58.588 12.8464 58.3436C12.8464 56.4393 14.3279 53.9851 16.8785 51.7804C17.2451 51.4647 17.5454 50.5787 17.7949 49.8862C17.7949 49.8862 18.5178 46.4442 19.2458 44.876C19.9739 43.3077 21.0582 42.3403 22.7485 41.9788C27.5646 40.9451 31.1996 34.6721 33.6128 36.1232C36.026 37.5744 33.4906 43.1346 28.6592 44.825C23.8278 46.5155 21.2975 48.4402 18.0342 50.8537C14.7759 53.2723 12.8464 56.1695 12.8464 58.3436Z" fill="url(#paint17_linear)"/>
<path d="M70.4922 44.229C64.1844 44.9877 54.8474 37.2381 48.4632 34.1321C43.3008 31.6168 38.8512 29.0047 35.1958 27.854L33.6125 36.123C34.1013 36.4132 34.366 36.8104 34.4475 37.2686C34.5188 37.5283 34.534 37.8185 34.5239 38.119C34.5239 38.1495 34.5187 38.1801 34.5187 38.2106C34.4984 38.5212 34.4424 38.842 34.3406 39.178C39.6862 33.348 43.0513 32.8388 46.1416 34.1016C51.4058 36.2503 57.2809 45.059 64.4338 45.059C71.5562 45.059 73.4399 49.2648 73.4551 49.2953C73.1497 47.7322 72.7729 46.4032 72.4726 45.4562C72.3351 45.0335 72.0602 44.6975 71.7089 44.4836C71.3678 44.2749 70.9504 44.1781 70.5227 44.2239C70.5074 44.2341 70.5024 44.229 70.4922 44.229Z" fill="url(#paint18_linear)"/>
<path d="M48.4633 34.1323C44.5686 32.2331 41.0762 30.283 38.0266 28.9438L34.7378 36.2556C35.9189 35.2372 38.3372 34.5651 43.3061 35.8533C53.4475 38.4807 59.1545 52.5186 64.3168 52.3047C68.97 52.1163 68.7817 48.9238 73.6793 50.5481C73.3586 48.4401 72.8596 46.6478 72.4778 45.4563C72.3404 45.0337 72.0654 44.6977 71.7142 44.4838C71.3629 44.2699 70.9352 44.1732 70.4974 44.2241C64.1845 44.9879 54.8424 37.2383 48.4633 34.1323Z" fill="url(#paint19_linear)"/>
<path d="M33.6127 36.1285C36.0259 37.5797 33.4905 43.1399 28.6591 44.8303C25.0139 46.1084 22.6772 47.5188 20.3455 49.1685C23.4714 47.2999 27.0402 47.0554 29.7537 45.7316C36.2397 42.5645 36.3059 35.436 36.3059 35.436L33.6127 36.1285Z" fill="url(#paint20_linear)"/>
<path d="M31.8004 27.2485C27.6359 27.2485 14.1446 34.7639 12.4238 36.4849C10.7031 38.2059 9.98013 40.1968 9.98013 42.6459C9.98013 45.09 8.44263 50.8895 8.44263 55.8692C8.44263 56.4649 8.46812 57.0046 8.50885 57.4935C9.53724 52.2591 10.474 39.7029 13.3097 37.2793C16.8073 34.2904 28.9443 27.2282 34.2848 28.0429C34.8143 28.1243 35.2216 28.0836 35.5729 27.9868C34.2085 27.5235 32.9459 27.2485 31.8004 27.2485Z" fill="url(#paint21_linear)"/>
<path d="M34.2593 36.7549C34.3153 36.8465 34.3509 36.9433 34.3814 37.0451L34.7378 36.2559C34.5494 36.4188 34.3865 36.5817 34.2593 36.7549Z" fill="url(#paint22_linear)"/>
<path d="M17.7947 49.8914C17.7947 49.8914 18.5176 46.4494 19.2457 44.8811C19.9686 43.3129 21.0581 42.3455 22.7483 41.9839C23.573 41.8057 24.3571 41.4697 25.1106 41.0522C28.4808 37.6916 32.7318 29.8503 31.4082 31.2557C23.0232 40.1764 23.0538 38.1855 19.5206 41.7192C15.9874 45.2528 17.0311 49.1887 15.1728 51.0472C13.559 52.6613 10.4636 56.5107 10.8302 60.4873C11.1866 60.2735 11.5684 59.917 11.9655 59.4079C12.0877 59.2602 12.8462 58.5932 12.8411 58.3488C12.8411 58.3488 12.7037 57.1319 13.8186 55.3141C13.8288 55.2988 13.839 55.2887 13.8441 55.2785C14.5314 54.1226 15.5546 52.921 16.8681 51.7906C16.9903 51.6175 17.1074 51.4393 17.2296 51.2611C17.4485 50.8538 17.6318 50.3395 17.7947 49.8914Z" fill="url(#paint23_linear)"/>
<path d="M70.6502 65.8336C70.9302 65.5536 71.4953 64.469 72.0808 62.9211C66.2872 55.6348 59.3074 57.5187 57.2201 59.3161C55.0462 61.1899 51.3654 63.3641 46.8343 61.4903C42.3084 59.6165 40.7352 53.3384 34.519 53.3384C28.3029 53.3384 23.8329 57.2336 20.9361 58.6797C18.4008 59.9475 15.9062 59.866 12.9279 57.3151L12.8464 58.3487C12.9279 61.7144 16.0538 62.8447 18.2175 62.8447C20.5696 62.8447 25.5486 60.0239 27.2643 58.756C28.9851 57.4882 34.6972 56.2356 39.4065 59.0412C44.1157 61.8467 46.8343 63.9344 51.905 63.9344C56.9757 63.9344 57.1589 60.6756 61.4151 60.6756C70.3804 60.6705 69.9273 66.5566 70.6502 65.8336Z" fill="url(#paint24_linear)"/>
<path d="M70.6501 65.834C70.8894 65.5947 71.3425 64.7393 71.8312 63.5325C71.2101 62.3869 70.0493 61.4347 68.1453 60.8288C57.9123 57.57 57.9122 63.003 50.2146 63.227C42.5169 63.451 40.0732 55.3042 35.7255 55.3042C26.139 55.3042 21.2822 62.3512 14.5569 61.7046C15.6464 62.5091 17.0617 62.8451 18.2122 62.8451C20.5643 62.8451 25.5434 60.0243 27.2591 58.7564C28.9798 57.4886 34.692 56.236 39.4012 59.0416C44.1104 61.8471 46.8291 63.9348 51.8997 63.9348C56.9704 63.9348 57.1537 60.676 61.4098 60.676C70.3802 60.6709 69.9271 66.557 70.6501 65.834Z" fill="url(#paint25_linear)"/>
<path d="M16.8785 51.7856C16.8734 51.7909 16.8733 51.7909 16.8682 51.7961C16.8733 51.7909 16.8734 51.7856 16.8785 51.7856Z" fill="url(#paint26_linear)"/>
<path opacity="0.5" d="M36.6877 41.9431C38.9532 41.5204 40.119 40.5224 41.9518 40.1813C43.7846 39.8401 52.0575 39.0611 52.7601 43.0378C53.4627 47.0145 47.6742 49.2804 44.2886 50.9607C40.9031 52.641 32.2126 51.7753 31.0977 48.6235C29.9827 45.4717 33.124 42.605 36.6877 41.9431Z" fill="url(#paint27_radial)"/>
<path opacity="0.5" d="M21.7912 39.876C20.6865 41.098 18.8842 40.9096 17.9882 41.8974C17.0922 42.8852 14.0427 52.6053 11.9147 50.6195C9.78662 48.6337 11.7976 41.709 12.9889 39.2802C14.1853 36.8464 24.3672 30.329 26.3731 31.663C28.3789 32.997 23.5323 37.9513 21.7912 39.876Z" fill="url(#paint28_radial)"/>
<path d="M52.6177 9.5444C52.3224 9.04032 51.8184 8.34275 51.0802 7.83358C50.3471 7.3244 49.5376 7.11056 48.9725 7.01382C48.5499 6.94253 48.1019 7.15129 47.8321 7.54335L17.9883 50.6194C18.0188 50.6907 18.0596 50.7467 18.0901 50.8128C18.2785 50.6703 18.4516 50.5175 18.6349 50.3699L18.533 50.487C21.5571 48.2466 24.0823 46.4289 28.6592 44.825C28.8068 44.7741 28.9392 44.6977 29.0817 44.6417L30.9043 42.0144L52.5261 10.8072C52.801 10.4151 52.8366 9.9161 52.6177 9.5444Z" fill="url(#paint29_linear)"/>
<path d="M21.3993 47.88L48.2647 9.05559C49.0131 7.8183 49.3389 7.07492 48.9774 7.01382C48.5549 6.94253 48.1069 7.15129 47.8371 7.54335L17.9883 50.6193C18.0239 50.7059 18.0392 50.7619 18.0646 50.8332C19.261 49.9473 20.3098 48.9136 21.3993 47.88Z" fill="url(#paint30_radial)"/>
<path d="M52.5257 10.8121C52.5614 10.7663 52.5766 10.7103 52.6021 10.6594C52.6836 10.5015 52.7446 10.3335 52.7548 10.1706C52.7701 9.95165 52.7243 9.7327 52.6174 9.54431C52.6123 9.53921 52.6072 9.52902 52.6021 9.52393C52.4341 9.24389 52.1999 8.90783 51.8995 8.57178L26.0066 45.8841C26.8212 45.5226 27.6867 45.1662 28.659 44.825C28.8067 44.7741 28.939 44.6977 29.0816 44.6417L30.9042 42.0144L52.5257 10.8121Z" fill="url(#paint31_linear)"/>
<path d="M61.415 60.6707C60.0761 60.6707 58.7779 61.1035 57.6935 61.8723C56.6091 62.6157 55.4992 63.4253 54.1755 63.7512C51.5485 64.3316 48.779 63.96 46.2895 62.9976C43.7999 61.9945 41.5853 60.4772 39.2943 59.1482C37.0288 57.8091 34.3152 57.3458 31.7086 57.5902C30.4053 57.7073 29.0969 57.9873 27.9311 58.5525C26.8416 59.2144 25.7113 60.0189 24.5353 60.6249C23.3644 61.2664 22.1629 61.852 20.9104 62.3306C19.6835 62.8143 18.2835 63.1555 16.9496 62.8398C15.6361 62.5852 14.3277 61.9385 13.5284 60.8133C12.7342 59.7033 12.5306 58.1961 12.9888 56.9231C13.9001 54.3569 15.9263 52.4271 18.0289 50.8589C15.9569 52.473 13.9815 54.4587 13.1568 56.9792C12.7291 58.2165 12.9378 59.6421 13.6964 60.691C14.4601 61.7552 15.7176 62.3662 16.9903 62.6055C18.2885 62.9009 19.5817 62.5648 20.8086 62.0811C22.0356 61.6025 23.2269 61.0118 24.3826 60.3652C25.5688 59.7389 26.6023 58.9853 27.7732 58.2572C29.0002 57.6513 30.334 57.361 31.6679 57.2337C34.3407 56.9995 37.1204 57.4985 39.4369 58.8886C41.7279 60.2379 43.9221 61.7654 46.3658 62.7736C48.7994 63.741 51.5485 64.1229 54.1195 63.5781C55.4126 63.2929 56.5225 62.5241 57.6324 61.796C58.7524 61.0475 60.0811 60.6401 61.415 60.6707Z" fill="#804B24"/>
<path d="M34.2696 37.1622C34.3765 37.4778 34.4325 37.8088 34.4121 38.1449C34.1983 40.1816 32.8237 41.9535 31.2404 43.201C29.6774 44.5554 27.5493 44.9474 25.6758 45.8996C23.7717 46.7703 22.0001 47.9058 20.3455 49.1736C22.0815 48.0178 23.8837 46.9689 25.7776 46.1186C26.7245 45.6959 27.6969 45.3242 28.6795 44.9882C29.6774 44.6419 30.6294 44.1429 31.4695 43.4861C33.0833 42.1572 34.4681 40.3292 34.6565 38.1601C34.6717 37.7426 34.6157 37.3098 34.4426 36.9229L34.2696 37.1622Z" fill="#804B24"/>
<defs>
<linearGradient id="paint0_linear" x1="36.7546" y1="44.655" x2="15.6139" y2="22.5256" gradientUnits="userSpaceOnUse">
<stop offset="0.00132565" stop-color="#FFCB4B"/>
<stop offset="1" stop-color="#FFD748"/>
</linearGradient>
<linearGradient id="paint1_linear" x1="34.2972" y1="57.3618" x2="32.8479" y2="41.9654" gradientUnits="userSpaceOnUse">
<stop stop-color="#E6AF74" stop-opacity="0"/>
<stop offset="1" stop-color="#E6AF74"/>
</linearGradient>
<linearGradient id="paint2_linear" x1="49.6383" y1="65.8592" x2="49.8765" y2="71.5743" gradientUnits="userSpaceOnUse">
<stop offset="0.00132565" stop-color="#F0C492"/>
<stop offset="1" stop-color="#F8DBBA"/>
</linearGradient>
<linearGradient id="paint3_linear" x1="28.4393" y1="61.5456" x2="70.455" y2="61.5456" gradientUnits="userSpaceOnUse">
<stop offset="0.00132565" stop-color="#D2A374"/>
<stop offset="1" stop-color="#DEBA94"/>
</linearGradient>
<linearGradient id="paint4_linear" x1="45.6163" y1="67.4416" x2="43.6236" y2="44.2569" gradientUnits="userSpaceOnUse">
<stop stop-color="#D2A374" stop-opacity="0"/>
<stop offset="1" stop-color="#B88653"/>
</linearGradient>
<linearGradient id="paint5_linear" x1="2.95648" y1="52.1357" x2="15.0127" y2="62.9974" gradientUnits="userSpaceOnUse">
<stop offset="0.00132565" stop-color="#0097D4"/>
<stop offset="0.2368" stop-color="#0294D6"/>
<stop offset="0.4442" stop-color="#0989DB"/>
<stop offset="0.6411" stop-color="#1477E4"/>
<stop offset="0.8304" stop-color="#245EF0"/>
<stop offset="1" stop-color="#3640FF"/>
</linearGradient>
<linearGradient id="paint6_linear" x1="5.57559" y1="53.6837" x2="14.3318" y2="62.351" gradientUnits="userSpaceOnUse">
<stop offset="0.00132565" stop-color="#0097D4"/>
<stop offset="0.2368" stop-color="#0294D6"/>
<stop offset="0.4442" stop-color="#0989DB"/>
<stop offset="0.6411" stop-color="#1477E4"/>
<stop offset="0.8304" stop-color="#245EF0"/>
<stop offset="1" stop-color="#3640FF"/>
</linearGradient>
<linearGradient id="paint7_linear" x1="9.11672" y1="59.1037" x2="14.7187" y2="62.851" gradientUnits="userSpaceOnUse">
<stop stop-color="#0097D4" stop-opacity="0"/>
<stop offset="0.3342" stop-color="#029AD7" stop-opacity="0.3342"/>
<stop offset="0.6287" stop-color="#08A3E2" stop-opacity="0.6287"/>
<stop offset="0.9072" stop-color="#13B2F4" stop-opacity="0.9072"/>
<stop offset="1" stop-color="#17B9FC"/>
</linearGradient>
<linearGradient id="paint8_linear" x1="32.2512" y1="67.5577" x2="32.4927" y2="73.3541" gradientUnits="userSpaceOnUse">
<stop offset="0.00132565" stop-color="#F0C492"/>
<stop offset="1" stop-color="#F8DBBA"/>
</linearGradient>
<linearGradient id="paint9_linear" x1="24.3756" y1="61.6361" x2="39.7194" y2="61.6361" gradientUnits="userSpaceOnUse">
<stop offset="0.00132565" stop-color="#D2A374"/>
<stop offset="1" stop-color="#DEBA94"/>
</linearGradient>
<linearGradient id="paint10_linear" x1="29.4462" y1="63.8011" x2="28.2686" y2="52.2536" gradientUnits="userSpaceOnUse">
<stop stop-color="#D2A374" stop-opacity="0"/>
<stop offset="1" stop-color="#B88653"/>
</linearGradient>
<linearGradient id="paint11_linear" x1="26.4757" y1="67.7986" x2="26.7172" y2="73.5949" gradientUnits="userSpaceOnUse">
<stop offset="0.00132565" stop-color="#F0C492"/>
<stop offset="1" stop-color="#F8DBBA"/>
</linearGradient>
<linearGradient id="paint12_linear" x1="21.0555" y1="60.981" x2="31.6935" y2="60.981" gradientUnits="userSpaceOnUse">
<stop offset="0.00132565" stop-color="#D2A374"/>
<stop offset="1" stop-color="#DEBA94"/>
</linearGradient>
<linearGradient id="paint13_linear" x1="27.2942" y1="68.826" x2="22.3124" y2="51.7545" gradientUnits="userSpaceOnUse">
<stop stop-color="#D2A374" stop-opacity="0"/>
<stop offset="1" stop-color="#B88653"/>
</linearGradient>
<linearGradient id="paint14_linear" x1="20.5224" y1="68.0461" x2="20.7639" y2="73.8424" gradientUnits="userSpaceOnUse">
<stop offset="0.00132565" stop-color="#F0C492"/>
<stop offset="1" stop-color="#F8DBBA"/>
</linearGradient>
<linearGradient id="paint15_linear" x1="16.5456" y1="64.3225" x2="24.1826" y2="64.3225" gradientUnits="userSpaceOnUse">
<stop offset="0.00132565" stop-color="#D2A374"/>
<stop offset="1" stop-color="#DEBA94"/>
</linearGradient>
<linearGradient id="paint16_linear" x1="24.395" y1="71.0931" x2="15.6546" y2="54.4749" gradientUnits="userSpaceOnUse">
<stop stop-color="#D2A374" stop-opacity="0"/>
<stop offset="1" stop-color="#B88653"/>
</linearGradient>
<linearGradient id="paint17_linear" x1="57.3268" y1="101.293" x2="36.1318" y2="39.1655" gradientUnits="userSpaceOnUse">
<stop offset="0.00132565" stop-color="#D2A374"/>
<stop offset="1" stop-color="#DEBA94"/>
</linearGradient>
<linearGradient id="paint18_linear" x1="51.2488" y1="49.734" x2="64.8354" y2="0.466403" gradientUnits="userSpaceOnUse">
<stop stop-color="#FFBC47" stop-opacity="0"/>
<stop offset="1" stop-color="#C86F34"/>
</linearGradient>
<linearGradient id="paint19_linear" x1="54.0493" y1="59.754" x2="54.5928" y2="2.15341" gradientUnits="userSpaceOnUse">
<stop offset="0.00132565" stop-color="#D2A374"/>
<stop offset="1" stop-color="#D2A374" stop-opacity="0"/>
</linearGradient>
<linearGradient id="paint20_linear" x1="41.5682" y1="65.8499" x2="25.2648" y2="36.8702" gradientUnits="userSpaceOnUse">
<stop stop-color="#E6AF74" stop-opacity="0"/>
<stop offset="1" stop-color="#E6AF74"/>
</linearGradient>
<linearGradient id="paint21_linear" x1="28.6818" y1="51.5428" x2="-27.8341" y2="-23.3188" gradientUnits="userSpaceOnUse">
<stop stop-color="#D2A374" stop-opacity="0"/>
<stop offset="1" stop-color="#B88653"/>
</linearGradient>
<linearGradient id="paint22_linear" x1="50.506" y1="54.0439" x2="37.4637" y2="39.828" gradientUnits="userSpaceOnUse">
<stop stop-color="#FFBB47" stop-opacity="0.9686"/>
<stop offset="0.0026513" stop-color="#FFBA47"/>
<stop offset="1" stop-color="#FFD748" stop-opacity="0"/>
</linearGradient>
<linearGradient id="paint23_linear" x1="13.4807" y1="3.216" x2="26.4033" y2="74.0992" gradientUnits="userSpaceOnUse">
<stop stop-color="#D2A374" stop-opacity="0"/>
<stop offset="1" stop-color="#B88653"/>
</linearGradient>
<linearGradient id="paint24_linear" x1="12.8451" y1="59.614" x2="72.0794" y2="59.614" gradientUnits="userSpaceOnUse">
<stop stop-color="#D2A374" stop-opacity="0"/>
<stop offset="1" stop-color="#B88653"/>
</linearGradient>
<linearGradient id="paint25_linear" x1="55.1811" y1="30.0941" x2="37.7902" y2="77.2783" gradientUnits="userSpaceOnUse">
<stop stop-color="#D2A374" stop-opacity="0"/>
<stop offset="1" stop-color="#B88653"/>
</linearGradient>
<linearGradient id="paint26_linear" x1="16.8745" y1="51.7903" x2="16.8715" y2="51.7882" gradientUnits="userSpaceOnUse">
<stop offset="0.00132565" stop-color="#FFCB4B"/>
<stop offset="1" stop-color="#FFD748"/>
</linearGradient>
<radialGradient id="paint27_radial" cx="0" cy="0" r="1" gradientUnits="userSpaceOnUse" gradientTransform="translate(40.4439 44.7125) rotate(169.496) scale(7.95781 4.04423)">
<stop stop-color="#E9CDB1"/>
<stop offset="1" stop-color="#E9CDB1" stop-opacity="0"/>
</radialGradient>
<radialGradient id="paint28_radial" cx="0" cy="0" r="1" gradientUnits="userSpaceOnUse" gradientTransform="translate(17.8467 38.1414) rotate(-47.8622) scale(7.98315 4.08648)">
<stop stop-color="#E9CDB1"/>
<stop offset="1" stop-color="#E9CDB1" stop-opacity="0"/>
</radialGradient>
<linearGradient id="paint29_linear" x1="23.4161" y1="21.8527" x2="43.6417" y2="35.375" gradientUnits="userSpaceOnUse">
<stop offset="0.00132565" stop-color="#0097D4"/>
<stop offset="0.2368" stop-color="#0294D6"/>
<stop offset="0.4442" stop-color="#0989DB"/>
<stop offset="0.6411" stop-color="#1477E4"/>
<stop offset="0.8304" stop-color="#245EF0"/>
<stop offset="1" stop-color="#3640FF"/>
</linearGradient>
<radialGradient id="paint30_radial" cx="0" cy="0" r="1" gradientUnits="userSpaceOnUse" gradientTransform="translate(39.0952 21.0604) rotate(-55.4814) scale(27.8835 0.597153)">
<stop stop-color="white" stop-opacity="0.5"/>
<stop offset="1" stop-color="white" stop-opacity="0"/>
</radialGradient>
<linearGradient id="paint31_linear" x1="21.4929" y1="15.3247" x2="44.4355" y2="30.9596" gradientUnits="userSpaceOnUse">
<stop offset="0.00132565" stop-color="#0097D4"/>
<stop offset="0.2368" stop-color="#0294D6"/>
<stop offset="0.4442" stop-color="#0989DB"/>
<stop offset="0.6411" stop-color="#1477E4"/>
<stop offset="0.8304" stop-color="#245EF0"/>
<stop offset="1" stop-color="#3640FF"/>
</linearGradient>
</defs>
</svg>
