<svg width="80" height="80" viewBox="0 0 80 80" fill="none" xmlns="http://www.w3.org/2000/svg">
<path d="M40 70.4762C56.8315 70.4762 70.4762 56.8315 70.4762 40C70.4762 23.1685 56.8315 9.5238 40 9.5238C23.1685 9.5238 9.5238 23.1685 9.5238 40C9.5238 56.8315 23.1685 70.4762 40 70.4762Z" fill="url(#paint0_radial)"/>
<path opacity="0.5" d="M40 70.4762C56.8315 70.4762 70.4762 56.8315 70.4762 40C70.4762 23.1685 56.8315 9.5238 40 9.5238C23.1685 9.5238 9.5238 23.1685 9.5238 40C9.5238 56.8315 23.1685 70.4762 40 70.4762Z" fill="url(#paint1_radial)"/>
<path d="M40 70.4762C56.8315 70.4762 70.4762 56.8315 70.4762 40C70.4762 23.1685 56.8315 9.5238 40 9.5238C23.1685 9.5238 9.5238 23.1685 9.5238 40C9.5238 56.8315 23.1685 70.4762 40 70.4762Z" fill="url(#paint2_linear)"/>
<path d="M40 70.4762C56.8315 70.4762 70.4762 56.8315 70.4762 40C70.4762 23.1685 56.8315 9.5238 40 9.5238C23.1685 9.5238 9.5238 23.1685 9.5238 40C9.5238 56.8315 23.1685 70.4762 40 70.4762Z" fill="url(#paint3_linear)"/>
<path opacity="0.24" d="M40 70.4762C56.8315 70.4762 70.4762 56.8315 70.4762 40C70.4762 23.1685 56.8315 9.5238 40 9.5238C23.1685 9.5238 9.5238 23.1685 9.5238 40C9.5238 56.8315 23.1685 70.4762 40 70.4762Z" fill="url(#paint4_radial)"/>
<path d="M32.7046 24.9903C32.5141 23.5427 31.0855 22.7998 28.8189 23.1046C26.8951 23.3713 22.876 25.1808 20.5713 30.0379C20.1522 30.9332 21.0284 31.276 21.4855 30.6665C23.0284 28.6094 27.4665 25.6379 31.257 25.6379C32.7998 25.6379 32.7046 24.9903 32.7046 24.9903Z" fill="url(#paint5_linear)"/>
<path d="M30.0382 41.295C31.6582 41.295 32.9715 39.308 32.9715 36.8569C32.9715 34.4058 31.6582 32.4188 30.0382 32.4188C28.4182 32.4188 27.1049 34.4058 27.1049 36.8569C27.1049 39.308 28.4182 41.295 30.0382 41.295Z" fill="url(#paint6_radial)"/>
<path d="M30.0382 33.9236C31.2953 33.9236 32.4001 35.0284 32.9715 36.6474C32.9334 34.2474 31.6382 32.3236 30.0382 32.3236C28.4382 32.3236 27.143 34.2474 27.1049 36.6474C27.6763 35.0284 28.781 33.9236 30.0382 33.9236Z" fill="url(#paint7_linear)"/>
<path d="M49.943 41.295C51.563 41.295 52.8763 39.308 52.8763 36.8569C52.8763 34.4058 51.563 32.4188 49.943 32.4188C48.3229 32.4188 47.0096 34.4058 47.0096 36.8569C47.0096 39.308 48.3229 41.295 49.943 41.295Z" fill="url(#paint8_radial)"/>
<path d="M49.943 34.0382C48.6858 34.0382 47.5811 35.143 47.0096 36.762C47.0477 34.362 48.343 32.4382 49.943 32.4382C51.543 32.4382 52.8382 34.362 52.8763 36.762C52.3049 35.124 51.2001 34.0382 49.943 34.0382Z" fill="url(#paint9_linear)"/>
<path d="M47.2763 24.9903C47.4668 23.5427 48.8953 22.7998 51.162 23.1046C53.0858 23.3713 57.1049 25.1808 59.4096 30.0379C59.8287 30.9332 58.9525 31.276 58.4954 30.6665C56.9525 28.6094 52.5144 25.6379 48.7239 25.6379C47.1811 25.6379 47.2763 24.9903 47.2763 24.9903Z" fill="url(#paint10_linear)"/>
<path d="M40 70.4762C56.8315 70.4762 70.4762 56.8315 70.4762 40C70.4762 23.1685 56.8315 9.5238 40 9.5238C23.1685 9.5238 9.5238 23.1685 9.5238 40C9.5238 56.8315 23.1685 70.4762 40 70.4762Z" fill="url(#paint11_radial)"/>
<path d="M39.9998 51.276C48.9332 51.276 51.8094 60.1141 49.0665 58.7236C45.4094 56.876 43.1046 56.6855 39.9998 56.6855C36.8951 56.6855 34.5713 56.8569 30.9332 58.7236C28.1903 60.1141 31.0474 51.276 39.9998 51.276Z" fill="#643800"/>
<path d="M10.5331 28.7427C10.5331 32.7999 13.8093 36.0761 17.8664 36.0761C21.9236 36.0761 25.1997 32.7999 25.1997 28.7427C25.1997 20.8951 17.8664 13.0666 17.8664 13.0666C17.8664 13.0666 10.5331 20.8951 10.5331 28.7427Z" fill="url(#paint12_linear)"/>
<path opacity="0.5" d="M17.7713 13.1808C17.1237 17.1998 13.0475 20.9522 13.9427 28.6284C14.6094 34.2855 23.0856 34.6284 25.1618 29.2189C24.9332 33.0474 21.7523 36.0951 17.8475 36.0951C13.7904 36.0951 10.5142 32.8189 10.5142 28.7617C10.5332 21.4093 16.9523 14.095 17.7713 13.1808Z" fill="url(#paint13_radial)"/>
<path d="M17.8664 36.0759C13.8093 36.0759 10.5331 32.7997 10.5331 28.7426C10.5331 21.6759 16.4759 14.6283 17.6569 13.295C16.3807 17.295 12.2664 22.895 12.2664 28.3426C12.2664 32.6474 18.6093 37.8855 24.7807 31.1997C23.7521 34.0569 21.0474 36.0759 17.8664 36.0759Z" fill="url(#paint14_radial)"/>
<path d="M10.5334 28.7427C10.5334 32.7999 13.8096 36.0761 17.8668 36.0761C21.9239 36.0761 25.2001 32.7999 25.2001 28.7427C25.2001 20.8951 17.8668 13.0666 17.8668 13.0666C17.8668 13.0666 10.5334 20.8951 10.5334 28.7427Z" fill="url(#paint15_radial)"/>
<path d="M10.5334 28.7427C10.5334 32.7999 13.8096 36.0761 17.8668 36.0761C21.9239 36.0761 25.2001 32.7999 25.2001 28.7427C25.2001 20.8951 17.8668 13.0666 17.8668 13.0666C17.8668 13.0666 10.5334 20.8951 10.5334 28.7427Z" fill="url(#paint16_radial)"/>
<path d="M10.5334 28.7427C10.5334 32.7999 13.8096 36.0761 17.8668 36.0761C21.9239 36.0761 25.2001 32.7999 25.2001 28.7427C25.2001 20.8951 17.8668 13.0666 17.8668 13.0666C17.8668 13.0666 10.5334 20.8951 10.5334 28.7427Z" fill="url(#paint17_radial)"/>
<path d="M40 52.8379C45.2762 52.8379 48.6095 55.8093 50.0571 58.2855C50.1333 56.495 46.8571 51.276 40 51.276C33.1238 51.276 29.8476 56.495 29.9428 58.2855C31.3904 55.8284 34.7047 52.8379 40 52.8379Z" fill="url(#paint18_linear)"/>
<defs>
<radialGradient id="paint0_radial" cx="0" cy="0" r="1" gradientUnits="userSpaceOnUse" gradientTransform="translate(33.9947 27.6444) scale(36.7656)">
<stop stop-color="#FFE030"/>
<stop offset="1" stop-color="#FFB92E"/>
</radialGradient>
<radialGradient id="paint1_radial" cx="0" cy="0" r="1" gradientUnits="userSpaceOnUse" gradientTransform="translate(33.9947 27.6444) scale(28.9251)">
<stop stop-color="#FFEA5F"/>
<stop offset="1" stop-color="#FFBC47" stop-opacity="0"/>
</radialGradient>
<linearGradient id="paint2_linear" x1="39.9909" y1="47.9959" x2="39.9909" y2="9.40948" gradientUnits="userSpaceOnUse">
<stop stop-color="white" stop-opacity="0"/>
<stop offset="1" stop-color="white"/>
</linearGradient>
<linearGradient id="paint3_linear" x1="39.9909" y1="43.4899" x2="39.9909" y2="1.20062" gradientUnits="userSpaceOnUse">
<stop stop-color="#0099D6" stop-opacity="0"/>
<stop offset="1" stop-color="#0099D6"/>
</linearGradient>
<radialGradient id="paint4_radial" cx="0" cy="0" r="1" gradientUnits="userSpaceOnUse" gradientTransform="translate(57.5512 19.6117) rotate(37.7901) scale(27.9483 14.0267)">
<stop stop-color="#3640FF"/>
<stop offset="0.4629" stop-color="#1C66F3" stop-opacity="0.5371"/>
<stop offset="1" stop-color="#008EE6" stop-opacity="0"/>
</radialGradient>
<linearGradient id="paint5_linear" x1="23.9078" y1="7.85177" x2="27.506" y2="34.6048" gradientUnits="userSpaceOnUse">
<stop offset="0.00132565"/>
<stop offset="1" stop-color="#0099D6"/>
</linearGradient>
<radialGradient id="paint6_radial" cx="0" cy="0" r="1" gradientUnits="userSpaceOnUse" gradientTransform="translate(29.1429 36.9704) rotate(73.8539) scale(4.30606 2.78595)">
<stop offset="0.00132565" stop-color="#7A4400"/>
<stop offset="1" stop-color="#643800"/>
</radialGradient>
<linearGradient id="paint7_linear" x1="30.041" y1="32.3971" x2="30.041" y2="36.5331" gradientUnits="userSpaceOnUse">
<stop offset="0.00132565" stop-color="#3C2200"/>
<stop offset="1" stop-color="#512D00"/>
</linearGradient>
<radialGradient id="paint8_radial" cx="0" cy="0" r="1" gradientUnits="userSpaceOnUse" gradientTransform="translate(49.044 36.9712) rotate(73.8539) scale(4.30606 2.78596)">
<stop offset="0.00132565" stop-color="#7A4400"/>
<stop offset="1" stop-color="#643800"/>
</radialGradient>
<linearGradient id="paint9_linear" x1="49.9412" y1="32.5062" x2="49.9412" y2="36.6423" gradientUnits="userSpaceOnUse">
<stop offset="0.00132565" stop-color="#3C2200"/>
<stop offset="1" stop-color="#512D00"/>
</linearGradient>
<linearGradient id="paint10_linear" x1="55.7866" y1="10.0499" x2="52.1884" y2="36.803" gradientUnits="userSpaceOnUse">
<stop offset="0.00132565"/>
<stop offset="1" stop-color="#0099D6"/>
</linearGradient>
<radialGradient id="paint11_radial" cx="0" cy="0" r="1" gradientUnits="userSpaceOnUse" gradientTransform="translate(17.0884 25.9138) rotate(72.6921) scale(27.5316 14.8082)">
<stop stop-color="#EB672A" stop-opacity="0.5"/>
<stop offset="0.3462" stop-color="#DC641B" stop-opacity="0.2846"/>
<stop offset="0.8036" stop-color="#C25E00" stop-opacity="0"/>
</radialGradient>
<linearGradient id="paint12_linear" x1="38.7914" y1="30.7825" x2="-2.58075" y2="18.8252" gradientUnits="userSpaceOnUse">
<stop stop-color="#D1F2FF"/>
<stop offset="0.668" stop-color="#80DAFE"/>
<stop offset="1" stop-color="#0099D6"/>
</linearGradient>
<radialGradient id="paint13_radial" cx="0" cy="0" r="1" gradientUnits="userSpaceOnUse" gradientTransform="translate(18.7433 23.4962) rotate(169.572) scale(11.7456 18.0871)">
<stop offset="0.0599486" stop-color="#80DAFE"/>
<stop offset="0.566" stop-color="#80DAFE"/>
<stop offset="1" stop-color="#0099D6"/>
</radialGradient>
<radialGradient id="paint14_radial" cx="0" cy="0" r="1" gradientUnits="userSpaceOnUse" gradientTransform="translate(16.3803 24.8287) rotate(180) scale(9.49556 16.3827)">
<stop offset="0.3432" stop-color="#80DAFE"/>
<stop offset="1" stop-color="#0099D6"/>
</radialGradient>
<radialGradient id="paint15_radial" cx="0" cy="0" r="1" gradientUnits="userSpaceOnUse" gradientTransform="translate(20.7677 22.5102) rotate(-103.604) scale(10.6571 4.69541)">
<stop stop-color="white" stop-opacity="0.25"/>
<stop offset="1" stop-color="white" stop-opacity="0"/>
</radialGradient>
<radialGradient id="paint16_radial" cx="0" cy="0" r="1" gradientUnits="userSpaceOnUse" gradientTransform="translate(18.7039 22.8165) rotate(108.995) scale(16.6629 12.6633)">
<stop offset="0.5858" stop-color="#0099D6" stop-opacity="0"/>
<stop offset="0.7213" stop-color="#1477E5" stop-opacity="0.1635"/>
<stop offset="0.9048" stop-color="#2D4FF8" stop-opacity="0.385"/>
<stop offset="1" stop-color="#3640FF" stop-opacity="0.5"/>
</radialGradient>
<radialGradient id="paint17_radial" cx="0" cy="0" r="1" gradientUnits="userSpaceOnUse" gradientTransform="translate(20.7677 22.5102) rotate(-103.604) scale(13.3974 5.90274)">
<stop stop-color="white" stop-opacity="0.45"/>
<stop offset="1" stop-color="white" stop-opacity="0"/>
</radialGradient>
<linearGradient id="paint18_linear" x1="39.9905" y1="48.9663" x2="39.9905" y2="56.0185" gradientUnits="userSpaceOnUse">
<stop offset="0.00132565" stop-color="#3C2200"/>
<stop offset="1" stop-color="#512D00"/>
</linearGradient>
</defs>
</svg>
