<svg width="80" height="80" viewBox="0 0 80 80" fill="none" xmlns="http://www.w3.org/2000/svg">
<path d="M20.9145 11.2012C20.9145 14.1837 20.6627 18.4676 20.6627 20.4815C20.6627 22.4955 18 24.9147 18 34.3529C18 43.7911 21.3071 45.7282 23.7266 45.6471C26.1461 45.566 26.4448 47.452 29.0606 47.9597C31.0705 48.348 31.4588 47.3709 32.7518 47.3709C34.0405 47.3709 34.7105 49.2782 36.8825 49.2782C39.0545 49.2782 40.8297 47.5842 40.8297 47.5842C40.8297 47.5842 40.8297 59.847 40.8297 64.1992C40.8297 68.5513 40.467 74 45.1865 74C49.9061 74 49.3428 68.1929 49.3428 65.108C49.3428 62.0231 49.4239 43.326 49.4239 43.326C49.4239 43.326 51.4807 50.9508 57.4121 50.9508C63.3436 50.9508 62.2042 46.8247 59.2257 43.5094C53.9813 37.6682 56.9256 23.8907 44.7043 19.1887C44.7043 19.1887 43.3857 18.7876 44.9262 10.0961C44.9262 10.0961 44.2648 6 33.9125 6C22.7878 6 20.9145 11.2012 20.9145 11.2012Z" fill="url(#paint0_linear)"/>
<path d="M60.2625 50.4259C59.5925 50.7501 58.6666 50.9464 57.4077 50.9464C52.1293 50.9464 49.9231 44.9174 49.5007 43.5904L49.2788 37.5998V32.1597C50.9984 42.4171 56.6012 49.7645 60.2625 50.4259Z" fill="url(#paint1_linear)"/>
<path d="M57.4079 50.9466C51.4764 50.9466 49.4196 43.3218 49.4196 43.3218L49.138 31.9507C49.138 31.9507 50.7211 37.3013 50.9131 41.4486C51.1564 46.6883 54.8603 50.8442 58.8161 50.8484C58.3979 50.9124 57.9327 50.9466 57.4079 50.9466Z" fill="url(#paint2_linear)"/>
<path d="M40.8296 64.1946C40.8296 59.8382 40.8296 47.5797 40.8296 47.5797C40.8296 47.5797 39.5792 48.7659 37.8936 49.1542C38.73 48.8725 40.3303 46.9354 41.0045 45.8858C41.73 44.7551 42.1994 47.0165 42.1994 50.0032C42.1994 52.9857 42.4426 64.5061 42.4426 69.1612C42.4426 71.9431 43.5265 73.9997 45.1865 73.9997C40.4669 73.9954 40.8296 68.551 40.8296 64.1946Z" fill="url(#paint3_linear)"/>
<path d="M29.3807 48.0067C30.5841 48.0025 30.9895 46.4878 32.722 46.4878C34.4544 46.4878 35.5127 49.2697 36.8825 49.2697C34.7105 49.2697 34.0405 47.3625 32.7518 47.3625C31.5271 47.3667 31.1132 48.2372 29.3807 48.0067Z" fill="url(#paint4_linear)"/>
<path d="M22.0113 14.5295C22.4337 21.7276 27.8788 16.5946 22.071 24.3303C18.751 28.7507 19.5917 37.0368 19.9544 40.3009C20.3171 43.5693 23.0994 44.2349 25.0368 44.7171C26.7181 45.1352 27.3497 47.307 28.7067 47.8745C26.4151 47.2729 26.0311 45.5704 23.7267 45.6472C21.3071 45.7283 18 43.7912 18 34.353C18 24.9149 20.6628 22.4956 20.6628 20.4817C20.6628 18.4677 20.9146 14.1839 20.9146 11.2014C20.9146 11.2014 21.5589 9.40929 24.3412 7.92871C23.8291 9.6397 21.8576 11.9224 22.0113 14.5295Z" fill="url(#paint5_linear)"/>
<path d="M44.7001 19.1842C51.0838 21.6419 53.3284 26.5701 54.7665 31.5537C51.8818 23.7284 44.2776 21.1768 43.1895 19.5469C42.1867 18.0407 41.4356 13.4454 44.0813 8.70068C44.8238 9.46444 44.922 10.0874 44.922 10.0874C43.3815 18.7831 44.7001 19.1842 44.7001 19.1842Z" fill="url(#paint6_linear)"/>
<path d="M33.2169 6.00439C34.0789 11.3678 30.1445 16.3515 30.1445 24.5608C30.1445 33.5723 24.2728 38.3 27.5116 47.3968C26.1803 46.6544 25.5615 45.5834 23.7266 45.6474C21.3071 45.7285 18 43.7914 18 34.3532C18 24.915 20.6627 22.4957 20.6627 20.4817C20.6627 18.4678 20.9188 14.1839 20.9145 11.2014C20.9145 11.2014 22.711 6.21774 33.2169 6.00439Z" fill="url(#paint7_linear)"/>
<path d="M49.0954 31.6519C49.0954 31.6519 49.4197 43.2404 49.4197 43.3214L49.6629 44.0596C49.8293 44.0596 49.8847 43.5561 49.8847 43.3854C49.8847 43.0526 50.1493 34.9671 49.0954 31.6519Z" fill="#3D2A20"/>
<path opacity="0.08" d="M45.6344 70.3899C44.2177 70.3899 43.0015 67.049 43.9147 60.4738C44.8236 53.8944 41.7 45.8003 45.1864 45.8003C48.6728 45.8003 46.953 58.8525 46.953 60.8792C46.9488 62.9017 48.4679 70.3899 45.6344 70.3899Z" fill="url(#paint8_radial)"/>
<path opacity="0.08" d="M28.1987 13.1855C30.7419 13.1855 32.1928 12.3364 34.2496 12.3364C36.3064 12.3364 42.9633 13.5823 42.9633 18.0241C42.9633 22.4658 39.3318 31.4773 35.3377 32.6165C31.3436 33.7558 24.2429 28.2985 23.6413 24.6632C23.0396 21.0279 24.2046 13.1855 28.1987 13.1855Z" fill="url(#paint9_radial)"/>
<defs>
<linearGradient id="paint0_linear" x1="0.640307" y1="34.3987" x2="55.7445" y2="42.1414" gradientUnits="userSpaceOnUse">
<stop offset="0.00132565" stop-color="#5A4539"/>
<stop offset="1" stop-color="#695042"/>
</linearGradient>
<linearGradient id="paint1_linear" x1="62.3022" y1="39.6812" x2="28.0966" y2="47.2719" gradientUnits="userSpaceOnUse">
<stop stop-color="#3C2200" stop-opacity="0"/>
<stop offset="0.9984"/>
</linearGradient>
<linearGradient id="paint2_linear" x1="48.2437" y1="42.9446" x2="65.1442" y2="38.3901" gradientUnits="userSpaceOnUse">
<stop stop-color="#3C2200" stop-opacity="0"/>
<stop offset="0.9984"/>
</linearGradient>
<linearGradient id="paint3_linear" x1="47.7266" y1="60.0547" x2="18.1751" y2="58.334" gradientUnits="userSpaceOnUse">
<stop stop-color="#3C2200" stop-opacity="0"/>
<stop offset="0.9984"/>
</linearGradient>
<linearGradient id="paint4_linear" x1="86.4712" y1="-1998.95" x2="87.2804" y2="-2030.01" gradientUnits="userSpaceOnUse">
<stop stop-color="#3C2200" stop-opacity="0"/>
<stop offset="0.9984"/>
</linearGradient>
<linearGradient id="paint5_linear" x1="44.0218" y1="28.2699" x2="10.5234" y2="27.5614" gradientUnits="userSpaceOnUse">
<stop stop-color="#473226" stop-opacity="0"/>
<stop offset="1" stop-color="#3D2A20"/>
</linearGradient>
<linearGradient id="paint6_linear" x1="38.6462" y1="21.8858" x2="80.5436" y2="15.054" gradientUnits="userSpaceOnUse">
<stop stop-color="#3C2200" stop-opacity="0"/>
<stop offset="0.9984"/>
</linearGradient>
<linearGradient id="paint7_linear" x1="25.3854" y1="25.5233" x2="22.6535" y2="74.0956" gradientUnits="userSpaceOnUse">
<stop stop-color="#473226" stop-opacity="0"/>
<stop offset="1" stop-color="#473226"/>
</linearGradient>
<radialGradient id="paint8_radial" cx="0" cy="0" r="1" gradientUnits="userSpaceOnUse" gradientTransform="translate(45.4326 58.0941) rotate(-88.4116) scale(12.7009 1.48171)">
<stop stop-color="#F8DBBA"/>
<stop offset="1" stop-color="#CD9870" stop-opacity="0"/>
</radialGradient>
<radialGradient id="paint9_radial" cx="0" cy="0" r="1" gradientUnits="userSpaceOnUse" gradientTransform="translate(33.2763 17.2029) rotate(180) scale(10.3581 5.2591)">
<stop stop-color="#F8DBBA"/>
<stop offset="1" stop-color="#CD9870" stop-opacity="0"/>
</radialGradient>
</defs>
</svg>
