<svg width="24" height="24" viewBox="0 0 24 24" fill="none" xmlns="http://www.w3.org/2000/svg">
<path d="M9.74452 13.092C8.4157 13.7856 6.65276 13.0338 5.80041 11.4085C4.94805 9.7832 5.33982 7.90379 6.66335 7.21026C7.98687 6.51673 9.75511 7.2685 10.6075 8.89379C11.4598 10.5191 11.068 12.3985 9.74452 13.092Z" fill="url(#paint0_linear)"/>
<path d="M9.74452 13.092C8.4157 13.7856 6.65276 13.0338 5.80041 11.4085C4.94805 9.7832 5.33982 7.90379 6.66335 7.21026C7.98687 6.51673 9.75511 7.2685 10.6075 8.89379C11.4598 10.5191 11.068 12.3985 9.74452 13.092Z" fill="url(#paint1_radial)"/>
<path d="M12.1852 15.162L4.92693 12.2556C4.15399 11.9485 3.77811 11.0697 4.09046 10.2967C4.48752 9.30673 5.75811 9.03143 6.52576 9.76732L12.1852 15.162Z" fill="url(#paint2_linear)"/>
<path d="M12 19.6834C16.1505 19.6834 18.427 19.2704 19.6129 18.9157C20.2958 18.7146 20.7617 18.0846 20.7617 17.3751C20.7617 16.3693 19.8564 15.6122 18.8664 15.7922C17.2623 16.0781 14.7847 16.2634 12.0052 16.2634C9.22584 16.2634 6.74819 16.0781 5.14407 15.7922C4.15407 15.6175 3.24878 16.3746 3.24878 17.3751C3.24878 18.0846 3.71466 18.7146 4.3976 18.9157C5.5729 19.2704 7.84937 19.6834 12 19.6834Z" fill="url(#paint3_linear)"/>
<path d="M20.4971 16.4907C20.1583 15.9719 19.5283 15.6701 18.8665 15.7866C17.2624 16.0725 14.7847 16.2578 12.0053 16.2578C9.2259 16.2578 6.74826 16.0725 5.14414 15.7866C4.47708 15.6701 3.85237 15.9719 3.51355 16.4907C3.61414 16.6019 3.72531 16.6972 3.8312 16.7766C5.58355 18.0366 12 17.9625 12 17.9625C12 17.9625 13.7312 17.9837 15.6424 17.8249C17.4106 17.6819 19.3324 17.3801 20.1794 16.7766C20.2853 16.6972 20.3912 16.6019 20.4971 16.4907Z" fill="url(#paint4_linear)"/>
<path d="M13.6305 19.3292C13.6305 18.7203 13.8688 18.138 14.2976 17.7039L14.3029 17.6986L13.6252 17.0209V16.2427C13.0958 16.2586 12.5505 16.2639 11.9946 16.2639C11.4335 16.2639 10.8882 16.2586 10.3535 16.2427C10.3111 16.7933 10.0782 17.3068 9.6864 17.6986C10.1205 18.1327 10.364 18.7203 10.364 19.3292C10.7982 19.3292 11.2217 19.4509 11.587 19.6786C11.7193 19.6786 11.857 19.6786 11.9946 19.6786C12.1323 19.6786 12.2699 19.6786 12.4023 19.6786C12.7729 19.4562 13.1964 19.3292 13.6305 19.3292Z" fill="url(#paint5_linear)"/>
<path d="M14.2553 13.092C15.5841 13.7856 17.347 13.0338 18.1994 11.4085C19.0517 9.7832 18.66 7.90379 17.3364 7.21026C16.0076 6.51673 14.2447 7.2685 13.3923 8.89379C12.54 10.5191 12.9317 12.3985 14.2553 13.092Z" fill="url(#paint6_linear)"/>
<path d="M14.2553 13.092C15.5841 13.7856 17.347 13.0338 18.1994 11.4085C19.0517 9.7832 18.66 7.90379 17.3364 7.21026C16.0076 6.51673 14.2447 7.2685 13.3923 8.89379C12.54 10.5191 12.9317 12.3985 14.2553 13.092Z" fill="url(#paint7_radial)"/>
<path d="M11.8147 15.162L19.0729 12.2556C19.8459 11.9485 20.2218 11.0697 19.9094 10.2967C19.5123 9.30673 18.2418 9.03143 17.4741 9.76732L11.8147 15.162Z" fill="url(#paint8_linear)"/>
<path d="M16.0076 7.80311C16.2564 8.42782 16.3835 10.0213 15.8382 11.329L15.4676 11.6784C15.4676 11.6784 15.1235 12.4037 15.7164 13.0284L14.0541 14.3837L12.4764 11.0061L14.3294 7.15723L16.0076 7.80311Z" fill="url(#paint9_linear)"/>
<path d="M7.99223 7.80311C7.74341 8.42782 7.61635 10.0213 8.16164 11.329L8.53223 11.6784C8.53223 11.6784 8.87635 12.4037 8.28341 13.0284L9.94576 14.3837L11.5234 11.0061L9.67047 7.15723L7.99223 7.80311Z" fill="url(#paint10_linear)"/>
<path d="M4.2864 16.4908C5.94876 17.682 11.9999 17.6079 11.9999 17.6079C11.9999 17.6079 13.6305 17.6291 15.4305 17.4808C14.5041 17.4808 12.6935 16.5438 11.9999 15.3685C1.21052 7.63376 2.29582 15.0667 4.2864 16.4908Z" fill="url(#paint11_linear)"/>
<path d="M11.9999 15.3685C1.21052 7.63376 2.29582 15.0667 4.2864 16.4908C5.94876 17.682 11.9999 17.6079 11.9999 17.6079C11.9999 17.6079 18.0511 17.682 19.7135 16.4908C21.7041 15.0667 22.7893 7.63376 11.9999 15.3685Z" fill="url(#paint12_linear)"/>
<path d="M11.9999 15.3685C12.6934 16.5438 14.5093 17.4808 15.4305 17.4808C17.0981 17.3432 18.9087 17.0626 19.7081 16.4908C21.704 15.0667 22.7893 7.63376 11.9999 15.3685Z" fill="url(#paint13_linear)"/>
<path opacity="0.5" d="M11.9999 15.3685C1.21052 7.63376 2.29582 15.0667 4.2864 16.4908C5.94876 17.682 11.9999 17.6079 11.9999 17.6079C11.9999 17.6079 13.6305 17.6291 15.4305 17.4808C17.0982 17.3432 18.9088 17.0626 19.7082 16.4908C21.7041 15.0667 22.7893 7.63376 11.9999 15.3685Z" fill="url(#paint14_linear)"/>
<path d="M14.5675 13.6748C13.7999 14.1354 12.9475 14.6913 11.9999 15.3689C11.0946 14.723 10.274 14.1777 9.53284 13.733C10.6446 15.7236 11.3011 16.6501 12.0899 16.6501C12.0952 16.6501 12.1058 16.6501 12.1111 16.6501C12.9105 16.6342 13.5246 15.6972 14.5675 13.6748Z" fill="url(#paint15_linear)"/>
<path d="M11.9999 4.82764C8.95047 4.82764 6.92282 7.98823 8.1987 10.7623L8.7387 11.9376C12.1375 17.6129 12.1375 17.6129 15.2664 11.9376L15.8064 10.7623C17.0769 7.98823 15.0493 4.82764 11.9999 4.82764Z" fill="url(#paint16_linear)"/>
<path d="M11.6982 7.25272L10.6817 6.23625C10.5176 6.07213 10.5176 5.80213 10.6817 5.63272L11.6982 4.61625C11.8623 4.45213 12.1323 4.45213 12.3017 4.61625L13.3181 5.63272C13.4823 5.79684 13.4823 6.06684 13.3181 6.23625L12.3017 7.25272C12.1323 7.42213 11.8676 7.42213 11.6982 7.25272Z" fill="url(#paint17_linear)"/>
<path d="M10.687 6.24164L11.6982 7.25281C11.8623 7.41693 12.1323 7.41693 12.3017 7.25281L13.3182 6.23634C13.4823 6.07222 13.4823 5.80222 13.3182 5.63281C12.6617 6.13046 11.7776 6.20458 11.047 5.81811L10.687 5.63281C10.5176 5.80222 10.5176 6.07222 10.687 6.24164Z" fill="url(#paint18_linear)"/>
<path d="M11.9998 7.09388L11.1051 6.19917C10.9622 6.05623 10.9622 5.82329 11.1051 5.67506L11.9998 4.78564L12.8945 5.68035C13.0375 5.82329 13.0375 6.05623 12.8945 6.20447L11.9998 7.09388Z" fill="url(#paint19_linear)"/>
<path d="M11.9998 7.09388C13.1487 5.94506 10.8457 5.93976 11.9998 4.78564L11.1051 5.68035C10.9622 5.82329 10.9622 6.05623 11.1051 6.20447L11.9998 7.09388Z" fill="url(#paint20_linear)"/>
<path d="M12.8946 6.19917L12.5769 6.51682L12.8946 6.19917C13.0375 6.05623 13.0375 5.82329 12.8946 5.67506L11.9999 4.78564V5.12447C11.9999 5.64329 12.2116 6.09859 12.8946 6.19917Z" fill="url(#paint21_linear)"/>
<path d="M11.9787 5.97165C11.5869 5.81812 11.3169 5.44753 11.2958 5.0293L10.6869 5.63812C10.5228 5.80224 10.5228 6.07224 10.6869 6.24165L11.6981 7.25283C11.8622 7.41694 12.1322 7.41694 12.3016 7.25283L12.6616 6.89283C12.6299 6.48518 12.3652 6.12518 11.9787 5.97165Z" fill="url(#paint22_linear)"/>
<path d="M11.6982 10.7313L10.6817 9.71484C10.5176 9.55073 10.5176 9.28073 10.6817 9.11132L11.6982 8.10014C11.8623 7.93602 12.1323 7.93602 12.3017 8.10014L13.3181 9.11661C13.4823 9.28073 13.4823 9.55073 13.3181 9.72014L12.3017 10.7366C12.1323 10.8954 11.8676 10.8954 11.6982 10.7313Z" fill="url(#paint23_linear)"/>
<path d="M10.687 9.71486L11.7034 10.7313C11.8675 10.8954 12.1375 10.8954 12.307 10.7313L13.3234 9.71486C13.4875 9.55074 13.4875 9.28074 13.3234 9.11133C12.667 9.60898 11.7828 9.68309 11.0522 9.29662L10.6922 9.11133C10.5175 9.28074 10.5175 9.55074 10.687 9.71486Z" fill="url(#paint24_linear)"/>
<path d="M11.9998 10.567L11.1051 9.67232C10.9622 9.52938 10.9622 9.29644 11.1051 9.1482L11.9998 8.25879L12.8945 9.1535C13.0375 9.29644 13.0375 9.52938 12.8945 9.67761L11.9998 10.567Z" fill="url(#paint25_linear)"/>
<path d="M11.9998 10.567C13.1487 9.4182 10.8457 9.41291 11.9998 8.25879L11.1051 9.1535C10.9622 9.29644 10.9622 9.52938 11.1051 9.67761L11.9998 10.567Z" fill="url(#paint26_linear)"/>
<path d="M12.8946 9.67761L12.5769 9.99526L12.8946 9.67761C13.0375 9.53467 13.0375 9.30173 12.8946 9.1535L11.9999 8.25879V8.59761C11.9999 9.12173 12.2116 9.57173 12.8946 9.67761Z" fill="url(#paint27_linear)"/>
<path d="M11.9787 9.45017C11.5869 9.29664 11.3169 8.92605 11.2958 8.50781L10.6869 9.11664C10.5228 9.28075 10.5228 9.55075 10.6869 9.72017L11.7034 10.7366C11.8675 10.9008 12.1375 10.9008 12.3069 10.7366L12.6669 10.3766C12.6299 9.9584 12.3652 9.5984 11.9787 9.45017Z" fill="url(#paint28_linear)"/>
<path d="M11.6982 14.2039L10.6817 13.1874C10.5176 13.0233 10.5176 12.7533 10.6817 12.5839L11.6982 11.5674C11.8623 11.4033 12.1323 11.4033 12.3017 11.5674L13.3181 12.5839C13.4823 12.748 13.4823 13.018 13.3181 13.1874L12.3017 14.2039C12.1323 14.3733 11.8676 14.3733 11.6982 14.2039Z" fill="url(#paint29_linear)"/>
<path d="M10.687 13.1924L11.7034 14.2089C11.8675 14.373 12.1375 14.373 12.307 14.2089L13.3234 13.1924C13.4875 13.0283 13.4875 12.7583 13.3234 12.5889C12.667 13.0865 11.7828 13.1606 11.0522 12.7742L10.6922 12.5889C10.5175 12.753 10.5175 13.023 10.687 13.1924Z" fill="url(#paint30_linear)"/>
<path d="M11.9998 14.045L11.1051 13.1503C10.9622 13.0073 10.9622 12.7744 11.1051 12.6262L11.9998 11.7314L12.8945 12.6262C13.0375 12.7691 13.0375 13.002 12.8945 13.1503L11.9998 14.045Z" fill="url(#paint31_linear)"/>
<path d="M11.9998 14.045C13.1487 12.8962 10.8457 12.8909 11.9998 11.7368L11.1051 12.6315C10.9622 12.7745 10.9622 13.0074 11.1051 13.1556L11.9998 14.045Z" fill="url(#paint32_linear)"/>
<path d="M12.8946 13.1503L12.5769 13.468L12.8946 13.1503C13.0375 13.0074 13.0375 12.7745 12.8946 12.6262L11.9999 11.7368V12.0756C11.9999 12.5945 12.2116 13.0498 12.8946 13.1503Z" fill="url(#paint33_linear)"/>
<path d="M11.9787 12.9228C11.5869 12.7693 11.3169 12.3987 11.2958 11.9805L10.6869 12.5893C10.5228 12.7534 10.5228 13.0234 10.6869 13.1928L11.7034 14.2093C11.8675 14.3734 12.1375 14.3734 12.3069 14.2093L12.6669 13.8493C12.6299 13.4364 12.3652 13.0764 11.9787 12.9228Z" fill="url(#paint34_linear)"/>
<path opacity="0.5" d="M11.9999 17.6082C11.9999 17.6082 13.6305 17.6293 15.4305 17.4811C17.0981 17.3434 18.9087 17.0629 19.7081 16.4911C20.0946 16.2158 20.4493 15.7129 20.6876 15.1358C19.5917 16.3693 18.2629 15.8346 16.9023 15.9882C15.5152 16.1417 13.9799 17.2852 12.1005 17.2852C10.2211 17.2852 9.02462 17.1264 7.91285 16.2952C6.80109 15.464 4.06403 16.634 3.02109 13.897L3.0105 13.9234C3.08991 14.9293 3.6405 16.0252 4.29167 16.4911C5.94873 17.6823 11.9999 17.6082 11.9999 17.6082Z" fill="url(#paint35_linear)"/>
<path d="M13.6304 16.6921L13.6357 15.7392C13.0216 15.7392 12.434 15.4956 12.0051 15.0615C11.571 15.4956 10.9834 15.7392 10.3745 15.7392C10.3745 16.3533 10.131 16.9409 9.6969 17.3698C10.131 17.8039 10.3745 18.3915 10.3745 19.0003C10.9887 19.0003 11.5763 19.2439 12.0051 19.678C12.4393 19.2439 13.0269 19.0003 13.6357 19.0003C13.6357 18.3915 13.874 17.8092 14.3028 17.3751L14.3081 17.3698L13.6304 16.6921Z" fill="url(#paint36_linear)"/>
<path d="M13.6357 15.7393H10.3693V19.0057H13.6357V15.7393Z" fill="url(#paint37_linear)"/>
<path d="M11.9999 19.6833L9.69165 17.3751L11.9999 15.0615L14.3081 17.3751L11.9999 19.6833Z" fill="url(#paint38_linear)"/>
<path d="M10.3693 15.7393L11.9998 16.1204L13.2546 17.3751L13.6304 19.0057L11.9998 18.6299L10.7451 17.3751L10.3693 15.7393Z" fill="url(#paint39_linear)"/>
<path d="M13.6304 15.7393L13.2546 17.3751L11.9998 18.6299L10.3693 19.0057L10.7451 17.3751L11.9998 16.1204L13.6304 15.7393Z" fill="url(#paint40_linear)"/>
<path d="M11.9999 18.63L10.7452 17.3753L11.9999 16.1206L13.2547 17.3753L11.9999 18.63Z" fill="url(#paint41_linear)"/>
<defs>
<linearGradient id="paint0_linear" x1="1.9363" y1="13.4189" x2="8.3127" y2="10.0815" gradientUnits="userSpaceOnUse">
<stop stop-color="#EECD82"/>
<stop offset="1" stop-color="#EFEFEF"/>
</linearGradient>
<radialGradient id="paint1_radial" cx="0" cy="0" r="1" gradientUnits="userSpaceOnUse" gradientTransform="translate(7.85674 8.81499) rotate(62.0877) scale(3.99747 2.73317)">
<stop stop-color="#EFEFEF"/>
<stop offset="0.2976" stop-color="#EFEEEC"/>
<stop offset="0.4767" stop-color="#EFECE4"/>
<stop offset="0.6243" stop-color="#EFE7D6"/>
<stop offset="0.7548" stop-color="#EFE1C2"/>
<stop offset="0.874" stop-color="#EED9A7"/>
<stop offset="0.9836" stop-color="#EECF87"/>
<stop offset="1" stop-color="#EECD82"/>
</radialGradient>
<linearGradient id="paint2_linear" x1="6.17672" y1="14.8715" x2="8.53079" y2="12.2174" gradientUnits="userSpaceOnUse">
<stop stop-color="#EECD82"/>
<stop offset="1" stop-color="#EFEFEF"/>
</linearGradient>
<linearGradient id="paint3_linear" x1="11.9999" y1="15.8708" x2="11.9999" y2="19.1942" gradientUnits="userSpaceOnUse">
<stop stop-color="#9F00E8"/>
<stop offset="0.9996" stop-color="#7000A3"/>
</linearGradient>
<linearGradient id="paint4_linear" x1="12" y1="15.8236" x2="12" y2="17.6877" gradientUnits="userSpaceOnUse">
<stop stop-color="#7000A3"/>
<stop offset="0.9996" stop-color="#7000A3"/>
</linearGradient>
<linearGradient id="paint5_linear" x1="11.9999" y1="16.9176" x2="11.9999" y2="20.3816" gradientUnits="userSpaceOnUse">
<stop stop-color="#7000A3"/>
<stop offset="0.9996" stop-color="#7000A3"/>
</linearGradient>
<linearGradient id="paint6_linear" x1="22.0636" y1="13.4186" x2="15.6872" y2="10.0812" gradientUnits="userSpaceOnUse">
<stop stop-color="#EECD82"/>
<stop offset="1" stop-color="#EFEFEF"/>
</linearGradient>
<radialGradient id="paint7_radial" cx="0" cy="0" r="1" gradientUnits="userSpaceOnUse" gradientTransform="translate(16.1435 8.81509) rotate(117.912) scale(3.99747 2.73317)">
<stop stop-color="#EFEFEF"/>
<stop offset="0.2976" stop-color="#EFEEEC"/>
<stop offset="0.4767" stop-color="#EFECE4"/>
<stop offset="0.6243" stop-color="#EFE7D6"/>
<stop offset="0.7548" stop-color="#EFE1C2"/>
<stop offset="0.874" stop-color="#EED9A7"/>
<stop offset="0.9836" stop-color="#EECF87"/>
<stop offset="1" stop-color="#EECD82"/>
</radialGradient>
<linearGradient id="paint8_linear" x1="17.8232" y1="14.8715" x2="15.4691" y2="12.2174" gradientUnits="userSpaceOnUse">
<stop stop-color="#EECD82"/>
<stop offset="1" stop-color="#EFEFEF"/>
</linearGradient>
<linearGradient id="paint9_linear" x1="13.2886" y1="9.2315" x2="17.9036" y2="14.1466" gradientUnits="userSpaceOnUse">
<stop stop-color="#EECD82"/>
<stop offset="1" stop-color="#EFEFEF"/>
</linearGradient>
<linearGradient id="paint10_linear" x1="10.7113" y1="9.2315" x2="6.09626" y2="14.1466" gradientUnits="userSpaceOnUse">
<stop stop-color="#EECD82"/>
<stop offset="1" stop-color="#EFEFEF"/>
</linearGradient>
<linearGradient id="paint11_linear" x1="10.9205" y1="18.6248" x2="7.36636" y2="13.5012" gradientUnits="userSpaceOnUse">
<stop stop-color="#EECD82"/>
<stop offset="1" stop-color="#EFEFEF"/>
</linearGradient>
<linearGradient id="paint12_linear" x1="11.9999" y1="20.1078" x2="11.9999" y2="14.2088" gradientUnits="userSpaceOnUse">
<stop stop-color="#EECD82"/>
<stop offset="1" stop-color="#EFEFEF"/>
</linearGradient>
<linearGradient id="paint13_linear" x1="13.9429" y1="17.3164" x2="17.5124" y2="14.7316" gradientUnits="userSpaceOnUse">
<stop stop-color="#EECD82"/>
<stop offset="1" stop-color="#EFEFEF"/>
</linearGradient>
<linearGradient id="paint14_linear" x1="2.99995" y1="14.7583" x2="21.0478" y2="14.7583" gradientUnits="userSpaceOnUse">
<stop stop-color="#EECD82"/>
<stop offset="0.0115912" stop-color="#F0D28F" stop-opacity="0.942"/>
<stop offset="0.0521947" stop-color="#F5E2B7" stop-opacity="0.739"/>
<stop offset="0.0921422" stop-color="#F9EFD6" stop-opacity="0.5393"/>
<stop offset="0.1307" stop-color="#FDF8ED" stop-opacity="0.3463"/>
<stop offset="0.1674" stop-color="#FEFDFA" stop-opacity="0.1631"/>
<stop offset="0.2" stop-color="white" stop-opacity="0"/>
<stop offset="0.2697" stop-color="#F8F8F8" stop-opacity="0"/>
<stop offset="0.41" stop-color="#F1F1F1" stop-opacity="0"/>
<stop offset="0.8" stop-color="#EFEFEF" stop-opacity="0"/>
<stop offset="0.8884" stop-color="#EFEEED" stop-opacity="0.442"/>
<stop offset="0.9202" stop-color="#EFECE6" stop-opacity="0.6012"/>
<stop offset="0.9429" stop-color="#EFE9DB" stop-opacity="0.7147"/>
<stop offset="0.9613" stop-color="#EFE3CA" stop-opacity="0.8065"/>
<stop offset="0.977" stop-color="#EEDCB4" stop-opacity="0.885"/>
<stop offset="0.9907" stop-color="#EED499" stop-opacity="0.9534"/>
<stop offset="1" stop-color="#EECD82"/>
</linearGradient>
<linearGradient id="paint15_linear" x1="12.0486" y1="13.4584" x2="12.0486" y2="17.4082" gradientUnits="userSpaceOnUse">
<stop stop-color="#EECD82"/>
<stop offset="1" stop-color="#EFEFEF" stop-opacity="0"/>
</linearGradient>
<linearGradient id="paint16_linear" x1="11.9999" y1="1.75656" x2="11.9999" y2="10.62" gradientUnits="userSpaceOnUse">
<stop stop-color="#EECD82"/>
<stop offset="1" stop-color="#EFEFEF"/>
</linearGradient>
<linearGradient id="paint17_linear" x1="10.917" y1="4.3213" x2="13.3295" y2="7.92551" gradientUnits="userSpaceOnUse">
<stop stop-color="#E74839"/>
<stop offset="0.9996" stop-color="#860805"/>
</linearGradient>
<linearGradient id="paint18_linear" x1="11.9999" y1="7.36057" x2="11.9999" y2="5.34094" gradientUnits="userSpaceOnUse">
<stop stop-color="#E74839"/>
<stop offset="0.9996" stop-color="#860805"/>
</linearGradient>
<linearGradient id="paint19_linear" x1="11.9998" y1="3.49279" x2="11.9998" y2="8.19441" gradientUnits="userSpaceOnUse">
<stop stop-color="#E74839"/>
<stop offset="0.9996" stop-color="#FF0000"/>
</linearGradient>
<linearGradient id="paint20_linear" x1="11.6651" y1="3.53894" x2="11.6651" y2="8.30865" gradientUnits="userSpaceOnUse">
<stop stop-color="#E74839"/>
<stop offset="0.9996" stop-color="#860805"/>
</linearGradient>
<linearGradient id="paint21_linear" x1="12.3011" y1="5.76521" x2="13.2935" y2="3.99965" gradientUnits="userSpaceOnUse">
<stop stop-color="white" stop-opacity="0"/>
<stop offset="0.9996" stop-color="white"/>
</linearGradient>
<linearGradient id="paint22_linear" x1="11.7333" y1="6.19916" x2="12.968" y2="5.10291" gradientUnits="userSpaceOnUse">
<stop stop-color="white" stop-opacity="0"/>
<stop offset="0.9996" stop-color="white"/>
</linearGradient>
<linearGradient id="paint23_linear" x1="10.917" y1="7.79697" x2="13.3295" y2="11.4012" gradientUnits="userSpaceOnUse">
<stop stop-color="#FED31E"/>
<stop offset="0.9996" stop-color="#D86D00"/>
</linearGradient>
<linearGradient id="paint24_linear" x1="11.9999" y1="10.8362" x2="11.9999" y2="8.81652" gradientUnits="userSpaceOnUse">
<stop stop-color="#FED31E"/>
<stop offset="0.9996" stop-color="#D86D00"/>
</linearGradient>
<linearGradient id="paint25_linear" x1="11.9998" y1="6.96829" x2="11.9998" y2="11.6699" gradientUnits="userSpaceOnUse">
<stop stop-color="#FED31E"/>
<stop offset="0.9996" stop-color="#ED9900"/>
</linearGradient>
<linearGradient id="paint26_linear" x1="11.6651" y1="7.01445" x2="11.6651" y2="11.7842" gradientUnits="userSpaceOnUse">
<stop stop-color="#FED31E"/>
<stop offset="0.9996" stop-color="#D86D00"/>
</linearGradient>
<linearGradient id="paint27_linear" x1="12.3011" y1="9.24072" x2="13.2935" y2="7.47516" gradientUnits="userSpaceOnUse">
<stop stop-color="white" stop-opacity="0"/>
<stop offset="0.9996" stop-color="white"/>
</linearGradient>
<linearGradient id="paint28_linear" x1="11.7333" y1="9.67475" x2="12.968" y2="8.57849" gradientUnits="userSpaceOnUse">
<stop stop-color="white" stop-opacity="0"/>
<stop offset="0.9996" stop-color="white"/>
</linearGradient>
<linearGradient id="paint29_linear" x1="10.917" y1="11.2719" x2="13.3294" y2="14.8761" gradientUnits="userSpaceOnUse">
<stop stop-color="#00CC00"/>
<stop offset="0.9996" stop-color="#366E0D"/>
</linearGradient>
<linearGradient id="paint30_linear" x1="11.9999" y1="14.3108" x2="11.9999" y2="12.2911" gradientUnits="userSpaceOnUse">
<stop stop-color="#00CC00"/>
<stop offset="0.9996" stop-color="#366E0D"/>
</linearGradient>
<linearGradient id="paint31_linear" x1="11.9998" y1="10.4433" x2="11.9998" y2="15.1449" gradientUnits="userSpaceOnUse">
<stop stop-color="#00CC00"/>
<stop offset="0.9996" stop-color="#4B8C1C"/>
</linearGradient>
<linearGradient id="paint32_linear" x1="11.6651" y1="10.4895" x2="11.6651" y2="15.2593" gradientUnits="userSpaceOnUse">
<stop stop-color="#00CC00"/>
<stop offset="0.9996" stop-color="#366E0D"/>
</linearGradient>
<linearGradient id="paint33_linear" x1="12.3011" y1="12.7158" x2="13.2935" y2="10.9503" gradientUnits="userSpaceOnUse">
<stop stop-color="white" stop-opacity="0"/>
<stop offset="0.9996" stop-color="white"/>
</linearGradient>
<linearGradient id="paint34_linear" x1="11.7333" y1="13.1498" x2="12.968" y2="12.0535" gradientUnits="userSpaceOnUse">
<stop stop-color="white" stop-opacity="0"/>
<stop offset="0.9996" stop-color="white"/>
</linearGradient>
<linearGradient id="paint35_linear" x1="11.8497" y1="20.3281" x2="11.8497" y2="15.9457" gradientUnits="userSpaceOnUse">
<stop stop-color="white" stop-opacity="0"/>
<stop offset="0.0115246" stop-color="#FEFCF8" stop-opacity="0.0115246"/>
<stop offset="0.0712596" stop-color="#FAF0D9" stop-opacity="0.0712596"/>
<stop offset="0.1389" stop-color="#F6E5BD" stop-opacity="0.1389"/>
<stop offset="0.2154" stop-color="#F3DCA7" stop-opacity="0.2154"/>
<stop offset="0.3046" stop-color="#F1D596" stop-opacity="0.3046"/>
<stop offset="0.4151" stop-color="#EFD08B" stop-opacity="0.4151"/>
<stop offset="0.57" stop-color="#EECE84" stop-opacity="0.57"/>
<stop offset="1" stop-color="#EECD82"/>
</linearGradient>
<linearGradient id="paint36_linear" x1="11.7725" y1="18.5428" x2="12.5803" y2="14.3886" gradientUnits="userSpaceOnUse">
<stop stop-color="#A3541E"/>
<stop offset="0.1326" stop-color="#B46C23"/>
<stop offset="0.4029" stop-color="#D3962C"/>
<stop offset="0.6472" stop-color="#E9B533"/>
<stop offset="0.8545" stop-color="#F7C737"/>
<stop offset="1" stop-color="#FCCE38"/>
</linearGradient>
<linearGradient id="paint37_linear" x1="12.8792" y1="22.37" x2="11.3394" y2="13.6211" gradientUnits="userSpaceOnUse">
<stop stop-color="#A3541E"/>
<stop offset="0.1326" stop-color="#B46C23"/>
<stop offset="0.4029" stop-color="#D3962C"/>
<stop offset="0.6472" stop-color="#E9B533"/>
<stop offset="0.8545" stop-color="#F7C737"/>
<stop offset="1" stop-color="#FCCE38"/>
</linearGradient>
<linearGradient id="paint38_linear" x1="12.5713" y1="18.6727" x2="10.5649" y2="14.1116" gradientUnits="userSpaceOnUse">
<stop stop-color="#A3541E"/>
<stop offset="0.1326" stop-color="#B46C23"/>
<stop offset="0.4029" stop-color="#D3962C"/>
<stop offset="0.6472" stop-color="#E9B533"/>
<stop offset="0.8545" stop-color="#F7C737"/>
<stop offset="1" stop-color="#FCCE38"/>
</linearGradient>
<linearGradient id="paint39_linear" x1="11.1661" y1="19.8286" x2="12.426" y2="16.119" gradientUnits="userSpaceOnUse">
<stop stop-color="#FF9D00" stop-opacity="0"/>
<stop offset="0.0011884" stop-color="#FF9D00" stop-opacity="0.01"/>
<stop offset="0.4088" stop-color="#FDB81F" stop-opacity="0.4088"/>
<stop offset="0.756" stop-color="#FCC831" stop-opacity="0.756"/>
<stop offset="1" stop-color="#FCCE38"/>
</linearGradient>
<linearGradient id="paint40_linear" x1="9.61939" y1="18.7103" x2="14.4604" y2="15.9923" gradientUnits="userSpaceOnUse">
<stop stop-color="#FF9D00" stop-opacity="0"/>
<stop offset="0.0011884" stop-color="#FF9D00" stop-opacity="0.01"/>
<stop offset="0.4088" stop-color="#FDB81F" stop-opacity="0.4088"/>
<stop offset="0.756" stop-color="#FCC831" stop-opacity="0.756"/>
<stop offset="1" stop-color="#FCCE38"/>
</linearGradient>
<linearGradient id="paint41_linear" x1="12.2" y1="19.0885" x2="11.71" y2="14.889" gradientUnits="userSpaceOnUse">
<stop stop-color="#A3541E"/>
<stop offset="0.1326" stop-color="#B46C23"/>
<stop offset="0.4029" stop-color="#D3962C"/>
<stop offset="0.6472" stop-color="#E9B533"/>
<stop offset="0.8545" stop-color="#F7C737"/>
<stop offset="1" stop-color="#FCCE38"/>
</linearGradient>
</defs>
</svg>
