<svg width="24" height="24" viewBox="0 0 24 24" fill="none" xmlns="http://www.w3.org/2000/svg">
<g clip-path="url(#clip0)">
<path d="M9.13054 16.7719C7.66231 16.9696 7.18936 17.1672 6.31407 17.3296C5.43878 17.4919 2.69995 18.1978 2.69995 19.426C2.69995 20.6543 5.19878 21.6072 6.70936 21.6072C8.21995 21.6072 9.52584 21.9249 10.7964 22.6801C12.067 23.4354 13.8529 24.0707 14.8058 23.9931C15.7588 23.9154 16.5494 22.7649 16.7894 22.4049C17.0294 22.0449 18.1376 20.9366 19.1329 20.3437C20.1282 19.7507 21.2788 18.4378 20.6788 17.2096C20.0788 15.9743 9.13054 16.7719 9.13054 16.7719Z" fill="#80DAFE"/>
<path d="M20.6715 17.2091C20.3539 16.5527 17.0504 16.475 14.0645 16.5385L7.60565 17.5762C6.18682 17.8021 4.80329 18.2256 3.49741 18.8327C3.46917 18.9315 3.448 19.0374 3.448 19.1503C3.448 19.2985 3.47623 19.4468 3.51859 19.595C4.21035 20.6115 5.63623 21.7409 7.71859 21.0491C10.4856 20.1244 10.7186 21.3456 12.6104 22.1503C14.5021 22.955 16.8245 22.3903 19.2386 19.708C19.8315 19.0444 20.3398 18.628 20.7704 18.3597C20.8762 17.9856 20.8621 17.5903 20.6715 17.2091Z" fill="url(#paint0_radial)"/>
<path d="M8.36114 17.1457C6.31408 17.3222 6.39172 17.7739 5.46702 17.9222C4.54231 18.0704 2.99643 18.5151 3.82937 19.7645C4.66231 21.0139 8.05761 20.8092 9.56114 20.3575C11.0647 19.9128 13.2317 20.8304 14.2129 21.6069C15.1941 22.3834 17.5729 21.2822 18.2576 20.0892C18.9423 18.8963 20.2482 18.1763 20.9047 17.9857C21.5611 17.7951 20.58 16.7222 20.58 16.7222L12.7447 16.9198L8.36114 17.1457Z" fill="url(#paint1_radial)"/>
<path d="M12.4835 15.2046C11.5941 15.2046 10.3023 15.4799 8.61523 16.8352C6.92817 18.1905 4.15405 18.1622 4.15405 18.9599C4.15405 19.7575 5.10699 20.2305 6.7517 20.2305C8.39641 20.2305 10.1046 19.6164 11.5941 19.6164C13.4223 19.6164 14.2129 20.7881 15.5611 20.7881C16.9093 20.7881 17.9823 19.3199 18.1799 18.9811C18.3776 18.6422 19.3093 18.0069 19.9235 17.8517C20.5376 17.6964 21.1305 17.3364 20.3823 16.5811C19.627 15.8258 17.827 15.5222 17.1846 15.5222C16.0129 15.5152 15.3988 15.2046 12.4835 15.2046Z" fill="url(#paint2_linear)"/>
<path d="M19.9234 17.8444C20.5376 17.6891 21.1305 17.3291 20.3823 16.5738C20.2764 16.4679 20.1423 16.3691 19.994 16.2773C19.8599 16.3479 19.6481 16.4044 19.3517 16.4468C17.1917 16.7573 17.347 19.0726 15.4623 18.395C13.5776 17.7173 11.5587 17.9079 8.36109 18.875C6.86462 19.3268 6.00344 18.9032 5.81285 18.0844C4.87403 18.3597 4.14697 18.5503 4.14697 18.9526C4.14697 19.7432 5.09991 20.2232 6.74462 20.2232C8.38933 20.2232 10.0976 19.6091 11.587 19.6091C13.4152 19.6091 14.2058 20.7809 15.554 20.7809C16.9023 20.7809 17.9752 19.3126 18.1729 18.9738C18.3705 18.635 19.3023 17.9997 19.9234 17.8444Z" fill="url(#paint3_radial)"/>
<path d="M15.554 20.7811C16.9022 20.7811 17.9752 19.3128 18.1728 18.974C18.3705 18.6352 19.3022 17.9999 19.9164 17.8446C20.5305 17.6893 21.1234 17.3293 20.3752 16.574C20.354 16.5528 20.3258 16.5246 20.2975 16.5034C19.9587 17.2093 19.2881 17.6328 18.554 17.7175C17.4811 17.8375 17.3328 20.0117 15.7587 19.6234C14.1846 19.2352 13.0622 18.6705 10.5422 19.2634C8.02225 19.8564 6.77283 20.0046 5.87636 19.3552C4.97989 18.7058 7.73283 18.5928 8.11401 17.174C6.42695 18.1834 4.13989 18.2399 4.13989 18.9599C4.13989 19.7505 5.09283 20.2305 6.73754 20.2305C8.38225 20.2305 10.0905 19.6164 11.5799 19.6164C13.4152 19.6093 14.2058 20.7811 15.554 20.7811Z" fill="url(#paint4_radial)"/>
<path d="M12.0247 16.0164L12.4411 16.8917L13.2529 17.0681C13.2529 17.0681 14.7211 16.8493 15.0811 15.7411C15.1376 15.5787 15.1376 15.4375 15.1023 15.3175C14.5729 15.2611 13.8952 15.2187 12.9564 15.2046L12.0247 16.0164Z" fill="url(#paint5_radial)"/>
<path d="M6.40591 19.2283C6.46828 19.2283 6.51885 19.1778 6.51885 19.1154C6.51885 19.053 6.46828 19.0024 6.40591 19.0024C6.34353 19.0024 6.29297 19.053 6.29297 19.1154C6.29297 19.1778 6.34353 19.2283 6.40591 19.2283Z" fill="url(#paint6_radial)"/>
<path d="M10.7753 16.3343C10.8377 16.3343 10.8882 16.2837 10.8882 16.2213C10.8882 16.159 10.8377 16.1084 10.7753 16.1084C10.7129 16.1084 10.6624 16.159 10.6624 16.2213C10.6624 16.2837 10.7129 16.3343 10.7753 16.3343Z" fill="url(#paint7_radial)"/>
<path d="M9.19406 17.3998C9.24474 17.3998 9.28583 17.3588 9.28583 17.3081C9.28583 17.2574 9.24474 17.2163 9.19406 17.2163C9.14338 17.2163 9.10229 17.2574 9.10229 17.3081C9.10229 17.3588 9.14338 17.3998 9.19406 17.3998Z" fill="url(#paint8_radial)"/>
<path d="M12.3353 18.8399C12.3703 18.8399 12.3988 18.8115 12.3988 18.7764C12.3988 18.7413 12.3703 18.7129 12.3353 18.7129C12.3002 18.7129 12.2717 18.7413 12.2717 18.7764C12.2717 18.8115 12.3002 18.8399 12.3353 18.8399Z" fill="url(#paint9_radial)"/>
<path d="M8.57274 19.4892C8.61953 19.4892 8.65745 19.4513 8.65745 19.4045C8.65745 19.3577 8.61953 19.3198 8.57274 19.3198C8.52596 19.3198 8.48804 19.3577 8.48804 19.4045C8.48804 19.4513 8.52596 19.4892 8.57274 19.4892Z" fill="url(#paint10_radial)"/>
<path d="M11.4952 17.9577C11.5264 17.9577 11.5517 17.9324 11.5517 17.9012C11.5517 17.87 11.5264 17.8447 11.4952 17.8447C11.464 17.8447 11.4387 17.87 11.4387 17.9012C11.4387 17.9324 11.464 17.9577 11.4952 17.9577Z" fill="url(#paint11_radial)"/>
<path d="M12.7587 17.6961C12.8172 17.6961 12.8646 17.6487 12.8646 17.5903C12.8646 17.5318 12.8172 17.4844 12.7587 17.4844C12.7002 17.4844 12.6528 17.5318 12.6528 17.5903C12.6528 17.6487 12.7002 17.6961 12.7587 17.6961Z" fill="url(#paint12_radial)"/>
<path d="M10.027 18.346C10.0855 18.346 10.1329 18.2986 10.1329 18.2402C10.1329 18.1817 10.0855 18.1343 10.027 18.1343C9.96855 18.1343 9.92114 18.1817 9.92114 18.2402C9.92114 18.2986 9.96855 18.346 10.027 18.346Z" fill="url(#paint13_radial)"/>
<path d="M13.6199 18.7061C13.7057 18.7061 13.7752 18.6366 13.7752 18.5508C13.7752 18.465 13.7057 18.3955 13.6199 18.3955C13.5341 18.3955 13.4646 18.465 13.4646 18.5508C13.4646 18.6366 13.5341 18.7061 13.6199 18.7061Z" fill="url(#paint14_radial)"/>
<path d="M15.1798 16.5602C15.211 16.5602 15.2362 16.5349 15.2362 16.5037C15.2362 16.4725 15.211 16.4473 15.1798 16.4473C15.1486 16.4473 15.1233 16.4725 15.1233 16.5037C15.1233 16.5349 15.1486 16.5602 15.1798 16.5602Z" fill="url(#paint15_radial)"/>
<path d="M15.2224 17.6964C15.2614 17.6964 15.293 17.6647 15.293 17.6258C15.293 17.5868 15.2614 17.5552 15.2224 17.5552C15.1835 17.5552 15.1519 17.5868 15.1519 17.6258C15.1519 17.6647 15.1835 17.6964 15.2224 17.6964Z" fill="url(#paint16_radial)"/>
<path d="M15.0316 19.0662C15.055 19.0662 15.074 19.0472 15.074 19.0238C15.074 19.0004 15.055 18.9814 15.0316 18.9814C15.0082 18.9814 14.9893 19.0004 14.9893 19.0238C14.9893 19.0472 15.0082 19.0662 15.0316 19.0662Z" fill="url(#paint17_radial)"/>
<path d="M16.4719 19.101C16.5226 19.101 16.5637 19.0599 16.5637 19.0092C16.5637 18.9586 16.5226 18.9175 16.4719 18.9175C16.4212 18.9175 16.3801 18.9586 16.3801 19.0092C16.3801 19.0599 16.4212 19.101 16.4719 19.101Z" fill="url(#paint18_radial)"/>
<path d="M16.3798 16.1292C16.4383 16.1292 16.4857 16.0818 16.4857 16.0234C16.4857 15.9649 16.4383 15.9175 16.3798 15.9175C16.3213 15.9175 16.2739 15.9649 16.2739 16.0234C16.2739 16.0818 16.3213 16.1292 16.3798 16.1292Z" fill="url(#paint19_radial)"/>
<path d="M19.3516 16.5884C19.3906 16.5884 19.4222 16.5568 19.4222 16.5179C19.4222 16.4789 19.3906 16.4473 19.3516 16.4473C19.3126 16.4473 19.281 16.4789 19.281 16.5179C19.281 16.5568 19.3126 16.5884 19.3516 16.5884Z" fill="url(#paint20_radial)"/>
<path d="M17.5304 17.9011C17.5538 17.9011 17.5727 17.8822 17.5727 17.8588C17.5727 17.8354 17.5538 17.8164 17.5304 17.8164C17.507 17.8164 17.488 17.8354 17.488 17.8588C17.488 17.8822 17.507 17.9011 17.5304 17.9011Z" fill="url(#paint21_radial)"/>
<path d="M17.8271 16.8636C17.8855 16.8636 17.933 16.8162 17.933 16.7577C17.933 16.6993 17.8855 16.6519 17.8271 16.6519C17.7686 16.6519 17.7212 16.6993 17.7212 16.7577C17.7212 16.8162 17.7686 16.8636 17.8271 16.8636Z" fill="url(#paint22_radial)"/>
<path d="M9.87171 18.9741C9.68818 19.0094 9.61759 19.2 9.427 19.1647C9.49759 18.9388 9.61759 18.8824 9.87171 18.9741Z" fill="#FAAF5C"/>
<path d="M17.361 18.8261C17.3045 18.7132 17.2198 18.6073 17.354 18.4802C17.3893 18.4449 17.3893 18.3814 17.4104 18.3179C17.5728 18.5155 17.3822 18.6638 17.361 18.8261Z" fill="#FAAF5C"/>
<path d="M15.42 16.0376C15.5047 16.0941 15.5612 16.1364 15.6247 16.1788C15.5753 16.2282 15.5188 16.2847 15.4623 16.3411C15.3917 16.2211 15.3917 16.2211 15.42 16.0376Z" fill="#FAAF5C"/>
<path d="M14.4245 17.9013C14.4034 17.9155 14.3822 17.9296 14.361 17.9437C14.2975 17.979 14.2198 18.0284 14.1634 17.9508C14.1069 17.8802 14.2057 17.859 14.234 17.8166C14.3045 17.7319 14.361 17.7884 14.4104 17.8449C14.4175 17.866 14.4175 17.8802 14.4245 17.9013Z" fill="#FAAF5C"/>
<path d="M10.2459 18C10.2459 18.0847 10.2388 18.1341 10.2459 18.1906C10.2529 18.24 10.2741 18.2824 10.2812 18.3318C10.2388 18.36 10.1823 18.3882 10.14 18.4165C10.1329 18.1412 10.1329 18.1412 10.2459 18Z" fill="#FAAF5C"/>
<path d="M6.77293 19.0233C6.81528 18.9316 6.85763 18.8398 6.89999 18.748C6.9141 18.7551 6.92116 18.7551 6.93528 18.7622C6.90705 18.8751 6.87175 18.981 6.83646 19.1151C6.75881 19.0939 6.68116 19.0657 6.60352 19.0445C6.60352 19.0304 6.61057 19.0233 6.61057 19.0092C6.6741 19.0163 6.73057 19.0233 6.77293 19.0233Z" fill="#FAAF5C"/>
<path d="M10.7825 17.7317C10.9872 17.7176 10.8601 17.4988 11.0013 17.4282C11.0225 17.4776 11.0578 17.52 11.0507 17.5623C11.0366 17.6259 11.0013 17.6823 10.966 17.7317C10.9166 17.7953 10.8601 17.7882 10.7825 17.7317Z" fill="#FAAF5C"/>
<path d="M17.9824 15.9175C18.0671 15.974 18.0883 16.0587 18.0247 16.1222C17.9753 16.1716 17.8836 16.1787 17.8059 16.094C17.8624 16.0375 17.9188 15.981 17.9824 15.9175Z" fill="#FAAF5C"/>
<path d="M9.21529 16.7504C9.2647 16.7151 9.31411 16.6798 9.37764 16.6304C9.42705 16.708 9.46941 16.7857 9.51882 16.8563C9.53294 16.8492 9.54705 16.8421 9.56117 16.8351C9.52588 16.8421 9.47647 16.8704 9.45529 16.8563C9.3847 16.7998 9.32117 16.7504 9.20117 16.8421C9.20823 16.8139 9.21529 16.7786 9.21529 16.7504Z" fill="#FAAF5C"/>
<path d="M16.3518 17.0116C16.3094 17.0751 16.26 17.1387 16.2106 17.2163C16.1682 17.1881 16.133 17.1598 16.0977 17.1316C16.2035 16.9692 16.2035 16.9692 16.3518 17.0116Z" fill="#FAAF5C"/>
<path d="M20.1281 17.0683C20.0505 16.9695 19.9728 16.8636 19.874 16.7295C20.0011 16.7577 20.0999 16.7436 20.107 16.8848C20.107 16.9342 20.1493 16.9836 20.1705 17.0401C20.1564 17.0471 20.1423 17.0542 20.1281 17.0683Z" fill="#FAAF5C"/>
<path d="M16.4011 17.7178C16.5352 17.9789 16.5352 17.9789 16.4011 18.0495C16.4011 17.9366 16.4011 17.8237 16.4011 17.7178Z" fill="#FAAF5C"/>
<path d="M19.726 16.5738C19.6554 16.5244 19.606 16.5032 19.5919 16.475C19.5636 16.4044 19.5566 16.3267 19.5425 16.2561C19.5354 16.235 19.5495 16.2067 19.5566 16.1855C19.5848 16.1997 19.6201 16.2138 19.6272 16.235C19.6554 16.3267 19.6836 16.4255 19.726 16.5738Z" fill="#FAAF5C"/>
<path d="M10.2175 16.3763C10.1257 16.1928 10.1257 16.1928 10.2387 16.0869C10.3516 16.2069 10.3516 16.2069 10.2175 16.3763Z" fill="#FAAF5C"/>
<path d="M8.07874 19.5034C8.0858 19.6164 8.02933 19.687 7.94462 19.7434C7.91639 19.7575 7.87404 19.7646 7.8458 19.7505C7.83168 19.7434 7.81051 19.694 7.81756 19.6799C7.83168 19.6587 7.86698 19.6375 7.89521 19.6305C7.97992 19.6093 7.97992 19.6093 8.07874 19.5034Z" fill="#FAAF5C"/>
<path d="M15.54 18.4797C15.4271 18.3244 15.4412 18.2679 15.66 18.1479C15.6177 18.2609 15.5824 18.3597 15.54 18.4797Z" fill="#FAAF5C"/>
<path d="M11.1917 18.3673C11.2058 18.3461 11.2058 18.339 11.2128 18.332C11.2905 18.2896 11.3611 18.2967 11.4105 18.3814C11.4175 18.3955 11.4034 18.4308 11.3893 18.4379C11.2975 18.5014 11.2552 18.4308 11.1917 18.3673Z" fill="#FAAF5C"/>
<path d="M16.3727 18.2329C16.3586 18.3317 16.3515 18.4164 16.2598 18.4376C16.2386 18.4447 16.1892 18.4376 16.1821 18.4306C16.175 18.4023 16.168 18.3459 16.1892 18.3317C16.2386 18.2964 16.295 18.2753 16.3727 18.2329Z" fill="#FAAF5C"/>
<path d="M14.3471 19.207C14.1848 19.3128 14.1565 19.2987 14.0859 19.1011C14.1848 19.1434 14.2624 19.1717 14.3471 19.207Z" fill="#FAAF5C"/>
<path d="M18.9493 18.0211C18.9493 18.0635 18.9563 18.0988 18.9493 18.1411C18.9422 18.1764 18.9281 18.2117 18.914 18.247C18.914 18.247 18.8646 18.24 18.8575 18.2329C18.8434 18.1976 18.8222 18.1482 18.8293 18.1129C18.8434 18.0705 18.8787 18.0282 18.8999 17.9858C18.921 18 18.9352 18.0141 18.9493 18.0211Z" fill="#FAAF5C"/>
<path d="M14.347 18.0845C14.3894 18.1692 14.4317 18.2398 14.467 18.3174C14.3188 18.3315 14.2764 18.2609 14.347 18.0845Z" fill="#FAAF5C"/>
<path d="M17.3611 16.1789C17.347 16.1507 17.3117 16.1154 17.3188 16.0942C17.3259 16.0589 17.3753 16.0024 17.3823 16.0024C17.4317 16.0236 17.4741 16.0589 17.5235 16.0942C17.467 16.1154 17.4176 16.1436 17.3611 16.1789Z" fill="#FAAF5C"/>
<path d="M20.6081 17.2237C20.5517 17.2519 20.5023 17.2802 20.4387 17.3084C20.4105 17.2802 20.354 17.2308 20.4317 17.1884C20.4881 17.1461 20.5728 17.0896 20.6081 17.2237Z" fill="#FAAF5C"/>
<path d="M18.6529 17.4702C18.6741 17.4914 18.7094 17.5055 18.7094 17.5267C18.7165 17.562 18.7094 17.6043 18.7094 17.6396C18.6741 17.6396 18.6388 17.6467 18.6176 17.6255C18.5612 17.5902 18.5682 17.5479 18.6176 17.5055C18.6317 17.4985 18.6459 17.4843 18.6529 17.4702Z" fill="#FAAF5C"/>
<path d="M7.92343 18.7695C7.97991 18.826 8.00814 18.8613 8.04343 18.8966C8.0152 18.9178 7.99402 18.946 7.97285 18.946C7.94461 18.9531 7.90932 18.9319 7.87402 18.9319C7.88814 18.8895 7.90226 18.8401 7.92343 18.7695Z" fill="#FAAF5C"/>
<path d="M13.8389 18.5225C13.8883 18.5295 13.9165 18.5295 13.9377 18.5436C13.973 18.5789 14.0083 18.6142 14.0436 18.6566C14.0436 18.6566 14.0224 18.6848 14.0153 18.6848C13.9659 18.6636 13.9165 18.6425 13.8742 18.6142C13.86 18.6001 13.86 18.5648 13.8389 18.5225Z" fill="#FAAF5C"/>
<path d="M17.0859 19.8281C17.1142 19.694 17.1142 19.694 17.2695 19.6729C17.1918 19.7434 17.1424 19.7858 17.0859 19.8281Z" fill="#FAAF5C"/>
<path d="M14.001 15.6352C13.9587 15.5858 13.9304 15.5646 13.9163 15.5293C13.9093 15.5152 13.9516 15.4658 13.9728 15.4658C14.001 15.4658 14.0575 15.4941 14.0575 15.5082C14.0575 15.5435 14.0293 15.5788 14.001 15.6352Z" fill="#FAAF5C"/>
<path d="M15.3989 18.7837C15.4836 18.9178 15.3777 18.9813 15.293 19.0449C15.3283 18.9602 15.3636 18.8755 15.3989 18.7837Z" fill="#FAAF5C"/>
<path d="M17.4809 19.426C17.4386 19.4683 17.4174 19.4966 17.3892 19.5318C17.368 19.5107 17.3186 19.4824 17.3256 19.4683C17.3327 19.433 17.3609 19.3977 17.3892 19.3836C17.4033 19.3695 17.4386 19.4048 17.4809 19.426Z" fill="#FAAF5C"/>
<path d="M18.6599 17.294C18.6528 17.2092 18.7022 17.1881 18.7657 17.2234C18.8222 17.2587 18.8646 17.3151 18.9493 17.3928C18.8222 17.3434 18.7375 17.3151 18.6599 17.294Z" fill="#FAAF5C"/>
<path d="M20.1069 17.4141C20.001 17.4282 19.9799 17.3506 19.9375 17.2588C20.0575 17.2658 20.114 17.3082 20.1069 17.4141Z" fill="#FAAF5C"/>
<path d="M15.6459 17.1247C15.5259 17.1741 15.5047 17.0894 15.4482 17.0117C15.5753 17.04 15.5753 17.04 15.6459 17.1247Z" fill="#FAAF5C"/>
<path d="M15.4553 15.6142C15.4341 15.6142 15.413 15.6283 15.3918 15.6213C15.3565 15.6072 15.3212 15.5789 15.293 15.5578C15.293 15.5578 15.3 15.5225 15.3071 15.5225C15.3494 15.5295 15.3847 15.5366 15.4271 15.5436C15.4483 15.5507 15.4694 15.5578 15.4836 15.5719C15.4765 15.586 15.4694 15.6001 15.4553 15.6142Z" fill="#FAAF5C"/>
<path d="M15.3211 20.499C15.3353 20.5131 15.3423 20.5202 15.3423 20.5273C15.3353 20.5767 15.3211 20.6261 15.3141 20.6826C15.3 20.6755 15.2788 20.6826 15.2788 20.6684C15.2364 20.5978 15.2364 20.5414 15.3211 20.499Z" fill="#FAAF5C"/>
<path d="M11.7001 18.3599C11.6718 18.4163 11.6366 18.4799 11.6083 18.5363C11.5942 18.4516 11.5519 18.3599 11.7001 18.3599Z" fill="#FAAF5C"/>
<path d="M8.87646 18.2186C8.88352 18.2045 8.88352 18.1904 8.89764 18.1833C8.93999 18.1551 8.98941 18.1269 9.03882 18.0986C9.04588 18.1128 9.05999 18.1339 9.05293 18.1339C9.00352 18.1763 8.95411 18.2186 8.9047 18.261C8.89764 18.2398 8.89058 18.2327 8.87646 18.2186Z" fill="#FAAF5C"/>
<path d="M18.3707 18.2255C18.3636 18.2255 18.3566 18.2325 18.3495 18.2325C18.3071 18.2043 18.2718 18.169 18.2295 18.1337L18.2507 18.1055C18.3001 18.1266 18.3424 18.1549 18.3918 18.1831C18.3848 18.1972 18.3777 18.2114 18.3707 18.2255Z" fill="#FAAF5C"/>
<path d="M8.29049 18.5998C8.28343 18.621 8.27637 18.6351 8.27637 18.6351C8.22696 18.6492 8.17755 18.6563 8.12814 18.6704C8.12814 18.6563 8.12108 18.6421 8.12814 18.628C8.16343 18.5574 8.2199 18.5433 8.29049 18.5998Z" fill="#FAAF5C"/>
<path d="M16.0553 19.6588C15.9917 19.7153 15.9353 19.7647 15.8435 19.8423C15.8647 19.7082 15.9564 19.68 16.0059 19.6094C16.027 19.6306 16.0412 19.6447 16.0553 19.6588Z" fill="#FAAF5C"/>
<path d="M12.5753 18.6772C12.5683 18.762 12.5683 18.8255 12.5612 18.9314C12.4483 18.8114 12.4412 18.7478 12.5753 18.6772Z" fill="#FAAF5C"/>
<path d="M13.3165 17.7319C13.3165 17.7884 13.3235 17.8519 13.3165 17.9084C13.3165 17.9296 13.2741 17.9437 13.2459 17.9578C13.2318 17.9296 13.2035 17.8872 13.2106 17.8731C13.2388 17.8166 13.2812 17.7813 13.3165 17.7319Z" fill="#FAAF5C"/>
<path d="M19.7188 17.8731C19.7611 17.7954 19.8035 17.7178 19.8529 17.6401L19.8458 17.6472C19.867 17.6754 19.8882 17.6966 19.9093 17.7248C19.8458 17.7672 19.7752 17.8166 19.7188 17.8731Z" fill="#FAAF5C"/>
<path d="M17.1 19.4683C17.0577 19.5036 17.0224 19.5248 16.9942 19.546C16.9801 19.5248 16.9518 19.4965 16.9589 19.4754C16.973 19.4471 17.0012 19.4189 17.0295 19.4048C17.0436 19.4048 17.0718 19.4401 17.1 19.4683Z" fill="#FAAF5C"/>
<path d="M12.0175 19.3338C11.9822 19.3761 11.954 19.4185 11.9046 19.489C11.8764 19.369 11.9117 19.3267 12.0175 19.3338Z" fill="#FAAF5C"/>
<path d="M10.9024 15.8823C10.9307 15.9106 10.9518 15.9388 10.9659 15.96C10.9659 15.967 10.9307 16.0023 10.9307 16.0023C10.9024 15.9811 10.8742 15.9529 10.8459 15.9317C10.8601 15.9176 10.8742 15.9035 10.9024 15.8823Z" fill="#FAAF5C"/>
<path d="M17.1564 15.9602C17.1211 15.925 17.0859 15.8826 17.0576 15.8473C17.0576 15.8473 17.0717 15.8261 17.0788 15.812C17.1211 15.8473 17.1706 15.8755 17.2129 15.9108C17.1917 15.925 17.1776 15.9461 17.1564 15.9602Z" fill="#FAAF5C"/>
<path d="M15.7731 16.0093C15.7731 16.0657 15.7731 16.1293 15.7731 16.1857C15.6954 16.101 15.6954 16.101 15.7731 16.0093Z" fill="#FAAF5C"/>
<path d="M12.1587 17.1388C12.2081 17.0965 12.2505 17.0612 12.2928 17.0259C12.3069 17.0541 12.321 17.0682 12.314 17.0753C12.2999 17.1459 12.2716 17.2023 12.1587 17.1388Z" fill="#FAAF5C"/>
<path d="M13.3234 17.7318C13.3164 17.7036 13.3022 17.6754 13.3022 17.6471C13.3022 17.6189 13.3234 17.5907 13.3375 17.5624C13.3446 17.5554 13.394 17.5695 13.394 17.5836C13.394 17.6118 13.394 17.6471 13.3799 17.6754C13.3658 17.7036 13.3375 17.7107 13.3234 17.7318Z" fill="#FAAF5C"/>
<path d="M18.3634 17.795C18.3352 17.7314 18.2999 17.6679 18.2505 17.562C18.3705 17.6255 18.4128 17.682 18.4128 17.7667C18.3987 17.7808 18.3846 17.7879 18.3634 17.795Z" fill="#FAAF5C"/>
<path d="M10.5848 16.793C10.5566 16.7435 10.5283 16.7153 10.5283 16.6871C10.5283 16.6659 10.5566 16.6447 10.5707 16.6235C10.5918 16.6518 10.6201 16.6729 10.6271 16.7012C10.6413 16.7153 10.613 16.7435 10.5848 16.793Z" fill="#FAAF5C"/>
<path d="M14.46 19.101C14.4811 19.0515 14.4811 19.0092 14.5023 19.0021C14.5305 18.988 14.5658 18.988 14.6011 18.981C14.587 19.0092 14.587 19.0445 14.5658 19.0657C14.5447 19.0868 14.5094 19.0868 14.46 19.101Z" fill="#FAAF5C"/>
<path d="M7.18221 19.0308C7.13986 19.0237 7.09751 19.0237 7.05515 19.0096C7.0481 19.0096 7.0481 18.9743 7.0481 18.9531C7.09751 18.9531 7.14692 18.9531 7.19633 18.9531C7.19633 18.9814 7.18927 19.0025 7.18221 19.0308Z" fill="#FAAF5C"/>
<path d="M8.90454 16.8915C8.93278 16.8491 8.96101 16.8138 8.98924 16.7715C9.05983 16.7997 9.04571 16.828 8.90454 16.8915Z" fill="#FAAF5C"/>
<path d="M12.293 17.7036C12.2506 17.7954 12.2294 17.8448 12.1942 17.9224C12.18 17.7954 12.18 17.7954 12.293 17.7036Z" fill="#FAAF5C"/>
<path d="M15.9424 16.3341C15.9918 16.2846 16.0412 16.2423 16.0906 16.1929C16.0977 16.1999 16.1118 16.214 16.1189 16.2211C16.0694 16.2705 16.02 16.3199 15.9706 16.3694C15.9636 16.3552 15.9494 16.3482 15.9424 16.3341Z" fill="#FAAF5C"/>
<path d="M17.3893 17.5978C17.3752 17.6331 17.3681 17.6755 17.347 17.7108C17.347 17.7108 17.3046 17.6967 17.2764 17.6896C17.2975 17.6543 17.3187 17.612 17.3399 17.5767C17.3611 17.5837 17.3752 17.5908 17.3893 17.5978Z" fill="#FAAF5C"/>
<path d="M14.6152 17.2377C14.6646 17.16 14.6999 17.1106 14.7423 17.04C14.7564 17.1671 14.7564 17.1671 14.6152 17.2377Z" fill="#FAAF5C"/>
<path d="M19.4648 17.0049C19.5919 17.0825 19.479 17.1319 19.4648 17.1955C19.4648 17.1319 19.4648 17.0684 19.4648 17.0049Z" fill="#FAAF5C"/>
<path d="M18.4271 17.1528C18.4624 17.1881 18.4906 17.2234 18.5259 17.2587C18.5048 17.2658 18.4836 17.2869 18.4765 17.2869C18.4412 17.2658 18.413 17.2375 18.3848 17.2093C18.3989 17.1811 18.413 17.1669 18.4271 17.1528Z" fill="#FAAF5C"/>
<path d="M17.4317 17.3364C17.3965 17.3929 17.3612 17.4494 17.3259 17.5058C17.3118 17.3929 17.3118 17.3929 17.4317 17.3364C17.4317 17.3364 17.4388 17.3435 17.4317 17.3364Z" fill="#FAAF5C"/>
<path d="M6.63184 19.7715C6.69537 19.7504 6.74478 19.7292 6.80831 19.708C6.74478 19.8068 6.74478 19.8068 6.63184 19.7715Z" fill="#FAAF5C"/>
<path d="M5.48112 18.5503C5.53053 18.5856 5.587 18.6209 5.65053 18.6632C5.52347 18.7056 5.49523 18.635 5.45288 18.5856C5.45994 18.5785 5.467 18.5644 5.48112 18.5503Z" fill="#FAAF5C"/>
<path d="M18.759 16.3761C18.7378 16.3197 18.5825 16.2773 18.7448 16.1855C18.7519 16.2561 18.759 16.3197 18.759 16.3761Z" fill="#FAAF5C"/>
<path d="M16.5423 18.4165C16.5423 18.4659 16.5353 18.5153 16.5353 18.593C16.4506 18.5153 16.4435 18.4659 16.5423 18.4165Z" fill="#FAAF5C"/>
<path d="M16.6553 19.5318C16.62 19.553 16.5777 19.5741 16.5424 19.5883L16.5142 19.5388C16.5495 19.5106 16.5847 19.4894 16.62 19.4683C16.6342 19.4965 16.6483 19.5177 16.6553 19.5318Z" fill="#FAAF5C"/>
<path d="M8.14941 19.2918C8.17765 19.2495 8.21294 19.2001 8.24118 19.1577C8.2553 19.1648 8.27647 19.1789 8.27647 19.186C8.24824 19.2354 8.22 19.2777 8.19177 19.3271C8.17765 19.306 8.16353 19.2989 8.14941 19.2918Z" fill="#FAAF5C"/>
<path d="M17.46 17.0398C17.467 16.9904 17.4741 16.9481 17.4811 16.8916C17.5447 16.9481 17.5447 16.9481 17.46 17.0398Z" fill="#FAAF5C"/>
<path d="M17.7564 16.6587C17.7705 16.701 17.7846 16.7293 17.7776 16.7505C17.7705 16.7716 17.7423 16.7857 17.7282 16.7999C17.714 16.7787 17.6929 16.7575 17.6929 16.7363C17.6929 16.7081 17.7211 16.694 17.7564 16.6587Z" fill="#FAAF5C"/>
<path d="M18.0457 16.7222C17.9963 16.7152 17.9469 16.7081 17.8975 16.7081C17.968 16.6022 17.968 16.6022 18.0457 16.7222Z" fill="#FAAF5C"/>
<path d="M19.5211 16.6941C19.4999 16.6447 19.4787 16.5953 19.4575 16.5459C19.4787 16.5388 19.5069 16.5317 19.5069 16.5317C19.5211 16.5812 19.5422 16.6306 19.5563 16.68C19.5493 16.687 19.5352 16.687 19.5211 16.6941Z" fill="#FAAF5C"/>
<path d="M16.2458 16.5954C16.2105 16.5813 16.1752 16.5672 16.1399 16.546C16.1399 16.546 16.154 16.5107 16.1611 16.4966C16.1964 16.5107 16.2317 16.5319 16.267 16.546C16.2599 16.5601 16.2528 16.5742 16.2458 16.5954Z" fill="#FAAF5C"/>
<path d="M14.4952 16.5528C14.467 16.5317 14.4387 16.5105 14.4387 16.5034C14.4528 16.4752 14.467 16.447 14.4881 16.4258C14.5022 16.4399 14.5305 16.454 14.5305 16.4611C14.5234 16.4893 14.5093 16.5175 14.4952 16.5528Z" fill="#FAAF5C"/>
<path d="M17.4883 16.3269C17.4601 16.3552 17.4389 16.3693 17.4177 16.3905C17.3966 16.3622 17.3754 16.3411 17.3613 16.3128C17.3542 16.2987 17.3895 16.2775 17.4036 16.2563C17.4248 16.2775 17.453 16.2987 17.4883 16.3269Z" fill="#FAAF5C"/>
<path d="M15.9917 19.094C16.0411 19.094 16.0835 19.0869 16.147 19.0869C16.0693 19.1716 16.0693 19.1716 15.9917 19.094Z" fill="#FAAF5C"/>
<path d="M15.6034 17.7599C15.5328 17.7811 15.4763 17.7952 15.3987 17.8164C15.4622 17.7176 15.5116 17.6893 15.6034 17.7599Z" fill="#FAAF5C"/>
<path d="M8.15649 18.3883C8.19885 18.3742 8.2412 18.3671 8.28355 18.353C8.29061 18.3671 8.29061 18.3813 8.29767 18.3954C8.25532 18.4095 8.22002 18.4236 8.17767 18.4448C8.17061 18.4307 8.16355 18.4095 8.15649 18.3883Z" fill="#FAAF5C"/>
<path d="M9.99169 17.9859C9.97051 18.0142 9.95639 18.0354 9.94228 18.0565C9.92816 18.0424 9.90698 18.0283 9.90698 18.0142C9.90698 17.9859 9.9211 17.9648 9.92816 17.9365C9.94934 17.9506 9.96345 17.9648 9.99169 17.9859Z" fill="#FAAF5C"/>
<path d="M12.8012 18.4094C12.787 18.4376 12.78 18.4518 12.7729 18.4588C12.7517 18.48 12.7235 18.5012 12.7023 18.5153C12.6953 18.5012 12.6812 18.487 12.6812 18.48C12.7094 18.4518 12.7376 18.4235 12.7659 18.4023C12.7659 18.4023 12.78 18.4094 12.8012 18.4094Z" fill="#FAAF5C"/>
<path d="M16.2034 20.0961C16.1046 20.0326 16.1117 19.955 16.1752 19.835C16.1893 19.9479 16.1964 20.0256 16.2034 20.0961C16.2034 20.0961 16.1964 20.1032 16.2034 20.0961Z" fill="#FAAF5C"/>
<path d="M10.2036 19.1295C10.246 19.0942 10.2883 19.066 10.3448 19.0166C10.3377 19.0519 10.3448 19.0801 10.3307 19.0872C10.2954 19.1154 10.2601 19.1366 10.2248 19.1578C10.2177 19.1507 10.2107 19.1366 10.2036 19.1295Z" fill="#FAAF5C"/>
<path d="M13.4435 18.8188C13.4082 18.8047 13.3729 18.7976 13.3376 18.7835C13.3447 18.7623 13.3518 18.7482 13.3588 18.7271C13.3941 18.7412 13.4294 18.7553 13.4647 18.7623C13.4506 18.7906 13.4435 18.8047 13.4435 18.8188Z" fill="#FAAF5C"/>
<path d="M16.1963 20.1034C16.2669 20.0964 16.3375 20.0893 16.3586 20.2093C16.281 20.1952 16.2386 20.1528 16.1963 20.1034Z" fill="#FAAF5C"/>
<path d="M16.9305 18.7056C16.8952 18.7339 16.867 18.755 16.8387 18.7691C16.8387 18.7691 16.8034 18.7409 16.8105 18.7268C16.8246 18.6986 16.8458 18.6703 16.8599 18.6421C16.8811 18.6562 16.9023 18.6774 16.9305 18.7056Z" fill="#FAAF5C"/>
<path d="M16.8459 17.7032C16.853 17.6327 16.8671 17.5691 16.8742 17.4985C16.8883 17.4985 16.9024 17.5056 16.9165 17.5056C16.9095 17.5762 16.9024 17.6397 16.8883 17.7103C16.8812 17.7103 16.8671 17.7032 16.8459 17.7032Z" fill="#FAAF5C"/>
<path d="M17.1777 18.9599C17.2201 18.9528 17.2554 18.9387 17.2977 18.9316C17.3048 18.9458 17.3048 18.9599 17.3119 18.974C17.2766 18.9881 17.2342 19.0022 17.1989 19.0163C17.1919 18.9952 17.1848 18.9811 17.1777 18.9599Z" fill="#FAAF5C"/>
<path d="M14.1071 19.7081C14.0718 19.7151 14.0435 19.7363 14.0365 19.7293C14.0153 19.7081 14.0012 19.6798 13.9871 19.6516C14.0082 19.6516 14.0294 19.6375 14.0435 19.6446C14.0647 19.6516 14.0788 19.6728 14.1071 19.7081Z" fill="#FAAF5C"/>
<path d="M9.07409 19.3057C9.07409 19.348 9.08115 19.3904 9.08115 19.4257C9.06703 19.4257 9.04586 19.4257 9.04586 19.4186C9.0388 19.3833 9.03174 19.341 9.03174 19.3057C9.0388 19.3057 9.05292 19.3057 9.07409 19.3057Z" fill="#FAAF5C"/>
<path d="M11.0152 19.4965C10.9799 19.5176 10.9447 19.5388 10.9094 19.56C10.9023 19.5529 10.8952 19.5388 10.8882 19.5318C10.9235 19.5035 10.9588 19.4823 10.9941 19.4541C11.0011 19.4682 11.0082 19.4823 11.0152 19.4965Z" fill="#FAAF5C"/>
<path d="M14.1847 19.3901C14.2059 19.4607 14.2271 19.5031 14.2553 19.5807C14.1706 19.5243 14.1424 19.4819 14.1847 19.3901Z" fill="#FAAF5C"/>
<path d="M9.35645 16.5107C9.37762 16.4754 9.39174 16.4401 9.41291 16.4048C9.42703 16.4118 9.44821 16.426 9.44115 16.426C9.42703 16.4613 9.40586 16.4966 9.39174 16.5318C9.37762 16.5248 9.3635 16.5177 9.35645 16.5107Z" fill="#FAAF5C"/>
<path d="M17.4387 17.3434C17.4387 17.2799 17.4387 17.2164 17.4387 17.1599C17.4528 17.1599 17.4599 17.1528 17.474 17.1528C17.4881 17.1811 17.5164 17.2164 17.5022 17.2375C17.4881 17.2728 17.4599 17.3011 17.4387 17.3434Z" fill="#FAAF5C"/>
<path d="M13.7117 17.153C13.6906 17.1318 13.6694 17.1177 13.6553 17.1036C13.6835 17.0895 13.7117 17.0683 13.74 17.0542C13.747 17.0471 13.7612 17.0612 13.7753 17.0683C13.7612 17.1036 13.74 17.1248 13.7117 17.153Z" fill="#FAAF5C"/>
<path d="M18.0246 17.0117C18.0246 17.0541 18.0246 17.0964 18.0246 17.1388C18.0175 17.1388 18.0034 17.1388 17.9963 17.1388C17.9963 17.0964 17.9963 17.0541 17.9963 17.0117C18.0034 17.0117 18.0105 17.0117 18.0246 17.0117Z" fill="#FAAF5C"/>
<path d="M18.2999 17.2163C18.2717 17.2375 18.2505 17.2657 18.2434 17.2586C18.2152 17.2445 18.194 17.2163 18.1658 17.1951C18.1799 17.181 18.2011 17.1527 18.2011 17.1598C18.2364 17.1739 18.2646 17.1951 18.2999 17.2163Z" fill="#FAAF5C"/>
<path d="M8.7705 17.6541C8.74226 17.6188 8.71403 17.5906 8.68579 17.5553C8.69991 17.5412 8.72109 17.52 8.7352 17.5059C8.75638 17.5412 8.78462 17.5835 8.80579 17.6188C8.79168 17.6329 8.77756 17.64 8.7705 17.6541Z" fill="#FAAF5C"/>
<path d="M17.5094 15.7906C17.4812 15.8118 17.4671 15.8329 17.4459 15.847C17.4318 15.8259 17.4106 15.8047 17.4036 15.7765C17.4036 15.7623 17.4318 15.7482 17.4459 15.7271C17.4671 15.7482 17.4883 15.7694 17.5094 15.7906Z" fill="#FAAF5C"/>
<path d="M5.71388 18.2189C5.6927 18.2259 5.67858 18.2401 5.66447 18.2401C5.65035 18.2401 5.64329 18.2118 5.63623 18.1977C5.65741 18.1907 5.67152 18.1836 5.6927 18.1836C5.69976 18.1836 5.70682 18.2048 5.71388 18.2189Z" fill="#FAAF5C"/>
<path d="M18.0318 18.3246C18.0107 18.3034 17.9824 18.2893 17.9824 18.2752C17.9824 18.254 17.9965 18.2328 18.0107 18.2187C18.0177 18.2116 18.053 18.2328 18.053 18.2399C18.053 18.2611 18.0459 18.2893 18.0318 18.3246Z" fill="#FAAF5C"/>
<path d="M16.6764 18.6069C16.6905 18.6422 16.7047 18.6705 16.7188 18.7058C16.7047 18.7128 16.6835 18.7199 16.6694 18.7269C16.6623 18.6916 16.6553 18.6563 16.6482 18.621C16.6553 18.6069 16.6694 18.6069 16.6764 18.6069Z" fill="#FAAF5C"/>
<path d="M13.5282 18.7479C13.5141 18.7126 13.4929 18.6844 13.4999 18.6773C13.5141 18.6562 13.5352 18.642 13.5564 18.6279C13.5635 18.642 13.5846 18.6632 13.5776 18.6773C13.5776 18.6985 13.5564 18.7126 13.5282 18.7479Z" fill="#FAAF5C"/>
<path d="M15.9706 17.6825C15.9424 17.7037 15.9212 17.7178 15.9001 17.7319C15.893 17.7178 15.8718 17.6966 15.8718 17.6895C15.8859 17.6684 15.9071 17.6543 15.9283 17.6401C15.9283 17.6472 15.9495 17.6684 15.9706 17.6825Z" fill="#FAAF5C"/>
<path d="M13.6411 17.4282C13.6693 17.4353 13.6975 17.4494 13.7328 17.4565C13.7258 17.4706 13.7187 17.4918 13.7187 17.4918C13.6905 17.4847 13.6622 17.4776 13.627 17.4706C13.627 17.4565 13.634 17.4423 13.6411 17.4282Z" fill="#FAAF5C"/>
<path d="M9.13753 17.4634C9.15164 17.4846 9.16576 17.4987 9.17282 17.5128C9.1587 17.5269 9.13753 17.541 9.12341 17.541C9.10929 17.541 9.09517 17.5198 9.08105 17.5057C9.10223 17.4916 9.11635 17.4775 9.13753 17.4634Z" fill="#FAAF5C"/>
<path d="M11.8482 17.5127C11.8553 17.5409 11.8623 17.5621 11.8553 17.5833C11.8482 17.5974 11.827 17.6045 11.8129 17.6186C11.8059 17.5974 11.7917 17.5762 11.7988 17.5621C11.7988 17.548 11.827 17.5339 11.8482 17.5127Z" fill="#FAAF5C"/>
<path d="M7.5069 17.9366C7.47161 17.9649 7.44337 18.0001 7.40808 18.0284C7.39396 18.0143 7.37984 18.0072 7.36572 17.9931C7.39396 17.9578 7.42219 17.9225 7.45043 17.8872C7.47161 17.9013 7.48572 17.9154 7.5069 17.9366Z" fill="#FAAF5C"/>
<path d="M12.7093 19.6166C12.6952 19.5813 12.6811 19.546 12.667 19.5107C12.6882 19.5036 12.7023 19.5036 12.7235 19.4966C12.7305 19.5319 12.7376 19.5742 12.7376 19.6095C12.7305 19.6095 12.7164 19.6166 12.7093 19.6166Z" fill="#FAAF5C"/>
<path d="M7.28125 19.6445C7.30948 19.6163 7.33772 19.581 7.36595 19.5527C7.37301 19.5598 7.38007 19.5669 7.39419 19.5739C7.37301 19.6092 7.34478 19.6445 7.3236 19.6798C7.30948 19.6657 7.29537 19.6516 7.28125 19.6445Z" fill="#FAAF5C"/>
<path d="M5.21289 19.2706C5.24818 19.2565 5.28348 19.2495 5.32583 19.2354C5.32583 19.2354 5.33289 19.2565 5.33995 19.2706C5.2976 19.2777 5.2623 19.2848 5.21995 19.2918C5.21289 19.2918 5.21289 19.2777 5.21289 19.2706Z" fill="#FAAF5C"/>
<path d="M5.29048 18.7344C5.31872 18.7697 5.3399 18.7838 5.3399 18.7979C5.3399 18.8191 5.32578 18.8473 5.31872 18.8685C5.3046 18.8544 5.28343 18.8403 5.27637 18.8261C5.27637 18.805 5.29048 18.7838 5.29048 18.7344Z" fill="#FAAF5C"/>
<path d="M15.1165 18.7269C15.1306 18.7057 15.1376 18.6916 15.1517 18.6704C15.1659 18.6775 15.1941 18.6845 15.1941 18.6986C15.1941 18.7128 15.18 18.7339 15.1729 18.7481C15.1517 18.7481 15.1376 18.741 15.1165 18.7269Z" fill="#FAAF5C"/>
<path d="M16.2599 18.9458C16.2882 18.9811 16.3093 19.0023 16.3093 19.0234C16.3093 19.0446 16.2811 19.0658 16.267 19.087C16.2529 19.0658 16.2387 19.0376 16.2317 19.0093C16.2317 19.0023 16.2458 18.9811 16.2599 18.9458Z" fill="#FAAF5C"/>
<path d="M15.0105 15.8897C14.9893 15.8968 14.9681 15.9109 14.9681 15.9109C14.954 15.8897 14.9399 15.8615 14.9258 15.8403C14.9399 15.8332 14.954 15.8262 14.9611 15.8262C14.9823 15.8403 14.9964 15.8685 15.0105 15.8897Z" fill="#FAAF5C"/>
<path d="M18.7447 17.0825C18.7447 17.146 18.7447 17.2096 18.7447 17.2661L18.7518 17.259C18.653 17.1813 18.653 17.1743 18.7447 17.0825Z" fill="#FAAF5C"/>
<path d="M10.267 17.2731C10.2529 17.252 10.2317 17.2308 10.2317 17.2167C10.2317 17.2026 10.2599 17.1884 10.274 17.1743C10.2882 17.1884 10.3093 17.2026 10.3093 17.2167C10.3093 17.2378 10.2882 17.252 10.267 17.2731Z" fill="#FAAF5C"/>
<path d="M18.5328 16.8C18.5117 16.793 18.4975 16.793 18.4905 16.7859C18.5046 16.7647 18.5187 16.7365 18.5328 16.7153C18.5328 16.7153 18.554 16.7224 18.5681 16.7294C18.554 16.7577 18.5399 16.7789 18.5328 16.8Z" fill="#FAAF5C"/>
<path d="M15.0176 20.0614C15.0106 20.0755 14.9894 20.0966 14.9753 20.1108C14.9682 20.0966 14.947 20.0755 14.947 20.0684C14.9611 20.0472 14.9753 20.0261 14.9964 20.0049C15.0106 20.0261 15.0106 20.0331 15.0176 20.0614Z" fill="#FAAF5C"/>
<path d="M15.8082 17.0115C15.7871 16.9832 15.78 16.9762 15.7729 16.9691C15.7871 16.955 15.8082 16.9409 15.8224 16.9268C15.8294 16.9409 15.8365 16.9479 15.8365 16.9621C15.8294 16.9762 15.8224 16.9903 15.8082 17.0115Z" fill="#FAAF5C"/>
<path d="M16.0692 16.9058C16.0833 16.934 16.0975 16.9552 16.0975 16.9622C16.0904 16.9764 16.0692 16.9834 16.0551 16.9975C16.0481 16.9834 16.0339 16.9693 16.0339 16.9622C16.041 16.9411 16.0551 16.9269 16.0692 16.9058Z" fill="#FAAF5C"/>
<path d="M12.6036 17.1461C12.5895 17.1603 12.5824 17.1673 12.5683 17.1744C12.5612 17.1603 12.5542 17.1391 12.5471 17.125C12.5471 17.125 12.5542 17.1179 12.5612 17.1108C12.5754 17.125 12.5895 17.1391 12.6036 17.1461Z" fill="#FAAF5C"/>
<path d="M18.0388 16.7222C18.0741 16.7292 18.1165 16.7363 18.1518 16.7433C18.1447 16.7575 18.1447 16.7645 18.1376 16.7786C18.1094 16.7645 18.0741 16.7433 18.0388 16.7222Z" fill="#FAAF5C"/>
<path d="M8.42461 17.6615C8.4105 17.6756 8.39638 17.6827 8.38226 17.6968C8.3752 17.6827 8.36108 17.6544 8.36108 17.6474C8.36814 17.6333 8.39638 17.6262 8.4105 17.6191C8.41756 17.6262 8.41756 17.6403 8.42461 17.6615Z" fill="#FAAF5C"/>
<path d="M12.907 17.6191C12.9281 17.6262 12.9493 17.6333 12.9493 17.6403C12.9493 17.6615 12.9423 17.6756 12.9352 17.6968C12.9211 17.6897 12.907 17.6897 12.8999 17.6756C12.8999 17.6615 12.907 17.6403 12.907 17.6191Z" fill="#FAAF5C"/>
<path d="M19.2601 17.5972C19.2742 17.6254 19.2954 17.6536 19.3095 17.6819C19.3025 17.6889 19.2954 17.6889 19.2883 17.696C19.2601 17.6748 19.2389 17.6536 19.2107 17.6325C19.2319 17.6183 19.246 17.6113 19.2601 17.5972Z" fill="#FAAF5C"/>
<path d="M19.5989 17.6964C19.5706 17.7034 19.5495 17.7105 19.5283 17.7176C19.5283 17.7176 19.5142 17.6893 19.5142 17.6823C19.5353 17.6681 19.5565 17.654 19.5777 17.647C19.5847 17.654 19.5847 17.6681 19.5989 17.6964Z" fill="#FAAF5C"/>
<path d="M18.9707 17.7601C18.9495 17.7742 18.9425 17.7884 18.9284 17.8025C18.9142 17.7884 18.8931 17.7742 18.8931 17.7601C18.8931 17.746 18.9142 17.7319 18.9284 17.7178C18.9425 17.7319 18.9566 17.7389 18.9707 17.7601Z" fill="#FAAF5C"/>
<path d="M16.1116 17.5408C16.0975 17.5479 16.0834 17.5479 16.0693 17.555C16.0622 17.5338 16.0552 17.5197 16.0552 17.4985C16.0552 17.4985 16.0764 17.4914 16.0905 17.4844C16.0975 17.5056 16.1046 17.5267 16.1116 17.5408Z" fill="#FAAF5C"/>
<path d="M14.7352 17.548C14.7281 17.5621 14.714 17.5762 14.6999 17.5974C14.6928 17.5833 14.6787 17.5621 14.6858 17.548C14.6858 17.5339 14.7069 17.5268 14.714 17.5127C14.7211 17.5198 14.7281 17.5339 14.7352 17.548Z" fill="#FAAF5C"/>
<path d="M8.17058 17.4349C8.13529 17.4279 8.09999 17.4279 8.0647 17.4208C8.0647 17.4138 8.0647 17.4067 8.0647 17.3926C8.09999 17.3926 8.13529 17.3926 8.17058 17.3996C8.17058 17.4067 8.17058 17.4208 8.17058 17.4349Z" fill="#FAAF5C"/>
<path d="M15.5894 15.8116C15.5682 15.8257 15.547 15.8399 15.5329 15.854C15.5258 15.8399 15.5117 15.8257 15.5117 15.8187C15.5258 15.7975 15.547 15.7834 15.5611 15.7622C15.5682 15.7834 15.5752 15.7904 15.5894 15.8116Z" fill="#FAAF5C"/>
<path d="M17.467 16.4966C17.474 16.5319 17.4881 16.5672 17.4952 16.6025C17.4881 16.6025 17.474 16.6095 17.467 16.6095C17.4599 16.5742 17.4458 16.5389 17.4387 16.5036C17.4458 16.5036 17.4528 16.4966 17.467 16.4966Z" fill="#FAAF5C"/>
<path d="M16.8883 16.6448C16.8742 16.6377 16.853 16.6307 16.853 16.6236C16.853 16.6095 16.8601 16.5883 16.8671 16.5742C16.8813 16.5813 16.8954 16.5813 16.8954 16.5883C16.8954 16.6025 16.8883 16.6236 16.8883 16.6448Z" fill="#FAAF5C"/>
<path d="M17.1706 16.5952C17.1989 16.6023 17.2342 16.6164 17.2624 16.6235C17.2624 16.6235 17.2553 16.6446 17.2553 16.6587C17.2271 16.6446 17.1918 16.6305 17.1636 16.6164C17.1636 16.6164 17.1706 16.6023 17.1706 16.5952Z" fill="#FAAF5C"/>
<path d="M15.0671 19.2917C15.06 19.2706 15.0459 19.2564 15.0459 19.2494C15.06 19.2353 15.0741 19.2211 15.0883 19.207C15.0953 19.2211 15.1094 19.2353 15.1024 19.2423C15.0953 19.2635 15.0812 19.2776 15.0671 19.2917Z" fill="#FAAF5C"/>
<path d="M15.9565 20.3436C15.9354 20.3577 15.9071 20.3648 15.8859 20.3789C15.8789 20.3648 15.8718 20.3436 15.8718 20.3436C15.893 20.3295 15.9142 20.3154 15.9354 20.3013C15.9424 20.3083 15.9495 20.3224 15.9565 20.3436Z" fill="#FAAF5C"/>
<path d="M9.13062 18.9389C9.14473 18.9318 9.15885 18.9248 9.18003 18.9106C9.18708 18.9248 9.2012 18.953 9.19414 18.953C9.18003 18.9671 9.15885 18.9671 9.14473 18.9812C9.14473 18.9671 9.13767 18.9601 9.13062 18.9389Z" fill="#FAAF5C"/>
<path d="M13.3799 18.9885C13.3587 19.0096 13.3446 19.0308 13.3234 19.0449C13.3163 19.0449 13.3022 19.0379 13.2952 19.0308C13.3093 19.0096 13.3234 18.9885 13.3375 18.9673C13.3375 18.9743 13.3587 18.9814 13.3799 18.9885Z" fill="#FAAF5C"/>
<path d="M6.50457 18.3462C6.49752 18.3179 6.4834 18.3038 6.4834 18.2826C6.4834 18.2685 6.50457 18.2615 6.51869 18.2544C6.52575 18.2685 6.54693 18.2897 6.53987 18.3038C6.54693 18.3179 6.51869 18.325 6.50457 18.3462Z" fill="#FAAF5C"/>
<path d="M17.2058 18.0917C17.1846 18.0987 17.1634 18.1129 17.1352 18.1199C17.1352 18.1199 17.114 18.0917 17.1211 18.0917C17.1422 18.0776 17.1634 18.0634 17.1846 18.0493C17.1846 18.0564 17.1917 18.0705 17.2058 18.0917Z" fill="#FAAF5C"/>
<path d="M17.8199 18.2397C17.7988 18.2256 17.7917 18.2256 17.7776 18.2186C17.7917 18.2044 17.7988 18.1833 17.8199 18.1692C17.827 18.1621 17.8411 18.1692 17.8552 18.1692C17.8411 18.1903 17.827 18.2186 17.8199 18.2397Z" fill="#FAAF5C"/>
<path d="M16.0764 18.2398C16.0623 18.2469 16.0482 18.254 16.0341 18.261C16.027 18.2469 16.0129 18.2257 16.0059 18.2116C16.02 18.2045 16.0412 18.1975 16.0553 18.1904C16.0623 18.2045 16.0694 18.2257 16.0764 18.2398Z" fill="#FAAF5C"/>
<path d="M10.5563 17.8236C10.5352 17.8377 10.521 17.8589 10.5069 17.8589C10.4928 17.8589 10.4716 17.8448 10.4575 17.8307C10.4716 17.8095 10.4928 17.7883 10.514 17.7812C10.514 17.7812 10.5352 17.8024 10.5563 17.8236Z" fill="#FAAF5C"/>
<path d="M16.2248 17.9785C16.246 17.9997 16.2601 18.0138 16.2742 18.0209C16.2601 18.035 16.253 18.0491 16.2318 18.0562C16.2248 18.0562 16.2036 18.042 16.2036 18.035C16.2036 18.0279 16.2107 18.0068 16.2248 17.9785Z" fill="#FAAF5C"/>
<path d="M9.39186 18.0563C9.37774 18.0633 9.35656 18.0845 9.35656 18.0774C9.34244 18.0633 9.32833 18.0421 9.31421 18.021C9.32833 18.0139 9.34244 18.0068 9.3495 18.0068C9.36362 18.021 9.37774 18.0351 9.39186 18.0563Z" fill="#FAAF5C"/>
<path d="M15.7588 17.9999C15.7447 18.014 15.7376 18.0281 15.7235 18.0422C15.7094 18.0281 15.6882 18.014 15.6952 17.9999C15.7023 17.9858 15.7235 17.9716 15.7376 17.9575C15.7376 17.9787 15.7447 17.9858 15.7588 17.9999Z" fill="#FAAF5C"/>
<path d="M18.9565 16.9902C19.006 16.9479 19.0271 16.9338 19.0554 16.9126C19.0483 16.9338 19.0412 16.962 19.0271 16.9832C19.0201 16.9832 18.9989 16.9832 18.9565 16.9902Z" fill="#FAAF5C"/>
<path d="M17.6927 18.6138C17.7068 18.642 17.721 18.6632 17.7139 18.6773C17.7069 18.6914 17.6857 18.6985 17.6716 18.7055C17.6645 18.6914 17.6504 18.6773 17.6574 18.6702C17.6574 18.6491 17.6716 18.6349 17.6927 18.6138Z" fill="#FAAF5C"/>
<path d="M10.8669 18.7056C10.9022 18.7056 10.9305 18.7056 10.9658 18.7056C10.9658 18.7126 10.9658 18.7197 10.9658 18.7338C10.9305 18.7338 10.9022 18.7409 10.8669 18.7409C10.8669 18.7338 10.8669 18.7197 10.8669 18.7056Z" fill="#FAAF5C"/>
<path d="M18.0035 18.8397C17.9823 18.8468 17.9611 18.8538 17.9399 18.868C17.9399 18.8538 17.9399 18.8397 17.947 18.8327C17.9611 18.8185 17.9823 18.8115 17.9964 18.7974C17.9964 18.8115 17.9964 18.8185 18.0035 18.8397Z" fill="#FAAF5C"/>
<path d="M14.9329 18.3037C14.947 18.3249 14.9612 18.3531 14.9541 18.3602C14.9471 18.3743 14.9259 18.3884 14.9047 18.3884C14.8976 18.3884 14.8765 18.3602 14.8765 18.3461C14.8835 18.3319 14.9047 18.3178 14.9329 18.3037Z" fill="#FAAF5C"/>
<path d="M12.1587 18.4304C12.1446 18.4445 12.1305 18.4586 12.1163 18.4656C12.1093 18.4656 12.0952 18.4586 12.0811 18.4515C12.0952 18.4374 12.1022 18.4233 12.1234 18.4092C12.1234 18.4092 12.1446 18.4233 12.1587 18.4304Z" fill="#FAAF5C"/>
<path d="M15.9988 15.522C15.9847 15.5362 15.9706 15.5503 15.9706 15.5503C15.9564 15.5432 15.9353 15.5291 15.9211 15.515C15.9353 15.5009 15.9494 15.4797 15.9564 15.4868C15.9706 15.4938 15.9847 15.5079 15.9988 15.522Z" fill="#FAAF5C"/>
<path d="M9.8507 6.0637C10.2328 6.0637 10.5425 5.75399 10.5425 5.37194C10.5425 4.98989 10.2328 4.68018 9.8507 4.68018C9.46865 4.68018 9.15894 4.98989 9.15894 5.37194C9.15894 5.75399 9.46865 6.0637 9.8507 6.0637Z" fill="url(#paint23_linear)"/>
<path d="M11.2554 2.23763C11.8342 0.656449 13.8389 -0.0494329 14.2624 -2.11814e-05C14.2624 -2.11814e-05 14.1001 0.225861 13.8248 0.529391C13.4013 1.00233 13.5424 1.42586 12.7095 2.35057C12.2224 2.90116 11.2554 2.23763 11.2554 2.23763Z" fill="url(#paint24_linear)"/>
<path d="M14.0223 0.0209742C13.7258 0.197445 13.507 0.402151 13.4223 0.58568C13.4223 0.58568 12.9423 0.733915 12.8788 0.769209C12.8788 0.769209 13.0552 0.755092 13.2529 0.740974C13.38 0.733915 13.0341 1.1998 13.0341 1.1998C13.0341 1.1998 12.547 1.34097 12.3494 1.47509C12.3494 1.47509 12.66 1.38333 12.787 1.39744C12.907 1.4045 12.5823 1.91274 12.2647 1.85627C11.9823 1.7998 11.707 1.69392 11.5164 1.71509C11.467 1.79274 11.4176 1.87744 11.3752 1.95509C11.3964 2.06097 11.4388 2.1598 11.4388 2.1598L12.4623 2.3998L12.7447 2.31509C13.5352 1.41862 13.4082 1.00215 13.8176 0.536268C14.0929 0.232739 14.2552 0.00685655 14.2552 0.00685655C14.2058 -0.00726109 14.1282 -0.000202269 14.0223 0.0209742Z" fill="url(#paint25_linear)"/>
<path d="M12.4201 1.97647C12.1589 2.07529 11.9401 1.90588 11.4601 1.8C11.3824 1.93412 11.3118 2.08235 11.2554 2.23059C11.2554 2.23059 12.2154 2.90118 12.7095 2.35059C13.5424 1.42588 13.4013 1.00235 13.8248 0.529412C14.1001 0.225882 14.2624 0 14.2624 0C13.2671 0.345882 13.0977 1.72235 12.4201 1.97647Z" fill="#407817"/>
<path d="M11.3963 2.04703C11.0222 1.01644 9.10222 0.324677 8.47399 0.232912C8.27634 0.204677 8.34693 0.303501 8.60105 0.409383C8.86222 0.515265 9.80105 1.24232 9.85046 1.89879C9.89987 2.55527 11.3963 2.04703 11.3963 2.04703Z" fill="url(#paint26_linear)"/>
<path d="M8.60105 0.409383C8.85516 0.515265 9.75869 1.20703 9.8434 1.84938L10.8669 2.09644C10.8669 2.09644 11.2269 2.01879 11.3258 1.88468C11.2763 1.79291 11.2199 1.70821 11.1493 1.6235C10.7399 1.41879 10.1469 1.44703 10.0834 1.43291C10.0199 1.42585 9.80105 1.15056 9.85046 1.1435C9.97046 1.12232 10.2881 1.19291 10.2881 1.19291C10.1752 1.10821 9.7234 1.07997 9.7234 1.07997C9.56105 0.854089 9.37752 0.719971 9.4834 0.734089C9.58928 0.748206 9.67399 0.712912 9.67399 0.712912C9.67399 0.712912 9.35634 0.677618 9.28575 0.649383C9.21517 0.621147 8.85517 0.352912 8.47399 0.232912C8.27634 0.204677 8.34693 0.303501 8.60105 0.409383Z" fill="url(#paint27_linear)"/>
<path d="M11.3963 2.04703C11.361 1.95527 11.3187 1.87056 11.2693 1.79291C10.5916 1.42585 10.0905 1.61644 9.92105 1.39762C9.75164 1.17174 9.26458 0.557618 8.51634 0.239971C8.50222 0.239971 8.48811 0.232912 8.47399 0.232912C8.27634 0.204677 8.34693 0.303501 8.60105 0.409383C8.86222 0.515265 9.80105 1.24232 9.85046 1.89879C9.89987 2.55527 11.3963 2.04703 11.3963 2.04703Z" fill="#407817"/>
<path d="M14.1281 4.25668C15.2152 4.06609 15.674 3.62845 16.3587 3.04962C17.0434 2.4708 17.954 2.2308 18.4693 2.39315C18.4693 2.39315 17.7987 1.24962 15.1658 1.27786C12.5329 1.30609 11.6858 3.36021 11.6858 3.36021L14.1281 4.25668Z" fill="url(#paint28_linear)"/>
<path d="M15.1658 1.28466C14.7917 1.29172 14.4529 1.33408 14.1423 1.41172C13.4929 1.67996 12.9705 1.94819 12.6246 2.17408C12.4481 2.32231 12.2999 2.47761 12.1729 2.61878C12.2223 2.68231 12.5823 2.78819 13.0693 2.43525C14.9681 1.05878 17.9964 1.98349 16.8387 1.46113C16.4011 1.34819 15.8505 1.27761 15.1658 1.28466Z" fill="url(#paint29_linear)"/>
<path d="M17.0789 2.09627C16.6342 2.15274 15.8012 1.90568 15.4483 1.87744C15.4483 1.87744 16.2248 2.17391 16.3095 2.34332C16.3095 2.34332 16.3659 2.42097 16.1683 2.45627C15.9706 2.49862 15.6106 2.79509 15.6106 2.79509C15.6106 2.79509 14.6012 2.47038 14.0859 2.54097C14.0859 2.54097 15.0671 2.71038 15.3071 2.9645C15.5471 3.21862 14.3471 3.33862 14.3471 3.33862L15.0106 4.00215C15.533 3.77627 15.893 3.45156 16.3589 3.05627C17.0436 2.47744 17.9542 2.23744 18.4695 2.39979C18.2718 2.15274 17.5236 2.03979 17.0789 2.09627Z" fill="url(#paint30_linear)"/>
<path d="M15.9704 2.80241C15.4056 3.36712 14.7704 3.55771 14.7704 3.55771C13.9304 2.85183 13.1468 2.33653 12.5821 2.20947C12.4409 2.20947 12.4904 2.29418 12.448 2.33653C13.1115 2.633 14.0151 3.233 14.8127 4.08712C15.448 3.85418 15.8362 3.50124 16.3586 3.06359C17.0433 2.48477 17.9539 2.24477 18.4692 2.40712C17.848 2.05418 16.5351 2.23771 15.9704 2.80241Z" fill="#407817"/>
<path d="M11.1495 2.28732L11.2271 1.96968C11.2271 1.96968 10.8954 1.82144 10.373 1.70144C10.0624 1.5885 9.64594 1.49674 9.08124 1.46144C6.47653 1.28497 5.00124 3.67791 4.86712 3.87556C4.733 4.06615 4.79653 4.15085 4.79653 4.15085L5.43182 3.83321C6.75888 3.34615 8.05771 3.95321 8.05771 3.95321L9.43418 3.46615L11.213 2.87321C11.213 2.87321 11.3189 2.59791 11.1495 2.28732Z" fill="url(#paint31_linear)"/>
<path d="M5.43182 3.83284C6.75888 3.34578 8.05771 3.95284 8.05771 3.95284L9.43418 3.46578L11.213 2.87284C11.213 2.87284 11.3189 2.59049 11.1565 2.2799L11.2342 1.96225C11.2342 1.96225 10.9942 1.84931 10.5848 1.75049C10.2036 1.94108 9.66712 2.07519 8.96123 1.92696C7.99418 1.72225 6.45535 2.54814 5.54476 3.00696C5.14947 3.43755 4.91653 3.79755 4.86712 3.87519C4.733 4.06578 4.79653 4.15049 4.79653 4.15049L5.43182 3.83284Z" fill="url(#paint32_linear)"/>
<path d="M11.7071 2.12498C12.7024 2.08263 17.2624 4.89204 16.5071 9.12734C16.5071 9.12734 16.1471 8.19557 14.9754 7.6944C14.1071 7.32028 13.0554 6.72734 12.3848 4.99793C11.6224 3.05675 11.7071 2.12498 11.7071 2.12498Z" fill="url(#paint33_linear)"/>
<path d="M15.7941 5.83763C16.3518 6.69175 16.2671 7.85646 15.5753 6.90352C14.9753 6.07763 13.0623 4.80705 13.5071 2.94352C13.2035 2.73175 12.9141 2.56234 12.6529 2.42822L11.7141 2.46352C11.7494 2.8941 11.8835 3.72705 12.3776 5.00469C13.0553 6.7341 14.1 7.32704 14.9682 7.70116C16.1471 8.20234 16.5 9.1341 16.5 9.1341C16.7823 7.53881 16.3165 6.14822 15.5682 5.03293C15.54 5.23057 15.5753 5.49881 15.7941 5.83763Z" fill="url(#paint34_linear)"/>
<path d="M16.5069 9.13409C16.521 9.04232 16.5351 8.9435 16.5493 8.85173C16.4787 7.84938 15.7446 7.83526 15.4198 7.51056C15.0951 7.18585 15.0175 6.16938 15.0175 6.16938C14.8693 6.67762 15.081 7.33409 15.081 7.33409C15.081 7.33409 14.4528 7.25644 14.2198 6.67762C13.9798 6.09173 14.1493 4.78585 14.1493 4.78585C13.8528 5.1882 13.9869 6.69879 13.9869 6.69879C13.394 6.01409 13.3022 5.12467 13.4222 4.39056C13.5069 3.84703 13.5775 3.32467 13.3587 2.83056C13.2246 2.73879 13.0904 2.65408 12.9563 2.5835L12.7093 3.82585L12.6387 5.5482C13.3022 6.85409 14.2128 7.36232 14.9822 7.68703C16.154 8.19526 16.5069 9.13409 16.5069 9.13409Z" fill="url(#paint35_linear)"/>
<path d="M10.8528 17.1107C12.2222 12.1695 11.7069 8.64009 11.5445 6.33891L12.4975 4.65186C12.4975 4.65186 14.3045 10.786 13.2528 17.0754C13.2528 17.0754 12.7587 16.8989 12.441 16.8989C12.1234 16.8989 11.4316 17.266 10.8528 17.1107Z" fill="url(#paint36_linear)"/>
<path d="M12.0671 8.33646C12.3283 10.0588 11.34 16.3906 11.2483 16.7718C11.1565 17.1529 11.6012 16.8635 11.9683 16.4188C12.3353 15.967 12.0177 15.4659 12.173 13.9765C12.3283 12.487 12.6036 8.66117 12.3565 8.06117C12.1024 7.46117 11.8271 6.7694 12.0671 8.33646Z" fill="url(#paint37_linear)"/>
<path d="M12.4976 4.64453L11.6152 7.19277C11.6646 7.76453 11.7141 8.39277 11.7423 9.09159C13.4364 7.6163 12.8929 8.70336 12.8152 11.0469C12.7799 12.1834 12.4552 15.8963 12.7446 16.9269C12.9705 16.9692 13.1823 17.0469 13.2317 17.061H13.2388H13.2458C14.3046 10.7787 12.4976 4.64453 12.4976 4.64453Z" fill="url(#paint38_linear)"/>
<path d="M13.4716 10.3336C13.4575 10.1783 13.4434 10.0301 13.4293 9.88184C13.0058 10.3971 12.3846 10.9195 11.7634 10.9265C11.7634 10.9971 11.7634 11.0607 11.7563 11.1312C12.0458 11.1595 12.6034 11.0677 13.4716 10.3336Z" fill="url(#paint39_linear)"/>
<path d="M11.7563 9.36683C11.7563 9.43742 11.7634 9.51507 11.7634 9.58566C12.1093 9.52919 12.7587 9.31742 13.274 8.51271C13.2528 8.35036 13.2246 8.18801 13.2034 8.03271C13.0269 8.52683 12.3705 9.11271 11.7563 9.36683Z" fill="url(#paint40_linear)"/>
<path d="M13.5563 11.6748C12.9422 12.183 12.4975 12.3666 11.6857 12.5219C11.6787 12.5783 11.6787 12.6348 11.6716 12.6842C12.554 12.663 13.2316 12.303 13.5705 12.0701C13.5705 11.943 13.5634 11.8089 13.5563 11.6748Z" fill="url(#paint41_linear)"/>
<path d="M13.4152 15.9101C13.4293 15.7618 13.4434 15.6207 13.4575 15.4795C12.8858 15.8254 11.834 16.1077 11.0928 16.1642C11.0716 16.2489 11.0505 16.3266 11.0293 16.4113C12.0528 16.4465 13.0693 16.0583 13.4152 15.9101Z" fill="url(#paint42_linear)"/>
<path d="M13.5634 13.9266C13.5704 13.7502 13.5775 13.5808 13.5775 13.4043L13.5704 13.4114C13.2175 13.8137 12.4481 14.449 11.4528 14.3996C11.4387 14.4631 11.4316 14.5337 11.4175 14.5972C12.3351 14.7808 13.2669 14.1525 13.5634 13.9266Z" fill="url(#paint43_linear)"/>
<path d="M11.6787 8.01841C11.6858 8.07488 11.6858 8.13841 11.6928 8.19488C12.1164 8.07488 12.6811 7.78547 13.0481 7.09371C13.0269 6.97371 13.0058 6.86077 12.9846 6.75488C12.7658 7.19253 12.3917 7.70076 11.6787 8.01841Z" fill="url(#paint44_linear)"/>
<path d="M6.42689 10.6022C7.04101 9.11276 8.0716 8.541 8.72807 7.34805C9.25748 6.381 9.56101 5.16688 9.9563 4.56688C10.3516 3.96688 10.0763 3.021 10.0763 3.021C10.0763 3.021 6.29278 3.98805 5.73513 6.61394C5.17748 9.23982 6.42689 10.6022 6.42689 10.6022Z" fill="#76AB50"/>
<path d="M6.42689 10.6022C7.04101 9.11276 8.0716 8.541 8.72807 7.34805C9.25748 6.381 9.56101 5.16688 9.9563 4.56688C10.3516 3.96688 10.0763 3.021 10.0763 3.021C10.0763 3.021 6.29278 3.98805 5.73513 6.61394C5.17748 9.23982 6.42689 10.6022 6.42689 10.6022Z" fill="url(#paint45_linear)"/>
<path d="M10.0834 3.021C10.0834 3.021 9.75868 3.1057 9.2928 3.28923C9.33515 3.9457 8.88338 4.55276 8.69986 4.69394C8.50221 4.85629 7.20338 5.96453 6.80809 7.45394C6.4128 8.94335 6.1375 9.21158 5.96103 8.181C5.81986 7.35511 5.9328 6.11276 7.13986 4.49629C6.48338 5.03276 5.92574 5.72453 5.74221 6.61394C5.18456 9.23276 6.43397 10.6022 6.43397 10.6022C7.04809 9.11276 8.07868 8.541 8.73515 7.34805C9.26456 6.381 9.56809 5.16688 9.96339 4.56688C10.3587 3.97394 10.0834 3.021 10.0834 3.021Z" fill="url(#paint46_linear)"/>
<path d="M6.88591 7.4401C7.10473 7.5248 7.18944 8.23775 7.34474 8.46363C7.39415 8.54127 8.23415 7.4401 8.23415 7.4401C8.23415 7.4401 7.99415 6.47304 7.59179 6.10598C7.59179 6.10598 8.06474 6.28245 8.31885 6.82598C8.56591 7.36951 8.82709 5.9648 8.85532 5.71774C8.8765 5.47069 8.50944 4.82127 8.38238 4.68716C8.38238 4.68716 8.86944 5.25186 9.08827 5.11774C9.30709 4.98363 9.56121 4.69421 9.50474 4.25657C9.44827 3.81892 9.69532 3.27539 9.69532 3.27539L9.68827 4.05892L9.26474 5.9648L8.33297 7.87775L6.58944 10.0025L6.33532 10.6166C6.33532 10.6166 6.30709 9.62128 7.12591 8.88716L7.1965 8.49186L6.88591 7.4401Z" fill="url(#paint47_linear)"/>
<path d="M10.1469 4.05864C10.2316 3.54335 10.0763 3.021 10.0763 3.021C10.0763 3.021 9.94924 3.05629 9.73042 3.12688C9.66689 3.14805 9.55394 3.78335 9.61042 4.24923C9.63159 4.41158 9.58924 4.581 9.50453 4.72217C8.98218 5.60453 9.05983 6.64923 8.17041 7.74335C7.34453 8.75982 6.62453 9.52923 6.30688 10.4539C6.37747 10.5528 6.41983 10.6022 6.41983 10.6022C7.03394 9.11276 8.06453 8.541 8.721 7.34805C9.25042 6.381 9.55394 5.16688 9.94924 4.56688C10.0481 4.41864 10.1045 4.24923 10.1328 4.07982V4.07276C10.1469 4.07276 10.1469 4.0657 10.1469 4.05864Z" fill="#407817"/>
<path d="M16.1681 8.18824C15.6175 7.58119 14.2622 7.36942 13.7752 6.69883C13.281 6.02824 12.9987 5.71766 13.2387 4.72236C13.4081 4.00236 13.3869 3.25413 13.2105 2.74589C12.8646 2.42118 12.4905 2.36471 12.321 2.27295C12.6599 2.5553 13.2105 3.19766 13.0975 3.91766C13.0199 4.44707 12.8928 5.01177 12.6669 5.61883C13.3305 6.8753 14.2199 7.36942 14.9822 7.69413C16.161 8.1953 16.514 9.12707 16.514 9.12707C16.5281 9.0353 16.5422 8.93648 16.5563 8.84472C16.4999 8.66824 16.394 8.44236 16.1681 8.18824Z" fill="#407817"/>
<path d="M10.7964 8.71044C11.4105 7.89867 9.82227 6.40926 9.82227 4.44691C9.82227 2.25162 10.8176 1.75044 11.234 1.96926C11.234 1.96926 13.0976 1.92691 13.1329 3.88926C13.154 5.27279 12.4764 8.22338 10.7964 8.71044Z" fill="url(#paint48_linear)"/>
<path d="M12.2293 2.22363C12.554 2.6754 12.8222 3.38128 12.7799 4.44716C12.6881 7.05187 11.1775 7.85657 11.5164 6.66363C11.8199 5.61187 10.2458 3.90363 10.1893 2.5554C9.97048 2.95069 9.81519 3.55775 9.81519 4.4401C9.81519 6.40246 11.4034 7.89187 10.7893 8.70363C12.4693 8.20951 13.1469 5.25893 13.1258 3.8754C13.1117 2.95069 12.6811 2.47069 12.2293 2.22363Z" fill="url(#paint49_linear)"/>
<path d="M7.37305 3.5224C7.86716 2.73182 8.40364 2.35064 8.65069 2.28711C8.65069 2.28711 7.74011 2.93652 7.70481 3.45888" fill="url(#paint50_linear)"/>
<path d="M9.0459 0.599851C9.34943 0.585734 9.63884 0.698675 9.67413 0.712792C9.70943 0.72691 9.70943 0.755145 9.54707 0.712792C9.38472 0.670439 9.1659 0.684557 9.1659 0.684557" fill="#407817"/>
<path d="M9.56101 1.04443C10.2175 1.07267 10.3798 1.23502 10.2245 1.17855C10.0763 1.12208 9.78689 1.07973 9.65983 1.15032C9.53984 1.22796 9.56101 1.04443 9.56101 1.04443Z" fill="#407817"/>
<path d="M13.6624 0.500977C13.2883 0.536271 12.9424 0.726859 12.9001 0.748035C12.8577 0.769212 12.8648 0.811565 13.0554 0.726859C13.2459 0.642153 13.5283 0.628035 13.5283 0.628035" fill="#407817"/>
<path d="M13.2036 1.12207C12.3989 1.31972 12.2436 1.55972 12.413 1.44678C12.5824 1.34089 12.9212 1.22089 13.1048 1.27736C13.2812 1.34089 13.2036 1.12207 13.2036 1.12207Z" fill="#407817"/>
<path d="M17.0082 2.30804C15.667 1.7151 15.1941 1.89157 15.5541 1.92686C15.9141 1.96216 16.5141 2.15274 16.6976 2.42804C16.8811 2.70333 17.0082 2.30804 17.0082 2.30804Z" fill="#407817"/>
<path d="M16.0976 2.87991C14.3752 2.26579 13.7823 2.56226 14.2411 2.56226C14.6929 2.56226 15.4694 2.73873 15.7164 3.08462C15.9635 3.4305 16.0976 2.87991 16.0976 2.87991Z" fill="#407817"/>
<path d="M8.38933 7.75042C8.27639 6.42336 7.30227 5.78806 7.62698 6.1763C7.92345 6.52218 8.14933 7.21395 8.2058 8.11042C8.26933 8.03277 8.33286 7.94806 8.38933 7.87042C8.38933 7.83512 8.38933 7.79277 8.38933 7.75042Z" fill="url(#paint51_linear)"/>
<path d="M9.194 6.33871C9.074 5.95753 8.85517 5.33635 8.58694 4.96224C8.26929 4.51047 8.25517 4.61635 8.56576 5.15988C8.81988 5.60459 8.94694 6.22576 9.01047 6.76929C9.074 6.62812 9.13753 6.47988 9.194 6.33871Z" fill="url(#paint52_linear)"/>
<path d="M7.23163 9.2611C7.22457 8.46345 7.02692 7.36228 6.88574 7.43993C6.88574 7.53169 6.89986 7.62346 6.9281 7.71522C7.1328 8.37875 7.04104 8.88698 7.06221 9.49404C7.11163 9.40934 7.17515 9.33169 7.23163 9.2611Z" fill="url(#paint53_linear)"/>
<path d="M14.2623 7.12203C13.8952 6.71262 13.9234 5.51968 14.114 4.96909C14.2976 4.43968 13.7187 4.97615 13.7681 6.99498C13.9446 7.13615 14.1211 7.25615 14.2976 7.36204C14.3681 7.3338 14.3893 7.26321 14.2623 7.12203Z" fill="#407817"/>
<path d="M15.3564 7.63768C15.0387 7.39062 14.9611 6.67062 15.0246 6.24709C15.0882 5.84474 14.7423 6.30356 15.0458 7.72944C15.1587 7.77886 15.2646 7.83533 15.3635 7.8918C15.4552 7.83533 15.5046 7.75062 15.3564 7.63768Z" fill="#407817"/>
<path d="M8.33985 3.71289C8.21985 3.77642 8.0928 3.84701 7.9728 3.9176C4.91632 6.77642 6.34221 10.7505 6.34221 10.7505L6.43397 10.6023C5.45985 7.59524 7.03397 4.90583 8.33985 3.71289Z" fill="url(#paint54_linear)"/>
<path d="M11.6152 2.30802C11.5235 2.1739 11.4458 2.06096 11.3752 1.96919C11.2905 1.96214 11.2341 1.96214 11.2341 1.96214C11.2129 1.95508 11.1988 1.94802 11.1776 1.94096C11.0999 1.91272 11.0011 1.92684 10.8882 1.96919C11.6152 2.48449 12.1094 4.12919 11.9329 5.61155C11.9329 5.61155 12.5188 3.64919 11.6152 2.30802Z" fill="url(#paint55_linear)"/>
<path d="M11.4318 1.95522C11.3118 1.94816 11.2412 1.94816 11.2412 1.94816C11.1918 1.93404 11.1424 1.92698 11.0859 1.91992C11.813 2.32227 12.1942 3.93169 11.9824 5.28698C11.9824 5.30816 11.933 5.60463 11.933 5.60463C11.9683 5.61169 12.1095 5.36463 12.1165 5.25875C12.3142 3.7411 11.8977 2.54816 11.4318 1.95522Z" fill="url(#paint56_linear)"/>
<path d="M7.23174 2.33643C7.23174 2.33643 6.46233 2.88701 6.35645 3.35995C6.74468 3.29643 7.1188 3.28231 7.49292 3.31054L7.51409 3.29643C7.51409 3.29643 6.94233 3.30348 6.64586 3.18348C6.47645 3.12701 7.23174 2.33643 7.23174 2.33643Z" fill="url(#paint57_linear)"/>
<path d="M8.65054 2.28691C8.65054 2.28691 7.87407 2.84455 7.72583 3.33867C8.19877 3.38808 8.67171 3.27514 9.05995 2.99985C9.43407 2.73867 9.99171 2.35749 10.7823 1.81396C10.0341 2.02573 9.00348 2.79514 8.67877 3.04926C8.35407 3.29632 7.98701 3.27514 8.00112 3.08455C8.03642 2.83749 8.65054 2.28691 8.65054 2.28691Z" fill="url(#paint58_linear)"/>
<path d="M6.56829 2.13867C5.53065 2.80926 4.95182 3.75514 4.86712 3.86808C4.733 4.05867 4.79653 4.14338 4.79653 4.14338L5.43182 3.82573C5.70006 3.72691 5.96829 3.6775 6.22241 3.65632C6.33535 3.38808 6.42712 3.12691 6.34947 3.11279C6.18712 3.09161 5.22006 3.7622 5.38947 3.4375C5.52359 3.21161 6.01771 2.59044 6.56829 2.13867Z" fill="url(#paint59_linear)"/>
<path d="M7.97288 3.91749C8.86935 3.38808 9.68817 3.31749 9.94935 3.23985C10.2388 2.29396 10.8599 1.83514 11.1776 1.94808C11.107 1.91985 10.9729 1.87044 10.7893 1.81396C9.99876 2.35749 9.44111 2.74573 9.067 2.99985C8.6717 3.27514 8.1917 3.38808 7.7117 3.33161C7.00582 3.25396 6.32111 3.28926 5.54464 3.57867C4.81758 3.84691 4.80347 4.14338 4.80347 4.14338L5.26229 3.91043C5.41053 3.83279 5.56582 3.76926 5.73523 3.73396C6.74464 3.48691 7.69053 3.80455 7.97288 3.91749Z" fill="#407817"/>
<path d="M6.03174 3.50113C6.49762 2.7529 6.9988 2.39996 7.23174 2.33643C7.23174 2.33643 6.37762 2.94348 6.34233 3.4376" fill="url(#paint60_linear)"/>
<path d="M10.6481 6.47992C10.3093 6.1411 10.1329 5.31522 10.1329 5.31522L10.2881 4.94816C10.2881 4.94816 10.0764 5.03992 10.0058 4.7011C9.65991 3.04933 10.5352 2.5058 11.0364 1.98345L11.0011 1.91992C10.5281 1.9411 9.82227 2.59051 9.82227 4.44698C9.82227 6.40933 11.4105 7.89875 10.7964 8.71051C11.4458 8.21639 10.9799 6.81875 10.6481 6.47992Z" fill="url(#paint61_linear)"/>
<path d="M10.8103 3.86816C10.7397 4.17169 10.5209 4.76463 9.99854 5.63287C10.0197 5.70346 10.0409 5.77404 10.0621 5.84463C10.0621 5.84463 10.2527 5.61169 10.3656 5.3364C10.5421 4.91287 10.7468 4.2564 10.8103 3.86816Z" fill="url(#paint62_linear)"/>
<path d="M9.99865 5.62577C9.98453 5.57636 9.97042 5.52695 9.9563 5.47754C9.97042 5.52695 9.98453 5.57636 9.99865 5.62577Z" fill="#4B8C1C"/>
<path d="M9.8999 5.22357C9.92814 5.36475 9.96343 5.49886 9.99873 5.63298C11.0152 3.96004 10.874 3.30357 10.7611 3.78357C10.6481 4.24239 10.2952 5.00475 9.8999 5.22357Z" fill="url(#paint63_linear)"/>
<path d="M10.6765 6.57167L10.4365 6.78343C10.4789 6.88225 10.5283 6.98814 10.5706 7.0799C11.1142 6.46578 11.2342 5.38578 11.2765 5.0752L11.1142 5.68931L10.6765 6.57167Z" fill="url(#paint64_linear)"/>
<path d="M11.1989 5.15283C11.0859 5.61165 10.74 6.35989 10.3518 6.58577C10.4012 6.69871 10.4436 6.8046 10.493 6.90342C11.4459 5.30813 11.3118 4.68695 11.1989 5.15283Z" fill="url(#paint65_linear)"/>
<path d="M11.7212 1.42582C12.3494 1.447 12.7377 0.804643 13.3306 0.381113C13.4435 0.303466 13.5282 0.21876 13.5988 0.141113C13.0341 0.33876 12.2577 0.76229 11.7212 1.42582Z" fill="url(#paint66_linear)"/>
</g>
<defs>
<radialGradient id="paint0_radial" cx="0" cy="0" r="1" gradientUnits="userSpaceOnUse" gradientTransform="translate(12.0266 19.591) rotate(-1.3891) scale(9.10384 2.33941)">
<stop stop-color="white"/>
<stop offset="1" stop-color="white" stop-opacity="0"/>
</radialGradient>
<radialGradient id="paint1_radial" cx="0" cy="0" r="1" gradientUnits="userSpaceOnUse" gradientTransform="translate(15.4487 19.1251) rotate(93.4705) scale(2.81845 22.6009)">
<stop stop-color="white" stop-opacity="0.5"/>
<stop offset="1" stop-color="white" stop-opacity="0"/>
</radialGradient>
<linearGradient id="paint2_linear" x1="13.5361" y1="20.0375" x2="11.81" y2="17.0317" gradientUnits="userSpaceOnUse">
<stop stop-color="#FFD87C"/>
<stop offset="0.343" stop-color="#FFD981"/>
<stop offset="0.7666" stop-color="#FFDE90"/>
<stop offset="1" stop-color="#FFE19C"/>
</linearGradient>
<radialGradient id="paint3_radial" cx="0" cy="0" r="1" gradientUnits="userSpaceOnUse" gradientTransform="translate(12.6982 16.3738) rotate(78.8728) scale(3.45296 6.69013)">
<stop stop-color="#FFCB4B"/>
<stop offset="1" stop-color="#FFA754" stop-opacity="0"/>
</radialGradient>
<radialGradient id="paint4_radial" cx="0" cy="0" r="1" gradientUnits="userSpaceOnUse" gradientTransform="translate(12.4393 17.7263) rotate(-1.3891) scale(8.19202 4.08846)">
<stop stop-color="#FFCB4B"/>
<stop offset="1" stop-color="#FFA754" stop-opacity="0"/>
</radialGradient>
<radialGradient id="paint5_radial" cx="0" cy="0" r="1" gradientUnits="userSpaceOnUse" gradientTransform="translate(14.8025 14.6664) scale(3.22976 3.23012)">
<stop stop-color="#FFCB4B"/>
<stop offset="1" stop-color="#FFA754" stop-opacity="0"/>
</radialGradient>
<radialGradient id="paint6_radial" cx="0" cy="0" r="1" gradientUnits="userSpaceOnUse" gradientTransform="translate(6.40516 19.1163) scale(0.125622)">
<stop stop-color="#FFA754"/>
<stop offset="1" stop-color="#FFA754" stop-opacity="0"/>
</radialGradient>
<radialGradient id="paint7_radial" cx="0" cy="0" r="1" gradientUnits="userSpaceOnUse" gradientTransform="translate(10.7753 16.2243) scale(0.125625)">
<stop stop-color="#FFA754"/>
<stop offset="1" stop-color="#FFA754" stop-opacity="0"/>
</radialGradient>
<radialGradient id="paint8_radial" cx="0" cy="0" r="1" gradientUnits="userSpaceOnUse" gradientTransform="translate(9.19743 17.3102) scale(0.108439)">
<stop stop-color="#FFA754"/>
<stop offset="1" stop-color="#FFA754" stop-opacity="0"/>
</radialGradient>
<radialGradient id="paint9_radial" cx="0" cy="0" r="1" gradientUnits="userSpaceOnUse" gradientTransform="translate(12.3343 18.7706) rotate(-177.23) scale(0.0687936)">
<stop stop-color="#FFA754"/>
<stop offset="1" stop-color="#FFA754" stop-opacity="0"/>
</radialGradient>
<radialGradient id="paint10_radial" cx="0" cy="0" r="1" gradientUnits="userSpaceOnUse" gradientTransform="translate(8.57098 19.4026) scale(0.100338)">
<stop stop-color="#FFA754"/>
<stop offset="1" stop-color="#FFA754" stop-opacity="0"/>
</radialGradient>
<radialGradient id="paint11_radial" cx="0" cy="0" r="1" gradientUnits="userSpaceOnUse" gradientTransform="translate(11.4981 17.8885) scale(0.0682209)">
<stop stop-color="#FFA754"/>
<stop offset="1" stop-color="#FFA754" stop-opacity="0"/>
</radialGradient>
<radialGradient id="paint12_radial" cx="0" cy="0" r="1" gradientUnits="userSpaceOnUse" gradientTransform="translate(12.7575 17.5988) scale(0.119216)">
<stop stop-color="#FFA754"/>
<stop offset="1" stop-color="#FFA754" stop-opacity="0"/>
</radialGradient>
<radialGradient id="paint13_radial" cx="0" cy="0" r="1" gradientUnits="userSpaceOnUse" gradientTransform="translate(10.0253 18.2601) rotate(-177.23) scale(0.119218)">
<stop stop-color="#FFA754"/>
<stop offset="1" stop-color="#FFA754" stop-opacity="0"/>
</radialGradient>
<radialGradient id="paint14_radial" cx="0" cy="0" r="1" gradientUnits="userSpaceOnUse" gradientTransform="translate(13.6219 18.5503) scale(0.181931)">
<stop stop-color="#FFA754"/>
<stop offset="1" stop-color="#FFA754" stop-opacity="0"/>
</radialGradient>
<radialGradient id="paint15_radial" cx="0" cy="0" r="1" gradientUnits="userSpaceOnUse" gradientTransform="translate(15.1826 16.4885) scale(0.0682203)">
<stop stop-color="#FFA754"/>
<stop offset="1" stop-color="#FFA754" stop-opacity="0"/>
</radialGradient>
<radialGradient id="paint16_radial" cx="0" cy="0" r="1" gradientUnits="userSpaceOnUse" gradientTransform="translate(15.2242 17.6508) scale(0.0808445)">
<stop stop-color="#FFA754"/>
<stop offset="1" stop-color="#FFA754" stop-opacity="0"/>
</radialGradient>
<radialGradient id="paint17_radial" cx="0" cy="0" r="1" gradientUnits="userSpaceOnUse" gradientTransform="translate(15.0335 19.0279) scale(0.0511764)">
<stop stop-color="#FFA754"/>
<stop offset="1" stop-color="#FFA754" stop-opacity="0"/>
</radialGradient>
<radialGradient id="paint18_radial" cx="0" cy="0" r="1" gradientUnits="userSpaceOnUse" gradientTransform="translate(16.4693 19.01) scale(0.102824)">
<stop stop-color="#FFA754"/>
<stop offset="1" stop-color="#FFA754" stop-opacity="0"/>
</radialGradient>
<radialGradient id="paint19_radial" cx="0" cy="0" r="1" gradientUnits="userSpaceOnUse" gradientTransform="translate(16.3785 16.0263) scale(0.119214)">
<stop stop-color="#FFA754"/>
<stop offset="1" stop-color="#FFA754" stop-opacity="0"/>
</radialGradient>
<radialGradient id="paint20_radial" cx="0" cy="0" r="1" gradientUnits="userSpaceOnUse" gradientTransform="translate(19.3457 16.5258) scale(0.0829747)">
<stop stop-color="#FFA754"/>
<stop offset="1" stop-color="#FFA754" stop-opacity="0"/>
</radialGradient>
<radialGradient id="paint21_radial" cx="0" cy="0" r="1" gradientUnits="userSpaceOnUse" gradientTransform="translate(17.5308 17.8866) scale(0.0479968)">
<stop stop-color="#FFA754"/>
<stop offset="1" stop-color="#FFA754" stop-opacity="0"/>
</radialGradient>
<radialGradient id="paint22_radial" cx="0" cy="0" r="1" gradientUnits="userSpaceOnUse" gradientTransform="translate(17.8264 16.7538) scale(0.120103)">
<stop stop-color="#FFA754"/>
<stop offset="1" stop-color="#FFA754" stop-opacity="0"/>
</radialGradient>
<linearGradient id="paint23_linear" x1="10.2326" y1="4.52723" x2="9.10159" y2="7.04724" gradientUnits="userSpaceOnUse">
<stop stop-color="#3C2200"/>
<stop offset="1" stop-color="#643800"/>
</linearGradient>
<linearGradient id="paint24_linear" x1="12.9544" y1="2.17838" x2="12.6171" y2="0.352765" gradientUnits="userSpaceOnUse">
<stop stop-color="#4B8C1C"/>
<stop offset="1" stop-color="#76AB50"/>
</linearGradient>
<linearGradient id="paint25_linear" x1="13.7573" y1="2.21737" x2="11.9716" y2="-0.0296032" gradientUnits="userSpaceOnUse">
<stop stop-color="#4B8C1C"/>
<stop offset="1" stop-color="#4B8C1C" stop-opacity="0"/>
</linearGradient>
<linearGradient id="paint26_linear" x1="10.1969" y1="1.92584" x2="9.6612" y2="0.616299" gradientUnits="userSpaceOnUse">
<stop stop-color="#4B8C1C"/>
<stop offset="1" stop-color="#76AB50"/>
</linearGradient>
<linearGradient id="paint27_linear" x1="9.75997" y1="1.53538" x2="9.94601" y2="0.478672" gradientUnits="userSpaceOnUse">
<stop stop-color="#4B8C1C"/>
<stop offset="1" stop-color="#4B8C1C" stop-opacity="0"/>
</linearGradient>
<linearGradient id="paint28_linear" x1="13.2573" y1="2.92849" x2="16.134" y2="2.57138" gradientUnits="userSpaceOnUse">
<stop stop-color="#4B8C1C"/>
<stop offset="1" stop-color="#76AB50"/>
</linearGradient>
<linearGradient id="paint29_linear" x1="14.2422" y1="2.37666" x2="15.6925" y2="1.24691" gradientUnits="userSpaceOnUse">
<stop stop-color="#76AB50" stop-opacity="0"/>
<stop offset="1" stop-color="#76AB50"/>
</linearGradient>
<linearGradient id="paint30_linear" x1="16.3335" y1="3.99974" x2="16.2342" y2="1.15225" gradientUnits="userSpaceOnUse">
<stop stop-color="#4B8C1C"/>
<stop offset="1" stop-color="#4B8C1C" stop-opacity="0"/>
</linearGradient>
<linearGradient id="paint31_linear" x1="8.48618" y1="5.66717" x2="7.74206" y2="1.55964" gradientUnits="userSpaceOnUse">
<stop stop-color="#4B8C1C"/>
<stop offset="1" stop-color="#76AB50"/>
</linearGradient>
<linearGradient id="paint32_linear" x1="11.0313" y1="12.617" x2="6.95147" y2="-0.313914" gradientUnits="userSpaceOnUse">
<stop stop-color="#4B8C1C"/>
<stop offset="1" stop-color="#4B8C1C" stop-opacity="0"/>
</linearGradient>
<linearGradient id="paint33_linear" x1="11.2169" y1="4.9605" x2="16.1174" y2="6.07156" gradientUnits="userSpaceOnUse">
<stop stop-color="#4B8C1C"/>
<stop offset="1" stop-color="#76AB50"/>
</linearGradient>
<linearGradient id="paint34_linear" x1="12.5315" y1="8.78817" x2="16.2227" y2="1.80283" gradientUnits="userSpaceOnUse">
<stop stop-color="#4B8C1C"/>
<stop offset="1" stop-color="#4B8C1C" stop-opacity="0"/>
</linearGradient>
<linearGradient id="paint35_linear" x1="14.1619" y1="6.93829" x2="14.9656" y2="5.40529" gradientUnits="userSpaceOnUse">
<stop stop-color="#4B8C1C"/>
<stop offset="1" stop-color="#4B8C1C" stop-opacity="0"/>
</linearGradient>
<linearGradient id="paint36_linear" x1="11.7965" y1="10.8979" x2="14.574" y2="10.8185" gradientUnits="userSpaceOnUse">
<stop stop-color="#A3541E"/>
<stop offset="1" stop-color="#512D00"/>
</linearGradient>
<linearGradient id="paint37_linear" x1="9.80396" y1="12.1781" x2="13.3453" y2="12.1483" gradientUnits="userSpaceOnUse">
<stop stop-color="#C86F34"/>
<stop offset="1" stop-color="#A3541E"/>
</linearGradient>
<linearGradient id="paint38_linear" x1="7.75612" y1="12.5371" x2="15.2867" y2="10.0666" gradientUnits="userSpaceOnUse">
<stop stop-color="#A3541E"/>
<stop offset="1" stop-color="#512D00"/>
</linearGradient>
<linearGradient id="paint39_linear" x1="13.5969" y1="10.0615" x2="12.4064" y2="10.7758" gradientUnits="userSpaceOnUse">
<stop stop-color="#3C2200"/>
<stop offset="1" stop-color="#643800"/>
</linearGradient>
<linearGradient id="paint40_linear" x1="13.319" y1="8.30682" x2="12.1881" y2="9.19967" gradientUnits="userSpaceOnUse">
<stop stop-color="#3C2200"/>
<stop offset="1" stop-color="#643800"/>
</linearGradient>
<linearGradient id="paint41_linear" x1="13.5636" y1="11.9718" x2="11.8673" y2="12.4479" gradientUnits="userSpaceOnUse">
<stop stop-color="#3C2200"/>
<stop offset="1" stop-color="#643800"/>
</linearGradient>
<linearGradient id="paint42_linear" x1="13.5348" y1="15.8318" x2="12.1063" y2="15.9806" gradientUnits="userSpaceOnUse">
<stop stop-color="#3C2200"/>
<stop offset="1" stop-color="#643800"/>
</linearGradient>
<linearGradient id="paint43_linear" x1="13.3984" y1="13.8779" x2="11.9705" y2="14.2154" gradientUnits="userSpaceOnUse">
<stop stop-color="#3C2200"/>
<stop offset="1" stop-color="#643800"/>
</linearGradient>
<linearGradient id="paint44_linear" x1="12.6176" y1="7.35742" x2="11.576" y2="8.04194" gradientUnits="userSpaceOnUse">
<stop stop-color="#3C2200"/>
<stop offset="1" stop-color="#643800"/>
</linearGradient>
<linearGradient id="paint45_linear" x1="10.0149" y1="3.34452" x2="7.36594" y2="6.70776" gradientUnits="userSpaceOnUse">
<stop stop-color="#4B8C1C"/>
<stop offset="1" stop-color="#76AB50"/>
</linearGradient>
<linearGradient id="paint46_linear" x1="10.691" y1="12.9967" x2="6.85118" y2="3.53122" gradientUnits="userSpaceOnUse">
<stop stop-color="#4B8C1C"/>
<stop offset="1" stop-color="#4B8C1C" stop-opacity="0"/>
</linearGradient>
<linearGradient id="paint47_linear" x1="8.66704" y1="7.44933" x2="7.12124" y2="6.28997" gradientUnits="userSpaceOnUse">
<stop stop-color="#4B8C1C"/>
<stop offset="1" stop-color="#4B8C1C" stop-opacity="0"/>
</linearGradient>
<linearGradient id="paint48_linear" x1="9.57437" y1="9.10392" x2="11.5484" y2="4.20825" gradientUnits="userSpaceOnUse">
<stop stop-color="#4B8C1C"/>
<stop offset="1" stop-color="#76AB50"/>
</linearGradient>
<linearGradient id="paint49_linear" x1="11.4753" y1="18.5464" x2="11.4753" y2="0.12208" gradientUnits="userSpaceOnUse">
<stop stop-color="#4B8C1C"/>
<stop offset="1" stop-color="#4B8C1C" stop-opacity="0"/>
</linearGradient>
<linearGradient id="paint50_linear" x1="8.17397" y1="2.00131" x2="7.91602" y2="3.42998" gradientUnits="userSpaceOnUse">
<stop stop-color="#4B8C1C"/>
<stop offset="0.9987" stop-color="#407817"/>
</linearGradient>
<linearGradient id="paint51_linear" x1="7.21631" y1="6.0169" x2="8.01" y2="7.18761" gradientUnits="userSpaceOnUse">
<stop stop-color="#4B8C1C"/>
<stop offset="0.9987" stop-color="#407817"/>
</linearGradient>
<linearGradient id="paint52_linear" x1="7.92721" y1="4.92269" x2="8.68122" y2="5.71637" gradientUnits="userSpaceOnUse">
<stop stop-color="#4B8C1C"/>
<stop offset="0.9987" stop-color="#407817"/>
</linearGradient>
<linearGradient id="paint53_linear" x1="6.80233" y1="7.55075" x2="7.09998" y2="8.82071" gradientUnits="userSpaceOnUse">
<stop stop-color="#4B8C1C"/>
<stop offset="0.9987" stop-color="#407817"/>
</linearGradient>
<linearGradient id="paint54_linear" x1="7.15017" y1="5.18277" x2="7.24939" y2="9.22086" gradientUnits="userSpaceOnUse">
<stop stop-color="#4B8C1C"/>
<stop offset="0.9987" stop-color="#407817"/>
</linearGradient>
<linearGradient id="paint55_linear" x1="9.91193" y1="1.66878" x2="12.0184" y2="4.23931" gradientUnits="userSpaceOnUse">
<stop stop-color="#4B8C1C"/>
<stop offset="1" stop-color="#76AB50"/>
</linearGradient>
<linearGradient id="paint56_linear" x1="11.8415" y1="4.03307" x2="10.0259" y2="0.982259" gradientUnits="userSpaceOnUse">
<stop stop-color="#4B8C1C"/>
<stop offset="0.9987" stop-color="#407817"/>
</linearGradient>
<linearGradient id="paint57_linear" x1="6.92123" y1="3.62252" x2="6.98076" y2="2.47659" gradientUnits="userSpaceOnUse">
<stop stop-color="#4B8C1C"/>
<stop offset="1" stop-color="#4B8C1C" stop-opacity="0"/>
</linearGradient>
<linearGradient id="paint58_linear" x1="9.19524" y1="3.78092" x2="9.28937" y2="1.96899" gradientUnits="userSpaceOnUse">
<stop stop-color="#4B8C1C"/>
<stop offset="1" stop-color="#4B8C1C" stop-opacity="0"/>
</linearGradient>
<linearGradient id="paint59_linear" x1="5.7299" y1="3.94012" x2="5.65549" y2="2.73463" gradientUnits="userSpaceOnUse">
<stop stop-color="#4B8C1C"/>
<stop offset="1" stop-color="#4B8C1C" stop-opacity="0"/>
</linearGradient>
<linearGradient id="paint60_linear" x1="6.84157" y1="1.76062" x2="6.58362" y2="3.18929" gradientUnits="userSpaceOnUse">
<stop stop-color="#4B8C1C"/>
<stop offset="0.9987" stop-color="#407817"/>
</linearGradient>
<linearGradient id="paint61_linear" x1="9.8966" y1="2.40345" x2="11.7761" y2="7.85074" gradientUnits="userSpaceOnUse">
<stop stop-color="#4B8C1C"/>
<stop offset="1" stop-color="#4B8C1C" stop-opacity="0"/>
</linearGradient>
<linearGradient id="paint62_linear" x1="10.044" y1="5.83112" x2="10.8326" y2="3.8754" gradientUnits="userSpaceOnUse">
<stop stop-color="#4B8C1C"/>
<stop offset="1" stop-color="#4B8C1C" stop-opacity="0"/>
</linearGradient>
<linearGradient id="paint63_linear" x1="10.8249" y1="4.37112" x2="9.8427" y2="4.98126" gradientUnits="userSpaceOnUse">
<stop stop-color="#4B8C1C"/>
<stop offset="0.9987" stop-color="#407817"/>
</linearGradient>
<linearGradient id="paint64_linear" x1="10.5788" y1="7.02132" x2="11.0848" y2="5.35453" gradientUnits="userSpaceOnUse">
<stop stop-color="#4B8C1C"/>
<stop offset="1" stop-color="#4B8C1C" stop-opacity="0"/>
</linearGradient>
<linearGradient id="paint65_linear" x1="11.5492" y1="5.53686" x2="10.567" y2="6.14699" gradientUnits="userSpaceOnUse">
<stop stop-color="#4B8C1C"/>
<stop offset="0.9987" stop-color="#407817"/>
</linearGradient>
<linearGradient id="paint66_linear" x1="15.2376" y1="3.53885" x2="12.7187" y2="0.841485" gradientUnits="userSpaceOnUse">
<stop stop-color="#4B8C1C"/>
<stop offset="1" stop-color="#76AB50"/>
</linearGradient>
<clipPath id="clip0">
<rect width="24" height="24" fill="white"/>
</clipPath>
</defs>
</svg>
