<svg width="24" height="24" viewBox="0 0 24 24" fill="none" xmlns="http://www.w3.org/2000/svg">
<path d="M11.9999 21.7142C17.365 21.7142 21.7142 17.365 21.7142 11.9999C21.7142 6.63488 17.365 2.28564 11.9999 2.28564C6.63488 2.28564 2.28564 6.63488 2.28564 11.9999C2.28564 17.365 6.63488 21.7142 11.9999 21.7142Z" fill="url(#paint0_linear)"/>
<path d="M11.9999 21.4284C17.2071 21.4284 21.4284 17.2071 21.4284 11.9999C21.4284 6.7926 17.2071 2.57129 11.9999 2.57129C6.7926 2.57129 2.57129 6.7926 2.57129 11.9999C2.57129 17.2071 6.7926 21.4284 11.9999 21.4284Z" fill="url(#paint1_linear)"/>
<path opacity="0.5" d="M12 3.26855C7.17713 3.26855 3.26855 7.17713 3.26855 12C3.26855 16.8228 7.17713 20.7314 12 20.7314C16.8228 20.7314 20.7314 16.8228 20.7314 12C20.7314 7.17713 16.8228 3.26855 12 3.26855ZM12 20.0114C7.57713 20.0114 3.98855 16.4228 3.98855 12C3.98855 7.57713 7.57713 3.98855 12 3.98855C16.4228 3.98855 20.0114 7.57713 20.0114 12C20.0114 16.4228 16.4228 20.0114 12 20.0114Z" fill="url(#paint2_linear)"/>
<path d="M12 20C16.4183 20 20 16.4183 20 12C20 7.58172 16.4183 4 12 4C7.58172 4 4 7.58172 4 12C4 16.4183 7.58172 20 12 20Z" fill="url(#paint3_linear)"/>
<path d="M12 19.7314C16.2699 19.7314 19.7314 16.2699 19.7314 12C19.7314 7.73003 16.2699 4.26855 12 4.26855C7.73003 4.26855 4.26855 7.73003 4.26855 12C4.26855 16.2699 7.73003 19.7314 12 19.7314Z" fill="url(#paint4_linear)"/>
<path d="M17.2228 9.02839C17.1828 8.95982 17.0914 8.94268 17.0228 8.98268L12.36 11.9712L8.62856 9.52553C8.49713 9.43982 8.31999 9.47411 8.23427 9.60553C8.14856 9.73696 8.18284 9.91411 8.31427 9.99982L12.0743 12.4627L12.2286 12.2227L12.3028 12.3427L17.1771 9.22268C17.2457 9.18268 17.2628 9.09696 17.2228 9.02839Z" fill="url(#paint5_linear)"/>
<path d="M13.0399 12.2287C13.0399 12.0115 12.9541 11.8172 12.817 11.6687V10.4001C12.817 10.0744 12.5541 9.81152 12.2284 9.81152C11.9027 9.81152 11.6398 10.0744 11.6398 10.4001V11.6687C11.5027 11.8115 11.417 12.0115 11.417 12.2287C11.417 12.6401 11.7199 12.9772 12.1141 13.0344V18.7258C12.1141 18.7887 12.1656 18.8401 12.2284 18.8401C12.2913 18.8401 12.3427 18.7887 12.3427 18.7258V13.0344C12.737 12.9772 13.0399 12.6401 13.0399 12.2287Z" fill="url(#paint6_linear)"/>
<path d="M12.5714 5.41713C14.9886 5.41713 17.16 6.45141 18.68 8.09712C17.3371 5.8057 14.8514 4.26855 12 4.26855C7.73141 4.26855 4.26855 7.73141 4.26855 12C4.26855 12.2971 4.2857 12.5886 4.31998 12.8743C4.73713 8.6857 8.27427 5.41713 12.5714 5.41713Z" fill="url(#paint7_linear)"/>
<path d="M11.9999 20.7714C7.16566 20.7714 3.22852 16.8342 3.22852 11.9999C3.22852 7.16566 7.16566 3.22852 11.9999 3.22852C16.8342 3.22852 20.7714 7.16566 20.7714 11.9999C20.7714 16.8342 16.8342 20.7714 11.9999 20.7714ZM11.9999 3.28566C7.19423 3.28566 3.28566 7.19423 3.28566 11.9999C3.28566 16.8057 7.19423 20.7142 11.9999 20.7142C16.8057 20.7142 20.7142 16.8057 20.7142 11.9999C20.7142 7.19423 16.8057 3.28566 11.9999 3.28566Z" fill="white"/>
<path d="M12.0913 5.88555H11.9085L11.8513 4.47412H12.1485L12.0913 5.88555Z" fill="#3C2200"/>
<path d="M11.8857 5.44555C11.96 5.43984 12.0343 5.43412 12.1086 5.42841L12.1486 4.47412H11.8457L11.8857 5.44555Z" fill="black"/>
<path d="M11.9085 18.1143H12.0913L12.1485 19.5257H11.8513L11.9085 18.1143Z" fill="#3C2200"/>
<path d="M18.1143 12.0916V11.9087L19.5257 11.8516V12.1487L18.1143 12.0916Z" fill="#3C2200"/>
<path d="M5.88555 11.9087V12.0916L4.47412 12.1487V11.8516L5.88555 11.9087Z" fill="#3C2200"/>
<path d="M14.9771 17.3427L15.1371 17.2456L15.8913 18.4399L15.6285 18.5942L14.9771 17.3427Z" fill="#3C2200"/>
<path d="M9.02268 6.65719L8.86268 6.75433L8.1084 5.56005L8.37126 5.40576L9.02268 6.65719Z" fill="#3C2200"/>
<path d="M17.2456 15.1371L17.3427 14.9771L18.5942 15.6285L18.4399 15.8913L17.2456 15.1371Z" fill="#3C2200"/>
<path d="M6.75409 8.86268L6.65694 9.02268L5.40552 8.37126L5.5598 8.1084L6.75409 8.86268Z" fill="#3C2200"/>
<path d="M17.3427 9.02268L17.2456 8.86268L18.4399 8.1084L18.5942 8.37126L17.3427 9.02268Z" fill="#3C2200"/>
<path d="M6.65694 14.9771L6.75409 15.1371L5.5598 15.8913L5.40552 15.6285L6.65694 14.9771Z" fill="#3C2200"/>
<path d="M15.1371 6.75433L14.9771 6.65719L15.6285 5.40576L15.8913 5.56005L15.1371 6.75433Z" fill="#3C2200"/>
<path d="M8.86268 17.2456L9.02268 17.3427L8.37126 18.5942L8.1084 18.4399L8.86268 17.2456Z" fill="#3C2200"/>
<path d="M15.6171 5.99399L15.8913 5.5597L15.6285 5.41113L15.3713 5.90256C15.4571 5.93113 15.5371 5.96542 15.6171 5.99399Z" fill="black"/>
<path d="M8.37125 5.40576L8.1084 5.55433L8.64554 6.40005C8.7084 6.36576 8.77697 6.33148 8.83982 6.29719L8.37125 5.40576Z" fill="black"/>
<path opacity="0.25" d="M5.98293 9.71962C6.10293 9.12533 6.36578 8.55962 6.70864 8.04533C7.0515 7.53676 7.48578 7.07962 7.97721 6.70248C8.46864 6.32533 9.02293 6.02819 9.60579 5.82819C10.1886 5.6339 10.8058 5.53105 11.4115 5.57105C11.5258 5.57676 11.6115 5.67962 11.6058 5.7939C11.6001 5.87962 11.5429 5.94819 11.4686 5.97676C10.9315 6.17676 10.4172 6.37676 9.93721 6.62819C9.4515 6.8739 8.99436 7.15962 8.56579 7.47962C8.13721 7.80533 7.73721 8.16533 7.36578 8.56533C6.99436 8.96533 6.65721 9.39962 6.32007 9.86819C6.25721 9.9539 6.14293 9.97105 6.05721 9.90819C5.99436 9.86248 5.96578 9.78819 5.98293 9.71962Z" fill="white"/>
<path d="M5.55995 8.1084L5.41138 8.37125L5.98852 8.67411C6.03995 8.60554 6.09138 8.54268 6.1428 8.47983L5.55995 8.1084Z" fill="black"/>
<path d="M11.9998 12.286C11.9484 12.286 11.8912 12.2688 11.8455 12.2403L8.00551 9.72597C7.87408 9.64025 7.83408 9.46311 7.92551 9.33168C8.01123 9.20025 8.18837 9.16025 8.3198 9.25168L12.1598 11.766C12.2912 11.8517 12.3312 12.0288 12.2398 12.1603C12.1827 12.2403 12.0912 12.286 11.9998 12.286Z" fill="#3C2200"/>
<path d="M11.9999 12.1427C11.9542 12.1427 11.9085 12.1198 11.8799 12.0741C11.8399 12.0055 11.857 11.9198 11.9256 11.8741L16.9199 8.67408C16.9885 8.63408 17.0742 8.65123 17.1199 8.7198C17.1656 8.78837 17.1427 8.87408 17.0742 8.9198L12.0799 12.1198C12.0513 12.1369 12.0285 12.1427 11.9999 12.1427Z" fill="#3C2200"/>
<path d="M12 18.6115C11.9372 18.6115 11.8857 18.56 11.8857 18.4972V12C11.8857 11.9372 11.9372 11.8857 12 11.8857C12.0629 11.8857 12.1143 11.9372 12.1143 12V18.4972C12.1143 18.56 12.0629 18.6115 12 18.6115Z" fill="url(#paint8_linear)"/>
<path d="M11.9999 9.58252C11.6742 9.58252 11.4114 9.84538 11.4114 10.1711V11.9997H12.5885V10.1711C12.5885 9.84538 12.3257 9.58252 11.9999 9.58252Z" fill="url(#paint9_linear)"/>
<path d="M11.9999 12.8113C12.448 12.8113 12.8113 12.448 12.8113 11.9999C12.8113 11.5518 12.448 11.1885 11.9999 11.1885C11.5518 11.1885 11.1885 11.5518 11.1885 11.9999C11.1885 12.448 11.5518 12.8113 11.9999 12.8113Z" fill="url(#paint10_linear)"/>
<path d="M11.2685 8.05138C11.2685 8.02281 11.2857 7.99423 11.3028 7.97138C11.3143 7.95995 11.3257 7.94852 11.3428 7.94281C11.36 7.93709 11.3771 7.93138 11.3943 7.93138C11.4114 7.93138 11.4343 7.93709 11.4514 7.94281C11.4685 7.94852 11.48 7.95995 11.4914 7.97138C11.5028 7.98281 11.5085 7.99423 11.5143 8.01138C11.52 8.02281 11.52 8.03995 11.5257 8.05709H11.2685V8.05138ZM11.6057 7.88566C11.5543 7.82852 11.4857 7.80566 11.4 7.80566C11.3657 7.80566 11.3257 7.81138 11.2914 7.82852C11.2571 7.84566 11.2285 7.86281 11.2 7.89138C11.1714 7.91995 11.1543 7.95424 11.1371 7.98852C11.12 8.02852 11.1143 8.07423 11.1143 8.11995C11.1143 8.16566 11.12 8.21138 11.1371 8.25709C11.1543 8.29709 11.1714 8.33138 11.2 8.35995C11.2285 8.38852 11.2571 8.41138 11.2971 8.4228C11.3314 8.43995 11.3714 8.44566 11.4114 8.44566C11.4457 8.44566 11.4743 8.43995 11.5085 8.42852C11.5371 8.41709 11.56 8.40566 11.5828 8.38852C11.6057 8.37138 11.6228 8.35423 11.64 8.32566C11.6571 8.30281 11.6685 8.27995 11.6743 8.25138L11.5428 8.21138C11.5314 8.23423 11.52 8.25709 11.4971 8.27995C11.4743 8.29709 11.4457 8.30281 11.4114 8.30281C11.3943 8.30281 11.3714 8.29709 11.3543 8.29138C11.3371 8.28566 11.32 8.27423 11.3085 8.26281C11.2971 8.25138 11.2857 8.23423 11.28 8.21709C11.2743 8.19995 11.2685 8.18281 11.2685 8.15995H11.68C11.68 8.15995 11.68 8.15423 11.68 8.14281C11.68 8.13138 11.68 8.11995 11.68 8.10852C11.68 8.01709 11.6571 7.94281 11.6057 7.88566Z" fill="url(#paint11_linear)"/>
<path d="M11.0114 8.12586C10.9771 8.09158 10.9314 8.06872 10.8685 8.05729L10.7771 8.03443C10.76 8.03443 10.7485 8.02301 10.7371 8.01729C10.7257 8.00586 10.72 7.99443 10.72 7.98301C10.72 7.96586 10.7314 7.94872 10.7428 7.94301C10.76 7.93158 10.7771 7.92586 10.8 7.92586C10.8171 7.92586 10.8285 7.92586 10.8457 7.93158C10.8571 7.93729 10.8685 7.94301 10.8743 7.94872C10.88 7.95443 10.8857 7.96586 10.8914 7.97158C10.8971 7.98301 10.8971 7.98872 10.8971 8.00015H10.9028L11.04 7.97158C11.04 7.95443 11.0343 7.93158 11.0228 7.91443C11.0114 7.89158 11 7.87443 10.9771 7.85729C10.9543 7.84015 10.9314 7.823 10.9028 7.81158C10.8685 7.80015 10.8285 7.79443 10.7885 7.79443C10.7543 7.79443 10.7257 7.80015 10.6914 7.81158C10.6628 7.823 10.64 7.83443 10.6171 7.85158C10.5943 7.86872 10.5771 7.89158 10.5657 7.91443C10.5543 7.93729 10.5485 7.96586 10.5485 7.98872C10.5485 8.02872 10.5657 8.06872 10.5885 8.10301C10.6171 8.13729 10.6628 8.16015 10.7257 8.17158L10.8057 8.18872C10.8343 8.19444 10.8457 8.20015 10.8571 8.21158C10.8685 8.22301 10.8743 8.23444 10.8743 8.24586C10.8743 8.26301 10.8685 8.27444 10.8571 8.28586C10.8457 8.29729 10.8228 8.30301 10.7943 8.30301C10.76 8.30301 10.7314 8.29158 10.7143 8.27444C10.6971 8.25729 10.6857 8.23444 10.6857 8.21158H10.68L10.5371 8.24015C10.5371 8.26301 10.5485 8.28015 10.5543 8.29729C10.5657 8.32015 10.5828 8.34301 10.6 8.36015C10.6228 8.38301 10.6514 8.39444 10.68 8.40586C10.7143 8.41729 10.7543 8.42301 10.8 8.42301C10.8343 8.42301 10.8743 8.41729 10.9085 8.40586C10.9371 8.39444 10.9657 8.38301 10.9828 8.36015C11.0228 8.32586 11.0457 8.27444 11.0457 8.22301C11.0571 8.20015 11.04 8.16015 11.0114 8.12586Z" fill="url(#paint12_linear)"/>
<path d="M12.8344 8.12586C12.8001 8.09158 12.7544 8.06872 12.6915 8.05729L12.6001 8.03443C12.583 8.03443 12.5715 8.02301 12.5601 8.01729C12.5487 8.00586 12.543 7.99443 12.543 7.98301C12.543 7.96586 12.5544 7.94872 12.5658 7.94301C12.583 7.93158 12.6001 7.92586 12.623 7.92586C12.6401 7.92586 12.6515 7.92586 12.6687 7.93158C12.6801 7.93729 12.6915 7.94301 12.6972 7.94872C12.703 7.95443 12.7087 7.96586 12.7144 7.97158C12.7201 7.98301 12.7201 7.98872 12.7201 8.00015H12.7258L12.863 7.97158C12.863 7.95443 12.8572 7.93158 12.8458 7.91443C12.8344 7.89158 12.823 7.87443 12.8001 7.85729C12.7772 7.84015 12.7544 7.823 12.7258 7.81158C12.6915 7.80015 12.6515 7.79443 12.6115 7.79443C12.5772 7.79443 12.5487 7.80015 12.5144 7.81158C12.4858 7.823 12.463 7.83443 12.4401 7.85158C12.4172 7.86872 12.4001 7.89158 12.3887 7.91443C12.3773 7.93729 12.3715 7.96586 12.3715 7.98872C12.3715 8.02872 12.3887 8.06872 12.4115 8.10301C12.4401 8.13729 12.4858 8.16015 12.5487 8.17158L12.6287 8.18872C12.6572 8.19444 12.6687 8.20015 12.6801 8.21158C12.6915 8.22301 12.6972 8.23444 12.6972 8.24586C12.6972 8.26301 12.6915 8.27444 12.6801 8.28586C12.6687 8.29729 12.6458 8.30301 12.6172 8.30301C12.583 8.30301 12.5544 8.29158 12.5372 8.27444C12.5201 8.25729 12.5087 8.23444 12.5087 8.21158H12.503L12.3601 8.24015C12.3601 8.26301 12.3715 8.28015 12.3773 8.29729C12.3887 8.32015 12.4058 8.34301 12.423 8.36015C12.4458 8.38301 12.4744 8.39444 12.503 8.40586C12.5372 8.41729 12.5772 8.42301 12.623 8.42301C12.6572 8.42301 12.6972 8.41729 12.7315 8.40586C12.7601 8.39444 12.7887 8.38301 12.8058 8.36015C12.8458 8.32586 12.8687 8.27444 12.8687 8.22301C12.8801 8.20015 12.863 8.16015 12.8344 8.12586Z" fill="url(#paint13_linear)"/>
<path d="M13.3028 8.17138C13.3028 8.19423 13.2971 8.21709 13.2914 8.23995C13.2857 8.25709 13.2742 8.26852 13.2628 8.27995C13.2514 8.29138 13.24 8.29709 13.2228 8.30281C13.2057 8.30852 13.1942 8.30852 13.1771 8.30852C13.1542 8.30852 13.1314 8.30281 13.12 8.28566C13.1085 8.27423 13.1028 8.25709 13.1028 8.23995C13.1028 8.21709 13.1085 8.19995 13.1257 8.18852C13.1371 8.17709 13.16 8.16566 13.1771 8.16566L13.3028 8.14281V8.17709V8.17138ZM13.4514 8.43423V8.03423C13.4514 8.00566 13.4457 7.97709 13.44 7.94852C13.4342 7.91995 13.4171 7.89709 13.4 7.87424C13.3771 7.85138 13.3542 7.83424 13.3257 7.82281C13.2914 7.81138 13.2514 7.80566 13.2114 7.80566C13.1771 7.80566 13.1428 7.81138 13.1085 7.82281C13.08 7.83424 13.0571 7.85138 13.0342 7.86852C13.0171 7.88566 13 7.90852 12.9885 7.93138C12.9828 7.94852 12.9771 7.95995 12.9714 7.97709L13.1085 8.00566C13.1142 7.98852 13.12 7.97709 13.1314 7.96566C13.1485 7.94852 13.1771 7.93709 13.2114 7.93709C13.2457 7.93709 13.2685 7.94281 13.2857 7.95995C13.3028 7.97709 13.3085 7.99424 13.3085 8.01709C13.3085 8.02852 13.3028 8.03423 13.2971 8.04566C13.2857 8.05709 13.2742 8.06281 13.2628 8.06281L13.1257 8.08566C13.1028 8.09138 13.08 8.09709 13.0571 8.10281C13.04 8.11423 13.0171 8.12566 13.0057 8.13709C12.9885 8.15423 12.9771 8.17138 12.9714 8.19423C12.96 8.21709 12.96 8.23995 12.96 8.26281C12.96 8.28566 12.9657 8.30852 12.9714 8.33138C12.9828 8.35423 12.9942 8.37138 13.0114 8.38852C13.0285 8.40566 13.0514 8.41709 13.0742 8.42852C13.0971 8.43995 13.1257 8.44566 13.1542 8.44566C13.2514 8.44566 13.3085 8.38852 13.32 8.35995V8.43995L13.4514 8.43423Z" fill="url(#paint14_linear)"/>
<path d="M12.2912 7.95429C12.2855 7.92572 12.2684 7.89715 12.2512 7.87429C12.2341 7.85143 12.2112 7.83429 12.1827 7.82286C12.1541 7.81143 12.1198 7.8 12.0855 7.80572C12.0512 7.80572 12.017 7.81143 11.9884 7.82858C11.9712 7.84 11.9484 7.85143 11.937 7.86286V7.81715H11.7712V8.43429H11.937V8.00572C11.9427 8 11.977 7.95429 12.0341 7.95429C12.0741 7.95429 12.1027 7.96572 12.1198 7.98858C12.137 8.01143 12.1484 8.04572 12.1484 8.07429V8.42857H12.3141V8.04C12.3084 8.01715 12.3027 7.98286 12.2912 7.95429Z" fill="url(#paint15_linear)"/>
<defs>
<linearGradient id="paint0_linear" x1="14.2358" y1="17.472" x2="7.72154" y2="1.52911" gradientUnits="userSpaceOnUse">
<stop stop-color="#8EA5A8"/>
<stop offset="1" stop-color="#CFDCDE"/>
</linearGradient>
<linearGradient id="paint1_linear" x1="6.25596" y1="-3.73041" x2="25.056" y2="47.7553" gradientUnits="userSpaceOnUse">
<stop stop-color="white"/>
<stop offset="1" stop-color="#A9BCBE"/>
</linearGradient>
<linearGradient id="paint2_linear" x1="3.68281" y1="-3.26342" x2="17.5495" y2="22.1842" gradientUnits="userSpaceOnUse">
<stop stop-color="#8EA5A8"/>
<stop offset="1" stop-color="#DEE7E8"/>
</linearGradient>
<linearGradient id="paint3_linear" x1="18.2788" y1="41.7497" x2="11.0781" y2="7.632" gradientUnits="userSpaceOnUse">
<stop stop-color="white"/>
<stop offset="1" stop-color="#A9BCBE"/>
</linearGradient>
<linearGradient id="paint4_linear" x1="11.1178" y1="10.4067" x2="18.7749" y2="24.2353" gradientUnits="userSpaceOnUse">
<stop stop-color="white"/>
<stop offset="1" stop-color="#CFDCDE"/>
</linearGradient>
<linearGradient id="paint5_linear" x1="16.0551" y1="15.298" x2="10.5211" y2="5.62305" gradientUnits="userSpaceOnUse">
<stop stop-color="#A9BCBE" stop-opacity="0"/>
<stop offset="1" stop-color="#8EA5A8"/>
</linearGradient>
<linearGradient id="paint6_linear" x1="17.2712" y1="16.2497" x2="1.24263" y2="10.0782" gradientUnits="userSpaceOnUse">
<stop stop-color="#A9BCBE" stop-opacity="0"/>
<stop offset="1" stop-color="#8EA5A8"/>
</linearGradient>
<linearGradient id="paint7_linear" x1="11.7851" y1="11.1231" x2="6.52792" y2="-0.476915" gradientUnits="userSpaceOnUse">
<stop stop-color="#A9BCBE" stop-opacity="0"/>
<stop offset="1" stop-color="#8EA5A8"/>
</linearGradient>
<linearGradient id="paint8_linear" x1="13.5305" y1="17.6598" x2="10.4694" y2="12.8359" gradientUnits="userSpaceOnUse">
<stop stop-color="#FF9214"/>
<stop offset="1" stop-color="#FF9D00"/>
</linearGradient>
<linearGradient id="paint9_linear" x1="12" y1="10.5143" x2="12" y2="12.3933" gradientUnits="userSpaceOnUse">
<stop stop-color="#FF9D00"/>
<stop offset="1" stop-color="#A3541E"/>
</linearGradient>
<linearGradient id="paint10_linear" x1="12.8367" y1="13.3186" x2="11.4163" y2="11.0801" gradientUnits="userSpaceOnUse">
<stop stop-color="#FF9214"/>
<stop offset="1" stop-color="#FF9D00"/>
</linearGradient>
<linearGradient id="paint11_linear" x1="9.90717" y1="7.40416" x2="14.5643" y2="9.63273" gradientUnits="userSpaceOnUse">
<stop stop-color="#BBCACC"/>
<stop offset="0.4708" stop-color="#939FA1" stop-opacity="0.75"/>
<stop offset="1" stop-color="#CFDCDE"/>
</linearGradient>
<linearGradient id="paint12_linear" x1="9.7956" y1="7.6375" x2="14.4527" y2="9.86606" gradientUnits="userSpaceOnUse">
<stop stop-color="#BBCACC"/>
<stop offset="0.4708" stop-color="#939FA1" stop-opacity="0.75"/>
<stop offset="1" stop-color="#CFDCDE"/>
</linearGradient>
<linearGradient id="paint13_linear" x1="10.1354" y1="6.92767" x2="14.7926" y2="9.1562" gradientUnits="userSpaceOnUse">
<stop stop-color="#BBCACC"/>
<stop offset="0.4708" stop-color="#939FA1" stop-opacity="0.75"/>
<stop offset="1" stop-color="#CFDCDE"/>
</linearGradient>
<linearGradient id="paint14_linear" x1="10.2394" y1="6.70987" x2="14.8965" y2="8.93843" gradientUnits="userSpaceOnUse">
<stop stop-color="#BBCACC"/>
<stop offset="0.4708" stop-color="#939FA1" stop-opacity="0.75"/>
<stop offset="1" stop-color="#CFDCDE"/>
</linearGradient>
<linearGradient id="paint15_linear" x1="10.01" y1="7.18897" x2="14.6671" y2="9.41755" gradientUnits="userSpaceOnUse">
<stop stop-color="#BBCACC"/>
<stop offset="0.4708" stop-color="#939FA1" stop-opacity="0.75"/>
<stop offset="1" stop-color="#CFDCDE"/>
</linearGradient>
</defs>
</svg>
