<svg width="80" height="80" viewBox="0 0 80 80" fill="none" xmlns="http://www.w3.org/2000/svg">
<path d="M38.7302 31.6553C38.9054 31.2997 39.0957 30.9091 39.296 30.4934C42.5457 23.7073 48.5144 9.78454 49.626 8.09177C50.8027 6.29383 52.5002 5.32725 55.3193 6.53923C58.1384 7.75122 58.3837 10.9615 56.526 14.342C54.6733 17.7225 51.1532 30.3081 49.5108 36.363C46.6317 46.9854 43.1166 53.7965 43.1166 53.7965L34.479 42.2827L38.7302 31.6553Z" fill="url(#paint0_linear)"/>
<path opacity="0.16" d="M52.2848 6.94067C52.7405 6.16944 54.6633 6.94067 55.4694 7.86714C56.2756 8.79361 56.561 10.1708 56.1104 10.937C55.6547 11.7082 54.5131 11.1023 53.5016 10.5865C51.7591 9.69504 51.8292 7.71189 52.2848 6.94067Z" fill="url(#paint1_radial)"/>
<path d="M49.621 8.09628C49.0452 8.97271 47.1674 13.1295 45.0394 17.8772C43.0565 22.2945 42.9513 27.4729 47.7633 13.8306C49.7662 8.15137 52.5953 6.01788 53.6368 6.06797C51.7942 5.80754 50.5423 6.68898 49.621 8.09628Z" fill="url(#paint2_linear)"/>
<path d="M49.5109 36.369C51.1533 30.3141 54.6684 17.7286 56.5261 14.348C57.5326 12.515 57.8931 10.7422 57.5877 9.2998C55.6999 14.3981 50.958 21.1842 49.1854 28.1205C45.8456 41.1618 47.6332 43.2903 49.5109 36.369Z" fill="url(#paint3_linear)"/>
<path d="M38.7302 31.6553C38.9054 31.2997 39.0957 30.9091 39.296 30.4934C42.5457 23.7073 48.5144 9.78454 49.626 8.09177C50.8027 6.29383 52.5002 5.32725 55.3193 6.53923C58.1384 7.75122 58.3837 10.9615 56.526 14.342C54.6733 17.7225 51.1532 30.3081 49.5108 36.363C46.6317 46.9854 43.1166 53.7965 43.1166 53.7965L34.479 42.2827L38.7302 31.6553Z" fill="url(#paint4_linear)"/>
<path d="M49.1905 8.87891C48.4444 10.3313 47.0824 13.3212 45.5302 16.7818L46.4064 18.8352L50.7427 30.97C50.7427 30.97 50.8679 30.8999 51.0532 30.7897C51.8643 27.93 52.7857 24.7799 53.682 21.9553C51.3786 18.7851 49.4258 13.1509 49.1905 8.87891Z" fill="url(#paint5_linear)"/>
<path d="M42.6208 23.2617C41.9498 24.7441 41.2939 26.1915 40.683 27.5187C42.5407 31.1145 41.5643 38.4214 39.9519 40.9105C38.5649 43.049 43.9778 44.1007 46.9571 44.5114C47.7934 42.1576 48.6746 39.4281 49.5008 36.3681C49.5559 36.1578 49.621 35.9174 49.6861 35.692L50.0166 32.3215L42.6208 23.2617Z" fill="url(#paint6_linear)"/>
<path d="M46.3663 41.4772C46.3012 41.0866 45.3148 36.1284 45.2296 35.6777C43.8677 28.2756 39.5814 13.2561 39.4813 11.2378C39.3761 9.09428 40.1823 7.31139 43.1717 6.63529C46.161 5.95918 48.249 8.41316 48.7347 12.2394C49.2205 16.0657 54.2077 27.8249 56.5261 33.6544C60.7122 44.1916 61.0777 52.0394 61.0777 52.0394L47.3227 47.8075L46.3663 41.4772Z" fill="url(#paint7_linear)"/>
<path opacity="0.16" d="M40.9583 8.73857C40.8732 7.85213 42.8811 7.34129 44.0778 7.61673C45.2746 7.89218 46.3161 8.83373 46.4012 9.72517C46.4864 10.6116 45.2095 10.8019 44.0879 10.9772C42.15 11.2777 41.0434 9.625 40.9583 8.73857Z" fill="url(#paint8_radial)"/>
<path d="M41.5442 7.23047C39.8968 8.1069 39.4011 9.55928 39.4862 11.237C39.5863 13.2603 43.8726 28.2749 45.2346 35.677C45.3197 36.1277 46.3011 41.0859 46.3712 41.4765L47.2325 47.1358C49.3455 50.5463 51.5838 45.1625 41.3589 16.9614C39.3009 11.3022 40.6729 7.8014 41.5442 7.23047Z" fill="url(#paint9_linear)"/>
<path d="M56.521 33.6181C54.1976 27.7786 49.2304 16.0544 48.7397 12.2332V12.2282C48.6746 11.7224 48.5794 11.2416 48.4593 10.7908C48.4392 10.7207 48.4142 10.6656 48.3942 10.5955C48.279 10.2049 48.1538 9.82924 48.0036 9.48368C47.9936 9.45864 47.9786 9.43863 47.9686 9.41359C47.613 8.64233 47.1674 8.00129 46.6316 7.52051C48.0987 12.7591 48.254 21.0325 50.8928 27.6884C55.86 40.2039 53.0409 41.1254 51.6539 42.9584C54.5832 42.9033 58.7042 51.0717 61.0827 52.0332C60.7922 51.5825 60.642 50.671 60.5869 49.464C60.4618 45.7079 58.6741 39.7231 56.521 33.6181Z" fill="url(#paint10_linear)"/>
<path d="M18.4055 50.6311C18.4055 52.9399 19.5372 53.9766 20.103 54.3522C20.2933 54.4774 20.4185 54.5275 20.4185 54.5275L30.9688 62.16L50.2819 58.2035L49.691 45.9836C42.4555 45.0571 35.7057 42.3526 28.6404 40.4946C28.5202 40.4645 28.1447 37.4546 28.0245 37.4196C27.8342 37.3695 27.8943 40.2993 27.704 40.2542C24.89 39.548 22.0208 38.9921 19.0465 38.7517C17.8547 42.6231 18.4055 47.9367 18.4055 50.6311Z" fill="url(#paint11_linear)"/>
<path d="M38.9706 49.5794C35.0348 49.9951 32.2207 45.4828 32.2207 45.4828C28.4352 44.4461 28.28 41.7116 28.28 41.7116C27.4338 43.219 26.0167 45.007 23.6633 45.007C21.6604 45.007 19.362 43.9402 18.3405 41.8819C18.3656 41.4261 18.4056 40.9704 18.4507 40.5146H18.4357C18.3055 41.7567 18.2755 43.0237 18.2855 44.2357C20.3134 46.5595 23.488 46.89 25.511 46.289C26.0618 46.1288 28.6255 45.6079 30.6034 47.5511C32.7515 49.6595 35.2451 52.3539 39.5314 52.2638C43.8176 52.1686 47.1224 54.9932 47.1224 54.9932C46.7469 52.9699 43.7275 49.0786 38.9706 49.5794Z" fill="url(#paint12_linear)"/>
<path d="M38.9705 50.9924C43.7274 50.4916 46.7468 54.3829 47.1224 56.4112L48.6746 55.8452L47.9686 48.0726L42.9263 44.8223L36.1915 43.1245L29.3615 39.5437L28.0596 35.462C28.0246 35.462 27.6991 35.457 27.664 35.457L21.1145 36.1281C20.4085 36.3885 19.8977 36.7341 19.6624 37.1898C18.7911 38.8876 18.4606 41.0962 18.3405 43.2998C19.3619 45.3582 21.6603 46.4249 23.6632 46.4249C26.0166 46.4249 27.4337 44.637 28.2799 43.1295C28.2799 43.1295 28.4352 45.864 32.2207 46.9007C32.2257 46.8957 35.0348 51.408 38.9705 50.9924Z" fill="url(#paint13_linear)"/>
<path d="M23.6132 45.4837C20.8391 45.4837 18.5408 43.22 18.1602 38.9831C18.1202 38.5223 17.339 30.2188 22.0859 30.2188C26.4873 30.2188 27.7291 31.9165 28.0196 37.5658C28.3 43.22 26.4823 45.4837 23.6132 45.4837Z" fill="url(#paint14_linear)"/>
<path d="M34.1284 46.1448C30.7035 46.1448 28.991 44.6424 28.5153 40.3504C28.0396 36.0635 25.9766 28.3359 32.2657 27.9202C38.2945 27.5246 38.4097 31.2557 38.4097 37.4708C38.4097 43.6909 37.0777 46.1448 34.1284 46.1448Z" fill="url(#paint15_linear)"/>
<path d="M33.9332 40.2043C31.3144 41.5215 29.5568 41.5515 28.4352 39.7486C28.4602 39.9489 28.4903 40.1542 28.5103 40.3445C28.986 44.6315 30.6985 46.1389 34.1235 46.1389C36.532 46.1389 37.8639 44.5013 38.2695 40.5148C37.5985 39.358 35.4754 39.4281 33.9332 40.2043Z" fill="url(#paint16_linear)"/>
<path d="M23.5179 40.0186C21.1846 40.0186 19.2517 38.5663 18.9263 35.8468C19.0515 36.9036 18.075 30.2227 22.2261 30.2227C25.9315 30.2227 26.978 31.3094 27.2183 34.9404C27.4637 38.5663 25.9315 40.0186 23.5179 40.0186Z" fill="url(#paint17_linear)"/>
<path d="M33.6528 39.7342C30.8437 39.7342 29.5769 38.2518 29.1012 35.2169C28.8558 33.6543 27.2585 28.2054 32.421 27.9099C37.3682 27.6294 37.3682 31.2454 37.4734 34.3154C37.6136 38.7376 36.0713 39.7342 33.6528 39.7342Z" fill="url(#paint18_linear)"/>
<path d="M32.0804 45.8885C32.6813 46.0538 33.3523 46.1439 34.1234 46.1439C37.0727 46.1439 38.4046 43.6949 38.4046 37.4748C38.4046 31.48 38.2794 27.809 32.8766 27.9041C35.0047 29.1762 36.7372 32.0609 36.7372 37.2845C36.7422 44.7116 35.0748 45.8735 32.0804 45.8885Z" fill="url(#paint19_linear)"/>
<path d="M32.2256 43.8509C32.2256 41.3368 34.0032 41.2567 38.7551 40.836C42.1551 40.5355 45.8504 39.644 50.5623 41.462C55.9351 43.5404 60.9874 46.5503 61.0525 51.9542C61.1076 56.7921 57.3471 74.0002 40.8932 74.0002C24.4393 74.0002 18.9113 65.2058 18.4105 50.632L47.1273 56.4114C47.1273 56.4114 47.7382 51.2781 44.2231 49.7556C42.7209 49.1045 39.5112 49.6304 37.3781 49.6304C35.245 49.6304 32.2256 47.2415 32.2256 43.8509Z" fill="url(#paint20_linear)"/>
<path d="M52.6353 63.1019C45.6652 68.1902 46.231 71.0149 39.7315 71.0149C33.2321 71.0149 29.041 67.5742 26.0717 64.6094C23.1023 61.6395 20.6087 56.6965 19.3819 52.9253C19.0915 52.0338 18.756 51.2926 18.4105 50.6616C18.9213 65.2154 24.4493 73.9997 40.8932 73.9997C57.3471 73.9997 61.1076 56.7866 61.0525 51.9537C61.0275 49.8402 60.2313 48.0924 58.9595 46.625C59.315 53.5313 58.3586 58.9201 52.6353 63.1019Z" fill="url(#paint21_radial)"/>
<path d="M23.6382 42.8437C20.8141 42.8437 18.4807 40.6001 18 36.4082C18.02 37.2496 18.0801 38.121 18.1602 38.9824C18.5408 43.2243 20.8391 45.483 23.6131 45.483C26.307 45.483 28.0496 43.4547 28.0195 38.5417C27.4437 41.5566 25.8414 42.8437 23.6382 42.8437Z" fill="url(#paint22_linear)"/>
<path d="M28.0145 37.5703C27.7391 32.1865 26.5925 30.3935 22.6818 30.2383C24.7348 30.5738 28.7055 38.4817 23.2376 45.4481C23.3627 45.4581 23.4879 45.4882 23.6181 45.4882C26.4823 45.4832 28.2999 43.2195 28.0145 37.5703Z" fill="url(#paint23_linear)"/>
<path d="M48.8048 51.3874C48.6796 48.3725 44.9742 45.3576 41.8948 45.6731C39.2359 45.9436 34.4289 46.3042 32.2758 44.3359C32.5512 47.461 35.3452 49.6296 37.3732 49.6296C39.5063 49.6296 42.721 49.1037 44.2181 49.7548C47.7333 51.2773 47.1224 56.4106 47.1224 56.4106C47.1224 56.4106 48.93 54.4024 48.8048 51.3874Z" fill="url(#paint24_linear)"/>
<path d="M61.0476 51.9531C60.9825 46.5492 55.9352 43.5393 50.5573 41.4609C45.8455 39.6379 42.1501 40.5294 38.7502 40.8349C35.1249 41.1554 33.2371 41.2856 32.5411 42.4425C37.0126 41.3357 41.1987 40.885 46.3612 41.4759C53.086 42.2472 58.1734 46.389 59.0998 49.5642C60.0111 52.6993 59.8809 58.5338 59.8759 58.6741C60.7472 55.8645 61.0676 53.3754 61.0476 51.9531Z" fill="url(#paint25_linear)"/>
<path d="M47.1223 56.4109C47.2074 55.1889 47.1073 53.9419 46.7167 52.78C46.3412 51.6281 45.6051 50.5464 44.5185 50.0105C43.462 49.4145 42.1651 49.5297 40.9633 49.5548C39.7366 49.6049 38.5198 49.7501 37.278 49.7401C34.7243 49.5147 32.6463 47.3362 32.1806 44.8822C32.0654 44.2612 32.0354 43.6301 32.1605 42.9891C32.2957 42.348 32.7865 41.7621 33.3823 41.5267C34.5691 41.0209 35.8209 40.9608 37.0376 40.8155C39.4912 40.6653 41.9047 40.2245 44.3933 40.2095C46.8719 40.1745 49.3455 40.7504 51.5938 41.7521C53.8521 42.7136 56.0853 43.8405 57.948 45.4832C59.8057 47.1008 61.0926 49.4696 61.0525 51.9537C61.0325 49.4646 59.7056 47.1659 57.8329 45.6134C55.9802 44.0107 53.7619 42.9039 51.5037 41.9674C49.2554 40.9858 46.8369 40.45 44.3933 40.5C41.9598 40.5301 39.5213 40.9958 37.0727 41.1611C35.8659 41.2913 34.6041 41.3564 33.5225 41.8121C32.9767 42.0325 32.5962 42.4933 32.461 43.0542C32.3408 43.6201 32.3608 44.2361 32.466 44.8221C32.8716 47.1559 34.8895 49.2793 37.283 49.4997C38.4948 49.5197 39.7266 49.3845 40.9533 49.3444C42.1601 49.3344 43.477 49.2142 44.5986 49.8553C45.7203 50.4462 46.4463 51.5831 46.7968 52.75C47.1674 53.9369 47.2375 55.194 47.1223 56.4109Z" fill="#663C1D"/>
<path d="M27.8342 35.457C28.0596 37.25 28.2849 39.083 28.0095 40.901C27.8843 41.8075 27.664 42.714 27.2183 43.5403C26.7927 44.3717 26.0516 45.0628 25.1604 45.4034C23.3577 45.9944 21.2647 45.4435 20.0279 44.0312C18.741 42.6589 18.2603 40.7708 18.1552 38.9778C18.4005 40.7558 18.9613 42.5738 20.1981 43.8709C21.4049 45.1931 23.3928 45.6488 25.0402 45.0729C26.7477 44.4969 27.5238 42.5988 27.7742 40.8709C28.0646 39.088 27.9244 37.27 27.8342 35.457Z" fill="#663C1D"/>
<path d="M32.7764 46.0298C32.2006 46.2151 31.6698 45.9597 31.1841 45.7093C30.6984 45.4489 30.2577 45.0983 29.8972 44.6826C29.1711 43.8412 28.7906 42.7895 28.5603 41.7478C28.35 40.6861 28.3249 39.6343 28.1747 38.5926C28.0445 37.5459 27.9293 36.4942 27.8843 35.4375C28.0195 36.4842 28.1997 37.5259 28.37 38.5626C28.5703 39.5993 28.6604 40.666 28.9058 41.6677C29.1411 42.6743 29.5167 43.6659 30.1926 44.4222C30.5231 44.8028 30.9287 45.1133 31.3744 45.3436C31.825 45.584 32.3157 45.6491 32.7764 46.0298Z" fill="#663C1D"/>
<path d="M35.1049 28.125C35.6857 28.2702 36.2515 28.5106 36.7272 28.9013C37.2029 29.2919 37.5434 29.8228 37.7837 30.3787C38.2795 31.5055 38.4097 32.7325 38.5148 33.9245C38.5699 35.1264 38.5749 36.3284 38.5499 37.5254C38.5398 38.1213 38.5549 38.7223 38.5248 39.3283C38.5048 39.6288 38.4998 39.9343 38.4297 40.2348C38.3746 40.5002 38.2394 40.9409 37.8739 40.9109C38.1743 40.8057 38.1643 40.4652 38.2344 40.1947C38.2694 39.9092 38.3045 39.6138 38.3045 39.3133C38.3145 38.7173 38.2795 38.1214 38.2644 37.5204C38.2294 36.3234 38.2444 35.1265 38.1643 33.9395C38.0992 32.7576 38.0191 31.5506 37.5835 30.4538C37.1979 29.342 36.2515 28.4856 35.1049 28.125Z" fill="#663C1D"/>
<path opacity="0.16" d="M21.44 51.1334C19.9278 52.9514 24.5244 63.4286 29.0561 66.0679C33.5877 68.7072 39.271 67.8959 40.3776 65.8024C41.4842 63.709 36.7723 60.4437 32.9167 56.8377C26.267 50.6025 22.9472 49.3104 21.44 51.1334Z" fill="url(#paint26_radial)"/>
<path opacity="0.16" d="M58.3888 52.4701C59.1899 51.3883 55.1741 44.6823 51.9694 42.8743C48.7647 41.0663 42.4505 42.1431 41.9398 43.4102C41.424 44.6823 47.5079 46.1096 50.3671 48.5036C55.3043 52.6303 57.5876 53.5519 58.3888 52.4701Z" fill="url(#paint27_radial)"/>
<path d="M42.4706 23.7529L44.6487 31.9764C44.9742 33.3536 45.3097 34.7359 45.5801 36.1331C45.7153 36.8293 45.8404 37.5304 45.9506 38.2315C46.0558 38.9327 46.206 39.6338 46.1509 40.355C45.9206 39.6689 45.8705 38.9678 45.7303 38.2716C45.6001 37.5755 45.4499 36.8844 45.2947 36.1933C44.9792 34.816 44.6537 33.4337 44.3082 32.0615C43.6923 29.292 42.9663 26.5475 42.4706 23.7529Z" fill="#663C1D"/>
<defs>
<linearGradient id="paint0_linear" x1="24.8673" y1="77.9381" x2="35.3942" y2="54.8748" gradientUnits="userSpaceOnUse">
<stop offset="0.00132565" stop-color="#99643E"/>
<stop offset="1" stop-color="#AE7246"/>
</linearGradient>
<radialGradient id="paint1_radial" cx="0" cy="0" r="1" gradientUnits="userSpaceOnUse" gradientTransform="translate(54.1437 9.01306) rotate(-131.032) scale(2.78994 1.48281)">
<stop stop-color="#F8DBBA"/>
<stop offset="1" stop-color="#CD9870" stop-opacity="0"/>
</radialGradient>
<linearGradient id="paint2_linear" x1="133.666" y1="-74.5082" x2="164.394" y2="-106.257" gradientUnits="userSpaceOnUse">
<stop stop-color="#D2A374" stop-opacity="0"/>
<stop offset="1" stop-color="#B88653"/>
</linearGradient>
<linearGradient id="paint3_linear" x1="451.852" y1="-90.4746" x2="494.299" y2="-102.727" gradientUnits="userSpaceOnUse">
<stop stop-color="#D2A374" stop-opacity="0"/>
<stop offset="1" stop-color="#B88653"/>
</linearGradient>
<linearGradient id="paint4_linear" x1="35.175" y1="14.4711" x2="88.2985" y2="72.7782" gradientUnits="userSpaceOnUse">
<stop stop-color="#473226" stop-opacity="0"/>
<stop offset="1" stop-color="#3D2A20"/>
</linearGradient>
<linearGradient id="paint5_linear" x1="51.7388" y1="8.40484" x2="48.0076" y2="27.5967" gradientUnits="userSpaceOnUse">
<stop stop-color="#8D562E" stop-opacity="0"/>
<stop offset="1" stop-color="#804B24"/>
</linearGradient>
<linearGradient id="paint6_linear" x1="34.4309" y1="10.6391" x2="54.6201" y2="61.6343" gradientUnits="userSpaceOnUse">
<stop stop-color="#8D562E" stop-opacity="0"/>
<stop offset="1" stop-color="#804B24"/>
</linearGradient>
<linearGradient id="paint7_linear" x1="59.0992" y1="55.0981" x2="50.2527" y2="34.6074" gradientUnits="userSpaceOnUse">
<stop offset="0.00132565" stop-color="#99643E"/>
<stop offset="1" stop-color="#AE7246"/>
</linearGradient>
<radialGradient id="paint8_radial" cx="0" cy="0" r="1" gradientUnits="userSpaceOnUse" gradientTransform="translate(43.681 9.32047) rotate(-167.04) scale(2.78976 1.483)">
<stop stop-color="#F8DBBA"/>
<stop offset="1" stop-color="#CD9870" stop-opacity="0"/>
</radialGradient>
<linearGradient id="paint9_linear" x1="49.2843" y1="11.5764" x2="39.1304" y2="45.5739" gradientUnits="userSpaceOnUse">
<stop stop-color="#8D562E" stop-opacity="0"/>
<stop offset="1" stop-color="#804B24"/>
</linearGradient>
<linearGradient id="paint10_linear" x1="55.9735" y1="24.9459" x2="21.6903" y2="103.208" gradientUnits="userSpaceOnUse">
<stop stop-color="#D2A374" stop-opacity="0"/>
<stop offset="1" stop-color="#B88653"/>
</linearGradient>
<linearGradient id="paint11_linear" x1="19.4872" y1="49.7893" x2="59.3277" y2="49.7893" gradientUnits="userSpaceOnUse">
<stop offset="0.00132565" stop-color="#99643E"/>
<stop offset="1" stop-color="#AE7246"/>
</linearGradient>
<linearGradient id="paint12_linear" x1="29.7188" y1="57.0988" x2="39.2595" y2="27.9898" gradientUnits="userSpaceOnUse">
<stop stop-color="#8D562E" stop-opacity="0"/>
<stop offset="1" stop-color="#804B24"/>
</linearGradient>
<linearGradient id="paint13_linear" x1="34.4669" y1="27.2146" x2="32.7844" y2="66.525" gradientUnits="userSpaceOnUse">
<stop stop-color="#473226" stop-opacity="0"/>
<stop offset="1" stop-color="#3D2A20"/>
</linearGradient>
<linearGradient id="paint14_linear" x1="23.0653" y1="36.5324" x2="23.0653" y2="53.9886" gradientUnits="userSpaceOnUse">
<stop offset="0.00132565" stop-color="#99643E"/>
<stop offset="1" stop-color="#AE7246"/>
</linearGradient>
<linearGradient id="paint15_linear" x1="33.109" y1="36.5326" x2="33.109" y2="53.9885" gradientUnits="userSpaceOnUse">
<stop offset="0.00132565" stop-color="#99643E"/>
<stop offset="1" stop-color="#AE7246"/>
</linearGradient>
<linearGradient id="paint16_linear" x1="33.3549" y1="36.0962" x2="33.3549" y2="59.2272" gradientUnits="userSpaceOnUse">
<stop stop-color="#8D562E" stop-opacity="0"/>
<stop offset="1" stop-color="#8D562E"/>
</linearGradient>
<linearGradient id="paint17_linear" x1="23.0793" y1="44.2309" x2="23.0793" y2="28.1605" gradientUnits="userSpaceOnUse">
<stop offset="0.00132565" stop-color="#99643E"/>
<stop offset="1" stop-color="#AE7246"/>
</linearGradient>
<linearGradient id="paint18_linear" x1="33.0755" y1="44.232" x2="33.0755" y2="28.1615" gradientUnits="userSpaceOnUse">
<stop offset="0.00132565" stop-color="#99643E"/>
<stop offset="1" stop-color="#AE7246"/>
</linearGradient>
<linearGradient id="paint19_linear" x1="26.3554" y1="32.8273" x2="69.3917" y2="57.2712" gradientUnits="userSpaceOnUse">
<stop stop-color="#8D562E" stop-opacity="0"/>
<stop offset="1" stop-color="#8D562E"/>
</linearGradient>
<linearGradient id="paint20_linear" x1="19.4872" y1="57.1751" x2="59.3277" y2="57.1751" gradientUnits="userSpaceOnUse">
<stop offset="0.00132565" stop-color="#99643E"/>
<stop offset="1" stop-color="#AE7246"/>
</linearGradient>
<radialGradient id="paint21_radial" cx="0" cy="0" r="1" gradientUnits="userSpaceOnUse" gradientTransform="translate(41.1366 47.5506) scale(27.9788 44.381)">
<stop offset="0.6147" stop-color="#8D562E" stop-opacity="0"/>
<stop offset="1" stop-color="#804B24"/>
</radialGradient>
<linearGradient id="paint22_linear" x1="22.9159" y1="36.0898" x2="24.1103" y2="55.8877" gradientUnits="userSpaceOnUse">
<stop stop-color="#8D562E" stop-opacity="0"/>
<stop offset="1" stop-color="#8D562E"/>
</linearGradient>
<linearGradient id="paint23_linear" x1="12.4507" y1="30.5818" x2="78.8683" y2="72.7483" gradientUnits="userSpaceOnUse">
<stop stop-color="#8D562E" stop-opacity="0"/>
<stop offset="1" stop-color="#8D562E"/>
</linearGradient>
<linearGradient id="paint24_linear" x1="40.5428" y1="54.9798" x2="40.5428" y2="27.3539" gradientUnits="userSpaceOnUse">
<stop stop-color="#8D562E" stop-opacity="0"/>
<stop offset="1" stop-color="#804B24"/>
</linearGradient>
<linearGradient id="paint25_linear" x1="41.256" y1="39.6222" x2="72.6579" y2="73.8511" gradientUnits="userSpaceOnUse">
<stop stop-color="#8D562E" stop-opacity="0"/>
<stop offset="1" stop-color="#8D562E"/>
</linearGradient>
<radialGradient id="paint26_radial" cx="0" cy="0" r="1" gradientUnits="userSpaceOnUse" gradientTransform="translate(30.4197 60.1572) rotate(-138.962) scale(13.2025 6.02415)">
<stop stop-color="#F8DBBA"/>
<stop offset="1" stop-color="#CD9870" stop-opacity="0"/>
</radialGradient>
<radialGradient id="paint27_radial" cx="0" cy="0" r="1" gradientUnits="userSpaceOnUse" gradientTransform="translate(50.6598 45.9394) rotate(38.2207) scale(10.1801 3.74847)">
<stop stop-color="#F8DBBA"/>
<stop offset="1" stop-color="#CD9870" stop-opacity="0"/>
</radialGradient>
</defs>
</svg>
