<svg width="80" height="80" viewBox="0 0 80 80" fill="none" xmlns="http://www.w3.org/2000/svg">
<path d="M38.7359 31.6513C38.9102 31.2929 39.0993 30.9047 39.2984 30.4915C42.5487 23.7073 48.5216 9.78535 49.6266 8.09301C50.8013 6.29615 52.5036 5.32554 55.3208 6.54004C58.1381 7.75454 58.3819 10.96 56.5303 14.3447C54.6787 17.7293 51.1597 30.3124 49.5171 36.3649C46.6352 46.9868 43.1211 53.796 43.1211 53.796L34.4802 42.2831L38.7359 31.6513Z" fill="url(#paint0_linear)"/>
<path opacity="0.75" d="M52.2946 6.93863C52.7475 6.1721 54.6738 6.93861 55.4801 7.86442C56.2865 8.79022 56.5752 10.164 56.1222 10.9355C55.6693 11.702 54.5245 11.1047 53.5141 10.5871C51.767 9.69115 51.8367 7.71014 52.2946 6.93863Z" fill="url(#paint1_radial)"/>
<path d="M49.6316 8.09292C49.0592 8.96896 47.1777 13.1251 45.0524 17.8736C43.0713 22.2936 42.9618 27.4652 47.78 13.827C49.7859 8.14769 52.6131 6.01732 53.6584 6.06709C51.8018 5.80329 50.5524 6.6843 49.6316 8.09292Z" fill="url(#paint2_radial)"/>
<path d="M49.5172 36.3644C51.1597 30.3118 54.6788 17.7238 56.5304 14.3441C57.5359 12.5074 57.8992 10.7355 57.5956 9.29199C55.7041 14.3939 50.9656 21.1732 49.1887 28.1118C45.8538 41.1527 47.6407 43.288 49.5172 36.3644Z" fill="url(#paint3_linear)"/>
<path d="M38.7359 31.6513C38.9102 31.2929 39.0993 30.9047 39.2984 30.4915C42.5487 23.7073 48.5216 9.78535 49.6266 8.09301C50.8013 6.29615 52.5036 5.32554 55.3208 6.54004C58.1381 7.75454 58.3819 10.96 56.5303 14.3447C54.6787 17.7293 51.1597 30.3124 49.5171 36.3649C46.6352 46.9868 43.1211 53.796 43.1211 53.796L34.4802 42.2831L38.7359 31.6513Z" fill="url(#paint4_linear)"/>
<path d="M49.1985 8.87402C48.4518 10.3274 47.093 13.3189 45.54 16.7782L46.4161 18.8339L50.7514 30.9689C50.7514 30.9689 50.8759 30.8992 51.06 30.7897C51.8714 27.9327 52.7922 24.7819 53.6881 21.9548C51.3885 18.7791 49.4324 13.1497 49.1985 8.87402Z" fill="url(#paint5_linear)"/>
<path d="M42.6282 23.2588C41.9613 24.7421 41.3042 26.1905 40.692 27.5145C42.5536 31.1082 41.573 38.4151 39.9603 40.9039C38.5766 43.0442 43.9871 44.0944 46.9686 44.5025C47.8048 42.1482 48.6858 39.4156 49.517 36.3594C49.5768 36.1454 49.6415 35.9115 49.7012 35.6825L50.0297 32.3127L42.6282 23.2588Z" fill="url(#paint6_linear)"/>
<path d="M46.3714 41.4719C46.3067 41.0787 45.3162 36.1212 45.2365 35.6682C43.8777 28.2668 39.5871 13.2498 39.4876 11.2289C39.383 9.08366 40.1844 7.30173 43.1809 6.6248C46.1773 5.94786 48.2578 8.40173 48.7456 12.2294C49.2334 16.057 54.2208 27.8138 56.5403 33.6424C60.7313 44.1747 61.0947 52.0291 61.0947 52.0291L47.337 47.7983L46.3714 41.4719Z" fill="url(#paint7_linear)"/>
<path opacity="0.5" d="M40.9657 8.73452C40.8811 7.84356 42.892 7.33586 44.0866 7.61459C45.2861 7.88835 46.3264 8.83409 46.411 9.72505C46.4957 10.616 45.2165 10.8002 44.0965 10.9744C42.1553 11.273 41.0503 9.62051 40.9657 8.73452Z" fill="url(#paint8_radial)"/>
<path d="M41.5483 7.22754C39.9008 8.10357 39.408 9.55699 39.4876 11.2344C39.5872 13.2552 43.8728 28.2722 45.2366 35.6737C45.3212 36.1266 46.3067 41.0842 46.3714 41.4774L47.2325 47.1367C49.343 50.5463 51.5828 45.1657 41.3591 16.9635C39.3084 11.2991 40.6772 7.79995 41.5483 7.22754Z" fill="url(#paint9_radial)"/>
<path d="M56.5253 33.6173C54.2009 27.7787 49.2334 16.0519 48.7456 12.2342V12.2292C48.6809 11.7215 48.5863 11.2437 48.4669 10.7907C48.4469 10.721 48.4221 10.6662 48.4022 10.5966C48.2877 10.2083 48.1632 9.83005 48.0089 9.4866C47.999 9.46171 47.984 9.44179 47.9741 9.4169C47.6207 8.64539 47.1727 8.00332 46.6401 7.52051C48.1085 12.7568 48.2628 21.0293 50.9058 27.6841C55.8783 40.1975 53.0561 41.1233 51.6674 42.955C54.5991 42.9002 58.7204 51.0633 61.0947 52.0289C60.806 51.576 60.6566 50.67 60.6019 49.4605C60.4725 45.7025 58.6806 39.7196 56.5253 33.6173Z" fill="url(#paint10_linear)"/>
<path d="M18.4082 50.6303C18.4082 52.9398 19.5381 53.9751 20.1055 54.3485C20.2947 54.4729 20.4191 54.5227 20.4191 54.5227L30.9713 62.1531L50.2838 58.196L49.6915 45.9764C39.2687 44.6424 29.8564 39.6251 19.0404 38.7441C17.8557 42.6166 18.4082 47.9325 18.4082 50.6303Z" fill="url(#paint11_linear)"/>
<path d="M38.975 50.9888C43.7335 50.4861 46.7498 54.3785 47.1281 56.4043L48.6811 55.8369L47.9743 48.0621L42.9321 44.8118L36.1976 43.1145L29.3686 39.5357L28.0645 35.4542C28.0296 35.4542 27.7011 35.4492 27.6663 35.4492L21.1159 36.1212C20.4091 36.385 19.8965 36.7284 19.6625 37.1814C18.7915 38.8787 18.458 41.0887 18.3435 43.2887C19.3639 45.3444 21.6635 46.4145 23.6694 46.4145C26.0237 46.4145 27.4373 44.6227 28.2884 43.1145C28.2884 43.1145 28.4428 45.8471 32.2306 46.8824C32.2306 46.8924 35.0429 51.4069 38.975 50.9888Z" fill="url(#paint12_linear)"/>
<path d="M23.6145 45.4786C20.8371 45.4786 18.5425 43.2189 18.1592 38.9781C18.1194 38.5152 17.3379 30.2178 22.0814 30.2178C26.4815 30.2178 27.7259 31.9151 28.0146 37.5645C28.3033 43.2189 26.4865 45.4786 23.6145 45.4786Z" fill="url(#paint13_linear)"/>
<path d="M34.1321 46.1362C30.7076 46.1362 28.9904 44.633 28.5175 40.3424C28.0397 36.0518 25.979 28.3269 32.2705 27.9137C38.3032 27.5155 38.4176 31.2486 38.4176 37.4654C38.4127 43.6873 37.0837 46.1362 34.1321 46.1362Z" fill="url(#paint14_linear)"/>
<path d="M33.938 40.2031C31.3198 41.5221 29.5628 41.547 28.4429 39.7501C28.4678 39.9542 28.4976 40.1583 28.5175 40.3474C28.9954 44.638 30.7076 46.1411 34.1321 46.1411C36.5412 46.1411 37.8702 44.5036 38.2783 40.5166C37.6014 39.3569 35.481 39.4266 33.938 40.2031Z" fill="url(#paint15_linear)"/>
<path d="M23.5201 40.0134C21.1856 40.0134 19.2494 38.56 18.9308 35.8423C19.0553 36.8975 18.0797 30.2178 22.2309 30.2178C25.9341 30.2178 26.9844 31.3078 27.2233 34.9364C27.4672 38.56 25.9391 40.0134 23.5201 40.0134Z" fill="url(#paint16_linear)"/>
<path d="M33.654 39.7298C30.8417 39.7298 29.5775 38.2515 29.0996 35.2103C28.8557 33.6474 27.258 28.1971 32.4196 27.9034C37.3672 27.6197 37.3672 31.2383 37.4717 34.3094C37.621 38.7343 36.078 39.7298 33.654 39.7298Z" fill="url(#paint17_linear)"/>
<path d="M32.0862 45.8819C32.6885 46.0462 33.3604 46.1357 34.1319 46.1357C37.0835 46.1357 38.4175 43.6869 38.4175 37.47C38.4175 31.4772 38.2931 27.8038 32.8876 27.9033C35.0129 29.1726 36.7501 32.0595 36.7501 37.2808C36.7451 44.7122 35.0826 45.867 32.0862 45.8819Z" fill="url(#paint18_linear)"/>
<path d="M32.2307 43.8465C32.2307 41.3329 34.0076 41.2533 38.7611 40.8302C42.1607 40.5265 45.8589 39.6356 50.5676 41.4573C55.9433 43.5379 60.9954 46.5443 61.0551 51.9448C61.1099 56.7829 57.3469 73.9899 40.8915 73.9899C24.436 73.9899 18.906 65.1948 18.4033 50.6258L47.1232 56.4046C47.1232 56.4046 47.7354 51.2679 44.2164 49.7448C42.7182 49.0927 39.5077 49.6203 37.3724 49.6203C35.2371 49.6203 32.2307 47.2361 32.2307 43.8465Z" fill="url(#paint19_linear)"/>
<path d="M52.643 63.0994C45.6696 68.1863 46.237 71.0135 39.7365 71.0135C33.2359 71.0135 29.0449 67.5741 26.0734 64.6075C23.1068 61.641 20.6081 56.6934 19.3837 52.9255C19.095 52.0345 18.7565 51.2929 18.4131 50.6608C18.9208 65.2148 24.4507 74 40.8962 74C57.3517 74 61.1147 56.788 61.0599 51.9549C61.035 49.8395 60.2386 48.0973 58.9644 46.624C59.3228 53.5277 58.3671 58.9183 52.643 63.0994Z" fill="url(#paint20_linear)"/>
<path d="M23.6395 42.8411C20.8172 42.8411 18.4828 40.5963 18 36.4053C18.0199 37.2465 18.0846 38.1175 18.1593 38.9786C18.5425 43.2194 20.8372 45.4792 23.6146 45.4792C26.3074 45.4792 28.0495 43.4484 28.0246 38.5356C27.4472 41.5519 25.8494 42.8411 23.6395 42.8411Z" fill="url(#paint21_linear)"/>
<path d="M28.0197 37.5642C27.7459 32.1786 26.5961 30.3867 22.6838 30.2324C24.7345 30.5709 28.7115 38.4751 23.2363 45.4385C23.3657 45.4485 23.4852 45.4783 23.6146 45.4783C26.4866 45.4783 28.3034 43.2186 28.0197 37.5642Z" fill="url(#paint22_linear)"/>
<path d="M48.8106 51.3822C48.6862 48.3658 44.978 45.3544 41.9019 45.668C39.244 45.9418 34.4308 46.3002 32.2805 44.3291C32.5543 47.4549 35.3466 49.6251 37.3774 49.6251C39.5128 49.6251 42.7232 49.1024 44.2264 49.7495C47.7455 51.2726 47.1332 56.4094 47.1332 56.4094C47.1332 56.4094 48.9351 54.3985 48.8106 51.3822Z" fill="url(#paint23_radial)"/>
<path d="M61.0597 51.9497C60.995 46.5492 55.9479 43.5378 50.5722 41.4622C45.8636 39.6404 42.1653 40.5314 38.7657 40.8351C35.1372 41.1586 33.2507 41.288 32.5588 42.4428C37.0286 41.3378 41.2146 40.8898 46.3812 41.4772C53.1107 42.2487 58.1977 46.3899 59.1185 49.5655C60.0294 52.7013 59.9 58.5349 59.895 58.6743C60.7561 55.862 61.0747 53.3683 61.0597 51.9497Z" fill="url(#paint24_linear)"/>
<path d="M47.1281 56.4093C47.2127 55.1898 47.1131 53.9405 46.7199 52.7807C46.3466 51.6309 45.6099 50.5508 44.5199 50.0083C43.4597 49.4159 42.1656 49.5254 40.961 49.5503C39.7366 49.6001 38.5171 49.7445 37.2727 49.7345C34.7193 49.5105 32.6387 47.3304 32.1708 44.8765C32.0563 44.2593 32.0265 43.6222 32.1509 42.9851C32.2853 42.343 32.7731 41.7606 33.3754 41.5217C34.565 41.014 35.8143 40.9543 37.0338 40.8099C39.4877 40.6606 41.9017 40.2176 44.3905 40.2027C46.8692 40.1678 49.343 40.7402 51.5928 41.7457C53.8526 42.7063 56.0875 43.8362 57.9441 45.4788C59.8056 47.0964 61.0898 49.4607 61.05 51.9495C61.0301 49.4607 59.7011 47.1612 57.8296 45.6082C55.978 44.0055 53.758 42.9005 51.5033 41.9647C49.2584 40.9842 46.8394 40.4466 44.3954 40.5013C41.9615 40.5312 39.5225 40.9941 37.0736 41.1633C35.8641 41.2927 34.6048 41.3575 33.5197 41.8154C32.9722 42.0394 32.5939 42.4923 32.4595 43.0598C32.3401 43.6272 32.36 44.2444 32.4645 44.8267C32.8726 47.1562 34.8885 49.2865 37.2827 49.5056C38.4972 49.5255 39.7266 49.391 40.956 49.3512C42.1655 49.3413 43.4796 49.2218 44.6045 49.8639C45.7244 50.4563 46.4511 51.5911 46.8045 52.7608C47.1729 53.9355 47.2425 55.1898 47.1281 56.4093Z" fill="#975500"/>
<path d="M27.8405 35.4541C28.0645 37.251 28.2934 39.0777 28.0147 40.8994C27.8902 41.8053 27.6663 42.7162 27.2233 43.5375C26.8002 44.3687 26.0585 45.0606 25.1676 45.399C23.3657 45.9914 21.2702 45.4389 20.0358 44.0302C18.7467 42.6614 18.2688 40.77 18.1643 38.9781C18.4082 40.7601 18.9707 42.5768 20.21 43.871C21.4146 45.195 23.4056 45.6479 25.0531 45.0705C26.7604 44.4931 27.5368 42.5967 27.7907 40.8696C28.0694 39.0827 27.9301 37.2659 27.8405 35.4541Z" fill="#975500"/>
<path d="M32.7779 46.0218C32.2005 46.206 31.6729 45.9521 31.1851 45.7032C30.6973 45.4444 30.2543 45.096 29.9009 44.6729C29.1742 43.8317 28.7959 42.7815 28.567 41.7362C28.3579 40.676 28.3281 39.6258 28.1837 38.5805C28.0543 37.5353 27.9398 36.48 27.895 35.4248C28.0294 36.475 28.2086 37.5103 28.3828 38.5506C28.5819 39.5859 28.6715 40.6561 28.9154 41.6566C29.1493 42.662 29.5276 43.6525 30.1996 44.4091C30.5331 44.7874 30.9313 45.101 31.3792 45.3299C31.8322 45.5838 32.32 45.6435 32.7779 46.0218Z" fill="#975500"/>
<path d="M35.1074 28.1172C35.6848 28.2665 36.2522 28.5054 36.7301 28.8937C37.2079 29.2819 37.5464 29.8195 37.7903 30.372C38.283 31.4969 38.4174 32.7213 38.522 33.9209C38.5767 35.1254 38.5817 36.325 38.5568 37.5246C38.5468 38.1219 38.5618 38.7192 38.5319 39.3264C38.512 39.63 38.507 39.9337 38.4373 40.2373C38.3826 40.5011 38.2432 40.9441 37.8799 40.9142C38.1785 40.8097 38.1735 40.4662 38.2382 40.2024C38.2731 39.9137 38.3079 39.6201 38.3079 39.3214C38.3179 38.7291 38.283 38.1318 38.2681 37.5295C38.2333 36.33 38.2482 35.1354 38.1686 33.9458C38.1038 32.7661 38.0242 31.5566 37.5912 30.4615C37.2029 29.3416 36.2572 28.4805 35.1074 28.1172Z" fill="#975500"/>
<path d="M38.9751 50.9886C35.0379 51.4017 32.2257 46.8921 32.2257 46.8921C28.4378 45.8568 28.2835 43.1242 28.2835 43.1242C27.4373 44.6324 26.0237 46.4242 23.6644 46.4242C21.6585 46.4242 19.3639 45.3591 18.3386 43.2984C18.3634 42.8405 18.4033 42.3875 18.4481 41.9346H18.4331C18.3037 43.174 18.2739 44.4432 18.2788 45.6527C20.3047 47.9772 23.4803 48.3057 25.5061 47.7084C26.0536 47.5442 28.617 45.6129 30.598 47.5541C32.7433 49.6646 35.242 52.3574 39.5276 52.2628C43.8132 52.1682 47.1182 56.409 47.1182 56.409C46.7548 54.3832 43.7335 50.4908 38.9751 50.9886Z" fill="url(#paint25_linear)"/>
<path opacity="0.5" d="M21.4394 51.1285C19.9263 52.9453 24.5254 63.4228 29.0599 66.0609C33.5944 68.6989 39.2786 67.8876 40.3836 65.7921C41.4936 63.6966 36.7799 60.4364 32.9224 56.8277C26.2676 50.6009 22.9526 49.3068 21.4394 51.1285Z" fill="url(#paint26_radial)"/>
<path opacity="0.5" d="M58.3971 52.4665C59.1985 51.3864 55.1817 44.6768 51.9762 42.8699C48.7707 41.0631 42.4593 42.1382 41.9416 43.4075C41.4289 44.6767 47.5114 46.1102 50.3734 48.4994C55.3111 52.6257 57.5957 53.5466 58.3971 52.4665Z" fill="url(#paint27_radial)"/>
<path d="M42.479 23.7471L44.6541 31.9698C44.9827 33.3486 45.3161 34.7273 45.5849 36.126C45.7243 36.8228 45.8487 37.5197 45.9582 38.2215C46.0628 38.9233 46.2121 39.6251 46.1573 40.3419C45.9284 39.655 45.8786 38.9532 45.7343 38.2563C45.5999 37.5595 45.4555 36.8676 45.2962 36.1807C44.9777 34.802 44.6591 33.4232 44.3107 32.0495C43.6985 29.287 42.9767 26.5444 42.479 23.7471Z" fill="#975500"/>
<defs>
<linearGradient id="paint0_linear" x1="24.871" y1="77.9324" x2="35.3961" y2="54.8685" gradientUnits="userSpaceOnUse">
<stop offset="0.00132565" stop-color="#F0C492"/>
<stop offset="1" stop-color="#F8DBBA"/>
</linearGradient>
<radialGradient id="paint1_radial" cx="0" cy="0" r="1" gradientUnits="userSpaceOnUse" gradientTransform="translate(54.1627 9.01203) rotate(-131.033) scale(2.78953 1.48286)">
<stop stop-color="#F8E6D2"/>
<stop offset="1" stop-color="#F8E6D2" stop-opacity="0"/>
</radialGradient>
<radialGradient id="paint2_radial" cx="0" cy="0" r="1" gradientUnits="userSpaceOnUse" gradientTransform="translate(50.1229 -2.39735) rotate(102.662) scale(31.3907 23.1706)">
<stop offset="0.1388" stop-color="#FFBC47" stop-opacity="0"/>
<stop offset="1" stop-color="#FF8900"/>
</radialGradient>
<linearGradient id="paint3_linear" x1="40.1359" y1="-9.22488" x2="72.3943" y2="79.0712" gradientUnits="userSpaceOnUse">
<stop stop-color="#FFBC47" stop-opacity="0"/>
<stop offset="1" stop-color="#FFBC47"/>
</linearGradient>
<linearGradient id="paint4_linear" x1="50.1759" y1="2.17456" x2="38.8435" y2="69.9328" gradientUnits="userSpaceOnUse">
<stop stop-color="#FFBA47" stop-opacity="0"/>
<stop offset="1" stop-color="#C66F34"/>
</linearGradient>
<linearGradient id="paint5_linear" x1="51.746" y1="8.40085" x2="48.0156" y2="27.5923" gradientUnits="userSpaceOnUse">
<stop stop-color="#FFBC47" stop-opacity="0"/>
<stop offset="1" stop-color="#C86F34"/>
</linearGradient>
<linearGradient id="paint6_linear" x1="34.4357" y1="10.6356" x2="54.6215" y2="61.6314" gradientUnits="userSpaceOnUse">
<stop stop-color="#FFBC47" stop-opacity="0"/>
<stop offset="1" stop-color="#C86F34"/>
</linearGradient>
<linearGradient id="paint7_linear" x1="59.108" y1="55.0928" x2="50.2629" y2="34.6017" gradientUnits="userSpaceOnUse">
<stop offset="0.00132565" stop-color="#F0C492"/>
<stop offset="1" stop-color="#F8DBBA"/>
</linearGradient>
<radialGradient id="paint8_radial" cx="0" cy="0" r="1" gradientUnits="userSpaceOnUse" gradientTransform="translate(43.7034 9.33584) rotate(-167.041) scale(2.78982 1.48336)">
<stop stop-color="#F8E6D2"/>
<stop offset="1" stop-color="#F8E6D2" stop-opacity="0"/>
</radialGradient>
<radialGradient id="paint9_radial" cx="0" cy="0" r="1" gradientUnits="userSpaceOnUse" gradientTransform="translate(39.6417 4.50816) scale(85.6739)">
<stop offset="0.1388" stop-color="#FFBC47" stop-opacity="0"/>
<stop offset="1" stop-color="#FF8900"/>
</radialGradient>
<linearGradient id="paint10_linear" x1="55.9814" y1="24.9428" x2="21.7035" y2="103.207" gradientUnits="userSpaceOnUse">
<stop stop-color="#FFBC47" stop-opacity="0"/>
<stop offset="1" stop-color="#FFBC47"/>
</linearGradient>
<linearGradient id="paint11_linear" x1="19.4902" y1="50.4494" x2="59.3363" y2="50.4494" gradientUnits="userSpaceOnUse">
<stop offset="0.00132565" stop-color="#F0C492"/>
<stop offset="1" stop-color="#F8DBBA"/>
</linearGradient>
<linearGradient id="paint12_linear" x1="29.5722" y1="70.4675" x2="35.0613" y2="40.5429" gradientUnits="userSpaceOnUse">
<stop stop-color="#FFBC47" stop-opacity="0"/>
<stop offset="1" stop-color="#C86F34"/>
</linearGradient>
<linearGradient id="paint13_linear" x1="23.0686" y1="36.5278" x2="23.0686" y2="53.9833" gradientUnits="userSpaceOnUse">
<stop offset="0.00132565" stop-color="#F0C492"/>
<stop offset="1" stop-color="#F8DBBA"/>
</linearGradient>
<linearGradient id="paint14_linear" x1="33.1139" y1="36.5283" x2="33.1139" y2="53.9838" gradientUnits="userSpaceOnUse">
<stop offset="0.00132565" stop-color="#F0C492"/>
<stop offset="1" stop-color="#F8DBBA"/>
</linearGradient>
<linearGradient id="paint15_linear" x1="33.3599" y1="36.0928" x2="33.3599" y2="59.2232" gradientUnits="userSpaceOnUse">
<stop stop-color="#FFBC47" stop-opacity="0"/>
<stop offset="1" stop-color="#C86F34"/>
</linearGradient>
<linearGradient id="paint16_linear" x1="23.0828" y1="44.2272" x2="23.0828" y2="28.1573" gradientUnits="userSpaceOnUse">
<stop offset="0.00132565" stop-color="#F0C492"/>
<stop offset="1" stop-color="#F8DBBA"/>
</linearGradient>
<linearGradient id="paint17_linear" x1="33.0802" y1="44.2273" x2="33.0802" y2="28.1575" gradientUnits="userSpaceOnUse">
<stop offset="0.00132565" stop-color="#F0C492"/>
<stop offset="1" stop-color="#F8DBBA"/>
</linearGradient>
<linearGradient id="paint18_linear" x1="26.3592" y1="32.8238" x2="69.398" y2="57.2733" gradientUnits="userSpaceOnUse">
<stop stop-color="#FFBC47" stop-opacity="0"/>
<stop offset="1" stop-color="#C86F34"/>
</linearGradient>
<linearGradient id="paint19_linear" x1="19.4903" y1="57.1703" x2="59.3364" y2="57.1703" gradientUnits="userSpaceOnUse">
<stop offset="0.00132565" stop-color="#F0C492"/>
<stop offset="1" stop-color="#F8DBBA"/>
</linearGradient>
<linearGradient id="paint20_linear" x1="39.735" y1="41.6897" x2="39.735" y2="135.719" gradientUnits="userSpaceOnUse">
<stop stop-color="#FFBC47" stop-opacity="0"/>
<stop offset="1" stop-color="#C86F34"/>
</linearGradient>
<linearGradient id="paint21_linear" x1="22.9192" y1="36.0864" x2="24.1133" y2="55.8835" gradientUnits="userSpaceOnUse">
<stop stop-color="#FFBC47" stop-opacity="0"/>
<stop offset="1" stop-color="#C86F34"/>
</linearGradient>
<linearGradient id="paint22_linear" x1="12.4527" y1="30.5777" x2="78.8729" y2="72.7533" gradientUnits="userSpaceOnUse">
<stop stop-color="#FFBC47" stop-opacity="0"/>
<stop offset="1" stop-color="#C86F34"/>
</linearGradient>
<radialGradient id="paint23_radial" cx="0" cy="0" r="1" gradientUnits="userSpaceOnUse" gradientTransform="translate(44.4431 41.6782) scale(46.5478 19.9318)">
<stop stop-color="#FFBC47" stop-opacity="0"/>
<stop offset="1" stop-color="#FFA754"/>
</radialGradient>
<linearGradient id="paint24_linear" x1="41.2617" y1="39.6191" x2="72.6619" y2="73.8523" gradientUnits="userSpaceOnUse">
<stop offset="0.3118" stop-color="#F0C492" stop-opacity="0"/>
<stop offset="1" stop-color="#E6AF74"/>
</linearGradient>
<linearGradient id="paint25_linear" x1="29.9083" y1="57.9459" x2="39.0473" y2="30.0578" gradientUnits="userSpaceOnUse">
<stop stop-color="#FFBC47" stop-opacity="0"/>
<stop offset="1" stop-color="#C86F34"/>
</linearGradient>
<radialGradient id="paint26_radial" cx="0" cy="0" r="1" gradientUnits="userSpaceOnUse" gradientTransform="translate(30.3857 60.1678) rotate(-138.967) scale(13.2034 6.02484)">
<stop stop-color="#F8E6D2"/>
<stop offset="1" stop-color="#F8E6D2" stop-opacity="0"/>
</radialGradient>
<radialGradient id="paint27_radial" cx="0" cy="0" r="1" gradientUnits="userSpaceOnUse" gradientTransform="translate(50.6749 45.938) rotate(38.2129) scale(10.1807 3.74861)">
<stop stop-color="#F8E6D2"/>
<stop offset="1" stop-color="#F8E6D2" stop-opacity="0"/>
</radialGradient>
</defs>
</svg>
