<svg width="80" height="80" viewBox="0 0 80 80" fill="none" xmlns="http://www.w3.org/2000/svg">
<path d="M40.475 69.95C57.3059 69.95 70.95 56.3059 70.95 39.475C70.95 22.6441 57.3059 9 40.475 9C23.6441 9 10 22.6441 10 39.475C10 56.3059 23.6441 69.95 40.475 69.95Z" fill="url(#paint0_radial)"/>
<path opacity="0.5" d="M40.475 69.95C57.3059 69.95 70.95 56.3059 70.95 39.475C70.95 22.6441 57.3059 9 40.475 9C23.6441 9 10 22.6441 10 39.475C10 56.3059 23.6441 69.95 40.475 69.95Z" fill="url(#paint1_radial)"/>
<path d="M40.475 69.95C57.3059 69.95 70.95 56.3059 70.95 39.475C70.95 22.6441 57.3059 9 40.475 9C23.6441 9 10 22.6441 10 39.475C10 56.3059 23.6441 69.95 40.475 69.95Z" fill="url(#paint2_radial)"/>
<path d="M40.475 62.5643C26.0084 62.5643 21.3833 47.8287 25.7932 50.1412C31.709 53.2425 35.4556 54.1388 40.475 54.1388C45.4944 54.1388 49.2411 53.2425 55.1568 50.1412C59.5667 47.8287 54.9417 62.5643 40.475 62.5643Z" fill="#643800"/>
<path d="M49.1694 56.541C49.1694 55.6626 48.3269 54.9993 47.4664 55.2503C45.4049 55.8598 43.0924 56.2183 40.4751 56.2183C37.8578 56.2183 35.5274 55.8598 33.4838 55.2503C32.6412 54.9993 31.7808 55.6447 31.7808 56.541V62.385C31.7808 67.1893 35.6708 71.2766 40.4751 71.2766C45.2794 71.2766 49.1694 67.1893 49.1694 62.385C49.1694 62.385 49.1694 62.385 49.1694 62.3671V56.541Z" fill="url(#paint3_linear)"/>
<path d="M49.1694 56.541C49.1694 55.6626 48.3269 54.9993 47.4664 55.2503C45.4049 55.8598 43.0924 56.2183 40.4751 56.2183C37.8578 56.2183 35.5274 55.8598 33.4838 55.2503C32.6412 54.9993 31.7808 55.6447 31.7808 56.541V62.385C31.7808 67.1893 35.6708 71.2766 40.4751 71.2766C45.2794 71.2766 49.1694 67.1893 49.1694 62.385C49.1694 62.385 49.1694 62.385 49.1694 62.3671V56.541Z" fill="url(#paint4_radial)"/>
<path d="M39.5789 56.6306H41.3715C41.3715 67.763 40.9592 67.9243 40.4752 67.9243C39.9732 67.9243 39.5789 67.7271 39.5789 56.6306Z" fill="url(#paint5_linear)"/>
<path d="M55.1566 50.1412C49.2409 53.2425 45.4942 54.1388 40.4748 54.1388C35.4554 54.1388 31.7088 53.2425 25.793 50.1412C24.2514 49.3346 23.8211 50.6073 24.5023 52.5972C24.5023 52.5613 24.7354 50.4281 26.8149 51.898C26.8149 51.898 26.8149 51.898 26.8328 51.898C29.9161 54.2643 34.4515 56.2362 40.4748 56.2362C46.4981 56.2362 51.0335 54.2822 54.1169 51.898C54.1169 51.898 54.1169 51.898 54.1348 51.898C56.2143 50.4281 56.4294 52.5434 56.4473 52.5972C57.1285 50.6073 56.6983 49.3346 55.1566 50.1412Z" fill="url(#paint6_linear)"/>
<path d="M40.4751 56.2363C37.8578 56.2363 35.5274 55.8777 33.4838 55.2682C32.6412 55.0173 31.7808 55.6626 31.7808 56.541C31.7808 58.0827 31.7808 59.8395 31.7808 59.8395C31.7808 59.8395 31.8883 57.7421 40.4751 57.7421C49.0619 57.7421 49.1694 59.8395 49.1694 59.8395C49.1694 59.8395 49.1694 58.0827 49.1694 56.541C49.1694 55.6626 48.3269 54.9993 47.4664 55.2682C45.4228 55.8598 43.0924 56.2363 40.4751 56.2363Z" fill="url(#paint7_linear)"/>
<path d="M33.7706 23.6818C33.7706 22.4628 32.444 21.692 30.1853 21.692C28.2492 21.692 24.0186 22.7496 21.0966 26.5142C20.5588 27.2133 21.3834 27.5898 21.9212 27.1416C23.7138 25.6178 28.5181 23.6639 32.2827 24.0582C33.7706 24.2375 33.7706 23.6818 33.7706 23.6818Z" fill="url(#paint8_linear)"/>
<path d="M30.5259 38.489C32.1496 38.489 33.4658 36.5066 33.4658 34.0612C33.4658 31.6158 32.1496 29.6334 30.5259 29.6334C28.9022 29.6334 27.5859 31.6158 27.5859 34.0612C27.5859 36.5066 28.9022 38.489 30.5259 38.489Z" fill="url(#paint9_radial)"/>
<path d="M30.5259 31.1213C31.7807 31.1213 32.8922 32.2148 33.4658 33.8461C33.43 31.444 32.1213 29.5258 30.5259 29.5258C28.9304 29.5258 27.6218 31.4619 27.5859 33.8461C28.1596 32.2148 29.271 31.1213 30.5259 31.1213Z" fill="url(#paint10_linear)"/>
<path d="M47.1797 23.6818C47.1797 22.4628 48.5062 21.692 50.765 21.692C52.701 21.692 56.9317 22.7496 59.8537 26.5142C60.3915 27.2133 59.5669 27.5898 59.0291 27.1416C57.2364 25.6178 52.4321 23.6639 48.6676 24.0582C47.1797 24.2375 47.1797 23.6818 47.1797 23.6818Z" fill="url(#paint11_linear)"/>
<path d="M50.4243 38.489C52.048 38.489 53.3643 36.5066 53.3643 34.0612C53.3643 31.6158 52.048 29.6334 50.4243 29.6334C48.8006 29.6334 47.4844 31.6158 47.4844 34.0612C47.4844 36.5066 48.8006 38.489 50.4243 38.489Z" fill="url(#paint12_radial)"/>
<path d="M50.4243 31.1213C49.1695 31.1213 48.058 32.2148 47.4844 33.8461C47.5202 31.444 48.8289 29.5258 50.4243 29.5258C52.0198 29.5258 53.3284 31.4619 53.3643 33.8461C52.7906 32.2148 51.6792 31.1213 50.4243 31.1213Z" fill="url(#paint13_linear)"/>
<defs>
<radialGradient id="paint0_radial" cx="0" cy="0" r="1" gradientUnits="userSpaceOnUse" gradientTransform="translate(34.479 27.1245) scale(36.7642)">
<stop stop-color="#FFDF30"/>
<stop offset="1" stop-color="#FFB82E"/>
</radialGradient>
<radialGradient id="paint1_radial" cx="0" cy="0" r="1" gradientUnits="userSpaceOnUse" gradientTransform="translate(34.479 27.1245) scale(28.9239)">
<stop stop-color="#FFE95F"/>
<stop offset="1" stop-color="#FFBB47" stop-opacity="0"/>
</radialGradient>
<radialGradient id="paint2_radial" cx="0" cy="0" r="1" gradientUnits="userSpaceOnUse" gradientTransform="translate(40.5702 64.1792) scale(15.8006 7.86343)">
<stop stop-color="#7A4400" stop-opacity="0.5"/>
<stop offset="0.6008" stop-color="#894D00" stop-opacity="0.1981"/>
<stop offset="0.995" stop-color="#965500" stop-opacity="0"/>
</radialGradient>
<linearGradient id="paint3_linear" x1="40.4747" y1="66.0907" x2="40.4747" y2="52.7155" gradientUnits="userSpaceOnUse">
<stop stop-color="#FF6687"/>
<stop offset="1" stop-color="#D83E15"/>
</linearGradient>
<radialGradient id="paint4_radial" cx="0" cy="0" r="1" gradientUnits="userSpaceOnUse" gradientTransform="translate(43.0921 65.7594) rotate(-39.9045) scale(8.62963 5.23333)">
<stop stop-color="white" stop-opacity="0.33"/>
<stop offset="1" stop-color="white" stop-opacity="0"/>
</radialGradient>
<linearGradient id="paint5_linear" x1="40.4744" y1="57.9216" x2="40.4744" y2="75.2547" gradientUnits="userSpaceOnUse">
<stop stop-color="#D83E15" stop-opacity="0"/>
<stop offset="1" stop-color="#D83E15"/>
</linearGradient>
<linearGradient id="paint6_linear" x1="40.4744" y1="44.7043" x2="40.4744" y2="55.9205" gradientUnits="userSpaceOnUse">
<stop offset="0.00132565" stop-color="#3C2200"/>
<stop offset="1" stop-color="#512D00"/>
</linearGradient>
<linearGradient id="paint7_linear" x1="40.4746" y1="61.0856" x2="40.4746" y2="56.1961" gradientUnits="userSpaceOnUse">
<stop stop-color="#D83E15" stop-opacity="0"/>
<stop offset="1" stop-color="#BC2719"/>
</linearGradient>
<linearGradient id="paint8_linear" x1="27.3443" y1="25.7278" x2="27.3443" y2="22.5165" gradientUnits="userSpaceOnUse">
<stop offset="0.00132565" stop-color="#3C2200"/>
<stop offset="1" stop-color="#7A4400"/>
</linearGradient>
<radialGradient id="paint9_radial" cx="0" cy="0" r="1" gradientUnits="userSpaceOnUse" gradientTransform="translate(29.6383 34.1642) rotate(73.8553) scale(4.30571 2.78562)">
<stop offset="0.00132565" stop-color="#7A4400"/>
<stop offset="1" stop-color="#643800"/>
</radialGradient>
<linearGradient id="paint10_linear" x1="30.5254" y1="29.5916" x2="30.5254" y2="33.7274" gradientUnits="userSpaceOnUse">
<stop offset="0.00132565" stop-color="#3C2200"/>
<stop offset="1" stop-color="#512D00"/>
</linearGradient>
<linearGradient id="paint11_linear" x1="53.6059" y1="25.7278" x2="53.6059" y2="22.5165" gradientUnits="userSpaceOnUse">
<stop offset="0.00132565" stop-color="#3C2200"/>
<stop offset="1" stop-color="#7A4400"/>
</linearGradient>
<radialGradient id="paint12_radial" cx="0" cy="0" r="1" gradientUnits="userSpaceOnUse" gradientTransform="translate(49.5379 34.1641) rotate(73.8554) scale(4.30571 2.78562)">
<stop offset="0.00132565" stop-color="#7A4400"/>
<stop offset="1" stop-color="#643800"/>
</radialGradient>
<linearGradient id="paint13_linear" x1="50.4248" y1="29.5916" x2="50.4248" y2="33.7274" gradientUnits="userSpaceOnUse">
<stop offset="0.00132565" stop-color="#3C2200"/>
<stop offset="1" stop-color="#512D00"/>
</linearGradient>
</defs>
</svg>
