<svg width="80" height="80" viewBox="0 0 80 80" fill="none" xmlns="http://www.w3.org/2000/svg">
<path d="M40.475 70.95C57.3059 70.95 70.95 57.3059 70.95 40.475C70.95 23.6441 57.3059 10 40.475 10C23.6441 10 10 23.6441 10 40.475C10 57.3059 23.6441 70.95 40.475 70.95Z" fill="url(#paint0_radial)"/>
<path opacity="0.5" d="M40.475 70.95C57.3059 70.95 70.95 57.3059 70.95 40.475C70.95 23.6441 57.3059 10 40.475 10C23.6441 10 10 23.6441 10 40.475C10 57.3059 23.6441 70.95 40.475 70.95Z" fill="url(#paint1_radial)"/>
<path d="M30.5259 41.7657C32.1496 41.7657 33.4658 39.7833 33.4658 37.3379C33.4658 34.8924 32.1496 32.91 30.5259 32.91C28.9022 32.91 27.5859 34.8924 27.5859 37.3379C27.5859 39.7833 28.9022 41.7657 30.5259 41.7657Z" fill="url(#paint2_radial)"/>
<path d="M30.5259 34.3979C31.7807 34.3979 32.8922 35.4914 33.4658 37.1228C33.43 34.7206 32.1213 32.8025 30.5259 32.8025C28.9304 32.8025 27.6218 34.7385 27.5859 37.1228C28.1596 35.5094 29.271 34.3979 30.5259 34.3979Z" fill="url(#paint3_linear)"/>
<path d="M50.4242 41.7657C52.0479 41.7657 53.3641 39.7833 53.3641 37.3379C53.3641 34.8924 52.0479 32.91 50.4242 32.91C48.8005 32.91 47.4843 34.8924 47.4843 37.3379C47.4843 39.7833 48.8005 41.7657 50.4242 41.7657Z" fill="url(#paint4_radial)"/>
<path d="M50.4242 34.5055C49.1693 34.5055 48.0579 35.599 47.4843 37.2303C47.5201 34.8282 48.8287 32.91 50.4242 32.91C52.0196 32.91 53.3283 34.8461 53.3641 37.2303C52.7905 35.6169 51.679 34.5055 50.4242 34.5055Z" fill="url(#paint5_linear)"/>
<path d="M47.6098 23.0505C47.9325 21.8673 49.4025 21.4729 51.5895 22.0645C53.4539 22.5665 57.2722 24.6818 59.1186 29.0738C59.4592 29.8805 58.5629 30.0418 58.1685 29.4681C56.8241 27.5321 52.701 24.395 48.9543 23.8213C47.4664 23.5703 47.6098 23.0505 47.6098 23.0505Z" fill="url(#paint6_linear)"/>
<path d="M40.475 63.9408C45.0392 63.9408 48.7391 60.2408 48.7391 55.6766C48.7391 51.1125 45.0392 47.4125 40.475 47.4125C35.9109 47.4125 32.2109 51.1125 32.2109 55.6766C32.2109 60.2408 35.9109 63.9408 40.475 63.9408Z" fill="url(#paint7_radial)"/>
<path d="M40.4751 49.976C44.0424 49.976 47.1258 51.9659 48.7033 54.9058C48.3089 50.711 44.7774 47.4125 40.4751 47.4125C36.1727 47.4125 32.6412 50.6931 32.2468 54.9058C33.8244 51.9659 36.9077 49.976 40.4751 49.976Z" fill="url(#paint8_linear)"/>
<path d="M33.3404 23.0505C33.0177 21.8673 31.5477 21.4729 29.3607 22.0645C27.4963 22.5665 23.678 24.6818 21.8316 29.0738C21.491 29.8805 22.3873 30.0418 22.7817 29.4681C24.1262 27.5321 28.2492 24.395 31.9959 23.8213C33.4838 23.5703 33.3404 23.0505 33.3404 23.0505Z" fill="url(#paint9_linear)"/>
<defs>
<radialGradient id="paint0_radial" cx="0" cy="0" r="1" gradientUnits="userSpaceOnUse" gradientTransform="translate(34.479 28.1245) scale(36.7641)">
<stop stop-color="#FFDF30"/>
<stop offset="1" stop-color="#FFB82E"/>
</radialGradient>
<radialGradient id="paint1_radial" cx="0" cy="0" r="1" gradientUnits="userSpaceOnUse" gradientTransform="translate(34.479 28.1245) scale(28.924)">
<stop stop-color="#FFE95F"/>
<stop offset="1" stop-color="#FFBB47" stop-opacity="0"/>
</radialGradient>
<radialGradient id="paint2_radial" cx="0" cy="0" r="1" gradientUnits="userSpaceOnUse" gradientTransform="translate(29.6352 37.4493) rotate(73.8539) scale(4.30588 2.78584)">
<stop offset="0.00132565" stop-color="#7A4400"/>
<stop offset="1" stop-color="#643800"/>
</radialGradient>
<linearGradient id="paint3_linear" x1="30.5254" y1="32.8772" x2="30.5254" y2="37.0131" gradientUnits="userSpaceOnUse">
<stop offset="0.00132565" stop-color="#3C2200"/>
<stop offset="1" stop-color="#512D00"/>
</linearGradient>
<radialGradient id="paint4_radial" cx="0" cy="0" r="1" gradientUnits="userSpaceOnUse" gradientTransform="translate(49.5354 37.45) rotate(73.8539) scale(4.30588 2.78584)">
<stop offset="0.00132565" stop-color="#7A4400"/>
<stop offset="1" stop-color="#643800"/>
</radialGradient>
<linearGradient id="paint5_linear" x1="50.4247" y1="32.986" x2="50.4247" y2="37.1219" gradientUnits="userSpaceOnUse">
<stop offset="0.00132565" stop-color="#3C2200"/>
<stop offset="1" stop-color="#512D00"/>
</linearGradient>
<linearGradient id="paint6_linear" x1="53.2869" y1="26.6832" x2="54.1184" y2="23.5821" gradientUnits="userSpaceOnUse">
<stop offset="0.00132565" stop-color="#3C2200"/>
<stop offset="1" stop-color="#7A4400"/>
</linearGradient>
<radialGradient id="paint7_radial" cx="0" cy="0" r="1" gradientUnits="userSpaceOnUse" gradientTransform="translate(39.9708 56.1732) rotate(73.8564) scale(10.0223 6.48395)">
<stop offset="0.00132565" stop-color="#7A4400"/>
<stop offset="1" stop-color="#643800"/>
</radialGradient>
<linearGradient id="paint8_linear" x1="40.4751" y1="43.528" x2="40.4751" y2="57.0012" gradientUnits="userSpaceOnUse">
<stop offset="0.00132565" stop-color="#3C2200"/>
<stop offset="1" stop-color="#512D00"/>
</linearGradient>
<linearGradient id="paint9_linear" x1="27.6633" y1="26.6835" x2="26.8318" y2="23.5824" gradientUnits="userSpaceOnUse">
<stop offset="0.00132565" stop-color="#3C2200"/>
<stop offset="1" stop-color="#7A4400"/>
</linearGradient>
</defs>
</svg>
