<svg width="24" height="24" viewBox="0 0 24 24" fill="none" xmlns="http://www.w3.org/2000/svg">
<path d="M6.83407 9.16568C5.47407 9.06854 3.87407 8.93711 3.55979 9.99996C3.2455 11.0628 3.45122 12.6685 4.18265 13.8628C4.91407 15.0571 7.79979 14.9885 8.83979 14.36C10.2284 13.5143 10.3484 12.0914 10.3884 11.2343C10.4341 10.0914 8.93122 9.31996 6.83407 9.16568Z" fill="url(#paint0_linear)"/>
<path d="M17.1371 9.16568C18.4971 9.06854 20.0971 8.93711 20.4114 9.99996C20.7257 11.0628 20.5199 12.6685 19.7885 13.8628C19.0571 15.0571 16.1714 14.9885 15.1314 14.36C13.7428 13.5143 13.6228 12.0914 13.5828 11.2343C13.5371 10.0914 15.0399 9.31996 17.1371 9.16568Z" fill="url(#paint1_linear)"/>
<path d="M22.2513 8.78829C22.2513 8.78829 21.9084 8.65687 20.7427 8.51972C19.1484 8.33687 16.5313 8.33115 15.3199 8.69687C13.6284 9.20544 13.0227 9.91401 11.9884 9.91401C10.9541 9.91401 10.3484 9.20544 8.657 8.69687C7.44558 8.33115 4.82272 8.33687 3.23415 8.51972C2.06272 8.65687 1.71986 8.78829 1.71986 8.78829C1.71415 8.89687 1.71415 9.02829 1.71986 9.17115C1.71986 9.17115 2.44558 9.29115 2.45129 9.35401C2.457 9.38829 1.74272 9.45687 1.74272 9.45687C1.75415 9.57687 1.777 9.70258 1.80558 9.83972L2.08558 9.97115C2.30272 10.074 2.45129 10.2854 2.47415 10.5254C2.77129 13.4512 3.70272 14.634 3.70272 14.634C4.537 15.7597 8.47415 16.1369 9.79415 14.6626C11.4513 12.8169 10.7827 11.1369 11.9884 11.1369C13.1941 11.1369 12.5256 12.8112 14.1827 14.6626C15.5027 16.1369 19.4341 15.7597 20.2741 14.634C20.2741 14.634 21.2056 13.4512 21.5027 10.5254C21.5256 10.2854 21.6741 10.074 21.8913 9.97115L22.1713 9.83972C22.1999 9.70258 22.2227 9.57687 22.2341 9.45687C22.2341 9.45687 21.5713 9.38829 21.577 9.35401C21.5827 9.29115 22.257 9.17115 22.257 9.17115C22.257 9.02829 22.257 8.89687 22.2513 8.78829ZM8.83986 14.3597C7.79986 14.994 4.91415 15.0569 4.18272 13.8626C3.45129 12.6683 3.24558 11.0626 3.55986 9.99972C3.87415 8.93687 5.47415 9.06829 6.83415 9.16544C8.93129 9.31401 10.4341 10.0912 10.3884 11.2283C10.3484 12.0912 10.2284 13.514 8.83986 14.3597ZM19.7884 13.8626C19.057 15.0569 16.1713 14.9883 15.1313 14.3597C13.7427 13.514 13.6227 12.0912 13.5827 11.234C13.537 10.0969 15.0399 9.31972 17.137 9.17115C18.497 9.07401 20.097 8.94258 20.4113 10.0054C20.7199 11.0683 20.5199 12.674 19.7884 13.8626Z" fill="url(#paint2_linear)"/>
<path d="M8.83996 14.3596C7.79996 14.9939 4.91425 15.0568 4.18282 13.8625C3.56568 12.8568 3.32568 11.5653 3.45139 10.5425C3.44568 10.5482 3.44568 10.5539 3.44568 10.5596C3.33139 11.6568 3.53139 12.9482 4.13711 14.0111C4.87996 15.3196 7.81139 15.2453 8.87425 14.5539C9.96568 13.8396 10.2457 12.8225 10.3314 11.9253C10.2228 12.7368 9.89711 13.7139 8.83996 14.3596Z" fill="url(#paint3_linear)"/>
<path opacity="0.75" d="M12.6455 11.1482C12.6627 10.7996 12.7484 10.4568 12.8855 10.1368L13.1084 9.63965C12.7369 9.80536 12.3941 9.91965 11.9826 9.91965C11.5712 9.91965 11.2284 9.80536 10.8569 9.63965L11.0798 10.1368C11.2226 10.4568 11.3026 10.7996 11.3198 11.1482L11.3369 11.4682C11.4741 11.2568 11.6569 11.1368 11.9769 11.1368C12.2969 11.1368 12.4855 11.2568 12.6169 11.4682L12.6455 11.1482Z" fill="url(#paint4_radial)"/>
<path opacity="0.75" d="M3.55976 10.1482C3.87404 9.07962 5.47404 9.21105 6.83404 9.31391C8.8569 9.45676 10.3312 10.1882 10.3883 11.2568C10.3883 11.251 10.3883 11.2396 10.3883 11.2339C10.434 10.0968 8.93118 9.31962 6.83404 9.17105C5.47404 9.07391 3.87404 8.94248 3.55976 10.0053C3.4569 10.3482 3.41118 10.7539 3.42261 11.1768C3.42261 10.8053 3.46833 10.451 3.55976 10.1482Z" fill="black"/>
<path d="M1.71973 9.1709C1.72544 9.26233 1.73116 9.35375 1.74258 9.45661H2.80544C2.96544 9.45661 3.09116 9.3309 3.09116 9.1709H1.71973Z" fill="url(#paint5_linear)"/>
<path d="M15.1313 14.3596C16.1713 14.9939 19.057 15.0568 19.7885 13.8625C20.4056 12.8568 20.6456 11.5653 20.5199 10.5425C20.5256 10.5482 20.5256 10.5539 20.5256 10.5596C20.6399 11.6568 20.4399 12.9482 19.8342 14.0111C19.0913 15.3196 16.1599 15.2453 15.097 14.5539C14.0056 13.8396 13.7256 12.8225 13.6399 11.9253C13.7485 12.7368 14.0742 13.7139 15.1313 14.3596Z" fill="url(#paint6_linear)"/>
<path opacity="0.75" d="M20.4114 10.1482C20.0971 9.08533 18.4971 9.21676 17.1371 9.31391C15.1142 9.45676 13.6399 10.1882 13.5828 11.2568C13.5828 11.251 13.5828 11.2396 13.5828 11.2339C13.5371 10.0968 15.0399 9.31962 17.1371 9.17105C18.4971 9.07391 20.0971 8.94248 20.4114 10.0053C20.5142 10.3482 20.5599 10.7539 20.5485 11.1768C20.5485 10.8053 20.5028 10.451 20.4114 10.1482Z" fill="black"/>
<path d="M22.2513 9.1709C22.2456 9.26233 22.2399 9.35375 22.2285 9.45661H21.1656C21.0056 9.45661 20.8799 9.3309 20.8799 9.1709H22.2513Z" fill="url(#paint7_linear)"/>
<path d="M11.1086 10.1369L10.8857 9.63972C10.32 9.3883 9.69713 9.00544 8.67428 8.69687C7.46856 8.33115 4.85142 8.33687 3.25713 8.51972C2.09142 8.65687 1.74856 8.78829 1.74856 8.78829C1.74285 8.90258 1.73713 9.0283 1.74285 9.17687C4.23427 8.95972 7.23999 8.46258 10.7828 10.0969C10.88 10.1426 10.9943 10.154 11.1143 10.154C11.1143 10.1483 11.1143 10.1426 11.1086 10.1369Z" fill="url(#paint8_radial)"/>
<path d="M12.9201 10.1369L13.1429 9.63972C13.7086 9.3883 14.3315 9.00544 15.3543 8.69687C16.5658 8.33115 19.1886 8.33687 20.7772 8.51972C21.9429 8.65115 22.2858 8.78829 22.2858 8.78829C22.2915 8.90258 22.2972 9.0283 22.2915 9.17687C19.8001 8.95972 16.7943 8.46258 13.2515 10.0969C13.1543 10.1426 13.0401 10.154 12.9201 10.154C12.9143 10.1483 12.9143 10.1426 12.9201 10.1369Z" fill="url(#paint9_radial)"/>
<defs>
<linearGradient id="paint0_linear" x1="6.90379" y1="-1.03005" x2="6.90379" y2="14.1179" gradientUnits="userSpaceOnUse">
<stop stop-color="#B0E9FF"/>
<stop offset="1" stop-color="#80DAFE" stop-opacity="0"/>
</linearGradient>
<linearGradient id="paint1_linear" x1="17.0671" y1="-1.03005" x2="17.0671" y2="14.1179" gradientUnits="userSpaceOnUse">
<stop stop-color="#B0E9FF"/>
<stop offset="1" stop-color="#80DAFE" stop-opacity="0"/>
</linearGradient>
<linearGradient id="paint2_linear" x1="11.9855" y1="12.257" x2="11.9855" y2="4.84025" gradientUnits="userSpaceOnUse">
<stop stop-color="#242424"/>
<stop offset="1" stop-color="#8EA5A8"/>
</linearGradient>
<linearGradient id="paint3_linear" x1="6.87287" y1="12.0777" x2="6.87287" y2="17.7464" gradientUnits="userSpaceOnUse">
<stop/>
<stop offset="1" stop-color="#8EA5A8"/>
</linearGradient>
<radialGradient id="paint4_radial" cx="0" cy="0" r="1" gradientUnits="userSpaceOnUse" gradientTransform="translate(11.973 10.3401) scale(1.263 0.771832)">
<stop offset="0.0158651" stop-color="#8EA5A8" stop-opacity="0.25"/>
<stop offset="1" stop-color="#8EA5A8" stop-opacity="0"/>
</radialGradient>
<linearGradient id="paint5_linear" x1="3.15597" y1="9.31695" x2="1.84432" y2="9.31695" gradientUnits="userSpaceOnUse">
<stop stop-color="white"/>
<stop offset="1" stop-color="#FFBF00"/>
</linearGradient>
<linearGradient id="paint6_linear" x1="17.0982" y1="12.0777" x2="17.0982" y2="17.7464" gradientUnits="userSpaceOnUse">
<stop/>
<stop offset="1" stop-color="#8EA5A8"/>
</linearGradient>
<linearGradient id="paint7_linear" x1="20.8148" y1="9.31695" x2="22.1265" y2="9.31695" gradientUnits="userSpaceOnUse">
<stop stop-color="white"/>
<stop offset="1" stop-color="#FFBF00"/>
</linearGradient>
<radialGradient id="paint8_radial" cx="0" cy="0" r="1" gradientUnits="userSpaceOnUse" gradientTransform="translate(5.66869 20.7626) scale(21.0996 12.5459)">
<stop offset="0.9647" stop-color="#8EA5A8" stop-opacity="0"/>
<stop offset="1" stop-color="#8EA5A8"/>
</radialGradient>
<radialGradient id="paint9_radial" cx="0" cy="0" r="1" gradientUnits="userSpaceOnUse" gradientTransform="translate(18.3595 20.7627) rotate(180) scale(21.0996 12.5459)">
<stop offset="0.9647" stop-color="#8EA5A8" stop-opacity="0"/>
<stop offset="1" stop-color="#8EA5A8"/>
</radialGradient>
</defs>
</svg>
