<svg width="80" height="80" viewBox="0 0 80 80" fill="none" xmlns="http://www.w3.org/2000/svg">
<path d="M40.0001 70.4762C56.8316 70.4762 70.4763 56.8315 70.4763 40C70.4763 23.1685 56.8316 9.5238 40.0001 9.5238C23.1686 9.5238 9.52393 23.1685 9.52393 40C9.52393 56.8315 23.1686 70.4762 40.0001 70.4762Z" fill="url(#paint0_radial)"/>
<path opacity="0.5" d="M40.0001 70.4762C56.8316 70.4762 70.4763 56.8315 70.4763 40C70.4763 23.1685 56.8316 9.5238 40.0001 9.5238C23.1686 9.5238 9.52393 23.1685 9.52393 40C9.52393 56.8315 23.1686 70.4762 40.0001 70.4762Z" fill="url(#paint1_radial)"/>
<path d="M60.5715 45.1618C60.3429 45.0665 60.0953 45.0665 59.8667 45.1237C53.4286 46.9523 46.762 47.8856 40.0001 47.8856C33.2572 47.8856 26.5715 46.9523 20.1334 45.1237C19.9048 45.0475 19.6572 45.0665 19.4286 45.1618C18.7239 45.4475 17.6382 46.4951 19.0858 50.5142C21.2763 55.638 26.9715 64.6475 40.0191 64.6475C53.0096 64.6475 58.7429 55.6189 60.9334 50.4951C62.3619 46.4951 61.2762 45.4475 60.5715 45.1618Z" fill="url(#paint2_radial)"/>
<path d="M31.9429 25.619C31.6191 24.438 30.1334 24.0571 27.9429 24.6666C26.0763 25.1809 22.2858 27.3523 20.4953 31.7523C20.1715 32.5713 21.0667 32.7047 21.4477 32.1332C22.762 30.1904 26.8763 26.9904 30.5906 26.3809C32.0953 26.1523 31.9429 25.619 31.9429 25.619Z" fill="url(#paint3_linear)"/>
<path d="M31.7526 35.0858C29.6383 33.7715 26.9145 33.9239 24.9336 35.4096C23.924 36.1715 22.9336 37.3334 22.3431 39.143C22.2478 39.4477 22.1716 39.7715 22.1526 40.0953C22.1145 40.743 22.5716 41.3334 23.2955 40.6477C28.9336 35.3334 32.8764 40.8001 32.8764 40.8001C33.6383 41.3525 34.4193 40.2096 34.2669 39.143C34.2288 38.8382 34.1907 38.5144 34.0955 38.2287C33.6764 36.6858 32.7431 35.7144 31.7526 35.0858Z" fill="url(#paint4_radial)"/>
<path d="M40.0001 63.2382C45.3906 63.2382 49.4477 61.5811 52.4763 59.3144C49.143 57.8097 45.0477 56.8192 40.0001 56.8192C34.9525 56.8192 30.8382 57.8097 27.5049 59.3144C30.5335 61.5811 34.5906 63.2382 40.0001 63.2382Z" fill="url(#paint5_radial)"/>
<path d="M60.1715 45.0666C60.1334 45.0666 60.0763 45.0666 60.0382 45.0856C53.543 46.9523 46.8001 47.9047 40.0001 47.9047C33.1811 47.9047 26.4382 46.9523 19.962 45.0856C19.9239 45.0666 19.8668 45.0666 19.8287 45.0666C19.3906 45.1047 17.2954 45.5428 19.0858 50.5142C19.962 52.5904 21.4287 55.2761 23.7144 57.7714C21.5811 55.238 24.2096 53.8285 28.9144 54.3999C33.6192 54.9714 40.0192 54.9714 40.0192 54.9714C40.0192 54.9714 46.4382 54.9523 51.1239 54.3999C55.8287 53.8285 58.4573 55.238 56.3239 57.7714C58.6096 55.2761 60.0573 52.5904 60.9525 50.5142C62.7049 45.5428 60.6096 45.1047 60.1715 45.0666Z" fill="url(#paint6_linear)"/>
<path d="M56.5524 52.0381C58.3429 51.6571 59.6762 50.1714 59.8476 48.3429L60.0191 46.5714C53.5429 48.4 46.8 49.3333 40 49.3333C33.2 49.3333 26.4572 48.4 19.9619 46.5714L20.1333 48.3429C20.3048 50.1714 21.6572 51.6571 23.4286 52.0381C28.8381 53.2 34.4 53.8095 39.981 53.8095C45.581 53.8095 51.1429 53.219 56.5524 52.0381Z" fill="url(#paint7_radial)"/>
<path d="M34.1145 38.2286C33.905 37.581 33.6383 37.0477 33.3526 36.5905C32.8954 35.9429 32.3431 35.4667 31.7716 35.1048C29.6573 33.7905 26.9335 33.9429 24.9526 35.4286C23.943 36.1905 22.9526 37.3524 22.3621 39.1619C22.305 39.3334 22.2669 39.5239 22.2288 39.7143C22.2288 39.7143 22.2288 39.7143 22.2288 39.7334C24.705 35.8667 28.2859 35.6 28.2859 35.6C28.2859 35.6 31.8288 35.2953 34.2288 38.7619C34.1907 38.5715 34.1526 38.4 34.1145 38.2286Z" fill="url(#paint8_linear)"/>
<path d="M48.0573 25.619C48.3811 24.438 49.8668 24.0571 52.0573 24.6666C53.924 25.1809 57.7145 27.3523 59.5049 31.7523C59.8287 32.5713 58.9335 32.7047 58.5525 32.1332C57.2383 30.1904 53.124 26.9904 49.4097 26.3809C47.9049 26.1523 48.0573 25.619 48.0573 25.619Z" fill="url(#paint9_linear)"/>
<path d="M48.2479 35.0858C50.3621 33.7715 53.0859 33.9239 55.0669 35.4096C56.0764 36.1715 57.0669 37.3334 57.6574 39.143C57.7526 39.4477 57.8288 39.7715 57.8478 40.0953C57.8859 40.743 57.4288 41.3334 56.705 40.6477C51.0669 35.3334 47.124 40.8001 47.124 40.8001C46.3621 41.3525 45.5812 40.2096 45.7336 39.143C45.7717 38.8382 45.8098 38.5144 45.905 38.2287C46.324 36.6858 47.2574 35.7144 48.2479 35.0858Z" fill="url(#paint10_radial)"/>
<path d="M45.8858 38.2286C46.0953 37.581 46.362 37.0477 46.6477 36.5905C47.1048 35.9429 47.6572 35.4667 48.2286 35.1048C50.3429 33.7905 53.0667 33.9429 55.0477 35.4286C56.0572 36.1905 57.0477 37.3524 57.6381 39.1619C57.6953 39.3334 57.7334 39.5239 57.7715 39.7143C57.7715 39.7143 57.7715 39.7143 57.7715 39.7334C55.2953 35.8667 51.7143 35.6 51.7143 35.6C51.7143 35.6 48.1715 35.2953 45.7715 38.7619C45.8096 38.5715 45.8477 38.4 45.8858 38.2286Z" fill="url(#paint11_linear)"/>
<defs>
<radialGradient id="paint0_radial" cx="0" cy="0" r="1" gradientUnits="userSpaceOnUse" gradientTransform="translate(34.0039 27.649) scale(36.7656)">
<stop stop-color="#FFE030"/>
<stop offset="1" stop-color="#FFB92E"/>
</radialGradient>
<radialGradient id="paint1_radial" cx="0" cy="0" r="1" gradientUnits="userSpaceOnUse" gradientTransform="translate(34.0039 27.649) scale(28.9251)">
<stop stop-color="#FFEA5F"/>
<stop offset="1" stop-color="#FFBC47" stop-opacity="0"/>
</radialGradient>
<radialGradient id="paint2_radial" cx="0" cy="0" r="1" gradientUnits="userSpaceOnUse" gradientTransform="translate(40.0001 54.8747) scale(16.7888)">
<stop offset="0.00132565" stop-color="#7A4400"/>
<stop offset="1" stop-color="#643800"/>
</radialGradient>
<linearGradient id="paint3_linear" x1="26.2727" y1="29.3305" x2="25.4066" y2="26.238" gradientUnits="userSpaceOnUse">
<stop offset="0.00132565" stop-color="#3C2200"/>
<stop offset="1" stop-color="#7A4400"/>
</linearGradient>
<radialGradient id="paint4_radial" cx="0" cy="0" r="1" gradientUnits="userSpaceOnUse" gradientTransform="translate(28.2874 37.7819) rotate(175.474) scale(4.70179 3.33396)">
<stop offset="0.00132565" stop-color="#7A4400"/>
<stop offset="1" stop-color="#643800"/>
</radialGradient>
<radialGradient id="paint5_radial" cx="0" cy="0" r="1" gradientUnits="userSpaceOnUse" gradientTransform="translate(40.2515 60.781) scale(13.9142 4.20626)">
<stop offset="0.2479" stop-color="#FF0000"/>
<stop offset="1" stop-color="#C20000"/>
</radialGradient>
<linearGradient id="paint6_linear" x1="61.3917" y1="51.4236" x2="18.8685" y2="51.4236" gradientUnits="userSpaceOnUse">
<stop offset="0.00132565" stop-color="#3C2200"/>
<stop offset="0.5" stop-color="#512D00"/>
<stop offset="1" stop-color="#3C2200"/>
</linearGradient>
<radialGradient id="paint7_radial" cx="0" cy="0" r="1" gradientUnits="userSpaceOnUse" gradientTransform="translate(40 50.1914) scale(36.8182)">
<stop offset="0.00132565" stop-color="white"/>
<stop offset="1" stop-color="#A9BCBE"/>
</radialGradient>
<linearGradient id="paint8_linear" x1="28.7457" y1="31.864" x2="28.3724" y2="36.9815" gradientUnits="userSpaceOnUse">
<stop offset="0.00132565" stop-color="#3C2200"/>
<stop offset="1" stop-color="#512D00"/>
</linearGradient>
<linearGradient id="paint9_linear" x1="53.7295" y1="29.3308" x2="54.5956" y2="26.2383" gradientUnits="userSpaceOnUse">
<stop offset="0.00132565" stop-color="#3C2200"/>
<stop offset="1" stop-color="#7A4400"/>
</linearGradient>
<radialGradient id="paint10_radial" cx="0" cy="0" r="1" gradientUnits="userSpaceOnUse" gradientTransform="translate(51.7107 37.7818) rotate(4.52558) scale(4.70178 3.33396)">
<stop offset="0.00132565" stop-color="#7A4400"/>
<stop offset="1" stop-color="#643800"/>
</radialGradient>
<linearGradient id="paint11_linear" x1="51.2527" y1="31.864" x2="51.6259" y2="36.9815" gradientUnits="userSpaceOnUse">
<stop offset="0.00132565" stop-color="#3C2200"/>
<stop offset="1" stop-color="#512D00"/>
</linearGradient>
</defs>
</svg>
