<svg width="67" height="68" viewBox="0 0 67 68" fill="none" xmlns="http://www.w3.org/2000/svg">
<path d="M36.1486 29.451C33.4292 26.112 37.0092 21.2067 35.8 10.8798C34.5909 0.552882 28.838 -0.165711 27.1986 0.0236153C23.9886 0.397966 23.0678 3.10879 23.9026 8.0528C24.449 11.3101 26.6263 20.3203 22.5386 25.4967C18.7262 30.3202 15.2538 38.5344 9.08777 39.0034" fill="url(#paint0_linear)"/>
<path d="M14.0446 38.8183C16.1143 35.6041 17.9043 32.7556 23.5066 28.1127C29.109 23.4699 27.0651 12.7385 26.1486 9.19297C25.2321 5.6474 24.9395 0.294611 27.1985 0.027832C23.9885 0.402183 23.0677 3.113 23.9025 8.05701C24.4489 11.3143 26.6262 20.3245 22.5385 25.5009C18.7261 30.3244 14.1952 39.0076 9.08765 39.0076" fill="url(#paint1_linear)"/>
<path opacity="0.16" d="M32.5944 14.5327C30.3181 15.3115 28.0462 12.3081 26.5359 8.66784C25.301 5.69025 26.0282 1.63265 28.27 0.918368C30.5118 0.208393 33.0074 1.88651 34.6598 6.31418C36.0367 10.0104 34.8233 13.7711 32.5944 14.5327Z" fill="url(#paint2_radial)"/>
<path d="M36.0151 23.096C42.7319 21.4695 44.7027 22.5065 46.114 22.7001C49.0012 23.096 61.471 25.9144 60.4942 32.1579C59.5777 38.0227 54.1604 35.7422 48.2827 33.509" fill="url(#paint3_linear)"/>
<path d="M49.1949 33.8574C55.0468 36.1552 60.916 37.2954 59.737 42.8849C58.6182 48.1903 54.7413 46.8951 50.0598 45.2687C48.046 44.5673 45.7655 43.9348 45.7655 43.9348" fill="url(#paint4_linear)"/>
<path d="M45.4642 54.3221C52.9555 57.0458 57.366 57.446 58.2051 53.1302C59.2205 47.9022 54.1862 46.7963 47.4135 44.3867" fill="url(#paint5_linear)"/>
<path d="M32.0608 23.4743C24.3156 25.0449 15.7615 33.1688 14.2425 33.1688C12.7236 33.1688 7.52575 32.192 4.98275 32.192C3.19705 32.192 0 36.9036 0 43.6721C0 50.4405 2.59894 61.0041 7.85276 61.0041C13.1066 61.0041 14.0274 58.3492 17.7623 59.27C21.4972 60.1908 27.9988 61.2752 31.5186 61.2752C35.0384 61.2752 51.1785 65.5006 59.0312 67.6133C66.884 69.726 68.7256 62.4671 64.6078 61.06C60.4899 59.653 51.7809 55.6943 45.8214 54.4508L47.4952 49.1453L48.089 39.6661L49.6294 33.4742L36.0108 23.0957L32.0608 23.4743Z" fill="url(#paint6_linear)"/>
<path d="M66.6473 64.6831C64.4658 70.6469 41.7508 60.2426 37.0263 59.7951C32.2587 59.3433 23.8853 58.4784 20.7442 57.0154C17.6031 55.5524 17.0867 53.685 16.3036 54.4681C15.6152 55.1566 9.21246 58.8441 3.55847 58.104C4.71164 59.8596 6.1402 60.9999 7.85705 60.9999C13.1109 60.9999 14.0317 58.345 17.7666 59.2658C21.5015 60.1866 28.0031 61.271 31.5229 61.271C35.0427 61.271 51.1828 65.4964 59.0355 67.6091C63.6697 68.8612 66.1955 66.8389 66.6473 64.6831Z" fill="url(#paint7_linear)"/>
<path d="M59.737 42.8808C59.8962 42.1277 59.9177 41.4608 59.836 40.8584C59.6509 43.6639 57.2284 46.7232 53.6699 45.3205C50.0942 43.9135 46.5745 43.9307 45.7612 43.9307C45.7612 43.9307 48.0418 44.5675 50.0598 45.2645C54.7414 46.891 58.6183 48.1905 59.737 42.8808Z" fill="url(#paint8_linear)"/>
<path d="M58.3256 52.132C58.5365 47.7473 53.7345 46.6329 47.4135 44.3868C47.4135 44.3868 46.9961 44.1974 45.7655 43.9307C45.7655 43.9307 48.8593 45.9143 51.6691 46.6931C56.5399 48.0399 58.3041 51.1337 58.3256 52.132Z" fill="url(#paint9_linear)"/>
<path d="M45.7655 43.9302C45.7655 43.9302 48.046 44.567 50.0598 45.2641C54.7413 46.8906 58.6182 48.19 59.7369 42.8803C60.9159 37.2909 55.0468 36.1549 49.1949 33.8529L48.2827 33.5086C54.1604 35.7418 59.5777 38.0224 60.4942 32.1575C61.471 25.9097 49.0012 23.0956 46.114 22.6998C44.7027 22.5062 42.7319 21.4735 36.0151 23.0957" fill="url(#paint10_linear)"/>
<path d="M43.0547 41.9079C41.51 45.2771 47.4092 44.3864 58.2482 51.03C57.663 47.6695 53.4763 46.512 48.0245 44.6015C48.67 44.8038 49.3756 45.0275 50.0598 45.2642C54.3541 46.7573 57.9599 47.9535 59.3927 44.0551C51.9832 44.4854 44.6812 38.3709 43.0547 41.9079Z" fill="url(#paint11_linear)"/>
<path d="M50.0985 33.5685C46.1786 32.3938 44.849 32.2949 45.2749 32.8112C46.7035 33.2114 48.4074 33.6976 50.1286 34.214C49.9737 34.1537 49.8145 34.0935 49.6596 34.0332C49.8274 34.0978 49.9952 34.1623 50.1673 34.2226C51.6862 34.6787 53.2181 35.1606 54.5993 35.6296C57.6457 36.2922 59.9306 35.7802 60.4942 32.1572C60.6793 30.9739 60.3824 29.8896 59.7628 28.8999C60.9073 34.2054 57.6027 35.8189 50.0985 33.5685Z" fill="url(#paint12_linear)"/>
<path d="M50.1631 34.2227C51.7379 34.8122 53.2439 35.3371 54.5951 35.6297C53.2181 35.1607 51.682 34.6831 50.1631 34.2227Z" fill="url(#paint13_linear)"/>
<path d="M50.4212 35.518C56.2688 38.0094 59.07 38.1858 59.8359 40.8579C59.354 37.2091 54.8618 35.9914 50.1243 34.2143C48.4031 33.6979 46.7035 33.2074 45.2706 32.8115C45.6708 33.2934 47.5985 34.3132 50.4212 35.518Z" fill="url(#paint14_linear)"/>
<path d="M59.7369 42.8805C58.8333 46.0948 53.4246 45.7936 46.2517 43.0441C42.1554 41.4735 45.7655 43.9304 45.7655 43.9304C45.7655 43.9304 48.046 44.5673 50.064 45.2643C54.7413 46.8908 58.6182 48.1903 59.7369 42.8805Z" fill="url(#paint15_linear)"/>
<path d="M27.7321 26.1464C32.4996 24.2703 40.0985 23.5905 45.1157 24.0724C50.3738 24.5758 56.6689 26.9381 60.2791 29.9458C58.5278 25.0621 48.6398 23.044 46.114 22.6998C44.7026 22.5062 42.7319 21.4735 36.0151 23.0957L36.028 23.1215L33.6184 23.3366C31.2819 23.8099 27.7321 26.1464 27.7321 26.1464Z" fill="url(#paint16_linear)"/>
<path d="M24.9137 26.3613C19.7201 29.2787 15.2924 33.1728 14.2425 33.1728C12.7279 33.1728 7.52574 32.196 4.98274 32.196C3.97156 32.196 2.51288 33.7064 1.43286 36.2407C6.98788 31.9465 6.78565 36.6926 14.7933 36.0514C19.4748 35.6771 22.8827 31.5463 24.9137 26.3613Z" fill="url(#paint17_linear)"/>
<path d="M17.7667 59.2745C21.5016 60.1953 28.0032 61.2797 31.523 61.2797C35.0427 61.2797 51.1828 65.5051 59.0356 67.6178C63.6741 68.8656 66.1999 66.8433 66.6517 64.6876C64.3712 66.9681 48.1493 62.4199 34.5737 57.0026C20.9981 51.5896 20.5635 48.4614 17.8226 48.4614C15.3786 48.4614 6.51463 52.7557 0.318481 48.0698C1.14894 54.2445 3.6489 61.0129 7.85712 61.0129C13.1066 61.0043 14.0275 58.3537 17.7667 59.2745Z" fill="url(#paint18_linear)"/>
<path d="M59.5347 34.649H59.5218C54.4315 34.322 44.6166 27.9924 43.059 31.8349C41.5788 35.4795 54.1303 37.6094 59.8703 41.3228C59.7111 37.1877 54.7585 35.9915 49.6596 34.0337C53.9022 35.643 57.7275 36.9295 59.5347 34.649Z" fill="url(#paint19_linear)"/>
<path d="M64.6121 61.0604C61.712 60.0665 56.527 57.8117 51.6346 56.1293C55.3867 56.8221 57.6328 56.0777 58.2051 53.1259C58.2567 52.8505 58.2868 52.5924 58.3084 52.3385C55.5029 53.6207 49.0572 54.5631 44.8188 52.5407C39.7285 50.1139 39.4832 53.6035 44.8575 55.8152C48.9496 57.5019 61.4279 62.4373 66.4451 62.6783C66.1138 61.9683 65.5157 61.3702 64.6121 61.0604Z" fill="url(#paint20_linear)"/>
<path d="M44.2766 53.3621C45.0081 54.2872 45.7267 54.4076 45.7826 54.4335C52.9512 57.0066 57.224 57.3594 58.1491 53.3276C55.9546 54.9369 53.588 55.8233 44.2766 53.3621Z" fill="url(#paint21_linear)"/>
<path d="M51.6088 56.1205C49.9737 55.8193 48.0503 55.2427 45.8515 54.4552C45.8429 54.4552 45.8343 54.4509 45.8257 54.4509L45.8171 54.4466C45.8042 54.4423 45.7956 54.438 45.7827 54.4337C45.7268 54.4079 45.0039 54.2874 44.2767 53.3623C44.2767 53.3623 43.3559 54.2874 46.0925 55.3029C73.063 65.3028 64.6121 61.0602 64.6121 61.0602C61.7034 60.0662 56.5098 57.8029 51.6088 56.1205Z" fill="url(#paint22_linear)"/>
<path opacity="0.16" d="M58.2825 31.1334C57.8824 33.031 54.9177 33.3752 51.8325 32.932C49.311 32.5706 46.8541 30.3976 47.2887 28.5517C47.7233 26.7058 48.4031 25.1266 53.558 26.3314C56.5915 27.0457 58.6784 29.2746 58.2825 31.1334Z" fill="url(#paint23_radial)"/>
<path opacity="0.16" d="M57.0089 42.6953C56.3463 44.5197 53.3601 44.4466 50.3696 43.5731C47.9212 42.8588 45.7956 40.3675 46.4841 38.599C47.1725 36.8305 48.0675 35.3632 53.0029 37.278C55.9074 38.4097 57.6587 40.9139 57.0089 42.6953Z" fill="url(#paint24_radial)"/>
<path opacity="0.16" d="M55.9331 52.3638C55.3781 54.2227 52.3961 54.326 49.354 53.6289C46.8712 53.0609 44.5993 50.6986 45.1802 48.8914C45.7611 47.0842 46.5701 45.5696 51.6087 47.1918C54.5777 48.147 56.4753 50.5437 55.9331 52.3638Z" fill="url(#paint25_radial)"/>
<path opacity="0.16" d="M62.5381 64.6612C62.1164 66.2232 56.9917 65.4272 51.5399 63.8782C47.0822 62.6088 42.4738 59.7388 42.9557 58.237C43.4376 56.7353 44.3971 55.5693 53.5709 58.577C58.9796 60.3498 62.9512 63.138 62.5381 64.6612Z" fill="url(#paint26_radial)"/>
<path d="M45.2749 32.8071C46.7938 33.0868 48.2783 33.5085 49.7542 33.956C51.2172 34.4422 52.6845 34.9457 54.0485 35.6685C51.1354 34.6703 48.188 33.8269 45.2749 32.8071Z" fill="#975500"/>
<path d="M44.4445 42.5186C45.0942 42.9531 45.8042 43.2802 46.5012 43.6201C47.2069 43.9471 47.9126 44.2784 48.6355 44.571L52.9555 46.3825C52.1982 46.176 51.4495 45.9522 50.7094 45.6941C49.9693 45.4359 49.2422 45.1476 48.515 44.8464C47.0993 44.2053 45.6407 43.5555 44.4445 42.5186Z" fill="#975500"/>
<path d="M44.2766 53.3623C44.9436 53.685 45.6449 53.926 46.3334 54.1885L48.4203 54.9329C49.8058 55.4406 51.2086 55.9053 52.5855 56.4647C51.1354 56.1463 49.7198 55.6988 48.317 55.2212C46.9315 54.6919 45.5158 54.1928 44.2766 53.3623Z" fill="#975500"/>
<path d="M36.028 23.1211C35.232 23.2545 34.4317 23.362 33.6313 23.4567H33.6442C32.6029 23.7106 31.6133 24.1753 30.6322 24.6357C29.6598 25.1219 28.6916 25.6211 27.7278 26.146C28.6056 25.492 29.5307 24.8939 30.5074 24.3904C31.4799 23.8784 32.4997 23.4395 33.5926 23.2157H33.6055C34.4144 23.1641 35.2191 23.134 36.028 23.1211Z" fill="#975500"/>
<defs>
<linearGradient id="paint0_linear" x1="41.4237" y1="10.3084" x2="19.2143" y2="20.123" gradientUnits="userSpaceOnUse">
<stop offset="0.00132565" stop-color="#BE8D68"/>
<stop offset="1" stop-color="#CD9870"/>
</linearGradient>
<linearGradient id="paint1_linear" x1="33.484" y1="22.4683" x2="-12.7561" y2="13.5643" gradientUnits="userSpaceOnUse">
<stop stop-color="#8D562E" stop-opacity="0"/>
<stop offset="1" stop-color="#8D562E"/>
</linearGradient>
<radialGradient id="paint2_radial" cx="0" cy="0" r="1" gradientUnits="userSpaceOnUse" gradientTransform="translate(30.6187 7.68084) rotate(72.3813) scale(8.72563 5.12214)">
<stop stop-color="#F8DBBA"/>
<stop offset="1" stop-color="#CD9870" stop-opacity="0"/>
</radialGradient>
<linearGradient id="paint3_linear" x1="67.2293" y1="30.7476" x2="48.9859" y2="28.9777" gradientUnits="userSpaceOnUse">
<stop offset="0.00132565" stop-color="#FFCB4B"/>
<stop offset="1" stop-color="#FFD748"/>
</linearGradient>
<linearGradient id="paint4_linear" x1="66.1751" y1="41.6147" x2="48.0918" y2="39.8603" gradientUnits="userSpaceOnUse">
<stop offset="0.00132565" stop-color="#FFCB4B"/>
<stop offset="1" stop-color="#FFD748"/>
</linearGradient>
<linearGradient id="paint5_linear" x1="65.2212" y1="51.1423" x2="43.3798" y2="49.9857" gradientUnits="userSpaceOnUse">
<stop offset="0.00132565" stop-color="#BE8D68"/>
<stop offset="1" stop-color="#CD9870"/>
</linearGradient>
<linearGradient id="paint6_linear" x1="-3.54566" y1="98.3491" x2="45.0216" y2="36.4259" gradientUnits="userSpaceOnUse">
<stop offset="0.00132565" stop-color="#BE8D68"/>
<stop offset="1" stop-color="#CD9870"/>
</linearGradient>
<linearGradient id="paint7_linear" x1="35.1028" y1="70.9528" x2="35.1028" y2="35.1066" gradientUnits="userSpaceOnUse">
<stop stop-color="#A46C3F" stop-opacity="0"/>
<stop offset="1" stop-color="#804B24"/>
</linearGradient>
<linearGradient id="paint8_linear" x1="52.3309" y1="37.5493" x2="53.6848" y2="51.4673" gradientUnits="userSpaceOnUse">
<stop stop-color="#FFBC47" stop-opacity="0"/>
<stop offset="1" stop-color="#C86F34"/>
</linearGradient>
<linearGradient id="paint9_linear" x1="57.9251" y1="45.0244" x2="38.94" y2="54.7302" gradientUnits="userSpaceOnUse">
<stop stop-color="#D2A374" stop-opacity="0"/>
<stop offset="1" stop-color="#B88653"/>
</linearGradient>
<linearGradient id="paint10_linear" x1="71.9582" y1="36.6474" x2="38.5831" y2="33.4095" gradientUnits="userSpaceOnUse">
<stop offset="0.00132565" stop-color="#BE8D68"/>
<stop offset="1" stop-color="#CD9870"/>
</linearGradient>
<linearGradient id="paint11_linear" x1="34.3134" y1="43.1465" x2="122.443" y2="57.1096" gradientUnits="userSpaceOnUse">
<stop stop-color="#A46C3F" stop-opacity="0"/>
<stop offset="1" stop-color="#804B24"/>
</linearGradient>
<linearGradient id="paint12_linear" x1="59.7332" y1="21.4152" x2="47.3135" y2="42.0667" gradientUnits="userSpaceOnUse">
<stop stop-color="#A46C3F" stop-opacity="0"/>
<stop offset="1" stop-color="#804B24"/>
</linearGradient>
<linearGradient id="paint13_linear" x1="56.685" y1="35.3452" x2="50.7463" y2="34.7691" gradientUnits="userSpaceOnUse">
<stop stop-color="#FFBC47" stop-opacity="0"/>
<stop offset="1" stop-color="#C86F34"/>
</linearGradient>
<linearGradient id="paint14_linear" x1="52.9635" y1="27.7576" x2="52.0971" y2="47.0371" gradientUnits="userSpaceOnUse">
<stop stop-color="#D2A374" stop-opacity="0"/>
<stop offset="1" stop-color="#B88653"/>
</linearGradient>
<linearGradient id="paint15_linear" x1="74.8318" y1="53.1682" x2="38.7858" y2="37.2321" gradientUnits="userSpaceOnUse">
<stop stop-color="#A46C3F" stop-opacity="0"/>
<stop offset="1" stop-color="#804B24"/>
</linearGradient>
<linearGradient id="paint16_linear" x1="45.3871" y1="22.1938" x2="38.5067" y2="51.3341" gradientUnits="userSpaceOnUse">
<stop stop-color="#8D562E" stop-opacity="0"/>
<stop offset="1" stop-color="#8D562E"/>
</linearGradient>
<linearGradient id="paint17_linear" x1="-1.3689" y1="14.2843" x2="29.8963" y2="50.8615" gradientUnits="userSpaceOnUse">
<stop stop-color="#B37E53"/>
<stop offset="1" stop-color="#CD9870"/>
</linearGradient>
<linearGradient id="paint18_linear" x1="79.6981" y1="83.4569" x2="-277.875" y2="-88.3977" gradientUnits="userSpaceOnUse">
<stop stop-color="#A46C3F" stop-opacity="0"/>
<stop offset="1" stop-color="#804B24"/>
</linearGradient>
<linearGradient id="paint19_linear" x1="35.8775" y1="33.2749" x2="124.007" y2="47.2379" gradientUnits="userSpaceOnUse">
<stop stop-color="#A46C3F" stop-opacity="0"/>
<stop offset="1" stop-color="#804B24"/>
</linearGradient>
<linearGradient id="paint20_linear" x1="68.8299" y1="59.618" x2="-136.367" y2="0.426682" gradientUnits="userSpaceOnUse">
<stop stop-color="#A46C3F" stop-opacity="0"/>
<stop offset="1" stop-color="#804B24"/>
</linearGradient>
<linearGradient id="paint21_linear" x1="70.8239" y1="62.2332" x2="34.7779" y2="46.2971" gradientUnits="userSpaceOnUse">
<stop stop-color="#A46C3F" stop-opacity="0"/>
<stop offset="1" stop-color="#804B24"/>
</linearGradient>
<linearGradient id="paint22_linear" x1="68.1212" y1="49.4031" x2="21.78" y2="78.6446" gradientUnits="userSpaceOnUse">
<stop stop-color="#A46C3F" stop-opacity="0"/>
<stop offset="1" stop-color="#804B24"/>
</linearGradient>
<radialGradient id="paint23_radial" cx="0" cy="0" r="1" gradientUnits="userSpaceOnUse" gradientTransform="translate(52.8079 29.6807) rotate(13.2026) scale(5.79764 3.47138)">
<stop stop-color="#F8DBBA"/>
<stop offset="1" stop-color="#CD9870" stop-opacity="0"/>
</radialGradient>
<radialGradient id="paint24_radial" cx="0" cy="0" r="1" gradientUnits="userSpaceOnUse" gradientTransform="translate(51.8314 40.4724) rotate(21.2588) scale(5.79807 3.47088)">
<stop stop-color="#F8DBBA"/>
<stop offset="1" stop-color="#CD9870" stop-opacity="0"/>
</radialGradient>
<radialGradient id="paint25_radial" cx="0" cy="0" r="1" gradientUnits="userSpaceOnUse" gradientTransform="translate(50.6056 50.4689) rotate(17.8957) scale(5.79771 3.47093)">
<stop stop-color="#F8DBBA"/>
<stop offset="1" stop-color="#CD9870" stop-opacity="0"/>
</radialGradient>
<radialGradient id="paint26_radial" cx="0" cy="0" r="1" gradientUnits="userSpaceOnUse" gradientTransform="translate(52.7765 61.2908) rotate(18.1638) scale(10.5791 2.88717)">
<stop stop-color="#F8DBBA"/>
<stop offset="1" stop-color="#CD9870" stop-opacity="0"/>
</radialGradient>
</defs>
</svg>
