<svg width="24" height="24" viewBox="0 0 24 24" fill="none" xmlns="http://www.w3.org/2000/svg">
<path d="M3.46408 15.9263C3.37256 16.2487 2.74338 16.5597 2.70906 16.8595C2.58322 18.019 7.38215 20.434 11.7692 20.434C16.1563 20.434 20.9495 18.0359 20.8351 16.8991C20.8066 16.588 20.1717 16.2656 20.0744 15.9319L3.46408 15.9263Z" fill="url(#paint0_linear)"/>
<path d="M3.61837 17.0797C4.32191 17.3399 5.92346 18.3523 11.7634 18.3523C17.6033 18.3523 19.2049 17.3342 19.9084 17.0797C21.4356 16.5197 21.161 13.7257 19.9084 13.952C19.0276 14.1103 14.3545 15.0549 11.7691 15.0549C9.18375 15.0549 3.77853 13.952 3.77853 13.952C2.29138 13.8898 2.07974 16.4575 3.62981 17.0797H3.61837Z" fill="url(#paint1_radial)"/>
<path d="M3.62975 13.9468C3.62975 13.9468 5.6374 14.3427 7.79949 14.6651C10.2476 15.7114 10.6365 17.527 10.6365 17.527C7.14171 15.3721 5.13978 15.423 4.78515 15.3042C3.72126 14.9479 2.15975 16.2827 5.51728 17.3686C7.36479 17.9625 9.92154 18.0586 11.769 18.0586L11.7633 18.3471C5.92339 18.3471 4.32184 17.3347 3.61831 17.0745H3.62975C2.93193 16.7917 2.56014 16.1187 2.50294 15.4682C2.53726 14.6651 2.92049 13.9524 3.62975 13.9468Z" fill="url(#paint2_linear)"/>
<path d="M2.98352 16.6051C3.81861 16.9218 5.70043 17.9682 11.7177 17.9682C18.0724 17.9682 19.8112 16.8144 20.5834 16.5542H20.5891C20.4232 16.7861 20.2002 16.9671 19.9085 17.0745C19.2049 17.3347 17.6034 18.3471 11.7634 18.3471C5.92351 18.3471 4.32196 17.3347 3.61842 17.0745H3.62986C3.36103 16.9727 3.14939 16.8087 2.98352 16.6051Z" fill="url(#paint3_linear)"/>
<path d="M11.7691 18.0584C13.6166 18.0584 16.1962 18.0188 18.0208 17.3683C20.6977 16.4181 19.4794 14.9476 19.1076 14.891C18.7358 14.8345 17.9065 15.0324 16.6481 15.6829C15.3897 16.3333 14.9607 15.7564 13.731 15.9826C12.5012 16.2089 11.7863 16.9159 10.9226 17.5097L12.2381 15.0381C12.2782 15.0381 12.3182 15.0324 12.3582 15.0324C12.3582 15.0324 12.3582 15.0324 12.364 15.0324C12.404 15.0324 12.444 15.0268 12.4841 15.0268H12.4898C12.5298 15.0268 12.5699 15.0211 12.6156 15.0211H12.6213C12.6614 15.0211 12.7071 15.0155 12.7472 15.0155C15.0122 14.8628 18.078 14.2802 19.3993 14.037C19.405 14.037 19.4108 14.037 19.4165 14.037C19.4394 14.0313 19.4622 14.0313 19.4794 14.0257C19.4851 14.0257 19.4908 14.0257 19.4908 14.0257C19.508 14.02 19.5309 14.02 19.548 14.0144C19.5538 14.0144 19.5595 14.0144 19.5652 14.0087C19.5824 14.0031 19.5995 14.0031 19.6167 13.9974C19.6224 13.9974 19.6338 13.9974 19.6396 13.9918C19.651 13.9918 19.6682 13.9861 19.6796 13.9861C19.6853 13.9861 19.6968 13.9804 19.7025 13.9804C19.7139 13.9804 19.7254 13.9748 19.7368 13.9748C19.7425 13.9748 19.754 13.9691 19.7597 13.9691C19.7711 13.9691 19.7768 13.9635 19.7883 13.9635C19.794 13.9635 19.8054 13.9578 19.8112 13.9578C19.8226 13.9578 19.834 13.9522 19.8455 13.9522C19.8512 13.9522 19.8569 13.9522 19.8626 13.9522C19.8798 13.9522 19.8912 13.9465 19.9084 13.9465C20.6062 13.8334 20.8808 14.5404 20.9265 15.3718C20.8865 16.0731 20.6234 16.8197 19.9084 17.0799C19.2048 17.3401 17.6033 18.3525 11.7634 18.3525" fill="url(#paint4_linear)"/>
<path d="M2.60602 14.9817C2.73185 14.3935 3.13796 13.9241 3.77858 13.9467C3.77858 13.9467 9.1838 15.0496 11.7692 15.0496C14.3545 15.0496 19.0276 14.105 19.9085 13.9467C20.3146 13.8732 20.6177 14.1164 20.7893 14.501C20.0515 14.303 19.3708 14.4897 18.6787 14.5971C17.7635 14.7385 17.5061 15.3041 16.5338 15.3889C15.5614 15.4738 13.8455 15.5869 13.3307 15.8697C12.8159 16.1525 11.3745 16.8255 11.1057 17.3233L9.73291 16.8255C9.73291 16.8255 7.47358 15.5303 6.81008 15.4172C6.14658 15.3041 4.20185 14.6254 3.28668 14.8799C3.01784 14.9591 2.78905 14.9817 2.60602 14.9817Z" fill="url(#paint5_radial)"/>
<path d="M2.76606 16.9046C4.16741 17.9227 6.94152 18.6806 11.769 18.6806C16.5966 18.6806 19.365 17.9227 20.772 16.9046C20.7892 16.8877 20.8121 16.8763 20.8292 16.8594C20.9551 18.0188 20.6462 19.0143 19.9484 19.5177C18.6729 20.4452 16.1561 21.1352 11.769 21.1352C7.38195 21.1352 4.86523 20.4452 3.58971 19.5177C2.89189 19.0086 2.58302 18.0188 2.70886 16.8594C2.72602 16.8707 2.7489 16.8877 2.76606 16.9046Z" fill="url(#paint6_radial)"/>
<path d="M20.0399 12.9232C19.7082 12.8553 19.0218 13.0024 16.9913 13.3983C14.9608 13.7942 4.16746 13.3417 3.41244 13.0985C2.86334 12.9232 2.2456 14.1448 2.65743 14.5238C2.88622 14.7274 3.03494 14.3937 3.95011 14.5747C6.49543 15.0724 7.97114 15.3439 10.6366 17.5327C10.7224 17.6006 10.8482 17.5949 10.9226 17.5158C11.3401 17.0916 12.6442 15.819 13.5308 15.5645C14.6061 15.2534 16.6939 15.474 17.7635 14.7444C18.8273 14.0148 20.8236 14.6991 20.652 13.8847C20.509 13.206 20.3717 12.991 20.0399 12.9232Z" fill="#FFCB4B"/>
<path d="M5.43707 13.9469C6.5124 14.2183 9.86993 14.8235 10.9681 14.6538C12.0663 14.4842 15.401 14.3258 16.0702 14.3032C16.7394 14.2806 17.3572 14.6821 15.9558 14.6256C14.5545 14.569 13.1474 14.7104 12.604 15.0215C12.0606 15.3326 11.4086 16.7748 11.2656 16.1809C11.1226 15.5871 10.8366 15.4457 9.9786 15.6719C9.12063 15.8981 8.97764 15.078 8.00527 15.0215C7.0329 14.9649 6.23213 14.4559 5.00237 14.2014C3.77261 13.9469 3.57813 13.4774 5.43707 13.9469Z" fill="url(#paint7_linear)"/>
<path d="M2.78884 13.4204C2.96043 13.1828 3.19494 13.0301 3.4123 13.098C4.16731 13.3355 14.9606 13.7936 16.9911 13.3977C19.0217 13.0018 19.7138 12.8491 20.0398 12.9226C20.2171 12.9622 20.3429 13.0414 20.4402 13.2167C20.1599 13.409 19.6623 13.4826 19.485 13.409C18.7814 13.1149 18.6041 13.4543 18.3467 13.6692C18.0893 13.8841 18.0207 13.4317 17.6947 13.6013C17.3686 13.771 16.9511 14.2801 16.7509 14.2801C16.5507 14.2801 16.0073 14.2914 15.8357 14.3366C15.6641 14.3819 15.0636 14.1782 14.892 14.1217C14.7204 14.0651 14.5774 14.1104 14.5774 14.1104C14.5774 14.1104 14.1484 14.3253 14.1084 14.495C14.0683 14.6647 13.7366 14.3705 13.6393 14.3366C13.5421 14.3027 13.136 14.6477 12.8672 14.6477C12.5983 14.6477 12.4954 14.5346 12.0664 14.15C11.9119 14.0142 11.0654 14.8343 10.9796 14.9588C10.8938 15.0832 10.5106 14.6873 10.2246 14.5006C9.93861 14.314 9.76701 14.5176 9.50962 14.7156C9.25223 14.9135 9.32659 14.8965 9.05203 14.6307C8.77748 14.3649 8.21694 13.9859 8.13686 14.0595C8.05679 14.133 8.07967 14.5798 7.76508 14.331C7.542 14.1556 7.0215 14.1896 6.80415 14.2744C6.5868 14.3592 6.37516 14.2631 6.34656 14.2348C6.31796 14.2065 5.76886 13.8898 5.317 13.607C5.2026 13.5391 3.92708 13.7371 3.65825 13.8106C3.38942 13.8841 3.07483 13.8106 3.07483 13.8106C3.07483 13.8106 2.93183 13.5448 2.78884 13.4204Z" fill="url(#paint8_radial)"/>
<path d="M20.1372 11.9106C20.4232 12.0803 21.0924 12.2613 21.121 12.3348C21.1496 12.4084 20.875 12.5611 20.5376 12.8439C20.2516 13.0814 19.8398 13.2285 19.6224 13.2285C19.4051 13.2285 18.6043 13.1606 18.3469 13.3699C18.0895 13.5791 18.0151 13.3416 17.6891 13.5113C17.3631 13.6809 16.9455 13.9751 16.7453 13.9751C16.5451 13.9751 16.0018 13.9864 15.8302 14.0316C15.6586 14.0769 15.058 13.8733 14.8864 13.8167C14.7148 13.7601 14.5718 13.8054 14.5718 13.8054C14.5718 13.8054 14.1428 14.0203 14.1028 14.19C14.0627 14.3597 13.731 14.0656 13.6338 14.0316C13.5365 13.9977 13.1304 14.3427 12.8616 14.3427C12.5928 14.3427 12.2324 14.2579 12.0608 14.1447C11.8892 14.0316 11.0598 14.5293 10.974 14.6538C10.8882 14.7782 10.5451 14.5859 10.2591 14.3993C9.97308 14.2126 9.75573 14.2183 9.50405 14.4106C9.25238 14.6029 9.32102 14.5916 9.04647 14.3257C8.77192 14.0599 8.21138 13.8789 8.1313 13.9581C8.05122 14.0373 7.95971 14.2296 7.75951 14.026C7.55932 13.8223 7.01594 13.8846 6.79858 13.9694C6.58123 14.0542 6.3696 13.9581 6.341 13.9298C6.3124 13.9015 5.83194 13.7545 5.38007 13.4773C5.26567 13.4095 3.92152 13.4321 3.65269 13.5056C3.38385 13.5791 3.06926 13.5056 3.06926 13.5056C3.06926 13.5056 2.88051 13.1323 2.72036 13.0645C2.55448 12.9966 2.40005 12.8099 2.40005 12.7534C2.40005 12.6968 2.51444 12.6685 2.60024 12.5158C2.68604 12.3631 2.89195 12.2274 3.01207 12.1086C3.13218 11.9898 7.80527 12.6289 7.80527 12.6289L15.1381 12.6742L18.6386 12.0803L20.1372 11.9106Z" fill="url(#paint9_linear)"/>
<path d="M18.2496 11.4126C18.8616 11.8481 19.7196 12.1479 20.12 12.3911C20.5204 12.6343 19.874 12.6682 19.5022 12.6965C19.1305 12.7248 19.3878 13.0924 18.8902 12.9963C18.3926 12.9001 18.3754 12.6286 17.8721 12.7813C17.3688 12.9341 18.1409 11.3787 18.1981 11.3956" fill="url(#paint10_linear)"/>
<path d="M8.8692 13.3528C9.54413 13.5847 9.52698 13.777 9.81297 13.9467C10.099 14.1164 10.1676 13.6356 10.8826 13.76C11.5975 13.8845 11.3173 13.4546 12.3125 13.8166C13.3078 14.1786 13.1591 13.9071 12.9531 13.7714C12.7472 13.6356 13.2677 13.3924 12.8273 13.2453C12.3869 13.0926 10.2362 12.8834 10.1848 12.906C10.1333 12.9286 8.8692 13.3528 8.8692 13.3528Z" fill="url(#paint11_linear)"/>
<path d="M19.1362 12.0234C18.9589 12.4589 18.856 12.8662 18.7816 13.2338C18.6043 13.2508 18.4441 13.2904 18.3526 13.3695C18.4842 12.9793 18.5585 12.5155 18.5642 12.097L18.6386 12.0857L19.1362 12.0234Z" fill="url(#paint12_linear)"/>
<path d="M2.83477 12.2609C2.89769 12.21 2.96061 12.1591 3.00636 12.1138C3.12648 11.9951 7.79385 12.6342 7.79385 12.6342L15.1267 12.6794L17.0657 12.3514C16.9456 12.8944 16.8655 13.4995 16.5909 13.9803C16.4937 13.9803 16.3736 13.986 16.2535 13.9916C16.3907 13.805 16.5852 13.7371 16.5395 13.3299C16.4823 12.8039 15.9617 12.3457 15.4184 13.2337C15.2411 13.5222 15.0351 13.6805 14.8006 13.805C14.6634 13.7767 14.5604 13.8106 14.5604 13.8106C14.5604 13.8106 14.2858 13.9464 14.1543 14.0878C14.0742 14.1217 13.9884 14.1613 13.9083 14.2065C13.7997 14.15 13.6738 14.0538 13.6166 14.0369C13.6052 14.0312 13.5823 14.0369 13.5594 14.0425C14.0628 13.4939 14.2973 12.8378 13.3535 13.2507C12.1524 13.7767 11.7348 13.3072 10.8196 14.1443C10.6766 14.2744 10.5222 14.3819 10.3563 14.4724C10.3163 14.4497 10.2763 14.4215 10.2419 14.3988C10.179 14.3592 10.1218 14.331 10.0646 14.3083C10.4993 14.0934 11.1342 13.426 10.568 13.4599C9.86442 13.5052 8.0112 13.0923 6.83292 13.7427C6.67277 13.8332 6.50689 13.9011 6.35246 13.952C6.3353 13.9464 6.32386 13.935 6.32386 13.9294C6.29526 13.9011 5.84911 13.7654 5.40869 13.5052C5.42585 13.4939 5.44301 13.4882 5.46017 13.4769C6.3925 13.0358 4.67083 12.7982 3.85862 13.1489C3.21228 13.443 2.45154 12.8095 2.83477 12.2609Z" fill="url(#paint13_linear)"/>
<path d="M3.34943 12.0291C3.76126 12.3345 3.01196 12.5155 2.94905 12.7304C2.88613 12.9454 3.07488 12.6117 3.89282 12.7757C4.71075 12.9397 5.0139 12.7757 5.42573 12.8153C5.83755 12.8549 4.72219 11.6841 4.55059 11.6841C4.379 11.6841 3.34943 12.0291 3.34943 12.0291Z" fill="url(#paint14_linear)"/>
<path d="M5.83757 12.9285C5.84901 12.9342 5.86617 12.9455 5.87761 12.9512C6.33519 13.2509 6.39811 13.6186 6.6841 13.6977C6.98153 13.7826 6.6269 13.5168 6.78134 13.398C6.93577 13.2736 6.33519 12.8154 6.33519 12.8154" fill="url(#paint15_linear)"/>
<path d="M20.3431 12.0575C20.3431 12.0575 18.3468 13.6411 11.7119 13.6411C9.91583 13.6411 8.463 13.528 7.29616 13.3584C7.15316 13.3357 6.87861 13.3584 6.74134 13.3357C6.62122 13.3188 6.6441 13.2565 6.53542 13.2339C4.18458 12.8097 3.24081 12.1876 3.10353 12.0858C3.80135 12.0745 7.79378 12.6231 7.79378 12.6231L15.1266 12.6683L18.6271 12.0745L20.1314 11.9048C20.1886 11.9387 20.2687 11.9783 20.3545 12.0122C20.3545 12.0349 20.3488 12.0518 20.3431 12.0575Z" fill="url(#paint16_radial)"/>
<path d="M3.08638 10.6664C3.08638 10.6664 5.0826 11.8994 11.7176 11.8994C18.3526 11.8994 20.3431 10.6494 20.3431 10.6494H20.3888C20.4346 11.0453 20.4174 11.7919 20.3431 11.9503C20.3431 11.9503 18.3468 13.4095 11.7119 13.4095C5.07688 13.4095 3.08066 11.9672 3.08066 11.9672C3.01203 11.8089 2.99487 11.0623 3.03491 10.6664H3.08638V10.6664Z" fill="url(#paint17_radial)"/>
<path d="M20.3088 10.5587C20.4003 10.6039 20.4003 10.734 20.3088 10.7792C19.6453 11.1186 17.2201 12.1084 11.7176 12.1084C6.21518 12.1084 3.78998 11.1129 3.12648 10.7792C3.03497 10.734 3.03497 10.6039 3.12648 10.5587C3.78998 10.2193 6.21518 9.22952 11.7176 9.22952C17.2201 9.22386 19.6453 10.2193 20.3088 10.5587Z" fill="url(#paint18_radial)"/>
<path d="M2.70896 16.8594C2.72612 16.8763 2.749 16.8877 2.76616 16.9046C2.88628 16.9951 3.02355 17.08 3.16655 17.1648C3.48114 17.606 3.68705 18.2281 4.43635 18.7598C5.72331 19.6647 7.69664 20.4396 11.7691 20.4396C18.816 20.4396 19.7597 18.3073 20.2974 17.21C20.469 17.1139 20.6234 17.0121 20.7664 16.9103C20.7836 16.8933 20.8065 16.882 20.8236 16.865C20.9495 18.0245 20.6406 19.0199 19.9428 19.5233C18.6672 20.4509 16.1505 21.1409 11.7634 21.1409C7.37633 21.1409 4.85961 20.4509 3.5841 19.5233C2.892 19.0086 2.58313 18.0188 2.70896 16.8594Z" fill="url(#paint19_linear)"/>
<path d="M11.7692 2.51611C4.97974 2.51611 2.50878 6.91076 2.50878 9.47289C2.50878 11.6052 8.85778 11.6674 11.7692 11.6674C14.6805 11.6674 21.0295 11.5995 21.0295 9.47289C21.0295 6.91076 18.5586 2.51611 11.7692 2.51611Z" fill="url(#paint20_linear)"/>
<path opacity="0.75" d="M11.5059 2.51611C11.5917 2.51611 11.6775 2.51611 11.7691 2.51611C13.8396 2.51611 15.5041 2.92334 16.8254 3.56246C18.2839 5.42891 17.8321 7.47635 14.2572 6.49222C10.0245 5.3271 9.20086 4.42781 11.5059 2.51611Z" fill="url(#paint21_radial)"/>
<path d="M8.7205 2.85498C5.1971 6.8424 12.467 9.76085 16.2878 9.38756C19.9485 9.03124 19.7712 5.97704 16.3221 3.34139C19.7025 4.73274 21.0295 7.59464 21.0295 9.4724C21.0295 11.6047 14.6805 11.6669 11.7692 11.6669C8.85778 11.6669 2.50878 11.599 2.50878 9.4724C2.50878 7.33446 4.22473 3.9296 8.7205 2.85498Z" fill="url(#paint22_linear)"/>
<path d="M11.7692 11.6727C8.85778 11.6727 2.50878 11.6048 2.50878 9.47822C2.50878 7.66833 3.73282 4.95349 6.83296 3.51123C4.00738 7.17061 7.91973 9.78364 10.4479 10.1117C13.7825 10.5472 20.2745 11.1071 20.7607 7.88891C20.9437 8.4545 21.0295 8.99747 21.0295 9.47822C21.0295 11.6048 14.6805 11.6727 11.7692 11.6727Z" fill="url(#paint23_linear)"/>
<path d="M15.7672 7.53835C15.75 7.52139 15.7157 7.52704 15.71 7.55532C15.6871 7.67975 15.6356 7.9682 15.6699 8.07567C15.71 8.21706 15.8358 8.3019 15.9502 8.27362C16.0646 8.23969 16.1218 8.09829 16.0817 7.95689C16.0531 7.84943 15.8587 7.6345 15.7672 7.53835Z" fill="url(#paint24_radial)"/>
<path d="M14.4915 6.76898C14.503 6.79161 14.5373 6.79161 14.543 6.76898C14.5831 6.6389 14.6631 6.37872 14.6574 6.26561C14.6517 6.10724 14.5831 5.98281 14.4973 5.98847C14.4115 5.99412 14.3428 6.11855 14.3486 6.27692C14.3543 6.38438 14.4458 6.64455 14.4915 6.76898Z" fill="url(#paint25_radial)"/>
<path d="M12.3638 7.52142C12.381 7.54404 12.4153 7.53273 12.4153 7.50445C12.4038 7.34043 12.3695 7.00673 12.3238 6.87664C12.2551 6.69 12.1407 6.56557 12.0549 6.59385C11.9749 6.62213 11.9634 6.7918 12.0263 6.97845C12.0778 7.10853 12.2666 7.38002 12.3638 7.52142Z" fill="url(#paint26_radial)"/>
<path d="M18.9933 6.40744C19.0161 6.39613 19.0161 6.36219 18.9875 6.35653C18.8503 6.31694 18.5643 6.24907 18.4442 6.25473C18.2783 6.26604 18.1467 6.33957 18.1524 6.43006C18.1582 6.5149 18.2954 6.57711 18.4613 6.57146C18.5814 6.56015 18.856 6.45834 18.9933 6.40744Z" fill="url(#paint27_radial)"/>
<path d="M16.728 4.8574C16.7509 4.84043 16.7394 4.8065 16.7166 4.8065C16.5621 4.79519 16.2304 4.77256 16.0988 4.8065C15.9215 4.85174 15.8014 4.96486 15.8243 5.06101C15.8472 5.15716 16.013 5.19675 16.1903 5.15151C16.3219 5.12323 16.5965 4.94224 16.728 4.8574Z" fill="url(#paint28_radial)"/>
<path d="M12.4611 4.64252C12.4897 4.64252 12.5012 4.60859 12.4783 4.59162C12.3582 4.49547 12.1065 4.2862 11.975 4.2353C11.8034 4.17308 11.6375 4.19571 11.6032 4.2862C11.5689 4.3767 11.6775 4.50678 11.8491 4.569C11.975 4.6199 12.3067 4.63687 12.4611 4.64252Z" fill="url(#paint29_radial)"/>
<path d="M14.2458 2.99096C14.2343 2.96834 14.2 2.974 14.1943 2.99662C14.16 3.10974 14.097 3.33598 14.1028 3.43213C14.1142 3.56221 14.1943 3.66402 14.2801 3.65836C14.3659 3.65271 14.4231 3.53959 14.4116 3.40385C14.4059 3.30204 14.2972 3.09277 14.2458 2.99096Z" fill="url(#paint30_radial)"/>
<path d="M12.1637 2.97975C12.1865 2.99106 12.2094 2.96844 12.2037 2.94016C12.1522 2.82139 12.0435 2.58384 11.9692 2.50466C11.8662 2.40285 11.729 2.36891 11.666 2.43113C11.6031 2.49334 11.6317 2.62909 11.7347 2.73655C11.809 2.81573 12.0493 2.92885 12.1637 2.97975Z" fill="url(#paint31_radial)"/>
<path d="M9.65257 2.88924C9.62969 2.87793 9.60681 2.90055 9.61253 2.92317C9.66401 3.05326 9.78413 3.35302 9.86992 3.44352C9.98432 3.56795 10.1445 3.60754 10.2245 3.53401C10.3046 3.46049 10.276 3.30212 10.1616 3.17769C10.0701 3.09285 9.78413 2.95145 9.65257 2.88924Z" fill="url(#paint32_radial)"/>
<path d="M9.45257 5.10052C9.4297 5.08355 9.4011 5.10052 9.40682 5.1288C9.4297 5.2702 9.48689 5.58127 9.55553 5.69439C9.64133 5.83579 9.79004 5.90931 9.88156 5.85276C9.97308 5.7962 9.9788 5.63783 9.88728 5.49078C9.82436 5.37766 9.56697 5.18536 9.45257 5.10052Z" fill="url(#paint33_radial)"/>
<path d="M7.67919 7.73079C7.68491 7.70817 7.65631 7.68554 7.63915 7.69686C7.51903 7.77038 7.24448 7.94006 7.16441 8.04187C7.06145 8.17761 7.05001 8.33598 7.13581 8.39819C7.2216 8.46041 7.37604 8.40385 7.47899 8.27376C7.55907 8.17761 7.64487 7.86653 7.67919 7.73079Z" fill="url(#paint34_radial)"/>
<path d="M7.15325 6.14148C7.17613 6.13017 7.17613 6.09623 7.15325 6.09058C7.0217 6.03967 6.72427 5.9209 6.59271 5.9209C6.42112 5.9209 6.28384 6.00574 6.28384 6.1132C6.28384 6.22066 6.42112 6.3055 6.59271 6.3055C6.71855 6.3055 7.0217 6.19238 7.15325 6.14148Z" fill="url(#paint35_radial)"/>
<path d="M7.23329 4.08832C7.24472 4.0657 7.22185 4.04307 7.19897 4.04873C7.06169 4.09398 6.75854 4.19578 6.65559 4.27497C6.52403 4.38243 6.47827 4.53514 6.54691 4.61998C6.61555 4.70482 6.7757 4.68219 6.90726 4.57473C7.01021 4.48989 7.17037 4.21275 7.23329 4.08832Z" fill="url(#paint36_radial)"/>
<path d="M4.41329 6.89392C4.40185 6.91655 4.41901 6.94483 4.44189 6.93351C4.57916 6.89958 4.89375 6.8204 4.99671 6.74687C5.13398 6.65072 5.1969 6.49801 5.13398 6.41317C5.07106 6.32833 4.90519 6.33398 4.76791 6.43014C4.66496 6.50932 4.48764 6.77515 4.41329 6.89392Z" fill="url(#paint37_radial)"/>
<path d="M10.0303 7.47643C10.0589 7.47643 10.0704 7.44815 10.0532 7.43119C9.95598 7.32938 9.73291 7.10314 9.61279 7.04658C9.45836 6.97871 9.2982 6.99568 9.25245 7.09749C9.20669 7.19929 9.2982 7.32938 9.45264 7.39725C9.56703 7.44815 9.88734 7.46512 10.0303 7.47643Z" fill="url(#paint38_radial)"/>
<path d="M18.1523 6.42419C18.1523 6.40157 18.1581 6.3846 18.1695 6.36763C18.2896 6.4751 18.6271 6.52034 18.9531 6.33936C18.9646 6.34501 18.9817 6.34501 18.9932 6.35067C19.0218 6.35632 19.0218 6.39591 18.9989 6.40157C18.8616 6.45247 18.5928 6.55428 18.4669 6.55993C18.2953 6.5769 18.1523 6.51469 18.1523 6.42419Z" fill="url(#paint39_linear)"/>
<path d="M16.7395 4.82959C16.7395 4.8409 16.7395 4.85221 16.7281 4.85787C16.6022 4.94271 16.322 5.1237 16.1847 5.15763C16.0074 5.20288 15.8415 5.16329 15.8186 5.06714C15.8072 5.02189 15.8301 4.96533 15.8815 4.92008C15.973 5.02755 15.9788 5.19722 16.1847 5.06714C16.3734 4.94271 16.5679 4.88049 16.7395 4.82959Z" fill="url(#paint40_linear)"/>
<path d="M15.6698 8.07544C15.6641 8.05282 15.6583 8.01888 15.6583 7.97929C15.7213 8.06413 15.7785 8.132 15.8242 8.16028C15.9329 8.21684 16.0816 8.14331 16.053 7.90576C16.0644 7.92839 16.0759 7.94535 16.0759 7.96232C16.1159 8.10372 16.0587 8.24512 15.9443 8.27905C15.8299 8.31299 15.7098 8.21684 15.6698 8.07544Z" fill="url(#paint41_linear)"/>
<path d="M14.4915 6.60522C14.6174 6.69006 14.6174 6.2998 14.5773 6.02832C14.6231 6.07922 14.6517 6.16406 14.6574 6.26587C14.6631 6.37899 14.5831 6.63916 14.543 6.76925C14.5373 6.79753 14.4973 6.79753 14.4915 6.76925C14.4744 6.724 14.4515 6.66178 14.4286 6.59391C14.4458 6.5826 14.4687 6.58826 14.4915 6.60522Z" fill="url(#paint42_linear)"/>
<path d="M12.0092 6.6333C12.0835 6.70117 12.1751 6.93306 12.2894 7.2102C12.3238 7.29504 12.3638 7.32898 12.3981 7.33463C12.4038 7.39685 12.4096 7.45906 12.4153 7.50431C12.4153 7.53259 12.381 7.5439 12.3638 7.52128C12.2666 7.38554 12.0778 7.1084 12.0321 6.97831C11.9806 6.83126 11.9749 6.70117 12.0092 6.6333Z" fill="url(#paint43_linear)"/>
<path d="M11.5975 4.28662C11.6375 4.29793 11.6775 4.33187 11.7119 4.38843C11.8148 4.54679 12.1294 4.59204 12.4497 4.56942C12.4612 4.57507 12.4669 4.58638 12.4726 4.59204C12.4955 4.60901 12.4783 4.64294 12.4554 4.64294C12.301 4.63729 11.9693 4.62032 11.8377 4.57507C11.6718 4.5072 11.5631 4.38277 11.5975 4.28662Z" fill="url(#paint44_linear)"/>
<path d="M14.2058 2.97949C14.2229 3.07564 14.1943 3.27926 14.1715 3.38106C14.1429 3.49418 14.2458 3.59599 14.3945 3.55639C14.3717 3.61295 14.3316 3.65254 14.2859 3.65254C14.2001 3.6582 14.12 3.56205 14.1085 3.42631C14.0971 3.33016 14.1657 3.10392 14.2001 2.9908C14.1943 2.98515 14.2001 2.97949 14.2058 2.97949Z" fill="url(#paint45_linear)"/>
<path d="M11.626 2.52148C11.769 2.60067 11.9863 2.83822 12.1751 2.88346C12.1865 2.90609 12.1923 2.92871 12.2037 2.94568C12.2151 2.9683 12.1865 2.99093 12.1637 2.98527C12.0493 2.93437 11.8033 2.82125 11.729 2.74206C11.6603 2.66854 11.626 2.58936 11.626 2.52148Z" fill="url(#paint46_linear)"/>
<path d="M9.61272 2.92867C9.607 2.91736 9.61272 2.90605 9.61844 2.90039C9.75572 3.01916 9.89872 3.34721 9.97307 3.39246C10.0474 3.4377 10.1504 3.49992 10.2648 3.41508C10.2705 3.46598 10.2533 3.51123 10.219 3.54517C10.1389 3.61869 9.98451 3.5791 9.8644 3.45467C9.78432 3.35286 9.6642 3.05876 9.61272 2.92867Z" fill="url(#paint47_linear)"/>
<path d="M9.94995 5.72286C9.94423 5.77942 9.92135 5.82467 9.88131 5.84729C9.7898 5.90385 9.64108 5.83032 9.55528 5.68892C9.48664 5.57581 9.42945 5.26473 9.40657 5.12333C9.40657 5.11768 9.40657 5.11768 9.40657 5.11768C9.52668 5.23645 9.59532 5.53621 9.66396 5.64933C9.7326 5.75114 9.81268 5.8077 9.94995 5.72286Z" fill="url(#paint48_linear)"/>
<path d="M7.31321 8.26237C7.40473 8.23975 7.5992 7.95695 7.65068 7.69678C7.66784 7.69678 7.67928 7.71375 7.67356 7.73071C7.63924 7.86646 7.54773 8.17188 7.47337 8.27368C7.37041 8.40943 7.2217 8.46599 7.13018 8.39811C7.07298 8.35852 7.06154 8.27368 7.08442 8.18319C7.14734 8.31328 7.22742 8.285 7.31321 8.26237Z" fill="url(#paint49_linear)"/>
<path d="M6.28369 6.11296C6.28369 6.10165 6.28369 6.09034 6.28941 6.07903C6.31801 6.07337 6.35232 6.08468 6.39808 6.11862C6.54108 6.20911 6.8614 6.18649 7.14739 6.09599C7.17027 6.1073 7.17027 6.14124 7.14739 6.1469C7.01583 6.1978 6.71268 6.31091 6.58684 6.31091C6.42096 6.30526 6.28369 6.22042 6.28369 6.11296Z" fill="url(#paint50_linear)"/>
<path d="M7.18181 4.05439C7.18753 4.05439 7.19325 4.04873 7.19897 4.04873C7.22185 4.04307 7.24472 4.0657 7.23329 4.08832C7.16465 4.21275 7.01021 4.48989 6.90726 4.57473C6.7757 4.68219 6.61555 4.70482 6.54691 4.61998C6.51831 4.58604 6.51259 4.53514 6.52403 4.48423C6.59839 4.51817 6.69563 4.57473 6.7757 4.58039C6.89582 4.5917 7.02737 4.28062 7.18181 4.05439Z" fill="url(#paint51_linear)"/>
<path d="M4.41341 6.89355C4.41913 6.88224 4.43057 6.87093 4.43629 6.85396C4.585 6.87093 4.7852 6.75216 4.92819 6.6051C5.00827 6.52026 5.09406 6.50895 5.15698 6.48633C5.15698 6.57117 5.09979 6.67297 4.99683 6.74084C4.88815 6.81437 4.57928 6.89355 4.44201 6.92749C4.41913 6.94446 4.40197 6.91618 4.41341 6.89355Z" fill="url(#paint52_radial)"/>
<path d="M10.0303 7.47643C10.0589 7.47643 10.0704 7.44815 10.0532 7.43119C9.95598 7.32938 9.73291 7.10314 9.61279 7.04658C9.45836 6.97871 9.2982 6.99568 9.25245 7.09749C9.20669 7.19929 9.2982 7.32938 9.45264 7.39725C9.56703 7.44815 9.88734 7.46512 10.0303 7.47643Z" fill="url(#paint53_radial)"/>
<path d="M9.37242 7.21045C9.47537 7.38013 9.76709 7.44234 10.0188 7.3971C10.0302 7.40841 10.0416 7.41972 10.0474 7.43103C10.0645 7.448 10.0531 7.48193 10.0245 7.47628C9.88148 7.47062 9.56117 7.448 9.44677 7.3971C9.29234 7.32922 9.20654 7.19348 9.24658 7.09733C9.2523 7.09167 9.25802 7.08602 9.25802 7.07471C9.30378 7.10299 9.3381 7.14823 9.37242 7.21045Z" fill="url(#paint54_linear)"/>
<path d="M11.7177 10.8922C22.4366 10.8922 20.7607 7.88895 19.9657 6.25439C20.7035 7.36861 21.0295 8.54504 21.0295 9.47261C21.0295 11.6049 14.6805 11.6671 11.7692 11.6671L11.7177 10.8922Z" fill="url(#paint55_linear)"/>
<path d="M11.769 11.6728C8.85766 11.6728 2.50866 11.6049 2.50866 9.47831C2.50866 8.57336 2.81753 7.43652 3.51535 6.35059C3.43527 6.5033 1.18739 10.8979 11.7176 10.8979L11.769 11.6728Z" fill="url(#paint56_linear)"/>
<path d="M7.46767 14.9928C9.17217 15.6432 10.339 17.5719 11.1055 17.323C11.0311 17.3966 10.9682 17.4588 10.9167 17.5097C10.8424 17.5889 10.7165 17.5945 10.6307 17.5266C7.96529 15.3378 6.48958 15.0663 3.94426 14.5686C3.02909 14.3876 2.88037 14.727 2.65158 14.5177C2.50859 14.3876 2.49143 14.1614 2.54863 13.9238C4.4476 14.6648 5.15114 14.1161 7.46767 14.9928Z" fill="#FFBC47"/>
<path d="M13.5308 15.5586C12.9016 15.7396 12.0722 16.424 11.4888 16.9613C11.6547 16.5201 12.0894 15.7962 13.1476 15.355C14.3487 14.8573 16.282 15.1514 17.1629 14.7725C17.5633 14.5971 18.5471 13.8788 19.3993 14.0315C20.0342 14.1447 20.4747 13.9071 20.5719 13.5508C20.6005 13.6469 20.6234 13.7544 20.652 13.8788C20.8236 14.6933 18.8273 14.0146 17.7635 14.7385C16.6939 15.4681 14.6061 15.2476 13.5308 15.5586Z" fill="url(#paint57_linear)"/>
<path d="M3.58982 19.5177C2.892 19.0086 2.58313 18.0188 2.70896 16.8594C2.72612 16.8763 2.749 16.8877 2.76616 16.9046C2.81192 16.9386 2.8634 16.9725 2.91488 17.0064C2.66893 19.4215 5.82054 20.8468 12.4155 20.8468C18.7816 20.8468 20.2059 19.6138 20.7493 16.9159C20.755 16.9103 20.7607 16.9046 20.7664 16.9046C20.7836 16.8877 20.8065 16.8763 20.8236 16.8594C20.9495 18.0188 20.6406 19.0143 19.9428 19.5177C18.6672 20.4452 16.1505 21.1352 11.7634 21.1352C7.38205 21.1352 4.86533 20.4452 3.58982 19.5177Z" fill="url(#paint58_linear)"/>
<path d="M17.9236 13.4431C18.0552 13.4205 18.2325 13.3752 18.467 13.1434C18.7015 12.9115 19.6224 13.2282 20.04 12.9228C20.3946 12.6626 20.6234 12.3176 20.9723 12.2554C21.0581 12.2893 21.1153 12.3176 21.121 12.3402C21.1496 12.4081 20.875 12.5664 20.5376 12.8492C20.2516 13.0868 19.8398 13.2338 19.6224 13.2338C19.4051 13.2338 18.6043 13.166 18.3469 13.3752C18.1639 13.5223 18.0781 13.4375 17.9236 13.4431Z" fill="url(#paint59_linear)"/>
<path d="M3.00054 13.3187C3.19501 13.511 4.3447 13.3753 4.92812 13.1886C5.51154 13.002 6.44387 13.9352 6.55827 13.9126C7.06161 13.8278 7.44484 13.7146 7.68507 13.9126C7.9253 14.1106 7.94246 13.8673 8.0969 13.8278C8.25133 13.7882 9.04067 13.8164 9.16651 14.1954C9.22942 14.382 9.32094 14.4103 9.44678 14.4669C9.26374 14.6083 9.29806 14.5743 9.05211 14.3311C8.77756 14.0596 8.21702 13.8843 8.13694 13.9635C8.05686 14.0427 7.96534 14.235 7.76515 14.0314C7.56496 13.8278 7.02157 13.89 6.80422 13.9748C6.58687 14.0596 6.37523 13.9635 6.34663 13.9352C6.31804 13.9069 5.83757 13.7599 5.3857 13.4827C5.27131 13.4149 3.92715 13.4375 3.65832 13.511C3.38949 13.5846 3.0749 13.511 3.0749 13.511C3.0749 13.511 2.88614 13.1377 2.72599 13.0699C2.56011 13.002 2.40568 12.8153 2.40568 12.7588C2.93762 13.0359 2.80034 13.1208 3.00054 13.3187Z" fill="url(#paint60_linear)"/>
<path d="M11.4889 14.1163C12.0037 13.579 12.4613 14.2294 12.7015 14.2407C13.1591 14.2577 13.5023 13.4772 13.8569 14.1672C13.7654 14.1106 13.6796 14.0484 13.6339 14.0371C13.5309 14.0088 13.1305 14.3482 12.8617 14.3482C12.5929 14.3482 12.2325 14.2633 12.0609 14.1502C11.8893 14.0371 11.0599 14.5348 10.9741 14.6592C10.9169 14.7441 10.7396 14.6819 10.5452 14.5744C10.7797 14.5857 10.997 14.631 11.4889 14.1163Z" fill="url(#paint61_linear)"/>
<path d="M14.4689 13.6639C14.2858 13.5961 13.7939 13.3981 14.1371 13.4207C14.4803 13.4377 15.5671 14.0712 15.8073 13.9354C16.0475 13.7997 16.5909 14.0146 16.8254 13.7771C17.0656 13.5395 17.6948 13.5056 17.6948 13.5056C17.3631 13.6753 16.9512 13.9694 16.7511 13.9694C16.5509 13.9694 16.0075 13.9807 15.8359 14.0259C15.6643 14.0712 15.0637 13.8676 14.8921 13.811C14.7205 13.7544 14.5775 13.7997 14.5775 13.7997C14.5775 13.7997 14.1485 14.0146 14.1085 14.1843C14.1199 13.8167 14.6462 13.7318 14.4689 13.6639Z" fill="url(#paint62_linear)"/>
<path d="M17.5117 19.5175C17.7463 19.2742 17.8835 18.6747 17.8549 18.1035C19.1705 17.7924 20.12 17.3739 20.772 16.8988C20.7892 16.8818 20.8121 16.8705 20.8292 16.8535C20.9551 18.013 20.6462 19.0084 19.9484 19.5118C18.6729 20.4394 16.1561 21.1294 11.769 21.1294C14.852 21.135 16.6194 20.445 17.5117 19.5175Z" fill="url(#paint63_linear)"/>
<path d="M2.70886 16.8594C2.72602 16.8763 2.7489 16.8877 2.76606 16.9046C3.41812 17.3797 4.36761 17.7983 5.68317 18.1093C5.64885 18.6806 5.79184 19.2801 6.02635 19.5233C6.92436 20.4509 8.69179 21.1409 11.769 21.1409C7.38195 21.1409 4.86523 20.4509 3.58972 19.5233C2.8919 19.0086 2.58303 18.0188 2.70886 16.8594Z" fill="url(#paint64_linear)"/>
<defs>
<linearGradient id="paint0_linear" x1="14.1904" y1="14.1047" x2="6.8154" y2="23.0471" gradientUnits="userSpaceOnUse">
<stop stop-color="#FBB87A"/>
<stop offset="1" stop-color="#E89043" stop-opacity="0.97"/>
</linearGradient>
<radialGradient id="paint1_radial" cx="0" cy="0" r="1" gradientUnits="userSpaceOnUse" gradientTransform="translate(11.7582 16.1417) rotate(-178.769) scale(12.6345 3.28895)">
<stop stop-color="#7A4400"/>
<stop offset="0.2426" stop-color="#643800"/>
<stop offset="0.47" stop-color="#5E3500"/>
<stop offset="0.7652" stop-color="#4E2C00"/>
<stop offset="1" stop-color="#3C2200"/>
</radialGradient>
<linearGradient id="paint2_linear" x1="6.70199" y1="16.1486" x2="2.10675" y2="16.1486" gradientUnits="userSpaceOnUse">
<stop offset="0.8063" stop-color="#512D00"/>
<stop offset="0.8662" stop-color="#4B2A00"/>
<stop offset="0.9402" stop-color="#3C2200"/>
</linearGradient>
<linearGradient id="paint3_linear" x1="11.7653" y1="13.7768" x2="11.8025" y2="19.0179" gradientUnits="userSpaceOnUse">
<stop stop-color="#643800"/>
<stop offset="0.3002" stop-color="#5E3500"/>
<stop offset="0.69" stop-color="#4E2C00"/>
<stop offset="1" stop-color="#3C2200"/>
</linearGradient>
<linearGradient id="paint4_linear" x1="14.8774" y1="16.4535" x2="28.8215" y2="13.6217" gradientUnits="userSpaceOnUse">
<stop stop-color="#3C2200" stop-opacity="0"/>
<stop offset="1" stop-color="#3C2200"/>
</linearGradient>
<radialGradient id="paint5_radial" cx="0" cy="0" r="1" gradientUnits="userSpaceOnUse" gradientTransform="translate(11.6977 14.5832) rotate(179.94) scale(13.8953 2.67107)">
<stop stop-color="#512D00"/>
<stop offset="1" stop-color="#3C2200"/>
</radialGradient>
<radialGradient id="paint6_radial" cx="0" cy="0" r="1" gradientUnits="userSpaceOnUse" gradientTransform="translate(11.8449 19.3539) rotate(180) scale(12.6475 2.97273)">
<stop stop-color="#E89043"/>
<stop offset="1" stop-color="#C86F34"/>
</radialGradient>
<linearGradient id="paint7_linear" x1="10.3693" y1="14.4626" x2="11.5263" y2="9.0653" gradientUnits="userSpaceOnUse">
<stop offset="0.00293411" stop-color="#FFD65B"/>
<stop offset="0.5303" stop-color="#FFD255"/>
<stop offset="1" stop-color="#FFCB4B"/>
</linearGradient>
<radialGradient id="paint8_radial" cx="0" cy="0" r="1" gradientUnits="userSpaceOnUse" gradientTransform="translate(11.6158 13.9412) rotate(180) scale(6.28568 6.21546)">
<stop stop-color="#FFBC47"/>
<stop offset="1" stop-color="#FBA23B"/>
</radialGradient>
<linearGradient id="paint9_linear" x1="9.93309" y1="17.4092" x2="12.4566" y2="10.547" gradientUnits="userSpaceOnUse">
<stop stop-color="#B0D55B"/>
<stop offset="1" stop-color="#76AB50"/>
</linearGradient>
<linearGradient id="paint10_linear" x1="18.2257" y1="11.6465" x2="19.5227" y2="13.3573" gradientUnits="userSpaceOnUse">
<stop stop-color="#B0D55B"/>
<stop offset="1" stop-color="#76AB50"/>
</linearGradient>
<linearGradient id="paint11_linear" x1="10.8979" y1="11.8213" x2="11.0098" y2="14.1687" gradientUnits="userSpaceOnUse">
<stop stop-color="#B0D55B"/>
<stop offset="1" stop-color="#76AB50"/>
</linearGradient>
<linearGradient id="paint12_linear" x1="18.4524" y1="15.8285" x2="18.8719" y2="11.1898" gradientUnits="userSpaceOnUse">
<stop stop-color="#B0D55B"/>
<stop offset="1" stop-color="#76AB50"/>
</linearGradient>
<linearGradient id="paint13_linear" x1="9.66413" y1="15.0336" x2="10.0837" y2="10.3949" gradientUnits="userSpaceOnUse">
<stop stop-color="#B0D55B"/>
<stop offset="1" stop-color="#76AB50"/>
</linearGradient>
<linearGradient id="paint14_linear" x1="5.33068" y1="11.1384" x2="3.85179" y2="13.275" gradientUnits="userSpaceOnUse">
<stop stop-color="#B0D55B"/>
<stop offset="1" stop-color="#76AB50"/>
</linearGradient>
<linearGradient id="paint15_linear" x1="6.71458" y1="12.7642" x2="6.27635" y2="13.3973" gradientUnits="userSpaceOnUse">
<stop stop-color="#B0D55B"/>
<stop offset="1" stop-color="#76AB50"/>
</linearGradient>
<radialGradient id="paint16_radial" cx="0" cy="0" r="1" gradientUnits="userSpaceOnUse" gradientTransform="translate(11.7334 12.779) rotate(180) scale(8.66897 1.0938)">
<stop offset="0.00134333" stop-color="#4B8C1C" stop-opacity="0"/>
<stop offset="1" stop-color="#4B8C1C"/>
</radialGradient>
<radialGradient id="paint17_radial" cx="0" cy="0" r="1" gradientUnits="userSpaceOnUse" gradientTransform="translate(14.377 12.3687) rotate(180) scale(11.084 2.37398)">
<stop stop-color="#F78174"/>
<stop offset="0.2904" stop-color="#E74939"/>
<stop offset="0.9631" stop-color="#BD2719"/>
</radialGradient>
<radialGradient id="paint18_radial" cx="0" cy="0" r="1" gradientUnits="userSpaceOnUse" gradientTransform="translate(12.8613 9.8) rotate(180) scale(12.0181 3.84086)">
<stop offset="0.0582123" stop-color="#F78174"/>
<stop offset="0.6656" stop-color="#E74939"/>
<stop offset="0.9631" stop-color="#BD2719"/>
</radialGradient>
<linearGradient id="paint19_linear" x1="11.7584" y1="17.5161" x2="11.3482" y2="24.1529" gradientUnits="userSpaceOnUse">
<stop offset="0.0582123" stop-color="#C86F34" stop-opacity="0"/>
<stop offset="1" stop-color="#A3541E"/>
</linearGradient>
<linearGradient id="paint20_linear" x1="12.068" y1="7.3856" x2="13.2151" y2="-0.310247" gradientUnits="userSpaceOnUse">
<stop stop-color="#EFA25F"/>
<stop offset="0.4407" stop-color="#F3A968" stop-opacity="0.9868"/>
<stop offset="1" stop-color="#FBB87A" stop-opacity="0.97"/>
</linearGradient>
<radialGradient id="paint21_radial" cx="0" cy="0" r="1" gradientUnits="userSpaceOnUse" gradientTransform="translate(13.9466 4.17685) rotate(-169.824) scale(3.9943 2.21708)">
<stop stop-color="#FCD2A8" stop-opacity="0.75"/>
<stop offset="1" stop-color="#FCD2A8" stop-opacity="0"/>
</radialGradient>
<linearGradient id="paint22_linear" x1="13.3403" y1="1.49462" x2="11.0453" y2="13.1557" gradientUnits="userSpaceOnUse">
<stop offset="0.3191" stop-color="#E89043" stop-opacity="0"/>
<stop offset="1" stop-color="#E89043" stop-opacity="0.97"/>
</linearGradient>
<linearGradient id="paint23_linear" x1="12.6779" y1="2.52417" x2="11.3351" y2="12.8595" gradientUnits="userSpaceOnUse">
<stop stop-color="#E89043" stop-opacity="0"/>
<stop offset="1" stop-color="#E89043" stop-opacity="0.97"/>
</linearGradient>
<radialGradient id="paint24_radial" cx="0" cy="0" r="1" gradientUnits="userSpaceOnUse" gradientTransform="translate(15.8794 7.90114) rotate(180) scale(0.308719 0.305268)">
<stop offset="0.0582123" stop-color="#FFE8B3"/>
<stop offset="1" stop-color="#FFE4A6"/>
</radialGradient>
<radialGradient id="paint25_radial" cx="0" cy="0" r="1" gradientUnits="userSpaceOnUse" gradientTransform="translate(14.5058 6.38681) rotate(180) scale(0.307434 0.303999)">
<stop offset="0.0582123" stop-color="#FFE8B3"/>
<stop offset="1" stop-color="#FFE4A6"/>
</radialGradient>
<radialGradient id="paint26_radial" cx="0" cy="0" r="1" gradientUnits="userSpaceOnUse" gradientTransform="translate(12.2014 7.05835) rotate(180) scale(0.370622 0.36648)">
<stop offset="0.0582123" stop-color="#FFE8B3"/>
<stop offset="1" stop-color="#FFE4A6"/>
</radialGradient>
<radialGradient id="paint27_radial" cx="0" cy="0" r="1" gradientUnits="userSpaceOnUse" gradientTransform="translate(18.5698 6.38273) rotate(167.16) scale(0.321617 0.318382)">
<stop offset="0.0582123" stop-color="#FFE8B3"/>
<stop offset="1" stop-color="#FFE4A6"/>
</radialGradient>
<radialGradient id="paint28_radial" cx="0" cy="0" r="1" gradientUnits="userSpaceOnUse" gradientTransform="translate(16.2785 4.98294) rotate(180) scale(0.354079 0.350122)">
<stop offset="0.0582123" stop-color="#FFE8B3"/>
<stop offset="1" stop-color="#FFE4A6"/>
</radialGradient>
<radialGradient id="paint29_radial" cx="0" cy="0" r="1" gradientUnits="userSpaceOnUse" gradientTransform="translate(12.0407 4.42227) rotate(180) scale(0.353674 0.349721)">
<stop offset="0.0582123" stop-color="#FFE8B3"/>
<stop offset="1" stop-color="#FFE4A6"/>
</radialGradient>
<radialGradient id="paint30_radial" cx="0" cy="0" r="1" gradientUnits="userSpaceOnUse" gradientTransform="translate(14.2581 3.31417) rotate(180) scale(0.267377 0.264392)">
<stop offset="0.0582123" stop-color="#FFE8B3"/>
<stop offset="1" stop-color="#FFE4A6"/>
</radialGradient>
<radialGradient id="paint31_radial" cx="0" cy="0" r="1" gradientUnits="userSpaceOnUse" gradientTransform="translate(11.9163 2.69379) rotate(180) scale(0.291683 0.288423)">
<stop offset="0.0582123" stop-color="#FFE8B3"/>
<stop offset="1" stop-color="#FFE4A6"/>
</radialGradient>
<radialGradient id="paint32_radial" cx="0" cy="0" r="1" gradientUnits="userSpaceOnUse" gradientTransform="translate(9.94119 3.23289) rotate(180) scale(0.338303 0.334525)">
<stop offset="0.0582123" stop-color="#FFE8B3"/>
<stop offset="1" stop-color="#FFE4A6"/>
</radialGradient>
<radialGradient id="paint33_radial" cx="0" cy="0" r="1" gradientUnits="userSpaceOnUse" gradientTransform="translate(9.68252 5.48191) rotate(180) scale(0.337217 0.33345)">
<stop offset="0.0582123" stop-color="#FFE8B3"/>
<stop offset="1" stop-color="#FFE4A6"/>
</radialGradient>
<radialGradient id="paint34_radial" cx="0" cy="0" r="1" gradientUnits="userSpaceOnUse" gradientTransform="translate(7.38146 8.06481) rotate(180) scale(0.337885 0.334113)">
<stop offset="0.0582123" stop-color="#FFE8B3"/>
<stop offset="1" stop-color="#FFE4A6"/>
</radialGradient>
<radialGradient id="paint35_radial" cx="0" cy="0" r="1" gradientUnits="userSpaceOnUse" gradientTransform="translate(6.72811 6.11239) rotate(180) scale(0.343033 0.339204)">
<stop offset="0.0582123" stop-color="#FFE8B3"/>
<stop offset="1" stop-color="#FFE4A6"/>
</radialGradient>
<radialGradient id="paint36_radial" cx="0" cy="0" r="1" gradientUnits="userSpaceOnUse" gradientTransform="translate(6.87781 4.35728) rotate(180) scale(0.338039 0.334264)">
<stop offset="0.0582123" stop-color="#FFE8B3"/>
<stop offset="1" stop-color="#FFE4A6"/>
</radialGradient>
<radialGradient id="paint37_radial" cx="0" cy="0" r="1" gradientUnits="userSpaceOnUse" gradientTransform="translate(4.7853 6.64689) rotate(180) scale(0.337536 0.333768)">
<stop offset="0.0582123" stop-color="#FFE8B3"/>
<stop offset="1" stop-color="#FFE4A6"/>
</radialGradient>
<radialGradient id="paint38_radial" cx="0" cy="0" r="1" gradientUnits="userSpaceOnUse" gradientTransform="translate(9.64996 7.2391) rotate(180) scale(0.335317 0.331574)">
<stop offset="0.0582123" stop-color="#FFE8B3"/>
<stop offset="1" stop-color="#FFE4A6"/>
</radialGradient>
<linearGradient id="paint39_linear" x1="19.0091" y1="6.45458" x2="18.15" y2="6.45458" gradientUnits="userSpaceOnUse">
<stop offset="0.0582123" stop-color="#FFE8B3"/>
<stop offset="1" stop-color="#FFD87C"/>
</linearGradient>
<linearGradient id="paint40_linear" x1="16.7391" y1="5.00392" x2="15.8174" y2="5.00392" gradientUnits="userSpaceOnUse">
<stop offset="0.0582123" stop-color="#FFE8B3"/>
<stop offset="1" stop-color="#FFD87C"/>
</linearGradient>
<linearGradient id="paint41_linear" x1="15.8893" y1="7.61079" x2="15.8707" y2="8.3555" gradientUnits="userSpaceOnUse">
<stop offset="0.0582123" stop-color="#FFE8B3"/>
<stop offset="1" stop-color="#FFD87C"/>
</linearGradient>
<linearGradient id="paint42_linear" x1="14.661" y1="6.4078" x2="14.4301" y2="6.4078" gradientUnits="userSpaceOnUse">
<stop offset="0.0582123" stop-color="#FFE8B3"/>
<stop offset="1" stop-color="#FFD87C"/>
</linearGradient>
<linearGradient id="paint43_linear" x1="12.4152" y1="7.08125" x2="11.9877" y2="7.08125" gradientUnits="userSpaceOnUse">
<stop offset="0.0582123" stop-color="#FFE8B3"/>
<stop offset="1" stop-color="#FFD87C"/>
</linearGradient>
<linearGradient id="paint44_linear" x1="12.4883" y1="4.46599" x2="11.5931" y2="4.46599" gradientUnits="userSpaceOnUse">
<stop offset="0.0582123" stop-color="#FFE8B3"/>
<stop offset="1" stop-color="#FFD87C"/>
</linearGradient>
<linearGradient id="paint45_linear" x1="14.3914" y1="3.31632" x2="14.1016" y2="3.31632" gradientUnits="userSpaceOnUse">
<stop offset="0.0582123" stop-color="#FFE8B3"/>
<stop offset="1" stop-color="#FFD87C"/>
</linearGradient>
<linearGradient id="paint46_linear" x1="12.2054" y1="2.7524" x2="11.6281" y2="2.7524" gradientUnits="userSpaceOnUse">
<stop offset="0.0582123" stop-color="#FFE8B3"/>
<stop offset="1" stop-color="#FFD87C"/>
</linearGradient>
<linearGradient id="paint47_linear" x1="10.2687" y1="3.23804" x2="9.61321" y2="3.23804" gradientUnits="userSpaceOnUse">
<stop offset="0.0582123" stop-color="#FFE8B3"/>
<stop offset="1" stop-color="#FFD87C"/>
</linearGradient>
<linearGradient id="paint48_linear" x1="9.95241" y1="5.49436" x2="9.40979" y2="5.49436" gradientUnits="userSpaceOnUse">
<stop offset="0.0582123" stop-color="#FFE8B3"/>
<stop offset="1" stop-color="#FFD87C"/>
</linearGradient>
<linearGradient id="paint49_linear" x1="7.68232" y1="8.06483" x2="7.08137" y2="8.06483" gradientUnits="userSpaceOnUse">
<stop offset="0.0582123" stop-color="#FFE8B3"/>
<stop offset="1" stop-color="#FFD87C"/>
</linearGradient>
<linearGradient id="paint50_linear" x1="7.17172" y1="6.19012" x2="6.2842" y2="6.19012" gradientUnits="userSpaceOnUse">
<stop offset="0.0582123" stop-color="#FFE8B3"/>
<stop offset="1" stop-color="#FFD87C"/>
</linearGradient>
<linearGradient id="paint51_linear" x1="7.23792" y1="4.35728" x2="6.51862" y2="4.35728" gradientUnits="userSpaceOnUse">
<stop offset="0.0582123" stop-color="#FFE8B3"/>
<stop offset="1" stop-color="#FFD87C"/>
</linearGradient>
<radialGradient id="paint52_radial" cx="0" cy="0" r="1" gradientUnits="userSpaceOnUse" gradientTransform="translate(4.78532 6.71493) rotate(180) scale(0.309642 0.306183)">
<stop offset="0.0582123" stop-color="#FFE8B3"/>
<stop offset="1" stop-color="#FFE4A6"/>
</radialGradient>
<radialGradient id="paint53_radial" cx="0" cy="0" r="1" gradientUnits="userSpaceOnUse" gradientTransform="translate(9.64996 7.2391) rotate(180) scale(0.335317 0.331574)">
<stop offset="0.0582123" stop-color="#FFE8B3"/>
<stop offset="1" stop-color="#FFE4A6"/>
</radialGradient>
<linearGradient id="paint54_linear" x1="10.06" y1="7.27342" x2="9.23958" y2="7.27342" gradientUnits="userSpaceOnUse">
<stop offset="0.0582123" stop-color="#FFE8B3"/>
<stop offset="1" stop-color="#FFD87C"/>
</linearGradient>
<linearGradient id="paint55_linear" x1="14.4997" y1="6.37193" x2="20.7941" y2="18.4209" gradientUnits="userSpaceOnUse">
<stop offset="0.0582123" stop-color="#C86F34" stop-opacity="0"/>
<stop offset="1" stop-color="#A3541E"/>
</linearGradient>
<linearGradient id="paint56_linear" x1="9.7476" y1="5.41607" x2="2.04241" y2="18.8392" gradientUnits="userSpaceOnUse">
<stop offset="0.0582123" stop-color="#C86F34" stop-opacity="0"/>
<stop offset="1" stop-color="#A3541E"/>
</linearGradient>
<linearGradient id="paint57_linear" x1="15.0342" y1="18.2669" x2="17.2201" y2="12.323" gradientUnits="userSpaceOnUse">
<stop stop-color="#FFBC47"/>
<stop offset="1" stop-color="#FBA23B"/>
</linearGradient>
<linearGradient id="paint58_linear" x1="11.804" y1="16.5446" x2="11.4684" y2="24.4255" gradientUnits="userSpaceOnUse">
<stop offset="0.0582123" stop-color="#C86F34" stop-opacity="0"/>
<stop offset="1" stop-color="#A3541E"/>
</linearGradient>
<linearGradient id="paint59_linear" x1="21.1267" y1="12.8574" x2="17.9205" y2="12.8574" gradientUnits="userSpaceOnUse">
<stop stop-color="#4B8C1C"/>
<stop offset="1" stop-color="#76AB50"/>
</linearGradient>
<linearGradient id="paint60_linear" x1="5.50186" y1="14.7055" x2="6.05273" y2="13.2075" gradientUnits="userSpaceOnUse">
<stop stop-color="#4B8C1C"/>
<stop offset="1" stop-color="#76AB50"/>
</linearGradient>
<linearGradient id="paint61_linear" x1="12.1829" y1="14.9826" x2="12.2202" y2="13.5309" gradientUnits="userSpaceOnUse">
<stop stop-color="#4B8C1C"/>
<stop offset="1" stop-color="#76AB50"/>
</linearGradient>
<linearGradient id="paint62_linear" x1="15.4048" y1="14.6666" x2="16.0523" y2="12.9061" gradientUnits="userSpaceOnUse">
<stop stop-color="#4B8C1C"/>
<stop offset="1" stop-color="#76AB50"/>
</linearGradient>
<linearGradient id="paint63_linear" x1="17.1644" y1="19.4855" x2="19.8946" y2="21.0674" gradientUnits="userSpaceOnUse">
<stop offset="0.0582123" stop-color="#C86F34" stop-opacity="0"/>
<stop offset="1" stop-color="#A3541E"/>
</linearGradient>
<linearGradient id="paint64_linear" x1="6.35042" y1="19.5306" x2="2.37103" y2="21.9835" gradientUnits="userSpaceOnUse">
<stop offset="0.0582123" stop-color="#C86F34" stop-opacity="0"/>
<stop offset="1" stop-color="#A3541E"/>
</linearGradient>
</defs>
</svg>
