<svg width="80" height="80" viewBox="0 0 80 80" fill="none" xmlns="http://www.w3.org/2000/svg">
<path d="M42.397 34.6294C42.2402 36.0402 41.0793 37.7939 40.5698 37.8282C40.0604 37.8625 39.644 36.6378 39.5509 35.4279C39.4627 34.2228 31.9826 39.7631 31.5319 39.9836C31.1939 40.1501 27.4269 40.3167 24.8943 41.6736C24.0518 42.1242 22.5626 44.2649 22.3422 44.2992C21.4702 44.4364 20.5493 43.0648 19.7459 40.9241C18.9426 38.7834 12.7018 45.5336 13.3337 48.6442C14.1811 52.8129 16.1847 66.1812 21.2253 69.8649C29.837 76.1547 44.0429 74.8615 49.3726 68.6795C54.7071 62.5023 54.9129 58.5933 59.5028 53.5134C63.3874 49.2125 68.384 49.8738 70.2748 47.6792C71.8669 45.8374 69.5107 43.0207 68.6142 42.2467C67.0173 40.8702 61.1684 39.3859 56.5245 44.7695C54.7169 46.8612 52.4881 48.2426 50.3425 46.3909C48.2018 44.5441 48.7358 40.302 49.74 36.868" fill="url(#paint0_linear)"/>
<path d="M19.7507 40.9293C18.9474 38.7886 17.3896 33.0867 16.0474 29.9908C14.7052 26.8949 12.6576 25.8417 10.174 27.1545C7.69043 28.4673 9.85072 34.233 10.2916 35.6536C10.9627 37.8334 12.5057 45.3381 13.3385 48.6495" fill="url(#paint1_linear)"/>
<path d="M31.5367 39.9884C31.0861 40.2089 29.5724 39.0528 29.1315 35.134C28.7935 32.1409 28.1518 23.7594 27.2554 19.5173C26.3589 15.2751 25.0412 12.8454 22.445 12.8209C19.8487 12.8013 18.9572 16.054 19.3001 19.576C19.7263 23.926 20.4708 28.5894 21.1811 33.0618C21.7347 36.5594 23.2141 44.1669 22.3372 44.3041" fill="url(#paint2_linear)"/>
<path d="M21.186 33.0619C21.7102 36.3587 23.0524 43.3196 22.4694 44.2062C23.7627 43.7017 24.7081 40.0963 24.2574 38.2593C21.6661 27.6392 21.8375 13.7076 20.8088 13.3745C19.4764 14.4473 19.0404 16.9358 19.3001 19.5761C19.7311 23.9261 20.4757 28.5895 21.186 33.0619Z" fill="url(#paint3_linear)"/>
<path d="M49.7447 36.8783C50.7489 33.4444 52.8553 21.1195 53.6587 17.862C54.467 14.5995 52.7623 12.6793 50.651 12.1747C48.5397 11.6702 46.3157 12.934 44.9833 19.454C44.1456 23.5639 43.2247 27.184 42.3969 34.6396L46.5851 38.7593L49.7447 36.8783Z" fill="url(#paint4_linear)"/>
<path d="M39.5558 35.4327C39.4676 34.2276 39.595 22.4906 39.5558 19.9139C39.4823 15.0888 41.4466 6.58979 35.5242 6.02156C32.4087 5.72274 31.7474 8.60801 31.6102 9.88164C31.4731 11.1553 31.5025 25.5228 31.5956 26.8258C31.6886 28.1289 31.9874 39.7728 31.5368 39.9932" fill="url(#paint5_linear)"/>
<path d="M31.5956 26.8261C31.6935 28.1243 31.9874 39.7731 31.5368 39.9935C35.4997 39.1069 34.6523 25.7289 34.378 19.1011C34.1379 13.3501 36.0288 10.1318 34.4661 6.06104C32.2569 6.43333 31.7327 8.77975 31.6103 9.89173C31.4682 11.1556 31.4976 25.528 31.5956 26.8261Z" fill="url(#paint6_linear)"/>
<path d="M31.2771 40.0227C30.9587 39.9688 30.2337 39.043 29.832 38.1221C30.0427 38.9254 30.6648 40.0276 31.2771 40.0227Z" fill="url(#paint7_linear)"/>
<path d="M68.3985 43.3683C70.1571 44.4068 70.2747 44.8134 70.2404 44.3039C69.7359 43.3879 69.0256 42.609 68.619 42.2563C67.022 40.8798 61.1731 39.3955 56.5293 44.7791C54.7217 46.8708 52.4928 48.2522 50.3472 46.4005C49.5047 45.6706 49.0148 44.4509 48.765 43.0254C48.9316 50.4369 55.2703 49.0604 58.0429 46.7581C60.8106 44.4509 63.2403 40.3165 68.3985 43.3683Z" fill="url(#paint8_linear)"/>
<path d="M31.5954 26.8261C31.6934 28.1242 31.9873 39.773 31.5367 39.9935C33.6528 40.1894 34.0153 37.9655 33.7361 34.1985C33.1679 26.4783 32.2029 15.9316 33.8439 9.34303C34.0006 8.72091 33.8684 8.0498 33.4422 7.56974C32.3302 6.3304 31.7179 8.91685 31.6101 9.88677C31.4681 11.1555 31.4975 25.528 31.5954 26.8261Z" fill="url(#paint9_linear)"/>
<path d="M19.3049 19.581C19.7311 23.931 20.4757 28.5944 21.1909 33.0668C21.7444 36.5644 23.2238 44.1719 22.3469 44.3091C26.9369 43.9955 20.0544 25.6895 20.8137 13.3794C19.4813 14.4473 19.0453 16.9407 19.3049 19.581Z" fill="url(#paint10_linear)"/>
<path d="M21.4113 44.3582C21.7591 44.4513 21.9893 44.4268 22.1363 44.3239C21.377 44.3435 20.4854 42.8936 19.7507 40.9292C18.9473 38.7885 17.3896 33.0866 16.0473 29.9907C15.4595 28.6338 14.7345 27.6639 13.892 27.1201C14.7345 28.575 13.9997 28.5505 15.6652 32.1902C16.5568 34.1398 19.153 43.7655 21.4113 44.3582Z" fill="url(#paint11_linear)"/>
<path d="M27.3876 29.1577C27.5933 32.7924 28.7689 39.6309 31.1448 39.9836C30.601 39.7631 29.4792 38.1858 29.1363 35.134C28.7983 32.1409 28.1566 23.7595 27.2602 19.5173C26.5352 16.0834 25.531 13.8349 23.7969 13.0903C27.074 17.6754 27.1916 25.7189 27.3876 29.1577Z" fill="url(#paint12_linear)"/>
<path d="M38.287 21.9908C38.4584 27.4381 37.4003 37.0344 40.4129 37.7986C39.977 37.6075 39.6341 36.5103 39.5557 35.4326C39.4675 34.2275 39.5949 22.4905 39.5557 19.9138C39.5018 16.573 40.4276 11.4638 39.0364 8.45605C39.7761 12.2672 38.1449 17.5772 38.287 21.9908Z" fill="url(#paint13_linear)"/>
<path d="M48.7651 43.0259C48.383 40.8314 49.1374 38.9601 49.7448 36.8782C50.749 33.4443 52.8554 21.1195 53.6588 17.8619C53.9037 16.8675 53.9184 16.0004 53.7567 15.2559C53.3893 16.7646 52.3606 18.3518 52.003 21.3497C51.425 26.1601 45.9974 43.2268 48.7651 43.0259Z" fill="url(#paint14_linear)"/>
<path d="M52.4145 56.2271C42.0736 68.2091 32.0854 65.6765 28.6808 63.7808C25.2763 61.885 22.9152 56.8297 21.333 48.8793L18.7759 40.728C18.0411 41.1738 15.2783 42.9716 12.4812 44.9947C12.7996 46.4055 13.0984 47.6987 13.3336 48.649C14.181 52.8177 16.1845 66.186 21.2252 69.8697C29.8369 76.1595 44.0428 74.8663 49.3725 68.6843C54.7021 62.5022 54.9127 58.5981 59.5027 53.5182C63.3873 49.2173 68.3839 49.8786 70.2747 47.684C71.1418 46.6798 70.838 45.3964 70.2355 44.304C68.2663 48.7323 62.7505 44.2452 52.4145 56.2271Z" fill="url(#paint15_radial)"/>
<path d="M49.8476 12.0718C47.9911 12.0718 46.1492 13.7569 44.9833 19.449C44.1457 23.559 43.2247 27.179 42.3969 34.6347C42.2401 36.0454 41.0792 37.7991 40.5697 37.8334C40.6187 37.7942 40.8734 38.0196 41.3976 37.5395C45.6496 33.6402 44.9588 24.4407 46.4333 19.6205C47.609 15.7604 48.8483 14.0949 49.8476 12.0718Z" fill="url(#paint16_linear)"/>
<defs>
<linearGradient id="paint0_linear" x1="22.9064" y1="80.5288" x2="40.8759" y2="48.9668" gradientUnits="userSpaceOnUse">
<stop offset="0.00132565" stop-color="#BE8D68"/>
<stop offset="1" stop-color="#CD9870"/>
</linearGradient>
<linearGradient id="paint1_linear" x1="-3.20764" y1="65.6614" x2="14.7619" y2="34.0994" gradientUnits="userSpaceOnUse">
<stop offset="0.00132565" stop-color="#BE8D68"/>
<stop offset="1" stop-color="#CD9870"/>
</linearGradient>
<linearGradient id="paint2_linear" x1="2.13307" y1="68.7017" x2="20.1027" y2="37.1398" gradientUnits="userSpaceOnUse">
<stop offset="0.00132565" stop-color="#BE8D68"/>
<stop offset="1" stop-color="#CD9870"/>
</linearGradient>
<linearGradient id="paint3_linear" x1="23.0524" y1="12.2769" x2="18.2144" y2="75.6888" gradientUnits="userSpaceOnUse">
<stop stop-color="#D2A374" stop-opacity="0"/>
<stop offset="1" stop-color="#B88653"/>
</linearGradient>
<linearGradient id="paint4_linear" x1="18.4085" y1="77.9685" x2="36.3781" y2="46.4065" gradientUnits="userSpaceOnUse">
<stop offset="0.00132565" stop-color="#BE8D68"/>
<stop offset="1" stop-color="#CD9870"/>
</linearGradient>
<linearGradient id="paint5_linear" x1="7.36777" y1="71.6819" x2="25.3374" y2="40.12" gradientUnits="userSpaceOnUse">
<stop offset="0.00132565" stop-color="#BE8D68"/>
<stop offset="1" stop-color="#CD9870"/>
</linearGradient>
<linearGradient id="paint6_linear" x1="34.5807" y1="3.73887" x2="29.0516" y2="66.8052" gradientUnits="userSpaceOnUse">
<stop stop-color="#D2A374" stop-opacity="0"/>
<stop offset="1" stop-color="#B88653"/>
</linearGradient>
<linearGradient id="paint7_linear" x1="38.2223" y1="39.6944" x2="16.672" y2="37.9523" gradientUnits="userSpaceOnUse">
<stop stop-color="#FFBC47" stop-opacity="0"/>
<stop offset="1" stop-color="#FFA754"/>
</linearGradient>
<linearGradient id="paint8_linear" x1="40.3803" y1="49.8639" x2="74.7068" y2="38.9209" gradientUnits="userSpaceOnUse">
<stop stop-color="#B37E53"/>
<stop offset="1" stop-color="#CD9870"/>
</linearGradient>
<linearGradient id="paint9_linear" x1="30.6668" y1="-16.2444" x2="33.0858" y2="31.6169" gradientUnits="userSpaceOnUse">
<stop offset="0.3072" stop-color="#B37E53" stop-opacity="0"/>
<stop offset="1" stop-color="#B37E53"/>
</linearGradient>
<linearGradient id="paint10_linear" x1="12.5253" y1="-8.96492" x2="22.3741" y2="32.1578" gradientUnits="userSpaceOnUse">
<stop offset="0.3072" stop-color="#B37E53" stop-opacity="0"/>
<stop offset="1" stop-color="#B37E53"/>
</linearGradient>
<linearGradient id="paint11_linear" x1="6.09764" y1="0.0777401" x2="21.4755" y2="46.2112" gradientUnits="userSpaceOnUse">
<stop offset="0.3072" stop-color="#B37E53" stop-opacity="0"/>
<stop offset="1" stop-color="#B37E53"/>
</linearGradient>
<linearGradient id="paint12_linear" x1="22.6557" y1="-14.7685" x2="28.8759" y2="38.6219" gradientUnits="userSpaceOnUse">
<stop offset="0.3072" stop-color="#B37E53" stop-opacity="0"/>
<stop offset="1" stop-color="#B37E53"/>
</linearGradient>
<linearGradient id="paint13_linear" x1="38.7808" y1="-6.95612" x2="39.2991" y2="31.7476" gradientUnits="userSpaceOnUse">
<stop offset="0.3072" stop-color="#B37E53" stop-opacity="0"/>
<stop offset="1" stop-color="#B37E53"/>
</linearGradient>
<linearGradient id="paint14_linear" x1="44.7158" y1="9.26535" x2="55.5436" y2="43.3614" gradientUnits="userSpaceOnUse">
<stop offset="0.3072" stop-color="#B37E53" stop-opacity="0"/>
<stop offset="1" stop-color="#B37E53"/>
</linearGradient>
<radialGradient id="paint15_radial" cx="0" cy="0" r="1" gradientUnits="userSpaceOnUse" gradientTransform="translate(35.0988 38.0167) rotate(-0.962906) scale(34.1356 44.2783)">
<stop offset="0.6147" stop-color="#B37E53" stop-opacity="0"/>
<stop offset="1" stop-color="#B37E53"/>
</radialGradient>
<linearGradient id="paint16_linear" x1="49.1003" y1="-6.57057" x2="43.9168" y2="35.416" gradientUnits="userSpaceOnUse">
<stop offset="0.3072" stop-color="#B37E53" stop-opacity="0"/>
<stop offset="1" stop-color="#B37E53"/>
</linearGradient>
</defs>
</svg>
