<svg width="80" height="80" viewBox="0 0 80 80" fill="none" xmlns="http://www.w3.org/2000/svg">
<path d="M42.4023 34.6245C42.2459 36.0371 41.0877 37.7869 40.5746 37.826C40.0664 37.8651 39.6461 36.6334 39.5581 35.4261C39.4702 34.2188 31.9884 39.7664 31.5388 39.9864C31.2016 40.1526 27.4338 40.3187 24.8976 41.6775C24.0521 42.1321 22.5665 44.268 22.3466 44.3022C21.4719 44.4391 20.5531 43.0656 19.7517 40.9248C18.9502 38.784 12.7049 45.5388 13.3401 48.6475C14.1905 52.8167 16.1892 66.1896 21.2275 69.87C29.8382 76.1605 44.0443 74.8653 49.3758 68.6872C54.7074 62.5042 54.9175 58.5989 59.5063 53.5156C63.3913 49.2144 68.3857 49.8743 70.2769 47.6797C71.87 45.837 69.5146 43.0217 68.6154 42.2494C67.0223 40.871 61.1727 39.3901 56.5253 44.7715C54.7172 46.8634 52.4888 48.2418 50.3434 46.3942C48.1981 44.5466 48.7357 40.3041 49.7424 36.868" fill="url(#paint0_linear)"/>
<path d="M19.7516 40.9246C18.9502 38.7837 17.3864 33.0797 16.0474 29.9858C14.7084 26.8919 12.6608 25.8361 10.1734 27.1509C7.69085 28.4657 9.85084 34.2284 10.2907 35.6507C10.9602 37.8306 12.5044 45.3333 13.3401 48.6472" fill="url(#paint1_linear)"/>
<path d="M31.5389 39.986C31.0893 40.2059 29.5792 39.0524 29.1345 35.1325C28.7973 32.1363 28.1523 23.7587 27.258 19.5161C26.3637 15.2736 25.0442 12.8395 22.4493 12.8199C19.8544 12.8004 18.96 16.0556 19.307 19.5748C19.7371 23.9249 20.4799 28.5878 21.1885 33.06C21.7456 36.5548 23.2214 44.1699 22.3467 44.3067" fill="url(#paint2_linear)"/>
<path d="M49.7472 36.8725C50.749 33.4364 52.8552 21.1144 53.6615 17.8494C54.4679 14.5893 52.7673 12.6635 50.6513 12.1601C48.5353 11.6567 46.3167 12.9226 44.9826 19.4379C44.142 23.5485 43.2233 27.1655 42.3974 34.6241L46.5854 38.7445L49.7472 36.8725Z" fill="url(#paint3_linear)"/>
<path d="M39.5581 35.431C39.4701 34.2237 39.5972 22.4834 39.5581 19.9124C39.4848 15.0882 41.4493 6.58842 35.5264 6.02144C32.4135 5.72329 31.7489 8.61195 31.6121 9.88276C31.4703 11.1536 31.5045 25.5284 31.5974 26.8286C31.6951 28.1287 31.9883 39.7762 31.5388 39.9962" fill="url(#paint4_linear)"/>
<path d="M31.2797 40.0156C30.9621 39.9618 30.2389 39.038 29.8333 38.1143C30.0434 38.9256 30.664 40.0205 31.2797 40.0156Z" fill="url(#paint5_linear)"/>
<path d="M68.4003 43.3637C70.1547 44.4048 70.2769 44.8105 70.2427 44.2973C69.7393 43.3784 69.0258 42.6012 68.6202 42.2493C67.0271 40.8709 61.1776 39.39 56.5302 44.7714C54.722 46.8633 52.4936 48.2417 50.3483 46.3941C49.5029 45.6658 49.0142 44.4439 48.765 43.0167C48.9311 50.4314 55.2693 49.0531 58.0402 46.746C60.811 44.439 63.2447 40.3137 68.4003 43.3637Z" fill="url(#paint6_linear)"/>
<path d="M31.5974 26.8187C31.6952 28.1189 31.9884 39.7663 31.5388 39.9863C33.6548 40.1818 34.0165 37.9579 33.7379 34.1894C33.171 26.4668 32.2034 15.9191 33.8454 9.32551C34.0018 8.70477 33.8699 8.03026 33.4447 7.55126C32.3305 6.30978 31.7196 8.89539 31.6121 9.86805C31.4704 11.1437 31.4997 25.5186 31.5974 26.8187Z" fill="url(#paint7_linear)"/>
<path d="M19.3069 19.5702C19.737 23.9203 20.4798 28.5832 21.1884 33.0555C21.7455 36.5502 23.2213 44.1653 22.3466 44.3022C26.9353 43.9893 20.0546 25.6799 20.8121 13.3677C19.4878 14.4381 19.0479 16.9308 19.3069 19.5702Z" fill="url(#paint8_linear)"/>
<path d="M21.4131 44.3558C21.7601 44.4486 21.9947 44.4242 22.1364 44.3216C21.374 44.3411 20.4895 42.8895 19.7516 40.9295C18.9502 38.7886 17.3864 33.0846 16.0474 29.9907C15.4561 28.6319 14.7328 27.6641 13.8923 27.1216C14.7328 28.5781 13.9998 28.5537 15.6662 32.1902C16.5605 34.1355 19.1554 43.7644 21.4131 44.3558Z" fill="url(#paint9_linear)"/>
<path d="M27.3898 29.15C27.595 32.7865 28.7728 39.6293 31.1429 39.9763C30.5956 39.7564 29.4765 38.1776 29.1344 35.1277C28.7972 32.1315 28.1521 23.7539 27.2578 19.5114C26.5345 16.0753 25.5278 13.8269 23.7979 13.084C27.077 17.6638 27.1943 25.7139 27.3898 29.15Z" fill="url(#paint10_linear)"/>
<path d="M38.2875 21.9848C38.4585 27.4347 37.403 37.0342 40.4133 37.7967C39.9783 37.6061 39.6363 36.5112 39.5532 35.431C39.4652 34.2238 39.5923 22.4834 39.5532 19.9124C39.4994 16.5692 40.4279 11.4615 39.0303 8.45068C39.778 12.2582 38.1507 17.5712 38.2875 21.9848Z" fill="url(#paint11_linear)"/>
<path d="M48.7651 43.0217C48.77 43.0217 48.77 43.0217 48.7651 43.0217C48.3839 40.8271 49.1365 38.9551 49.7474 36.8729C50.7492 33.4368 52.8554 21.1148 53.6617 17.8498C53.9061 16.8576 53.9207 15.9876 53.7595 15.2446C53.3929 16.7549 52.3618 18.3386 52.0051 21.3396C51.4284 26.1541 45.9991 43.2269 48.7651 43.0217Z" fill="url(#paint12_linear)"/>
<path d="M52.4155 56.2232C42.0749 68.2079 32.0861 65.676 28.68 63.7796C25.2738 61.8831 22.9135 56.8292 21.335 48.8769L18.7792 40.7241C18.0462 41.1689 15.2802 42.9676 12.4849 44.9911C12.8026 46.4037 13.1007 47.6989 13.3401 48.6472C14.1904 52.8164 16.1892 66.1893 21.2275 69.8697C29.8382 76.1602 44.0443 74.865 49.3758 68.6869C54.7074 62.5039 54.9175 58.5986 59.5063 53.5153C63.3914 49.2141 68.3857 49.874 70.2769 47.6794C71.1419 46.6774 70.8389 45.3919 70.2378 44.2971C68.2684 48.7302 62.7561 44.2433 52.4155 56.2232Z" fill="url(#paint13_radial)"/>
<path d="M49.8499 12.0625C47.9929 12.0625 46.1506 13.7488 44.9875 19.4381C44.1469 23.5487 43.2282 27.1656 42.4023 34.6243C42.2459 36.0369 41.0878 37.7867 40.5746 37.8258C40.6235 37.7867 40.8776 38.0115 41.4005 37.5325C45.6521 33.6321 44.963 24.4334 46.434 19.6092C47.6117 15.7479 48.853 14.086 49.8499 12.0625Z" fill="url(#paint14_linear)"/>
<defs>
<linearGradient id="paint0_linear" x1="22.9086" y1="80.5324" x2="40.8832" y2="48.9673" gradientUnits="userSpaceOnUse">
<stop offset="0.00132565" stop-color="#99643E"/>
<stop offset="1" stop-color="#AE7246"/>
</linearGradient>
<linearGradient id="paint1_linear" x1="-3.20563" y1="65.6616" x2="14.7689" y2="34.0965" gradientUnits="userSpaceOnUse">
<stop offset="0.00132565" stop-color="#99643E"/>
<stop offset="1" stop-color="#AE7246"/>
</linearGradient>
<linearGradient id="paint2_linear" x1="2.13511" y1="68.7027" x2="20.1097" y2="37.1375" gradientUnits="userSpaceOnUse">
<stop offset="0.00132565" stop-color="#99643E"/>
<stop offset="1" stop-color="#AE7246"/>
</linearGradient>
<linearGradient id="paint3_linear" x1="18.4109" y1="77.9707" x2="36.3855" y2="46.4058" gradientUnits="userSpaceOnUse">
<stop offset="0.00132565" stop-color="#99643E"/>
<stop offset="1" stop-color="#AE7246"/>
</linearGradient>
<linearGradient id="paint4_linear" x1="7.36984" y1="71.684" x2="25.3444" y2="40.1189" gradientUnits="userSpaceOnUse">
<stop offset="0.00132565" stop-color="#99643E"/>
<stop offset="1" stop-color="#AE7246"/>
</linearGradient>
<linearGradient id="paint5_linear" x1="38.2248" y1="39.6904" x2="16.6746" y2="37.9486" gradientUnits="userSpaceOnUse">
<stop stop-color="#FFBC47" stop-opacity="0"/>
<stop offset="1" stop-color="#FFA754"/>
</linearGradient>
<linearGradient id="paint6_linear" x1="68.2174" y1="38.2346" x2="39.8776" y2="56.2029" gradientUnits="userSpaceOnUse">
<stop stop-color="#8D562E" stop-opacity="0"/>
<stop offset="1" stop-color="#804B24"/>
</linearGradient>
<linearGradient id="paint7_linear" x1="32.7106" y1="-5.05981" x2="32.7106" y2="72.4553" gradientUnits="userSpaceOnUse">
<stop stop-color="#8D562E" stop-opacity="0"/>
<stop offset="1" stop-color="#804B24"/>
</linearGradient>
<linearGradient id="paint8_linear" x1="21.5876" y1="-5.0598" x2="21.5876" y2="72.4553" gradientUnits="userSpaceOnUse">
<stop stop-color="#8D562E" stop-opacity="0"/>
<stop offset="1" stop-color="#804B24"/>
</linearGradient>
<linearGradient id="paint9_linear" x1="18.0173" y1="-5.06006" x2="18.0173" y2="72.4552" gradientUnits="userSpaceOnUse">
<stop stop-color="#8D562E" stop-opacity="0"/>
<stop offset="1" stop-color="#804B24"/>
</linearGradient>
<linearGradient id="paint10_linear" x1="27.4706" y1="-5.06001" x2="27.4706" y2="72.4551" gradientUnits="userSpaceOnUse">
<stop stop-color="#8D562E" stop-opacity="0"/>
<stop offset="1" stop-color="#804B24"/>
</linearGradient>
<linearGradient id="paint11_linear" x1="39.3288" y1="-5.05975" x2="39.3288" y2="72.4555" gradientUnits="userSpaceOnUse">
<stop stop-color="#8D562E" stop-opacity="0"/>
<stop offset="1" stop-color="#804B24"/>
</linearGradient>
<linearGradient id="paint12_linear" x1="50.9266" y1="-5.05976" x2="50.9266" y2="72.4554" gradientUnits="userSpaceOnUse">
<stop stop-color="#8D562E" stop-opacity="0"/>
<stop offset="1" stop-color="#804B24"/>
</linearGradient>
<radialGradient id="paint13_radial" cx="0" cy="0" r="1" gradientUnits="userSpaceOnUse" gradientTransform="translate(37.6619 33.5076) rotate(-0.963194) scale(34.1344 44.2857)">
<stop offset="0.0267523" stop-color="#8D562E" stop-opacity="0"/>
<stop offset="0.6147" stop-color="#8D562E" stop-opacity="0"/>
<stop offset="1" stop-color="#804B24"/>
</radialGradient>
<linearGradient id="paint14_linear" x1="45.211" y1="-5.05997" x2="45.211" y2="72.4552" gradientUnits="userSpaceOnUse">
<stop stop-color="#8D562E" stop-opacity="0"/>
<stop offset="1" stop-color="#804B24"/>
</linearGradient>
</defs>
</svg>
