<svg width="80" height="80" viewBox="0 0 80 80" fill="none" xmlns="http://www.w3.org/2000/svg">
<g clip-path="url(#clip0)">
<path d="M40.475 69.95C57.3059 69.95 70.95 56.3059 70.95 39.475C70.95 22.6441 57.3059 9 40.475 9C23.6441 9 10 22.6441 10 39.475C10 56.3059 23.6441 69.95 40.475 69.95Z" fill="url(#paint0_radial)"/>
<path d="M40.475 69.95C57.3059 69.95 70.95 56.3059 70.95 39.475C70.95 22.6441 57.3059 9 40.475 9C23.6441 9 10 22.6441 10 39.475C10 56.3059 23.6441 69.95 40.475 69.95Z" fill="url(#paint1_radial)"/>
<path d="M40.475 69.95C57.3059 69.95 70.95 56.3059 70.95 39.475C70.95 22.6441 57.3059 9 40.475 9C23.6441 9 10 22.6441 10 39.475C10 56.3059 23.6441 69.95 40.475 69.95Z" fill="url(#paint2_radial)"/>
<path d="M30.5246 44.1101C32.145 44.1101 33.4587 42.1237 33.4587 39.6735C33.4587 37.2232 32.145 35.2369 30.5246 35.2369C28.9041 35.2369 27.5905 37.2232 27.5905 39.6735C27.5905 42.1237 28.9041 44.1101 30.5246 44.1101Z" fill="url(#paint3_radial)"/>
<path d="M30.5246 36.7393C31.7861 36.7393 32.8775 37.8307 33.4587 39.4608C33.4161 37.0653 32.1263 35.1376 30.5246 35.1376C28.9228 35.1376 27.633 37.0653 27.5905 39.4608C28.1716 37.8307 29.263 36.7393 30.5246 36.7393Z" fill="url(#paint4_linear)"/>
<path d="M50.4254 44.1101C52.0459 44.1101 53.3595 42.1237 53.3595 39.6735C53.3595 37.2232 52.0459 35.2369 50.4254 35.2369C48.805 35.2369 47.4913 37.2232 47.4913 39.6735C47.4913 42.1237 48.805 44.1101 50.4254 44.1101Z" fill="url(#paint5_radial)"/>
<path d="M50.4254 36.8527C49.1639 36.8527 48.0725 37.9442 47.4913 39.5742C47.5339 37.1788 48.8237 35.251 50.4254 35.251C52.0271 35.251 53.317 37.1788 53.3595 39.5742C52.7784 37.9442 51.687 36.8527 50.4254 36.8527Z" fill="url(#paint6_linear)"/>
<path d="M59.3129 28.1355C59.398 29.3545 58.1365 30.2049 55.8686 30.375C53.9408 30.5168 49.646 29.7513 46.4568 26.2077C45.8756 25.5557 46.6694 25.1163 47.2222 25.5274C49.1215 26.9165 54.0542 28.5324 57.7679 27.8662C59.2846 27.5827 59.3129 28.1355 59.3129 28.1355Z" fill="url(#paint7_linear)"/>
<path d="M21.6373 28.1355C21.5523 29.3545 22.8138 30.2049 25.0817 30.375C27.0094 30.5168 31.3043 29.7513 34.4935 26.2077C35.0747 25.5557 34.2809 25.1163 33.7281 25.5274C31.8288 26.9165 26.8961 28.5324 23.1824 27.8662C21.6657 27.5827 21.6373 28.1355 21.6373 28.1355Z" fill="url(#paint8_linear)"/>
<path d="M11.0206 28.2347C11.0206 32.2886 14.3091 35.5629 18.3488 35.5629C22.3885 35.5629 25.677 32.2744 25.677 28.2347C25.677 20.3821 18.3488 12.572 18.3488 12.572C18.3488 12.572 11.0206 20.3821 11.0206 28.2347Z" fill="url(#paint9_linear)"/>
<path opacity="0.5" d="M18.2638 12.657C17.6117 16.6683 13.5437 20.4387 14.4367 28.0929C15.1029 33.7485 23.5792 34.0887 25.6628 28.6741C25.436 32.5153 22.2468 35.5487 18.3488 35.5487C14.2949 35.5487 11.0206 32.2602 11.0206 28.2205C11.0206 20.8781 17.4416 13.5641 18.2638 12.657Z" fill="url(#paint10_radial)"/>
<path d="M18.3488 35.5629C14.2949 35.5629 11.0206 32.2744 11.0206 28.2347C11.0206 21.1617 16.9739 14.117 18.1504 12.7988C16.8747 16.8101 12.7499 22.3948 12.7499 27.8378C12.7499 32.1468 19.0859 37.3772 25.2659 30.6869C24.2454 33.5218 21.538 35.5629 18.3488 35.5629Z" fill="url(#paint11_radial)"/>
<path d="M11.0206 28.2347C11.0206 32.2886 14.3091 35.5629 18.3488 35.5629C22.3885 35.5629 25.677 32.2744 25.677 28.2347C25.677 20.3821 18.3488 12.572 18.3488 12.572C18.3488 12.572 11.0206 20.3821 11.0206 28.2347Z" fill="url(#paint12_radial)"/>
<path d="M11.0206 28.2347C11.0206 32.2886 14.3091 35.5629 18.3488 35.5629C22.3885 35.5629 25.677 32.2744 25.677 28.2347C25.677 20.3821 18.3488 12.572 18.3488 12.572C18.3488 12.572 11.0206 20.3821 11.0206 28.2347Z" fill="url(#paint13_radial)"/>
<path d="M11.0206 28.2347C11.0206 32.2886 14.3091 35.5629 18.3488 35.5629C22.3885 35.5629 25.677 32.2744 25.677 28.2347C25.677 20.3821 18.3488 12.572 18.3488 12.572C18.3488 12.572 11.0206 20.3821 11.0206 28.2347Z" fill="url(#paint14_radial)"/>
<path d="M40.475 62.2817C46.5263 62.2817 51.4318 59.9717 51.4318 57.1222C51.4318 54.2727 46.5263 51.9627 40.475 51.9627C34.4237 51.9627 29.5182 54.2727 29.5182 57.1222C29.5182 59.9717 34.4237 62.2817 40.475 62.2817Z" fill="url(#paint15_radial)"/>
<path d="M40.475 54.0322C45.7762 54.0322 50.1987 55.804 51.2192 58.1569C51.361 57.8309 51.4318 57.4765 51.4318 57.1364C51.4318 54.2873 46.5275 51.9769 40.475 51.9769C34.4225 51.9769 29.5182 54.2873 29.5182 57.1364C29.5182 57.4907 29.5891 57.8309 29.7308 58.1569C30.7514 55.804 35.1738 54.0322 40.475 54.0322Z" fill="url(#paint16_linear)"/>
<path d="M49.164 56.0165C49.164 54.2022 43.0832 52.9407 40.4751 52.9407C37.867 52.9407 31.7861 54.2022 31.7861 56.0165V62.069C31.7861 67.03 35.6841 71.2682 40.4751 71.2682C45.2802 71.2682 49.164 67.03 49.164 62.069V62.0548V56.0165Z" fill="url(#paint17_linear)"/>
<path d="M49.164 56.0165C49.164 54.2022 43.0832 52.9407 40.4751 52.9407C37.867 52.9407 31.7861 54.2022 31.7861 56.0165V62.069C31.7861 67.03 35.6841 71.2682 40.4751 71.2682C45.2802 71.2682 49.164 67.03 49.164 62.069V62.0548V56.0165Z" fill="url(#paint18_radial)"/>
<path d="M39.5679 56.1157H41.368C41.368 67.6537 40.9711 67.8096 40.4609 67.8096C39.9789 67.8096 39.5679 67.597 39.5679 56.1157Z" fill="url(#paint19_linear)"/>
<path d="M40.4751 52.9407C37.867 52.9407 31.7861 54.2022 31.7861 56.0165C31.7861 57.6041 31.7861 59.4326 31.7861 59.4326C31.7861 59.4326 31.8854 54.4999 40.4751 54.4999C49.0506 54.4999 49.164 59.4326 49.164 59.4326C49.164 59.4326 49.164 57.6182 49.164 56.0165C49.164 54.2022 43.0832 52.9407 40.4751 52.9407Z" fill="url(#paint20_linear)"/>
</g>
<defs>
<radialGradient id="paint0_radial" cx="0" cy="0" r="1" gradientUnits="userSpaceOnUse" gradientTransform="translate(33.6066 27.3432) rotate(-29.698) scale(30.7541 25.1242)">
<stop stop-color="#FF9114"/>
<stop offset="1" stop-color="#FF4E0D"/>
</radialGradient>
<radialGradient id="paint1_radial" cx="0" cy="0" r="1" gradientUnits="userSpaceOnUse" gradientTransform="translate(17.5768 25.3824) rotate(72.6921) scale(27.5306 14.8076)">
<stop stop-color="#512D00" stop-opacity="0.5"/>
<stop offset="0.6715" stop-color="#603600" stop-opacity="0.0821785"/>
<stop offset="0.8036" stop-color="#643800" stop-opacity="0"/>
</radialGradient>
<radialGradient id="paint2_radial" cx="0" cy="0" r="1" gradientUnits="userSpaceOnUse" gradientTransform="translate(40.5702 64.1801) scale(15.8006 7.86397)">
<stop stop-color="#7A4400" stop-opacity="0.5"/>
<stop offset="0.6008" stop-color="#894D00" stop-opacity="0.1981"/>
<stop offset="0.995" stop-color="#965500" stop-opacity="0"/>
</radialGradient>
<radialGradient id="paint3_radial" cx="0" cy="0" r="1" gradientUnits="userSpaceOnUse" gradientTransform="translate(29.6342 39.7862) rotate(73.8539) scale(4.30589 2.78584)">
<stop offset="0.00132565" stop-color="#7A4400"/>
<stop offset="1" stop-color="#643800"/>
</radialGradient>
<linearGradient id="paint4_linear" x1="30.5245" y1="35.214" x2="30.5245" y2="39.3499" gradientUnits="userSpaceOnUse">
<stop offset="0.00132565" stop-color="#3C2200"/>
<stop offset="1" stop-color="#512D00"/>
</linearGradient>
<radialGradient id="paint5_radial" cx="0" cy="0" r="1" gradientUnits="userSpaceOnUse" gradientTransform="translate(49.5344 39.7869) rotate(73.8539) scale(4.30589 2.78584)">
<stop offset="0.00132565" stop-color="#7A4400"/>
<stop offset="1" stop-color="#643800"/>
</radialGradient>
<linearGradient id="paint6_linear" x1="50.4239" y1="35.3229" x2="50.4239" y2="39.4588" gradientUnits="userSpaceOnUse">
<stop offset="0.00132565" stop-color="#3C2200"/>
<stop offset="1" stop-color="#512D00"/>
</linearGradient>
<linearGradient id="paint7_linear" x1="53.3295" y1="32.2344" x2="52.9008" y2="28.0967" gradientUnits="userSpaceOnUse">
<stop offset="0.00132565" stop-color="#3C2200"/>
<stop offset="1" stop-color="#7A4400"/>
</linearGradient>
<linearGradient id="paint8_linear" x1="27.6141" y1="32.2308" x2="28.0428" y2="28.0931" gradientUnits="userSpaceOnUse">
<stop offset="0.00132565" stop-color="#3C2200"/>
<stop offset="1" stop-color="#7A4400"/>
</linearGradient>
<linearGradient id="paint9_linear" x1="39.2759" y1="30.2626" x2="-2.09466" y2="18.3058" gradientUnits="userSpaceOnUse">
<stop stop-color="#D0F1FF"/>
<stop offset="0.668" stop-color="#80D9FD"/>
<stop offset="1" stop-color="#0098D5"/>
</linearGradient>
<radialGradient id="paint10_radial" cx="0" cy="0" r="1" gradientUnits="userSpaceOnUse" gradientTransform="translate(19.2153 22.9933) rotate(169.572) scale(11.7452 18.0864)">
<stop offset="0.0599486" stop-color="#80D9FD"/>
<stop offset="0.566" stop-color="#80D9FD"/>
<stop offset="1" stop-color="#0098D5"/>
</radialGradient>
<radialGradient id="paint11_radial" cx="0" cy="0" r="1" gradientUnits="userSpaceOnUse" gradientTransform="translate(16.8656 24.303) rotate(180) scale(9.4952 16.3821)">
<stop offset="0.3432" stop-color="#80D9FD"/>
<stop offset="1" stop-color="#0098D5"/>
</radialGradient>
<radialGradient id="paint12_radial" cx="0" cy="0" r="1" gradientUnits="userSpaceOnUse" gradientTransform="translate(21.2476 21.9757) rotate(-103.604) scale(10.6567 4.69522)">
<stop stop-color="white" stop-opacity="0.25"/>
<stop offset="1" stop-color="white" stop-opacity="0"/>
</radialGradient>
<radialGradient id="paint13_radial" cx="0" cy="0" r="1" gradientUnits="userSpaceOnUse" gradientTransform="translate(19.2033 22.2951) rotate(108.995) scale(16.6623 12.6628)">
<stop offset="0.5858" stop-color="#0098D5" stop-opacity="0"/>
<stop offset="0.7186" stop-color="#1477E5" stop-opacity="0.1604"/>
<stop offset="0.9039" stop-color="#2D4FF8" stop-opacity="0.3839"/>
<stop offset="1" stop-color="#3640FF" stop-opacity="0.5"/>
</radialGradient>
<radialGradient id="paint14_radial" cx="0" cy="0" r="1" gradientUnits="userSpaceOnUse" gradientTransform="translate(21.2476 21.9757) rotate(-103.604) scale(13.3968 5.90251)">
<stop stop-color="white" stop-opacity="0.45"/>
<stop offset="1" stop-color="white" stop-opacity="0"/>
</radialGradient>
<radialGradient id="paint15_radial" cx="0" cy="0" r="1" gradientUnits="userSpaceOnUse" gradientTransform="translate(39.802 57.4355) rotate(58.3958) scale(7.05316 7.626)">
<stop offset="0.00132565" stop-color="#7A4400"/>
<stop offset="1" stop-color="#643800"/>
</radialGradient>
<linearGradient id="paint16_linear" x1="40.475" y1="52.1281" x2="40.475" y2="60.8782" gradientUnits="userSpaceOnUse">
<stop offset="0.00132565" stop-color="#3C2200"/>
<stop offset="1" stop-color="#512D00"/>
</linearGradient>
<linearGradient id="paint17_linear" x1="40.4746" y1="65.3599" x2="40.4746" y2="50.0965" gradientUnits="userSpaceOnUse">
<stop stop-color="#FF6687"/>
<stop offset="1" stop-color="#D83E15"/>
</linearGradient>
<radialGradient id="paint18_radial" cx="0" cy="0" r="1" gradientUnits="userSpaceOnUse" gradientTransform="translate(40.2625 61.5574) rotate(-48.9953) scale(14.2362 16.0324)">
<stop stop-color="white" stop-opacity="0.33"/>
<stop offset="1" stop-color="white" stop-opacity="0"/>
</radialGradient>
<linearGradient id="paint19_linear" x1="40.4742" y1="57.4449" x2="40.4742" y2="75.3971" gradientUnits="userSpaceOnUse">
<stop stop-color="#D83E15" stop-opacity="0"/>
<stop offset="1" stop-color="#D83E15"/>
</linearGradient>
<linearGradient id="paint20_linear" x1="40.4746" y1="61.1816" x2="40.4746" y2="54.3276" gradientUnits="userSpaceOnUse">
<stop stop-color="#D83E15" stop-opacity="0"/>
<stop offset="1" stop-color="#BC2719"/>
</linearGradient>
<clipPath id="clip0">
<rect width="60.95" height="62.2682" fill="white" transform="translate(10 9)"/>
</clipPath>
</defs>
</svg>
