<svg width="80" height="80" viewBox="0 0 80 80" fill="none" xmlns="http://www.w3.org/2000/svg">
<path d="M52.9549 40.586C52.5046 38.9889 51.5197 38.49 51.0564 38.341C50.9009 38.2924 50.8037 38.2794 50.8037 38.2794L42.0113 35.0527L29.4124 41.5579L32.2049 49.9033C34.91 49.5015 37.6151 49.4627 40.3332 49.5016C45.1246 49.5696 49.9485 49.8935 54.8339 48.9378C54.8987 46.0254 53.4797 42.4521 52.9549 40.586Z" fill="url(#paint0_linear)"/>
<path d="M19.4051 50.6999C19.4051 53.0001 20.5325 54.0335 21.0962 54.4093C21.2841 54.5324 21.4104 54.5842 21.4104 54.5842L31.9328 62.1942L51.1925 58.2483L50.6029 46.064C46.8449 45.5813 43.2165 44.6191 39.6043 43.5468C33.2351 41.6516 26.9211 39.413 20.04 38.8525C18.8543 42.711 19.4051 48.0143 19.4051 50.6999Z" fill="url(#paint1_linear)"/>
<path d="M39.9153 51.0605C44.6581 50.5616 47.6677 54.4427 48.0435 56.461L49.5921 55.8973L48.8891 48.1481L43.8644 44.9084L39.0924 39.8351L30.3356 39.6472L29.0365 35.5783C29.0009 35.5783 28.6737 35.5718 28.6413 35.5718L22.1069 36.2391C21.4007 36.5015 20.8921 36.845 20.6588 37.2985C19.7906 38.9928 19.4601 41.1925 19.3435 43.3923C20.364 45.443 22.6544 46.5056 24.6533 46.5056C27.002 46.5056 28.4113 44.7205 29.2568 43.2173C29.2568 43.2173 29.4123 45.9419 33.1865 46.9753C33.1865 46.9721 35.992 51.4719 39.9153 51.0605Z" fill="url(#paint2_linear)"/>
<path d="M24.5983 45.5621C21.8316 45.5621 19.5412 43.3074 19.1589 39.0796C19.1168 38.6293 18.3393 30.3423 23.0724 30.3423C27.4621 30.3423 28.7029 32.0334 28.988 37.6704C29.2731 43.3074 27.4589 45.5621 24.5983 45.5621Z" fill="url(#paint3_linear)"/>
<path d="M35.0818 46.2196C31.664 46.2196 29.9567 44.7196 29.4837 40.4433C29.4318 39.9638 26.5324 28.4922 33.2255 28.0516C39.2382 27.6564 39.3549 31.3755 39.3549 37.5762C39.3549 43.7768 38.0266 46.2196 35.0818 46.2196Z" fill="url(#paint4_linear)"/>
<path d="M34.8904 40.3009C32.2793 41.6162 30.5266 41.6421 29.4089 39.8473C29.4349 40.0482 29.464 40.2522 29.4834 40.4434C29.9564 44.7197 31.667 46.2197 35.0815 46.2197C37.4854 46.2197 38.8104 44.5869 39.2153 40.6119C38.5447 39.4553 36.4292 39.5266 34.8904 40.3009Z" fill="url(#paint5_linear)"/>
<path d="M24.5042 40.1131C22.1749 40.1131 20.2474 38.665 19.9266 35.9501C20.053 37.0127 19.0778 30.3423 23.2181 30.3423C26.9113 30.3423 27.9545 31.4276 28.1974 35.0463C28.4372 38.6682 26.9113 40.1131 24.5042 40.1131Z" fill="url(#paint6_linear)"/>
<path d="M34.6087 39.831C29.4091 39.831 27.6338 28.3691 33.3777 28.0419C38.3117 27.7601 38.3117 31.3658 38.4153 34.4273C38.5611 38.8364 37.0223 39.831 34.6087 39.831Z" fill="url(#paint7_linear)"/>
<path d="M33.0439 45.9672C33.6433 46.1324 34.3139 46.2231 35.0817 46.2231C38.0233 46.2231 39.3515 43.7804 39.3515 37.5798C39.3515 31.6026 39.2284 27.9418 33.8377 28.039C35.9596 29.3057 37.6896 32.1858 37.6896 37.3919C37.6896 44.7977 36.0277 45.951 33.0439 45.9672Z" fill="url(#paint8_linear)"/>
<path d="M24.624 42.9314C21.8088 42.9314 19.4827 40.6928 19 36.5137C19.0194 37.3527 19.081 38.221 19.1587 39.0795C19.541 43.3072 21.8315 45.562 24.5981 45.562C27.2838 45.562 29.0202 43.5405 28.9943 38.6389C28.4209 41.6485 26.8237 42.9314 24.624 42.9314Z" fill="url(#paint9_linear)"/>
<path d="M28.9877 37.6708C28.7156 32.3027 27.5687 30.5144 23.6682 30.3589C25.7124 30.6958 29.6778 38.5811 24.2222 45.5237C24.3485 45.5334 24.4717 45.5625 24.598 45.5625C27.4586 45.5625 29.2728 43.3078 28.9877 37.6708Z" fill="url(#paint10_linear)"/>
<path d="M28.8097 35.5684C29.0364 37.3599 29.26 39.1838 28.9814 40.998C28.8583 41.9019 28.6347 42.8058 28.1941 43.6286C27.773 44.458 27.0343 45.1448 26.1434 45.4849C24.3454 46.0745 22.2558 45.5238 21.0248 44.1178C19.7419 42.7507 19.2624 40.8652 19.1555 39.0801C19.3985 40.8555 19.9589 42.6664 21.1933 43.9558C22.3952 45.2744 24.3811 45.7247 26.0203 45.1513C27.7244 44.5746 28.4986 42.6859 28.7481 40.9624C29.0364 39.187 28.9004 37.3728 28.8097 35.5684Z" fill="#975500"/>
<path d="M33.7341 46.1065C33.1574 46.2912 32.6293 46.0352 32.1466 45.789C31.6607 45.5331 31.2201 45.18 30.8637 44.762C30.1381 43.923 29.759 42.8733 29.5322 41.8334C29.3249 40.7773 29.2957 39.7276 29.1467 38.6877C29.0171 37.6445 28.9038 36.5949 28.8584 35.542C28.9912 36.5884 29.1726 37.6218 29.3443 38.6618C29.5452 39.6952 29.6327 40.7578 29.8789 41.7589C30.1121 42.7599 30.4879 43.7513 31.1618 44.5061C31.4922 44.8819 31.8939 45.1961 32.341 45.4229C32.7913 45.6659 33.2773 45.7275 33.7341 46.1065Z" fill="#975500"/>
<path d="M39.9153 51.0601C35.9921 51.4748 33.1865 46.975 33.1865 46.975C29.4091 45.9415 29.2568 43.217 29.2568 43.217C28.4113 44.7202 27.002 46.5052 24.6533 46.5052C22.6544 46.5052 20.364 45.4394 19.3435 43.3919C19.3662 42.9351 19.4083 42.4816 19.4537 42.0312H19.4375C19.3111 43.2688 19.2787 44.5323 19.2852 45.7406C21.3067 48.057 24.4719 48.3842 26.4934 47.7881C27.0409 47.6261 29.597 45.6985 31.5699 47.6358C33.7113 49.7384 36.1994 52.4273 40.4725 52.3333C44.7456 52.2394 48.0435 56.4671 48.0435 56.4671C47.6677 54.4424 44.6581 50.5612 39.9153 51.0601Z" fill="url(#paint11_linear)"/>
<path opacity="0.75" d="M59.2783 52.5309C60.0785 51.4521 56.0743 44.7655 52.8768 42.961C49.6793 41.1565 43.3846 42.2289 42.8728 43.4956C42.3609 44.7623 48.4255 46.1877 51.2796 48.5721C56.2039 52.6897 58.4782 53.6097 59.2783 52.5309Z" fill="url(#paint12_radial)"/>
<path d="M48.7012 35.2378C48.7206 34.8458 48.74 34.4214 48.7562 33.9679C49.0381 26.5491 48.996 11.6013 49.3329 9.63486C49.6893 7.54853 50.8361 6.00324 53.8328 6C56.8294 5.99676 58.2905 8.80552 57.9374 12.5959C57.5875 16.3831 58.3456 30.5403 58.5724 35.309C58.9255 42.6922 60.1209 54.1379 60.1209 54.1379L49.0057 46.5344L48.7012 35.2378Z" fill="url(#paint13_linear)"/>
<path d="M58.5757 35.3095C58.3489 30.5407 57.5876 16.3867 57.9407 12.5963C58.1675 10.1342 57.6167 8.0997 56.3889 6.96582C57.4353 10.2605 57.0109 15.1524 57.3155 28.1369C57.6977 44.3222 59.0292 49.7486 59.0292 49.7486L59.635 49.1687C59.2625 45.1839 58.7798 39.5728 58.5757 35.3095Z" fill="url(#paint14_linear)"/>
<path d="M50.3665 22.713C50.1559 15.0772 49.8935 9.81276 50.9399 6.78369C50.0198 7.43486 49.5404 8.43915 49.3363 9.63458C48.9993 11.601 49.0415 26.5488 48.7596 33.9676C48.7434 34.4211 49.0641 38.7687 48.7305 40.5149L48.575 40.8227L49.5598 40.9393C49.5566 40.9425 50.6516 32.9957 50.3665 22.713Z" fill="url(#paint15_linear)"/>
<path opacity="0.75" d="M51.011 9.49233C50.3404 8.74073 51.8015 7.37359 53.0553 7.07231C54.3122 6.77102 55.8737 7.13711 56.5444 7.8887C57.215 8.6403 56.1945 9.38864 55.3068 10.056C53.7745 11.2061 51.6784 10.2439 51.011 9.49233Z" fill="url(#paint16_radial)"/>
<path d="M44.6107 44.2677C41.3776 44.164 39.6314 42.7839 39.4759 38.9384C39.2977 34.5649 37.7978 27.9237 43.7458 27.7455C49.4475 27.577 49.0685 31.1406 48.8936 36.6772C48.7219 42.217 47.3936 44.3551 44.6107 44.2677Z" fill="url(#paint17_linear)"/>
<path d="M44.3697 38.2861C41.859 39.5333 40.197 39.5074 39.1992 37.6641C39.2187 37.8682 39.2381 38.0755 39.2511 38.2667C39.5653 42.5916 41.1333 44.1563 44.3665 44.26C46.6407 44.3345 47.9463 42.7276 48.4549 38.7331C47.8556 37.5442 45.8502 37.5507 44.3697 38.2861Z" fill="url(#paint18_linear)"/>
<path d="M44.1396 38.6009C41.4864 38.5167 40.4983 38.2931 40.1452 35.2252C39.9637 33.6475 39.0081 27.8809 43.887 27.7416C48.565 27.6088 48.0693 31.4834 48.0693 34.574C48.0693 39.0221 46.4236 38.6754 44.1396 38.6009Z" fill="url(#paint19_linear)"/>
<path d="M42.6882 43.9754C43.2519 44.1406 43.8837 44.254 44.6093 44.2638C48.4904 44.3285 48.7172 42.2131 48.8922 36.6765C49.0606 31.3408 49.4299 27.8258 44.3243 27.748C46.294 28.9435 47.47 31.8073 47.3242 36.4562C47.1168 43.0748 45.5132 44.0532 42.6882 43.9754Z" fill="url(#paint20_linear)"/>
<path d="M43.0933 44.1016C42.4875 44.2765 41.9562 43.959 41.4832 43.6545C41.007 43.3338 40.6118 42.8964 40.3234 42.4105C39.7468 41.4289 39.5265 40.3144 39.4098 39.2324C39.2187 37.0424 39.4358 34.8815 39.1604 32.7207C39.601 34.8556 39.4325 37.0683 39.7371 39.1935C39.8926 40.2496 40.1064 41.3219 40.6539 42.2096C40.9228 42.6502 41.2791 43.0325 41.7067 43.3143C42.1409 43.6189 42.6463 43.6837 43.0933 44.1016Z" fill="#975500"/>
<path d="M46.4172 28.0361C46.9907 28.2078 47.5414 28.5124 47.9561 28.9724C48.361 29.4357 48.6299 30.0123 48.7822 30.6019C49.0997 31.7876 49.1321 33.0122 49.1483 34.2141C49.1191 35.4193 49.0705 36.6212 49.0025 37.8199C48.9733 38.416 48.9668 39.0218 48.9215 39.6244C48.8923 39.9256 48.8826 40.2302 48.8081 40.5315C48.7433 40.7906 48.6202 41.241 48.2509 41.215C48.5489 41.1146 48.5327 40.7582 48.6105 40.4926C48.6526 40.2042 48.6915 39.9095 48.6979 39.6114C48.7239 39.0153 48.7109 38.416 48.7174 37.8102L48.7951 34.2077C48.8178 33.0155 48.8372 31.8071 48.5748 30.6538C48.3416 29.4972 47.5738 28.4508 46.4172 28.0361Z" fill="#975500"/>
<path d="M33.1863 43.9363C33.1863 41.4321 34.9584 41.3511 39.7013 40.9299C43.0932 40.6286 46.7799 39.741 51.4774 41.5552C56.839 43.6286 61.8734 46.6285 61.9382 52.016C61.9933 56.8398 58.2418 74.0002 41.833 74.0002C25.4242 74.0002 19.9135 65.2305 19.4114 50.7007L48.0498 56.464C48.0498 56.464 48.6589 51.3454 45.1536 49.826C43.6569 49.1781 40.4561 49.6996 38.3277 49.6996C36.1992 49.6996 33.1863 47.3185 33.1863 43.9363Z" fill="url(#paint21_linear)"/>
<path d="M53.5411 63.1307C46.5888 68.204 47.1525 71.0225 40.67 71.0225C34.1875 71.0225 30.0051 67.5949 27.0473 64.6339C24.0895 61.6761 21.5982 56.7421 20.3769 52.9841C20.0885 52.0965 19.7516 51.3578 19.4082 50.7261C19.9168 65.2397 25.4307 73.9965 41.8298 73.9965C58.2386 73.9965 61.9901 56.8361 61.935 52.0122C61.9091 49.9032 61.1154 48.1635 59.8455 46.6992C60.2051 53.5899 59.2494 58.9645 53.5411 63.1307Z" fill="url(#paint22_radial)"/>
<path d="M49.7184 51.4514C49.5921 48.445 45.8989 45.4386 42.8277 45.7529C40.1777 46.0218 35.3798 46.3846 33.2351 44.4214C33.5105 47.5379 36.2933 49.6988 38.3181 49.6988C40.4466 49.6988 43.6473 49.1772 45.144 49.8251C48.6526 51.3445 48.0403 56.4631 48.0403 56.4631C48.0403 56.4631 49.8448 54.4578 49.7184 51.4514Z" fill="url(#paint23_radial)"/>
<path d="M61.9318 52.0153C61.8702 46.6278 56.8326 43.6279 51.471 41.5545C46.7735 39.7371 43.0868 40.628 39.6949 40.9292C36.0794 41.25 34.1972 41.3796 33.5039 42.5329C37.9617 41.4314 42.1376 40.9811 47.2854 41.5707C53.9947 42.3385 59.0647 46.4723 59.988 49.6342C60.8984 52.7604 60.7655 58.5789 60.7623 58.7182C61.6337 55.9191 61.948 53.431 61.9318 52.0153Z" fill="url(#paint24_linear)"/>
<path d="M48.0437 56.4606C48.1279 55.2425 48.0275 53.9984 47.6387 52.8419C47.2662 51.695 46.5308 50.6162 45.4455 50.0785C44.3894 49.4856 43.1 49.599 41.8981 49.6217C40.6767 49.6703 39.4619 49.816 38.2211 49.8063C35.6715 49.5828 33.5981 47.4122 33.1348 44.9598C33.0215 44.341 32.9891 43.7093 33.1154 43.0743C33.2482 42.4361 33.7374 41.853 34.3367 41.6133C35.5224 41.1079 36.7697 41.0496 37.9846 40.9038C40.4305 40.7515 42.8408 40.3142 45.3191 40.298C47.791 40.2623 50.2564 40.8357 52.5014 41.8368C54.7562 42.7957 56.9819 43.9199 58.8382 45.5592C60.6913 47.1725 61.9742 49.531 61.9353 52.0125C61.9158 49.531 60.5908 47.2373 58.7248 45.6887C56.8782 44.0916 54.6623 42.9869 52.414 42.0538C50.1754 41.0787 47.7618 40.5409 45.3256 40.5928C42.8991 40.6252 40.4662 41.0852 38.0235 41.2537C36.8183 41.3832 35.5646 41.448 34.4825 41.9048C33.9383 42.1251 33.556 42.5819 33.4232 43.1424C33.3033 43.7061 33.326 44.3216 33.4296 44.9047C33.8346 47.2308 35.8497 49.3495 38.234 49.5698C39.4424 49.586 40.6703 49.4564 41.8948 49.4143C43.1 49.4046 44.412 49.2848 45.533 49.923C46.6506 50.5126 47.3763 51.6432 47.7262 52.8127C48.089 53.9952 48.1571 55.2457 48.0437 56.4606Z" fill="#975500"/>
<path opacity="0.75" d="M22.4275 51.1969C20.9211 53.0111 25.5019 63.4557 30.0245 66.0896C34.547 68.7202 40.2131 67.9135 41.3179 65.8239C42.4226 63.7343 37.7219 60.4817 33.8764 56.8825C27.2416 50.6688 23.9372 49.3827 22.4275 51.1969Z" fill="url(#paint25_radial)"/>
<path d="M36.0566 28.2529C36.6333 28.3987 37.2002 28.6384 37.6765 29.024C38.1527 29.4127 38.4896 29.944 38.7326 30.498C39.225 31.6189 39.3578 32.8435 39.4615 34.0357C39.5198 35.2376 39.5231 36.433 39.4972 37.6285C39.4874 38.2213 39.5004 38.8206 39.4712 39.4232C39.4485 39.7245 39.4485 40.029 39.3773 40.3303C39.3222 40.5927 39.1861 41.0366 38.8233 41.0074C39.1213 40.9038 39.1149 40.5603 39.1797 40.2947C39.2153 40.0064 39.2477 39.7148 39.2477 39.4168C39.2574 38.8239 39.2218 38.2311 39.2088 37.6285C39.1764 36.433 39.1894 35.2409 39.1084 34.0584C39.0436 32.8791 38.9658 31.6772 38.5317 30.5855C38.143 29.471 37.2035 28.6158 36.0566 28.2529Z" fill="#975500"/>
<defs>
<linearGradient id="paint0_linear" x1="52.2499" y1="40.9164" x2="24.6635" y2="48.683" gradientUnits="userSpaceOnUse">
<stop offset="0.00132565" stop-color="#FFCB4B"/>
<stop offset="1" stop-color="#FFD748"/>
</linearGradient>
<linearGradient id="paint1_linear" x1="20.4834" y1="50.5199" x2="60.2156" y2="50.5199" gradientUnits="userSpaceOnUse">
<stop offset="0.00132565" stop-color="#FFCB4B"/>
<stop offset="1" stop-color="#FFD748"/>
</linearGradient>
<linearGradient id="paint2_linear" x1="32.1227" y1="69.271" x2="36.4442" y2="32.6316" gradientUnits="userSpaceOnUse">
<stop stop-color="#A1541E" stop-opacity="0"/>
<stop offset="1" stop-color="#C86F34"/>
</linearGradient>
<linearGradient id="paint3_linear" x1="24.0518" y1="36.6384" x2="24.0518" y2="54.044" gradientUnits="userSpaceOnUse">
<stop offset="0.00132565" stop-color="#FFCB4B"/>
<stop offset="1" stop-color="#FFD748"/>
</linearGradient>
<linearGradient id="paint4_linear" x1="34.0842" y1="36.6382" x2="34.0842" y2="54.0438" gradientUnits="userSpaceOnUse">
<stop offset="0.00132565" stop-color="#FFCB4B"/>
<stop offset="1" stop-color="#FFD748"/>
</linearGradient>
<linearGradient id="paint5_linear" x1="34.3132" y1="36.204" x2="34.3132" y2="59.2684" gradientUnits="userSpaceOnUse">
<stop stop-color="#FFBC47" stop-opacity="0"/>
<stop offset="1" stop-color="#C86F34"/>
</linearGradient>
<linearGradient id="paint6_linear" x1="24.0659" y1="39.175" x2="24.0659" y2="25.8133" gradientUnits="userSpaceOnUse">
<stop offset="0.00132565" stop-color="#FFCB4B"/>
<stop offset="1" stop-color="#FFD748"/>
</linearGradient>
<linearGradient id="paint7_linear" x1="34.1191" y1="39.1748" x2="34.1191" y2="25.8131" gradientUnits="userSpaceOnUse">
<stop offset="0.00132565" stop-color="#FFCB4B"/>
<stop offset="1" stop-color="#FFD748"/>
</linearGradient>
<linearGradient id="paint8_linear" x1="27.3328" y1="32.945" x2="70.2486" y2="57.3247" gradientUnits="userSpaceOnUse">
<stop stop-color="#FFBC47" stop-opacity="0"/>
<stop offset="1" stop-color="#C86F34"/>
</linearGradient>
<linearGradient id="paint9_linear" x1="23.9026" y1="36.1976" x2="25.0933" y2="55.9381" gradientUnits="userSpaceOnUse">
<stop stop-color="#FFBC47" stop-opacity="0"/>
<stop offset="1" stop-color="#C86F34"/>
</linearGradient>
<linearGradient id="paint10_linear" x1="13.4658" y1="30.706" x2="79.6962" y2="72.7611" gradientUnits="userSpaceOnUse">
<stop stop-color="#FFBC47" stop-opacity="0"/>
<stop offset="1" stop-color="#C86F34"/>
</linearGradient>
<linearGradient id="paint11_linear" x1="30.8717" y1="57.9957" x2="39.9846" y2="30.1873" gradientUnits="userSpaceOnUse">
<stop stop-color="#FFBC47" stop-opacity="0"/>
<stop offset="1" stop-color="#C86F34"/>
</linearGradient>
<radialGradient id="paint12_radial" cx="0" cy="0" r="1" gradientUnits="userSpaceOnUse" gradientTransform="translate(51.585 46.0198) rotate(38.2129) scale(10.1516 3.7379)">
<stop stop-color="#FBE07A"/>
<stop offset="0.2654" stop-color="#FCDF73" stop-opacity="0.7346"/>
<stop offset="0.6548" stop-color="#FDDB5F" stop-opacity="0.3452"/>
<stop offset="1" stop-color="#FFD748" stop-opacity="0"/>
</radialGradient>
<linearGradient id="paint13_linear" x1="54.4127" y1="59.953" x2="54.4127" y2="29.9584" gradientUnits="userSpaceOnUse">
<stop offset="0.00132565" stop-color="#FFBA47"/>
<stop offset="1" stop-color="#FFD748"/>
</linearGradient>
<linearGradient id="paint14_linear" x1="58.0131" y1="0.437088" x2="58.0131" y2="56.9881" gradientUnits="userSpaceOnUse">
<stop stop-color="#FFBC47" stop-opacity="0"/>
<stop offset="1" stop-color="#FFBC47"/>
</linearGradient>
<linearGradient id="paint15_linear" x1="49.7553" y1="0.356078" x2="49.7553" y2="57.6226" gradientUnits="userSpaceOnUse">
<stop stop-color="#FFBC47" stop-opacity="0"/>
<stop offset="1" stop-color="#FFBC47"/>
</linearGradient>
<radialGradient id="paint16_radial" cx="0" cy="0" r="1" gradientUnits="userSpaceOnUse" gradientTransform="translate(53.8254 8.77694) rotate(166.543) scale(2.93269 1.55304)">
<stop stop-color="#FBE07A"/>
<stop offset="0.2818" stop-color="#FBDF76" stop-opacity="0.7182"/>
<stop offset="0.5661" stop-color="#FCDD6A" stop-opacity="0.4339"/>
<stop offset="0.8509" stop-color="#FED956" stop-opacity="0.1491"/>
<stop offset="1" stop-color="#FFD748" stop-opacity="0"/>
</radialGradient>
<linearGradient id="paint17_linear" x1="44.0281" y1="35.555" x2="43.5259" y2="51.3391" gradientUnits="userSpaceOnUse">
<stop offset="0.00132565" stop-color="#FFCB4B"/>
<stop offset="1" stop-color="#FFD748"/>
</linearGradient>
<linearGradient id="paint18_linear" x1="43.9624" y1="34.1427" x2="43.2227" y2="57.3926" gradientUnits="userSpaceOnUse">
<stop stop-color="#FFBC47" stop-opacity="0"/>
<stop offset="1" stop-color="#C86F34"/>
</linearGradient>
<linearGradient id="paint19_linear" x1="43.8785" y1="37.9974" x2="44.2695" y2="25.7065" gradientUnits="userSpaceOnUse">
<stop offset="0.00132565" stop-color="#FFCB4B"/>
<stop offset="1" stop-color="#FFD748"/>
</linearGradient>
<linearGradient id="paint20_linear" x1="38.1886" y1="32.0723" x2="77.1506" y2="55.8742" gradientUnits="userSpaceOnUse">
<stop stop-color="#FFBC47" stop-opacity="0"/>
<stop offset="1" stop-color="#C86F34"/>
</linearGradient>
<linearGradient id="paint21_linear" x1="20.4832" y1="57.222" x2="60.2155" y2="57.222" gradientUnits="userSpaceOnUse">
<stop offset="0.00132565" stop-color="#FFCB4B"/>
<stop offset="1" stop-color="#FFD748"/>
</linearGradient>
<radialGradient id="paint22_radial" cx="0" cy="0" r="1" gradientUnits="userSpaceOnUse" gradientTransform="translate(39.9617 15.5942) scale(71.2209)">
<stop offset="0.6134" stop-color="#FFBC47" stop-opacity="0"/>
<stop offset="1" stop-color="#FF8900"/>
</radialGradient>
<radialGradient id="paint23_radial" cx="0" cy="0" r="1" gradientUnits="userSpaceOnUse" gradientTransform="translate(45.3648 41.7777) scale(46.4148 19.8748)">
<stop stop-color="#FFBC47" stop-opacity="0"/>
<stop offset="1" stop-color="#FFA754"/>
</radialGradient>
<linearGradient id="paint24_linear" x1="49.9602" y1="36.9546" x2="43.4465" y2="69.3977" gradientUnits="userSpaceOnUse">
<stop stop-color="#FFBC47" stop-opacity="0"/>
<stop offset="1" stop-color="#FFBC47"/>
</linearGradient>
<radialGradient id="paint25_radial" cx="0" cy="0" r="1" gradientUnits="userSpaceOnUse" gradientTransform="translate(31.3601 60.2069) rotate(-138.967) scale(13.1656 6.00762)">
<stop stop-color="#FBE07A"/>
<stop offset="0.2654" stop-color="#FCDF73" stop-opacity="0.7346"/>
<stop offset="0.6548" stop-color="#FDDB5F" stop-opacity="0.3452"/>
<stop offset="1" stop-color="#FFD748" stop-opacity="0"/>
</radialGradient>
</defs>
</svg>
