<svg width="80" height="80" viewBox="0 0 80 80" fill="none" xmlns="http://www.w3.org/2000/svg">
<path d="M40.475 70.95C57.3059 70.95 70.95 57.3059 70.95 40.475C70.95 23.6441 57.3059 10 40.475 10C23.6441 10 10 23.6441 10 40.475C10 57.3059 23.6441 70.95 40.475 70.95Z" fill="url(#paint0_radial)"/>
<path opacity="0.5" d="M40.475 70.95C57.3059 70.95 70.95 57.3059 70.95 40.475C70.95 23.6441 57.3059 10 40.475 10C23.6441 10 10 23.6441 10 40.475C10 57.3059 23.6441 70.95 40.475 70.95Z" fill="url(#paint1_radial)"/>
<path d="M39.5427 63.0086C42.7157 62.4529 45.6915 61.5028 45.6915 59.9611C45.6915 58.4194 41.2099 57.0391 41.2099 56.1427C41.2099 55.2464 45.6915 53.8482 45.6915 52.3244C45.6915 50.8007 42.7157 49.8326 39.5427 49.2769C39.5427 49.2769 53.8301 48.4523 53.8301 56.1427C53.8301 63.8332 39.5427 63.0086 39.5427 63.0086Z" fill="url(#paint2_radial)"/>
<g opacity="0.75">
<path opacity="0.75" d="M41.2099 56.1606C41.2099 55.2643 45.6915 53.8661 45.6915 52.3423C45.6915 50.8186 42.7157 49.8505 39.5427 49.2948" fill="url(#paint3_radial)"/>
<path opacity="0.75" d="M41.2099 56.1607C41.2099 57.057 45.6915 58.4553 45.6915 59.979C45.6915 61.5207 42.7157 62.4708 39.5427 63.0265" fill="url(#paint4_radial)"/>
</g>
<path d="M39.507 62.8293C40.5826 62.5963 41.6582 62.3274 42.68 61.9688C43.1999 61.7896 43.6839 61.5745 44.15 61.3235C44.5981 61.0725 45.0284 60.7498 45.2256 60.3734C45.2614 60.2837 45.2973 60.1941 45.3152 60.0866C45.3152 60.0507 45.3152 59.979 45.3152 59.9431C45.3152 59.9252 45.3152 59.9073 45.3152 59.8894L45.2973 59.8356C45.2435 59.6742 45.1001 59.495 44.9387 59.3157C44.5802 58.9751 44.132 58.6883 43.666 58.4194C43.1999 58.1505 42.7159 57.8816 42.2139 57.5948C41.9629 57.4514 41.7299 57.308 41.4789 57.1287C41.3534 57.0391 41.228 56.9315 41.1025 56.806L41.0128 56.6985C40.977 56.6626 40.9411 56.6088 40.9232 56.555C40.8874 56.5192 40.8694 56.4296 40.8336 56.3758C40.8156 56.3041 40.7977 56.2144 40.7977 56.1248C40.7977 56.0352 40.8156 55.9455 40.8336 55.8738C40.8515 55.8201 40.8874 55.7304 40.9232 55.6946C40.9591 55.6408 40.977 55.587 41.0128 55.5512L41.1025 55.4436C41.228 55.3181 41.3534 55.2106 41.4789 55.1209C41.7299 54.9417 41.9629 54.7803 42.2139 54.6369C42.6979 54.3501 43.1819 54.0812 43.648 53.7944C44.5264 53.2566 45.5841 52.5216 45.1539 51.9479C44.9746 51.6073 44.5623 51.3026 44.1141 51.0516C43.666 50.8007 43.164 50.5855 42.6621 50.4063C41.6403 50.0298 40.5826 49.743 39.5249 49.4382C39.4174 49.4024 39.3636 49.3128 39.3995 49.2052C39.4174 49.1156 39.507 49.0618 39.5966 49.0618C40.7081 49.1514 41.8195 49.3307 42.931 49.6354C43.4867 49.7968 44.0245 49.976 44.5623 50.2449C44.8312 50.3883 45.1001 50.5318 45.3331 50.7289C45.5841 50.9261 45.8171 51.1771 45.9964 51.4998C46.086 51.6611 46.1577 51.8404 46.1757 52.0376C46.1936 52.1272 46.1936 52.2348 46.1936 52.3423C46.1936 52.3961 46.1757 52.4499 46.1757 52.5037C46.1577 52.5574 46.1577 52.6112 46.1398 52.665C46.1219 52.7726 46.0681 52.8443 46.0323 52.9339C45.9785 53.0056 45.9426 53.0952 45.8888 53.1669C45.8351 53.2387 45.7813 53.3104 45.7275 53.3641C45.6737 53.4358 45.6199 53.4896 45.5662 53.5434C45.118 53.9916 44.6161 54.2963 44.132 54.5831C43.648 54.87 43.164 55.1389 42.68 55.4257C42.447 55.5691 42.2139 55.6946 42.0167 55.838C41.9092 55.9097 41.8195 55.9814 41.7478 56.0531L41.712 56.1069C41.694 56.1248 41.694 56.1248 41.694 56.1427C41.6761 56.1607 41.694 56.1427 41.694 56.1427C41.694 56.1427 41.712 56.1069 41.694 56.1069C41.694 56.089 41.694 56.071 41.694 56.071C41.712 56.089 41.712 56.089 41.712 56.1069L41.7478 56.1607C41.8195 56.2324 41.9092 56.3041 41.9988 56.3758C42.196 56.5192 42.429 56.6626 42.6621 56.806C43.1282 57.0928 43.6122 57.3617 44.0962 57.6665C44.5802 57.9712 45.0642 58.2939 45.4945 58.7241C45.602 58.8317 45.7096 58.9572 45.7992 59.1006C45.853 59.1723 45.8888 59.244 45.9247 59.3157C45.9605 59.4054 45.9964 59.4771 46.0323 59.5846C46.1398 59.979 46.0502 60.3555 45.8888 60.6602C45.7275 60.965 45.4945 61.198 45.2435 61.3952C44.9925 61.5924 44.7415 61.7358 44.4906 61.8613C43.9707 62.1302 43.4329 62.3094 42.8772 62.4708C41.7837 62.7935 40.6902 62.9906 39.5787 63.152C39.4712 63.1699 39.3815 63.0982 39.3636 62.9906C39.3457 62.9369 39.4174 62.8472 39.507 62.8293Z" fill="#A2541E"/>
<path d="M32.4262 27.4245C32.1035 26.2414 30.6156 25.8649 28.4286 26.4744C26.5642 26.9943 22.7817 29.1634 20.9711 33.5554C20.6485 34.3621 21.5448 34.5055 21.9212 33.9318C23.2478 31.9778 27.335 28.8049 31.0637 28.1774C32.5696 27.9444 32.4262 27.4245 32.4262 27.4245Z" fill="url(#paint5_linear)"/>
<path d="M32.2288 36.8897C30.1135 35.5811 27.3886 35.7245 25.4167 37.2124C24.4129 37.9653 23.4269 39.1484 22.8353 40.959C22.7457 41.2638 22.674 41.5864 22.6561 41.9091C22.6202 42.5545 23.0684 43.146 23.8033 42.4648C29.4323 37.1586 33.3761 42.6262 33.3761 42.6262C34.129 43.1819 34.9357 42.0346 34.7564 40.959C34.7027 40.6543 34.6668 40.3316 34.5951 40.0448C34.1469 38.4852 33.2148 37.4992 32.2288 36.8897Z" fill="url(#paint6_radial)"/>
<path d="M34.5773 40.0268C34.3801 39.3815 34.1112 38.8437 33.8064 38.3776C33.3583 37.7322 32.8026 37.2482 32.2289 36.8897C30.1136 35.5811 27.3888 35.7245 25.4169 37.2124C24.413 37.9653 23.427 39.1484 22.8354 40.959C22.7817 41.1383 22.7279 41.3175 22.71 41.4968V41.5147C25.1838 37.6426 28.7512 37.3737 28.7512 37.3737C28.7512 37.3737 32.3006 37.0869 34.6848 40.5288C34.6669 40.3674 34.6311 40.1882 34.5773 40.0268Z" fill="url(#paint7_linear)"/>
<path d="M48.5242 27.4245C48.8469 26.2414 50.3348 25.8649 52.5218 26.4744C54.3861 26.9943 58.1686 29.1634 59.9792 33.5554C60.3019 34.3621 59.4056 34.5055 59.0291 33.9318C57.7025 31.9778 53.6153 28.8049 49.8866 28.1774C48.3808 27.9444 48.5242 27.4245 48.5242 27.4245Z" fill="url(#paint8_linear)"/>
<path d="M48.7214 36.8897C50.8367 35.5811 53.5615 35.7245 55.5334 37.2124C56.5373 37.9653 57.5233 39.1484 58.1148 40.959C58.2045 41.2638 58.2762 41.5864 58.2941 41.9091C58.33 42.5545 57.8818 43.146 57.1468 42.4648C51.5179 37.1586 47.5741 42.6262 47.5741 42.6262C46.8212 43.1819 46.0145 42.0346 46.1937 40.959C46.2475 40.6543 46.2834 40.3316 46.3551 40.0448C46.8032 38.4852 47.7354 37.4992 48.7214 36.8897Z" fill="url(#paint9_radial)"/>
<path d="M46.3729 40.0268C46.5701 39.3815 46.839 38.8437 47.1438 38.3776C47.5919 37.7322 48.1477 37.2482 48.7213 36.8897C50.8366 35.5811 53.5614 35.7245 55.5334 37.2124C56.5372 37.9653 57.5232 39.1484 58.1148 40.959C58.1685 41.1383 58.2223 41.3175 58.2403 41.4968V41.5147C55.7664 37.6426 52.199 37.3737 52.199 37.3737C52.199 37.3737 48.6496 37.0869 46.2654 40.5288C46.2833 40.3674 46.3192 40.1882 46.3729 40.0268Z" fill="url(#paint10_linear)"/>
<defs>
<radialGradient id="paint0_radial" cx="0" cy="0" r="1" gradientUnits="userSpaceOnUse" gradientTransform="translate(34.479 28.1245) scale(36.7641)">
<stop stop-color="#FFDF30"/>
<stop offset="1" stop-color="#FFB82E"/>
</radialGradient>
<radialGradient id="paint1_radial" cx="0" cy="0" r="1" gradientUnits="userSpaceOnUse" gradientTransform="translate(34.479 28.1245) scale(28.924)">
<stop stop-color="#FFE95F"/>
<stop offset="1" stop-color="#FFBB47" stop-opacity="0"/>
</radialGradient>
<radialGradient id="paint2_radial" cx="0" cy="0" r="1" gradientUnits="userSpaceOnUse" gradientTransform="translate(42.6273 56.2158) rotate(89.1886) scale(7.55437 5.5379)">
<stop stop-color="#7A4400" stop-opacity="0.5"/>
<stop offset="0.6008" stop-color="#894D00" stop-opacity="0.1981"/>
<stop offset="0.995" stop-color="#965500" stop-opacity="0"/>
</radialGradient>
<radialGradient id="paint3_radial" cx="0" cy="0" r="1" gradientUnits="userSpaceOnUse" gradientTransform="translate(43.2815 52.3435) scale(3.57545 2.34334)">
<stop stop-color="white" stop-opacity="0.75"/>
<stop offset="1" stop-color="white" stop-opacity="0"/>
</radialGradient>
<radialGradient id="paint4_radial" cx="0" cy="0" r="1" gradientUnits="userSpaceOnUse" gradientTransform="translate(43.2814 59.9662) scale(3.57545 2.34335)">
<stop stop-color="white" stop-opacity="0.75"/>
<stop offset="1" stop-color="white" stop-opacity="0"/>
</radialGradient>
<linearGradient id="paint5_linear" x1="26.7716" y1="31.125" x2="25.9059" y2="28.0339" gradientUnits="userSpaceOnUse">
<stop offset="0.00132565" stop-color="#3C2200"/>
<stop offset="1" stop-color="#7A4400"/>
</linearGradient>
<radialGradient id="paint6_radial" cx="0" cy="0" r="1" gradientUnits="userSpaceOnUse" gradientTransform="translate(28.7455 39.578) rotate(175.474) scale(4.69957 3.33239)">
<stop offset="0.00132565" stop-color="#7A4400"/>
<stop offset="1" stop-color="#643800"/>
</radialGradient>
<linearGradient id="paint7_linear" x1="29.2252" y1="33.6619" x2="28.8522" y2="38.777" gradientUnits="userSpaceOnUse">
<stop offset="0.00132565" stop-color="#3C2200"/>
<stop offset="1" stop-color="#512D00"/>
</linearGradient>
<linearGradient id="paint8_linear" x1="54.2003" y1="31.1288" x2="55.066" y2="28.0377" gradientUnits="userSpaceOnUse">
<stop offset="0.00132565" stop-color="#3C2200"/>
<stop offset="1" stop-color="#7A4400"/>
</linearGradient>
<radialGradient id="paint9_radial" cx="0" cy="0" r="1" gradientUnits="userSpaceOnUse" gradientTransform="translate(52.179 39.5775) rotate(4.52559) scale(4.69956 3.33239)">
<stop offset="0.00132565" stop-color="#7A4400"/>
<stop offset="1" stop-color="#643800"/>
</radialGradient>
<linearGradient id="paint10_linear" x1="51.7053" y1="33.6629" x2="52.0783" y2="38.7781" gradientUnits="userSpaceOnUse">
<stop offset="0.00132565" stop-color="#3C2200"/>
<stop offset="1" stop-color="#512D00"/>
</linearGradient>
</defs>
</svg>
