<svg width="80" height="80" viewBox="0 0 80 80" fill="none" xmlns="http://www.w3.org/2000/svg">
<path d="M30.8858 36.4175C34.7869 40.8644 34.3321 47.6424 29.8718 51.5537C25.4115 55.4649 18.6334 55.0303 14.7323 50.5801C10.8312 46.1332 11.286 39.3551 15.7463 35.4439C20.2066 31.5327 26.9847 31.9673 30.8858 36.4175Z" fill="url(#paint0_linear)"/>
<path d="M30.8858 36.4175C34.7869 40.8644 34.3321 47.6424 29.8718 51.5537C25.4115 55.4649 18.6334 55.0303 14.7323 50.5801C10.8312 46.1332 11.286 39.3551 15.7463 35.4439C20.2066 31.5327 26.9847 31.9673 30.8858 36.4175Z" fill="url(#paint1_linear)"/>
<path d="M61.0841 40.4471C66.9761 38.2371 73.9732 17 68.8189 17C63.6646 17 38.742 20.6855 32.9745 19.9477C27.2037 19.21 15.2343 17.7984 10.1406 22.8955C5.04691 27.9925 6.08787 45.6048 6.08787 49.5328C6.08787 53.4609 9.52408 55.179 13.3309 54.5659C17.1376 53.9527 28.1234 43.2095 28.1234 39.4027C28.1234 39.4027 22.2953 38.1158 20.4526 38.729C18.6098 39.3421 19.3476 41.5521 19.3476 41.5521C19.3476 41.5521 15.8474 45.0523 15.2949 45.6048C15.2949 45.6048 18.118 42.5358 18.118 40.4505C18.118 38.3652 18.3639 35.4174 16.0327 33.6993C16.0327 33.6993 19.9001 38.1192 23.6429 38.1192C28.3087 38.1192 27.5103 37.3208 28.3087 38.1192L61.0841 40.4471Z" fill="url(#paint2_linear)"/>
<path d="M68.8186 17C73.9729 17 74.7107 28.9088 73.4844 34.555C72.2582 40.2012 66.9792 38.2371 61.0871 40.4471C55.1951 42.657 52.2237 50.0685 46.6012 54.3199C41.5681 58.1267 39.6277 55.4485 23.6459 63.1597C20.9778 64.4466 13.3339 63.4326 15.2138 53.8045C23.1541 49.9 29.1068 38.9143 28.3084 38.1159C28.3084 38.1159 36.4711 38.1159 40.0016 38.1159C43.5322 38.1159 59.1197 17 68.8186 17Z" fill="url(#paint3_linear)"/>
<path d="M15.0859 58.3893L15.0825 58.4331C16.0831 63.7323 21.4867 64.2005 23.6427 63.1596C39.6245 55.4483 41.5649 58.1266 46.5979 54.3198C52.2205 50.0683 55.1918 42.6569 61.0839 40.4469C66.976 38.2369 72.255 40.201 73.4812 34.5548C73.653 33.7699 73.781 32.8569 73.8686 31.88C69.5498 32.8603 64.7694 31.1152 60.2249 31.1152C54.5787 31.1152 47.8276 49.1587 36.6565 54.6836C25.4855 60.2119 15.0859 58.3893 15.0859 58.3893Z" fill="url(#paint4_linear)"/>
<path d="M29.7805 53.9125C26.8732 53.7811 21.8368 54.2123 19.8223 50.6278C18.3939 51.8844 16.851 52.9995 15.2103 53.8046C13.3305 63.4328 20.9744 64.4468 23.6425 63.1599C39.6243 55.4486 41.5647 58.1269 46.5977 54.3201C51.3983 50.6919 54.2686 44.7695 58.6716 41.7375L58.6784 41.7173C58.6784 41.7173 55.8048 43.2097 49.1749 49.2871C42.545 55.3644 33.3414 54.0742 29.7805 53.9125Z" fill="url(#paint5_linear)"/>
<path d="M73.5182 34.3623C71.2544 34.6689 68.0001 34.8744 64.1529 34.433C56.664 33.574 48.9291 51.129 44.6339 53.9521C40.3386 56.7751 26.4658 59.5982 22.0458 59.5982C18.7747 59.5982 16.3188 58.1799 14.9612 55.7039C14.3952 63.5532 21.1632 64.3517 23.6427 63.1557C39.6244 55.4445 41.5649 58.1227 46.5979 54.3159C52.2205 50.0644 55.1918 42.653 61.0839 40.443C66.976 38.2331 72.2549 40.1971 73.4812 34.5509C73.498 34.4937 73.5081 34.4229 73.5182 34.3623Z" fill="url(#paint6_linear)"/>
<path d="M6.08787 49.5329C6.08787 53.4609 9.52408 55.179 13.3309 54.5659C15.5374 54.2088 20.146 50.4492 23.6395 46.6121C17.1073 51.5946 13.752 51.507 11.2422 51.251C6.20915 50.7423 8.0519 43.1489 8.0519 39.6521C8.0519 36.1552 6.82565 29.1716 10.1406 22.8955C5.04691 27.9892 6.08787 45.6048 6.08787 49.5329Z" fill="url(#paint7_linear)"/>
<path d="M69.2839 17.0708C69.1424 17.027 68.9874 17.0034 68.819 17.0034C63.6646 17.0034 38.742 20.6856 32.9746 19.9511C27.2071 19.2167 15.2343 17.8018 10.1406 22.8989C9.36918 23.6703 16.6459 18.233 30.0269 20.6889C40.1839 22.5519 55.192 17.2527 71.8004 18.89C71.1333 17.8995 70.3113 17.2258 69.2839 17.0708Z" fill="url(#paint8_linear)"/>
<path d="M15.2106 53.8038C20.1291 55.2254 31.7448 42.2891 31.7448 34.9249C31.7448 33.328 27.0924 35.4773 23.0296 35.4773C19.8528 35.4773 17.69 33.392 15.4801 32.5296C14.0247 31.9636 18.1246 39.7726 14.8198 44.9606C12.4549 48.6731 16.5851 45.6041 17.4138 44.4991C18.2425 43.3941 21.6181 42.8416 21.6181 42.8416C21.6181 42.8416 20.8197 39.712 23.0296 40.0792C25.2396 40.4464 27.0823 40.3049 27.0823 40.3049C27.0823 40.3049 19.8158 51.7791 15.2106 53.8038Z" fill="url(#paint9_linear)"/>
<path d="M28.9519 37.2866C27.9716 35.3226 25.9166 38.0311 22.4871 36.9497C19.8628 36.121 17.1138 33.2811 16.43 34.3624C15.7461 35.4438 17.289 38.5465 17.289 40.2343C17.289 41.9221 15.325 44.8395 14.8635 45.5436C14.4019 46.2511 16.5546 45.2404 17.6562 44.0108C18.4546 43.1214 19.6438 42.1546 20.1492 42.0838C20.6545 42.0131 20.3547 39.3214 22.3355 39.3214C24.3097 39.3214 26.9508 39.1395 27.9884 39.7324C26.9542 42.2253 23.9155 47.0158 19.8561 50.6036C19.8426 50.6171 19.8291 50.6272 19.8156 50.6407C19.5091 50.9102 19.1924 51.1729 18.8724 51.4289C18.8185 51.4727 18.7646 51.5199 18.7073 51.5637C18.4176 51.7894 18.1245 52.005 17.8247 52.2173C17.7371 52.2779 17.6562 52.3453 17.5686 52.4059C17.2823 52.6047 16.9892 52.7866 16.6961 52.9685C16.5984 53.0291 16.5007 53.0965 16.403 53.1572C16.019 53.3863 15.6282 53.5985 15.234 53.7939C15.2273 53.7972 15.2172 53.804 15.2105 53.8074C14.8163 55.8287 14.8567 57.4491 15.1667 58.7696C15.6349 55.3166 20.2502 51.6681 23.6696 47.9725C27.1125 44.2533 29.9356 39.2506 28.9519 37.2866ZM20.4524 38.7284C18.6096 39.3416 19.3474 41.5515 19.3474 41.5515C19.3474 41.5515 15.8472 45.0518 15.2947 45.6042C15.2947 45.6042 18.1178 42.5352 18.1178 40.4499C18.1178 38.7082 18.266 36.3804 16.9723 34.6555C18.3435 35.9559 21.0217 38.1187 23.6426 38.1187C28.3085 38.1187 27.5101 37.3203 28.3085 38.1187C28.45 38.2602 28.3691 38.7285 28.1164 39.4056C28.0625 39.3921 22.285 38.1187 20.4524 38.7284Z" fill="url(#paint10_linear)"/>
<path d="M28.1233 39.4065C26.2671 39.2347 24.4614 38.7967 22.6119 38.7159C21.7125 38.6923 20.7187 38.6182 19.9944 39.11C19.2667 39.6154 19.1993 40.6732 19.4419 41.5154L19.4452 41.5221C19.4587 41.5592 19.4452 41.5996 19.4217 41.6265L15.3858 45.6927C15.3386 45.7399 15.2578 45.7433 15.2106 45.6927C15.1634 45.6456 15.1634 45.5681 15.2072 45.5209C15.9315 44.6989 16.5986 43.8095 17.1477 42.8629C17.7103 41.9062 18.0741 40.8989 17.9764 39.7737C17.9798 38.6687 17.9427 37.5637 17.6261 36.5261C17.3262 35.4818 16.7097 34.5621 15.9147 33.8243L16.164 33.5818C17.1376 34.6261 18.2291 35.593 19.4217 36.388C20.6075 37.1729 21.9382 37.8366 23.3463 37.9208C24.7781 37.9646 26.2233 37.9107 27.6483 37.6075C27.8606 37.5368 28.1705 37.7153 28.2648 37.8433C28.3389 37.9276 28.3861 37.9343 28.4737 38.0792C28.5613 38.2274 28.5343 38.3285 28.5411 38.4363C28.504 38.8405 28.376 39.1875 28.248 39.5345C27.9785 40.2217 27.6483 40.8753 27.298 41.5188C25.8763 44.0723 24.1313 46.4305 22.1504 48.5731C20.1662 50.6921 17.9023 52.6561 15.2106 53.8082C17.7305 52.3563 19.9674 50.4967 21.9348 48.3743C23.8921 46.2486 25.6169 43.8938 27.015 41.3672C27.3586 40.7338 27.682 40.087 27.9381 39.4199C28.0627 39.0898 28.1806 38.7428 28.2076 38.4228C28.2143 38.2543 28.2008 38.2442 28.0358 38.0893C27.8875 37.9579 27.8538 37.9107 27.6921 37.9444C26.2739 38.251 24.7916 38.3183 23.3261 38.2745C21.8135 38.187 20.439 37.493 19.2229 36.6946C17.9933 35.8827 16.8984 34.9057 15.9012 33.8176C15.8372 33.7468 15.8406 33.6357 15.9113 33.5717C15.9787 33.511 16.0865 33.5144 16.1505 33.575C16.9759 34.3499 17.6294 35.3403 17.9326 36.4385C18.256 37.5334 18.283 38.6721 18.2695 39.7804C18.2695 40.3194 18.2729 40.9225 18.0842 41.4648C17.9124 42.0106 17.6631 42.5193 17.3801 43.001C16.8074 43.9679 16.1303 44.8573 15.3858 45.6927L15.2072 45.5209L19.2734 41.4851L19.2498 41.5895L19.2465 41.5827C18.9736 40.7102 18.9736 39.5278 19.8394 38.8978C20.6984 38.3352 21.7125 38.443 22.6254 38.4632C23.5586 38.5171 24.485 38.6384 25.4013 38.7799C26.3244 38.9214 27.2407 39.0898 28.1233 39.4065Z" fill="#804B24"/>
<path d="M19.2297 41.0098L19.4285 41.5285L19.3779 41.4746C20.0381 41.6834 20.6645 41.9932 21.2236 42.4142C21.7692 42.8252 22.3014 43.3876 22.4294 44.0848C22.069 43.4954 21.5571 43.0845 21.0148 42.6972C20.4725 42.3132 19.8966 41.9697 19.3139 41.6329L19.2904 41.6194C19.2735 41.6093 19.2668 41.5925 19.2634 41.579L19.2297 41.0098Z" fill="#804B24"/>
<path d="M9.40262 52.0488C5.27917 50.7282 6.76482 36.2726 7.07139 30.3198L6.97706 30.3872C5.59247 37.5325 6.09106 46.8103 6.09106 49.5323C6.09106 53.4603 9.52727 55.1784 13.334 54.5653C14.7557 54.3362 17.1745 52.6855 19.6506 50.5227C17.2486 51.9444 13.0746 53.2245 9.40262 52.0488Z" fill="url(#paint11_linear)"/>
<path d="M72.9457 36.1045C69.3916 37.2802 65.3422 36.2729 62.6808 36.2729C59.3659 36.2729 51.2639 49.408 47.2145 52.9689C43.1618 56.5297 31.8695 58.4938 26.4693 60.7037C21.2139 62.853 16.794 61.7312 15.0894 58.3893C16.0731 63.7222 21.4868 64.2005 23.6462 63.1596C39.6279 55.4483 41.5684 58.1266 46.6014 54.3198C52.224 50.0683 55.1953 42.6569 61.0874 40.4469C66.3461 38.4761 71.113 39.8136 72.9457 36.1045Z" fill="url(#paint12_linear)"/>
<path d="M12.9231 37.0977C13.4284 32.8058 11.8989 26.4657 12.8624 21.0317C11.8349 21.527 10.9018 22.13 10.137 22.8947C5.04674 27.9884 6.08771 45.604 6.08771 49.5321C6.08771 53.4601 9.52392 55.1782 13.3307 54.5651C14.3481 54.4 15.8876 53.4972 17.5889 52.2069C7.56326 48.673 12.0708 44.3474 12.9231 37.0977Z" fill="url(#paint13_linear)"/>
<path opacity="0.75" d="M48.1542 29.2355C51.2468 31.3141 49.1952 37.4117 45.6006 43.2195C42.6597 47.9662 36.4913 51.3654 33.52 49.2632C30.5487 47.1611 28.2916 44.7456 35.1438 35.36C39.183 29.8284 45.1324 27.2075 48.1542 29.2355Z" fill="url(#paint14_radial)"/>
<path opacity="0.75" d="M69.1826 22.0493C69.6913 24.2795 55.9094 26.5736 40.5408 28.1368C27.9751 29.4136 13.4049 28.7769 13.1118 26.5804C12.8187 24.3839 14.0651 22.3053 40.3353 20.1796C55.8151 18.9264 68.684 19.8697 69.1826 22.0493Z" fill="url(#paint15_radial)"/>
<path opacity="0.75" d="M22.8375 43.992C23.7471 45.1071 22.1267 47.2766 19.9504 49.1767C18.1717 50.7297 15.3318 51.4405 14.4727 50.3254C13.6136 49.2103 13.0746 48.0481 16.9926 45.0801C19.3002 43.3284 21.9481 42.9005 22.8375 43.992Z" fill="url(#paint16_radial)"/>
<defs>
<linearGradient id="paint0_linear" x1="14.7299" y1="50.587" x2="30.8833" y2="36.4235" gradientUnits="userSpaceOnUse">
<stop offset="0.00132565" stop-color="#FFCB4B"/>
<stop offset="1" stop-color="#FFD748"/>
</linearGradient>
<linearGradient id="paint1_linear" x1="44.9667" y1="114.962" x2="18.8187" y2="30.6255" gradientUnits="userSpaceOnUse">
<stop stop-color="#FFBC47" stop-opacity="0"/>
<stop offset="1" stop-color="#C86F34"/>
</linearGradient>
<linearGradient id="paint2_linear" x1="22.0298" y1="15.1683" x2="36.1473" y2="32.232" gradientUnits="userSpaceOnUse">
<stop offset="0.00132565" stop-color="#FFCB4B"/>
<stop offset="1" stop-color="#FFD748"/>
</linearGradient>
<linearGradient id="paint3_linear" x1="46.8571" y1="53.254" x2="44.4019" y2="41.4689" gradientUnits="userSpaceOnUse">
<stop offset="0.00132565" stop-color="#FFCB4B"/>
<stop offset="1" stop-color="#FFD748"/>
</linearGradient>
<linearGradient id="paint4_linear" x1="40.1037" y1="31.3141" x2="54.4974" y2="77.1731" gradientUnits="userSpaceOnUse">
<stop stop-color="#FFBC47" stop-opacity="0"/>
<stop offset="1" stop-color="#C86F34"/>
</linearGradient>
<linearGradient id="paint5_linear" x1="29.2303" y1="56.1022" x2="17.077" y2="69.1762" gradientUnits="userSpaceOnUse">
<stop stop-color="#FFBC47" stop-opacity="0"/>
<stop offset="1" stop-color="#C86F34"/>
</linearGradient>
<linearGradient id="paint6_linear" x1="32.4211" y1="20.1988" x2="75.8784" y2="116.934" gradientUnits="userSpaceOnUse">
<stop stop-color="#FFBC47" stop-opacity="0"/>
<stop offset="1" stop-color="#C86F34"/>
</linearGradient>
<linearGradient id="paint7_linear" x1="-21.572" y1="-32.4198" x2="87.7023" y2="210.824" gradientUnits="userSpaceOnUse">
<stop stop-color="#FFBC47" stop-opacity="0"/>
<stop offset="1" stop-color="#C86F34"/>
</linearGradient>
<linearGradient id="paint8_linear" x1="40.9419" y1="26.8418" x2="40.9419" y2="8.87608" gradientUnits="userSpaceOnUse">
<stop stop-color="#FFBC47" stop-opacity="0"/>
<stop offset="1" stop-color="#C86F34"/>
</linearGradient>
<linearGradient id="paint9_linear" x1="22.9221" y1="67.8033" x2="22.9221" y2="3.35231" gradientUnits="userSpaceOnUse">
<stop stop-color="#FFBC47" stop-opacity="0"/>
<stop offset="1" stop-color="#C86F34"/>
</linearGradient>
<linearGradient id="paint10_linear" x1="48.3895" y1="27.9699" x2="2.18119" y2="54.2821" gradientUnits="userSpaceOnUse">
<stop stop-color="#FFBC47" stop-opacity="0"/>
<stop offset="1" stop-color="#C86F34"/>
</linearGradient>
<linearGradient id="paint11_linear" x1="19.9761" y1="-30.4936" x2="6.96352" y2="106.016" gradientUnits="userSpaceOnUse">
<stop stop-color="#FFBC47" stop-opacity="0"/>
<stop offset="1" stop-color="#C86F34"/>
</linearGradient>
<linearGradient id="paint12_linear" x1="36.199" y1="7.86223" x2="48.9661" y2="72.1888" gradientUnits="userSpaceOnUse">
<stop stop-color="#FFBC47" stop-opacity="0"/>
<stop offset="1" stop-color="#C86F34"/>
</linearGradient>
<linearGradient id="paint13_linear" x1="19.491" y1="37.3766" x2="-21.3883" y2="40.2001" gradientUnits="userSpaceOnUse">
<stop stop-color="#FFBC47" stop-opacity="0"/>
<stop offset="1" stop-color="#C86F34"/>
</linearGradient>
<radialGradient id="paint14_radial" cx="0" cy="0" r="1" gradientUnits="userSpaceOnUse" gradientTransform="translate(40.5703 39.0591) rotate(-53.8439) scale(12.7316 6.65866)">
<stop stop-color="#FBE07A"/>
<stop offset="0.2654" stop-color="#FCDF73" stop-opacity="0.7346"/>
<stop offset="0.6548" stop-color="#FDDB5F" stop-opacity="0.3452"/>
<stop offset="1" stop-color="#FFD748" stop-opacity="0"/>
</radialGradient>
<radialGradient id="paint15_radial" cx="0" cy="0" r="1" gradientUnits="userSpaceOnUse" gradientTransform="translate(41.1221 24.126) rotate(-4.61835) scale(28.8738 4.04614)">
<stop stop-color="#FBE07A"/>
<stop offset="0.2654" stop-color="#FCDF73" stop-opacity="0.7346"/>
<stop offset="0.6548" stop-color="#FDDB5F" stop-opacity="0.3452"/>
<stop offset="1" stop-color="#FFD748" stop-opacity="0"/>
</radialGradient>
<radialGradient id="paint16_radial" cx="0" cy="0" r="1" gradientUnits="userSpaceOnUse" gradientTransform="translate(18.5826 47.0619) rotate(-37.1319) scale(5.38534 2.57242)">
<stop stop-color="#FBE07A"/>
<stop offset="0.2654" stop-color="#FCDF73" stop-opacity="0.7346"/>
<stop offset="0.6548" stop-color="#FDDB5F" stop-opacity="0.3452"/>
<stop offset="1" stop-color="#FFD748" stop-opacity="0"/>
</radialGradient>
</defs>
</svg>
