<svg width="80" height="80" viewBox="0 0 80 80" fill="none" xmlns="http://www.w3.org/2000/svg">
<path d="M30.8866 36.4177C34.7872 40.8658 34.3341 47.6422 29.8711 51.5539C25.4134 55.4655 18.633 55.028 14.7324 50.5799C10.8319 46.1317 11.285 39.3553 15.7479 35.4437C20.2109 31.532 26.9861 31.9695 30.8866 36.4177Z" fill="url(#paint0_linear)"/>
<path d="M30.8866 36.4177C34.7872 40.8658 34.3341 47.6422 29.8711 51.5539C25.4134 55.4655 18.633 55.028 14.7324 50.5799C10.8319 46.1317 11.285 39.3553 15.7479 35.4437C20.2109 31.532 26.9861 31.9695 30.8866 36.4177Z" fill="url(#paint1_linear)"/>
<path d="M30.8866 36.4177C34.7872 40.8658 34.3341 47.6422 29.8711 51.5539C25.4134 55.4655 18.633 55.028 14.7324 50.5799C10.8319 46.1317 11.285 39.3553 15.7479 35.4437C20.2109 31.532 26.9861 31.9695 30.8866 36.4177Z" fill="url(#paint2_linear)"/>
<path d="M61.087 40.4491C66.9769 38.2407 73.976 17 68.8204 17C63.6648 17 38.7461 20.6825 32.976 19.948C27.2059 19.2136 15.2387 17.8021 10.1456 22.8961C5.05245 27.9901 6.09398 45.6108 6.09398 49.5381C6.09398 53.4654 9.53105 55.1842 13.3379 54.5696C17.1447 53.955 28.1276 43.2149 28.1276 39.4074C28.1276 39.4074 22.3002 38.1209 20.4567 38.7303C18.6132 39.3449 19.3527 41.5533 19.3527 41.5533C19.3527 41.5533 15.8532 45.0535 15.3011 45.6056C15.3011 45.6056 18.1237 42.5378 18.1237 40.4491C18.1237 38.3605 18.3685 35.4176 16.0354 33.6988C16.0354 33.6988 19.8995 38.1209 23.6438 38.1209C28.3099 38.1209 27.5079 37.324 28.3099 38.1209L61.087 40.4491Z" fill="url(#paint3_linear)"/>
<path d="M68.8193 17C73.9749 17 74.7092 28.9069 73.4854 34.5582C72.2564 40.2043 66.981 38.2407 61.086 40.4491C55.1961 42.6576 52.2225 50.0694 46.6034 54.3249C41.5728 58.1324 39.6304 55.4551 23.648 63.1639C20.9817 64.4504 13.3369 63.4399 15.2168 53.8092C23.1585 49.9028 29.1109 38.9178 28.3141 38.1209C28.3141 38.1209 36.4745 38.1209 40.0053 38.1209C43.5361 38.1209 59.1227 17 68.8193 17Z" fill="url(#paint4_linear)"/>
<path d="M15.0867 58.3926V58.4343C16.0865 63.7314 21.4921 64.2002 23.6481 63.1585C39.6304 55.4445 41.5677 58.127 46.6035 54.3195C52.2277 50.0693 55.1961 42.6574 61.086 40.4438C66.9759 38.2354 72.2564 40.199 73.4854 34.5529C73.6573 33.7664 73.7823 32.8549 73.8708 31.8809C69.5537 32.8601 64.773 31.1152 60.2267 31.1152C54.5816 31.1152 47.8273 49.1578 36.6568 54.6841C25.4864 60.2156 15.0867 58.3926 15.0867 58.3926Z" fill="url(#paint5_linear)"/>
<path d="M29.7827 53.9134C26.8768 53.7832 21.841 54.2155 19.8256 50.6268C18.3987 51.882 16.852 52.9967 15.2168 53.804C13.3369 63.4348 20.9817 64.4452 23.648 63.1587C39.6304 55.4447 41.5676 58.1272 46.6035 54.3197C51.4049 50.6893 54.2744 44.7671 58.6749 41.7357L58.6853 41.7148C58.6853 41.7148 55.8106 43.2097 49.1813 49.283C42.5519 55.3666 33.3447 54.0801 29.7827 53.9134Z" fill="url(#paint6_radial)"/>
<path d="M73.5167 34.3657C71.2514 34.673 67.9966 34.8762 64.1533 34.4386C56.6647 33.5792 48.9313 51.1374 44.635 53.9604C40.3386 56.7835 26.4654 59.6066 22.0493 59.6066C18.7789 59.6066 16.3209 58.1898 14.9669 55.7105C14.3992 63.5599 21.1692 64.362 23.6481 63.164C39.6304 55.4501 41.5676 58.1325 46.6035 54.325C52.2277 50.0748 55.1961 42.663 61.086 40.4494C66.9759 38.2409 72.2564 40.2045 73.4855 34.5584C73.4959 34.4959 73.5063 34.423 73.5167 34.3657Z" fill="url(#paint7_radial)"/>
<path d="M6.09296 49.533C6.09296 53.4603 9.53002 55.1792 13.3368 54.5646C15.5449 54.2104 20.1537 50.4498 23.648 46.611C17.1176 51.5957 13.7639 51.5071 11.2538 51.2519C6.21795 50.7414 8.06146 43.1473 8.06146 39.6471C8.06146 36.1469 6.83245 29.1673 10.1497 22.8857C5.04622 27.9902 6.09296 45.6057 6.09296 49.533Z" fill="url(#paint8_linear)"/>
<path d="M69.2828 17.0677C69.1422 17.026 68.9859 17 68.8193 17C63.6637 17 38.745 20.6825 32.975 19.948C27.2049 19.2136 15.2377 17.8021 10.1446 22.8961C9.37384 23.667 16.6489 18.2292 30.0326 20.6877C40.1928 22.5523 55.196 17.25 71.8033 18.8907C71.1315 17.9011 70.3087 17.224 69.2828 17.0677Z" fill="url(#paint9_linear)"/>
<path d="M15.2168 53.8088C20.1328 55.2307 31.7511 42.2926 31.7511 34.9277C31.7511 33.3339 27.1007 35.4798 23.0335 35.4798C19.8568 35.4798 17.6956 33.3911 15.4824 32.5317C14.0242 31.964 18.1226 39.7769 14.821 44.9646C12.4567 48.6783 16.5864 45.6105 17.4144 44.5062C18.2424 43.402 21.617 42.8499 21.617 42.8499C21.617 42.8499 20.8202 39.7196 23.0283 40.0894C25.2363 40.4592 27.0798 40.3133 27.0798 40.3133C27.0798 40.3133 19.8203 51.7826 15.2168 53.8088Z" fill="url(#paint10_linear)"/>
<path d="M28.9546 37.2878C27.9704 35.3241 25.9185 38.0326 22.4867 36.9492C19.862 36.1211 17.1176 33.2772 16.4302 34.3605C15.748 35.4439 17.2894 38.543 17.2894 40.2306C17.2894 41.9182 15.3262 44.835 14.8627 45.5382C14.4044 46.2465 16.5552 45.2361 17.654 44.0016C18.4508 43.111 19.6433 42.1422 20.1484 42.0745C20.6536 42.0067 20.3568 39.3139 22.3357 39.3139C24.3094 39.3139 26.9497 39.1316 27.9912 39.7254C26.9549 42.2151 23.9188 47.0122 19.8568 50.6009C19.8412 50.6113 19.8308 50.6269 19.8152 50.6374C19.5079 50.9082 19.1902 51.1686 18.8726 51.4239C18.8153 51.4655 18.7632 51.5176 18.7059 51.5593C18.4195 51.7885 18.1227 52.002 17.8258 52.2156C17.7373 52.2781 17.654 52.3406 17.5707 52.4031C17.2842 52.601 16.9926 52.7833 16.6958 52.9656C16.5968 53.0281 16.5031 53.0958 16.4041 53.1531C16.0188 53.3823 15.6282 53.5958 15.2324 53.7886C15.222 53.7938 15.2168 53.799 15.2064 53.799C14.8106 55.8199 14.8523 57.4398 15.1647 58.7627C15.6334 55.3095 20.2474 51.6583 23.6688 47.9654C27.1111 44.2569 29.9388 39.2514 28.9546 37.2878ZM20.4557 38.7305C18.6122 39.3451 19.3517 41.5536 19.3517 41.5536C19.3517 41.5536 15.8521 45.0538 15.3001 45.6059C15.3001 45.6059 18.1227 42.538 18.1227 40.4494C18.1227 38.7097 18.2737 36.3815 16.977 34.6522C18.3518 35.9544 21.0285 38.1159 23.648 38.1159C28.314 38.1159 27.5121 37.319 28.3141 38.1159C28.4547 38.2566 28.3765 38.7253 28.1214 39.4024C28.0641 39.392 22.2888 38.1211 20.4557 38.7305Z" fill="url(#paint11_linear)"/>
<path d="M28.1266 39.4075C26.2726 39.2356 24.4656 38.7981 22.6169 38.7199C21.7159 38.6939 20.7213 38.621 19.9974 39.1106C19.2683 39.6158 19.2058 40.6731 19.4454 41.5169V41.5222C19.4558 41.5586 19.4454 41.6003 19.4194 41.6263L15.3834 45.6943C15.3366 45.7411 15.2584 45.7411 15.2064 45.6943C15.1595 45.6474 15.1595 45.5692 15.2012 45.5224C15.925 44.6994 16.5916 43.8088 17.1436 42.8608C17.706 41.9024 18.0706 40.8971 17.9716 39.7721C17.9768 38.6678 17.9404 37.5636 17.6227 36.5219C17.3207 35.4802 16.7062 34.5582 15.9146 33.8186L16.1646 33.5738C17.1384 34.6207 18.232 35.5843 19.4246 36.3812C20.6119 37.1625 21.9399 37.8293 23.3511 37.9126C24.7832 37.9595 26.2258 37.9022 27.6527 37.6001C27.861 37.5272 28.1734 37.7095 28.2724 37.8345C28.3453 37.9178 28.3921 37.923 28.4807 38.0689C28.5692 38.2199 28.5432 38.3189 28.5484 38.4282C28.5119 38.8345 28.3869 39.1783 28.2567 39.5273C27.9912 40.2148 27.6579 40.8711 27.309 41.5117C25.8873 44.064 24.1427 46.4235 22.1638 48.5642C20.1797 50.6841 17.9143 52.6478 15.222 53.7989C17.7425 52.3457 19.9766 50.4862 21.9451 48.3663C23.9031 46.2359 25.6269 43.8869 27.0277 41.3555C27.3715 40.72 27.6943 40.0742 27.9547 39.4075C28.0797 39.0793 28.1943 38.7303 28.2203 38.4126C28.2255 38.2407 28.2151 38.2355 28.0484 38.0793C27.8974 37.949 27.8662 37.9022 27.7047 37.9334C26.2883 38.2407 24.8041 38.3084 23.3407 38.2616C21.8305 38.173 20.4557 37.4803 19.2371 36.6834C18.0081 35.8708 16.9093 34.8916 15.9146 33.8082C15.8469 33.7353 15.8521 33.6259 15.925 33.5634C15.9927 33.5009 16.0969 33.5061 16.1646 33.5686C16.9926 34.3447 17.6435 35.3343 17.9456 36.4333C18.2685 37.5271 18.2945 38.6678 18.2841 39.7773C18.2841 40.319 18.2893 40.918 18.0966 41.4649C17.9248 42.0066 17.6748 42.517 17.3936 43.0014C16.8207 43.9702 16.1437 44.8557 15.399 45.6943L15.222 45.5224L19.2892 41.4857L19.2631 41.5899L19.2579 41.5795C18.9871 40.7044 18.9819 39.5221 19.8516 38.897C20.7109 38.3345 21.7263 38.4439 22.6377 38.4647C23.5699 38.5168 24.4968 38.6366 25.4134 38.7824C26.3247 38.9231 27.2413 39.0897 28.1266 39.4075Z" fill="#663C1D"/>
<path d="M19.2319 41.0112L19.4298 41.5321L19.3778 41.4748C20.0391 41.6831 20.664 41.9956 21.2265 42.4123C21.7733 42.8237 22.3045 43.3862 22.4294 44.0842C22.0701 43.4956 21.5546 43.0841 21.0182 42.6987C20.4766 42.3133 19.8985 41.9696 19.3153 41.631L19.2892 41.6154C19.2736 41.605 19.2632 41.5893 19.2632 41.5737L19.2319 41.0112Z" fill="#663C1D"/>
<path d="M9.40506 52.0539C5.28059 50.7362 6.76478 36.2771 7.07203 30.3237L6.97829 30.3914C5.59305 37.5376 6.09299 46.8141 6.09299 49.5382C6.09299 53.4655 9.53004 55.1843 13.3368 54.5697C14.7585 54.3405 17.1749 52.6894 19.6537 50.5226C17.253 51.9445 13.0765 53.2259 9.40506 52.0539Z" fill="url(#paint12_radial)"/>
<path d="M72.9439 36.1055C69.387 37.2826 65.3407 36.2722 62.6795 36.2722C59.3675 36.2722 51.2643 49.4081 47.2128 52.9708C43.1612 56.5335 31.871 58.4971 26.4654 60.7055C21.2109 62.8567 16.7948 61.7316 15.0867 58.3929C16.0709 63.7265 21.4817 64.2057 23.6429 63.164C39.6252 55.4501 41.5624 58.1325 46.5983 54.325C52.2225 50.0748 55.1909 42.663 61.0808 40.4494C66.3457 38.4754 71.1108 39.814 72.9439 36.1055Z" fill="url(#paint13_linear)"/>
<path d="M12.9254 37.1002C13.4306 32.8083 11.8995 26.4695 12.8629 21.0317C11.8318 21.5266 10.8997 22.1307 10.1393 22.8964C5.04623 27.9904 6.08776 45.611 6.08776 49.5382C6.08776 53.4655 9.52482 55.1843 13.3316 54.5697C14.3523 54.403 15.8886 53.502 17.5915 52.2102C7.56673 48.6736 12.0714 44.3505 12.9254 37.1002Z" fill="url(#paint14_radial)"/>
<path opacity="0.16" d="M48.1554 29.2348C51.2487 31.3131 49.1969 37.4124 45.6036 43.22C42.6665 47.9702 36.4954 51.3663 33.5218 49.262C30.5482 47.1577 28.2933 44.7461 35.1466 35.355C39.1826 29.8286 45.1297 27.2035 48.1554 29.2348Z" fill="url(#paint15_radial)"/>
<path opacity="0.16" d="M69.1787 22.047C69.689 24.2763 55.9095 26.5733 40.5365 28.1359C27.9704 29.412 13.4046 28.7766 13.1077 26.5785C12.8161 24.3805 14.0607 22.3022 40.3282 20.1771C55.8158 18.9218 68.6839 19.8698 69.1787 22.047Z" fill="url(#paint16_radial)"/>
<path opacity="0.16" d="M22.8409 43.9914C23.7522 45.106 22.1274 47.278 19.9506 49.1792C18.1696 50.7313 15.3314 51.4397 14.4722 50.3303C13.6129 49.2156 13.0713 48.0541 16.9927 45.0852C19.3049 43.3299 21.9504 42.9028 22.8409 43.9914Z" fill="url(#paint17_radial)"/>
<defs>
<linearGradient id="paint0_linear" x1="14.7344" y1="50.5887" x2="30.8892" y2="36.4265" gradientUnits="userSpaceOnUse">
<stop offset="0.00132565" stop-color="#FFCB4B"/>
<stop offset="1" stop-color="#FFD748"/>
</linearGradient>
<linearGradient id="paint1_linear" x1="22.2684" y1="42.1585" x2="27.1186" y2="54.1284" gradientUnits="userSpaceOnUse">
<stop offset="0.00132565" stop-color="#BE8D68"/>
<stop offset="1" stop-color="#CD9870"/>
</linearGradient>
<linearGradient id="paint2_linear" x1="38.6838" y1="18.3041" x2="27.0807" y2="36.7184" gradientUnits="userSpaceOnUse">
<stop stop-color="#A46C3F" stop-opacity="0"/>
<stop offset="1" stop-color="#804B24"/>
</linearGradient>
<linearGradient id="paint3_linear" x1="9.49116" y1="-7.13528" x2="33.802" y2="28.2196" gradientUnits="userSpaceOnUse">
<stop offset="0.00132565" stop-color="#99643E"/>
<stop offset="1" stop-color="#AE7246"/>
</linearGradient>
<linearGradient id="paint4_linear" x1="46.858" y1="53.2566" x2="44.4021" y2="41.4704" gradientUnits="userSpaceOnUse">
<stop offset="0.00132565" stop-color="#99643E"/>
<stop offset="1" stop-color="#AE7246"/>
</linearGradient>
<linearGradient id="paint5_linear" x1="37.0259" y1="31.8835" x2="66.4945" y2="85.8383" gradientUnits="userSpaceOnUse">
<stop stop-color="#A46C3F" stop-opacity="0"/>
<stop offset="1" stop-color="#804B24"/>
</linearGradient>
<radialGradient id="paint6_radial" cx="0" cy="0" r="1" gradientUnits="userSpaceOnUse" gradientTransform="translate(25.7482 27.3344) scale(36.8095 36.8161)">
<stop offset="0.6147" stop-color="#8D562E" stop-opacity="0"/>
<stop offset="1" stop-color="#804B24"/>
</radialGradient>
<radialGradient id="paint7_radial" cx="0" cy="0" r="1" gradientUnits="userSpaceOnUse" gradientTransform="translate(16.8481 -17.2323) scale(93.7463 93.763)">
<stop offset="0.6147" stop-color="#8D562E" stop-opacity="0"/>
<stop offset="1" stop-color="#804B24"/>
</radialGradient>
<linearGradient id="paint8_linear" x1="18.786" y1="10.4873" x2="5.03278" y2="119.879" gradientUnits="userSpaceOnUse">
<stop offset="0.00132565" stop-color="#99643E"/>
<stop offset="1" stop-color="#AE7246"/>
</linearGradient>
<linearGradient id="paint9_linear" x1="40.9428" y1="33.2379" x2="40.9428" y2="0.264979" gradientUnits="userSpaceOnUse">
<stop stop-color="#8D562E" stop-opacity="0"/>
<stop offset="1" stop-color="#804B24"/>
</linearGradient>
<linearGradient id="paint10_linear" x1="39.5791" y1="4.97128" x2="11.8295" y2="56.9005" gradientUnits="userSpaceOnUse">
<stop stop-color="#A46C3F" stop-opacity="0"/>
<stop offset="1" stop-color="#804B24"/>
</linearGradient>
<linearGradient id="paint11_linear" x1="27.6625" y1="8.87533" x2="20.786" y2="47.5486" gradientUnits="userSpaceOnUse">
<stop stop-color="#A46C3F" stop-opacity="0"/>
<stop offset="1" stop-color="#804B24"/>
</linearGradient>
<radialGradient id="paint12_radial" cx="0" cy="0" r="1" gradientUnits="userSpaceOnUse" gradientTransform="translate(23.4156 22.9147) scale(42.8164 42.8239)">
<stop offset="0.6147" stop-color="#8D562E" stop-opacity="0"/>
<stop offset="1" stop-color="#804B24"/>
</radialGradient>
<linearGradient id="paint13_linear" x1="40.5307" y1="19.7322" x2="51.8277" y2="108.865" gradientUnits="userSpaceOnUse">
<stop stop-color="#A46C3F" stop-opacity="0"/>
<stop offset="1" stop-color="#804B24"/>
</linearGradient>
<radialGradient id="paint14_radial" cx="0" cy="0" r="1" gradientUnits="userSpaceOnUse" gradientTransform="translate(35.5069 30.2812) scale(41.2829 41.29)">
<stop offset="0.6147" stop-color="#8D562E" stop-opacity="0"/>
<stop offset="1" stop-color="#804B24"/>
</radialGradient>
<radialGradient id="paint15_radial" cx="0" cy="0" r="1" gradientUnits="userSpaceOnUse" gradientTransform="translate(40.5658 39.0595) rotate(-53.8505) scale(12.7324 6.65873)">
<stop stop-color="#F8DBBA"/>
<stop offset="1" stop-color="#CD9870" stop-opacity="0"/>
</radialGradient>
<radialGradient id="paint16_radial" cx="0" cy="0" r="1" gradientUnits="userSpaceOnUse" gradientTransform="translate(41.1268 24.1252) rotate(-4.61935) scale(28.8718 4.04626)">
<stop stop-color="#F8DBBA"/>
<stop offset="1" stop-color="#CD9870" stop-opacity="0"/>
</radialGradient>
<radialGradient id="paint17_radial" cx="0" cy="0" r="1" gradientUnits="userSpaceOnUse" gradientTransform="translate(18.5789 47.0594) rotate(-37.137) scale(5.38529 2.57214)">
<stop stop-color="#F8DBBA"/>
<stop offset="1" stop-color="#CD9870" stop-opacity="0"/>
</radialGradient>
</defs>
</svg>
