<svg width="80" height="80" viewBox="0 0 80 80" fill="none" xmlns="http://www.w3.org/2000/svg">
<path d="M68.3967 41.1814C66.7645 39.7729 60.7681 38.25 56.0109 43.7643C54.1597 45.9094 52.647 45.1828 51.6567 44.1924C50.9998 43.5354 49.2333 37.3094 50.2584 33.7857L41.5301 33.3677C41.3709 34.8159 40.1816 36.6076 39.6591 36.6474C39.1366 36.6872 38.7086 35.4281 38.619 34.1889C38.5295 32.9546 30.8661 38.6332 30.4033 38.8572C30.0998 39.0065 27.0643 39.1607 24.5712 40.1462C18.8934 38.897 14.2307 38.0658 12.693 37.9414C11.4938 41.903 11.3445 47.3377 11.3445 50.0949C11.8322 64.4283 17.0522 73.2722 32.2545 73.9192C32.7173 73.9441 33.1801 73.969 33.6379 73.969C33.7822 73.969 33.9116 73.9839 34.0609 73.9839C35.8822 73.9839 37.5442 73.7599 39.0719 73.3767C43.0678 72.5058 46.5661 70.7191 48.6809 68.2605C54.1448 61.9299 54.3588 57.9235 59.0613 52.7177C63.0423 48.3132 68.1578 48.9901 70.0985 46.7405C71.7307 44.8593 69.3173 41.9727 68.3967 41.1814Z" fill="url(#paint0_linear)"/>
<path d="M70.0985 46.7454C70.9842 45.7202 70.6757 44.3964 70.0637 43.2766C68.0433 47.8155 62.3904 44.6303 51.796 56.9132C41.2017 69.1911 30.9706 66.5982 27.4823 64.6572C23.9939 62.7162 21.5755 56.1219 19.9533 47.9747C19.4556 45.4714 18.5301 42.5549 17.3358 39.6235C15.624 40.6587 12.6333 45.8446 13.5489 47.6363C15.5394 51.5133 12.698 63.3134 19.8438 69.4848C28.1142 76.6216 43.217 74.601 48.6809 68.2704C54.1448 61.9398 54.3588 57.9334 59.0613 52.7276C63.0422 48.3181 68.1627 48.995 70.0985 46.7454Z" fill="url(#paint1_linear)"/>
<path d="M40.5696 34.8758C40.5895 34.4876 40.6094 34.0696 40.6243 33.6217C40.903 26.2957 40.8632 11.5293 41.1966 9.58834C41.5499 7.52791 42.6795 6.00498 45.6403 6.00001C48.5962 5.99503 50.0443 8.77213 49.6959 12.5147C49.3476 16.2573 50.099 30.2374 50.323 34.9455C50.6713 42.2366 51.8507 53.5391 51.8507 53.5391L40.8731 46.029L40.5696 34.8758Z" fill="url(#paint2_linear)"/>
<path d="M42.2117 22.5034C42.0027 14.9634 41.744 9.76258 42.779 6.77148C41.8684 7.4135 41.3956 8.40888 41.1966 9.5884C40.8632 11.5294 40.908 26.2908 40.6243 33.6217C40.6094 34.0696 40.5895 34.4877 40.5696 34.8759L40.6741 38.7777L41.2016 39.9871C41.2016 39.9871 42.4954 32.6612 42.2117 22.5034Z" fill="url(#paint3_linear)"/>
<path d="M12.2849 16.2177C8.11484 17.0389 8.80155 21.2145 9.6077 25.186C10.4736 29.4412 12.8522 45.5911 12.8522 45.5911L22.6006 46.1983C22.6006 46.1983 22.8544 44.7451 22.4862 42.6647C21.3914 36.5133 18.7391 23.9468 17.7488 20.0548C16.455 14.9635 12.2849 16.2177 12.2849 16.2177Z" fill="url(#paint4_linear)"/>
<path d="M22.491 42.67C21.3962 36.5186 18.7439 23.952 17.7537 20.0601C17.0421 17.2631 15.4647 16.3822 14.1858 16.1582C17.4302 18.6466 18.8136 31.3725 20.5801 36.8023C22.068 41.381 22.5208 43.2722 22.6452 43.8843C22.6104 43.5061 22.5656 43.103 22.491 42.67Z" fill="url(#paint5_linear)"/>
<path d="M11.3494 50.0947C11.3494 52.4537 12.4939 53.5138 13.0612 53.897C13.2503 54.0264 13.3797 54.0762 13.3797 54.0762L24.0387 61.8799L43.5504 57.8337L41.4604 40.0862C38.5344 39.708 35.8572 39.4442 33.2795 39.2402C33.1551 39.2302 31.6672 34.9401 31.5428 34.9302C31.4134 34.9202 30.8212 38.9017 30.6919 38.8918C24.3024 38.414 20.2767 38.5733 12.6929 37.9462C11.4937 41.9028 11.3494 47.3425 11.3494 50.0947Z" fill="url(#paint6_linear)"/>
<path opacity="0.5" d="M11.0357 21.5524C10.0654 21.3434 10.4237 19.4024 11.2497 18.4319C12.0758 17.4564 13.5338 16.8393 14.5042 17.0434C15.4745 17.2524 15.1013 18.4419 14.7828 19.492C14.2355 21.3036 12.0111 21.7565 11.0357 21.5524Z" fill="url(#paint7_radial)"/>
<path opacity="0.5" d="M43.9585 7.26888C44.272 6.32327 46.163 6.89561 47.0388 7.82629C47.9146 8.75199 48.3724 10.2699 48.0639 11.2155C47.7504 12.1611 46.6059 11.6585 45.6007 11.2255C43.859 10.479 43.65 8.21448 43.9585 7.26888Z" fill="url(#paint8_radial)"/>
<g opacity="0.5">
<path opacity="0.75" d="M14.4098 50.603C12.8821 52.4643 17.5249 63.1746 22.108 65.872C26.6861 68.5695 32.4286 67.7433 33.5483 65.5983C34.6679 63.4533 29.9057 60.1237 26.0093 56.4309C19.2865 50.0655 15.9375 48.7466 14.4098 50.603Z" fill="url(#paint9_radial)"/>
</g>
<path d="M13.9122 56.4505C10.9165 51.175 13.4494 42.0623 12.8871 40.2756C12.3248 38.4889 12.5089 31.7204 11.0061 25.6088C10.0905 21.8961 9.76703 19.2832 10.4289 17.0088C8.37867 18.5914 8.9559 21.9608 9.61276 25.1908C10.1651 27.8982 11.3246 35.4033 12.1009 40.5195C11.454 44.0183 11.3544 47.9052 11.3544 50.1C11.8122 63.5126 16.4103 72.1127 29.448 73.7003C21.4412 72.3167 16.7138 61.3875 13.9122 56.4505Z" fill="url(#paint10_linear)"/>
<path d="M32.4387 73.9294C32.0704 73.8746 31.6425 73.8398 31.12 73.8398C30.6075 73.8398 30.1149 73.79 29.6272 73.7153C30.5229 73.8199 31.4634 73.8895 32.4387 73.9294Z" fill="url(#paint11_linear)"/>
<path d="M70.0635 43.2818C69.546 42.3412 68.8194 41.5449 68.4014 41.1816C66.7693 39.7731 60.773 38.2502 56.0157 43.7646C54.1646 45.9096 51.1092 45.7802 50.741 41.3508C50.5668 39.1212 50.4126 36.8915 50.323 34.9406C50.0991 30.2325 49.3477 16.2524 49.696 12.5098C49.9199 10.0762 49.3775 8.07048 48.1633 6.95068C49.1984 10.2056 48.7754 15.0381 49.0789 27.8635C49.2531 35.3537 49.3228 38.0263 49.6811 41.3906C50.746 50.7322 54.7269 48.1542 57.5633 45.7902C60.3998 43.4311 62.8878 39.1958 68.1775 42.3213C69.9739 43.3863 70.0934 43.8044 70.0635 43.2818Z" fill="url(#paint12_linear)"/>
<path d="M37.4346 47.9546C41.958 47.8401 42.5999 43.3958 41.6743 34.1587L41.4753 32.168L31.8215 39.698L22.4265 41.1164L21.1078 36.0549C21.073 36.0549 21.1426 36.0549 21.1078 36.0549C21.1078 36.0549 19.2218 50.5376 28.0744 49.6467C28.0744 49.6467 27.6515 49.7264 28.0744 49.6467C32.1599 48.8753 32.1151 43.2614 32.1151 43.2614C32.1151 43.2614 33.5233 48.0541 37.4346 47.9546Z" fill="url(#paint13_linear)"/>
<path d="M27.4921 49.1542C24.0287 49.1542 22.302 47.5118 21.8193 42.8335C21.3366 38.1553 19.2565 29.7593 25.6111 29.2765C31.3188 28.8435 31.8214 32.9146 31.8214 39.6981C31.8214 46.4816 30.4729 49.1542 27.4921 49.1542Z" fill="url(#paint14_linear)"/>
<path d="M27.0344 41.9326C24.392 43.57 22.6106 43.5999 21.481 41.3702C21.5058 41.6241 21.5357 41.8729 21.5556 42.1118C22.0383 47.4321 23.765 49.2984 27.2285 49.2984C29.6618 49.2984 31.0054 47.2678 31.4184 42.3208C30.7367 40.8825 28.5969 40.9671 27.0344 41.9326Z" fill="url(#paint15_linear)"/>
<path d="M27.0096 43.9334C24.1682 43.9334 22.8893 42.0969 22.4116 38.3294C22.1628 36.3934 20.5505 29.6349 25.7656 29.2715C30.7667 28.9232 30.7667 33.4073 30.8712 37.2146C31.0155 42.6941 29.4579 43.9334 27.0096 43.9334Z" fill="url(#paint16_linear)"/>
<path d="M25.427 48.8754C26.0341 49.0596 26.7159 49.1541 27.4921 49.1541C30.4729 49.1541 31.8165 46.4815 31.8165 39.6981C31.8165 33.1584 31.4184 29.1272 26.2282 29.2616C28.3779 30.6451 30.1296 33.7955 30.1296 39.494C30.1345 47.5964 28.4476 48.8605 25.427 48.8754Z" fill="url(#paint17_linear)"/>
<path d="M28.4775 29.5303C29.2687 29.7741 29.9753 30.2868 30.4481 30.9736C30.9258 31.6554 31.2243 32.4517 31.4134 33.2579C31.7817 34.8804 31.8563 36.5427 31.9061 38.19C31.926 39.8423 32.0106 41.4897 31.8762 43.1519C31.712 44.7893 31.3886 46.5063 30.3535 47.8899C29.3433 49.3581 27.318 49.7164 25.7207 49.2834C24.8946 49.0843 24.1084 48.6663 23.5112 48.0492C22.9041 47.442 22.501 46.6755 22.2025 45.8942C21.6203 44.3165 21.456 42.6393 21.3615 40.9969C21.252 39.3496 21.0928 37.7072 21.1027 36.05C21.3565 37.6873 21.4461 39.3347 21.5854 40.977C21.6999 42.6194 21.889 44.2667 22.4712 45.7897C23.0236 47.3026 24.193 48.6314 25.7903 48.9599C27.328 49.3581 29.1343 49.0196 30.0649 47.6759C31.0502 46.4068 31.4035 44.7395 31.5876 43.132C31.7419 41.5046 31.6822 39.8473 31.6871 38.2C31.6622 36.5526 31.6075 34.9003 31.2691 33.2928C31.1049 32.4915 30.8362 31.7002 30.3883 31.0183C29.9455 30.3315 29.2637 29.799 28.4775 29.5303Z" fill="#975500"/>
<path d="M37.5391 47.223C34.2349 47.0936 32.14 44.9386 32.0802 40.33C32.0305 36.4431 30.1644 27.9177 36.2403 27.7137C42.0724 27.5146 42.0773 31.5011 41.9081 38.1352C41.739 44.7694 40.3855 47.3325 37.5391 47.223Z" fill="url(#paint18_linear)"/>
<path d="M37.2853 40.0562C34.7176 41.5443 33.0207 41.5144 31.9956 39.3047C32.0155 39.5486 32.0354 39.7974 32.0503 40.0263C32.3788 45.2073 33.9811 47.0836 37.2903 47.213C39.6142 47.3025 41.2563 45.4362 41.7688 40.6484C41.1518 39.2251 38.7981 39.1803 37.2853 40.0562Z" fill="url(#paint19_linear)"/>
<path d="M37.0465 40.4343C34.3344 40.3298 33.3242 40.061 32.956 36.3881C32.7669 34.4969 31.3935 27.8777 36.3846 27.7135C41.1667 27.5592 41.0573 31.9139 41.0623 35.6167C41.0672 40.9419 39.3853 40.5289 37.0465 40.4343Z" fill="url(#paint20_linear)"/>
<path d="M35.5735 46.8747C36.1507 47.0738 36.7976 47.1932 37.5391 47.2231C40.3855 47.3326 41.7391 44.7695 41.9083 38.1353C42.0725 31.74 42.0526 27.8183 36.8325 27.7188C38.8479 29.1521 40.4453 32.2975 40.3009 37.8716C40.0969 45.7997 38.4597 46.9693 35.5735 46.8747Z" fill="url(#paint21_linear)"/>
<path d="M38.9723 28.0669C39.7137 28.3307 40.4154 28.7686 40.8981 29.4107C41.3858 30.0477 41.6495 30.8291 41.8088 31.6054C42.0974 33.1781 42.0675 34.7707 42.0625 36.3484C42.0426 37.9261 42.0227 39.5137 41.8685 41.0963C41.6943 42.6641 41.4654 44.2865 40.6443 45.7149C40.2313 46.4216 39.5545 47.0139 38.7484 47.2378C37.9372 47.4717 37.1112 47.3722 36.3249 47.2328C35.5337 47.0736 34.7624 46.7501 34.1354 46.2225C33.5034 45.6999 33.0456 45.0032 32.742 44.2616C32.1449 42.7636 32.0105 41.1461 31.9607 39.5734L31.7766 34.8354L32.1249 39.5635C32.2095 41.1362 32.3539 42.7238 32.956 44.1721C33.5283 45.6353 34.842 46.7053 36.3846 46.9442C37.141 47.0736 37.9472 47.1482 38.6588 46.9243C39.3803 46.7152 39.9675 46.1877 40.3457 45.5258C41.132 44.2069 41.3907 42.6093 41.5798 41.0615C41.759 39.4988 41.7938 37.9211 41.8336 36.3434C41.8635 34.7707 41.8983 33.1831 41.6445 31.6353C41.5201 30.8639 41.2912 30.0975 40.8334 29.4604C40.3806 28.8184 39.7088 28.3556 38.9723 28.0669Z" fill="#975500"/>
<path d="M42.0128 37.3289C42.0128 37.3289 41.963 37.3189 41.9381 37.314C42.386 44.411 41.4107 47.855 37.4347 47.9545C33.5234 48.054 32.1101 43.2564 32.1101 43.2564C32.1101 43.2564 32.1549 48.8703 28.0695 49.6417C28.0695 49.6417 28.0048 49.6566 27.95 49.6666C27.8754 49.6815 27.8953 49.6765 27.95 49.6666C27.9799 49.6616 27.9998 49.6566 28.0695 49.6417C24.825 49.9701 23.0335 48.2233 22.0532 45.8891C23.0286 48.6214 24.815 50.1394 27.2434 50.1394C30.9158 50.1394 31.8016 46.9392 32.553 46.9392C33.3044 46.9392 36.2702 49.1539 37.8178 49.1539C42.9533 49.1539 42.2019 40.8177 42.0128 37.3289Z" fill="url(#paint22_linear)"/>
<defs>
<linearGradient id="paint0_linear" x1="6.0971" y1="61.8169" x2="44.5122" y2="49.9576" gradientUnits="userSpaceOnUse">
<stop offset="0.00132565" stop-color="#D2A374"/>
<stop offset="1" stop-color="#DEBA94"/>
</linearGradient>
<linearGradient id="paint1_linear" x1="42.0136" y1="52.877" x2="42.0136" y2="113.356" gradientUnits="userSpaceOnUse">
<stop stop-color="#D2A374" stop-opacity="0"/>
<stop offset="1" stop-color="#B88653"/>
</linearGradient>
<linearGradient id="paint2_linear" x1="49.271" y1="-30.4174" x2="46.0837" y2="40.7559" gradientUnits="userSpaceOnUse">
<stop offset="0.00132565" stop-color="#D2A374"/>
<stop offset="1" stop-color="#DEBA94"/>
</linearGradient>
<linearGradient id="paint3_linear" x1="41.675" y1="-1.12236" x2="41.675" y2="61.1875" gradientUnits="userSpaceOnUse">
<stop stop-color="#D2A374" stop-opacity="0"/>
<stop offset="1" stop-color="#B88653"/>
</linearGradient>
<linearGradient id="paint4_linear" x1="-1.54699" y1="37.0566" x2="36.8683" y2="25.1972" gradientUnits="userSpaceOnUse">
<stop offset="0.00132565" stop-color="#D2A374"/>
<stop offset="1" stop-color="#DEBA94"/>
</linearGradient>
<linearGradient id="paint5_linear" x1="17.2113" y1="15.0452" x2="20.6642" y2="58.0677" gradientUnits="userSpaceOnUse">
<stop stop-color="#D2A374" stop-opacity="0"/>
<stop offset="1" stop-color="#B88653"/>
</linearGradient>
<linearGradient id="paint6_linear" x1="4.08845" y1="55.3104" x2="42.5036" y2="43.4511" gradientUnits="userSpaceOnUse">
<stop offset="0.00132565" stop-color="#D2A374"/>
<stop offset="1" stop-color="#DEBA94"/>
</linearGradient>
<radialGradient id="paint7_radial" cx="0" cy="0" r="1" gradientUnits="userSpaceOnUse" gradientTransform="translate(12.8406 19.3454) rotate(130.278) scale(2.89634 1.53336)">
<stop stop-color="#E9CDB1"/>
<stop offset="1" stop-color="#E9CDB1" stop-opacity="0"/>
</radialGradient>
<radialGradient id="paint8_radial" cx="0" cy="0" r="1" gradientUnits="userSpaceOnUse" gradientTransform="translate(46.0056 9.33867) rotate(-133.441) scale(2.89662 1.5334)">
<stop stop-color="#E9CDB1"/>
<stop offset="1" stop-color="#E9CDB1" stop-opacity="0"/>
</radialGradient>
<radialGradient id="paint9_radial" cx="0" cy="0" r="1" gradientUnits="userSpaceOnUse" gradientTransform="translate(23.4949 59.8408) rotate(-138.626) scale(13.4076 6.1273)">
<stop stop-color="#E9CDB1"/>
<stop offset="1" stop-color="#E9CDB1" stop-opacity="0"/>
</radialGradient>
<linearGradient id="paint10_linear" x1="43.1425" y1="45.0396" x2="-92.4774" y2="46.853" gradientUnits="userSpaceOnUse">
<stop stop-color="#D2A374" stop-opacity="0"/>
<stop offset="1" stop-color="#B88653"/>
</linearGradient>
<linearGradient id="paint11_linear" x1="46.6563" y1="13.0456" x2="4.24131" y2="177.965" gradientUnits="userSpaceOnUse">
<stop stop-color="#FFBC47" stop-opacity="0"/>
<stop offset="1" stop-color="#C86F34"/>
</linearGradient>
<linearGradient id="paint12_linear" x1="59.839" y1="21.6666" x2="45.4373" y2="91.6588" gradientUnits="userSpaceOnUse">
<stop stop-color="#D2A374" stop-opacity="0"/>
<stop offset="1" stop-color="#B88653"/>
</linearGradient>
<linearGradient id="paint13_linear" x1="37.253" y1="65.2123" x2="34.5084" y2="52.3765" gradientUnits="userSpaceOnUse">
<stop stop-color="#D2A374" stop-opacity="0"/>
<stop offset="1" stop-color="#B88653"/>
</linearGradient>
<linearGradient id="paint14_linear" x1="26.4633" y1="38.6702" x2="26.4633" y2="57.7112" gradientUnits="userSpaceOnUse">
<stop offset="0.00132565" stop-color="#D2A374"/>
<stop offset="1" stop-color="#DEBA94"/>
</linearGradient>
<linearGradient id="paint15_linear" x1="26.4511" y1="36.8367" x2="26.4511" y2="65.5229" gradientUnits="userSpaceOnUse">
<stop stop-color="#D2A374" stop-opacity="0"/>
<stop offset="1" stop-color="#B88653"/>
</linearGradient>
<linearGradient id="paint16_linear" x1="26.4294" y1="43.1153" x2="26.4294" y2="26.4967" gradientUnits="userSpaceOnUse">
<stop offset="0.00132565" stop-color="#D2A374"/>
<stop offset="1" stop-color="#DEBA94"/>
</linearGradient>
<linearGradient id="paint17_linear" x1="19.1521" y1="34.732" x2="64.9994" y2="60.7738" gradientUnits="userSpaceOnUse">
<stop stop-color="#D2A374" stop-opacity="0"/>
<stop offset="1" stop-color="#B88653"/>
</linearGradient>
<linearGradient id="paint18_linear" x1="36.8112" y1="36.9353" x2="36.2184" y2="55.5615" gradientUnits="userSpaceOnUse">
<stop offset="0.00132565" stop-color="#D2A374"/>
<stop offset="1" stop-color="#DEBA94"/>
</linearGradient>
<linearGradient id="paint19_linear" x1="37.0344" y1="35.1482" x2="36.1517" y2="62.8828" gradientUnits="userSpaceOnUse">
<stop stop-color="#D2A374" stop-opacity="0"/>
<stop offset="1" stop-color="#B88653"/>
</linearGradient>
<linearGradient id="paint20_linear" x1="36.6795" y1="39.7259" x2="37.1376" y2="25.3337" gradientUnits="userSpaceOnUse">
<stop offset="0.00132565" stop-color="#D2A374"/>
<stop offset="1" stop-color="#DEBA94"/>
</linearGradient>
<linearGradient id="paint21_linear" x1="29.5259" y1="32.8458" x2="73.9235" y2="60.8969" gradientUnits="userSpaceOnUse">
<stop stop-color="#D2A374" stop-opacity="0"/>
<stop offset="1" stop-color="#B88653"/>
</linearGradient>
<linearGradient id="paint22_linear" x1="32.1066" y1="61.0753" x2="32.1066" y2="38.9278" gradientUnits="userSpaceOnUse">
<stop stop-color="#D2A374" stop-opacity="0"/>
<stop offset="1" stop-color="#B88653"/>
</linearGradient>
</defs>
</svg>
