<svg width="80" height="80" viewBox="0 0 80 80" fill="none" xmlns="http://www.w3.org/2000/svg">
<path d="M40 70.4762C56.8315 70.4762 70.4762 56.8315 70.4762 40C70.4762 23.1685 56.8315 9.5238 40 9.5238C23.1685 9.5238 9.5238 23.1685 9.5238 40C9.5238 56.8315 23.1685 70.4762 40 70.4762Z" fill="url(#paint0_radial)"/>
<path opacity="0.5" d="M40 70.4762C56.8315 70.4762 70.4762 56.8315 70.4762 40C70.4762 23.1685 56.8315 9.5238 40 9.5238C23.1685 9.5238 9.5238 23.1685 9.5238 40C9.5238 56.8315 23.1685 70.4762 40 70.4762Z" fill="url(#paint1_radial)"/>
<path d="M49.943 37.4855C51.563 37.4855 52.8763 35.4985 52.8763 33.0474C52.8763 30.5963 51.563 28.6093 49.943 28.6093C48.3229 28.6093 47.0096 30.5963 47.0096 33.0474C47.0096 35.4985 48.3229 37.4855 49.943 37.4855Z" fill="url(#paint2_radial)"/>
<path d="M20.8003 25.2762C21.1622 26.4381 22.648 26.7809 24.8194 26.0952C26.667 25.5238 30.3813 23.2381 32.0575 18.7809C32.3622 17.9619 31.467 17.8476 31.0861 18.4381C29.8289 20.4381 25.8289 23.7333 22.1146 24.4762C20.6289 24.7619 20.8003 25.2762 20.8003 25.2762Z" fill="url(#paint3_linear)"/>
<path d="M30.0569 37.4855C31.6769 37.4855 32.9902 35.4985 32.9902 33.0474C32.9902 30.5963 31.6769 28.6093 30.0569 28.6093C28.4368 28.6093 27.1235 30.5963 27.1235 33.0474C27.1235 35.4985 28.4368 37.4855 30.0569 37.4855Z" fill="url(#paint4_radial)"/>
<path d="M30.0569 30.1141C31.314 30.1141 32.4188 31.2189 32.9902 32.8379C32.9521 30.4379 31.6569 28.5141 30.0569 28.5141C28.4569 28.5141 27.1616 30.4379 27.1235 32.8379C27.695 31.2189 28.7807 30.1141 30.0569 30.1141Z" fill="#24420D"/>
<path d="M49.943 30.2287C48.6858 30.2287 47.5811 31.3335 47.0096 32.9525C47.0477 30.5525 48.343 28.6287 49.943 28.6287C51.543 28.6287 52.8382 30.5525 52.8763 32.9525C52.3049 31.3335 51.2192 30.2287 49.943 30.2287Z" fill="#24420D"/>
<path d="M59.1998 25.2762C58.8379 26.4381 57.3522 26.7809 55.1807 26.0952C53.3331 25.5238 49.6188 23.2381 47.9426 18.7809C47.6379 17.9619 48.5331 17.8476 48.9141 18.4381C50.1712 20.4381 54.1712 23.7333 57.8855 24.4762C59.3712 24.7619 59.1998 25.2762 59.1998 25.2762Z" fill="url(#paint5_linear)"/>
<path d="M52.2289 47.3714C50.0955 47.8857 48.7622 49.1619 48.1527 50.8C46.9908 49.6381 44.5908 48.1143 39.9241 48.1143C35.2574 48.1143 32.9146 49.6191 31.7908 50.8C31.1241 49.1619 29.7336 47.8857 27.5813 47.3714C27.4098 47.3333 27.3146 47.5619 27.467 47.6571C30.0384 49.2381 31.7908 52.7048 31.1241 56.8C31.086 56.9714 31.3336 57.0667 31.4098 56.8953C32.1336 55.2762 32.4003 54.1714 32.1527 52.6857C34.8765 50.8762 37.8289 50.5333 39.9432 50.5333C42.0574 50.5333 45.0289 50.8572 47.8098 52.6857C47.6193 54.1714 47.9432 55.2762 48.7241 56.8953C48.8003 57.0667 49.0479 56.9714 49.0098 56.8C48.1908 52.7048 49.8098 49.2381 52.3241 47.6571C52.4955 47.5619 52.4003 47.3333 52.2289 47.3714Z" fill="url(#paint6_radial)"/>
<path d="M52.2289 47.3714C50.0955 47.8857 48.7622 49.1619 48.1527 50.8C46.9908 49.6381 44.5908 48.1143 39.9241 48.1143C35.2574 48.1143 32.9146 49.619 31.7908 50.8C31.1241 49.1619 29.7336 47.8857 27.5813 47.3714C27.4098 47.3333 27.3146 47.5619 27.467 47.6571C27.7146 47.8095 27.9432 47.9619 28.1717 48.1524C30.0194 49.2381 30.9717 50.5524 31.3527 51.3905C31.4479 51.6 31.7146 51.6762 31.9051 51.5428C32.8765 50.7809 35.6765 48.9333 39.9241 48.9333C44.1717 48.9333 47.0479 50.7809 48.0384 51.5428C48.2289 51.6952 48.4955 51.619 48.5908 51.3905C48.9336 50.5524 49.8289 49.2381 51.6384 48.1524C51.867 47.9619 52.0955 47.8095 52.3241 47.6571C52.4955 47.5619 52.4003 47.3333 52.2289 47.3714Z" fill="#24420D"/>
<path d="M31.4292 56.8951C32.153 55.2761 32.4197 54.1713 32.1721 52.6856C32.1721 52.6856 32.2102 53.8475 31.1435 56.7999C31.1054 56.9713 31.353 57.0666 31.4292 56.8951Z" fill="url(#paint7_linear)"/>
<path d="M48.7429 56.8951C47.9429 55.2761 47.6382 54.1713 47.8286 52.6856C47.8286 52.6856 47.8477 53.8475 49.0286 56.7999C49.0667 56.9713 48.8191 57.0666 48.7429 56.8951Z" fill="url(#paint8_linear)"/>
<defs>
<radialGradient id="paint0_radial" cx="0" cy="0" r="1" gradientUnits="userSpaceOnUse" gradientTransform="translate(43.1461 33.0773) scale(49.498)">
<stop stop-color="#B0D55B"/>
<stop offset="1" stop-color="#45800A"/>
</radialGradient>
<radialGradient id="paint1_radial" cx="0" cy="0" r="1" gradientUnits="userSpaceOnUse" gradientTransform="translate(30.9841 27.4036) scale(21.1317)">
<stop stop-color="#D8F88D"/>
<stop offset="1" stop-color="#B0D55B" stop-opacity="0"/>
</radialGradient>
<radialGradient id="paint2_radial" cx="0" cy="0" r="1" gradientUnits="userSpaceOnUse" gradientTransform="translate(48.8072 31.9272) scale(8.31415)">
<stop offset="0.00132565" stop-color="#366E0D"/>
<stop offset="1" stop-color="#24420D"/>
</radialGradient>
<linearGradient id="paint3_linear" x1="32.7502" y1="20.9504" x2="20.4824" y2="24.0635" gradientUnits="userSpaceOnUse">
<stop offset="0.00132565" stop-color="#366E0D"/>
<stop offset="1" stop-color="#24420D"/>
</linearGradient>
<radialGradient id="paint4_radial" cx="0" cy="0" r="1" gradientUnits="userSpaceOnUse" gradientTransform="translate(28.9065 31.9272) scale(8.31414)">
<stop offset="0.00132565" stop-color="#366E0D"/>
<stop offset="1" stop-color="#24420D"/>
</radialGradient>
<linearGradient id="paint5_linear" x1="47.2283" y1="20.9297" x2="59.496" y2="24.0428" gradientUnits="userSpaceOnUse">
<stop offset="0.00132565" stop-color="#366E0D"/>
<stop offset="1" stop-color="#24420D"/>
</linearGradient>
<radialGradient id="paint6_radial" cx="0" cy="0" r="1" gradientUnits="userSpaceOnUse" gradientTransform="translate(35.1452 44.6417) scale(33.5641)">
<stop offset="0.00132565" stop-color="#366E0D"/>
<stop offset="1" stop-color="#24420D"/>
</radialGradient>
<linearGradient id="paint7_linear" x1="31.5356" y1="46.4497" x2="31.5356" y2="57.8262" gradientUnits="userSpaceOnUse">
<stop offset="0.00662825" stop-color="#24420D"/>
<stop offset="1" stop-color="#407817"/>
</linearGradient>
<linearGradient id="paint8_linear" x1="48.2432" y1="46.4497" x2="48.2432" y2="57.8262" gradientUnits="userSpaceOnUse">
<stop offset="0.00662825" stop-color="#24420D"/>
<stop offset="1" stop-color="#407817"/>
</linearGradient>
</defs>
</svg>
