<svg width="80" height="80" viewBox="0 0 80 80" fill="none" xmlns="http://www.w3.org/2000/svg">
<path d="M49.0988 57.2488C52.0275 57.2488 54.4017 54.8742 54.4017 51.945C54.4017 49.0157 52.0275 46.6411 49.0988 46.6411C46.1701 46.6411 43.7959 49.0157 43.7959 51.945C43.7959 54.8742 46.1701 57.2488 49.0988 57.2488Z" fill="url(#paint0_linear)"/>
<path d="M18.8541 53.8969C15.8069 55.4803 8 57.6795 8 42.3113C8 26.943 11.0472 23.7711 13.4271 23.7711C15.8069 23.7711 17.39 24.0143 19.0973 21.8203C20.8046 19.6263 23.4896 18.5293 27.3905 18.8915C31.2914 19.2589 32.5641 16.9459 34.023 14.9951C35.4871 13.0443 39.4604 10.4778 43.1181 13.1582C46.7759 15.8437 49.0936 16.0869 51.6545 14.6225C54.2154 13.1582 60.9204 12.915 63.7296 18.6483C66.5389 24.3816 67.8736 29.9908 67.8736 33.8923C67.8736 37.7939 69.2136 41.2091 70.5587 43.8946C71.8987 46.5802 73.3628 52.3084 69.5809 58.8955C65.799 65.4826 65.5559 67.5576 60.6772 67.1902C55.7985 66.8228 52.1512 65.969 41.654 65.969C39.7036 65.969 36.8995 65.1152 36.8995 62.4297C36.8995 59.7441 39.8278 56.9395 43.4855 55.4752C47.1432 54.0108 57.8731 52.6706 59.4614 49.6228C61.0445 46.575 38.9741 48.6448 38.9741 48.6448L18.8541 53.8969Z" fill="url(#paint1_linear)"/>
<path d="M69.5861 58.8943C73.3679 52.3072 71.9038 46.5739 70.5639 43.8935C69.3843 41.5339 68.2099 38.6155 67.9409 35.2935C67.9409 35.2935 67.9409 35.2935 67.9409 35.2986C68.0754 38.4033 62.638 48.0124 59.4666 49.6268C58.4112 51.6552 53.3204 52.9281 48.9435 53.9837C46.7396 54.5167 44.7167 54.9928 43.4906 55.4843C39.8329 56.9487 36.9047 59.7533 36.9047 62.4389C36.9047 65.1244 39.7087 65.9782 41.6592 65.9782C52.1563 65.9782 55.8037 66.832 60.6824 67.1994C65.561 67.5564 65.8042 65.4815 69.5861 58.8943Z" fill="url(#paint2_linear)"/>
<path d="M50.4438 21.6743C50.7025 22.316 50.9147 22.9369 51.1372 23.563C50.9147 22.9369 50.7025 22.3108 50.4438 21.6743Z" fill="url(#paint3_linear)"/>
<path d="M48.1469 17.1309C48.2089 17.2085 48.2658 17.2861 48.3227 17.3689C48.2658 17.2861 48.2089 17.2085 48.1469 17.1309Z" fill="url(#paint4_linear)"/>
<path d="M66.2906 25.3223C66.2958 25.1515 66.2492 25.0118 66.2337 24.8462C66.2026 24.7479 66.1561 24.6496 66.125 24.5513C65.9233 50.2426 66.2854 56.5814 58.1164 56.5814C49.9473 56.5814 49.3368 53.5336 49.3368 52.1882C49.3368 51.6501 49.2954 49.5079 49.2489 46.8171C49.2489 46.8171 49.2489 46.8171 49.2489 46.8223C49.2489 54.3822 47.9917 57.4352 42.1404 57.4352C41.4316 57.4352 40.7694 57.4145 40.1382 57.3627C39.7037 57.6939 39.3001 58.0406 38.938 58.4028C38.3999 58.941 40.9246 61.3368 49.5489 60.0845C51.2666 59.8361 63.0519 63.567 66.6579 56.1985C68.2203 53.0265 65.587 46.7757 66.2906 25.3223Z" fill="url(#paint5_linear)"/>
<path d="M66.1302 24.5358C65.5042 22.6316 64.7126 20.6497 63.7297 18.6472C60.9256 12.9139 54.2155 13.1571 51.6545 14.6214C50.7957 15.113 49.9576 15.3925 49.0936 15.4701V34.5019C49.0936 39.5004 49.3368 50.8481 49.3368 52.1883C49.3368 53.5285 49.9473 56.5815 58.1163 56.5815C66.2906 56.5763 65.9233 50.2375 66.1302 24.5358Z" fill="url(#paint6_linear)"/>
<path d="M43.1233 13.157C39.4656 10.4715 35.4923 13.0432 34.0282 14.994C33.0866 16.2514 32.1864 17.3484 30.6705 18.2436C30.6705 18.2487 30.6705 18.2539 30.6705 18.2591C30.7792 25.8345 30.9292 32.5562 30.9292 32.5562C30.9292 39.1433 32.2019 45.7098 32.533 49.5234C33.0969 56.0122 36.2942 57.4403 42.1507 57.4403C48.002 57.4403 49.2592 54.3874 49.2592 46.8275C49.2592 41.3839 49.2592 24.4892 49.2592 15.4597C47.5001 15.6667 45.6273 14.994 43.1233 13.157Z" fill="url(#paint7_linear)"/>
<path d="M17.2659 37.3061C17.0744 32.023 17.5142 26.9986 18.1298 22.7969C16.7588 23.9042 15.3516 23.7645 13.4271 23.7645C11.0472 23.7645 8 26.9365 8 42.3047C8 57.6729 15.8069 55.479 18.8541 53.8904L19.0714 53.8335C18.0885 50.7754 17.5763 45.7043 17.2659 37.3061Z" fill="url(#paint8_linear)"/>
<path d="M32.5279 49.5181C32.2123 45.9115 31.0741 39.847 30.95 33.6272C30.9344 33.2495 30.9241 32.8873 30.9241 32.5509C30.9241 32.5509 30.7741 25.8344 30.6654 18.2538C30.6654 18.2486 30.6654 18.2435 30.6654 18.2383C29.8221 18.735 28.7822 19.0196 27.3905 18.8851C23.4897 18.5177 20.8046 19.6147 19.0973 21.8139C18.7714 22.233 18.4506 22.5383 18.1298 22.797C17.5142 26.9935 17.0744 32.0231 17.2659 37.3063C17.9953 57.3109 19.8837 58.47 26.5317 58.47C30.3446 58.47 33.0815 57.3367 34.1834 54.7598C34.1834 54.7547 34.1783 54.7392 34.1731 54.7288C33.2884 53.5387 32.7348 51.8621 32.5279 49.5181Z" fill="url(#paint9_linear)"/>
<path d="M42.1456 57.435C47.9969 57.435 49.254 54.3821 49.254 46.8221C49.254 46.8221 49.254 46.8221 49.254 46.817C49.3006 49.5077 49.342 51.6499 49.342 52.1881C49.342 53.5283 49.9525 56.5812 58.1215 56.5812C66.2906 56.5812 65.9285 50.2425 66.1302 24.5408C65.8508 23.687 65.5249 22.8177 65.1783 21.938C63.9987 26.4295 62.1517 34.5275 62.1517 41.1043C62.1517 50.7496 59.1045 50.6047 53.8585 49.9993C48.6125 49.3887 50.444 30.3621 48.9798 30.3621C47.5157 30.3621 49.104 46.6462 47.883 48.5349C46.6621 50.4236 41.7782 51.9501 36.6616 50.9721C31.5501 49.9941 32.7607 31.5781 30.6706 31.5781C28.5805 31.5781 32.8797 53.5335 24.8865 53.5335C16.8934 53.5335 19.1025 36.4576 17.271 36.4576C15.4396 36.4576 17.271 46.3357 16.8002 49.1403C16.3812 51.6448 11.8388 52.2864 8.56909 48.4987C10.4212 56.9693 16.2984 55.2255 18.849 53.8957L19.0663 53.8387C20.4217 58.0715 22.6774 58.4699 26.5317 58.4699C30.3446 58.4699 33.0815 57.3367 34.1834 54.7598C34.1834 54.7546 34.1783 54.7391 34.1731 54.7339C35.7562 56.8451 38.4051 57.435 42.1456 57.435Z" fill="url(#paint10_linear)"/>
<path d="M66.244 42.429C66.244 37.3684 66.125 24.5356 66.125 24.5356C65.9232 50.2373 66.2854 56.5761 58.1163 56.5761C49.9473 56.5761 49.3368 53.5283 49.3368 52.1829L49.2489 46.817C49.2489 54.3769 47.9917 57.4299 42.1404 57.4299C41.4213 57.4299 40.7591 57.3988 40.1175 57.3471C40.1124 57.3522 40.1124 57.3626 40.1072 57.3626C39.6778 57.6886 39.2846 58.0353 38.9276 58.3923C48.2659 59.6238 48.5401 54.7753 49.3679 55.5981C51.4114 57.642 58.5457 60.1102 62.6277 57.4247C67.5374 54.2113 66.244 47.4948 66.244 42.429Z" fill="url(#paint11_linear)"/>
<path d="M69.5862 58.8947C73.368 52.3076 71.9039 46.5742 70.564 43.8938C70.1346 43.0349 69.7103 42.0983 69.3275 41.0996C69.3223 41.2704 69.3534 41.467 69.4672 41.6999C71.0503 44.9908 72.0022 50.2378 69.4672 57.0681C66.9321 63.8984 61.355 66.6409 57.5162 65.1196C53.6774 63.5931 45.8705 64.0847 42.6991 64.0847C40.459 64.0847 38.1774 63.0084 37.0237 61.5647C36.9565 61.8545 36.9099 62.1443 36.9099 62.434C36.9099 65.1196 39.714 65.9734 41.6644 65.9734C52.1616 65.9734 55.8089 66.8272 60.6876 67.1946C65.5611 67.5568 65.8043 65.4818 69.5862 58.8947Z" fill="url(#paint12_linear)"/>
<path d="M8.12927 45.4614C9.14329 57.3421 16.0293 55.3654 18.8541 53.8959L19.0714 53.8389C18.673 52.5971 18.3574 51.0085 18.0936 49.0215C17.509 53.4716 9.89863 52.1003 8.12927 45.4614Z" fill="url(#paint13_linear)"/>
<path d="M18.7869 52.8507C20.1061 58.0148 22.398 58.4702 26.5369 58.4702C30.3498 58.4702 33.0866 57.337 34.1886 54.7601C34.1886 54.7549 34.1834 54.7394 34.1782 54.729C33.2884 53.5337 32.7348 51.8572 32.5279 49.5183C32.4451 48.5455 32.295 47.3812 32.1295 46.0928C32.0829 46.2325 32.1191 46.6413 32.2692 47.433C33.5419 54.165 22.2532 57.6733 18.7869 52.8507Z" fill="url(#paint14_linear)"/>
<path d="M39.238 52.0379C36.0873 52.0379 33.1746 50.8063 32.3882 48.2139C32.4399 48.6692 32.4917 49.1194 32.5279 49.5178C33.0918 56.0067 36.2891 57.4349 42.1455 57.4349C47.1587 57.4349 48.7936 55.184 49.1609 49.7921L49.2023 48.4674C47.8468 51.5773 42.875 52.0379 39.238 52.0379Z" fill="url(#paint15_linear)"/>
<path d="M57.4438 13.9072C61.474 15.6045 63.3624 25.1307 63.3624 34.8381C63.3624 45.5389 62.4467 51.5776 56.8696 51.5776C51.2924 51.5776 50.0094 50.2943 49.3679 47.6449C49.342 47.5363 49.3058 47.469 49.2644 47.4224C49.3058 49.8286 49.342 51.6914 49.342 52.1882C49.342 53.5284 49.9525 56.5813 58.1216 56.5813C66.2906 56.5813 65.9285 50.2425 66.1302 24.5408C65.5042 22.6366 64.7127 20.6548 63.7297 18.6522C62.2966 15.7131 59.8444 14.3522 57.4438 13.9072Z" fill="url(#paint16_linear)"/>
<path opacity="0.08" d="M12.2372 35.4382C14.3376 35.1588 15.7966 38.4032 16.495 42.0978C17.0641 45.1145 15.7604 48.7573 13.7013 48.9798C11.6422 49.2023 9.7694 49.0367 9.08132 42.6928C8.67261 38.9568 10.1833 35.7124 12.2372 35.4382Z" fill="url(#paint17_radial)"/>
<path opacity="0.08" d="M14.1152 25.4564C16.6813 25.1822 18.1971 26.7035 18.7559 28.4991C19.2111 29.9634 17.3487 31.8677 14.8395 32.1109C12.3303 32.3541 10.0746 32.3955 9.72799 29.2804C9.52623 27.4383 11.6112 25.7255 14.1152 25.4564Z" fill="url(#paint18_radial)"/>
<path opacity="0.08" d="M24.3122 21.5032C26.7956 20.7995 28.5442 22.0465 29.3979 23.7179C30.0963 25.084 28.5753 27.2728 26.1437 27.9403C23.7121 28.6026 21.4926 29.0218 20.6287 26.0102C20.1216 24.2302 21.8858 22.1914 24.3122 21.5032Z" fill="url(#paint19_radial)"/>
<path opacity="0.08" d="M38.7361 14.5487C42.3162 13.5345 44.9392 15.6509 46.2688 18.414C47.3553 20.6753 45.2548 24.1525 41.742 25.1046C38.2291 26.0568 35.0164 26.6259 33.5988 21.6791C32.7659 18.7659 35.2336 15.5422 38.7361 14.5487Z" fill="url(#paint20_radial)"/>
<path opacity="0.08" d="M57.2006 16.6445C59.9892 16.9187 61.2515 19.0299 61.4326 21.2342C61.5827 23.035 59.1614 24.7995 56.435 24.5045C53.7085 24.2096 51.308 23.7283 51.6598 20.0493C51.8719 17.876 54.4793 16.3754 57.2006 16.6445Z" fill="url(#paint21_radial)"/>
<path opacity="0.08" d="M23.3189 35.0865C25.6626 34.7398 27.3026 38.4396 28.089 42.6568C28.7305 46.103 27.2715 50.2892 24.9745 50.5686C22.6774 50.848 20.5821 50.6825 19.8009 43.4278C19.3456 39.1537 21.027 35.4229 23.3189 35.0865Z" fill="url(#paint22_radial)"/>
<path opacity="0.08" d="M39.9623 31.7025C43.6614 31.185 46.1137 35.8421 47.2105 41.1822C48.1055 45.5494 45.6791 50.9257 42.0524 51.3552C38.4258 51.7899 35.1405 51.645 34.1524 42.4396C33.5729 37.0115 36.346 32.2044 39.9623 31.7025Z" fill="url(#paint23_radial)"/>
<path opacity="0.08" d="M57.0506 31.1797C59.9271 30.9365 61.6137 35.7643 62.219 41.1717C62.7156 45.5907 60.6048 50.7755 57.7956 50.9411C54.9812 51.1067 52.4565 50.7186 52.0995 41.4614C51.8926 36.0023 54.2414 31.4126 57.0506 31.1797Z" fill="url(#paint24_radial)"/>
<path d="M65.08 21.6742C64.6765 20.6756 64.2316 19.6665 63.7349 18.6472C60.9308 12.9138 54.2207 13.157 51.6598 14.6214C50.8217 15.0975 50.0094 15.3665 49.1713 15.4545C47.4382 15.6356 45.586 14.9629 43.1234 13.157C39.4657 10.4715 35.4924 13.0432 34.0283 14.994C33.0867 16.2514 32.1865 17.3484 30.6706 18.2436C29.8273 18.7403 28.7874 19.0249 27.3958 18.8904C23.4949 18.523 20.8098 19.62 19.1025 21.8191C18.7766 22.2383 18.4558 22.5436 18.1351 22.8023C16.7641 23.9096 15.3569 23.7699 13.4323 23.7699C12.113 23.7699 10.5817 24.7582 9.48486 28.2665C11.7509 24.0545 15.3413 25.9173 18.3058 25.2343C21.4824 24.5047 21.8342 17.3898 30.6706 20.1115C32.4555 20.66 34.6077 13.5244 38.8656 13.5244C43.1234 13.5244 45.8085 17.131 49.0989 17.131C52.3893 17.131 58.7424 12.2567 65.08 21.6742Z" fill="url(#paint25_linear)"/>
<path d="M49.254 31.9093L49.5644 48.7678L49.6214 50.8738C49.6627 51.5672 49.5903 52.3123 49.7352 52.9074C50.0094 54.1803 51.1941 55.0186 52.4461 55.4636C53.7188 55.9241 55.1053 56.1052 56.4815 56.1777C57.8629 56.2191 59.2701 56.2863 60.5583 55.9293C61.8517 55.6033 62.9278 54.765 63.5693 53.5904C63.947 53.0419 64.1177 52.3641 64.3764 51.738C64.5264 51.0653 64.7437 50.4133 64.8472 49.7251C65.3387 46.9929 65.4784 44.1832 65.618 41.3838C65.7526 38.5792 65.8146 35.7746 65.8819 32.9649L66.1251 24.5356C66.2027 30.1551 66.3217 35.7746 66.182 41.4045C66.1302 44.2194 65.975 47.0395 65.5042 49.8493C65.4059 50.553 65.1886 51.2412 65.0334 51.9398C64.7644 52.6124 64.5885 53.3213 64.1746 53.9475C63.4865 55.2514 62.1931 56.2812 60.7445 56.6382C59.3011 57.0159 57.8525 56.9228 56.4401 56.8762C55.0226 56.7883 53.5843 56.5968 52.2133 56.0897C50.8785 55.6085 49.4506 54.6305 49.1143 53.0523C48.954 52.2709 49.0419 51.5879 49.0109 50.8842L49.0005 48.7781C48.9902 43.1535 49.135 37.5288 49.254 31.9093Z" fill="#663C1D"/>
<path d="M39.238 57.2745C40.5987 57.3418 41.9697 57.2952 43.3045 57.1658C44.6289 57.0106 45.9326 56.6018 46.8535 55.7273C47.7848 54.8528 48.2194 53.5644 48.4884 52.2759C48.7626 50.9772 48.866 49.6214 48.9178 48.2709C49.0264 45.5698 48.9488 42.817 49.0109 40.0952C49.0678 37.3683 49.1299 34.6361 49.2489 31.9092L49.5438 48.2864C49.5179 49.6577 49.4507 51.0392 49.192 52.4208C48.923 53.7766 48.3952 55.1995 47.2933 56.2034C46.1965 57.2279 44.7013 57.5384 43.3355 57.6005C41.9542 57.6574 40.5832 57.5281 39.238 57.2745Z" fill="#663C1D"/>
<path d="M30.9241 32.5513C31.1103 34.4917 31.2603 36.427 31.4983 38.3519C31.7311 40.2768 31.9536 42.2017 32.2381 44.1266C32.4606 46.0516 32.74 47.992 32.8538 49.9324C33.009 51.8211 33.4022 53.7771 34.649 55.2984C33.159 53.9737 32.5641 51.9143 32.2951 49.9894C32.0674 48.0541 31.7932 46.1447 31.5138 44.2146C31.2914 42.2793 31.0534 40.3441 30.9396 38.3985C30.8206 36.4528 30.8102 34.4969 30.9241 32.5513Z" fill="#663C1D"/>
<path d="M17.2659 37.3062C17.4728 38.755 17.6022 40.2039 17.7419 41.6527L18.1299 45.9942C18.2489 47.4379 18.3937 48.8815 18.5593 50.32C18.7352 51.7534 18.9576 53.1816 19.3301 54.5942C18.6679 53.285 18.2954 51.8414 18.0005 50.408C17.7005 48.9695 17.5349 47.5155 17.3952 46.0614C17.1676 43.1482 17.0952 40.2246 17.2659 37.3062Z" fill="#663C1D"/>
<defs>
<linearGradient id="paint0_linear" x1="49.023" y1="52.8742" x2="48.7485" y2="56.3274" gradientUnits="userSpaceOnUse">
<stop offset="0.00132565" stop-color="#BE8D68"/>
<stop offset="1" stop-color="#CD9870"/>
</linearGradient>
<linearGradient id="paint1_linear" x1="47.2283" y1="85.5213" x2="42.3487" y2="59.6639" gradientUnits="userSpaceOnUse">
<stop offset="0.00132565" stop-color="#99643E"/>
<stop offset="1" stop-color="#AE7246"/>
</linearGradient>
<linearGradient id="paint2_linear" x1="59.6128" y1="83.1831" x2="54.7332" y2="57.3257" gradientUnits="userSpaceOnUse">
<stop offset="0.00132565" stop-color="#99643E"/>
<stop offset="1" stop-color="#AE7246"/>
</linearGradient>
<linearGradient id="paint3_linear" x1="51.4838" y1="73.7565" x2="50.8739" y2="28.7494" gradientUnits="userSpaceOnUse">
<stop stop-color="#FFBC47" stop-opacity="0"/>
<stop offset="1" stop-color="#C86F34"/>
</linearGradient>
<linearGradient id="paint4_linear" x1="49.0022" y1="73.793" x2="48.3921" y2="28.7835" gradientUnits="userSpaceOnUse">
<stop stop-color="#FFBC47" stop-opacity="0"/>
<stop offset="1" stop-color="#C86F34"/>
</linearGradient>
<linearGradient id="paint5_linear" x1="53.0184" y1="74.6299" x2="53.0184" y2="48.6499" gradientUnits="userSpaceOnUse">
<stop offset="0.3072" stop-color="#8D562E" stop-opacity="0"/>
<stop offset="1" stop-color="#804B24"/>
</linearGradient>
<linearGradient id="paint6_linear" x1="57.6127" y1="56.5781" x2="57.6127" y2="25.4708" gradientUnits="userSpaceOnUse">
<stop offset="0.00132565" stop-color="#99643E"/>
<stop offset="1" stop-color="#AE7246"/>
</linearGradient>
<linearGradient id="paint7_linear" x1="39.9608" y1="56.6124" x2="39.9608" y2="25.5891" gradientUnits="userSpaceOnUse">
<stop offset="0.00132565" stop-color="#99643E"/>
<stop offset="1" stop-color="#AE7246"/>
</linearGradient>
<linearGradient id="paint8_linear" x1="13.5353" y1="56.6099" x2="13.5353" y2="25.5027" gradientUnits="userSpaceOnUse">
<stop offset="0.00132565" stop-color="#99643E"/>
<stop offset="1" stop-color="#AE7246"/>
</linearGradient>
<linearGradient id="paint9_linear" x1="25.7049" y1="56.6101" x2="25.7049" y2="25.5028" gradientUnits="userSpaceOnUse">
<stop offset="0.00132565" stop-color="#99643E"/>
<stop offset="1" stop-color="#AE7246"/>
</linearGradient>
<linearGradient id="paint10_linear" x1="37.3499" y1="13.5226" x2="37.3499" y2="67.9564" gradientUnits="userSpaceOnUse">
<stop stop-color="#A46C3F" stop-opacity="0"/>
<stop offset="1" stop-color="#804B24"/>
</linearGradient>
<linearGradient id="paint11_linear" x1="56.824" y1="22.6077" x2="48.4623" y2="85.8547" gradientUnits="userSpaceOnUse">
<stop stop-color="#473226" stop-opacity="0"/>
<stop offset="1" stop-color="#3D2A20"/>
</linearGradient>
<linearGradient id="paint12_linear" x1="49.5865" y1="34.7631" x2="62.5175" y2="90.3805" gradientUnits="userSpaceOnUse">
<stop offset="0.3072" stop-color="#8D562E" stop-opacity="0"/>
<stop offset="1" stop-color="#804B24"/>
</linearGradient>
<linearGradient id="paint13_linear" x1="13.6006" y1="2.05752" x2="13.6006" y2="75.2402" gradientUnits="userSpaceOnUse">
<stop offset="0.3072" stop-color="#8D562E" stop-opacity="0"/>
<stop offset="1" stop-color="#804B24"/>
</linearGradient>
<linearGradient id="paint14_linear" x1="26.4864" y1="2.05761" x2="26.4864" y2="75.2403" gradientUnits="userSpaceOnUse">
<stop offset="0.3072" stop-color="#8D562E" stop-opacity="0"/>
<stop offset="1" stop-color="#804B24"/>
</linearGradient>
<linearGradient id="paint15_linear" x1="40.7975" y1="2.0569" x2="40.7975" y2="75.24" gradientUnits="userSpaceOnUse">
<stop offset="0.3072" stop-color="#8D562E" stop-opacity="0"/>
<stop offset="1" stop-color="#804B24"/>
</linearGradient>
<linearGradient id="paint16_linear" x1="57.6971" y1="2.05744" x2="57.6971" y2="75.2401" gradientUnits="userSpaceOnUse">
<stop offset="0.3072" stop-color="#8D562E" stop-opacity="0"/>
<stop offset="1" stop-color="#804B24"/>
</linearGradient>
<radialGradient id="paint17_radial" cx="0" cy="0" r="1" gradientUnits="userSpaceOnUse" gradientTransform="translate(12.7912 42.2313) rotate(-96.1876) scale(6.99039 3.78461)">
<stop stop-color="#F8DBBA"/>
<stop offset="1" stop-color="#CD9870" stop-opacity="0"/>
</radialGradient>
<radialGradient id="paint18_radial" cx="0" cy="0" r="1" gradientUnits="userSpaceOnUse" gradientTransform="translate(14.2436 28.8059) rotate(-96.2199) scale(3.4346 4.61111)">
<stop stop-color="#F8DBBA"/>
<stop offset="1" stop-color="#CD9870" stop-opacity="0"/>
</radialGradient>
<radialGradient id="paint19_radial" cx="0" cy="0" r="1" gradientUnits="userSpaceOnUse" gradientTransform="translate(24.9943 24.777) rotate(-105.9) scale(3.43465 4.61162)">
<stop stop-color="#F8DBBA"/>
<stop offset="1" stop-color="#CD9870" stop-opacity="0"/>
</radialGradient>
<radialGradient id="paint20_radial" cx="0" cy="0" r="1" gradientUnits="userSpaceOnUse" gradientTransform="translate(39.9266 19.9126) rotate(-105.892) scale(5.63413 6.65879)">
<stop stop-color="#F8DBBA"/>
<stop offset="1" stop-color="#CD9870" stop-opacity="0"/>
</radialGradient>
<radialGradient id="paint21_radial" cx="0" cy="0" r="1" gradientUnits="userSpaceOnUse" gradientTransform="translate(56.5681 20.5557) rotate(-84.4436) scale(4.0531 5.00941)">
<stop stop-color="#F8DBBA"/>
<stop offset="1" stop-color="#CD9870" stop-opacity="0"/>
</radialGradient>
<radialGradient id="paint22_radial" cx="0" cy="0" r="1" gradientUnits="userSpaceOnUse" gradientTransform="translate(23.949 42.8557) rotate(-96.0942) scale(7.99179 4.23619)">
<stop stop-color="#F8DBBA"/>
<stop offset="1" stop-color="#CD9870" stop-opacity="0"/>
</radialGradient>
<radialGradient id="paint23_radial" cx="0" cy="0" r="1" gradientUnits="userSpaceOnUse" gradientTransform="translate(40.6776 41.5915) rotate(-96.0704) scale(10.1437 6.67691)">
<stop stop-color="#F8DBBA"/>
<stop offset="1" stop-color="#CD9870" stop-opacity="0"/>
</radialGradient>
<radialGradient id="paint24_radial" cx="0" cy="0" r="1" gradientUnits="userSpaceOnUse" gradientTransform="translate(57.1719 41.0651) rotate(-92.1584) scale(10.1492 5.15347)">
<stop stop-color="#F8DBBA"/>
<stop offset="1" stop-color="#CD9870" stop-opacity="0"/>
</radialGradient>
<linearGradient id="paint25_linear" x1="36.5996" y1="1.90975" x2="38.7954" y2="76.3725" gradientUnits="userSpaceOnUse">
<stop stop-color="#8D562E" stop-opacity="0"/>
<stop offset="1" stop-color="#804B24"/>
</linearGradient>
</defs>
</svg>
