<svg width="80" height="80" viewBox="0 0 80 80" fill="none" xmlns="http://www.w3.org/2000/svg">
<path d="M21.5649 34.6484C22.0776 35.2593 22.5261 36.0581 22.3168 36.2504C22.1075 36.4469 21.4922 36.0496 21.0308 35.5498C20.5694 35.05 19.2236 40.1079 19.0997 40.3642C19.01 40.5565 17.613 42.0303 16.8568 43.4571C16.6047 43.9313 16.5833 45.3965 16.4893 45.482C16.1262 45.8195 15.6819 45.7639 14.7548 44.8754C13.8277 43.9868 13.127 49.0277 14.2421 49.8735C16.1475 51.3174 19.8517 56.9093 25.0297 57.1101C31.0196 57.3451 36.8128 51.3131 36.9923 46.7294C37.1717 42.1456 35.8986 40.3514 36.1378 36.511C36.3386 33.26 38.7696 31.799 38.8337 30.1714C38.8892 28.8044 36.8684 28.3901 36.2019 28.3644C35.0185 28.3174 31.9253 29.7144 31.7715 33.7086C31.7117 35.2636 31.2118 36.6477 29.6225 36.5879C28.0332 36.528 26.3456 34.2725 25.3373 32.5295" fill="url(#paint0_linear)"/>
<path d="M14.759 44.8799C13.8319 43.9914 11.653 41.4795 10.2218 40.2406C8.79054 39.0018 7.49602 38.9633 6.5561 40.2321C5.61619 41.5008 8.11551 43.8974 8.68373 44.5125C9.55529 45.4524 13.1355 49.0322 14.2506 49.8781" fill="url(#paint1_linear)"/>
<path d="M19.0997 40.3641C18.9801 40.6205 18.2154 40.7657 16.7798 39.0783C15.6819 37.7882 12.7553 34.0802 11.0079 32.3842C9.26053 30.6883 7.88057 29.9663 6.66295 30.7695C5.44533 31.5726 6.04773 33.371 7.31662 34.9047C8.88029 36.7971 10.6918 38.7408 12.4221 40.6034C13.7764 42.0601 16.8525 45.1487 16.4893 45.4861" fill="url(#paint2_linear)"/>
<path d="M25.3331 32.534C24.3291 30.7911 20.1422 25.1479 19.1339 23.5502C18.1214 21.9568 16.6816 21.897 15.6562 22.5634C14.6309 23.2298 14.2805 24.6182 16.4082 27.694C17.7497 29.6334 18.8605 31.4105 21.5691 34.6443L24.8674 34.5461L25.3331 32.534Z" fill="url(#paint3_linear)"/>
<path d="M21.0308 35.5497C20.5694 35.0499 16.5149 29.8424 15.5964 28.7274C13.8746 26.6342 11.7598 22.2085 8.95718 24.0326C7.48323 24.9938 8.20098 26.4932 8.58549 27.0998C8.97 27.7065 14.0156 34.0161 14.5112 34.5543C15.0068 35.0926 19.2151 40.1078 19.0954 40.3641" fill="url(#paint4_linear)"/>
<path d="M18.9972 40.4664C18.8391 40.5561 18.5229 40.5518 18.0444 40.2485C18.3948 40.5604 18.728 40.6842 18.9972 40.4664Z" fill="url(#paint5_linear)"/>
<path opacity="0.5" d="M36.4924 28.9365C37.6289 28.7784 37.8254 28.9151 37.6289 28.7015C37.0863 28.4751 36.501 28.3811 36.1976 28.3683C35.0142 28.3213 31.921 29.7183 31.7672 33.7125C31.7074 35.2675 31.2075 36.6515 29.6182 36.5917C28.9902 36.5661 28.3493 36.203 27.7384 35.6605C30.4086 38.8601 32.7114 36.0364 33.1215 34.05C33.536 32.0721 33.1557 29.4021 36.4924 28.9365Z" fill="url(#paint6_linear)"/>
<path opacity="0.5" d="M15.3017 22.8535C14.5796 23.6096 14.5454 25.0108 16.4082 27.6936C17.7497 29.633 18.8605 31.4101 21.5692 34.644C22.0819 35.2548 22.5305 36.0537 22.3211 36.2459C22.9192 33.0292 18.4418 29.6672 17.0405 27.1681C15.9297 25.1945 15.7374 24.0454 15.3017 22.8535Z" fill="url(#paint7_linear)"/>
<path opacity="0.5" d="M14.5155 34.5539C15.0111 35.0922 19.2193 40.1074 19.0997 40.3637C20.0995 39.7101 19.48 38.6037 18.0359 37.0445C15.0837 33.8491 10.9652 29.5473 9.37588 26.0785C9.22635 25.7495 8.93583 25.5018 8.57696 25.442C7.65413 25.2839 8.29071 26.6381 8.58123 27.1037C8.97428 27.7103 14.0199 34.0157 14.5155 34.5539Z" fill="url(#paint8_linear)"/>
<path opacity="0.5" d="M7.32088 34.9004C8.88456 36.7929 10.696 38.7366 12.4263 40.5992C13.7807 42.0559 16.8567 45.1445 16.4936 45.482C18.5358 43.8971 9.58522 37.5149 6.07763 31.5342C5.79138 32.4526 6.36815 33.7513 7.32088 34.9004Z" fill="url(#paint9_linear)"/>
<path opacity="0.5" d="M16.0706 45.7975C16.2629 45.7292 16.3612 45.648 16.3996 45.554C16.0493 45.8018 15.6092 45.6907 14.7548 44.8748C13.8277 43.9862 11.6488 41.4743 10.2175 40.2355C9.58951 39.6887 8.98711 39.3768 8.42743 39.3042C9.20927 39.8382 8.82903 40.0048 10.5593 41.4402C11.4864 42.2134 14.8317 46.2333 16.0706 45.7975Z" fill="url(#paint10_linear)"/>
<path opacity="0.5" d="M14.0925 36.8355C15.3272 38.4673 17.7582 41.1757 18.9245 40.5008C18.6084 40.5948 17.8992 40.394 16.7798 39.0782C15.6818 37.7881 12.7553 34.0801 11.0079 32.3841C9.59375 31.0086 8.41885 30.2738 7.3764 30.4746C10.3457 31.5767 12.9219 35.2933 14.0925 36.8355Z" fill="url(#paint11_linear)"/>
<path opacity="0.5" d="M15.7673 30.0858C17.7496 32.4226 20.6463 37.0106 22.2399 36.2929C21.9792 36.3613 21.4452 35.9982 21.0351 35.5539C20.5736 35.0541 16.5192 29.8466 15.6006 28.7317C14.4087 27.2792 13.0287 24.7118 11.3582 23.8745C13.0159 25.2885 14.1609 28.1934 15.7673 30.0858Z" fill="url(#paint12_linear)"/>
<path opacity="0.5" d="M27.7384 35.6647C27.7384 35.6647 27.7384 35.6604 27.7384 35.6647C26.8027 34.8359 25.944 33.5928 25.333 32.5377C24.329 30.7947 20.1422 25.1515 19.1339 23.5538C18.8263 23.0668 18.4759 22.7251 18.1128 22.5029C18.5828 23.2377 18.8263 24.2715 19.9029 25.583C21.6332 27.689 23.8548 31.4398 24.6196 32.7299C25.3886 34.02 27.7384 35.6647 27.7384 35.6647Z" fill="url(#paint13_linear)"/>
<path d="M32.9592 53.9402C32.3482 52.2784 31.4083 51.2404 29.9472 52.1204C25.9696 54.5212 21.5435 53.4831 16.1304 48.7456C11.3027 44.5164 8.83755 41.5346 6.45358 40.394C5.82128 41.697 8.13261 43.9184 8.67947 44.5079C9.55103 45.4477 13.1312 49.0275 14.2463 49.8734C16.1518 51.3173 19.8559 56.9092 25.034 57.11C27.9221 57.2253 30.7675 55.8796 32.9592 53.9402Z" fill="url(#paint14_radial)"/>
<path opacity="0.24" d="M36.1378 36.5151C36.3386 33.2642 38.7696 31.8032 38.8337 30.1756C38.8508 29.6972 38.6158 29.3341 38.274 29.0649C38.6585 30.3508 37.5819 31.4316 35.9712 33.2856C34.2238 35.2891 33.7282 38.493 34.7493 41.7568C35.7704 45.0205 34.1512 49.3992 31.7672 50.7107C29.3833 52.0222 26.0466 58.0754 17.4592 50.7534L17.4549 50.7491C16.9337 50.2237 16.4167 49.758 15.8869 49.4035C12.2341 46.9386 10.1876 44.7685 8.64533 42.9529C8.34199 42.5983 7.54306 41.2399 6.51343 41.6372C6.97484 42.8077 8.29072 44.085 8.68805 44.5121C9.55961 45.452 13.1398 49.0318 14.2549 49.8777C14.4002 49.9887 14.5582 50.1212 14.7206 50.2749C14.7633 50.3134 14.806 50.3561 14.853 50.3988C14.8659 50.4116 14.8744 50.4202 14.8872 50.433C14.9171 50.4586 14.9428 50.4885 14.9727 50.5142C14.9812 50.5184 14.9855 50.527 14.994 50.5313C16.1134 51.6334 17.6471 53.4447 19.5569 54.8886C19.5569 54.8886 19.5569 54.8886 19.5612 54.8886C19.7278 55.0168 19.8987 55.1406 20.0738 55.2603C20.0781 55.2603 20.0781 55.2645 20.0824 55.2645C20.2533 55.3841 20.4284 55.4995 20.6079 55.6106L20.6121 55.6148C21.9408 56.4479 23.4191 57.0459 25.0468 57.11C31.0367 57.345 36.8299 51.313 37.0094 46.7293C37.176 42.1455 35.8986 40.3556 36.1378 36.5151Z" fill="url(#paint15_linear)"/>
<path d="M58.4351 34.4819C57.9224 35.0928 57.4738 35.8916 57.6832 36.0839C57.8925 36.2804 58.5077 35.8831 58.9692 35.3833C59.4306 34.8835 60.7764 39.9414 60.9003 40.1977C60.99 40.3899 62.387 41.8637 63.1432 43.2906C63.3953 43.7647 63.4167 45.23 63.5107 45.3154C63.8738 45.6529 64.3181 45.5974 65.2452 44.7088C66.1723 43.8203 66.873 48.8611 65.7579 49.707C63.8524 51.1509 60.1483 56.7428 54.9703 56.9436C48.9804 57.1785 43.1872 51.1466 43.0077 46.5628C42.8283 41.9791 44.1014 40.1849 43.8622 36.3444C43.6614 33.0935 41.2304 31.6325 41.1663 30.0049C41.1108 28.6379 43.1316 28.2236 43.7981 28.1979C44.9815 28.1509 48.0747 29.5478 48.2285 33.5421C48.2883 35.0971 48.7882 36.4811 50.3775 36.4213C51.9668 36.3573 53.6544 34.106 54.6627 32.363" fill="url(#paint16_linear)"/>
<path d="M65.2452 44.7129C66.1723 43.8243 68.3512 41.3125 69.7825 40.0736C71.2137 38.8348 72.5082 38.7963 73.4481 40.0651C74.388 41.3338 71.8887 43.7304 71.3205 44.3455C70.449 45.2853 66.8687 48.8652 65.7536 49.711" fill="url(#paint17_linear)"/>
<path d="M60.9003 40.1977C61.0199 40.454 61.7846 40.5992 63.2201 38.9118C64.3181 37.6217 67.2447 33.9137 68.9921 32.2177C70.7395 30.5218 72.1194 29.7998 73.337 30.603C74.5547 31.4061 73.9523 33.2046 72.6834 34.7382C71.1197 36.6306 69.3082 38.5744 67.5779 40.4369C66.2236 41.8936 63.1475 44.9822 63.5107 45.3197" fill="url(#paint18_linear)"/>
<path d="M54.6669 32.3714C55.6709 30.6285 59.8578 24.9853 60.8661 23.3876C61.8786 21.7942 63.3184 21.7344 64.3438 22.4008C65.3691 23.063 65.7195 24.4556 63.5919 27.5314C62.2503 29.4708 61.1395 31.2479 58.4309 34.4818L55.1326 34.3835L54.6669 32.3714Z" fill="url(#paint19_linear)"/>
<path d="M58.9692 35.3876C59.4306 34.8877 63.485 29.6803 64.4036 28.5653C66.1253 26.4721 68.2401 22.0464 71.0428 23.8705C72.5168 24.8317 71.799 26.3311 71.4145 26.9377C71.03 27.5443 65.9844 33.8539 65.4888 34.3922C64.9932 34.9305 60.7849 39.9457 60.9045 40.202" fill="url(#paint20_linear)"/>
<path d="M61.0028 40.3043C61.1609 40.394 61.477 40.3897 61.9555 40.0864C61.6052 40.394 61.272 40.5178 61.0028 40.3043Z" fill="url(#paint21_linear)"/>
<path opacity="0.5" d="M43.5076 28.77C42.3711 28.6119 42.1746 28.7486 42.3711 28.535C42.9137 28.3086 43.499 28.2146 43.8024 28.2018C44.9858 28.1548 48.079 29.5518 48.2328 33.546C48.2926 35.101 48.7925 36.4851 50.3818 36.4253C51.0098 36.3997 51.6507 36.0366 52.2616 35.494C49.5914 38.6937 47.2886 35.87 46.8785 33.8835C46.4641 31.9056 46.8443 29.2356 43.5076 28.77Z" fill="url(#paint22_linear)"/>
<path opacity="0.5" d="M64.6984 22.687C65.4204 23.4431 65.4546 24.8443 63.5918 27.5271C62.2503 29.4665 61.1395 31.2436 58.4309 34.4775C57.9182 35.0884 57.4696 35.8872 57.6789 36.0795C57.0808 32.8627 61.5582 29.5007 62.9595 27.0016C64.0703 25.028 64.2626 23.8789 64.6984 22.687Z" fill="url(#paint23_linear)"/>
<path opacity="0.5" d="M65.4845 34.3874C64.9889 34.9257 60.7806 39.9409 60.9002 40.1972C59.9005 39.5436 60.52 38.4372 61.964 36.878C64.9162 33.6826 69.0348 29.3808 70.6241 25.912C70.7736 25.583 71.0641 25.3353 71.423 25.2755C72.3458 25.1174 71.7093 26.4716 71.4188 26.9372C71.03 27.5438 65.98 33.8534 65.4845 34.3874Z" fill="url(#paint24_linear)"/>
<path opacity="0.5" d="M72.6834 34.7379C71.1197 36.6303 69.3083 38.574 67.578 40.4366C66.2236 41.8933 63.1475 44.9819 63.5107 45.3194C61.4685 43.7345 70.4191 37.3523 73.9267 31.3716C74.2086 32.2858 73.6319 33.5844 72.6834 34.7379Z" fill="url(#paint25_linear)"/>
<path opacity="0.5" d="M63.9294 45.6359C63.7371 45.5676 63.6389 45.4864 63.6004 45.3924C63.9507 45.6402 64.3908 45.5291 65.2453 44.7132C66.1723 43.8246 68.3512 41.3127 69.7825 40.0739C70.4105 39.5271 71.0129 39.2152 71.5726 39.1426C70.7907 39.6766 71.171 39.8432 69.4407 41.2785C68.5136 42.0475 65.1684 46.0674 63.9294 45.6359Z" fill="url(#paint26_linear)"/>
<path opacity="0.5" d="M65.9075 36.669C64.6728 38.3008 62.2418 41.0092 61.0754 40.3343C61.3916 40.4283 62.1008 40.2275 63.2202 38.9117C64.3182 37.6216 67.2447 33.9136 68.9921 32.2176C70.4063 30.8421 71.5812 30.1073 72.6237 30.3081C69.6544 31.4102 67.0781 35.1268 65.9075 36.669Z" fill="url(#paint27_linear)"/>
<path opacity="0.5" d="M64.237 29.9194C62.2546 32.2561 59.358 36.8441 57.7644 36.1264C58.025 36.1948 58.5591 35.8317 58.9692 35.3874C59.4306 34.8876 63.4851 29.6801 64.4036 28.5652C65.5956 27.1127 66.9756 24.5453 68.6461 23.708C66.9841 25.122 65.8434 28.0312 64.237 29.9194Z" fill="url(#paint28_linear)"/>
<path opacity="0.5" d="M52.2616 35.4982C53.1972 34.6694 54.056 33.4263 54.6669 32.3711C55.6709 30.6282 59.8578 24.985 60.8661 23.3873C61.1737 22.9003 61.5241 22.5586 61.8872 22.3364C61.4173 23.0712 61.1737 24.105 60.0971 25.4165C58.3668 27.5225 56.1452 31.2733 55.3804 32.5634C54.6157 33.8535 52.2616 35.4982 52.2616 35.4982Z" fill="url(#paint29_linear)"/>
<path d="M47.0451 53.7738C47.656 52.112 48.596 51.074 50.0571 51.954C54.0347 54.3548 58.4608 53.3167 63.8739 48.5792C68.7016 44.3499 71.1667 41.3681 73.5507 40.2275C74.183 41.5305 71.8717 43.7519 71.3248 44.3414C70.4533 45.2812 66.873 48.8611 65.758 49.7069C63.8525 51.1509 60.1484 56.7428 54.9703 56.9436C52.0779 57.0632 49.2325 55.7133 47.0451 53.7738Z" fill="url(#paint30_radial)"/>
<path opacity="0.24" d="M43.8622 36.3482C43.6614 33.0972 41.2304 31.6362 41.1663 30.0086C41.1493 29.5302 41.3842 29.1671 41.726 28.8979C41.3415 30.1838 42.4181 31.2646 44.0288 33.1186C45.7762 35.1221 46.2718 38.3261 45.2507 41.5898C44.2296 44.8535 45.8488 49.2322 48.2328 50.5437C50.6168 51.8552 53.9535 57.9085 62.5409 50.5864L62.5451 50.5822C63.0664 50.0567 63.5833 49.5911 64.1131 49.2365C67.7617 46.7716 69.8124 44.6015 71.3547 42.7859C71.658 42.4314 72.457 41.0729 73.4866 41.4702C73.0252 42.6407 71.7093 43.918 71.312 44.3452C70.4404 45.285 66.8602 48.8649 65.7451 49.7107C65.5999 49.8218 65.4418 49.9542 65.2794 50.108C65.2367 50.1464 65.194 50.1891 65.147 50.2319C65.1342 50.2447 65.1256 50.2532 65.1128 50.266C65.0829 50.2917 65.0573 50.3216 65.0274 50.3472C65.0188 50.3515 65.0145 50.36 65.006 50.3643C63.8867 51.4664 62.3529 53.2777 60.4431 54.7216C60.4431 54.7216 60.4431 54.7216 60.4389 54.7216C60.2723 54.8498 60.1014 54.9737 59.9262 55.0933C59.9219 55.0933 59.9219 55.0976 59.9176 55.0976C59.7468 55.2172 59.5716 55.3325 59.3921 55.4436L59.3879 55.4479C58.0592 56.2809 56.5809 56.8789 54.9532 56.943C48.9634 57.178 43.1701 51.146 42.9906 46.5623C42.824 41.9828 44.1014 40.1886 43.8622 36.3482Z" fill="url(#paint31_linear)"/>
<defs>
<linearGradient id="paint0_linear" x1="33.6109" y1="58.6355" x2="29.1294" y2="46.8781" gradientUnits="userSpaceOnUse">
<stop offset="0.00132565" stop-color="#5A4539"/>
<stop offset="1" stop-color="#695042"/>
</linearGradient>
<linearGradient id="paint1_linear" x1="7.56264" y1="41.3234" x2="13.486" y2="46.0555" gradientUnits="userSpaceOnUse">
<stop offset="0.00132565" stop-color="#5A4539"/>
<stop offset="1" stop-color="#695042"/>
</linearGradient>
<linearGradient id="paint2_linear" x1="5.81017" y1="29.3455" x2="16.0725" y2="40.9687" gradientUnits="userSpaceOnUse">
<stop offset="0.00132565" stop-color="#5A4539"/>
<stop offset="1" stop-color="#695042"/>
</linearGradient>
<linearGradient id="paint3_linear" x1="17.58" y1="24.5141" x2="23.4076" y2="34.5186" gradientUnits="userSpaceOnUse">
<stop offset="0.00132565" stop-color="#5A4539"/>
<stop offset="1" stop-color="#695042"/>
</linearGradient>
<linearGradient id="paint4_linear" x1="11.1041" y1="25.8836" x2="19.0858" y2="37.602" gradientUnits="userSpaceOnUse">
<stop offset="0.00132565" stop-color="#5A4539"/>
<stop offset="1" stop-color="#695042"/>
</linearGradient>
<linearGradient id="paint5_linear" x1="21.2027" y1="38.5572" x2="13.6708" y2="43.6215" gradientUnits="userSpaceOnUse">
<stop stop-color="#FFBC47" stop-opacity="0"/>
<stop offset="1" stop-color="#FFA754"/>
</linearGradient>
<linearGradient id="paint6_linear" x1="34.682" y1="23.693" x2="31.415" y2="37.9023" gradientUnits="userSpaceOnUse">
<stop offset="0.3072" stop-color="#473226" stop-opacity="0"/>
<stop offset="1" stop-color="#473226"/>
</linearGradient>
<linearGradient id="paint7_linear" x1="-87.0065" y1="-113.61" x2="-61.8777" y2="-79.6163" gradientUnits="userSpaceOnUse">
<stop offset="0.3072" stop-color="#473226" stop-opacity="0"/>
<stop offset="1" stop-color="#473226"/>
</linearGradient>
<linearGradient id="paint8_linear" x1="-91.7318" y1="-110.118" x2="-66.603" y2="-76.1239" gradientUnits="userSpaceOnUse">
<stop offset="0.3072" stop-color="#473226" stop-opacity="0"/>
<stop offset="1" stop-color="#473226"/>
</linearGradient>
<linearGradient id="paint9_linear" x1="-96.1663" y1="-106.839" x2="-71.0375" y2="-72.8454" gradientUnits="userSpaceOnUse">
<stop offset="0.3072" stop-color="#473226" stop-opacity="0"/>
<stop offset="1" stop-color="#473226"/>
</linearGradient>
<linearGradient id="paint10_linear" x1="-97.2989" y1="-106.003" x2="-72.17" y2="-72.0092" gradientUnits="userSpaceOnUse">
<stop offset="0.3072" stop-color="#473226" stop-opacity="0"/>
<stop offset="1" stop-color="#473226"/>
</linearGradient>
<linearGradient id="paint11_linear" x1="-93.5005" y1="-108.81" x2="-68.3716" y2="-74.8163" gradientUnits="userSpaceOnUse">
<stop offset="0.3072" stop-color="#473226" stop-opacity="0"/>
<stop offset="1" stop-color="#473226"/>
</linearGradient>
<linearGradient id="paint12_linear" x1="-88.6302" y1="-112.41" x2="-63.5014" y2="-78.4159" gradientUnits="userSpaceOnUse">
<stop offset="0.3072" stop-color="#473226" stop-opacity="0"/>
<stop offset="1" stop-color="#473226"/>
</linearGradient>
<linearGradient id="paint13_linear" x1="-84.3503" y1="-115.574" x2="-59.2215" y2="-81.5804" gradientUnits="userSpaceOnUse">
<stop offset="0.3072" stop-color="#473226" stop-opacity="0"/>
<stop offset="1" stop-color="#473226"/>
</linearGradient>
<radialGradient id="paint14_radial" cx="0" cy="0" r="1" gradientUnits="userSpaceOnUse" gradientTransform="translate(19.5939 48.9044) rotate(2.24793) scale(30.8739)">
<stop offset="0.6134" stop-color="#F0C492" stop-opacity="0"/>
<stop offset="1" stop-color="#E6AF74"/>
</radialGradient>
<linearGradient id="paint15_linear" x1="5.56532" y1="16.7743" x2="37.9344" y2="52.9463" gradientUnits="userSpaceOnUse">
<stop offset="0.00132565" stop-color="#473226"/>
<stop offset="1" stop-color="#3D2A20"/>
</linearGradient>
<linearGradient id="paint16_linear" x1="46.3786" y1="58.4698" x2="50.86" y2="46.7124" gradientUnits="userSpaceOnUse">
<stop offset="0.00132565" stop-color="#5A4539"/>
<stop offset="1" stop-color="#695042"/>
</linearGradient>
<linearGradient id="paint17_linear" x1="72.4268" y1="41.1572" x2="66.5034" y2="45.8893" gradientUnits="userSpaceOnUse">
<stop offset="0.00132565" stop-color="#5A4539"/>
<stop offset="1" stop-color="#695042"/>
</linearGradient>
<linearGradient id="paint18_linear" x1="74.1793" y1="29.1799" x2="63.9169" y2="40.803" gradientUnits="userSpaceOnUse">
<stop offset="0.00132565" stop-color="#5A4539"/>
<stop offset="1" stop-color="#695042"/>
</linearGradient>
<linearGradient id="paint19_linear" x1="62.4094" y1="24.348" x2="56.5819" y2="34.3525" gradientUnits="userSpaceOnUse">
<stop offset="0.00132565" stop-color="#5A4539"/>
<stop offset="1" stop-color="#695042"/>
</linearGradient>
<linearGradient id="paint20_linear" x1="68.8854" y1="25.718" x2="60.9037" y2="37.4365" gradientUnits="userSpaceOnUse">
<stop offset="0.00132565" stop-color="#5A4539"/>
<stop offset="1" stop-color="#695042"/>
</linearGradient>
<linearGradient id="paint21_linear" x1="58.7867" y1="38.3918" x2="66.3184" y2="43.4561" gradientUnits="userSpaceOnUse">
<stop stop-color="#FFBC47" stop-opacity="0"/>
<stop offset="1" stop-color="#FFA754"/>
</linearGradient>
<linearGradient id="paint22_linear" x1="45.3193" y1="23.5272" x2="48.5864" y2="37.7366" gradientUnits="userSpaceOnUse">
<stop offset="0.3072" stop-color="#473226" stop-opacity="0"/>
<stop offset="1" stop-color="#473226"/>
</linearGradient>
<linearGradient id="paint23_linear" x1="166.996" y1="-113.776" x2="141.867" y2="-79.7823" gradientUnits="userSpaceOnUse">
<stop offset="0.3072" stop-color="#473226" stop-opacity="0"/>
<stop offset="1" stop-color="#473226"/>
</linearGradient>
<linearGradient id="paint24_linear" x1="171.721" y1="-110.283" x2="146.593" y2="-76.2895" gradientUnits="userSpaceOnUse">
<stop offset="0.3072" stop-color="#473226" stop-opacity="0"/>
<stop offset="1" stop-color="#473226"/>
</linearGradient>
<linearGradient id="paint25_linear" x1="176.156" y1="-107.005" x2="151.027" y2="-73.0115" gradientUnits="userSpaceOnUse">
<stop offset="0.3072" stop-color="#473226" stop-opacity="0"/>
<stop offset="1" stop-color="#473226"/>
</linearGradient>
<linearGradient id="paint26_linear" x1="177.288" y1="-106.168" x2="152.159" y2="-72.1742" gradientUnits="userSpaceOnUse">
<stop offset="0.3072" stop-color="#473226" stop-opacity="0"/>
<stop offset="1" stop-color="#473226"/>
</linearGradient>
<linearGradient id="paint27_linear" x1="173.491" y1="-108.976" x2="148.362" y2="-74.982" gradientUnits="userSpaceOnUse">
<stop offset="0.3072" stop-color="#473226" stop-opacity="0"/>
<stop offset="1" stop-color="#473226"/>
</linearGradient>
<linearGradient id="paint28_linear" x1="168.62" y1="-112.576" x2="143.491" y2="-78.5818" gradientUnits="userSpaceOnUse">
<stop offset="0.3072" stop-color="#473226" stop-opacity="0"/>
<stop offset="1" stop-color="#473226"/>
</linearGradient>
<linearGradient id="paint29_linear" x1="164.34" y1="-115.74" x2="139.211" y2="-81.7459" gradientUnits="userSpaceOnUse">
<stop offset="0.3072" stop-color="#473226" stop-opacity="0"/>
<stop offset="1" stop-color="#473226"/>
</linearGradient>
<radialGradient id="paint30_radial" cx="0" cy="0" r="1" gradientUnits="userSpaceOnUse" gradientTransform="translate(60.3956 48.7388) rotate(177.752) scale(30.8739 30.8742)">
<stop offset="0.6134" stop-color="#F0C492" stop-opacity="0"/>
<stop offset="1" stop-color="#E6AF74"/>
</radialGradient>
<linearGradient id="paint31_linear" x1="74.4361" y1="16.608" x2="42.067" y2="52.7801" gradientUnits="userSpaceOnUse">
<stop offset="0.00132565" stop-color="#473226"/>
<stop offset="1" stop-color="#3D2A20"/>
</linearGradient>
</defs>
</svg>
