<svg width="80" height="80" viewBox="0 0 80 80" fill="none" xmlns="http://www.w3.org/2000/svg">
<path d="M21.5424 35.4705C22.0544 36.0806 22.5023 36.8784 22.2933 37.0704C22.0842 37.2666 21.4699 36.8698 21.0092 36.3707C20.5484 35.8716 19.2046 40.9227 19.0809 41.1787C18.9913 41.3707 17.5962 42.8425 16.8411 44.2674C16.5894 44.7409 16.5681 46.2042 16.4742 46.2896C16.1116 46.6266 15.6679 46.5711 14.7422 45.6838C13.8164 44.7964 13.1167 49.8305 14.2302 50.6752C16.1329 52.1172 19.8317 57.7016 25.0023 57.9021C30.9835 58.1367 36.7684 52.1129 36.9476 47.5353C37.1268 42.9577 35.8555 41.1659 36.0944 37.3306C36.2949 34.084 38.7223 32.625 38.7863 30.9996C38.8418 29.6344 36.8239 29.2206 36.1584 29.195C34.9766 29.1481 31.8879 30.5431 31.7343 34.532C31.6746 36.0849 31.1755 37.4671 29.5884 37.4074C28.0014 37.3477 26.3163 35.0951 25.3095 33.3545" fill="url(#paint0_linear)"/>
<path d="M14.2045 45.8199C13.6073 46.7371 13.3556 50.0093 14.2344 50.6748C16.1371 52.1167 19.8359 57.7012 25.0065 57.9017C30.9877 58.1363 36.7726 52.1125 36.9518 47.5349C37.131 42.9573 35.8596 41.1655 36.0985 37.3302C36.2991 34.0836 38.7265 32.6246 38.7905 30.9992C38.8204 30.2569 38.2359 29.7961 37.5917 29.5273C38.2743 32.1638 34.2812 32.1212 33.9313 40.9991C33.5815 49.877 28.3128 52.2618 26.1498 52.6202C23.9869 52.9785 20.2113 52.9614 17.481 49.3224" fill="url(#paint1_radial)"/>
<path d="M14.7464 45.688C13.8206 44.8006 11.6449 42.2921 10.2157 41.0549C8.78652 39.8134 7.49387 39.7793 6.55531 41.0464C5.61675 42.3134 8.11247 44.7067 8.67987 45.3211C9.55017 46.2596 13.1252 49.8347 14.2387 50.6794" fill="url(#paint2_linear)"/>
<path d="M19.0808 41.179C18.9614 41.4349 18.1977 41.58 16.7643 39.8949C15.6679 38.6065 12.7456 34.9034 11.0007 33.2098C9.25583 31.5161 7.87785 30.7951 6.66199 31.5971C5.44613 32.3992 6.04766 34.1952 7.31472 35.7268C8.87614 37.6167 10.685 39.5578 12.4128 41.4179C13.7652 42.8726 16.8368 45.9571 16.4742 46.2941" fill="url(#paint3_linear)"/>
<path d="M12.417 41.4174C13.6925 42.7911 16.4997 45.6111 16.504 46.2083C16.9476 45.5684 16.2565 43.5932 15.4758 42.8765C10.9409 38.7425 6.66189 32.194 6.07742 32.3646C5.79159 33.2818 6.36752 34.5787 7.31462 35.7263C8.8803 37.6163 10.6849 39.5531 12.417 41.4174Z" fill="url(#paint4_linear)"/>
<path d="M25.3053 33.3587C24.3027 31.6181 20.1218 25.9825 19.115 24.3869C18.1082 22.7914 16.6662 22.7359 15.6424 23.4014C14.6185 24.0669 14.2687 25.4535 16.3932 28.5251C17.7328 30.4619 18.842 32.2367 21.5468 35.4662L24.8402 35.3681L25.3053 33.3587Z" fill="url(#paint5_linear)"/>
<path d="M21.0092 36.3705C20.5484 35.8714 16.4998 30.6709 15.5826 29.5575C13.8633 27.467 11.7516 23.0473 8.95297 24.8689C7.48114 25.8288 8.19786 27.3263 8.58181 27.9321C8.96577 28.5378 14.0041 34.839 14.499 35.3765C14.9939 35.9141 19.1961 40.9226 19.0766 41.1785" fill="url(#paint6_linear)"/>
<path d="M21.5425 35.4704C22.0331 36.0592 22.4682 36.8143 22.3147 37.0446C24.0809 35.7349 20.6167 31.5456 18.6628 29.0328C17.1483 27.0874 16.8113 24.6813 15.7234 23.3545C15.6936 23.3716 15.668 23.3886 15.6424 23.4057C14.6185 24.0669 14.2687 25.4577 16.3932 28.5294C17.7328 30.4619 18.842 32.2409 21.5425 35.4704Z" fill="url(#paint7_linear)"/>
<path d="M14.5032 35.3767C14.998 35.9142 19.2002 40.9227 19.0808 41.1787C20.5099 39.404 15.463 33.8238 13.0228 31.0124C10.9068 28.5721 10.6081 26.4945 8.50064 25.2573C7.66021 26.1959 8.25321 27.4075 8.58597 27.9365C8.96992 28.5423 14.0083 34.8392 14.5032 35.3767Z" fill="url(#paint8_linear)"/>
<path d="M18.9785 41.2815C18.8206 41.3711 18.5049 41.3669 18.0271 41.064C18.3769 41.3754 18.7097 41.4991 18.9785 41.2815Z" fill="url(#paint9_linear)"/>
<path d="M36.4484 29.7668C37.5832 29.6089 37.7795 29.7455 37.5832 29.5321C37.0414 29.306 36.457 29.2122 36.1541 29.1994C34.9723 29.1525 31.8836 30.5475 31.73 34.5364C31.6703 36.0893 31.1712 37.4715 29.5841 37.4118C28.957 37.3862 28.3171 37.0235 27.707 36.4817C30.3734 39.6771 32.6729 36.8572 33.0824 34.8734C33.492 32.8896 33.1165 30.2318 36.4484 29.7668Z" fill="url(#paint10_linear)"/>
<path d="M15.2881 23.6914C14.5671 24.4465 14.533 25.8458 16.3931 28.525C17.7326 30.4618 18.8418 32.2366 21.5466 35.466C22.0585 36.0761 22.5065 36.8739 22.2974 37.0659C22.8947 33.8534 18.4238 30.496 17.0244 28.0002C15.9152 26.0293 15.7233 24.8817 15.2881 23.6914Z" fill="url(#paint11_linear)"/>
<path d="M14.5033 35.3767C14.9981 35.9142 19.2003 40.9227 19.0809 41.1787C20.0791 40.5259 19.4606 39.421 18.0186 37.8638C15.0707 34.6727 10.9581 30.3767 9.37105 26.9126C9.22173 26.5841 8.93163 26.3366 8.57327 26.2769C7.65178 26.1191 8.28744 27.4714 8.57754 27.9364C8.97003 28.5422 14.0084 34.8391 14.5033 35.3767Z" fill="url(#paint12_linear)"/>
<path d="M7.31886 35.7221C8.88028 37.612 10.6891 39.5531 12.4169 41.4132C13.7693 42.8679 16.841 45.9524 16.4783 46.2894C18.5176 44.7067 9.57993 38.333 6.0774 32.3604C5.79157 33.2776 6.3675 34.5745 7.31886 35.7221Z" fill="url(#paint13_linear)"/>
<path d="M16.056 46.6052C16.248 46.5369 16.3461 46.4559 16.3845 46.362C16.0347 46.6095 15.5953 46.4985 14.742 45.6837C13.8163 44.7963 11.6405 42.2878 10.2114 41.0506C9.58423 40.5046 8.9827 40.1931 8.42383 40.1206C9.20454 40.6539 8.82485 40.8203 10.5526 42.2537C11.4784 43.0259 14.8188 47.0403 16.056 46.6052Z" fill="url(#paint14_linear)"/>
<path d="M14.0807 37.6545C15.3136 39.2842 17.7411 41.9889 18.9057 41.3149C18.59 41.4087 17.8819 41.2082 16.7641 39.8943C15.6677 38.6059 12.7454 34.9028 11.0005 33.2092C9.58841 31.8354 8.41521 31.1017 7.37427 31.3022C10.3393 32.4029 12.9118 36.1144 14.0807 37.6545Z" fill="url(#paint15_linear)"/>
<path d="M15.7533 30.9144C17.7328 33.248 20.6253 37.8299 22.2165 37.1132C21.9563 37.1815 21.423 36.8188 21.0135 36.3751C20.5527 35.876 16.5041 30.6755 15.5869 29.5621C14.3966 28.1116 13.0187 25.5476 11.3506 24.7114C13.0059 26.1235 14.1492 29.0245 15.7533 30.9144Z" fill="url(#paint16_linear)"/>
<path d="M27.7072 36.4859C27.7072 36.4859 27.7072 36.4816 27.7072 36.4859C26.7729 35.6583 25.9154 34.4168 25.3053 33.3631C24.3027 31.6225 20.1219 25.9868 19.1151 24.3913C18.8079 23.9049 18.4581 23.5636 18.0955 23.3418C18.5647 24.0756 18.8079 25.108 19.883 26.4177C21.6108 28.5209 23.8292 32.2666 24.5928 33.555C25.3608 34.8434 26.5638 37.5396 27.7072 36.4859Z" fill="url(#paint17_linear)"/>
<path d="M32.9203 54.7365C32.3102 53.077 31.3717 52.0403 29.9126 52.9192C25.9408 55.3167 21.5211 54.2801 16.1158 49.5489C11.295 45.3254 8.83347 42.3476 6.45294 41.2085C5.82155 42.5097 8.12955 44.7281 8.67562 45.3168C9.54592 46.2554 13.121 49.8304 14.2344 50.6751C16.1372 52.1171 19.8359 57.7015 25.0065 57.902C27.8905 58.0172 30.7317 56.6734 32.9203 54.7365Z" fill="url(#paint18_radial)"/>
<path d="M36.0944 37.3347C36.2949 34.0882 38.7223 32.6291 38.7863 31.0037C38.8034 30.5259 38.5687 30.1633 38.2274 29.8945C38.6114 31.1787 37.5363 32.258 35.928 34.1095C34.1831 36.1104 33.6882 39.31 34.7079 42.5693C35.7275 45.8287 34.1106 50.2015 31.7301 51.5112C29.3495 52.821 26.0177 58.8661 17.4426 51.5539L17.4384 51.5496C16.9179 51.0249 16.4017 50.5599 15.8727 50.2058C12.2251 47.7442 10.1816 45.577 8.64152 43.7639C8.33862 43.4098 7.54084 42.0531 6.5127 42.4499C6.97344 43.6188 8.28742 44.8944 8.68418 45.321C9.55448 46.2596 13.1295 49.8346 14.243 50.6793C14.3881 50.7903 14.5459 50.9225 14.708 51.0761C14.7507 51.1145 14.7933 51.1571 14.8403 51.1998C14.8531 51.2126 14.8616 51.2211 14.8744 51.2339C14.9043 51.2595 14.9299 51.2894 14.9597 51.315C14.9683 51.3193 14.9725 51.3278 14.9811 51.3321C16.0988 52.4327 17.6304 54.2416 19.5373 55.6836C19.5373 55.6836 19.5373 55.6836 19.5416 55.6836C19.708 55.8116 19.8786 55.9353 20.0535 56.0547C20.0578 56.0547 20.0578 56.059 20.0621 56.059C20.2327 56.1784 20.4076 56.2936 20.5868 56.4045L20.5911 56.4088C21.9179 57.2407 23.394 57.838 25.0194 57.902C31.0005 58.1366 36.7855 52.1128 36.9647 47.5352C37.131 42.9576 35.8555 41.17 36.0944 37.3347Z" fill="url(#paint19_radial)"/>
<path d="M58.4577 35.4705C57.9457 36.0806 57.4978 36.8784 57.7068 37.0704C57.9158 37.2666 58.5302 36.8698 58.9909 36.3707C59.4517 35.8716 60.7955 40.9227 60.9192 41.1787C61.0088 41.3707 62.4039 42.8425 63.159 44.2674C63.4107 44.7409 63.432 46.2042 63.5259 46.2896C63.8885 46.6266 64.3322 46.5711 65.2579 45.6838C66.1837 44.7964 66.8833 49.8305 65.7699 50.6752C63.8672 52.1172 60.1684 57.7016 54.9978 57.9021C49.0166 58.1367 43.2317 52.1129 43.0525 47.5353C42.8733 42.9577 44.1446 41.1659 43.9057 37.3306C43.7052 34.084 41.2778 32.625 41.2138 30.9996C41.1583 29.6344 43.1762 29.2206 43.8417 29.195C45.0235 29.1481 48.1122 30.5431 48.2658 34.532C48.3255 36.0849 48.8246 37.4671 50.4116 37.4074C51.9987 37.3434 53.6838 35.0951 54.6906 33.3545" fill="url(#paint20_linear)"/>
<path d="M65.7953 45.8204C66.3926 46.7376 66.6443 50.0097 65.7655 50.6753C63.8627 52.1172 60.164 57.7017 54.9934 57.9022C49.0122 58.1368 43.2272 52.113 43.0481 47.5354C42.8689 42.9578 44.1402 41.166 43.9013 37.3307C43.7008 34.0841 41.2733 32.6251 41.2093 30.9997C41.1795 30.2573 41.764 29.7966 42.4081 29.5278C41.7256 32.1643 45.7187 32.1217 46.0685 40.9996C46.4183 49.8775 51.6871 52.2623 53.85 52.6206C56.013 52.979 59.7885 52.9619 62.5189 49.3229" fill="url(#paint21_radial)"/>
<path d="M65.2581 45.688C66.1838 44.8006 68.3596 42.2921 69.7887 41.0549C71.2179 39.8134 72.5106 39.7793 73.4491 41.0464C74.3877 42.3134 71.892 44.7067 71.3246 45.3211C70.4543 46.2596 66.8792 49.8347 65.7657 50.6794" fill="url(#paint22_linear)"/>
<path d="M60.9192 41.179C61.0386 41.4349 61.8023 41.58 63.2357 39.8949C64.3321 38.6065 67.2545 34.9034 68.9993 33.2098C70.7442 31.5161 72.1222 30.7951 73.338 31.5971C74.5539 32.3992 73.9524 34.1952 72.6853 35.7268C71.1239 37.6167 69.315 39.5578 67.5872 41.4179C66.2348 42.8726 63.1632 45.9571 63.5258 46.2941" fill="url(#paint23_linear)"/>
<path d="M67.5829 41.4179C66.3073 42.7916 63.5002 45.6116 63.4959 46.2088C63.0522 45.5689 63.7433 43.5937 64.524 42.8769C69.059 38.743 73.338 32.1944 73.9224 32.3651C74.2083 33.2823 73.6323 34.5792 72.6852 35.7268C71.1238 37.6168 69.315 39.5536 67.5829 41.4179Z" fill="url(#paint24_linear)"/>
<path d="M54.6948 33.3585C55.6974 31.6179 59.8782 25.9823 60.885 24.3867C61.8961 22.7955 63.3338 22.7357 64.3577 23.4013C65.3816 24.0625 65.7314 25.4533 63.6069 28.5249C62.2673 30.4618 61.1581 32.2365 58.4533 35.466L55.1598 35.3679L54.6948 33.3585Z" fill="url(#paint25_linear)"/>
<path d="M58.991 36.3705C59.4517 35.8714 63.5003 30.6709 64.4175 29.5575C66.1368 27.467 68.2486 23.0473 71.0472 24.8689C72.519 25.8288 71.8023 27.3263 71.4183 27.9321C71.0344 28.5378 65.996 34.839 65.5012 35.3765C65.0063 35.9141 60.8041 40.9226 60.9235 41.1785" fill="url(#paint26_linear)"/>
<path d="M58.4578 35.4704C57.9672 36.0592 57.532 36.8143 57.6856 37.0446C55.9194 35.7349 59.3835 31.5456 61.3374 29.0328C62.8519 27.0874 63.189 24.6813 64.2768 23.3545C64.3067 23.3716 64.3323 23.3886 64.3579 23.4057C65.3818 24.0669 65.7316 25.4577 63.607 28.5294C62.2675 30.4619 61.1583 32.2409 58.4578 35.4704Z" fill="url(#paint27_linear)"/>
<path d="M65.4967 35.3767C65.0019 35.9142 60.7997 40.9227 60.9191 41.1787C59.49 39.404 64.5369 33.8238 66.9771 31.0124C69.0931 28.5721 69.3918 26.4945 71.4993 25.2573C72.3397 26.1959 71.7467 27.4075 71.4139 27.9365C71.0342 28.5423 65.9916 34.8392 65.4967 35.3767Z" fill="url(#paint28_linear)"/>
<path d="M61.0215 41.2815C61.1793 41.3711 61.495 41.3669 61.9728 41.064C61.623 41.3754 61.2903 41.4991 61.0215 41.2815Z" fill="url(#paint29_linear)"/>
<path d="M43.5514 29.7668C42.4166 29.6089 42.2203 29.7455 42.4166 29.5321C42.9584 29.306 43.5429 29.2122 43.8458 29.1994C45.0275 29.1525 48.1162 30.5475 48.2698 34.5364C48.3295 36.0893 48.8286 37.4715 50.4157 37.4118C51.0428 37.3862 51.6827 37.0235 52.2928 36.4817C49.6264 39.6771 47.327 36.8572 46.9174 34.8734C46.5036 32.8982 46.8833 30.2318 43.5514 29.7668Z" fill="url(#paint30_linear)"/>
<path d="M64.7119 23.6914C65.4328 24.4465 65.467 25.8458 63.6069 28.525C62.2673 30.4618 61.1581 32.2366 58.4534 35.466C57.9414 36.0761 57.4935 36.8739 57.7025 37.0659C57.1053 33.8534 61.5762 30.496 62.9755 28.0002C64.0847 26.0293 64.2767 24.8817 64.7119 23.6914Z" fill="url(#paint31_linear)"/>
<path d="M65.4968 35.3767C65.0019 35.9142 60.7997 40.9227 60.9192 41.1787C59.9209 40.5259 60.5395 39.421 61.9815 37.8638C64.9294 34.6727 69.042 30.3767 70.629 26.9126C70.7783 26.5841 71.0684 26.3366 71.4268 26.2769C72.3483 26.1191 71.7126 27.4714 71.4225 27.9364C71.0343 28.5422 65.9917 34.8391 65.4968 35.3767Z" fill="url(#paint32_linear)"/>
<path d="M72.6854 35.7221C71.124 37.612 69.3151 39.5531 67.5873 41.4132C66.235 42.8679 63.1633 45.9524 63.5259 46.2894C61.4867 44.7067 70.4243 38.333 73.9269 32.3604C74.2084 33.2776 73.6325 34.5745 72.6854 35.7221Z" fill="url(#paint33_linear)"/>
<path d="M63.944 46.6052C63.752 46.5369 63.6539 46.4559 63.6155 46.362C63.9653 46.6095 64.4047 46.4985 65.258 45.6837C66.1837 44.7963 68.3595 42.2878 69.7886 41.0506C70.4158 40.5046 71.0173 40.1931 71.5762 40.1206C70.7955 40.6539 71.1751 40.8203 69.4473 42.2537C68.5216 43.0259 65.1812 47.0403 63.944 46.6052Z" fill="url(#paint34_linear)"/>
<path d="M65.9193 37.655C64.6864 39.2847 62.2589 41.9894 61.0942 41.3154C61.4099 41.4092 62.1181 41.2087 63.2359 39.8947C64.3323 38.6064 67.2546 34.9033 68.9995 33.2096C70.4116 31.8359 71.5848 31.1022 72.6257 31.3027C69.6607 32.4033 67.0882 36.1149 65.9193 37.655Z" fill="url(#paint35_linear)"/>
<path d="M64.2467 30.9144C62.2672 33.248 59.3747 37.8299 57.7834 37.1132C58.0437 37.1815 58.577 36.8188 58.9865 36.3751C59.4473 35.876 63.4959 30.6755 64.4131 29.5621C65.6033 28.1116 66.9813 25.5476 68.6494 24.7114C66.9941 26.1235 65.8508 29.0245 64.2467 30.9144Z" fill="url(#paint36_linear)"/>
<path d="M52.293 36.4859C52.293 36.4859 52.293 36.4816 52.293 36.4859C53.2273 35.6583 54.0848 34.4168 54.6948 33.3631C55.6974 31.6225 59.8782 25.9868 60.885 24.3913C61.1922 23.9049 61.542 23.5636 61.9047 23.3418C61.4354 24.0756 61.1922 25.108 60.1171 26.4177C58.3893 28.5209 56.1709 32.2666 55.4073 33.555C54.6436 34.8434 53.4363 37.5396 52.293 36.4859Z" fill="url(#paint37_linear)"/>
<path d="M47.0796 54.7365C47.6897 53.077 48.6282 52.0403 50.0872 52.9192C54.0591 55.3167 58.4788 54.2801 63.8841 49.5489C68.7048 45.3254 71.1664 42.3476 73.5469 41.2085C74.1783 42.5097 71.8703 44.7281 71.3243 45.3168C70.454 46.2554 66.8789 49.8304 65.7654 50.6751C63.8627 52.1171 60.164 57.7015 54.9933 57.902C52.1094 58.0172 49.2681 56.6734 47.0796 54.7365Z" fill="url(#paint38_radial)"/>
<path d="M43.9055 37.3352C43.705 34.0887 41.2775 32.6296 41.2135 31.0042C41.1965 30.5264 41.4311 30.1638 41.7724 29.895C41.3884 31.1791 42.4635 32.2585 44.0719 34.11C45.8167 36.1108 46.3116 39.3105 45.292 42.5698C44.2724 45.8292 45.8893 50.202 48.2698 51.5117C50.6503 52.8214 53.9822 58.8666 62.5572 51.5544L62.5615 51.5501C63.0819 51.0254 63.5981 50.5604 64.1272 50.2063C67.7747 47.7447 69.8182 45.5775 71.3583 43.7644C71.6612 43.4103 72.459 42.0536 73.4871 42.4504C73.0264 43.6193 71.7124 44.8949 71.3157 45.3215C70.4454 46.2601 66.8703 49.8351 65.7568 50.6798C65.6118 50.7907 65.4539 50.923 65.2918 51.0766C65.2492 51.115 65.2065 51.1576 65.1596 51.2003C65.1468 51.2131 65.1382 51.2216 65.1254 51.2344C65.0956 51.26 65.07 51.2899 65.0401 51.3155C65.0316 51.3197 65.0273 51.3283 65.0188 51.3326C63.901 52.4332 62.3695 54.2421 60.4625 55.6841C60.4625 55.6841 60.4625 55.6841 60.4582 55.6841C60.2919 55.812 60.1212 55.9358 59.9463 56.0552C59.942 56.0552 59.942 56.0595 59.9378 56.0595C59.7671 56.1789 59.5922 56.2941 59.413 56.405L59.4088 56.4093C58.082 57.2412 56.6059 57.8385 54.9805 57.9025C48.9993 58.1371 43.2144 52.1133 43.0352 47.5357C42.856 42.9581 44.1444 41.1705 43.9055 37.3352Z" fill="url(#paint39_radial)"/>
<defs>
<linearGradient id="paint0_linear" x1="33.5711" y1="59.4254" x2="29.0953" y2="47.6841" gradientUnits="userSpaceOnUse">
<stop offset="0.00132565" stop-color="#F0C492"/>
<stop offset="1" stop-color="#F8DBBA"/>
</linearGradient>
<radialGradient id="paint1_radial" cx="0" cy="0" r="1" gradientUnits="userSpaceOnUse" gradientTransform="translate(14.843 45.8645) rotate(2.24816) scale(45.8417 45.8466)">
<stop offset="0.6134" stop-color="#F0C492" stop-opacity="0"/>
<stop offset="1" stop-color="#E6AF74"/>
</radialGradient>
<linearGradient id="paint2_linear" x1="7.5604" y1="42.1361" x2="13.4757" y2="46.8613" gradientUnits="userSpaceOnUse">
<stop offset="0.00132565" stop-color="#F0C492"/>
<stop offset="1" stop-color="#F8DBBA"/>
</linearGradient>
<linearGradient id="paint3_linear" x1="5.81044" y1="30.1751" x2="16.0592" y2="41.7816" gradientUnits="userSpaceOnUse">
<stop offset="0.00132565" stop-color="#F0C492"/>
<stop offset="1" stop-color="#F8DBBA"/>
</linearGradient>
<linearGradient id="paint4_linear" x1="13.7895" y1="34.3247" x2="9.5401" y2="42.7729" gradientUnits="userSpaceOnUse">
<stop offset="0.3118" stop-color="#F0C492" stop-opacity="0"/>
<stop offset="1" stop-color="#E6AF74"/>
</linearGradient>
<linearGradient id="paint5_linear" x1="17.5634" y1="25.3494" x2="23.3834" y2="35.34" gradientUnits="userSpaceOnUse">
<stop offset="0.00132565" stop-color="#F0C492"/>
<stop offset="1" stop-color="#F8DBBA"/>
</linearGradient>
<linearGradient id="paint6_linear" x1="11.0967" y1="26.7174" x2="19.068" y2="38.4194" gradientUnits="userSpaceOnUse">
<stop offset="0.00132565" stop-color="#F0C492"/>
<stop offset="1" stop-color="#F8DBBA"/>
</linearGradient>
<linearGradient id="paint7_linear" x1="21.0541" y1="28.4828" x2="15.5477" y2="33.0735" gradientUnits="userSpaceOnUse">
<stop offset="0.3118" stop-color="#F0C492" stop-opacity="0"/>
<stop offset="1" stop-color="#E6AF74"/>
</linearGradient>
<linearGradient id="paint8_linear" x1="16.0287" y1="31.7107" x2="8.50693" y2="36.7674" gradientUnits="userSpaceOnUse">
<stop offset="0.3118" stop-color="#F0C492" stop-opacity="0"/>
<stop offset="1" stop-color="#E6AF74"/>
</linearGradient>
<linearGradient id="paint9_linear" x1="21.1808" y1="39.3748" x2="13.6591" y2="44.4315" gradientUnits="userSpaceOnUse">
<stop stop-color="#FFBC47" stop-opacity="0"/>
<stop offset="1" stop-color="#FFA754"/>
</linearGradient>
<linearGradient id="paint10_linear" x1="34.0167" y1="27.337" x2="30.7537" y2="41.2995" gradientUnits="userSpaceOnUse">
<stop offset="0.3118" stop-color="#F0C492" stop-opacity="0"/>
<stop offset="1" stop-color="#E6AF74"/>
</linearGradient>
<linearGradient id="paint11_linear" x1="22.0641" y1="27.5781" x2="17.3564" y2="31.6087" gradientUnits="userSpaceOnUse">
<stop offset="0.3118" stop-color="#F0C492" stop-opacity="0"/>
<stop offset="1" stop-color="#D2A374"/>
</linearGradient>
<linearGradient id="paint12_linear" x1="18.4968" y1="29.7233" x2="12.3024" y2="34.8787" gradientUnits="userSpaceOnUse">
<stop offset="0.3118" stop-color="#F0C492" stop-opacity="0"/>
<stop offset="1" stop-color="#D2A374"/>
</linearGradient>
<linearGradient id="paint13_linear" x1="16.2453" y1="35.4748" x2="8.61582" y2="41.3872" gradientUnits="userSpaceOnUse">
<stop offset="0.3118" stop-color="#F0C492" stop-opacity="0"/>
<stop offset="1" stop-color="#D2A374"/>
</linearGradient>
<linearGradient id="paint14_linear" x1="8.01048" y1="39.6649" x2="16.3199" y2="46.98" gradientUnits="userSpaceOnUse">
<stop offset="0.3118" stop-color="#F0C492" stop-opacity="0"/>
<stop offset="1" stop-color="#E6AF74"/>
</linearGradient>
<linearGradient id="paint15_linear" x1="9.99445" y1="31.0789" x2="16.2955" y2="41.5321" gradientUnits="userSpaceOnUse">
<stop offset="0.3118" stop-color="#F0C492" stop-opacity="0"/>
<stop offset="1" stop-color="#E6AF74"/>
</linearGradient>
<linearGradient id="paint16_linear" x1="15.215" y1="32.0134" x2="17.1549" y2="30.6476" gradientUnits="userSpaceOnUse">
<stop offset="0.3118" stop-color="#F0C492" stop-opacity="0"/>
<stop offset="1" stop-color="#E6AF74"/>
</linearGradient>
<linearGradient id="paint17_linear" x1="24.2825" y1="38.0674" x2="22.2412" y2="26.0057" gradientUnits="userSpaceOnUse">
<stop offset="0.3118" stop-color="#F0C492" stop-opacity="0"/>
<stop offset="1" stop-color="#E6AF74"/>
</linearGradient>
<radialGradient id="paint18_radial" cx="0" cy="0" r="1" gradientUnits="userSpaceOnUse" gradientTransform="translate(19.5743 49.7074) rotate(2.24816) scale(30.8294 30.8327)">
<stop offset="0.6134" stop-color="#F0C492" stop-opacity="0"/>
<stop offset="1" stop-color="#E6AF74"/>
</radialGradient>
<radialGradient id="paint19_radial" cx="0" cy="0" r="1" gradientUnits="userSpaceOnUse" gradientTransform="translate(21.0447 37.987) rotate(50.3967) scale(25.4536 23.1111)">
<stop offset="0.6134" stop-color="#F0C492" stop-opacity="0"/>
<stop offset="1" stop-color="#E6AF74"/>
</radialGradient>
<linearGradient id="paint20_linear" x1="46.4114" y1="59.4255" x2="50.8872" y2="47.6842" gradientUnits="userSpaceOnUse">
<stop offset="0.00132565" stop-color="#F0C492"/>
<stop offset="1" stop-color="#F8DBBA"/>
</linearGradient>
<radialGradient id="paint21_radial" cx="0" cy="0" r="1" gradientUnits="userSpaceOnUse" gradientTransform="translate(65.1393 45.8651) rotate(177.752) scale(45.8417 45.8466)">
<stop offset="0.6134" stop-color="#F0C492" stop-opacity="0"/>
<stop offset="1" stop-color="#E6AF74"/>
</radialGradient>
<linearGradient id="paint22_linear" x1="72.4222" y1="42.1363" x2="66.5069" y2="46.8614" gradientUnits="userSpaceOnUse">
<stop offset="0.00132565" stop-color="#F0C492"/>
<stop offset="1" stop-color="#F8DBBA"/>
</linearGradient>
<linearGradient id="paint23_linear" x1="74.172" y1="30.1752" x2="63.9232" y2="41.7817" gradientUnits="userSpaceOnUse">
<stop offset="0.00132565" stop-color="#F0C492"/>
<stop offset="1" stop-color="#F8DBBA"/>
</linearGradient>
<linearGradient id="paint24_linear" x1="66.2112" y1="34.3252" x2="70.4607" y2="42.7734" gradientUnits="userSpaceOnUse">
<stop offset="0.3118" stop-color="#F0C492" stop-opacity="0"/>
<stop offset="1" stop-color="#E6AF74"/>
</linearGradient>
<linearGradient id="paint25_linear" x1="62.4191" y1="25.3494" x2="56.599" y2="35.3399" gradientUnits="userSpaceOnUse">
<stop offset="0.00132565" stop-color="#F0C492"/>
<stop offset="1" stop-color="#F8DBBA"/>
</linearGradient>
<linearGradient id="paint26_linear" x1="68.8858" y1="26.7175" x2="60.9145" y2="38.4195" gradientUnits="userSpaceOnUse">
<stop offset="0.00132565" stop-color="#F0C492"/>
<stop offset="1" stop-color="#F8DBBA"/>
</linearGradient>
<linearGradient id="paint27_linear" x1="58.9285" y1="28.4829" x2="64.4349" y2="33.0737" gradientUnits="userSpaceOnUse">
<stop offset="0.3118" stop-color="#F0C492" stop-opacity="0"/>
<stop offset="1" stop-color="#E6AF74"/>
</linearGradient>
<linearGradient id="paint28_linear" x1="63.9535" y1="31.7108" x2="71.4753" y2="36.7675" gradientUnits="userSpaceOnUse">
<stop offset="0.3118" stop-color="#F0C492" stop-opacity="0"/>
<stop offset="1" stop-color="#E6AF74"/>
</linearGradient>
<linearGradient id="paint29_linear" x1="58.8015" y1="39.3749" x2="66.3233" y2="44.4316" gradientUnits="userSpaceOnUse">
<stop stop-color="#FFBC47" stop-opacity="0"/>
<stop offset="1" stop-color="#FFA754"/>
</linearGradient>
<linearGradient id="paint30_linear" x1="45.984" y1="27.337" x2="49.247" y2="41.2995" gradientUnits="userSpaceOnUse">
<stop offset="0.3118" stop-color="#F0C492" stop-opacity="0"/>
<stop offset="1" stop-color="#E6AF74"/>
</linearGradient>
<linearGradient id="paint31_linear" x1="57.9183" y1="27.5783" x2="62.626" y2="31.6088" gradientUnits="userSpaceOnUse">
<stop offset="0.3118" stop-color="#F0C492" stop-opacity="0"/>
<stop offset="1" stop-color="#D2A374"/>
</linearGradient>
<linearGradient id="paint32_linear" x1="61.4856" y1="29.7235" x2="67.68" y2="34.8788" gradientUnits="userSpaceOnUse">
<stop offset="0.3118" stop-color="#F0C492" stop-opacity="0"/>
<stop offset="1" stop-color="#D2A374"/>
</linearGradient>
<linearGradient id="paint33_linear" x1="63.7371" y1="35.4749" x2="71.3666" y2="41.3873" gradientUnits="userSpaceOnUse">
<stop offset="0.3118" stop-color="#F0C492" stop-opacity="0"/>
<stop offset="1" stop-color="#D2A374"/>
</linearGradient>
<linearGradient id="paint34_linear" x1="71.9719" y1="39.665" x2="63.6625" y2="46.9801" gradientUnits="userSpaceOnUse">
<stop offset="0.3118" stop-color="#F0C492" stop-opacity="0"/>
<stop offset="1" stop-color="#E6AF74"/>
</linearGradient>
<linearGradient id="paint35_linear" x1="69.9879" y1="31.0795" x2="63.6869" y2="41.5327" gradientUnits="userSpaceOnUse">
<stop offset="0.3118" stop-color="#F0C492" stop-opacity="0"/>
<stop offset="1" stop-color="#E6AF74"/>
</linearGradient>
<linearGradient id="paint36_linear" x1="64.7674" y1="32.0136" x2="62.8274" y2="30.6477" gradientUnits="userSpaceOnUse">
<stop offset="0.3118" stop-color="#F0C492" stop-opacity="0"/>
<stop offset="1" stop-color="#E6AF74"/>
</linearGradient>
<linearGradient id="paint37_linear" x1="55.7" y1="38.0675" x2="57.7413" y2="26.0059" gradientUnits="userSpaceOnUse">
<stop offset="0.3118" stop-color="#F0C492" stop-opacity="0"/>
<stop offset="1" stop-color="#E6AF74"/>
</linearGradient>
<radialGradient id="paint38_radial" cx="0" cy="0" r="1" gradientUnits="userSpaceOnUse" gradientTransform="translate(60.408 49.7075) rotate(177.752) scale(30.8294 30.8327)">
<stop offset="0.6134" stop-color="#F0C492" stop-opacity="0"/>
<stop offset="1" stop-color="#E6AF74"/>
</radialGradient>
<radialGradient id="paint39_radial" cx="0" cy="0" r="1" gradientUnits="userSpaceOnUse" gradientTransform="translate(58.9728 37.9554) rotate(129.603) scale(25.4536 23.1111)">
<stop offset="0.6134" stop-color="#F0C492" stop-opacity="0"/>
<stop offset="1" stop-color="#E6AF74"/>
</radialGradient>
</defs>
</svg>
