<svg width="80" height="80" viewBox="0 0 80 80" fill="none" xmlns="http://www.w3.org/2000/svg">
<path d="M13.9589 47.7026C14.4581 47.8428 14.7139 38.0403 14.5984 35.1482L20.7992 34.8223C20.6466 35.9609 20.4568 38.3208 20.8653 38.3786C21.2737 38.4363 20.8653 37.4916 20.9973 36.522C21.1334 35.5525 26.8805 40.4125 27.2311 40.6147C27.4952 40.7673 28.4441 39.9298 30.511 40.9901C31.2 41.3449 33.4733 44.2411 33.6507 44.2659C33.6507 44.2659 33.2257 40.2681 33.4567 38.4363C33.6919 36.6045 39.7277 42.9209 39.5256 44.9219C39.1543 48.5318 41.4853 58.5324 34.0715 64.1433C27.1981 69.3457 15.4029 66.99 11.4216 61.7257" fill="url(#paint0_linear)"/>
<path d="M33.4609 38.4407C33.6961 36.6089 33.7951 31.6622 34.2696 28.9764C34.744 26.2906 36.1632 25.0818 38.3622 25.6512C40.5612 26.2205 39.9382 31.1589 39.8557 32.3595C39.7361 34.1995 39.7402 42.8304 39.5256 44.9262" fill="url(#paint1_linear)"/>
<path d="M27.2351 40.6149C27.6889 40.6891 27.2475 38.8243 27.5528 35.6476C27.7879 33.2217 28.2541 26.5959 28.6337 23.1138C29.0999 18.7943 30.0117 17.6845 32.1075 17.635C34.2033 17.5855 34.9707 20.2011 34.7397 23.052C34.5416 25.4613 34.0672 29.2487 33.3988 33.9767C32.9945 36.811 32.9491 44.1712 33.6546 44.2661" fill="url(#paint2_linear)"/>
<path d="M14.5982 35.1486C14.4827 32.2565 15.5347 22.0661 15.5389 19.3473C15.543 16.6326 17.2551 15.4568 19.0127 15.4733C20.7702 15.4939 21.9666 16.81 21.7397 22.1858C21.5953 25.577 21.4881 28.7992 20.8032 34.8226L16.463 38.4656L14.5982 35.1486Z" fill="url(#paint3_linear)"/>
<path d="M21.0015 36.5223C21.1376 35.5527 21.6368 26.0761 21.806 24.0009C22.1525 19.6607 21.8555 13.1257 25.779 13.0019C28.308 12.9235 28.6917 15.2875 28.7371 16.3189C28.7824 17.3503 27.8005 28.9311 27.6561 29.9748C27.5117 31.0186 26.8805 40.4127 27.2312 40.6149" fill="url(#paint4_linear)"/>
<path d="M21.0425 16.6739C21.6077 17.7053 21.8511 19.5041 21.7397 22.1858C21.5953 25.5771 21.4468 28.7992 20.8032 34.8227C20.6794 35.9655 20.4608 38.3212 20.8692 38.379C18.7074 36.7163 20.7454 27.8049 21.0631 23.6958C21.4055 19.3308 20.6217 15.9024 21.0425 16.6739Z" fill="url(#paint5_linear)"/>
<path d="M27.6602 29.9792C27.5158 31.023 26.8846 40.4171 27.2353 40.6192C27.2353 40.6192 25.8656 38.8782 26.2823 35.85C27.1404 29.6491 27.7427 23.0151 27.5983 19.4587C27.4622 16.1087 28.1924 14.1779 28.407 14.6895C28.6215 15.2011 28.7205 15.9272 28.737 16.3233C28.7865 17.3547 27.8046 28.9354 27.6602 29.9792Z" fill="url(#paint6_linear)"/>
<path d="M34.7397 23.0518C34.5417 25.4612 34.0673 29.2486 33.3989 33.9766C32.9987 36.8109 32.9492 44.1711 33.6547 44.2659C29.9375 44.0762 35.2142 21.7688 33.436 18.0557C34.5252 18.9055 34.913 20.9106 34.7397 23.0518Z" fill="url(#paint7_linear)"/>
<path d="M34.4096 44.295C34.1291 44.3734 33.7743 44.3487 33.6546 44.2661C33.6546 44.2661 33.2462 40.1199 33.4607 38.4366C33.6959 36.6048 33.7949 31.6582 34.2694 28.9724C34.4798 27.7924 34.8717 26.8971 35.4287 26.3154C35.0367 27.6191 35.6102 27.4624 34.979 30.635C34.6448 32.3348 36.229 43.7876 34.4096 44.295Z" fill="url(#paint8_linear)"/>
<path d="M28.6585 30.903C28.2459 33.8198 29.1701 40.4539 27.2393 40.6148C27.6931 40.4662 27.3218 38.1187 27.5569 35.6475C27.7921 33.2216 28.1964 26.5875 28.6379 23.1137C29.0917 19.5286 29.5703 18.4394 30.9606 17.8164C28.3697 21.5625 29.6734 23.745 28.6585 30.903Z" fill="url(#paint9_linear)"/>
<path d="M22.726 25.7458C22.3051 30.1314 22.0205 38.263 20.8735 38.3827C21.2366 38.2506 20.8859 37.3925 21.0056 36.5261C21.1417 35.5566 21.6409 26.08 21.8101 24.0048C22.0246 21.3107 21.9668 17.0159 23.2458 14.6602C22.4495 17.6925 23.0643 22.1895 22.726 25.7458Z" fill="url(#paint10_linear)"/>
<path d="M33.6546 44.2661C33.6546 44.2661 33.2462 40.1199 33.4607 38.4366C33.6959 36.6048 33.7949 31.6582 34.2694 28.9724C34.4798 27.7924 34.8717 26.8971 35.4287 26.3154C35.0367 27.6191 34.389 30.1358 34.1167 35.4744C33.7619 44.8644 33.7743 44.3487 33.6546 44.2661Z" fill="url(#paint11_linear)"/>
<path d="M33.6382 44.5468C33.6588 44.5468 33.7784 43.2431 33.7991 42.9543C33.8073 42.8016 33.9806 30.3793 34.3395 28.6507C34.3395 28.6507 34.3106 28.8239 34.2075 28.7868C34.1291 28.7579 34.1291 28.5723 34.1291 28.5723C33.7949 30.1606 32.7223 36.9556 33.1926 42.6614C33.238 43.2266 33.5103 44.5385 33.6382 44.5468Z" fill="#975500"/>
<path d="M27.2187 40.8953C27.2187 40.8953 27.2228 40.8953 27.2187 40.8953C27.8623 40.7427 28.2749 24.5577 28.8979 21.2531C28.8979 21.2531 28.7823 21.5171 28.6297 21.4883C28.4894 21.4511 28.4358 21.1582 28.4358 21.1582C27.8004 24.4959 26.7938 40.7427 27.2187 40.8953Z" fill="#975500"/>
<path d="M20.8528 38.6596C21.0467 38.6224 21.0714 37.8303 21.0714 37.6777C21.0879 34.8103 21.4097 31.8894 21.6449 28.3784C21.8388 25.5194 21.9667 22.7057 21.9914 20.8285C21.9914 20.8285 21.9832 21.0471 21.8966 21.0595C21.7439 21.0554 21.7645 20.7666 21.7645 20.7666C21.7398 22.6314 21.2818 25.4905 21.0879 28.3413C20.8528 31.8564 20.6217 34.7237 20.6052 37.6075C20.6052 37.756 20.7042 38.6513 20.8528 38.6596Z" fill="#975500"/>
<path d="M11.4257 61.7293C7.04837 56.4402 7.90238 50.1486 8.46759 44.6409C8.94204 39.9789 7.68784 36.1131 8.14579 33.8151C9.25147 31.4264 14.3549 31.7977 14.9655 38.407C15.0026 39.2074 14.9779 40.0573 14.8624 40.9649C14.5818 43.1845 14.5818 47.7434 14.5818 47.7434" fill="url(#paint12_linear)"/>
<path d="M10.2829 54.0272C8.74403 49.6252 12.4159 43.0489 10.0519 39.5751C8.18295 36.8315 8.41811 34.6036 9.14422 32.9245C8.6904 33.1143 8.32734 33.4072 8.14169 33.8156C7.68374 36.1136 8.94207 39.9794 8.46349 44.6414C7.9024 50.1491 7.04839 56.4407 11.4257 61.7298C15.407 66.9942 27.1775 69.3169 34.0756 64.1474C41.708 58.4252 39.0593 48.0574 39.5874 44.5423C39.6369 44.2205 39.7401 34.1952 39.8597 32.3552C39.9134 31.5218 40.231 28.8979 39.6864 27.1733C38.1765 27.6643 38.5106 29.9045 38.4941 30.577C38.4157 34.0054 38.9933 41.4976 38.3827 46.2545C38.2672 47.1621 38.3951 50.4544 38.2095 51.5023C38.2095 51.5064 38.2053 51.5106 38.2053 51.5147C34.0962 67.2211 15.9392 65.7317 10.2829 54.0272Z" fill="url(#paint13_radial)"/>
<path d="M14.5405 36.2129L14.5447 36.2253C15.015 37.6692 15.1016 41.4071 14.7014 44.7365C14.3012 48.0659 19.0045 45.9948 22.1482 51.4861C22.1482 51.4861 20.7579 46.2919 18.4929 44.5137C16.2279 42.7355 18.1546 39.6001 14.5405 36.2129Z" fill="url(#paint14_linear)"/>
<path d="M10.6956 32.4834C11.7476 32.504 12.7378 33.0816 13.4515 33.8614C14.1611 34.6659 14.6149 35.6478 14.8831 36.6833C15.3039 38.7668 15.242 40.8626 15.1513 42.9461C15.11 43.4659 15.0646 43.9857 14.9986 44.5056C14.9367 45.0213 14.8996 45.4875 15.1224 45.8629C15.5721 46.6179 16.7231 46.8448 17.639 47.2862C18.6003 47.7029 19.5368 48.2434 20.3042 48.9695C21.0633 49.7039 21.6698 50.5703 22.1525 51.4862C21.0262 49.741 19.4254 48.3465 17.4781 47.6823C16.9996 47.5008 16.5086 47.3399 16.0176 47.1336C15.5391 46.9191 14.9986 46.6509 14.6809 46.1146C14.355 45.5823 14.4169 44.9429 14.4705 44.4437C14.5283 43.9321 14.5613 43.4205 14.5984 42.9048C14.7387 40.8585 14.7841 38.7709 14.4705 36.7658C14.2684 35.7922 13.8764 34.8185 13.2493 34.0305C12.6264 33.2384 11.727 32.6319 10.6956 32.4834Z" fill="#975500"/>
<path opacity="0.75" d="M34.6367 46.4281C33.9271 48.0123 26.2905 51.7048 23.0601 49.6585C19.8298 47.6121 17.705 40.5201 18.7282 39.1009C19.7514 37.6817 23.4521 39.6373 27.1033 40.9203C33.4032 43.1317 35.3422 44.8438 34.6367 46.4281Z" fill="url(#paint15_radial)"/>
<path d="M34.6366 46.4277C38.0361 46.6464 39.8266 49.7777 34.6654 57.0141C29.5785 64.1474 23.4024 61.7091 22.4246 59.5019C21.4468 57.2947 23.8768 54.2953 27.1815 53.6682C30.4861 53.0411 30.8863 46.1843 34.6366 46.4277Z" fill="url(#paint16_radial)"/>
<path d="M66.0452 47.7028C65.5459 47.8431 65.2902 38.0405 65.4057 35.1485L59.2007 34.8267C59.3533 35.9653 59.5431 38.3252 59.1347 38.383C58.7262 38.4407 59.1347 37.496 59.0027 36.5264C58.8665 35.5569 53.1195 40.4169 52.7688 40.6191C52.5048 40.7717 51.5559 39.9342 49.4889 40.9945C48.7999 41.3493 46.5267 44.2455 46.3493 44.2703C46.3493 44.2703 46.7742 40.2725 46.5432 38.4407C46.308 36.6089 40.2722 42.9253 40.4743 44.9263C40.8457 48.5362 38.5147 58.5368 45.9285 64.1477C52.8018 69.3501 64.597 66.9944 68.5783 61.73" fill="url(#paint17_linear)"/>
<path d="M46.5392 38.4407C46.3041 36.6089 46.2051 31.6622 45.7306 28.9764C45.252 26.2906 43.8369 25.0818 41.638 25.6512C39.439 26.2205 40.062 31.1548 40.1445 32.3595C40.2641 34.1995 40.26 42.8304 40.4745 44.9262" fill="url(#paint18_linear)"/>
<path d="M52.7646 40.6149C52.3108 40.6891 52.7522 38.8243 52.447 35.6476C52.2118 33.2217 51.7456 26.5959 51.366 23.1138C50.8998 18.7943 49.9881 17.6845 47.8922 17.635C45.7964 17.5855 45.029 20.2011 45.2601 23.052C45.4581 25.4613 45.9325 29.2487 46.6009 33.9767C47.0052 36.811 47.0506 44.1712 46.3451 44.2661" fill="url(#paint19_linear)"/>
<path d="M65.4015 35.1486C65.517 32.2565 64.465 22.0661 64.4609 19.3473C64.4567 16.6285 62.7446 15.4568 60.9871 15.4733C59.2295 15.4898 58.0331 16.81 58.26 22.1858C58.4044 25.577 58.5117 28.7992 59.1965 34.8226L63.5367 38.4656L65.4015 35.1486Z" fill="url(#paint20_linear)"/>
<path d="M58.9986 36.5223C58.8625 35.5527 58.3632 26.0761 58.1941 24.0009C57.8475 19.6607 58.1446 13.1257 54.2211 13.0019C51.6921 12.9235 51.3084 15.2875 51.263 16.3189C51.2176 17.3503 52.1995 28.9311 52.3439 29.9748C52.4883 31.0186 53.1195 40.4127 52.7689 40.6149" fill="url(#paint21_linear)"/>
<path d="M58.9614 16.6739C58.3962 17.7053 58.1528 19.5041 58.2642 22.1858C58.4085 25.5771 58.5571 28.7992 59.2007 34.8227C59.3244 35.9655 59.5431 38.3212 59.1347 38.379C61.2965 36.7163 59.2584 27.8049 58.9408 23.6958C58.5942 19.3308 59.3822 15.9024 58.9614 16.6739Z" fill="url(#paint22_linear)"/>
<path d="M52.3398 29.9792C52.4842 31.023 53.1155 40.4171 52.7648 40.6192C52.7648 40.6192 54.1345 38.8782 53.7178 35.85C52.8597 29.6491 52.2573 23.0151 52.4017 19.4587C52.5379 16.1087 51.8076 14.1779 51.5931 14.6895C51.3786 15.2011 51.2795 15.9272 51.263 16.3233C51.2135 17.3547 52.1954 28.9354 52.3398 29.9792Z" fill="url(#paint23_linear)"/>
<path d="M45.2601 23.0518C45.4581 25.4612 45.9326 29.2486 46.6009 33.9766C47.0011 36.8109 47.0506 44.1711 46.3451 44.2659C50.0624 44.0762 44.7856 21.7688 46.5638 18.0557C45.4746 18.9055 45.0868 20.9106 45.2601 23.0518Z" fill="url(#paint24_linear)"/>
<path d="M45.5903 44.295C45.8709 44.3734 46.2257 44.3487 46.3453 44.2661C46.3453 44.2661 46.7538 40.1199 46.5392 38.4366C46.3041 36.6048 46.205 31.6582 45.7306 28.9724C45.5202 27.7924 45.1283 26.8971 44.5713 26.3154C44.9632 27.6191 44.3898 27.4624 45.021 30.635C45.3552 32.3348 43.7709 43.7876 45.5903 44.295Z" fill="url(#paint25_linear)"/>
<path d="M51.3456 30.903C51.7581 33.8198 50.834 40.4539 52.7648 40.6148C52.311 40.4662 52.6823 38.1187 52.4471 35.6475C52.212 33.2216 51.8076 26.5875 51.3662 23.1137C50.9124 19.5286 50.4338 18.4394 49.0435 17.8164C51.6344 21.5625 50.3265 23.745 51.3456 30.903Z" fill="url(#paint26_linear)"/>
<path d="M57.2781 25.7458C57.6989 30.1314 57.9836 38.263 59.1306 38.3827C58.7675 38.2506 59.1182 37.3925 58.9985 36.5261C58.8624 35.5566 58.3632 26.08 58.194 24.0048C57.9795 21.3107 58.0373 17.0159 56.7583 14.6602C57.5546 17.6925 56.9357 22.1895 57.2781 25.7458Z" fill="url(#paint27_linear)"/>
<path d="M46.3453 44.2661C46.3453 44.2661 46.7538 40.1199 46.5392 38.4366C46.3041 36.6048 46.205 31.6582 45.7306 28.9724C45.5202 27.7924 45.1283 26.8971 44.5713 26.3154C44.9632 27.6191 45.611 30.1358 45.8832 35.4744C46.2381 44.8644 46.2257 44.3487 46.3453 44.2661Z" fill="url(#paint28_linear)"/>
<path d="M46.3659 44.5468C46.3453 44.5468 46.2256 43.2431 46.205 42.9543C46.1968 42.8016 46.0235 30.3793 45.6646 28.6507C45.6646 28.6507 45.6934 28.8239 45.7966 28.7868C45.875 28.7579 45.875 28.5723 45.875 28.5723C46.2091 30.1606 47.2818 36.9556 46.8115 42.6614C46.762 43.2266 46.4897 44.5385 46.3659 44.5468Z" fill="#975500"/>
<path d="M52.7812 40.8953C52.1376 40.7427 51.725 24.5577 51.1021 21.2531C51.1021 21.2531 51.2176 21.5171 51.3702 21.4883C51.5105 21.4511 51.5641 21.1582 51.5641 21.1582C52.1995 24.4959 53.2061 40.7427 52.7812 40.8953Z" fill="#975500"/>
<path d="M59.1514 38.6596C58.9575 38.6224 58.9327 37.8303 58.9327 37.6777C58.9162 34.8103 58.5944 31.8894 58.3593 28.3784C58.1653 25.5194 58.0374 22.7057 58.0127 20.8285C58.0127 20.8285 58.0209 21.0471 58.1076 21.0595C58.2602 21.0554 58.2396 20.7666 58.2396 20.7666C58.2644 22.6314 58.7223 25.4905 58.9162 28.3413C59.1514 31.8564 59.3824 34.7237 59.3989 37.6075C59.3989 37.756 59.2958 38.6513 59.1514 38.6596Z" fill="#975500"/>
<path d="M68.5744 61.7293C72.9517 56.4402 72.0977 50.1486 71.5366 44.6409C71.0622 39.9789 72.3164 36.1131 71.8584 33.8151C70.7527 31.4264 65.6493 31.7977 65.0387 38.407C65.0016 39.2074 65.0263 40.0573 65.1418 40.9649C65.4224 43.1845 65.4224 47.7434 65.4224 47.7434" fill="url(#paint29_linear)"/>
<path d="M69.7212 54.0272C71.2601 49.6252 67.5841 43.0489 69.9481 39.5751C71.8171 36.8315 71.5819 34.6036 70.8558 32.9245C71.3096 33.1143 71.6727 33.4072 71.8583 33.8156C72.3163 36.1136 71.0579 39.9794 71.5365 44.6414C72.0976 50.1491 72.9516 56.4407 68.5743 61.7298C64.593 66.9942 52.8225 69.3169 45.9245 64.1474C38.2961 58.4252 40.9448 48.0574 40.4167 44.5423C40.3672 44.2205 40.2641 34.1952 40.1444 32.3552C40.0908 31.5218 39.7731 28.8979 40.3177 27.1733C41.8277 27.6643 41.4935 29.9045 41.51 30.577C41.5884 34.0054 41.0108 41.4976 41.6214 46.2545C41.7369 47.1621 41.609 50.4544 41.7947 51.5023C41.7947 51.5064 41.7988 51.5106 41.7988 51.5147C45.908 67.2211 64.0608 65.7317 69.7212 54.0272Z" fill="url(#paint30_radial)"/>
<path d="M65.4634 36.2129L65.4593 36.2253C64.989 37.6692 64.9023 41.4071 65.3025 44.7365C65.7027 48.0659 60.9995 45.9948 57.8557 51.4861C57.8557 51.4861 59.2461 46.2919 61.511 44.5137C63.776 42.7355 61.8452 39.6001 65.4634 36.2129Z" fill="url(#paint31_linear)"/>
<path d="M69.3086 32.4834C68.273 32.6319 67.3736 33.2384 66.763 34.0388C66.1359 34.8268 65.744 35.8004 65.5418 36.7741C65.2283 38.775 65.2737 40.8667 65.4139 42.9131C65.4469 43.4246 65.4841 43.9403 65.5418 44.4519C65.5913 44.9511 65.6532 45.5906 65.3314 46.1228C65.0179 46.6591 64.4733 46.9273 63.9947 47.1418C63.5038 47.3481 63.0128 47.509 62.5342 47.6906C60.5869 48.3548 58.9862 49.7493 57.8599 51.4944C58.3426 50.5785 58.9449 49.7121 59.7082 48.9778C60.4755 48.2516 61.4121 47.7112 62.3733 47.2945C63.2934 46.8489 64.4403 46.622 64.89 45.8711C65.1128 45.4957 65.0756 45.0295 65.0137 44.5138C64.9477 43.994 64.9024 43.4741 64.8611 42.9543C64.7662 40.8709 64.7043 38.775 65.1251 36.6916C65.3933 35.656 65.8471 34.67 66.5567 33.8696C67.2664 33.0775 68.2565 32.504 69.3086 32.4834Z" fill="#975500"/>
<path opacity="0.75" d="M45.3675 46.4281C46.0772 48.0123 53.7137 51.7048 56.9441 49.6585C60.1745 47.6121 62.2951 40.5201 61.2719 39.1009C60.2488 37.6817 56.5481 39.6373 52.8969 40.9203C46.6011 43.1317 44.6579 44.8438 45.3675 46.4281Z" fill="url(#paint32_radial)"/>
<path d="M45.3674 46.4277C41.9678 46.6464 40.1773 49.7777 45.3385 57.0141C50.4254 64.1474 56.6015 61.7091 57.5793 59.5019C58.5571 57.2947 56.1271 54.2953 52.8224 53.6682C49.5137 53.0411 49.1176 46.1843 45.3674 46.4277Z" fill="url(#paint33_radial)"/>
<path d="M40.4703 44.9263C40.2558 42.8305 40.2599 34.1996 40.1403 32.3596C40.1072 31.8769 39.9959 30.796 40.0041 29.6367L39.9959 29.6284L39.9917 29.6325C40 30.7919 39.8886 31.8769 39.8556 32.3596C39.7359 34.1996 39.7401 42.8305 39.5255 44.9263C39.3481 46.6756 39.7937 49.9266 39.4678 53.4499C39.5297 52.6207 39.9587 52.5671 39.9587 52.5671C39.9587 52.5671 40.4538 52.5299 40.5239 53.4706C40.2021 49.939 40.6518 46.6797 40.4703 44.9263Z" fill="#975500"/>
<defs>
<linearGradient id="paint0_linear" x1="30.5674" y1="71.4972" x2="24.9165" y2="51.2147" gradientUnits="userSpaceOnUse">
<stop offset="0.00132565" stop-color="#FFCB4B"/>
<stop offset="1" stop-color="#FFD748"/>
</linearGradient>
<linearGradient id="paint1_linear" x1="39.4534" y1="28.2915" x2="36.2021" y2="39.2548" gradientUnits="userSpaceOnUse">
<stop offset="0.00132565" stop-color="#FFCB4B"/>
<stop offset="1" stop-color="#FFD748"/>
</linearGradient>
<linearGradient id="paint2_linear" x1="33.2755" y1="15.3116" x2="30.6128" y2="38.3964" gradientUnits="userSpaceOnUse">
<stop offset="0.00132565" stop-color="#FFCB4B"/>
<stop offset="1" stop-color="#FFD748"/>
</linearGradient>
<linearGradient id="paint3_linear" x1="17.5432" y1="19.6255" x2="18.9639" y2="37.1147" gradientUnits="userSpaceOnUse">
<stop offset="0.00132565" stop-color="#FFCB4B"/>
<stop offset="1" stop-color="#FFD748"/>
</linearGradient>
<linearGradient id="paint4_linear" x1="24.7826" y1="16.9574" x2="24.9976" y2="37.3497" gradientUnits="userSpaceOnUse">
<stop offset="0.00132565" stop-color="#FFCB4B"/>
<stop offset="1" stop-color="#FFD748"/>
</linearGradient>
<linearGradient id="paint5_linear" x1="18.2264" y1="27.2092" x2="22.0861" y2="27.5951" gradientUnits="userSpaceOnUse">
<stop stop-color="#FFBC47" stop-opacity="0"/>
<stop offset="1" stop-color="#E68E43"/>
</linearGradient>
<linearGradient id="paint6_linear" x1="21.9337" y1="27.1136" x2="29.4652" y2="27.7608" gradientUnits="userSpaceOnUse">
<stop stop-color="#FFBC47" stop-opacity="0"/>
<stop offset="1" stop-color="#E68E43"/>
</linearGradient>
<linearGradient id="paint7_linear" x1="28.0729" y1="30.5031" x2="34.8799" y2="31.3254" gradientUnits="userSpaceOnUse">
<stop offset="0.3118" stop-color="#FFBC47" stop-opacity="0"/>
<stop offset="1" stop-color="#FF8900"/>
</linearGradient>
<linearGradient id="paint8_linear" x1="37.1711" y1="35.7854" x2="32.2167" y2="34.8843" gradientUnits="userSpaceOnUse">
<stop stop-color="#FFBC47" stop-opacity="0"/>
<stop offset="1" stop-color="#E68E43"/>
</linearGradient>
<linearGradient id="paint9_linear" x1="29.5099" y1="4.55853" x2="28.922" y2="37.9539" gradientUnits="userSpaceOnUse">
<stop stop-color="#FFBC47" stop-opacity="0"/>
<stop offset="1" stop-color="#E68E43"/>
</linearGradient>
<linearGradient id="paint10_linear" x1="24.5095" y1="26.5363" x2="21.9347" y2="26.5233" gradientUnits="userSpaceOnUse">
<stop stop-color="#FFBC47" stop-opacity="0"/>
<stop offset="1" stop-color="#E68E43"/>
</linearGradient>
<linearGradient id="paint11_linear" x1="35.863" y1="34.723" x2="31.7157" y2="36.5591" gradientUnits="userSpaceOnUse">
<stop stop-color="#FFBC47" stop-opacity="0"/>
<stop offset="1" stop-color="#E68E43"/>
</linearGradient>
<linearGradient id="paint12_linear" x1="16.7248" y1="64.7816" x2="11.991" y2="47.7905" gradientUnits="userSpaceOnUse">
<stop offset="0.00132565" stop-color="#FFCB4B"/>
<stop offset="1" stop-color="#FFD748"/>
</linearGradient>
<radialGradient id="paint13_radial" cx="0" cy="0" r="1" gradientUnits="userSpaceOnUse" gradientTransform="translate(25.007 53.8062) rotate(-176.416) scale(48.7521 57.1135)">
<stop stop-color="#FFBC47" stop-opacity="0"/>
<stop offset="1" stop-color="#FF8900"/>
</radialGradient>
<linearGradient id="paint14_linear" x1="19.5155" y1="41.3604" x2="13.3448" y2="54.6716" gradientUnits="userSpaceOnUse">
<stop stop-color="#FFBC47" stop-opacity="0"/>
<stop offset="1" stop-color="#E68E43"/>
</linearGradient>
<radialGradient id="paint15_radial" cx="0" cy="0" r="1" gradientUnits="userSpaceOnUse" gradientTransform="translate(25.0896 44.5405) rotate(21.4326) scale(15.9922 4.43377)">
<stop stop-color="#FBE07A"/>
<stop offset="0.2654" stop-color="#FCDF73" stop-opacity="0.7346"/>
<stop offset="0.6548" stop-color="#FDDB5F" stop-opacity="0.3452"/>
<stop offset="1" stop-color="#FFD748" stop-opacity="0"/>
</radialGradient>
<radialGradient id="paint16_radial" cx="0" cy="0" r="1" gradientUnits="userSpaceOnUse" gradientTransform="translate(33.6549 52.6009) rotate(125.192) scale(9.09121 5.40588)">
<stop stop-color="#FBE07A"/>
<stop offset="0.2654" stop-color="#FCDF73" stop-opacity="0.7346"/>
<stop offset="0.6548" stop-color="#FDDB5F" stop-opacity="0.3452"/>
<stop offset="1" stop-color="#FFD748" stop-opacity="0"/>
</radialGradient>
<linearGradient id="paint17_linear" x1="49.4162" y1="71.4986" x2="55.067" y2="51.216" gradientUnits="userSpaceOnUse">
<stop offset="0.00132565" stop-color="#FFCB4B"/>
<stop offset="1" stop-color="#FFD748"/>
</linearGradient>
<linearGradient id="paint18_linear" x1="40.5639" y1="28.2784" x2="43.8152" y2="39.2417" gradientUnits="userSpaceOnUse">
<stop offset="0.00132565" stop-color="#FFCB4B"/>
<stop offset="1" stop-color="#FFD748"/>
</linearGradient>
<linearGradient id="paint19_linear" x1="46.7413" y1="15.2985" x2="49.404" y2="38.3834" gradientUnits="userSpaceOnUse">
<stop offset="0.00132565" stop-color="#FFCB4B"/>
<stop offset="1" stop-color="#FFD748"/>
</linearGradient>
<linearGradient id="paint20_linear" x1="62.4736" y1="19.6124" x2="61.053" y2="37.1016" gradientUnits="userSpaceOnUse">
<stop offset="0.00132565" stop-color="#FFCB4B"/>
<stop offset="1" stop-color="#FFD748"/>
</linearGradient>
<linearGradient id="paint21_linear" x1="55.2345" y1="16.9443" x2="55.0195" y2="37.3366" gradientUnits="userSpaceOnUse">
<stop offset="0.00132565" stop-color="#FFCB4B"/>
<stop offset="1" stop-color="#FFD748"/>
</linearGradient>
<linearGradient id="paint22_linear" x1="61.7904" y1="27.1962" x2="57.9308" y2="27.5821" gradientUnits="userSpaceOnUse">
<stop stop-color="#FFBC47" stop-opacity="0"/>
<stop offset="1" stop-color="#E68E43"/>
</linearGradient>
<linearGradient id="paint23_linear" x1="58.0834" y1="27.1005" x2="50.5519" y2="27.7477" gradientUnits="userSpaceOnUse">
<stop stop-color="#FFBC47" stop-opacity="0"/>
<stop offset="1" stop-color="#E68E43"/>
</linearGradient>
<linearGradient id="paint24_linear" x1="51.9105" y1="30.5042" x2="45.1035" y2="31.3265" gradientUnits="userSpaceOnUse">
<stop offset="0.3118" stop-color="#FFBC47" stop-opacity="0"/>
<stop offset="1" stop-color="#FF8900"/>
</linearGradient>
<linearGradient id="paint25_linear" x1="42.8125" y1="35.7865" x2="47.7668" y2="34.8854" gradientUnits="userSpaceOnUse">
<stop stop-color="#FFBC47" stop-opacity="0"/>
<stop offset="1" stop-color="#E68E43"/>
</linearGradient>
<linearGradient id="paint26_linear" x1="50.4736" y1="4.55962" x2="51.0615" y2="37.955" gradientUnits="userSpaceOnUse">
<stop stop-color="#FFBC47" stop-opacity="0"/>
<stop offset="1" stop-color="#E68E43"/>
</linearGradient>
<linearGradient id="paint27_linear" x1="55.5076" y1="26.5232" x2="58.0823" y2="26.5102" gradientUnits="userSpaceOnUse">
<stop stop-color="#FFBC47" stop-opacity="0"/>
<stop offset="1" stop-color="#E68E43"/>
</linearGradient>
<linearGradient id="paint28_linear" x1="44.1205" y1="34.7241" x2="48.2678" y2="36.5602" gradientUnits="userSpaceOnUse">
<stop stop-color="#FFBC47" stop-opacity="0"/>
<stop offset="1" stop-color="#E68E43"/>
</linearGradient>
<linearGradient id="paint29_linear" x1="63.2588" y1="64.7827" x2="67.9927" y2="47.7916" gradientUnits="userSpaceOnUse">
<stop offset="0.00132565" stop-color="#FFCB4B"/>
<stop offset="1" stop-color="#FFD748"/>
</linearGradient>
<radialGradient id="paint30_radial" cx="0" cy="0" r="1" gradientUnits="userSpaceOnUse" gradientTransform="translate(55.0113 53.8077) rotate(-3.58366) scale(48.7521 57.1135)">
<stop stop-color="#FFBC47" stop-opacity="0"/>
<stop offset="1" stop-color="#FF8900"/>
</radialGradient>
<linearGradient id="paint31_linear" x1="60.5015" y1="41.3615" x2="66.6722" y2="54.6727" gradientUnits="userSpaceOnUse">
<stop stop-color="#FFBC47" stop-opacity="0"/>
<stop offset="1" stop-color="#E68E43"/>
</linearGradient>
<radialGradient id="paint32_radial" cx="0" cy="0" r="1" gradientUnits="userSpaceOnUse" gradientTransform="translate(54.9039 44.5221) rotate(158.567) scale(15.9922 4.43377)">
<stop stop-color="#FBE07A"/>
<stop offset="0.2654" stop-color="#FCDF73" stop-opacity="0.7346"/>
<stop offset="0.6548" stop-color="#FDDB5F" stop-opacity="0.3452"/>
<stop offset="1" stop-color="#FFD748" stop-opacity="0"/>
</radialGradient>
<radialGradient id="paint33_radial" cx="0" cy="0" r="1" gradientUnits="userSpaceOnUse" gradientTransform="translate(46.3616 52.6118) rotate(54.8078) scale(9.09121 5.40588)">
<stop stop-color="#FBE07A"/>
<stop offset="0.2654" stop-color="#FCDF73" stop-opacity="0.7346"/>
<stop offset="0.6548" stop-color="#FDDB5F" stop-opacity="0.3452"/>
<stop offset="1" stop-color="#FFD748" stop-opacity="0"/>
</radialGradient>
</defs>
</svg>
