<svg width="80" height="80" viewBox="0 0 80 80" fill="none" xmlns="http://www.w3.org/2000/svg">
<path d="M6.02194 21.9808C6.02194 23.901 10.105 27.0256 14.5492 27.0256C18.9933 27.0256 22.7153 26.5464 23.677 26.5464C24.6387 26.5464 28.2393 30.0288 37.7282 29.1885C37.7282 29.1885 39.2298 33.2109 40.249 34.2333C41.2714 35.2557 39.9199 36.2461 37.6356 36.2461C35.3544 36.2461 28.6291 35.7668 24.546 33.8435C20.4629 31.9234 16.1083 29.5496 12.9868 29.5496C9.86542 29.5496 9.6226 32.1917 9.6226 32.9138C9.6226 33.6358 11.4245 38.0768 23.7952 43.3611C36.1659 48.6455 37.8464 53.4794 43.0126 53.4794C48.1788 53.4794 52.0797 53.2078 54.0031 54.6519C55.9232 56.0928 60.984 60.2078 62.1086 61.7382C63.1884 63.2078 74 59.5656 74 50.5976C74 48.7956 72.2588 48.3452 68.476 44.5624C64.6932 40.7796 55.9871 30.2429 52.2011 24.5655C48.7794 19.4313 44.6356 17 40.9423 17C35.8975 17 31.3639 19.4633 27.4023 19.4633C23.4406 19.4633 12.5108 19.3419 9.02835 19.3419C5.5459 19.3419 6.02194 20.7796 6.02194 21.9808Z" fill="url(#paint0_linear)"/>
<path d="M34.645 49.3645C34.6354 49.2144 34.5939 49.0546 34.4884 48.8853C32.3255 45.4029 33.8878 37.8374 40.0028 35.9588L39.7408 35.8789C39.2233 36.1057 38.498 36.2463 37.6418 36.2463C35.3606 36.2463 28.6354 35.7671 24.5523 33.8437C20.4692 31.9204 16.1145 29.5498 12.9931 29.5498C9.87171 29.5498 9.62891 32.192 9.62891 32.914C9.62891 33.6361 11.4308 38.077 23.8015 43.3613C28.9101 45.5434 32.1817 47.6457 34.645 49.3645Z" fill="url(#paint1_linear)"/>
<path d="M40.2522 34.2338C39.233 33.2146 37.7314 29.189 37.7314 29.189C28.2427 30.0293 24.6421 26.5469 23.6805 26.5469C23.5495 26.5469 23.361 26.5565 23.1373 26.5724C22.8466 29.5181 23.853 32.6555 24.5527 33.844C28.6357 35.7641 35.3608 36.2465 37.642 36.2465C39.9199 36.2433 41.2713 35.2529 40.2522 34.2338Z" fill="url(#paint2_linear)"/>
<path d="M40.2522 34.2338C39.233 33.2146 37.7314 29.189 37.7314 29.189C28.2425 30.0293 24.6418 26.5469 23.6802 26.5469C23.5492 26.5469 23.3607 26.5565 23.137 26.5724C23.1051 26.9111 23.0923 27.2529 23.0891 27.5916C23.6099 27.4414 23.9517 27.4191 24.1019 27.5692C24.3255 27.7929 27.7505 31.2625 32.0285 31.4862C36.3065 31.7098 36.9838 31.3967 36.8017 33.0612C36.693 34.0804 36.9518 35.3775 37.1691 36.237C37.3416 36.2402 37.5014 36.2433 37.6419 36.2433C39.9199 36.2433 41.2714 35.2529 40.2522 34.2338Z" fill="url(#paint3_linear)"/>
<path d="M40.2521 34.2332C39.2329 33.214 37.7314 29.1885 37.7314 29.1885C37.217 29.2332 36.7282 29.262 36.2457 29.2843C34.0605 31.7252 33.1403 34.0958 33.1946 35.9489C35.086 36.1661 36.7218 36.246 37.6387 36.246C39.9198 36.2428 41.2713 35.2524 40.2521 34.2332Z" fill="url(#paint4_linear)"/>
<path d="M42.4725 28.7091C41.3926 25.8273 40.1306 25.2874 37.6098 25.2874C35.0891 25.2874 32.2041 25.8273 27.5204 24.4759C22.8366 23.1245 18.6929 24.1149 15.6289 24.1149C13.3606 24.1149 7.581 25.4663 6.03467 22.0957C6.18163 24.0254 10.188 27.0286 14.5491 27.0286C18.9932 27.0286 22.7152 26.5494 23.6769 26.5494C24.6386 26.5494 28.2424 30.0318 37.7281 29.1916C37.7281 29.1916 39.2297 33.2139 40.2488 34.2363C41.0028 34.9903 40.4565 35.7251 39.2041 36.0606C39.2073 36.0606 39.2137 36.0606 39.2169 36.0606C44.3447 35.6548 43.5556 31.5909 42.4725 28.7091Z" fill="url(#paint5_linear)"/>
<path d="M57.8753 52.847C54.0926 49.5147 47.7859 50.5051 43.9137 50.5051C40.0415 50.5051 38.1501 48.0738 35.6262 46.4508C33.1022 44.8278 22.2939 40.3262 18.2428 37.8949C15.2876 36.1217 10.0991 34.1057 10.4281 30.585C9.72846 31.4092 9.62622 32.4891 9.62622 32.9108C9.62622 33.6329 11.4281 38.0738 23.7987 43.3582C36.1693 48.6425 37.8498 53.4764 43.0159 53.4764C48.182 53.4764 52.083 53.2048 54.0063 54.6489C55.9264 56.0898 60.9871 60.2048 62.1117 61.7352C62.6165 62.4221 65.2299 61.9812 67.8816 60.4253C64.7091 59.4221 61.0702 55.6617 57.8753 52.847Z" fill="url(#paint6_linear)"/>
<path d="M37.6101 27.0864C28.6038 27.2653 26.6197 24.9235 24.099 24.9235C23.1086 24.9235 20.9457 25.374 17.4345 25.374C14.9745 25.374 10.5368 25.5433 7.31958 24.1982C8.86589 25.6711 11.6263 27.0257 14.5527 27.0257C18.9968 27.0257 22.7188 26.5465 23.6805 26.5465C24.6421 26.5465 28.2459 30.0289 37.7315 29.1887C37.7315 29.1887 39.2331 33.211 40.2522 34.2334C41.0062 34.9874 40.4599 35.7222 39.2075 36.0577C39.2107 36.0577 39.2171 36.0577 39.2203 36.0577C40.8433 35.9299 41.8688 35.4379 42.4822 34.7286C40.4918 31.4155 43.2107 26.9746 37.6101 27.0864Z" fill="url(#paint7_linear)"/>
<path d="M22.2871 26.6359L23.2775 26.5368C23.6002 26.4698 23.9676 26.5113 24.268 26.6646C24.8814 26.933 25.4724 27.2238 26.0859 27.4698C27.3127 27.9522 28.5683 28.3452 29.8591 28.5848C32.4374 29.0736 35.0859 29.0864 37.6994 28.8595C37.8495 28.8468 37.9869 28.9394 38.038 29.0736C38.3863 29.9682 38.7633 30.8627 39.1754 31.7318C39.6099 32.5976 39.9805 33.457 40.6323 34.1503C40.8144 34.3771 40.9805 34.7158 40.9167 35.0864C40.8528 35.4538 40.6131 35.7094 40.3863 35.8851C39.9135 36.2174 39.3991 36.3644 38.8943 36.457C37.8655 36.6296 36.8815 36.5305 35.907 36.4858C33.9549 36.342 32.0156 36.0673 30.0987 35.6775C28.1881 35.2749 26.2967 34.703 24.5523 33.8372C26.351 34.588 28.2616 34.981 30.169 35.2973C32.0795 35.6136 34.0124 35.7893 35.9422 35.8819C36.907 35.9171 37.8815 35.9906 38.7793 35.8244C39.6483 35.6903 40.677 35.1184 40.1019 34.5752C39.4118 33.8436 38.9582 32.9011 38.546 32.0257C38.1371 31.1279 37.7665 30.227 37.4246 29.3036L37.7633 29.5177C35.0987 29.719 32.383 29.6742 29.7664 29.0448C28.4629 28.7381 27.1785 28.3196 25.9772 27.7254C25.3766 27.4314 24.7983 27.0991 24.2168 26.7924C23.9261 26.6231 23.6258 26.5688 23.2839 26.6071L22.2871 26.6359Z" fill="#975500"/>
<path d="M40.2522 34.2338C39.233 33.2146 37.7314 29.189 37.7314 29.189C28.2427 30.0293 24.6421 26.5469 23.6805 26.5469C23.5495 26.5469 23.361 26.5565 23.1373 26.5724C22.8466 29.5181 23.853 32.6555 24.5527 33.844C28.6357 35.7641 35.3608 36.2465 37.642 36.2465C39.9199 36.2433 41.2713 35.2529 40.2522 34.2338Z" fill="url(#paint8_linear)"/>
<path opacity="0.5" d="M48.185 27.0005C50.9933 27.4318 54.3064 35.86 52.3927 40.8632C50.8272 44.9559 46.6355 48.531 44.0988 47.4C41.562 46.269 39.5301 44.7865 43.4119 36.5309C45.6994 31.665 45.4406 26.5756 48.185 27.0005Z" fill="url(#paint9_radial)"/>
<path opacity="0.5" d="M29.3799 21.4858C29.1658 20.3868 34.8463 17.7446 38.9613 17.5976C42.3255 17.4762 45.8048 18.4028 45.4437 19.521C45.0795 20.6392 44.3607 21.636 37.4342 21.6136C33.3479 21.6041 29.5876 22.5593 29.3799 21.4858Z" fill="url(#paint10_radial)"/>
<path d="M62.1085 61.7343C62.412 62.1496 63.4983 62.1464 64.8912 61.7375C60.3673 59.5937 55.7762 53.2614 52.9584 52.8461C49.6932 52.3668 41.3322 54.287 36.1661 49.6033C31.0032 44.9195 19.9521 39.9962 14.5495 36.993C11.5208 35.3093 10.2301 33.6671 9.74124 32.0186C9.65498 32.3892 9.62622 32.7214 9.62622 32.9099C9.62622 33.632 11.4281 38.0729 23.7987 43.3572C36.1693 48.6416 37.8498 53.4755 43.0159 53.4755C48.182 53.4755 52.083 53.2039 54.0063 54.648C55.9232 56.0889 60.9839 60.2039 62.1085 61.7343Z" fill="url(#paint11_linear)"/>
<defs>
<linearGradient id="paint0_linear" x1="39.0228" y1="88.2077" x2="40.0853" y2="31.3646" gradientUnits="userSpaceOnUse">
<stop offset="0.00132565" stop-color="#D2A374"/>
<stop offset="1" stop-color="#DEBA94"/>
</linearGradient>
<linearGradient id="paint1_linear" x1="9.62566" y1="39.457" x2="40" y2="39.457" gradientUnits="userSpaceOnUse">
<stop offset="0.00132565" stop-color="#D2A374"/>
<stop offset="1" stop-color="#DEBA94"/>
</linearGradient>
<linearGradient id="paint2_linear" x1="32.6584" y1="24.4264" x2="29.5959" y2="48.9267" gradientUnits="userSpaceOnUse">
<stop offset="0.00132565" stop-color="#D2A374"/>
<stop offset="1" stop-color="#DEBA94"/>
</linearGradient>
<linearGradient id="paint3_linear" x1="19.2085" y1="47.9149" x2="33.4929" y2="28.672" gradientUnits="userSpaceOnUse">
<stop stop-color="#D2A374" stop-opacity="0"/>
<stop offset="1" stop-color="#B88653"/>
</linearGradient>
<linearGradient id="paint4_linear" x1="24.0552" y1="51.5121" x2="38.3398" y2="32.2694" gradientUnits="userSpaceOnUse">
<stop stop-color="#D2A374" stop-opacity="0"/>
<stop offset="1" stop-color="#B88653"/>
</linearGradient>
<linearGradient id="paint5_linear" x1="27.6117" y1="0.593492" x2="22.7716" y2="44.3915" gradientUnits="userSpaceOnUse">
<stop stop-color="#D2A374" stop-opacity="0"/>
<stop offset="1" stop-color="#B88653"/>
</linearGradient>
<linearGradient id="paint6_linear" x1="42.9819" y1="26.3671" x2="22.7946" y2="122.345" gradientUnits="userSpaceOnUse">
<stop stop-color="#D2A374" stop-opacity="0"/>
<stop offset="1" stop-color="#B88653"/>
</linearGradient>
<linearGradient id="paint7_linear" x1="27.4774" y1="7.5021" x2="24.7621" y2="30.6406" gradientUnits="userSpaceOnUse">
<stop stop-color="#D2A374" stop-opacity="0"/>
<stop offset="1" stop-color="#B88653"/>
</linearGradient>
<linearGradient id="paint8_linear" x1="31.2574" y1="51.7122" x2="32.1428" y2="20.546" gradientUnits="userSpaceOnUse">
<stop stop-color="#D2A374" stop-opacity="0"/>
<stop offset="1" stop-color="#B88653"/>
</linearGradient>
<radialGradient id="paint9_radial" cx="0" cy="0" r="1" gradientUnits="userSpaceOnUse" gradientTransform="translate(47.7558 37.8892) rotate(-64.7799) scale(10.6169 5.39227)">
<stop stop-color="#E9CDB1"/>
<stop offset="1" stop-color="#E9CDB1" stop-opacity="0"/>
</radialGradient>
<radialGradient id="paint10_radial" cx="0" cy="0" r="1" gradientUnits="userSpaceOnUse" gradientTransform="translate(37.6176 19.7962) rotate(-179.821) scale(8.05959 2.17538)">
<stop stop-color="#E9CDB1"/>
<stop offset="1" stop-color="#E9CDB1" stop-opacity="0"/>
</radialGradient>
<linearGradient id="paint11_linear" x1="21.3876" y1="72.6891" x2="46.8874" y2="31.3702" gradientUnits="userSpaceOnUse">
<stop stop-color="#D2A374" stop-opacity="0"/>
<stop offset="1" stop-color="#B88653"/>
</linearGradient>
</defs>
</svg>
