<svg width="80" height="80" viewBox="0 0 80 80" fill="none" xmlns="http://www.w3.org/2000/svg">
<path d="M40.2496 34.9629C40.2815 36.2968 40.0447 37.7992 39.5621 37.8357C39.084 37.8721 38.6924 36.7203 38.6105 35.5866C38.5285 34.453 31.5166 39.6522 31.0932 39.8571C30.7744 40.0119 27.4233 40.4899 24.9554 41.5644C24.1313 41.924 22.5832 43.8089 22.3738 43.8225C21.5451 43.8817 21.026 43.3536 20.7392 41.232C20.4523 39.1104 14.3055 44.9607 14.8792 47.2189C15.8627 51.0842 14.8883 62.2247 21.4312 67.8656C28.9987 74.3942 42.8176 72.5458 47.8171 66.7547C52.8165 60.9636 53.0123 57.2987 57.315 52.5365C60.9576 48.5073 65.6383 49.1219 67.414 47.0686C68.9075 45.3386 66.6992 42.7026 65.8569 41.9787C64.3634 40.6902 58.8768 39.2971 54.5239 44.3415C52.8301 46.3038 50.7402 47.5968 48.7277 45.8622C46.7197 44.1276 46.8563 39.4382 47.3526 36.1193" fill="url(#paint0_linear)"/>
<path d="M20.7392 41.2318C20.4523 39.1102 20.2201 33.5695 19.6418 30.4645C19.0636 27.3596 17.4107 25.9664 14.8699 26.6448C12.3246 27.3277 13.0941 33.0459 13.1989 34.4345C13.3537 36.5652 14.3099 44.9559 14.8836 47.2141" fill="url(#paint1_linear)"/>
<path d="M31.0932 39.8579C30.6698 40.0628 29.5224 39.4664 29.404 35.7695C29.3129 32.9468 29.3448 25.0706 28.8303 21.0368C28.3158 17.0077 27.264 14.6357 24.8417 14.4172C22.4195 14.2032 21.3358 17.1716 21.395 20.4905C21.4679 24.588 21.8094 28.9996 22.1372 33.2336C22.3922 36.5435 23.1981 43.7641 22.3694 43.8233" fill="url(#paint2_linear)"/>
<path d="M47.3572 36.1241C47.8581 32.8051 48.2633 21.0955 48.6003 17.9678C48.9372 14.84 47.1159 13.2648 45.0898 13.0644C43.0636 12.8641 41.1559 14.3164 40.7415 20.5355C40.4774 24.46 40.0813 27.9337 40.2498 34.9631L44.6572 38.2639L47.3572 36.1241Z" fill="url(#paint3_linear)"/>
<path d="M38.6106 35.5868C38.5287 34.4577 38.6516 23.4537 38.6106 21.0407C38.5423 16.5199 40.3819 8.55255 34.8314 8.01988C31.9127 7.74216 31.2889 10.4465 31.1614 11.6348C31.0339 12.823 31.0612 26.2991 31.1478 27.5147C31.2388 28.7349 31.5166 39.6478 31.0931 39.8572" fill="url(#paint4_linear)"/>
<path d="M30.8519 39.89C30.5514 39.8399 30.1417 39.5076 29.8367 38.6152C29.9687 39.3846 30.2783 39.8946 30.8519 39.89Z" fill="url(#paint5_linear)"/>
<path d="M65.6521 43.0263C67.3004 44.0006 67.4097 44.383 67.3824 43.9004C66.9088 43.04 66.244 42.3115 65.8616 41.9792C64.3681 40.6908 58.8814 39.2976 54.5285 44.3421C52.8347 46.3043 50.7448 47.5973 48.7323 45.8627C47.94 45.1798 47.4847 44.037 47.2479 42.6985C47.4027 49.646 53.3447 48.353 55.9446 46.195C58.54 44.0416 60.8166 40.1672 65.6521 43.0263Z" fill="url(#paint6_linear)"/>
<path d="M44.3293 13.0732C42.6037 13.3054 41.1057 15.1038 40.7415 20.5352C40.4774 24.4597 40.0812 27.9334 40.2497 34.9628C40.2816 36.2968 40.0448 37.7992 39.5622 37.8356C43.6874 34.2617 41.3379 25.2291 42.1074 20.5124C42.7175 16.7746 43.66 15.0764 44.3293 13.0732Z" fill="url(#paint7_linear)"/>
<path d="M31.1476 27.5183C31.2387 28.7384 31.5165 39.6514 31.093 39.8608C33.0737 40.0429 33.4152 37.9577 33.1557 34.4294C32.6229 27.1905 31.7168 17.3065 33.2559 11.1284C33.4016 10.5457 33.2786 9.91738 32.8779 9.46666C31.8352 8.30116 31.2615 10.7278 31.1613 11.6383C31.0293 12.8266 31.0611 26.2982 31.1476 27.5183Z" fill="url(#paint8_linear)"/>
<path d="M21.3994 20.4943C21.4722 24.5918 21.8137 29.0034 22.1416 33.2375C22.3966 36.5473 23.2025 43.768 22.3738 43.8272C26.6858 43.8818 21.6407 26.2581 23.2799 14.8125C21.9549 15.7139 21.3584 18.0085 21.3994 20.4943Z" fill="url(#paint9_linear)"/>
<path d="M21.4996 43.8046C21.8183 43.9139 22.0368 43.9139 22.178 43.8274C21.4631 43.7864 21.0032 43.1809 20.7392 41.2368C20.4523 39.1153 20.2201 33.5746 19.6418 30.4696C19.3869 29.1038 18.927 28.0703 18.2713 27.3965C18.7357 28.9034 18.071 28.7259 18.8314 32.4C19.2411 34.3622 19.4324 43.0807 21.4996 43.8046Z" fill="url(#paint10_linear)"/>
<path d="M28.2293 30.0505C28.1473 33.4605 28.4979 39.5202 30.7244 39.848C30.2145 39.6431 29.4996 38.6415 29.404 35.7687C29.3129 32.946 29.3448 25.0698 28.8303 21.0361C28.4114 17.7717 27.6465 15.5955 26.0803 14.7715C28.803 19.3015 28.3067 26.8271 28.2293 30.0505Z" fill="url(#paint11_linear)"/>
<path d="M37.4221 22.9886C37.5814 28.0968 36.5934 37.0931 39.4164 37.8078C39.0066 37.6257 38.6879 36.6014 38.6105 35.5907C38.5285 34.4616 38.6515 23.4576 38.6105 21.0446C38.5604 17.9123 39.4301 13.1274 38.1233 10.3047C38.8154 13.874 37.29 18.8502 37.4221 22.9886Z" fill="url(#paint12_linear)"/>
<path d="M47.248 42.7033C46.8882 40.65 47.0567 38.1369 47.3618 36.1246C47.8627 32.8057 48.2679 21.096 48.6048 17.9683C48.7096 17.0122 48.6094 16.2064 48.3681 15.5371C48.2178 16.9849 47.4574 18.5874 47.5029 21.4193C47.5712 25.9629 45.8455 42.9446 47.248 42.7033Z" fill="url(#paint13_linear)"/>
<path d="M35.0636 71.9679C35.997 69.1634 35.8422 66.837 33.0283 66.4682C25.347 65.4666 20.6526 59.5161 18.5172 47.7109C16.6139 37.1804 16.5001 30.7291 14.5695 26.7637C12.3885 27.8017 13.0989 33.1057 13.199 34.4396C13.3538 36.5703 14.31 44.961 14.8837 47.2192C15.8672 51.0845 14.8928 62.225 21.4358 67.8659C25.0829 71.0209 30.1916 72.2183 35.0636 71.9679Z" fill="url(#paint14_linear)"/>
<path opacity="0.24" d="M57.3151 52.5404C60.9576 48.5112 65.6383 49.1258 67.4141 47.0725C67.9377 46.467 68.006 45.7522 67.8375 45.0466C67.0043 47.1181 64.4773 47.414 60.4522 48.1561C56.0902 48.9574 52.1199 52.6178 50.0573 57.9308C47.9992 63.2439 41.3378 67.2776 36.862 66.5128C32.3862 65.7479 21.7454 70.1777 18.1529 51.7027C18.1529 51.6981 18.1529 51.6936 18.1484 51.689C18.0118 50.4643 17.8205 49.3216 17.5018 48.3063C15.3026 41.2951 14.8792 36.3372 14.7562 32.3672C14.7289 31.5886 15.0977 28.989 13.3402 28.4336C12.7255 30.4368 13.1171 33.4735 13.1899 34.4387C13.3447 36.5694 14.2964 44.9601 14.8746 47.2182C14.9475 47.5142 15.0112 47.8511 15.0704 48.2244C15.0841 48.32 15.0977 48.4201 15.1114 48.5203C15.1159 48.5476 15.1205 48.5749 15.1205 48.5977C15.1296 48.6614 15.1387 48.7297 15.1478 48.7935C15.1478 48.8071 15.1524 48.8253 15.1524 48.839C15.4711 51.4432 15.5895 55.395 16.5775 59.2648V59.2693C16.664 59.6108 16.7596 59.9477 16.8598 60.2846C16.8598 60.2892 16.8644 60.2937 16.8644 60.2983C16.9645 60.6306 17.0738 60.963 17.1876 61.2953C17.1876 61.2999 17.1876 61.2999 17.1922 61.3044C18.0573 63.7675 19.3686 66.0894 21.4267 67.8604C28.9941 74.389 42.8131 72.5406 47.8125 66.7495C52.8119 60.9584 53.0123 57.3026 57.3151 52.5404Z" fill="url(#paint15_radial)"/>
<path opacity="0.08" d="M52.425 53.0014C53.5951 54.4082 49.6611 60.3495 46.6742 62.8353C43.6873 65.3211 40.318 66.1907 39.1432 64.7839C37.9731 63.3771 40.6276 59.8442 42.9497 56.7301C46.952 51.3442 51.2502 51.5901 52.425 53.0014Z" fill="url(#paint16_radial)"/>
<path opacity="0.08" d="M19.1499 51.6621C17.8523 53.2237 21.7999 62.2291 25.6975 64.4963C29.5951 66.7636 34.4807 66.067 35.4323 64.2641C36.3839 62.4613 32.3316 59.6613 29.0168 56.5563C23.2979 51.2069 20.4476 50.1005 19.1499 51.6621Z" fill="url(#paint17_radial)"/>
<defs>
<linearGradient id="paint0_linear" x1="22.8763" y1="75.8116" x2="39.6114" y2="49.0327" gradientUnits="userSpaceOnUse">
<stop offset="0.00132565" stop-color="#5A4539"/>
<stop offset="1" stop-color="#695042"/>
</linearGradient>
<linearGradient id="paint1_linear" x1="0.200732" y1="61.6409" x2="16.9356" y2="34.8616" gradientUnits="userSpaceOnUse">
<stop offset="0.00132565" stop-color="#5A4539"/>
<stop offset="1" stop-color="#695042"/>
</linearGradient>
<linearGradient id="paint2_linear" x1="250.908" y1="-231.978" x2="226.698" y2="-203.92" gradientUnits="userSpaceOnUse">
<stop offset="0.00132565" stop-color="#5A4539"/>
<stop offset="1" stop-color="#695042"/>
</linearGradient>
<linearGradient id="paint3_linear" x1="260.023" y1="-224.115" x2="235.814" y2="-196.057" gradientUnits="userSpaceOnUse">
<stop offset="0.00132565" stop-color="#5A4539"/>
<stop offset="1" stop-color="#695042"/>
</linearGradient>
<linearGradient id="paint4_linear" x1="253.156" y1="-230.046" x2="228.947" y2="-201.987" gradientUnits="userSpaceOnUse">
<stop offset="0.00132565" stop-color="#5A4539"/>
<stop offset="1" stop-color="#695042"/>
</linearGradient>
<linearGradient id="paint5_linear" x1="35.7091" y1="39.6877" x2="20.6262" y2="38.4684" gradientUnits="userSpaceOnUse">
<stop stop-color="#FFBC47" stop-opacity="0"/>
<stop offset="1" stop-color="#FFA754"/>
</linearGradient>
<linearGradient id="paint6_linear" x1="67.1801" y1="39.2686" x2="46.2857" y2="48.0161" gradientUnits="userSpaceOnUse">
<stop offset="0.3072" stop-color="#473226" stop-opacity="0"/>
<stop offset="1" stop-color="#473226"/>
</linearGradient>
<linearGradient id="paint7_linear" x1="41.9474" y1="3.59948" x2="41.9474" y2="45.6982" gradientUnits="userSpaceOnUse">
<stop offset="0.3072" stop-color="#473226" stop-opacity="0"/>
<stop offset="1" stop-color="#473226"/>
</linearGradient>
<linearGradient id="paint8_linear" x1="32.1934" y1="3.59868" x2="32.1934" y2="45.6974" gradientUnits="userSpaceOnUse">
<stop offset="0.3072" stop-color="#473226" stop-opacity="0"/>
<stop offset="1" stop-color="#473226"/>
</linearGradient>
<linearGradient id="paint9_linear" x1="22.782" y1="3.59959" x2="22.782" y2="45.6983" gradientUnits="userSpaceOnUse">
<stop offset="0.3072" stop-color="#473226" stop-opacity="0"/>
<stop offset="1" stop-color="#473226"/>
</linearGradient>
<linearGradient id="paint10_linear" x1="20.2248" y1="3.59976" x2="20.2248" y2="45.6985" gradientUnits="userSpaceOnUse">
<stop offset="0.3072" stop-color="#473226" stop-opacity="0"/>
<stop offset="1" stop-color="#473226"/>
</linearGradient>
<linearGradient id="paint11_linear" x1="28.4058" y1="3.59956" x2="28.4058" y2="45.6982" gradientUnits="userSpaceOnUse">
<stop offset="0.3072" stop-color="#473226" stop-opacity="0"/>
<stop offset="1" stop-color="#473226"/>
</linearGradient>
<linearGradient id="paint12_linear" x1="38.3977" y1="3.59899" x2="38.3977" y2="45.6977" gradientUnits="userSpaceOnUse">
<stop offset="0.3072" stop-color="#473226" stop-opacity="0"/>
<stop offset="1" stop-color="#473226"/>
</linearGradient>
<linearGradient id="paint13_linear" x1="47.6698" y1="3.60031" x2="47.6698" y2="45.699" gradientUnits="userSpaceOnUse">
<stop offset="0.3072" stop-color="#473226" stop-opacity="0"/>
<stop offset="1" stop-color="#473226"/>
</linearGradient>
<linearGradient id="paint14_linear" x1="22.0529" y1="50.404" x2="2.83218" y2="57.6395" gradientUnits="userSpaceOnUse">
<stop offset="0.3118" stop-color="#F0C492" stop-opacity="0"/>
<stop offset="1" stop-color="#F0C492"/>
</linearGradient>
<radialGradient id="paint15_radial" cx="0" cy="0" r="1" gradientUnits="userSpaceOnUse" gradientTransform="translate(37.439 54.5351) scale(24.7826 38.087)">
<stop offset="0.00132565" stop-color="#473226"/>
<stop offset="1" stop-color="#3D2A20"/>
</radialGradient>
<radialGradient id="paint16_radial" cx="0" cy="0" r="1" gradientUnits="userSpaceOnUse" gradientTransform="translate(45.7137 58.6949) rotate(-39.7638) scale(8.81917 4.0933)">
<stop stop-color="#F8DBBA"/>
<stop offset="1" stop-color="#CD9870" stop-opacity="0"/>
</radialGradient>
<radialGradient id="paint17_radial" cx="0" cy="0" r="1" gradientUnits="userSpaceOnUse" gradientTransform="translate(26.8468 59.4258) rotate(-138.97) scale(11.3491 5.17865)">
<stop stop-color="#F8DBBA"/>
<stop offset="1" stop-color="#CD9870" stop-opacity="0"/>
</radialGradient>
</defs>
</svg>
