<svg width="80" height="80" viewBox="0 0 80 80" fill="none" xmlns="http://www.w3.org/2000/svg">
<path d="M35.1682 6.44908C35.1811 6.31998 35.1294 6.19518 35.0348 6.10911C34.9401 6.02305 34.8067 5.98432 34.6819 6.00584L32.853 6.31998C32.7325 6.3415 32.6292 6.41035 32.569 6.51363C32.5087 6.61691 32.4958 6.7417 32.5303 6.85789C33.9934 11.811 34.9487 14.0831 34.953 14.0573C35.2026 11.7722 35.1682 6.49211 35.1682 6.44908Z" fill="#975500"/>
<path d="M23.9753 13.076C23.9323 12.9684 23.8462 12.8867 23.7386 12.8436C23.6311 12.8049 23.5106 12.8092 23.4073 12.8609L21.7462 13.6914C21.6128 13.7602 21.5268 13.8936 21.5181 14.0399C21.5095 14.1906 21.5999 14.3067 21.7118 14.41C24.9005 17.4051 25.4169 18.7907 25.4513 18.7821C25.6364 18.7348 25.5761 16.9705 23.9753 13.076Z" fill="#975500"/>
<path d="M44.829 6.44908C44.8161 6.31998 44.8677 6.19518 44.9624 6.10911C45.0571 6.02305 45.1905 5.98432 45.3153 6.00584L47.1441 6.31998C47.2646 6.3415 47.3679 6.41035 47.4282 6.51363C47.4884 6.61691 47.5013 6.7417 47.4669 6.85789C46.0038 11.811 45.0485 14.0831 45.0441 14.0573C44.7989 11.7722 44.8333 6.49211 44.829 6.44908Z" fill="#975500"/>
<path d="M56.026 13.076C56.069 12.9684 56.1551 12.8867 56.2627 12.8436C56.3703 12.8049 56.4908 12.8092 56.594 12.8609L58.2551 13.6914C58.3885 13.7602 58.4746 13.8936 58.4832 14.0399C58.4918 14.1906 58.4014 14.3067 58.2895 14.41C55.1008 17.4051 54.5844 18.7907 54.55 18.7821C54.365 18.7348 54.4209 16.9705 56.026 13.076Z" fill="#975500"/>
<path d="M53.5991 58.7505C55.712 60.6956 55.2774 69.9476 55.0924 72.2197C54.86 75.0685 69.1899 74.1002 68.9274 72.0906C68.7423 70.6662 69.1985 59.7919 69.1985 59.2712" fill="url(#paint0_linear)"/>
<path d="M53.4829 58.6387C53.5259 58.6731 53.5733 58.7075 53.6163 58.7419L54.6018 58.5225C55.1956 59.0302 55.6948 59.6069 55.9702 60.3126C56.8567 60.7903 57.812 60.8807 58.5177 61.2335C61.4655 62.7138 55.6647 61.4315 55.8153 63.5444C56.3188 66.363 55.5614 72.2112 55.088 72.2112C55.2731 69.9433 55.7077 60.687 53.5948 58.7419C53.5604 58.7118 53.5216 58.6774 53.4829 58.6387Z" fill="url(#paint1_radial)"/>
<path d="M68.9274 72.0865C69.0092 72.7277 67.6063 73.2613 65.6655 73.6012C66.9436 72.0004 66.7887 62.8818 66.3411 61.793C65.9668 60.8851 66.7327 59.1465 67.7053 57.8599L69.1985 59.267C69.1985 59.7877 68.7381 70.6621 68.9274 72.0865Z" fill="url(#paint2_linear)"/>
<path d="M67.9203 60.4936C68.3593 60.2742 68.7767 60.0159 69.1812 59.7319C69.108 61.9051 68.7552 70.8086 68.923 72.0866C68.966 72.4008 68.6261 72.6934 68.0236 72.9473C67.8214 71.0065 68.7121 65.1196 68.4023 64.2934C67.5588 62.0643 65.9709 62.0901 66.3109 61.2123C66.767 61.1391 67.3695 60.8981 67.9203 60.4936Z" fill="url(#paint3_radial)"/>
<path d="M68.9274 72.0865C68.7423 70.6621 69.1985 59.7878 69.1985 59.2671C66.4013 62.9421 59.1245 61.8749 55.6604 60.145C55.1741 59.8997 54.7739 59.7534 54.434 59.6716C55.5786 61.2337 55.2473 70.3179 55.0924 72.2199C54.8557 75.0687 69.1899 74.0961 68.9274 72.0865Z" fill="url(#paint4_linear)"/>
<path d="M40.8312 43.0737C40.2115 41.2406 44.1834 38.8307 47.7422 42.2217C48.1554 42.6477 48.5599 43.134 48.9515 43.6891C49.9025 45.049 51.1935 46.1592 52.4801 45.0489C53.7668 43.9387 53.7711 39.9453 53.5517 37.8109L58.1346 37.2729C58.0744 38.125 58.0486 39.8807 58.3541 39.9023C58.6596 39.9238 58.9092 39.1879 58.9652 38.4607C59.0168 37.7377 63.5094 41.0641 63.7805 41.1975C63.9828 41.2965 65.2996 40.7715 66.8832 41.46C67.4125 41.6881 69.2328 43.7278 69.3662 43.7364C69.3662 43.7364 69.2414 40.9393 69.3274 39.5666C69.4135 38.1981 74.1299 43.2201 73.876 44.6918C73.4414 47.2092 74.16 55.5188 69.9686 59.1336C65.1231 63.3163 56.2713 62.1329 53.0697 58.4235C49.8681 54.7141 49.1666 51.5684 46.7396 48.2506C44.674 45.4535 41.7349 44.5627 40.8312 43.0737Z" fill="url(#paint5_linear)"/>
<path d="M69.3188 39.5801C69.4049 38.2117 69.4049 34.5109 69.633 32.5012C69.8611 30.4916 70.8508 29.5234 72.5076 29.8418C74.1643 30.1603 73.9363 33.8481 73.9363 34.7432C73.9363 36.1117 74.1213 43.2379 73.8674 44.7096" fill="url(#paint6_linear)"/>
<path d="M63.772 41.2064C64.4949 41.2796 64.3529 40.0187 64.4261 37.6519C64.482 35.8445 64.5164 30.913 64.6283 28.3095C64.7703 25.0864 65.39 24.2214 66.9435 24.0837C68.4927 23.946 69.1898 25.848 69.1511 27.9739C69.1209 29.7683 68.9488 32.5956 68.6777 36.1329C68.5142 38.2501 68.8283 43.7066 69.3576 43.7453" fill="url(#paint7_linear)"/>
<path d="M53.5474 37.8156C53.3237 35.6769 53.4054 28.1719 53.2806 26.1623C53.1558 24.1484 54.365 23.1974 55.6689 23.1285C56.9728 23.0597 57.9238 23.9806 58.0099 27.974C58.0659 30.4914 58.3499 32.7893 58.1304 37.2863L55.088 40.191L53.5474 37.8156Z" fill="url(#paint8_linear)"/>
<path d="M58.961 38.4697C59.0126 37.7468 58.9352 30.698 58.961 29.1531C59.0126 25.9171 58.479 21.0931 61.3837 20.8134C63.2513 20.6327 63.6515 22.3669 63.7333 23.1286C63.8194 23.8902 63.6429 32.5183 63.5827 33.3015C63.5267 34.0804 63.5052 41.0732 63.7763 41.2066" fill="url(#paint9_linear)"/>
<path d="M57.231 23.9157C57.6958 24.6516 57.9669 25.977 58.0099 27.9694C58.0659 30.4868 58.3198 32.7848 58.1304 37.2817C58.096 38.1337 58.0443 39.8895 58.3499 39.911C56.6673 38.7835 57.5409 32.178 57.5839 29.1184C57.6269 25.8651 56.8825 23.3606 57.231 23.9157Z" fill="url(#paint10_radial)"/>
<path d="M63.5827 33.3016C63.5268 34.0805 63.5052 41.0733 63.7764 41.2067C63.7764 41.2067 62.679 39.9803 62.8425 37.7167C63.1825 33.0821 63.3159 28.1334 63.0362 25.5084C62.7737 23.034 63.2255 21.5666 63.4063 21.9367C63.5913 22.3067 63.6989 22.8404 63.729 23.133C63.8151 23.8947 63.6386 32.5227 63.5827 33.3016Z" fill="url(#paint11_radial)"/>
<path d="M69.1511 27.9697C69.121 29.7641 68.9488 32.5914 68.6777 36.1287C68.5142 38.2459 68.8283 43.7024 69.3576 43.7411C66.5949 43.7756 69.4394 26.9928 67.9462 24.3291C68.7982 24.91 69.1812 26.3775 69.1511 27.9697Z" fill="url(#paint12_radial)"/>
<path d="M69.9213 43.7324C69.719 43.8056 69.4522 43.8013 69.3619 43.7453C69.3619 43.7453 69.2457 40.832 69.3231 39.5754C69.4092 38.207 69.4092 34.5062 69.6373 32.4966C69.7363 31.6144 69.9815 30.9302 70.3688 30.4697C70.1408 31.4509 70.5582 31.3089 70.244 33.6929C70.0719 34.9666 71.2424 43.2677 69.9213 43.7324Z" fill="url(#paint13_linear)"/>
<path d="M65.02 34.0805C64.8522 36.2623 65.4374 40.9872 64.0131 41.1981C64.3401 41.0647 64.3745 39.4897 64.4305 37.6479C64.4864 35.8405 64.4993 30.9047 64.6327 28.3055C64.7747 25.5471 65.1018 24.7983 66.1044 24.269C64.3616 27.1737 65.4288 28.7272 65.02 34.0805Z" fill="url(#paint14_radial)"/>
<path d="M59.7227 30.4009C59.6194 33.6714 60.2563 39.4335 58.4446 39.8896C58.7071 39.7734 58.9136 39.115 58.961 38.4695C59.0126 37.7466 58.9352 30.6978 58.961 29.153C58.9911 27.1476 58.7415 23.9675 59.5806 22.1602C59.1331 24.4452 59.8044 27.7501 59.7227 30.4009Z" fill="url(#paint15_linear)"/>
<path d="M53.4269 43.0265C53.655 41.7097 53.6808 39.1062 53.5474 37.8152C53.3237 35.6765 53.4054 28.1716 53.2806 26.162C53.2419 25.5466 53.328 25.0345 53.5044 24.6128C53.556 25.5466 53.9993 26.5923 53.8874 28.3997C53.711 31.3044 54.1413 35.9433 54.2876 37.5355C54.4339 39.1277 55.0923 43.1513 53.4269 43.0265Z" fill="url(#paint16_radial)"/>
<path d="M61.2287 61.7714C60.6306 59.9769 60.7295 58.4837 62.5326 58.2513C67.4512 57.6101 71.3414 53.8491 72.7098 46.2882C73.9277 39.545 73.8072 33.4774 72.7012 29.9014C74.1428 30.4651 73.932 33.8862 73.932 34.7425C73.932 36.111 74.117 43.2372 73.8631 44.7089C73.4285 47.2263 74.1471 55.5359 69.9557 59.1507C67.6234 61.1646 64.3486 61.9306 61.2287 61.7714Z" fill="url(#paint17_linear)"/>
<path d="M73.5448 38.6418C73.5361 38.6159 73.5318 38.603 73.5318 38.603C72.0558 48.7889 71.0661 54.4132 65.8032 60.6142C65.063 61.4878 66.638 61.4405 67.9204 60.4938C68.6519 60.128 69.3405 59.6847 69.9601 59.1468C74.1472 55.5321 73.4329 47.2225 73.8675 44.7051C74.0009 43.9262 73.4587 40.4362 73.5448 38.6418Z" fill="url(#paint18_radial)"/>
<path opacity="0.16" d="M50.1134 49.6238C49.3646 50.5275 51.882 54.3316 53.797 55.9195C55.7077 57.5117 57.8679 58.0711 58.621 57.1674C59.3697 56.2638 57.6699 54.0045 56.1853 52.0078C53.6206 48.5609 50.8622 48.7201 50.1134 49.6238Z" fill="url(#paint19_radial)"/>
<path opacity="0.16" d="M71.4232 48.7673C72.2537 49.77 69.7234 55.5363 67.2275 56.9908C64.7316 58.4453 61.6031 57.9978 60.9921 56.8445C60.381 55.6912 62.9759 53.8968 65.1017 51.9087C68.7681 48.4747 70.5927 47.7646 71.4232 48.7673Z" fill="url(#paint20_radial)"/>
<path d="M69.3576 43.7453C69.3576 43.7453 69.2414 40.832 69.3189 39.5754C69.4049 38.207 69.4049 34.5062 69.633 32.4966C69.732 31.6144 69.9773 30.9302 70.3646 30.4697C70.1365 31.4509 69.775 33.3529 69.8266 37.3205C70.0117 44.2961 69.448 43.8013 69.3576 43.7453Z" fill="url(#paint21_radial)"/>
<path d="M40.8313 43.0739C40.728 42.7641 40.7624 42.437 40.9001 42.1229C41.3606 43.3881 42.7333 44.5887 45.0227 45.26C47.7466 46.0561 50.3114 49.3782 51.6282 52.7778C52.945 56.1817 57.2138 58.7637 60.0798 58.2731C62.9458 57.7825 69.7622 60.6184 72.0601 48.7844C72.0601 48.7801 72.0601 48.7801 72.0601 48.7758C72.1462 47.9926 72.271 47.2567 72.4732 46.6112C73.8804 42.1229 72.9423 36.0252 72.839 33.482C72.8175 32.9828 72.4646 31.3389 73.562 30.9043C74.0439 32.1565 73.9363 34.1145 73.9363 34.7342C73.9363 36.1026 74.1214 43.2289 73.8675 44.7006C73.8331 44.8942 73.8244 45.4795 73.8029 45.7161C73.7986 45.7807 73.79 45.8409 73.7857 45.9098C73.7857 45.927 73.7814 45.9442 73.7814 45.9614C73.7771 46.0045 73.7771 46.0432 73.7728 46.0862C73.7728 46.0948 73.7728 46.1077 73.7728 46.1164C73.6652 47.7903 73.889 55.6266 69.9644 59.1423C65.1921 63.4112 56.2671 62.1417 53.0655 58.4323C49.8638 54.7229 49.1624 51.5772 46.7354 48.2594C44.6741 45.4536 41.735 44.5629 40.8313 43.0739Z" fill="url(#paint22_radial)"/>
<path d="M47.7423 42.2265C48.1555 42.6525 48.56 43.1387 48.9516 43.6939C49.9026 45.0537 51.1936 46.1639 52.4802 45.0537C52.988 44.6148 53.2806 43.8832 53.4313 43.0269C53.3323 47.4764 51.0386 46.5943 49.5282 45.0494C48.0134 43.5045 46.843 40.858 43.5122 40.8365C42.9098 40.8322 42.3245 40.9613 41.8899 41.0603C43.2282 40.247 45.5606 40.1437 47.7423 42.2265Z" fill="url(#paint23_radial)"/>
<path d="M53.0612 58.4324C49.8595 54.723 49.1581 51.5773 46.7311 48.2595C44.6741 45.4538 41.735 44.5587 40.8313 43.0741C40.728 42.7642 40.7624 42.4372 40.9001 42.123C41.3606 43.3882 43.1421 43.7927 45.0227 45.2601C47.7466 47.3817 50.3114 50.3595 51.6282 53.7634C52.945 57.1673 57.2138 58.7681 60.0798 58.2775L53.0612 58.4324Z" fill="url(#paint24_linear)"/>
<path d="M26.4024 58.7505C24.2895 60.6956 24.7242 69.9476 24.9092 72.2197C25.1416 75.0685 10.8117 74.1002 11.0742 72.0906C11.2592 70.6662 10.8031 59.7919 10.8031 59.2712" fill="url(#paint25_linear)"/>
<path d="M26.5186 58.6387C26.4756 58.6731 26.4283 58.7075 26.3852 58.7419L25.3998 58.5225C24.8059 59.0302 24.3068 59.6069 24.0313 60.3169C23.1449 60.7946 22.1895 60.885 21.4838 61.2378C18.5361 62.7182 24.3369 61.4358 24.1863 63.5487C23.6828 66.3673 24.4402 72.2155 24.9135 72.2155C24.7285 69.9476 24.2938 60.6913 26.4067 58.7462C26.4412 58.7118 26.4799 58.6774 26.5186 58.6387Z" fill="url(#paint26_radial)"/>
<path d="M11.0743 72.0865C10.9926 72.7277 12.3954 73.2613 14.3362 73.6012C13.0581 72.0004 13.2131 62.8818 13.6606 61.793C14.035 60.8851 13.269 59.1465 12.2965 57.8599L10.8032 59.267C10.8032 59.7877 11.2637 70.6621 11.0743 72.0865Z" fill="url(#paint27_linear)"/>
<path d="M12.081 60.4936C11.6421 60.2742 11.2247 60.0159 10.8202 59.7319C10.8933 61.9051 11.2462 70.8086 11.0784 72.0866C11.0354 72.4008 11.3753 72.6934 11.9778 72.9473C12.18 71.0065 11.2892 65.1196 11.5991 64.2934C12.4425 62.0643 14.0304 62.0901 13.6905 61.2123C13.2343 61.1391 12.6319 60.8981 12.081 60.4936Z" fill="url(#paint28_radial)"/>
<path d="M11.0741 72.0865C11.2591 70.6621 10.803 59.7878 10.803 59.2671C13.6001 62.9421 20.8769 61.8749 24.3411 60.145C24.8273 59.8997 25.2275 59.7534 25.5675 59.6716C24.4228 61.2337 24.7542 70.3179 24.9091 72.2199C25.1458 75.0687 10.8116 74.0961 11.0741 72.0865Z" fill="url(#paint29_linear)"/>
<path d="M39.1702 43.0781C39.7898 41.2449 35.8179 38.8351 32.2591 42.2261C31.846 42.6521 31.4415 43.1384 31.0499 43.6935C30.0989 45.0533 28.8079 46.1636 27.5212 45.0533C26.2345 43.9431 26.2302 39.9497 26.4497 37.8153L21.8667 37.2773C21.927 38.1294 21.9528 39.8851 21.6473 39.9066C21.3417 39.9281 21.0921 39.1923 21.0362 38.465C20.9846 37.7421 16.4919 41.0685 16.2208 41.2019C16.0186 41.3009 14.7018 40.7759 13.1182 41.4644C12.5889 41.6925 10.7686 43.7322 10.6352 43.7408C10.6352 43.7408 10.76 40.9437 10.6739 39.571C10.5879 38.2025 5.87148 43.2245 6.12537 44.6962C6.56 47.2136 5.84136 55.5232 10.0327 59.1379C14.8782 63.3207 23.73 62.1373 26.9317 58.4279C30.1333 54.7185 30.8347 51.5728 33.2618 48.255C35.3274 45.4535 38.2665 44.5628 39.1702 43.0781Z" fill="url(#paint30_linear)"/>
<path d="M10.6825 39.5801C10.5964 38.2117 10.5964 34.5109 10.3684 32.5012C10.1403 30.4916 9.15054 29.5234 7.49378 29.8418C5.83702 30.1603 6.06509 33.8481 6.06509 34.7432C6.06509 36.1117 5.88005 43.2379 6.13394 44.7096" fill="url(#paint31_linear)"/>
<path d="M16.2294 41.2064C15.5065 41.2796 15.6485 40.0187 15.5753 37.6519C15.5194 35.8445 15.485 30.913 15.3731 28.3095C15.2311 25.0864 14.6114 24.2214 13.0579 24.0837C11.5045 23.946 10.8116 25.848 10.8504 27.9739C10.8805 29.7683 11.0526 32.5956 11.3237 36.1329C11.4872 38.2501 11.1731 43.7066 10.6438 43.7453" fill="url(#paint32_linear)"/>
<path d="M26.454 37.8156C26.6777 35.6769 26.596 28.1719 26.7208 26.1623C26.8456 24.1484 25.6364 23.1974 24.3325 23.1285C23.0286 23.0597 22.0776 23.9806 21.9915 27.974C21.9355 30.4914 21.6515 32.7893 21.871 37.2863L24.9134 40.191L26.454 37.8156Z" fill="url(#paint33_linear)"/>
<path d="M21.0405 38.4697C20.9888 37.7468 21.0663 30.698 21.0405 29.1531C20.9888 25.9171 21.5224 21.0931 18.6177 20.8134C16.7501 20.6327 16.3499 22.3669 16.2681 23.1286C16.1864 23.8902 16.3585 32.5183 16.4187 33.3015C16.4747 34.0804 16.4962 41.0732 16.2251 41.2066" fill="url(#paint34_linear)"/>
<path d="M22.7705 23.9157C22.3057 24.6516 22.0346 25.977 21.9916 27.9694C21.9356 30.4868 21.6817 32.7848 21.8711 37.2817C21.9055 38.1337 21.9571 39.8895 21.6516 39.911C23.3342 38.7835 22.4606 32.178 22.4176 29.1184C22.3746 25.8651 23.119 23.3606 22.7705 23.9157Z" fill="url(#paint35_radial)"/>
<path d="M16.4187 33.3016C16.4747 34.0805 16.4962 41.0733 16.2251 41.2067C16.2251 41.2067 17.3224 39.9803 17.1589 37.7167C16.8189 33.0821 16.6855 28.1334 16.9653 25.5084C17.2278 23.034 16.7759 21.5666 16.5952 21.9367C16.4101 22.3067 16.3026 22.8404 16.2724 23.133C16.1864 23.8947 16.3628 32.5227 16.4187 33.3016Z" fill="url(#paint36_radial)"/>
<path d="M10.8504 27.9697C10.8805 29.7641 11.0526 32.5914 11.3237 36.1287C11.4872 38.2459 11.1731 43.7024 10.6438 43.7411C13.4065 43.7756 10.562 26.9928 12.0553 24.3291C11.2032 24.91 10.8202 26.3775 10.8504 27.9697Z" fill="url(#paint37_radial)"/>
<path d="M10.0801 43.7324C10.2823 43.8056 10.5492 43.8013 10.6395 43.7453C10.6395 43.7453 10.7557 40.832 10.6782 39.5754C10.5922 38.207 10.5922 34.5062 10.3641 32.4966C10.2651 31.6144 10.0198 30.9302 9.63255 30.4697C9.86063 31.4509 9.44321 31.3089 9.75735 33.6929C9.92948 34.9666 8.75899 43.2677 10.0801 43.7324Z" fill="url(#paint38_linear)"/>
<path d="M14.9815 34.0805C15.1493 36.2623 14.5641 40.9872 15.9928 41.1981C15.6657 41.0647 15.6313 39.4897 15.5753 37.6479C15.5194 35.8405 15.5065 30.9047 15.3731 28.3055C15.2311 25.5471 14.904 24.7983 13.9014 24.269C15.6399 27.1737 14.5727 28.7272 14.9815 34.0805Z" fill="url(#paint39_radial)"/>
<path d="M20.2788 30.4009C20.3821 33.6714 19.7452 39.4335 21.5569 39.8896C21.2944 39.7734 21.0878 39.115 21.0405 38.4695C20.9888 37.7466 21.0663 30.6978 21.0405 29.153C21.0103 27.1476 21.2599 23.9675 20.4208 22.1602C20.8683 24.4452 20.197 27.7501 20.2788 30.4009Z" fill="url(#paint40_linear)"/>
<path d="M26.5701 43.0265C26.5744 43.0265 26.5744 43.0265 26.5701 43.0265C26.342 41.7097 26.3162 39.1062 26.4496 37.8152C26.6734 35.6765 26.5916 28.1716 26.7164 26.162C26.7551 25.5466 26.6691 25.0345 26.4926 24.6128C26.441 25.5466 25.9978 26.5923 26.1096 28.3997C26.2861 31.3044 25.8558 35.9433 25.7094 37.5355C25.5674 39.1277 24.909 43.1513 26.5701 43.0265Z" fill="url(#paint41_radial)"/>
<path d="M18.7726 61.7714C19.3708 59.9769 19.2718 58.4837 17.4687 58.2513C12.5501 57.6101 8.65993 53.8491 7.29149 46.2882C6.07367 39.545 6.19416 33.4774 7.3001 29.9014C5.8585 30.4651 6.06936 33.8862 6.06936 34.7425C6.06936 36.111 5.88432 43.2372 6.13822 44.7089C6.57285 47.2263 5.8542 55.5359 10.0456 59.1507C12.378 61.1646 15.6527 61.9306 18.7726 61.7714Z" fill="url(#paint42_linear)"/>
<path d="M6.45665 38.6418C6.46526 38.6159 6.46956 38.603 6.46956 38.603C7.94558 48.7889 8.93533 54.4132 14.1982 60.6142C14.9384 61.4878 13.3634 61.4405 12.081 60.4938C11.3495 60.128 10.6609 59.6847 10.0413 59.1468C5.85419 55.5321 6.56853 47.2225 6.1339 44.7051C6.0005 43.9262 6.54272 40.4362 6.45665 38.6418Z" fill="url(#paint43_radial)"/>
<path opacity="0.16" d="M29.888 49.6238C30.6368 50.5275 28.1194 54.3316 26.2044 55.9195C24.2894 57.5074 22.1335 58.0711 21.3804 57.1674C20.6317 56.2638 22.3315 54.0045 23.8161 52.0078C26.3808 48.5609 29.1392 48.7201 29.888 49.6238Z" fill="url(#paint44_radial)"/>
<path opacity="0.16" d="M8.57826 48.7673C7.74773 49.77 10.278 55.5363 12.7739 56.9908C15.2698 58.4453 18.3983 57.9978 19.0094 56.8445C19.6204 55.6912 17.0256 53.8968 14.8998 51.9087C11.2334 48.4747 9.40879 47.7646 8.57826 48.7673Z" fill="url(#paint45_radial)"/>
<path d="M10.6438 43.7453C10.6438 43.7453 10.76 40.832 10.6825 39.5754C10.5965 38.207 10.5965 34.5062 10.3684 32.4966C10.2694 31.6144 10.0241 30.9302 9.63684 30.4697C9.86491 31.4509 10.2264 33.3529 10.1747 37.3205C9.98971 44.2961 10.5491 43.8013 10.6438 43.7453Z" fill="url(#paint46_radial)"/>
<path d="M39.1701 43.0783C39.2734 42.7685 39.239 42.4414 39.1013 42.1273C38.6408 43.3925 37.2681 44.5931 34.9788 45.2644C32.2548 46.0605 29.69 49.3826 28.3732 52.7822C27.0564 56.1861 22.7876 58.7681 19.9216 58.2775C17.0556 57.7869 10.2393 60.6228 7.94132 48.7888C7.94132 48.7845 7.94132 48.7845 7.94132 48.7802C7.85525 47.997 7.73046 47.2611 7.5282 46.6156C6.12103 42.1273 7.05915 36.0296 7.16243 33.4864C7.18394 32.9872 7.53681 31.3433 6.43948 30.9087C5.95751 32.1609 6.06509 34.1189 6.06509 34.7386C6.06509 36.107 5.88005 43.2332 6.13394 44.705C6.16837 44.8986 6.17698 45.4839 6.19849 45.7205C6.2028 45.7851 6.2114 45.8453 6.21571 45.9142C6.21571 45.9314 6.22001 45.9486 6.22001 45.9658C6.22431 46.0089 6.22431 46.0476 6.22862 46.0906C6.22862 46.0992 6.22862 46.1121 6.22862 46.1208C6.3362 47.7947 6.11243 55.631 10.037 59.1467C14.8093 63.4156 23.7343 62.1461 26.9359 58.4367C30.1376 54.7273 30.839 51.5816 33.2661 48.2638C35.3273 45.4537 38.2664 44.563 39.1701 43.0783Z" fill="url(#paint47_radial)"/>
<path d="M32.2591 42.2265C31.846 42.6525 31.4415 43.1387 31.0499 43.6939C30.0989 45.0537 28.8079 46.1639 27.5212 45.0537C27.0134 44.6148 26.7208 43.8832 26.5702 43.0269C26.6692 47.4764 28.9628 46.5943 30.4733 45.0494C31.988 43.5045 33.1585 40.858 36.4892 40.8365C37.0917 40.8322 37.6769 40.9613 38.1116 41.0603C36.7732 40.247 34.4409 40.1437 32.2591 42.2265Z" fill="url(#paint48_radial)"/>
<path d="M26.9401 58.4324C30.1418 54.723 30.8432 51.5773 33.2702 48.2595C35.3272 45.4538 38.2663 44.5587 39.17 43.0741C39.2733 42.7642 39.2389 42.4372 39.1012 42.123C38.6407 43.3882 36.8592 43.7927 34.9786 45.2601C32.2547 47.3817 29.6899 50.3595 28.3731 53.7634C27.0563 57.1673 22.7875 58.7681 19.9215 58.2775L26.9401 58.4324Z" fill="url(#paint49_linear)"/>
<defs>
<linearGradient id="paint0_linear" x1="61.4312" y1="59.8311" x2="61.6821" y2="66.0829" gradientUnits="userSpaceOnUse">
<stop offset="0.00132565" stop-color="#BE8D68"/>
<stop offset="1" stop-color="#CD9870"/>
</linearGradient>
<radialGradient id="paint1_radial" cx="0" cy="0" r="1" gradientUnits="userSpaceOnUse" gradientTransform="translate(55.3078 69.5154) rotate(180) scale(5.26802 17.3355)">
<stop stop-color="#B37E53" stop-opacity="0"/>
<stop offset="1" stop-color="#B37E53"/>
</radialGradient>
<linearGradient id="paint2_linear" x1="61.2865" y1="65.9574" x2="79.3491" y2="65.1985" gradientUnits="userSpaceOnUse">
<stop offset="0.3118" stop-color="#B37E53" stop-opacity="0"/>
<stop offset="1" stop-color="#B37E53"/>
</linearGradient>
<radialGradient id="paint3_radial" cx="0" cy="0" r="1" gradientUnits="userSpaceOnUse" gradientTransform="translate(68.0286 70.7914) rotate(180) scale(4.78445 16.8872)">
<stop stop-color="#B37E53" stop-opacity="0"/>
<stop offset="1" stop-color="#B37E53"/>
</radialGradient>
<linearGradient id="paint4_linear" x1="62.6058" y1="66.3179" x2="77.4139" y2="76.1132" gradientUnits="userSpaceOnUse">
<stop offset="0.3118" stop-color="#F0C492" stop-opacity="0"/>
<stop offset="1" stop-color="#E6AF74"/>
</linearGradient>
<linearGradient id="paint5_linear" x1="65.1187" y1="65.9611" x2="59.6017" y2="50.1602" gradientUnits="userSpaceOnUse">
<stop offset="0.00132565" stop-color="#BE8D68"/>
<stop offset="1" stop-color="#CD9870"/>
</linearGradient>
<linearGradient id="paint6_linear" x1="73.2808" y1="31.7986" x2="71.2932" y2="40.5172" gradientUnits="userSpaceOnUse">
<stop offset="0.00132565" stop-color="#BE8D68"/>
<stop offset="1" stop-color="#CD9870"/>
</linearGradient>
<linearGradient id="paint7_linear" x1="67.5878" y1="22.2995" x2="66.7135" y2="39.5338" gradientUnits="userSpaceOnUse">
<stop offset="0.00132565" stop-color="#BE8D68"/>
<stop offset="1" stop-color="#CD9870"/>
</linearGradient>
<linearGradient id="paint8_linear" x1="54.8778" y1="26.2385" x2="56.7557" y2="39.0808" gradientUnits="userSpaceOnUse">
<stop offset="0.00132565" stop-color="#BE8D68"/>
<stop offset="1" stop-color="#CD9870"/>
</linearGradient>
<linearGradient id="paint9_linear" x1="60.8187" y1="23.7885" x2="61.9489" y2="38.8904" gradientUnits="userSpaceOnUse">
<stop offset="0.00132565" stop-color="#BE8D68"/>
<stop offset="1" stop-color="#CD9870"/>
</linearGradient>
<radialGradient id="paint10_radial" cx="0" cy="0" r="1" gradientUnits="userSpaceOnUse" gradientTransform="translate(-1208.16 -971.006) rotate(139.209) scale(34.611)">
<stop stop-color="#B37E53" stop-opacity="0"/>
<stop offset="1" stop-color="#B37E53"/>
</radialGradient>
<radialGradient id="paint11_radial" cx="0" cy="0" r="1" gradientUnits="userSpaceOnUse" gradientTransform="translate(-1208.15 -971.006) rotate(139.209) scale(34.6109)">
<stop stop-color="#B37E53" stop-opacity="0"/>
<stop offset="1" stop-color="#B37E53"/>
</radialGradient>
<radialGradient id="paint12_radial" cx="0" cy="0" r="1" gradientUnits="userSpaceOnUse" gradientTransform="translate(81.0097 20.5112) rotate(180) scale(34.611)">
<stop stop-color="#B37E53" stop-opacity="0"/>
<stop offset="1" stop-color="#B37E53"/>
</radialGradient>
<linearGradient id="paint13_linear" x1="69.9255" y1="26.5449" x2="69.9255" y2="69.6557" gradientUnits="userSpaceOnUse">
<stop stop-color="#D2A374" stop-opacity="0"/>
<stop offset="1" stop-color="#B88653"/>
</linearGradient>
<radialGradient id="paint14_radial" cx="0" cy="0" r="1" gradientUnits="userSpaceOnUse" gradientTransform="translate(81.0097 20.5114) rotate(180) scale(34.6109)">
<stop stop-color="#B37E53" stop-opacity="0"/>
<stop offset="1" stop-color="#B37E53"/>
</radialGradient>
<linearGradient id="paint15_linear" x1="-804.965" y1="-970.218" x2="-777.172" y2="-938.01" gradientUnits="userSpaceOnUse">
<stop stop-color="#D2A374" stop-opacity="0"/>
<stop offset="1" stop-color="#B88653"/>
</linearGradient>
<radialGradient id="paint16_radial" cx="0" cy="0" r="1" gradientUnits="userSpaceOnUse" gradientTransform="translate(63.8072 27.999) rotate(180) scale(34.611)">
<stop stop-color="#B37E53" stop-opacity="0"/>
<stop offset="1" stop-color="#B37E53"/>
</radialGradient>
<linearGradient id="paint17_linear" x1="68.1816" y1="46.8656" x2="92.7204" y2="68.6723" gradientUnits="userSpaceOnUse">
<stop stop-color="#D2A374" stop-opacity="0"/>
<stop offset="1" stop-color="#B88653"/>
</linearGradient>
<radialGradient id="paint18_radial" cx="0" cy="0" r="1" gradientUnits="userSpaceOnUse" gradientTransform="translate(69.8079 54.3516) rotate(-166.964) scale(14.1103 35.8092)">
<stop offset="0.6147" stop-color="#B37E53" stop-opacity="0"/>
<stop offset="1" stop-color="#B37E53"/>
</radialGradient>
<radialGradient id="paint19_radial" cx="0" cy="0" r="1" gradientUnits="userSpaceOnUse" gradientTransform="translate(54.4316 53.293) rotate(-140.236) scale(5.64799 2.62146)">
<stop stop-color="#F8DBBA"/>
<stop offset="1" stop-color="#CD9870" stop-opacity="0"/>
</radialGradient>
<radialGradient id="paint20_radial" cx="0" cy="0" r="1" gradientUnits="userSpaceOnUse" gradientTransform="translate(66.4832 53.7415) rotate(-41.0309) scale(7.26853 3.31639)">
<stop stop-color="#F8DBBA"/>
<stop offset="1" stop-color="#CD9870" stop-opacity="0"/>
</radialGradient>
<radialGradient id="paint21_radial" cx="0" cy="0" r="1" gradientUnits="userSpaceOnUse" gradientTransform="translate(81.0096 20.5111) rotate(180) scale(34.6108 34.6109)">
<stop stop-color="#B37E53" stop-opacity="0"/>
<stop offset="1" stop-color="#B37E53"/>
</radialGradient>
<radialGradient id="paint22_radial" cx="0" cy="0" r="1" gradientUnits="userSpaceOnUse" gradientTransform="translate(61.4834 51.2162) rotate(180) scale(27.5765 61.6445)">
<stop stop-color="#B37E53" stop-opacity="0"/>
<stop offset="1" stop-color="#B37E53"/>
</radialGradient>
<radialGradient id="paint23_radial" cx="0" cy="0" r="1" gradientUnits="userSpaceOnUse" gradientTransform="translate(47.6585 43.4144) rotate(180) scale(16.6459)">
<stop stop-color="#B37E53" stop-opacity="0"/>
<stop offset="1" stop-color="#B37E53"/>
</radialGradient>
<linearGradient id="paint24_linear" x1="53.4468" y1="49.6847" x2="28.91" y2="53.9636" gradientUnits="userSpaceOnUse">
<stop stop-color="#C86F34" stop-opacity="0"/>
<stop offset="1" stop-color="#C86F34"/>
</linearGradient>
<linearGradient id="paint25_linear" x1="18.5709" y1="59.8311" x2="18.3199" y2="66.0829" gradientUnits="userSpaceOnUse">
<stop offset="0.00132565" stop-color="#BE8D68"/>
<stop offset="1" stop-color="#CD9870"/>
</linearGradient>
<radialGradient id="paint26_radial" cx="0" cy="0" r="1" gradientUnits="userSpaceOnUse" gradientTransform="translate(24.6936 69.5154) scale(5.26802 17.3355)">
<stop stop-color="#B37E53" stop-opacity="0"/>
<stop offset="1" stop-color="#B37E53"/>
</radialGradient>
<linearGradient id="paint27_linear" x1="18.7151" y1="65.9574" x2="0.652514" y2="65.1985" gradientUnits="userSpaceOnUse">
<stop offset="0.3118" stop-color="#B37E53" stop-opacity="0"/>
<stop offset="1" stop-color="#B37E53"/>
</linearGradient>
<radialGradient id="paint28_radial" cx="0" cy="0" r="1" gradientUnits="userSpaceOnUse" gradientTransform="translate(11.9727 70.7915) scale(4.78445 16.8872)">
<stop stop-color="#B37E53" stop-opacity="0"/>
<stop offset="1" stop-color="#B37E53"/>
</radialGradient>
<linearGradient id="paint29_linear" x1="17.3961" y1="66.318" x2="2.58801" y2="76.1133" gradientUnits="userSpaceOnUse">
<stop offset="0.3118" stop-color="#F0C492" stop-opacity="0"/>
<stop offset="1" stop-color="#E6AF74"/>
</linearGradient>
<linearGradient id="paint30_linear" x1="14.8826" y1="65.9613" x2="20.3995" y2="50.1603" gradientUnits="userSpaceOnUse">
<stop offset="0.00132565" stop-color="#BE8D68"/>
<stop offset="1" stop-color="#CD9870"/>
</linearGradient>
<linearGradient id="paint31_linear" x1="6.7178" y1="31.7968" x2="8.70544" y2="40.5154" gradientUnits="userSpaceOnUse">
<stop offset="0.00132565" stop-color="#BE8D68"/>
<stop offset="1" stop-color="#CD9870"/>
</linearGradient>
<linearGradient id="paint32_linear" x1="12.4109" y1="22.2977" x2="13.2851" y2="39.5319" gradientUnits="userSpaceOnUse">
<stop offset="0.00132565" stop-color="#BE8D68"/>
<stop offset="1" stop-color="#CD9870"/>
</linearGradient>
<linearGradient id="paint33_linear" x1="25.1209" y1="26.2367" x2="23.2429" y2="39.0789" gradientUnits="userSpaceOnUse">
<stop offset="0.00132565" stop-color="#BE8D68"/>
<stop offset="1" stop-color="#CD9870"/>
</linearGradient>
<linearGradient id="paint34_linear" x1="19.18" y1="23.7867" x2="18.0498" y2="38.8885" gradientUnits="userSpaceOnUse">
<stop offset="0.00132565" stop-color="#BE8D68"/>
<stop offset="1" stop-color="#CD9870"/>
</linearGradient>
<radialGradient id="paint35_radial" cx="0" cy="0" r="1" gradientUnits="userSpaceOnUse" gradientTransform="translate(1288.15 -971.008) rotate(40.7908) scale(34.611)">
<stop stop-color="#B37E53" stop-opacity="0"/>
<stop offset="1" stop-color="#B37E53"/>
</radialGradient>
<radialGradient id="paint36_radial" cx="0" cy="0" r="1" gradientUnits="userSpaceOnUse" gradientTransform="translate(1288.15 -971.008) rotate(40.7909) scale(34.611)">
<stop stop-color="#B37E53" stop-opacity="0"/>
<stop offset="1" stop-color="#B37E53"/>
</radialGradient>
<radialGradient id="paint37_radial" cx="0" cy="0" r="1" gradientUnits="userSpaceOnUse" gradientTransform="translate(-1.00833 20.5112) scale(34.6109)">
<stop stop-color="#B37E53" stop-opacity="0"/>
<stop offset="1" stop-color="#B37E53"/>
</radialGradient>
<linearGradient id="paint38_linear" x1="10.0757" y1="26.5449" x2="10.0757" y2="69.6558" gradientUnits="userSpaceOnUse">
<stop stop-color="#D2A374" stop-opacity="0"/>
<stop offset="1" stop-color="#B88653"/>
</linearGradient>
<radialGradient id="paint39_radial" cx="0" cy="0" r="1" gradientUnits="userSpaceOnUse" gradientTransform="translate(-1.00833 20.5114) scale(34.6109)">
<stop stop-color="#B37E53" stop-opacity="0"/>
<stop offset="1" stop-color="#B37E53"/>
</radialGradient>
<linearGradient id="paint40_linear" x1="884.962" y1="-970.22" x2="857.17" y2="-938.012" gradientUnits="userSpaceOnUse">
<stop stop-color="#D2A374" stop-opacity="0"/>
<stop offset="1" stop-color="#B88653"/>
</linearGradient>
<radialGradient id="paint41_radial" cx="0" cy="0" r="1" gradientUnits="userSpaceOnUse" gradientTransform="translate(16.194 27.999) scale(34.6109)">
<stop stop-color="#B37E53" stop-opacity="0"/>
<stop offset="1" stop-color="#B37E53"/>
</radialGradient>
<linearGradient id="paint42_linear" x1="11.8196" y1="46.8657" x2="-12.7192" y2="68.6723" gradientUnits="userSpaceOnUse">
<stop stop-color="#D2A374" stop-opacity="0"/>
<stop offset="1" stop-color="#B88653"/>
</linearGradient>
<radialGradient id="paint43_radial" cx="0" cy="0" r="1" gradientUnits="userSpaceOnUse" gradientTransform="translate(10.1593 54.37) rotate(-13.0362) scale(14.1103 35.8092)">
<stop offset="0.6147" stop-color="#B37E53" stop-opacity="0"/>
<stop offset="1" stop-color="#B37E53"/>
</radialGradient>
<radialGradient id="paint44_radial" cx="0" cy="0" r="1" gradientUnits="userSpaceOnUse" gradientTransform="translate(25.6026 53.2714) rotate(-39.7642) scale(5.64799 2.62146)">
<stop stop-color="#F8DBBA"/>
<stop offset="1" stop-color="#CD9870" stop-opacity="0"/>
</radialGradient>
<radialGradient id="paint45_radial" cx="0" cy="0" r="1" gradientUnits="userSpaceOnUse" gradientTransform="translate(13.5075 53.7422) rotate(-138.969) scale(7.26853 3.31639)">
<stop stop-color="#F8DBBA"/>
<stop offset="1" stop-color="#CD9870" stop-opacity="0"/>
</radialGradient>
<radialGradient id="paint46_radial" cx="0" cy="0" r="1" gradientUnits="userSpaceOnUse" gradientTransform="translate(-1.00833 20.5111) scale(34.611)">
<stop stop-color="#B37E53" stop-opacity="0"/>
<stop offset="1" stop-color="#B37E53"/>
</radialGradient>
<radialGradient id="paint47_radial" cx="0" cy="0" r="1" gradientUnits="userSpaceOnUse" gradientTransform="translate(18.5179 51.2163) scale(27.5765 61.6445)">
<stop stop-color="#B37E53" stop-opacity="0"/>
<stop offset="1" stop-color="#B37E53"/>
</radialGradient>
<radialGradient id="paint48_radial" cx="0" cy="0" r="1" gradientUnits="userSpaceOnUse" gradientTransform="translate(32.3428 43.4145) scale(16.6459)">
<stop stop-color="#B37E53" stop-opacity="0"/>
<stop offset="1" stop-color="#B37E53"/>
</radialGradient>
<linearGradient id="paint49_linear" x1="26.5544" y1="49.6847" x2="51.0912" y2="53.9636" gradientUnits="userSpaceOnUse">
<stop stop-color="#C86F34" stop-opacity="0"/>
<stop offset="1" stop-color="#C86F34"/>
</linearGradient>
</defs>
</svg>
