<svg width="80" height="80" viewBox="0 0 80 80" fill="none" xmlns="http://www.w3.org/2000/svg">
<path d="M40.6671 34.9629C40.6352 36.2968 40.872 37.7992 41.3545 37.8356C41.8326 37.8721 42.2241 36.7202 42.3061 35.5866C42.388 34.4575 49.3992 39.6522 49.8226 39.8571C50.1413 40.0118 53.4921 40.4899 55.9597 41.5643C56.7837 41.924 58.3316 43.8088 58.541 43.8225C59.3696 43.8816 59.8886 43.3535 60.1754 41.232C60.4623 39.1104 66.6084 44.9606 66.0348 47.2188C65.0514 51.084 66.0257 62.2245 59.4834 67.8653C51.9168 74.3939 38.0994 72.5455 33.1005 66.7545C28.1016 60.9634 27.9059 57.2985 23.6035 52.5363C19.9614 48.5072 15.2812 49.1218 13.5056 47.0685C12.0124 45.3385 14.2204 42.7025 15.0627 41.9786C16.5559 40.6902 22.042 39.2971 26.3943 44.3415C28.088 46.3037 30.1777 47.5967 32.19 45.8621C34.1977 44.1275 34.0611 39.4382 33.5649 36.1193" fill="url(#paint0_linear)"/>
<path d="M13.5058 47.0732C12.6954 46.1353 12.9777 44.9243 13.5376 43.8999C15.386 48.052 20.5579 43.8453 30.2506 55.0768C39.9434 66.3084 49.3037 63.9364 52.4952 62.1608C55.6866 60.3853 60.6035 56.429 60.3896 48.8305C60.3213 46.4995 60.5535 43.7042 61.0224 40.8496C62.757 41.4233 66.4856 45.4387 66.0349 47.2234C65.0515 51.0887 66.0258 62.2291 59.4836 67.8699C51.917 74.3985 38.0995 72.5501 33.1006 66.7591C28.1018 60.968 27.906 57.3031 23.6037 52.541C19.9615 48.5118 15.2768 49.1264 13.5058 47.0732Z" fill="url(#paint1_linear)"/>
<path d="M60.1755 41.2322C60.4624 39.1106 60.6946 33.5699 61.2727 30.465C61.8509 27.36 63.5036 25.9669 66.044 26.6453C68.589 27.3282 67.8196 33.0464 67.7148 34.435C67.5601 36.5656 66.604 44.9563 66.0303 47.2144" fill="url(#paint2_linear)"/>
<path d="M49.8181 39.8572C50.2415 40.0621 51.3888 39.4657 51.5072 35.7689C51.5982 32.9462 51.5664 25.07 52.0808 21.0363C52.5953 17.0072 53.647 14.6352 56.069 14.4167C58.491 14.2027 59.5746 17.1711 59.5154 20.49C59.4425 24.5874 59.1011 28.999 58.7733 33.233C58.5184 36.5428 57.7125 43.7634 58.5411 43.8226" fill="url(#paint3_linear)"/>
<path d="M58.7733 33.2328C58.532 36.3559 57.8036 42.9573 58.4182 43.745C57.1708 43.3716 56.0189 40.0709 56.2967 38.3227C57.9174 28.2066 56.7018 15.1995 57.6352 14.8125C58.96 15.7139 59.5564 18.0085 59.5154 20.4943C59.4426 24.5872 59.0966 29.0033 58.7733 33.2328Z" fill="url(#paint4_linear)"/>
<path d="M33.5604 36.1239C33.0596 32.805 32.6544 21.0954 32.3175 17.9677C31.9806 14.84 33.8017 13.2648 35.8277 13.0644C37.8536 12.8641 39.7612 14.3164 40.1755 20.5354C40.4396 24.4599 40.8356 27.9336 40.6672 34.963L36.2602 38.2637L33.5604 36.1239Z" fill="url(#paint5_linear)"/>
<path d="M42.3016 35.5865C42.3835 34.4575 42.2606 23.4536 42.3016 21.0406C42.3699 16.5198 40.5306 8.55254 46.0803 8.01988C48.9986 7.74216 49.6223 10.4465 49.7498 11.6347C49.8773 12.823 49.85 26.299 49.7635 27.5146C49.6724 28.7347 49.3947 39.6475 49.8181 39.857" fill="url(#paint6_linear)"/>
<path d="M40.6672 34.963C40.6354 36.2423 40.8585 37.6809 41.3001 37.8221C37.6306 37.9496 37.7945 28.8715 37.7353 23.5584C37.6898 19.4428 35.6274 15.9463 35.6638 13.0827C35.7184 13.0736 35.7731 13.069 35.8232 13.0644C37.8491 12.8641 39.7567 14.3164 40.171 20.5354C40.4396 24.4599 40.8357 27.9336 40.6672 34.963Z" fill="url(#paint7_linear)"/>
<path d="M49.7636 27.5187C49.6725 28.7388 49.3948 39.6516 49.8182 39.861C46.1032 39.0325 46.8954 26.4897 47.1594 20.2753C47.3871 14.8849 45.6115 11.8664 47.0775 8.05127C49.149 8.40183 49.6361 10.6008 49.7545 11.6388C49.8865 12.8271 49.8546 26.2985 49.7636 27.5187Z" fill="url(#paint8_linear)"/>
<path d="M50.064 39.8885C50.3644 39.8384 50.7742 39.5061 51.0792 38.6138C50.9426 39.3832 50.6376 39.8931 50.064 39.8885Z" fill="url(#paint9_linear)"/>
<path d="M15.2675 43.0253C13.6194 43.9996 13.5101 44.382 13.5374 43.8994C14.0109 43.039 14.6756 42.3105 15.058 41.9782C16.5513 40.6898 22.0374 39.2967 26.3897 44.3411C28.0834 46.3033 30.173 47.5962 32.1853 45.8617C32.9775 45.1788 33.4328 44.036 33.6695 42.6975C33.5147 49.645 27.5734 48.352 24.9738 46.194C22.3788 44.0406 20.1024 40.1662 15.2675 43.0253Z" fill="url(#paint10_radial)"/>
<path d="M36.5879 13.0732C38.3134 13.3054 39.8112 15.1037 40.1754 20.5351C40.4395 24.4596 40.8355 27.9333 40.6671 34.9627C40.6352 36.2966 40.872 37.799 41.3546 37.8354C37.2298 34.2615 39.579 25.229 38.8096 20.5124C38.1995 16.7746 37.2571 15.0764 36.5879 13.0732Z" fill="url(#paint11_linear)"/>
<path d="M49.7634 27.5191C49.6724 28.7393 49.3946 39.6521 49.8181 39.8615C47.8376 40.0436 47.4962 37.9585 47.7557 34.4301C48.2884 27.1913 49.1943 17.3074 47.6555 11.1294C47.5098 10.5466 47.6328 9.91835 48.0334 9.46764C49.076 8.30214 49.6496 10.7287 49.7498 11.6393C49.8863 12.8275 49.8545 26.299 49.7634 27.5191Z" fill="url(#paint12_linear)"/>
<path d="M59.5108 20.4943C59.4379 24.5917 59.0965 29.0033 58.7687 33.2373C58.5137 36.5471 57.7079 43.7677 58.5365 43.8269C54.2251 43.8815 59.2695 26.258 57.6305 14.8125C58.9599 15.7139 59.5563 18.0085 59.5108 20.4943Z" fill="url(#paint13_linear)"/>
<path d="M59.4152 43.804C59.0965 43.9132 58.878 43.9132 58.7368 43.8267C59.4516 43.7857 59.9114 43.1802 60.1755 41.2362C60.4623 39.1147 60.6945 33.574 61.2727 30.4691C61.5276 29.1033 61.9874 28.0698 62.643 27.396C62.1787 28.9029 62.8434 28.7254 62.0831 32.3994C61.6733 34.3616 61.4821 43.0801 59.4152 43.804Z" fill="url(#paint14_linear)"/>
<path d="M52.6863 30.0504C52.7682 33.4604 52.4177 39.52 50.1914 39.8478C50.7013 39.6429 51.4161 38.6413 51.5117 35.7686C51.6027 32.9459 51.5709 25.0697 52.0853 21.036C52.5042 17.7717 53.269 15.5955 54.8352 14.7715C52.1081 19.3014 52.6089 26.8271 52.6863 30.0504Z" fill="url(#paint15_linear)"/>
<path d="M43.4943 22.989C43.335 28.0972 44.3229 37.0933 41.5002 37.8081C41.91 37.626 42.2287 36.6016 42.3061 35.5909C42.388 34.4618 42.2651 23.458 42.3061 21.045C42.3561 17.9128 41.4866 13.1279 42.7932 10.3052C42.0966 13.8745 43.6218 18.8506 43.4943 22.989Z" fill="url(#paint16_linear)"/>
<path d="M33.6697 42.7026C34.0294 40.6494 33.8609 38.1363 33.5559 36.124C33.0551 32.805 32.6499 21.0955 32.313 17.9678C32.2083 17.0117 32.3085 16.2059 32.5497 15.5366C32.7 16.9844 33.4603 18.5869 33.4148 21.4187C33.3419 25.9623 34.3435 33.1693 34.685 35.6414C35.031 38.1135 36.2648 42.8938 33.6697 42.7026Z" fill="url(#paint17_linear)"/>
<path d="M45.8482 71.967C44.9149 69.1626 45.0696 66.8361 47.8832 66.4674C55.5636 65.4658 60.2575 59.5154 62.3927 47.7102C64.2957 37.1798 64.4096 30.7286 66.3399 26.7632C68.5207 27.8012 67.8104 33.1051 67.7103 34.439C67.5555 36.5697 66.5994 44.9604 66.0257 47.2185C65.0424 51.0838 66.0166 62.2242 59.4744 67.865C55.8277 71.0201 50.7196 72.2174 45.8482 71.967Z" fill="url(#paint18_linear)"/>
<path d="M23.6037 52.5407C19.9615 48.5115 15.2814 49.1261 13.5058 47.0729C12.9822 46.4674 12.9139 45.7526 13.0824 45.0469C13.9155 47.1184 16.4423 47.4143 20.4669 48.1564C24.8284 48.9577 28.7983 52.6181 30.8607 57.9311C32.9185 63.2441 39.5792 67.2778 44.0545 66.5129C48.5298 65.7481 59.1695 70.1779 62.7615 51.703C62.7615 51.6984 62.7615 51.6939 62.7661 51.6893C62.9027 50.4646 63.0939 49.3219 63.4126 48.3067C65.6115 41.2955 66.0349 36.3376 66.1579 32.3676C66.1852 31.5891 65.8164 28.9895 67.5737 28.4341C68.1884 30.4373 67.7968 33.4739 67.724 34.4391C67.5692 36.5698 66.6177 44.9604 66.0395 47.2186C65.9667 47.5145 65.9029 47.8514 65.8437 48.2247C65.8301 48.3203 65.8164 48.4205 65.8027 48.5206C65.7982 48.548 65.7937 48.5753 65.7937 48.598C65.7845 48.6618 65.7754 48.7301 65.7663 48.7938C65.7663 48.8075 65.7618 48.8257 65.7618 48.8393C65.4431 51.4435 65.3247 55.3952 64.3368 59.265V59.2696C64.2503 59.611 64.1547 59.9479 64.0545 60.2848C64.0545 60.2894 64.05 60.2939 64.05 60.2985C63.9498 60.6308 63.8405 60.9632 63.7267 61.2955C63.7267 61.3001 63.7267 61.3001 63.7222 61.3046C62.8572 63.7677 61.546 66.0895 59.4882 67.8605C51.9216 74.3891 38.1041 72.5407 33.1052 66.7497C28.1018 60.9632 27.9015 57.3028 23.6037 52.5407Z" fill="url(#paint19_radial)"/>
<path opacity="0.5" d="M28.4934 53.0004C27.3233 54.4072 31.2569 60.3485 34.2434 62.8343C37.23 65.3201 40.599 66.1896 41.7736 64.7828C42.9437 63.3761 40.2894 59.8432 37.9675 56.7291C33.9657 51.3432 29.6634 51.5891 28.4934 53.0004Z" fill="url(#paint20_radial)"/>
<path opacity="0.5" d="M61.7644 51.6621C63.0619 53.2237 59.1147 62.229 55.2176 64.4962C51.3204 66.7635 46.4354 66.0669 45.4839 64.264C44.5324 62.4612 48.5843 59.6612 51.8986 56.5563C57.6168 51.2069 60.4668 50.1006 61.7644 51.6621Z" fill="url(#paint21_radial)"/>
<defs>
<linearGradient id="paint0_linear" x1="58.0373" y1="75.8113" x2="41.3015" y2="49.0341" gradientUnits="userSpaceOnUse">
<stop offset="0.00132565" stop-color="#F0C492"/>
<stop offset="1" stop-color="#F8DBBA"/>
</linearGradient>
<linearGradient id="paint1_linear" x1="39.5357" y1="84.411" x2="39.5357" y2="28.0038" gradientUnits="userSpaceOnUse">
<stop offset="0.00132565" stop-color="#F0C492"/>
<stop offset="1" stop-color="#F8DBBA"/>
</linearGradient>
<linearGradient id="paint2_linear" x1="80.71" y1="61.6411" x2="63.9743" y2="34.8639" gradientUnits="userSpaceOnUse">
<stop offset="0.00132565" stop-color="#F0C492"/>
<stop offset="1" stop-color="#F8DBBA"/>
</linearGradient>
<linearGradient id="paint3_linear" x1="-169.974" y1="-231.976" x2="-145.764" y2="-203.92" gradientUnits="userSpaceOnUse">
<stop offset="0.00132565" stop-color="#F0C492"/>
<stop offset="1" stop-color="#F8DBBA"/>
</linearGradient>
<linearGradient id="paint4_linear" x1="52.5811" y1="29.0424" x2="60.6851" y2="29.3962" gradientUnits="userSpaceOnUse">
<stop stop-color="#F0C492" stop-opacity="0"/>
<stop offset="1" stop-color="#F0C492"/>
</linearGradient>
<linearGradient id="paint5_linear" x1="-179.087" y1="-224.113" x2="-154.877" y2="-196.057" gradientUnits="userSpaceOnUse">
<stop offset="0.00132565" stop-color="#F0C492"/>
<stop offset="1" stop-color="#F8DBBA"/>
</linearGradient>
<linearGradient id="paint6_linear" x1="-172.214" y1="-230.044" x2="-148.004" y2="-201.988" gradientUnits="userSpaceOnUse">
<stop offset="0.00132565" stop-color="#F0C492"/>
<stop offset="1" stop-color="#F8DBBA"/>
</linearGradient>
<linearGradient id="paint7_linear" x1="34.0413" y1="25.3303" x2="46.0079" y2="25.5986" gradientUnits="userSpaceOnUse">
<stop stop-color="#F0C492" stop-opacity="0"/>
<stop offset="1" stop-color="#F0C492"/>
</linearGradient>
<linearGradient id="paint8_linear" x1="43.9619" y1="24.317" x2="59.0454" y2="23.0976" gradientUnits="userSpaceOnUse">
<stop stop-color="#F0C492" stop-opacity="0"/>
<stop offset="1" stop-color="#F0C492"/>
</linearGradient>
<linearGradient id="paint9_linear" x1="45.2043" y1="39.6869" x2="60.2877" y2="38.4676" gradientUnits="userSpaceOnUse">
<stop stop-color="#FFBC47" stop-opacity="0"/>
<stop offset="1" stop-color="#FFA754"/>
</linearGradient>
<radialGradient id="paint10_radial" cx="0" cy="0" r="1" gradientUnits="userSpaceOnUse" gradientTransform="translate(23.5968 39.18) rotate(139.209) scale(14.6656)">
<stop stop-color="#F0C492" stop-opacity="0"/>
<stop offset="1" stop-color="#F0C492"/>
</radialGradient>
<linearGradient id="paint11_linear" x1="31.7812" y1="25.1996" x2="42.1218" y2="25.567" gradientUnits="userSpaceOnUse">
<stop offset="0.3118" stop-color="#F0C492" stop-opacity="0"/>
<stop offset="1" stop-color="#E6AF74"/>
</linearGradient>
<linearGradient id="paint12_linear" x1="38.6714" y1="24.2896" x2="52.1237" y2="24.5797" gradientUnits="userSpaceOnUse">
<stop offset="0.3118" stop-color="#F0C492" stop-opacity="0"/>
<stop offset="1" stop-color="#E6AF74"/>
</linearGradient>
<linearGradient id="paint13_linear" x1="47.594" y1="29.4593" x2="63.7082" y2="29.2453" gradientUnits="userSpaceOnUse">
<stop offset="0.3118" stop-color="#F0C492" stop-opacity="0"/>
<stop offset="1" stop-color="#E6AF74"/>
</linearGradient>
<linearGradient id="paint14_linear" x1="55.3962" y1="25.7721" x2="72.9957" y2="58.4877" gradientUnits="userSpaceOnUse">
<stop offset="0.00132565" stop-color="#F0C492"/>
<stop offset="1" stop-color="#F8DBBA"/>
</linearGradient>
<linearGradient id="paint15_linear" x1="50.7243" y1="24.6192" x2="66.5963" y2="48.5891" gradientUnits="userSpaceOnUse">
<stop offset="0.00132565" stop-color="#F0C492"/>
<stop offset="1" stop-color="#F8DBBA"/>
</linearGradient>
<linearGradient id="paint16_linear" x1="45.3394" y1="23.8656" x2="41.3851" y2="24.0995" gradientUnits="userSpaceOnUse">
<stop offset="0.00132565" stop-color="#F0C492"/>
<stop offset="1" stop-color="#F8DBBA"/>
</linearGradient>
<linearGradient id="paint17_linear" x1="29.6669" y1="23.3857" x2="47.6983" y2="53.4021" gradientUnits="userSpaceOnUse">
<stop offset="0.00132565" stop-color="#F0C492"/>
<stop offset="1" stop-color="#F8DBBA"/>
</linearGradient>
<linearGradient id="paint18_linear" x1="58.8606" y1="50.4033" x2="78.0797" y2="57.6374" gradientUnits="userSpaceOnUse">
<stop offset="0.3118" stop-color="#F0C492" stop-opacity="0"/>
<stop offset="1" stop-color="#F0C492"/>
</linearGradient>
<radialGradient id="paint19_radial" cx="0" cy="0" r="1" gradientUnits="userSpaceOnUse" gradientTransform="translate(47.4136 48.433) rotate(-177.291) scale(38.7685 67.3646)">
<stop offset="0.6134" stop-color="#F0C492" stop-opacity="0"/>
<stop offset="1" stop-color="#E6AF74"/>
</radialGradient>
<radialGradient id="paint20_radial" cx="0" cy="0" r="1" gradientUnits="userSpaceOnUse" gradientTransform="translate(35.1974 58.6894) rotate(-140.233) scale(8.81857 4.0931)">
<stop stop-color="#F8E6D2"/>
<stop offset="1" stop-color="#F8E6D2" stop-opacity="0"/>
</radialGradient>
<radialGradient id="paint21_radial" cx="0" cy="0" r="1" gradientUnits="userSpaceOnUse" gradientTransform="translate(54.0597 59.4233) rotate(-41.0325) scale(11.3483 5.17837)">
<stop stop-color="#F8E6D2"/>
<stop offset="1" stop-color="#F8E6D2" stop-opacity="0"/>
</radialGradient>
</defs>
</svg>
