<svg width="80" height="80" viewBox="0 0 80 80" fill="none" xmlns="http://www.w3.org/2000/svg">
<path d="M57.4885 26.2704C56.8748 24.0825 55.5254 23.4032 54.8882 23.197C54.6773 23.1315 54.5461 23.1127 54.5461 23.1127L42.5094 18.6948L25.2625 27.5962L29.0857 39.018C32.7872 38.4699 36.4933 38.4137 40.2135 38.4699C46.7731 38.5636 53.3748 39.004 60.0608 37.6969C60.1498 33.7147 58.2054 28.8236 57.4885 26.2704Z" fill="url(#paint0_linear)"/>
<path d="M60.998 35.8699C55.9565 35.6544 53.5295 33.3775 53.0937 27.1606C53.0469 26.4626 49.4766 9.68581 59.3815 9.4703C68.2791 9.27822 68.2135 14.6659 67.834 23.6375C67.4498 32.6045 65.3367 36.0526 60.998 35.8699Z" fill="url(#paint1_linear)"/>
<path d="M60.6934 26.5985C53.0234 26.2706 51.1165 9.57824 59.6064 9.47048C66.9015 9.37678 66.6813 14.5911 66.6438 19.0277C66.5876 25.4039 64.2543 26.7485 60.6934 26.5985Z" fill="url(#paint2_linear)"/>
<path opacity="0.24" d="M58.0041 35.373C58.8802 35.6494 59.8642 35.8228 60.9933 35.8696C65.332 36.057 67.4451 32.6042 67.8293 23.6373C68.1994 14.9936 68.2463 9.69022 60.2811 9.48877C63.3313 11.4564 65.7068 15.7291 65.3835 23.2625C64.929 33.9722 62.4083 35.537 58.0041 35.373Z" fill="url(#paint3_linear)"/>
<path d="M63.5468 9.93848C64.6385 10.2477 65.7021 10.838 66.4096 11.7703C67.1312 12.6838 67.5294 13.8129 67.759 14.9373C68.2182 17.2095 68.1432 19.5238 68.0589 21.8054C67.9511 24.087 67.8668 26.3873 67.4592 28.6501C67.2577 29.7791 66.9953 30.9035 66.5923 31.9811C66.1847 33.0445 65.5943 34.1221 64.6244 34.7639C65.5053 34.019 66.0113 32.9696 66.4049 31.9155C66.7985 30.852 67.0562 29.737 67.2389 28.6173C67.6138 26.3685 67.6934 24.087 67.7497 21.8007C67.7918 19.5238 67.8809 17.2282 67.5154 14.9888C67.3186 13.8785 66.9625 12.7775 66.2831 11.8734C65.6131 10.9598 64.6338 10.2992 63.5468 9.93848Z" fill="#663C1D"/>
<path d="M11.5718 40.1099C11.5718 43.2581 13.1133 44.673 13.8863 45.1836C14.144 45.3523 14.3127 45.4226 14.3127 45.4226L28.7156 55.8372L55.0756 50.4354L54.2698 33.7571C49.1252 33.0965 44.1587 31.78 39.2156 30.3137C30.4961 27.7229 26.715 12.8201 12.4386 23.8859C10.8174 29.1799 11.5718 36.4369 11.5718 40.1099Z" fill="url(#paint4_linear)"/>
<path d="M39.642 40.606C46.1359 39.922 50.2544 45.2347 50.7698 47.9988L52.8923 47.2258L51.9271 36.6191L53.3983 26.9776L52.8735 23.1078L39.403 23.1687L39.2062 23.1968L39.0188 20.2125L38.8689 23.2484L26.5276 24.9865L24.7471 19.4161C24.7003 19.4161 24.2504 19.4114 24.2036 19.4067L15.2592 20.3203C14.294 20.6764 13.5959 21.1495 13.2773 21.7679C12.0919 24.087 11.6327 27.0994 11.4734 30.1071C12.8696 32.9134 16.0042 34.3704 18.7404 34.3704C21.9546 34.3704 23.885 31.9295 25.0423 29.8682C25.0423 29.8682 25.2531 33.5974 30.4211 35.0122C30.4305 35.0122 34.2678 41.1682 39.642 40.606Z" fill="url(#paint5_linear)"/>
<path d="M18.6748 33.0821C14.889 33.0821 11.7545 29.9947 11.2297 24.2089C10.705 18.423 10.5785 12.2529 16.5851 12.2529C22.5918 12.2529 24.2926 14.5673 24.6815 22.2833C25.0751 29.9947 22.5965 33.0821 18.6748 33.0821Z" fill="url(#paint6_linear)"/>
<path d="M33.0262 33.982C28.3502 33.982 26.0122 31.93 25.3609 26.0785C25.2859 25.4226 21.3221 9.72347 30.482 9.11911C38.7143 8.57566 38.6815 13.6729 38.8689 22.1572C38.9017 23.633 38.8314 25.0291 38.6628 26.3081C38.644 26.458 38.4285 26.7157 38.4051 26.8656C37.7444 31.1897 36.0717 33.982 33.0262 33.982Z" fill="url(#paint7_linear)"/>
<path opacity="0.24" d="M32.7638 25.8816C29.1935 27.6806 26.7899 27.7181 25.2625 25.2632C25.2999 25.5396 25.3374 25.8207 25.3655 26.0784C26.0168 31.9299 28.3548 33.9819 33.0308 33.9819C36.32 33.9819 38.1332 31.7471 38.6908 26.308C37.7631 24.7245 34.8722 24.8228 32.7638 25.8816Z" fill="url(#paint8_linear)"/>
<path d="M18.5483 25.6239C15.3622 25.6239 12.7243 23.6422 12.2839 19.9271C11.8435 16.2119 11.7357 12.2485 16.7913 12.2485C21.8468 12.2485 23.2759 13.7336 23.6038 18.6856C23.9318 23.6422 21.8421 25.6239 18.5483 25.6239Z" fill="url(#paint9_linear)"/>
<path d="M32.3796 25.2396C25.2624 25.2396 22.8354 9.55436 30.6928 9.10461C37.4445 8.72044 37.4492 13.6537 37.5897 17.8467C37.7912 23.8763 35.6828 25.2396 32.3796 25.2396Z" fill="url(#paint10_linear)"/>
<path opacity="0.24" d="M30.2384 33.6352C31.063 33.8647 31.9767 33.9866 33.0262 33.9866C37.051 33.9866 38.8736 30.6415 38.8736 22.1571C38.8736 13.9772 38.7049 8.96899 31.3254 9.10017C34.2304 10.8336 36.5965 14.7736 36.5965 21.8994C36.5965 32.0329 34.3241 33.6164 30.2384 33.6352Z" fill="url(#paint11_linear)"/>
<path opacity="0.24" d="M18.7123 29.4845C14.8609 29.4845 11.6748 26.4206 11.0142 20.7051C11.0376 21.8529 11.1266 23.0428 11.2297 24.2141C11.7545 29.9999 14.889 33.0872 18.6748 33.0872C22.3528 33.0872 24.7283 30.3185 24.6908 23.6144C23.9084 27.7277 21.7203 29.4845 18.7123 29.4845Z" fill="url(#paint12_linear)"/>
<path opacity="0.24" d="M24.6862 22.2838C24.3114 14.9332 22.7464 12.4924 17.4051 12.2769C20.207 12.736 25.628 23.5253 18.1641 33.031C18.3375 33.0451 18.5062 33.0826 18.6795 33.0826C22.5965 33.0826 25.0751 29.9952 24.6862 22.2838Z" fill="url(#paint13_linear)"/>
<path d="M24.4426 19.4023C24.7237 21.8572 25.0142 24.3496 24.63 26.8279C24.4566 28.0601 24.1474 29.2922 23.5476 30.4072C22.9713 31.5316 21.9687 32.4545 20.7692 32.909C18.3421 33.7148 15.5075 32.9792 13.8254 31.0772C12.0778 29.2219 11.4077 26.6593 11.2344 24.2138C11.5389 26.6452 12.2886 29.1376 13.9894 30.9225C15.6387 32.745 18.3796 33.3868 20.6567 32.5951C21.7812 32.1828 22.7324 31.3442 23.3087 30.2713C23.9037 29.2126 24.227 28.0085 24.4144 26.7951C24.8033 24.3543 24.5925 21.8713 24.4426 19.4023Z" fill="#3D2A20"/>
<path d="M31.1801 33.8272C30.4164 33.9583 29.7042 33.6538 29.0482 33.3118C28.3923 32.9651 27.7972 32.492 27.3147 31.9298C26.3307 30.8007 25.8153 29.3765 25.5014 27.9616C25.2109 26.528 25.1594 25.0897 24.9438 23.6655C24.7564 22.2366 24.5878 20.803 24.5034 19.3647C24.6674 20.7983 24.9017 22.2179 25.1266 23.6374C25.389 25.0523 25.4967 26.5046 25.8247 27.8867C26.1433 29.264 26.6587 30.632 27.5911 31.6815C28.0503 32.2062 28.6078 32.6419 29.2263 32.9604C29.8541 33.3024 30.5288 33.4289 31.1801 33.8272Z" fill="#3D2A20"/>
<path opacity="0.24" d="M39.6419 40.6061C34.2724 41.173 30.4304 35.0124 30.4304 35.0124C25.2624 33.5975 25.0516 29.8683 25.0516 29.8683C23.8943 31.925 21.9639 34.3705 18.7498 34.3705C16.0135 34.3705 12.879 32.9135 11.4827 30.1073C11.5155 29.4842 11.5718 28.8611 11.6327 28.2427H11.6092C11.4359 29.9386 11.3937 31.6627 11.4031 33.3211C14.1675 36.4928 18.5014 36.9425 21.2705 36.1227C22.0202 35.9025 25.5201 33.2602 28.2189 35.9165C31.1473 38.7931 34.5536 42.4754 40.4056 42.3442C46.2576 42.2177 50.7697 48.0036 50.7697 48.0036C50.2543 45.2348 46.1358 39.9221 39.6419 40.6061Z" fill="url(#paint14_linear)"/>
<path d="M46.6513 31.9907C41.9565 31.8408 39.3468 28.5098 39.1968 24.2559C38.9672 17.9078 36.7651 8.26623 45.3956 8.00856C53.6699 7.76026 52.8031 12.9324 52.8687 20.9764C52.9531 30.8195 50.6947 32.1219 46.6513 31.9907Z" fill="url(#paint15_linear)"/>
<path opacity="0.24" d="M46.6513 23.3095C43.0061 25.1178 40.5931 25.0804 39.1453 22.4053C39.1734 22.7004 39.2015 23.0003 39.2203 23.2814C39.6747 29.5592 41.9518 31.8313 46.6466 31.9813C49.9498 32.089 51.8427 29.7559 52.583 23.956C51.7115 22.2319 48.8019 22.2413 46.6513 23.3095Z" fill="url(#paint16_linear)"/>
<path d="M45.9719 23.7688C42.1205 23.647 40.6868 23.319 40.1714 18.8684C39.909 16.5774 38.5222 8.21015 45.6065 8.0087C52.3956 7.81662 51.6787 13.4385 51.6787 17.9267C51.6787 24.3778 49.2892 23.8765 45.9719 23.7688Z" fill="url(#paint17_linear)"/>
<path opacity="0.24" d="M43.8634 31.5692C44.6834 31.8128 45.597 31.9721 46.6512 31.9908C52.2878 32.0845 52.6158 29.0112 52.8688 20.9766C53.1125 13.2277 53.6466 8.1305 46.2342 8.01807C49.097 9.75149 50.8025 13.9117 50.587 20.658C50.2918 30.2621 47.9632 31.6816 43.8634 31.5692Z" fill="url(#paint18_linear)"/>
<path d="M44.4539 31.7514C43.6152 31.8545 42.8515 31.4563 42.1721 31.0159C41.4927 30.5614 40.9305 29.9384 40.5181 29.245C39.6888 27.8442 39.3702 26.2373 39.1922 24.6725C39.0188 23.0937 39.0516 21.5102 39.0235 19.9408C38.9907 18.3666 38.9766 16.7925 38.747 15.2324C39.0422 16.7831 39.1266 18.3619 39.1968 19.9361C39.2718 21.5102 39.2765 23.089 39.5061 24.635C39.7216 26.1717 40.0355 27.7411 40.8367 29.0576C41.235 29.7088 41.7598 30.2804 42.3923 30.6973C43.0202 31.1377 43.7605 31.297 44.4539 31.7514Z" fill="#3D2A20"/>
<path d="M49.2798 8.43018C50.1092 8.68316 50.9104 9.12823 51.4913 9.80286C52.0676 10.4775 52.4378 11.3114 52.6627 12.1641C53.1078 13.8787 53.1453 15.6496 53.15 17.3971C53.1125 19.1493 53.0375 20.892 52.9579 22.6348C52.9251 23.5015 52.9157 24.3776 52.8548 25.2537C52.8173 25.6894 52.7939 26.1298 52.6955 26.5655C52.6486 26.781 52.5877 27.0012 52.4753 27.1979C52.3722 27.3853 52.1801 27.6102 51.9411 27.5634C52.3956 27.4556 52.4097 26.9122 52.5128 26.528C52.583 26.1064 52.6299 25.6754 52.6486 25.2397C52.6908 24.3729 52.6767 23.5015 52.6908 22.6255L52.822 17.3924C52.8501 15.659 52.8642 13.9022 52.4659 12.2156C52.2691 11.377 51.9318 10.5618 51.3883 9.89187C50.8588 9.20787 50.0951 8.73001 49.2798 8.43018Z" fill="#3D2A20"/>
<path d="M34.3615 9.39062C35.1533 9.58739 35.9264 9.92471 36.559 10.4682C37.1962 11.0069 37.6553 11.7237 37.988 12.4827C38.6346 14.0193 38.822 15.6825 38.9438 17.3128C39.0234 18.9525 39.0281 20.5923 39.0047 22.2273C39 23.0425 39.0188 23.8624 38.986 24.6822C38.9625 25.0945 38.9532 25.5068 38.8641 25.9143C38.822 26.1205 38.7657 26.3266 38.6627 26.514C38.569 26.6967 38.3675 26.8841 38.1473 26.8466C38.569 26.7389 38.5924 26.247 38.6767 25.8816C38.733 25.488 38.7704 25.0804 38.7751 24.6728C38.7892 23.8624 38.7517 23.0472 38.7376 22.2226C38.7048 20.5876 38.7189 18.9526 38.6158 17.3269C38.5268 15.7106 38.3909 14.0615 37.8006 12.5529C37.2383 11.0444 35.9545 9.83101 34.3615 9.39062Z" fill="#3D2A20"/>
<path d="M53.7919 29.8356L53.3608 27.006C53.1874 26.069 52.9625 25.132 52.8688 24.1762C52.6439 22.2742 52.6299 20.3346 52.9625 18.4419C52.9953 20.358 53.089 22.2461 53.2109 24.1435C53.2952 25.0898 53.3233 26.0455 53.4311 26.9966L53.7919 29.8356Z" fill="#3D2A20"/>
<path d="M30.4305 30.8524C30.4305 27.4231 32.8575 27.3153 39.3468 26.7391C43.99 26.3268 49.0315 25.1087 55.4645 27.5964C62.8018 30.4308 69.6941 34.5395 69.7784 41.9088C69.8534 48.5099 64.7229 71.9954 42.2611 71.9954C19.7993 71.9954 12.2558 59.9973 11.5718 40.1098L50.7698 47.9945C50.7698 47.9945 51.6038 40.9859 46.8059 38.9105C44.7584 38.025 40.3776 38.7372 37.4632 38.7372C34.5489 38.7372 30.4305 35.4811 30.4305 30.8524Z" fill="url(#paint19_linear)"/>
<path d="M58.2898 57.1254C48.7738 64.0685 49.5468 67.9241 40.6727 67.9241C31.7986 67.9241 26.0777 63.2299 22.0248 59.1821C17.9766 55.1343 14.5657 48.3834 12.893 43.2394C12.4994 42.026 12.0356 41.0094 11.567 40.152C12.2605 60.0113 19.8086 72 42.2564 72C64.7182 72 69.8487 48.5146 69.7737 41.9135C69.7409 39.0276 68.6539 36.6477 66.9156 34.6426C67.4123 44.0686 66.105 51.4239 58.2898 57.1254Z" fill="url(#paint20_radial)"/>
<path opacity="0.24" d="M53.0608 41.1404C52.8875 37.027 47.8319 32.9137 43.6292 33.34C40.0027 33.7101 33.4338 34.202 30.5007 31.5176C30.8756 35.7809 34.6895 38.7417 37.4585 38.7417C40.3728 38.7417 44.7536 38.0249 46.8012 38.9151C51.6037 40.9952 50.765 47.9991 50.765 47.9991C50.765 47.9991 53.2342 45.2538 53.0608 41.1404Z" fill="url(#paint21_linear)"/>
<path opacity="0.24" d="M69.7784 41.9136C69.6941 34.5395 62.7972 30.4355 55.4645 27.5964C49.0362 25.1087 43.99 26.3268 39.3468 26.7391C34.3943 27.1795 31.8221 27.3575 30.8756 28.9363C36.976 27.4278 42.6922 26.814 49.739 27.6198C58.9224 28.6693 65.8614 34.3287 67.1218 38.6576C68.3681 42.9349 68.1854 50.8993 68.1807 51.0914C69.3661 47.2544 69.8018 43.8532 69.7784 41.9136Z" fill="url(#paint22_linear)"/>
<path d="M50.7697 47.999C50.8869 46.3311 50.7557 44.6258 50.2262 43.0423C49.7202 41.4729 48.7129 39.9878 47.2229 39.2429C45.7704 38.4277 43.9993 38.5823 42.3548 38.6104C40.6821 38.676 39.0188 38.8727 37.3227 38.8587C35.5844 38.7697 34.0148 37.8561 32.7966 36.6849C31.5877 35.4902 30.6928 33.9442 30.3976 32.253C30.243 31.4144 30.2009 30.5476 30.3742 29.6856C30.5569 28.8189 31.2129 28.0412 32.0235 27.718C33.6306 27.034 35.3407 26.9496 36.9994 26.7529C40.3494 26.542 43.6479 25.9424 47.0308 25.9189C48.7175 25.9189 50.409 26.0689 52.0582 26.4296C53.7075 26.781 55.3052 27.3666 56.8467 28.0178C59.9297 29.3249 62.9799 30.8662 65.5147 33.1009C66.7657 34.2253 67.8621 35.5465 68.6164 37.055C69.3755 38.5589 69.7597 40.2408 69.7644 41.918C69.7269 40.2408 69.3099 38.5776 68.5321 37.1019C67.7543 35.6214 66.6439 34.3378 65.3882 33.2509C62.8628 31.0583 59.8266 29.5451 56.7483 28.2661C53.6841 26.9262 50.3715 26.186 47.0308 26.2563C43.6995 26.2984 40.3728 26.9262 37.0322 27.1558C35.3829 27.3338 33.6634 27.4228 32.1687 28.0553C31.4144 28.3598 30.8802 29.0016 30.6975 29.7793C30.5335 30.5617 30.5616 31.405 30.7069 32.2108C30.9786 33.8318 31.8314 35.331 32.9933 36.4928C34.16 37.6313 35.6828 38.5261 37.3227 38.6151C38.9813 38.6385 40.6587 38.4558 42.336 38.3996C43.1747 38.3668 44.0181 38.3574 44.8615 38.4183C45.6908 38.4886 46.5763 38.6291 47.3025 39.0883C48.83 39.8894 49.8233 41.4307 50.3059 43.0236C50.8213 44.6212 50.915 46.3311 50.7697 47.999Z" fill="#3D2A20"/>
<path opacity="0.08" d="M15.7089 40.7888C13.6474 43.2718 19.9164 57.5701 26.1058 61.1681C32.2952 64.7662 40.0496 63.6652 41.563 60.8027C43.0763 57.9403 36.6433 53.4943 31.3816 48.5657C22.2966 40.0673 17.7705 38.3058 15.7089 40.7888Z" fill="url(#paint23_radial)"/>
<path opacity="0.48" d="M66.1471 42.6207C67.2435 41.1449 61.7616 31.9905 57.3855 29.5216C53.0093 27.0526 44.3929 28.519 43.6901 30.2524C42.9873 31.9859 51.2898 33.9395 55.1974 37.2002C61.935 42.8315 65.0507 44.0964 66.1471 42.6207Z" fill="url(#paint24_radial)"/>
<defs>
<linearGradient id="paint0_linear" x1="41.7418" y1="26.4907" x2="41.3529" y2="24.213" gradientUnits="userSpaceOnUse">
<stop offset="0.00132565" stop-color="#99643E"/>
<stop offset="1" stop-color="#AE7246"/>
</linearGradient>
<linearGradient id="paint1_linear" x1="60.6484" y1="9.48224" x2="59.5238" y2="35.8058" gradientUnits="userSpaceOnUse">
<stop offset="0.00132565" stop-color="#5A4539"/>
<stop offset="1" stop-color="#695042"/>
</linearGradient>
<linearGradient id="paint2_linear" x1="62.2627" y1="-11.1113" x2="58.4299" y2="46.8871" gradientUnits="userSpaceOnUse">
<stop offset="0.00132565" stop-color="#5A4539"/>
<stop offset="1" stop-color="#695042"/>
</linearGradient>
<linearGradient id="paint3_linear" x1="50.3851" y1="16.1778" x2="111.527" y2="55.172" gradientUnits="userSpaceOnUse">
<stop offset="0.00132565" stop-color="#473226"/>
<stop offset="1" stop-color="#3D2A20"/>
</linearGradient>
<linearGradient id="paint4_linear" x1="6.51449" y1="59.3616" x2="38.0143" y2="33.6925" gradientUnits="userSpaceOnUse">
<stop offset="0.00132565" stop-color="#5A4539"/>
<stop offset="1" stop-color="#695042"/>
</linearGradient>
<linearGradient id="paint5_linear" x1="24.791" y1="62.5117" x2="38.9561" y2="14.0123" gradientUnits="userSpaceOnUse">
<stop stop-color="#473226" stop-opacity="0"/>
<stop offset="1" stop-color="#3D2A20"/>
</linearGradient>
<linearGradient id="paint6_linear" x1="18.2755" y1="12.3064" x2="17.3899" y2="33.0339" gradientUnits="userSpaceOnUse">
<stop offset="0.00132565" stop-color="#5A4539"/>
<stop offset="1" stop-color="#695042"/>
</linearGradient>
<linearGradient id="paint7_linear" x1="32.1602" y1="9.08855" x2="31.0995" y2="33.9143" gradientUnits="userSpaceOnUse">
<stop offset="0.00132565" stop-color="#5A4539"/>
<stop offset="1" stop-color="#695042"/>
</linearGradient>
<linearGradient id="paint8_linear" x1="31.9739" y1="20.274" x2="31.9739" y2="51.8392" gradientUnits="userSpaceOnUse">
<stop offset="0.00132565" stop-color="#473226"/>
<stop offset="1" stop-color="#3D2A20"/>
</linearGradient>
<linearGradient id="paint9_linear" x1="20.004" y1="-13.904" x2="16.1712" y2="44.0941" gradientUnits="userSpaceOnUse">
<stop offset="0.00132565" stop-color="#5A4539"/>
<stop offset="1" stop-color="#695042"/>
</linearGradient>
<linearGradient id="paint10_linear" x1="33.7111" y1="-12.9988" x2="29.8782" y2="45.0001" gradientUnits="userSpaceOnUse">
<stop offset="0.00132565" stop-color="#5A4539"/>
<stop offset="1" stop-color="#695042"/>
</linearGradient>
<linearGradient id="paint11_linear" x1="27.9824" y1="22.7435" x2="79.4855" y2="9.24138" gradientUnits="userSpaceOnUse">
<stop offset="0.00132565" stop-color="#473226"/>
<stop offset="1" stop-color="#3D2A20"/>
</linearGradient>
<linearGradient id="paint12_linear" x1="17.7247" y1="20.2655" x2="19.3541" y2="47.2818" gradientUnits="userSpaceOnUse">
<stop offset="0.00132565" stop-color="#473226"/>
<stop offset="1" stop-color="#3D2A20"/>
</linearGradient>
<linearGradient id="paint13_linear" x1="17.4856" y1="26.9474" x2="36.8172" y2="-10.2198" gradientUnits="userSpaceOnUse">
<stop offset="0.00132565" stop-color="#473226"/>
<stop offset="1" stop-color="#3D2A20"/>
</linearGradient>
<linearGradient id="paint14_linear" x1="31.0843" y1="60.9203" x2="31.0843" y2="20.1563" gradientUnits="userSpaceOnUse">
<stop offset="0.00132565" stop-color="#473226"/>
<stop offset="1" stop-color="#3D2A20"/>
</linearGradient>
<linearGradient id="paint15_linear" x1="46.3129" y1="8.00033" x2="45.2904" y2="31.9329" gradientUnits="userSpaceOnUse">
<stop offset="0.00132565" stop-color="#5A4539"/>
<stop offset="1" stop-color="#695042"/>
</linearGradient>
<linearGradient id="paint16_linear" x1="46.0526" y1="17.2954" x2="44.9801" y2="51.0439" gradientUnits="userSpaceOnUse">
<stop offset="0.00132565" stop-color="#473226"/>
<stop offset="1" stop-color="#3D2A20"/>
</linearGradient>
<linearGradient id="paint17_linear" x1="47.6838" y1="-12.0749" x2="43.8509" y2="45.9236" gradientUnits="userSpaceOnUse">
<stop offset="0.00132565" stop-color="#5A4539"/>
<stop offset="1" stop-color="#695042"/>
</linearGradient>
<linearGradient id="paint18_linear" x1="48.0704" y1="23.7822" x2="58.2357" y2="-25.4669" gradientUnits="userSpaceOnUse">
<stop offset="0.00132565" stop-color="#473226"/>
<stop offset="1" stop-color="#3D2A20"/>
</linearGradient>
<linearGradient id="paint19_linear" x1="14.9144" y1="69.6694" x2="46.4142" y2="44.0004" gradientUnits="userSpaceOnUse">
<stop offset="0.00132565" stop-color="#5A4539"/>
<stop offset="1" stop-color="#695042"/>
</linearGradient>
<radialGradient id="paint20_radial" cx="0" cy="0" r="1" gradientUnits="userSpaceOnUse" gradientTransform="translate(41.5639 44.8698) scale(24.4535 41.7207)">
<stop stop-color="#695042"/>
<stop offset="0.9987" stop-color="#5A4539"/>
</radialGradient>
<linearGradient id="paint21_linear" x1="41.7853" y1="21.4216" x2="41.7853" y2="61.929" gradientUnits="userSpaceOnUse">
<stop offset="0.00132565" stop-color="#473226"/>
<stop offset="1" stop-color="#3D2A20"/>
</linearGradient>
<linearGradient id="paint22_linear" x1="30.8725" y1="38.5818" x2="69.7779" y2="38.5818" gradientUnits="userSpaceOnUse">
<stop offset="0.00132565" stop-color="#473226"/>
<stop offset="1" stop-color="#3D2A20"/>
</linearGradient>
<radialGradient id="paint23_radial" cx="0" cy="0" r="1" gradientUnits="userSpaceOnUse" gradientTransform="translate(27.9363 53.1172) rotate(-138.97) scale(18.0192 8.22223)">
<stop stop-color="#F8DBBA"/>
<stop offset="1" stop-color="#CD9870" stop-opacity="0"/>
</radialGradient>
<radialGradient id="paint24_radial" cx="0" cy="0" r="1" gradientUnits="userSpaceOnUse" gradientTransform="translate(56.0083 33.7604) rotate(29.4328) scale(10.6618 5.90204)">
<stop stop-color="#695042"/>
<stop offset="1" stop-color="#695042" stop-opacity="0"/>
</radialGradient>
</defs>
</svg>
