<svg width="80" height="80" viewBox="0 0 80 80" fill="none" xmlns="http://www.w3.org/2000/svg">
<path d="M40.475 70.95C57.3059 70.95 70.95 57.3059 70.95 40.475C70.95 23.6441 57.3059 10 40.475 10C23.6441 10 10 23.6441 10 40.475C10 57.3059 23.6441 70.95 40.475 70.95Z" fill="url(#paint0_radial)"/>
<path opacity="0.5" d="M40.475 70.95C57.3059 70.95 70.95 57.3059 70.95 40.475C70.95 23.6441 57.3059 10 40.475 10C23.6441 10 10 23.6441 10 40.475C10 57.3059 23.6441 70.95 40.475 70.95Z" fill="url(#paint1_radial)"/>
<path opacity="0.24" d="M40.475 70.95C57.3059 70.95 70.95 57.3059 70.95 40.475C70.95 23.6441 57.3059 10 40.475 10C23.6441 10 10 23.6441 10 40.475C10 57.3059 23.6441 70.95 40.475 70.95Z" fill="url(#paint2_radial)"/>
<path opacity="0.24" d="M40.475 70.95C57.3059 70.95 70.95 57.3059 70.95 40.475C70.95 23.6441 57.3059 10 40.475 10C23.6441 10 10 23.6441 10 40.475C10 57.3059 23.6441 70.95 40.475 70.95Z" fill="url(#paint3_radial)"/>
<path d="M28.37 40.2199C28.37 40.2199 23.5507 40.2199 21.864 36.7471C21.7648 36.5345 21.6939 36.2935 21.6655 36.0526C21.623 35.5706 22.0057 35.0178 22.9129 35.4006C28.4409 37.7535 31.3183 36.0951 33.4728 34.9328C34.3091 34.4792 35.1738 35.2872 34.9895 36.0951C34.9328 36.3361 34.9044 36.577 34.8052 36.7897C33.1893 40.2482 28.37 40.2199 28.37 40.2199Z" fill="url(#paint4_radial)"/>
<path d="M32.3391 26.0738C32.3107 24.8548 30.9641 24.1319 28.6962 24.1886C26.7685 24.2453 22.5587 25.4218 19.7522 29.263C19.2277 29.9718 20.0782 30.3261 20.5885 29.8584C22.3319 28.285 27.0803 26.1872 30.8366 26.499C32.3532 26.6124 32.3391 26.0738 32.3391 26.0738Z" fill="url(#paint5_linear)"/>
<path d="M53.9407 49.3907C53.6856 49.3482 53.4305 49.4191 53.2462 49.6033C49.9719 52.6792 44.9258 54.3234 41.1271 54.3234H40.475H39.823C36.0243 54.3234 30.964 52.6792 27.7039 49.6033C27.5196 49.4332 27.2645 49.3482 27.0093 49.3907C26.7542 49.4332 26.6125 49.7309 26.74 49.9719C29.5324 54.8053 34.706 57.8103 40.3191 57.8103H40.4892H40.6593C46.2724 57.8103 51.446 54.8195 54.2384 49.9719C54.3518 49.7309 54.2101 49.4474 53.9407 49.3907Z" fill="#643800"/>
<path d="M53.9407 49.3907C53.6856 49.3482 53.4305 49.4191 53.2462 49.6033C49.9719 52.6792 44.9258 54.3234 41.1271 54.3234H40.475H39.823C36.0243 54.3234 30.964 52.6792 27.7039 49.6033C27.5196 49.4332 27.2645 49.3482 27.0093 49.3907C26.7542 49.4332 26.6125 49.7309 26.74 49.9719C26.7684 50.0144 26.7967 50.0711 26.8251 50.1136C27.0944 49.9577 27.3637 49.8159 27.6614 50.142C30.7656 53.6289 35.3722 55.7125 40.3049 55.7125H40.475H40.6451C45.6062 55.7125 50.2412 53.6005 53.3454 50.0711C53.6289 49.7451 53.8982 49.901 54.1534 50.0711C54.1675 50.0427 54.1959 50.0002 54.2101 49.9719C54.3518 49.7309 54.2101 49.4474 53.9407 49.3907Z" fill="url(#paint6_linear)"/>
<path d="M33.487 34.9328C31.3324 36.1093 28.455 37.7677 22.927 35.4006C22.1758 35.0746 21.7931 35.4147 21.708 35.8116C22.4593 35.3297 23.6499 37.711 28.2849 37.711C33.6429 37.711 34.4508 34.7627 35.032 35.8258C34.9894 35.1171 34.224 34.5217 33.487 34.9328Z" fill="url(#paint7_linear)"/>
<path d="M52.5801 40.2199C52.5801 40.2199 57.3994 40.2199 59.0861 36.7471C59.1853 36.5345 59.2562 36.2935 59.2846 36.0526C59.3271 35.5706 58.9444 35.0178 58.0372 35.4006C52.5092 37.7535 49.6318 36.0951 47.4773 34.9328C46.641 34.4792 45.7763 35.2872 45.9606 36.0951C46.0173 36.3361 46.0457 36.577 46.1449 36.7897C47.7608 40.2482 52.5801 40.2199 52.5801 40.2199Z" fill="url(#paint8_radial)"/>
<path d="M48.6111 26.0738C48.6394 24.8548 49.986 24.1319 52.2539 24.1886C54.1816 24.2453 58.3914 25.4218 61.198 29.263C61.7224 29.9718 60.872 30.3261 60.3617 29.8584C58.6182 28.285 53.8698 26.1872 50.1136 26.499C48.5969 26.6124 48.6111 26.0738 48.6111 26.0738Z" fill="url(#paint9_linear)"/>
<path d="M47.463 34.9328C49.6175 36.1093 52.4949 37.7677 58.0229 35.4006C58.7742 35.0746 59.1569 35.4147 59.2419 35.8116C58.4907 35.3297 57.3 37.711 52.665 37.711C47.3071 37.711 46.4991 34.7627 45.918 35.8258C45.9605 35.1171 46.7259 34.5217 47.463 34.9328Z" fill="url(#paint10_linear)"/>
<defs>
<radialGradient id="paint0_radial" cx="0" cy="0" r="1" gradientUnits="userSpaceOnUse" gradientTransform="translate(34.479 28.1245) scale(36.7641)">
<stop stop-color="#FFDF30"/>
<stop offset="1" stop-color="#FFB82E"/>
</radialGradient>
<radialGradient id="paint1_radial" cx="0" cy="0" r="1" gradientUnits="userSpaceOnUse" gradientTransform="translate(34.479 28.1245) scale(28.924)">
<stop stop-color="#FFE95F"/>
<stop offset="1" stop-color="#FFBB47" stop-opacity="0"/>
</radialGradient>
<radialGradient id="paint2_radial" cx="0" cy="0" r="1" gradientUnits="userSpaceOnUse" gradientTransform="translate(23.872 48.0563) rotate(-2.7703) scale(12.8185 10.1427)">
<stop stop-color="#FF4C00"/>
<stop offset="0.1542" stop-color="#FF4C00"/>
<stop offset="0.1795" stop-color="#FF4C00"/>
<stop offset="0.3996" stop-color="#FA4C0B" stop-opacity="0.7318"/>
<stop offset="0.7799" stop-color="#EE4B27" stop-opacity="0.2683"/>
<stop offset="1" stop-color="#E64A3A" stop-opacity="0"/>
</radialGradient>
<radialGradient id="paint3_radial" cx="0" cy="0" r="1" gradientUnits="userSpaceOnUse" gradientTransform="translate(57.0634 48.0564) rotate(-177.23) scale(12.8185 10.1427)">
<stop stop-color="#FF4C00"/>
<stop offset="0.1542" stop-color="#FF4C00"/>
<stop offset="0.1795" stop-color="#FF4C00"/>
<stop offset="0.3996" stop-color="#FA4C0B" stop-opacity="0.7318"/>
<stop offset="0.7799" stop-color="#EE4B27" stop-opacity="0.2683"/>
<stop offset="1" stop-color="#E64A3A" stop-opacity="0"/>
</radialGradient>
<radialGradient id="paint4_radial" cx="0" cy="0" r="1" gradientUnits="userSpaceOnUse" gradientTransform="translate(28.3604 37.4994) rotate(-179.852) scale(5.1781 2.49799)">
<stop offset="0.00132565" stop-color="#7A4400"/>
<stop offset="1" stop-color="#643800"/>
</radialGradient>
<linearGradient id="paint5_linear" x1="25.9489" y1="28.2901" x2="25.8577" y2="25.0802" gradientUnits="userSpaceOnUse">
<stop offset="0.00132565" stop-color="#3C2200"/>
<stop offset="1" stop-color="#7A4400"/>
</linearGradient>
<linearGradient id="paint6_linear" x1="40.475" y1="51.5431" x2="40.475" y2="56.0926" gradientUnits="userSpaceOnUse">
<stop offset="0.00132565" stop-color="#3C2200"/>
<stop offset="1" stop-color="#512D00"/>
</linearGradient>
<linearGradient id="paint7_linear" x1="21.6931" y1="36.2574" x2="35.0194" y2="36.2574" gradientUnits="userSpaceOnUse">
<stop offset="0.00132565" stop-color="#3C2200"/>
<stop offset="1" stop-color="#512D00"/>
</linearGradient>
<radialGradient id="paint8_radial" cx="0" cy="0" r="1" gradientUnits="userSpaceOnUse" gradientTransform="translate(52.5806 37.4994) rotate(-0.147672) scale(5.1781 2.49799)">
<stop offset="0.00132565" stop-color="#7A4400"/>
<stop offset="1" stop-color="#643800"/>
</radialGradient>
<linearGradient id="paint9_linear" x1="54.9931" y1="28.2902" x2="55.0843" y2="25.0803" gradientUnits="userSpaceOnUse">
<stop offset="0.00132565" stop-color="#3C2200"/>
<stop offset="1" stop-color="#7A4400"/>
</linearGradient>
<linearGradient id="paint10_linear" x1="59.2568" y1="36.2574" x2="45.9305" y2="36.2574" gradientUnits="userSpaceOnUse">
<stop offset="0.00132565" stop-color="#3C2200"/>
<stop offset="1" stop-color="#512D00"/>
</linearGradient>
</defs>
</svg>
