<svg width="80" height="80" viewBox="0 0 80 80" fill="none" xmlns="http://www.w3.org/2000/svg">
<path d="M49.1125 36.4219C45.2096 40.8684 45.6651 47.6494 50.1271 51.5575C54.5891 55.4708 61.3649 55.0309 65.2679 50.5844C69.1709 46.1379 68.7154 39.3569 64.2533 35.4487C59.7913 31.5406 53.0103 31.9702 49.1125 36.4219Z" fill="url(#paint0_linear)"/>
<path d="M49.1125 36.4219C45.2096 40.8684 45.6651 47.6494 50.1271 51.5575C54.5891 55.4708 61.3649 55.0309 65.2679 50.5844C69.1709 46.1379 68.7154 39.3569 64.2533 35.4487C59.7913 31.5406 53.0103 31.9702 49.1125 36.4219Z" fill="url(#paint1_linear)"/>
<path d="M18.9138 40.4489C13.0231 38.2386 6.02466 17 11.1803 17C16.336 17 41.2549 20.6804 47.0265 19.9453C52.7982 19.2103 64.7659 17.7972 69.8594 22.8907C74.9529 27.9842 73.9125 45.5993 73.9125 49.5282C73.9125 53.457 70.4754 55.1756 66.6708 54.5596C62.8662 53.9436 51.8768 43.2027 51.8768 39.3981C51.8768 39.3981 57.7053 38.1092 59.5481 38.7252C61.3909 39.3411 60.6507 41.5463 60.6507 41.5463C60.6507 41.5463 64.1499 45.0455 64.7038 45.5993C64.7038 45.5993 61.8827 42.5298 61.8827 40.4437C61.8827 38.3576 61.6394 35.4123 63.9687 33.6937C63.9687 33.6937 60.102 38.1143 56.3595 38.1143C51.6956 38.1143 52.4928 37.3172 51.6956 38.1143L18.9138 40.4489Z" fill="url(#paint2_linear)"/>
<path d="M11.1802 17C6.02455 17 5.2895 28.9056 6.51629 34.553C7.74309 40.2004 13.023 38.2334 18.9137 40.4437C24.8043 42.654 27.7756 50.0614 33.4023 54.3163C38.4337 58.1209 40.3748 55.4448 56.3594 63.1575C59.0252 64.4464 66.6707 63.4319 64.7917 53.8039C56.8511 49.9009 50.8983 38.9115 51.6955 38.1143C51.6955 38.1143 43.5324 38.1143 40.0021 38.1143C36.4718 38.1143 20.8755 17 11.1802 17Z" fill="url(#paint3_linear)"/>
<path d="M64.9106 58.3904V58.4318C63.9064 63.7324 58.5075 64.1983 56.3489 63.1578C40.3644 55.4451 38.4232 58.1264 33.3918 54.3166C27.7703 50.0668 24.7991 42.6543 18.9084 40.444C13.0177 38.2337 7.73782 40.2007 6.51103 34.5533C6.34021 33.7665 6.2108 32.8554 6.1228 31.8771C10.4399 32.8554 15.2228 31.1162 19.7677 31.1162C25.4151 31.1162 32.165 49.161 43.3408 54.6841C54.5165 60.2073 64.9106 58.3904 64.9106 58.3904Z" fill="url(#paint4_linear)"/>
<path d="M50.215 53.9123C53.1242 53.7777 58.1608 54.2125 60.1744 50.6305C61.603 51.8883 63.1456 53.0012 64.7865 53.8088C66.6655 63.4368 59.02 64.4513 56.3542 63.1624C40.3696 55.4497 38.4285 58.131 33.3971 54.3212C28.5986 50.6926 25.7257 44.7708 21.3207 41.7375L21.3103 41.7168C21.3103 41.7168 24.1832 43.2076 30.8141 49.2846C37.4502 55.3668 46.6589 54.0779 50.215 53.9123Z" fill="url(#paint5_linear)"/>
<path d="M6.47998 34.3613C8.74205 34.6667 11.998 34.8738 15.844 34.4338C23.3342 33.5745 31.0676 51.1275 35.364 53.9538C39.6604 56.7749 53.533 59.6012 57.9536 59.6012C61.2251 59.6012 63.6787 58.1829 65.04 55.7086C65.6043 63.556 58.8388 64.3583 56.3593 63.1626C40.3747 55.4498 38.4336 58.1311 33.4022 54.3213C27.7807 50.0716 24.8094 42.659 18.9188 40.4487C13.0281 38.2384 7.74819 40.2054 6.52139 34.558C6.50069 34.4959 6.49033 34.4234 6.47998 34.3613Z" fill="url(#paint6_linear)"/>
<path d="M73.9124 49.5333C73.9124 53.4621 70.4753 55.1807 66.6707 54.5647C64.4655 54.2075 59.8534 50.4495 56.3594 46.6087C62.8919 51.5883 66.2462 51.5003 68.7567 51.2467C73.7933 50.7394 71.9505 43.1457 71.9505 39.6465C71.9505 36.1472 73.1773 29.1644 69.8645 22.8906C74.9528 27.9893 73.9124 45.6044 73.9124 49.5333Z" fill="url(#paint7_linear)"/>
<path d="M10.7142 17.0722C10.8591 17.0308 11.0093 17.0049 11.1801 17.0049C16.3357 17.0049 41.2547 20.6853 47.0263 19.9502C52.7979 19.2152 64.7657 17.802 69.8592 22.8956C70.6305 23.6668 63.3525 18.2317 49.9716 20.6853C39.8105 22.5488 24.8042 17.2482 8.19849 18.8891C8.86106 17.9004 9.68928 17.2275 10.7142 17.0722Z" fill="url(#paint8_linear)"/>
<path d="M64.7864 53.8043C59.8689 55.2278 48.2532 42.2869 48.2532 34.9209C48.2532 33.3266 52.9067 35.4748 56.9701 35.4748C60.1484 35.4748 62.3121 33.3887 64.5224 32.5294C65.977 31.9652 61.8773 39.7712 65.1798 44.9579C67.5454 48.6693 63.4147 45.6049 62.5865 44.4972C61.7583 43.3946 58.3833 42.8408 58.3833 42.8408C58.3833 42.8408 59.1804 39.7091 56.9701 40.0766C54.7598 40.4441 52.9171 40.2992 52.9171 40.2992C52.9171 40.2992 60.1847 51.7803 64.7864 53.8043Z" fill="url(#paint9_linear)"/>
<path d="M56.3231 47.9701C59.7447 51.666 64.362 55.3153 64.8279 58.7679C65.1385 57.448 65.1799 55.8278 64.7865 53.809C64.7761 53.8038 64.771 53.7986 64.7606 53.7935C64.3672 53.5968 63.9738 53.3845 63.5908 53.1568C63.4924 53.0998 63.3941 53.0273 63.2957 52.9704C63.0007 52.7892 62.7108 52.6081 62.4209 52.4062C62.3329 52.3441 62.2501 52.282 62.1621 52.2198C61.867 52.0076 61.572 51.7954 61.2821 51.5676C61.2252 51.5262 61.1734 51.4745 61.1165 51.433C60.7955 51.1794 60.4798 50.9154 60.1744 50.6462C60.1588 50.6359 60.1485 50.6204 60.1329 50.61C56.0695 47.0228 53.0362 42.2295 52.0009 39.7397C53.0413 39.1444 55.6813 39.3307 57.6535 39.3307C59.6308 39.3307 59.3358 42.0224 59.8379 42.0949C60.34 42.1674 61.5357 43.1302 62.3329 44.0205C63.4355 45.2525 65.5888 46.2619 65.1281 45.5527C64.6674 44.8487 62.7056 41.9293 62.7056 40.2418C62.7056 38.5543 64.2481 35.4536 63.5649 34.3718C62.8816 33.2899 60.1329 36.1317 57.5085 36.96C54.0766 38.0418 52.0268 35.3346 51.0433 37.2964C50.0649 39.2531 52.8861 44.2535 56.3231 47.9701ZM51.8818 39.4032C51.6282 38.7251 51.5506 38.254 51.6903 38.1143C52.4875 37.3171 51.6903 38.1143 56.3542 38.1143C58.9786 38.1143 61.6548 35.9506 63.0265 34.6513C61.7324 36.375 61.8774 38.7044 61.8774 40.4488C61.8774 42.5349 64.6985 45.6045 64.6985 45.6045C64.1446 45.0506 60.6454 41.5514 60.6454 41.5514C60.6454 41.5514 61.3805 39.3411 59.5428 38.7303C57.7156 38.1195 51.9388 39.3929 51.8818 39.4032Z" fill="url(#paint10_linear)"/>
<path d="M51.8767 39.4031C52.7567 39.0874 53.6781 38.9165 54.5943 38.7768C55.5157 38.6318 56.4371 38.5128 57.374 38.461C58.285 38.4403 59.2996 38.3316 60.1589 38.8958C61.0285 39.5222 61.0233 40.7076 60.7541 41.5772L60.749 41.5875L60.7231 41.484L64.7917 45.5216L64.6105 45.6924C63.8651 44.859 63.187 43.9687 62.6176 43.0007C62.3329 42.5193 62.0845 42.0068 61.9136 41.4633C61.7221 40.9198 61.7273 40.3141 61.7273 39.7758C61.7169 38.6681 61.7377 37.5293 62.0638 36.4319C62.3692 35.3345 63.0214 34.3458 63.8496 33.5694C63.9169 33.5021 64.0308 33.5021 64.0981 33.5746C64.1602 33.6418 64.1602 33.7454 64.1032 33.8127C63.1094 34.8997 62.012 35.878 60.7852 36.6907C59.5636 37.4879 58.1919 38.1815 56.6804 38.2695C55.2154 38.3109 53.7298 38.2436 52.3115 37.9382C52.151 37.9071 52.1148 37.9537 51.9647 38.0832C51.7991 38.2384 51.7835 38.2488 51.7939 38.4196C51.8198 38.7406 51.9388 39.0874 52.0631 39.4186C52.3219 40.0864 52.6428 40.7334 52.9896 41.365C54.3872 43.891 56.111 46.2463 58.0728 48.3737C60.0398 50.496 62.276 52.3543 64.7969 53.8089C62.1052 52.6598 59.8431 50.6927 57.8554 48.5756C55.8728 46.4326 54.1284 44.0722 52.7101 41.5202C52.3633 40.8784 52.0268 40.2261 51.7628 39.5377C51.6334 39.1909 51.5092 38.8441 51.4678 38.4403C51.4729 38.3316 51.4471 38.2333 51.5351 38.0832C51.6231 37.9382 51.6696 37.933 51.7421 37.8502C51.8353 37.7208 52.151 37.5448 52.3581 37.6121C53.7816 37.9175 55.2258 37.9693 56.6596 37.9279C58.0676 37.845 59.3979 37.1773 60.5833 36.3957C61.7739 35.5985 62.8661 34.6357 63.8393 33.5901L64.0877 33.8334C63.2957 34.5684 62.6746 35.4898 62.3795 36.5354C62.0638 37.5759 62.0275 38.6784 62.0327 39.781C61.9343 40.9043 62.2967 41.9085 62.8609 42.8713C63.4096 43.8186 64.0774 44.7089 64.802 45.5319C64.8486 45.5837 64.8435 45.6613 64.7969 45.7079C64.7503 45.7545 64.6726 45.7493 64.6261 45.7027L60.5885 41.6341C60.5626 41.6082 60.5523 41.5616 60.5626 41.5306V41.5254C60.8059 40.6817 60.7386 39.6257 60.0088 39.1184C59.2841 38.6267 58.2902 38.6991 57.3895 38.725C55.5364 38.7975 53.7298 39.2323 51.8767 39.4031Z" fill="#804B24"/>
<path d="M60.7696 41.0132L60.7334 41.5774C60.7334 41.593 60.723 41.6085 60.7075 41.6188L60.6816 41.6343C60.0967 41.9708 59.5169 42.3176 58.9786 42.7007C58.4402 43.0889 57.9278 43.4979 57.5654 44.088C57.6948 43.3891 58.228 42.8301 58.7715 42.416C59.3306 41.9967 59.9569 41.6861 60.6195 41.4739L60.5677 41.5308L60.7696 41.0132Z" fill="#804B24"/>
<path d="M70.5943 52.0487C74.7147 50.7287 73.2343 36.2763 72.9289 30.3184L73.0221 30.3856C74.4041 37.529 73.9072 46.8102 73.9072 49.5278C73.9072 53.4566 70.4701 55.1752 66.6655 54.5592C65.242 54.3314 62.8246 52.6802 60.3503 50.5165C62.7522 51.9451 66.9243 53.2237 70.5943 52.0487Z" fill="url(#paint11_linear)"/>
<path d="M7.04932 36.106C10.6055 37.281 14.6534 36.2768 17.314 36.2768C20.6269 36.2768 28.7331 49.4143 32.781 52.9705C36.8289 56.5267 48.1288 58.4937 53.5278 60.704C58.7818 62.8522 63.2024 61.7289 64.9106 58.3901C63.9271 63.7218 58.5126 64.2032 56.3541 63.1628C40.3695 55.45 38.4284 58.1313 33.3969 54.3215C27.7754 50.0717 24.8042 42.6592 18.9135 40.4489C13.6492 38.4767 8.88692 39.8174 7.04932 36.106Z" fill="url(#paint12_linear)"/>
<path d="M67.0745 37.1001C66.5673 32.8089 68.0995 26.4679 67.1367 21.0327C68.1667 21.5296 69.0985 22.1301 69.8594 22.8962C74.9529 27.9897 73.9125 45.6049 73.9125 49.5337C73.9125 53.4626 70.4754 55.1811 66.6708 54.5651C65.651 54.3995 64.1137 53.4988 62.4106 52.2099C72.4372 48.6744 67.9286 44.347 67.0745 37.1001Z" fill="url(#paint13_linear)"/>
<path opacity="0.75" d="M31.8443 29.2373C28.7488 31.313 30.8038 37.4159 34.3962 43.2238C37.3364 47.9705 43.5066 51.3714 46.4778 49.2646C49.449 47.163 51.7059 44.7456 44.8524 35.3609C40.8149 29.8274 34.8673 27.2081 31.8443 29.2373Z" fill="url(#paint14_radial)"/>
<path opacity="0.75" d="M10.8178 22.0519C10.3105 24.2829 24.0899 26.5761 39.4585 28.1393C52.0267 29.4127 66.593 28.776 66.888 26.5812C67.1831 24.3865 65.9356 22.3056 39.6656 20.1833C24.1831 18.9254 11.3147 19.8727 10.8178 22.0519Z" fill="url(#paint15_radial)"/>
<path opacity="0.75" d="M57.1617 43.995C56.2506 45.1131 57.876 47.2769 60.0501 49.1818C61.8307 50.7347 64.6674 51.4438 65.5267 50.3309C66.3859 49.218 66.9243 48.0533 63.0058 45.0821C60.6971 43.3325 58.0468 42.9028 57.1617 43.995Z" fill="url(#paint16_radial)"/>
<defs>
<linearGradient id="paint0_linear" x1="65.2699" y1="50.5968" x2="49.1161" y2="36.4329" gradientUnits="userSpaceOnUse">
<stop offset="0.00132565" stop-color="#FFCB4B"/>
<stop offset="1" stop-color="#FFD748"/>
</linearGradient>
<linearGradient id="paint1_linear" x1="35.0314" y1="114.968" x2="61.1799" y2="30.6304" gradientUnits="userSpaceOnUse">
<stop stop-color="#FFBC47" stop-opacity="0"/>
<stop offset="1" stop-color="#C86F34"/>
</linearGradient>
<linearGradient id="paint2_linear" x1="70.5118" y1="-7.12763" x2="46.2048" y2="28.2281" gradientUnits="userSpaceOnUse">
<stop offset="0.00132565" stop-color="#F0C492"/>
<stop offset="1" stop-color="#F8DBBA"/>
</linearGradient>
<linearGradient id="paint3_linear" x1="33.1406" y1="53.2586" x2="35.5959" y2="41.4734" gradientUnits="userSpaceOnUse">
<stop offset="0.00132565" stop-color="#F0C492"/>
<stop offset="1" stop-color="#F8DBBA"/>
</linearGradient>
<linearGradient id="paint4_linear" x1="42.9736" y1="31.8879" x2="13.5106" y2="85.842" gradientUnits="userSpaceOnUse">
<stop stop-color="#FFBC47" stop-opacity="0"/>
<stop offset="1" stop-color="#C86F34"/>
</linearGradient>
<linearGradient id="paint5_linear" x1="50.7678" y1="56.1064" x2="62.9213" y2="69.1807" gradientUnits="userSpaceOnUse">
<stop stop-color="#FFBC47" stop-opacity="0"/>
<stop offset="1" stop-color="#C86F34"/>
</linearGradient>
<linearGradient id="paint6_linear" x1="47.577" y1="20.2033" x2="4.11888" y2="116.941" gradientUnits="userSpaceOnUse">
<stop stop-color="#E6AF74" stop-opacity="0"/>
<stop offset="1" stop-color="#E6AF74"/>
</linearGradient>
<linearGradient id="paint7_linear" x1="101.571" y1="-32.4167" x2="-7.70474" y2="210.831" gradientUnits="userSpaceOnUse">
<stop stop-color="#FFBC47" stop-opacity="0"/>
<stop offset="1" stop-color="#C86F34"/>
</linearGradient>
<linearGradient id="paint8_linear" x1="38.4443" y1="27.2324" x2="42.4955" y2="-14.5069" gradientUnits="userSpaceOnUse">
<stop stop-color="#FFBC47" stop-opacity="0"/>
<stop offset="1" stop-color="#C86F34"/>
</linearGradient>
<linearGradient id="paint9_linear" x1="57.0762" y1="67.8094" x2="57.0762" y2="3.35713" gradientUnits="userSpaceOnUse">
<stop stop-color="#E6AF74" stop-opacity="0"/>
<stop offset="1" stop-color="#E6AF74"/>
</linearGradient>
<linearGradient id="paint10_linear" x1="31.6083" y1="27.9744" x2="77.8176" y2="54.2873" gradientUnits="userSpaceOnUse">
<stop stop-color="#FFBC47" stop-opacity="0"/>
<stop offset="1" stop-color="#C86F34"/>
</linearGradient>
<linearGradient id="paint11_linear" x1="60.0222" y1="-30.4903" x2="73.0351" y2="106.022" gradientUnits="userSpaceOnUse">
<stop stop-color="#FFBC47" stop-opacity="0"/>
<stop offset="1" stop-color="#C86F34"/>
</linearGradient>
<linearGradient id="paint12_linear" x1="43.7991" y1="7.86629" x2="31.0318" y2="72.1939" gradientUnits="userSpaceOnUse">
<stop stop-color="#FFBA47" stop-opacity="0"/>
<stop offset="1" stop-color="#C66F34"/>
</linearGradient>
<linearGradient id="paint13_linear" x1="60.5076" y1="37.382" x2="101.388" y2="40.2055" gradientUnits="userSpaceOnUse">
<stop stop-color="#FFBA47" stop-opacity="0"/>
<stop offset="1" stop-color="#C66F34"/>
</linearGradient>
<radialGradient id="paint14_radial" cx="0" cy="0" r="1" gradientUnits="userSpaceOnUse" gradientTransform="translate(39.4228 39.0638) rotate(-126.156) scale(12.7318 6.65879)">
<stop stop-color="#F8E6D2"/>
<stop offset="1" stop-color="#F8E6D2" stop-opacity="0"/>
</radialGradient>
<radialGradient id="paint15_radial" cx="0" cy="0" r="1" gradientUnits="userSpaceOnUse" gradientTransform="translate(38.8717 24.1363) rotate(-175.382) scale(28.8744 4.04621)">
<stop stop-color="#F8E6D2"/>
<stop offset="1" stop-color="#F8E6D2" stop-opacity="0"/>
</radialGradient>
<radialGradient id="paint16_radial" cx="0" cy="0" r="1" gradientUnits="userSpaceOnUse" gradientTransform="translate(61.3907 47.0765) rotate(-142.868) scale(5.38544 2.57247)">
<stop stop-color="#F8E6D2"/>
<stop offset="1" stop-color="#F8E6D2" stop-opacity="0"/>
</radialGradient>
</defs>
</svg>
