<svg width="80" height="80" viewBox="0 0 80 80" fill="none" xmlns="http://www.w3.org/2000/svg">
<path d="M9.03845 21.6092C9.91801 8.3958 20.8326 0 35.4652 0C50.0979 0 75.4252 7.57621 67.2293 52.074L64.2308 51.0945C65.4502 44.4178 62.2918 24.6277 35.6451 24.6277L9.03845 21.6092Z" fill="url(#paint0_linear)"/>
<path d="M11.7371 21.9291L11.977 21.949L13.2364 22.089L20.4527 17.4513C16.3348 12.8336 16.8146 7.4363 20.4727 3.61821C14.6157 6.85659 10.5977 12.134 9.37828 18.9306C9.35829 19.0905 9.31831 19.2504 9.29832 19.4103C9.17838 20.13 9.09842 20.8696 9.03845 21.6092L11.4373 21.8891L11.7371 21.9291Z" fill="url(#paint1_linear)"/>
<path d="M56.2149 30.8446C63.991 37.2414 64.9905 46.8566 64.2109 51.1144L67.2094 52.094C67.6692 49.6352 68.009 47.2764 68.2689 45.0375C70.4278 25.3073 61.5922 27.3263 56.2149 30.8446Z" fill="url(#paint2_linear)"/>
<path d="M57.8941 29.865L57.4143 31.904C63.6112 37.7811 64.8106 45.7771 64.3708 50.1349L65.7501 48.9355C64.7906 45.1174 65.99 42.1989 65.99 39.0604C65.99 35.922 64.6707 31.7041 66.05 29.985C63.8511 27.8061 60.6527 28.4457 57.8941 29.865Z" fill="url(#paint3_linear)"/>
<path d="M67.5092 61.4693C67.5092 61.4893 67.5092 61.5093 67.4893 61.5292C67.4693 61.5692 67.5492 61.5892 67.5692 61.5492L67.7091 61.2294L67.989 61.4293C68.029 61.4493 68.069 61.4093 68.049 61.3693C68.029 61.3493 68.009 61.3294 67.989 61.3094C67.929 61.2494 67.8891 61.1894 67.8691 61.1294L68.2089 61.3493C68.2489 61.3693 68.2889 61.3294 68.2489 61.2894C68.2289 61.2694 68.2089 61.2494 68.1889 61.2294C68.049 61.0895 68.009 60.9096 68.049 60.7496C68.1889 60.8496 68.2889 61.0095 68.2689 61.2094C68.2689 61.2294 68.2689 61.2494 68.2689 61.2694C68.2689 61.3094 68.3288 61.3294 68.3488 61.2894L68.4488 60.9495L68.7486 61.1294C68.7686 61.1494 68.7886 61.1295 68.8086 61.1095C68.8286 61.1095 68.8486 61.0895 68.8486 61.0695C68.8686 61.0895 68.9085 61.0895 68.9085 61.0495L68.9885 60.6897L69.3283 60.8496C69.3683 60.8696 69.4083 60.8096 69.3683 60.7896C69.3083 60.7496 69.2684 60.7097 69.2084 60.6697C69.1684 60.6297 69.1284 60.5897 69.0885 60.5497L69.5282 60.7296C69.5482 60.7496 69.5882 60.7097 69.5882 60.6897C69.6082 60.7097 69.6482 60.6897 69.6482 60.6697L69.6882 60.3099L70.028 60.4298C70.068 60.4498 70.1079 60.3898 70.068 60.3498L70.1079 60.3698C70.1279 60.3698 70.1279 60.3698 70.1479 60.3698C70.1679 60.3698 70.1679 60.3498 70.1679 60.3298V59.93L70.5677 60.03C70.6077 60.05 70.6277 59.97 70.5877 59.95C70.5677 59.95 70.5477 59.93 70.5277 59.93C70.4478 59.8901 70.3878 59.8501 70.3478 59.8101L70.7476 59.8901C70.7676 59.8901 70.7676 59.8901 70.7876 59.8701C70.8076 59.8701 70.8076 59.8501 70.8076 59.8301L70.7676 59.4303L71.1674 59.4703C71.1874 59.4703 71.2074 59.4503 71.2074 59.4303C71.2274 59.4303 71.2474 59.4103 71.2274 59.3903C71.2474 59.3903 71.2874 59.3703 71.2674 59.3503L71.1874 58.9905L71.5472 59.0105C71.5872 59.0105 71.6072 58.9505 71.5472 58.9305C71.5272 58.9305 71.5272 58.9305 71.5072 58.9305C71.4273 58.9106 71.3473 58.8706 71.3073 58.8306H71.6872C71.7271 58.8306 71.7271 58.7906 71.7271 58.7706C71.7471 58.7706 71.7871 58.7506 71.7671 58.7107L71.6472 58.3508L72.007 58.3308C72.027 58.3308 72.047 58.3109 72.047 58.3109C72.067 58.2909 72.067 58.2509 72.027 58.2309H72.007C71.987 58.2309 71.967 58.2309 71.927 58.2309C71.7671 58.2109 71.6472 58.1309 71.5872 58.031C71.5672 57.991 71.5472 57.971 71.5272 57.931C71.6872 57.9111 71.8671 57.991 71.967 58.1509C71.987 58.1709 71.987 58.1909 72.007 58.2109C72.027 58.2509 72.087 58.2109 72.067 58.1709L71.927 57.8511L72.2669 57.7911C72.3068 57.7911 72.3068 57.7112 72.2669 57.7112H72.2469C72.2269 57.7112 72.2069 57.7112 72.1669 57.7112C72.087 57.7112 72.027 57.6912 71.967 57.6712L72.3668 57.5912C72.4068 57.5912 72.4068 57.5113 72.3668 57.5113H72.3468C72.3268 57.5113 72.3068 57.5113 72.2669 57.5113C72.067 57.5113 71.907 57.4113 71.8271 57.2714C71.987 57.2314 72.1669 57.2914 72.3068 57.4513C72.3268 57.4713 72.3268 57.4913 72.3468 57.5113C72.3868 57.5512 72.4268 57.5113 72.4068 57.4713L72.2269 57.1514L72.5667 57.0515C72.5867 57.0515 72.6067 57.0315 72.5867 57.0115C72.6067 56.9915 72.6067 56.9715 72.5867 56.9515C72.6067 56.9515 72.6267 56.9116 72.6067 56.8916L72.4068 56.5917L72.7466 56.4718C72.7866 56.4518 72.7666 56.3918 72.7266 56.3918H72.7066C72.6467 56.4118 72.5667 56.4118 72.5067 56.4318C72.4468 56.4318 72.3868 56.4318 72.3468 56.4318L72.7866 56.2519C72.8266 56.2319 72.8266 56.1919 72.7866 56.1919C72.8066 56.1919 72.8266 56.1519 72.8066 56.1319L72.5667 55.8521L72.9065 55.6922C72.9465 55.6722 72.9265 55.6122 72.8866 55.6122L72.9265 55.5922C72.9465 55.5722 72.9465 55.5522 72.9465 55.5322C72.9465 55.5322 72.9465 55.5123 72.9265 55.5123L72.6467 55.2324L72.9865 55.0125C73.0265 54.9925 72.9865 54.9325 72.9465 54.9525C72.9265 54.9525 72.9065 54.9725 72.8866 54.9725C72.8066 54.9925 72.7466 55.0125 72.6667 55.0125L73.0065 54.7926C73.0265 54.7726 73.0265 54.7526 73.0265 54.7326C73.0265 54.7326 73.0265 54.7127 73.0065 54.7127L72.6867 54.4728L73.0065 54.2129C73.0265 54.1929 73.0265 54.1729 73.0065 54.1529C73.0265 54.1329 73.0065 54.093 72.9865 54.093C73.0065 54.073 73.0065 54.053 72.9865 54.033L72.6867 53.8331L72.9665 53.5732C73.0065 53.5333 72.9665 53.4933 72.9265 53.5133C72.9065 53.5133 72.9065 53.5332 72.8866 53.5332C72.8266 53.5732 72.7466 53.5932 72.6667 53.6132L72.9465 53.3333C72.9665 53.3134 72.9465 53.2734 72.9265 53.2734C72.9465 53.2534 72.9465 53.2334 72.9265 53.2134L72.6067 53.0535L72.8466 52.7736C72.8666 52.7536 72.8666 52.7337 72.8466 52.7137C72.8466 52.6937 72.8066 52.6737 72.7866 52.6937C72.7666 52.7137 72.7466 52.7336 72.7266 52.7536C72.6067 52.8536 72.4668 52.8736 72.3468 52.8736C72.3068 52.8736 72.2669 52.8536 72.2269 52.8336C72.2269 52.8336 72.2269 52.8336 72.2469 52.8136L72.2669 52.7936C72.3668 52.6937 72.5267 52.6337 72.7066 52.6737C72.7266 52.6737 72.7666 52.6937 72.7866 52.6937C72.8266 52.7137 72.8466 52.6337 72.8066 52.6137L72.4868 52.4738L72.6867 52.1939C72.7066 52.1539 72.6667 52.114 72.6267 52.1339C72.6067 52.1539 72.5867 52.1739 72.5667 52.1939C72.5067 52.2539 72.4468 52.2939 72.3868 52.3139L72.6267 51.974C72.6467 51.934 72.6067 51.8941 72.5667 51.934C72.5467 51.954 72.5267 51.974 72.5067 51.994C72.3668 52.134 72.1869 52.1739 72.027 52.1339C72.027 52.1339 72.027 52.114 72.047 52.114L72.067 52.094C72.1669 51.974 72.3068 51.8941 72.5067 51.9141C72.5267 51.9141 72.5667 51.9141 72.5867 51.9141C72.6267 51.9141 72.6467 51.8541 72.6067 51.8341L72.2669 51.7341L72.4468 51.4343C72.4668 51.4143 72.4468 51.3943 72.4268 51.3743C72.4268 51.3543 72.4068 51.3343 72.3868 51.3343C72.4068 51.3144 72.4068 51.2744 72.3668 51.2744L72.007 51.1944L72.1669 50.8746C72.1869 50.8346 72.1269 50.7946 72.1069 50.8346C72.067 50.8946 72.027 50.9545 71.987 50.9945C71.947 51.0345 71.907 51.0745 71.8671 51.1145L72.047 50.6747C72.067 50.6547 72.027 50.6147 72.007 50.6147C72.027 50.5947 72.007 50.5547 71.987 50.5547L71.6272 50.5148L71.7471 50.1749C71.7671 50.1349 71.7071 50.095 71.6672 50.1349L71.6872 50.095C71.6872 50.075 71.6872 50.075 71.6872 50.055C71.6872 50.035 71.6672 50.015 71.6472 50.015H71.2274L71.3273 49.6352C71.3473 49.5952 71.2674 49.5752 71.2474 49.6152C71.2274 49.6352 71.2274 49.6752 71.2074 49.6952C71.1674 49.7751 71.1274 49.8351 71.0875 49.8751L71.1674 49.4753C71.1674 49.4553 71.1674 49.4553 71.1674 49.4353C71.1674 49.4153 71.1474 49.3953 71.1274 49.3953L70.7276 49.4353L70.7676 49.0355C70.7676 49.0155 70.7476 48.9955 70.7276 48.9955C70.7276 48.9755 70.7076 48.9555 70.6877 48.9755C70.7076 48.9555 70.6877 48.9156 70.6477 48.9156L70.2879 48.9955L70.3078 48.6357C70.3078 48.5957 70.2479 48.5757 70.2279 48.6357C70.2279 48.6557 70.2279 48.6557 70.2279 48.6757C70.2079 48.7556 70.1679 48.8356 70.1279 48.8956V48.5158C70.1279 48.4758 70.088 48.4758 70.068 48.4758C70.068 48.4558 70.048 48.4158 70.028 48.4358L69.6682 48.5557L69.6482 48.1959C69.6482 48.1759 69.6282 48.1759 69.6282 48.1559C69.6082 48.116 69.5482 48.116 69.5482 48.1759V48.1959C69.5482 48.2159 69.5482 48.2359 69.5482 48.2759C69.5282 48.4358 69.4483 48.5557 69.3483 48.6357C69.3083 48.6557 69.2884 48.6757 69.2484 48.6757C69.2284 48.5158 69.3083 48.3358 69.4683 48.2359C69.4883 48.2159 69.5082 48.2159 69.5282 48.1959C69.5682 48.1759 69.5282 48.116 69.4883 48.1359L69.1684 48.2759L69.1084 47.9161C69.1084 47.8761 69.0285 47.8761 69.0285 47.9161V47.936C69.0285 47.956 69.0285 47.976 69.0285 48.016C69.0285 48.096 69.0085 48.1559 68.9885 48.2359L68.9085 47.8361C68.9085 47.7961 68.8286 47.7961 68.8286 47.8361V47.8561C68.8286 47.8761 68.8286 47.8961 68.8286 47.936C68.8286 48.1359 68.7286 48.2959 68.5687 48.3758C68.5287 48.2159 68.5887 48.036 68.7486 47.9161C68.7686 47.8961 68.7886 47.8761 68.8086 47.8761C68.8486 47.8361 68.8086 47.7961 68.7686 47.8161L68.4688 47.996L68.3688 47.6562C68.3688 47.6362 68.3488 47.6162 68.3288 47.6362C68.3088 47.6162 68.2889 47.6162 68.2689 47.6362C68.2689 47.6162 68.2289 47.5962 68.2089 47.6162L67.909 47.8161L67.7891 47.4763C67.7691 47.4363 67.7091 47.4563 67.7091 47.4963V47.5163C67.7291 47.5762 67.7291 47.6562 67.7491 47.7162C67.7491 47.7761 67.7491 47.8361 67.7491 47.8761L67.5692 47.4363C67.5492 47.3963 67.5292 47.4163 67.5092 47.4163C67.5092 47.3963 67.4693 47.3763 67.4493 47.3963L67.1694 47.6362L67.0095 47.3164C66.9895 47.2764 66.9295 47.2964 66.9295 47.3363L66.9095 47.2964C66.9095 47.2764 66.8896 47.2764 66.8696 47.2764C66.8496 47.2764 66.8496 47.2764 66.8296 47.2764L66.5497 47.5562L66.3298 47.2164C66.3098 47.1764 66.2499 47.2164 66.2699 47.2564C66.2699 47.2764 66.2899 47.2964 66.2899 47.3164C66.3098 47.3963 66.3298 47.4563 66.3298 47.5362L66.1099 47.1964C66.09 47.1764 66.09 47.1764 66.07 47.1764C66.05 47.1764 66.05 47.1764 66.03 47.1964L65.7701 47.5163L65.5102 47.1964C65.4903 47.1764 65.4703 47.1764 65.4503 47.1964C65.4303 47.1764 65.4103 47.1964 65.3903 47.2164C65.3703 47.1964 65.3503 47.1964 65.3303 47.2164L65.1304 47.5163L64.8706 47.2564C64.8306 47.2164 64.7906 47.2564 64.8106 47.2964C64.8106 47.3164 64.8306 47.3164 64.8306 47.3363C64.8706 47.4163 64.9105 47.4763 64.9105 47.5562L64.6307 47.2764C64.6107 47.2564 64.5707 47.2764 64.5707 47.2964C64.5507 47.2764 64.5107 47.2764 64.5107 47.2964L64.3508 47.6162L64.071 47.3763C64.051 47.3563 64.031 47.3563 64.031 47.3763C63.991 47.3763 63.971 47.4163 63.991 47.4363C64.011 47.4563 64.011 47.4763 64.031 47.4963C64.1509 47.6362 64.1709 47.7961 64.1309 47.956C64.1309 47.976 64.1109 47.996 64.1109 47.996C63.991 47.8961 63.911 47.7162 63.951 47.5163C63.951 47.4963 63.971 47.4763 63.971 47.4363C63.991 47.3963 63.911 47.3763 63.8911 47.4163L63.7511 47.7361L63.4713 47.5362C63.4313 47.5163 63.3913 47.5562 63.4113 47.5962C63.4313 47.6162 63.4513 47.6362 63.4513 47.6362C63.5112 47.6962 63.5512 47.7561 63.5712 47.8161L63.2314 47.5962C63.1914 47.5762 63.1514 47.6162 63.1914 47.6562C63.2114 47.6762 63.2314 47.6962 63.2514 47.6962C63.4113 47.8361 63.4313 48.016 63.3913 48.1759C63.2514 48.076 63.1714 47.936 63.1914 47.7162C63.1914 47.6962 63.1914 47.6762 63.1914 47.6362C63.1914 47.5962 63.1314 47.5762 63.1114 47.6162L63.0115 47.956L62.7116 47.7761C62.6917 47.7561 62.6717 47.7761 62.6517 47.7961C62.6317 47.7961 62.6117 47.8161 62.6117 47.8361C62.5917 47.8161 62.5517 47.8361 62.5517 47.8561L62.4918 48.2159L62.1519 48.056C62.1119 48.036 62.072 48.096 62.1119 48.116C62.1719 48.1559 62.2319 48.1959 62.2719 48.2359C62.3118 48.2759 62.3518 48.3159 62.3918 48.3558L61.952 48.1759C61.912 48.1559 61.8921 48.1959 61.8921 48.2159C61.8721 48.1959 61.8321 48.2159 61.8321 48.2559L61.7921 48.6157L61.4523 48.4958C61.4123 48.4758 61.3723 48.5357 61.4123 48.5757L61.3523 48.5557C61.3323 48.5557 61.3123 48.5557 61.3123 48.5757C61.2924 48.5757 61.2924 48.5957 61.2924 48.6157V49.0155L60.8926 48.9156C60.8526 48.8956 60.8326 48.9755 60.8726 48.9955C60.8926 48.9955 60.9125 49.0155 60.9325 49.0155C61.0125 49.0555 61.0725 49.0955 61.1124 49.1354L60.7126 49.0555C60.6927 49.0555 60.6727 49.0555 60.6727 49.0755C60.6527 49.0755 60.6527 49.0955 60.6527 49.1155L60.6927 49.5153L60.2929 49.4753C60.2729 49.4753 60.2529 49.4953 60.2529 49.5153C60.2329 49.5153 60.2129 49.5552 60.2329 49.5752C60.2129 49.5752 60.1729 49.5952 60.1929 49.6152L60.2729 49.975L59.913 49.955C59.8731 49.955 59.8531 50.015 59.913 50.035C59.933 50.035 59.933 50.035 59.953 50.035C60.033 50.055 60.093 50.095 60.1529 50.1349H59.7731C59.7331 50.1349 59.7331 50.1749 59.7331 50.1949C59.7131 50.1949 59.6732 50.2149 59.6932 50.2549L59.8131 50.5947L59.4533 50.6147C59.4333 50.6147 59.4133 50.6347 59.4133 50.6547C59.3933 50.6747 59.3933 50.7147 59.4333 50.7347H59.4533C59.4733 50.7347 59.4933 50.7347 59.5132 50.7347C59.7131 50.7546 59.8531 50.8746 59.913 51.0145V51.0345C59.7531 51.0545 59.5732 50.9745 59.4733 50.8146C59.4533 50.7946 59.4533 50.7746 59.4333 50.7546C59.4133 50.7147 59.3533 50.7546 59.3733 50.7946L59.5132 51.1145L59.1534 51.1744C59.1134 51.1744 59.1134 51.2544 59.1534 51.2544H59.1734C59.1934 51.2544 59.2134 51.2544 59.2334 51.2544C59.3133 51.2544 59.3733 51.2744 59.4533 51.2944L59.0535 51.3743C59.0135 51.3743 59.0135 51.4543 59.0535 51.4543H59.0735C59.0935 51.4543 59.1134 51.4543 59.1334 51.4543C59.3333 51.4543 59.4933 51.5542 59.5732 51.7142C59.4133 51.7541 59.2334 51.6942 59.0935 51.5342C59.0735 51.5143 59.0735 51.4943 59.0535 51.4743C59.0135 51.4343 58.9735 51.4743 58.9935 51.5143L59.1734 51.8141L58.8336 51.9141C58.8136 51.9141 58.7936 51.934 58.8136 51.954C58.7936 51.974 58.7936 51.994 58.8136 52.014C58.7936 52.014 58.7736 52.054 58.7936 52.074L58.9935 52.3738L58.6537 52.4938C58.6137 52.5138 58.6337 52.5737 58.6737 52.5737H58.6937C58.7536 52.5537 58.8336 52.5537 58.8936 52.5337C58.9535 52.5337 58.9935 52.5337 59.0535 52.5337L58.6137 52.7137C58.5737 52.7337 58.5937 52.7736 58.6137 52.7736C58.5937 52.7736 58.5737 52.8136 58.5937 52.8336L58.8336 53.1135L58.5137 53.2734C58.4738 53.2934 58.4937 53.3533 58.5337 53.3533L58.4738 53.3733C58.4538 53.3733 58.4538 53.3933 58.4538 53.4133C58.4538 53.4333 58.4538 53.4333 58.4538 53.4533L58.7336 53.7331L58.3938 53.953C58.3538 53.973 58.3938 54.033 58.4338 54.013C58.4538 54.013 58.4738 53.993 58.4938 53.993C58.5737 53.973 58.6337 53.953 58.7136 53.953L58.3738 54.1729C58.3538 54.1929 58.3538 54.1929 58.3538 54.2129C58.3538 54.2329 58.3538 54.2329 58.3738 54.2529L58.6937 54.5128L58.3738 54.7726C58.3538 54.7926 58.3538 54.8126 58.3738 54.8326C58.3538 54.8526 58.3738 54.8726 58.3938 54.8926C58.3738 54.9126 58.3538 54.9325 58.3938 54.9525L58.6937 55.1524L58.4338 55.3923C58.3938 55.4323 58.4338 55.4723 58.4738 55.4523C58.4938 55.4523 58.4938 55.4323 58.5137 55.4323C58.5737 55.3923 58.6537 55.3723 58.7336 55.3523L58.4538 55.6322C58.4338 55.6522 58.4538 55.6922 58.4738 55.6922C58.4538 55.7122 58.4538 55.7521 58.4738 55.7521L58.7936 55.9121L58.5537 56.1919C58.5337 56.2119 58.5337 56.2319 58.5537 56.2319C58.5537 56.2719 58.5937 56.2919 58.6137 56.2719C58.6337 56.2519 58.6537 56.2519 58.6737 56.2319C58.8336 56.112 58.9935 56.092 59.1534 56.1519C59.1534 56.1519 59.1534 56.1519 59.1734 56.1519C59.0735 56.2719 58.8936 56.3518 58.6937 56.3119C58.6737 56.3119 58.6537 56.3119 58.6337 56.2919C58.5937 56.2719 58.5737 56.3518 58.6137 56.3718L58.9335 56.5118L58.7336 56.7916C58.7136 56.8316 58.7536 56.8716 58.7936 56.8516C58.8136 56.8316 58.8336 56.8116 58.8336 56.8116C58.8935 56.7516 58.9535 56.7117 59.0135 56.6917L58.7936 57.0315C58.7736 57.0715 58.8136 57.1115 58.8536 57.0715C58.8736 57.0515 58.8936 57.0315 58.8936 57.0115C59.0335 56.8716 59.2134 56.8316 59.3733 56.8716C59.2734 57.0115 59.1334 57.1115 58.9135 57.0915C58.8936 57.0915 58.8736 57.0915 58.8536 57.0915C58.8136 57.0915 58.7936 57.1514 58.8336 57.1714L59.1734 57.2714L58.9935 57.5712C58.9735 57.5912 58.9935 57.6112 59.0135 57.6312C59.0135 57.6512 59.0335 57.6712 59.0535 57.6712C59.0335 57.6912 59.0335 57.7311 59.0735 57.7311L59.4333 57.7911L59.2734 58.1309C59.2534 58.1709 59.3133 58.2109 59.3333 58.1709C59.3733 58.111 59.4133 58.071 59.4533 58.011C59.4933 57.971 59.5332 57.9311 59.5732 57.8911L59.3933 58.3308C59.3733 58.3708 59.4133 58.3908 59.4333 58.3908C59.4133 58.4108 59.4333 58.4508 59.4533 58.4508L59.8131 58.4908L59.6932 58.8306C59.6732 58.8706 59.7331 58.9106 59.7731 58.8706L59.7531 58.9305C59.7531 58.9505 59.7531 58.9705 59.7731 58.9705C59.7731 58.9905 59.7931 58.9905 59.8131 58.9905H60.2129L60.1129 59.3903C60.093 59.4303 60.1729 59.4503 60.1929 59.4103C60.1929 59.3903 60.2129 59.3703 60.2129 59.3503C60.2529 59.2704 60.2929 59.2104 60.3328 59.1704L60.2529 59.5702C60.2529 59.5902 60.2529 59.6102 60.2729 59.6102C60.2729 59.6302 60.2929 59.6302 60.3128 59.6302L60.7126 59.5902L60.6727 59.99C60.6727 60.01 60.6927 60.03 60.7126 60.03C60.7126 60.05 60.7526 60.07 60.7726 60.05C60.7726 60.07 60.7926 60.11 60.8126 60.11L61.1724 60.03L61.1524 60.3898C61.1524 60.4298 61.2124 60.4498 61.2324 60.3898C61.2324 60.3698 61.2324 60.3698 61.2324 60.3498C61.2524 60.2699 61.2924 60.2099 61.3323 60.1499V60.5297C61.3323 60.5697 61.3723 60.5697 61.3923 60.5697C61.3923 60.5897 61.4123 60.6297 61.4523 60.6097L61.7921 60.4898L61.8121 60.8496C61.8121 60.8696 61.8321 60.8896 61.8521 60.8896C61.8721 60.9096 61.912 60.9096 61.932 60.8696V60.8496C61.932 60.8296 61.932 60.8096 61.932 60.7896C61.952 60.5897 62.052 60.4698 62.1919 60.3898C62.2119 60.3898 62.2119 60.3898 62.2319 60.3698C62.2519 60.5298 62.1919 60.7097 62.012 60.8296C61.992 60.8496 61.972 60.8496 61.952 60.8696C61.912 60.8896 61.952 60.9495 61.992 60.9295L62.3118 60.7896L62.3718 61.1294C62.3718 61.1694 62.4518 61.1694 62.4518 61.1294V61.1095C62.4518 61.0895 62.4518 61.0695 62.4518 61.0295C62.4518 60.9495 62.4718 60.8896 62.4918 60.8096L62.5717 61.2094C62.5717 61.2494 62.6517 61.2494 62.6517 61.2094V61.1894C62.6517 61.1694 62.6517 61.1494 62.6517 61.1095C62.6517 60.9096 62.7516 60.7496 62.8916 60.6697C62.9315 60.8296 62.8716 61.0095 62.7116 61.1494C62.6917 61.1694 62.6717 61.1694 62.6517 61.1894C62.6117 61.2294 62.6517 61.2694 62.6917 61.2494L62.9915 61.0695L63.0915 61.4093C63.0915 61.4293 63.1114 61.4493 63.1314 61.4293C63.1514 61.4493 63.1714 61.4493 63.1914 61.4293C63.1914 61.4493 63.2314 61.4693 63.2514 61.4493L63.5512 61.2494L63.6712 61.5892C63.6912 61.6292 63.7511 61.6092 63.7511 61.5692V61.5492C63.7311 61.4893 63.7311 61.4093 63.7111 61.3493C63.7111 61.2894 63.7111 61.2294 63.7111 61.1894L63.8911 61.6292C63.911 61.6692 63.931 61.6492 63.951 61.6492C63.951 61.6692 63.991 61.6892 64.011 61.6692L64.2909 61.4293L64.4508 61.7491C64.4708 61.7891 64.5307 61.7691 64.5307 61.7291L64.5507 61.7691C64.5507 61.7891 64.5707 61.7891 64.5907 61.7891C64.6107 61.7891 64.6107 61.7891 64.6307 61.7891L64.9105 61.5093L65.1304 61.8491C65.1504 61.8891 65.2104 61.8491 65.1904 61.8091C65.1904 61.7891 65.1704 61.7691 65.1704 61.7491C65.1504 61.6692 65.1304 61.6092 65.1304 61.5292L65.3503 61.8691C65.3703 61.8891 65.3703 61.8891 65.3903 61.8891C65.4103 61.8891 65.4103 61.8891 65.4303 61.8691L65.6902 61.5492L65.95 61.8691C65.97 61.8891 65.99 61.8891 66.01 61.8691C66.03 61.8891 66.05 61.8691 66.07 61.8491C66.09 61.8691 66.1099 61.8891 66.1299 61.8491L66.3298 61.5492L66.5697 61.8091C66.6097 61.8491 66.6497 61.8091 66.6297 61.7691C66.6297 61.7491 66.6097 61.7491 66.6097 61.7291C66.5697 61.6492 66.5297 61.5892 66.5297 61.5093L66.8096 61.7891C66.8296 61.8091 66.8696 61.7891 66.8696 61.7691C66.8896 61.7891 66.9295 61.7891 66.9295 61.7691L67.0895 61.4493L67.3693 61.6892C67.3893 61.7092 67.4093 61.7092 67.4093 61.6892C67.4493 61.6892 67.4693 61.6492 67.4493 61.6292C67.4293 61.6092 67.4093 61.5892 67.4093 61.5692C67.3093 61.4493 67.2694 61.3094 67.3093 61.1694C67.3093 61.1295 67.3293 61.1095 67.3493 61.0695C67.4693 61.1095 67.5492 61.2694 67.5092 61.4693ZM68.8286 61.0295C68.8286 61.0495 68.8286 61.0495 68.8286 61.0695C68.7686 61.0295 68.7286 60.9895 68.6687 60.9495C68.6287 60.9096 68.6087 60.8896 68.5687 60.8496C68.5287 60.7696 68.5287 60.6697 68.5487 60.5897C68.7086 60.6497 68.8286 60.8096 68.8286 61.0295ZM69.5282 60.6497C69.5282 60.6697 69.5282 60.6697 69.5282 60.6897C69.4683 60.6497 69.4083 60.6097 69.3683 60.5897C69.2284 60.4898 69.1684 60.3498 69.1484 60.2099C69.3283 60.2499 69.5082 60.4098 69.5282 60.6497ZM70.048 60.2699C70.048 60.2899 70.048 60.2899 70.048 60.2699C70.028 60.2899 70.028 60.2899 70.048 60.2699C69.8681 60.1899 69.7881 60.05 69.7681 59.9101C69.8881 59.97 70.008 60.09 70.048 60.2699ZM70.6677 59.7901H70.6477C70.4678 59.7302 70.3878 59.5902 70.3478 59.4503C70.4878 59.4903 70.6077 59.5902 70.6677 59.7901C70.6477 59.7701 70.6677 59.7701 70.6677 59.7901ZM71.0875 59.1704C71.1074 59.2304 71.1474 59.2904 71.1674 59.3503C71.1474 59.3503 71.1474 59.3503 71.1274 59.3303C70.9275 59.2704 70.8076 59.1105 70.7876 58.9505C70.7876 58.9505 70.7876 58.9505 70.8076 58.9505H70.9675C70.9875 59.0305 71.0475 59.0905 71.0875 59.1704ZM71.5672 58.5507C71.6072 58.6107 71.6272 58.6707 71.6672 58.7306C71.6472 58.7306 71.6472 58.7306 71.6272 58.7306C71.4073 58.6907 71.2874 58.5507 71.2474 58.3908C71.2474 58.3908 71.2474 58.3908 71.2674 58.3908L71.4273 58.3708C71.4673 58.4108 71.5272 58.4708 71.5672 58.5507ZM72.5867 56.9116L72.6067 56.9315C72.5467 56.9315 72.4668 56.9515 72.4068 56.9515C72.3668 56.9515 72.3068 56.9515 72.2669 56.9515C72.1869 56.9116 72.1069 56.8516 72.067 56.7716C72.2469 56.7317 72.4468 56.7516 72.5867 56.9116ZM72.8266 56.1519C72.8466 56.1519 72.8466 56.1719 72.8666 56.1719C72.8066 56.1919 72.7466 56.1919 72.6667 56.2119C72.5067 56.2519 72.3468 56.1919 72.2469 56.092C72.4068 55.992 72.6267 55.992 72.8266 56.1519ZM72.9065 55.5123L72.9265 55.5322H72.9065C72.7266 55.5922 72.5667 55.5522 72.4468 55.4523C72.5867 55.3923 72.7666 55.4123 72.9065 55.5123ZM72.9865 54.7127C72.9865 54.7127 73.0065 54.7127 73.0065 54.7326H72.9865C72.8066 54.8126 72.6467 54.7726 72.5267 54.6927C72.6667 54.6327 72.8266 54.6327 72.9865 54.7127ZM72.8666 53.993C72.9265 54.013 72.9865 54.053 73.0465 54.073C73.0265 54.073 73.0265 54.093 73.0065 54.093C72.8266 54.1929 72.6267 54.1729 72.4868 54.073C72.4868 54.073 72.5067 54.073 72.5067 54.053L72.6267 53.953C72.7066 53.953 72.7866 53.973 72.8666 53.993ZM72.7866 53.2134C72.8466 53.2334 72.9065 53.2534 72.9865 53.2734C72.9665 53.2734 72.9665 53.2934 72.9465 53.2934C72.7666 53.4133 72.5867 53.4133 72.4468 53.3333C72.4468 53.3333 72.4468 53.3134 72.4668 53.3134L72.5667 53.1934C72.6067 53.1934 72.6867 53.1934 72.7866 53.2134ZM72.3268 51.3343C72.3468 51.3343 72.3668 51.3343 72.3668 51.3343C72.3268 51.3943 72.2869 51.4343 72.2469 51.4943C72.2069 51.5343 72.1669 51.5742 72.1269 51.5942C72.047 51.6142 71.987 51.6342 71.907 51.6142H71.8871H71.8671C71.967 51.4543 72.1069 51.3343 72.3268 51.3343ZM71.947 50.6347C71.967 50.6347 71.987 50.6347 71.987 50.6347C71.947 50.6947 71.907 50.7546 71.8671 50.7946C71.7671 50.9346 71.6272 50.9945 71.4873 51.0145C71.5672 50.8146 71.7071 50.6547 71.947 50.6347ZM71.5872 50.1349C71.5072 50.2949 71.3673 50.3748 71.2074 50.3948C71.2674 50.2549 71.3873 50.1349 71.5672 50.115H71.5872C71.6072 50.115 71.6072 50.1349 71.5872 50.1349ZM71.0875 49.5153C71.0275 49.6952 70.8876 49.7751 70.7476 49.8151C70.7876 49.6752 70.9075 49.5552 71.0875 49.4953H71.1074C71.0875 49.4953 71.0875 49.5153 71.0875 49.5153ZM70.4878 49.0755C70.5477 49.0555 70.6077 49.0155 70.6677 48.9955C70.6677 49.0155 70.6677 49.0155 70.6477 49.0355C70.5877 49.2354 70.4278 49.3553 70.2679 49.3753V49.2154C70.3478 49.1554 70.4078 49.1155 70.4878 49.0755ZM69.8681 48.5757C69.928 48.5357 69.988 48.5158 70.048 48.4758C70.048 48.4958 70.048 48.4958 70.048 48.5158C70.008 48.7356 69.8681 48.8556 69.7081 48.8956L69.6882 48.7356C69.7281 48.6957 69.7881 48.6357 69.8681 48.5757ZM68.2489 47.5362C68.2689 47.5962 68.2689 47.6762 68.2689 47.7361C68.2689 47.7761 68.2689 47.8361 68.2689 47.8761C68.2289 47.956 68.1689 48.036 68.089 48.076C68.029 47.9161 68.049 47.7162 68.2089 47.5562C68.2289 47.5562 68.2489 47.5362 68.2489 47.5362ZM67.4893 47.2964C67.5092 47.3563 67.5292 47.4363 67.5292 47.4963C67.5692 47.6762 67.5092 47.8161 67.4093 47.9161C67.3093 47.7561 67.2894 47.5362 67.4493 47.3363C67.4693 47.3164 67.4693 47.3164 67.4893 47.2964ZM66.8296 47.2364C66.8296 47.2364 66.8496 47.2164 66.8296 47.2364C66.8496 47.2164 66.8496 47.2364 66.8296 47.2364C66.9095 47.4163 66.8696 47.5762 66.7696 47.6762C66.7296 47.5362 66.7296 47.3763 66.8296 47.2364ZM66.05 47.1364C66.05 47.1364 66.05 47.1564 66.05 47.1364C66.1299 47.3164 66.1099 47.4763 66.03 47.6162C65.95 47.4763 65.95 47.3164 66.05 47.1364C66.05 47.1564 66.05 47.1364 66.05 47.1364ZM65.3103 47.2764C65.3303 47.2164 65.3703 47.1564 65.3903 47.0965C65.3903 47.1165 65.4103 47.1165 65.4103 47.1364C65.5102 47.3164 65.4903 47.5163 65.3903 47.6562C65.3903 47.6562 65.3903 47.6562 65.3703 47.6362L65.2704 47.5163C65.2704 47.4363 65.2904 47.3563 65.3103 47.2764ZM64.5307 47.3563C64.5507 47.2964 64.5707 47.2364 64.5907 47.1564C64.5907 47.1764 64.6107 47.1764 64.6107 47.1964C64.7306 47.3763 64.7306 47.5562 64.6507 47.7162C64.6507 47.7162 64.6507 47.7162 64.6307 47.7162L64.5107 47.6162C64.5107 47.5362 64.5107 47.4563 64.5307 47.3563ZM62.6517 47.8161C62.6517 47.7961 62.6517 47.7961 62.6517 47.7761C62.7116 47.8161 62.7516 47.8561 62.8116 47.8961C62.8516 47.9361 62.8716 47.956 62.8916 47.996C62.9315 48.076 62.9315 48.1759 62.9115 48.2759C62.7716 48.1759 62.6517 48.036 62.6517 47.8161ZM61.952 48.1759C61.952 48.1559 61.952 48.1559 61.952 48.1359C62.012 48.1759 62.072 48.2159 62.1119 48.2559C62.2519 48.3558 62.3118 48.4958 62.3318 48.6357C62.1319 48.5757 61.972 48.4358 61.952 48.1759ZM61.4323 48.5557C61.4323 48.5357 61.4323 48.5357 61.4323 48.5557C61.6122 48.6357 61.6922 48.7756 61.7121 48.9156C61.5722 48.8556 61.4723 48.7356 61.4323 48.5557ZM60.8126 49.0555C60.9925 49.1354 61.0925 49.2554 61.1324 49.3953C60.9925 49.3553 60.8726 49.2354 60.8126 49.0555ZM60.3928 49.6552C60.3728 49.5952 60.3328 49.5352 60.3128 49.4753C60.3328 49.4753 60.3328 49.4753 60.3528 49.4953C60.5527 49.5552 60.6727 49.7152 60.6927 49.8751H60.6727H60.5127C60.4728 49.8151 60.4328 49.7351 60.3928 49.6552ZM59.8931 50.2749C59.8531 50.2149 59.8331 50.1549 59.7931 50.095C59.8131 50.095 59.8131 50.095 59.8331 50.095C60.033 50.135 60.1729 50.2749 60.2129 50.4348C60.2129 50.4348 60.2129 50.4348 60.1929 50.4348L60.033 50.4548C59.993 50.4148 59.953 50.3548 59.8931 50.2749ZM58.8736 51.934C58.8736 51.9141 58.8536 51.9141 58.8536 51.8941C58.9135 51.8941 58.9935 51.8741 59.0535 51.8741C59.0935 51.8741 59.1334 51.8741 59.1734 51.8741C59.2534 51.9141 59.3333 51.974 59.3933 52.054C59.2334 52.114 59.0335 52.094 58.8736 51.934ZM58.6537 52.6937C58.6337 52.6937 58.6337 52.6737 58.6137 52.6737C58.6737 52.6537 58.7336 52.6537 58.8136 52.6337C58.9935 52.5937 59.1334 52.6537 59.2334 52.7536C59.0735 52.8336 58.8336 52.8536 58.6537 52.6937ZM58.5537 53.3134C58.5537 53.3134 58.5337 53.3134 58.5537 53.3134C58.5337 53.3134 58.5537 53.3134 58.5537 53.3134C58.7336 53.2334 58.8936 53.2934 58.9935 53.3733C58.8536 53.4333 58.6937 53.4133 58.5537 53.3134ZM58.4738 54.113C58.4738 54.113 58.4538 54.113 58.4738 54.113C58.4538 54.093 58.4738 54.093 58.4738 54.113C58.6337 54.013 58.7936 54.053 58.9335 54.1329C58.7936 54.1929 58.6337 54.1929 58.4738 54.113ZM58.5937 54.8326C58.5337 54.8126 58.4738 54.7726 58.4138 54.7526C58.4338 54.7526 58.4338 54.7326 58.4538 54.7326C58.6337 54.6327 58.8336 54.6527 58.9735 54.7526C58.9735 54.7526 58.9735 54.7526 58.9535 54.7726L58.8336 54.8926C58.7536 54.8726 58.6737 54.8726 58.5937 54.8326ZM58.6937 55.6122C58.6337 55.5922 58.5737 55.5722 58.4938 55.5522C58.5137 55.5522 58.5137 55.5322 58.5337 55.5322C58.7136 55.4123 58.8936 55.4123 59.0535 55.4923C59.0535 55.4923 59.0535 55.4923 59.0535 55.5123L58.9535 55.6322C58.8536 55.6322 58.7736 55.6322 58.6937 55.6122ZM59.1334 57.5113C59.1134 57.5113 59.1134 57.5113 59.0935 57.5113H59.0735C59.1134 57.4513 59.1534 57.4113 59.1934 57.3513C59.2334 57.3114 59.2534 57.2914 59.2934 57.2714C59.3933 57.2314 59.4733 57.2314 59.5732 57.2514C59.5132 57.3913 59.3533 57.5113 59.1334 57.5113ZM59.5132 58.2109C59.4933 58.2109 59.4933 58.2109 59.4733 58.2109H59.4533C59.4933 58.1509 59.5332 58.091 59.5532 58.051C59.6532 57.9111 59.7931 57.8511 59.933 57.8311C59.913 58.011 59.7531 58.1909 59.5132 58.2109ZM60.2329 58.4508C60.1729 58.5907 60.053 58.6907 59.8731 58.7306H59.8531V58.7107C59.953 58.5507 60.0929 58.4708 60.2329 58.4508ZM60.7126 59.0305C60.6727 59.1704 60.5527 59.2904 60.3928 59.3503H60.3728V59.3303C60.4328 59.1504 60.5727 59.0505 60.7126 59.0305ZM60.9725 59.7701C60.9125 59.7901 60.8526 59.8301 60.7926 59.8501C60.7926 59.8301 60.7926 59.8301 60.8126 59.8101C60.8726 59.6102 61.0325 59.4903 61.1924 59.4703C61.1924 59.4703 61.1924 59.4703 61.1924 59.4903V59.6502C61.1324 59.6702 61.0725 59.7302 60.9725 59.7701ZM61.5922 60.2499C61.5322 60.2899 61.4723 60.3099 61.4123 60.3498C61.4123 60.3299 61.4123 60.3299 61.4123 60.3099C61.4523 60.09 61.5922 59.97 61.7521 59.93C61.7521 59.93 61.7521 59.9301 61.7521 59.95L61.7721 60.11C61.7321 60.1499 61.6722 60.2099 61.5922 60.2499ZM63.2114 61.3094C63.1914 61.2294 63.1914 61.1694 63.1914 61.1095C63.1914 61.0695 63.1914 61.0095 63.1914 60.9695C63.2314 60.8896 63.2914 60.8096 63.3713 60.7496C63.4313 60.9096 63.4113 61.1095 63.2514 61.2694C63.2314 61.2894 63.2314 61.2894 63.2114 61.3094ZM63.991 61.5292C63.971 61.5492 63.971 61.5492 63.991 61.5292C63.971 61.4693 63.951 61.3893 63.951 61.3293C63.911 61.1494 63.971 61.0095 64.071 60.9096C64.1709 61.0695 64.1909 61.3094 64.031 61.4893C64.011 61.5093 63.991 61.5292 63.991 61.5292ZM64.6307 61.6092C64.5507 61.4293 64.6107 61.2694 64.6907 61.1494C64.7506 61.2894 64.7506 61.4493 64.6307 61.6092ZM65.4303 61.6892C65.4103 61.6892 65.4103 61.6892 65.4303 61.6892C65.3503 61.5093 65.3703 61.3493 65.4503 61.2094C65.5102 61.3493 65.5102 61.5093 65.4303 61.6892ZM66.1499 61.5492C66.1299 61.6092 66.09 61.6692 66.07 61.7291C66.07 61.7092 66.05 61.7092 66.05 61.6892C65.95 61.5093 65.97 61.3094 66.07 61.1694C66.07 61.1694 66.07 61.1694 66.07 61.1894L66.1699 61.3094C66.1899 61.3893 66.1899 61.4693 66.1499 61.5492ZM66.9295 61.4693C66.9095 61.5293 66.8896 61.5892 66.8696 61.6692C66.8696 61.6492 66.8496 61.6492 66.8496 61.6292C66.7296 61.4493 66.7296 61.2694 66.8096 61.1095L66.9295 61.2094C66.9495 61.3094 66.9495 61.3893 66.9295 61.4693Z" fill="url(#paint4_radial)"/>
<path d="M64.8905 38.7607C64.8905 54.9327 51.797 68.0261 35.6251 68.0261C19.4532 68.0261 6.35974 54.9327 6.35974 38.7607C6.35974 32.4239 8.35874 26.5668 11.777 21.7892C17.0944 14.3529 25.79 17.6313 35.6251 17.6313C45.4202 17.6313 54.0959 14.313 59.4132 21.7293C62.8715 26.5069 64.8905 32.4039 64.8905 38.7607Z" fill="url(#paint5_radial)"/>
<path opacity="0.5" d="M64.8905 38.7607C64.8905 54.9326 51.797 68.0261 35.6251 68.0261C19.4532 68.0261 6.35974 54.9326 6.35974 38.7607C6.35974 32.4239 8.35874 26.5668 11.777 21.7892C17.0944 14.3529 25.79 19.2505 35.6251 19.2505C45.4202 19.2505 54.0959 14.3129 59.4132 21.7092C62.8715 26.5068 64.8905 32.4039 64.8905 38.7607Z" fill="url(#paint6_radial)"/>
<path opacity="0.5" d="M64.8905 38.7607C64.8905 54.9326 51.797 68.0261 35.6251 68.0261C19.4532 68.0261 6.35974 54.9326 6.35974 38.7607C6.35974 32.4239 8.35874 26.5668 11.777 21.7892C17.0944 14.3529 25.79 19.2505 35.6251 19.2505C45.4202 19.2505 54.0959 14.3129 59.4132 21.7092C62.8715 26.5068 64.8905 32.4039 64.8905 38.7607Z" fill="url(#paint7_radial)"/>
<path opacity="0.5" d="M6.35974 38.7607C6.35974 54.9326 19.4532 68.0261 35.6251 68.0261C51.797 68.0261 64.8905 54.9126 64.8905 38.7607C64.8905 32.4239 62.8915 26.5668 59.4732 21.7892C54.1758 14.3529 45.4602 19.2505 35.6251 19.2505C25.83 19.2505 17.1543 14.3129 11.837 21.7092C8.39872 26.5068 6.35974 32.4039 6.35974 38.7607Z" fill="url(#paint8_radial)"/>
<path opacity="0.5" d="M66.5297 28.146C66.3498 26.9866 65.0904 25.2475 64.5107 24.4879C64.4508 24.3679 64.3908 24.248 64.3108 24.148C65.4303 24.5078 66.1499 24.9476 66.1499 24.9476C65.0105 23.4684 62.7516 22.229 62.7516 22.229C61.4722 19.4304 60.013 19.0706 60.013 19.0706C58.1739 19.3504 55.4353 18.5908 55.4353 18.5908C54.1359 18.191 54.8955 17.4114 54.8955 17.4114C53.2364 16.7717 49.5782 17.4114 49.5782 17.4114C49.5782 17.3914 49.5782 17.3914 49.5782 17.3714C49.7581 16.5918 51.3173 15.6723 51.3173 15.6723C48.6586 16.5318 45.4602 16.9716 45.4602 16.9716C44.0809 16.4719 44.3608 15.5123 44.3608 15.5123C44.3608 15.5123 39.963 16.9916 38.1039 16.5518C36.2249 16.112 37.4043 14.8127 37.4043 14.8127C35.8051 16.112 30.9075 16.7517 30.9075 16.7517C30.0679 16.3519 30.048 14.7527 30.048 14.7527C29.8081 15.9321 26.5497 17.0116 26.5497 17.0116C22.6517 16.7717 19.8331 16.0521 19.8331 16.0521C21.3723 16.8117 20.7526 17.5913 19.913 17.8712C19.7131 17.9111 19.5332 17.9511 19.3333 17.9711C18.3138 18.0111 18.034 17.3914 18.034 17.3914C17.954 17.6313 17.6542 18.0311 17.2344 18.4509C16.3748 18.6708 15.5552 18.8907 14.8156 19.1505C15.0355 18.211 15.4353 17.6913 15.4353 17.6913C14.0759 18.231 11.997 20.0701 11.4573 20.5698C11.3973 20.5898 11.3573 20.6098 11.2973 20.6298C10.6577 20.5698 10.4578 19.9301 10.4578 19.9301C10.4578 19.9301 9.41827 21.0696 8.37879 22.7687C8.37879 22.7687 6.5597 32.3639 7.11942 32.5238C6.59968 33.0236 9.41827 38.3409 9.41827 38.3409C9.41827 38.3409 9.39828 37.4214 9.63816 36.0021C9.958 34.143 10.9575 32.5039 12.3568 31.2445C12.7966 30.8647 13.2364 30.305 13.5362 29.5054C13.6362 29.4654 15.3953 28.9056 16.5347 30.125C16.5347 30.125 17.5342 28.8057 17.2743 28.186C17.2743 28.186 17.2743 28.186 17.2943 28.186C17.4942 28.146 19.953 27.5663 21.0325 27.9661C21.0325 27.9661 21.1924 27.6263 20.5927 27.3464C20.8526 27.2865 21.1124 27.2465 21.3723 27.1865C22.3918 27.0266 24.1309 26.9067 25.0505 27.8062C25.0505 27.8062 26.05 26.5868 28.3288 26.3469C28.5887 26.3269 28.8486 26.3269 29.1084 26.307C31.1674 26.307 31.8471 28.146 31.8471 28.146C31.8471 28.146 32.6267 27.0266 31.987 26.267C31.987 26.267 35.2454 25.9671 37.884 27.4664C37.884 27.4664 38.3838 26.9067 38.1639 26.4069C40.1829 26.4269 40.8825 27.3065 40.5227 28.0461C40.5227 28.0461 44.021 26.6668 47.0794 26.9466C48.9985 27.2065 50.3178 27.9261 50.5377 28.8457C50.5377 28.8457 51.4373 28.3459 51.3373 27.5863C51.917 27.6863 52.5167 27.8062 53.0764 27.9261C53.936 28.246 53.7561 29.2855 56.1149 30.205C56.1149 30.205 54.9355 29.1655 55.7951 28.5858C55.955 28.6458 60.2129 30.3449 61.3723 38.261C61.892 38.6808 61.932 33.5034 61.932 33.5034C61.932 33.5034 65.3103 30.3049 65.3103 28.6258C65.3103 28.146 65.2903 27.6663 65.2104 27.1465C65.2504 27.1665 65.2703 27.1865 65.3103 27.2065C65.8501 27.6063 66.5297 28.146 66.5297 28.146Z" fill="url(#paint9_radial)"/>
<path d="M26.0698 42.019C27.6265 42.019 28.8884 40.1127 28.8884 37.7611C28.8884 35.4096 27.6265 33.5033 26.0698 33.5033C24.5131 33.5033 23.2512 35.4096 23.2512 37.7611C23.2512 40.1127 24.5131 42.019 26.0698 42.019Z" fill="url(#paint10_radial)"/>
<path d="M26.0698 34.9426C27.2892 34.9426 28.3287 36.002 28.8884 37.5612C28.8484 35.2624 27.609 33.4033 26.0698 33.4033C24.5306 33.4033 23.2912 35.2624 23.2512 37.5612C23.8109 36.002 24.8704 34.9426 26.0698 34.9426Z" fill="url(#paint11_linear)"/>
<path d="M27.4491 25.4274C26.9894 24.3479 25.5301 24.168 23.5311 25.0476C21.832 25.7872 18.4936 28.3259 17.3342 32.7437C17.1143 33.5633 17.9939 33.5833 18.2937 32.9836C19.2932 30.9646 22.7915 27.4064 26.2697 26.3469C27.669 25.9071 27.4491 25.4274 27.4491 25.4274Z" fill="url(#paint12_linear)"/>
<path d="M41.2822 29.1854C41.1623 28.006 42.3417 27.1664 44.5206 26.9265C46.3597 26.7266 50.5176 27.3263 53.676 30.6247C54.2557 31.2244 53.4961 31.6842 52.9564 31.3044C51.0973 30.025 46.2997 28.6257 42.7615 29.3853C41.3422 29.7052 41.2822 29.1854 41.2822 29.1854Z" fill="url(#paint13_linear)"/>
<path opacity="0.5" d="M19.8131 55.4124C19.8131 55.4124 19.6731 54.193 20.6127 54.153C24.2308 54.0331 28.6087 51.9741 30.6077 51.9741C32.7266 51.9741 33.1264 52.3939 35.4652 52.3939C37.8041 52.3939 38.2039 51.9741 40.3228 51.9741C42.3218 51.9741 46.6596 54.0131 50.2778 54.153C51.2174 54.193 51.0974 55.4324 51.0974 55.4324L55.5352 50.0951L43.7211 47.0166L28.8086 46.5568L22.0919 50.9946L16.5547 51.6143L19.8131 55.4124Z" fill="url(#paint14_radial)"/>
<path d="M46.1199 35.0026C46.1199 35.0026 50.3977 34.7628 52.0769 37.7613C52.1768 37.9412 52.2568 38.1611 52.2968 38.361C52.3568 38.7807 52.0369 39.3005 51.2173 39.0006C46.1998 37.1815 43.7211 38.8007 41.862 39.9602C41.1424 40.4199 40.3228 39.7403 40.4627 39.0006C40.5027 38.7807 40.5027 38.5808 40.5826 38.3809C41.842 35.2225 46.1199 35.0026 46.1199 35.0026Z" fill="url(#paint15_radial)"/>
<path d="M46.1998 36.0021C46.1998 36.0021 49.6781 35.8022 52.2368 38.1011C52.1968 37.9811 52.1569 37.8612 52.0969 37.7412C50.4177 34.7427 46.1399 34.9826 46.1399 34.9826C46.1399 34.9826 41.862 35.2025 40.6026 38.3609C40.5627 38.4809 40.5227 38.6008 40.5027 38.7208C42.7016 36.182 46.1998 36.0021 46.1998 36.0021Z" fill="url(#paint16_linear)"/>
<path d="M35.6251 59.5304C27.0494 59.5304 24.2908 49.1756 26.9095 50.7947C30.4277 52.9737 32.6466 53.1736 35.6251 53.1736C38.6036 53.1736 40.8225 52.9737 44.3408 50.7947C46.9595 49.1756 44.2208 59.5304 35.6251 59.5304Z" fill="#643800"/>
<path d="M44.3407 50.7947C40.8225 52.9736 38.6036 53.1735 35.6251 53.1735C32.6466 53.1735 30.4277 52.9736 26.9094 50.7947C25.9899 50.235 25.73 51.1145 26.1498 52.5138C26.1498 52.4938 26.2898 50.9946 27.5091 52.0141C29.3482 53.6932 32.0269 55.0526 35.6051 55.0526C39.1833 55.0526 41.882 53.6732 43.7011 52.0141C44.9404 50.9746 45.0604 52.4738 45.0604 52.5138C45.5201 51.1345 45.2603 50.235 44.3407 50.7947Z" fill="url(#paint17_linear)"/>
<path d="M63.0714 53.0934C64.2108 48.9955 64.8905 44.2579 64.8905 38.7806C64.8905 28.4058 61.5921 24.1679 61.5921 24.1679L59.9929 25.3073C58.9535 32.4637 66.5097 40.3998 54.8955 50.3548C48.4387 55.892 53.936 60.6097 35.4652 60.6097C16.9944 60.6097 22.5117 55.892 16.0349 50.3548C4.40074 40.3998 11.9769 32.4637 10.9375 25.3073L9.33827 24.1679C9.33827 24.1679 6.03992 28.4058 6.03992 38.7806C6.03992 44.2778 6.71958 49.0155 7.85901 53.0934C7.59914 57.4712 10.0379 61.7091 10.0379 61.7091C10.0379 61.7091 9.65811 59.5702 10.2178 59.4503C10.4177 59.87 10.6376 60.2898 10.8575 60.7096C11.4372 61.7691 11.857 64.1079 11.6371 65.1874C11.6371 65.1874 12.4567 64.4677 12.7366 62.2688C12.8165 62.4088 12.7366 65.7271 13.796 67.3063C13.796 67.3063 13.6761 66.3268 14.1958 65.927C14.1958 65.927 15.6951 68.026 15.855 70.025C15.855 70.025 16.1149 69.1254 16.6946 68.7656C16.6946 68.7656 18.5737 69.5652 19.0134 71.7841C19.0134 71.7841 19.873 70.9245 19.5931 70.0849C19.5931 70.0849 21.6321 72.6636 22.1719 74.4428C22.1719 74.4428 22.1918 72.3238 22.7316 72.3238C22.7316 72.3238 25.4502 71.1844 26.4297 77.0015C26.4297 77.0015 27.969 75.2823 30.1679 75.1224C32.4467 74.9625 34.1858 76.9015 35.5052 80C38.7236 79.2004 42.5217 75.2623 42.5217 75.2623C44.5607 74.4028 45.5801 76.4018 45.5801 76.4018C45.5801 74.6627 48.2788 72.3238 48.2788 72.3238C48.8185 72.3238 48.8385 74.4428 48.8385 74.4428C50.4777 73.3633 51.4172 70.0849 51.4172 70.0849C52.1569 70.5847 51.9969 71.7841 51.9969 71.7841C53.3363 70.1449 54.3158 68.7656 54.3158 68.7656C54.8955 69.1254 54.9355 70.7046 54.9355 70.7046C55.875 69.4453 56.4147 67.5662 56.6546 66.5867C56.7546 67.3663 57.7341 68.026 57.7341 68.026C57.7341 65.7071 58.7536 62.6287 58.7536 62.6287C58.5936 64.9075 59.773 65.3873 59.773 65.3873C59.3932 62.9085 60.6126 62.1489 61.0924 59.8101C61.3722 60.4498 61.3922 61.7291 61.3922 61.7291C61.3922 61.7291 63.3313 57.4513 63.0714 53.0934Z" fill="url(#paint18_radial)"/>
<path d="M14.5358 49.8351L16.135 50.4148C18.1939 52.2139 19.0135 53.9131 19.8131 55.4123C15.5952 54.033 12.7966 48.7157 12.7966 48.7157L14.5358 49.8351Z" fill="url(#paint19_linear)"/>
<path d="M56.3748 49.855L54.7756 50.4347C52.7167 52.2338 51.8971 53.933 51.0975 55.4322C55.3354 54.0529 58.134 48.7356 58.134 48.7356L56.3748 49.855Z" fill="url(#paint20_linear)"/>
<path d="M66.5297 26.8865C66.3498 25.7071 65.0905 23.948 64.5107 23.1684C64.4508 23.0484 64.3908 22.9285 64.3108 22.8086C65.4303 23.1684 66.1499 23.6082 66.1499 23.6082C65.0105 22.1089 62.7516 20.8295 62.7516 20.8295C61.4723 17.991 60.013 17.6112 60.013 17.6112C58.1739 17.911 55.4353 17.1114 55.4353 17.1114C54.1359 16.7116 54.8956 15.912 54.8956 15.912C53.2364 15.2523 49.5782 15.912 49.5782 15.912C49.5782 15.892 49.5782 15.892 49.5782 15.872C49.7581 15.0724 51.3173 14.1329 51.3173 14.1329C48.6587 15.0125 45.4603 15.4722 45.4603 15.4722C44.081 14.9725 44.3608 13.993 44.3608 13.993C44.3608 13.993 39.963 15.5122 38.104 15.0524C36.2249 14.6127 37.4043 13.2933 37.4043 13.2933C35.8051 14.6127 30.9075 15.2723 30.9075 15.2723C30.068 14.8725 30.048 13.2533 30.048 13.2533C29.8081 14.4527 26.5497 15.5522 26.5497 15.5522C22.6517 15.3323 19.8331 14.5927 19.8331 14.5927C21.3723 15.3723 20.7526 16.1719 19.913 16.4517C19.7131 16.4917 19.5332 16.5317 19.3333 16.5717C18.3338 16.6117 18.034 15.972 18.034 15.972C17.954 16.2119 17.6542 16.6316 17.2344 17.0514C16.3748 17.2713 15.5552 17.5112 14.8156 17.7511C15.0355 16.7916 15.4353 16.2718 15.4353 16.2718C14.096 16.8116 12.057 18.6506 11.4773 19.1704C11.4373 19.1904 11.3773 19.2303 11.3373 19.2503C10.6577 19.2104 10.4778 18.5307 10.4778 18.5307C10.4778 18.5307 9.43828 19.6901 8.3988 21.4093C6.37981 23.5082 6 25.8071 6 27.7661C6 30.4247 6.61969 31.2044 7.17941 31.3443C7.5992 31.6441 9.73813 32.6636 9.73813 32.6636C9.73813 32.6636 8.75862 32.2438 10.018 30.1249C10.018 30.1249 11.2174 29.925 10.8376 30.9045C10.8376 30.9045 12.7366 30.5447 13.5962 28.2658C13.7161 28.2258 15.4553 27.6461 16.5947 28.9055C16.5947 28.9055 17.5942 27.5662 17.3343 26.9265C17.3343 26.9265 17.3343 26.9265 17.3543 26.9265C17.5542 26.8865 20.013 26.3068 21.0925 26.7066C21.0925 26.7066 21.2524 26.3668 20.6527 26.0669C20.9125 26.007 21.1724 25.947 21.4323 25.907C22.4518 25.7471 24.1909 25.6271 25.1104 26.5267C25.1104 26.5267 26.1099 25.2873 28.3888 25.0474C28.6487 25.0274 28.9085 25.0274 29.1684 25.0075C31.2274 25.0075 31.907 26.8865 31.907 26.8865C31.907 26.8865 32.6867 25.7471 32.047 24.9675C32.047 24.9675 35.3053 24.6476 37.944 26.1869C37.944 26.1869 38.4438 25.6072 38.2239 25.1074C40.2429 25.1274 40.9425 26.0269 40.5827 26.7666C40.5827 26.7666 44.081 25.3673 47.1394 25.6471C49.0585 25.907 50.3778 26.6466 50.5977 27.5662C50.5977 27.5662 51.4973 27.0664 51.3973 26.2868C51.977 26.3868 52.5767 26.5067 53.1364 26.6266C53.996 26.9465 53.8161 28.0259 56.1749 28.9455C56.1749 28.9455 54.9955 27.886 55.8551 27.2863C56.015 27.3463 59.6332 28.6856 59.3533 30.5647C59.3533 30.5647 60.4928 28.9055 62.1119 29.885C62.1919 29.945 62.2719 29.985 62.3518 30.0449C62.8716 30.4647 61.992 32.3038 61.992 32.3038C61.992 32.3038 64.051 32.1039 64.7306 30.6446C64.7506 30.5847 64.7706 30.5447 64.7906 30.4847C65.1304 30.005 65.3703 29.0654 65.3703 27.3463C65.3703 26.8665 65.3503 26.3668 65.2704 25.847C65.3103 25.867 65.3303 25.887 65.3703 25.907C65.8501 26.3268 66.5297 26.8865 66.5297 26.8865Z" fill="url(#paint21_linear)"/>
<path d="M35.4653 43.6582C29.0485 41.5992 26.2899 48.7157 12.7966 48.7157L12.8166 48.7357C16.035 53.3733 22.2719 54.6327 27.1095 51.7342C30.6477 49.6152 32.4468 51.6542 35.4653 51.6542C38.4838 51.6542 40.2829 49.6152 43.8211 51.7342C48.6587 54.6327 54.9156 53.3733 58.114 48.7357L58.134 48.7157C44.6607 48.7157 41.8821 41.5992 35.4653 43.6582Z" fill="url(#paint22_linear)"/>
<path d="M58.134 48.7356C58.134 48.7356 54.6357 51.6142 50.1579 51.6142C46.1799 51.6142 40.4828 47.7961 36.7447 49.0954C36.3249 49.2353 35.9051 49.3153 35.4653 49.3153C35.0255 49.3153 34.6057 49.2353 34.1859 49.0954C30.4478 47.8161 24.7507 51.6142 20.7726 51.6142C16.2949 51.6142 12.7966 48.7356 12.7966 48.7356C16.015 53.3733 22.2519 54.6326 27.0895 51.7341C30.6277 49.6151 32.4268 51.6541 35.4453 51.6541C38.4638 51.6541 40.2629 49.6151 43.8011 51.7341C48.6787 54.6326 54.9156 53.3733 58.134 48.7356Z" fill="url(#paint23_linear)"/>
<path opacity="0.24" d="M51.957 6.87653C51.5372 9.21536 46.2599 10.2349 40.1829 9.1354C34.1059 8.03595 29.5082 5.25734 29.928 2.91851C30.3478 0.579683 35.6252 -0.439807 41.7021 0.659643C47.7791 1.75909 52.3968 4.5377 51.957 6.87653Z" fill="url(#paint24_radial)"/>
<path d="M22.152 74.4031C22.152 74.4031 22.172 72.2841 22.7118 72.2841C22.7118 72.2841 25.0306 71.3046 26.15 75.7424C25.7302 72.3241 27.1695 68.566 26.21 65.6074C26.21 65.6074 26.3699 68.9458 24.9906 70.485C23.5913 72.0242 21.6923 72.1442 22.152 74.4031Z" fill="url(#paint25_linear)"/>
<path d="M11.6373 65.1676C12.157 63.4485 11.5174 61.2296 11.3574 60.2101C11.1975 59.1706 11.9172 58.0312 11.9172 58.0312C11.9172 58.0312 11.1376 58.0112 10.218 59.4505C10.4179 59.8703 10.6378 60.2901 10.8577 60.7098C11.4374 61.7493 11.8572 64.0881 11.6373 65.1676Z" fill="url(#paint26_linear)"/>
<path d="M14.2159 65.9073C14.2159 65.9073 15.7152 68.0062 15.8751 70.0052C15.8751 70.0052 15.9951 69.1856 15.3154 67.0267C14.6157 64.8678 15.6752 63.1686 15.6752 63.1686C15.6752 63.1686 14.3759 63.9682 14.2159 65.9073Z" fill="url(#paint27_linear)"/>
<path d="M19.5733 70.0452C19.5733 70.0452 20.293 70.9648 20.9926 72.0842C20.233 69.7853 18.9136 65.7873 18.9136 65.7873C18.5938 67.2266 18.6738 67.3066 19.5733 70.0452Z" fill="url(#paint28_linear)"/>
<path d="M9.91812 60.2301C9.83816 60.7298 9.89813 61.2296 10.0181 61.6893C10.0181 61.7093 10.0381 61.7093 10.0381 61.7093C10.0381 61.7093 9.89813 60.8697 9.91812 60.2301Z" fill="url(#paint29_linear)"/>
<path d="M48.239 72.2841C48.7787 72.2841 48.7987 74.4031 48.7987 74.4031C49.4384 69.9853 47.3394 67.0068 47.3394 67.0068C47.6992 69.8253 43.8212 73.3436 45.4204 76.1622C45.5003 76.2821 45.5403 76.3421 45.5403 76.3421C45.5403 74.6229 48.239 72.2841 48.239 72.2841Z" fill="url(#paint30_linear)"/>
<path d="M32.5069 67.1466C32.5069 67.1466 30.5278 71.5644 31.1675 75.1626C32.9466 75.5624 34.3659 77.3615 35.4654 79.9602C36.125 78.9007 31.4874 72.304 32.5069 67.1466Z" fill="url(#paint31_linear)"/>
<path d="M57.1745 62.7488C57.5743 65.1876 57.6742 67.9862 57.6742 67.9862C57.6742 65.6674 58.6937 62.5889 58.6937 62.5889C59.0535 60.1901 57.9141 59.3305 58.6937 57.3715C58.6937 57.3715 56.7747 60.3101 57.1745 62.7488Z" fill="url(#paint32_linear)"/>
<path d="M54.2359 68.7258C54.8156 69.0857 54.8556 70.6649 54.8556 70.6649C54.8756 70.6449 54.8756 70.6249 54.8956 70.6049C55.2154 69.4055 54.6957 67.6664 54.4358 66.487C54.156 65.2276 54.6157 63.7683 54.6157 63.7683C54.2959 64.2881 53.3164 65.5874 54.2359 68.7258Z" fill="url(#paint33_linear)"/>
<path d="M42.4818 75.2226C42.4818 72.8438 41.4024 71.2246 41.4024 71.2246C40.5828 76.0621 35.4653 79.9602 35.4653 79.9602C38.6837 79.1606 42.4818 75.2226 42.4818 75.2226Z" fill="url(#paint34_linear)"/>
<path d="M66.2499 47.0764C66.2499 47.0764 66.2499 47.0564 66.2699 47.0564C66.2499 47.0564 66.2499 47.0565 66.2499 47.0764Z" fill="url(#paint35_radial)"/>
<path d="M61.0125 59.7699C61.0125 59.8099 60.9925 59.8499 60.9925 59.8699L61.0525 59.8499C61.0325 59.8299 61.0325 59.8099 61.0125 59.7699Z" fill="url(#paint36_radial)"/>
<path d="M66.9096 61.569C66.9096 61.609 66.8896 61.629 66.8896 61.6689C66.8896 61.649 66.8696 61.649 66.8696 61.629C66.8296 61.589 66.8096 61.529 66.7896 61.489C65.9101 60.8494 64.8106 59.7699 65.1105 58.3906C65.5902 56.1317 64.4108 53.573 64.4108 53.573C64.4108 53.573 65.0705 51.6939 65.2904 50.8144C65.4703 50.1147 65.5502 48.7154 66.01 47.576C65.97 47.4561 65.95 47.3161 66.03 47.1562C66.03 47.1562 66.03 47.1362 66.05 47.1362V47.1562C66.09 47.2362 66.09 47.2961 66.09 47.3761C66.11 47.3161 66.1499 47.2562 66.1699 47.1962L66.07 47.0563C66.05 47.0363 66.05 47.0363 66.03 47.0363C66.01 47.0363 66.01 47.0363 65.99 47.0563L65.7301 47.3761L65.4703 47.0563C65.4503 47.0363 65.4303 47.0363 65.4103 47.0563C65.3903 47.0363 65.3703 47.0563 65.3503 47.0762C65.3303 47.0563 65.3104 47.0563 65.2904 47.0762L65.0905 47.3761L64.8306 47.1162C64.7906 47.0762 64.7506 47.1162 64.7706 47.1562C64.7706 47.1762 64.7906 47.1762 64.7906 47.1962C64.8306 47.2761 64.8706 47.3361 64.8706 47.4161L64.5907 47.1362C64.5707 47.1162 64.5307 47.1362 64.5307 47.1562C64.5108 47.1362 64.4708 47.1362 64.4708 47.1562L64.3109 47.476L64.2309 47.4161C63.931 49.4351 63.5113 51.3341 63.0315 53.1132C63.2114 56.0717 62.3318 58.9903 61.7521 60.5495L61.7721 60.7094C61.7721 60.7294 61.7921 60.7494 61.8121 60.7494C61.8321 60.7694 61.8721 60.7694 61.8921 60.7294V60.7094C61.8921 60.6894 61.8921 60.6694 61.8921 60.6495C61.9121 60.4496 62.012 60.3296 62.1519 60.2497C62.1719 60.2497 62.1719 60.2497 62.1919 60.2297C62.2119 60.3896 62.1519 60.5695 61.972 60.6894C61.952 60.7094 61.932 60.7094 61.9121 60.7294C61.8721 60.7494 61.9121 60.8094 61.952 60.7894L62.2719 60.6495L62.3318 60.9893C62.3318 61.0293 62.4118 61.0293 62.4118 60.9893V60.9693C62.4118 60.9493 62.4118 60.9293 62.4118 60.8893C62.4118 60.8094 62.4318 60.7494 62.4518 60.6694L62.5317 61.0692C62.5317 61.1092 62.6117 61.1092 62.6117 61.0692V61.0493C62.6117 61.0293 62.6117 61.0093 62.6117 60.9693C62.6117 60.7694 62.7117 60.6095 62.8516 60.5295C62.8916 60.6894 62.8316 60.8693 62.6717 61.0093C62.6517 61.0293 62.6317 61.0293 62.6117 61.0493C62.5717 61.0892 62.6117 61.1292 62.6517 61.1092L62.9515 60.9293L63.0515 61.2691C63.0515 61.2891 63.0715 61.3091 63.0915 61.2891C63.1115 61.3091 63.1314 61.3091 63.1514 61.2891C63.1514 61.3091 63.1914 61.3291 63.2114 61.3091L63.5113 61.1092L63.6312 61.4491C63.6512 61.489 63.7112 61.469 63.7112 61.4291V61.4091C63.6912 61.3491 63.6912 61.2691 63.6712 61.2092C63.6712 61.1492 63.6712 61.0892 63.6712 61.0493L63.8511 61.489C63.8711 61.529 63.8911 61.509 63.9111 61.509C63.9111 61.529 63.951 61.549 63.971 61.529L64.2509 61.2891L64.4108 61.609C64.4308 61.649 64.4908 61.629 64.4908 61.589L64.5108 61.629C64.5108 61.649 64.5307 61.649 64.5507 61.649C64.5707 61.649 64.5707 61.649 64.5907 61.649L64.8706 61.3691L65.0905 61.7089C65.1105 61.7489 65.1704 61.7089 65.1504 61.6689C65.1504 61.649 65.1304 61.629 65.1304 61.609C65.1105 61.529 65.0905 61.469 65.0905 61.3891L65.3104 61.7289C65.3304 61.7489 65.3303 61.7489 65.3503 61.7489C65.3703 61.7489 65.3703 61.7489 65.3903 61.7289L65.6502 61.4091L65.9101 61.7289C65.9301 61.7489 65.95 61.7489 65.97 61.7289C65.99 61.7489 66.01 61.7289 66.03 61.7089C66.05 61.7289 66.07 61.7489 66.09 61.7089L66.2899 61.4091L66.5297 61.6689C66.5697 61.7089 66.6097 61.6689 66.5897 61.629C66.5897 61.609 66.5697 61.609 66.5697 61.589C66.5297 61.509 66.4898 61.4491 66.4898 61.3691L66.7696 61.649C66.7896 61.6689 66.8296 61.649 66.8296 61.629C66.8496 61.649 66.8896 61.649 66.8896 61.629L66.9295 61.549C66.9495 61.609 66.9296 61.589 66.9096 61.569ZM65.3104 47.2761C65.3304 47.2162 65.3703 47.1562 65.3903 47.0962C65.3903 47.1162 65.4103 47.1162 65.4103 47.1362C65.5103 47.3161 65.4903 47.516 65.3903 47.656C65.3903 47.656 65.3903 47.656 65.3703 47.636L65.2704 47.516C65.2704 47.4361 65.2904 47.3561 65.3104 47.2761ZM64.5307 47.3561C64.5507 47.2961 64.5707 47.2362 64.5907 47.1562C64.5907 47.1762 64.6107 47.1762 64.6107 47.1962C64.7307 47.3761 64.7306 47.556 64.6507 47.7159C64.6507 47.7159 64.6507 47.7159 64.6307 47.7159L64.5108 47.616C64.5108 47.536 64.5108 47.4561 64.5307 47.3561ZM63.2514 61.2691C63.2314 61.2891 63.2314 61.2891 63.2114 61.3091V61.2891C63.2114 61.2292 63.1914 61.1492 63.1914 61.0892C63.1914 61.0493 63.1914 60.9893 63.1914 60.9493C63.2314 60.8693 63.2914 60.7894 63.3713 60.7294C63.4313 60.9293 63.4113 61.1092 63.2514 61.2691ZM64.011 61.509C64.011 61.529 63.991 61.529 63.991 61.549V61.529C63.971 61.469 63.971 61.4091 63.951 61.3291C63.9111 61.1492 63.971 61.0093 64.071 60.9093C64.1509 61.0892 64.1709 61.3091 64.011 61.509ZM64.6307 61.609C64.5507 61.4291 64.6107 61.2691 64.6907 61.1492C64.7506 61.2891 64.7506 61.4491 64.6307 61.609ZM65.4303 61.6889C65.4103 61.6889 65.4103 61.6889 65.4303 61.6889C65.3303 61.509 65.3703 61.3491 65.4503 61.2292C65.5103 61.3491 65.5103 61.509 65.4303 61.6889ZM66.1499 61.549C66.1299 61.609 66.09 61.6689 66.07 61.7289C66.07 61.7089 66.05 61.7089 66.05 61.6889C65.95 61.509 65.97 61.3091 66.07 61.1692C66.07 61.1692 66.07 61.1692 66.07 61.1892L66.1699 61.3091C66.1899 61.3891 66.1899 61.469 66.1499 61.549Z" fill="url(#paint37_radial)"/>
<defs>
<linearGradient id="paint0_linear" x1="52.5505" y1="55.199" x2="25.8316" y2="-6.81517" gradientUnits="userSpaceOnUse">
<stop stop-color="#860805"/>
<stop offset="0.0509976" stop-color="#980704"/>
<stop offset="0.1548" stop-color="#B80503"/>
<stop offset="0.268" stop-color="#D20302"/>
<stop offset="0.3925" stop-color="#E60201"/>
<stop offset="0.5338" stop-color="#F40100"/>
<stop offset="0.7065" stop-color="#FD0000"/>
<stop offset="1" stop-color="#FF0000"/>
</linearGradient>
<linearGradient id="paint1_linear" x1="18.0323" y1="31.8281" x2="10.0935" y2="-14.7317" gradientUnits="userSpaceOnUse">
<stop stop-color="#860805"/>
<stop offset="0.0509976" stop-color="#980704"/>
<stop offset="0.1548" stop-color="#B80503"/>
<stop offset="0.268" stop-color="#D20302"/>
<stop offset="0.3925" stop-color="#E60201"/>
<stop offset="0.5338" stop-color="#F40100"/>
<stop offset="0.7065" stop-color="#FD0000"/>
<stop offset="1" stop-color="#FF0000"/>
</linearGradient>
<linearGradient id="paint2_linear" x1="66.4294" y1="30.0684" x2="52.8482" y2="62.94" gradientUnits="userSpaceOnUse">
<stop stop-color="#860805"/>
<stop offset="0.0509976" stop-color="#980704"/>
<stop offset="0.1548" stop-color="#B80503"/>
<stop offset="0.268" stop-color="#D20302"/>
<stop offset="0.3925" stop-color="#E60201"/>
<stop offset="0.5338" stop-color="#F40100"/>
<stop offset="0.7065" stop-color="#FD0000"/>
<stop offset="1" stop-color="#FF0000"/>
</linearGradient>
<linearGradient id="paint3_linear" x1="62.0787" y1="32.6926" x2="65.5752" y2="49.8904" gradientUnits="userSpaceOnUse">
<stop stop-color="#860805"/>
<stop offset="0.0624666" stop-color="#900E09"/>
<stop offset="0.221" stop-color="#A41910"/>
<stop offset="0.4022" stop-color="#B22115"/>
<stop offset="0.6236" stop-color="#BB2618"/>
<stop offset="1" stop-color="#BD2719"/>
</linearGradient>
<radialGradient id="paint4_radial" cx="0" cy="0" r="1" gradientUnits="userSpaceOnUse" gradientTransform="translate(67.1805 51.4239) scale(8.41216)">
<stop offset="0.0778847" stop-color="white"/>
<stop offset="0.2745" stop-color="#FBFCFC"/>
<stop offset="0.4743" stop-color="#EFF2F3"/>
<stop offset="0.6754" stop-color="#DAE2E3"/>
<stop offset="0.8764" stop-color="#BECCCE"/>
<stop offset="0.9987" stop-color="#A9BCBE"/>
</radialGradient>
<radialGradient id="paint5_radial" cx="0" cy="0" r="1" gradientUnits="userSpaceOnUse" gradientTransform="translate(29.8703 32.0756) scale(32.796)">
<stop stop-color="#FFE030"/>
<stop offset="1" stop-color="#FFB92E"/>
</radialGradient>
<radialGradient id="paint6_radial" cx="0" cy="0" r="1" gradientUnits="userSpaceOnUse" gradientTransform="translate(29.8703 32.6035) scale(25.6084)">
<stop stop-color="#FFEA5F"/>
<stop offset="1" stop-color="#FFBC47" stop-opacity="0"/>
</radialGradient>
<radialGradient id="paint7_radial" cx="0" cy="0" r="1" gradientUnits="userSpaceOnUse" gradientTransform="translate(17.9204 45.7983) rotate(42.5522) scale(11.3038 8.60398)">
<stop stop-color="#FF4C00"/>
<stop offset="0.1542" stop-color="#FF4C00"/>
<stop offset="0.1795" stop-color="#FF4C00"/>
<stop offset="0.3996" stop-color="#FB4C0B" stop-opacity="0.7318"/>
<stop offset="0.7799" stop-color="#EF4B27" stop-opacity="0.2683"/>
<stop offset="1" stop-color="#E74A3A" stop-opacity="0"/>
</radialGradient>
<radialGradient id="paint8_radial" cx="0" cy="0" r="1" gradientUnits="userSpaceOnUse" gradientTransform="translate(53.3369 45.7983) rotate(137.448) scale(11.3038 8.60398)">
<stop stop-color="#FF4C00"/>
<stop offset="0.1542" stop-color="#FF4C00"/>
<stop offset="0.1795" stop-color="#FF4C00"/>
<stop offset="0.3996" stop-color="#FB4C0B" stop-opacity="0.7318"/>
<stop offset="0.7799" stop-color="#EF4B27" stop-opacity="0.2683"/>
<stop offset="1" stop-color="#E74A3A" stop-opacity="0"/>
</radialGradient>
<radialGradient id="paint9_radial" cx="0" cy="0" r="1" gradientUnits="userSpaceOnUse" gradientTransform="translate(36.7961 26.5646) scale(54.8454 48.6791)">
<stop stop-color="#E74A3A" stop-opacity="0"/>
<stop offset="0.2895" stop-color="#CA4E2E" stop-opacity="0.3529"/>
<stop offset="0.6258" stop-color="#AE5222" stop-opacity="0.7628"/>
<stop offset="0.8205" stop-color="#A3541E"/>
<stop offset="0.8458" stop-color="#A3541E"/>
<stop offset="1" stop-color="#A3541E"/>
</radialGradient>
<radialGradient id="paint10_radial" cx="0" cy="0" r="1" gradientUnits="userSpaceOnUse" gradientTransform="translate(25.219 37.8637) rotate(73.8532) scale(4.13435 2.67522)">
<stop offset="0.00132565" stop-color="#7A4400"/>
<stop offset="1" stop-color="#643800"/>
</radialGradient>
<linearGradient id="paint11_linear" x1="26.0734" y1="33.4811" x2="26.0734" y2="37.4539" gradientUnits="userSpaceOnUse">
<stop offset="0.00132565" stop-color="#3C2200"/>
<stop offset="1" stop-color="#512D00"/>
</linearGradient>
<linearGradient id="paint12_linear" x1="22.666" y1="24.5801" x2="22.0968" y2="34.2563" gradientUnits="userSpaceOnUse">
<stop offset="0.00134333" stop-color="#A9BCBE"/>
<stop offset="0.0744505" stop-color="#C3D1D2"/>
<stop offset="0.1581" stop-color="#D9E2E2"/>
<stop offset="0.2565" stop-color="#EAEFEF"/>
<stop offset="0.3777" stop-color="#F6F8F8"/>
<stop offset="0.5465" stop-color="#FDFEFE"/>
<stop offset="1" stop-color="white"/>
</linearGradient>
<linearGradient id="paint13_linear" x1="48.3782" y1="26.1781" x2="46.9147" y2="33.1706" gradientUnits="userSpaceOnUse">
<stop offset="0.00134333" stop-color="#A9BCBE"/>
<stop offset="0.0744505" stop-color="#C3D1D2"/>
<stop offset="0.1581" stop-color="#D9E2E2"/>
<stop offset="0.2565" stop-color="#EAEFEF"/>
<stop offset="0.3777" stop-color="#F6F8F8"/>
<stop offset="0.5465" stop-color="#FDFEFE"/>
<stop offset="1" stop-color="white"/>
</linearGradient>
<radialGradient id="paint14_radial" cx="0" cy="0" r="1" gradientUnits="userSpaceOnUse" gradientTransform="translate(36.4069 53.3607) rotate(180) scale(32.7671 9.29623)">
<stop stop-color="#E74A3A" stop-opacity="0"/>
<stop offset="0.5247" stop-color="#C54F2C" stop-opacity="0.5247"/>
<stop offset="1" stop-color="#A3541E"/>
</radialGradient>
<radialGradient id="paint15_radial" cx="0" cy="0" r="1" gradientUnits="userSpaceOnUse" gradientTransform="translate(46.275 37.4138) rotate(-3.13068) scale(4.60683 2.22296)">
<stop offset="0.00132565" stop-color="#7A4400"/>
<stop offset="1" stop-color="#643800"/>
</radialGradient>
<linearGradient id="paint16_linear" x1="46.0665" y1="33.6489" x2="46.246" y2="36.6204" gradientUnits="userSpaceOnUse">
<stop offset="0.00132565" stop-color="#3C2200"/>
<stop offset="1" stop-color="#512D00"/>
</linearGradient>
<linearGradient id="paint17_linear" x1="35.6282" y1="46.9795" x2="35.6282" y2="54.8653" gradientUnits="userSpaceOnUse">
<stop offset="0.00132565" stop-color="#3C2200"/>
<stop offset="1" stop-color="#512D00"/>
</linearGradient>
<radialGradient id="paint18_radial" cx="0" cy="0" r="1" gradientUnits="userSpaceOnUse" gradientTransform="translate(35.3773 46.7248) scale(40.0053)">
<stop offset="0.0778847" stop-color="white"/>
<stop offset="0.387" stop-color="#FDFDFD"/>
<stop offset="0.5627" stop-color="#F4F7F7"/>
<stop offset="0.705" stop-color="#E6ECEC"/>
<stop offset="0.8293" stop-color="#D3DDDE"/>
<stop offset="0.9409" stop-color="#B9C9CA"/>
<stop offset="0.9987" stop-color="#A9BCBE"/>
</radialGradient>
<linearGradient id="paint19_linear" x1="14.6844" y1="58.5521" x2="17.6119" y2="46.842" gradientUnits="userSpaceOnUse">
<stop stop-color="white"/>
<stop offset="0.9987" stop-color="#A9BCBE"/>
</linearGradient>
<linearGradient id="paint20_linear" x1="56.2419" y1="58.5703" x2="53.3144" y2="46.8602" gradientUnits="userSpaceOnUse">
<stop stop-color="white"/>
<stop offset="0.9987" stop-color="#A9BCBE"/>
</linearGradient>
<linearGradient id="paint21_linear" x1="8.12612" y1="22.966" x2="65.6306" y2="22.966" gradientUnits="userSpaceOnUse">
<stop stop-color="#DEE7E8"/>
<stop offset="0.042081" stop-color="#E6EDEE"/>
<stop offset="0.1467" stop-color="#F4F7F7"/>
<stop offset="0.2748" stop-color="#FDFDFD"/>
<stop offset="0.4927" stop-color="white"/>
<stop offset="0.7027" stop-color="#FDFDFD"/>
<stop offset="0.7922" stop-color="#F6F8F8"/>
<stop offset="0.8587" stop-color="#E9EEEF"/>
<stop offset="0.9139" stop-color="#D8E0E1"/>
<stop offset="0.9615" stop-color="#C1CFD0"/>
<stop offset="0.9987" stop-color="#A9BCBE"/>
</linearGradient>
<linearGradient id="paint22_linear" x1="6.45006" y1="48.2881" x2="68.1783" y2="48.2881" gradientUnits="userSpaceOnUse">
<stop stop-color="#CFDCDE"/>
<stop offset="0.0107559" stop-color="#D2DEE0"/>
<stop offset="0.0923703" stop-color="#E6EDEE"/>
<stop offset="0.1853" stop-color="#F4F7F8"/>
<stop offset="0.2991" stop-color="#FDFDFD"/>
<stop offset="0.4927" stop-color="white"/>
<stop offset="0.7027" stop-color="#FDFDFD"/>
<stop offset="0.7922" stop-color="#F6F8F8"/>
<stop offset="0.8587" stop-color="#E9EEEF"/>
<stop offset="0.9139" stop-color="#D8E0E1"/>
<stop offset="0.9615" stop-color="#C1CFD0"/>
<stop offset="0.9987" stop-color="#A9BCBE"/>
</linearGradient>
<linearGradient id="paint23_linear" x1="35.4695" y1="36.478" x2="35.4695" y2="69.0776" gradientUnits="userSpaceOnUse">
<stop stop-color="white"/>
<stop offset="0.1838" stop-color="#F7F9F9"/>
<stop offset="0.4623" stop-color="#E3E9E9"/>
<stop offset="0.799" stop-color="#C1CED0"/>
<stop offset="0.9987" stop-color="#A9BCBE"/>
</linearGradient>
<radialGradient id="paint24_radial" cx="0" cy="0" r="1" gradientUnits="userSpaceOnUse" gradientTransform="translate(40.9542 4.90957) rotate(10.1643) scale(11.4541 3.837)">
<stop stop-color="white"/>
<stop offset="1" stop-color="white" stop-opacity="0"/>
</radialGradient>
<linearGradient id="paint25_linear" x1="24.313" y1="84.3711" x2="24.313" y2="62.3718" gradientUnits="userSpaceOnUse">
<stop stop-color="white"/>
<stop offset="0.1838" stop-color="#F7F9F9"/>
<stop offset="0.4623" stop-color="#E3E9E9"/>
<stop offset="0.799" stop-color="#C1CED0"/>
<stop offset="0.9987" stop-color="#A9BCBE"/>
</linearGradient>
<linearGradient id="paint26_linear" x1="11.0776" y1="80.4668" x2="11.0776" y2="41.9109" gradientUnits="userSpaceOnUse">
<stop stop-color="white"/>
<stop offset="0.1838" stop-color="#F7F9F9"/>
<stop offset="0.4623" stop-color="#E3E9E9"/>
<stop offset="0.799" stop-color="#C1CED0"/>
<stop offset="0.9987" stop-color="#A9BCBE"/>
</linearGradient>
<linearGradient id="paint27_linear" x1="15.0436" y1="85.6709" x2="15.0436" y2="56.7229" gradientUnits="userSpaceOnUse">
<stop stop-color="white"/>
<stop offset="0.1838" stop-color="#F7F9F9"/>
<stop offset="0.4623" stop-color="#E3E9E9"/>
<stop offset="0.799" stop-color="#C1CED0"/>
<stop offset="0.9987" stop-color="#A9BCBE"/>
</linearGradient>
<linearGradient id="paint28_linear" x1="19.8785" y1="83.196" x2="19.8785" y2="62.6139" gradientUnits="userSpaceOnUse">
<stop stop-color="white"/>
<stop offset="0.1838" stop-color="#F7F9F9"/>
<stop offset="0.4623" stop-color="#E3E9E9"/>
<stop offset="0.799" stop-color="#C1CED0"/>
<stop offset="0.9987" stop-color="#A9BCBE"/>
</linearGradient>
<linearGradient id="paint29_linear" x1="9.96544" y1="86.7551" x2="9.96544" y2="61.9625" gradientUnits="userSpaceOnUse">
<stop stop-color="white"/>
<stop offset="0.1838" stop-color="#F7F9F9"/>
<stop offset="0.4623" stop-color="#E3E9E9"/>
<stop offset="0.799" stop-color="#C1CED0"/>
<stop offset="0.9987" stop-color="#A9BCBE"/>
</linearGradient>
<linearGradient id="paint30_linear" x1="46.9685" y1="84.364" x2="46.9685" y2="62.575" gradientUnits="userSpaceOnUse">
<stop stop-color="white"/>
<stop offset="0.1838" stop-color="#F7F9F9"/>
<stop offset="0.4623" stop-color="#E3E9E9"/>
<stop offset="0.799" stop-color="#C1CED0"/>
<stop offset="0.9987" stop-color="#A9BCBE"/>
</linearGradient>
<linearGradient id="paint31_linear" x1="33.2835" y1="84.9652" x2="33.2835" y2="62.4349" gradientUnits="userSpaceOnUse">
<stop stop-color="white"/>
<stop offset="0.1838" stop-color="#F7F9F9"/>
<stop offset="0.4623" stop-color="#E3E9E9"/>
<stop offset="0.799" stop-color="#C1CED0"/>
<stop offset="0.9987" stop-color="#A9BCBE"/>
</linearGradient>
<linearGradient id="paint32_linear" x1="57.9354" y1="81.2257" x2="57.9354" y2="40.5844" gradientUnits="userSpaceOnUse">
<stop stop-color="white"/>
<stop offset="0.1838" stop-color="#F7F9F9"/>
<stop offset="0.4623" stop-color="#E3E9E9"/>
<stop offset="0.799" stop-color="#C1CED0"/>
<stop offset="0.9987" stop-color="#A9BCBE"/>
</linearGradient>
<linearGradient id="paint33_linear" x1="54.4285" y1="85.6709" x2="54.4285" y2="56.7229" gradientUnits="userSpaceOnUse">
<stop stop-color="white"/>
<stop offset="0.1838" stop-color="#F7F9F9"/>
<stop offset="0.4623" stop-color="#E3E9E9"/>
<stop offset="0.799" stop-color="#C1CED0"/>
<stop offset="0.9987" stop-color="#A9BCBE"/>
</linearGradient>
<linearGradient id="paint34_linear" x1="38.9738" y1="95.4422" x2="38.9738" y2="61.0052" gradientUnits="userSpaceOnUse">
<stop stop-color="white"/>
<stop offset="0.1838" stop-color="#F7F9F9"/>
<stop offset="0.4623" stop-color="#E3E9E9"/>
<stop offset="0.799" stop-color="#C1CED0"/>
<stop offset="0.9987" stop-color="#A9BCBE"/>
</linearGradient>
<radialGradient id="paint35_radial" cx="0" cy="0" r="1" gradientUnits="userSpaceOnUse" gradientTransform="translate(66.2549 47.0313) scale(0.0115514)">
<stop offset="0.0778847" stop-color="white"/>
<stop offset="0.2745" stop-color="#FBFCFC"/>
<stop offset="0.4743" stop-color="#EFF2F3"/>
<stop offset="0.6754" stop-color="#DAE2E3"/>
<stop offset="0.8764" stop-color="#BECCCE"/>
<stop offset="0.9987" stop-color="#A9BCBE"/>
</radialGradient>
<radialGradient id="paint36_radial" cx="0" cy="0" r="1" gradientUnits="userSpaceOnUse" gradientTransform="translate(37.947 69.6751) scale(37.5586 37.5601)">
<stop offset="0.0778847" stop-color="white"/>
<stop offset="0.2745" stop-color="#FBFCFC"/>
<stop offset="0.4743" stop-color="#EFF2F3"/>
<stop offset="0.6754" stop-color="#DAE2E3"/>
<stop offset="0.8764" stop-color="#BECCCE"/>
<stop offset="0.9987" stop-color="#A9BCBE"/>
</radialGradient>
<radialGradient id="paint37_radial" cx="0" cy="0" r="1" gradientUnits="userSpaceOnUse" gradientTransform="translate(37.946 69.675) scale(37.5601)">
<stop stop-color="#8EA5A8"/>
<stop offset="0.3838" stop-color="#92A8AB" stop-opacity="0.6162"/>
<stop offset="0.7729" stop-color="#9EB3B5" stop-opacity="0.2271"/>
<stop offset="1" stop-color="#A9BCBE" stop-opacity="0"/>
</radialGradient>
</defs>
</svg>
