<svg width="80" height="80" viewBox="0 0 80 80" fill="none" xmlns="http://www.w3.org/2000/svg">
<path d="M40.0061 40.8437C40.3965 40.8437 40.713 40.1506 40.713 39.2956C40.713 38.4406 40.3965 37.7476 40.0061 37.7476C39.6157 37.7476 39.2992 38.4406 39.2992 39.2956C39.2992 40.1506 39.6157 40.8437 40.0061 40.8437Z" fill="url(#paint0_linear)"/>
<path d="M48.5836 34.8805C48.6035 34.4923 48.6234 34.0741 48.6384 33.6262C48.9172 26.299 48.8773 11.5302 49.2109 9.58892C49.5643 7.52816 50.6944 6.00498 53.6564 6.00001C56.6184 5.99503 58.0621 8.77258 57.7136 12.5158C57.3651 16.259 58.1168 30.2413 58.3408 34.9502C58.6893 42.2425 59.8692 53.5468 59.8692 53.5468L48.8873 46.0355L48.5836 34.8805Z" fill="url(#paint1_linear)"/>
<path opacity="0.24" d="M58.3359 34.9501C58.1118 30.2412 57.3602 16.2589 57.7086 12.5157C57.9327 10.0816 57.39 8.07555 56.1754 6.95557C57.2108 10.211 56.7877 15.0443 57.0913 27.8718C57.4697 43.8601 58.7839 49.2161 58.7839 49.2161L59.3863 48.6437C59.0179 44.7063 58.535 39.1662 58.3359 34.9501Z" fill="url(#paint2_linear)"/>
<path opacity="0.24" d="M50.2264 22.5109C50.0173 14.9696 49.7584 9.76796 50.7939 6.77637C49.8829 7.41849 49.41 8.41402 49.2059 9.59374C48.8723 11.535 48.9171 26.2989 48.6334 33.631C48.6184 34.079 48.5985 34.4972 48.5786 34.8854L48.6832 38.7879L49.4697 40.0971C49.4747 40.0921 50.5102 32.6654 50.2264 22.5109Z" fill="url(#paint3_linear)"/>
<path d="M20.2876 16.2195C16.1159 17.0409 16.8028 21.2171 17.6093 25.1893C18.4755 29.4453 20.8551 45.5979 20.8551 45.5979L30.6074 46.2052C30.6074 46.2052 30.8613 44.7517 30.4929 42.671C29.3977 36.5186 26.7443 23.9499 25.7536 20.0574C24.4593 14.9701 20.2876 16.2195 20.2876 16.2195Z" fill="url(#paint4_linear)"/>
<path opacity="0.24" d="M30.4928 42.6757C29.3976 36.5233 26.7443 23.9547 25.7536 20.0622C25.0417 17.2647 23.4637 16.3837 22.1843 16.1597C25.43 18.6485 26.814 31.3764 28.5812 36.807C30.0697 41.3865 30.5227 43.278 30.6471 43.8902C30.6173 43.5119 30.5725 43.1137 30.4928 42.6757Z" fill="url(#paint5_linear)"/>
<path d="M19.3468 50.1071C19.3468 52.4665 20.4917 53.5268 21.0593 53.9101C21.2484 54.0395 21.3779 54.0893 21.3779 54.0893L32.0411 61.8943L51.5606 57.8474L50.9632 45.3534C40.4294 43.9895 31.623 38.8575 20.6959 37.9565C19.4961 41.9138 19.3468 47.3495 19.3468 50.1071Z" fill="url(#paint6_linear)"/>
<path d="M40.1356 50.4761C36.158 50.8992 33.3155 46.2849 33.3155 46.2849C29.4873 45.2246 29.104 35.3091 29.104 35.3091C28.2477 36.8522 29.2085 45.4038 31.2047 47.3949C33.3752 49.5502 36.3671 51.8698 40.6981 51.7752C45.0291 51.6807 48.3694 56.0162 48.3694 56.0162C47.9911 53.9455 44.9445 49.9634 40.1356 50.4761Z" fill="url(#paint7_linear)"/>
<path d="M40.1356 50.4755C44.9445 49.9628 47.9961 53.9449 48.3745 56.0157L49.9476 55.4382L49.2357 47.4889L44.143 44.1638L39.8269 37.5982L30.4281 38.768L29.1089 34.5967C29.0741 34.5967 29.1438 34.5967 29.1089 34.5967C29.1089 34.5967 28.1581 44.9951 33.3155 46.2843C33.3155 46.2843 36.158 50.8986 40.1356 50.4755Z" fill="url(#paint8_linear)"/>
<path d="M35.501 45.3932C32.0361 45.3932 30.3087 44.0392 29.8258 40.1815C29.343 36.3238 27.2621 29.375 33.6192 29.0017C39.7125 28.6433 39.832 31.9982 39.832 37.5932C39.827 43.193 38.4829 45.3932 35.501 45.3932Z" fill="url(#paint9_linear)"/>
<path opacity="0.24" d="M35.0429 39.4452C32.3995 40.7942 30.6173 40.824 29.4873 38.9823C29.5122 39.1914 29.542 39.4004 29.5619 39.5946C30.0448 43.9798 31.7723 45.5179 35.2371 45.5179C37.6714 45.5179 39.0155 43.8455 39.4287 39.7688C38.7467 38.5741 36.6011 38.6488 35.0429 39.4452Z" fill="url(#paint10_linear)"/>
<path d="M35.018 41.093C32.1755 41.093 30.8961 39.5797 30.4182 36.4737C30.1693 34.8759 28.5563 29.3059 33.7735 29.0022C38.7766 28.7135 38.7766 32.4119 38.8811 35.5528C39.0255 40.0676 37.4623 41.093 35.018 41.093Z" fill="url(#paint11_linear)"/>
<path opacity="0.24" d="M33.43 45.1644C34.0373 45.3137 34.7193 45.3934 35.4959 45.3934C38.4779 45.3934 39.822 43.1882 39.822 37.5983C39.822 32.2074 39.6975 28.9072 34.2315 28.9918C36.382 30.1317 38.1344 32.7301 38.1344 37.429C38.1393 44.1091 36.4567 45.1544 33.43 45.1644Z" fill="url(#paint12_linear)"/>
<path d="M33.873 45.3932C33.2956 45.5326 32.7629 45.2886 32.275 45.0348C31.7822 44.771 31.3441 44.4126 30.9857 43.9895C30.2588 43.1383 29.8755 42.0731 29.6465 41.0178C29.4225 39.9476 29.4076 38.8725 29.318 37.8073L29.1139 34.5967L29.4922 37.7923C29.6216 38.8526 29.6913 39.9327 29.9452 40.9581C30.1792 41.9835 30.5625 42.994 31.2445 43.7754C31.5831 44.1637 31.9913 44.4873 32.4443 44.7262C32.8973 44.9751 33.3951 45.0547 33.873 45.3932Z" fill="#3D2A20"/>
<path d="M36.4866 29.2158C37.079 29.3701 37.6565 29.619 38.1393 30.0172C38.6222 30.4204 38.9657 30.9679 39.2046 31.5354C39.6975 32.6852 39.8319 33.9346 39.9364 35.1591C39.9912 36.3886 39.9962 37.6131 39.9713 38.8327C39.9613 39.4399 39.9762 40.0522 39.9464 40.6694C39.9265 40.978 39.9215 41.2866 39.8518 41.5952C39.797 41.864 39.6626 42.317 39.2893 42.2921C39.5929 42.1876 39.583 41.8342 39.6527 41.5604C39.6875 41.2667 39.7224 40.9681 39.7224 40.6644C39.7323 40.0572 39.6975 39.4499 39.6825 38.8327C39.6477 37.6081 39.6626 36.3886 39.583 35.179C39.5183 33.9745 39.4386 32.74 39.0005 31.62C38.6122 30.4752 37.6565 29.5891 36.4866 29.2158Z" fill="#3D2A20"/>
<path opacity="0.08" d="M19.0381 21.5551C18.0674 21.346 18.4258 19.4047 19.2522 18.4341C20.0786 17.4585 21.5372 16.8412 22.5079 17.0453C23.4787 17.2544 23.1053 18.444 22.7867 19.4943C22.2391 21.3062 20.0089 21.7642 19.0381 21.5551Z" fill="url(#paint13_radial)"/>
<path opacity="0.08" d="M51.9737 7.27432C52.2873 6.32857 54.1791 6.901 55.0553 7.83182C55.9314 8.75766 56.3894 10.2758 56.0808 11.2216C55.7672 12.1673 54.6222 11.6646 53.6165 11.2315C51.8741 10.4849 51.6601 8.2151 51.9737 7.27432Z" fill="url(#paint14_radial)"/>
<path d="M45.3378 43.8005C42.7243 43.7159 41.1163 42.7402 40.4393 40.3161C40.2899 39.7736 40.1854 39.1613 40.1257 38.4744C39.8021 34.6864 38.229 27.8969 44.1032 27.7177C49.7335 27.5484 49.7385 30.8337 49.5693 36.3041C49.4 41.7746 48.0858 43.8901 45.3378 43.8005Z" fill="url(#paint15_linear)"/>
<path opacity="0.24" d="M45.0989 37.8921C42.6197 39.1216 40.9769 39.0968 39.9912 37.2749C40.0112 37.479 40.0311 37.6831 40.041 37.8722C40.3497 42.1431 41.9029 43.6912 45.0939 43.7908C47.339 43.8654 48.6284 42.2775 49.1362 38.3302C48.5438 37.1604 46.5624 37.1654 45.0989 37.8921Z" fill="url(#paint16_linear)"/>
<path d="M44.8748 38.2058C42.2563 38.1212 41.2756 37.9022 40.9271 34.8707C40.7479 33.3127 39.4287 27.8522 44.2476 27.7178C48.8673 27.5883 48.7578 31.1773 48.7578 34.2286C48.7528 38.619 47.1299 38.2755 44.8748 38.2058Z" fill="url(#paint17_linear)"/>
<path opacity="0.24" d="M43.4362 43.5114C43.9937 43.6756 44.616 43.7752 45.3329 43.8001C48.0808 43.8897 49.3901 41.7742 49.5643 36.3037C49.7286 31.0323 49.7186 27.7968 44.6757 27.7222C46.6222 28.9019 48.1605 31.4952 48.0161 36.0897C47.812 42.6204 46.2289 43.591 43.4362 43.5114Z" fill="url(#paint18_linear)"/>
<path d="M43.8394 43.6358C43.2719 43.7602 42.7691 43.4864 42.316 43.2127C41.858 42.9289 41.4598 42.5457 41.1511 42.1126C40.5189 41.2366 40.2202 40.1962 40.046 39.1658C39.9066 38.1255 39.8817 37.0902 39.802 36.0648L39.6129 32.9736L39.9663 36.0548C40.0908 37.0802 40.1605 38.1156 40.3397 39.1161C40.5189 40.1166 40.8226 41.1071 41.415 41.9135C41.7087 42.3117 42.0771 42.6552 42.4953 42.914C42.9234 43.1828 43.4013 43.2774 43.8394 43.6358Z" fill="#3D2A20"/>
<path d="M46.7467 28.0059C47.3092 28.1751 47.8518 28.4538 48.285 28.872C48.7131 29.2951 49.0168 29.8376 49.2109 30.4051C49.6142 31.54 49.7038 32.7446 49.7585 33.9243C49.7685 35.109 49.7386 36.2887 49.6739 37.4635C49.649 38.0458 49.6391 38.6382 49.5942 39.2305C49.5644 39.5242 49.5544 39.8279 49.4797 40.1215C49.415 40.3754 49.2906 40.8134 48.9321 40.7885C49.2258 40.689 49.2109 40.3405 49.2856 40.0817C49.3254 39.798 49.3652 39.5093 49.3752 39.2206C49.4001 38.6382 49.3852 38.0508 49.3951 37.4585C49.4001 36.2788 49.4499 35.104 49.415 33.9343C49.3951 32.7695 49.3603 31.5848 49.0118 30.4798C48.6982 29.3548 47.8618 28.414 46.7467 28.0059Z" fill="#3D2A20"/>
<path d="M33.3155 43.1683C33.3155 40.5998 35.1126 40.5152 39.9166 40.0871C43.3515 39.7785 47.0901 38.8676 51.8493 40.7292C57.2805 42.8547 62.3881 45.9309 62.4478 51.4561C62.5026 56.399 58.7042 74 42.0721 74C25.4401 74 19.8545 65.0103 19.3468 50.1072L48.3695 56.0157C48.3695 56.0157 48.9868 50.7643 45.4324 49.2062C43.9141 48.5442 40.6733 49.0768 38.5127 49.0768C36.3622 49.0768 33.3155 46.6377 33.3155 43.1683Z" fill="url(#paint19_linear)"/>
<path opacity="0.24" d="M53.9451 62.8548C46.9009 68.0565 47.4734 70.9485 40.9022 70.9485C34.331 70.9485 30.0946 67.4343 27.0977 64.3979C24.1008 61.3615 21.5769 56.3042 20.3373 52.4515C20.0436 51.5406 19.7051 50.7839 19.3566 50.1368C19.8694 65.0201 25.4598 73.9999 42.082 73.9999C58.7142 73.9999 62.5125 56.3988 62.4578 51.4559C62.4329 49.2906 61.6264 47.5086 60.3421 46.0054C60.7005 53.0687 59.7297 58.579 53.9451 62.8548Z" fill="url(#paint20_linear)"/>
<path opacity="0.24" d="M50.0721 50.8738C49.9476 47.7926 46.1991 44.7064 43.0877 45.03C40.3995 45.3087 35.5408 45.6771 33.3653 43.6611C33.6441 46.8568 36.4667 49.0769 38.5177 49.0769C40.6783 49.0769 43.9191 48.5393 45.4374 49.2063C48.9918 50.7643 48.3745 56.0157 48.3745 56.0157C48.3745 56.0157 50.1965 53.96 50.0721 50.8738Z" fill="url(#paint21_linear)"/>
<path d="M62.4477 51.4561C62.383 45.9309 57.2804 42.8547 51.8492 40.7292C47.0901 38.8676 43.3515 39.7785 39.9165 40.0871C36.2526 40.4157 34.346 40.5501 33.6441 41.7298C38.1642 40.5998 42.3957 40.1369 47.6128 40.7442C54.413 41.5307 59.5504 45.7716 60.4863 49.0121C61.4073 52.2177 61.2729 58.186 61.2729 58.3253C62.144 55.4582 62.4676 52.9096 62.4477 51.4561Z" fill="url(#paint22_linear)"/>
<path d="M48.3745 56.0159C48.4592 54.7764 48.3596 53.5071 47.9713 52.3323C47.6029 51.1626 46.8711 50.0476 45.7759 49.4901C44.7106 48.8679 43.3914 48.9774 42.1717 49.0023C40.9272 49.052 39.6926 49.2014 38.4281 49.1914C35.8295 48.9624 33.7437 46.7324 33.2707 44.2485C33.1512 43.6213 33.1214 42.9792 33.2409 42.3321C33.3553 41.68 33.8382 41.0777 34.4456 40.8189C35.6453 40.2863 36.9197 40.2265 38.1543 40.0772C40.6434 39.9229 43.0976 39.4699 45.6166 39.455C48.1306 39.4152 50.6396 40.0125 52.9196 41.0429C55.2096 42.0285 57.4697 43.1883 59.3415 44.8757C61.2133 46.5333 62.4927 48.9425 62.4528 51.4662C62.4329 48.9425 61.1087 46.598 59.227 45.0051C57.3651 43.3625 55.115 42.2226 52.83 41.2619C50.555 40.2564 48.1007 39.6939 45.6216 39.7536C43.1524 39.7885 40.6733 40.2614 38.1892 40.4356C36.9645 40.57 35.6851 40.6347 34.5899 41.1176C34.0473 41.3565 33.664 41.8294 33.5445 42.4068C33.435 42.9842 33.4499 43.6114 33.5595 44.2037C33.9776 46.5682 36.0038 48.7434 38.4381 48.9674C39.6677 48.9823 40.9172 48.848 42.1667 48.8032C43.3914 48.7932 44.7355 48.6737 45.8606 49.3457C46.9906 49.958 47.7074 51.1277 48.0559 52.3124C48.4193 53.5071 48.489 54.7764 48.3745 56.0159Z" fill="#3D2A20"/>
<path opacity="0.08" d="M22.4133 50.6148C20.885 52.4765 25.5296 63.1884 30.1146 65.8862C34.6945 68.5841 40.4393 67.7578 41.5594 65.6125C42.6795 63.4671 37.9154 60.1371 34.0175 56.4437C27.2919 50.0723 23.9416 48.7532 22.4133 50.6148Z" fill="url(#paint23_radial)"/>
<path opacity="0.08" d="M59.7596 51.9839C60.571 50.8789 56.5138 44.0196 53.273 42.1679C50.0323 40.3162 43.6552 41.4162 43.1325 42.7154C42.6098 44.0146 48.7628 45.4781 51.6502 47.9221C56.6433 52.1432 58.9481 53.089 59.7596 51.9839Z" fill="url(#paint24_radial)"/>
<path opacity="0.24" d="M21.9105 56.4589C18.9136 51.1825 21.4475 42.0684 20.885 40.2814C20.3224 38.4944 20.5066 31.7248 19.0032 25.6122C18.0872 21.8988 17.7637 19.2855 18.4258 17.0107C16.3748 18.5986 16.9522 21.9635 17.6093 25.1941C18.1619 27.9019 19.3218 35.4083 20.0984 40.5253C19.4513 44.0246 19.3517 47.9122 19.3517 50.1074C19.8097 63.5222 24.4095 72.1237 37.4524 73.7115C29.4474 72.3327 24.7182 61.4017 21.9105 56.4589Z" fill="url(#paint25_linear)"/>
<path d="M40.4443 73.9406C40.0759 73.8859 39.6478 73.851 39.1251 73.851C38.6123 73.851 38.1195 73.8012 37.6316 73.7266C38.5327 73.8311 39.4686 73.9058 40.4443 73.9406Z" fill="url(#paint26_linear)"/>
<defs>
<linearGradient id="paint0_linear" x1="40.008" y1="39.2121" x2="39.9139" y2="42.1735" gradientUnits="userSpaceOnUse">
<stop offset="0.00132565" stop-color="#5A4539"/>
<stop offset="1" stop-color="#695042"/>
</linearGradient>
<linearGradient id="paint1_linear" x1="54.224" y1="59.2949" x2="54.224" y2="29.6666" gradientUnits="userSpaceOnUse">
<stop offset="0.00132565" stop-color="#5A4539"/>
<stop offset="1" stop-color="#695042"/>
</linearGradient>
<linearGradient id="paint2_linear" x1="57.7807" y1="24.4623" x2="57.7807" y2="-34.3954" gradientUnits="userSpaceOnUse">
<stop stop-color="#3D2A20"/>
<stop offset="0.9987" stop-color="#473226"/>
</linearGradient>
<linearGradient id="paint3_linear" x1="49.6878" y1="24.4624" x2="49.6878" y2="-34.3955" gradientUnits="userSpaceOnUse">
<stop stop-color="#3D2A20"/>
<stop offset="0.9987" stop-color="#473226"/>
</linearGradient>
<linearGradient id="paint4_linear" x1="6.95488" y1="41.3534" x2="53.2335" y2="15.6143" gradientUnits="userSpaceOnUse">
<stop offset="0.00132565" stop-color="#5A4539"/>
<stop offset="1" stop-color="#695042"/>
</linearGradient>
<linearGradient id="paint5_linear" x1="26.4159" y1="24.4627" x2="26.4159" y2="-34.3948" gradientUnits="userSpaceOnUse">
<stop stop-color="#3D2A20"/>
<stop offset="0.9987" stop-color="#473226"/>
</linearGradient>
<linearGradient id="paint6_linear" x1="16.627" y1="58.743" x2="62.9056" y2="33.004" gradientUnits="userSpaceOnUse">
<stop offset="0.00132565" stop-color="#5A4539"/>
<stop offset="1" stop-color="#695042"/>
</linearGradient>
<linearGradient id="paint7_linear" x1="36.4272" y1="64.5169" x2="43.8637" y2="2.0086" gradientUnits="userSpaceOnUse">
<stop stop-color="#3C2200" stop-opacity="0"/>
<stop offset="0.9984"/>
</linearGradient>
<linearGradient id="paint8_linear" x1="40.3758" y1="68.7451" x2="38.5462" y2="22.1148" gradientUnits="userSpaceOnUse">
<stop stop-color="#3C2200" stop-opacity="0"/>
<stop offset="0.9984"/>
</linearGradient>
<linearGradient id="paint9_linear" x1="34.4697" y1="36.7515" x2="34.4697" y2="52.4515" gradientUnits="userSpaceOnUse">
<stop offset="0.00132565" stop-color="#5A4539"/>
<stop offset="1" stop-color="#695042"/>
</linearGradient>
<linearGradient id="paint10_linear" x1="34.4576" y1="35.2403" x2="34.4576" y2="58.8927" gradientUnits="userSpaceOnUse">
<stop offset="0.00132565" stop-color="#473226"/>
<stop offset="1" stop-color="#3D2A20"/>
</linearGradient>
<linearGradient id="paint11_linear" x1="34.4358" y1="40.4172" x2="34.4358" y2="26.7148" gradientUnits="userSpaceOnUse">
<stop offset="0.00132565" stop-color="#5A4539"/>
<stop offset="1" stop-color="#695042"/>
</linearGradient>
<linearGradient id="paint12_linear" x1="28.301" y1="33.3044" x2="68.5572" y2="56.1754" gradientUnits="userSpaceOnUse">
<stop offset="0.00132565" stop-color="#473226"/>
<stop offset="1" stop-color="#3D2A20"/>
</linearGradient>
<radialGradient id="paint13_radial" cx="0" cy="0" r="1" gradientUnits="userSpaceOnUse" gradientTransform="translate(20.8866 19.3388) rotate(130.276) scale(2.89704 1.53363)">
<stop stop-color="#F8DBBA"/>
<stop offset="1" stop-color="#CD9870" stop-opacity="0"/>
</radialGradient>
<radialGradient id="paint14_radial" cx="0" cy="0" r="1" gradientUnits="userSpaceOnUse" gradientTransform="translate(53.9814 9.28649) rotate(-133.44) scale(2.89778 1.53397)">
<stop stop-color="#F8DBBA"/>
<stop offset="1" stop-color="#CD9870" stop-opacity="0"/>
</radialGradient>
<linearGradient id="paint15_linear" x1="44.616" y1="35.3171" x2="44.1275" y2="50.6721" gradientUnits="userSpaceOnUse">
<stop offset="0.00132565" stop-color="#5A4539"/>
<stop offset="1" stop-color="#695042"/>
</linearGradient>
<linearGradient id="paint16_linear" x1="44.6972" y1="33.7977" x2="43.9667" y2="56.7639" gradientUnits="userSpaceOnUse">
<stop offset="0.00132565" stop-color="#473226"/>
<stop offset="1" stop-color="#3D2A20"/>
</linearGradient>
<linearGradient id="paint17_linear" x1="44.5535" y1="37.6167" x2="44.9308" y2="25.7561" gradientUnits="userSpaceOnUse">
<stop offset="0.00132565" stop-color="#5A4539"/>
<stop offset="1" stop-color="#695042"/>
</linearGradient>
<linearGradient id="paint18_linear" x1="38.7751" y1="31.8138" x2="76.6804" y2="54.9724" gradientUnits="userSpaceOnUse">
<stop offset="0.00132565" stop-color="#473226"/>
<stop offset="1" stop-color="#3D2A20"/>
</linearGradient>
<linearGradient id="paint19_linear" x1="21.8189" y1="68.0781" x2="68.0974" y2="42.3391" gradientUnits="userSpaceOnUse">
<stop offset="0.00132565" stop-color="#5A4539"/>
<stop offset="1" stop-color="#695042"/>
</linearGradient>
<linearGradient id="paint20_linear" x1="19.3506" y1="60.0012" x2="62.4503" y2="60.0012" gradientUnits="userSpaceOnUse">
<stop stop-color="#3D2A20"/>
<stop offset="0.9987" stop-color="#473226"/>
</linearGradient>
<linearGradient id="paint21_linear" x1="41.7228" y1="66.0755" x2="41.7228" y2="36.6546" gradientUnits="userSpaceOnUse">
<stop offset="0.00132565" stop-color="#473226"/>
<stop offset="1" stop-color="#3D2A20"/>
</linearGradient>
<linearGradient id="paint22_linear" x1="49.5638" y1="40.4777" x2="43.0741" y2="70.6871" gradientUnits="userSpaceOnUse">
<stop stop-color="#8D562E" stop-opacity="0"/>
<stop offset="1" stop-color="#8D562E"/>
</linearGradient>
<radialGradient id="paint23_radial" cx="0" cy="0" r="1" gradientUnits="userSpaceOnUse" gradientTransform="translate(31.4637 59.8348) rotate(-138.632) scale(13.4122 6.12914)">
<stop stop-color="#F8DBBA"/>
<stop offset="1" stop-color="#CD9870" stop-opacity="0"/>
</radialGradient>
<radialGradient id="paint24_radial" cx="0" cy="0" r="1" gradientUnits="userSpaceOnUse" gradientTransform="translate(51.9614 45.3244) rotate(38.5433) scale(10.3358 3.81534)">
<stop stop-color="#F8DBBA"/>
<stop offset="1" stop-color="#CD9870" stop-opacity="0"/>
</radialGradient>
<linearGradient id="paint25_linear" x1="18.3149" y1="13.9932" x2="25.3973" y2="48.8777" gradientUnits="userSpaceOnUse">
<stop stop-color="#3D2A20"/>
<stop offset="0.9987" stop-color="#473226"/>
</linearGradient>
<linearGradient id="paint26_linear" x1="54.6714" y1="13.0527" x2="12.2646" y2="177.996" gradientUnits="userSpaceOnUse">
<stop stop-color="#FFBC47" stop-opacity="0"/>
<stop offset="1" stop-color="#C86F34"/>
</linearGradient>
</defs>
</svg>
