<svg width="80" height="80" viewBox="0 0 80 80" fill="none" xmlns="http://www.w3.org/2000/svg">
<path d="M40.5714 70.8003C57.4029 70.8003 71.0476 57.1556 71.0476 40.3241C71.0476 23.4925 57.4029 9.84787 40.5714 9.84787C23.7399 9.84787 10.0952 23.4925 10.0952 40.3241C10.0952 57.1556 23.7399 70.8003 40.5714 70.8003Z" fill="url(#paint0_radial)"/>
<path opacity="0.5" d="M40.5714 70.8003C57.4029 70.8003 71.0476 57.1556 71.0476 40.3241C71.0476 23.4925 57.4029 9.84787 40.5714 9.84787C23.7399 9.84787 10.0952 23.4925 10.0952 40.3241C10.0952 57.1556 23.7399 70.8003 40.5714 70.8003Z" fill="url(#paint1_radial)"/>
<path opacity="0.5" d="M40.5714 70.8003C57.4029 70.8003 71.0476 57.1556 71.0476 40.3241C71.0476 23.4925 57.4029 9.84787 40.5714 9.84787C23.7399 9.84787 10.0952 23.4925 10.0952 40.3241C10.0952 57.1556 23.7399 70.8003 40.5714 70.8003Z" fill="url(#paint2_radial)"/>
<path opacity="0.5" d="M40.5714 70.8003C57.4029 70.8003 71.0476 57.1556 71.0476 40.3241C71.0476 23.4925 57.4029 9.84787 40.5714 9.84787C23.7399 9.84787 10.0952 23.4925 10.0952 40.3241C10.0952 57.1556 23.7399 70.8003 40.5714 70.8003Z" fill="url(#paint3_radial)"/>
<path d="M40.5713 60.5906C31.7903 60.5906 28.9903 51.1811 31.657 52.6477C35.2379 54.6287 37.5237 54.8192 40.5713 54.8192C43.6189 54.8192 45.8856 54.6287 49.4856 52.6477C52.1522 51.1811 49.3522 60.5906 40.5713 60.5906Z" fill="#643800"/>
<path d="M49.4857 52.6479C45.9048 54.6288 43.6191 54.8193 40.5715 54.8193C37.5238 54.8193 35.2572 54.6288 31.6572 52.6479C30.7238 52.1336 30.4572 52.9336 30.8762 54.2098C30.8762 54.1908 31.0095 52.8193 32.2667 53.7717C32.2667 53.7717 36.8953 56.5527 40.5524 56.5527C44.2095 56.5527 48.8381 53.7717 48.8381 53.7717C50.0953 52.8384 50.2286 54.1908 50.2286 54.2098C50.6857 52.9527 50.4191 52.1336 49.4857 52.6479Z" fill="url(#paint4_linear)"/>
<path d="M33.9236 29.2195C34.095 28.0004 32.876 27.0671 30.6283 26.7814C28.7045 26.5338 24.3807 27.01 20.9712 30.3433C20.3426 30.9528 21.1236 31.4481 21.695 31.0671C23.676 29.7909 28.7045 28.4957 32.3617 29.3909C33.8474 29.7528 33.9236 29.2195 33.9236 29.2195Z" fill="url(#paint5_linear)"/>
<path d="M47.2191 29.2195C47.0476 28.0004 48.2667 27.0671 50.5143 26.7814C52.4381 26.5338 56.7619 27.01 60.1714 30.3433C60.8 30.9528 60.0191 31.4481 59.4476 31.0671C57.4667 29.7909 52.4381 28.4957 48.781 29.3909C47.2953 29.7528 47.2191 29.2195 47.2191 29.2195Z" fill="url(#paint6_linear)"/>
<path d="M53.2 36.6286C53.2 36.6286 58.2285 37.5048 59.3523 41.4286C59.4285 41.6762 59.4476 41.9429 59.4285 42.1905C59.3904 42.7048 58.8762 43.2 58.019 42.6476C52.6857 39.2 49.3904 40.4 46.9333 41.2381C45.9809 41.5619 45.219 40.5524 45.5619 39.7524C45.6571 39.5238 45.7333 39.2762 45.8857 39.0667C48.1714 35.7334 53.2 36.6286 53.2 36.6286Z" fill="url(#paint7_radial)"/>
<path d="M52.9906 37.8287C52.9906 37.8287 57.0858 38.5335 59.4096 41.8858C59.3906 41.7335 59.3715 41.5811 59.3334 41.4287C58.2096 37.5049 53.181 36.6287 53.181 36.6287C53.181 36.6287 48.1715 35.7335 45.8477 39.0477C45.7525 39.1811 45.6953 39.3144 45.6382 39.4477C48.9144 37.1049 52.9906 37.8287 52.9906 37.8287Z" fill="url(#paint8_linear)"/>
<path d="M27.943 36.6286C27.943 36.6286 22.9144 37.5048 21.7906 41.4286C21.7144 41.6762 21.6953 41.9429 21.7144 42.1905C21.7525 42.7048 22.2668 43.2 23.1239 42.6476C28.4572 39.2 31.7525 40.4 34.2096 41.2381C35.162 41.5619 35.9239 40.5524 35.5811 39.7524C35.4858 39.5238 35.4096 39.2762 35.2572 39.0667C32.9715 35.7334 27.943 36.6286 27.943 36.6286Z" fill="url(#paint9_radial)"/>
<path d="M28.1524 37.8287C28.1524 37.8287 24.0572 38.5335 21.7334 41.8858C21.7524 41.7335 21.7715 41.5811 21.8096 41.4287C22.9334 37.5049 27.962 36.6287 27.962 36.6287C27.962 36.6287 32.9715 35.7335 35.2953 39.0477C35.3905 39.1811 35.4477 39.3144 35.5048 39.4477C32.2286 37.1049 28.1524 37.8287 28.1524 37.8287Z" fill="url(#paint10_linear)"/>
<path opacity="0.5" d="M40.5714 70.8003C57.4029 70.8003 71.0476 57.1556 71.0476 40.3241C71.0476 23.4925 57.4029 9.84787 40.5714 9.84787C23.7399 9.84787 10.0952 23.4925 10.0952 40.3241C10.0952 57.1556 23.7399 70.8003 40.5714 70.8003Z" fill="url(#paint11_radial)"/>
<path opacity="0.5" d="M40.5714 70.8003C57.4029 70.8003 71.0476 57.1556 71.0476 40.3241C71.0476 23.4925 57.4029 9.84787 40.5714 9.84787C23.7399 9.84787 10.0952 23.4925 10.0952 40.3241C10.0952 57.1556 23.7399 70.8003 40.5714 70.8003Z" fill="url(#paint12_radial)"/>
<path opacity="0.5" d="M40.5714 70.8003C57.4029 70.8003 71.0476 57.1556 71.0476 40.3241C71.0476 23.4925 57.4029 9.84787 40.5714 9.84787C23.7399 9.84787 10.0952 23.4925 10.0952 40.3241C10.0952 57.1556 23.7399 70.8003 40.5714 70.8003Z" fill="url(#paint13_radial)"/>
<path d="M61.0477 7.80954C59.2001 7.80954 57.562 8.74287 56.5905 10.1524C55.6191 8.74287 53.981 7.80954 52.1334 7.80954C49.1429 7.80954 46.7239 10.2286 46.7239 13.2191C46.7239 19.8095 56.5905 25.7334 56.5905 25.7334C56.5905 25.7334 66.4572 19.8095 66.4572 13.2191C66.4572 10.2286 64.0382 7.80954 61.0477 7.80954Z" fill="url(#paint14_radial)"/>
<path opacity="0.5" d="M63.2762 8.28574C66.2286 13.0095 63.5048 19.2 60.2286 20.9524C56.6095 22.8953 54.1524 21.981 49.0286 19.0667C51.9428 22.9334 56.5714 25.7143 56.5714 25.7143C56.5714 25.7143 66.4381 19.7905 66.4381 13.2C66.4571 11.0286 65.1619 9.14288 63.2762 8.28574Z" fill="url(#paint15_radial)"/>
<path opacity="0.5" d="M61.0477 7.80954C59.2001 7.80954 57.562 8.74287 56.5905 10.1524C55.6191 8.74287 53.981 7.80954 52.1334 7.80954C49.1429 7.80954 46.7239 10.2286 46.7239 13.2191C46.7239 19.8095 56.5905 25.7334 56.5905 25.7334C56.5905 25.7334 66.4572 19.8095 66.4572 13.2191C66.4572 10.2286 64.0382 7.80954 61.0477 7.80954Z" fill="url(#paint16_radial)"/>
<path opacity="0.5" d="M61.0477 7.80954C59.2001 7.80954 57.562 8.74287 56.5905 10.1524C55.6191 8.74287 53.981 7.80954 52.1334 7.80954C49.1429 7.80954 46.7239 10.2286 46.7239 13.2191C46.7239 19.8095 56.5905 25.7334 56.5905 25.7334C56.5905 25.7334 66.4572 19.8095 66.4572 13.2191C66.4572 10.2286 64.0382 7.80954 61.0477 7.80954Z" fill="url(#paint17_radial)"/>
<path opacity="0.24" d="M55.2383 9.99995C55.7716 11.2761 54.5716 13.0095 52.5526 13.8666C50.5335 14.7238 48.4383 14.3999 47.9049 13.1238C47.3716 11.8476 48.5716 10.1142 50.5907 9.25709C52.6097 8.39995 54.7049 8.72376 55.2383 9.99995Z" fill="url(#paint18_radial)"/>
<path opacity="0.24" d="M61.8477 8.97168C62.6096 9.82883 62.1525 11.505 60.7811 12.7241C59.4287 13.9431 57.7144 14.2479 56.9334 13.3907C56.1715 12.5336 56.6287 10.8574 58.0001 9.63835C59.3525 8.4193 61.0858 8.11454 61.8477 8.97168Z" fill="url(#paint19_radial)"/>
<path opacity="0.32" d="M61.1429 9.23818C63.8476 10.1715 66.4381 14.1715 62.0762 19.162C59.4476 22.1525 56.5905 23.6572 52.9524 23.0668C54.9143 24.7048 56.5905 25.7144 56.5905 25.7144C56.5905 25.7144 66.4572 19.7906 66.4572 13.2001C66.4572 10.2096 64.0381 7.79056 61.0476 7.79056C59.2 7.79056 57.5619 8.72389 56.5905 10.1334C56.5905 10.1525 59.1619 8.57151 61.1429 9.23818Z" fill="url(#paint20_linear)"/>
<path d="M22.5142 46.362C20.6666 46.362 19.0285 47.2953 18.0571 48.7048C17.0857 47.2763 15.4476 46.362 13.6 46.362C10.6095 46.362 8.19043 48.781 8.19043 51.7524C8.19043 58.3429 18.0571 64.2667 18.0571 64.2667C18.0571 64.2667 27.9238 58.3429 27.9238 51.7524C27.9238 48.781 25.5047 46.362 22.5142 46.362Z" fill="url(#paint21_radial)"/>
<path opacity="0.5" d="M24.7427 46.8381C27.6951 51.5619 24.9713 57.7524 21.6951 59.5048C18.0761 61.4477 15.6189 60.5334 10.4951 57.6191C13.4094 61.4858 18.038 64.2667 18.038 64.2667C18.038 64.2667 27.9046 58.3429 27.9046 51.7524C27.9237 49.5619 26.6284 47.6762 24.7427 46.8381Z" fill="url(#paint22_radial)"/>
<path opacity="0.5" d="M22.5142 46.362C20.6666 46.362 19.0285 47.2953 18.0571 48.7048C17.0857 47.2763 15.4476 46.362 13.6 46.362C10.6095 46.362 8.19043 48.781 8.19043 51.7524C8.19043 58.3429 18.0571 64.2667 18.0571 64.2667C18.0571 64.2667 27.9238 58.3429 27.9238 51.7524C27.9238 48.781 25.5047 46.362 22.5142 46.362Z" fill="url(#paint23_radial)"/>
<path opacity="0.5" d="M22.5142 46.362C20.6666 46.362 19.0285 47.2953 18.0571 48.7048C17.0857 47.2763 15.4476 46.362 13.6 46.362C10.6095 46.362 8.19043 48.781 8.19043 51.7524C8.19043 58.3429 18.0571 64.2667 18.0571 64.2667C18.0571 64.2667 27.9238 58.3429 27.9238 51.7524C27.9238 48.781 25.5047 46.362 22.5142 46.362Z" fill="url(#paint24_radial)"/>
<path opacity="0.24" d="M16.7048 48.5524C17.2382 49.8286 16.0382 51.562 14.0191 52.4191C12.0001 53.2763 9.90483 52.9524 9.3715 51.6763C8.83817 50.4001 10.0382 48.6667 12.0572 47.8096C14.0763 46.9334 16.1715 47.2763 16.7048 48.5524Z" fill="url(#paint25_radial)"/>
<path opacity="0.24" d="M23.3144 47.5241C24.0763 48.3813 23.6192 50.0575 22.2478 51.2765C20.8954 52.4956 19.1811 52.8003 18.4002 51.9432C17.6192 51.086 18.0954 49.4099 19.4668 48.1908C20.8192 46.9718 22.5525 46.667 23.3144 47.5241Z" fill="url(#paint26_radial)"/>
<path opacity="0.32" d="M22.6094 47.7906C25.3142 48.724 27.9047 52.724 23.5428 57.7144C20.9142 60.7049 18.057 62.2097 14.4189 61.6192C16.3809 63.2573 18.057 64.2668 18.057 64.2668C18.057 64.2668 27.9237 58.343 27.9237 51.7525C27.9237 48.7621 25.5047 46.343 22.5142 46.343C20.6666 46.343 19.0285 47.2764 18.057 48.6859C18.057 48.7049 20.6285 47.1049 22.6094 47.7906Z" fill="url(#paint27_linear)"/>
<path d="M66.4 54.1715C64.5524 54.1715 62.9143 55.1048 61.9428 56.5144C60.9714 55.0858 59.3333 54.1715 57.4857 54.1715C54.4952 54.1715 52.0762 56.5906 52.0762 59.581C52.0762 66.1715 61.9428 72.0953 61.9428 72.0953C61.9428 72.0953 71.8095 66.1715 71.8095 59.581C71.8095 56.5906 69.3905 54.1715 66.4 54.1715Z" fill="url(#paint28_radial)"/>
<path opacity="0.5" d="M68.6475 54.6477C71.5999 59.3715 68.8761 65.562 65.5999 67.3144C61.9809 69.2572 59.5237 68.3429 54.3999 65.4287C57.3142 69.2953 61.9428 72.0763 61.9428 72.0763C61.9428 72.0763 71.8094 66.1525 71.8094 59.562C71.8094 57.3715 70.5142 55.4858 68.6475 54.6477Z" fill="url(#paint29_radial)"/>
<path opacity="0.5" d="M66.4 54.1715C64.5524 54.1715 62.9143 55.1048 61.9428 56.5144C60.9714 55.0858 59.3333 54.1715 57.4857 54.1715C54.4952 54.1715 52.0762 56.5906 52.0762 59.581C52.0762 66.1715 61.9428 72.0953 61.9428 72.0953C61.9428 72.0953 71.8095 66.1715 71.8095 59.581C71.8095 56.5906 69.3905 54.1715 66.4 54.1715Z" fill="url(#paint30_radial)"/>
<path opacity="0.5" d="M66.4 54.1715C64.5524 54.1715 62.9143 55.1048 61.9428 56.5144C60.9714 55.0858 59.3333 54.1715 57.4857 54.1715C54.4952 54.1715 52.0762 56.5906 52.0762 59.581C52.0762 66.1715 61.9428 72.0953 61.9428 72.0953C61.9428 72.0953 71.8095 66.1715 71.8095 59.581C71.8095 56.5906 69.3905 54.1715 66.4 54.1715Z" fill="url(#paint31_radial)"/>
<path opacity="0.24" d="M60.5906 56.362C61.1239 57.6382 59.9239 59.3715 57.9049 60.2286C55.8858 61.0858 53.7906 60.762 53.2572 59.4858C52.7239 58.2096 53.9239 56.4763 55.943 55.6191C57.962 54.7429 60.0573 55.0858 60.5906 56.362Z" fill="url(#paint32_radial)"/>
<path opacity="0.24" d="M67.2003 55.3337C67.9622 56.1908 67.505 57.867 66.1336 59.0861C64.7812 60.3051 63.0669 60.6099 62.286 59.7527C61.5241 58.8956 61.9812 57.2194 63.3526 56.0003C64.705 54.7813 66.4384 54.4765 67.2003 55.3337Z" fill="url(#paint33_radial)"/>
<path opacity="0.32" d="M66.4952 55.6002C69.1999 56.5335 71.7904 60.5335 67.4285 65.524C64.7999 68.5145 61.9428 70.0192 58.3047 69.4287C60.2666 71.0668 61.9428 72.0764 61.9428 72.0764C61.9428 72.0764 71.8094 66.1526 71.8094 59.5621C71.8094 56.5716 69.3904 54.1526 66.3999 54.1526C64.5523 54.1526 62.9142 55.0859 61.9428 56.4954C61.9428 56.5145 64.5142 54.9145 66.4952 55.6002Z" fill="url(#paint34_linear)"/>
<defs>
<radialGradient id="paint0_radial" cx="0" cy="0" r="1" gradientUnits="userSpaceOnUse" gradientTransform="translate(34.5751 27.9796) scale(36.7656)">
<stop stop-color="#FFE030"/>
<stop offset="1" stop-color="#FFB92E"/>
</radialGradient>
<radialGradient id="paint1_radial" cx="0" cy="0" r="1" gradientUnits="userSpaceOnUse" gradientTransform="translate(34.5751 27.9796) scale(28.9251)">
<stop stop-color="#FFEA5F"/>
<stop offset="1" stop-color="#FFBC47" stop-opacity="0"/>
</radialGradient>
<radialGradient id="paint2_radial" cx="0" cy="0" r="1" gradientUnits="userSpaceOnUse" gradientTransform="translate(23.9677 47.9123) rotate(-2.7703) scale(12.819 10.143)">
<stop stop-color="#FF4C00"/>
<stop offset="0.1542" stop-color="#FF4C00"/>
<stop offset="0.1795" stop-color="#FF4C00"/>
<stop offset="0.3996" stop-color="#FB4C0B" stop-opacity="0.7318"/>
<stop offset="0.7799" stop-color="#EF4B27" stop-opacity="0.2683"/>
<stop offset="1" stop-color="#E74A3A" stop-opacity="0"/>
</radialGradient>
<radialGradient id="paint3_radial" cx="0" cy="0" r="1" gradientUnits="userSpaceOnUse" gradientTransform="translate(57.1649 47.9123) rotate(-177.23) scale(12.819 10.143)">
<stop stop-color="#FF4C00"/>
<stop offset="0.1542" stop-color="#FF4C00"/>
<stop offset="0.1795" stop-color="#FF4C00"/>
<stop offset="0.3996" stop-color="#FB4C0B" stop-opacity="0.7318"/>
<stop offset="0.7799" stop-color="#EF4B27" stop-opacity="0.2683"/>
<stop offset="1" stop-color="#E74A3A" stop-opacity="0"/>
</radialGradient>
<linearGradient id="paint4_linear" x1="40.571" y1="49.1793" x2="40.571" y2="56.3473" gradientUnits="userSpaceOnUse">
<stop offset="0.00132565" stop-color="#3C2200"/>
<stop offset="1" stop-color="#512D00"/>
</linearGradient>
<linearGradient id="paint5_linear" x1="27.2789" y1="30.3814" x2="27.706" y2="27.1987" gradientUnits="userSpaceOnUse">
<stop offset="0.00132565" stop-color="#3C2200"/>
<stop offset="1" stop-color="#7A4400"/>
</linearGradient>
<linearGradient id="paint6_linear" x1="53.8617" y1="30.3818" x2="53.4346" y2="27.1991" gradientUnits="userSpaceOnUse">
<stop offset="0.00132565" stop-color="#3C2200"/>
<stop offset="1" stop-color="#7A4400"/>
</linearGradient>
<radialGradient id="paint7_radial" cx="0" cy="0" r="1" gradientUnits="userSpaceOnUse" gradientTransform="translate(52.7046 39.4608) rotate(9.9808) scale(5.47711 2.64265)">
<stop offset="0.00132565" stop-color="#7A4400"/>
<stop offset="1" stop-color="#643800"/>
</radialGradient>
<linearGradient id="paint8_linear" x1="53.5018" y1="35.0519" x2="52.9084" y2="38.5404" gradientUnits="userSpaceOnUse">
<stop offset="0.00132565" stop-color="#3C2200"/>
<stop offset="1" stop-color="#512D00"/>
</linearGradient>
<radialGradient id="paint9_radial" cx="0" cy="0" r="1" gradientUnits="userSpaceOnUse" gradientTransform="translate(28.5142 39.3769) rotate(170.019) scale(5.47711 2.64265)">
<stop offset="0.00132565" stop-color="#7A4400"/>
<stop offset="1" stop-color="#643800"/>
</radialGradient>
<linearGradient id="paint10_linear" x1="27.592" y1="35.0231" x2="28.1854" y2="38.5116" gradientUnits="userSpaceOnUse">
<stop offset="0.00132565" stop-color="#3C2200"/>
<stop offset="1" stop-color="#512D00"/>
</linearGradient>
<radialGradient id="paint11_radial" cx="0" cy="0" r="1" gradientUnits="userSpaceOnUse" gradientTransform="translate(59.8315 18.7684) rotate(-177.23) scale(12.819 10.143)">
<stop stop-color="#FF4C00"/>
<stop offset="0.1542" stop-color="#FF4C00"/>
<stop offset="0.1795" stop-color="#FF4C00"/>
<stop offset="0.3996" stop-color="#FB4C0B" stop-opacity="0.7318"/>
<stop offset="0.7799" stop-color="#EF4B27" stop-opacity="0.2683"/>
<stop offset="1" stop-color="#E74A3A" stop-opacity="0"/>
</radialGradient>
<radialGradient id="paint12_radial" cx="0" cy="0" r="1" gradientUnits="userSpaceOnUse" gradientTransform="translate(63.8314 66.4527) rotate(-177.23) scale(12.819 10.143)">
<stop stop-color="#FF4C00"/>
<stop offset="0.1542" stop-color="#FF4C00"/>
<stop offset="0.1795" stop-color="#FF4C00"/>
<stop offset="0.3996" stop-color="#FB4C0B" stop-opacity="0.7318"/>
<stop offset="0.7799" stop-color="#EF4B27" stop-opacity="0.2683"/>
<stop offset="1" stop-color="#E74A3A" stop-opacity="0"/>
</radialGradient>
<radialGradient id="paint13_radial" cx="0" cy="0" r="1" gradientUnits="userSpaceOnUse" gradientTransform="translate(15.9284 59.532) rotate(-177.23) scale(12.819 10.143)">
<stop stop-color="#FF4C00"/>
<stop offset="0.1542" stop-color="#FF4C00"/>
<stop offset="0.1795" stop-color="#FF4C00"/>
<stop offset="0.3996" stop-color="#FB4C0B" stop-opacity="0.7318"/>
<stop offset="0.7799" stop-color="#EF4B27" stop-opacity="0.2683"/>
<stop offset="1" stop-color="#E74A3A" stop-opacity="0"/>
</radialGradient>
<radialGradient id="paint14_radial" cx="0" cy="0" r="1" gradientUnits="userSpaceOnUse" gradientTransform="translate(53.766 12.8113) rotate(-29.408) scale(15.4382 12.2465)">
<stop offset="0.2479" stop-color="#FF0000"/>
<stop offset="0.8639" stop-color="#C20000"/>
</radialGradient>
<radialGradient id="paint15_radial" cx="0" cy="0" r="1" gradientUnits="userSpaceOnUse" gradientTransform="translate(54.1477 11.8643) rotate(-29.408) scale(13.2918 10.5438)">
<stop offset="0.2479" stop-color="#FF0000"/>
<stop offset="1" stop-color="#C20000"/>
</radialGradient>
<radialGradient id="paint16_radial" cx="0" cy="0" r="1" gradientUnits="userSpaceOnUse" gradientTransform="translate(53.766 12.8113) rotate(-29.408) scale(15.4382 12.2465)">
<stop stop-color="white" stop-opacity="0.25"/>
<stop offset="1" stop-color="white" stop-opacity="0"/>
</radialGradient>
<radialGradient id="paint17_radial" cx="0" cy="0" r="1" gradientUnits="userSpaceOnUse" gradientTransform="translate(59.3158 18.0497) rotate(-26.296) scale(11.2693 5.56864)">
<stop stop-color="#BD2719" stop-opacity="0.25"/>
<stop offset="1" stop-color="#BD2719" stop-opacity="0"/>
</radialGradient>
<radialGradient id="paint18_radial" cx="0" cy="0" r="1" gradientUnits="userSpaceOnUse" gradientTransform="translate(51.5697 11.5661) rotate(-21.6908) scale(4.00624 2.48861)">
<stop stop-color="white"/>
<stop offset="1" stop-color="white" stop-opacity="0"/>
</radialGradient>
<radialGradient id="paint19_radial" cx="0" cy="0" r="1" gradientUnits="userSpaceOnUse" gradientTransform="translate(59.3861 11.199) rotate(-40.7635) scale(3.31694 2.06057)">
<stop stop-color="white"/>
<stop offset="1" stop-color="white" stop-opacity="0"/>
</radialGradient>
<linearGradient id="paint20_linear" x1="58.6253" y1="32.7754" x2="60.5369" y2="6.99997" gradientUnits="userSpaceOnUse">
<stop stop-color="#860805"/>
<stop offset="1" stop-color="#BD2719" stop-opacity="0"/>
</linearGradient>
<radialGradient id="paint21_radial" cx="0" cy="0" r="1" gradientUnits="userSpaceOnUse" gradientTransform="translate(15.2343 51.3531) rotate(-29.408) scale(15.4382 12.2465)">
<stop offset="0.2479" stop-color="#FF0000"/>
<stop offset="0.8639" stop-color="#C20000"/>
</radialGradient>
<radialGradient id="paint22_radial" cx="0" cy="0" r="1" gradientUnits="userSpaceOnUse" gradientTransform="translate(15.616 50.4061) rotate(-29.408) scale(13.2918 10.5438)">
<stop offset="0.2479" stop-color="#FF0000"/>
<stop offset="1" stop-color="#C20000"/>
</radialGradient>
<radialGradient id="paint23_radial" cx="0" cy="0" r="1" gradientUnits="userSpaceOnUse" gradientTransform="translate(15.2343 51.3531) rotate(-29.408) scale(15.4382 12.2465)">
<stop stop-color="white" stop-opacity="0.25"/>
<stop offset="1" stop-color="white" stop-opacity="0"/>
</radialGradient>
<radialGradient id="paint24_radial" cx="0" cy="0" r="1" gradientUnits="userSpaceOnUse" gradientTransform="translate(20.7848 56.5941) rotate(-26.296) scale(11.2693 5.56864)">
<stop stop-color="#BD2719" stop-opacity="0.25"/>
<stop offset="1" stop-color="#BD2719" stop-opacity="0"/>
</radialGradient>
<radialGradient id="paint25_radial" cx="0" cy="0" r="1" gradientUnits="userSpaceOnUse" gradientTransform="translate(13.0353 50.1074) rotate(-21.6908) scale(4.00624 2.48861)">
<stop stop-color="white"/>
<stop offset="1" stop-color="white" stop-opacity="0"/>
</radialGradient>
<radialGradient id="paint26_radial" cx="0" cy="0" r="1" gradientUnits="userSpaceOnUse" gradientTransform="translate(20.8534 49.7442) rotate(-40.7633) scale(3.31694 2.06057)">
<stop stop-color="white"/>
<stop offset="1" stop-color="white" stop-opacity="0"/>
</radialGradient>
<linearGradient id="paint27_linear" x1="20.0926" y1="71.3187" x2="22.0041" y2="45.5433" gradientUnits="userSpaceOnUse">
<stop stop-color="#860805"/>
<stop offset="1" stop-color="#BD2719" stop-opacity="0"/>
</linearGradient>
<radialGradient id="paint28_radial" cx="0" cy="0" r="1" gradientUnits="userSpaceOnUse" gradientTransform="translate(59.1195 59.1648) rotate(-29.408) scale(15.4382 12.2465)">
<stop offset="0.2479" stop-color="#FF0000"/>
<stop offset="0.8639" stop-color="#C20000"/>
</radialGradient>
<radialGradient id="paint29_radial" cx="0" cy="0" r="1" gradientUnits="userSpaceOnUse" gradientTransform="translate(59.5012 58.2178) rotate(-29.408) scale(13.2918 10.5438)">
<stop offset="0.2479" stop-color="#FF0000"/>
<stop offset="1" stop-color="#C20000"/>
</radialGradient>
<radialGradient id="paint30_radial" cx="0" cy="0" r="1" gradientUnits="userSpaceOnUse" gradientTransform="translate(59.1195 59.1648) rotate(-29.408) scale(15.4382 12.2465)">
<stop stop-color="white" stop-opacity="0.25"/>
<stop offset="1" stop-color="white" stop-opacity="0"/>
</radialGradient>
<radialGradient id="paint31_radial" cx="0" cy="0" r="1" gradientUnits="userSpaceOnUse" gradientTransform="translate(64.6702 64.403) rotate(-26.296) scale(11.2693 5.56864)">
<stop stop-color="#BD2719" stop-opacity="0.25"/>
<stop offset="1" stop-color="#BD2719" stop-opacity="0"/>
</radialGradient>
<radialGradient id="paint32_radial" cx="0" cy="0" r="1" gradientUnits="userSpaceOnUse" gradientTransform="translate(56.9227 57.9182) rotate(-21.6907) scale(4.00625 2.48861)">
<stop stop-color="white"/>
<stop offset="1" stop-color="white" stop-opacity="0"/>
</radialGradient>
<radialGradient id="paint33_radial" cx="0" cy="0" r="1" gradientUnits="userSpaceOnUse" gradientTransform="translate(64.7388 57.5542) rotate(-40.7635) scale(3.31694 2.06057)">
<stop stop-color="white"/>
<stop offset="1" stop-color="white" stop-opacity="0"/>
</radialGradient>
<linearGradient id="paint34_linear" x1="63.9792" y1="79.1283" x2="65.8908" y2="53.3529" gradientUnits="userSpaceOnUse">
<stop stop-color="#860805"/>
<stop offset="1" stop-color="#BD2719" stop-opacity="0"/>
</linearGradient>
</defs>
</svg>
