<svg width="80" height="80" viewBox="0 0 80 80" fill="none" xmlns="http://www.w3.org/2000/svg">
<path d="M39.8067 72.0002C37.3274 72.0002 36.385 70.0168 36.5767 66.1746C36.7041 63.6419 37.5589 56.5807 33.981 53.0029C30.6456 49.6675 29.6745 49.9634 25.8761 45.6568C22.0778 41.3503 18.9108 42.2379 14.4783 42.6173C8.9088 43.0954 10.8073 12.1934 14.7317 12.729C17.5178 13.1084 23.8502 13.8686 24.8639 13.8686C25.8775 13.8686 32.8236 8.4868 38.9204 8.42379C48.7978 8.32106 54.244 10.0702 54.244 10.0702L57.1397 16.6355L58.1081 36.6574L53.4852 46.291C53.4852 46.291 47.2801 45.2774 45.5063 48.0635C43.7338 50.8496 46.8993 54.2686 46.8993 62.2475C46.8993 70.2264 41.0737 72.0002 39.8067 72.0002Z" fill="url(#paint0_linear)"/>
<path d="M54.5906 10.1293L54.2153 11.4991C53.1017 11.6169 51.6716 11.1114 49.7156 11.1265C40.3752 11.1977 31.447 13.8811 27.6158 16.9124C25.1064 18.8986 24.0064 21.5422 22.234 20.782C20.0478 19.8451 13.84 18.3863 11.558 21.2738C12.1963 16.3303 13.3359 12.5374 14.7331 12.7278C17.5192 13.1072 23.8517 13.8674 24.8653 13.8674C25.8789 13.8674 32.6332 8.62669 38.9232 8.42122C47.0624 8.15549 54.292 9.55676 54.292 9.55676L54.5906 10.1293Z" fill="url(#paint1_linear)"/>
<path d="M45.5062 48.0632C43.7337 50.8493 46.8993 54.2683 46.8993 62.2472C46.8993 70.2261 41.0736 71.9985 39.8066 71.9985C39.4737 71.9985 39.1779 71.9615 38.9108 71.8903C44.0775 71.5671 47.1883 65.0511 45.4076 58.3324C43.9625 52.8807 43.2433 48.5098 45.6021 45.9455C47.128 44.2854 50.162 44.5689 53.4837 46.2894C53.4851 46.2907 47.2787 45.2771 45.5062 48.0632Z" fill="url(#paint2_linear)"/>
<path d="M45.8542 45.2199C42.8146 44.2062 35.1398 41.8228 29.3238 36.5506C14.5892 23.1899 39.7477 21.5147 44.9419 10.0881C45.935 7.90328 51.74 21.5434 51.74 21.5434L53.618 24.7021L48.1937 39.1463L45.8542 45.2199Z" fill="url(#paint3_linear)"/>
<path d="M46.3007 44.0634C43.2612 43.0498 30.8442 35.0969 30.8442 31.1684C30.8442 19.8336 39.4437 25.4277 44.0913 12.0533C44.7351 10.2014 47.0075 8.64258 47.0075 8.64258C48.8909 10.1795 51.7414 21.5444 51.7414 21.5444L53.6194 24.7031L48.1951 39.1473L46.3007 44.0634Z" fill="url(#paint4_linear)"/>
<path d="M53.3167 9.3206L59.1341 15.9708L60.4162 43.7538L45.8542 45.2208C42.5119 43.421 42.1243 40.9609 43.3667 37.0105C43.8885 35.3476 41.7654 34.8722 41.6284 30.0287C41.5339 26.6728 43.7324 26.6564 43.7324 25.6592C43.7324 24.662 42.6379 24.751 42.275 21.8595C41.7558 17.7241 45.22 17.6447 45.22 16.7598C45.22 15.8749 43.2954 15.3503 43.4146 11.9807C43.5653 7.70564 35.6261 8.56997 30.2594 12.4601C28.0554 14.0573 26.1322 14.2216 24.631 13.86C24.7255 13.8655 24.8049 13.8682 24.8638 13.8682C25.8775 13.8682 32.6825 8.55353 38.9218 8.42203C46.3021 8.26862 51.2634 8.85077 53.3167 9.3206Z" fill="url(#paint5_linear)"/>
<path d="M54.6535 43.3897C50.158 43.3897 47.6883 38.9969 49.3977 35.6204C51.1072 32.2439 46.2322 27.7771 46.7376 25.5786C47.2445 23.3801 48.1307 17.812 48.8279 16.8916C49.5251 15.9711 47.6883 13.8808 47.6883 13.8808L53.3879 13.1836L58.7067 15.5286L58.5163 31.6111L59.0861 41.6789L54.6535 43.3897Z" fill="url(#paint6_linear)"/>
<path opacity="0.5" d="M39.8067 71.9997C37.3274 71.9997 36.385 70.0163 36.5767 66.1741C36.7041 63.6414 37.5589 56.5802 33.981 53.0024C30.6456 49.667 29.6745 49.9629 25.8761 45.6563C23.4078 42.8592 21.2079 42.2538 18.7533 42.2771C17.4288 42.2894 16.0316 42.4839 14.4783 42.6168C14.4783 41.6552 14.7604 41.6785 18.4328 40.6649C18.8519 40.5498 19.2519 40.4704 19.6368 40.4224C19.8258 39.8403 19.9272 39.2499 19.9026 38.6664C19.7697 35.468 20.4737 31.5244 21.0121 35.6255C21.2203 37.2158 21.8736 38.9979 22.7996 40.7964C24.1899 41.3539 25.3186 42.3963 26.3172 43.6099C28.1814 45.8755 29.8005 47.8835 34.4865 50.9231C39.1725 53.9626 38.5711 62.3209 38.1903 65.107C37.8095 67.8945 38.0629 71.9997 39.8067 71.9997Z" fill="url(#paint7_radial)"/>
<path d="M58.0588 46.4167C52.7441 46.6195 43.1858 46.9194 42.9735 41.3513C42.8201 37.3133 45.6843 35.9887 50.1141 35.8202C54.544 35.6517 56.7589 35.5668 58.593 35.4969C60.4271 35.4271 66.1979 35.4627 66.2555 40.3377C66.3267 46.4304 58.0588 46.4167 58.0588 46.4167Z" fill="url(#paint8_linear)"/>
<path d="M49.317 26.2851C47.8924 26.3262 43.6612 25.2592 43.264 22.5717C42.9517 20.4581 44.031 17.7268 47.713 17.083C52.3784 16.2667 60.1505 15.8393 63.0544 16.9255C64.3516 17.4104 65.483 18.7678 65.5419 20.8266C65.6008 22.8854 64.0721 25.6591 60.7491 25.755C57.426 25.8509 55.6946 25.7989 53.8002 26.0235C51.5251 26.292 50.4566 26.2523 49.317 26.2851Z" fill="url(#paint9_linear)"/>
<path d="M47.8335 16.893C46.2185 16.893 44.2241 15.4684 44.2241 13.0932C44.2241 10.7181 44.8419 8.96203 48.3088 8.29632C51.7757 7.63198 57.3328 8.20044 59.4217 8.86614C61.049 9.38392 61.6544 10.9085 61.6544 13.4247C61.6544 15.941 60.086 16.3834 58.3766 16.3834C56.6671 16.3834 54.5919 16.0711 53.4057 16.1341C50.0977 16.3067 49.4484 16.893 47.8335 16.893Z" fill="url(#paint10_linear)"/>
<path d="M57.6067 45.2923C52.966 45.469 44.62 45.7375 44.4529 41.3351C44.331 38.1435 46.8363 37.0861 50.7045 36.9395C54.5727 36.7916 64.7487 36.6066 64.783 40.4612C64.8254 45.2773 57.6067 45.2923 57.6067 45.2923Z" fill="url(#paint11_radial)"/>
<path d="M49.7443 25.1497C48.5046 25.1853 45.0323 24.8895 44.6994 22.3225C44.4748 20.5857 45.3747 18.3529 48.5814 17.8201C52.6441 17.1448 59.4107 16.7818 61.938 17.6681C63.0666 18.0639 64.0501 19.1734 64.0981 20.861C64.1474 22.5472 62.5927 24.6155 59.6998 24.6991C56.8068 24.7826 55.2686 24.5155 53.618 24.7018C51.6373 24.9251 50.736 25.1223 49.7443 25.1497Z" fill="url(#paint12_radial)"/>
<path d="M48.5225 16.0274C47.1253 16.0274 45.4008 14.8795 45.4008 12.9687C45.4008 11.0579 45.935 9.64155 48.9334 9.10597C51.9318 8.57039 56.7397 9.02926 58.5464 9.56484C59.9545 9.98262 60.4778 11.2086 60.4778 13.2358C60.4778 15.2631 59.1217 15.6165 57.6437 15.6165C56.1658 15.6165 54.37 15.3644 53.344 15.4151C50.4812 15.5548 49.9196 16.0274 48.5225 16.0274Z" fill="url(#paint13_linear)"/>
<path d="M18.1794 13.1696C14.4399 14.7764 10.947 36.7844 17.8383 42.3101C16.7863 42.3745 15.6782 42.5128 14.4783 42.6169C8.9088 43.0936 10.8073 12.193 14.7317 12.7286C15.6166 12.8505 16.8617 13.0094 18.1794 13.1696Z" fill="url(#paint14_linear)"/>
<path d="M47.6718 41.3326C47.7869 44.3666 50.2059 45.8185 53.2619 46.4884C48.3841 46.3747 43.131 45.4638 42.9735 41.3517C42.8201 37.3137 45.6843 35.9891 50.1141 35.8206C50.6018 35.8014 51.0606 35.785 51.4976 35.7686C49.0087 36.4959 47.5499 38.1355 47.6718 41.3326Z" fill="url(#paint15_linear)"/>
<path d="M48.0884 45.9403C45.2502 45.3198 43.0736 43.9788 42.9736 41.3516C42.8462 37.9943 44.805 36.5135 48.0158 36.0122C41.5052 38.612 43.8421 45.0116 48.0884 45.9403Z" fill="url(#paint16_radial)"/>
<path opacity="0.16" d="M40.5299 14.0331C39.7792 12.3086 36.2069 12.2003 32.551 13.792C28.8951 15.3823 26.5404 18.0698 27.2911 19.7943C28.0417 21.5189 31.6141 21.6271 35.27 20.0354C38.9259 18.4437 41.2805 15.7563 40.5299 14.0331Z" fill="url(#paint17_radial)"/>
<path opacity="0.16" d="M62.0407 40.519C62.0051 38.189 58.8889 37.0836 55.4782 36.8768C52.6907 36.7083 49.5964 38.6807 49.6772 40.9559C49.758 43.2325 50.1621 45.2488 55.9549 45.0488C59.3683 44.931 62.0763 42.7969 62.0407 40.519Z" fill="url(#paint18_radial)"/>
<path opacity="0.16" d="M62.6598 20.0365C62.6406 16.8107 59.0916 17.4299 55.6836 17.2038C51.362 16.9189 48.4964 18.264 48.4937 20.542C48.4909 22.8199 50.1346 24.4787 55.9315 24.4883C59.3477 24.4951 62.6845 24.1814 62.6598 20.0365Z" fill="url(#paint19_radial)"/>
<path opacity="0.16" d="M59.5354 11.9016C59.5176 9.1511 56.2945 8.77716 53.24 8.77442C50.1854 8.77168 46.8705 10.3907 46.8678 12.3317C46.8664 14.274 48.3362 15.6876 53.518 15.6959C56.5726 15.7027 59.5573 15.4356 59.5354 11.9016Z" fill="url(#paint20_radial)"/>
<path d="M47.2267 21.9189C47.713 25.5926 50.5306 25.3762 53.7605 25.7583C50.0402 26.035 48.4814 26.0761 48.4814 26.0761C48.1335 26.1104 47.7458 26.1117 47.3418 26.0693C46.1336 25.8035 44.7639 25.2543 43.9516 24.2228C43.6763 23.8297 43.4516 23.3653 43.3037 22.8161C43.2886 22.7366 43.2735 22.6544 43.2626 22.5709C43.001 20.4505 44.0297 17.726 47.7116 17.0822C48.2431 16.9891 48.8156 16.9014 49.4156 16.8206C49.7032 16.785 50.0169 16.7453 50.3525 16.7014C50.4429 16.6905 50.5333 16.6795 50.6251 16.6699C48.5965 17.6315 46.8706 19.2204 47.2267 21.9189Z" fill="url(#paint21_linear)"/>
<path d="M48.128 26.0991C47.8773 26.1073 47.6116 26.0977 47.3403 26.0689C46.1213 25.8005 44.7405 25.243 43.931 24.1951C43.6639 23.8088 43.4488 23.3513 43.305 22.8144C43.2899 22.7349 43.279 22.6541 43.2653 22.5719C42.8927 20.4817 43.9269 18.0202 47.1431 17.2065C41.6544 20.2337 43.9967 26.0963 48.128 26.0991Z" fill="url(#paint22_radial)"/>
<path opacity="0.5" d="M51.3223 16.3309C49.7005 16.5678 49.0334 16.8925 47.8335 16.8925C46.2185 16.8925 44.2241 15.4679 44.2241 13.0927C44.2241 12.2298 44.3063 11.4504 44.5762 10.7724C44.8487 10.2135 45.246 9.69024 45.7925 9.24781C46.3911 8.83003 47.2047 8.50676 48.3088 8.29582C49.0498 8.15336 49.8881 8.06844 50.7661 8.02734C49.0717 9.01084 46.2007 9.54094 46.802 12.8352C47.4664 16.4747 49.6374 15.9843 51.3223 16.3309Z" fill="url(#paint23_linear)"/>
<path d="M47.7609 16.8913C46.1596 16.8502 44.2241 15.4339 44.2241 13.0943C44.2241 10.9191 44.7446 9.26171 47.4979 8.48779C43.1968 11.2492 44.5775 15.9106 47.7609 16.8913Z" fill="url(#paint24_radial)"/>
<path d="M66.2555 40.3377C66.2624 40.8843 66.2007 41.3801 66.0843 41.8321C66.5117 39.9282 64.8173 38.0379 60.3203 37.1188C57.3411 36.5106 49.4293 35.7504 43.9543 37.9242C45.1351 36.4969 47.3103 35.9257 50.1142 35.8189C54.544 35.6504 56.7589 35.5655 58.593 35.4956C60.4285 35.4271 66.1994 35.4627 66.2555 40.3377Z" fill="url(#paint25_linear)"/>
<path d="M65.5446 20.957C65.5378 23.0007 64.0064 25.6622 60.7518 25.7553C57.4288 25.8512 55.6974 25.8005 53.803 26.0238C51.5265 26.2923 50.4567 26.2526 49.3184 26.2854C48.4582 26.3101 46.3337 26.0498 44.8885 25.1526C46.5131 24.5883 49.1581 23.7418 52.8825 23.9801C61.8038 24.5527 64.342 23.4747 65.5446 20.957Z" fill="url(#paint26_linear)"/>
<path d="M47.4034 35.4995C45.5035 35.5378 42.4887 34.4201 42.4106 30.4779C42.3325 26.5357 45.7802 25.596 47.3007 25.5659C48.8211 25.5358 54.1331 25.1728 60.6861 25.0426C67.239 24.9112 68.117 28.4273 68.1527 30.2711C68.1896 32.1134 67.0212 35.4474 63.0804 35.5255C51.6826 35.7529 47.4034 35.4995 47.4034 35.4995Z" fill="url(#paint27_linear)"/>
<path d="M48.4225 34.3548C46.772 34.3877 44.153 33.5316 44.0913 30.4893C44.0311 27.4485 47.0309 26.7156 48.3513 26.6896C49.6718 26.6636 53.8016 26.0225 59.9875 26.2595C65.6816 26.4773 66.4405 28.8566 66.4692 30.2798C66.498 31.7016 66.3008 34.274 62.875 34.3425C52.9674 34.5411 48.4225 34.3548 48.4225 34.3548Z" fill="url(#paint28_radial)"/>
<path d="M46.4857 30.8568C46.6761 34.9045 49.5019 34.9154 52.6907 35.6154C48.9608 35.5921 47.4034 35.5003 47.4034 35.5003C45.5035 35.5387 42.4887 34.4209 42.4106 30.4787C42.3325 26.5366 45.7802 25.5969 47.3007 25.5668C47.8486 25.5558 48.891 25.5024 50.3032 25.4312C48.1965 26.2982 46.3459 27.8803 46.4857 30.8568Z" fill="url(#paint29_linear)"/>
<path d="M47.0486 35.4925C45.1514 35.3911 42.4845 34.1816 42.4105 30.4778C42.3352 26.7301 45.4487 25.6973 47.0609 25.5781C40.8175 28.0971 42.8639 35.1213 47.0486 35.4925Z" fill="url(#paint30_radial)"/>
<path opacity="0.5" d="M68.1417 30.6689C67.3185 24.8364 51.8963 25.9048 43.564 27.1568C44.6885 25.9528 46.361 25.5857 47.2993 25.5679C48.8184 25.5377 54.1317 25.1747 60.6847 25.0446C67.2377 24.9131 68.1157 28.4293 68.1513 30.273C68.154 30.3963 68.1513 30.5305 68.1417 30.6689Z" fill="url(#paint31_linear)"/>
<path opacity="0.5" d="M60.4162 17.6803C57.4287 17.5488 49.5252 16.5666 43.7639 19.6527C44.4063 18.4583 45.6515 17.4447 47.713 17.083C52.3784 16.2667 60.1504 15.8393 63.0544 16.9255C64.3515 17.4104 65.483 18.7678 65.5419 20.8266C65.3515 19.0363 63.6461 17.8227 60.4162 17.6803Z" fill="url(#paint32_linear)"/>
<path d="M61.4229 11.1985C59.4655 9.70953 56.0822 8.83014 51.2017 9.65474C48.1869 10.1643 46.1213 10.3369 44.7625 10.3752C45.3062 9.39311 46.3541 8.67124 48.3074 8.2973C51.7743 7.63296 57.3314 8.20141 59.4203 8.86712C60.4929 9.20819 61.1188 9.98759 61.4229 11.1985Z" fill="url(#paint33_linear)"/>
<path d="M44.8652 15.2302C48.4814 16.5466 50.2539 14.5933 54.1235 14.5933C58.1424 14.5933 60.0573 16.2164 61.4846 14.6727C61.0353 16.0973 59.7532 16.3835 58.3766 16.3835C56.6671 16.3835 54.592 16.0712 53.4057 16.1343C50.0977 16.3082 49.4485 16.8945 47.8335 16.8945C46.7884 16.8931 45.5844 16.2959 44.8652 15.2302Z" fill="url(#paint34_linear)"/>
<path d="M14.7317 12.7285C17.5178 13.108 23.8502 13.8682 24.8639 13.8682C15.6796 20.4335 19.7642 34.3969 23.1517 41.4594C23.627 42.4511 23.9215 43.2634 24.079 43.9551C21.023 41.6251 18.1958 42.2977 14.4783 42.6169C8.9088 43.0949 10.8073 12.1943 14.7317 12.7285Z" fill="url(#paint35_linear)"/>
<path opacity="0.5" d="M20.5231 19.0738C19.5738 20.3409 20.397 17.6178 21.1559 15.6549C21.8024 13.9838 16.8466 14.9714 13.0537 14.5618C13.5496 13.3386 14.1153 12.6469 14.7317 12.7304C17.5178 13.1099 23.8502 13.8701 24.8639 13.8701C23.4352 15.0837 21.4723 17.8068 20.5231 19.0738Z" fill="url(#paint36_radial)"/>
<path opacity="0.16" d="M42.7612 60.3842C40.9559 59.9938 39.493 62.4868 38.667 65.3962C37.9917 67.7741 38.9095 70.804 40.6819 71.1465C42.4544 71.4889 44.0913 71.504 45.0679 66.4619C45.6446 63.4908 44.5269 60.765 42.7612 60.3842Z" fill="url(#paint37_radial)"/>
<path opacity="0.16" d="M64.8145 30.4381C64.946 27.2151 61.3655 26.6082 57.9534 26.4452C54.5413 26.2822 50.7484 28.0054 50.6402 30.2806C50.532 32.5558 52.0962 34.2899 57.8849 34.5707C61.297 34.7351 64.6461 34.5789 64.8145 30.4381Z" fill="url(#paint38_radial)"/>
<path d="M47.7978 16.9088C46.8047 16.8047 45.9061 16.2719 45.287 15.5404C44.6596 14.8021 44.3665 13.8378 44.4295 12.8694C44.4363 11.8955 44.5829 10.8983 45.1363 10.1093C45.6842 9.31344 46.6047 8.83813 47.5334 8.50391C46.5746 8.7217 45.5733 9.11619 44.9308 9.95586C44.2802 10.7873 44.1295 11.8681 44.098 12.8611C44.0542 13.8775 44.3788 14.9583 45.0952 15.7075C45.7924 16.4636 46.7951 16.928 47.7978 16.9088Z" fill="#663C1D"/>
<path d="M46.2048 25.7427C45.5514 25.4592 44.9473 25.0702 44.4487 24.588C43.9419 24.1113 43.6693 23.4566 43.4844 22.7936L43.4871 22.8032C43.2474 21.5937 43.4502 20.3061 44.1611 19.2993C44.8555 18.2802 45.9801 17.6131 47.18 17.2241C45.9473 17.4611 44.7049 18.061 43.9268 19.1322C43.5406 19.6596 43.2735 20.2746 43.1461 20.917C43.0146 21.5608 43.0748 22.2334 43.1954 22.8607L43.1981 22.8717C43.3926 23.5675 43.7392 24.2661 44.3117 24.7373C44.8569 25.2249 45.5308 25.5249 46.2048 25.7427Z" fill="#663C1D"/>
<path d="M47.0842 35.5099C45.9089 35.3771 44.7747 34.888 43.9652 34.0676C43.1529 33.2471 42.7146 32.1156 42.6434 30.9623C42.5242 29.8144 42.7119 28.6145 43.368 27.6625C44.0159 26.7064 45.0747 26.0654 46.2075 25.7339C45.0473 25.9448 43.894 26.5174 43.1598 27.5146C42.4105 28.5022 42.2119 29.7966 42.3119 30.9911C42.4105 32.191 42.8803 33.4169 43.7871 34.2497C44.683 35.0908 45.902 35.4976 47.0842 35.5099Z" fill="#663C1D"/>
<path d="M48.1251 45.9579C46.869 45.6141 45.6212 45.1401 44.6322 44.3251C43.635 43.5156 43.094 42.2636 43.1775 40.9829C43.1611 39.7104 43.5761 38.4132 44.5445 37.568C45.4979 36.7147 46.7841 36.2996 48.0539 36.0298C46.7663 36.1818 45.4253 36.5037 44.3774 37.3749C43.3035 38.2337 42.8488 39.6583 42.846 40.9774C42.7762 42.317 43.3802 43.721 44.4733 44.5223C45.5445 45.3428 46.843 45.7319 48.1251 45.9579Z" fill="#663C1D"/>
<path d="M43.8008 19.6703C44.6637 18.1732 46.3266 17.3993 47.9662 17.1774C49.636 16.9185 51.3194 16.7431 53.0056 16.6349C54.6891 16.4911 56.3794 16.4034 58.0683 16.4103C58.9121 16.4212 59.7586 16.4432 60.5969 16.5253C61.4365 16.5925 62.2844 16.6788 63.0912 16.9445C61.4927 16.3445 59.7613 16.2487 58.0724 16.1898C56.3739 16.1459 54.6754 16.1952 52.981 16.3048C51.2893 16.45 49.6031 16.6637 47.9306 16.9609C47.0896 17.0993 46.2513 17.3595 45.5144 17.8075C44.7829 18.2608 44.1802 18.9115 43.8008 19.6703Z" fill="#663C1D"/>
<path d="M43.6008 27.1723C44.2474 26.5271 45.0816 26.1025 45.9527 25.8847C46.8184 25.6258 47.7293 25.6833 48.643 25.6409L54.1056 25.4834L59.5655 25.2149C61.3777 25.1053 63.22 25.0793 64.9569 25.6737C63.2652 24.9533 61.3654 24.8943 59.5614 24.993L54.0987 25.1505L48.6388 25.4203C47.7403 25.482 46.7979 25.4381 45.9089 25.7285C45.0295 26.0052 44.2076 26.4901 43.6008 27.1723Z" fill="#663C1D"/>
<path d="M63.116 35.5436C61.8092 35.5395 60.5024 35.5039 59.1957 35.5162L55.2768 35.508L51.3592 35.4546C50.0539 35.4463 48.7471 35.4395 47.4472 35.3874H47.4362C46.1514 35.408 44.82 34.9697 43.8954 34.0505C42.9516 33.1397 42.5064 31.8151 42.4462 30.4946C42.4558 31.1562 42.527 31.8233 42.7311 32.4644C42.9365 33.1027 43.2872 33.6999 43.7653 34.1807C44.7172 35.1573 46.0897 35.6436 47.4431 35.6463H47.4335C50.0511 35.8039 52.6646 35.8052 55.2795 35.7641C57.8917 35.7354 60.5052 35.6861 63.116 35.5436Z" fill="#663C1D"/>
<defs>
<linearGradient id="paint0_linear" x1="53.69" y1="40.7385" x2="34.6379" y2="39.9736" gradientUnits="userSpaceOnUse">
<stop offset="0.00132565" stop-color="#99643E"/>
<stop offset="1" stop-color="#AE7246"/>
</linearGradient>
<linearGradient id="paint1_linear" x1="36.7046" y1="37.6146" x2="31.1955" y2="4.37007" gradientUnits="userSpaceOnUse">
<stop offset="0.6147" stop-color="#8D562E" stop-opacity="0"/>
<stop offset="1" stop-color="#804B24"/>
</linearGradient>
<linearGradient id="paint2_linear" x1="58.1886" y1="73.2294" x2="19.3083" y2="27.3837" gradientUnits="userSpaceOnUse">
<stop stop-color="#A46C3F" stop-opacity="0"/>
<stop offset="1" stop-color="#804B24"/>
</linearGradient>
<linearGradient id="paint3_linear" x1="12.747" y1="24.5432" x2="68.9777" y2="29.6724" gradientUnits="userSpaceOnUse">
<stop stop-color="#AE7246" stop-opacity="0"/>
<stop offset="1" stop-color="#8D562E"/>
</linearGradient>
<linearGradient id="paint4_linear" x1="19.777" y1="24.8423" x2="53.5914" y2="26.742" gradientUnits="userSpaceOnUse">
<stop stop-color="#AE7246" stop-opacity="0"/>
<stop offset="1" stop-color="#8D562E"/>
</linearGradient>
<linearGradient id="paint5_linear" x1="16.5606" y1="29.0888" x2="112.305" y2="20.6352" gradientUnits="userSpaceOnUse">
<stop stop-color="#473226" stop-opacity="0"/>
<stop offset="1" stop-color="#3D2A20"/>
</linearGradient>
<linearGradient id="paint6_linear" x1="45.0325" y1="27.1348" x2="58.1834" y2="28.8627" gradientUnits="userSpaceOnUse">
<stop stop-color="#643800" stop-opacity="0"/>
<stop offset="1" stop-color="#643800"/>
</linearGradient>
<radialGradient id="paint7_radial" cx="0" cy="0" r="1" gradientUnits="userSpaceOnUse" gradientTransform="translate(27.1367 52.9674) scale(16.182)">
<stop stop-color="#AE7246" stop-opacity="0"/>
<stop offset="1" stop-color="#8D562E"/>
</radialGradient>
<linearGradient id="paint8_linear" x1="64.3584" y1="42.3725" x2="85.3499" y2="45.7919" gradientUnits="userSpaceOnUse">
<stop offset="0.00132565" stop-color="#99643E"/>
<stop offset="1" stop-color="#AE7246"/>
</linearGradient>
<linearGradient id="paint9_linear" x1="54.7643" y1="17.1071" x2="53.3395" y2="32.9695" gradientUnits="userSpaceOnUse">
<stop offset="0.00132565" stop-color="#99643E"/>
<stop offset="1" stop-color="#AE7246"/>
</linearGradient>
<linearGradient id="paint10_linear" x1="52.8982" y1="6.8476" x2="53.0407" y2="29.3114" gradientUnits="userSpaceOnUse">
<stop offset="0.00132565" stop-color="#99643E"/>
<stop offset="1" stop-color="#AE7246"/>
</linearGradient>
<radialGradient id="paint11_radial" cx="0" cy="0" r="1" gradientUnits="userSpaceOnUse" gradientTransform="translate(54.605 41.16) scale(7.78999)">
<stop stop-color="#8D562E"/>
<stop offset="1" stop-color="#AE7246" stop-opacity="0"/>
</radialGradient>
<radialGradient id="paint12_radial" cx="0" cy="0" r="1" gradientUnits="userSpaceOnUse" gradientTransform="translate(54.3731 21.1862) scale(7.4301)">
<stop stop-color="#8D562E"/>
<stop offset="1" stop-color="#AE7246" stop-opacity="0"/>
</radialGradient>
<linearGradient id="paint13_linear" x1="45.4005" y1="12.4468" x2="60.477" y2="12.4468" gradientUnits="userSpaceOnUse">
<stop offset="0.00132565" stop-color="#99643E"/>
<stop offset="1" stop-color="#AE7246"/>
</linearGradient>
<linearGradient id="paint14_linear" x1="20.9391" y1="21.5557" x2="2.10051" y2="44.3837" gradientUnits="userSpaceOnUse">
<stop stop-color="#AE7246" stop-opacity="0"/>
<stop offset="1" stop-color="#8D562E"/>
</linearGradient>
<linearGradient id="paint15_linear" x1="52.915" y1="41.2606" x2="39.3322" y2="39.7409" gradientUnits="userSpaceOnUse">
<stop offset="0.3131" stop-color="#8D562E" stop-opacity="0"/>
<stop offset="1" stop-color="#8D562E"/>
</linearGradient>
<radialGradient id="paint16_radial" cx="0" cy="0" r="1" gradientUnits="userSpaceOnUse" gradientTransform="translate(45.5202 41.0114) scale(3.9488)">
<stop stop-color="#AE7246" stop-opacity="0"/>
<stop offset="1" stop-color="#8D562E"/>
</radialGradient>
<radialGradient id="paint17_radial" cx="0" cy="0" r="1" gradientUnits="userSpaceOnUse" gradientTransform="translate(33.9183 16.9132) rotate(-7.55959) scale(5.64564 2.68239)">
<stop stop-color="#AE7246"/>
<stop offset="1" stop-color="#8D562E" stop-opacity="0"/>
</radialGradient>
<radialGradient id="paint18_radial" cx="0" cy="0" r="1" gradientUnits="userSpaceOnUse" gradientTransform="translate(55.876 40.9452) rotate(-2.02601) scale(6.35075 4.16591)">
<stop stop-color="#F8DBBA"/>
<stop offset="1" stop-color="#CD9870" stop-opacity="0"/>
</radialGradient>
<radialGradient id="paint19_radial" cx="0" cy="0" r="1" gradientUnits="userSpaceOnUse" gradientTransform="translate(55.5779 20.4957) rotate(0.0543645) scale(6.82147 3.67442)">
<stop stop-color="#F8DBBA"/>
<stop offset="1" stop-color="#CD9870" stop-opacity="0"/>
</radialGradient>
<radialGradient id="paint20_radial" cx="0" cy="0" r="1" gradientUnits="userSpaceOnUse" gradientTransform="translate(53.1891 12.2362) rotate(0.0539439) scale(6.24278 3.90582)">
<stop stop-color="#F8DBBA"/>
<stop offset="1" stop-color="#CD9870" stop-opacity="0"/>
</radialGradient>
<linearGradient id="paint21_linear" x1="53.5743" y1="21.265" x2="33.7226" y2="21.8349" gradientUnits="userSpaceOnUse">
<stop offset="0.3131" stop-color="#8D562E" stop-opacity="0"/>
<stop offset="1" stop-color="#8D562E"/>
</linearGradient>
<radialGradient id="paint22_radial" cx="0" cy="0" r="1" gradientUnits="userSpaceOnUse" gradientTransform="translate(45.6512 21.6918) scale(3.59621)">
<stop stop-color="#AE7246" stop-opacity="0"/>
<stop offset="1" stop-color="#8D562E"/>
</radialGradient>
<linearGradient id="paint23_linear" x1="54.5988" y1="14.5893" x2="41.3959" y2="9.55517" gradientUnits="userSpaceOnUse">
<stop offset="0.3131" stop-color="#8D562E" stop-opacity="0"/>
<stop offset="1" stop-color="#8D562E"/>
</linearGradient>
<radialGradient id="paint24_radial" cx="0" cy="0" r="1" gradientUnits="userSpaceOnUse" gradientTransform="translate(45.984 12.7278) scale(3.22319)">
<stop stop-color="#AE7246" stop-opacity="0"/>
<stop offset="1" stop-color="#8D562E"/>
</radialGradient>
<linearGradient id="paint25_linear" x1="54.7664" y1="41.1073" x2="56.0012" y2="35.1866" gradientUnits="userSpaceOnUse">
<stop stop-color="#A46C3F" stop-opacity="0"/>
<stop offset="1" stop-color="#804B24"/>
</linearGradient>
<linearGradient id="paint26_linear" x1="55.0727" y1="18.5227" x2="55.3577" y2="27.5937" gradientUnits="userSpaceOnUse">
<stop stop-color="#8D562E" stop-opacity="0"/>
<stop offset="1" stop-color="#804B24"/>
</linearGradient>
<linearGradient id="paint27_linear" x1="54.6746" y1="32.6194" x2="57.7141" y2="21.0313" gradientUnits="userSpaceOnUse">
<stop offset="0.00132565" stop-color="#99643E"/>
<stop offset="1" stop-color="#AE7246"/>
</linearGradient>
<radialGradient id="paint28_radial" cx="0" cy="0" r="1" gradientUnits="userSpaceOnUse" gradientTransform="translate(55.2715 30.358) scale(8.42925)">
<stop stop-color="#8D562E"/>
<stop offset="1" stop-color="#AE7246" stop-opacity="0"/>
</radialGradient>
<linearGradient id="paint29_linear" x1="49.4297" y1="30.5232" x2="38.7496" y2="30.5232" gradientUnits="userSpaceOnUse">
<stop offset="0.2173" stop-color="#8D562E" stop-opacity="0"/>
<stop offset="1" stop-color="#8D562E"/>
</linearGradient>
<radialGradient id="paint30_radial" cx="0" cy="0" r="1" gradientUnits="userSpaceOnUse" gradientTransform="translate(44.7259 30.5715) scale(3.87152)">
<stop stop-color="#AE7246" stop-opacity="0"/>
<stop offset="1" stop-color="#8D562E"/>
</radialGradient>
<linearGradient id="paint31_linear" x1="55.6794" y1="31.1656" x2="56.186" y2="24.58" gradientUnits="userSpaceOnUse">
<stop stop-color="#A46C3F" stop-opacity="0"/>
<stop offset="1" stop-color="#804B24"/>
</linearGradient>
<linearGradient id="paint32_linear" x1="54.9837" y1="25.6922" x2="54.6671" y2="20.4364" gradientUnits="userSpaceOnUse">
<stop stop-color="#A46C3F" stop-opacity="0"/>
<stop offset="1" stop-color="#804B24"/>
</linearGradient>
<linearGradient id="paint33_linear" x1="52.9952" y1="11.7074" x2="53.7551" y2="4.58356" gradientUnits="userSpaceOnUse">
<stop stop-color="#A46C3F" stop-opacity="0"/>
<stop offset="1" stop-color="#804B24"/>
</linearGradient>
<linearGradient id="paint34_linear" x1="52.8774" y1="12.7413" x2="53.6373" y2="18.3928" gradientUnits="userSpaceOnUse">
<stop stop-color="#8D562E" stop-opacity="0"/>
<stop offset="1" stop-color="#804B24"/>
</linearGradient>
<linearGradient id="paint35_linear" x1="22.0073" y1="24.159" x2="0.287483" y2="55.4089" gradientUnits="userSpaceOnUse">
<stop offset="0.3105" stop-color="#804B24" stop-opacity="0"/>
<stop offset="1" stop-color="#804B24"/>
</linearGradient>
<radialGradient id="paint36_radial" cx="0" cy="0" r="1" gradientUnits="userSpaceOnUse" gradientTransform="translate(7.59692 -13.2262) scale(32.862)">
<stop stop-color="#AE7246" stop-opacity="0"/>
<stop offset="1" stop-color="#8D562E"/>
</radialGradient>
<radialGradient id="paint37_radial" cx="0" cy="0" r="1" gradientUnits="userSpaceOnUse" gradientTransform="translate(41.833 65.8132) rotate(-79.0623) scale(5.24792 3.18566)">
<stop stop-color="#AE7246"/>
<stop offset="1" stop-color="#8D562E" stop-opacity="0"/>
</radialGradient>
<radialGradient id="paint38_radial" cx="0" cy="0" r="1" gradientUnits="userSpaceOnUse" gradientTransform="translate(57.7146 30.4979) rotate(2.73495) scale(7.24334 4.75257)">
<stop stop-color="#F8DBBA"/>
<stop offset="1" stop-color="#CD9870" stop-opacity="0"/>
</radialGradient>
</defs>
</svg>
