<svg width="80" height="80" viewBox="0 0 80 80" fill="none" xmlns="http://www.w3.org/2000/svg">
<path d="M40.475 70.95C57.3059 70.95 70.95 57.3059 70.95 40.475C70.95 23.6441 57.3059 10 40.475 10C23.6441 10 10 23.6441 10 40.475C10 57.3059 23.6441 70.95 40.475 70.95Z" fill="url(#paint0_radial)"/>
<path opacity="0.5" d="M40.475 70.95C57.3059 70.95 70.95 57.3059 70.95 40.475C70.95 23.6441 57.3059 10 40.475 10C23.6441 10 10 23.6441 10 40.475C10 57.3059 23.6441 70.95 40.475 70.95Z" fill="url(#paint1_radial)"/>
<path d="M20.6875 24.1319C20.6308 25.3509 21.9065 26.173 24.1744 26.2864C26.1021 26.3715 30.3828 25.521 33.487 21.9065C34.054 21.2403 33.246 20.8151 32.6932 21.2403C30.8222 22.6719 25.932 24.4012 22.2041 23.8201C20.7158 23.5933 20.6875 24.1319 20.6875 24.1319Z" fill="url(#paint2_linear)"/>
<path d="M19.7237 31.7861C19.6953 31.4175 19.9363 31.1199 20.2907 31.049C22.19 30.7088 25.6769 30.8222 29.1922 31.3325C31.9704 31.7294 35.9251 33.9973 36.0526 35.2446C36.1944 36.6337 33.0193 38.9725 31.6586 39.908C29.5182 41.3822 26.5841 43.0264 24.7698 43.1965C24.2879 43.239 24.0327 42.998 23.9335 42.7571C23.8059 42.4169 23.9902 42.02 24.4013 41.7507C28.7953 38.9158 31.5168 36.4636 31.2758 35.7124C31.2758 35.7124 31.0632 34.4934 27.2928 33.728C24.9966 33.2602 22.5869 33.0193 21.1128 32.9059C20.2198 32.8066 19.7662 32.3105 19.7237 31.7861Z" fill="url(#paint3_radial)"/>
<path d="M20.3048 31.0632C22.2042 30.723 25.6486 30.4395 29.2064 31.3467C32.4665 32.183 35.9392 34.0115 36.0668 35.2588C36.1518 36.0668 35.1171 37.1865 33.969 38.1787C33.9265 38.2213 33.8839 38.2496 33.8414 38.2921L33.8272 38.3063C34.6919 36.8322 34.9895 35.3155 32.9059 34.1107C31.5877 33.3453 27.6472 31.0065 19.752 31.7861C19.7095 31.4175 19.9363 31.1199 20.3048 31.0632Z" fill="url(#paint4_linear)"/>
<path d="M23.9335 42.7713C23.8059 42.4311 23.9902 42.0342 24.4012 41.7649C28.7953 38.93 31.5168 36.4778 31.2758 35.7266C31.6869 36.9881 31.857 37.6259 28.2567 40.0781C25.5777 41.8924 24.2878 42.6862 24.7697 43.2107C24.2878 43.2674 24.0185 43.0264 23.9335 42.7713Z" fill="url(#paint5_linear)"/>
<path d="M30.1418 63.9195C34.8194 62.5588 37.2007 61.6658 40.475 61.6658C43.7493 61.6658 46.1306 62.5588 50.8081 63.9195C55.1455 65.181 57.5977 62.5446 57.1016 58.7175C55.4007 50.6664 48.115 44.4722 40.4892 44.4722C33.076 44.4722 26.0029 50.1703 24.0327 57.8387C22.9979 62.1335 25.4785 65.2802 30.1418 63.9195Z" fill="url(#paint6_radial)"/>
<path d="M24.0185 59.0577C25.9887 52.8493 33.0618 50.7373 40.475 50.7373C48.1008 50.7373 55.3865 53.2462 57.0874 59.7664C57.1016 59.8514 57.1158 59.9507 57.1441 60.0499C57.1724 59.6246 57.1441 59.1852 57.0874 58.7175C55.3865 50.6664 48.1008 44.4722 40.475 44.4722C33.0618 44.4722 25.9887 50.1703 24.0185 57.8387C23.8626 58.5049 23.7775 59.1569 23.7917 59.7522C23.8909 59.4971 23.9618 59.2561 24.0185 59.0577Z" fill="url(#paint7_linear)"/>
<path d="M60.2626 24.1319C60.3193 25.3509 59.0436 26.173 56.7757 26.2864C54.8479 26.3715 50.5673 25.521 47.4631 21.9065C46.8961 21.2403 47.704 20.8151 48.2568 21.2403C50.1279 22.6719 55.018 24.4012 58.7459 23.8201C60.2342 23.5933 60.2626 24.1319 60.2626 24.1319Z" fill="url(#paint8_linear)"/>
<path d="M61.2263 31.7861C61.2547 31.4175 61.0137 31.1199 60.6594 31.049C58.76 30.7088 55.2731 30.8222 51.7578 31.3325C48.9797 31.7294 45.025 33.9973 44.8974 35.2446C44.7557 36.6337 47.9307 38.9725 49.2915 39.908C51.4318 41.3822 54.3659 43.0264 56.1803 43.1965C56.6622 43.239 56.9173 42.998 57.0165 42.7571C57.1441 42.4169 56.9598 42.02 56.5488 41.7507C52.1547 38.9158 49.4332 36.4636 49.6742 35.7124C49.6742 35.7124 49.8868 34.4934 53.6572 33.728C55.9535 33.2602 58.3631 33.0193 59.8373 32.9059C60.7302 32.8066 61.1838 32.3105 61.2263 31.7861Z" fill="url(#paint9_radial)"/>
<path d="M60.6451 31.0632C58.7458 30.723 55.3014 30.4395 51.7436 31.3467C48.4835 32.183 45.0108 34.0115 44.8832 35.2588C44.7982 36.0668 45.8329 37.1865 46.981 38.1787C47.0235 38.2213 47.0661 38.2496 47.1086 38.2921L47.1228 38.3063C46.2581 36.8322 45.9605 35.3155 48.0441 34.1107C49.3623 33.3453 53.3028 31.0065 61.198 31.7861C61.2405 31.4175 61.0137 31.1199 60.6451 31.0632Z" fill="url(#paint10_linear)"/>
<path d="M57.0166 42.7713C57.1442 42.4311 56.9599 42.0342 56.5489 41.7649C52.1548 38.93 49.4333 36.4778 49.6743 35.7266C49.2632 36.9881 49.0931 37.6259 52.6934 40.0781C55.3724 41.8924 56.6623 42.6862 56.1803 43.2107C56.6623 43.2674 56.9316 43.0264 57.0166 42.7713Z" fill="url(#paint11_linear)"/>
<path d="M40.475 49.1781C44.8407 49.1781 49.1072 50.3546 52.6933 52.3106C49.7167 48.4127 45.1667 45.8187 40.475 45.8187C35.7408 45.8187 31.1624 48.3701 28.1858 52.2823C31.7861 50.3404 36.0809 49.1781 40.475 49.1781Z" fill="url(#paint12_radial)"/>
<path d="M54.054 62.7005C51.9846 58.9443 46.7542 56.2653 40.6167 56.2653C34.4367 56.2653 29.1921 58.9584 27.151 62.743C27.8739 62.9414 28.7669 62.9131 29.7874 62.6296C30.5387 62.417 31.2191 62.2044 31.8711 62.0201C35.2871 60.9996 37.555 60.3192 40.4891 60.3192C43.4232 60.3192 45.6911 60.9996 49.1072 62.0201C49.745 62.2186 50.4396 62.417 51.1908 62.6296C52.2964 62.9698 53.2886 62.984 54.054 62.7005Z" fill="url(#paint13_radial)"/>
<defs>
<radialGradient id="paint0_radial" cx="0" cy="0" r="1" gradientUnits="userSpaceOnUse" gradientTransform="translate(34.479 28.1245) scale(36.7641)">
<stop stop-color="#FFDF30"/>
<stop offset="1" stop-color="#FFB82E"/>
</radialGradient>
<radialGradient id="paint1_radial" cx="0" cy="0" r="1" gradientUnits="userSpaceOnUse" gradientTransform="translate(34.479 28.1245) scale(28.924)">
<stop stop-color="#FFE95F"/>
<stop offset="1" stop-color="#FFBB47" stop-opacity="0"/>
</radialGradient>
<linearGradient id="paint2_linear" x1="25.4635" y1="27.5407" x2="27.6846" y2="21.4822" gradientUnits="userSpaceOnUse">
<stop offset="0.00132565" stop-color="#3C2200"/>
<stop offset="1" stop-color="#7A4400"/>
</linearGradient>
<radialGradient id="paint3_radial" cx="0" cy="0" r="1" gradientUnits="userSpaceOnUse" gradientTransform="translate(28.2036 36.5663) rotate(-79.5901) scale(7.16801 4.63719)">
<stop offset="0.00132565" stop-color="#7A4400"/>
<stop offset="1" stop-color="#643800"/>
</radialGradient>
<linearGradient id="paint4_linear" x1="35.9123" y1="33.7641" x2="20.0912" y2="35.3519" gradientUnits="userSpaceOnUse">
<stop offset="0.00132565" stop-color="#3C2200"/>
<stop offset="1" stop-color="#512D00"/>
</linearGradient>
<linearGradient id="paint5_linear" x1="32.0562" y1="38.1762" x2="23.3529" y2="40.9765" gradientUnits="userSpaceOnUse">
<stop offset="0.00132565" stop-color="#3C2200"/>
<stop offset="1" stop-color="#512D00"/>
</linearGradient>
<radialGradient id="paint6_radial" cx="0" cy="0" r="1" gradientUnits="userSpaceOnUse" gradientTransform="translate(39.071 54.5474) scale(10.78 8.67641)">
<stop offset="0.00132565" stop-color="#7A4400"/>
<stop offset="1" stop-color="#643800"/>
</radialGradient>
<linearGradient id="paint7_linear" x1="23.7928" y1="52.2664" x2="57.1545" y2="52.2664" gradientUnits="userSpaceOnUse">
<stop offset="0.00132565" stop-color="#3C2200"/>
<stop offset="1" stop-color="#512D00"/>
</linearGradient>
<linearGradient id="paint8_linear" x1="55.4858" y1="27.5421" x2="53.2648" y2="21.4835" gradientUnits="userSpaceOnUse">
<stop offset="0.00132565" stop-color="#3C2200"/>
<stop offset="1" stop-color="#7A4400"/>
</linearGradient>
<radialGradient id="paint9_radial" cx="0" cy="0" r="1" gradientUnits="userSpaceOnUse" gradientTransform="translate(52.75 36.564) rotate(-100.41) scale(7.16801 4.63719)">
<stop offset="0.00132565" stop-color="#7A4400"/>
<stop offset="1" stop-color="#643800"/>
</radialGradient>
<linearGradient id="paint10_linear" x1="45.0409" y1="33.7646" x2="60.862" y2="35.3524" gradientUnits="userSpaceOnUse">
<stop offset="0.00132565" stop-color="#3C2200"/>
<stop offset="1" stop-color="#512D00"/>
</linearGradient>
<linearGradient id="paint11_linear" x1="48.8932" y1="38.1777" x2="57.5966" y2="40.9779" gradientUnits="userSpaceOnUse">
<stop offset="0.00132565" stop-color="#3C2200"/>
<stop offset="1" stop-color="#512D00"/>
</linearGradient>
<radialGradient id="paint12_radial" cx="0" cy="0" r="1" gradientUnits="userSpaceOnUse" gradientTransform="translate(40.4372 49.0575) scale(14.4972)">
<stop offset="0.00132565" stop-color="white"/>
<stop offset="1" stop-color="#A8BBBD"/>
</radialGradient>
<radialGradient id="paint13_radial" cx="0" cy="0" r="1" gradientUnits="userSpaceOnUse" gradientTransform="translate(40.5372 59.2924) scale(13.1309 2.93082)">
<stop offset="0.2479" stop-color="#FF0000"/>
<stop offset="1" stop-color="#C10000"/>
</radialGradient>
</defs>
</svg>
