<svg width="80" height="80" viewBox="0 0 80 80" fill="none" xmlns="http://www.w3.org/2000/svg">
<path d="M40.475 69.95C57.3059 69.95 70.95 56.3059 70.95 39.475C70.95 22.6441 57.3059 9 40.475 9C23.6441 9 10 22.6441 10 39.475C10 56.3059 23.6441 69.95 40.475 69.95Z" fill="url(#paint0_radial)"/>
<path opacity="0.5" d="M40.475 69.95C57.3059 69.95 70.95 56.3059 70.95 39.475C70.95 22.6441 57.3059 9 40.475 9C23.6441 9 10 22.6441 10 39.475C10 56.3059 23.6441 69.95 40.475 69.95Z" fill="url(#paint1_radial)"/>
<path d="M40.475 69.95C57.3059 69.95 70.95 56.3059 70.95 39.475C70.95 22.6441 57.3059 9 40.475 9C23.6441 9 10 22.6441 10 39.475C10 56.3059 23.6441 69.95 40.475 69.95Z" fill="url(#paint2_radial)"/>
<path d="M40.475 69.95C57.3059 69.95 70.95 56.3059 70.95 39.475C70.95 22.6441 57.3059 9 40.475 9C23.6441 9 10 22.6441 10 39.475C10 56.3059 23.6441 69.95 40.475 69.95Z" fill="url(#paint3_radial)"/>
<path d="M40.475 69.95C57.3059 69.95 70.95 56.3059 70.95 39.475C70.95 22.6441 57.3059 9 40.475 9C23.6441 9 10 22.6441 10 39.475C10 56.3059 23.6441 69.95 40.475 69.95Z" fill="url(#paint4_radial)"/>
<path d="M48.6394 25.9101C48.6536 24.6911 49.986 23.9398 52.2539 23.9824C54.1816 24.0107 58.4056 25.1447 61.2688 28.9434C61.7933 29.638 60.957 30.0065 60.4467 29.5529C58.6749 28.0079 53.8981 25.9668 50.1419 26.307C48.6252 26.4629 48.6394 25.9101 48.6394 25.9101Z" fill="url(#paint5_linear)"/>
<path d="M27.4204 32.2885C27.4204 32.2885 32.3672 31.0412 34.9895 34.1737C35.1596 34.3722 35.2872 34.599 35.3722 34.8399C35.5423 35.3219 35.2872 35.9881 34.2666 35.8322C27.9873 34.8399 25.4643 37.2921 23.5507 39.0497C22.7995 39.7443 21.7081 39.1206 21.6939 38.256C21.6939 38.0008 21.6514 37.7457 21.7081 37.4906C22.4735 33.5075 27.4204 32.2885 27.4204 32.2885Z" fill="url(#paint6_radial)"/>
<path d="M32.3106 25.9101C32.2964 24.6911 30.964 23.9398 28.6961 23.9824C26.7684 24.0107 22.5444 25.1447 19.6812 28.9434C19.1568 29.638 19.993 30.0065 20.5033 29.5529C22.2751 28.0079 27.0519 25.9668 30.8081 26.307C32.3248 26.4629 32.3106 25.9101 32.3106 25.9101Z" fill="url(#paint7_linear)"/>
<path d="M40.475 65.4567C47.6066 65.4567 53.3879 60.6337 53.3879 54.6842C53.3879 48.7347 47.6066 43.9116 40.475 43.9116C33.3434 43.9116 27.5621 48.7347 27.5621 54.6842C27.5621 60.6337 33.3434 65.4567 40.475 65.4567Z" fill="url(#paint8_radial)"/>
<path d="M40.475 47.2426C46.0455 47.2426 50.879 49.8507 53.3312 53.6778C52.7217 48.2065 47.1937 43.9116 40.475 43.9116C33.7563 43.9116 28.2283 48.1923 27.6188 53.6778C30.071 49.8507 34.9044 47.2426 40.475 47.2426Z" fill="url(#paint9_linear)"/>
<path d="M40.2766 50.8429C39.6813 51.339 39.1143 52.0194 39.2844 52.2462C39.4545 52.473 40.1065 52.1895 40.631 51.7926C41.1554 51.3957 41.609 56.456 41.6799 56.7111C41.7366 56.9096 42.828 58.5538 43.3099 60.0421C43.4659 60.5382 43.2533 61.9415 43.3241 62.0407C43.6218 62.4234 44.047 62.4518 45.0818 61.7572C46.1165 61.0627 45.9464 65.9954 44.7416 66.619C42.6721 67.6679 38.2072 72.388 33.2178 71.6935C27.4488 70.8997 22.8988 64.1669 23.4941 59.7586C24.0894 55.3504 25.6061 53.862 26.0171 50.1483C26.3715 47.0158 24.2879 45.2015 24.5005 43.6423C24.6706 42.3241 26.6833 42.2815 27.3212 42.3666C28.4551 42.5225 31.1908 44.3794 30.6805 48.2206C30.4821 49.7089 30.7231 51.1264 32.2539 51.339C33.7847 51.5516 35.7833 49.6806 37.0307 48.1923" fill="url(#paint10_linear)"/>
<path d="M24.4863 43.6564C24.5855 42.9477 25.2234 42.6075 25.8754 42.4516C24.784 44.8613 28.6111 45.4991 27.4771 54.0321C26.329 62.5793 30.9924 65.7544 32.991 66.4631C35.0037 67.1718 38.6324 67.7955 41.85 64.7763C42.8422 63.855 44.1462 62.8769 45.5778 61.984C46.0031 62.962 45.6912 66.1371 44.7416 66.619C42.6721 67.6679 38.2071 72.388 33.2177 71.6934C27.4488 70.8997 22.8988 64.1668 23.4941 59.7586C24.0894 55.3503 25.6061 53.862 26.0171 50.1483C26.3573 47.0158 24.2879 45.2156 24.4863 43.6564Z" fill="url(#paint11_linear)"/>
<path d="M45.0959 61.7714C46.1307 61.0768 48.6395 59.0499 50.2129 58.1144C51.7863 57.1789 53.0336 57.3631 53.7282 58.7239C54.4085 60.0988 51.6303 61.9556 50.9783 62.4517C49.9861 63.203 45.9606 66.0095 44.7557 66.6332" fill="url(#paint12_linear)"/>
<path d="M41.6798 56.7253C41.7507 56.9946 42.4594 57.2639 44.1178 55.889C45.3793 54.8401 48.7954 51.8067 50.7515 50.4743C52.7075 49.1419 54.1533 48.7025 55.1739 49.6664C56.1944 50.6303 55.3298 52.2603 53.8557 53.5077C52.0413 55.0527 49.986 56.5977 48.0158 58.086C46.4708 59.2483 43.0122 61.6721 43.3099 62.0548" fill="url(#paint13_linear)"/>
<path d="M48.03 58.086C46.5701 59.1775 43.4233 61.4028 43.31 61.9698C42.9839 61.2894 43.9762 59.5176 44.855 58.9648C49.8869 55.7898 55.0889 50.2476 55.6134 50.5169C55.7268 51.4382 54.9613 52.5863 53.8699 53.5219C52.0556 55.0527 50.0003 56.5977 48.03 58.086Z" fill="url(#paint14_linear)"/>
<path d="M37.0165 48.1923C38.2638 46.704 43.2107 42.0264 44.4439 40.6656C45.6771 39.3191 47.0662 39.5033 47.945 40.3113C48.8096 41.1192 48.923 42.5083 46.3716 45.0739C44.7699 46.704 43.4091 48.2064 40.2766 50.8287L37.1299 50.1767L37.0165 48.1923Z" fill="url(#paint15_linear)"/>
<path d="M40.6451 51.8068C41.1696 51.4099 45.918 47.1292 46.9811 46.222C48.9797 44.5211 51.7437 40.6515 54.1108 42.8627C55.3582 44.025 54.4227 45.3432 53.9549 45.8535C53.4872 46.3638 47.6048 51.5233 47.0378 51.9485C46.4708 52.3737 41.609 56.456 41.6799 56.7111" fill="url(#paint16_linear)"/>
<path d="M40.2766 50.8429C39.7096 51.3248 39.1709 51.9626 39.2702 52.2178C37.796 50.6586 41.8074 47.2426 44.1036 45.1873C45.8754 43.5856 46.5983 41.346 47.874 40.2546C47.9024 40.2688 47.9166 40.2971 47.9449 40.3113C48.8096 41.1192 48.9229 42.5083 46.3716 45.0739C44.7698 46.7039 43.4091 48.2206 40.2766 50.8429Z" fill="url(#paint17_linear)"/>
<path d="M47.0378 51.9485C46.4708 52.3737 41.609 56.4559 41.6798 56.7111C40.6026 54.7692 46.3716 50.3042 49.1781 48.0222C51.6161 46.0519 52.2398 44.11 54.4793 43.2879C55.1314 44.3226 54.3659 45.3857 53.9549 45.8393C53.4871 46.3638 47.6047 51.5232 47.0378 51.9485Z" fill="url(#paint18_linear)"/>
<path d="M41.7649 56.8386C41.9066 56.952 42.2043 56.9946 42.7146 56.7961C42.3319 57.0229 41.9917 57.0938 41.7649 56.8386Z" fill="url(#paint19_linear)"/>
<path d="M43.6785 62.4234C43.5084 62.3242 43.4234 62.2249 43.4092 62.1399C43.7068 62.4376 44.1463 62.4092 45.0959 61.7714C46.1307 61.0768 48.6395 59.0499 50.2129 58.1144C50.9074 57.7033 51.5311 57.5049 52.0839 57.5332C51.2476 57.9017 51.5878 58.1285 49.6884 59.2058C48.6679 59.7728 44.7983 63.0471 43.6785 62.4234Z" fill="url(#paint20_linear)"/>
<path d="M26.1588 67.3278C27.0235 65.8394 28.0865 65.0173 29.3481 66.1087C32.7499 69.0712 37.1582 68.8302 43.1398 65.2299C48.4694 62.0123 51.3184 59.5885 53.7989 58.9081C54.1958 60.2547 51.6019 61.984 50.9782 62.4517C49.986 63.203 45.9605 66.0095 44.7557 66.6332C42.6862 67.6821 38.2213 72.4022 33.2319 71.7076C30.4395 71.3249 27.9306 69.5531 26.1588 67.3278Z" fill="url(#paint21_linear)"/>
<path d="M34.9896 34.1737C32.3531 31.0412 27.4204 32.2885 27.4204 32.2885C27.4204 32.2885 22.4735 33.5075 21.7081 37.4906C21.6656 37.7457 21.6939 38.0008 21.6939 38.256C21.6939 38.4119 21.7365 38.5395 21.7932 38.667C21.3396 36.4983 26.3999 32.8272 29.8726 33.1532C33.4587 33.4934 33.9123 34.9817 35.3864 35.3077C35.429 35.1518 35.4148 34.9817 35.3723 34.8399C35.2872 34.599 35.1596 34.3722 34.9896 34.1737Z" fill="url(#paint22_linear)"/>
<path d="M53.5296 32.2885C53.5296 32.2885 48.5827 31.0412 45.9605 34.1737C45.7904 34.3722 45.6628 34.599 45.5778 34.8399C45.4077 35.3219 45.6628 35.9881 46.6834 35.8322C52.9626 34.8399 55.4857 37.2921 57.3992 39.0497C58.1505 39.7443 59.2419 39.1206 59.2561 38.256C59.2561 38.0008 59.2986 37.7457 59.2419 37.4906C58.4765 33.5075 53.5296 32.2885 53.5296 32.2885Z" fill="url(#paint23_radial)"/>
<path d="M45.9605 34.1737C48.597 31.0412 53.5297 32.2885 53.5297 32.2885C53.5297 32.2885 58.4765 33.5075 59.2419 37.4764C59.2845 37.7315 59.2561 37.9867 59.2561 38.2418C59.2561 38.3977 59.2136 38.5253 59.1569 38.6529C59.6105 36.4842 54.5502 32.813 51.0775 33.139C47.4914 33.4792 47.0378 34.9675 45.5636 35.2935C45.5211 35.1376 45.5353 34.9675 45.5778 34.8258C45.6629 34.599 45.7904 34.3722 45.9605 34.1737Z" fill="url(#paint24_linear)"/>
<defs>
<radialGradient id="paint0_radial" cx="0" cy="0" r="1" gradientUnits="userSpaceOnUse" gradientTransform="translate(34.479 27.1245) scale(36.7641)">
<stop stop-color="#FFDF30"/>
<stop offset="1" stop-color="#FFB82E"/>
</radialGradient>
<radialGradient id="paint1_radial" cx="0" cy="0" r="1" gradientUnits="userSpaceOnUse" gradientTransform="translate(34.479 27.1245) scale(28.924)">
<stop stop-color="#FFE95F"/>
<stop offset="1" stop-color="#FFBB47" stop-opacity="0"/>
</radialGradient>
<radialGradient id="paint2_radial" cx="0" cy="0" r="1" gradientUnits="userSpaceOnUse" gradientTransform="translate(40.8222 50.1608) rotate(-37.9242) scale(20.4865 11.3469)">
<stop stop-color="#965500" stop-opacity="0.5"/>
<stop offset="0.995" stop-color="#965500" stop-opacity="0"/>
</radialGradient>
<radialGradient id="paint3_radial" cx="0" cy="0" r="1" gradientUnits="userSpaceOnUse" gradientTransform="translate(26.9268 54.063) rotate(93.3128) scale(12.7633 5.83637)">
<stop stop-color="#965500" stop-opacity="0.5"/>
<stop offset="0.995" stop-color="#965500" stop-opacity="0"/>
</radialGradient>
<radialGradient id="paint4_radial" cx="0" cy="0" r="1" gradientUnits="userSpaceOnUse" gradientTransform="translate(45.9462 64.6743) rotate(162.339) scale(10.4379 4.52823)">
<stop stop-color="#965500" stop-opacity="0.5"/>
<stop offset="0.995" stop-color="#965500" stop-opacity="0"/>
</radialGradient>
<linearGradient id="paint5_linear" x1="55.0328" y1="28.0504" x2="55.0845" y2="24.8418" gradientUnits="userSpaceOnUse">
<stop offset="0.00132565" stop-color="#3C2200"/>
<stop offset="1" stop-color="#7A4400"/>
</linearGradient>
<radialGradient id="paint6_radial" cx="0" cy="0" r="1" gradientUnits="userSpaceOnUse" gradientTransform="translate(28.134 35.111) rotate(-13.9949) scale(5.47784 2.64252)">
<stop offset="0.00132565" stop-color="#7A4400"/>
<stop offset="1" stop-color="#643800"/>
</radialGradient>
<linearGradient id="paint7_linear" x1="25.9071" y1="28.0501" x2="25.8553" y2="24.8416" gradientUnits="userSpaceOnUse">
<stop offset="0.00132565" stop-color="#3C2200"/>
<stop offset="1" stop-color="#7A4400"/>
</linearGradient>
<radialGradient id="paint8_radial" cx="0" cy="0" r="1" gradientUnits="userSpaceOnUse" gradientTransform="translate(39.6864 55.3215) rotate(70.8557) scale(13.2817 9.96751)">
<stop offset="0.00132565" stop-color="#7A4400"/>
<stop offset="1" stop-color="#643800"/>
</radialGradient>
<linearGradient id="paint9_linear" x1="40.475" y1="38.8402" x2="40.475" y2="56.4005" gradientUnits="userSpaceOnUse">
<stop offset="0.00132565" stop-color="#3C2200"/>
<stop offset="1" stop-color="#512D00"/>
</linearGradient>
<linearGradient id="paint10_linear" x1="24.7492" y1="71.7034" x2="30.9954" y2="61.2403" gradientUnits="userSpaceOnUse">
<stop offset="0.00132565" stop-color="#FFCB4B"/>
<stop offset="1" stop-color="#FFD748"/>
</linearGradient>
<linearGradient id="paint11_linear" x1="24.8379" y1="63.8422" x2="36.3796" y2="53.3129" gradientUnits="userSpaceOnUse">
<stop offset="0.00132565" stop-color="#FFCB4B"/>
<stop offset="1" stop-color="#FFD748"/>
</linearGradient>
<linearGradient id="paint12_linear" x1="52.5626" y1="59.5967" x2="46.1185" y2="63.1327" gradientUnits="userSpaceOnUse">
<stop offset="0.00132565" stop-color="#FFCB4B"/>
<stop offset="1" stop-color="#FFD748"/>
</linearGradient>
<linearGradient id="paint13_linear" x1="56.2337" y1="48.4607" x2="44.5027" y2="57.8475" gradientUnits="userSpaceOnUse">
<stop offset="0.00132565" stop-color="#FFCB4B"/>
<stop offset="1" stop-color="#FFD748"/>
</linearGradient>
<linearGradient id="paint14_linear" x1="48.3452" y1="54.8613" x2="51.3158" y2="58.5412" gradientUnits="userSpaceOnUse">
<stop stop-color="#FFBC47" stop-opacity="0"/>
<stop offset="1" stop-color="#FFA754"/>
</linearGradient>
<linearGradient id="paint15_linear" x1="45.7729" y1="41.8517" x2="38.5416" y2="50.423" gradientUnits="userSpaceOnUse">
<stop offset="0.00132565" stop-color="#FFCB4B"/>
<stop offset="1" stop-color="#FFD748"/>
</linearGradient>
<linearGradient id="paint16_linear" x1="51.7432" y1="44.258" x2="42.1719" y2="54.1083" gradientUnits="userSpaceOnUse">
<stop offset="0.00132565" stop-color="#FFCB4B"/>
<stop offset="1" stop-color="#FFD748"/>
</linearGradient>
<linearGradient id="paint17_linear" x1="41.9046" y1="44.2536" x2="46.4029" y2="49.5894" gradientUnits="userSpaceOnUse">
<stop stop-color="#FFBC47" stop-opacity="0"/>
<stop offset="1" stop-color="#FFA754"/>
</linearGradient>
<linearGradient id="paint18_linear" x1="46.1834" y1="48.1927" x2="52.538" y2="54.3166" gradientUnits="userSpaceOnUse">
<stop stop-color="#FFBC47" stop-opacity="0"/>
<stop offset="1" stop-color="#FFA754"/>
</linearGradient>
<linearGradient id="paint19_linear" x1="39.9677" y1="54.6424" x2="46.3229" y2="60.7663" gradientUnits="userSpaceOnUse">
<stop stop-color="#FFBC47" stop-opacity="0"/>
<stop offset="1" stop-color="#FFA754"/>
</linearGradient>
<linearGradient id="paint20_linear" x1="52.543" y1="57.1581" x2="43.3792" y2="62.7714" gradientUnits="userSpaceOnUse">
<stop stop-color="#FFBC47" stop-opacity="0"/>
<stop offset="1" stop-color="#FFBC47"/>
</linearGradient>
<linearGradient id="paint21_linear" x1="40.1929" y1="64.8166" x2="41.6655" y2="76.5062" gradientUnits="userSpaceOnUse">
<stop offset="0.3118" stop-color="#FFBC47" stop-opacity="0"/>
<stop offset="1" stop-color="#FF8900"/>
</linearGradient>
<linearGradient id="paint22_linear" x1="21.6842" y1="35.3545" x2="35.4221" y2="35.3545" gradientUnits="userSpaceOnUse">
<stop offset="0.00132565" stop-color="#3C2200"/>
<stop offset="1" stop-color="#512D00"/>
</linearGradient>
<radialGradient id="paint23_radial" cx="0" cy="0" r="1" gradientUnits="userSpaceOnUse" gradientTransform="translate(52.8186 35.1129) rotate(-166.005) scale(5.47785 2.64252)">
<stop offset="0.00132565" stop-color="#7A4400"/>
<stop offset="1" stop-color="#643800"/>
</radialGradient>
<linearGradient id="paint24_linear" x1="59.2659" y1="35.3545" x2="45.528" y2="35.3545" gradientUnits="userSpaceOnUse">
<stop offset="0.00132565" stop-color="#3C2200"/>
<stop offset="1" stop-color="#512D00"/>
</linearGradient>
</defs>
</svg>
