<svg width="80" height="80" viewBox="0 0 80 80" fill="none" xmlns="http://www.w3.org/2000/svg">
<path d="M40 70.4762C56.8315 70.4762 70.4762 56.8315 70.4762 40C70.4762 23.1685 56.8315 9.5238 40 9.5238C23.1685 9.5238 9.5238 23.1685 9.5238 40C9.5238 56.8315 23.1685 70.4762 40 70.4762Z" fill="url(#paint0_radial)"/>
<path opacity="0.5" d="M40 70.4762C56.8315 70.4762 70.4762 56.8315 70.4762 40C70.4762 23.1685 56.8315 9.5238 40 9.5238C23.1685 9.5238 9.5238 23.1685 9.5238 40C9.5238 56.8315 23.1685 70.4762 40 70.4762Z" fill="url(#paint1_radial)"/>
<path d="M66.4949 53.5046C66.4949 59.2379 54.6282 63.9236 39.9996 63.9807C25.3711 64.0379 13.5044 59.4284 13.5044 53.695C13.5044 47.9617 25.3711 43.276 39.9996 43.2188C54.6282 43.1617 66.4949 47.7712 66.4949 53.5046Z" fill="url(#paint2_radial)"/>
<path opacity="0.5" d="M62.5144 58.0763L57.5049 53.2763C57.0477 52.8382 56.4954 52.5715 55.9049 52.4382C55.5239 52.1525 55.0477 51.981 54.4954 51.981C54.2096 51.981 53.943 52.1144 53.7906 52.3239C53.6382 52.5334 53.3715 52.6667 53.0858 52.6667H50.8573C50.1334 52.6667 49.562 53.162 49.562 53.7905V54.1144C49.5239 54.1144 49.4858 54.0953 49.4477 54.0953H48.2668C48.1906 54.0953 48.0954 54.1144 48.0192 54.1334C47.9811 54.1525 47.943 54.1715 47.9049 54.1715H47.4858L47.6763 51.5429C47.6954 51.3715 47.6382 51.2001 47.562 51.0477C47.4096 50.8191 47.162 50.6477 46.8573 50.6477H45.143C45.0858 50.6477 45.0287 50.6477 44.9906 50.6667C44.9715 50.6667 44.9525 50.6667 44.9334 50.6858C44.8954 50.6858 44.8763 50.7048 44.8382 50.7239C44.8192 50.7239 44.8001 50.7429 44.7811 50.7429C44.762 50.762 44.7239 50.762 44.7049 50.781C44.6858 50.8001 44.6668 50.8001 44.6477 50.8191C44.6287 50.8382 44.6096 50.8382 44.6096 50.8572C44.5715 50.8953 44.5335 50.9334 44.4954 50.9905C44.4954 51.0096 44.4763 51.0096 44.4763 51.0286C44.4573 51.0667 44.4382 51.0858 44.4192 51.1239C44.4192 51.1239 44.4192 51.1429 44.4001 51.1429C44.343 51.2763 44.3049 51.4096 44.3239 51.562C44.362 51.962 44.0382 52.2858 43.6573 52.2858H42.6477C42.2477 52.2858 41.943 51.9429 41.9811 51.562C41.9811 51.5048 41.9811 51.4477 41.9811 51.3905C41.9239 50.9905 41.5811 50.6667 41.162 50.6667H39.4287C39.3715 50.6667 39.3144 50.6667 39.2573 50.6858C39.2382 50.6858 39.2192 50.7048 39.2001 50.7048C39.162 50.7048 39.143 50.7239 39.1049 50.7429C39.0858 50.7429 39.0668 50.762 39.0477 50.781C39.0287 50.8001 38.9906 50.8001 38.9715 50.8191C38.9525 50.8382 38.9335 50.8572 38.9144 50.8763C38.8954 50.8953 38.8763 50.9144 38.8573 50.9144C38.8382 50.9334 38.8192 50.9525 38.8001 50.9905C38.7811 51.0096 38.7811 51.0286 38.762 51.0286C38.743 51.0667 38.7239 51.0858 38.7049 51.1239C38.7049 51.1429 38.6858 51.1429 38.6858 51.162C38.6668 51.2001 38.6477 51.2382 38.6477 51.2763V51.2953C38.6287 51.3905 38.6096 51.4858 38.6096 51.581C38.6477 51.981 38.3239 52.3048 37.943 52.3048H36.9334C36.5334 52.3048 36.2287 51.962 36.2668 51.581C36.2668 51.4858 36.2668 51.3905 36.2287 51.2953V51.2763C36.2096 51.2382 36.2096 51.2001 36.1906 51.162C36.1906 51.1429 36.1715 51.1429 36.1715 51.1239C36.1525 51.0858 36.1335 51.0667 36.1144 51.0286C36.0954 51.0096 36.0954 50.9905 36.0763 50.9905C36.0573 50.9715 36.0382 50.9525 36.0192 50.9144C36.0001 50.8953 35.9811 50.8763 35.962 50.8763C35.943 50.8572 35.9239 50.8382 35.9049 50.8191C35.8858 50.8001 35.8477 50.8001 35.8287 50.781C35.8096 50.762 35.7906 50.762 35.7715 50.7429C35.7334 50.7239 35.7144 50.7239 35.6763 50.7048C35.6573 50.7048 35.6382 50.6858 35.6192 50.6858C35.562 50.6667 35.5049 50.6667 35.4477 50.6667H33.7144C33.2382 50.6667 32.8573 51.0858 32.8954 51.562C32.9334 51.962 32.6096 52.2858 32.2287 52.2858H31.2192C30.8192 52.2858 30.5144 51.9429 30.5525 51.562C30.5715 51.4096 30.5334 51.2763 30.4763 51.1429C30.4763 51.1429 30.4763 51.1239 30.4573 51.1239C30.4382 51.0858 30.4192 51.0667 30.4001 51.0286C30.4001 51.0096 30.3811 51.0096 30.3811 50.9905C30.343 50.9525 30.3049 50.8953 30.2668 50.8572C30.2477 50.8382 30.2287 50.8382 30.2287 50.8191C30.2096 50.8001 30.1906 50.8001 30.1715 50.781C30.1525 50.762 30.1144 50.7429 30.0954 50.7429C30.0763 50.7429 30.0573 50.7239 30.0382 50.7239C30.0001 50.7048 29.9811 50.7048 29.943 50.6858C29.9239 50.6858 29.9049 50.6858 29.8858 50.6667C29.8287 50.6477 29.7906 50.6477 29.7334 50.6477H28.0001C27.7525 50.6477 27.543 50.7429 27.3906 50.9144C27.2382 51.0667 27.162 51.2953 27.162 51.5429L27.3525 54.1715H26.9334C26.8954 54.1525 26.8573 54.1334 26.8192 54.1334C26.743 54.1144 26.6668 54.0953 26.5715 54.0953H25.3906C24.9525 54.0953 24.5906 54.4382 24.5715 54.8572L24.3239 58.2667C24.3049 58.4191 24.343 58.5525 24.4001 58.6858C24.4001 58.6858 24.4001 58.7048 24.4192 58.7048C24.4382 58.7429 24.4573 58.762 24.4763 58.8001C24.4763 58.8191 24.4954 58.8191 24.4954 58.8382C24.5334 58.8763 24.5715 58.9334 24.6096 58.9715C24.6287 58.9905 24.6287 58.9905 24.6477 59.0096C24.6668 59.0286 24.6858 59.0286 24.7049 59.0477C24.7239 59.0667 24.762 59.0858 24.7811 59.0858C24.8001 59.0858 24.8192 59.1048 24.8382 59.1048C24.8763 59.1239 24.8954 59.1239 24.9334 59.1429C24.9525 59.1429 24.9715 59.1429 24.9906 59.162C25.0477 59.181 25.0858 59.181 25.143 59.181H26.8382C27.3144 59.181 27.6954 58.762 27.6573 58.2858L27.562 56.9144C27.543 56.5715 27.8096 56.2667 28.1715 56.2667H29.5239C29.8858 56.2667 30.1525 56.5715 30.1334 56.9144L30.0382 58.2858C30.0382 58.3429 30.0382 58.381 30.0382 58.4382C30.0763 58.8572 30.4382 59.181 30.8573 59.181H32.5525C33.0287 59.181 33.4096 58.762 33.3715 58.2858L33.2763 56.9144C33.2573 56.5715 33.5239 56.2667 33.8858 56.2667H35.2382C35.6001 56.2667 35.8668 56.5715 35.8477 56.9144L35.7715 57.981L35.7525 58.2858C35.7144 58.762 36.0954 59.181 36.5715 59.181H38.2668C38.5906 59.181 38.8763 58.9906 39.0096 58.7048C39.0668 58.5715 39.1049 58.4382 39.0858 58.2858L38.9906 56.9144C38.9715 56.5715 39.2382 56.2667 39.6001 56.2667H40.9525C41.3144 56.2667 41.5811 56.5715 41.562 56.9144L41.4668 58.2858C41.4287 58.762 41.8096 59.181 42.2858 59.181H43.9811C44.4192 59.181 44.762 58.8572 44.8001 58.4382C44.8001 58.381 44.8001 58.3429 44.8001 58.2858L44.7049 56.9144C44.6858 56.5715 44.9525 56.2667 45.3144 56.2667H46.6668C47.0287 56.2667 47.2954 56.5715 47.2763 56.9144L47.1811 58.2858C47.1811 58.3429 47.1811 58.4001 47.1811 58.4572C47.2382 58.8572 47.5811 59.181 48.0001 59.181H49.6954C49.7525 59.181 49.8096 59.181 49.8477 59.162C49.8668 59.162 49.8858 59.162 49.9049 59.1429C49.943 59.1429 49.962 59.1239 50.0001 59.1048C50.0192 59.1048 50.0382 59.0858 50.0573 59.0858C50.0763 59.0667 50.1144 59.0667 50.1334 59.0477C50.1525 59.0286 50.1715 59.0286 50.1906 59.0096C50.2096 58.9905 50.2096 58.9905 50.2287 58.9715C50.2668 58.9334 50.3239 58.8953 50.343 58.8382C50.343 58.8191 50.362 58.8191 50.362 58.8001C50.3811 58.762 50.4001 58.7429 50.4192 58.7048C50.4192 58.7048 50.4192 58.6858 50.4382 58.6858C50.4954 58.5525 50.5334 58.4191 50.5144 58.2667L50.4001 56.6858C50.5335 56.7239 50.6858 56.762 50.8573 56.762C51.562 56.762 52.1715 57.2191 52.362 57.8858C53.0287 60.1144 53.3144 62.4572 53.2001 64.781C53.143 65.7715 53.1239 66.6858 53.143 67.5048C54.9144 66.6477 56.5906 65.6382 58.1525 64.4763C57.7525 64.3239 57.3715 64.0953 57.0477 63.7715C55.543 62.3239 55.5811 59.6191 57.4287 58.6477C59.6382 57.4858 61.7525 59.7144 60.8954 62.1715C61.8096 61.3144 62.6668 60.4001 63.4668 59.4286C63.2573 58.9334 62.9335 58.4763 62.5144 58.0763ZM54.8001 57.5048C54.3049 57.6763 53.8858 57.7144 53.6573 57.5048C53.4287 57.2763 53.2573 57.0286 53.1239 56.762C53.3906 56.781 53.6382 56.8953 53.7906 57.0858C53.943 57.2953 54.2096 57.4286 54.4954 57.4286C54.7049 57.4286 54.9144 57.4096 55.1049 57.3525C55.0287 57.3905 54.9144 57.4477 54.8001 57.5048ZM56.362 56.4953C56.5525 56.2096 56.6668 55.8858 56.6668 55.5429V54.2858V53.9048C56.9525 54.1334 57.2001 54.4382 57.3525 54.8001C57.562 55.2191 57.0668 55.9048 56.362 56.4953Z" fill="url(#paint3_linear)"/>
<path d="M34.7996 29.276C35.1234 28.095 34.0377 27.0093 31.8472 26.4189C29.9805 25.9236 25.6186 25.8474 21.8282 28.7236C21.1234 29.2569 21.8282 29.8284 22.4567 29.5427C24.5901 28.5331 29.7329 27.8855 33.2567 29.2569C34.6663 29.8093 34.7996 29.276 34.7996 29.276Z" fill="url(#paint4_linear)"/>
<path d="M30.0568 41.6381C31.6768 41.6381 32.9901 39.6511 32.9901 37.2C32.9901 34.7489 31.6768 32.7619 30.0568 32.7619C28.4367 32.7619 27.1234 34.7489 27.1234 37.2C27.1234 39.6511 28.4367 41.6381 30.0568 41.6381Z" fill="url(#paint5_radial)"/>
<path d="M30.0568 34.2473C31.3139 34.2473 32.4187 35.3521 32.9901 36.9711C32.952 34.5711 31.6568 32.6473 30.0568 32.6473C28.4567 32.6473 27.1615 34.5711 27.1234 36.9711C27.6948 35.3521 28.7806 34.2473 30.0568 34.2473Z" fill="url(#paint6_linear)"/>
<path d="M45.1998 29.276C44.876 28.095 45.9617 27.0093 48.1522 26.4189C50.0189 25.9236 54.3808 25.8474 58.1712 28.7236C58.876 29.2569 58.1712 29.8284 57.5427 29.5427C55.4093 28.5331 50.2665 27.8855 46.7427 29.2569C45.3331 29.8093 45.1998 29.276 45.1998 29.276Z" fill="url(#paint7_linear)"/>
<path d="M49.943 41.6381C51.563 41.6381 52.8763 39.6511 52.8763 37.2C52.8763 34.7489 51.563 32.7619 49.943 32.7619C48.3229 32.7619 47.0096 34.7489 47.0096 37.2C47.0096 39.6511 48.3229 41.6381 49.943 41.6381Z" fill="url(#paint8_radial)"/>
<path d="M49.943 34.2473C51.2001 34.2473 52.3049 35.3521 52.8763 36.9711C52.8382 34.5711 51.543 32.6473 49.943 32.6473C48.343 32.6473 47.0477 34.5711 47.0096 36.9711C47.6001 35.3521 48.6858 34.2473 49.943 34.2473Z" fill="url(#paint9_linear)"/>
<path d="M53.9238 54.5714C44.6857 55.4857 35.3333 55.4857 26.0762 54.5714C25.4857 54.5142 25.0476 54.1142 25.0476 53.638C25.0476 53.0666 25.6571 52.6285 26.3619 52.7047C35.4095 53.5999 44.5714 53.5999 53.6381 52.7047C54.3429 52.6285 54.9524 53.0857 54.9524 53.638C54.9524 54.0952 54.5143 54.5142 53.9238 54.5714Z" fill="#643800"/>
<path d="M54.9524 53.6191C54.9524 53.0476 54.3429 52.6095 53.6381 52.6857C44.5905 53.581 35.4286 53.581 26.3619 52.6857C25.6571 52.6095 25.0476 53.0667 25.0476 53.6191C25.0476 53.7143 25.0667 53.8095 25.1048 53.8857C25.3333 53.8667 25.7524 53.3143 26.0952 53.3524C35.3333 54.2667 44.6857 54.2667 53.9429 53.3524C54.2476 53.3143 54.6667 53.8095 54.9143 53.8857C54.9333 53.8095 54.9524 53.7143 54.9524 53.6191Z" fill="url(#paint10_linear)"/>
<path d="M38.2664 58.1905H36.5712C36.095 58.1905 35.714 57.7715 35.7521 57.2953L35.9998 53.8858C36.0379 53.4477 36.3998 53.1239 36.8188 53.1239H37.9998C38.4379 53.1239 38.7998 53.4667 38.8188 53.8858L39.0664 57.2953C39.1236 57.7905 38.7426 58.1905 38.2664 58.1905Z" fill="url(#paint11_linear)"/>
<path d="M32.5521 58.1905H30.8568C30.3806 58.1905 29.9997 57.7715 30.0378 57.2953L30.2854 53.8858C30.3235 53.4477 30.6854 53.1239 31.1044 53.1239H32.2854C32.7235 53.1239 33.0854 53.4667 33.1044 53.8858L33.3521 57.2953C33.4092 57.7905 33.0282 58.1905 32.5521 58.1905Z" fill="url(#paint12_linear)"/>
<path d="M26.8378 58.1905H25.1426C24.6664 58.1905 24.2855 57.7715 24.3236 57.2953L24.5712 53.8858C24.6093 53.4477 24.9712 53.1239 25.3902 53.1239H26.5712C27.0093 53.1239 27.3712 53.4667 27.3902 53.8858L27.6378 57.2953C27.695 57.7905 27.314 58.1905 26.8378 58.1905Z" fill="url(#paint13_linear)"/>
<path d="M38.2664 57.6573H36.5712C36.1712 57.6573 35.8474 57.3716 35.7712 57.0097L35.7521 57.3145C35.714 57.7907 36.095 58.2097 36.5712 58.2097H38.2664C38.7426 58.2097 39.1236 57.7907 39.0855 57.3145L39.0664 57.0097C38.9902 57.3716 38.6664 57.6573 38.2664 57.6573Z" fill="url(#paint14_linear)"/>
<path d="M27.9999 49.6953H29.6952C30.1713 49.6953 30.5523 50.1144 30.5142 50.5906L30.2666 54.0001C30.2285 54.4382 29.8666 54.762 29.4475 54.762H28.2666C27.8285 54.762 27.4666 54.4191 27.4475 54.0001L27.1999 50.5906C27.1237 50.0953 27.5047 49.6953 27.9999 49.6953Z" fill="url(#paint15_linear)"/>
<path d="M33.7142 49.6953H35.4094C35.8856 49.6953 36.2665 50.1144 36.2284 50.5906L35.9808 54.0001C35.9427 54.4382 35.5808 54.762 35.1618 54.762H33.9808C33.5427 54.762 33.1808 54.4191 33.1618 54.0001L32.9142 50.5906C32.838 50.0953 33.2189 49.6953 33.7142 49.6953Z" fill="url(#paint16_linear)"/>
<path d="M42.2856 58.1905H43.9808C44.457 58.1905 44.838 57.7715 44.7999 57.2953L44.5522 53.8858C44.5141 53.4477 44.1522 53.1239 43.7332 53.1239H42.5522C42.1141 53.1239 41.7522 53.4667 41.7332 53.8858L41.4856 57.2953C41.4094 57.7905 41.7903 58.1905 42.2856 58.1905Z" fill="url(#paint17_linear)"/>
<path d="M47.9999 58.1905H49.6952C50.1714 58.1905 50.5523 57.7715 50.5142 57.2953L50.2666 53.8858C50.2285 53.4477 49.8666 53.1239 49.4475 53.1239H48.2666C47.8285 53.1239 47.4666 53.4667 47.4475 53.8858L47.1999 57.2953C47.1237 57.7905 47.5047 58.1905 47.9999 58.1905Z" fill="url(#paint18_linear)"/>
<path d="M46.8378 49.6953H45.1426C44.6664 49.6953 44.2855 50.1144 44.3236 50.5906L44.5712 54.0001C44.6093 54.4382 44.9712 54.762 45.3902 54.762H46.5712C47.0093 54.762 47.3712 54.4191 47.3902 54.0001L47.6378 50.5906C47.695 50.0953 47.314 49.6953 46.8378 49.6953Z" fill="url(#paint19_linear)"/>
<path d="M41.1236 49.6953H39.4284C38.9522 49.6953 38.5712 50.1144 38.6093 50.5906L38.8569 54.0001C38.895 54.4382 39.2569 54.762 39.676 54.762H40.8569C41.295 54.762 41.6569 54.4191 41.676 54.0001L41.9236 50.5906C41.9808 50.0953 41.5998 49.6953 41.1236 49.6953Z" fill="url(#paint20_linear)"/>
<path d="M46.8375 49.6953H45.1423C44.7613 49.6953 44.4566 49.9429 44.3423 50.2858C44.4185 50.2667 44.4947 50.2477 44.5899 50.2477H46.2851C46.7613 50.2477 47.1423 50.6667 47.1042 51.1429L46.8566 54.5525C46.8566 54.6096 46.8375 54.6668 46.8185 54.7239C47.1423 54.6287 47.3708 54.3429 47.4089 54.0001L47.6566 50.5906C47.6947 50.0953 47.3137 49.6953 46.8375 49.6953Z" fill="url(#paint21_linear)"/>
<path d="M41.1237 49.6953H39.4284C38.9903 49.6953 38.6475 50.0191 38.6094 50.4382C38.7618 50.3239 38.9332 50.2477 39.1427 50.2477H40.8379C41.3141 50.2477 41.6951 50.6667 41.657 51.1429L41.4094 54.5525V54.5715C41.5808 54.4382 41.6951 54.2286 41.7141 54.0001L41.9617 50.5906C41.9808 50.0953 41.5998 49.6953 41.1237 49.6953Z" fill="url(#paint22_linear)"/>
<path d="M27.9617 54.5335L27.7141 51.124C27.676 50.6478 28.0569 50.2287 28.5331 50.2287H30.2283C30.3045 50.2287 30.3998 50.2478 30.476 50.2668C30.3807 49.924 30.0569 49.6763 29.676 49.6763H27.9998C27.5236 49.6763 27.1426 50.0954 27.1807 50.5716L27.4283 53.9811C27.4474 54.324 27.695 54.6097 28.0188 54.7049C27.9807 54.6668 27.9807 54.6097 27.9617 54.5335Z" fill="url(#paint23_linear)"/>
<path d="M33.4283 54.5335L33.1807 51.124C33.1426 50.6478 33.5235 50.2287 33.9997 50.2287H35.695C35.9045 50.2287 36.0759 50.3049 36.2283 50.4192C36.1902 50.0002 35.8283 49.6763 35.4093 49.6763H33.714C33.2378 49.6763 32.8569 50.0954 32.895 50.5716L33.1426 53.9811C33.1616 54.2097 33.2759 54.4192 33.4473 54.5526C33.4283 54.5526 33.4283 54.5526 33.4283 54.5335Z" fill="url(#paint24_linear)"/>
<path d="M24.5899 57.6574H26.2851C26.7613 57.6574 27.1423 57.2383 27.1042 56.7621L26.8566 53.3526C26.8566 53.2955 26.8375 53.2383 26.8185 53.1812C27.1423 53.2764 27.3709 53.5621 27.409 53.905L27.6566 57.3145C27.6947 57.7907 27.3137 58.2097 26.8375 58.2097H25.1423C24.7613 58.2097 24.4566 57.9621 24.3423 57.6193C24.4185 57.6383 24.5137 57.6574 24.5899 57.6574Z" fill="url(#paint25_linear)"/>
<path d="M30.5522 57.6571H32.2475C32.7237 57.6571 33.1046 57.2381 33.0665 56.7619L32.8189 53.3524V53.3333C32.9903 53.4667 33.1046 53.6762 33.1237 53.9048L33.3713 57.3143C33.4094 57.7905 33.0284 58.2095 32.5522 58.2095H30.857C30.4189 58.2095 30.0761 57.8857 30.038 57.4667C30.1713 57.5809 30.3427 57.6571 30.5522 57.6571Z" fill="url(#paint26_linear)"/>
<path d="M50.2474 57.6574H48.5522C48.076 57.6574 47.695 57.2383 47.7331 56.7621L47.9807 53.3526C47.9807 53.2955 47.9998 53.2383 48.0188 53.1812C47.695 53.2764 47.4664 53.5621 47.4283 53.905L47.1807 57.3145C47.1426 57.7907 47.5236 58.2097 47.9998 58.2097H49.695C50.076 58.2097 50.3807 57.9621 50.495 57.6193C50.4188 57.6383 50.3236 57.6574 50.2474 57.6574Z" fill="url(#paint27_linear)"/>
<path d="M44.2854 57.6571H42.5902C42.114 57.6571 41.733 57.2381 41.7711 56.7619L42.0188 53.3524V53.3333C41.8473 53.4667 41.733 53.6762 41.714 53.9048L41.4664 57.3143C41.4283 57.7905 41.8092 58.2095 42.2854 58.2095H43.9807C44.4187 58.2095 44.7616 57.8857 44.7997 57.4667C44.6664 57.5809 44.4759 57.6571 44.2854 57.6571Z" fill="url(#paint28_linear)"/>
<path d="M38.2664 58.1905H36.5712C36.095 58.1905 35.714 57.7715 35.7521 57.2953L35.9998 53.8858C36.0379 53.4477 36.3998 53.1239 36.8188 53.1239H37.9998C38.4379 53.1239 38.7998 53.4667 38.8188 53.8858L39.0664 57.2953C39.1236 57.7905 38.7426 58.1905 38.2664 58.1905Z" fill="url(#paint29_linear)"/>
<path d="M32.5521 58.1905H30.8568C30.3806 58.1905 29.9997 57.7715 30.0378 57.2953L30.2854 53.8858C30.3235 53.4477 30.6854 53.1239 31.1044 53.1239H32.2854C32.7235 53.1239 33.0854 53.4667 33.1044 53.8858L33.3521 57.2953C33.4092 57.7905 33.0282 58.1905 32.5521 58.1905Z" fill="url(#paint30_linear)"/>
<path d="M26.8378 58.1905H25.1426C24.6664 58.1905 24.2855 57.7715 24.3236 57.2953L24.5712 53.8858C24.6093 53.4477 24.9712 53.1239 25.3902 53.1239H26.5712C27.0093 53.1239 27.3712 53.4667 27.3902 53.8858L27.6378 57.2953C27.695 57.7905 27.314 58.1905 26.8378 58.1905Z" fill="url(#paint31_linear)"/>
<path d="M27.9999 49.6953H29.6952C30.1713 49.6953 30.5523 50.1144 30.5142 50.5906L30.2666 54.0001C30.2285 54.4382 29.8666 54.762 29.4475 54.762H28.2666C27.8285 54.762 27.4666 54.4191 27.4475 54.0001L27.1999 50.5906C27.1237 50.0953 27.5047 49.6953 27.9999 49.6953Z" fill="url(#paint32_linear)"/>
<path d="M33.7142 49.6953H35.4094C35.8856 49.6953 36.2665 50.1144 36.2284 50.5906L35.9808 54.0001C35.9427 54.4382 35.5808 54.762 35.1618 54.762H33.9808C33.5427 54.762 33.1808 54.4191 33.1618 54.0001L32.9142 50.5906C32.838 50.0953 33.2189 49.6953 33.7142 49.6953Z" fill="url(#paint33_linear)"/>
<path d="M42.2856 58.1905H43.9808C44.457 58.1905 44.838 57.7715 44.7999 57.2953L44.5522 53.8858C44.5141 53.4477 44.1522 53.1239 43.7332 53.1239H42.5522C42.1141 53.1239 41.7522 53.4667 41.7332 53.8858L41.4856 57.2953C41.4094 57.7905 41.7903 58.1905 42.2856 58.1905Z" fill="url(#paint34_linear)"/>
<path d="M47.9999 58.1905H49.6952C50.1714 58.1905 50.5523 57.7715 50.5142 57.2953L50.2666 53.8858C50.2285 53.4477 49.8666 53.1239 49.4475 53.1239H48.2666C47.8285 53.1239 47.4666 53.4667 47.4475 53.8858L47.1999 57.2953C47.1237 57.7905 47.5047 58.1905 47.9999 58.1905Z" fill="url(#paint35_linear)"/>
<path d="M46.8378 49.6953H45.1426C44.6664 49.6953 44.2855 50.1144 44.3236 50.5906L44.5712 54.0001C44.6093 54.4382 44.9712 54.762 45.3902 54.762H46.5712C47.0093 54.762 47.3712 54.4191 47.3902 54.0001L47.6378 50.5906C47.695 50.0953 47.314 49.6953 46.8378 49.6953Z" fill="url(#paint36_linear)"/>
<path d="M41.1236 49.6953H39.4284C38.9522 49.6953 38.5712 50.1144 38.6093 50.5906L38.8569 54.0001C38.895 54.4382 39.2569 54.762 39.676 54.762H40.8569C41.295 54.762 41.6569 54.4191 41.676 54.0001L41.9236 50.5906C41.9808 50.0953 41.5998 49.6953 41.1236 49.6953Z" fill="url(#paint37_linear)"/>
<path d="M53.8094 51.3715C53.657 51.581 53.3903 51.7143 53.1046 51.7143H50.857C50.1522 51.7143 49.5618 52.2096 49.5618 52.8381V54.6857C49.5618 55.3143 50.1332 55.8095 50.857 55.8095H53.0856C53.3713 55.8095 53.638 55.9429 53.7903 56.1524C53.9427 56.3619 54.2094 56.4953 54.4951 56.4953C55.6761 56.4953 56.6475 55.6572 56.6475 54.6286V52.9334C56.6475 51.9048 55.6761 51.0667 54.4951 51.0667C54.2284 51.0286 53.9618 51.1619 53.8094 51.3715Z" fill="url(#paint38_linear)"/>
<path d="M53.8094 51.3715C53.657 51.581 53.3903 51.7143 53.1046 51.7143H50.857C50.1522 51.7143 49.5618 52.2096 49.5618 52.8381V54.6857C49.5618 55.3143 50.1332 55.8095 50.857 55.8095H53.0856C53.3713 55.8095 53.638 55.9429 53.7903 56.1524C53.9427 56.3619 54.2094 56.4953 54.4951 56.4953C55.6761 56.4953 56.6475 55.6572 56.6475 54.6286V52.9334C56.6475 51.9048 55.6761 51.0667 54.4951 51.0667C54.2284 51.0286 53.9618 51.1619 53.8094 51.3715Z" fill="url(#paint39_linear)"/>
<path opacity="0.2" d="M55.5997 53.7523V54.4952C55.5997 54.9904 55.1997 55.3904 54.7044 55.3904H51.6187C50.914 55.3904 50.3616 54.819 50.3616 54.1332C50.3616 53.4285 50.933 52.8761 51.6187 52.8761H54.7044C55.1997 52.8761 55.5997 53.2761 55.5997 53.7523Z" fill="#939FA1"/>
<path opacity="0.2" d="M53.4858 52.2666L54.2097 53.3142L55.1811 53.2571C55.8858 52.8952 56.4192 53.1428 56.6668 53.3333V52.8952C56.6668 52.6666 56.5906 52.2285 56.362 51.9428L55.4858 51.5428L53.4858 52.2666Z" fill="#8EA5A8"/>
<path d="M64.4004 57.5046L58.4576 51.7903C57.1242 50.5141 55.0861 50.3617 53.5814 51.4284C52.0766 52.4951 51.5433 54.476 52.3052 56.1522L55.7147 63.657C57.1242 66.7617 61.0099 67.8094 63.7909 65.8474C66.5528 63.8855 66.8576 59.8665 64.4004 57.5046ZM54.21 52.3427C55.7147 51.276 57.7909 51.8474 58.5528 53.5236C59.1052 54.7427 54.8385 57.7713 53.8671 56.8379C52.5528 55.5617 52.7052 53.4094 54.21 52.3427ZM64.248 59.7903C64.9909 61.4474 64.5338 63.5236 62.9338 64.6474C61.3338 65.7903 59.2385 65.5427 57.9052 64.2855C56.1147 62.5713 56.3242 59.6379 58.3623 58.1903C60.3814 56.7617 63.2195 57.5236 64.248 59.7903Z" fill="#99AFB3"/>
<path d="M64.1147 57.6188L58.1718 51.9045C56.8385 50.6283 54.8004 50.4759 53.2956 51.5426C51.7909 52.6093 51.2575 54.5902 52.0194 56.2664L55.4289 63.7712C56.8385 66.8759 60.7242 67.9236 63.5051 65.9617C66.267 63.9998 66.5718 59.9807 64.1147 57.6188ZM53.9242 52.4569C55.4289 51.3902 57.5051 51.9617 58.267 53.6379C58.8194 54.8569 54.5528 57.8855 53.5813 56.9521C52.267 55.6759 52.4194 53.5236 53.9242 52.4569ZM63.9813 59.9045C64.7242 61.5617 64.267 63.6379 62.667 64.7617C61.067 65.9045 58.9718 65.6569 57.6385 64.3998C55.848 62.6855 56.0575 59.7521 58.0956 58.3045C60.1147 56.8759 62.9527 57.6379 63.9813 59.9045Z" fill="url(#paint40_linear)"/>
<path d="M55.5997 53.3713V54.1142C55.5997 54.6094 55.1997 55.0094 54.7044 55.0094H51.6187C50.914 55.0094 50.3616 54.438 50.3616 53.7523C50.3616 53.0475 50.933 52.4951 51.6187 52.4951H54.7044C55.1997 52.4951 55.5997 52.8951 55.5997 53.3713Z" fill="url(#paint41_linear)"/>
<path d="M54.952 54.2286H51.3711C50.952 54.2286 50.5901 54.019 50.3616 53.7143C50.3616 53.7333 50.3616 53.7333 50.3616 53.7524C50.3616 54.4571 50.933 55.0095 51.6187 55.0095H54.7044C55.1997 55.0095 55.5997 54.6095 55.5997 54.1143V53.9429C55.4282 54.1143 55.1997 54.2286 54.952 54.2286Z" fill="url(#paint42_linear)"/>
<path opacity="0.5" d="M51.6764 55.0097C51.6764 55.0859 51.6954 55.1621 51.6954 55.2382H52.705L53.0478 55.3906C53.0097 55.2573 52.9907 55.143 52.9907 55.0097H51.6764Z" fill="#778A8C"/>
<defs>
<radialGradient id="paint0_radial" cx="0" cy="0" r="1" gradientUnits="userSpaceOnUse" gradientTransform="translate(34.0037 27.649) scale(36.7656)">
<stop stop-color="#FFE030"/>
<stop offset="1" stop-color="#FFB92E"/>
</radialGradient>
<radialGradient id="paint1_radial" cx="0" cy="0" r="1" gradientUnits="userSpaceOnUse" gradientTransform="translate(34.0037 27.649) scale(28.9251)">
<stop stop-color="#FFEA5F"/>
<stop offset="1" stop-color="#FFBC47" stop-opacity="0"/>
</radialGradient>
<radialGradient id="paint2_radial" cx="0" cy="0" r="1" gradientUnits="userSpaceOnUse" gradientTransform="translate(39.9034 55.2234) rotate(-0.812508) scale(26.7281 9.43131)">
<stop stop-color="#FF8900"/>
<stop offset="0.2342" stop-color="#FF8C04" stop-opacity="0.7658"/>
<stop offset="0.4739" stop-color="#FF9510" stop-opacity="0.5261"/>
<stop offset="0.7163" stop-color="#FFA325" stop-opacity="0.2837"/>
<stop offset="0.959" stop-color="#FFB841" stop-opacity="0.0410228"/>
<stop offset="1" stop-color="#FFBC47" stop-opacity="0"/>
</radialGradient>
<linearGradient id="paint3_linear" x1="43.8979" y1="28.9282" x2="43.8979" y2="63.2667" gradientUnits="userSpaceOnUse">
<stop stop-color="#FFBC47" stop-opacity="0"/>
<stop offset="1" stop-color="#FF8900"/>
</linearGradient>
<linearGradient id="paint4_linear" x1="27.5619" y1="31.4814" x2="28.8786" y2="26.5672" gradientUnits="userSpaceOnUse">
<stop offset="0.00132565" stop-color="#3C2200"/>
<stop offset="1" stop-color="#7A4400"/>
</linearGradient>
<radialGradient id="paint5_radial" cx="0" cy="0" r="1" gradientUnits="userSpaceOnUse" gradientTransform="translate(29.1593 37.3007) rotate(73.8539) scale(4.30607 2.78596)">
<stop offset="0.00132565" stop-color="#7A4400"/>
<stop offset="1" stop-color="#643800"/>
</radialGradient>
<linearGradient id="paint6_linear" x1="30.0495" y1="32.6464" x2="30.0495" y2="36.9741" gradientUnits="userSpaceOnUse">
<stop offset="0.00132565" stop-color="#3C2200"/>
<stop offset="1" stop-color="#512D00"/>
</linearGradient>
<linearGradient id="paint7_linear" x1="52.449" y1="31.6405" x2="51.1323" y2="26.7263" gradientUnits="userSpaceOnUse">
<stop offset="0.00132565" stop-color="#3C2200"/>
<stop offset="1" stop-color="#7A4400"/>
</linearGradient>
<radialGradient id="paint8_radial" cx="0" cy="0" r="1" gradientUnits="userSpaceOnUse" gradientTransform="translate(49.0605 37.3011) rotate(73.8539) scale(4.30607 2.78596)">
<stop offset="0.00132565" stop-color="#7A4400"/>
<stop offset="1" stop-color="#643800"/>
</radialGradient>
<linearGradient id="paint9_linear" x1="49.9503" y1="32.6464" x2="49.9503" y2="36.9741" gradientUnits="userSpaceOnUse">
<stop offset="0.00132565" stop-color="#3C2200"/>
<stop offset="1" stop-color="#512D00"/>
</linearGradient>
<linearGradient id="paint10_linear" x1="25.044" y1="53.3566" x2="54.956" y2="53.3566" gradientUnits="userSpaceOnUse">
<stop offset="0.00132565" stop-color="#3C2200"/>
<stop offset="1" stop-color="#512D00"/>
</linearGradient>
<linearGradient id="paint11_linear" x1="37.4173" y1="58.452" x2="37.4173" y2="51.1633" gradientUnits="userSpaceOnUse">
<stop stop-color="#BBCACC"/>
<stop offset="0.2592" stop-color="#DEE6E6"/>
<stop offset="0.392" stop-color="white"/>
<stop offset="0.4878" stop-color="#DEE7E8"/>
<stop offset="1" stop-color="#99AFB3"/>
</linearGradient>
<linearGradient id="paint12_linear" x1="31.7029" y1="58.452" x2="31.7029" y2="51.1633" gradientUnits="userSpaceOnUse">
<stop stop-color="#BBCACC"/>
<stop offset="0.2592" stop-color="#DEE6E6"/>
<stop offset="0.392" stop-color="white"/>
<stop offset="0.4878" stop-color="#DEE7E8"/>
<stop offset="1" stop-color="#99AFB3"/>
</linearGradient>
<linearGradient id="paint13_linear" x1="25.9887" y1="58.452" x2="25.9887" y2="51.1633" gradientUnits="userSpaceOnUse">
<stop stop-color="#BBCACC"/>
<stop offset="0.2592" stop-color="#DEE6E6"/>
<stop offset="0.392" stop-color="white"/>
<stop offset="0.4878" stop-color="#DEE7E8"/>
<stop offset="1" stop-color="#99AFB3"/>
</linearGradient>
<linearGradient id="paint14_linear" x1="37.4173" y1="53.0235" x2="37.4173" y2="60.243" gradientUnits="userSpaceOnUse">
<stop stop-color="#DEE7E8" stop-opacity="0"/>
<stop offset="1" stop-color="#99AFB3"/>
</linearGradient>
<linearGradient id="paint15_linear" x1="28.846" y1="49.7854" x2="28.846" y2="56.8535" gradientUnits="userSpaceOnUse">
<stop stop-color="#BBCACC"/>
<stop offset="0.2942" stop-color="white"/>
<stop offset="0.3717" stop-color="#DEE7E8"/>
<stop offset="1" stop-color="#99AFB3"/>
</linearGradient>
<linearGradient id="paint16_linear" x1="34.5602" y1="49.7854" x2="34.5602" y2="56.8535" gradientUnits="userSpaceOnUse">
<stop stop-color="#BBCACC"/>
<stop offset="0.2942" stop-color="white"/>
<stop offset="0.3717" stop-color="#DEE7E8"/>
<stop offset="1" stop-color="#99AFB3"/>
</linearGradient>
<linearGradient id="paint17_linear" x1="43.1316" y1="58.452" x2="43.1316" y2="51.1633" gradientUnits="userSpaceOnUse">
<stop stop-color="#BBCACC"/>
<stop offset="0.2592" stop-color="#DEE6E6"/>
<stop offset="0.392" stop-color="white"/>
<stop offset="0.4878" stop-color="#DEE7E8"/>
<stop offset="1" stop-color="#99AFB3"/>
</linearGradient>
<linearGradient id="paint18_linear" x1="48.846" y1="58.452" x2="48.846" y2="51.1633" gradientUnits="userSpaceOnUse">
<stop stop-color="#BBCACC"/>
<stop offset="0.2592" stop-color="#DEE6E6"/>
<stop offset="0.392" stop-color="white"/>
<stop offset="0.4878" stop-color="#DEE7E8"/>
<stop offset="1" stop-color="#99AFB3"/>
</linearGradient>
<linearGradient id="paint19_linear" x1="45.9887" y1="49.7854" x2="45.9887" y2="56.8535" gradientUnits="userSpaceOnUse">
<stop stop-color="#BBCACC"/>
<stop offset="0.2942" stop-color="white"/>
<stop offset="0.3717" stop-color="#DEE7E8"/>
<stop offset="1" stop-color="#99AFB3"/>
</linearGradient>
<linearGradient id="paint20_linear" x1="40.2744" y1="49.7854" x2="40.2744" y2="56.8535" gradientUnits="userSpaceOnUse">
<stop stop-color="#BBCACC"/>
<stop offset="0.2942" stop-color="white"/>
<stop offset="0.3717" stop-color="#DEE7E8"/>
<stop offset="1" stop-color="#99AFB3"/>
</linearGradient>
<linearGradient id="paint21_linear" x1="46.0079" y1="54.9737" x2="46.0079" y2="47.7431" gradientUnits="userSpaceOnUse">
<stop stop-color="#DEE7E8" stop-opacity="0"/>
<stop offset="1" stop-color="#99AFB3"/>
</linearGradient>
<linearGradient id="paint22_linear" x1="40.2779" y1="54.8097" x2="40.2779" y2="47.8035" gradientUnits="userSpaceOnUse">
<stop stop-color="#DEE7E8" stop-opacity="0"/>
<stop offset="1" stop-color="#99AFB3"/>
</linearGradient>
<linearGradient id="paint23_linear" x1="28.8263" y1="54.9737" x2="28.8263" y2="47.7432" gradientUnits="userSpaceOnUse">
<stop stop-color="#DEE7E8" stop-opacity="0"/>
<stop offset="1" stop-color="#99AFB3"/>
</linearGradient>
<linearGradient id="paint24_linear" x1="34.5567" y1="54.8098" x2="34.5567" y2="47.8036" gradientUnits="userSpaceOnUse">
<stop stop-color="#DEE7E8" stop-opacity="0"/>
<stop offset="1" stop-color="#99AFB3"/>
</linearGradient>
<linearGradient id="paint25_linear" x1="26.0079" y1="53.0236" x2="26.0079" y2="60.243" gradientUnits="userSpaceOnUse">
<stop stop-color="#DEE7E8" stop-opacity="0"/>
<stop offset="1" stop-color="#99AFB3"/>
</linearGradient>
<linearGradient id="paint26_linear" x1="31.6997" y1="53.0234" x2="31.6997" y2="60.2428" gradientUnits="userSpaceOnUse">
<stop stop-color="#DEE7E8" stop-opacity="0"/>
<stop offset="1" stop-color="#99AFB3"/>
</linearGradient>
<linearGradient id="paint27_linear" x1="48.8263" y1="53.0236" x2="48.8263" y2="60.243" gradientUnits="userSpaceOnUse">
<stop stop-color="#DEE7E8" stop-opacity="0"/>
<stop offset="1" stop-color="#99AFB3"/>
</linearGradient>
<linearGradient id="paint28_linear" x1="43.1349" y1="53.0234" x2="43.1349" y2="60.2428" gradientUnits="userSpaceOnUse">
<stop stop-color="#DEE7E8" stop-opacity="0"/>
<stop offset="1" stop-color="#99AFB3"/>
</linearGradient>
<linearGradient id="paint29_linear" x1="37.4173" y1="58.198" x2="37.4173" y2="53.126" gradientUnits="userSpaceOnUse">
<stop stop-color="#8EA5A8"/>
<stop offset="0.2448" stop-color="#BBCACC" stop-opacity="0"/>
<stop offset="1" stop-color="#8EA5A8"/>
</linearGradient>
<linearGradient id="paint30_linear" x1="31.7029" y1="58.198" x2="31.7029" y2="53.126" gradientUnits="userSpaceOnUse">
<stop stop-color="#8EA5A8"/>
<stop offset="0.2448" stop-color="#BBCACC" stop-opacity="0"/>
<stop offset="1" stop-color="#8EA5A8"/>
</linearGradient>
<linearGradient id="paint31_linear" x1="25.9887" y1="58.198" x2="25.9887" y2="53.126" gradientUnits="userSpaceOnUse">
<stop stop-color="#8EA5A8"/>
<stop offset="0.2448" stop-color="#BBCACC" stop-opacity="0"/>
<stop offset="1" stop-color="#8EA5A8"/>
</linearGradient>
<linearGradient id="paint32_linear" x1="28.846" y1="54.7622" x2="28.846" y2="49.6901" gradientUnits="userSpaceOnUse">
<stop stop-color="#A9BCBE"/>
<stop offset="0.7552" stop-color="#BBCACC" stop-opacity="0"/>
<stop offset="1" stop-color="#8EA5A8"/>
</linearGradient>
<linearGradient id="paint33_linear" x1="34.5602" y1="54.7621" x2="34.5602" y2="49.6901" gradientUnits="userSpaceOnUse">
<stop stop-color="#A9BCBE"/>
<stop offset="0.7552" stop-color="#BBCACC" stop-opacity="0"/>
<stop offset="1" stop-color="#8EA5A8"/>
</linearGradient>
<linearGradient id="paint34_linear" x1="43.1316" y1="58.198" x2="43.1316" y2="53.126" gradientUnits="userSpaceOnUse">
<stop stop-color="#8EA5A8"/>
<stop offset="0.2448" stop-color="#BBCACC" stop-opacity="0"/>
<stop offset="1" stop-color="#8EA5A8"/>
</linearGradient>
<linearGradient id="paint35_linear" x1="48.846" y1="58.198" x2="48.846" y2="53.126" gradientUnits="userSpaceOnUse">
<stop stop-color="#8EA5A8"/>
<stop offset="0.2448" stop-color="#BBCACC" stop-opacity="0"/>
<stop offset="1" stop-color="#8EA5A8"/>
</linearGradient>
<linearGradient id="paint36_linear" x1="45.9887" y1="54.7622" x2="45.9887" y2="49.6901" gradientUnits="userSpaceOnUse">
<stop stop-color="#A9BCBE"/>
<stop offset="0.7552" stop-color="#BBCACC" stop-opacity="0"/>
<stop offset="1" stop-color="#8EA5A8"/>
</linearGradient>
<linearGradient id="paint37_linear" x1="40.2744" y1="54.7621" x2="40.2744" y2="49.6901" gradientUnits="userSpaceOnUse">
<stop stop-color="#A9BCBE"/>
<stop offset="0.7552" stop-color="#BBCACC" stop-opacity="0"/>
<stop offset="1" stop-color="#8EA5A8"/>
</linearGradient>
<linearGradient id="paint38_linear" x1="52.4243" y1="50.848" x2="53.6931" y2="56.1767" gradientUnits="userSpaceOnUse">
<stop stop-color="#BBCACC"/>
<stop offset="0.3717" stop-color="#DEE7E8"/>
<stop offset="1" stop-color="#99AFB3"/>
</linearGradient>
<linearGradient id="paint39_linear" x1="53.3608" y1="51.0631" x2="50.837" y2="78.4678" gradientUnits="userSpaceOnUse">
<stop stop-color="#DEE7E8" stop-opacity="0"/>
<stop offset="1" stop-color="#99AFB3"/>
</linearGradient>
<linearGradient id="paint40_linear" x1="63.4463" y1="45.9029" x2="55.9755" y2="65.4482" gradientUnits="userSpaceOnUse">
<stop stop-color="#BBCACC"/>
<stop offset="0.2942" stop-color="white"/>
<stop offset="1" stop-color="#99AFB3"/>
</linearGradient>
<linearGradient id="paint41_linear" x1="50.1812" y1="48.9764" x2="54.3082" y2="55.8336" gradientUnits="userSpaceOnUse">
<stop stop-color="#BBCACC"/>
<stop offset="0.2942" stop-color="white"/>
<stop offset="0.4545" stop-color="#DEE7E8"/>
<stop offset="1" stop-color="#99AFB3"/>
</linearGradient>
<linearGradient id="paint42_linear" x1="52.2079" y1="51.6104" x2="53.4937" y2="55.539" gradientUnits="userSpaceOnUse">
<stop stop-color="#DEE7E8" stop-opacity="0"/>
<stop offset="1" stop-color="#99AFB3"/>
</linearGradient>
</defs>
</svg>
