<svg width="80" height="80" viewBox="0 0 80 80" fill="none" xmlns="http://www.w3.org/2000/svg">
<path d="M68.8016 58.7434C65.8151 58.7434 61.5334 58.9973 59.5194 58.9973C57.5055 58.9973 55.0871 61.661 45.65 61.661C36.2129 61.661 34.2764 58.3518 34.3582 55.9333C34.44 53.5149 32.5551 53.2137 32.0474 50.6016C31.6558 48.5919 32.6369 48.2047 32.6369 46.9137C32.6369 45.6227 30.7306 44.9557 30.7306 42.7825C30.7306 40.6094 32.426 38.8364 32.426 38.8364C32.426 38.8364 20.166 38.8364 15.8111 38.8364C11.4562 38.8364 6.00827 39.1979 6.01258 34.4815C6.01258 29.7608 11.8177 30.3289 14.9031 30.3289C17.9886 30.3289 36.6863 30.2471 36.6863 30.2471C36.6863 30.2471 29.0523 28.1815 29.0523 22.2516C29.0523 16.3217 33.1791 17.4621 36.4926 20.4357C42.3322 25.6813 56.1112 22.7336 60.8147 34.9549C60.8147 34.9549 61.2149 36.2717 69.9075 34.7311C69.9075 34.7311 73.9999 35.3938 73.9999 45.7432C74.0042 56.8714 68.8016 58.7434 68.8016 58.7434Z" fill="url(#paint0_linear)"/>
<path d="M29.5734 19.3984C29.2464 20.0697 29.0527 20.995 29.0527 22.2515C29.0527 27.5316 35.0816 29.7349 36.407 30.1566L42.3972 30.3804H47.8365C37.5818 28.6591 30.2361 23.0605 29.5734 19.3984Z" fill="url(#paint1_radial)"/>
<path d="M29.0527 22.2514C29.0527 28.1813 36.6781 30.2383 36.6781 30.2383L48.0474 30.5223C48.0474 30.5223 42.6984 28.9387 38.5501 28.7493C33.313 28.5041 29.156 24.7989 29.1517 20.8442C29.0872 21.2617 29.0527 21.7264 29.0527 22.2514Z" fill="url(#paint2_linear)"/>
<path d="M15.8029 38.8281C20.1578 38.8281 32.4178 38.8281 32.4178 38.8281C32.4178 38.8281 31.2301 40.076 30.8471 41.7629C31.1268 40.928 33.0633 39.3272 34.1176 38.6516C35.245 37.9244 32.9858 37.4553 29.9993 37.4553C27.0129 37.4553 15.4973 37.2143 10.8412 37.2143C8.05696 37.2143 6 36.1342 6 34.4731C6.0043 39.1938 11.448 38.8281 15.8029 38.8281Z" fill="url(#paint3_linear)"/>
<path d="M31.9917 50.2746C31.996 49.0697 33.5108 48.6652 33.5108 46.9353C33.5108 45.2011 30.7266 44.1425 30.7266 42.7783C30.7266 44.9515 32.6329 45.6185 32.6329 46.9095C32.6372 48.1273 31.7636 48.5447 31.9917 50.2746Z" fill="url(#paint4_linear)"/>
<path d="M65.4756 57.6456C58.2762 57.2239 63.41 51.7759 55.6771 57.5854C51.2533 60.9075 42.9738 60.064 39.7076 59.7026C36.4414 59.3411 35.7744 56.5569 35.2925 54.6204C34.8708 52.9378 32.7019 52.3052 32.1382 50.9497C32.7406 53.239 34.4447 53.6263 34.3673 55.9286C34.2855 58.347 36.222 61.6562 45.659 61.6562C55.0961 61.6562 57.5146 58.9925 59.5285 58.9925C61.5424 58.9925 65.8242 58.7386 68.8106 58.7386C68.8106 58.7386 70.6008 58.0931 72.0811 55.3132C70.3598 55.8253 68.0791 57.7962 65.4756 57.6456Z" fill="url(#paint5_linear)"/>
<path d="M60.815 34.9594C58.3579 28.5776 53.4263 26.3313 48.4431 24.894C56.2708 27.7772 58.8183 35.3811 60.4492 36.4698C61.9554 37.4725 66.5513 38.2213 71.2935 35.5748C70.5318 34.8346 69.9078 34.7313 69.9078 34.7313C61.2152 36.2762 60.815 34.9594 60.815 34.9594Z" fill="url(#paint6_linear)"/>
<path d="M73.996 46.4401C68.6298 45.5751 63.6467 49.5126 55.4403 49.5126C46.4293 49.5126 41.7 55.3866 32.6072 52.1462C33.3473 53.4802 34.4188 54.0956 34.3586 55.9331C34.2768 58.3515 36.2133 61.6608 45.6504 61.6608C55.0875 61.6608 57.5059 58.997 59.5198 58.997C61.5338 58.997 65.8155 58.7431 68.802 58.7431C68.802 58.7431 73.7852 56.9444 73.996 46.4401Z" fill="url(#paint7_radial)"/>
<path opacity="0.16" d="M35.4043 37.1325C35.4043 39.6714 34.5565 41.1259 34.5565 43.1829C34.5565 45.2398 35.8045 51.8927 40.2411 51.8927C44.6821 51.8927 53.6975 48.265 54.8335 44.2716C55.9696 40.2782 50.513 33.1821 46.8811 32.5753C43.2491 31.9686 35.4043 33.1391 35.4043 37.1325Z" fill="url(#paint8_radial)"/>
<path d="M48.3485 30.5613C48.3485 30.5613 36.7598 30.2385 36.678 30.2385L35.9379 29.9976C35.9379 29.8297 36.4414 29.7738 36.6092 29.7738C36.9491 29.7738 45.035 29.507 48.3485 30.5613Z" fill="#975500"/>
<path opacity="0.16" d="M9.61047 34.0212C9.61047 35.437 12.9498 36.6505 19.5252 35.7425C26.1006 34.8302 34.1994 37.9587 34.1994 34.473C34.1994 30.9874 21.1475 32.7087 19.1207 32.7087C17.1025 32.7087 9.61047 31.1896 9.61047 34.0212Z" fill="url(#paint9_radial)"/>
<defs>
<linearGradient id="paint0_linear" x1="45.6008" y1="79.0118" x2="37.8597" y2="23.9134" gradientUnits="userSpaceOnUse">
<stop offset="0.00132565" stop-color="#BE8D68"/>
<stop offset="1" stop-color="#CD9870"/>
</linearGradient>
<radialGradient id="paint1_radial" cx="0" cy="0" r="1" gradientUnits="userSpaceOnUse" gradientTransform="translate(34.0866 7.89471) scale(25.542)">
<stop offset="0.6147" stop-color="#B37E53" stop-opacity="0"/>
<stop offset="1" stop-color="#B37E53"/>
</radialGradient>
<linearGradient id="paint2_linear" x1="37.0555" y1="31.4135" x2="41.609" y2="14.5146" gradientUnits="userSpaceOnUse">
<stop stop-color="#B37E53"/>
<stop offset="1" stop-color="#CD9870"/>
</linearGradient>
<linearGradient id="paint3_linear" x1="17.2011" y1="27.1756" x2="27.0672" y2="58.5954" gradientUnits="userSpaceOnUse">
<stop stop-color="#B37E53"/>
<stop offset="1" stop-color="#CD9870"/>
</linearGradient>
<linearGradient id="paint4_linear" x1="29.4371" y1="46.5268" x2="38.1492" y2="46.5269" gradientUnits="userSpaceOnUse">
<stop stop-color="#B37E53"/>
<stop offset="1" stop-color="#CD9870"/>
</linearGradient>
<linearGradient id="paint5_linear" x1="50.9618" y1="45.8303" x2="57.1851" y2="85.7501" gradientUnits="userSpaceOnUse">
<stop stop-color="#B37E53"/>
<stop offset="1" stop-color="#CD9870"/>
</linearGradient>
<linearGradient id="paint6_linear" x1="51.9741" y1="36.7668" x2="76.5635" y2="16.4274" gradientUnits="userSpaceOnUse">
<stop stop-color="#D2A374" stop-opacity="0"/>
<stop offset="1" stop-color="#B88653"/>
</linearGradient>
<radialGradient id="paint7_radial" cx="0" cy="0" r="1" gradientUnits="userSpaceOnUse" gradientTransform="translate(46.6342 11.0821) scale(62.3191)">
<stop offset="0.6147" stop-color="#B37E53" stop-opacity="0"/>
<stop offset="1" stop-color="#B37E53"/>
</radialGradient>
<radialGradient id="paint8_radial" cx="0" cy="0" r="1" gradientUnits="userSpaceOnUse" gradientTransform="translate(39.4088 42.1976) rotate(-90) scale(10.357 5.25905)">
<stop stop-color="#F8DBBA"/>
<stop offset="1" stop-color="#CD9870" stop-opacity="0"/>
</radialGradient>
<radialGradient id="paint9_radial" cx="0" cy="0" r="1" gradientUnits="userSpaceOnUse" gradientTransform="translate(21.9 34.2256) rotate(-1.58823) scale(12.7008 1.48151)">
<stop stop-color="#F8DBBA"/>
<stop offset="1" stop-color="#CD9870" stop-opacity="0"/>
</radialGradient>
</defs>
</svg>
