<svg width="80" height="80" viewBox="0 0 80 80" fill="none" xmlns="http://www.w3.org/2000/svg">
<path d="M58.7439 68.7993C58.7439 65.817 58.9956 61.5334 58.9956 59.5196C58.9956 57.5058 61.6579 55.0867 61.6579 45.6491C61.6579 36.2115 58.3513 34.2745 55.9322 34.3556C53.5131 34.4366 53.2144 32.5508 50.599 32.0431C48.5895 31.6548 48.2012 32.6319 46.9085 32.6319C45.6157 32.6319 44.9502 30.7247 42.7785 30.7247C40.6068 30.7247 38.8319 32.4185 38.8319 32.4185C38.8319 32.4185 38.8319 20.1565 38.8319 15.8046C38.8319 11.4485 39.1946 6.00439 34.4758 6.00439C29.757 6.00439 30.3202 11.8112 30.3202 14.8959C30.3202 17.9806 30.2391 36.6765 30.2391 36.6765C30.2391 36.6765 28.1826 29.0522 22.2522 29.0522C16.3217 29.0522 17.4608 33.178 20.4389 36.4931C25.6825 42.334 22.7385 56.1106 34.9579 60.8124C34.9579 60.8124 36.2763 61.2134 34.7361 69.9044C34.7361 69.9044 35.3974 74.0002 45.748 74.0002C56.8709 74.0002 58.7439 68.7993 58.7439 68.7993Z" fill="url(#paint0_linear)"/>
<path d="M19.4021 29.5728C20.0719 29.2485 20.9978 29.0522 22.2564 29.0522C27.5341 29.0522 29.7399 35.0809 30.1623 36.4078L30.3842 42.398V47.8378C28.6648 37.5811 23.0628 30.2341 19.4021 29.5728Z" fill="url(#paint1_linear)"/>
<path d="M22.2563 29.0522C28.1868 29.0522 30.2433 36.6765 30.2433 36.6765L30.5249 48.0469C30.5249 48.0469 28.942 42.6966 28.75 38.5496C28.5068 33.3102 24.8035 29.1546 20.8484 29.1504C21.2622 29.0864 21.7316 29.0522 22.2563 29.0522Z" fill="url(#paint2_linear)"/>
<path d="M38.832 15.8045C38.832 20.1606 38.832 32.4184 38.832 32.4184C38.832 32.4184 40.0821 31.2323 41.7673 30.8441C40.9311 31.1257 39.3312 33.0627 38.657 34.1122C37.9317 35.2429 37.4624 32.9816 37.4624 29.995C37.4624 27.0084 37.2192 15.493 37.2192 10.8383C37.2192 8.05647 36.1355 6 34.4758 6C39.1946 6.00427 38.832 11.4484 38.832 15.8045Z" fill="url(#paint3_linear)"/>
<path d="M50.2789 31.9919C49.0757 31.9962 48.6704 33.5108 46.9382 33.5108C45.206 33.5108 44.1479 30.729 42.7783 30.729C44.95 30.729 45.6198 32.6361 46.9126 32.6361C48.1286 32.6361 48.5467 31.7615 50.2789 31.9919Z" fill="url(#paint4_linear)"/>
<path d="M57.6473 65.4709C57.2249 58.2733 51.7808 63.4059 57.5876 55.6707C60.907 51.2506 60.0664 42.9649 59.7038 39.701C59.3411 36.4329 56.5594 35.7673 54.6223 35.2852C52.9413 34.8628 52.3099 32.6954 50.9531 32.1279C53.2443 32.7295 53.6282 34.4319 55.9322 34.3551C58.3513 34.274 61.6579 36.211 61.6579 45.6486C61.6579 55.0862 58.9956 57.5053 58.9956 59.5191C58.9956 61.5329 58.7438 65.8165 58.7438 68.7988C58.7438 68.7988 58.0996 70.5908 55.3178 72.0713C55.8298 70.3561 57.8009 68.0735 57.6473 65.4709Z" fill="url(#paint5_linear)"/>
<path d="M34.962 60.8126C28.5792 58.355 26.335 53.4229 24.8972 48.4438C27.7814 56.2687 35.3844 58.8201 36.4723 60.4499C37.475 61.956 38.2259 66.551 35.5806 71.2954C34.8383 70.5317 34.7401 69.9088 34.7401 69.9088C36.2804 61.2136 34.962 60.8126 34.962 60.8126Z" fill="url(#paint6_linear)"/>
<path d="M46.4435 73.9913C45.5817 68.6282 49.5154 63.6449 49.5154 55.4361C49.5154 46.4252 55.3862 41.6978 52.1479 32.6016C53.479 33.3439 54.0977 34.4148 55.9323 34.3508C58.3514 34.2698 61.658 36.2068 61.658 45.6444C61.658 55.082 58.9957 57.5011 58.9957 59.5149C58.9957 61.5287 58.7439 65.8123 58.7439 68.7946C58.7439 68.7989 56.9477 73.7822 46.4435 73.9913Z" fill="url(#paint7_linear)"/>
<path opacity="0.5" d="M37.1339 35.4052C39.6768 35.4052 41.1274 34.5562 43.1839 34.5562C45.2403 34.5562 51.8961 35.802 51.8961 40.2435C51.8961 44.6849 48.2653 53.6959 44.2718 54.835C40.2784 55.9742 33.1788 50.5173 32.5772 46.8822C31.9714 43.2514 33.1404 35.4052 37.1339 35.4052Z" fill="url(#paint8_radial)"/>
<path d="M30.5632 48.35C30.5632 48.35 30.239 36.762 30.239 36.681L29.9958 35.9429C29.8294 35.9429 29.7739 36.4463 29.7739 36.617C29.7739 36.9455 29.5094 45.0349 30.5632 48.35Z" fill="#975500"/>
<path opacity="0.5" d="M34.0234 9.61377C35.4399 9.61377 36.6559 12.9545 35.7428 19.5292C34.8298 26.104 37.9572 34.2018 34.4714 34.2018C30.9856 34.2018 32.7051 21.1505 32.7051 19.1239C32.7093 17.1016 31.1904 9.61377 34.0234 9.61377Z" fill="url(#paint9_radial)"/>
<defs>
<linearGradient id="paint0_linear" x1="79.013" y1="45.601" x2="23.9173" y2="37.8604" gradientUnits="userSpaceOnUse">
<stop offset="0.00132565" stop-color="#F0C492"/>
<stop offset="1" stop-color="#F8DBBA"/>
</linearGradient>
<linearGradient id="paint1_linear" x1="16.6079" y1="40.6522" x2="45.9011" y2="33.5945" gradientUnits="userSpaceOnUse">
<stop stop-color="#FFBC47" stop-opacity="0"/>
<stop offset="1" stop-color="#C86F34"/>
</linearGradient>
<linearGradient id="paint2_linear" x1="18.8707" y1="40.8185" x2="36.2746" y2="35.1521" gradientUnits="userSpaceOnUse">
<stop stop-color="#FFBC47" stop-opacity="0"/>
<stop offset="1" stop-color="#C86F34"/>
</linearGradient>
<linearGradient id="paint3_linear" x1="27.1791" y1="17.2019" x2="58.5974" y2="27.0675" gradientUnits="userSpaceOnUse">
<stop stop-color="#FFBC47" stop-opacity="0"/>
<stop offset="1" stop-color="#C86F34"/>
</linearGradient>
<linearGradient id="paint4_linear" x1="46.5288" y1="29.4377" x2="46.5288" y2="38.1494" gradientUnits="userSpaceOnUse">
<stop stop-color="#FFBC47" stop-opacity="0"/>
<stop offset="1" stop-color="#E68E43"/>
</linearGradient>
<linearGradient id="paint5_linear" x1="45.8335" y1="50.9606" x2="85.7514" y2="57.1835" gradientUnits="userSpaceOnUse">
<stop stop-color="#FFBC47" stop-opacity="0"/>
<stop offset="1" stop-color="#C86F34"/>
</linearGradient>
<linearGradient id="paint6_linear" x1="36.7697" y1="51.9736" x2="16.4314" y2="76.5616" gradientUnits="userSpaceOnUse">
<stop stop-color="#FFBC47" stop-opacity="0"/>
<stop offset="1" stop-color="#C86F34"/>
</linearGradient>
<linearGradient id="paint7_linear" x1="40.5464" y1="51.9986" x2="106.874" y2="61.8641" gradientUnits="userSpaceOnUse">
<stop stop-color="#FFBC47" stop-opacity="0"/>
<stop offset="1" stop-color="#C86F34"/>
</linearGradient>
<radialGradient id="paint8_radial" cx="0" cy="0" r="1" gradientUnits="userSpaceOnUse" gradientTransform="translate(42.2116 39.4154) rotate(180) scale(10.3565 5.25878)">
<stop stop-color="#F8E6D2"/>
<stop offset="1" stop-color="#F8E6D2" stop-opacity="0"/>
</radialGradient>
<radialGradient id="paint9_radial" cx="0" cy="0" r="1" gradientUnits="userSpaceOnUse" gradientTransform="translate(34.2282 21.9045) rotate(91.5881) scale(12.7002 1.48143)">
<stop stop-color="#F8E6D2"/>
<stop offset="1" stop-color="#F8E6D2" stop-opacity="0"/>
</radialGradient>
</defs>
</svg>
