<svg width="80" height="80" viewBox="0 0 80 80" fill="none" xmlns="http://www.w3.org/2000/svg">
<path d="M20.9146 11.1948C20.9146 14.1786 20.6613 18.4632 20.6613 20.4767C20.6613 22.4902 18 24.9073 18 34.348C18 43.7887 21.3052 45.7207 23.7261 45.6434C26.1471 45.5661 26.4432 47.4466 29.0573 47.9574C31.0662 48.3481 31.4568 47.365 32.7445 47.365C34.0366 47.365 34.7019 49.2755 36.8782 49.2755C39.0501 49.2755 40.8272 47.5797 40.8272 47.5797C40.8272 47.5797 40.8272 59.841 40.8272 64.1986C40.8272 68.5562 40.4624 74 45.184 74C49.9057 74 49.3391 68.1913 49.3391 65.1088C49.3391 62.022 49.4207 43.3251 49.4207 43.3251C49.4207 43.3251 51.4768 50.9498 57.4046 50.9498C63.3325 50.9498 62.195 46.8197 59.2203 43.5097C53.975 37.6709 56.9196 23.8898 44.7033 19.1887C44.7033 19.1887 43.3855 18.7852 44.9265 10.0957C44.9265 10.0957 44.2655 6.00001 33.9164 6.00001C22.7861 5.99142 20.9146 11.1948 20.9146 11.1948Z" fill="url(#paint0_linear)"/>
<path d="M60.2549 50.4259C59.5853 50.7522 58.6581 50.9454 57.4004 50.9454C52.125 50.9454 49.9186 44.9177 49.498 43.5911L49.2748 37.6021V32.1626C50.9918 42.4148 56.5934 49.7647 60.2549 50.4259Z" fill="url(#paint1_linear)"/>
<path d="M57.4004 50.9457C51.4725 50.9457 49.4164 43.321 49.4164 43.321L49.1331 31.9482C49.1331 31.9482 50.717 37.2976 50.9059 41.4448C51.1463 46.6826 54.855 50.8427 58.8083 50.847C58.3919 50.9114 57.924 50.9457 57.4004 50.9457Z" fill="url(#paint2_linear)"/>
<path d="M40.8272 64.1949C40.8272 59.8373 40.8272 47.5759 40.8272 47.5759C40.8272 47.5759 39.5781 48.7651 37.8911 49.1472C38.7239 48.8682 40.325 46.9319 41.0032 45.8801C41.7286 44.751 42.1965 47.0135 42.1965 49.9973C42.1965 52.9811 42.4369 64.4997 42.4369 69.1578C42.4369 71.9398 43.5186 73.9963 45.1798 73.9963C40.4623 73.9963 40.8272 68.5525 40.8272 64.1949Z" fill="url(#paint3_linear)"/>
<path d="M29.3793 48.0047C30.5812 48.0004 30.989 46.4893 32.7188 46.4893C34.453 46.4893 35.5089 49.2712 36.8782 49.2712C34.7062 49.2712 34.0366 47.3651 32.7446 47.3608C31.5298 47.3651 31.1135 48.2366 29.3793 48.0047Z" fill="url(#paint4_linear)"/>
<path d="M22.0136 14.5219C22.4385 21.7216 27.8813 16.5869 22.0736 24.3233C18.7556 28.7453 19.5926 37.0269 19.9575 40.294C20.3224 43.5612 23.1038 44.2266 25.0397 44.7118C26.7223 45.1325 27.3533 47.3049 28.7097 47.8673C26.4176 47.2662 26.0355 45.5618 23.7305 45.6391C21.3096 45.7207 18.0045 43.7844 18.0045 34.3437C18.0045 24.9029 20.6657 22.4858 20.6657 20.4723C20.6657 18.4588 20.919 14.1742 20.919 11.1904C20.919 11.1904 21.5628 9.4001 24.3443 7.91895C23.8292 9.63623 21.859 11.9202 22.0136 14.5219Z" fill="url(#paint5_linear)"/>
<path d="M44.699 19.1848C51.0819 21.6405 53.3268 26.5734 54.7605 31.5578C51.8803 23.7313 44.274 21.1811 43.1837 19.5497C42.1793 18.0428 41.4324 13.4448 44.0765 8.70508C44.8191 9.46927 44.9179 10.0918 44.9179 10.0918C43.3769 18.7812 44.699 19.1848 44.699 19.1848Z" fill="url(#paint6_linear)"/>
<path d="M33.2167 6C34.0795 11.3665 30.1433 16.3466 30.1433 24.5552C30.1433 33.5666 24.2713 38.2978 27.512 47.3908C26.1814 46.6481 25.5633 45.579 23.7261 45.6391C21.3052 45.7207 18 43.7845 18 34.3437C18 24.903 20.6613 22.4859 20.6613 20.4724C20.6613 18.4589 20.9146 14.1743 20.9146 11.1905C20.9146 11.1948 22.7088 6.21037 33.2167 6Z" fill="url(#paint7_linear)"/>
<path d="M49.0945 31.6475C49.0945 31.6475 49.4165 43.2391 49.4165 43.3207L49.6568 44.0591C49.8242 44.0591 49.88 43.5525 49.88 43.3851C49.88 43.0502 50.1462 34.9618 49.0945 31.6475Z" fill="#663C1D"/>
<path opacity="0.08" d="M45.6305 70.3899C44.214 70.3899 42.9992 67.0498 43.9092 60.4726C44.8192 53.8954 41.6943 45.7983 45.1798 45.7983C48.6653 45.7983 46.944 58.854 46.944 60.8761C46.944 62.8982 48.4636 70.3899 45.6305 70.3899Z" fill="url(#paint8_radial)"/>
<path opacity="0.16" d="M28.1989 13.1822C30.7401 13.1822 32.1909 12.3364 34.247 12.3364C36.3031 12.3364 42.9564 13.5815 42.9564 18.0249C42.9564 22.4641 39.3249 31.4798 35.333 32.6175C31.341 33.7552 24.2413 28.2986 23.6361 24.6622C23.0394 21.0259 24.207 13.1822 28.1989 13.1822Z" fill="url(#paint9_radial)"/>
<defs>
<linearGradient id="paint0_linear" x1="0.647854" y1="34.397" x2="55.7403" y2="42.136" gradientUnits="userSpaceOnUse">
<stop offset="0.00132565" stop-color="#99643E"/>
<stop offset="1" stop-color="#AE7246"/>
</linearGradient>
<linearGradient id="paint1_linear" x1="69.7346" y1="37.8075" x2="33.7648" y2="46.3051" gradientUnits="userSpaceOnUse">
<stop offset="0.00132565" stop-color="#99643E"/>
<stop offset="1" stop-color="#AE7246"/>
</linearGradient>
<linearGradient id="paint2_linear" x1="48.2405" y1="42.9442" x2="65.1377" y2="38.3919" gradientUnits="userSpaceOnUse">
<stop offset="0.00132565" stop-color="#99643E"/>
<stop offset="1" stop-color="#AE7246"/>
</linearGradient>
<linearGradient id="paint3_linear" x1="47.7235" y1="60.0559" x2="18.1788" y2="58.3361" gradientUnits="userSpaceOnUse">
<stop offset="0.00132565" stop-color="#99643E"/>
<stop offset="0.1343" stop-color="#9C663F"/>
<stop offset="1" stop-color="#AE7246"/>
</linearGradient>
<linearGradient id="paint4_linear" x1="86.4824" y1="-1999.1" x2="87.2921" y2="-2030.16" gradientUnits="userSpaceOnUse">
<stop offset="0.00132565" stop-color="#99643E"/>
<stop offset="1" stop-color="#AE7246"/>
</linearGradient>
<linearGradient id="paint5_linear" x1="56.9806" y1="30.2849" x2="13.0693" y2="26.8454" gradientUnits="userSpaceOnUse">
<stop stop-color="#8D562E" stop-opacity="0"/>
<stop offset="1" stop-color="#8D562E"/>
</linearGradient>
<linearGradient id="paint6_linear" x1="38.6451" y1="21.8845" x2="80.5337" y2="15.0561" gradientUnits="userSpaceOnUse">
<stop offset="0.00132565" stop-color="#99643E"/>
<stop offset="1" stop-color="#AE7246"/>
</linearGradient>
<linearGradient id="paint7_linear" x1="34.6257" y1="22.0946" x2="-0.301308" y2="44.3458" gradientUnits="userSpaceOnUse">
<stop stop-color="#8D562E" stop-opacity="0"/>
<stop offset="1" stop-color="#8D562E"/>
</linearGradient>
<radialGradient id="paint8_radial" cx="0" cy="0" r="1" gradientUnits="userSpaceOnUse" gradientTransform="translate(45.4293 58.0821) rotate(-88.412) scale(12.7018 1.48129)">
<stop stop-color="#F8DBBA"/>
<stop offset="1" stop-color="#CD9870" stop-opacity="0"/>
</radialGradient>
<radialGradient id="paint9_radial" cx="0" cy="0" r="1" gradientUnits="userSpaceOnUse" gradientTransform="translate(33.2988 17.1828) rotate(180) scale(10.3552 5.25714)">
<stop stop-color="#F8DBBA"/>
<stop offset="1" stop-color="#CD9870" stop-opacity="0"/>
</radialGradient>
</defs>
</svg>
