<svg width="24" height="24" viewBox="0 0 24 24" fill="none" xmlns="http://www.w3.org/2000/svg">
<path d="M11.5428 20.3201L9.8399 16.7886L11.3713 13.0515L8.88562 9.28578L11.3999 5.70293C10.4913 4.49721 9.0399 3.71436 7.41133 3.71436C4.64562 3.71436 2.3999 5.96007 2.3999 8.72578C2.3999 14.8286 11.5428 20.3201 11.5428 20.3201Z" fill="url(#paint0_radial)"/>
<path opacity="0.32" d="M11.5426 20.32L9.83977 16.7886L9.90263 16.6286C8.4112 16.2514 6.74263 15.4 4.54834 14.1543C7.2512 17.7429 11.5426 20.32 11.5426 20.32Z" fill="url(#paint1_linear)"/>
<path opacity="0.32" d="M10.3941 17.9429C9.68553 18.0172 8.94267 17.9944 8.16553 17.8687C9.98839 19.3886 11.5427 20.3258 11.5427 20.3258L10.3941 17.9429Z" fill="url(#paint2_linear)"/>
<path opacity="0.5" d="M11.5428 20.3201L9.8399 16.7886L11.3713 13.0515L8.88562 9.28578L11.3999 5.70293C10.4913 4.49721 9.0399 3.71436 7.41133 3.71436C4.64562 3.71436 2.3999 5.96007 2.3999 8.72578C2.3999 14.8286 11.5428 20.3201 11.5428 20.3201Z" fill="url(#paint3_radial)"/>
<path opacity="0.5" d="M11.5428 20.3201L9.8399 16.7886L11.3713 13.0515L8.88562 9.28578L11.3999 5.70293C10.4913 4.49721 9.0399 3.71436 7.41133 3.71436C4.64562 3.71436 2.3999 5.96007 2.3999 8.72578C2.3999 14.8286 11.5428 20.3201 11.5428 20.3201Z" fill="url(#paint4_radial)"/>
<path opacity="0.24" d="M10.2913 5.74883C10.7941 6.93169 9.67986 8.5374 7.79986 9.33169C5.91986 10.126 3.99415 9.8174 3.49129 8.64026C2.98844 7.46312 4.10272 5.85169 5.98272 5.0574C7.86272 4.26312 9.78843 4.56597 10.2913 5.74883Z" fill="url(#paint5_radial)"/>
<path d="M11.4055 5.70264L9.77121 9.26835L8.8855 9.28549L11.4055 5.70264Z" fill="url(#paint6_radial)"/>
<path d="M9.77121 9.26855L11.8569 13.0286L11.3769 13.0514L8.8855 9.2857L9.77121 9.26855Z" fill="url(#paint7_radial)"/>
<path d="M11.857 13.0288L10.657 16.8117L9.83984 16.7888L11.377 13.0517L11.857 13.0288Z" fill="url(#paint8_radial)"/>
<path d="M10.657 16.8114L9.83984 16.7886L11.5427 20.32L10.657 16.8114Z" fill="url(#paint9_radial)"/>
<path d="M16.5314 3.71436C15.5656 3.71436 14.6628 3.98864 13.9028 4.46293C13.8628 4.4915 13.8171 4.51436 13.7771 4.54293C13.3999 4.78864 13.0628 5.08578 12.7656 5.42293C12.6342 5.5715 12.5142 5.7315 12.3999 5.8915L10.8914 9.28007L13.6628 13.0458L11.5599 16.7829L12.4056 20.3144C12.4056 20.3144 21.5485 14.8229 21.5485 8.71436C21.5428 5.96007 19.2971 3.71436 16.5314 3.71436Z" fill="url(#paint10_radial)"/>
<path opacity="0.24" d="M17.2744 4.79422C17.9886 5.58279 17.5486 7.14279 16.2972 8.27422C15.0458 9.40565 13.4515 9.68565 12.7372 8.89708C12.0229 8.10851 12.4572 6.54851 13.7144 5.41708C14.9715 4.28565 16.5601 4.00565 17.2744 4.79422Z" fill="url(#paint11_radial)"/>
<path opacity="0.5" d="M18.6056 4.16016C21.3485 8.53158 18.8228 14.2687 15.7885 15.8973C14.2685 16.7144 12.9656 16.983 11.5542 16.7887L12.3999 20.3202C12.3999 20.3202 21.5428 14.8287 21.5428 8.72016C21.5428 6.6973 20.3371 4.94873 18.6056 4.16016Z" fill="url(#paint12_radial)"/>
<path opacity="0.5" d="M16.5314 3.71436C14.8171 3.71436 13.3028 4.57721 12.3999 5.8915L10.8914 9.28007L12.7371 11.7886L13.6628 13.0458L11.5599 16.7829L11.9828 18.5486L12.4056 20.3144C12.4056 20.3144 21.5485 14.8229 21.5485 8.71436C21.5428 5.96007 19.2971 3.71436 16.5314 3.71436Z" fill="url(#paint13_radial)"/>
<path opacity="0.5" d="M16.5314 3.71436C15.5656 3.71436 14.6628 3.98864 13.9028 4.46293C13.8628 4.4915 13.8171 4.51436 13.7771 4.54293C13.3999 4.78864 13.0628 5.08578 12.7656 5.42293C12.6342 5.5715 12.5142 5.7315 12.3999 5.8915L10.8914 9.28007L13.6628 13.0458L11.5599 16.7829L12.4056 20.3144C12.4056 20.3144 21.5485 14.8229 21.5485 8.71436C21.5428 5.96007 19.2971 3.71436 16.5314 3.71436Z" fill="url(#paint14_radial)"/>
<path opacity="0.5" d="M16.5313 3.71436C15.5655 3.71436 14.6627 3.98864 13.9027 4.46293C13.8627 4.4915 13.817 4.51436 13.777 4.54293C13.4227 4.77721 13.1027 5.0515 12.8227 5.36578C12.6741 5.5315 12.5313 5.70864 12.4055 5.89721L10.897 9.28578L13.6684 13.0515L11.5655 16.7886L12.4113 20.3201C12.4113 20.3201 21.5541 14.8286 21.5541 8.72007C21.5427 5.96007 19.297 3.71436 16.5313 3.71436Z" fill="url(#paint15_radial)"/>
<path opacity="0.32" d="M16.5313 3.71436C14.817 3.71436 13.3027 4.57721 12.3999 5.8915C12.3999 5.8915 14.7827 4.4115 16.6227 5.04007C19.137 5.89721 21.537 9.6115 17.4798 14.2401C15.7598 16.2001 13.9313 17.4744 11.8113 17.8572L12.3999 20.3201C12.3999 20.3201 21.5427 14.8286 21.5427 8.72007C21.5427 5.96007 19.297 3.71436 16.5313 3.71436Z" fill="url(#paint16_linear)"/>
<defs>
<radialGradient id="paint0_radial" cx="0" cy="0" r="1" gradientUnits="userSpaceOnUse" gradientTransform="translate(5.6637 8.34752) rotate(-29.408) scale(11.372 9.02091)">
<stop offset="0.2479" stop-color="#FF0000"/>
<stop offset="0.8639" stop-color="#C20000"/>
</radialGradient>
<linearGradient id="paint1_linear" x1="4.63165" y1="17.2403" x2="19.4318" y2="17.2403" gradientUnits="userSpaceOnUse">
<stop stop-color="#860805"/>
<stop offset="1" stop-color="#BD2719" stop-opacity="0"/>
</linearGradient>
<linearGradient id="paint2_linear" x1="7.7289" y1="27.3615" x2="16.986" y2="-8.63841" gradientUnits="userSpaceOnUse">
<stop stop-color="#860805"/>
<stop offset="1" stop-color="#BD2719" stop-opacity="0"/>
</linearGradient>
<radialGradient id="paint3_radial" cx="0" cy="0" r="1" gradientUnits="userSpaceOnUse" gradientTransform="translate(8.9236 8.30764) scale(15.2212)">
<stop stop-color="white" stop-opacity="0.25"/>
<stop offset="1" stop-color="white" stop-opacity="0"/>
</radialGradient>
<radialGradient id="paint4_radial" cx="0" cy="0" r="1" gradientUnits="userSpaceOnUse" gradientTransform="translate(14.045 13.9186) rotate(-26.9289) scale(8.10629 4.00511)">
<stop stop-color="#BD2719" stop-opacity="0.25"/>
<stop offset="1" stop-color="#BD2719" stop-opacity="0"/>
</radialGradient>
<radialGradient id="paint5_radial" cx="0" cy="0" r="1" gradientUnits="userSpaceOnUse" gradientTransform="translate(6.89018 7.19453) rotate(-21.6908) scale(3.71252 2.30616)">
<stop stop-color="white"/>
<stop offset="1" stop-color="white" stop-opacity="0"/>
</radialGradient>
<radialGradient id="paint6_radial" cx="0" cy="0" r="1" gradientUnits="userSpaceOnUse" gradientTransform="translate(5.50676 10.3705) scale(8.71659)">
<stop stop-color="#4F0940"/>
<stop offset="0.8639" stop-color="#C20000"/>
</radialGradient>
<radialGradient id="paint7_radial" cx="0" cy="0" r="1" gradientUnits="userSpaceOnUse" gradientTransform="translate(12.8497 8.52253) scale(4.67784)">
<stop stop-color="#FF0000"/>
<stop offset="0.8639" stop-color="#BD2719"/>
</radialGradient>
<radialGradient id="paint8_radial" cx="0" cy="0" r="1" gradientUnits="userSpaceOnUse" gradientTransform="translate(11.4782 11.0281) scale(7.25529)">
<stop stop-color="#4F0940"/>
<stop offset="0.8639" stop-color="#C20000"/>
</radialGradient>
<radialGradient id="paint9_radial" cx="0" cy="0" r="1" gradientUnits="userSpaceOnUse" gradientTransform="translate(7.90682 13.4564) scale(7.86561)">
<stop stop-color="#4F0940"/>
<stop offset="1" stop-color="#C20000"/>
</radialGradient>
<radialGradient id="paint10_radial" cx="0" cy="0" r="1" gradientUnits="userSpaceOnUse" gradientTransform="translate(10.2713 9.38791) rotate(-26.7444) scale(13.5926 10.7822)">
<stop offset="0.2479" stop-color="#FF0000"/>
<stop offset="0.8639" stop-color="#C20000"/>
</radialGradient>
<radialGradient id="paint11_radial" cx="0" cy="0" r="1" gradientUnits="userSpaceOnUse" gradientTransform="translate(14.9982 6.84844) rotate(-40.7635) scale(3.07376 1.9095)">
<stop stop-color="white"/>
<stop offset="1" stop-color="white" stop-opacity="0"/>
</radialGradient>
<radialGradient id="paint12_radial" cx="0" cy="0" r="1" gradientUnits="userSpaceOnUse" gradientTransform="translate(9.26012 8.18818) rotate(-41.1401) scale(13.8097 9.76273)">
<stop offset="0.2479" stop-color="#FF0000"/>
<stop offset="1" stop-color="#C20000"/>
</radialGradient>
<radialGradient id="paint13_radial" cx="0" cy="0" r="1" gradientUnits="userSpaceOnUse" gradientTransform="translate(9.37755 7.66233) rotate(-29.408) scale(11.7607 4.89714)">
<stop stop-color="white" stop-opacity="0.25"/>
<stop offset="1" stop-color="white" stop-opacity="0"/>
</radialGradient>
<radialGradient id="paint14_radial" cx="0" cy="0" r="1" gradientUnits="userSpaceOnUse" gradientTransform="translate(15.2023 13.0334) rotate(-26.296) scale(8.69907 4.29857)">
<stop stop-color="#BD2719" stop-opacity="0.25"/>
<stop offset="1" stop-color="#BD2719" stop-opacity="0"/>
</radialGradient>
<radialGradient id="paint15_radial" cx="0" cy="0" r="1" gradientUnits="userSpaceOnUse" gradientTransform="translate(16.0593 13.2905) rotate(-26.296) scale(8.69907 4.29857)">
<stop stop-color="#BD2719" stop-opacity="0.25"/>
<stop offset="1" stop-color="#BD2719" stop-opacity="0"/>
</radialGradient>
<linearGradient id="paint16_linear" x1="16.2986" y1="26.9496" x2="16.9842" y2="2.26515" gradientUnits="userSpaceOnUse">
<stop stop-color="#860805"/>
<stop offset="1" stop-color="#BD2719" stop-opacity="0"/>
</linearGradient>
</defs>
</svg>
