<svg width="80" height="80" viewBox="0 0 80 80" fill="none" xmlns="http://www.w3.org/2000/svg">
<path d="M59.4182 46.1997C59.6293 50.2509 66.4859 55.129 69.1248 56.9721C72.4366 59.2858 58.4682 74.0126 56.5154 71.9188C55.13 70.4321 46.4922 64.1156 45.9292 63.6493" fill="url(#paint0_linear)"/>
<path d="M39.7016 21.9848C37.1375 21.0435 34.0368 24.866 38.6988 30.0168C39.2882 30.615 39.9567 31.2045 40.7307 31.7763C42.6219 33.1663 46.1184 36.4301 46.1184 36.4301C45.8633 36.914 38.193 30.052 36.0687 27.8835L31.3584 32.3877C32.3391 33.0915 34.2787 34.6442 34.0236 34.9961C33.7729 35.348 33.3463 34.3583 32.5107 33.7601C31.675 33.1663 31.2528 41.0531 31.1517 41.4666C31.0769 41.7745 29.7575 41.8977 29.0802 44.2422C28.8559 45.0251 29.432 48.8432 29.322 48.9972C29.322 48.9972 26.5776 45.7949 25.0075 44.6557C23.4418 43.5164 23.8552 52.7624 25.5969 53.9589C28.4336 55.9119 37.3926 65.677 45.1024 64.375C54.0218 62.8662 60.7113 52.1642 59.5546 45.333C58.4023 38.5063 52.3901 33.5006 47.7897 29.9552C43.9062 26.9465 41.7687 23.3088 39.7016 21.9848Z" fill="url(#paint1_linear)"/>
<path d="M25.0119 44.6557C23.4462 43.5164 19.5935 40.0326 17.2009 38.4623C14.8083 36.8963 12.8644 37.1031 11.7165 39.1925C10.5686 41.2818 14.7907 44.3566 15.7627 45.1615C17.2537 46.3932 23.842 52.6085 25.5969 53.9545" fill="url(#paint2_linear)"/>
<path d="M31.1561 41.4666C30.8878 41.8668 29.7795 40.1865 27.1318 38.1367C25.1131 36.5708 19.7122 32.1589 16.7831 29.9419C13.1459 27.1884 11.6461 27.0872 10.098 28.6531C8.54986 30.2191 9.99683 32.6867 12.341 34.5606C14.3202 36.1441 17.5572 38.5062 21.6518 41.4006C24.1059 43.1337 29.7619 48.3901 29.3265 49.0015" fill="url(#paint3_linear)"/>
<path d="M36.073 27.8793C33.9487 25.7107 25.4076 19.1787 23.3273 17.2257C21.247 15.2726 19.1184 15.7345 17.8693 17.0893C16.6202 18.4441 16.7654 20.3091 21.0359 23.9996C23.7276 26.3266 26.2697 28.5655 31.3627 32.3792L37.2649 31.6842L36.073 27.8793Z" fill="url(#paint4_linear)"/>
<path d="M32.5149 33.7601C31.6792 33.1662 24.0793 26.731 22.3728 25.363C18.806 22.5038 14.0296 17.5729 11.1137 20.4848C9.23572 22.3587 10.7619 24.3557 11.5183 25.1343C12.2748 25.9128 21.8231 33.4961 22.7247 34.1384C23.6263 34.7806 31.257 41.0575 31.1559 41.471" fill="url(#paint5_linear)"/>
<path d="M17.3284 19.5043C17.711 20.6744 18.9073 22.1611 21.0404 24.0041C23.732 26.331 26.3005 28.5392 31.3671 32.3836C32.3259 33.1138 34.2875 34.6401 34.0324 34.992C34.3182 32.1461 26.0454 27.2855 22.6809 24.576C19.0964 21.6948 17.0425 18.6246 17.3284 19.5043Z" fill="url(#paint6_linear)"/>
<path d="M22.7249 34.134C23.6265 34.7762 31.2572 41.0532 31.156 41.4666C31.156 41.4666 30.813 39.1661 28.2005 37.3099C22.848 33.505 17.346 29.1899 14.7335 26.5199C12.275 24.0039 10.2739 23.1725 10.5114 23.7048C10.7489 24.237 11.2326 24.8352 11.5185 25.1343C12.2706 25.9085 21.8233 33.4918 22.7249 34.134Z" fill="url(#paint7_linear)"/>
<path d="M12.3411 34.5566C14.3202 36.1401 17.5572 38.5022 21.6519 41.3966C24.106 43.1296 29.762 48.3861 29.3265 48.9975C31.8554 46.0196 11.0217 33.998 9.46473 29.9688C9.32839 31.4115 10.5818 33.149 12.3411 34.5566Z" fill="url(#paint8_linear)"/>
<path d="M28.803 49.5955C29.0625 49.4371 29.3 49.1468 29.3264 48.9973C29.3264 48.9973 26.45 45.7026 25.0118 44.6558C23.4461 43.5165 19.5934 40.0328 17.2008 38.4625C16.1497 37.7763 15.1865 37.4287 14.3376 37.4331C15.6131 38.071 15.0809 38.3965 17.9573 40.1999C19.4966 41.1632 27.1053 50.6159 28.803 49.5955Z" fill="url(#paint9_linear)"/>
<path d="M22.716 35.5639C25.2405 37.3453 29.643 42.8304 31.1559 41.4669C30.7161 41.7044 29.19 39.7338 27.1317 38.1371C25.113 36.5712 19.7517 32.1065 16.783 29.9424C13.7175 27.7079 12.5432 27.2944 11.0654 27.9058C15.789 28.6184 16.5147 31.1872 22.716 35.5639Z" fill="url(#paint10_linear)"/>
<path d="M23.046 27.3163C26.7008 30.1535 33.1132 35.7838 34.0281 34.992C33.6674 35.1724 33.2628 34.2883 32.5151 33.756C31.6795 33.1622 24.0795 26.7269 22.3731 25.3589C20.1608 23.5862 16.9238 20.4455 14.2014 19.7285C17.091 21.3121 20.0861 25.0202 23.046 27.3163Z" fill="url(#paint11_linear)"/>
<path d="M29.3264 48.9973C29.3264 48.9973 26.45 45.7027 25.0118 44.6558C23.4461 43.5165 19.5934 40.0328 17.2008 38.4625C16.1497 37.7763 15.1865 37.4287 14.3376 37.4331C15.6131 38.071 18.0057 39.3906 22.2762 43.0195C29.7046 49.5075 29.3 49.1468 29.3264 48.9973Z" fill="url(#paint12_linear)"/>
<path d="M39.7015 21.9848C39.2661 21.8264 38.7999 21.866 38.3513 22.0464C40.1237 22.7413 41.9885 24.1753 42.8549 27.4348C43.9501 31.5607 52.3372 34.4595 54.6946 38.6778C57.2103 43.1821 56.1812 50.154 53.0629 52.8328C49.9491 55.5116 46.8924 65.4879 31.9388 57.3283C31.9344 57.3283 31.93 57.3239 31.93 57.3239C30.9977 56.7125 28.2181 54.6143 27.4396 54.0469C23.3669 51.0866 18.0584 45.2539 15.3844 42.8478C14.8566 42.3771 13.3877 40.5121 11.9275 41.3082C12.8555 42.9622 15.0853 44.6117 15.7582 45.1659C17.2492 46.3975 24.9811 53.5322 25.2625 53.7258C27.3736 55.1905 37.4453 65.655 45.1024 64.3706C54.0261 62.8751 60.7112 52.1598 59.5545 45.3286C58.4022 38.5019 52.39 33.4962 47.7896 29.9508C43.9061 26.9465 41.7686 23.3088 39.7015 21.9848Z" fill="url(#paint13_linear)"/>
<path d="M69.1247 56.972C66.7321 55.3005 60.8914 51.1393 59.6599 47.3565C59.6863 46.6571 59.6687 45.9709 59.5588 45.3287C58.4065 38.5019 52.3943 33.4962 47.7939 29.9508C43.9016 26.9465 41.7685 23.3088 39.7014 21.9804C37.1373 21.0391 34.0366 24.8615 38.6986 30.0124C39.2879 30.6106 39.9565 31.2001 40.7305 31.7719C42.6217 33.1619 46.1182 36.4213 46.1182 36.4213C45.8631 36.9051 38.1928 30.0432 36.0685 27.8746C33.9443 25.7061 25.4031 19.174 23.3228 17.221C21.2425 15.2724 19.1139 15.7299 17.8648 17.0846C16.6157 18.4394 16.7609 20.3045 21.0314 23.995C23.7231 26.3219 26.2652 28.5608 31.3582 32.3745C32.3389 33.0783 34.2785 34.631 34.0234 34.9829C33.7727 35.3392 33.3461 34.3451 32.5105 33.7469C31.6748 33.1531 24.0749 26.7178 22.3685 25.3498C18.8016 22.4906 14.0253 17.5597 11.1093 20.4716C9.23132 22.3455 10.7575 24.3425 11.5139 25.1211C12.2704 25.8996 21.8187 33.483 22.7203 34.1252C23.6219 34.7674 31.2526 41.0443 31.1515 41.4578C30.8832 41.8581 29.7749 40.1778 27.1272 38.128C25.1085 36.5621 19.7076 32.1502 16.7785 29.9332C13.1412 27.1796 11.6415 27.0785 10.0934 28.6444C8.54522 30.2103 9.9922 32.678 12.3364 34.5518C14.3199 36.1354 17.5525 38.4975 21.6472 41.3918C23.9474 43.0149 29.058 47.7347 29.335 48.8256C29.335 48.83 29.335 48.83 29.335 48.8344C29.3526 48.9048 29.3482 48.9576 29.3218 48.9972C29.3218 48.9972 26.5774 45.7949 25.0073 44.6557C23.4416 43.5164 19.5889 40.0326 17.1963 38.4623C14.8037 36.8964 12.8598 37.1031 11.7119 39.1925C10.5639 41.2819 14.7861 44.3565 15.7581 45.1615C17.2491 46.3931 23.8374 52.6085 25.5923 53.9545C28.429 55.9075 37.388 65.6726 45.0978 64.3706C45.5552 64.2914 46.0038 64.1771 46.4481 64.0539C48.4536 65.5627 55.2882 70.6079 56.5065 71.9188C58.4681 74.0125 72.4364 59.2857 69.1247 56.972Z" fill="url(#paint14_linear)"/>
<path d="M31.332 50.7788C31.3144 50.7964 30.3116 49.8419 30.0917 49.6263C29.9773 49.512 21.1811 39.7776 19.6946 38.6604C19.6946 38.6604 19.8397 38.7747 19.8925 38.678C19.9321 38.5988 19.8045 38.4536 19.8045 38.4536C21.1767 39.4829 26.7667 44.1192 30.3688 48.9709C30.725 49.4548 31.4243 50.6864 31.332 50.7788Z" fill="#975500"/>
<path d="M33.874 43.411C33.2583 43.7365 21.6473 31.1914 18.8501 29.0053C18.8501 29.0053 19.1272 29.1328 19.2283 29.0009C19.3163 28.8733 19.1536 28.6006 19.1536 28.6006C21.9815 30.8131 34.1027 42.9931 33.874 43.411Z" fill="#975500"/>
<path d="M37.3617 37.1954C37.1813 37.301 36.6096 36.6896 36.504 36.5708C34.4897 34.3099 32.1983 32.2161 29.5682 29.5989C27.4219 27.4655 25.3592 25.3278 24.0266 23.8542C24.0266 23.8542 24.1849 24.0214 24.2641 23.9686C24.3829 23.8586 24.1673 23.6431 24.1673 23.6431C25.4868 25.1078 27.8442 27.0521 29.9816 29.1766C32.6205 31.8026 34.802 33.914 36.8251 36.1881C36.9306 36.3113 37.4716 37.0854 37.3617 37.1954Z" fill="#975500"/>
<path d="M63.8868 48.2539C63.7153 52.3315 70.1233 57.8651 72.5907 59.9589C75.6913 62.5893 60.3068 76.023 58.5519 73.74C57.3073 72.1169 49.2499 64.9778 48.7266 64.4588" fill="url(#paint15_linear)"/>
<path d="M58.5519 73.7397C59.1105 74.4698 61.0589 73.5945 63.3547 71.9846C60.4607 71.659 54.7872 65.668 54.1406 64.1241C53.6041 62.8352 51.0883 61.8543 48.8189 61.542L48.731 64.4584C49.2499 64.9774 57.3073 72.1165 58.5519 73.7397Z" fill="url(#paint16_linear)"/>
<path d="M58.5519 73.7398C57.3073 72.1167 49.2499 64.9776 48.7266 64.4585C55.2358 65.3427 61.4767 56.9543 63.2183 51.7287C63.4646 50.9941 63.7109 50.4442 63.9704 50.022C64.3926 52.7448 70.5192 58.208 72.5907 59.963C75.6913 62.5891 60.3068 76.0227 58.5519 73.7398Z" fill="url(#paint17_linear)"/>
<path d="M46.4217 22.134C43.9412 20.9507 40.4755 24.4829 44.6625 30.0824C45.1946 30.7334 45.8104 31.3932 46.5317 32.0354C48.2909 33.6058 51.4883 37.2039 51.4883 37.2039C51.1892 37.6658 44.1523 30.0692 42.2259 27.6939L37.0801 31.7627C37.9949 32.5589 39.7894 34.2964 39.5035 34.6307C39.2176 34.9606 38.8878 33.9269 38.1049 33.2495C37.322 32.5765 36.1565 40.4369 36.0158 40.8416C35.9102 41.1451 34.5776 41.1407 33.6804 43.4237C33.3813 44.1846 33.5968 48.0687 33.4737 48.2094C33.4737 48.2094 31.024 44.7433 29.5638 43.4545C28.0992 42.1656 27.6462 51.4645 29.2735 52.8281C31.9344 55.0494 39.9873 65.6767 47.8291 65.1004C56.9068 64.4318 64.6167 54.3412 64.1021 47.3913C63.5919 40.4414 58.0415 34.8638 53.7709 30.8742C50.1645 27.5048 48.3701 23.6603 46.4217 22.134Z" fill="url(#paint18_linear)"/>
<path d="M29.5683 43.4547C28.1037 42.1659 24.5765 38.3127 22.329 36.5136C20.0816 34.7146 18.1113 34.7409 16.7654 36.7291C15.4196 38.7129 19.3559 42.1923 20.2575 43.0896C21.6341 44.4664 27.6507 51.3108 29.278 52.8239" fill="url(#paint19_linear)"/>
<path d="M36.0246 40.842C35.7167 41.2159 34.7623 39.43 32.3082 37.1251C30.4302 35.3656 25.4428 30.4391 22.7159 27.9362C19.3338 24.8352 17.8384 24.5932 16.1408 26.014C14.4431 27.4348 15.657 30.0476 17.8296 32.1458C19.6637 33.9185 22.6808 36.5929 26.5115 39.8743C28.8073 41.8405 33.9751 47.6424 33.4825 48.2142" fill="url(#paint20_linear)"/>
<path d="M42.2306 27.6986C40.3042 25.3233 32.37 17.9776 30.47 15.8266C28.5701 13.6757 26.3974 13.9352 25.0164 15.1756C23.6354 16.416 23.6046 18.2987 27.5321 22.3982C30.0082 24.9846 32.3436 27.4655 37.0848 31.7674L43.0618 31.631L42.2306 27.6986Z" fill="url(#paint21_linear)"/>
<path d="M38.1138 33.25C37.331 32.577 30.3248 25.4115 28.7503 23.8808C25.4473 20.6785 21.1284 15.2902 17.931 17.9294C15.8727 19.6272 17.2141 21.7694 17.8958 22.6228C18.5775 23.4761 27.4309 31.9744 28.2709 32.7001C29.1109 33.4259 36.1611 40.4374 36.0247 40.8421" fill="url(#paint22_linear)"/>
<path d="M24.2422 17.5382C24.5149 18.7478 25.5748 20.3489 27.532 22.3943C30.0081 24.9808 32.3743 27.4308 37.0847 31.7635C37.9775 32.5861 39.7939 34.2972 39.508 34.6315C40.0622 31.8075 32.238 26.1596 29.1197 23.1245C25.8079 19.9003 24.0399 16.632 24.2422 17.5382Z" fill="url(#paint23_linear)"/>
<path d="M28.271 32.7003C29.111 33.4261 36.1612 40.4376 36.0249 40.8423C36.0249 40.8423 35.8973 38.5066 33.4564 36.3996C28.4513 32.0801 23.3495 27.2416 20.9833 24.3209C18.7579 21.5673 16.8315 20.5468 17.0207 21.101C17.2098 21.6552 17.6364 22.3019 17.8959 22.6274C18.5776 23.4763 27.4266 31.9746 28.271 32.7003Z" fill="url(#paint24_linear)"/>
<path d="M17.8297 32.1457C19.6637 33.9184 22.6808 36.5928 26.5115 39.8742C28.8073 41.8404 33.9751 47.6423 33.4825 48.2141C36.2929 45.4738 16.563 31.4595 15.3843 27.2764C15.1072 28.7103 16.198 30.571 17.8297 32.1457Z" fill="url(#paint25_linear)"/>
<path d="M32.9019 48.7638C33.179 48.6318 33.4429 48.3591 33.4825 48.2139C33.4825 48.2139 30.914 44.6422 29.5726 43.459C28.108 42.1701 24.5807 38.3169 22.3333 36.5178C21.3437 35.7305 20.4113 35.2906 19.5625 35.2158C20.7808 35.9768 20.2178 36.2539 22.927 38.3257C24.374 39.4386 31.1031 49.6259 32.9019 48.7638Z" fill="url(#paint26_linear)"/>
<path d="M28.1258 34.1345C30.4876 36.1579 34.3755 42.0653 36.0204 40.8425C35.5586 41.0404 34.2172 38.9203 32.304 37.1256C30.426 35.3661 25.4826 30.3868 22.7118 27.9367C19.853 25.4075 18.7139 24.884 17.179 25.3591C21.8453 26.5248 22.3291 29.164 28.1258 34.1345Z" fill="url(#paint27_linear)"/>
<path d="M29.2341 25.9044C32.6251 29.0891 38.5185 35.3396 39.5125 34.6314C39.1343 34.781 38.8132 33.8572 38.1139 33.2502C37.3311 32.5772 30.3249 25.4118 28.7504 23.881C26.7008 21.8928 23.7541 18.4487 21.0977 17.4722C23.8377 19.3284 26.4853 23.3224 29.2341 25.9044Z" fill="url(#paint28_linear)"/>
<path d="M46.4218 22.1347C45.9995 21.9324 45.5333 21.928 45.0671 22.0687C46.7736 22.9353 48.5109 24.5452 49.0694 27.8926C49.7775 32.1285 57.9052 35.8234 59.8667 40.2705C61.9602 45.0167 60.2714 51.9051 56.898 54.2936C53.5247 56.682 49.5224 66.3856 35.3166 56.8008C35.3122 56.7964 35.3122 56.7964 35.3078 56.7964C34.4325 56.097 31.8465 53.7305 31.1208 53.0927C27.3208 49.7453 22.5533 43.4024 20.1035 40.7368C19.6197 40.2133 18.3267 38.2075 16.783 38.8673C17.5526 40.6136 19.6329 42.4743 20.2575 43.0945C21.6341 44.4713 28.7062 52.3449 28.9701 52.5693C30.9492 54.2364 40.0489 65.6686 47.8379 65.1055C56.9156 64.4501 64.6255 54.3463 64.1109 47.3964C63.6007 40.4465 58.0503 34.8689 53.7798 30.8793C50.1645 27.5055 48.3701 23.661 46.4218 22.1347Z" fill="url(#paint29_linear)"/>
<path d="M33.6891 48.4209C33.6715 48.4385 32.6688 47.484 32.4489 47.2684C32.3345 47.1541 23.5383 37.4197 22.0518 36.3025C22.0518 36.3025 22.1969 36.4168 22.2497 36.32C22.2893 36.2409 22.1617 36.0957 22.1617 36.0957C23.5339 37.125 29.1239 41.7612 32.7259 46.613C33.0822 47.0969 33.7815 48.3285 33.6891 48.4209Z" fill="#975500"/>
<path d="M36.2314 41.0486C36.2314 41.053 36.2314 41.053 36.2314 41.0486C35.6157 41.3741 24.0047 28.8291 21.2075 26.643C21.2075 26.643 21.4846 26.7705 21.5858 26.6386C21.6737 26.511 21.511 26.2383 21.511 26.2383C24.339 28.4552 36.4601 40.6351 36.2314 41.0486Z" fill="#975500"/>
<path d="M39.7191 34.838C39.5387 34.9436 38.967 34.3321 38.8614 34.2134C36.8471 31.9525 34.5557 29.8587 31.9256 27.2415C29.7794 25.1081 27.7167 22.9703 26.384 21.4968C26.384 21.4968 26.5424 21.6639 26.6215 21.6111C26.7403 21.5012 26.5248 21.2856 26.5248 21.2856C27.8442 22.7504 30.2016 24.6946 32.3391 26.8192C34.9779 29.4452 37.1594 31.5566 39.1825 33.8307C39.288 33.9495 39.829 34.728 39.7191 34.838Z" fill="#975500"/>
<path d="M58.9124 73.9509C59.0004 73.8014 53.1289 67.8544 50.5428 65.5143L49.5181 64.5861C49.4169 64.4938 49.2762 64.4542 49.1399 64.4762C48.6956 64.5554 48.2514 64.6301 47.8028 64.6609C41.7422 65.1052 35.5277 58.6083 31.8113 54.7243C30.8657 53.7346 30.1137 52.9516 29.5815 52.503C28.6447 51.6364 26.217 48.9532 24.0751 46.5867C22.5094 44.8537 21.1547 43.3581 20.5698 42.7775L20.2663 42.4828C15.7671 38.6339 16.8534 36.6017 16.7654 36.7293C15.4196 38.7131 19.3559 42.1925 20.2575 43.0898C21.6341 44.4666 27.6507 51.3109 29.278 52.8241C31.9389 55.0454 39.9874 65.6726 47.8336 65.0964C48.2998 65.0612 48.7616 64.9864 49.219 64.9072C51.0838 66.6051 57.4567 72.3058 58.5518 73.7354C58.6397 73.8498 58.7673 73.9113 58.9124 73.9509Z" fill="#975500"/>
<path d="M14.3332 6.34326C14.2981 6.22449 14.2057 6.12773 14.0913 6.08374C13.9726 6.03975 13.8407 6.05294 13.7395 6.11892L12.209 7.07344C12.1078 7.13502 12.0418 7.23619 12.0242 7.35495C12.0066 7.46932 12.0418 7.58808 12.1166 7.68045C15.2524 11.5953 16.9413 13.2888 16.9369 13.2624C16.3124 11.1202 14.342 6.38725 14.3332 6.34326Z" fill="#975500"/>
<path d="M8.87523 13.1742C8.79606 13.0951 8.69051 13.0511 8.57616 13.0555C8.4662 13.0599 8.36065 13.1083 8.28588 13.1918L7.0984 14.5466C7.00164 14.6566 6.97525 14.8105 7.02363 14.9469C7.07201 15.0832 7.19515 15.158 7.3315 15.2108C11.2986 16.7327 12.4553 17.4981 12.4817 17.4761C12.618 17.3441 11.7428 16.0905 8.87523 13.1742Z" fill="#975500"/>
<path d="M21.0052 6.48843C20.992 6.37846 21.0316 6.26849 21.1064 6.18051C21.1811 6.09694 21.2867 6.04857 21.3966 6.04417L23.1954 6.00018C23.3406 5.99579 23.4769 6.07056 23.5517 6.19372C23.6265 6.31689 23.6045 6.46203 23.5561 6.59839C22.1883 10.6188 22.1355 12.0176 22.1003 12.022C21.92 12.0528 21.4098 10.5572 21.0052 6.48843Z" fill="#975500"/>
<path d="M52.4826 13.1612C52.5661 13.0645 52.5969 12.9413 52.5705 12.8181C52.5442 12.695 52.465 12.5894 52.3506 12.5366L50.7321 11.7449C50.6266 11.6921 50.5034 11.6921 50.3979 11.7361C50.2879 11.7801 50.2132 11.8768 50.1736 11.9868C48.5111 16.7153 47.9701 19.051 47.9877 19.0291C49.4831 17.3664 52.4562 13.192 52.4826 13.1612Z" fill="#975500"/>
<path d="M43.8843 12.2639C43.9106 12.154 43.8887 12.0396 43.8271 11.9472C43.7655 11.8549 43.6688 11.7933 43.5588 11.7713L41.782 11.481C41.6368 11.459 41.4917 11.5118 41.4037 11.6261C41.3114 11.7405 41.3158 11.8857 41.3422 12.0264C42.1514 16.1963 42.1118 17.5863 42.147 17.5951C42.3229 17.6479 42.9299 16.2447 43.8843 12.2639Z" fill="#975500"/>
<path d="M55.9789 19.0205C56.0669 18.9501 56.1812 18.9237 56.2912 18.9413C56.4011 18.9589 56.4979 19.0205 56.5595 19.1173L57.5491 20.6216C57.6282 20.7448 57.637 20.8988 57.571 21.0263C57.5051 21.1539 57.3687 21.2111 57.228 21.2463C53.0938 22.214 51.8799 22.909 51.8535 22.8826C51.7348 22.7418 52.7375 21.519 55.9789 19.0205Z" fill="#975500"/>
<defs>
<linearGradient id="paint0_linear" x1="53.2178" y1="55.388" x2="58.3951" y2="60.0357" gradientUnits="userSpaceOnUse">
<stop offset="0.00132565" stop-color="#D2A374"/>
<stop offset="1" stop-color="#DEBA94"/>
</linearGradient>
<linearGradient id="paint1_linear" x1="53.9251" y1="67.5063" x2="40.8565" y2="45.8735" gradientUnits="userSpaceOnUse">
<stop offset="0.00132565" stop-color="#D2A374"/>
<stop offset="1" stop-color="#DEBA94"/>
</linearGradient>
<linearGradient id="paint2_linear" x1="12.9497" y1="41.9079" x2="23.6632" y2="47.3134" gradientUnits="userSpaceOnUse">
<stop offset="0.00132565" stop-color="#D2A374"/>
<stop offset="1" stop-color="#DEBA94"/>
</linearGradient>
<linearGradient id="paint3_linear" x1="7.48167" y1="27.8477" x2="27.0308" y2="42.425" gradientUnits="userSpaceOnUse">
<stop offset="0.00132565" stop-color="#D2A374"/>
<stop offset="1" stop-color="#DEBA94"/>
</linearGradient>
<linearGradient id="paint4_linear" x1="22.0969" y1="18.9353" x2="34.4339" y2="32.6055" gradientUnits="userSpaceOnUse">
<stop offset="0.00132565" stop-color="#D2A374"/>
<stop offset="1" stop-color="#DEBA94"/>
</linearGradient>
<linearGradient id="paint5_linear" x1="14.8499" y1="22.5446" x2="30.2719" y2="37.3827" gradientUnits="userSpaceOnUse">
<stop offset="0.00132565" stop-color="#D2A374"/>
<stop offset="1" stop-color="#DEBA94"/>
</linearGradient>
<linearGradient id="paint6_linear" x1="27.3974" y1="24.9151" x2="24.9144" y2="28.1407" gradientUnits="userSpaceOnUse">
<stop stop-color="#FFBC47" stop-opacity="0"/>
<stop offset="1" stop-color="#E68E43"/>
</linearGradient>
<linearGradient id="paint7_linear" x1="68.6695" y1="72.9992" x2="7.74811" y2="20.8474" gradientUnits="userSpaceOnUse">
<stop stop-color="#D2A374" stop-opacity="0"/>
<stop offset="1" stop-color="#B88653"/>
</linearGradient>
<linearGradient id="paint8_linear" x1="64.4027" y1="77.984" x2="3.48117" y2="25.8322" gradientUnits="userSpaceOnUse">
<stop stop-color="#D2A374" stop-opacity="0"/>
<stop offset="1" stop-color="#B88653"/>
</linearGradient>
<linearGradient id="paint9_linear" x1="63.5461" y1="78.984" x2="2.62489" y2="26.8322" gradientUnits="userSpaceOnUse">
<stop stop-color="#FFBC47" stop-opacity="0"/>
<stop offset="1" stop-color="#E68E43"/>
</linearGradient>
<linearGradient id="paint10_linear" x1="67.4797" y1="74.389" x2="6.55865" y2="22.2371" gradientUnits="userSpaceOnUse">
<stop stop-color="#FFBC47" stop-opacity="0"/>
<stop offset="1" stop-color="#E68E43"/>
</linearGradient>
<linearGradient id="paint11_linear" x1="72.3561" y1="68.6932" x2="11.4344" y2="16.5414" gradientUnits="userSpaceOnUse">
<stop stop-color="#D2A374" stop-opacity="0"/>
<stop offset="1" stop-color="#B88653"/>
</linearGradient>
<linearGradient id="paint12_linear" x1="63.7371" y1="78.7611" x2="2.81565" y2="26.6093" gradientUnits="userSpaceOnUse">
<stop stop-color="#FFBC47" stop-opacity="0"/>
<stop offset="1" stop-color="#E68E43"/>
</linearGradient>
<linearGradient id="paint13_linear" x1="70.7415" y1="70.5788" x2="9.81996" y2="18.427" gradientUnits="userSpaceOnUse">
<stop stop-color="#D2A374" stop-opacity="0"/>
<stop offset="1" stop-color="#B88653"/>
</linearGradient>
<linearGradient id="paint14_linear" x1="-15.0327" y1="-1.54814" x2="55.2249" y2="56.653" gradientUnits="userSpaceOnUse">
<stop stop-color="#D2A374" stop-opacity="0"/>
<stop offset="1" stop-color="#B88653"/>
</linearGradient>
<linearGradient id="paint15_linear" x1="55.3596" y1="50.9855" x2="67.4618" y2="76.334" gradientUnits="userSpaceOnUse">
<stop offset="0.00132565" stop-color="#D2A374"/>
<stop offset="1" stop-color="#DEBA94"/>
</linearGradient>
<linearGradient id="paint16_linear" x1="61.829" y1="59.5441" x2="48.9972" y2="75.6599" gradientUnits="userSpaceOnUse">
<stop stop-color="#F0C492" stop-opacity="0"/>
<stop offset="1" stop-color="#E6AF74"/>
</linearGradient>
<linearGradient id="paint17_linear" x1="60.9507" y1="50.0396" x2="60.7421" y2="81.3356" gradientUnits="userSpaceOnUse">
<stop offset="0.3118" stop-color="#D2A374" stop-opacity="0"/>
<stop offset="1" stop-color="#D2A374"/>
</linearGradient>
<linearGradient id="paint18_linear" x1="56.368" y1="69.0741" x2="45.3187" y2="46.1728" gradientUnits="userSpaceOnUse">
<stop offset="0.00132565" stop-color="#D2A374"/>
<stop offset="1" stop-color="#DEBA94"/>
</linearGradient>
<linearGradient id="paint19_linear" x1="-14.7329" y1="-10.7648" x2="9.35344" y2="22.2916" gradientUnits="userSpaceOnUse">
<stop offset="0.00132565" stop-color="#D2A374"/>
<stop offset="1" stop-color="#DEBA94"/>
</linearGradient>
<linearGradient id="paint20_linear" x1="-10.0784" y1="-14.1565" x2="14.008" y2="18.9" gradientUnits="userSpaceOnUse">
<stop offset="0.00132565" stop-color="#D2A374"/>
<stop offset="1" stop-color="#DEBA94"/>
</linearGradient>
<linearGradient id="paint21_linear" x1="0.544091" y1="-21.896" x2="24.6302" y2="11.1604" gradientUnits="userSpaceOnUse">
<stop offset="0.00132565" stop-color="#D2A374"/>
<stop offset="1" stop-color="#DEBA94"/>
</linearGradient>
<linearGradient id="paint22_linear" x1="-5.23235" y1="-17.6871" x2="18.854" y2="15.3693" gradientUnits="userSpaceOnUse">
<stop offset="0.00132565" stop-color="#D2A374"/>
<stop offset="1" stop-color="#DEBA94"/>
</linearGradient>
<linearGradient id="paint23_linear" x1="18.8766" y1="9.12355" x2="43.7055" y2="41.0422" gradientUnits="userSpaceOnUse">
<stop stop-color="#D2A374" stop-opacity="0"/>
<stop offset="1" stop-color="#B88653"/>
</linearGradient>
<linearGradient id="paint24_linear" x1="13.3004" y1="13.4612" x2="38.1292" y2="45.3798" gradientUnits="userSpaceOnUse">
<stop stop-color="#D2A374" stop-opacity="0"/>
<stop offset="1" stop-color="#B88653"/>
</linearGradient>
<linearGradient id="paint25_linear" x1="8.47781" y1="17.2119" x2="33.3068" y2="49.1306" gradientUnits="userSpaceOnUse">
<stop stop-color="#D2A374" stop-opacity="0"/>
<stop offset="1" stop-color="#B88653"/>
</linearGradient>
<linearGradient id="paint26_linear" x1="24.6766" y1="28.6139" x2="30.1541" y2="67.5771" gradientUnits="userSpaceOnUse">
<stop stop-color="#D2A374" stop-opacity="0"/>
<stop offset="0.4791" stop-color="#C69564" stop-opacity="0.4791"/>
<stop offset="1" stop-color="#B88653"/>
</linearGradient>
<linearGradient id="paint27_linear" x1="12.071" y1="14.4176" x2="36.9" y2="46.3362" gradientUnits="userSpaceOnUse">
<stop stop-color="#D2A374" stop-opacity="0"/>
<stop offset="1" stop-color="#B88653"/>
</linearGradient>
<linearGradient id="paint28_linear" x1="17.7929" y1="9.96654" x2="42.6218" y2="41.8852" gradientUnits="userSpaceOnUse">
<stop stop-color="#D2A374" stop-opacity="0"/>
<stop offset="1" stop-color="#B88653"/>
</linearGradient>
<linearGradient id="paint29_linear" x1="41.7215" y1="31.9407" x2="36.1919" y2="83.5789" gradientUnits="userSpaceOnUse">
<stop offset="0.3118" stop-color="#F0C492" stop-opacity="0"/>
<stop offset="1" stop-color="#D2A374"/>
</linearGradient>
</defs>
</svg>
