<svg width="80" height="80" viewBox="0 0 80 80" fill="none" xmlns="http://www.w3.org/2000/svg">
<path d="M38.7381 31.6541C38.9148 31.297 39.1033 30.9091 39.3016 30.4943C42.5526 23.7077 48.524 9.78476 49.6321 8.09227C50.8086 6.2969 52.5071 5.32622 55.3255 6.53876C58.1439 7.7513 58.3885 10.9607 56.5343 14.3424C54.6801 17.7242 51.1614 30.3101 49.5195 36.3647C46.638 46.9883 43.1225 53.7981 43.1225 53.7981L34.4824 42.2863L38.7381 31.6541Z" fill="url(#paint0_linear)"/>
<path opacity="0.75" d="M52.2954 6.93835C52.749 6.16967 54.6737 6.93943 55.4807 7.86648C56.2877 8.79353 56.5743 10.1688 56.1207 10.9374C55.6671 11.7061 54.5224 11.105 53.5118 10.5868C51.768 9.69257 51.8413 7.70703 52.2954 6.93835Z" fill="url(#paint1_radial)"/>
<path d="M49.6326 8.09286C49.0589 8.96927 47.1805 13.1256 45.0516 17.8719C43.0692 22.2911 42.9625 27.4661 47.779 13.8243C49.784 8.14457 52.6143 6.01413 53.6561 6.06262H53.6555C51.8051 5.80352 50.5538 6.68639 49.6326 8.09286Z" fill="url(#paint2_radial)"/>
<path d="M49.5195 36.365C51.1615 30.3103 54.6802 17.7249 56.5344 14.3426C57.5407 12.5068 57.9037 10.7345 57.5978 9.29199C55.7075 14.3927 50.9659 21.1745 49.1915 28.112C45.8553 41.1575 47.6417 43.289 49.5195 36.365Z" fill="url(#paint3_linear)"/>
<path d="M38.7381 31.6541C38.9148 31.297 39.1033 30.9091 39.3016 30.4943C42.5526 23.7077 48.524 9.78476 49.6321 8.09227C50.8086 6.2969 52.5071 5.32622 55.3255 6.53876C58.1439 7.7513 58.3885 10.9607 56.5343 14.3424C54.6801 17.7242 51.1614 30.3101 49.5195 36.3647C46.638 46.9883 43.1225 53.7981 43.1225 53.7981L34.4824 42.2863L38.7381 31.6541Z" fill="url(#paint4_linear)"/>
<path d="M49.2022 8.87598C48.4561 10.3282 47.0959 13.3206 45.5417 16.7799L46.416 18.8344L50.7531 30.9707C50.7531 30.9707 50.8775 30.9001 51.0628 30.7919C51.8719 27.9337 52.7952 24.784 53.6927 21.9566C51.3914 18.7805 49.4376 13.1482 49.2022 8.87598Z" fill="url(#paint5_linear)"/>
<path d="M42.631 23.2617C41.962 24.7458 41.3064 26.1916 40.6945 27.5194C42.5551 31.115 41.5758 38.4232 39.9645 40.9108C38.5785 43.0509 43.9923 44.1019 46.9723 44.5107C47.8083 42.1557 48.6891 39.4251 49.5192 36.3649C49.5769 36.1527 49.642 35.9157 49.704 35.6878L50.0337 32.319L42.631 23.2617Z" fill="url(#paint6_linear)"/>
<path d="M46.3757 41.477C46.3089 41.0843 45.3226 36.1274 45.2396 35.675C43.8789 28.2731 39.5893 13.2543 39.4912 11.2338C39.3867 9.08933 40.1904 7.30579 43.1829 6.63029C46.1753 5.9548 48.2606 8.40683 48.7487 12.2325C49.2367 16.0581 54.2251 27.82 56.5431 33.6496C60.7325 44.1849 61.0956 52.0361 61.0956 52.0361L47.3384 47.8026L46.3757 41.477Z" fill="url(#paint7_linear)"/>
<path opacity="0.75" d="M40.9665 8.73371C40.8814 7.84491 42.8908 7.33641 44.0889 7.61221C45.287 7.88801 46.3273 8.83175 46.4118 9.72055C46.4964 10.6094 45.2175 10.7957 44.0954 10.9703C42.1587 11.2719 41.0511 9.62252 40.9665 8.73371Z" fill="url(#paint8_radial)"/>
<path d="M41.5525 7.22559C39.903 8.10362 39.4096 9.55318 39.4915 11.2333C39.59 13.2544 43.8796 28.273 45.2398 35.6743C45.3228 36.1268 46.3086 41.0842 46.3759 41.4763L47.2373 47.1351C49.3484 50.5459 51.5883 45.1641 41.3613 16.9599C39.3078 11.2974 40.6809 7.79927 41.5525 7.22559Z" fill="url(#paint9_radial)"/>
<path d="M56.5307 33.6191C54.2073 27.7793 49.2362 16.0524 48.7487 12.2327C48.7482 12.2311 48.7482 12.2295 48.7477 12.2284C48.683 11.7221 48.5877 11.2432 48.4675 10.7912C48.4498 10.7234 48.4234 10.6646 48.404 10.5973C48.2908 10.2068 48.1648 9.8297 48.0118 9.4871C48.0005 9.46232 47.987 9.44131 47.9757 9.416C47.6223 8.64677 47.1741 8.00306 46.6392 7.52148C46.6392 7.52148 46.6392 7.52148 46.6387 7.52148C48.1088 12.7585 48.2601 21.033 50.903 27.6878C55.8735 40.2027 53.0534 41.1276 51.6657 42.9575C51.6652 42.958 51.6652 42.9586 51.6652 42.9591C54.5962 42.9053 58.7194 51.0704 61.0945 52.0357C60.8047 51.5838 60.6554 50.6745 60.6 49.4684C60.4761 45.7058 58.6844 39.7222 56.5307 33.6191Z" fill="url(#paint10_linear)"/>
<path d="M18.4081 50.6317C18.4081 52.9404 19.5388 53.9768 20.1044 54.3506C20.293 54.4751 20.4185 54.5262 20.4185 54.5262L30.972 62.1586L50.289 58.201L49.6975 45.9798C39.2743 44.6439 29.858 39.629 19.0438 38.7461C17.8549 42.6207 18.4081 47.9378 18.4081 50.6317Z" fill="url(#paint11_linear)"/>
<path d="M38.9785 50.9936C43.7368 50.4926 46.7551 54.3855 47.1322 56.4115L48.6869 55.8459L47.9801 48.0724L42.939 44.8216L36.2016 43.1253L29.3699 39.5448L28.0663 35.4634C28.0312 35.4629 27.7037 35.4585 27.6692 35.458L21.1166 36.1276C20.4093 36.3894 19.8981 36.7346 19.6654 37.1898C18.7948 38.8882 18.4614 41.0967 18.3445 43.2999C19.3669 45.3559 21.6655 46.4236 23.6695 46.4236C26.0252 46.4236 27.4387 44.6336 28.2866 43.1259C28.2866 43.1259 28.4412 45.8585 32.2282 46.8949C32.2287 46.8949 35.0429 51.4078 38.9785 50.9936Z" fill="url(#paint12_linear)"/>
<path d="M23.6153 45.481C20.8394 45.481 18.5424 43.2196 18.1594 38.9798C18.118 38.5176 17.3395 30.2168 22.0838 30.2168C26.4865 30.2168 27.7309 31.9131 28.018 37.5663C28.3057 43.2196 26.4871 45.481 23.6153 45.481Z" fill="url(#paint13_linear)"/>
<path d="M34.1321 46.1404C30.705 46.1404 28.9919 44.6359 28.5157 40.347C28.0395 36.0582 25.9774 28.3321 32.2693 27.9184C38.301 27.5219 38.4157 31.2533 38.4157 37.4716C38.4157 43.69 37.083 46.1404 34.1321 46.1404Z" fill="url(#paint14_linear)"/>
<path d="M33.9386 40.2043C31.3205 41.5235 29.5606 41.5504 28.4407 39.7502C28.4671 39.9527 28.4945 40.1574 28.5156 40.347C28.9918 44.6359 30.7048 46.1404 34.132 46.1404C36.5427 46.1404 37.8722 44.5034 38.2789 40.5151C37.6039 39.3564 35.482 39.427 33.9386 40.2043Z" fill="url(#paint15_linear)"/>
<path d="M23.5209 40.0166C21.1851 40.0166 19.2523 38.5649 18.9301 35.843C19.0551 36.8988 18.0801 30.2178 22.2323 30.2178C25.9374 30.2178 26.9841 31.3064 27.226 34.9359C27.4673 38.5644 25.9369 40.0166 23.5209 40.0166Z" fill="url(#paint16_linear)"/>
<path d="M33.6566 39.7337C30.8452 39.7337 29.5798 38.2529 29.1025 35.2164C28.8574 33.6554 27.2591 28.2051 32.4208 27.911C37.3698 27.6293 37.3709 31.2454 37.4738 34.3163C37.6224 38.7339 36.0775 39.7337 33.6566 39.7337Z" fill="url(#paint17_linear)"/>
<path d="M32.0879 45.8853C32.6907 46.0523 33.3624 46.1412 34.1322 46.1412C37.0832 46.1412 38.4159 43.6913 38.4159 37.4723C38.4159 31.4784 38.2931 27.8068 32.8841 27.9032C35.0114 29.1734 36.747 32.0618 36.747 37.2837C36.747 44.7132 35.0814 45.8713 32.0879 45.8853Z" fill="url(#paint18_linear)"/>
<path d="M32.2286 43.848C32.2286 41.3351 34.0063 41.2549 38.7619 40.8331C42.1637 40.5309 45.8602 39.6394 50.5716 41.4612C55.9478 43.5399 60.9996 46.5495 61.0621 51.9513C61.1181 56.788 57.3559 73.9997 40.8972 73.9997C24.4386 73.9997 18.911 65.2053 18.4084 50.6321L47.1321 56.411C47.1321 56.411 47.7445 51.2758 44.2269 49.7524C42.7266 49.1028 39.5155 49.6269 37.3796 49.6269C35.2437 49.6269 32.2286 47.2401 32.2286 43.848Z" fill="url(#paint19_linear)"/>
<path d="M52.6446 63.101C45.6718 68.1893 46.2379 71.0157 39.7359 71.0157C33.2339 71.0157 29.0407 67.5763 26.0725 64.6082C23.1043 61.6402 20.6075 56.6936 19.3825 52.9245C19.0932 52.0352 18.7555 51.2918 18.4102 50.6605C18.9192 65.2159 24.4505 73.9994 40.8973 73.9994C57.356 73.9994 61.1182 56.7873 61.0622 51.9511C61.0379 49.8358 60.2412 48.091 58.9667 46.6221C59.3292 53.5305 58.3725 58.9215 52.6446 63.101Z" fill="url(#paint20_radial)"/>
<path d="M23.6406 42.8432C20.8179 42.8432 18.4843 40.5974 18 36.4082C18.0189 37.2512 18.0824 38.1206 18.1595 38.9804C18.5425 43.2202 20.8394 45.4816 23.6153 45.4816C26.3088 45.4816 28.052 43.4529 28.024 38.5397C27.4492 41.5557 25.8471 42.8432 23.6406 42.8432Z" fill="url(#paint21_linear)"/>
<path d="M28.0181 37.5664C27.745 32.1808 26.596 30.3903 22.6819 30.2324C24.7338 30.5691 28.7087 38.4773 23.2367 45.4418C23.3639 45.4514 23.4861 45.4811 23.6149 45.4811C26.4872 45.4811 28.3053 43.2197 28.0181 37.5664Z" fill="url(#paint22_linear)"/>
<path d="M48.8126 51.3862C48.6871 48.3713 44.9809 45.3559 41.9028 45.67C39.2443 45.9414 34.4327 46.3029 32.2817 44.333C32.557 47.4588 35.3501 49.6269 37.3799 49.6269C39.5158 49.6269 42.7264 49.1028 44.2272 49.7524C47.7449 51.2758 47.1324 56.4108 47.1324 56.4108C47.1324 56.4108 48.9381 54.4011 48.8126 51.3862Z" fill="url(#paint23_radial)"/>
<path d="M61.0619 51.9521C60.9994 46.5496 55.9481 43.5405 50.5714 41.4612C45.86 39.6394 42.1635 40.5309 38.7617 40.8331C35.1341 41.1552 33.2476 41.2861 32.5532 42.4421C37.0244 41.3362 41.2122 40.887 46.3755 41.4768C53.1043 42.2461 58.1917 46.3923 59.1151 49.5646C60.0276 52.6992 59.8956 58.5369 59.8924 58.6754C60.7608 55.8672 61.0786 53.3737 61.0619 51.9521Z" fill="url(#paint24_linear)"/>
<path d="M47.1325 56.4115C47.2165 55.1898 47.1169 53.9406 46.7269 52.7819C46.353 51.6324 45.6155 50.5496 44.5274 50.0099C43.4694 49.4163 42.1733 49.5283 40.9704 49.5526C39.7454 49.6026 38.5269 49.7465 37.2825 49.7384C34.7264 49.5148 32.6476 47.3364 32.1816 44.8784C32.0669 44.2595 32.0351 43.6239 32.1628 42.9861C32.2964 42.3451 32.7866 41.7617 33.3872 41.5214C34.5761 41.0145 35.8259 40.9553 37.0449 40.8098C39.4992 40.6574 41.9153 40.2184 44.4008 40.2027C46.8799 40.1672 49.3541 40.7419 51.6036 41.746C53.864 42.707 56.098 43.8366 57.9581 45.4796C59.8176 47.0967 61.1046 49.4642 61.0631 51.9513C61.0431 49.4615 59.7131 47.1619 57.8433 45.6094C55.9924 44.0069 53.7703 42.9004 51.5142 41.9642C49.2679 40.9844 46.8486 40.4451 44.4035 40.4985C41.9681 40.5308 39.5283 40.993 37.0794 41.1616C35.8711 41.2919 34.6128 41.3571 33.5262 41.8145C32.9789 42.0369 32.598 42.4937 32.4644 43.0566C32.3454 43.6228 32.3659 44.2407 32.4715 44.8257C32.8787 47.1576 34.8977 49.2843 37.2895 49.503C38.5026 49.5208 39.7325 49.3877 40.9618 49.3468C42.1711 49.3365 43.4872 49.217 44.6098 49.858C45.7303 50.4489 46.4591 51.5844 46.8087 52.755C47.1756 53.9374 47.2445 55.1914 47.1325 56.4115Z" fill="#975500"/>
<path d="M27.8402 35.4551C28.0659 37.2505 28.2927 39.0798 28.0131 40.9016C27.8887 41.8065 27.6662 42.7158 27.2229 43.5405C26.7989 44.3722 26.0582 45.0617 25.1656 45.4032C23.3621 45.9963 21.2676 45.4415 20.0335 44.0329C18.746 42.6614 18.2666 40.7723 18.1599 38.9796C18.4034 40.7604 18.9647 42.5757 20.2048 43.8712C21.4104 45.1931 23.4025 45.6467 25.046 45.0709C26.7547 44.4934 27.5321 42.5968 27.7815 40.8676C28.0692 39.0862 27.9302 37.2655 27.8402 35.4551Z" fill="#975500"/>
<path d="M32.7802 46.0259C32.2022 46.2117 31.6732 45.9548 31.1894 45.7064C30.7014 45.4484 30.2613 45.0961 29.9025 44.6781C29.1747 43.8378 28.7955 42.7841 28.566 41.7424C28.3575 40.6823 28.329 39.6313 28.1803 38.5863C28.0516 37.5386 27.9352 36.486 27.8894 35.4297C28.023 36.4779 28.2051 37.5165 28.3775 38.5577C28.5773 39.5947 28.6662 40.6612 28.9124 41.6648C29.1462 42.6699 29.5243 43.6616 30.1993 44.419C30.5322 44.7972 30.9336 45.1107 31.3812 45.3401C31.8321 45.5841 32.3212 45.6461 32.7802 46.0259Z" fill="#975500"/>
<path d="M35.1104 28.1211C35.69 28.2687 36.2572 28.5089 36.7345 28.8957C37.2123 29.2841 37.5496 29.8195 37.7936 30.3754C38.2881 31.5007 38.4201 32.7268 38.5246 33.9232C38.5817 35.1271 38.5865 36.3278 38.5596 37.5253C38.551 38.12 38.5634 38.7222 38.5337 39.3255C38.5122 39.6266 38.51 39.9321 38.4411 40.2343C38.3867 40.4988 38.2488 40.941 37.8846 40.9119C38.1847 40.8069 38.1761 40.4648 38.2429 40.1976C38.2789 39.91 38.3113 39.6153 38.3107 39.3185C38.3188 38.7244 38.2854 38.1286 38.2725 37.5253C38.2396 36.3278 38.2531 35.1314 38.1717 33.9431C38.1055 32.7618 38.0274 31.5551 37.5926 30.4595C37.2026 29.3417 36.2594 28.4825 35.1104 28.1211Z" fill="#975500"/>
<path d="M38.9786 50.994C35.0429 51.4082 32.2288 46.8953 32.2288 46.8953C28.4418 45.8589 28.2867 43.1263 28.2867 43.1263C27.4388 44.634 26.0252 46.424 23.6695 46.424C21.6656 46.424 19.3664 45.3563 18.3446 43.3003C18.3688 42.843 18.4092 42.3872 18.455 41.9342L18.4383 41.9326C18.3101 43.1742 18.2788 44.4401 18.2858 45.6531C20.3119 47.9758 23.4874 48.306 25.5151 47.7071C26.0645 47.5449 28.6287 45.6101 30.6084 47.5546C32.7556 49.664 35.2514 52.36 39.5389 52.2657C43.8263 52.1715 47.1328 56.4113 47.1328 56.4113C46.7557 54.3859 43.7374 50.4925 38.9786 50.994Z" fill="url(#paint25_linear)"/>
<path opacity="0.75" d="M21.4403 51.1288C19.9293 52.9474 24.5249 63.4257 29.0596 66.0647C33.5943 68.7037 39.2775 67.894 40.3856 65.797C41.4937 63.6999 36.7791 60.4398 32.9231 56.8307C26.2686 50.6014 22.9514 49.3108 21.4403 51.1288Z" fill="url(#paint26_radial)"/>
<path opacity="0.75" d="M58.4009 52.4699C59.2047 51.3882 55.1876 44.6811 51.9813 42.8717C48.7745 41.0623 42.461 42.138 41.9471 43.4082C41.4332 44.6784 47.5177 46.1092 50.3782 48.5009C55.3153 52.6272 57.5978 53.5516 58.4009 52.4699Z" fill="url(#paint27_radial)"/>
<path d="M42.4788 23.749L44.6562 31.9717C44.9837 33.3517 45.3177 34.7318 45.5859 36.1264C45.7228 36.8229 45.8477 37.5226 45.9587 38.2245C46.0632 38.9263 46.2124 39.6261 46.1586 40.3468C45.9302 39.6611 45.8795 38.9571 45.7357 38.2633C45.6037 37.5689 45.4572 36.8767 45.2994 36.1873C44.9831 34.8077 44.6605 33.4298 44.3135 32.0557C43.6978 29.2902 42.9765 26.5436 42.4788 23.749Z" fill="#975500"/>
<defs>
<linearGradient id="paint0_linear" x1="24.8875" y1="77.9157" x2="35.4131" y2="54.8497" gradientUnits="userSpaceOnUse">
<stop offset="0.00132565" stop-color="#FFBA47"/>
<stop offset="1" stop-color="#FFD748"/>
</linearGradient>
<radialGradient id="paint1_radial" cx="0" cy="0" r="1" gradientUnits="userSpaceOnUse" gradientTransform="translate(54.1468 9.0024) rotate(-131.034) scale(2.7898 1.48301)">
<stop stop-color="#FBE07A"/>
<stop offset="0.2654" stop-color="#FCDF73" stop-opacity="0.7346"/>
<stop offset="0.6548" stop-color="#FDDB5F" stop-opacity="0.3452"/>
<stop offset="1" stop-color="#FFD748" stop-opacity="0"/>
</radialGradient>
<radialGradient id="paint2_radial" cx="0" cy="0" r="1" gradientUnits="userSpaceOnUse" gradientTransform="translate(50.1243 -2.40808) rotate(102.662) scale(31.3932 23.1734)">
<stop offset="0.1388" stop-color="#FFBC47" stop-opacity="0"/>
<stop offset="1" stop-color="#FF8900"/>
</radialGradient>
<linearGradient id="paint3_linear" x1="40.1527" y1="-9.25097" x2="72.4126" y2="79.053" gradientUnits="userSpaceOnUse">
<stop stop-color="#FFBC47" stop-opacity="0"/>
<stop offset="1" stop-color="#FFBC47"/>
</linearGradient>
<linearGradient id="paint4_linear" x1="60.1549" y1="3.37408" x2="26.7144" y2="70.1984" gradientUnits="userSpaceOnUse">
<stop stop-color="#FFBC47" stop-opacity="0"/>
<stop offset="1" stop-color="#C86F34"/>
</linearGradient>
<linearGradient id="paint5_linear" x1="51.749" y1="8.40112" x2="48.0184" y2="27.5943" gradientUnits="userSpaceOnUse">
<stop stop-color="#FFBC47" stop-opacity="0"/>
<stop offset="1" stop-color="#C86F34"/>
</linearGradient>
<linearGradient id="paint6_linear" x1="38.5891" y1="45.2501" x2="49.6464" y2="25.023" gradientUnits="userSpaceOnUse">
<stop stop-color="#FFBC47" stop-opacity="0"/>
<stop offset="1" stop-color="#C86F34"/>
</linearGradient>
<linearGradient id="paint7_linear" x1="59.1045" y1="55.1066" x2="50.259" y2="34.6135" gradientUnits="userSpaceOnUse">
<stop offset="0.00132565" stop-color="#FFBA47"/>
<stop offset="1" stop-color="#FFD748"/>
</linearGradient>
<radialGradient id="paint8_radial" cx="0" cy="0" r="1" gradientUnits="userSpaceOnUse" gradientTransform="translate(43.6748 9.30895) rotate(-167.042) scale(2.79027 1.48348)">
<stop stop-color="#FBE07A"/>
<stop offset="0.2654" stop-color="#FCDF73" stop-opacity="0.7346"/>
<stop offset="0.6548" stop-color="#FDDB5F" stop-opacity="0.3452"/>
<stop offset="1" stop-color="#FFD748" stop-opacity="0"/>
</radialGradient>
<radialGradient id="paint9_radial" cx="0" cy="0" r="1" gradientUnits="userSpaceOnUse" gradientTransform="translate(39.6434 4.50721) scale(85.6843 85.6806)">
<stop offset="0.1388" stop-color="#FFBC47" stop-opacity="0"/>
<stop offset="1" stop-color="#FF8900"/>
</radialGradient>
<linearGradient id="paint10_linear" x1="55.985" y1="24.9444" x2="21.7051" y2="103.216" gradientUnits="userSpaceOnUse">
<stop stop-color="#FFBC47" stop-opacity="0"/>
<stop offset="1" stop-color="#FFBC47"/>
</linearGradient>
<linearGradient id="paint11_linear" x1="19.4888" y1="50.4523" x2="59.3398" y2="50.4523" gradientUnits="userSpaceOnUse">
<stop offset="0.00132565" stop-color="#FFCB4B"/>
<stop offset="1" stop-color="#FFD748"/>
</linearGradient>
<linearGradient id="paint12_linear" x1="31.1633" y1="69.2578" x2="35.4974" y2="32.5109" gradientUnits="userSpaceOnUse">
<stop stop-color="#A1541E" stop-opacity="0"/>
<stop offset="1" stop-color="#C86F34"/>
</linearGradient>
<linearGradient id="paint13_linear" x1="23.0679" y1="36.5297" x2="23.0679" y2="53.9864" gradientUnits="userSpaceOnUse">
<stop offset="0.00132565" stop-color="#FFCB4B"/>
<stop offset="1" stop-color="#FFD748"/>
</linearGradient>
<linearGradient id="paint14_linear" x1="33.1142" y1="36.5298" x2="33.1142" y2="53.9865" gradientUnits="userSpaceOnUse">
<stop offset="0.00132565" stop-color="#FFCB4B"/>
<stop offset="1" stop-color="#FFD748"/>
</linearGradient>
<linearGradient id="paint15_linear" x1="33.3601" y1="36.0942" x2="33.3601" y2="59.2264" gradientUnits="userSpaceOnUse">
<stop stop-color="#FFBC47" stop-opacity="0"/>
<stop offset="1" stop-color="#C86F34"/>
</linearGradient>
<linearGradient id="paint16_linear" x1="23.0819" y1="39.0741" x2="23.0819" y2="25.6732" gradientUnits="userSpaceOnUse">
<stop offset="0.00132565" stop-color="#FFCB4B"/>
<stop offset="1" stop-color="#FFD748"/>
</linearGradient>
<linearGradient id="paint17_linear" x1="33.0808" y1="39.074" x2="33.0808" y2="25.673" gradientUnits="userSpaceOnUse">
<stop offset="0.00132565" stop-color="#FFCB4B"/>
<stop offset="1" stop-color="#FFD748"/>
</linearGradient>
<linearGradient id="paint18_linear" x1="26.3589" y1="32.8259" x2="69.4023" y2="57.2788" gradientUnits="userSpaceOnUse">
<stop stop-color="#FFBC47" stop-opacity="0"/>
<stop offset="1" stop-color="#C86F34"/>
</linearGradient>
<linearGradient id="paint19_linear" x1="19.4891" y1="57.1737" x2="59.3401" y2="57.1737" gradientUnits="userSpaceOnUse">
<stop offset="0.00132565" stop-color="#FFCB4B"/>
<stop offset="1" stop-color="#FFD748"/>
</linearGradient>
<radialGradient id="paint20_radial" cx="0" cy="0" r="1" gradientUnits="userSpaceOnUse" gradientTransform="translate(39.0258 15.4237) scale(71.4337 71.4307)">
<stop offset="0.6134" stop-color="#FFBC47" stop-opacity="0"/>
<stop offset="1" stop-color="#FF8900"/>
</radialGradient>
<linearGradient id="paint21_linear" x1="22.9185" y1="36.0882" x2="24.1127" y2="55.8869" gradientUnits="userSpaceOnUse">
<stop stop-color="#FFBC47" stop-opacity="0"/>
<stop offset="1" stop-color="#C86F34"/>
</linearGradient>
<linearGradient id="paint22_linear" x1="12.4508" y1="30.5794" x2="78.8773" y2="72.7605" gradientUnits="userSpaceOnUse">
<stop stop-color="#FFBC47" stop-opacity="0"/>
<stop offset="1" stop-color="#C86F34"/>
</linearGradient>
<radialGradient id="paint23_radial" cx="0" cy="0" r="1" gradientUnits="userSpaceOnUse" gradientTransform="translate(44.4447 41.7019) scale(46.5535 19.933)">
<stop stop-color="#FFBC47" stop-opacity="0"/>
<stop offset="1" stop-color="#FFA754"/>
</radialGradient>
<linearGradient id="paint24_linear" x1="49.0539" y1="36.8477" x2="42.521" y2="69.3873" gradientUnits="userSpaceOnUse">
<stop stop-color="#FFBC47" stop-opacity="0"/>
<stop offset="1" stop-color="#FFBC47"/>
</linearGradient>
<linearGradient id="paint25_linear" x1="29.9086" y1="57.9502" x2="39.0478" y2="30.06" gradientUnits="userSpaceOnUse">
<stop stop-color="#FFBC47" stop-opacity="0"/>
<stop offset="1" stop-color="#C86F34"/>
</linearGradient>
<radialGradient id="paint26_radial" cx="0" cy="0" r="1" gradientUnits="userSpaceOnUse" gradientTransform="translate(30.4119 60.1604) rotate(-138.968) scale(13.2048 6.02548)">
<stop stop-color="#FBE07A"/>
<stop offset="0.2654" stop-color="#FCDF73" stop-opacity="0.7346"/>
<stop offset="0.6548" stop-color="#FDDB5F" stop-opacity="0.3452"/>
<stop offset="1" stop-color="#FFD748" stop-opacity="0"/>
</radialGradient>
<radialGradient id="paint27_radial" cx="0" cy="0" r="1" gradientUnits="userSpaceOnUse" gradientTransform="translate(50.6805 45.9453) rotate(38.2124) scale(10.1819 3.74902)">
<stop stop-color="#FBE07A"/>
<stop offset="0.2654" stop-color="#FCDF73" stop-opacity="0.7346"/>
<stop offset="0.6548" stop-color="#FDDB5F" stop-opacity="0.3452"/>
<stop offset="1" stop-color="#FFD748" stop-opacity="0"/>
</radialGradient>
</defs>
</svg>
