<svg width="24" height="24" viewBox="0 0 24 24" fill="none" xmlns="http://www.w3.org/2000/svg">
<path d="M5.04004 11.7484C6.3429 11.1084 6.69147 7.1198 6.44575 5.61123C6.20575 4.12552 8.20576 3.09694 9.24576 4.58837L5.04004 11.7484Z" fill="url(#paint0_linear)"/>
<path d="M18.96 11.7484C17.6571 11.1084 17.3143 7.11409 17.56 5.61123C17.8 4.12552 15.8 3.09694 14.76 4.58837L18.96 11.7484Z" fill="url(#paint1_linear)"/>
<path d="M12.0002 20.3542C23.4574 20.3542 18.9602 11.7542 18.9602 11.7542C18.4631 4.6685 14.8288 4.28564 12.0002 4.28564C9.17164 4.28564 5.53736 4.6685 5.04022 11.7485C5.04022 11.7485 0.543075 20.3542 12.0002 20.3542Z" fill="url(#paint2_linear)"/>
<path d="M18.9601 11.7485C18.9601 11.7485 19.1601 13.2342 19.1944 15.5714C19.2687 20.3485 12.0344 20.3485 12.0344 20.3485C23.4458 20.3371 18.9601 11.7542 18.9601 11.7485Z" fill="url(#paint3_linear)"/>
<path d="M5.03991 11.7485C5.03991 11.7485 4.75419 13.2342 4.80562 15.5714C4.90277 20.0342 11.9656 20.3485 11.9656 20.3485C0.554193 20.3371 5.03991 11.7542 5.03991 11.7485Z" fill="url(#paint4_linear)"/>
<path d="M14.1544 20.2343C14.5144 19.7543 14.5258 19.2515 14.5544 19.2515C15.6915 19.2515 16.2858 17.8343 16.2858 16.3772C16.2858 15.16 14.4686 13.8686 12.0001 14.3372C9.5315 13.8686 7.71436 15.16 7.71436 16.3772C7.71436 17.8343 8.30864 19.2515 9.44578 19.2515C9.47436 19.2515 9.48578 19.7543 9.84579 20.2343C10.4915 20.3086 11.2058 20.3543 12.0001 20.3543C12.7944 20.3543 13.5086 20.3143 14.1544 20.2343Z" fill="#EFA25F"/>
<path d="M5.04017 11.7483C5.04017 11.7483 3.59446 14.514 4.42874 16.9141C3.89732 14.9426 5.63446 14.1655 9.1316 13.3769C12.7487 12.5655 12.063 7.94833 8.26303 4.97119C6.6516 5.81691 5.32589 7.67405 5.04017 11.7483Z" fill="url(#paint5_radial)"/>
<path d="M14.2916 17.6575L12.0002 16.2632L9.70873 17.6575C9.17731 19.1832 10.2516 20.5718 12.0002 20.5718C13.7487 20.5718 14.823 19.1832 14.2916 17.6575Z" fill="url(#paint6_linear)"/>
<path d="M9.76012 18.1318C9.70298 18.1318 9.65155 18.126 9.60012 18.1203C9.54869 18.4689 9.58298 18.806 9.69155 19.1089C9.71441 19.1089 9.73726 19.1146 9.76012 19.1146C10.5601 19.1146 11.223 18.6746 11.6173 18.0232C11.8116 17.6975 12.1887 17.6975 12.383 18.0232C12.7773 18.6746 13.4458 19.1146 14.2401 19.1146C14.263 19.1146 14.2858 19.1146 14.3087 19.1089C14.4173 18.806 14.4458 18.4689 14.4001 18.1203C14.3487 18.126 14.2915 18.1318 14.2401 18.1318C12.943 18.1318 12.0001 17.3318 12.0001 16.2632C12.0001 17.3375 11.0516 18.1318 9.76012 18.1318Z" fill="url(#paint7_linear)"/>
<path d="M13.3659 18.9828C13.3659 19.7371 12.7545 20.3486 12.0002 20.3486C11.2459 20.3486 10.6345 19.7371 10.6345 18.9828C10.6345 16.7428 11.2459 15.8457 12.0002 15.8457C12.7545 15.8457 13.3659 16.7486 13.3659 18.9828Z" fill="url(#paint8_linear)"/>
<path d="M13.3659 18.9829C13.3659 16.7486 12.7545 15.8457 12.0002 15.8457C11.2459 15.8457 10.6345 16.7428 10.6345 18.9829C10.6345 19.04 10.6402 19.0914 10.6459 19.1429C10.9145 19.04 11.1545 18.9086 11.3488 18.7543C11.7374 18.4571 12.2688 18.4571 12.6517 18.7543C12.8517 18.9086 13.0859 19.04 13.3545 19.1429C13.3602 19.0914 13.3659 19.0343 13.3659 18.9829Z" fill="url(#paint9_linear)"/>
<path d="M11.7888 17.4055C11.7888 16.8169 11.886 16.3369 12.0002 16.3369C12.1145 16.3369 12.2117 16.8169 12.2117 17.4055C12.2117 19.1541 12.1145 19.8569 12.0002 19.8569C11.886 19.8512 11.7888 19.1483 11.7888 17.4055Z" fill="url(#paint10_linear)"/>
<path d="M12.0001 14.3316C9.5315 13.8973 7.71436 15.0916 7.71436 16.2173C7.71436 17.5659 8.30864 18.8745 9.44579 18.8745C10.9201 18.8745 12.0058 18.0745 12.0058 17.0059C12.0058 18.0745 13.0858 18.8745 14.5658 18.8745C15.7029 18.8745 16.2972 17.5659 16.2972 16.2173C16.2858 15.0916 14.4686 13.8973 12.0001 14.3316Z" fill="url(#paint11_linear)"/>
<path d="M9.44007 18.874C10.7829 18.874 11.7944 18.2169 11.9715 17.2969C11.9829 17.2912 12.0401 17.2798 12.0286 17.2969C12.2058 18.2169 13.2172 18.874 14.5601 18.874C15.6972 18.874 16.2915 17.5655 16.2915 16.2169C16.2915 15.9598 16.2001 15.6855 16.0229 15.4112C16.0744 16.8683 15.5258 18.3998 14.6572 18.4283C13.4172 18.4683 12.4858 17.6683 12.9486 17.2398C13.4058 16.8112 14.2344 16.0855 13.7944 15.394C13.7944 15.394 13.2515 15.954 12.7601 16.474C12.7429 15.6969 10.2058 15.394 10.2058 15.394C9.76579 16.0855 10.5944 16.8112 11.0515 17.2398C11.5086 17.6683 10.5829 18.474 9.34293 18.4283C8.48007 18.3998 7.9315 16.874 7.97721 15.4226C7.80578 15.6912 7.71436 15.9598 7.71436 16.2169C7.71436 17.5655 8.30864 18.874 9.44007 18.874Z" fill="url(#paint12_linear)"/>
<path d="M15.8342 11.9944C16.3171 11.9944 16.7085 11.5057 16.7085 10.903C16.7085 10.3002 16.3171 9.81152 15.8342 9.81152C15.3514 9.81152 14.96 10.3002 14.96 10.903C14.96 11.5057 15.3514 11.9944 15.8342 11.9944Z" fill="url(#paint13_radial)"/>
<path d="M14.84 16.9833C14.9315 16.9833 15.0057 16.9091 15.0057 16.8176C15.0057 16.726 14.9315 16.6519 14.84 16.6519C14.7485 16.6519 14.6743 16.726 14.6743 16.8176C14.6743 16.9091 14.7485 16.9833 14.84 16.9833Z" fill="url(#paint14_linear)"/>
<path d="M15.2687 17.7089C15.3603 17.7089 15.4345 17.6347 15.4345 17.5432C15.4345 17.4516 15.3603 17.3774 15.2687 17.3774C15.1772 17.3774 15.103 17.4516 15.103 17.5432C15.103 17.6347 15.1772 17.7089 15.2687 17.7089Z" fill="url(#paint15_linear)"/>
<path d="M15.6572 16.6058C15.7487 16.6058 15.8229 16.5316 15.8229 16.4401C15.8229 16.3486 15.7487 16.2744 15.6572 16.2744C15.5656 16.2744 15.4915 16.3486 15.4915 16.4401C15.4915 16.5316 15.5656 16.6058 15.6572 16.6058Z" fill="url(#paint16_linear)"/>
<path d="M8.16579 11.9944C8.64864 11.9944 9.04007 11.5057 9.04007 10.903C9.04007 10.3002 8.64864 9.81152 8.16579 9.81152C7.68293 9.81152 7.2915 10.3002 7.2915 10.903C7.2915 11.5057 7.68293 11.9944 8.16579 11.9944Z" fill="url(#paint17_radial)"/>
<path d="M15.6631 10.8571C15.8177 10.8571 15.9431 10.7036 15.9431 10.5142C15.9431 10.3249 15.8177 10.1714 15.6631 10.1714C15.5084 10.1714 15.3831 10.3249 15.3831 10.5142C15.3831 10.7036 15.5084 10.8571 15.6631 10.8571Z" fill="url(#paint18_linear)"/>
<path d="M7.99436 10.8571C8.149 10.8571 8.27436 10.7036 8.27436 10.5142C8.27436 10.3249 8.149 10.1714 7.99436 10.1714C7.83972 10.1714 7.71436 10.3249 7.71436 10.5142C7.71436 10.7036 7.83972 10.8571 7.99436 10.8571Z" fill="url(#paint19_linear)"/>
<path d="M9.1601 17.0399C9.25162 17.0399 9.32581 16.9657 9.32581 16.8742C9.32581 16.7827 9.25162 16.7085 9.1601 16.7085C9.06858 16.7085 8.99438 16.7827 8.99438 16.8742C8.99438 16.9657 9.06858 17.0399 9.1601 17.0399Z" fill="url(#paint20_linear)"/>
<path d="M8.73163 17.7601C8.82315 17.7601 8.89734 17.6859 8.89734 17.5944C8.89734 17.5029 8.82315 17.4287 8.73163 17.4287C8.64011 17.4287 8.56592 17.5029 8.56592 17.5944C8.56592 17.6859 8.64011 17.7601 8.73163 17.7601Z" fill="url(#paint21_linear)"/>
<path d="M8.34296 16.6571C8.43448 16.6571 8.50867 16.5829 8.50867 16.4914C8.50867 16.3999 8.43448 16.3257 8.34296 16.3257C8.25144 16.3257 8.17725 16.3999 8.17725 16.4914C8.17725 16.5829 8.25144 16.6571 8.34296 16.6571Z" fill="url(#paint22_linear)"/>
<path d="M13.7373 15.0917C13.4001 14.5889 12.6973 14.3317 12.0001 14.3203C11.303 14.3317 10.6001 14.5889 10.263 15.0917C8.83441 17.2117 10.8173 17.4632 11.703 17.4517C11.903 17.446 12.103 17.446 12.303 17.4517C13.183 17.4689 15.1658 17.2117 13.7373 15.0917Z" fill="url(#paint23_linear)"/>
<path d="M10.7486 15.2685C11.2343 15.6057 12.7657 15.6057 13.2572 15.2685C13.5143 15.0914 12.6057 14.6914 12.0057 14.6914C11.3943 14.6914 10.4914 15.0914 10.7486 15.2685Z" fill="url(#paint24_linear)"/>
<path d="M6.9545 5.99414C5.97165 7.07985 5.24593 8.857 5.04022 11.7484C5.04022 11.7484 4.98879 11.8513 4.90308 12.0341C6.94879 13.1999 7.25165 7.38271 6.9545 5.99414Z" fill="url(#paint25_linear)"/>
<path d="M6.33737 6.82834C6.48594 6.58262 6.64594 6.35976 6.81165 6.15977C6.7488 5.80548 6.75451 5.47977 6.85165 5.25691C7.27451 4.31977 8.5088 3.78834 8.40594 4.90262C8.73165 4.74834 9.06308 4.62834 9.40023 4.54262C8.31451 2.90262 5.93737 4.33119 6.17165 5.78262C6.20594 5.99977 6.3088 6.46834 6.33737 6.82834Z" fill="url(#paint26_linear)"/>
<path d="M9.24582 4.58856C9.3544 4.55999 9.46297 4.53142 9.57154 4.50285C9.57154 4.50285 8.12011 1.96571 3.73725 4.69713C0.805822 6.52571 2.86868 12.8228 5.04011 11.7543C6.34297 11.1086 6.50868 7.22285 6.44582 5.61142C6.38297 4.10856 8.20582 3.09713 9.24582 4.58856Z" fill="url(#paint27_linear)"/>
<path opacity="0.5" d="M9.24601 4.58865C9.32601 4.56579 9.4003 4.54865 9.4803 4.52579C8.93173 3.83436 8.36601 3.55436 7.44601 3.73151C6.66315 3.88579 6.11458 4.89151 6.14887 5.77151C6.18315 6.60579 6.14887 7.90865 5.96601 9.07436C5.74887 10.4001 5.37744 11.2572 4.91458 11.4858C4.12601 11.8744 3.26887 10.9601 2.77172 10.0629C2.70887 9.94865 2.64601 9.82865 2.58887 9.70294C3.06887 11.1772 4.0403 12.2458 5.0403 11.7544C6.34315 11.1086 6.50887 7.22294 6.44601 5.61151C6.38315 4.10865 8.20601 3.09722 9.24601 4.58865Z" fill="url(#paint28_linear)"/>
<path d="M17.0457 5.99414C18.0286 7.07985 18.7543 8.857 18.96 11.7541C18.96 11.7541 19.0115 11.857 19.0972 12.0399C17.0515 13.1999 16.7486 7.38271 17.0457 5.99414Z" fill="url(#paint29_linear)"/>
<path d="M17.663 6.82834C17.5144 6.58262 17.3544 6.35976 17.1887 6.15977C17.2515 5.80548 17.2458 5.47977 17.1487 5.25691C16.7258 4.31977 15.4915 3.78834 15.5944 4.90262C15.2687 4.74834 14.9372 4.62834 14.6001 4.54262C15.6858 2.90262 18.063 4.33119 17.8287 5.78262C17.7944 5.99977 17.6915 6.46834 17.663 6.82834Z" fill="url(#paint30_linear)"/>
<path d="M14.7544 4.58856C14.6459 4.55999 14.5373 4.53142 14.4287 4.50285C14.4287 4.50285 15.8801 1.96571 20.263 4.69713C23.1944 6.52571 21.1316 12.8228 18.9601 11.7543C17.6573 11.1143 17.4916 7.22285 17.5601 5.61713C17.6173 4.10856 15.7944 3.09713 14.7544 4.58856Z" fill="url(#paint31_linear)"/>
<path opacity="0.5" d="M14.7543 4.58865C14.6743 4.56579 14.6 4.54865 14.52 4.52579C15.0686 3.83436 15.6343 3.55436 16.5543 3.73151C17.3372 3.88579 17.8857 4.89151 17.8514 5.77151C17.8172 6.60579 17.8514 7.90865 18.0343 9.07436C18.2515 10.4001 18.6229 11.2572 19.0857 11.4858C19.8743 11.8744 20.7315 10.9601 21.2286 10.0629C21.2915 9.94865 21.3543 9.82865 21.4115 9.70294C20.9315 11.1772 19.96 12.2458 18.96 11.7544C17.6572 11.1144 17.4914 7.22294 17.56 5.61722C17.6172 4.10865 15.7943 3.09722 14.7543 4.58865Z" fill="url(#paint32_linear)"/>
<path opacity="0.5" d="M4.43441 16.9143C4.2287 16.1543 4.36584 15.5714 4.80584 15.0971C4.80013 13.0342 5.04584 11.7542 5.04584 11.7485C5.04013 11.7542 3.59441 14.52 4.43441 16.9143Z" fill="url(#paint33_linear)"/>
<defs>
<linearGradient id="paint0_linear" x1="6.00184" y1="3.72106" x2="7.92676" y2="11.2233" gradientUnits="userSpaceOnUse">
<stop stop-color="#512D00"/>
<stop offset="1" stop-color="#A3541E"/>
</linearGradient>
<linearGradient id="paint1_linear" x1="17.9982" y1="3.72106" x2="16.0733" y2="11.2233" gradientUnits="userSpaceOnUse">
<stop stop-color="#512D00"/>
<stop offset="1" stop-color="#A3541E"/>
</linearGradient>
<linearGradient id="paint2_linear" x1="12.0002" y1="22.5571" x2="12.0002" y2="1.43587" gradientUnits="userSpaceOnUse">
<stop stop-color="#FBB87A"/>
<stop offset="0.0925465" stop-color="#FBBA7E"/>
<stop offset="0.1895" stop-color="#FCC18B"/>
<stop offset="0.2884" stop-color="#FCCCA0"/>
<stop offset="0.3888" stop-color="#FDDCBD"/>
<stop offset="0.4893" stop-color="#FEF0E2"/>
<stop offset="0.5546" stop-color="white"/>
<stop offset="0.6639" stop-color="#FEF0E1"/>
<stop offset="0.802" stop-color="#FDDFC2"/>
<stop offset="0.9189" stop-color="#FCD6AF"/>
<stop offset="1" stop-color="#FCD2A8"/>
</linearGradient>
<linearGradient id="paint3_linear" x1="15.9315" y1="18.1164" x2="15.9315" y2="-1.58439" gradientUnits="userSpaceOnUse">
<stop stop-color="#FBB87A"/>
<stop offset="0.0948012" stop-color="#FCC695"/>
<stop offset="0.2764" stop-color="#FDDFC2"/>
<stop offset="0.4381" stop-color="#FEF0E3"/>
<stop offset="0.5722" stop-color="#FFFBF8"/>
<stop offset="0.6624" stop-color="white"/>
<stop offset="0.7499" stop-color="#FFFDFC"/>
<stop offset="0.8183" stop-color="#FFF8F2"/>
<stop offset="0.8803" stop-color="#FEF0E1"/>
<stop offset="0.9383" stop-color="#FDE4CA"/>
<stop offset="0.9933" stop-color="#FCD4AC"/>
<stop offset="1" stop-color="#FCD2A8"/>
</linearGradient>
<linearGradient id="paint4_linear" x1="8.06852" y1="18.1164" x2="8.06852" y2="-1.58439" gradientUnits="userSpaceOnUse">
<stop stop-color="#FBB87A"/>
<stop offset="0.0948012" stop-color="#FCC695"/>
<stop offset="0.2764" stop-color="#FDDFC2"/>
<stop offset="0.4381" stop-color="#FEF0E3"/>
<stop offset="0.5722" stop-color="#FFFBF8"/>
<stop offset="0.6624" stop-color="white"/>
<stop offset="0.7499" stop-color="#FFFDFC"/>
<stop offset="0.8183" stop-color="#FFF8F2"/>
<stop offset="0.8803" stop-color="#FEF0E1"/>
<stop offset="0.9383" stop-color="#FDE4CA"/>
<stop offset="0.9933" stop-color="#FCD4AC"/>
<stop offset="1" stop-color="#FCD2A8"/>
</linearGradient>
<radialGradient id="paint5_radial" cx="0" cy="0" r="1" gradientUnits="userSpaceOnUse" gradientTransform="translate(8.02543 10.6487) rotate(94.4983) scale(6.50227 4.64578)">
<stop stop-color="#E89043"/>
<stop offset="0.0352166" stop-color="#E38C40"/>
<stop offset="0.2763" stop-color="#C77331"/>
<stop offset="0.5183" stop-color="#B36227"/>
<stop offset="0.7597" stop-color="#A75720"/>
<stop offset="1" stop-color="#A3541E"/>
</radialGradient>
<linearGradient id="paint6_linear" x1="12.0002" y1="17.0991" x2="12.0002" y2="20.396" gradientUnits="userSpaceOnUse">
<stop stop-color="#FBE07A"/>
<stop offset="1" stop-color="white"/>
</linearGradient>
<linearGradient id="paint7_linear" x1="12.0001" y1="18.1167" x2="12.0001" y2="20.7736" gradientUnits="userSpaceOnUse">
<stop stop-color="#FCD2A8"/>
<stop offset="1" stop-color="white"/>
</linearGradient>
<linearGradient id="paint8_linear" x1="11.9899" y1="18.5645" x2="12.6012" y2="21.9061" gradientUnits="userSpaceOnUse">
<stop stop-color="#FF6688"/>
<stop offset="1" stop-color="#FB9C9C"/>
</linearGradient>
<linearGradient id="paint9_linear" x1="12.1831" y1="19.4935" x2="11.5174" y2="16.1788" gradientUnits="userSpaceOnUse">
<stop stop-color="#FF6688"/>
<stop offset="1" stop-color="#B30B0B"/>
</linearGradient>
<linearGradient id="paint10_linear" x1="12.2914" y1="19.4712" x2="11.6258" y2="16.1568" gradientUnits="userSpaceOnUse">
<stop stop-color="#FF6688"/>
<stop offset="1" stop-color="#B30B0B"/>
</linearGradient>
<linearGradient id="paint11_linear" x1="12.0001" y1="23.7029" x2="12.0001" y2="16.1487" gradientUnits="userSpaceOnUse">
<stop stop-color="#FBE07A"/>
<stop offset="1" stop-color="white"/>
</linearGradient>
<linearGradient id="paint12_linear" x1="12.0001" y1="21.6688" x2="12.0001" y2="15.3772" gradientUnits="userSpaceOnUse">
<stop stop-color="#FCD2A8"/>
<stop offset="1" stop-color="white"/>
</linearGradient>
<radialGradient id="paint13_radial" cx="0" cy="0" r="1" gradientUnits="userSpaceOnUse" gradientTransform="translate(577.735 9.85879) rotate(90) scale(1.33148 1.08036)">
<stop stop-color="#512D00"/>
<stop offset="1" stop-color="#3C2200"/>
</radialGradient>
<linearGradient id="paint14_linear" x1="14.7718" y1="9.75963" x2="14.8458" y2="17.4568" gradientUnits="userSpaceOnUse">
<stop stop-color="#FBB87A"/>
<stop offset="0.5" stop-color="white"/>
<stop offset="1" stop-color="#FCD2A8"/>
</linearGradient>
<linearGradient id="paint15_linear" x1="15.1923" y1="9.75528" x2="15.2663" y2="17.4527" gradientUnits="userSpaceOnUse">
<stop stop-color="#FBB87A"/>
<stop offset="0.5" stop-color="white"/>
<stop offset="1" stop-color="#FCD2A8"/>
</linearGradient>
<linearGradient id="paint16_linear" x1="15.5904" y1="9.75138" x2="15.6644" y2="17.4486" gradientUnits="userSpaceOnUse">
<stop stop-color="#FBB87A"/>
<stop offset="0.5" stop-color="white"/>
<stop offset="1" stop-color="#FCD2A8"/>
</linearGradient>
<radialGradient id="paint17_radial" cx="0" cy="0" r="1" gradientUnits="userSpaceOnUse" gradientTransform="translate(8.73848 9.85879) rotate(90) scale(1.33148 1.08036)">
<stop stop-color="#512D00"/>
<stop offset="1" stop-color="#3C2200"/>
</radialGradient>
<linearGradient id="paint18_linear" x1="15.442" y1="10.0374" x2="15.9107" y2="11.0563" gradientUnits="userSpaceOnUse">
<stop stop-color="#A3541E"/>
<stop offset="1" stop-color="#512D00"/>
</linearGradient>
<linearGradient id="paint19_linear" x1="7.77289" y1="10.0374" x2="8.24158" y2="11.0563" gradientUnits="userSpaceOnUse">
<stop stop-color="#A3541E"/>
<stop offset="1" stop-color="#512D00"/>
</linearGradient>
<linearGradient id="paint20_linear" x1="9.22877" y1="9.76668" x2="9.15476" y2="17.4639" gradientUnits="userSpaceOnUse">
<stop stop-color="#FBB87A"/>
<stop offset="0.5" stop-color="white"/>
<stop offset="1" stop-color="#FCD2A8"/>
</linearGradient>
<linearGradient id="paint21_linear" x1="8.80851" y1="9.76259" x2="8.73449" y2="17.4601" gradientUnits="userSpaceOnUse">
<stop stop-color="#FBB87A"/>
<stop offset="0.5" stop-color="white"/>
<stop offset="1" stop-color="#FCD2A8"/>
</linearGradient>
<linearGradient id="paint22_linear" x1="8.41014" y1="9.75855" x2="8.33613" y2="17.4561" gradientUnits="userSpaceOnUse">
<stop stop-color="#FBB87A"/>
<stop offset="0.5" stop-color="white"/>
<stop offset="1" stop-color="#FCD2A8"/>
</linearGradient>
<linearGradient id="paint23_linear" x1="11.9978" y1="16.3386" x2="11.3065" y2="13.5267" gradientUnits="userSpaceOnUse">
<stop stop-color="#3C2200"/>
<stop offset="1" stop-color="#512D00"/>
</linearGradient>
<linearGradient id="paint24_linear" x1="11.293" y1="13.2511" x2="12.0307" y2="15.2797" gradientUnits="userSpaceOnUse">
<stop stop-color="#643800"/>
<stop offset="1" stop-color="#512D00"/>
</linearGradient>
<linearGradient id="paint25_linear" x1="4.64741" y1="1.29027" x2="6.37462" y2="11.6782" gradientUnits="userSpaceOnUse">
<stop stop-color="#643800"/>
<stop offset="1" stop-color="#A3541E"/>
</linearGradient>
<linearGradient id="paint26_linear" x1="7.57547" y1="4.74026" x2="6.98279" y2="2.82938" gradientUnits="userSpaceOnUse">
<stop stop-color="#512D00"/>
<stop offset="1" stop-color="#3C2200"/>
</linearGradient>
<linearGradient id="paint27_linear" x1="7.75808" y1="8.96498" x2="3.00111" y2="4.75026" gradientUnits="userSpaceOnUse">
<stop stop-color="#E89043"/>
<stop offset="1" stop-color="#A3541E"/>
</linearGradient>
<linearGradient id="paint28_linear" x1="3.50022" y1="0.385142" x2="5.1498" y2="4.77154" gradientUnits="userSpaceOnUse">
<stop stop-color="#FBB87A"/>
<stop offset="1" stop-color="#A3541E"/>
</linearGradient>
<linearGradient id="paint29_linear" x1="12.4274" y1="14.6562" x2="28.7249" y2="-1.63807" gradientUnits="userSpaceOnUse">
<stop stop-color="#FBB87A"/>
<stop offset="0.6624" stop-color="white"/>
<stop offset="0.7499" stop-color="#FFFDFC"/>
<stop offset="0.8183" stop-color="#FFF8F2"/>
<stop offset="0.8803" stop-color="#FEF0E1"/>
<stop offset="0.9383" stop-color="#FDE4CA"/>
<stop offset="0.9933" stop-color="#FCD4AC"/>
<stop offset="1" stop-color="#FCD2A8"/>
</linearGradient>
<linearGradient id="paint30_linear" x1="16.4249" y1="4.74026" x2="17.0175" y2="2.82938" gradientUnits="userSpaceOnUse">
<stop stop-color="#512D00"/>
<stop offset="1" stop-color="#3C2200"/>
</linearGradient>
<linearGradient id="paint31_linear" x1="16.2422" y1="8.96498" x2="20.9991" y2="4.75027" gradientUnits="userSpaceOnUse">
<stop stop-color="#E89043"/>
<stop offset="1" stop-color="#A3541E"/>
</linearGradient>
<linearGradient id="paint32_linear" x1="20.5001" y1="0.385142" x2="18.8505" y2="4.77154" gradientUnits="userSpaceOnUse">
<stop stop-color="#FBB87A"/>
<stop offset="1" stop-color="#A3541E"/>
</linearGradient>
<linearGradient id="paint33_linear" x1="0.289237" y1="10.0214" x2="3.49795" y2="13.1314" gradientUnits="userSpaceOnUse">
<stop stop-color="#643800"/>
<stop offset="1" stop-color="#A3541E"/>
</linearGradient>
</defs>
</svg>
