<svg width="80" height="80" viewBox="0 0 80 80" fill="none" xmlns="http://www.w3.org/2000/svg">
<path d="M40.0001 70.4762C56.8316 70.4762 70.4763 56.8315 70.4763 40C70.4763 23.1685 56.8316 9.5238 40.0001 9.5238C23.1686 9.5238 9.52393 23.1685 9.52393 40C9.52393 56.8315 23.1686 70.4762 40.0001 70.4762Z" fill="url(#paint0_radial)"/>
<path opacity="0.5" d="M40.0001 70.4762C56.8316 70.4762 70.4763 56.8315 70.4763 40C70.4763 23.1685 56.8316 9.5238 40.0001 9.5238C23.1686 9.5238 9.52393 23.1685 9.52393 40C9.52393 56.8315 23.1686 70.4762 40.0001 70.4762Z" fill="url(#paint1_radial)"/>
<path opacity="0.5" d="M40.0001 70.4762C56.8316 70.4762 70.4763 56.8315 70.4763 40C70.4763 23.1685 56.8316 9.5238 40.0001 9.5238C23.1686 9.5238 9.52393 23.1685 9.52393 40C9.52393 56.8315 23.1686 70.4762 40.0001 70.4762Z" fill="url(#paint2_radial)"/>
<path d="M31.4856 26.1143C31.0094 24.9905 29.4856 24.8191 27.4094 25.7143C25.638 26.4762 22.1713 29.1238 20.9713 33.7333C20.7428 34.5905 21.6571 34.6095 21.9618 33.981C23.0094 31.8667 26.6475 28.1714 30.2666 27.0667C31.7142 26.6095 31.4856 26.1143 31.4856 26.1143Z" fill="url(#paint3_linear)"/>
<path d="M30.0571 43.3903C31.6772 43.3903 32.9905 41.4033 32.9905 38.9522C32.9905 36.5011 31.6772 34.5141 30.0571 34.5141C28.4371 34.5141 27.1238 36.5011 27.1238 38.9522C27.1238 41.4033 28.4371 43.3903 30.0571 43.3903Z" fill="url(#paint4_radial)"/>
<path d="M30.0571 36.0189C31.3143 36.0189 32.419 37.1236 32.9905 38.7427C32.9524 36.3427 31.6571 34.4189 30.0571 34.4189C28.4571 34.4189 27.1619 36.3427 27.1238 38.7427C27.6952 37.1236 28.7809 36.0189 30.0571 36.0189Z" fill="url(#paint5_linear)"/>
<path d="M45.8857 30.019C45.7524 28.8 46.9905 27.9047 49.2572 27.6762C51.181 27.4857 55.5048 28.0952 58.8 31.5238C59.4095 32.1524 58.6286 32.6285 58.0572 32.2285C56.1143 30.8952 51.1238 29.4476 47.4286 30.2285C45.9429 30.5714 45.8857 30.019 45.8857 30.019Z" fill="url(#paint6_linear)"/>
<path d="M37.7334 62.5335C40.8953 61.9811 43.8858 61.0288 43.8858 59.4859C43.8858 57.9621 39.4096 56.5716 39.4096 55.6573C39.4096 54.7621 43.8858 53.3716 43.8858 51.8288C43.8858 50.3049 40.8953 49.3335 37.7334 48.7811C37.7334 48.7811 52.0191 47.9621 52.0191 55.6383C52.0191 63.3145 37.7334 62.5335 37.7334 62.5335Z" fill="url(#paint7_radial)"/>
<path d="M51.2383 36.076C51.2383 36.076 55.6954 36.3617 57.0478 39.676C57.124 39.8855 57.1811 40.1141 57.1811 40.3236C57.2002 40.7807 56.8002 41.2569 56.0002 40.8569C51.0288 38.3617 48.2668 39.7141 46.2097 40.6855C45.4097 41.0665 44.6478 40.2665 44.8764 39.5236C44.9335 39.3141 44.9716 39.0855 45.0859 38.895C46.7811 35.7522 51.2383 36.076 51.2383 36.076Z" fill="url(#paint8_radial)"/>
<path d="M51.1812 37.1239C51.1812 37.1239 54.8193 37.3525 57.1622 40.0382C57.1431 39.9048 57.105 39.7715 57.0479 39.6572C55.6955 36.3429 51.2384 36.0572 51.2384 36.0572C51.2384 36.0572 46.7812 35.7525 45.086 38.8572C45.0288 38.9715 44.9717 39.1048 44.9336 39.2191C47.5622 36.8763 51.1812 37.1239 51.1812 37.1239Z" fill="url(#paint9_linear)"/>
<g opacity="0.75">
<path opacity="0.75" d="M39.4096 55.676C39.4096 54.7808 43.8858 53.3903 43.8858 51.8474C43.8858 50.3236 40.8953 49.3522 37.7334 48.7998" fill="url(#paint10_radial)"/>
<path opacity="0.75" d="M39.4096 55.6759C39.4096 56.5711 43.8858 57.9616 43.8858 59.5045C43.8858 61.0283 40.8953 61.9997 37.7334 62.5521" fill="url(#paint11_radial)"/>
</g>
<path d="M37.6956 62.3429C38.7813 62.1144 39.848 61.8477 40.8765 61.4858C41.3908 61.2953 41.8861 61.0858 42.3432 60.8382C42.8003 60.5906 43.2194 60.2667 43.4099 59.8858C43.448 59.7906 43.4861 59.6953 43.4861 59.6001C43.4861 59.562 43.4861 59.5048 43.4861 59.4668C43.4861 59.4477 43.4861 59.4287 43.4861 59.4096L43.467 59.3525C43.4289 59.2001 43.2765 59.0096 43.1051 58.8382C42.7432 58.4953 42.2861 58.2096 41.8289 57.9429C41.3527 57.6763 40.8765 57.4096 40.3813 57.1239C40.1337 56.9715 39.8861 56.8382 39.6384 56.6477C39.5242 56.5525 39.3908 56.4572 39.2575 56.3239L39.1622 56.2096C39.1242 56.1715 39.1051 56.1144 39.067 56.0763C39.0289 56.0382 39.0099 55.962 38.9908 55.9048C38.9718 55.8477 38.9527 55.7334 38.9527 55.6572C38.9527 55.581 38.9718 55.4858 38.9908 55.4096C39.0099 55.3525 39.048 55.2763 39.067 55.2191C39.1051 55.181 39.1242 55.1239 39.1622 55.0858L39.2575 54.9715C39.3908 54.8382 39.5051 54.7429 39.6384 54.6477C39.8861 54.4572 40.1337 54.3048 40.3813 54.1715C40.8765 53.8858 41.3527 53.6191 41.8099 53.3334C42.6861 52.8001 43.7527 52.0572 43.3146 51.4858C43.1432 51.1429 42.7241 50.8382 42.2861 50.5906C41.8289 50.3429 41.3337 50.1334 40.8384 49.9429C39.8289 49.562 38.7622 49.2763 37.6956 48.9906C37.6003 48.9715 37.5432 48.8572 37.5622 48.762C37.5813 48.6667 37.6765 48.6096 37.7527 48.6286C38.8765 48.7239 39.9813 48.8953 41.0861 49.2001C41.6384 49.3525 42.1718 49.5429 42.7051 49.8096C42.9718 49.9429 43.2384 50.0953 43.4861 50.3048C43.7337 50.4953 43.9813 50.7429 44.1527 51.0667C44.2289 51.2382 44.3051 51.4096 44.3432 51.6001C44.3622 51.6953 44.3622 51.7906 44.3622 51.9048C44.3622 51.962 44.3622 52.0191 44.3432 52.0763C44.3242 52.1334 44.3242 52.1715 44.3051 52.2287C44.2861 52.3239 44.2289 52.4191 44.1908 52.5144C44.1527 52.5906 44.0956 52.6858 44.0575 52.7429C44.0003 52.8191 43.9622 52.8763 43.9051 52.9525C43.848 53.0096 43.7908 53.0667 43.7337 53.1239C43.2765 53.562 42.7813 53.8667 42.3051 54.1715C41.8099 54.4572 41.3337 54.7239 40.8575 55.0096C40.6289 55.1429 40.4003 55.2763 40.1908 55.4287C40.0956 55.5048 40.0003 55.581 39.9241 55.6382L39.8861 55.6763C39.867 55.6953 39.867 55.6953 39.867 55.7144C39.848 55.7334 39.867 55.7144 39.867 55.7144C39.867 55.7144 39.8861 55.6953 39.867 55.6763C39.867 55.6572 39.867 55.6382 39.867 55.6382C39.8861 55.6572 39.867 55.6572 39.8861 55.6763L39.9241 55.7334C40.0003 55.8096 40.0765 55.8858 40.1908 55.962C40.3813 56.1144 40.6099 56.2477 40.8575 56.4001C41.3146 56.6858 41.8099 56.9525 42.2861 57.2572C42.7622 57.562 43.2575 57.8668 43.6956 58.3239C43.8099 58.4382 43.9051 58.5525 44.0003 58.7048C44.0575 58.762 44.0956 58.8572 44.1337 58.9334C44.1718 59.0287 44.2099 59.1048 44.2289 59.2001C44.3432 59.6001 44.248 59.962 44.0765 60.2858C43.9051 60.5906 43.6765 60.8191 43.4289 61.0096C43.1813 61.2001 42.9337 61.3525 42.667 61.4858C42.1527 61.7525 41.6003 61.9429 41.067 62.0953C39.9813 62.4191 38.8765 62.6287 37.7718 62.781C37.6765 62.8001 37.5622 62.7239 37.5622 62.6096C37.5432 62.4572 37.6003 62.362 37.6956 62.3429Z" fill="#A3541E"/>
<path d="M64.9525 46.705C62.8382 46.0002 60.6096 46.4573 58.9525 47.7145C58.381 45.7145 56.8572 44.0383 54.7429 43.3335C51.3334 42.2097 47.6382 44.0573 46.5144 47.4669C44.0191 55.0097 53.0667 65.5049 53.0667 65.5049C53.0667 65.5049 66.5905 62.4573 69.0858 54.9145C70.2096 51.524 68.362 47.8478 64.9525 46.705Z" fill="url(#paint12_radial)"/>
<path opacity="0.5" d="M67.3333 48.1146C68.9333 54.6289 63.4857 60.686 59.0667 61.4479C54.1905 62.3051 51.7143 60.3241 46.9714 55.067C48.8381 60.5908 53.0857 65.5241 53.0857 65.5241C53.0857 65.5241 66.6095 62.4765 69.1047 54.9337C69.9238 52.4384 69.1428 49.7908 67.3333 48.1146Z" fill="url(#paint13_radial)"/>
<path opacity="0.5" d="M64.9525 46.705C62.8382 46.0002 60.6096 46.4573 58.9525 47.7145C58.381 45.7145 56.8572 44.0383 54.7429 43.3335C51.3334 42.2097 47.6382 44.0573 46.5144 47.4669C44.0191 55.0097 53.0667 65.5049 53.0667 65.5049C53.0667 65.5049 66.5905 62.4573 69.0858 54.9145C70.2096 51.524 68.362 47.8478 64.9525 46.705Z" fill="url(#paint14_radial)"/>
<path opacity="0.5" d="M64.9525 46.705C62.8382 46.0002 60.6096 46.4573 58.9525 47.7145C58.381 45.7145 56.8572 44.0383 54.7429 43.3335C51.3334 42.2097 47.6382 44.0573 46.5144 47.4669C44.0191 55.0097 53.0667 65.5049 53.0667 65.5049C53.0667 65.5049 66.5905 62.4573 69.0858 54.9145C70.2096 51.524 68.362 47.8478 64.9525 46.705Z" fill="url(#paint15_radial)"/>
<path opacity="0.24" d="M57.4668 47.0287C57.6002 48.6858 55.5811 50.2096 52.9335 50.4382C50.2859 50.6477 48.0383 49.4858 47.9049 47.8287C47.7716 46.1715 49.7906 44.6477 52.4383 44.4191C55.0859 44.1906 57.3335 45.3525 57.4668 47.0287Z" fill="url(#paint16_radial)"/>
<path opacity="0.24" d="M65.4285 48.3431C65.9809 49.6003 64.8 51.3527 62.8 52.2288C60.7809 53.1241 58.7047 52.8003 58.1523 51.5431C57.6 50.286 58.7809 48.5336 60.7809 47.6574C62.7809 46.7812 64.8761 47.086 65.4285 48.3431Z" fill="url(#paint17_radial)"/>
<path opacity="0.32" d="M64.5146 48.3811C67.2765 50.4573 68.705 56.0382 61.8098 60.0954C57.6765 62.5335 53.8479 63.1621 49.905 61.124C51.5431 63.7525 53.0669 65.524 53.0669 65.524C53.0669 65.524 66.5908 62.4763 69.086 54.9335C70.2098 51.524 68.3622 47.8287 64.9527 46.7049C62.8384 46.0001 60.6098 46.4573 58.9527 47.7144C58.9527 47.7144 62.4955 46.8573 64.5146 48.3811Z" fill="url(#paint18_linear)"/>
<defs>
<radialGradient id="paint0_radial" cx="0" cy="0" r="1" gradientUnits="userSpaceOnUse" gradientTransform="translate(34.0039 27.649) scale(36.7656)">
<stop stop-color="#FFE030"/>
<stop offset="1" stop-color="#FFB92E"/>
</radialGradient>
<radialGradient id="paint1_radial" cx="0" cy="0" r="1" gradientUnits="userSpaceOnUse" gradientTransform="translate(34.0039 27.649) scale(28.9251)">
<stop stop-color="#FFEA5F"/>
<stop offset="1" stop-color="#FFBC47" stop-opacity="0"/>
</radialGradient>
<radialGradient id="paint2_radial" cx="0" cy="0" r="1" gradientUnits="userSpaceOnUse" gradientTransform="translate(23.4118 47.5816) rotate(-2.7703) scale(12.819 10.143)">
<stop stop-color="#FF4C00"/>
<stop offset="0.1542" stop-color="#FF4C00"/>
<stop offset="0.1795" stop-color="#FF4C00"/>
<stop offset="0.3996" stop-color="#FB4C0B" stop-opacity="0.7318"/>
<stop offset="0.7799" stop-color="#EF4B27" stop-opacity="0.2683"/>
<stop offset="1" stop-color="#E74A3A" stop-opacity="0"/>
</radialGradient>
<linearGradient id="paint3_linear" x1="26.3914" y1="30.5303" x2="25.1216" y2="27.5807" gradientUnits="userSpaceOnUse">
<stop offset="0.00132565" stop-color="#3C2200"/>
<stop offset="1" stop-color="#7A4400"/>
</linearGradient>
<radialGradient id="paint4_radial" cx="0" cy="0" r="1" gradientUnits="userSpaceOnUse" gradientTransform="translate(29.1596 39.0692) rotate(73.8539) scale(4.30607 2.78596)">
<stop offset="0.00132565" stop-color="#7A4400"/>
<stop offset="1" stop-color="#643800"/>
</radialGradient>
<linearGradient id="paint5_linear" x1="30.0499" y1="34.4969" x2="30.0499" y2="38.633" gradientUnits="userSpaceOnUse">
<stop offset="0.00132565" stop-color="#3C2200"/>
<stop offset="1" stop-color="#512D00"/>
</linearGradient>
<linearGradient id="paint6_linear" x1="52.4975" y1="31.3874" x2="52.1664" y2="28.1931" gradientUnits="userSpaceOnUse">
<stop offset="0.00132565" stop-color="#3C2200"/>
<stop offset="1" stop-color="#7A4400"/>
</linearGradient>
<radialGradient id="paint7_radial" cx="0" cy="0" r="1" gradientUnits="userSpaceOnUse" gradientTransform="translate(40.8192 55.7416) rotate(89.1886) scale(7.55468 5.53813)">
<stop stop-color="#7A4400" stop-opacity="0.5"/>
<stop offset="0.5833" stop-color="#894D00" stop-opacity="0.2069"/>
<stop offset="0.995" stop-color="#975500" stop-opacity="0"/>
</radialGradient>
<radialGradient id="paint8_radial" cx="0" cy="0" r="1" gradientUnits="userSpaceOnUse" gradientTransform="translate(51.0978 38.5742) rotate(3.76366) scale(4.79752 2.31458)">
<stop offset="0.00132565" stop-color="#7A4400"/>
<stop offset="1" stop-color="#643800"/>
</radialGradient>
<linearGradient id="paint9_linear" x1="51.3474" y1="34.6671" x2="51.1616" y2="37.7609" gradientUnits="userSpaceOnUse">
<stop offset="0.00132565" stop-color="#3C2200"/>
<stop offset="1" stop-color="#512D00"/>
</linearGradient>
<radialGradient id="paint10_radial" cx="0" cy="0" r="1" gradientUnits="userSpaceOnUse" gradientTransform="translate(41.4734 51.8688) scale(3.57558 2.34343)">
<stop stop-color="white" stop-opacity="0.75"/>
<stop offset="1" stop-color="white" stop-opacity="0"/>
</radialGradient>
<radialGradient id="paint11_radial" cx="0" cy="0" r="1" gradientUnits="userSpaceOnUse" gradientTransform="translate(41.4734 59.4992) scale(3.5756 2.34345)">
<stop stop-color="white" stop-opacity="0.75"/>
<stop offset="1" stop-color="white" stop-opacity="0"/>
</radialGradient>
<radialGradient id="paint12_radial" cx="0" cy="0" r="1" gradientUnits="userSpaceOnUse" gradientTransform="translate(54.7447 49.6948) rotate(-11.1084) scale(18.5989 14.7535)">
<stop offset="0.2479" stop-color="#FF0000"/>
<stop offset="0.8639" stop-color="#C20000"/>
</radialGradient>
<radialGradient id="paint13_radial" cx="0" cy="0" r="1" gradientUnits="userSpaceOnUse" gradientTransform="translate(55.5396 48.7562) rotate(-11.1085) scale(16.013 12.7023)">
<stop offset="0.2479" stop-color="#FF0000"/>
<stop offset="1" stop-color="#C20000"/>
</radialGradient>
<radialGradient id="paint14_radial" cx="0" cy="0" r="1" gradientUnits="userSpaceOnUse" gradientTransform="translate(54.7447 49.6948) rotate(-11.1084) scale(18.5989 14.7535)">
<stop stop-color="white" stop-opacity="0.25"/>
<stop offset="1" stop-color="white" stop-opacity="0"/>
</radialGradient>
<radialGradient id="paint15_radial" cx="0" cy="0" r="1" gradientUnits="userSpaceOnUse" gradientTransform="translate(59.094 57.7852) rotate(-7.99221) scale(13.5764 6.70854)">
<stop stop-color="#BD2719" stop-opacity="0.25"/>
<stop offset="1" stop-color="#BD2719" stop-opacity="0"/>
</radialGradient>
<radialGradient id="paint16_radial" cx="0" cy="0" r="1" gradientUnits="userSpaceOnUse" gradientTransform="translate(52.6833 47.4388) rotate(-3.39026) scale(4.82631 2.99829)">
<stop stop-color="white"/>
<stop offset="1" stop-color="white" stop-opacity="0"/>
</radialGradient>
<radialGradient id="paint17_radial" cx="0" cy="0" r="1" gradientUnits="userSpaceOnUse" gradientTransform="translate(61.7519 49.9228) rotate(-22.4563) scale(3.99593 2.48222)">
<stop stop-color="white"/>
<stop offset="1" stop-color="white" stop-opacity="0"/>
</radialGradient>
<linearGradient id="paint18_linear" x1="52.749" y1="74.3603" x2="64.6855" y2="45.6031" gradientUnits="userSpaceOnUse">
<stop stop-color="#860805"/>
<stop offset="1" stop-color="#BD2719" stop-opacity="0"/>
</linearGradient>
</defs>
</svg>
