<svg width="80" height="80" viewBox="0 0 80 80" fill="none" xmlns="http://www.w3.org/2000/svg">
<path d="M23.5427 55.228C24.7139 54.8252 26.5192 56.9872 27.5654 60.0566C28.6162 63.1261 28.5144 65.9362 27.3432 66.339" fill="#B23E22"/>
<path d="M27.3383 66.3348C26.1672 66.7376 24.362 64.5755 23.3159 61.5061C22.2651 58.4366 22.367 55.6264 23.538 55.2236" fill="#B23E22"/>
<path d="M56.066 55.2275C54.8949 54.8247 53.0896 56.9867 52.0434 60.0562C50.9926 63.1256 51.0945 65.9357 52.2657 66.3385" fill="#B23E22"/>
<path d="M52.2659 66.3338C53.437 66.7366 55.2424 64.5746 56.2885 61.5051C57.3393 58.4356 57.2375 55.6254 56.0663 55.2227" fill="#B23E22"/>
<path d="M38.7073 13.5005H40.8413L42.7577 50.7505L36.2771 50.607L36.4252 21.732L38.7073 13.5005Z" fill="#A1541E"/>
<path d="M39.2765 16.7271C39.8366 13.528 40.6421 8.03729 36.1381 8.00025C31.6341 7.96321 32.5182 12.0188 31.9535 16.1345C31.3888 20.2503 29.7085 30.2364 28.9262 32.8244C28.1439 35.4124 26.5145 38.9124 25.8479 45.8522C25.186 52.792 24.3157 53.5281 23.302 55.8198L33.1663 57.0513L39.2765 16.7271Z" fill="url(#paint0_linear)"/>
<path d="M39.2765 16.7271C39.8366 13.528 40.6421 8.03729 36.1381 8.00025C31.6341 7.96321 32.5182 12.0188 31.9535 16.1345C31.3888 20.2503 29.7085 30.2364 28.9262 32.8244C28.1439 35.4124 26.5145 38.9124 25.8479 45.8522C25.186 52.792 26.2321 51.9494 23.302 55.8198L33.1663 57.0513L39.2765 16.7271Z" fill="url(#paint1_linear)"/>
<path d="M36.1383 8.00488C35.9994 8.00488 35.8606 8.00489 35.731 8.01415C38.1382 9.37063 38.7724 13.0882 37.4901 23.7039C37.2679 25.5512 37.2818 27.1854 37.4669 28.6299L39.2723 16.7271C39.8371 13.528 40.6426 8.03729 36.1383 8.00488Z" fill="url(#paint2_radial)"/>
<path d="M29.9771 35.1298C31.5602 27.741 32.8656 16.6068 33.1155 13.8614C33.3655 11.1161 33.9904 9.44013 36.4299 9.45865C38.8694 9.47717 40.5729 11.1022 39.3786 20.4771C38.1843 29.8521 38.2769 37.102 38.2769 37.102L33.0044 37.3752C31.5926 37.4446 30.3196 36.5048 29.9771 35.1298Z" fill="url(#paint3_linear)"/>
<path d="M29.9771 35.1298C31.5602 27.741 32.8656 16.6068 33.1155 13.8614C33.3655 11.1161 33.9904 9.44013 36.4299 9.45865C38.8694 9.47717 40.5729 11.1022 39.3786 20.4771C38.1843 29.8521 38.2769 37.102 38.2769 37.102L33.0044 37.3752C31.5926 37.4446 30.3196 36.5048 29.9771 35.1298Z" fill="url(#paint4_linear)"/>
<path d="M33.9349 10.6533C33.4581 11.4126 33.2405 12.5052 33.1201 13.857C32.8841 16.4635 31.6944 26.6302 30.2178 33.9774C30.315 33.9357 30.4168 33.7413 30.5279 33.3709C31.9583 28.6255 33.0924 19.107 33.2359 17.0098C33.3192 15.7505 33.2683 12.6348 33.9349 10.6533Z" fill="url(#paint5_radial)"/>
<path d="M39.3787 20.4772C40.2489 13.6532 39.5823 10.9356 38.2121 9.9541C38.5454 11.4634 38.5871 14.3569 38.3603 16.0884C37.9483 19.2226 34.2681 19.3106 34.2681 19.3106C33.8515 24.7504 36.3651 32.8985 36.18 36.1809C36.1522 36.6671 36.2864 36.9911 36.541 37.1902L38.277 37.1022C38.2816 37.1022 38.1844 29.8476 39.3787 20.4772Z" fill="url(#paint6_radial)"/>
<path d="M31.7221 36.2876C34.6106 28.0654 32.1711 17.5932 36.2909 17.6256C40.1839 17.6533 39.9108 23.1487 39.2627 27.8015C38.6147 32.4543 38.3647 35.3524 38.735 36.9543C39.1053 38.5608 41.0958 53.7182 38.2629 58.4728C34.5504 64.7043 27.5607 63.7089 26.01 66.5284L24.9268 66.1811C21.4504 65.07 21.705 57.4172 23.2974 55.8246L29.8335 53.1395L31.7221 36.2876Z" fill="url(#paint7_linear)"/>
<path d="M26.0146 66.5278C27.5653 63.7084 34.5551 64.6991 38.2675 58.4722C41.1004 53.713 39.11 38.5602 38.7397 36.9537C38.3694 35.3472 38.6239 32.4491 39.2673 27.8009C39.9154 23.1481 40.1839 17.6574 36.2956 17.625C36.2956 17.625 38.6286 20.0694 38.1472 25.037C37.6658 30.0046 37.2352 33.1481 37.7166 37.6296C38.3369 43.3796 38.61 53.6574 35.3651 57.6111C32.1202 61.5648 25.2462 58.7732 25.4638 66.3519L26.0146 66.5278Z" fill="url(#paint8_linear)"/>
<path d="M31.7222 36.2876C34.6107 28.0654 32.1712 17.5932 36.2911 17.6256C40.1841 17.6533 39.911 23.1487 39.2629 27.8015C38.6148 32.4543 38.3649 35.3524 38.7352 36.9543C39.1055 38.5608 41.096 53.7182 38.2631 58.4728C34.5506 64.7043 27.5607 63.7089 26.01 66.5284L24.9268 66.1811C21.4504 65.07 21.779 58.6209 23.2974 55.8246L29.8336 53.1395L31.7222 36.2876Z" fill="url(#paint9_linear)"/>
<path d="M31.8701 36.7544C32.2034 36.2591 33.6059 33.4535 33.9391 26.3841C34.203 20.773 34.7075 19.5507 34.5779 18.6479C32.9116 21.4628 34.0549 29.56 31.7498 36.2081C31.7313 36.6757 31.7637 36.9072 31.8701 36.7544Z" fill="url(#paint10_radial)"/>
<path d="M26.0144 66.5278C27.5652 63.7084 34.5551 64.6991 38.2676 58.4722C41.1006 53.713 39.1101 38.5602 38.7398 36.9537C38.3694 35.3472 38.624 32.4491 39.2674 27.8009C39.9155 23.1481 40.184 17.6574 36.2956 17.625C36.2956 17.625 38.9249 19.2176 38.1473 25.037C37.4853 29.9861 37.2353 33.1481 37.7167 37.6296C38.337 43.3796 38.6101 53.6574 35.3652 57.6111C32.1202 61.5648 24.385 59.8241 25.4636 66.3519L26.0144 66.5278Z" fill="url(#paint11_linear)"/>
<path d="M33.2451 53.9634C26.5562 66.4588 30.7131 35.6623 27.9079 35.8707C27.1487 38.1809 26.2877 41.2689 25.848 45.8568C25.3804 50.7643 24.6953 53.6069 23.302 56.218C24.0658 59.056 25.9544 61.4587 28.5421 62.9541C30.8242 64.2736 35.1199 62.3523 38.2583 58.4911C38.263 58.4865 38.2676 58.4773 38.2722 58.4726C41.1052 53.7133 39.1147 38.5605 38.7444 36.954C36.9159 32.7179 35.5596 49.6439 33.2451 53.9634Z" fill="url(#paint12_linear)"/>
<path opacity="0.75" d="M38.74 36.9496C38.3697 35.3431 38.6242 32.445 39.2677 27.7968C39.7028 24.6672 39.9667 21.1533 38.9066 19.1857L39.2769 16.732C39.837 13.5329 40.6425 8.04217 36.1385 8.00513C31.6345 7.9681 32.5186 12.0237 31.9539 16.1394C31.3891 20.2551 29.7088 30.2413 28.9265 32.8292C28.1442 35.4172 26.5148 38.9172 25.8482 45.857C25.1863 52.7968 24.5614 53.2181 23.3023 55.8246C21.8905 58.8292 21.4553 65.07 24.9317 66.1811L26.0149 66.5283C27.5656 63.7089 34.5554 64.6996 38.2678 58.4727C41.1008 53.7135 39.1103 38.5561 38.74 36.9496Z" fill="url(#paint13_radial)"/>
<path d="M39.2675 27.7968C39.6193 25.269 39.8554 22.4959 39.3786 20.4866C39.7767 17.3801 39.8554 15.1255 39.6934 13.4959C39.8508 10.7644 39.3138 8.02828 36.1383 8.00513C31.6343 7.9681 32.5184 12.0237 31.9537 16.1394C31.3889 20.2551 29.7086 30.2412 28.9263 32.8292C28.144 35.4172 26.5146 38.9172 25.848 45.857C25.186 52.7968 24.2788 54.1208 23.302 55.8245C22.7836 57.5051 23.3113 59.9033 24.038 62.0005C24.774 64.1347 27.1071 65.2505 29.2411 64.5051C32.0324 63.5236 35.8467 62.5329 38.2677 58.4727C41.1006 53.7134 39.1101 38.5607 38.7398 36.9542C38.3695 35.3477 38.6194 32.4449 39.2675 27.7968Z" fill="url(#paint14_linear)"/>
<path d="M23.3853 55.3062C23.4875 55.255 23.5432 55.2271 23.5432 55.2271C23.4875 55.2457 23.4364 55.2736 23.3853 55.3062Z" fill="url(#paint15_radial)"/>
<path d="M23.3853 55.3062C23.4875 55.255 23.5432 55.2271 23.5432 55.2271C23.4875 55.2457 23.4364 55.2736 23.3853 55.3062Z" fill="url(#paint16_radial)"/>
<g opacity="0.5">
<path opacity="0.5" d="M25.8479 45.857C26.5099 38.9172 28.1393 35.4172 28.9262 32.8292C29.7086 30.2413 31.3889 20.2551 31.9536 16.1394C32.5184 12.0237 31.6342 7.9681 36.1383 8.00513C39.3092 8.02828 39.8462 10.7644 39.6934 13.4959C39.8554 15.1209 39.7767 17.3755 39.3786 20.4774C39.3786 20.482 39.3786 20.482 39.3786 20.4866C39.8554 22.5005 39.6193 25.2737 39.2675 27.7968C38.6195 32.4496 38.3695 35.3477 38.7398 36.9496C39.1102 38.5561 41.1007 53.7135 38.2677 58.4681C34.5552 64.6996 27.5653 63.7042 26.0146 66.5237C26.0146 66.5237 21.7373 59.1579 23.3019 55.82C23.9917 55.1394 25.186 52.7968 25.8479 45.857Z" fill="url(#paint17_linear)"/>
</g>
<path d="M40.3275 16.7271C39.7674 13.528 38.9619 8.03729 43.4659 8.00025C47.9699 7.96321 47.0857 12.0188 47.6505 16.1345C48.2152 20.2503 49.8955 30.2364 50.6778 32.8244C51.4601 35.4124 53.0895 38.9124 53.756 45.8522C54.418 52.792 55.2882 53.5281 56.3019 55.8198L46.4377 57.0513L40.3275 16.7271Z" fill="url(#paint18_linear)"/>
<path d="M40.3275 16.7271C39.7674 13.528 38.9619 8.03729 43.4659 8.00025C47.9699 7.96321 47.0857 12.0188 47.6505 16.1345C48.2152 20.2503 49.8955 30.2364 50.6778 32.8244C51.4601 35.4124 53.0895 38.9124 53.756 45.8522C54.418 52.792 53.3718 51.9494 56.3019 55.8198L46.4377 57.0513L40.3275 16.7271Z" fill="url(#paint19_linear)"/>
<path d="M43.466 8.00488C43.6049 8.00488 43.7437 8.00489 43.8734 8.01415C41.4662 9.37063 40.8321 13.0882 42.1143 23.7039C42.3365 25.5512 42.3226 27.1854 42.1375 28.6299L40.3321 16.7271C39.772 13.528 38.9665 8.03729 43.466 8.00488Z" fill="url(#paint20_radial)"/>
<path d="M49.6272 35.1298C48.0441 27.741 46.7386 16.6068 46.4887 13.8614C46.2387 11.1161 45.6138 9.44013 43.1743 9.45865C40.7348 9.47717 39.0313 11.1022 40.2256 20.4771C41.4199 29.8521 41.3273 37.102 41.3273 37.102L46.5998 37.3752C48.0116 37.4446 49.2846 36.5048 49.6272 35.1298Z" fill="url(#paint21_linear)"/>
<path d="M49.6272 35.1298C48.0441 27.741 46.7386 16.6068 46.4887 13.8614C46.2387 11.1161 45.6138 9.44013 43.1743 9.45865C40.7348 9.47717 39.0313 11.1022 40.2256 20.4771C41.4199 29.8521 41.3273 37.102 41.3273 37.102L46.5998 37.3752C48.0116 37.4446 49.2846 36.5048 49.6272 35.1298Z" fill="url(#paint22_linear)"/>
<path d="M45.6694 10.6533C46.1462 11.4126 46.3638 12.5052 46.4841 13.857C46.7202 16.4635 47.9098 26.6302 49.3865 33.9774C49.2892 33.9357 49.1874 33.7413 49.0763 33.3709C47.646 28.6255 46.5119 19.107 46.3684 17.0098C46.2851 15.7505 46.336 12.6348 45.6694 10.6533Z" fill="url(#paint23_radial)"/>
<path d="M40.2256 20.4772C39.3553 13.6532 40.0219 10.9356 41.3921 9.9541C41.0588 11.4634 41.0171 14.3569 41.244 16.0884C41.656 19.2226 45.3361 19.3106 45.3361 19.3106C45.7527 24.7504 43.2391 32.8985 43.4243 36.1809C43.4521 36.6671 43.3178 36.9911 43.0632 37.1902L41.3273 37.1022C41.3273 37.1022 41.4199 29.8476 40.2256 20.4772Z" fill="url(#paint24_radial)"/>
<path d="M47.882 36.2876C44.9935 28.0654 47.433 17.5932 43.3131 17.6256C39.4201 17.6533 39.6932 23.1487 40.3413 27.8015C40.9894 32.4543 41.2393 35.3524 40.869 36.9543C40.4987 38.5608 38.5082 53.7182 41.3412 58.4728C45.0537 64.7043 52.0435 63.7089 53.5942 66.5284L54.6774 66.1811C58.1538 65.07 57.8992 57.4172 56.3068 55.8246L49.7706 53.1395L47.882 36.2876Z" fill="url(#paint25_linear)"/>
<path d="M53.5894 66.5278C52.0387 63.7084 45.049 64.6991 41.3365 58.4722C38.5036 53.713 40.494 38.5602 40.8644 36.9537C41.2347 35.3472 40.9801 32.4491 40.3367 27.8009C39.6886 23.1481 39.4202 17.6574 43.3085 17.625C43.3085 17.625 40.9755 20.0694 41.4569 25.037C41.9383 30.0046 42.3688 33.1481 41.8874 37.6296C41.2671 43.3796 40.994 53.6574 44.2389 57.6111C47.4838 61.5648 54.3579 58.7732 54.1403 66.3519L53.5894 66.5278Z" fill="url(#paint26_linear)"/>
<path d="M47.882 36.2876C44.9935 28.0654 47.433 17.5932 43.3131 17.6256C39.4201 17.6533 39.6932 23.1487 40.3413 27.8015C40.9894 32.4543 41.2393 35.3524 40.869 36.9543C40.4987 38.5608 38.5082 53.7182 41.3412 58.4728C45.0537 64.7043 52.0435 63.7089 53.5942 66.5284L54.6775 66.1811C58.1539 65.07 57.8252 58.6209 56.3069 55.8246L49.7707 53.1395L47.882 36.2876Z" fill="url(#paint27_linear)"/>
<path d="M47.7339 36.7544C47.4006 36.2591 45.9981 33.4535 45.6648 26.3841C45.401 20.773 44.8964 19.5507 45.026 18.6479C46.6924 21.4628 45.5491 29.56 47.8542 36.2081C47.8727 36.6757 47.8403 36.9072 47.7339 36.7544Z" fill="url(#paint28_radial)"/>
<path d="M53.5894 66.5278C52.0387 63.7084 45.049 64.6991 41.3365 58.4722C38.5036 53.713 40.494 38.5602 40.8644 36.9537C41.2347 35.3472 40.9801 32.4491 40.3367 27.8009C39.6886 23.1481 39.4202 17.6574 43.3085 17.625C43.3085 17.625 40.6792 19.2176 41.4569 25.037C42.1189 29.9861 42.3688 33.1481 41.8874 37.6296C41.2671 43.3796 40.994 53.6574 44.2389 57.6111C47.4838 61.5648 55.2188 59.8287 54.1403 66.3519L53.5894 66.5278Z" fill="url(#paint29_linear)"/>
<path d="M46.359 53.9634C53.048 66.4588 48.8911 35.6623 51.6963 35.8707C52.4555 38.1809 53.3165 41.2689 53.7562 45.8568C54.2238 50.7643 54.9089 53.6069 56.3022 56.218C55.5384 59.056 53.6498 61.4587 51.0622 62.9541C48.78 64.2736 44.4843 62.3523 41.3458 58.4911C41.3412 58.4865 41.3365 58.4773 41.3319 58.4726C38.4989 53.7133 40.4894 38.5605 40.8597 36.954C42.6882 32.7179 44.0491 49.6439 46.359 53.9634Z" fill="url(#paint30_linear)"/>
<path opacity="0.75" d="M40.8645 36.9496C41.2348 35.3431 40.9803 32.445 40.3368 27.7968C39.9017 24.6672 39.6378 21.1533 40.6979 19.1857L40.3276 16.732C39.7674 13.5329 38.962 8.04217 43.4661 8.00513C47.9701 7.9681 47.086 12.0237 47.6508 16.1394C48.2155 20.2551 49.8958 30.2413 50.6781 32.8292C51.4604 35.4172 53.0899 38.9172 53.7565 45.857C54.4184 52.7968 55.0433 53.2181 56.3024 55.8246C57.7143 58.8292 58.1495 65.07 54.673 66.1811L53.5898 66.5283C52.0391 63.7089 45.0492 64.6996 41.3367 58.4727C38.5037 53.7135 40.4988 38.5561 40.8645 36.9496Z" fill="url(#paint31_radial)"/>
<path d="M40.3367 27.7968C39.9849 25.269 39.7488 22.4959 40.2256 20.4866C39.8275 17.3801 39.7488 15.1255 39.9108 13.4959C39.7534 10.7644 40.2904 8.02828 43.4659 8.00513C47.9699 7.9681 47.0858 12.0237 47.6505 16.1394C48.2152 20.2551 49.8955 30.2412 50.6778 32.8292C51.4601 35.4172 53.0895 38.9172 53.7561 45.857C54.4227 52.7968 55.3253 54.1208 56.3021 55.8245C56.8205 57.5051 56.2882 59.9033 55.5661 62.0005C54.8301 64.1347 52.497 65.2505 50.3631 64.5051C47.5718 63.5236 43.7575 62.5329 41.3365 58.4727C38.5036 53.7134 40.494 38.5607 40.8644 36.9542C41.2347 35.3431 40.9847 32.4449 40.3367 27.7968Z" fill="url(#paint32_linear)"/>
<path d="M56.2236 55.3058C56.1217 55.2548 56.0662 55.2271 56.0662 55.2271C56.1217 55.2456 56.1727 55.2734 56.2236 55.3058Z" fill="url(#paint33_radial)"/>
<path d="M56.2236 55.3058C56.1217 55.2548 56.0662 55.2271 56.0662 55.2271C56.1217 55.2456 56.1727 55.2734 56.2236 55.3058Z" fill="url(#paint34_radial)"/>
<g opacity="0.5">
<path opacity="0.5" d="M53.7563 45.857C53.0944 38.9172 51.4649 35.4172 50.678 32.8292C49.8957 30.2413 48.2154 20.2551 47.6506 16.1394C47.0859 12.0237 47.97 7.9681 43.4659 8.00513C40.295 8.02828 39.758 10.7644 39.9108 13.4959C39.7488 15.1209 39.8275 17.3755 40.2256 20.4774C40.2256 20.482 40.2256 20.482 40.2256 20.4866C39.7488 22.5005 39.9849 25.2737 40.3367 27.7968C40.9848 32.4496 41.2347 35.3477 40.8644 36.9496C40.494 38.5561 38.5036 53.7135 41.3365 58.4681C45.0491 64.6996 52.039 63.7042 53.5897 66.5237C53.5897 66.5237 57.8669 59.1579 56.3023 55.82C55.6172 55.1394 54.4183 52.7968 53.7563 45.857Z" fill="url(#paint35_linear)"/>
</g>
<path d="M23.3853 55.3062C23.4875 55.255 23.5432 55.2271 23.5432 55.2271C23.4875 55.2457 23.4364 55.2736 23.3853 55.3062Z" fill="url(#paint36_radial)"/>
<path d="M23.3159 61.5095C22.316 58.5882 22.5197 55.8243 23.5381 55.2271C20.9921 55.5141 9.87324 57.5234 9.49829 57.5511C7.85962 62.2687 10.5167 69.9585 13.7709 71.8891C19.9691 72.94 27.6486 66.1483 27.6486 66.1483C26.4821 66.5511 24.3667 64.5743 23.3159 61.5095Z" fill="url(#paint37_radial)"/>
<path d="M23.3853 55.3063C23.4871 55.2553 23.5427 55.2275 23.5427 55.2275C23.4871 55.2461 23.4362 55.2739 23.3853 55.3063Z" fill="url(#paint38_radial)"/>
<path opacity="0.5" d="M13.7755 71.89C19.9738 72.9409 27.6533 66.1493 27.6533 66.1493C26.5701 66.5196 24.6861 64.8622 23.5751 62.1909L22.6771 61.7743C22.6771 61.7743 23.7278 65.3206 20.682 66.3206C14.6318 68.3067 10.4935 64.7419 9.01685 61.4595C9.21126 65.7141 11.3268 70.4363 13.7755 71.89Z" fill="url(#paint39_radial)"/>
<path d="M23.5426 55.2271C21.941 55.4493 21.4318 58.2965 22.4964 61.2687C24.5748 67.0696 26.6903 66.9354 27.6577 66.1483C26.4866 66.5511 24.3712 64.5743 23.3204 61.5048C22.3159 58.5882 22.5196 55.8243 23.5426 55.2271Z" fill="url(#paint40_linear)"/>
<path opacity="0.16" d="M23.3159 61.5095C22.316 58.5882 22.5197 55.8243 23.5381 55.2271C20.9921 55.5141 9.87324 57.5234 9.49829 57.5511C7.85962 62.2687 10.5167 69.9585 13.7709 71.8891C19.9691 72.94 27.6486 66.1483 27.6486 66.1483C26.4821 66.5511 24.3667 64.5743 23.3159 61.5095Z" fill="url(#paint41_radial)"/>
<path d="M56.2236 55.3058C56.1217 55.2548 56.0662 55.2271 56.0662 55.2271C56.1217 55.2456 56.1727 55.2734 56.2236 55.3058Z" fill="url(#paint42_radial)"/>
<path d="M56.2888 61.5095C57.2886 58.5882 57.085 55.8243 56.0666 55.2271C58.6125 55.5141 69.7314 57.5234 70.1063 57.5511C71.745 62.2687 69.088 69.9585 65.8338 71.8891C59.6356 72.94 51.9561 66.1483 51.9561 66.1483C53.1226 66.5511 55.238 64.5743 56.2888 61.5095Z" fill="url(#paint43_radial)"/>
<path d="M56.2236 55.3058C56.1217 55.2548 56.0662 55.2271 56.0662 55.2271C56.1217 55.2456 56.1727 55.2734 56.2236 55.3058Z" fill="url(#paint44_radial)"/>
<path opacity="0.5" d="M65.8287 71.8895C59.6305 72.9404 51.9509 66.1488 51.9509 66.1488C53.0341 66.5192 54.9182 64.8617 56.0291 62.1905L56.9271 61.7738C56.9271 61.7738 55.8764 65.3201 58.9222 66.3201C64.9724 68.3062 69.1107 64.7414 70.5874 61.459C70.3929 65.7136 68.2821 70.4358 65.8287 71.8895Z" fill="url(#paint45_radial)"/>
<path d="M56.0662 55.2271C57.6679 55.4493 58.177 58.2965 57.1123 61.2687C55.0339 67.0696 52.9184 66.9354 51.9509 66.1483C53.1221 66.5511 55.2376 64.5743 56.2884 61.5048C57.2883 58.5882 57.0846 55.8243 56.0662 55.2271Z" fill="url(#paint46_linear)"/>
<path opacity="0.16" d="M56.2888 61.5095C57.2886 58.5882 57.085 55.8243 56.0666 55.2271C58.6125 55.5141 69.7314 57.5234 70.1063 57.5511C71.745 62.2687 69.088 69.9585 65.8338 71.8891C59.6356 72.94 51.9561 66.1483 51.9561 66.1483C53.1226 66.5511 55.238 64.5743 56.2888 61.5095Z" fill="url(#paint47_radial)"/>
<path d="M31.7222 36.2876C32.56 33.7506 32.9257 31.0932 33.1526 28.445C33.4025 25.7922 33.3747 23.1163 33.8515 20.4682C33.9904 19.8154 34.171 19.1534 34.5274 18.5608C34.7126 18.2737 34.944 18.0052 35.2403 17.8154C35.5458 17.6395 35.8929 17.5469 36.2355 17.5469C36.916 17.5654 37.6057 17.7274 38.1519 18.158C38.7028 18.5839 39.0222 19.2182 39.249 19.8432C39.6842 21.1256 39.7166 22.4913 39.6795 23.82C39.624 25.1534 39.462 26.4821 39.2629 27.8015C39.4296 26.4774 39.5592 25.1487 39.5823 23.82C39.6055 22.4959 39.5638 21.1395 39.124 19.8895C38.8972 19.2784 38.5824 18.6719 38.0594 18.2783C37.5409 17.8802 36.8836 17.7274 36.2355 17.7135C35.9115 17.7182 35.6013 17.8061 35.3282 17.9682C35.0644 18.1441 34.8514 18.3895 34.6755 18.6626C34.3469 19.2228 34.1709 19.871 34.0367 20.5145C33.546 23.121 33.546 25.8108 33.2776 28.4635C33.0461 31.107 32.6341 33.7737 31.7222 36.2876Z" fill="#804B24"/>
<path d="M29.9771 35.1254C30.6344 31.8059 31.1574 28.468 31.6435 25.1207C32.1203 21.7735 32.5415 18.417 32.8979 15.0559C32.9998 14.2179 33.0461 13.3707 33.1988 12.5327C33.3516 11.704 33.5877 10.8336 34.1941 10.1855C34.8051 9.52808 35.7401 9.33825 36.5826 9.38918C37.4344 9.39381 38.3324 9.75492 38.8323 10.4818C39.7906 11.954 39.7998 13.7503 39.8137 15.4216C39.7813 17.1161 39.6007 18.8012 39.3832 20.4772C39.573 18.7966 39.7211 17.1114 39.7211 15.4216C39.698 13.7642 39.6656 11.9679 38.7305 10.5605C38.2445 9.8753 37.4112 9.54196 36.5826 9.53733C35.7587 9.49567 34.8792 9.69011 34.3191 10.3012C33.7589 10.9077 33.5275 11.7503 33.384 12.5651C33.2405 13.3892 33.1988 14.2364 33.1016 15.079C32.7267 18.4401 32.2823 21.7966 31.7824 25.1439C31.2778 28.4865 30.7131 31.8245 29.9771 35.1254Z" fill="#804B24"/>
<path d="M47.8636 36.2872C46.9517 33.7733 46.5397 31.1113 46.3036 28.4539C46.0352 25.8011 46.0352 23.1112 45.5445 20.5047C45.4103 19.8612 45.239 19.2131 44.9057 18.6529C44.7344 18.3797 44.5215 18.1343 44.253 17.9584C43.9799 17.801 43.6697 17.713 43.3457 17.7038C42.6976 17.7177 42.0403 17.8658 41.5219 18.2686C40.9988 18.6621 40.684 19.2686 40.4572 19.8797C40.022 21.1297 39.9758 22.4862 39.9989 23.8103C40.0221 25.1436 40.1517 26.4724 40.3183 27.7918C40.1193 26.4724 39.9572 25.1483 39.9017 23.8103C39.8647 22.4816 39.8971 21.1158 40.3322 19.8334C40.559 19.2084 40.8784 18.5742 41.4293 18.1482C41.9755 17.7177 42.6699 17.5556 43.3457 17.5371C43.6929 17.5371 44.0354 17.6343 44.341 17.8056C44.6372 17.9955 44.8686 18.2594 45.0538 18.551C45.4102 19.139 45.5908 19.801 45.7297 20.4584C46.2018 23.1066 46.1787 25.7826 46.4286 28.4354C46.6647 31.0928 47.0258 33.7502 47.8636 36.2872Z" fill="#804B24"/>
<path d="M49.6133 35.1251C48.8773 31.8242 48.3125 28.4862 47.8172 25.139C47.3173 21.7918 46.8729 18.4399 46.4979 15.0788C46.4007 14.2362 46.3591 13.3889 46.2156 12.5649C46.0721 11.7501 45.8406 10.9075 45.2805 10.301C44.7204 9.68987 43.8409 9.49542 43.0169 9.53709C42.1837 9.53709 41.3505 9.87506 40.8691 10.5602C39.9386 11.9677 39.9016 13.764 39.8784 15.4214C39.8784 17.1112 40.0266 18.7964 40.2164 20.4769C39.9988 18.801 39.8137 17.1158 39.7812 15.4214C39.7951 13.7547 39.8044 11.9538 40.7626 10.4815C41.2625 9.75931 42.1606 9.39356 43.0123 9.38893C43.8548 9.34264 44.7945 9.53246 45.4009 10.1852C46.0073 10.8334 46.2433 11.7038 46.3961 12.5325C46.5489 13.3751 46.5951 14.2177 46.697 15.0556C47.0534 18.4168 47.4747 21.7732 47.9515 25.1205C48.4329 28.4677 48.9513 31.8103 49.6133 35.1251Z" fill="#804B24"/>
<defs>
<linearGradient id="paint0_linear" x1="27.7348" y1="17.6141" x2="25.1136" y2="6.43412" gradientUnits="userSpaceOnUse">
<stop offset="0.00132565" stop-color="#D2A374"/>
<stop offset="1" stop-color="#DEBA94"/>
</linearGradient>
<linearGradient id="paint1_linear" x1="37.7382" y1="80.1059" x2="33.2203" y2="46.6026" gradientUnits="userSpaceOnUse">
<stop offset="0.00132565" stop-color="#D2A374"/>
<stop offset="1" stop-color="#DEBA94"/>
</linearGradient>
<radialGradient id="paint2_radial" cx="0" cy="0" r="1" gradientUnits="userSpaceOnUse" gradientTransform="translate(40.552 4.05632) rotate(180) scale(10.1739 10.1747)">
<stop stop-color="#D2A374" stop-opacity="0"/>
<stop offset="1" stop-color="#D2A374"/>
</radialGradient>
<linearGradient id="paint3_linear" x1="35.1834" y1="29.9554" x2="33.9407" y2="9.61506" gradientUnits="userSpaceOnUse">
<stop offset="0.00132565" stop-color="#FFC94B"/>
<stop offset="1" stop-color="#FFD548"/>
</linearGradient>
<linearGradient id="paint4_linear" x1="40.6357" y1="52.6005" x2="36.118" y2="30.4535" gradientUnits="userSpaceOnUse">
<stop offset="0.00132565" stop-color="#D2A374"/>
<stop offset="1" stop-color="#DEBA94"/>
</linearGradient>
<radialGradient id="paint5_radial" cx="0" cy="0" r="1" gradientUnits="userSpaceOnUse" gradientTransform="translate(1790.27 5.98878) rotate(0.442308) scale(26.2295 26.233)">
<stop stop-color="#D2A374" stop-opacity="0"/>
<stop offset="1" stop-color="#D2A374"/>
</radialGradient>
<radialGradient id="paint6_radial" cx="0" cy="0" r="1" gradientUnits="userSpaceOnUse" gradientTransform="translate(36.9513 23.5686) rotate(0.442298) scale(9.82778 9.82887)">
<stop stop-color="#D2A374" stop-opacity="0"/>
<stop offset="1" stop-color="#D2A374"/>
</radialGradient>
<linearGradient id="paint7_linear" x1="29.3297" y1="74.9146" x2="33.4711" y2="25.9771" gradientUnits="userSpaceOnUse">
<stop offset="0.00132565" stop-color="#D2A374"/>
<stop offset="1" stop-color="#DEBA94"/>
</linearGradient>
<linearGradient id="paint8_linear" x1="20.6452" y1="41.7469" x2="61.1441" y2="43.0371" gradientUnits="userSpaceOnUse">
<stop offset="0.00132565" stop-color="#F0C492" stop-opacity="0"/>
<stop offset="1" stop-color="#E6AF74"/>
</linearGradient>
<linearGradient id="paint9_linear" x1="32.7343" y1="97.2353" x2="31.0401" y2="45.2862" gradientUnits="userSpaceOnUse">
<stop offset="0.00132565" stop-color="#D2A374"/>
<stop offset="1" stop-color="#DEBA94"/>
</linearGradient>
<radialGradient id="paint10_radial" cx="0" cy="0" r="1" gradientUnits="userSpaceOnUse" gradientTransform="translate(1790.13 5.98803) rotate(0.442343) scale(26.2275 26.2331)">
<stop stop-color="#D2A374" stop-opacity="0"/>
<stop offset="1" stop-color="#D2A374"/>
</radialGradient>
<linearGradient id="paint11_linear" x1="27.2172" y1="42.0523" x2="49.8011" y2="42.1778" gradientUnits="userSpaceOnUse">
<stop offset="0.3118" stop-color="#D2A374" stop-opacity="0"/>
<stop offset="1" stop-color="#B88653"/>
</linearGradient>
<linearGradient id="paint12_linear" x1="34.9868" y1="29.9456" x2="28.21" y2="77.6283" gradientUnits="userSpaceOnUse">
<stop offset="0.3118" stop-color="#D2A374" stop-opacity="0"/>
<stop offset="1" stop-color="#D2A374"/>
</linearGradient>
<radialGradient id="paint13_radial" cx="0" cy="0" r="1" gradientUnits="userSpaceOnUse" gradientTransform="translate(34.5956 53.5115) rotate(-86.8172) scale(15.4256 7.25406)">
<stop stop-color="#F0C492" stop-opacity="0.4"/>
<stop offset="1" stop-color="#E6AF74" stop-opacity="0"/>
</radialGradient>
<linearGradient id="paint14_linear" x1="34.4224" y1="36.4649" x2="42.07" y2="36.7629" gradientUnits="userSpaceOnUse">
<stop offset="0.3118" stop-color="#D2A374" stop-opacity="0"/>
<stop offset="1" stop-color="#D2A374"/>
</linearGradient>
<radialGradient id="paint15_radial" cx="0" cy="0" r="1" gradientUnits="userSpaceOnUse" gradientTransform="translate(15.5759 46.6778) rotate(30.6409) scale(20.8168 20.8326)">
<stop stop-color="#F99BBF"/>
<stop offset="0.2947" stop-color="#F99BBF"/>
<stop offset="0.4451" stop-color="#F695B7"/>
<stop offset="0.6757" stop-color="#EF83A2"/>
<stop offset="0.9565" stop-color="#E3667F"/>
<stop offset="1" stop-color="#E16179"/>
</radialGradient>
<radialGradient id="paint16_radial" cx="0" cy="0" r="1" gradientUnits="userSpaceOnUse" gradientTransform="translate(15.5759 46.6778) rotate(30.6409) scale(20.8168 20.8326)">
<stop stop-color="#F99BBF"/>
<stop offset="0.2947" stop-color="#F99BBF"/>
<stop offset="0.4451" stop-color="#F695B7"/>
<stop offset="0.6757" stop-color="#EF83A2"/>
<stop offset="0.9565" stop-color="#E3667F"/>
<stop offset="1" stop-color="#E16179"/>
</radialGradient>
<linearGradient id="paint17_linear" x1="31.5466" y1="42.2414" x2="30.5217" y2="105.19" gradientUnits="userSpaceOnUse">
<stop offset="0.3105" stop-color="#D2A374" stop-opacity="0"/>
<stop offset="1" stop-color="#B88653"/>
</linearGradient>
<linearGradient id="paint18_linear" x1="51.8596" y1="17.614" x2="54.4808" y2="6.43404" gradientUnits="userSpaceOnUse">
<stop offset="0.00132565" stop-color="#D2A374"/>
<stop offset="1" stop-color="#DEBA94"/>
</linearGradient>
<linearGradient id="paint19_linear" x1="41.8669" y1="80.1059" x2="46.3849" y2="46.6026" gradientUnits="userSpaceOnUse">
<stop offset="0.00132565" stop-color="#D2A374"/>
<stop offset="1" stop-color="#DEBA94"/>
</linearGradient>
<radialGradient id="paint20_radial" cx="0" cy="0" r="1" gradientUnits="userSpaceOnUse" gradientTransform="translate(39.1318 4.05629) scale(10.1735 10.1747)">
<stop stop-color="#D2A374" stop-opacity="0"/>
<stop offset="1" stop-color="#D2A374"/>
</radialGradient>
<linearGradient id="paint21_linear" x1="44.4112" y1="29.9553" x2="45.654" y2="9.61495" gradientUnits="userSpaceOnUse">
<stop offset="0.00132565" stop-color="#FFC94B"/>
<stop offset="1" stop-color="#FFD548"/>
</linearGradient>
<linearGradient id="paint22_linear" x1="38.9696" y1="52.6005" x2="43.4874" y2="30.4535" gradientUnits="userSpaceOnUse">
<stop offset="0.00132565" stop-color="#D2A374"/>
<stop offset="1" stop-color="#DEBA94"/>
</linearGradient>
<radialGradient id="paint23_radial" cx="0" cy="0" r="1" gradientUnits="userSpaceOnUse" gradientTransform="translate(-1710.63 5.98867) rotate(179.558) scale(26.229 26.233)">
<stop stop-color="#D2A374" stop-opacity="0"/>
<stop offset="1" stop-color="#D2A374"/>
</radialGradient>
<radialGradient id="paint24_radial" cx="0" cy="0" r="1" gradientUnits="userSpaceOnUse" gradientTransform="translate(42.6497 23.5685) rotate(179.558) scale(9.82778 9.82887)">
<stop stop-color="#D2A374" stop-opacity="0"/>
<stop offset="1" stop-color="#D2A374"/>
</radialGradient>
<linearGradient id="paint25_linear" x1="50.2755" y1="74.9145" x2="46.1341" y2="25.9771" gradientUnits="userSpaceOnUse">
<stop offset="0.00132565" stop-color="#D2A374"/>
<stop offset="1" stop-color="#DEBA94"/>
</linearGradient>
<linearGradient id="paint26_linear" x1="58.9493" y1="41.7468" x2="18.4503" y2="43.0371" gradientUnits="userSpaceOnUse">
<stop offset="0.00132565" stop-color="#F0C492" stop-opacity="0"/>
<stop offset="1" stop-color="#E6AF74"/>
</linearGradient>
<linearGradient id="paint27_linear" x1="46.871" y1="97.2353" x2="48.5652" y2="45.2862" gradientUnits="userSpaceOnUse">
<stop offset="0.00132565" stop-color="#D2A374"/>
<stop offset="1" stop-color="#DEBA94"/>
</linearGradient>
<radialGradient id="paint28_radial" cx="0" cy="0" r="1" gradientUnits="userSpaceOnUse" gradientTransform="translate(-1710.55 5.98792) rotate(179.558) scale(26.2278 26.2331)">
<stop stop-color="#D2A374" stop-opacity="0"/>
<stop offset="1" stop-color="#D2A374"/>
</radialGradient>
<linearGradient id="paint29_linear" x1="52.3877" y1="42.0523" x2="29.8044" y2="42.1777" gradientUnits="userSpaceOnUse">
<stop offset="0.3118" stop-color="#D2A374" stop-opacity="0"/>
<stop offset="1" stop-color="#B88653"/>
</linearGradient>
<linearGradient id="paint30_linear" x1="44.6184" y1="29.9456" x2="51.3953" y2="77.6283" gradientUnits="userSpaceOnUse">
<stop offset="0.3118" stop-color="#D2A374" stop-opacity="0"/>
<stop offset="1" stop-color="#D2A374"/>
</linearGradient>
<radialGradient id="paint31_radial" cx="0" cy="0" r="1" gradientUnits="userSpaceOnUse" gradientTransform="translate(44.9842 53.5771) rotate(-93.1829) scale(15.4256 7.25418)">
<stop stop-color="#F0C492" stop-opacity="0.4"/>
<stop offset="1" stop-color="#E6AF74" stop-opacity="0"/>
</radialGradient>
<linearGradient id="paint32_linear" x1="45.1828" y1="36.4649" x2="37.5352" y2="36.7628" gradientUnits="userSpaceOnUse">
<stop offset="0.3118" stop-color="#D2A374" stop-opacity="0"/>
<stop offset="1" stop-color="#D2A374"/>
</linearGradient>
<radialGradient id="paint33_radial" cx="0" cy="0" r="1" gradientUnits="userSpaceOnUse" gradientTransform="translate(64.0911 46.8133) rotate(149.394) scale(20.7377 20.7398)">
<stop stop-color="#F99BBF"/>
<stop offset="0.2947" stop-color="#F99BBF"/>
<stop offset="0.4451" stop-color="#F695B7"/>
<stop offset="0.6757" stop-color="#EF83A2"/>
<stop offset="0.9565" stop-color="#E3667F"/>
<stop offset="1" stop-color="#E16179"/>
</radialGradient>
<radialGradient id="paint34_radial" cx="0" cy="0" r="1" gradientUnits="userSpaceOnUse" gradientTransform="translate(64.0911 46.8133) rotate(149.394) scale(20.7377 20.7398)">
<stop stop-color="#F99BBF"/>
<stop offset="0.2947" stop-color="#F99BBF"/>
<stop offset="0.4451" stop-color="#F695B7"/>
<stop offset="0.6757" stop-color="#EF83A2"/>
<stop offset="0.9565" stop-color="#E3667F"/>
<stop offset="1" stop-color="#E16179"/>
</radialGradient>
<linearGradient id="paint35_linear" x1="48.0587" y1="42.2414" x2="49.0836" y2="105.19" gradientUnits="userSpaceOnUse">
<stop offset="0.3105" stop-color="#D2A374" stop-opacity="0"/>
<stop offset="1" stop-color="#B88653"/>
</linearGradient>
<radialGradient id="paint36_radial" cx="0" cy="0" r="1" gradientUnits="userSpaceOnUse" gradientTransform="translate(15.5288 46.7338) rotate(30.6402) scale(20.8171 20.8331)">
<stop stop-color="#FB9DC1"/>
<stop offset="0.2947" stop-color="#FB9DC1"/>
<stop offset="0.4421" stop-color="#F897B9"/>
<stop offset="0.6681" stop-color="#F185A4"/>
<stop offset="0.9434" stop-color="#E66881"/>
<stop offset="1" stop-color="#E36179"/>
</radialGradient>
<radialGradient id="paint37_radial" cx="0" cy="0" r="1" gradientUnits="userSpaceOnUse" gradientTransform="translate(15.4474 46.9667) rotate(30.6033) scale(20.6191 20.6203)">
<stop stop-color="#FB9DC1"/>
<stop offset="0.2947" stop-color="#FF7AD3"/>
<stop offset="0.3637" stop-color="#FF75CB"/>
<stop offset="0.4697" stop-color="#FF69B6"/>
<stop offset="0.5993" stop-color="#FF5593"/>
<stop offset="0.7477" stop-color="#FF3962"/>
<stop offset="0.9098" stop-color="#FF1524"/>
<stop offset="0.9973" stop-color="#FF0000"/>
</radialGradient>
<radialGradient id="paint38_radial" cx="0" cy="0" r="1" gradientUnits="userSpaceOnUse" gradientTransform="translate(15.5577 46.7752) rotate(30.6114) scale(20.7344 20.7389)">
<stop stop-color="#FB9DC1"/>
<stop offset="0.2947" stop-color="#FB9DC1"/>
<stop offset="0.4421" stop-color="#F897B9"/>
<stop offset="0.6681" stop-color="#F185A4"/>
<stop offset="0.9434" stop-color="#E66881"/>
<stop offset="1" stop-color="#E36179"/>
</radialGradient>
<radialGradient id="paint39_radial" cx="0" cy="0" r="1" gradientUnits="userSpaceOnUse" gradientTransform="translate(25.9415 62.163) scale(25.0447 25.048)">
<stop stop-color="#C20000"/>
<stop offset="0.1451" stop-color="#C40608"/>
<stop offset="0.3677" stop-color="#CA171D"/>
<stop offset="0.64" stop-color="#D33340"/>
<stop offset="0.9492" stop-color="#E15A70"/>
<stop offset="1" stop-color="#E36179"/>
</radialGradient>
<linearGradient id="paint40_linear" x1="24.794" y1="50.7783" x2="24.794" y2="65.5698" gradientUnits="userSpaceOnUse">
<stop stop-color="#FB9DC1"/>
<stop offset="0.2947" stop-color="#FF7AD3"/>
<stop offset="0.3637" stop-color="#FF75CB"/>
<stop offset="0.4697" stop-color="#FF69B6"/>
<stop offset="0.5993" stop-color="#FF5593"/>
<stop offset="0.7477" stop-color="#FF3962"/>
<stop offset="0.9098" stop-color="#FF1524"/>
<stop offset="0.9973" stop-color="#FF0000"/>
</linearGradient>
<radialGradient id="paint41_radial" cx="0" cy="0" r="1" gradientUnits="userSpaceOnUse" gradientTransform="translate(15.476 59.0563) rotate(170.241) scale(6.69248 3.56595)">
<stop stop-color="white" stop-opacity="0.4"/>
<stop offset="1" stop-color="white" stop-opacity="0"/>
</radialGradient>
<radialGradient id="paint42_radial" cx="0" cy="0" r="1" gradientUnits="userSpaceOnUse" gradientTransform="translate(64.036 46.7807) rotate(149.394) scale(20.738 20.7402)">
<stop stop-color="#FB9DC1"/>
<stop offset="0.2947" stop-color="#FB9DC1"/>
<stop offset="0.4421" stop-color="#F897B9"/>
<stop offset="0.6681" stop-color="#F185A4"/>
<stop offset="0.9434" stop-color="#E66881"/>
<stop offset="1" stop-color="#E36179"/>
</radialGradient>
<radialGradient id="paint43_radial" cx="0" cy="0" r="1" gradientUnits="userSpaceOnUse" gradientTransform="translate(64.145 46.9728) rotate(149.397) scale(20.619 20.6203)">
<stop stop-color="#FB9DC1"/>
<stop offset="0.2947" stop-color="#FF7AD3"/>
<stop offset="0.3637" stop-color="#FF75CB"/>
<stop offset="0.4697" stop-color="#FF69B6"/>
<stop offset="0.5993" stop-color="#FF5593"/>
<stop offset="0.7477" stop-color="#FF3962"/>
<stop offset="0.9098" stop-color="#FF1524"/>
<stop offset="0.9973" stop-color="#FF0000"/>
</radialGradient>
<radialGradient id="paint44_radial" cx="0" cy="0" r="1" gradientUnits="userSpaceOnUse" gradientTransform="translate(64.036 46.7807) rotate(149.394) scale(20.738 20.7402)">
<stop stop-color="#FB9DC1"/>
<stop offset="0.2947" stop-color="#FB9DC1"/>
<stop offset="0.4421" stop-color="#F897B9"/>
<stop offset="0.6681" stop-color="#F185A4"/>
<stop offset="0.9434" stop-color="#E66881"/>
<stop offset="1" stop-color="#E36179"/>
</radialGradient>
<radialGradient id="paint45_radial" cx="0" cy="0" r="1" gradientUnits="userSpaceOnUse" gradientTransform="translate(53.67 62.1626) rotate(180) scale(25.0447 25.048)">
<stop stop-color="#C20000"/>
<stop offset="0.1451" stop-color="#C40608"/>
<stop offset="0.3677" stop-color="#CA171D"/>
<stop offset="0.64" stop-color="#D33340"/>
<stop offset="0.9492" stop-color="#E15A70"/>
<stop offset="1" stop-color="#E36179"/>
</radialGradient>
<linearGradient id="paint46_linear" x1="54.8113" y1="50.7783" x2="54.8113" y2="65.5698" gradientUnits="userSpaceOnUse">
<stop stop-color="#FB9DC1"/>
<stop offset="0.2947" stop-color="#FF7AD3"/>
<stop offset="0.3637" stop-color="#FF75CB"/>
<stop offset="0.4697" stop-color="#FF69B6"/>
<stop offset="0.5993" stop-color="#FF5593"/>
<stop offset="0.7477" stop-color="#FF3962"/>
<stop offset="0.9098" stop-color="#FF1524"/>
<stop offset="0.9973" stop-color="#FF0000"/>
</linearGradient>
<radialGradient id="paint47_radial" cx="0" cy="0" r="1" gradientUnits="userSpaceOnUse" gradientTransform="translate(64.1372 59.0429) rotate(9.7587) scale(6.69247 3.56595)">
<stop stop-color="white" stop-opacity="0.4"/>
<stop offset="1" stop-color="white" stop-opacity="0"/>
</radialGradient>
</defs>
</svg>
