<svg width="24" height="24" viewBox="0 0 24 24" fill="none" xmlns="http://www.w3.org/2000/svg">
<path d="M15.9716 3.25732H8.0287L4.06299 4.8059L8.0287 6.36018H15.9716L19.9373 4.8059L15.9716 3.25732Z" fill="url(#paint0_linear)"/>
<path d="M4.06299 4.80615L4.12013 8.89758L4.20585 8.93758L8.0287 6.36044L4.06299 4.80615Z" fill="url(#paint1_linear)"/>
<path d="M12 10.3141L15.9714 6.35986L17.0343 10.3141H12Z" fill="url(#paint2_linear)"/>
<path d="M8.02856 6.35986H15.9714L12 10.3141L8.02856 6.35986Z" fill="url(#paint3_linear)"/>
<path d="M1.71436 7.69727L6.96578 10.3144L12.0001 20.6858L1.71436 7.69727Z" fill="url(#paint4_linear)"/>
<path d="M22.2857 7.69727L17.0343 10.3144L12 20.6858L22.2857 7.69727Z" fill="url(#paint5_radial)"/>
<path d="M12.0001 10.3145V20.6859L6.96582 10.3145H12.0001Z" fill="url(#paint6_linear)"/>
<path d="M12 10.3145V20.6859L17.0343 10.3145H12Z" fill="url(#paint7_linear)"/>
<path d="M8.02868 6.35986L12.0001 10.3141H6.96582L8.02868 6.35986Z" fill="url(#paint8_linear)"/>
<path d="M6.96583 10.3141L4.12012 8.89701L4.20583 8.93701L8.02869 6.35986L6.96583 10.3141Z" fill="url(#paint9_linear)"/>
<path d="M4.06293 4.80615L4.12007 8.89758L4.20578 8.93758L1.71436 7.69758L4.06293 4.80615Z" fill="url(#paint10_linear)"/>
<path d="M19.9371 4.80615L19.88 8.89758L19.7943 8.93758L15.9714 6.36044L19.9371 4.80615Z" fill="url(#paint11_linear)"/>
<path d="M17.0343 10.3146L19.88 8.89749L19.7943 8.93749L15.9714 6.36035L17.0343 10.3146Z" fill="url(#paint12_linear)"/>
<path d="M19.937 4.80615L19.8799 8.89758L19.7942 8.93758L22.2856 7.69758L19.937 4.80615Z" fill="url(#paint13_linear)"/>
<path d="M22.2857 7.69727L19.7943 8.93727L12 20.6858L22.2857 7.69727Z" fill="url(#paint14_radial)"/>
<path d="M1.71436 7.69727L4.20578 8.93727L12.0001 20.6858L1.71436 7.69727Z" fill="url(#paint15_linear)"/>
<path d="M12.0001 20.6861L7.17725 13.4175L8.86867 14.2346L12.0001 20.6861Z" fill="url(#paint16_linear)"/>
<path d="M12.0001 20.6858L8.86865 14.2344L12.0001 14.9829V20.6858Z" fill="url(#paint17_linear)"/>
<path d="M12 20.6858L15.1314 14.2344L12 14.9829V20.6858Z" fill="url(#paint18_linear)"/>
<path d="M12 10.3145V20.6859L13.6286 10.3145H12Z" fill="url(#paint19_linear)"/>
<path d="M8.2401 10.3145L12.0001 20.6859L6.96582 10.3145H8.2401Z" fill="url(#paint20_linear)"/>
<path d="M12.0001 10.3145L8.86865 14.2345L12.0001 14.983V10.3145Z" fill="url(#paint21_linear)"/>
<path d="M12 10.3145L15.1314 14.2345L12 14.983V10.3145Z" fill="url(#paint22_linear)"/>
<path d="M19.7942 8.93701L15.1313 14.2342L16.5142 13.8856L19.7942 8.93701Z" fill="url(#paint23_linear)"/>
<path d="M19.7943 8.93727L17.9543 13.1716L22.2858 7.69727L19.7943 8.93727Z" fill="url(#paint24_linear)"/>
<path d="M4.20581 8.93701L8.86867 14.2342L7.48581 13.8856L4.20581 8.93701Z" fill="url(#paint25_linear)"/>
<path d="M4.20579 8.93727L6.04579 13.1716L1.71436 7.69727L4.20579 8.93727Z" fill="url(#paint26_linear)"/>
<path d="M18.0571 9.80029L17.0343 10.3146L12 20.686L18.0571 9.80029Z" fill="url(#paint27_linear)"/>
<path d="M17.0344 10.8344C17.3216 10.8344 17.5544 10.6016 17.5544 10.3144C17.5544 10.0272 17.3216 9.79443 17.0344 9.79443C16.7472 9.79443 16.5144 10.0272 16.5144 10.3144C16.5144 10.6016 16.7472 10.8344 17.0344 10.8344Z" fill="url(#paint28_radial)"/>
<path d="M8.88564 14.7312C8.67421 14.7312 8.49707 14.5598 8.49707 14.3427C8.49707 14.1255 8.6685 13.9541 8.88564 13.9541C9.09707 13.9541 9.27421 14.1255 9.27421 14.3427C9.27421 14.5541 9.10278 14.7312 8.88564 14.7312Z" fill="url(#paint29_radial)"/>
<path d="M9.12562 14.2057L9.58848 13.6343L9.01705 14.0971C8.93705 13.9943 8.88562 13.8628 8.88562 13.72C8.88562 13.8743 8.82848 14.0114 8.73705 14.12L8.38848 13.8343L8.66848 14.1828C8.56562 14.2743 8.42848 14.3257 8.27991 14.3257C8.42276 14.3257 8.55419 14.3771 8.65705 14.4571L8.18848 15.04L8.76562 14.5714C8.84562 14.6743 8.89133 14.8 8.89133 14.9371C8.89133 14.7886 8.94276 14.6514 9.03419 14.5486L9.38848 14.84L9.09705 14.48C9.20562 14.3886 9.34276 14.3314 9.49705 14.3314C9.35991 14.3314 9.22848 14.2857 9.12562 14.2057Z" fill="white"/>
<path d="M9.50866 3.88574L5.62866 5.41717L8.02866 6.36003H15.9715L18.3715 5.41717L14.4915 3.88574H9.50866Z" fill="url(#paint30_linear)"/>
<path d="M8.40008 6.7259C8.20008 6.93161 7.86865 6.93161 7.66294 6.7259C7.46294 6.52019 7.46294 6.19447 7.66294 5.98876C7.86294 5.78304 8.19437 5.78304 8.40008 5.98876C8.6058 6.19447 8.60008 6.52019 8.40008 6.7259Z" fill="url(#paint31_radial)"/>
<path d="M8.3657 6.4231L8.97713 6.36024L8.3657 6.29738C8.37712 6.10881 8.45712 5.92024 8.59998 5.77738C8.46855 5.90881 8.30284 5.98309 8.13141 6.00595L8.02855 5.02881L7.92569 6.00595C7.74855 5.98309 7.57712 5.90881 7.43998 5.77167C7.58284 5.92024 7.66284 6.1031 7.67427 6.29738L7.08569 6.36024L7.67998 6.4231C7.66284 6.60595 7.58855 6.78881 7.44569 6.93167C7.58284 6.79452 7.74855 6.72024 7.92569 6.69738L8.02855 7.69167L8.13141 6.69738C8.30284 6.72024 8.46284 6.79452 8.59427 6.92595C8.45712 6.7831 8.37712 6.60595 8.3657 6.4231Z" fill="white"/>
<path d="M15.9715 3.25732L14.4915 3.8859L18.3715 5.41733L19.9372 4.8059L15.9715 3.25732Z" fill="url(#paint32_linear)"/>
<path d="M8.0287 3.25732L9.5087 3.8859L5.6287 5.41733L4.06299 4.8059L8.0287 3.25732Z" fill="url(#paint33_linear)"/>
<defs>
<linearGradient id="paint0_linear" x1="13.1351" y1="1.82148" x2="10.5931" y2="8.50978" gradientUnits="userSpaceOnUse">
<stop stop-color="#17BBFE"/>
<stop offset="0.1176" stop-color="#46C9FE"/>
<stop offset="0.3177" stop-color="#90DFFF"/>
<stop offset="0.4612" stop-color="#BFEDFF"/>
<stop offset="0.5327" stop-color="#D1F2FF"/>
<stop offset="0.5846" stop-color="#CBF0FF"/>
<stop offset="0.6572" stop-color="#B8EBFF"/>
<stop offset="0.742" stop-color="#9AE2FF"/>
<stop offset="0.8361" stop-color="#71D6FE"/>
<stop offset="0.9365" stop-color="#3CC6FE"/>
<stop offset="1" stop-color="#17BBFE"/>
</linearGradient>
<linearGradient id="paint1_linear" x1="3.47117" y1="9.81006" x2="5.39623" y2="6.65098" gradientUnits="userSpaceOnUse">
<stop stop-color="#17BBFE"/>
<stop offset="0.2208" stop-color="#46C9FE"/>
<stop offset="0.5965" stop-color="#90DFFF"/>
<stop offset="0.8658" stop-color="#BFEDFF"/>
<stop offset="1" stop-color="#D1F2FF"/>
</linearGradient>
<linearGradient id="paint2_linear" x1="14.7037" y1="10.5768" x2="13.4197" y2="6.57678" gradientUnits="userSpaceOnUse">
<stop stop-color="#B0E9FF"/>
<stop offset="0.1782" stop-color="#7BD9FF"/>
<stop offset="0.3821" stop-color="#45C9FE"/>
<stop offset="0.5348" stop-color="#24BFFE"/>
<stop offset="0.6179" stop-color="#17BBFE"/>
<stop offset="1" stop-color="#80DAFE"/>
</linearGradient>
<linearGradient id="paint3_linear" x1="12" y1="10.1166" x2="12" y2="6.79442" gradientUnits="userSpaceOnUse">
<stop stop-color="#17BBFE"/>
<stop offset="0.2208" stop-color="#46C9FE"/>
<stop offset="0.5965" stop-color="#90DFFF"/>
<stop offset="0.8658" stop-color="#BFEDFF"/>
<stop offset="1" stop-color="#D1F2FF"/>
</linearGradient>
<linearGradient id="paint4_linear" x1="6.26496" y1="14.2109" x2="10.7539" y2="14.0629" gradientUnits="userSpaceOnUse">
<stop stop-color="#17BBFE"/>
<stop offset="0.0376014" stop-color="#25BFFE"/>
<stop offset="0.2501" stop-color="#6FD6FF"/>
<stop offset="0.4021" stop-color="#9EE4FF"/>
<stop offset="0.4779" stop-color="#B0E9FF"/>
<stop offset="0.538" stop-color="#AAE6FD"/>
<stop offset="0.6221" stop-color="#97DEF9"/>
<stop offset="0.7204" stop-color="#79D0F2"/>
<stop offset="0.8294" stop-color="#50BDE9"/>
<stop offset="0.9458" stop-color="#1BA5DC"/>
<stop offset="1" stop-color="#0099D6"/>
</linearGradient>
<radialGradient id="paint5_radial" cx="0" cy="0" r="1" gradientUnits="userSpaceOnUse" gradientTransform="translate(20.7317 15.55) rotate(126.152) scale(7.73448 5.80899)">
<stop stop-color="#17BBFE"/>
<stop offset="0.0376014" stop-color="#25BFFE"/>
<stop offset="0.2501" stop-color="#6FD6FF"/>
<stop offset="0.4021" stop-color="#9EE4FF"/>
<stop offset="0.4779" stop-color="#B0E9FF"/>
<stop offset="0.5438" stop-color="#AAE7FF"/>
<stop offset="0.6359" stop-color="#97E2FF"/>
<stop offset="0.7436" stop-color="#79D9FF"/>
<stop offset="0.8629" stop-color="#50CCFE"/>
<stop offset="0.9906" stop-color="#1BBCFE"/>
<stop offset="1" stop-color="#17BBFE"/>
</radialGradient>
<linearGradient id="paint6_linear" x1="9.33734" y1="15.5306" x2="16.2438" y2="14.1" gradientUnits="userSpaceOnUse">
<stop stop-color="#B0E9FF"/>
<stop offset="0.0583282" stop-color="#AAE7FF"/>
<stop offset="0.1399" stop-color="#97E2FF"/>
<stop offset="0.2353" stop-color="#79D9FF"/>
<stop offset="0.341" stop-color="#50CCFE"/>
<stop offset="0.4541" stop-color="#1BBCFE"/>
<stop offset="0.4624" stop-color="#17BBFE"/>
<stop offset="0.6623" stop-color="#0AA8E8"/>
<stop offset="0.8623" stop-color="#0099D6"/>
</linearGradient>
<linearGradient id="paint7_linear" x1="12.9334" y1="15.3882" x2="22.802" y2="14.2039" gradientUnits="userSpaceOnUse">
<stop stop-color="#B0E9FF"/>
<stop offset="0.0583282" stop-color="#AAE7FF"/>
<stop offset="0.1399" stop-color="#97E2FF"/>
<stop offset="0.2353" stop-color="#79D9FF"/>
<stop offset="0.341" stop-color="#50CCFE"/>
<stop offset="0.4541" stop-color="#1BBCFE"/>
<stop offset="0.4624" stop-color="#17BBFE"/>
<stop offset="0.6623" stop-color="#0AA8E8"/>
<stop offset="0.8623" stop-color="#0099D6"/>
</linearGradient>
<linearGradient id="paint8_linear" x1="11.3938" y1="6.85457" x2="7.44369" y2="11.1009" gradientUnits="userSpaceOnUse">
<stop offset="0.1489" stop-color="#B0E9FF"/>
<stop offset="0.2842" stop-color="#7BD9FF"/>
<stop offset="0.4389" stop-color="#45C9FE"/>
<stop offset="0.5548" stop-color="#24BFFE"/>
<stop offset="0.6179" stop-color="#17BBFE"/>
<stop offset="1" stop-color="#80DAFE"/>
</linearGradient>
<linearGradient id="paint9_linear" x1="5.38629" y1="9.91646" x2="6.7191" y2="7.30022" gradientUnits="userSpaceOnUse">
<stop stop-color="#B0E9FF"/>
<stop offset="0.1782" stop-color="#7BD9FF"/>
<stop offset="0.3821" stop-color="#45C9FE"/>
<stop offset="0.5348" stop-color="#24BFFE"/>
<stop offset="0.6179" stop-color="#17BBFE"/>
<stop offset="1" stop-color="#80DAFE"/>
</linearGradient>
<linearGradient id="paint10_linear" x1="2.6028" y1="8.3461" x2="5.21898" y2="5.82863" gradientUnits="userSpaceOnUse">
<stop stop-color="#B0E9FF"/>
<stop offset="0.1782" stop-color="#7BD9FF"/>
<stop offset="0.3821" stop-color="#45C9FE"/>
<stop offset="0.5348" stop-color="#24BFFE"/>
<stop offset="0.6179" stop-color="#17BBFE"/>
<stop offset="1" stop-color="#80DAFE"/>
</linearGradient>
<linearGradient id="paint11_linear" x1="20.529" y1="9.81006" x2="18.6039" y2="6.65098" gradientUnits="userSpaceOnUse">
<stop stop-color="#17BBFE"/>
<stop offset="0.2208" stop-color="#46C9FE"/>
<stop offset="0.5965" stop-color="#90DFFF"/>
<stop offset="0.8658" stop-color="#BFEDFF"/>
<stop offset="1" stop-color="#D1F2FF"/>
</linearGradient>
<linearGradient id="paint12_linear" x1="18.6138" y1="9.91695" x2="17.281" y2="7.30071" gradientUnits="userSpaceOnUse">
<stop stop-color="#B0E9FF"/>
<stop offset="0.1782" stop-color="#7BD9FF"/>
<stop offset="0.3821" stop-color="#45C9FE"/>
<stop offset="0.5348" stop-color="#24BFFE"/>
<stop offset="0.6179" stop-color="#17BBFE"/>
<stop offset="1" stop-color="#80DAFE"/>
</linearGradient>
<linearGradient id="paint13_linear" x1="21.3972" y1="8.3461" x2="18.781" y2="5.82863" gradientUnits="userSpaceOnUse">
<stop stop-color="#B0E9FF"/>
<stop offset="0.1782" stop-color="#7BD9FF"/>
<stop offset="0.3821" stop-color="#45C9FE"/>
<stop offset="0.5348" stop-color="#24BFFE"/>
<stop offset="0.6179" stop-color="#17BBFE"/>
<stop offset="1" stop-color="#80DAFE"/>
</linearGradient>
<radialGradient id="paint14_radial" cx="0" cy="0" r="1" gradientUnits="userSpaceOnUse" gradientTransform="translate(22.2734 14.9079) rotate(126.152) scale(7.73448 5.80899)">
<stop stop-color="#17BBFE"/>
<stop offset="0.0376014" stop-color="#25BFFE"/>
<stop offset="0.2501" stop-color="#6FD6FF"/>
<stop offset="0.4021" stop-color="#9EE4FF"/>
<stop offset="0.4779" stop-color="#B0E9FF"/>
<stop offset="0.5438" stop-color="#AAE7FF"/>
<stop offset="0.6359" stop-color="#97E2FF"/>
<stop offset="0.7436" stop-color="#79D9FF"/>
<stop offset="0.8629" stop-color="#50CCFE"/>
<stop offset="0.9906" stop-color="#1BBCFE"/>
<stop offset="1" stop-color="#17BBFE"/>
</radialGradient>
<linearGradient id="paint15_linear" x1="5.94966" y1="14.9638" x2="8.28017" y2="12.9803" gradientUnits="userSpaceOnUse">
<stop stop-color="#17BBFE"/>
<stop offset="0.0376014" stop-color="#25BFFE"/>
<stop offset="0.2501" stop-color="#6FD6FF"/>
<stop offset="0.4021" stop-color="#9EE4FF"/>
<stop offset="0.4779" stop-color="#B0E9FF"/>
<stop offset="0.538" stop-color="#AAE6FD"/>
<stop offset="0.6221" stop-color="#97DEF9"/>
<stop offset="0.7204" stop-color="#79D0F2"/>
<stop offset="0.8294" stop-color="#50BDE9"/>
<stop offset="0.9458" stop-color="#1BA5DC"/>
<stop offset="1" stop-color="#0099D6"/>
</linearGradient>
<linearGradient id="paint16_linear" x1="6.60038" y1="18.845" x2="11.0382" y2="16.1823" gradientUnits="userSpaceOnUse">
<stop stop-color="#17BBFE"/>
<stop offset="0.0376014" stop-color="#25BFFE"/>
<stop offset="0.2501" stop-color="#6FD6FF"/>
<stop offset="0.4021" stop-color="#9EE4FF"/>
<stop offset="0.4779" stop-color="#B0E9FF"/>
<stop offset="0.538" stop-color="#AAE6FD"/>
<stop offset="0.6221" stop-color="#97DEF9"/>
<stop offset="0.7204" stop-color="#79D0F2"/>
<stop offset="0.8294" stop-color="#50BDE9"/>
<stop offset="0.9458" stop-color="#1BA5DC"/>
<stop offset="1" stop-color="#0099D6"/>
</linearGradient>
<linearGradient id="paint17_linear" x1="12.5019" y1="17.0222" x2="8.65429" y2="17.8361" gradientUnits="userSpaceOnUse">
<stop stop-color="#17BBFE"/>
<stop offset="0.0376014" stop-color="#25BFFE"/>
<stop offset="0.2501" stop-color="#6FD6FF"/>
<stop offset="0.4021" stop-color="#9EE4FF"/>
<stop offset="0.4779" stop-color="#B0E9FF"/>
<stop offset="0.538" stop-color="#AAE6FD"/>
<stop offset="0.6221" stop-color="#97DEF9"/>
<stop offset="0.7204" stop-color="#79D0F2"/>
<stop offset="0.8294" stop-color="#50BDE9"/>
<stop offset="0.9458" stop-color="#1BA5DC"/>
<stop offset="1" stop-color="#0099D6"/>
</linearGradient>
<linearGradient id="paint18_linear" x1="12.0331" y1="13.3358" x2="15.3914" y2="22.3738" gradientUnits="userSpaceOnUse">
<stop stop-color="#17BBFE"/>
<stop offset="0.0376014" stop-color="#25BFFE"/>
<stop offset="0.2501" stop-color="#6FD6FF"/>
<stop offset="0.4021" stop-color="#9EE4FF"/>
<stop offset="0.4779" stop-color="#B0E9FF"/>
<stop offset="0.538" stop-color="#AAE6FD"/>
<stop offset="0.6221" stop-color="#97DEF9"/>
<stop offset="0.7204" stop-color="#79D0F2"/>
<stop offset="0.8294" stop-color="#50BDE9"/>
<stop offset="0.9458" stop-color="#1BA5DC"/>
<stop offset="1" stop-color="#0099D6"/>
</linearGradient>
<linearGradient id="paint19_linear" x1="10.1002" y1="14.9273" x2="12.3226" y2="15.3965" gradientUnits="userSpaceOnUse">
<stop stop-color="white"/>
<stop offset="1" stop-color="white" stop-opacity="0"/>
</linearGradient>
<linearGradient id="paint20_linear" x1="8.54178" y1="15.8954" x2="9.68875" y2="15.4144" gradientUnits="userSpaceOnUse">
<stop stop-color="white"/>
<stop offset="1" stop-color="white" stop-opacity="0"/>
</linearGradient>
<linearGradient id="paint21_linear" x1="9.65147" y1="13.1346" x2="15.0626" y2="12.0137" gradientUnits="userSpaceOnUse">
<stop stop-color="#B0E9FF"/>
<stop offset="0.0583282" stop-color="#AAE7FF"/>
<stop offset="0.1399" stop-color="#97E2FF"/>
<stop offset="0.2353" stop-color="#79D9FF"/>
<stop offset="0.341" stop-color="#50CCFE"/>
<stop offset="0.4541" stop-color="#1BBCFE"/>
<stop offset="0.4624" stop-color="#17BBFE"/>
<stop offset="0.6623" stop-color="#0AA8E8"/>
<stop offset="0.8623" stop-color="#0099D6"/>
</linearGradient>
<linearGradient id="paint22_linear" x1="12.3433" y1="12.5769" x2="16.8531" y2="11.6428" gradientUnits="userSpaceOnUse">
<stop stop-color="#B0E9FF"/>
<stop offset="0.0583282" stop-color="#AAE7FF"/>
<stop offset="0.1399" stop-color="#97E2FF"/>
<stop offset="0.2353" stop-color="#79D9FF"/>
<stop offset="0.341" stop-color="#50CCFE"/>
<stop offset="0.4541" stop-color="#1BBCFE"/>
<stop offset="0.4624" stop-color="#17BBFE"/>
<stop offset="0.6623" stop-color="#0AA8E8"/>
<stop offset="0.8623" stop-color="#0099D6"/>
</linearGradient>
<linearGradient id="paint23_linear" x1="18.8022" y1="13.0238" x2="15.2955" y2="9.25726" gradientUnits="userSpaceOnUse">
<stop stop-color="#B0E9FF"/>
<stop offset="0.0583282" stop-color="#AAE7FF"/>
<stop offset="0.1399" stop-color="#97E2FF"/>
<stop offset="0.2353" stop-color="#79D9FF"/>
<stop offset="0.341" stop-color="#50CCFE"/>
<stop offset="0.4541" stop-color="#1BBCFE"/>
<stop offset="0.4624" stop-color="#17BBFE"/>
<stop offset="0.6623" stop-color="#0AA8E8"/>
<stop offset="0.8623" stop-color="#0099D6"/>
</linearGradient>
<linearGradient id="paint24_linear" x1="21.3203" y1="11.7241" x2="16.6553" y2="6.71355" gradientUnits="userSpaceOnUse">
<stop stop-color="#B0E9FF"/>
<stop offset="0.0583282" stop-color="#AAE7FF"/>
<stop offset="0.1399" stop-color="#97E2FF"/>
<stop offset="0.2353" stop-color="#79D9FF"/>
<stop offset="0.341" stop-color="#50CCFE"/>
<stop offset="0.4541" stop-color="#1BBCFE"/>
<stop offset="0.4624" stop-color="#17BBFE"/>
<stop offset="0.6623" stop-color="#0AA8E8"/>
<stop offset="0.8623" stop-color="#0099D6"/>
</linearGradient>
<linearGradient id="paint25_linear" x1="5.19779" y1="13.0238" x2="8.70453" y2="9.25726" gradientUnits="userSpaceOnUse">
<stop stop-color="#B0E9FF"/>
<stop offset="0.0583282" stop-color="#AAE7FF"/>
<stop offset="0.1399" stop-color="#97E2FF"/>
<stop offset="0.2353" stop-color="#79D9FF"/>
<stop offset="0.341" stop-color="#50CCFE"/>
<stop offset="0.4541" stop-color="#1BBCFE"/>
<stop offset="0.4624" stop-color="#17BBFE"/>
<stop offset="0.6623" stop-color="#0AA8E8"/>
<stop offset="0.8623" stop-color="#0099D6"/>
</linearGradient>
<linearGradient id="paint26_linear" x1="2.67985" y1="11.7241" x2="7.34481" y2="6.71355" gradientUnits="userSpaceOnUse">
<stop stop-color="#B0E9FF"/>
<stop offset="0.0583282" stop-color="#AAE7FF"/>
<stop offset="0.1399" stop-color="#97E2FF"/>
<stop offset="0.2353" stop-color="#79D9FF"/>
<stop offset="0.341" stop-color="#50CCFE"/>
<stop offset="0.4541" stop-color="#1BBCFE"/>
<stop offset="0.4624" stop-color="#17BBFE"/>
<stop offset="0.6623" stop-color="#0AA8E8"/>
<stop offset="0.8623" stop-color="#0099D6"/>
</linearGradient>
<linearGradient id="paint27_linear" x1="12.6829" y1="14.155" x2="15.43" y2="15.4304" gradientUnits="userSpaceOnUse">
<stop stop-color="#0099D6"/>
<stop offset="1" stop-color="#0099D6" stop-opacity="0"/>
</linearGradient>
<radialGradient id="paint28_radial" cx="0" cy="0" r="1" gradientUnits="userSpaceOnUse" gradientTransform="translate(17.0314 10.3142) scale(0.519326 0.519908)">
<stop stop-color="white"/>
<stop offset="1" stop-color="white" stop-opacity="0"/>
</radialGradient>
<radialGradient id="paint29_radial" cx="0" cy="0" r="1" gradientUnits="userSpaceOnUse" gradientTransform="translate(8.88632 14.3414) rotate(90.0013) scale(0.38822 0.387806)">
<stop stop-color="white"/>
<stop offset="1" stop-color="white" stop-opacity="0"/>
</radialGradient>
<linearGradient id="paint30_linear" x1="11.915" y1="9.16147" x2="12.1626" y2="-1.73082" gradientUnits="userSpaceOnUse">
<stop stop-color="#17BBFE"/>
<stop offset="0.1176" stop-color="#46C9FE"/>
<stop offset="0.3177" stop-color="#90DFFF"/>
<stop offset="0.4612" stop-color="#BFEDFF"/>
<stop offset="0.5327" stop-color="#D1F2FF"/>
<stop offset="0.5846" stop-color="#CBF0FF"/>
<stop offset="0.6572" stop-color="#B8EBFF"/>
<stop offset="0.742" stop-color="#9AE2FF"/>
<stop offset="0.8361" stop-color="#71D6FE"/>
<stop offset="0.9365" stop-color="#3CC6FE"/>
<stop offset="1" stop-color="#17BBFE"/>
</linearGradient>
<radialGradient id="paint31_radial" cx="0" cy="0" r="1" gradientUnits="userSpaceOnUse" gradientTransform="translate(8.03113 6.35811) rotate(45.0347) scale(0.519614)">
<stop stop-color="white"/>
<stop offset="1" stop-color="white" stop-opacity="0"/>
</radialGradient>
<linearGradient id="paint32_linear" x1="17.1631" y1="9.7384" x2="17.2372" y2="1.7869" gradientUnits="userSpaceOnUse">
<stop stop-color="#17BBFE"/>
<stop offset="0.1176" stop-color="#46C9FE"/>
<stop offset="0.3177" stop-color="#90DFFF"/>
<stop offset="0.4612" stop-color="#BFEDFF"/>
<stop offset="0.5327" stop-color="#D1F2FF"/>
<stop offset="0.5846" stop-color="#CBF0FF"/>
<stop offset="0.6572" stop-color="#B8EBFF"/>
<stop offset="0.742" stop-color="#9AE2FF"/>
<stop offset="0.8361" stop-color="#71D6FE"/>
<stop offset="0.9365" stop-color="#3CC6FE"/>
<stop offset="1" stop-color="#17BBFE"/>
</linearGradient>
<linearGradient id="paint33_linear" x1="6.84073" y1="10.1306" x2="6.76665" y2="2.17907" gradientUnits="userSpaceOnUse">
<stop stop-color="#17BBFE"/>
<stop offset="0.1176" stop-color="#46C9FE"/>
<stop offset="0.3177" stop-color="#90DFFF"/>
<stop offset="0.4612" stop-color="#BFEDFF"/>
<stop offset="0.5327" stop-color="#D1F2FF"/>
<stop offset="0.5846" stop-color="#CBF0FF"/>
<stop offset="0.6572" stop-color="#B8EBFF"/>
<stop offset="0.742" stop-color="#9AE2FF"/>
<stop offset="0.8361" stop-color="#71D6FE"/>
<stop offset="0.9365" stop-color="#3CC6FE"/>
<stop offset="1" stop-color="#17BBFE"/>
</linearGradient>
</defs>
</svg>
