<svg width="80" height="80" viewBox="0 0 80 80" fill="none" xmlns="http://www.w3.org/2000/svg">
<path d="M49.9993 56.0287C49.9547 57.2187 47.5746 58.8054 44.0889 58.8054C40.6031 58.8054 24.6767 52.5727 20.715 46.4144C15.469 38.2578 10.0445 35.9621 7.04467 34.1572C4.04483 32.3523 8.06114 21.8951 12.0774 18.8506C16.0888 15.8062 17.7201 21.3199 22.4851 20.0853C27.2501 18.8506 35.5803 19.8671 38.8875 20.9232C42.1948 21.9794 64.8596 35.8728 64.6861 40.9452C64.5076 46.0177 63.6696 48.3085 60.0103 48.3977C60.0103 48.3977 60.4516 52.3644 55.1164 52.4537C55.1164 52.4537 55.0469 56.8667 49.9993 56.0287Z" fill="url(#paint0_linear)"/>
<path d="M58.2599 43.3106C56.5542 43.6032 47.5894 37.8514 45.0606 37.9903C41.8873 38.1688 47.401 39.686 52.0272 42.314C58.1409 45.7849 61.2002 49.107 55.4683 50.6044C53.8866 51.0209 45.6755 43.9403 40.8262 44.342C39.77 44.4312 44.3367 46.6774 49.3943 49.9003C54.4518 53.1183 51.8933 54.2637 49.2902 54.0009C46.687 53.7381 37.7371 48.7549 35.5752 49.1516C33.4134 49.5483 39.9386 51.135 45.1003 54.3976C47.7481 56.0735 43.3103 56.9115 38.3618 57.328C40.9303 58.2503 43.0574 58.8056 44.0838 58.8056C47.5696 58.8056 49.9496 57.2189 49.9942 56.0289C55.0419 56.8669 55.1113 52.4589 55.1113 52.4589C60.4466 52.3696 60.0053 48.4029 60.0053 48.4029C63.6646 48.3137 64.5025 46.0229 64.681 40.9504C64.686 40.8017 64.6661 40.648 64.6364 40.4843L60.8432 38.1985C61.6713 41.1388 59.9656 43.0181 58.2599 43.3106Z" fill="url(#paint1_radial)"/>
<path d="M54.9972 53.2415C54.3973 52.6465 53.7477 52.0466 52.999 51.4317C36.9487 38.2424 34.7422 48.1294 27.2451 43.1016C19.748 38.0738 24.513 32.6047 18.072 32.2526C12.4244 31.9452 9.15186 28.7818 7.89739 24.6167C6.02807 28.5636 5.18514 33.0212 7.04454 34.1468C10.0444 35.9566 15.4689 38.2473 20.7148 46.4039C24.6766 52.5622 40.603 58.7949 44.0887 58.7949C47.5745 58.7949 49.9545 57.2083 49.9992 56.0182C53.6733 56.638 54.7047 54.4712 54.9972 53.2415Z" fill="url(#paint2_linear)"/>
<path d="M45.269 38.4316C48.1995 39.3489 50.9613 40.7274 53.6289 42.2298C54.9528 43.0033 56.2569 43.8115 57.546 44.6296C58.9939 45.3437 59.7079 46.9353 60.0104 48.3931C59.574 46.9502 58.8104 45.4874 57.4072 44.8577C56.0833 44.0842 54.7892 43.276 53.4554 42.5322C50.8125 41.0001 48.0904 39.6167 45.269 38.4316Z" fill="#804B24"/>
<path d="M41.7981 44.6938C44.2228 45.5764 46.4838 46.8508 48.6952 48.1647C49.791 48.844 50.8769 49.5333 51.943 50.2522L55.1114 52.4537C52.8553 51.2042 50.7183 49.7712 48.5118 48.4622C47.4209 47.7829 46.3102 47.1433 45.1946 46.5037C44.079 45.8789 42.9584 45.2541 41.7981 44.6938Z" fill="#804B24"/>
<path d="M36.1555 49.4985C38.605 50.2423 40.9503 51.2935 43.2609 52.3794C45.5517 53.5099 47.8276 54.6801 50.0043 56.0288C45.3831 53.8322 40.8511 51.5116 36.1555 49.4985Z" fill="#804B24"/>
<path d="M49.3943 57.0999C24.042 54.0703 22.2173 42.9585 19.2769 39.081C16.3366 35.1986 19.2174 32.2037 16.8077 33.2599C14.6954 34.1871 9.61797 34.8862 6.13222 30.0815C5.83967 31.9955 6.05288 33.5574 7.04456 34.1573C10.0444 35.9671 15.4689 38.2579 20.7149 46.4145C24.6766 52.5728 40.603 58.8055 44.0888 58.8055C46.5779 58.8055 48.4819 57.9924 49.3943 57.0999Z" fill="url(#paint3_linear)"/>
<path d="M29.7095 19.5644C27.0964 19.4553 24.4735 19.5694 22.4802 20.0851C18.0275 21.2404 16.3119 16.5001 12.8262 18.3645C16.0491 18.3942 16.7284 22.1825 20.6852 22.0833C23.338 22.0188 25.956 21.4635 28.2964 21.3445C28.703 20.7396 29.1691 20.1297 29.7095 19.5644Z" fill="url(#paint4_radial)"/>
<path d="M63.4465 46.8163C64.2795 45.6114 64.5869 43.7024 64.6861 40.9455C64.8646 35.8731 42.1948 21.9846 38.8875 20.9235C36.8546 20.274 32.9325 19.6443 29.0997 19.5352C28.7476 19.5253 24.0123 25.9018 24.1016 28.019C24.171 29.7247 25.3809 32.0303 29.7145 32.0303C34.0481 32.0303 34.7721 26.4125 37.0381 25.7828C40.623 24.7812 44.2129 31.4452 49.1514 33.736C54.09 36.0268 60.0847 38.4812 60.6747 39.4828C61.235 40.4497 63.9622 43.2562 63.4465 46.8163Z" fill="url(#paint5_radial)"/>
<path d="M26.9824 30.3192C24.8652 29.0846 25.2172 26.7046 26.2783 24.9394C27.3394 23.1742 29.5856 17.001 35.4068 17.001C40.6081 17.001 44.9913 20.0504 48.2391 21.3247C50.9117 22.3709 53.971 24.0568 56.1775 24.0568C58.384 24.0568 62.4052 21.88 63.7638 20.7942C64.7952 19.9711 67.4678 20.7049 71.4345 27.9392C75.4012 35.1735 74.0823 36.6709 72.0543 37.2015C70.0263 37.732 67.1157 38.5254 66.4116 40.7269C65.7075 42.9285 64.4184 44.1433 64.4184 44.1433C64.4184 44.1433 62.549 39.4675 59.6236 37.5535C54.7743 34.3802 50.5398 32.615 48.1598 30.8498C45.7797 29.0846 39.7801 24.3245 37.3108 24.3245C34.8316 24.3196 31.569 32.6993 26.9824 30.3192Z" fill="url(#paint6_linear)"/>
<path d="M64.4085 44.1383C64.4085 44.1383 65.6977 42.9285 66.4018 40.722C67.1059 38.5155 70.0165 37.7222 72.0445 37.1966C73.6857 36.7702 74.8608 35.7041 73.1502 31.4845C65.4151 29.8631 68.1323 43.4987 61.8401 36.0214C55.3198 28.2615 50.2077 29.7292 47.9714 28.4946C45.7352 27.2599 39.9884 23.085 37.1671 23.085C34.3458 23.085 32.6252 31.1126 26.2388 29.7243C26.4421 29.9375 26.685 30.1408 26.9825 30.3143C31.569 32.6943 34.8317 24.3146 37.301 24.3146C39.7702 24.3146 45.7699 29.0747 48.1499 30.8399C50.53 32.6051 54.7644 34.3653 59.6138 37.5437C62.5392 39.4675 64.4085 44.1383 64.4085 44.1383Z" fill="url(#paint7_radial)"/>
<path d="M34.6977 61.9791C32.2334 61.8304 31.5194 59.0884 32.3177 56.8174C33.4184 53.6887 35.5952 53.2672 36.7703 53.292C37.9454 53.3168 40.0726 54.2143 39.5024 57.1744C39.066 59.4504 38.4016 62.2023 34.6977 61.9791Z" fill="url(#paint8_linear)"/>
<path d="M42.2296 63.1538C40.6925 63.1538 39.0067 62.6629 39.1504 58.24C39.2942 53.8171 41.7982 53.8667 42.4676 53.8667C43.137 53.8667 45.5468 54.6551 45.5468 58.3888C45.5468 62.1175 44.0543 63.1538 42.2296 63.1538Z" fill="url(#paint9_linear)"/>
<path d="M38.6595 59.941C37.5488 60.0798 35.7985 60.1492 34.8018 59.4203C33.5622 58.513 33.8845 55.4338 34.9506 53.6587C33.9837 54.0851 32.9672 54.9776 32.3177 56.8172C31.5194 59.0881 32.2334 61.8301 34.6977 61.9789C36.8992 62.1128 38.0149 61.1855 38.6595 59.941Z" fill="url(#paint10_linear)"/>
<path d="M45.5466 58.3839C45.5466 57.6302 45.4326 57.0203 45.269 56.4897C44.9963 57.9326 43.6327 60.5358 42.2096 60.5358C40.9601 60.5358 39.9635 60.1986 39.1652 57.9624C39.1602 58.0566 39.1503 58.1409 39.1453 58.2351C39.0015 62.658 40.6824 63.1489 42.2245 63.1489C44.0542 63.1539 45.5466 62.1175 45.5466 58.3839Z" fill="url(#paint11_linear)"/>
<path d="M22.0636 54.0654C19.5944 52.9151 19.0787 50.3169 20.6455 46.9402C22.2124 43.5636 24.5924 44.4462 25.7725 44.9916C26.9477 45.542 29.0203 48.0261 27.7113 50.8425C26.4022 53.6539 24.0619 54.9976 22.0636 54.0654Z" fill="url(#paint12_linear)"/>
<path d="M27.2551 58.3492C25.0883 56.9311 25.3362 53.9312 27.6568 50.624C29.9823 47.3167 32.035 48.6258 33.0218 49.3894C34.0085 50.1529 35.4762 53.2123 33.4284 55.8501C31.8565 57.8831 30.4484 60.4367 27.2551 58.3492Z" fill="url(#paint13_linear)"/>
<path d="M22.8174 52.7459C20.8836 51.8435 21.072 46.895 23.2438 44.5249C22.3364 44.6885 21.3943 45.3133 20.6407 46.9397C19.0738 50.3163 19.5895 52.9145 22.0588 54.0649C24.0619 54.997 26.4023 53.6533 27.7064 50.8419C27.7064 50.8419 25.1131 53.8169 22.8174 52.7459Z" fill="url(#paint14_linear)"/>
<path d="M27.2551 58.3494C28.941 59.4501 30.1261 59.2568 31.1029 58.5328C29.5558 58.4833 27.3989 57.6651 27.3989 55.4537C27.3989 52.8158 29.0749 49.9399 32.1293 48.8045C31.0235 48.259 29.422 48.1152 27.6617 50.6192C25.3313 53.9314 25.0883 56.9313 27.2551 58.3494Z" fill="url(#paint15_linear)"/>
<path d="M20.6406 46.9401C21.067 46.0129 21.6769 45.0758 22.6587 44.6295C23.6504 44.1882 24.7958 44.4262 25.7279 44.8675C26.7047 45.3386 27.394 46.2162 27.8402 47.1682C28.2815 48.1351 28.3658 49.2656 28.0584 50.292C28.0386 50.3614 27.9642 50.4011 27.8948 50.3813C27.8799 50.3763 27.865 50.3664 27.8501 50.3565L27.8452 50.3515C27.7857 50.3069 27.7758 50.2275 27.8204 50.168C28.5245 49.2854 29.4666 48.3632 30.726 48.3285C31.3359 48.2987 31.9309 48.502 32.4416 48.7946C32.9424 49.0822 33.4432 49.464 33.7605 49.9796C34.4101 50.9713 34.7026 52.1812 34.5886 53.3563C34.5737 53.5051 34.5589 53.6488 34.5241 53.7926L34.4795 54.0108V54.0158C34.6927 54.1645 34.187 53.8224 34.2415 53.8521L34.2514 53.8422L34.2762 53.8274L34.3258 53.7976L34.42 53.7381C34.6779 53.5893 34.9456 53.4654 35.2282 53.3712C35.7935 53.1827 36.3835 53.1084 36.9786 53.158C38.1587 53.2621 39.304 54.0951 39.5916 55.2802C39.6363 55.4239 39.6561 55.5678 39.6809 55.7165L39.6908 55.771L39.6958 55.7958V55.8008C39.7453 55.8107 39.2743 55.7413 39.4726 55.7661L39.4776 55.7562L39.5222 55.657L39.6115 55.4587C39.7453 55.1959 39.899 54.943 40.0974 54.7199C40.4792 54.2637 41.0296 53.9563 41.6047 53.8373C42.765 53.51 44.0244 54.1595 44.669 55.1016C45.3582 56.0537 45.5566 57.2437 45.5467 58.3792C45.5169 57.2437 45.2789 56.0685 44.5748 55.176C43.8906 54.2885 42.7551 53.7232 41.6494 54.0306C41.1139 54.1497 40.6131 54.4372 40.266 54.8637C40.0825 55.0719 39.9437 55.3099 39.8197 55.5578L39.7354 55.7512L39.6958 55.8454L39.6908 55.8553C39.8891 55.8801 39.4181 55.8256 39.4627 55.8305V55.8256L39.4578 55.8008L39.4478 55.7512C39.428 55.6173 39.4032 55.4785 39.3635 55.3496C39.0908 54.2686 38.0446 53.5298 36.9538 53.4406C36.4083 53.4009 35.8431 53.4803 35.3274 53.6588C35.0696 53.748 34.8167 53.867 34.5836 54.0108L34.4994 54.0653L34.4547 54.0951L34.4349 54.11L34.425 54.1149C34.4746 54.1546 33.9738 53.7976 34.187 53.9463V53.9414L34.2266 53.7381C34.2564 53.6042 34.2663 53.4654 34.2812 53.3265C34.3803 52.2258 34.068 51.0953 33.4829 50.168C33.2003 49.697 32.7689 49.3648 32.2879 49.0772C31.8169 48.7995 31.2863 48.6161 30.7458 48.6359C29.6401 48.6458 28.7278 49.4788 28.0386 50.3366L28.0138 50.1532L28.0187 50.1581L27.8105 50.2226C28.108 49.2607 28.0485 48.1996 27.6369 47.2674C27.2254 46.3501 26.556 45.4923 25.6536 45.046C24.7412 44.6146 23.6702 44.3419 22.7083 44.7336C21.7414 45.1204 21.0968 46.0228 20.6406 46.9401Z" fill="#804B24"/>
<path d="M33.0168 49.3897C32.2929 48.8988 31.445 48.517 30.607 48.6261C29.7691 48.7302 29.0451 49.2608 28.47 49.8855C27.8799 50.5103 27.3989 51.2541 26.9527 51.9978C26.5114 52.7515 26.1246 53.5399 25.8767 54.3927C25.9957 53.5151 26.3031 52.6622 26.7147 51.8689C27.1262 51.0756 27.6122 50.3268 28.2121 49.6475C28.8319 49.0079 29.6302 48.4129 30.5822 48.3583C31.5392 48.2889 32.3772 48.8046 33.0168 49.3897Z" fill="#804B24"/>
<path d="M33.9538 50.6787C34.6827 51.8935 34.8166 53.4951 34.2315 54.8388C33.934 55.5131 33.458 56.0685 33.0266 56.609C32.5853 57.1544 32.1192 57.6998 31.5688 58.1461C32.03 57.6106 32.4068 57.0255 32.8134 56.4503C33.2101 55.8602 33.6663 55.3346 33.9142 54.7049C34.4794 53.4554 34.41 52.0026 33.9538 50.6787Z" fill="#804B24"/>
<path d="M38.5404 53.9165C39.066 54.2338 39.4775 54.7743 39.6362 55.3941C39.8147 56.009 39.7701 56.6635 39.661 57.2734C39.4081 58.4534 39.1106 59.7426 38.228 60.6401C38.5553 60.1195 38.7586 59.5492 38.9272 58.9741C39.0908 58.3939 39.2147 57.8039 39.3189 57.2089C39.5866 56.0635 39.4577 54.7793 38.5404 53.9165Z" fill="#804B24"/>
<path d="M36.5422 17.0803C36.1654 17.0506 35.7885 17.001 35.4018 17.001C29.5806 17.001 27.3295 23.1742 26.2734 24.9394C25.366 26.4517 24.9991 28.4103 26.2486 29.7143C26.3775 29.8482 26.2535 29.2086 26.0056 28.5689C25.4701 27.1756 27.2303 19.4008 36.5422 17.0803Z" fill="url(#paint16_linear)"/>
<path d="M35.4017 17.0012C34.0232 17.0061 32.6547 17.4078 31.5043 18.1515C30.349 18.8903 29.402 19.9118 28.6136 21.0274C27.8302 22.153 27.2054 23.3727 26.5757 24.6024C25.8716 25.7577 25.3163 27.1113 25.6386 28.4303C25.7972 29.0699 26.1989 29.6401 26.7443 30.017C27.2897 30.3938 27.9541 30.5624 28.6086 30.612C29.9524 30.5822 31.1325 29.7393 32.1093 28.8269C33.101 27.8898 33.9488 26.8089 34.886 25.7875C35.3521 25.2817 35.8429 24.766 36.4826 24.409C37.1569 23.9975 37.9701 24.2107 38.6048 24.4338C41.2129 25.485 43.4144 27.1907 45.6457 28.7972C46.7564 29.6054 47.8274 30.493 48.9579 31.2516C50.1033 32.0003 51.3181 32.6499 52.523 33.3093C54.9427 34.6184 57.3574 35.9571 59.6532 37.4794C60.8035 38.2727 61.706 39.3536 62.4745 40.4941C63.2332 41.6444 63.8827 42.8691 64.4033 44.1434C63.2679 41.6692 61.825 39.1751 59.559 37.6231C57.2533 36.1257 54.8386 34.8068 52.409 33.5126C51.1991 32.8581 49.9744 32.2185 48.8092 31.4698C47.6489 30.7012 46.5878 29.8335 45.4672 29.0302C43.2409 27.4436 41.0046 25.7577 38.4858 24.7611C37.8561 24.5379 37.1867 24.3644 36.6363 24.7016C36.071 25.009 35.5851 25.5048 35.119 26.0007C34.1868 26.9973 33.3241 28.0832 32.3076 29.0302C31.306 29.9575 30.0714 30.845 28.6086 30.8698C27.8946 30.8153 27.1905 30.6268 26.6005 30.2153C26.0154 29.8087 25.5791 29.179 25.4105 28.4799C25.0733 27.0568 25.6881 25.6437 26.3922 24.4983C27.0269 23.2835 27.6616 22.0488 28.4698 20.9233C29.2879 19.8126 30.2697 18.7961 31.4548 18.0722C32.6398 17.3483 34.0232 16.9764 35.4017 17.0012Z" fill="#804B24"/>
<path opacity="0.75" d="M35.1143 18.8557C36.5373 19.8077 35.4713 22.7778 33.6863 25.6339C32.2235 27.9693 29.2634 29.7047 27.8949 28.7378C26.5263 27.7709 25.5049 26.6454 28.8865 22.0142C30.8798 19.2822 33.721 17.9235 35.1143 18.8557Z" fill="url(#paint17_radial)"/>
<path opacity="0.75" d="M16.3715 20.1202C18.8408 21.1218 18.8111 24.6324 17.7103 28.0537C16.8128 30.8552 13.5105 33.0666 11.1156 32.0452C8.72073 31.0237 6.72745 29.7891 9.18682 24.201C10.6347 20.9086 13.9568 19.1385 16.3715 20.1202Z" fill="url(#paint18_radial)"/>
<path opacity="0.75" d="M54.9329 27.3243C54.0255 28.7721 50.4306 28.5391 46.8705 27.6565C43.9599 26.9375 41.5452 24.7856 42.4774 23.3824C43.4096 21.9841 44.5797 20.8387 50.4158 22.6832C53.8569 23.7741 55.8204 25.9111 54.9329 27.3243Z" fill="url(#paint19_radial)"/>
<path opacity="0.75" d="M67.2395 33.131C64.9338 34.2069 62.1323 32.3674 60.0498 29.8832C58.349 27.8503 58.5771 24.5728 60.853 23.5563C63.1289 22.5398 65.3305 21.8903 68.3253 26.3776C70.0905 29.0204 69.4906 32.0798 67.2395 33.131Z" fill="url(#paint20_radial)"/>
<defs>
<linearGradient id="paint0_linear" x1="27.4793" y1="53.2271" x2="40.6498" y2="25.2397" gradientUnits="userSpaceOnUse">
<stop offset="0.00132565" stop-color="#F0C492"/>
<stop offset="1" stop-color="#F8DBBA"/>
</linearGradient>
<radialGradient id="paint1_radial" cx="0" cy="0" r="1" gradientUnits="userSpaceOnUse" gradientTransform="translate(33.7508 11.598) scale(48.8887)">
<stop stop-color="#F0C492" stop-opacity="0"/>
<stop offset="1" stop-color="#F0C492"/>
</radialGradient>
<linearGradient id="paint2_linear" x1="25.2662" y1="52.1851" x2="38.4367" y2="24.1978" gradientUnits="userSpaceOnUse">
<stop offset="0.3118" stop-color="#F0C492" stop-opacity="0"/>
<stop offset="1" stop-color="#E6AF74"/>
</linearGradient>
<linearGradient id="paint3_linear" x1="34.6734" y1="29.9146" x2="23.1492" y2="52.7278" gradientUnits="userSpaceOnUse">
<stop offset="0.3118" stop-color="#F0C492" stop-opacity="0"/>
<stop offset="1" stop-color="#E6AF74"/>
</linearGradient>
<radialGradient id="paint4_radial" cx="0" cy="0" r="1" gradientUnits="userSpaceOnUse" gradientTransform="translate(21.2715 20.0071) scale(6.14671)">
<stop stop-color="#F0C492" stop-opacity="0"/>
<stop offset="1" stop-color="#F0C492"/>
</radialGradient>
<radialGradient id="paint5_radial" cx="0" cy="0" r="1" gradientUnits="userSpaceOnUse" gradientTransform="translate(44.3921 33.1771) scale(17.289)">
<stop stop-color="#F0C492" stop-opacity="0"/>
<stop offset="1" stop-color="#F0C492"/>
</radialGradient>
<linearGradient id="paint6_linear" x1="63.3511" y1="56.6252" x2="40.7731" y2="13.5858" gradientUnits="userSpaceOnUse">
<stop offset="0.00132565" stop-color="#F0C492"/>
<stop offset="1" stop-color="#F8DBBA"/>
</linearGradient>
<radialGradient id="paint7_radial" cx="0" cy="0" r="1" gradientUnits="userSpaceOnUse" gradientTransform="translate(61.9736 13.6261) scale(30.4319)">
<stop stop-color="#F0C492" stop-opacity="0"/>
<stop offset="1" stop-color="#F0C492"/>
</radialGradient>
<linearGradient id="paint8_linear" x1="35.15" y1="58.9684" x2="38.6778" y2="52.148" gradientUnits="userSpaceOnUse">
<stop offset="0.00132565" stop-color="#F0C492"/>
<stop offset="1" stop-color="#F8DBBA"/>
</linearGradient>
<linearGradient id="paint9_linear" x1="40.6459" y1="61.8107" x2="44.1738" y2="54.9902" gradientUnits="userSpaceOnUse">
<stop offset="0.00132565" stop-color="#F0C492"/>
<stop offset="1" stop-color="#F8DBBA"/>
</linearGradient>
<linearGradient id="paint10_linear" x1="42.4339" y1="57.8873" x2="20.4732" y2="57.7109" gradientUnits="userSpaceOnUse">
<stop stop-color="#E6AF74" stop-opacity="0"/>
<stop offset="1" stop-color="#E6AF74"/>
</linearGradient>
<linearGradient id="paint11_linear" x1="47.6634" y1="52.0797" x2="23.4978" y2="85.4176" gradientUnits="userSpaceOnUse">
<stop stop-color="#E6AF74" stop-opacity="0"/>
<stop offset="1" stop-color="#E6AF74"/>
</linearGradient>
<linearGradient id="paint12_linear" x1="20.775" y1="51.725" x2="27.8543" y2="46.3304" gradientUnits="userSpaceOnUse">
<stop offset="0.00132565" stop-color="#F0C492"/>
<stop offset="1" stop-color="#F8DBBA"/>
</linearGradient>
<linearGradient id="paint13_linear" x1="29.0057" y1="56.1573" x2="33.0581" y2="48.3227" gradientUnits="userSpaceOnUse">
<stop offset="0.00132565" stop-color="#F0C492"/>
<stop offset="1" stop-color="#F8DBBA"/>
</linearGradient>
<linearGradient id="paint14_linear" x1="34.345" y1="50.6217" x2="2.77103" y2="47.2703" gradientUnits="userSpaceOnUse">
<stop stop-color="#E6AF74" stop-opacity="0"/>
<stop offset="1" stop-color="#E6AF74"/>
</linearGradient>
<linearGradient id="paint15_linear" x1="37.7961" y1="42.9638" x2="10.4629" y2="80.6717" gradientUnits="userSpaceOnUse">
<stop stop-color="#E6AF74" stop-opacity="0"/>
<stop offset="1" stop-color="#E6AF74"/>
</linearGradient>
<linearGradient id="paint16_linear" x1="27.6784" y1="12.3274" x2="38.2828" y2="45.2347" gradientUnits="userSpaceOnUse">
<stop stop-color="#FFBC47" stop-opacity="0"/>
<stop offset="1" stop-color="#C86F34"/>
</linearGradient>
<radialGradient id="paint17_radial" cx="0" cy="0" r="1" gradientUnits="userSpaceOnUse" gradientTransform="translate(31.3821 23.7056) rotate(-53.8461) scale(6.2808 3.05984)">
<stop stop-color="#F8E6D2"/>
<stop offset="1" stop-color="#F8E6D2" stop-opacity="0"/>
</radialGradient>
<radialGradient id="paint18_radial" cx="0" cy="0" r="1" gradientUnits="userSpaceOnUse" gradientTransform="translate(13.5238 25.9872) rotate(-66.2167) scale(6.68835 4.76052)">
<stop stop-color="#F8E6D2"/>
<stop offset="1" stop-color="#F8E6D2" stop-opacity="0"/>
</radialGradient>
<radialGradient id="paint19_radial" cx="0" cy="0" r="1" gradientUnits="userSpaceOnUse" gradientTransform="translate(48.7868 25.2326) rotate(17.5529) scale(6.70381 2.95807)">
<stop stop-color="#F8E6D2"/>
<stop offset="1" stop-color="#F8E6D2" stop-opacity="0"/>
</radialGradient>
<radialGradient id="paint20_radial" cx="0" cy="0" r="1" gradientUnits="userSpaceOnUse" gradientTransform="translate(64.2607 28.2685) rotate(56.3078) scale(5.90707 4.49614)">
<stop stop-color="#F8E6D2"/>
<stop offset="1" stop-color="#F8E6D2" stop-opacity="0"/>
</radialGradient>
</defs>
</svg>
