<svg width="80" height="80" viewBox="0 0 80 80" fill="none" xmlns="http://www.w3.org/2000/svg">
<path d="M50.0022 56.0284C49.9599 57.2183 47.5764 58.8073 44.0912 58.8073C40.6061 58.8073 24.6773 52.574 20.7162 46.4136C15.4693 38.2534 10.042 35.962 7.04426 34.1541C4.04658 32.3463 8.05757 21.8947 12.0724 18.851C16.0872 15.8072 17.7185 21.319 22.4818 20.0869C27.2451 18.8548 35.578 19.8681 38.8865 20.9236C42.1951 21.983 64.8639 35.8737 64.6874 40.944C64.5108 46.0144 63.6741 48.3097 60.0124 48.398C60.0124 48.398 60.4538 52.3667 55.1186 52.455C55.1186 52.4589 55.0533 56.869 50.0022 56.0284Z" fill="url(#paint0_linear)"/>
<path d="M58.2659 43.3156C56.5617 43.6111 47.5955 37.8537 45.0661 37.9957C41.8919 38.1723 47.4074 39.6923 52.0326 42.3176C58.1469 45.7874 61.206 49.1075 55.4717 50.6083C53.8864 51.0228 45.6764 43.9412 40.8287 44.3442C39.7693 44.4325 44.3407 46.6818 49.3995 49.9021C54.4583 53.1224 51.8982 54.2662 49.2959 54.0052C46.6935 53.7442 37.7427 48.7583 35.5817 49.1536C33.4208 49.5489 39.9458 51.138 45.1083 54.4005C47.7567 56.074 43.3159 56.9146 38.3683 57.333C40.94 58.258 43.0625 58.8107 44.0912 58.8107C47.5763 58.8107 49.9561 57.2216 50.0021 56.0318C55.0533 56.8685 55.1185 52.4583 55.1185 52.4583C60.4537 52.3701 60.0123 48.4013 60.0123 48.4013C63.674 48.313 64.5108 46.0216 64.6873 40.9474C64.6912 40.8015 64.6758 40.6442 64.6413 40.4829L60.8491 38.1992C61.6743 41.1393 59.9701 43.02 58.2659 43.3156Z" fill="url(#paint1_linear)"/>
<path d="M54.9996 53.2489C54.397 52.6578 53.7483 52.0552 52.9998 51.4411C36.9482 38.249 34.7412 48.1402 27.2451 43.1121C19.7489 38.0839 24.5122 32.6144 18.0716 32.2613C12.4255 31.9504 9.15146 28.7915 7.89634 24.627C6.02711 28.5727 5.18269 33.0328 7.04425 34.1574C10.0419 35.9652 15.4692 38.2605 20.7162 46.4168C24.6773 52.5734 40.6061 58.8106 44.0912 58.8106C47.5764 58.8106 49.9561 57.2215 50.0022 56.0317C53.6792 56.6381 54.7117 54.4733 54.9996 53.2489Z" fill="url(#paint2_linear)"/>
<path d="M45.2695 38.4341C48.1981 39.3514 50.9655 40.7294 53.6331 42.234C54.9573 43.0055 56.2623 43.8153 57.552 44.6329C59.0029 45.3468 59.7129 46.9397 60.0162 48.3982C59.5786 46.955 58.8148 45.4927 57.41 44.8632C56.0858 44.0917 54.7884 43.2818 53.4566 42.5372C50.8158 41.0019 48.0945 39.6201 45.2695 38.4341Z" fill="#804B24"/>
<path d="M41.7998 44.6978C44.2256 45.5806 46.4863 46.8549 48.6972 48.1676C49.7911 48.8469 50.8812 49.534 51.9482 50.2556L55.1186 52.4587C52.8655 51.2075 50.7276 49.7758 48.5168 48.4669C47.4267 47.7876 46.3136 47.1466 45.2005 46.5094C44.0836 45.8799 42.959 45.2581 41.7998 44.6978Z" fill="#804B24"/>
<path d="M36.1538 49.5034C38.6065 50.2442 40.9478 51.2959 43.2584 52.3821C45.5499 53.5106 47.826 54.6851 50.0023 56.0285C45.3848 53.8368 40.8519 51.5108 36.1538 49.5034Z" fill="#804B24"/>
<path d="M49.3995 57.1034C24.0477 54.0751 22.2169 42.9594 19.2806 39.0828C16.3405 35.2023 19.223 32.2046 16.8126 33.2601C14.7016 34.1851 9.61969 34.8875 6.13838 30.082C5.84667 31.9973 6.05778 33.5557 7.05189 34.1583C10.0496 35.9661 15.4769 38.2614 20.7238 46.4177C24.6849 52.5743 40.6137 58.8115 44.0989 58.8115C46.5784 58.8076 48.486 57.9978 49.3995 57.1034Z" fill="url(#paint3_linear)"/>
<path d="M29.713 19.5652C27.0991 19.4539 24.4776 19.569 22.4855 20.0872C18.0331 21.2425 16.3174 16.5022 12.8323 18.3638C16.0526 18.3907 16.7358 22.1829 20.6931 22.0831C23.3491 22.0178 25.9668 21.4651 28.3043 21.3423C28.7074 20.7397 29.1718 20.1294 29.713 19.5652Z" fill="url(#paint4_linear)"/>
<path d="M63.4515 46.8168C64.2844 45.6077 64.5953 43.7001 64.6913 40.948C64.8678 35.8777 42.199 21.9832 38.8904 20.9276C36.86 20.279 32.9334 19.6456 29.1028 19.542C28.7497 19.5305 24.0133 25.9097 24.1016 28.0284C24.1706 29.7326 25.3835 32.0433 29.7131 32.0433C34.0427 32.0433 34.7719 26.4279 37.0365 25.7945C40.6253 24.7966 44.2141 31.456 49.1501 33.7513C54.09 36.0427 60.0853 38.4954 60.6726 39.4972C61.2407 40.4529 63.9658 43.2625 63.4515 46.8168Z" fill="url(#paint5_linear)"/>
<path d="M26.9842 30.3198C24.8654 29.0838 25.2186 26.7041 26.2779 24.9385C27.3373 23.1729 29.5865 17.001 35.4053 17.001C40.61 17.001 44.9895 20.0524 48.2405 21.3229C50.9158 22.3669 53.9749 24.0557 56.178 24.0557C58.3812 24.0557 62.4037 21.8794 63.7625 20.7932C64.7911 19.9718 67.4664 20.7049 71.4352 27.9362C75.4039 35.1675 74.0797 36.6683 72.0531 37.1979C70.0227 37.7276 67.1133 38.5222 66.407 40.7253C65.7008 42.9285 64.415 44.1414 64.415 44.1414C64.415 44.1414 62.5457 39.4664 59.6171 37.5511C54.7656 34.3768 50.5319 32.6112 48.1522 30.8495C45.7725 29.0839 39.7733 24.3206 37.3014 24.3206C34.8296 24.3206 31.5709 32.6995 26.9842 30.3198Z" fill="url(#paint6_linear)"/>
<path d="M64.4149 44.1451C64.4149 44.1451 65.7046 42.9322 66.407 40.7291C67.1132 38.5259 70.0226 37.7314 72.0531 37.2017C73.6959 36.7718 74.8704 35.7086 73.1585 31.4865C65.4244 29.8629 68.1381 43.5041 61.851 36.0233C55.3221 28.2624 50.2095 29.7324 47.9756 28.4965C45.7417 27.2606 39.992 23.0884 37.1709 23.0884C34.3498 23.0884 32.6302 31.1142 26.2395 29.7286C26.4468 29.9435 26.6847 30.147 26.9841 30.3197C31.5709 32.6994 34.8334 24.3205 37.3052 24.3205C39.7771 24.3205 45.7725 29.0838 48.156 30.8494C50.5357 32.615 54.7694 34.3767 59.6209 37.551C62.5457 39.4663 64.4149 44.1451 64.4149 44.1451Z" fill="url(#paint7_linear)"/>
<path d="M34.6991 61.9857C32.2349 61.8398 31.5172 59.0955 32.3194 56.8271C33.4209 53.695 35.5972 53.2767 36.7717 53.2997C37.9463 53.3227 40.0765 54.2209 39.5046 57.1802C39.0709 59.4563 38.403 62.2045 34.6991 61.9857Z" fill="url(#paint8_linear)"/>
<path d="M42.2297 63.1564C40.6906 63.1564 39.0056 62.6651 39.1514 58.2434C39.2973 53.8217 41.796 53.8716 42.4715 53.8716C43.1471 53.8716 45.5498 54.6584 45.5498 58.3931C45.5498 62.1239 44.0567 63.1564 42.2297 63.1564Z" fill="url(#paint9_linear)"/>
<path d="M38.66 59.9435C37.5507 60.0817 35.7967 60.1507 34.8025 59.4253C33.5628 58.5195 33.8814 55.4373 34.9522 53.6641C33.985 54.0901 32.9678 54.9806 32.3192 56.823C31.5208 59.0952 32.2347 61.8357 34.6989 61.9816C36.9021 62.1159 38.0152 61.1871 38.66 59.9435Z" fill="url(#paint10_linear)"/>
<path d="M45.5498 58.3889C45.5498 57.6327 45.4346 57.0263 45.2696 56.4966C44.997 57.9436 43.6306 60.5421 42.2105 60.5421C40.9592 60.5421 39.9651 60.2044 39.1667 57.9666C39.1629 58.0588 39.1514 58.1432 39.1475 58.2392C39.0017 62.6608 40.6867 63.1521 42.2258 63.1521C44.0567 63.156 45.5498 62.1235 45.5498 58.3889Z" fill="url(#paint11_linear)"/>
<path d="M22.0634 54.071C19.5915 52.9195 19.0772 50.321 20.6432 46.9433C22.2092 43.5656 24.5928 44.4484 25.7673 44.9973C26.9418 45.5462 29.0145 48.0334 27.7095 50.8468C26.4045 53.6603 24.0631 55.0037 22.0634 54.071Z" fill="url(#paint12_linear)"/>
<path d="M27.2527 58.3546C25.0879 56.9383 25.3297 53.9329 27.6557 50.6282C29.9817 47.3234 32.0313 48.6284 33.0178 49.3922C34.0042 50.1561 35.4704 53.2152 33.4246 55.8559C31.8548 57.8863 30.4499 60.4426 27.2527 58.3546Z" fill="url(#paint13_linear)"/>
<path d="M22.8196 52.7509C20.889 51.8489 21.0732 46.9013 23.2495 44.5293C22.3437 44.6943 21.3994 45.32 20.6471 46.9474C19.0811 50.3251 19.5955 52.9236 22.0673 54.0751C24.067 55.0078 26.4084 53.6644 27.7134 50.8509C27.7096 50.8433 25.1149 53.8179 22.8196 52.7509Z" fill="url(#paint14_linear)"/>
<path d="M27.2566 58.3508C28.9416 59.4524 30.1277 59.2566 31.1026 58.535C29.5558 58.4851 27.3948 57.6676 27.3948 55.4567C27.3948 52.8199 29.0721 49.9412 32.1236 48.8089C31.0182 48.26 29.4176 48.1218 27.6597 50.6244C25.3337 53.933 25.088 56.9383 27.2566 58.3508Z" fill="url(#paint15_linear)"/>
<path d="M20.6433 46.9432C21.0694 46.0143 21.6796 45.0778 22.6622 44.6325C23.6525 44.1911 24.8002 44.4291 25.729 44.8705C26.7039 45.3426 27.3987 46.2177 27.8439 47.1735C28.2853 48.1407 28.3697 49.273 28.0627 50.2978C28.0435 50.3669 27.9706 50.4053 27.9015 50.3861C27.8861 50.3823 27.8708 50.3707 27.8593 50.3631L27.8554 50.3592C27.7978 50.317 27.7863 50.2326 27.8324 50.175C28.5348 49.2922 29.479 48.371 30.738 48.3326C31.3482 48.3019 31.9432 48.5053 32.4537 48.797C32.9526 49.0811 33.4555 49.4649 33.774 49.9792C34.4227 50.9733 34.7144 52.1824 34.5993 53.3569C34.5839 53.5028 34.5686 53.6525 34.534 53.7945L34.4918 54.0133V54.0209C34.7067 54.1706 34.2001 53.8252 34.2538 53.8597L34.2653 53.852L34.2884 53.8367L34.3344 53.806L34.4304 53.7484C34.6875 53.5987 34.9562 53.4759 35.2364 53.3799C35.8006 53.1919 36.3917 53.1151 36.9867 53.165C38.1688 53.2686 39.3127 54.1015 39.6005 55.2876C39.6466 55.4296 39.6658 55.5754 39.6888 55.7213L39.6965 55.775L39.7003 55.8019V55.8096C39.7502 55.8211 39.2781 55.752 39.4777 55.775L39.4815 55.7635L39.5276 55.6637L39.6197 55.4641C39.7541 55.2031 39.9076 54.946 40.1072 54.7272C40.4872 54.2704 41.0399 53.9634 41.6156 53.8444C42.7786 53.5181 44.0376 54.1668 44.6786 55.111C45.3694 56.0629 45.5652 57.2528 45.5537 58.385C45.5268 57.2528 45.285 56.0744 44.5826 55.1801C43.8955 54.2934 42.7633 53.7254 41.654 54.0363C41.1166 54.1553 40.6177 54.4431 40.2684 54.8692C40.088 55.0765 39.946 55.3183 39.8231 55.5639L39.7387 55.7558L39.6965 55.8518L39.6926 55.8633C39.8922 55.8902 39.4201 55.8326 39.4662 55.8364V55.8288L39.4623 55.8019L39.4547 55.752C39.4316 55.6177 39.4124 55.4795 39.3702 55.349C39.0977 54.2666 38.0499 53.5296 36.9598 53.4414C36.4148 53.403 35.8505 53.4797 35.3324 53.6601C35.0714 53.7523 34.8219 53.8674 34.5877 54.0094L34.4995 54.067L34.4572 54.0939L34.4342 54.1092L34.4227 54.1169C34.4726 54.1553 33.9698 53.8022 34.1847 53.948V53.9403L34.2231 53.7369C34.2538 53.6026 34.2653 53.4644 34.2768 53.3262C34.3766 52.2246 34.0657 51.0962 33.4823 50.1673C33.1983 49.6952 32.7722 49.3651 32.2886 49.0734C31.8165 48.7932 31.2868 48.6128 30.7456 48.632C29.6364 48.6435 28.7305 49.4764 28.0358 50.3324L28.0128 50.1481L28.0166 50.152L27.8094 50.2172C28.1087 49.2538 28.0473 48.1906 27.6366 47.2617C27.2259 46.3444 26.5542 45.4846 25.6523 45.0394C24.7387 44.6057 23.6679 44.337 22.7045 44.7246C21.7449 45.1238 21.1001 46.0258 20.6433 46.9432Z" fill="#804B24"/>
<path d="M33.0217 49.3924C32.2963 48.9011 31.4519 48.5211 30.6113 48.6286C29.7746 48.7322 29.053 49.2619 28.4772 49.8913C27.8861 50.517 27.4102 51.2616 26.9573 52.0062C26.5197 52.7585 26.1282 53.5492 25.8826 54.4013C26.0016 53.5223 26.3125 52.6702 26.7193 51.8757C27.1338 51.085 27.6175 50.3327 28.2201 49.6534C28.8419 49.0162 29.6402 48.4213 30.5883 48.3637C31.5402 48.2946 32.3808 48.8051 33.0217 49.3924Z" fill="#804B24"/>
<path d="M33.9582 50.6777C34.6875 51.8906 34.8218 53.495 34.2346 54.8384C33.939 55.514 33.4592 56.0667 33.0293 56.6079C32.5879 57.1567 32.1235 57.7018 31.5708 58.1432C32.0314 57.6096 32.4114 57.0224 32.8144 56.4467C33.2136 55.8594 33.6665 55.3336 33.916 54.7002C34.484 53.4566 34.4111 52.0058 33.9582 50.6777Z" fill="#804B24"/>
<path d="M38.545 53.9175C39.0709 54.2361 39.4816 54.7773 39.6428 55.3991C39.8193 56.017 39.7733 56.6695 39.6696 57.2798C39.4202 58.4581 39.1169 59.7478 38.2341 60.646C38.5604 60.124 38.7677 59.5559 38.9327 58.9802C39.0939 58.4006 39.2206 57.8133 39.3242 57.2146C39.589 56.0669 39.4624 54.7811 38.545 53.9175Z" fill="#804B24"/>
<path d="M36.5453 17.0816C36.1653 17.0509 35.793 17.001 35.4053 17.001C29.5826 17.001 27.3334 23.1768 26.2779 24.9385C25.3682 26.4508 25.0036 28.4083 26.251 29.7172C26.3777 29.8515 26.2549 29.2143 26.0092 28.5734C25.4719 27.1762 27.2336 19.4037 36.5453 17.0816Z" fill="url(#paint16_linear)"/>
<path d="M35.4051 17.001C34.0272 17.0087 32.6569 17.4079 31.5093 18.1525C30.3501 18.8894 29.4059 19.9104 28.6191 21.0274C27.8322 22.152 27.2104 23.3725 26.581 24.6008C25.8747 25.7561 25.322 27.1072 25.6444 28.4275C25.8018 29.0685 26.2048 29.6404 26.7498 30.0166C27.2987 30.3927 27.9627 30.5655 28.6152 30.6115C29.9586 30.5808 31.137 29.7402 32.1157 28.8229C33.1099 27.8863 33.9581 26.8039 34.8946 25.783C35.3629 25.2763 35.8504 24.762 36.4914 24.4012C37.1669 23.9905 37.9806 24.2054 38.6139 24.4281C41.224 25.4797 43.4233 27.1839 45.6533 28.7922C46.7664 29.602 47.8335 30.4887 48.9657 31.2448C50.1096 31.9933 51.3263 32.642 52.5315 33.3021C54.9534 34.611 57.3677 35.9505 59.663 37.4743C60.8145 38.2689 61.7165 39.3512 62.4841 40.4912C63.2441 41.6427 63.8928 42.8671 64.4148 44.1376C63.2787 41.6657 61.8355 39.1709 59.567 37.6164C57.2602 36.1156 54.846 34.7991 52.4163 33.5056C51.2035 32.8531 49.9829 32.2121 48.8199 31.4598C47.6569 30.6921 46.5975 29.8247 45.4768 29.0225C43.2506 27.4373 41.0167 25.7484 38.4949 24.7543C37.8655 24.5317 37.1938 24.3551 36.6487 24.6929C36.0845 25.0038 35.5971 25.4989 35.1326 25.9941C34.1999 26.992 33.3401 28.0783 32.3192 29.0263C31.3174 29.9513 30.0815 30.838 28.6191 30.8648C27.9052 30.8111 27.1989 30.6192 26.6117 30.2123C26.0282 29.8055 25.5868 29.176 25.4218 28.4774C25.084 27.0534 25.6982 25.6448 26.4044 24.4971C27.0377 23.2804 27.6749 22.0445 28.4809 20.9199C29.2985 19.8068 30.281 18.7896 31.4671 18.0719C32.6416 17.3503 34.0272 16.978 35.4051 17.001Z" fill="#804B24"/>
<path opacity="0.75" d="M35.1175 18.855C36.5415 19.8069 35.4782 22.7777 33.6896 25.6334C32.2272 27.9671 29.2641 29.702 27.8977 28.7386C26.5312 27.7713 25.5064 26.6467 28.8879 22.0139C30.88 19.2849 33.7242 17.9262 35.1175 18.855Z" fill="url(#paint17_radial)"/>
<path opacity="0.75" d="M16.3711 20.1175C18.8391 21.1192 18.8084 24.6274 17.7107 28.0512C16.8125 30.8531 13.5116 33.0639 11.1165 32.0391C8.72146 31.0181 6.7294 29.7861 9.18973 24.1975C10.6329 20.9081 13.9569 19.1387 16.3711 20.1175Z" fill="url(#paint18_radial)"/>
<path opacity="0.75" d="M54.9343 27.3259C54.0246 28.7729 50.432 28.5426 46.8739 27.6598C43.9645 26.9382 41.5464 24.7888 42.4791 23.3878C43.4118 21.9868 44.5825 20.843 50.4166 22.6892C53.8595 23.7755 55.8247 25.9134 54.9343 27.3259Z" fill="url(#paint19_radial)"/>
<path opacity="0.75" d="M67.2436 33.1332C64.9406 34.208 62.1387 32.3694 60.0545 29.8861C58.3541 27.8518 58.5806 24.5739 60.8567 23.5568C63.1328 22.5396 65.336 21.8909 68.3298 26.374C70.0993 29.0186 69.4966 32.0816 67.2436 33.1332Z" fill="url(#paint20_radial)"/>
<defs>
<linearGradient id="paint0_linear" x1="27.4809" y1="53.2304" x2="40.6524" y2="25.2408" gradientUnits="userSpaceOnUse">
<stop offset="0.00132565" stop-color="#FFCB4B"/>
<stop offset="1" stop-color="#FFD748"/>
</linearGradient>
<linearGradient id="paint1_linear" x1="39.8166" y1="39.4561" x2="79.8605" y2="71.8264" gradientUnits="userSpaceOnUse">
<stop stop-color="#FFBC47" stop-opacity="0"/>
<stop offset="1" stop-color="#C86F34"/>
</linearGradient>
<linearGradient id="paint2_linear" x1="25.2677" y1="52.1884" x2="38.4393" y2="24.1988" gradientUnits="userSpaceOnUse">
<stop stop-color="#FFBB47" stop-opacity="0.9686"/>
<stop offset="0.0026513" stop-color="#FFBA47"/>
<stop offset="1" stop-color="#FFD748" stop-opacity="0"/>
</linearGradient>
<linearGradient id="paint3_linear" x1="32.5464" y1="28.7399" x2="17.258" y2="76.2516" gradientUnits="userSpaceOnUse">
<stop stop-color="#FFBC47" stop-opacity="0"/>
<stop offset="1" stop-color="#C86F34"/>
</linearGradient>
<linearGradient id="paint4_linear" x1="14.3709" y1="30.4293" x2="35.1867" y2="-4.14607" gradientUnits="userSpaceOnUse">
<stop stop-color="#FFBC47" stop-opacity="0"/>
<stop offset="1" stop-color="#C86F34"/>
</linearGradient>
<linearGradient id="paint5_linear" x1="42.6872" y1="42.1035" x2="50.6254" y2="11.1444" gradientUnits="userSpaceOnUse">
<stop stop-color="#FFBC47" stop-opacity="0"/>
<stop offset="1" stop-color="#C86F34"/>
</linearGradient>
<linearGradient id="paint6_linear" x1="65.7254" y1="31.9528" x2="20.8009" y2="27.9543" gradientUnits="userSpaceOnUse">
<stop offset="0.00132565" stop-color="#FFCB4B"/>
<stop offset="1" stop-color="#FFD748"/>
</linearGradient>
<linearGradient id="paint7_linear" x1="51.2631" y1="9.59384" x2="48.0878" y2="72.7468" gradientUnits="userSpaceOnUse">
<stop stop-color="#FFBC47" stop-opacity="0"/>
<stop offset="1" stop-color="#C86F34"/>
</linearGradient>
<linearGradient id="paint8_linear" x1="35.1522" y1="58.9722" x2="38.6803" y2="52.1512" gradientUnits="userSpaceOnUse">
<stop offset="0.00132565" stop-color="#FFCB4B"/>
<stop offset="1" stop-color="#FFD748"/>
</linearGradient>
<linearGradient id="paint9_linear" x1="40.6485" y1="61.8151" x2="44.1766" y2="54.9941" gradientUnits="userSpaceOnUse">
<stop offset="0.00132565" stop-color="#FFCB4B"/>
<stop offset="1" stop-color="#FFD748"/>
</linearGradient>
<linearGradient id="paint10_linear" x1="42.4366" y1="57.8909" x2="20.4741" y2="57.7145" gradientUnits="userSpaceOnUse">
<stop stop-color="#FFBC47" stop-opacity="0"/>
<stop offset="1" stop-color="#C86F34"/>
</linearGradient>
<linearGradient id="paint11_linear" x1="47.6666" y1="52.0829" x2="23.4991" y2="85.4235" gradientUnits="userSpaceOnUse">
<stop stop-color="#FFBC47" stop-opacity="0"/>
<stop offset="1" stop-color="#C86F34"/>
</linearGradient>
<linearGradient id="paint12_linear" x1="20.7683" y1="51.7153" x2="27.8481" y2="46.3203" gradientUnits="userSpaceOnUse">
<stop offset="0.00132565" stop-color="#FFCB4B"/>
<stop offset="1" stop-color="#FFD748"/>
</linearGradient>
<linearGradient id="paint13_linear" x1="29.0073" y1="56.1611" x2="33.06" y2="48.3259" gradientUnits="userSpaceOnUse">
<stop offset="0.00132565" stop-color="#FFCB4B"/>
<stop offset="1" stop-color="#FFD748"/>
</linearGradient>
<linearGradient id="paint14_linear" x1="34.3471" y1="50.6255" x2="2.77063" y2="47.2738" gradientUnits="userSpaceOnUse">
<stop stop-color="#FFBC47" stop-opacity="0"/>
<stop offset="1" stop-color="#C86F34"/>
</linearGradient>
<linearGradient id="paint15_linear" x1="37.7985" y1="42.9665" x2="10.4631" y2="80.6773" gradientUnits="userSpaceOnUse">
<stop stop-color="#FFBC47" stop-opacity="0"/>
<stop offset="1" stop-color="#C86F34"/>
</linearGradient>
<linearGradient id="paint16_linear" x1="27.6801" y1="12.3277" x2="38.2853" y2="45.2377" gradientUnits="userSpaceOnUse">
<stop stop-color="#FFBC47" stop-opacity="0"/>
<stop offset="1" stop-color="#C86F34"/>
</linearGradient>
<radialGradient id="paint17_radial" cx="0" cy="0" r="1" gradientUnits="userSpaceOnUse" gradientTransform="translate(31.3864 23.7058) rotate(-53.846) scale(6.2813 3.06009)">
<stop stop-color="#FBE07A"/>
<stop offset="0.2654" stop-color="#FCDF73" stop-opacity="0.7346"/>
<stop offset="0.6548" stop-color="#FDDB5F" stop-opacity="0.3452"/>
<stop offset="1" stop-color="#FFD748" stop-opacity="0"/>
</radialGradient>
<radialGradient id="paint18_radial" cx="0" cy="0" r="1" gradientUnits="userSpaceOnUse" gradientTransform="translate(13.5172 25.993) rotate(-66.2167) scale(6.68889 4.7609)">
<stop stop-color="#FBE07A"/>
<stop offset="0.2654" stop-color="#FCDF73" stop-opacity="0.7346"/>
<stop offset="0.6548" stop-color="#FDDB5F" stop-opacity="0.3452"/>
<stop offset="1" stop-color="#FFD748" stop-opacity="0"/>
</radialGradient>
<radialGradient id="paint19_radial" cx="0" cy="0" r="1" gradientUnits="userSpaceOnUse" gradientTransform="translate(48.793 25.2313) rotate(17.5529) scale(6.70435 2.95831)">
<stop stop-color="#FBE07A"/>
<stop offset="0.2654" stop-color="#FCDF73" stop-opacity="0.7346"/>
<stop offset="0.6548" stop-color="#FDDB5F" stop-opacity="0.3452"/>
<stop offset="1" stop-color="#FFD748" stop-opacity="0"/>
</radialGradient>
<radialGradient id="paint20_radial" cx="0" cy="0" r="1" gradientUnits="userSpaceOnUse" gradientTransform="translate(64.2613 28.2589) rotate(56.3078) scale(5.90754 4.4965)">
<stop stop-color="#FBE07A"/>
<stop offset="0.2654" stop-color="#FCDF73" stop-opacity="0.7346"/>
<stop offset="0.6548" stop-color="#FDDB5F" stop-opacity="0.3452"/>
<stop offset="1" stop-color="#FFD748" stop-opacity="0"/>
</radialGradient>
</defs>
</svg>
