<svg width="80" height="80" viewBox="0 0 80 80" fill="none" xmlns="http://www.w3.org/2000/svg">
<path d="M42.4022 34.6289C42.2468 36.0423 41.0858 37.7908 40.5758 37.8297C40.0658 37.8685 39.648 36.6397 39.5606 35.4303C39.4732 34.2258 31.9927 39.7676 31.5409 39.9862C31.2009 40.1513 27.4364 40.3213 24.9008 41.6764C24.0556 42.1281 22.5692 44.2652 22.3506 44.2992C21.4763 44.4352 20.5582 43.0606 19.7567 40.9236C18.9552 38.7865 12.7085 45.5377 13.3449 48.6462C14.1949 52.8135 16.1962 66.1848 21.2334 69.8664C29.8457 76.1562 44.0489 74.8594 49.3824 68.6813C54.7159 62.5032 54.9247 58.5933 59.515 53.5129C63.401 49.2145 68.3945 49.8701 70.2889 47.6796C71.8821 45.834 69.5263 43.0218 68.6276 42.2495C67.0344 40.875 61.1812 39.3888 56.5374 44.7703C54.7305 46.8637 52.5009 48.2431 50.3539 46.3925C48.2069 44.542 48.7461 40.3067 49.7515 36.868" fill="url(#paint0_linear)"/>
<path d="M19.7516 40.9235C18.9502 38.7865 17.386 33.0795 16.0454 29.9856C14.7047 26.8917 12.6549 25.8377 10.1728 27.1491C7.69062 28.4605 9.85217 34.2257 10.2893 35.6488C10.9597 37.8296 12.5043 45.3288 13.3398 48.6413" fill="url(#paint1_linear)"/>
<path d="M31.5408 39.986C31.0891 40.2046 29.5784 39.0535 29.1363 35.129C28.7963 32.1323 28.1551 23.754 27.2614 19.5138C26.3676 15.2737 25.0464 12.8403 22.4525 12.8209C19.8586 12.8015 18.9648 16.0556 19.3097 19.5721C19.7372 23.9191 20.4803 28.5818 21.1944 33.0551C21.7481 36.5521 23.2248 44.163 22.3505 44.299" fill="url(#paint2_linear)"/>
<path d="M49.7514 36.8731C50.7569 33.4392 52.8602 21.117 53.6666 17.8531C54.4729 14.5892 52.7728 12.6707 50.6549 12.1655C48.5419 11.6653 46.3173 12.9281 44.9863 19.4413C44.146 23.5503 43.2279 27.1688 42.4021 34.6243L46.5893 38.743L49.7514 36.8731Z" fill="url(#paint3_linear)"/>
<path d="M39.5557 35.4302C39.4683 34.2257 39.5995 22.4864 39.5557 19.9122C39.4829 15.0892 41.4453 6.58947 35.524 6.02121C32.4103 5.72493 31.7449 8.60998 31.6088 9.87765C31.468 11.1502 31.502 25.522 31.5943 26.8188C31.6866 28.1156 31.9877 39.7627 31.536 39.9861" fill="url(#paint4_linear)"/>
<path d="M31.2785 40.0152C30.9579 39.9618 30.239 39.039 29.831 38.1162C30.0447 38.9224 30.6665 40.0201 31.2785 40.0152Z" fill="url(#paint5_linear)"/>
<path d="M68.4043 43.3669C70.1627 44.4063 70.2793 44.8143 70.2501 44.2994C69.745 43.3815 69.0358 42.6044 68.6277 42.2498C67.0345 40.8753 61.1812 39.3891 56.5374 44.7706C54.7305 46.8639 52.5009 48.2433 50.3539 46.3928C49.5087 45.6642 49.0229 44.4451 48.7703 43.0172C48.9355 50.4289 55.2745 49.0495 58.0481 46.7473C60.8169 44.4451 63.2456 40.3168 68.4043 43.3669Z" fill="url(#paint6_linear)"/>
<path d="M31.5943 26.824C31.6914 28.1256 31.9877 39.7678 31.536 39.9912C33.6489 40.1855 34.0132 37.961 33.7364 34.1969C33.1681 26.4743 32.2014 15.9297 33.8432 9.33882C33.9987 8.71712 33.8675 8.04686 33.4401 7.56602C32.3277 6.32263 31.7157 8.9114 31.6088 9.8828C31.468 11.1505 31.502 25.5223 31.5943 26.824Z" fill="url(#paint7_linear)"/>
<path d="M19.3051 19.5774C19.7325 23.9244 20.4757 28.5871 21.1897 33.0604C21.7434 36.5574 23.2201 44.1683 22.3457 44.3043C26.9359 43.9935 20.0531 25.6875 20.8108 13.375C19.4848 14.4435 19.0476 16.9352 19.3051 19.5774Z" fill="url(#paint8_linear)"/>
<path d="M21.413 44.3532C21.7627 44.4455 21.991 44.4212 22.1368 44.3192C21.3741 44.3386 20.4901 42.8912 19.7518 40.9241C18.9503 38.7871 17.3862 33.0801 16.0455 29.9862C15.4577 28.6262 14.7291 27.6597 13.8936 27.1157C14.7388 28.5728 14.0005 28.5485 15.6666 32.1864C16.5555 34.1341 19.1543 43.7606 21.413 44.3532Z" fill="url(#paint9_linear)"/>
<path d="M27.3877 29.1505C27.5965 32.7835 28.7672 39.627 31.1425 39.9767C30.5985 39.7581 29.4764 38.1796 29.1315 35.1294C28.7915 32.1327 28.1503 23.7543 27.2565 19.5142C26.5328 16.0803 25.5273 13.8315 23.7932 13.0884C27.0768 17.6685 27.1934 25.7166 27.3877 29.1505Z" fill="url(#paint10_linear)"/>
<path d="M38.288 21.991C38.458 27.4406 37.404 37.038 40.4154 37.8005C39.9783 37.6062 39.6383 36.5134 39.5557 35.4352C39.4683 34.2306 39.5994 22.4913 39.5557 19.9171C39.5023 16.5755 40.43 11.4708 39.036 8.45947C39.7792 12.2625 38.152 17.576 38.288 21.991Z" fill="url(#paint11_linear)"/>
<path d="M48.7703 43.0218C48.3866 40.8313 49.1443 38.9565 49.7515 36.8728C50.757 33.4389 52.8603 21.1168 53.6666 17.8529C53.9143 16.8572 53.9241 15.9926 53.7638 15.2495C53.3995 16.76 52.3648 18.3434 52.0102 21.345C51.4322 26.1583 46.0016 43.2258 48.7703 43.0218Z" fill="url(#paint12_linear)"/>
<path opacity="0.24" d="M52.4183 56.2228C42.0768 68.205 32.0898 65.6745 28.6798 63.7803C25.2747 61.886 22.914 56.8299 21.3305 48.879L18.7754 40.729C18.042 41.171 15.278 42.9729 12.4801 44.9983C12.7959 46.4117 13.097 47.7036 13.3351 48.6507C14.1851 52.818 16.1864 66.1893 21.2236 69.8709C29.8359 76.1607 44.0392 74.8639 49.3727 68.6858C54.7062 62.5077 54.9151 58.5978 59.5054 53.5174C63.3914 49.219 68.3849 49.8796 70.2793 47.6842C71.1439 46.6837 70.8427 45.3966 70.2404 44.3037C68.2731 48.7285 62.7599 44.2406 52.4183 56.2228Z" fill="url(#paint13_radial)"/>
<path d="M49.8486 12.0684C47.9931 12.0684 46.1473 13.7537 44.9863 19.4461C44.146 23.5552 43.2279 27.1736 42.4021 34.6291C42.2467 36.0425 41.0858 37.791 40.5757 37.8299C40.6243 37.791 40.8817 38.0144 41.4015 37.5384C45.6518 33.6431 44.9669 24.4391 46.4387 19.621C47.6142 15.7548 48.8529 14.0937 49.8486 12.0684Z" fill="url(#paint14_linear)"/>
<defs>
<linearGradient id="paint0_linear" x1="22.9083" y1="80.5243" x2="40.8768" y2="48.961" gradientUnits="userSpaceOnUse">
<stop offset="0.00132565" stop-color="#5A4539"/>
<stop offset="1" stop-color="#695042"/>
</linearGradient>
<linearGradient id="paint1_linear" x1="-3.20816" y1="65.6565" x2="14.7605" y2="34.0934" gradientUnits="userSpaceOnUse">
<stop offset="0.00132565" stop-color="#5A4539"/>
<stop offset="1" stop-color="#695042"/>
</linearGradient>
<linearGradient id="paint2_linear" x1="2.13299" y1="68.697" x2="20.1015" y2="37.1338" gradientUnits="userSpaceOnUse">
<stop offset="0.00132565" stop-color="#5A4539"/>
<stop offset="1" stop-color="#695042"/>
</linearGradient>
<linearGradient id="paint3_linear" x1="18.4101" y1="77.9637" x2="36.3788" y2="46.4005" gradientUnits="userSpaceOnUse">
<stop offset="0.00132565" stop-color="#5A4539"/>
<stop offset="1" stop-color="#695042"/>
</linearGradient>
<linearGradient id="paint4_linear" x1="7.36797" y1="71.6774" x2="25.3364" y2="40.114" gradientUnits="userSpaceOnUse">
<stop offset="0.00132565" stop-color="#5A4539"/>
<stop offset="1" stop-color="#695042"/>
</linearGradient>
<linearGradient id="paint5_linear" x1="38.2256" y1="39.6902" x2="16.6739" y2="37.9477" gradientUnits="userSpaceOnUse">
<stop stop-color="#FFBC47" stop-opacity="0"/>
<stop offset="1" stop-color="#FFA754"/>
</linearGradient>
<linearGradient id="paint6_linear" x1="71.9707" y1="33.4027" x2="47.4353" y2="53.7936" gradientUnits="userSpaceOnUse">
<stop offset="0.3072" stop-color="#473226" stop-opacity="0"/>
<stop offset="1" stop-color="#473226"/>
</linearGradient>
<linearGradient id="paint7_linear" x1="32.711" y1="-16.8041" x2="32.711" y2="58.5509" gradientUnits="userSpaceOnUse">
<stop offset="0.3072" stop-color="#473226" stop-opacity="0"/>
<stop offset="1" stop-color="#473226"/>
</linearGradient>
<linearGradient id="paint8_linear" x1="21.5872" y1="-16.8041" x2="21.5872" y2="58.551" gradientUnits="userSpaceOnUse">
<stop offset="0.3072" stop-color="#473226" stop-opacity="0"/>
<stop offset="1" stop-color="#473226"/>
</linearGradient>
<linearGradient id="paint9_linear" x1="18.0165" y1="-16.8038" x2="18.0165" y2="58.5512" gradientUnits="userSpaceOnUse">
<stop offset="0.3072" stop-color="#473226" stop-opacity="0"/>
<stop offset="1" stop-color="#473226"/>
</linearGradient>
<linearGradient id="paint10_linear" x1="27.4707" y1="-16.8042" x2="27.4707" y2="58.5509" gradientUnits="userSpaceOnUse">
<stop offset="0.3072" stop-color="#473226" stop-opacity="0"/>
<stop offset="1" stop-color="#473226"/>
</linearGradient>
<linearGradient id="paint11_linear" x1="39.3299" y1="-16.8044" x2="39.3299" y2="58.5506" gradientUnits="userSpaceOnUse">
<stop offset="0.3072" stop-color="#473226" stop-opacity="0"/>
<stop offset="1" stop-color="#473226"/>
</linearGradient>
<linearGradient id="paint12_linear" x1="50.9285" y1="-16.8045" x2="50.9285" y2="58.5507" gradientUnits="userSpaceOnUse">
<stop offset="0.3072" stop-color="#473226" stop-opacity="0"/>
<stop offset="1" stop-color="#473226"/>
</linearGradient>
<radialGradient id="paint13_radial" cx="0" cy="0" r="1" gradientUnits="userSpaceOnUse" gradientTransform="translate(18.6132 39.3971) scale(38.6863 69.7327)">
<stop offset="0.00132565" stop-color="#473226" stop-opacity="0"/>
<stop offset="1" stop-color="#3D2A20"/>
</radialGradient>
<linearGradient id="paint14_linear" x1="45.2124" y1="-16.8043" x2="45.2124" y2="58.5509" gradientUnits="userSpaceOnUse">
<stop offset="0.3072" stop-color="#473226" stop-opacity="0"/>
<stop offset="1" stop-color="#473226"/>
</linearGradient>
</defs>
</svg>
