<svg width="24" height="24" viewBox="0 0 24 24" fill="none" xmlns="http://www.w3.org/2000/svg">
<path d="M2.10846 15.9088C2.13132 15.9831 2.15417 16.0631 2.18274 16.1374C2.18274 16.1374 2.2456 15.0631 2.87989 14.0517C2.87989 14.0517 2.26274 17.0803 5.31989 20.5374C5.31989 20.5374 4.71417 18.4974 5.34274 17.046C5.34274 17.046 5.57132 18.8746 6.2056 19.766C7.2856 21.286 8.65703 21.8631 8.65703 21.8631C8.85703 21.0517 8.70846 19.8231 8.70846 19.8231C10.4227 22.606 11.977 23.1374 11.977 23.1374C11.977 23.1374 13.2113 22.3146 14.0456 20.9603C14.1256 20.9946 15.137 21.7831 14.9885 22.3488C14.9885 22.3488 15.817 21.9546 16.1942 20.7374C16.417 20.0288 17.5027 19.6346 17.5027 19.6346C17.7827 20.4117 17.4113 21.6288 17.3256 21.5603C17.3256 21.5603 18.5027 20.7603 19.177 19.1203C19.7999 17.606 19.937 15.726 19.937 15.726C20.4399 16.8003 20.1885 19.286 20.1885 19.286C21.4513 16.6974 21.0742 14.046 21.0742 14.046C21.3656 15.5088 21.7713 16.1317 21.7713 16.1317C22.657 13.4174 22.4685 10.4517 20.697 7.80028L11.977 4.646L4.54846 6.53742C2.06274 8.97171 1.10274 12.5774 2.10846 15.9088Z" fill="url(#paint0_linear)"/>
<path d="M2.10846 15.9088C2.13132 15.9831 2.15417 16.0631 2.18274 16.1374C2.18274 16.1374 2.2456 15.0631 2.87989 14.0517C2.87989 14.0517 2.26274 17.0803 5.31989 20.5374C5.31989 20.5374 4.71417 18.4974 5.34274 17.046C5.34274 17.046 5.57132 18.8746 6.2056 19.766C7.2856 21.286 8.65703 21.8631 8.65703 21.8631C8.85703 21.0517 8.70846 19.8231 8.70846 19.8231C10.4227 22.606 11.977 23.1374 11.977 23.1374C11.977 23.1374 13.2113 22.3146 14.0456 20.9603C14.1256 20.9946 15.137 21.7831 14.9885 22.3488C14.9885 22.3488 15.817 21.9546 16.1942 20.7374C16.417 20.0288 17.5027 19.6346 17.5027 19.6346C17.7827 20.4117 17.4113 21.6288 17.3256 21.5603C17.3256 21.5603 18.5027 20.7603 19.177 19.1203C19.7999 17.606 19.937 15.726 19.937 15.726C20.4399 16.8003 20.1885 19.286 20.1885 19.286C21.4513 16.6974 21.0742 14.046 21.0742 14.046C21.3656 15.5088 21.7713 16.1317 21.7713 16.1317C22.657 13.4174 22.4685 10.4517 20.697 7.80028L11.977 4.646L4.54846 6.53742C2.06274 8.97171 1.10274 12.5774 2.10846 15.9088Z" fill="url(#paint1_radial)"/>
<path d="M19.937 15.7314C19.7655 15.1999 19.2913 14.4399 19.2913 14.4399C19.5027 14.9999 19.5884 17.7828 19.3827 18.5714C19.8284 17.1885 19.937 15.7314 19.937 15.7314Z" fill="url(#paint2_radial)"/>
<path d="M11.9771 18.8689L13.4685 18.9146C13.7085 18.9204 13.9314 18.8175 14.0914 18.6404C15.7942 16.7204 18.9942 16.5261 18.9942 11.5261C18.9942 6.28607 14.5085 5.14893 11.9771 5.14893C9.44567 5.14893 4.95996 6.28607 4.95996 11.5261C4.95996 16.5318 8.16567 16.7204 9.86853 18.6461C10.0228 18.8232 10.2457 18.9204 10.48 18.9146L11.9771 18.8689Z" fill="url(#paint3_radial)"/>
<path d="M16.3369 6.32012C17.2397 6.89154 14.9826 4.9144 13.0912 3.90869C13.0283 3.3544 12.5826 3.26297 11.9712 3.4344C11.3597 3.26297 10.9197 3.3544 10.8512 3.90869C8.95972 4.9144 6.69687 6.89154 7.60544 6.32012C5.99401 10.063 7.06829 13.1487 9.00544 13.1487C9.87401 13.1487 10.5369 11.6115 10.5369 11.6115C10.5369 11.6115 11.2854 10.8687 11.9712 9.40011C12.6569 10.8744 13.4054 11.6115 13.4054 11.6115C13.4054 11.6115 14.0683 13.1487 14.9369 13.1487C16.874 13.1487 17.9483 10.0573 16.3369 6.32012Z" fill="url(#paint4_linear)"/>
<path d="M8.22282 15.7547C8.65139 18.2575 11.9771 16.429 11.9771 16.429L12.8914 19.2232C12.4342 19.3604 11.9771 18.869 11.9771 18.869L10.5428 18.909C10.28 18.9147 10.0228 18.8118 9.84568 18.6175C8.1371 16.7204 4.95996 16.509 4.95996 11.5261C4.95996 10.149 5.26853 9.05754 5.77139 8.18896C4.41139 11.5261 7.79425 13.2518 8.22282 15.7547Z" fill="url(#paint5_radial)"/>
<path d="M15.7313 15.7547C15.3027 18.2575 11.977 16.429 11.977 16.429L11.0627 19.2232C11.5199 19.3604 11.977 18.869 11.977 18.869L13.5542 18.9147C13.737 18.9204 13.9142 18.8461 14.0285 18.709C15.7199 16.7261 18.9885 16.589 18.9885 11.5261C18.9885 10.149 18.6799 9.05754 18.177 8.18896C19.537 11.5261 16.1542 13.2518 15.7313 15.7547Z" fill="url(#paint6_radial)"/>
<path d="M14.2684 17.189L11.977 16.1147L9.68554 17.189C9.15411 18.3662 10.2284 19.4405 11.977 19.4405C13.7255 19.4405 14.7998 18.3662 14.2684 17.189Z" fill="url(#paint7_linear)"/>
<path d="M9.73131 17.5547C9.67417 17.5547 9.62274 17.549 9.57131 17.5433C9.51988 17.8119 9.55417 18.0747 9.66274 18.309C9.6856 18.309 9.70846 18.309 9.73131 18.309C10.5313 18.309 11.1999 17.9719 11.5885 17.469C11.7827 17.2176 12.1599 17.2176 12.3542 17.469C12.7485 17.9719 13.417 18.309 14.2113 18.309C14.2342 18.309 14.257 18.309 14.2799 18.309C14.3885 18.0747 14.417 17.8176 14.3713 17.5433C14.3199 17.549 14.2627 17.5547 14.2113 17.5547C12.9142 17.5547 11.9656 16.9376 11.9656 16.1147C11.977 16.9433 11.0285 17.5547 9.73131 17.5547Z" fill="url(#paint8_linear)"/>
<path d="M13.0342 17.6571C13.0342 18.2399 12.5599 18.7142 11.9771 18.7142C11.3942 18.7142 10.9199 18.2399 10.9199 17.6571C10.9199 15.9199 11.3942 15.2285 11.9771 15.2285C12.5599 15.2285 13.0342 15.9314 13.0342 17.6571Z" fill="url(#paint9_linear)"/>
<path d="M13.0342 17.6571C13.0342 15.9257 12.5599 15.2285 11.9771 15.2285C11.3942 15.2285 10.9199 15.9257 10.9199 17.6571C10.9199 17.6971 10.9256 17.7428 10.9256 17.7828C11.1371 17.7028 11.3199 17.5999 11.4685 17.4857C11.7656 17.2514 12.1771 17.2514 12.4799 17.4857C12.6342 17.6057 12.8171 17.7028 13.0228 17.7828C13.0285 17.7428 13.0342 17.7028 13.0342 17.6571Z" fill="url(#paint10_linear)"/>
<path d="M11.8113 16.4345C11.8113 15.9774 11.8856 15.606 11.977 15.606C12.0684 15.606 12.1427 15.9774 12.1427 16.4345C12.1427 17.7888 12.0684 18.3317 11.977 18.3317C11.8856 18.3317 11.8113 17.7888 11.8113 16.4345Z" fill="url(#paint11_linear)"/>
<path d="M12.9542 13.8459H10.9942C8.82847 13.5087 8.21704 14.6402 8.21704 15.5087C8.21704 16.5487 8.73704 17.5602 9.73133 17.5602C11.0285 17.5602 11.977 16.943 11.977 16.1202C11.977 16.9487 12.9256 17.5602 14.2228 17.5602C15.217 17.5602 15.737 16.5487 15.737 15.5087C15.737 14.6344 15.1199 13.5087 12.9542 13.8459Z" fill="url(#paint12_linear)"/>
<path d="M12 16.3374C12.2171 16.0746 13.8571 14.126 13.8571 14.7032C13.8571 15.3203 13.44 15.966 13.0343 16.2974C12.6286 16.6289 13.2171 17.1317 14.3086 17.1032C15.1371 17.0803 15.6343 15.7889 15.48 14.5889C15.6629 14.8803 15.7371 15.2117 15.7371 15.5089C15.7371 16.5489 15.2171 17.5603 14.2229 17.5603C13.04 17.5546 12.1543 17.0517 12 16.3374Z" fill="url(#paint13_radial)"/>
<path d="M11.9486 16.3374C11.7314 16.0746 10.0914 14.126 10.0914 14.7032C10.0914 15.3203 10.5086 15.966 10.9143 16.2974C11.32 16.6289 10.7314 17.1317 9.64 17.1032C8.81143 17.0803 8.31428 15.7889 8.46857 14.5889C8.28571 14.8803 8.21143 15.2117 8.21143 15.5089C8.21143 16.5489 8.73143 17.5603 9.72571 17.5603C10.9086 17.5546 11.7943 17.0517 11.9486 16.3374Z" fill="url(#paint14_radial)"/>
<path d="M10.6169 14.8747L10.0969 14.7033C10.0969 13.2633 11.3426 7.70898 11.3426 7.70898H12.6055C12.6055 7.70898 13.8512 13.2633 13.8512 14.7033L13.3312 14.8747H10.6169Z" fill="url(#paint15_radial)"/>
<path d="M13.7885 14.5143C13.0799 13.7257 10.8627 13.7257 10.1542 14.5143C9.78274 14.9257 11.097 16.3657 11.9713 16.3657C12.8456 16.3657 14.1599 14.9257 13.7885 14.5143Z" fill="url(#paint16_linear)"/>
<path d="M14.9427 12.2461C15.3182 12.2461 15.6227 11.8675 15.6227 11.4004C15.6227 10.9333 15.3182 10.5547 14.9427 10.5547C14.5671 10.5547 14.2627 10.9333 14.2627 11.4004C14.2627 11.8675 14.5671 12.2461 14.9427 12.2461Z" fill="url(#paint17_radial)"/>
<path d="M14.8628 15.9824C14.9322 15.9824 14.9885 15.9261 14.9885 15.8567C14.9885 15.7872 14.9322 15.731 14.8628 15.731C14.7933 15.731 14.7371 15.7872 14.7371 15.8567C14.7371 15.9261 14.7933 15.9824 14.8628 15.9824Z" fill="url(#paint18_linear)"/>
<path d="M14.0456 16.2002C14.1151 16.2002 14.1714 16.1439 14.1714 16.0744C14.1714 16.005 14.1151 15.9487 14.0456 15.9487C13.9762 15.9487 13.9199 16.005 13.9199 16.0744C13.9199 16.1439 13.9762 16.2002 14.0456 16.2002Z" fill="url(#paint19_linear)"/>
<path d="M14.3484 15.3427C14.4178 15.3427 14.4741 15.2865 14.4741 15.217C14.4741 15.1476 14.4178 15.0913 14.3484 15.0913C14.2789 15.0913 14.2227 15.1476 14.2227 15.217C14.2227 15.2865 14.2789 15.3427 14.3484 15.3427Z" fill="url(#paint20_linear)"/>
<path d="M9.09129 15.9824C9.16072 15.9824 9.21701 15.9261 9.21701 15.8567C9.21701 15.7872 9.16072 15.731 9.09129 15.731C9.02186 15.731 8.96558 15.7872 8.96558 15.8567C8.96558 15.9261 9.02186 15.9824 9.09129 15.9824Z" fill="url(#paint21_linear)"/>
<path d="M9.90281 16.2002C9.97224 16.2002 10.0285 16.1439 10.0285 16.0744C10.0285 16.005 9.97224 15.9487 9.90281 15.9487C9.83338 15.9487 9.7771 16.005 9.7771 16.0744C9.7771 16.1439 9.83338 16.2002 9.90281 16.2002Z" fill="url(#paint22_linear)"/>
<path d="M9.59983 15.3427C9.66926 15.3427 9.72555 15.2865 9.72555 15.217C9.72555 15.1476 9.66926 15.0913 9.59983 15.0913C9.5304 15.0913 9.47412 15.1476 9.47412 15.217C9.47412 15.2865 9.5304 15.3427 9.59983 15.3427Z" fill="url(#paint23_linear)"/>
<path d="M9.00568 12.2461C9.38124 12.2461 9.68569 11.8675 9.68569 11.4004C9.68569 10.9333 9.38124 10.5547 9.00568 10.5547C8.63013 10.5547 8.32568 10.9333 8.32568 11.4004C8.32568 11.8675 8.63013 12.2461 9.00568 12.2461Z" fill="url(#paint24_radial)"/>
<path d="M13.2455 14.4519C12.7483 14.1547 11.1998 14.1547 10.7083 14.4519C10.4512 14.6061 11.3655 14.9661 11.9769 14.9661C12.5883 14.9661 13.5026 14.6061 13.2455 14.4519Z" fill="url(#paint25_linear)"/>
<path d="M12.1198 7.70898C12.5312 9.78899 12.9598 11.5776 12.5712 12.6347C12.0969 13.9261 10.2912 12.8461 10.0969 14.7033C10.0969 13.2633 11.3426 7.70898 11.3426 7.70898H12.1198Z" fill="url(#paint26_radial)"/>
<path d="M14.8114 11.3716C14.9313 11.3716 15.0285 11.2514 15.0285 11.103C15.0285 10.9547 14.9313 10.8345 14.8114 10.8345C14.6915 10.8345 14.5942 10.9547 14.5942 11.103C14.5942 11.2514 14.6915 11.3716 14.8114 11.3716Z" fill="url(#paint27_linear)"/>
<path d="M8.86851 11.3716C8.98844 11.3716 9.08566 11.2514 9.08566 11.103C9.08566 10.9547 8.98844 10.8345 8.86851 10.8345C8.74859 10.8345 8.65137 10.9547 8.65137 11.103C8.65137 11.2514 8.74859 11.3716 8.86851 11.3716Z" fill="url(#paint28_linear)"/>
<path d="M2.17701 16.137C2.17701 16.137 2.23987 15.0627 2.87415 14.0513C2.94844 13.5484 3.30272 12.6855 3.30272 12.6855C1.85129 13.9484 2.17701 16.137 2.17701 16.137Z" fill="url(#paint29_radial)"/>
<path d="M2.87398 14.0513C2.87398 14.0513 2.86826 14.0741 2.86255 14.1084C2.86826 14.0856 2.87398 14.0684 2.87398 14.0513Z" fill="url(#paint30_radial)"/>
<path d="M5.33703 17.0516C5.33703 16.4916 5.49131 15.9487 5.49131 15.9487C3.82846 17.863 5.31417 20.543 5.31417 20.543C5.31417 20.543 4.70846 18.503 5.33703 17.0516Z" fill="url(#paint31_radial)"/>
<path d="M8.65133 21.8686C8.85133 21.0572 8.70276 19.8286 8.70276 19.8286C8.45705 19.3143 7.18848 18.04 7.18848 18.04C8.62276 19.6858 8.65133 21.8686 8.65133 21.8686Z" fill="url(#paint32_radial)"/>
<path d="M17.5028 19.6402C17.5028 19.6402 17.3771 18.6859 16.7371 17.8745C16.9199 18.4117 17.0571 19.2002 17.0171 19.8745C17.2799 19.7202 17.5028 19.6402 17.5028 19.6402Z" fill="url(#paint33_radial)"/>
<path d="M14.6799 19.4404C14.5314 20.0519 14.0457 20.9661 14.0457 20.9661C14.0799 20.9776 14.2685 21.1204 14.4685 21.3204C14.7714 20.5204 14.6799 19.4404 14.6799 19.4404Z" fill="url(#paint34_radial)"/>
<path d="M19.497 14.9658C19.6227 11.9601 18.1255 9.91442 18.1255 9.91442C18.4227 10.8916 18.0455 12.4516 18.0455 12.4516C17.7998 9.80013 14.857 7.00585 14.857 7.00585C15.4055 7.98299 15.3484 9.5887 15.3484 9.5887C13.9198 6.3087 10.9655 6.3087 10.9655 6.3087C10.9655 6.3087 9.88553 6.80013 9.28553 8.89156C9.28553 8.89156 9.02838 7.81156 9.14838 7.07442C9.14838 7.07442 6.59981 8.96013 6.34838 11.1944C6.34838 11.1944 6.10267 9.3887 6.66838 7.9887C6.66838 7.9887 4.57696 10.2001 4.13696 13.8058C4.13696 13.8058 3.18838 11.1258 4.13696 8.19442C4.13696 8.19442 3.5541 9.52013 2.16553 9.77728C2.16553 9.77728 2.99981 7.77728 4.61696 5.96013C4.61696 5.96013 4.14267 5.68013 3.38267 5.88585C3.38267 5.88585 4.67981 3.72013 8.33124 3.5087C8.33124 3.5087 8.02838 2.78871 6.57696 2.04013C6.57696 2.04013 8.86839 1.52585 10.5312 3.06299C10.5312 3.06299 10.5141 1.54871 9.60553 0.851562C9.60553 0.851562 11.8512 0.851563 13.3084 2.66871C13.3084 2.66871 15.017 1.34299 18.177 1.90299C18.177 1.90299 16.6627 2.18299 15.9655 3.16013C15.9655 3.16013 18.777 3.53156 20.3655 6.23442C22.2284 9.3887 21.4684 13.3601 21.4684 13.3601C21.4684 13.3601 20.9312 11.4058 19.777 10.7087C19.7712 10.703 20.3598 12.7487 19.497 14.9658Z" fill="url(#paint35_radial)"/>
<path d="M9.15401 7.07422C9.14829 7.10279 9.14829 7.13136 9.14258 7.15993C9.14829 7.11993 9.14829 7.09136 9.15401 7.07422Z" fill="url(#paint36_radial)"/>
<path d="M9.154 7.07438C9.14257 6.69152 9.41114 6.23438 9.41114 6.23438C6.43972 8.26295 6.354 11.1944 6.354 11.1944C6.60543 8.96009 9.154 7.07438 9.154 7.07438Z" fill="url(#paint37_radial)"/>
<path d="M10.9656 6.30316C10.9656 6.30316 13.9199 6.30316 15.3484 9.58316C14.0284 6.04602 11.0341 5.74316 11.0341 5.74316L10.9656 6.30316Z" fill="url(#paint38_radial)"/>
<path d="M8.32557 3.50876C8.32557 3.50876 8.94272 3.54304 8.67986 3.14876C8.23986 2.49161 6.57129 2.0459 6.57129 2.0459C8.02272 2.78876 8.32557 3.50876 8.32557 3.50876Z" fill="url(#paint39_linear)"/>
<path d="M10.5313 3.06885L10.9427 3.61742C11.2056 1.41742 9.59985 0.857422 9.59985 0.857422C10.5141 1.55457 10.5313 3.06885 10.5313 3.06885Z" fill="url(#paint40_linear)"/>
<path d="M4.61685 5.95978C4.61685 5.95978 5.66257 5.02835 7.05685 4.49121C7.05685 4.49121 5.14828 4.70264 3.38257 5.8855C4.13685 5.67407 4.61685 5.95978 4.61685 5.95978Z" fill="url(#paint41_linear)"/>
<path d="M13.937 2.96039C14.4227 2.51467 15.6513 1.73182 18.1713 1.90896C15.0113 1.34896 13.3027 2.67467 13.3027 2.67467C13.3027 2.67467 13.3542 2.73753 13.457 2.89182C13.5713 3.06324 13.7884 3.09182 13.937 2.96039Z" fill="url(#paint42_linear)"/>
<path d="M19.2512 9.36572C19.7369 10.0743 19.7712 10.7029 19.7712 10.7029C20.9255 11.4 21.4627 13.3543 21.4627 13.3543C21.4627 13.3543 21.6569 10.8914 19.2512 9.36572Z" fill="url(#paint43_linear)"/>
<path d="M9.28564 8.89139C9.88564 6.79425 10.9656 6.30853 10.9656 6.30853L11.0342 5.74854C9.5085 6.43425 9.28564 8.89139 9.28564 8.89139Z" fill="url(#paint44_radial)"/>
<path d="M4.13696 8.18888C4.47981 7.21174 5.56553 5.74316 5.56553 5.74316C5.56553 5.74316 4.39981 6.75459 3.86267 7.80602C3.32553 8.85745 2.16553 9.77174 2.16553 9.77174C3.5541 9.52031 4.13696 8.18888 4.13696 8.18888Z" fill="url(#paint45_linear)"/>
<path d="M6.66845 7.98893C6.83417 7.50893 7.23988 6.9375 7.23988 6.9375C3.62274 9.57178 4.13703 13.8061 4.13703 13.8061C4.58274 10.2004 6.66845 7.98893 6.66845 7.98893Z" fill="url(#paint46_linear)"/>
<path d="M14.3198 5.88574C14.3198 5.88574 14.6113 6.23431 14.857 7.00574C14.857 7.00574 17.7941 9.80003 18.0455 12.4515C18.0455 12.4515 18.2684 8.96003 14.3198 5.88574Z" fill="url(#paint47_linear)"/>
<path d="M17.4797 8.51416C17.4797 8.51416 17.8569 9.0513 18.1255 9.90845C18.1255 9.90845 19.6226 11.9599 19.4969 14.9599C20.3026 9.67988 17.4797 8.51416 17.4797 8.51416Z" fill="url(#paint48_linear)"/>
<path d="M15.1941 5.06315C15.1941 5.06315 16.417 4.66887 18.2684 6.25744C18.2684 6.25744 16.9141 5.77173 17.4512 6.29744C18.1941 6.95458 18.7198 7.62315 18.7198 7.62315C19.4398 5.9603 17.6341 2.66315 15.1941 5.06315Z" fill="url(#paint49_radial)"/>
<path d="M17.2569 4.7601C16.6912 4.6001 16.1826 4.73724 15.7883 5.02867C16.3198 5.07438 17.1883 5.32581 18.274 6.25724C18.274 6.25724 16.914 5.77153 17.4569 6.29724C17.9255 6.70867 18.3083 7.13153 18.5255 7.38296C18.6512 6.66867 18.314 5.06296 17.2569 4.7601Z" fill="url(#paint50_linear)"/>
<path d="M5.17122 6.65133C6.18265 5.90847 7.29122 5.67419 7.29122 5.67419C7.11979 5.54847 6.43408 5.67419 6.43408 5.67419C7.41122 5.04561 8.74836 5.06276 8.74836 5.06276C6.30836 2.66276 4.50265 5.9599 5.22265 7.61704C5.22265 7.61704 5.65694 7.06847 6.29122 6.4799C5.73122 6.53133 5.17122 6.65133 5.17122 6.65133Z" fill="url(#paint51_radial)"/>
<path d="M21.0742 14.0513C21.0799 14.0913 21.0856 14.1427 21.0914 14.1998C21.0799 14.1027 21.0742 14.0513 21.0742 14.0513Z" fill="url(#paint52_radial)"/>
<path d="M21.9655 15.4569C21.3884 14.5769 20.9255 12.5884 20.9255 12.5884C20.9255 12.5884 21.0341 13.5369 21.0741 14.0569C21.3655 15.5198 21.7713 16.1427 21.7713 16.1427C21.8455 15.9084 21.9084 15.6798 21.9655 15.4569Z" fill="url(#paint53_radial)"/>
<path d="M7.29122 5.66892C7.11979 5.5432 6.43408 5.66892 6.43408 5.66892C7.03408 5.28034 7.76551 5.1432 8.24551 5.09177C7.83979 4.76034 7.29693 4.58892 6.69122 4.76034C5.98836 4.96034 5.59979 5.7432 5.46265 6.45177C6.38265 5.8632 7.29122 5.66892 7.29122 5.66892Z" fill="url(#paint54_linear)"/>
<path d="M5.43406 6.59998C5.38835 6.89712 5.38835 7.17713 5.42263 7.38284C5.6112 7.1657 5.91406 6.82855 6.2912 6.47998C5.9712 6.50855 5.6512 6.55998 5.43406 6.59998Z" fill="url(#paint55_linear)"/>
<defs>
<linearGradient id="paint0_linear" x1="11.9999" y1="22.1961" x2="11.9999" y2="10.7441" gradientUnits="userSpaceOnUse">
<stop stop-color="#F05C00"/>
<stop offset="1" stop-color="#BD2719"/>
</linearGradient>
<radialGradient id="paint1_radial" cx="0" cy="0" r="1" gradientUnits="userSpaceOnUse" gradientTransform="translate(12.1681 12.4212) scale(9.78527 9.77549)">
<stop offset="0.00132565" stop-color="#512D00"/>
<stop offset="1" stop-color="#512D00" stop-opacity="0"/>
</radialGradient>
<radialGradient id="paint2_radial" cx="0" cy="0" r="1" gradientUnits="userSpaceOnUse" gradientTransform="translate(18.9648 13.0732) scale(4.53962 4.53512)">
<stop offset="0.00132565" stop-color="#512D00"/>
<stop offset="1" stop-color="#512D00" stop-opacity="0"/>
</radialGradient>
<radialGradient id="paint3_radial" cx="0" cy="0" r="1" gradientUnits="userSpaceOnUse" gradientTransform="translate(9.33251 9.49313) scale(13.2524 13.2392)">
<stop stop-color="#FCCE38"/>
<stop offset="1" stop-color="#FF8000"/>
</radialGradient>
<linearGradient id="paint4_linear" x1="11.9706" y1="13.3259" x2="11.9706" y2="8.14577" gradientUnits="userSpaceOnUse">
<stop stop-color="#FFCB4B"/>
<stop offset="1" stop-color="#FF8000" stop-opacity="0"/>
</linearGradient>
<radialGradient id="paint5_radial" cx="0" cy="0" r="1" gradientUnits="userSpaceOnUse" gradientTransform="translate(4.45648 13.3953) rotate(-118.789) scale(9.66384 4.58077)">
<stop stop-color="#FCCE38"/>
<stop offset="1" stop-color="#FF8000"/>
</radialGradient>
<radialGradient id="paint6_radial" cx="0" cy="0" r="1" gradientUnits="userSpaceOnUse" gradientTransform="translate(21.0422 13.4882) rotate(-61.2108) scale(9.68654 4.59153)">
<stop stop-color="#FCCE38"/>
<stop offset="1" stop-color="#FF8000"/>
</radialGradient>
<linearGradient id="paint7_linear" x1="11.9745" y1="20.9968" x2="11.9745" y2="16.7353" gradientUnits="userSpaceOnUse">
<stop stop-color="#FBE07A"/>
<stop offset="1" stop-color="white"/>
</linearGradient>
<linearGradient id="paint8_linear" x1="11.9745" y1="18.7556" x2="11.9745" y2="16.4599" gradientUnits="userSpaceOnUse">
<stop stop-color="#FCCE38" stop-opacity="0"/>
<stop offset="0.00941044" stop-color="#FCCD37" stop-opacity="0.01"/>
<stop offset="0.2861" stop-color="#FDAB1F" stop-opacity="0.2861"/>
<stop offset="0.5504" stop-color="#FE930E" stop-opacity="0.5504"/>
<stop offset="0.7948" stop-color="#FF8504" stop-opacity="0.7948"/>
<stop offset="1" stop-color="#FF8000"/>
</linearGradient>
<linearGradient id="paint9_linear" x1="11.9666" y1="17.335" x2="12.4401" y2="19.9234" gradientUnits="userSpaceOnUse">
<stop stop-color="#FF6688"/>
<stop offset="1" stop-color="#FB9C9C"/>
</linearGradient>
<linearGradient id="paint10_linear" x1="12.1162" y1="18.0545" x2="11.6006" y2="15.4869" gradientUnits="userSpaceOnUse">
<stop stop-color="#FF6688"/>
<stop offset="1" stop-color="#B30B0B"/>
</linearGradient>
<linearGradient id="paint11_linear" x1="12.2" y1="18.0377" x2="11.6844" y2="15.4704" gradientUnits="userSpaceOnUse">
<stop stop-color="#FF6688"/>
<stop offset="1" stop-color="#B30B0B"/>
</linearGradient>
<linearGradient id="paint12_linear" x1="11.9745" y1="19.797" x2="11.9745" y2="13.3202" gradientUnits="userSpaceOnUse">
<stop stop-color="#FBE07A"/>
<stop offset="1" stop-color="white"/>
</linearGradient>
<radialGradient id="paint13_radial" cx="0" cy="0" r="1" gradientUnits="userSpaceOnUse" gradientTransform="translate(14.7332 14.9044) rotate(180) scale(5.26188 5.25663)">
<stop stop-color="#FF8000" stop-opacity="0"/>
<stop offset="1" stop-color="#FCCE38"/>
</radialGradient>
<radialGradient id="paint14_radial" cx="0" cy="0" r="1" gradientUnits="userSpaceOnUse" gradientTransform="translate(9.21706 14.9044) scale(5.26188 5.25663)">
<stop stop-color="#FF8000" stop-opacity="0"/>
<stop offset="1" stop-color="#FCCE38"/>
</radialGradient>
<radialGradient id="paint15_radial" cx="0" cy="0" r="1" gradientUnits="userSpaceOnUse" gradientTransform="translate(11.976 7.73104) rotate(180) scale(8.54429 8.53574)">
<stop stop-color="#F8BE00"/>
<stop offset="1" stop-color="#FF8000"/>
</radialGradient>
<linearGradient id="paint16_linear" x1="12.1523" y1="15.332" x2="11.5445" y2="13.2089" gradientUnits="userSpaceOnUse">
<stop stop-color="#3C2200"/>
<stop offset="1" stop-color="#512D00"/>
</linearGradient>
<radialGradient id="paint17_radial" cx="0" cy="0" r="1" gradientUnits="userSpaceOnUse" gradientTransform="translate(14.976 11.1805) rotate(91.4443) scale(0.831856 0.674918)">
<stop stop-color="#512D00"/>
<stop offset="1" stop-color="#3C2200"/>
</radialGradient>
<linearGradient id="paint18_linear" x1="14.7335" y1="15.8565" x2="14.9863" y2="15.8565" gradientUnits="userSpaceOnUse">
<stop stop-color="#3C2200"/>
<stop offset="1" stop-color="#512D00"/>
</linearGradient>
<linearGradient id="paint19_linear" x1="13.9217" y1="16.0718" x2="14.1745" y2="16.0718" gradientUnits="userSpaceOnUse">
<stop stop-color="#3C2200"/>
<stop offset="1" stop-color="#512D00"/>
</linearGradient>
<linearGradient id="paint20_linear" x1="14.2219" y1="15.2196" x2="14.4747" y2="15.2196" gradientUnits="userSpaceOnUse">
<stop stop-color="#3C2200"/>
<stop offset="1" stop-color="#512D00"/>
</linearGradient>
<linearGradient id="paint21_linear" x1="9.21554" y1="15.8565" x2="8.96275" y2="15.8565" gradientUnits="userSpaceOnUse">
<stop stop-color="#3C2200"/>
<stop offset="1" stop-color="#512D00"/>
</linearGradient>
<linearGradient id="paint22_linear" x1="10.0275" y1="16.0718" x2="9.77467" y2="16.0718" gradientUnits="userSpaceOnUse">
<stop stop-color="#3C2200"/>
<stop offset="1" stop-color="#512D00"/>
</linearGradient>
<linearGradient id="paint23_linear" x1="9.72702" y1="15.2196" x2="9.47424" y2="15.2196" gradientUnits="userSpaceOnUse">
<stop stop-color="#3C2200"/>
<stop offset="1" stop-color="#512D00"/>
</linearGradient>
<radialGradient id="paint24_radial" cx="0" cy="0" r="1" gradientUnits="userSpaceOnUse" gradientTransform="translate(8.97312 11.1798) rotate(88.5557) scale(0.831856 0.67492)">
<stop stop-color="#512D00"/>
<stop offset="1" stop-color="#3C2200"/>
</radialGradient>
<linearGradient id="paint25_linear" x1="11.708" y1="13.43" x2="11.9817" y2="14.5458" gradientUnits="userSpaceOnUse">
<stop stop-color="#643800"/>
<stop offset="1" stop-color="#512D00"/>
</linearGradient>
<radialGradient id="paint26_radial" cx="0" cy="0" r="1" gradientUnits="userSpaceOnUse" gradientTransform="translate(12.5688 8.27561) rotate(180) scale(11.7146 11.7029)">
<stop stop-color="#F8BE00"/>
<stop offset="1" stop-color="#FF8000"/>
</radialGradient>
<linearGradient id="paint27_linear" x1="14.6407" y1="10.7299" x2="15.0038" y2="11.5192" gradientUnits="userSpaceOnUse">
<stop stop-color="#A3541E"/>
<stop offset="1" stop-color="#512D00"/>
</linearGradient>
<linearGradient id="paint28_linear" x1="8.70013" y1="10.7299" x2="9.06318" y2="11.5192" gradientUnits="userSpaceOnUse">
<stop stop-color="#A3541E"/>
<stop offset="1" stop-color="#512D00"/>
</linearGradient>
<radialGradient id="paint29_radial" cx="0" cy="0" r="1" gradientUnits="userSpaceOnUse" gradientTransform="translate(3.57674 9.6008) scale(6.14347 6.13733)">
<stop offset="0.00132565" stop-color="#512D00"/>
<stop offset="1" stop-color="#512D00" stop-opacity="0"/>
</radialGradient>
<radialGradient id="paint30_radial" cx="0" cy="0" r="1" gradientUnits="userSpaceOnUse" gradientTransform="translate(3.57652 9.60019) scale(6.14309 6.13818)">
<stop offset="0.00132565" stop-color="#512D00"/>
<stop offset="1" stop-color="#512D00" stop-opacity="0"/>
</radialGradient>
<radialGradient id="paint31_radial" cx="0" cy="0" r="1" gradientUnits="userSpaceOnUse" gradientTransform="translate(4.67214 14.8937) scale(6.14042 6.13428)">
<stop offset="0.00132565" stop-color="#512D00"/>
<stop offset="1" stop-color="#512D00" stop-opacity="0"/>
</radialGradient>
<radialGradient id="paint32_radial" cx="0" cy="0" r="1" gradientUnits="userSpaceOnUse" gradientTransform="translate(6.83734 16.5894) scale(6.51927 6.51277)">
<stop offset="0.00132565" stop-color="#512D00"/>
<stop offset="1" stop-color="#512D00" stop-opacity="0"/>
</radialGradient>
<radialGradient id="paint33_radial" cx="0" cy="0" r="1" gradientUnits="userSpaceOnUse" gradientTransform="translate(14.8493 16.3721) scale(4.64983 4.64517)">
<stop offset="0.00132565" stop-color="#512D00"/>
<stop offset="1" stop-color="#512D00" stop-opacity="0"/>
</radialGradient>
<radialGradient id="paint34_radial" cx="0" cy="0" r="1" gradientUnits="userSpaceOnUse" gradientTransform="translate(14.4148 17.6718) scale(4.37116 4.36676)">
<stop offset="0.00132565" stop-color="#512D00"/>
<stop offset="1" stop-color="#512D00" stop-opacity="0"/>
</radialGradient>
<radialGradient id="paint35_radial" cx="0" cy="0" r="1" gradientUnits="userSpaceOnUse" gradientTransform="translate(9.48523 5.18201) rotate(81.48) scale(9.79167 10.4694)">
<stop stop-color="#FF9D00"/>
<stop offset="1" stop-color="#E74A3A"/>
</radialGradient>
<radialGradient id="paint36_radial" cx="0" cy="0" r="1" gradientUnits="userSpaceOnUse" gradientTransform="translate(7.30471 0.507785) rotate(105.826) scale(10.1992 21.5484)">
<stop stop-color="#E74A3A"/>
<stop offset="1" stop-color="#FF9D00"/>
</radialGradient>
<radialGradient id="paint37_radial" cx="0" cy="0" r="1" gradientUnits="userSpaceOnUse" gradientTransform="translate(8.54231 4.87323) scale(7.13185 7.8821)">
<stop stop-color="#F05C00"/>
<stop offset="1" stop-color="#BD2719"/>
</radialGradient>
<radialGradient id="paint38_radial" cx="0" cy="0" r="1" gradientUnits="userSpaceOnUse" gradientTransform="translate(11.0022 5.81634) scale(9.26008 10.2342)">
<stop stop-color="#F05C00"/>
<stop offset="1" stop-color="#BD2719"/>
</radialGradient>
<linearGradient id="paint39_linear" x1="6.17694" y1="1.7341" x2="9.07013" y2="3.65206" gradientUnits="userSpaceOnUse">
<stop stop-color="#F05C00"/>
<stop offset="1" stop-color="#BD2719"/>
</linearGradient>
<linearGradient id="paint40_linear" x1="9.44459" y1="0.777782" x2="12.0642" y2="4.55407" gradientUnits="userSpaceOnUse">
<stop stop-color="#F05C00"/>
<stop offset="1" stop-color="#BD2719"/>
</linearGradient>
<linearGradient id="paint41_linear" x1="3.83503" y1="5.58643" x2="6.95105" y2="5.0141" gradientUnits="userSpaceOnUse">
<stop stop-color="#F05C00"/>
<stop offset="1" stop-color="#BD2719"/>
</linearGradient>
<linearGradient id="paint42_linear" x1="16.4678" y1="1.37854" x2="14.3375" y2="4.02526" gradientUnits="userSpaceOnUse">
<stop stop-color="#F05C00"/>
<stop offset="1" stop-color="#BD2719"/>
</linearGradient>
<linearGradient id="paint43_linear" x1="21.6483" y1="15.5675" x2="19.6972" y2="8.6814" gradientUnits="userSpaceOnUse">
<stop stop-color="#F05C00"/>
<stop offset="1" stop-color="#BD2719"/>
</linearGradient>
<radialGradient id="paint44_radial" cx="0" cy="0" r="1" gradientUnits="userSpaceOnUse" gradientTransform="translate(8.85362 4.83819) scale(8.2335 9.09961)">
<stop stop-color="#F05C00"/>
<stop offset="1" stop-color="#BD2719"/>
</radialGradient>
<linearGradient id="paint45_linear" x1="2.91181" y1="11.3331" x2="4.11085" y2="6.84531" gradientUnits="userSpaceOnUse">
<stop stop-color="#F05C00"/>
<stop offset="1" stop-color="#BD2719"/>
</linearGradient>
<linearGradient id="paint46_linear" x1="7.21108" y1="14.6913" x2="5.08604" y2="8.65284" gradientUnits="userSpaceOnUse">
<stop stop-color="#F05C00"/>
<stop offset="1" stop-color="#BD2719"/>
</linearGradient>
<linearGradient id="paint47_linear" x1="15.5521" y1="15.6161" x2="16.8523" y2="2.3336" gradientUnits="userSpaceOnUse">
<stop stop-color="#F05C00"/>
<stop offset="1" stop-color="#BD2719"/>
</linearGradient>
<linearGradient id="paint48_linear" x1="20.3288" y1="17.1415" x2="17.9958" y2="8.13279" gradientUnits="userSpaceOnUse">
<stop stop-color="#BD2719" stop-opacity="0"/>
<stop offset="1" stop-color="#BD2719"/>
</linearGradient>
<radialGradient id="paint49_radial" cx="0" cy="0" r="1" gradientUnits="userSpaceOnUse" gradientTransform="translate(20.5864 3.30234) scale(6.32514 6.31882)">
<stop stop-color="#FCCE38"/>
<stop offset="1" stop-color="#FF8000"/>
</radialGradient>
<linearGradient id="paint50_linear" x1="16.3816" y1="7.17683" x2="18.543" y2="4.45623" gradientUnits="userSpaceOnUse">
<stop stop-color="#F05C00"/>
<stop offset="1" stop-color="#BD2719"/>
</linearGradient>
<radialGradient id="paint51_radial" cx="0" cy="0" r="1" gradientUnits="userSpaceOnUse" gradientTransform="translate(7.25575 4.24893) scale(6.32513 6.31882)">
<stop stop-color="#FCCE38"/>
<stop offset="1" stop-color="#FF8000"/>
</radialGradient>
<radialGradient id="paint52_radial" cx="0" cy="0" r="1" gradientUnits="userSpaceOnUse" gradientTransform="translate(18.4119 10.7529) scale(7.43083 7.42345)">
<stop offset="0.00132565" stop-color="#512D00"/>
<stop offset="1" stop-color="#512D00" stop-opacity="0"/>
</radialGradient>
<radialGradient id="paint53_radial" cx="0" cy="0" r="1" gradientUnits="userSpaceOnUse" gradientTransform="translate(18.4118 10.7529) scale(7.43066 7.42323)">
<stop offset="0.00132565" stop-color="#512D00"/>
<stop offset="1" stop-color="#512D00" stop-opacity="0"/>
</radialGradient>
<linearGradient id="paint54_linear" x1="7.0101" y1="5.98143" x2="4.78647" y2="2.99629" gradientUnits="userSpaceOnUse">
<stop stop-color="#F05C00"/>
<stop offset="1" stop-color="#BD2719"/>
</linearGradient>
<linearGradient id="paint55_linear" x1="5.91084" y1="7.00052" x2="4.83161" y2="5.5517" gradientUnits="userSpaceOnUse">
<stop stop-color="#F05C00"/>
<stop offset="1" stop-color="#BD2719"/>
</linearGradient>
</defs>
</svg>
