<svg width="80" height="80" viewBox="0 0 80 80" fill="none" xmlns="http://www.w3.org/2000/svg">
<path d="M68.4121 41.1814C66.7795 39.7729 60.7817 38.25 56.0234 43.7644C54.1718 45.9094 52.6586 45.1828 51.6681 44.1924C51.0111 43.5355 49.2442 37.3094 50.2695 33.7857L41.5392 33.3677C41.3799 34.816 40.1903 36.6076 39.6677 36.6474C39.1451 36.6873 38.717 35.4281 38.6274 34.1889C38.5378 32.9546 30.8726 38.6332 30.4097 38.8572C30.1061 39.0065 27.0699 39.1608 24.5762 40.1462C18.897 38.897 14.2332 38.0659 12.6952 37.9414C11.4957 41.903 11.3463 47.3378 11.3463 50.095C11.8341 64.4284 17.0554 73.2724 32.2613 73.9193C32.7242 73.9442 33.1871 73.9691 33.645 73.9691C33.7894 73.9691 33.9188 73.9841 34.0681 73.9841C35.8898 73.9841 37.5523 73.7601 39.0803 73.3769C43.0772 72.5059 46.5763 70.7192 48.6917 68.2606C54.1568 61.93 54.3709 57.9236 59.0745 52.7178C63.0564 48.3133 68.1732 48.9901 70.1143 46.7406C71.7469 44.8543 69.3329 41.9727 68.4121 41.1814Z" fill="url(#paint0_linear)"/>
<path opacity="0.08" d="M70.1144 46.7455C71.0003 45.7202 70.6918 44.3964 70.0795 43.2766C68.0587 47.8155 62.4044 44.6303 51.8075 56.9132C41.2107 69.1912 30.9772 66.5983 27.488 64.6573C23.9989 62.7163 21.5798 56.1219 19.9572 47.9748C19.4595 45.4714 18.5337 42.5549 17.3391 39.6235C15.6269 40.6587 11.3712 48.5371 11.3712 48.5371C11.6499 54.2705 12.7052 63.3185 19.8527 69.4849C28.1251 76.6217 43.2315 74.6011 48.6967 68.2705C54.1618 61.9399 54.3759 57.9335 59.0795 52.7277C63.0564 48.3182 68.1732 48.99 70.1144 46.7455Z" fill="url(#paint1_radial)"/>
<path d="M40.5785 34.8759C40.5984 34.4877 40.6183 34.0696 40.6333 33.6217C40.912 26.2957 40.8722 11.5293 41.2057 9.58834C41.5591 7.52791 42.6889 6.00498 45.6505 6.00001C48.607 5.99503 50.0555 8.77213 49.707 12.5147C49.3586 16.2574 50.1102 30.2374 50.3342 34.9456C50.6826 42.2367 51.8623 53.5392 51.8623 53.5392L40.8821 46.0291L40.5785 34.8759Z" fill="url(#paint2_linear)"/>
<path opacity="0.24" d="M42.2211 22.5034C42.0121 14.9634 41.7532 9.76259 42.7885 6.77148C41.8777 7.4135 41.4048 8.40889 41.2007 9.58841C40.8673 11.5294 40.912 26.2908 40.6283 33.6218C40.6134 34.0697 40.5935 34.4878 40.5736 34.876L40.6781 38.7779L41.2057 39.9872C41.2107 39.9872 42.5048 32.6563 42.2211 22.5034Z" fill="url(#paint3_linear)"/>
<path d="M12.2871 16.2177C8.116 17.0389 8.80288 21.2145 9.60922 25.1861C10.4753 29.4413 12.8545 45.5914 12.8545 45.5914L22.6052 46.1985C22.6052 46.1985 22.8591 44.7453 22.4908 42.6649C21.3957 36.5135 18.7428 23.9468 17.7523 20.0549C16.4581 14.9635 12.2871 16.2177 12.2871 16.2177Z" fill="url(#paint4_linear)"/>
<path opacity="0.24" d="M22.4907 42.6646C21.3957 36.5132 18.7427 23.9466 17.7522 20.0547C17.0405 17.2577 15.4626 16.3768 14.1834 16.1528C17.4287 18.6413 18.8124 31.3671 20.5794 36.7969C22.0676 41.3756 22.5206 43.2669 22.645 43.879C22.6151 43.5057 22.5703 43.1026 22.4907 42.6646Z" fill="url(#paint5_linear)"/>
<path d="M11.3513 50.0952C11.3513 52.4543 12.4961 53.5144 13.0635 53.8976C13.2526 54.027 13.3821 54.0767 13.3821 54.0767L24.0436 61.8805L43.5599 57.8343L41.4694 40.0867C38.5427 39.7085 35.8649 39.4447 33.2866 39.2407C33.1622 39.2307 31.6739 34.9406 31.5495 34.9307C31.4201 34.9207 30.8278 38.9022 30.6984 38.8923C24.3074 38.4145 20.2807 38.5738 12.6952 37.9467C11.4956 41.9033 11.3513 47.338 11.3513 50.0952Z" fill="url(#paint6_linear)"/>
<path opacity="0.08" d="M11.0377 21.5524C10.0671 21.3434 10.4255 19.4024 11.2518 18.4319C12.078 17.4564 13.5364 16.8393 14.507 17.0434C15.4776 17.2474 15.1043 18.4419 14.7857 19.492C14.2382 21.2986 12.0083 21.7565 11.0377 21.5524Z" fill="url(#paint7_radial)"/>
<path opacity="0.08" d="M43.9681 7.26887C44.2817 6.32327 46.1731 6.89561 47.0491 7.82628C47.9252 8.75695 48.3831 10.2699 48.0745 11.2155C47.7609 12.1611 46.6161 11.6584 45.6107 11.2254C43.8686 10.4789 43.6595 8.21447 43.9681 7.26887Z" fill="url(#paint8_radial)"/>
<path opacity="0.08" d="M14.4124 50.6027C12.8844 52.464 17.5283 63.1743 22.1125 65.8718C26.6917 68.5692 32.4356 67.7431 33.5555 65.598C34.6754 63.453 29.912 60.1235 26.0147 56.4306C19.2903 50.0652 15.9405 48.7413 14.4124 50.6027Z" fill="url(#paint9_radial)"/>
<path opacity="0.24" d="M13.9097 56.4506C10.9133 51.1751 13.4468 42.0624 12.8844 40.2757C12.3219 38.489 12.5061 31.7204 11.0029 25.6088C10.0871 21.8961 9.76354 19.2832 10.4255 17.0088C8.37485 18.5964 8.95223 21.9608 9.60925 25.1908C10.1617 27.8982 11.3215 35.4033 12.0979 40.5196C11.4509 44.0183 11.3513 47.9053 11.3513 50.1001C11.8093 63.5128 16.4084 72.1128 29.4491 73.7004C21.4455 72.3169 16.717 61.3876 13.9097 56.4506Z" fill="url(#paint10_linear)"/>
<path d="M32.4455 73.9244C32.0771 73.8697 31.6491 73.8348 31.1265 73.8348C30.6138 73.8348 30.1211 73.7851 29.6333 73.7104C30.5292 73.8199 31.4649 73.8896 32.4455 73.9244Z" fill="url(#paint11_linear)"/>
<path opacity="0.24" d="M70.0794 43.277C69.5618 42.3364 68.8351 41.5401 68.417 41.1768C66.7844 39.7683 60.7867 38.2454 56.0284 43.7598C54.1768 45.9048 51.1207 45.7754 50.7524 41.346C50.5782 39.1164 50.4239 36.8867 50.3343 34.9358C50.1103 30.2277 49.3587 16.2476 49.7071 12.505C49.9311 10.0713 49.3886 8.0656 48.1741 6.9458C49.2094 10.2007 48.7863 15.0332 49.0899 27.8587C49.2641 35.3489 49.3338 38.0214 49.6922 41.3858C50.7573 50.7274 54.7392 48.1494 57.5763 45.7854C60.4134 43.4263 62.9021 39.191 68.188 42.3165C69.9898 43.3865 70.1093 43.8046 70.0794 43.277Z" fill="url(#paint12_linear)"/>
<path d="M37.4427 47.9551C41.9671 47.8406 42.6092 43.3963 41.6834 34.1592L41.4843 32.1685L31.8283 39.6985L22.431 41.1169L21.112 36.0554C21.0772 36.0554 21.1469 36.0554 21.112 36.0554C21.112 36.0554 19.2256 50.5381 28.0803 49.6473C28.0803 49.6473 27.6572 49.7269 28.0803 49.6473C32.1667 48.8758 32.1219 43.2619 32.1219 43.2619C32.1219 43.2619 33.5255 48.0547 37.4427 47.9551Z" fill="url(#paint13_linear)"/>
<path d="M27.4979 49.1547C24.0337 49.1547 22.3065 47.5123 21.8237 42.8341C21.3409 38.1558 19.2604 29.7598 25.6165 29.277C31.3256 28.844 31.8283 32.9151 31.8283 39.6986C31.8283 46.4821 30.4794 49.1547 27.4979 49.1547Z" fill="url(#paint14_linear)"/>
<path opacity="0.24" d="M27.2391 41.9331C24.5962 43.5705 22.8143 43.6004 21.6844 41.3707C21.7093 41.6246 21.7392 41.8734 21.7591 42.1123C22.2419 47.4326 23.969 49.299 27.4333 49.299C29.8672 49.299 31.2111 47.2684 31.6242 42.3213C30.9423 40.883 28.7971 40.9676 27.2391 41.9331Z" fill="url(#paint15_linear)"/>
<path d="M27.0152 43.9339C24.1731 43.9339 22.8939 42.0975 22.416 38.33C22.1672 36.394 20.5545 29.6353 25.7708 29.272C30.7731 28.9237 30.7731 33.4078 30.8776 37.2151C31.022 42.6947 29.464 43.9339 27.0152 43.9339Z" fill="url(#paint16_linear)"/>
<path opacity="0.24" d="M25.4323 48.876C26.0395 49.0601 26.7214 49.1547 27.4979 49.1547C30.4794 49.1547 31.8233 46.4821 31.8233 39.6986C31.8233 33.1589 31.4251 29.1277 26.2336 29.262C28.3839 30.6456 30.1359 33.796 30.1359 39.4945C30.1409 47.5969 28.4535 48.856 25.4323 48.876Z" fill="url(#paint17_linear)"/>
<path d="M37.5423 47.2235C34.2373 47.0941 32.1418 44.9391 32.0821 40.3305C32.0323 36.4436 30.1658 27.9182 36.2432 27.7142C42.0766 27.5151 42.0816 31.5015 41.9124 38.1357C41.7432 44.7699 40.3893 47.333 37.5423 47.2235Z" fill="url(#paint18_linear)"/>
<path opacity="0.24" d="M37.2934 40.0567C34.7251 41.5448 33.0278 41.5149 32.0025 39.3052C32.0224 39.549 32.0423 39.7979 32.0572 40.0268C32.3857 45.2078 33.9885 47.0841 37.2984 47.2135C39.6228 47.303 41.2654 45.4367 41.778 40.6489C41.1609 39.2255 38.8066 39.1808 37.2934 40.0567Z" fill="url(#paint19_linear)"/>
<path d="M37.0545 40.4349C34.3418 40.3304 33.3314 40.0616 32.9631 36.3887C32.774 34.4975 31.4002 27.8782 36.3925 27.7139C41.1758 27.5597 41.0663 31.9145 41.0713 35.6173C41.0763 40.9426 39.3939 40.5245 37.0545 40.4349Z" fill="url(#paint20_linear)"/>
<path opacity="0.24" d="M35.5763 46.8748C36.1536 47.0739 36.8007 47.1934 37.5424 47.2232C40.3895 47.3327 41.7433 44.7696 41.9126 38.1354C42.0768 31.7401 42.0569 27.8183 36.8355 27.7188C38.8514 29.1521 40.4492 32.2975 40.3048 37.8716C40.1057 45.7949 38.4682 46.9694 35.5763 46.8748Z" fill="url(#paint21_linear)"/>
<path d="M42.0219 37.3294C42.0219 37.3294 41.9721 37.3194 41.9473 37.3145C42.3952 44.4115 41.4197 47.8555 37.4427 47.955C33.5305 48.0546 32.1169 43.2569 32.1169 43.2569C32.1169 43.2569 32.1617 48.8708 28.0753 49.6422C28.0753 49.6422 28.0106 49.6571 27.9558 49.6671C27.8812 49.682 27.9011 49.6771 27.9558 49.6671C27.9857 49.6621 28.0056 49.6571 28.0753 49.6422C24.8301 49.9707 23.0382 48.2238 22.0576 45.8896C23.0332 48.6219 24.8201 50.1399 27.2491 50.1399C30.9224 50.1399 31.8083 46.9398 32.5599 46.9398C33.3115 46.9398 36.278 49.1545 37.826 49.1545C42.9626 49.1545 42.2061 40.8182 42.0219 37.3294Z" fill="url(#paint22_linear)"/>
<path d="M28.4834 29.5308C29.2748 29.7746 29.9816 30.2872 30.4545 30.9741C30.9323 31.6559 31.2309 32.4522 31.4201 33.2584C31.7884 34.8809 31.863 36.5432 31.9128 38.1905C31.9327 39.8429 32.0173 41.4902 31.883 43.1525C31.7187 44.7899 31.3952 46.5069 30.3599 47.8905C29.3495 49.3587 27.3237 49.717 25.726 49.284C24.8997 49.085 24.1133 48.6669 23.516 48.0498C22.9088 47.4426 22.5056 46.6761 22.2069 45.8948C21.6246 44.3171 21.4603 42.6399 21.3658 40.9975C21.2563 39.3502 21.097 37.7078 21.107 36.0505C21.3608 37.6879 21.4504 39.3352 21.5898 40.9776C21.7042 42.62 21.8934 44.2673 22.4757 45.7903C23.0282 47.3032 24.1979 48.6321 25.7956 48.9605C27.3336 49.3587 29.1404 49.0203 30.0712 47.6765C31.0567 46.4074 31.4101 44.7401 31.5943 43.1326C31.7486 41.5052 31.6888 39.8479 31.6938 38.2005C31.6689 36.5531 31.6142 34.9008 31.2757 33.2933C31.1115 32.492 30.8427 31.7007 30.3947 31.0188C29.9517 30.3271 29.2698 29.7995 28.4834 29.5308Z" fill="#3D2A20"/>
<path d="M38.9808 28.0674C39.7225 28.3312 40.4243 28.7691 40.9071 29.4111C41.3949 30.0482 41.6587 30.8295 41.818 31.6059C42.1067 33.1786 42.0768 34.7712 42.0718 36.3489C42.0519 37.9266 42.032 39.5142 41.8777 41.0969C41.7035 42.6646 41.4745 44.287 40.6533 45.7154C40.2401 46.4172 39.5632 47.0144 38.7568 47.2383C37.9455 47.4723 37.1193 47.3727 36.3328 47.2334C35.5414 47.0741 34.7699 46.7506 34.1428 46.2231C33.5106 45.7005 33.0527 45.0037 32.7491 44.2622C32.1518 42.7641 32.0174 41.1466 31.9676 39.5739L31.7834 34.8359L32.1319 39.564C32.2165 41.1367 32.3608 42.7243 32.9631 44.1726C33.5355 45.6358 34.8496 46.7058 36.3926 46.9447C37.1491 47.0741 37.9555 47.1488 38.6673 46.9248C39.389 46.7158 39.9763 46.1882 40.3546 45.5313C41.141 44.2124 41.3999 42.6148 41.589 41.067C41.7632 39.5043 41.803 37.9266 41.8429 36.3489C41.8727 34.7762 41.9076 33.1886 41.6537 31.6408C41.5293 30.8694 41.3003 30.1029 40.8424 29.4659C40.3894 28.8189 39.7125 28.356 38.9808 28.0674Z" fill="#3D2A20"/>
<defs>
<linearGradient id="paint0_linear" x1="6.09727" y1="61.8159" x2="44.52" y2="49.9515" gradientUnits="userSpaceOnUse">
<stop offset="0.00132565" stop-color="#5A4539"/>
<stop offset="1" stop-color="#695042"/>
</linearGradient>
<radialGradient id="paint1_radial" cx="0" cy="0" r="1" gradientUnits="userSpaceOnUse" gradientTransform="translate(35.8226 48.6613) scale(24.234 24.2316)">
<stop stop-color="#3D2A20"/>
<stop offset="1" stop-color="#3D2A20" stop-opacity="0"/>
</radialGradient>
<linearGradient id="paint2_linear" x1="49.2815" y1="-30.4186" x2="46.095" y2="40.7549" gradientUnits="userSpaceOnUse">
<stop offset="0.00132565" stop-color="#5A4539"/>
<stop offset="1" stop-color="#695042"/>
</linearGradient>
<linearGradient id="paint3_linear" x1="44.1922" y1="48.0998" x2="40.0615" y2="5.48998" gradientUnits="userSpaceOnUse">
<stop stop-color="#3D2A20"/>
<stop offset="0.9987" stop-color="#473226"/>
</linearGradient>
<linearGradient id="paint4_linear" x1="-1.54857" y1="37.0556" x2="36.8743" y2="25.1912" gradientUnits="userSpaceOnUse">
<stop offset="0.00132565" stop-color="#5A4539"/>
<stop offset="1" stop-color="#695042"/>
</linearGradient>
<linearGradient id="paint5_linear" x1="20.8887" y1="49.6824" x2="17.2596" y2="20.735" gradientUnits="userSpaceOnUse">
<stop stop-color="#3D2A20"/>
<stop offset="0.9987" stop-color="#473226"/>
</linearGradient>
<linearGradient id="paint6_linear" x1="4.0882" y1="55.3099" x2="42.5109" y2="43.4455" gradientUnits="userSpaceOnUse">
<stop offset="0.00132565" stop-color="#5A4539"/>
<stop offset="1" stop-color="#695042"/>
</linearGradient>
<radialGradient id="paint7_radial" cx="0" cy="0" r="1" gradientUnits="userSpaceOnUse" gradientTransform="translate(12.8823 19.3252) rotate(130.276) scale(2.89658 1.53339)">
<stop stop-color="#F8DBBA"/>
<stop offset="1" stop-color="#CD9870" stop-opacity="0"/>
</radialGradient>
<radialGradient id="paint8_radial" cx="0" cy="0" r="1" gradientUnits="userSpaceOnUse" gradientTransform="translate(45.9775 9.26991) rotate(-133.44) scale(2.89729 1.53371)">
<stop stop-color="#F8DBBA"/>
<stop offset="1" stop-color="#CD9870" stop-opacity="0"/>
</radialGradient>
<radialGradient id="paint9_radial" cx="0" cy="0" r="1" gradientUnits="userSpaceOnUse" gradientTransform="translate(23.4623 59.8202) rotate(-138.632) scale(13.4101 6.12819)">
<stop stop-color="#F8DBBA"/>
<stop offset="1" stop-color="#CD9870" stop-opacity="0"/>
</radialGradient>
<linearGradient id="paint10_linear" x1="9.00115" y1="45.349" x2="29.4455" y2="45.349" gradientUnits="userSpaceOnUse">
<stop stop-color="#3D2A20"/>
<stop offset="0.9987" stop-color="#473226"/>
</linearGradient>
<linearGradient id="paint11_linear" x1="46.6659" y1="13.0675" x2="4.28965" y2="177.937" gradientUnits="userSpaceOnUse">
<stop stop-color="#FFBC47" stop-opacity="0"/>
<stop offset="1" stop-color="#C86F34"/>
</linearGradient>
<linearGradient id="paint12_linear" x1="44.0755" y1="62.0771" x2="70.808" y2="-3.43257" gradientUnits="userSpaceOnUse">
<stop stop-color="#3D2A20"/>
<stop offset="0.9987" stop-color="#473226"/>
</linearGradient>
<linearGradient id="paint13_linear" x1="30.3156" y1="61.664" x2="31.6729" y2="36.287" gradientUnits="userSpaceOnUse">
<stop stop-color="#3C2200" stop-opacity="0"/>
<stop offset="0.9984"/>
</linearGradient>
<linearGradient id="paint14_linear" x1="26.4684" y1="38.6696" x2="26.4684" y2="57.7107" gradientUnits="userSpaceOnUse">
<stop offset="0.00132565" stop-color="#5A4539"/>
<stop offset="1" stop-color="#695042"/>
</linearGradient>
<linearGradient id="paint15_linear" x1="26.6553" y1="42.1564" x2="26.6553" y2="51.5818" gradientUnits="userSpaceOnUse">
<stop offset="0.00132565" stop-color="#473226"/>
<stop offset="1" stop-color="#3D2A20"/>
</linearGradient>
<linearGradient id="paint16_linear" x1="26.4343" y1="43.1147" x2="26.4343" y2="26.4961" gradientUnits="userSpaceOnUse">
<stop offset="0.00132565" stop-color="#5A4539"/>
<stop offset="1" stop-color="#695042"/>
</linearGradient>
<linearGradient id="paint17_linear" x1="19.1555" y1="34.7314" x2="65.0083" y2="60.7824" gradientUnits="userSpaceOnUse">
<stop offset="0.00132565" stop-color="#473226"/>
<stop offset="1" stop-color="#3D2A20"/>
</linearGradient>
<linearGradient id="paint18_linear" x1="36.8188" y1="36.9347" x2="36.2261" y2="55.5609" gradientUnits="userSpaceOnUse">
<stop offset="0.00132565" stop-color="#5A4539"/>
<stop offset="1" stop-color="#695042"/>
</linearGradient>
<linearGradient id="paint19_linear" x1="36.8895" y1="39.5006" x2="36.8895" y2="52.6022" gradientUnits="userSpaceOnUse">
<stop offset="0.00132565" stop-color="#473226"/>
<stop offset="1" stop-color="#3D2A20"/>
</linearGradient>
<linearGradient id="paint20_linear" x1="36.6871" y1="39.7254" x2="37.145" y2="25.3331" gradientUnits="userSpaceOnUse">
<stop offset="0.00132565" stop-color="#5A4539"/>
<stop offset="1" stop-color="#695042"/>
</linearGradient>
<linearGradient id="paint21_linear" x1="29.5318" y1="32.8447" x2="73.9341" y2="60.9052" gradientUnits="userSpaceOnUse">
<stop offset="0.00132565" stop-color="#473226"/>
<stop offset="1" stop-color="#3D2A20"/>
</linearGradient>
<linearGradient id="paint22_linear" x1="32.1129" y1="62.7379" x2="32.1129" y2="24.5506" gradientUnits="userSpaceOnUse">
<stop stop-color="#3C2200" stop-opacity="0"/>
<stop offset="0.9984"/>
</linearGradient>
</defs>
</svg>
