<svg width="80" height="80" viewBox="0 0 80 80" fill="none" xmlns="http://www.w3.org/2000/svg">
<path d="M55.8683 68.8024C55.8683 65.8195 56.1201 61.5351 56.1201 59.521C56.1201 57.5068 58.7829 55.0872 58.7829 45.6478C58.7829 36.2085 55.4757 34.2711 53.0561 34.3522C50.6366 34.4333 50.3378 32.5471 47.722 32.0393C45.712 31.651 45.3237 32.6282 44.0307 32.6282C42.742 32.6282 42.072 30.7207 39.8999 30.7207C37.7278 30.7207 35.9526 32.4148 35.9526 32.4148C35.9526 32.4148 35.24 31.3693 31.5957 31.4974C26.8803 31.6595 27.4393 37.3052 27.4393 40.3905C27.4393 43.4758 27.3582 36.6694 27.3582 36.6694C27.3582 36.6694 19.9629 34.173 21.1236 45.0718C21.2602 46.352 19.8562 56.1028 32.0779 60.8097C32.0779 60.8097 33.3965 61.2108 31.856 69.9034C31.856 69.9034 32.5174 74 42.87 74C53.9949 74.0086 55.8683 68.8024 55.8683 68.8024Z" fill="url(#paint0_linear)"/>
<path d="M35.9526 32.4189C35.9526 32.4189 37.203 31.2326 38.8886 30.8442C38.0522 31.1259 36.4519 33.0633 35.7777 34.113C35.7777 34.113 33.2557 31.4246 31.5957 31.4971C35.1333 31.3435 35.9526 32.4189 35.9526 32.4189Z" fill="url(#paint1_linear)"/>
<path d="M47.4017 31.9924C46.8512 31.954 46.9878 33.3494 44.3463 33.4903C44.3463 33.4903 42.7418 32.6368 44.0305 32.6368C45.251 32.6325 45.6692 31.762 47.4017 31.9924Z" fill="url(#paint2_linear)"/>
<path d="M54.7714 65.4781C54.3489 58.2791 48.9038 63.4128 54.7116 55.6761C58.0316 51.2551 57.1909 42.9679 56.8282 39.7034C56.4655 36.4346 53.6832 35.7689 51.7458 35.2867C50.0645 34.8643 49.4329 32.6965 48.0759 32.1289C50.3675 32.7306 50.7516 34.4333 53.0559 34.3565C55.4755 34.2754 58.7826 36.2127 58.7826 45.6521C58.7826 55.0914 56.1199 57.511 56.1199 59.5252C56.1199 61.5394 55.8681 65.8238 55.8681 68.8067C55.8681 68.8067 55.2237 70.5989 52.4414 72.0797C52.9535 70.3642 54.925 68.0812 54.7714 65.4781Z" fill="url(#paint3_linear)"/>
<path d="M32.0779 60.8183C25.6939 58.3603 23.4493 53.4272 22.0112 48.4473C24.896 56.2736 32.5003 58.8254 33.5885 60.4556C34.5913 61.9619 35.3424 66.5621 32.6966 71.3031C31.9541 70.5393 31.8559 69.9162 31.8559 69.9162C33.4007 61.2194 32.0779 60.8183 32.0779 60.8183Z" fill="url(#paint4_linear)"/>
<path d="M43.5612 74C42.6992 68.6359 46.6337 63.6517 46.6337 55.4413C46.6337 46.4287 52.5055 41.7005 49.2666 32.6025C50.598 33.3451 51.2168 34.4162 53.0517 34.3521C55.4713 34.2711 58.7785 36.2084 58.7785 45.6478C58.7785 55.0871 56.1157 57.5067 56.1157 59.5209C56.1157 61.5351 55.8639 65.8195 55.8639 68.8023C55.8682 68.8023 54.0716 73.7909 43.5612 74Z" fill="url(#paint5_linear)"/>
<path opacity="0.5" d="M34.2539 35.4063C36.7973 35.4063 38.2481 34.5571 40.305 34.5571C42.3619 34.5571 49.0189 35.8032 49.0189 40.2455C49.0189 44.6878 45.3874 53.7004 41.3932 54.8398C37.3989 55.9792 30.2981 50.5212 29.6964 46.8855C29.0947 43.2497 30.2597 35.4063 34.2539 35.4063Z" fill="url(#paint6_radial)"/>
<path d="M44.3465 34.0151C44.3465 34.0151 44.3764 20.159 44.3764 15.8021C44.3764 11.4451 44.7392 6 40.0195 6C35.2998 6 35.8631 11.8078 35.8631 14.8931C35.8631 17.9784 35.782 36.6779 35.782 36.6779" fill="url(#paint7_linear)"/>
<path d="M44.3465 33.4902C43.7235 33.5371 43.0023 32.9866 43.0023 29.9995C43.0023 27.0124 42.759 15.4948 42.759 10.8392C42.759 8.05686 41.6751 6 40.0151 6C44.7348 6 44.3721 11.4451 44.3721 15.8021C44.3721 20.159 44.3465 32.6154 44.3465 32.6154V33.4902Z" fill="url(#paint8_linear)"/>
<path opacity="0.5" d="M40.0194 34.1986C36.533 34.1986 38.2527 21.1448 38.2527 19.1179C38.2527 17.0951 36.7336 9.60596 39.5671 9.60596C40.9838 9.60596 42.2 12.9473 41.2868 19.5232C40.3736 26.0992 43.5058 34.1986 40.0194 34.1986Z" fill="url(#paint9_radial)"/>
<path d="M23.748 36.8186C25.391 39.81 26.7864 43.5653 27.5033 47.8369V42.3961L27.2899 36.6522C26.9315 36.5498 25.2758 36.1273 23.748 36.8186Z" fill="url(#paint10_linear)"/>
<path d="M27.4736 36.7246L27.3626 36.6776C27.3626 36.6776 26.5817 36.4173 25.5703 36.4344C25.7325 37.1172 25.8392 37.8213 25.8733 38.551C26.0653 42.6989 27.6485 48.0501 27.6485 48.0501L27.4736 36.7246Z" fill="url(#paint11_linear)"/>
<path d="M27.6825 48.3492C27.6825 48.3492 27.4692 36.8018 27.4692 36.7208C27.4692 36.7208 27.3113 36.5586 26.8888 36.5586C26.7608 36.5629 26.6285 45.0378 27.6825 48.3492Z" fill="#975500"/>
<defs>
<linearGradient id="paint0_linear" x1="51.8187" y1="68.5437" x2="33.3927" y2="32.0929" gradientUnits="userSpaceOnUse">
<stop offset="0.00132565" stop-color="#F0C492"/>
<stop offset="1" stop-color="#F8DBBA"/>
</linearGradient>
<linearGradient id="paint1_linear" x1="35.241" y1="27.4138" x2="35.241" y2="40.3174" gradientUnits="userSpaceOnUse">
<stop stop-color="#FFBC47" stop-opacity="0"/>
<stop offset="1" stop-color="#E68E43"/>
</linearGradient>
<linearGradient id="paint2_linear" x1="45.4661" y1="29.6912" x2="45.4661" y2="38.8109" gradientUnits="userSpaceOnUse">
<stop stop-color="#FFBC47" stop-opacity="0"/>
<stop offset="1" stop-color="#E68E43"/>
</linearGradient>
<linearGradient id="paint3_linear" x1="44.7963" y1="51.3097" x2="92.2611" y2="58.1916" gradientUnits="userSpaceOnUse">
<stop stop-color="#FFBC47" stop-opacity="0"/>
<stop offset="1" stop-color="#C86F34"/>
</linearGradient>
<linearGradient id="paint4_linear" x1="32.9797" y1="53.6688" x2="15.3701" y2="73.1" gradientUnits="userSpaceOnUse">
<stop stop-color="#FFBC47" stop-opacity="0"/>
<stop offset="1" stop-color="#C86F34"/>
</linearGradient>
<linearGradient id="paint5_linear" x1="40.6443" y1="52.2967" x2="113.815" y2="65.0484" gradientUnits="userSpaceOnUse">
<stop stop-color="#FFBC47" stop-opacity="0"/>
<stop offset="1" stop-color="#C86F34"/>
</linearGradient>
<radialGradient id="paint6_radial" cx="0" cy="0" r="1" gradientUnits="userSpaceOnUse" gradientTransform="translate(39.2643 40.2349) rotate(180) scale(10.3584 5.25977)">
<stop stop-color="#F8E6D2"/>
<stop offset="1" stop-color="#F8E6D2" stop-opacity="0"/>
</radialGradient>
<linearGradient id="paint7_linear" x1="54.7946" y1="76.1068" x2="41.638" y2="29.249" gradientUnits="userSpaceOnUse">
<stop offset="0.00132565" stop-color="#F0C492"/>
<stop offset="1" stop-color="#F8DBBA"/>
</linearGradient>
<linearGradient id="paint8_linear" x1="38.1199" y1="18.201" x2="67.4188" y2="28.524" gradientUnits="userSpaceOnUse">
<stop stop-color="#FFBC47" stop-opacity="0"/>
<stop offset="1" stop-color="#C86F34"/>
</linearGradient>
<radialGradient id="paint9_radial" cx="0" cy="0" r="1" gradientUnits="userSpaceOnUse" gradientTransform="translate(39.7707 21.9025) rotate(91.5882) scale(12.7026 1.48171)">
<stop stop-color="#F8E6D2"/>
<stop offset="1" stop-color="#F8E6D2" stop-opacity="0"/>
</radialGradient>
<linearGradient id="paint10_linear" x1="19.1018" y1="43.5284" x2="55.3331" y2="36.5453" gradientUnits="userSpaceOnUse">
<stop stop-color="#FFBC47" stop-opacity="0"/>
<stop offset="1" stop-color="#C86F34"/>
</linearGradient>
<linearGradient id="paint11_linear" x1="9.47938" y1="42.468" x2="47.7348" y2="41.962" gradientUnits="userSpaceOnUse">
<stop stop-color="#FFBC47" stop-opacity="0"/>
<stop offset="1" stop-color="#C86F34"/>
</linearGradient>
</defs>
</svg>
