<svg width="80" height="80" viewBox="0 0 80 80" fill="none" xmlns="http://www.w3.org/2000/svg">
<path d="M13.9609 51.3095C14.4631 51.4513 14.7182 41.6463 14.6008 38.7547L20.8013 38.4307C20.6474 39.5687 20.4611 41.9298 20.8701 41.9865C21.2792 42.0432 20.8701 41.0996 21.0038 40.1316C21.1374 39.1637 26.8843 44.0236 27.2367 44.2261C27.4999 44.376 28.4476 43.5417 30.5131 44.6028C31.2016 44.9551 33.4776 47.8549 33.6518 47.8792C33.6518 47.8792 33.2265 43.8819 33.4574 42.0513C33.6923 40.2167 39.7308 46.5346 39.5242 48.5353C39.1557 52.1479 41.4844 62.1472 34.073 67.7564C27.2043 72.9525 15.4108 70.5994 11.4297 65.3345" fill="url(#paint0_linear)"/>
<path d="M33.4653 42.0435C33.7002 40.2129 33.7974 35.2639 34.2753 32.5788C34.7532 29.8937 36.1667 28.6827 38.3658 29.2538C40.5649 29.8248 39.9412 34.7617 39.8602 35.9645C39.7387 37.8032 39.7428 46.4337 39.5322 48.5315" fill="url(#paint1_linear)"/>
<path d="M27.2366 44.2224C27.6902 44.2953 27.2487 42.4323 27.5565 39.2572C27.7914 36.8312 28.2572 30.2055 28.6379 26.7226C29.1036 22.4013 30.0148 21.2956 32.1127 21.243C34.2106 21.1903 34.976 23.8106 34.7452 26.6618C34.5467 29.0715 34.0729 32.8582 33.4047 37.5886C33.0037 40.4235 32.9551 47.7823 33.6638 47.8795" fill="url(#paint2_linear)"/>
<path d="M14.6007 38.7549C14.4873 35.8632 15.5363 25.6735 15.5403 22.956C15.5444 20.2385 17.2575 19.064 19.0111 19.0842C20.7688 19.1045 21.9676 20.4248 21.7368 25.795C21.591 29.1848 21.4857 32.4086 20.8012 38.4309L16.4597 42.0718L14.6007 38.7549Z" fill="url(#paint3_linear)"/>
<path d="M21.0037 40.1275C21.1373 39.1596 21.6395 29.6827 21.8056 27.6091C22.1538 23.2676 21.8542 16.735 25.7786 16.6095C28.3057 16.5285 28.6905 18.8936 28.7391 19.9264C28.7877 20.9591 27.8035 32.5379 27.6618 33.5828C27.516 34.6277 26.8842 44.0195 27.2365 44.222" fill="url(#paint4_linear)"/>
<path d="M21.0442 20.2828C21.6072 21.3115 21.8542 23.1137 21.7408 25.7948C21.595 29.1846 21.4492 32.4083 20.8053 38.4306C20.6838 39.5727 20.4651 41.9298 20.8741 41.9865C18.7114 40.326 20.7486 31.4121 21.0685 27.3054C21.4087 22.9396 20.623 19.5092 21.0442 20.2828Z" fill="url(#paint5_linear)"/>
<path d="M27.6619 33.5831C27.5161 34.628 26.8843 44.0199 27.2366 44.2224C27.2366 44.2224 25.8637 42.4809 26.2849 39.4556C27.1435 33.2551 27.7469 26.6213 27.6011 23.0654C27.4634 19.7161 28.1924 17.7843 28.4071 18.2946C28.6217 18.8049 28.7189 19.5338 28.7392 19.9267C28.7878 20.9594 27.8077 32.5382 27.6619 33.5831Z" fill="url(#paint6_linear)"/>
<path d="M34.7412 26.6577C34.5427 29.0674 34.0689 32.8541 33.4007 37.5844C32.9997 40.4194 32.9511 47.7782 33.6598 47.8754C29.946 47.685 35.2191 25.3779 33.4411 21.6641C34.5265 22.5105 34.9153 24.5193 34.7412 26.6577Z" fill="url(#paint7_linear)"/>
<path d="M34.4132 47.9035C34.1337 47.9805 33.7774 47.9562 33.6559 47.8752C33.6559 47.8752 33.2509 43.728 33.4615 42.0473C33.6964 40.2167 33.7936 35.2677 34.2714 32.5825C34.482 31.404 34.8708 30.509 35.4297 29.9258C35.0369 31.2258 35.612 31.0719 34.9802 34.243C34.6481 35.94 36.2316 47.3932 34.4132 47.9035Z" fill="url(#paint8_linear)"/>
<path d="M28.6581 34.5102C28.245 37.4262 29.1724 44.06 27.2366 44.222C27.6902 44.0721 27.3176 41.7232 27.5565 39.2567C27.7914 36.8308 28.1964 30.197 28.6379 26.7221C29.0915 23.1339 29.5693 22.0485 30.9625 21.4248C28.3706 25.171 29.6746 27.3539 28.6581 34.5102Z" fill="url(#paint9_linear)"/>
<path d="M22.725 29.3508C22.3038 33.7369 22.0203 41.8692 20.8701 41.9867C21.2306 41.853 20.8823 40.9985 21.0038 40.1318C21.1374 39.1639 21.6396 29.687 21.8057 27.6134C22.0203 24.9202 21.9596 20.6232 23.2434 18.2661C22.4496 21.2995 23.0652 25.799 22.725 29.3508Z" fill="url(#paint10_linear)"/>
<path d="M33.6559 47.8752C33.6559 47.8752 33.2509 43.728 33.4615 42.0473C33.6964 40.2167 33.7936 35.2677 34.2714 32.5825C34.482 31.404 34.8708 30.509 35.4297 29.9258C35.0369 31.2258 34.3929 33.7489 34.1176 39.0827C33.7652 48.4705 33.7774 47.9521 33.6559 47.8752Z" fill="url(#paint11_linear)"/>
<path d="M33.6396 48.1503C33.6599 48.1503 33.7814 46.8462 33.8016 46.5546C33.8097 46.4007 33.9798 33.9795 34.3403 32.2542C34.3403 32.2542 34.3079 32.4283 34.2107 32.3919C34.1337 32.3635 34.1337 32.1772 34.1337 32.1772C33.8016 33.7648 32.7284 40.5606 33.1982 46.267C33.2427 46.83 33.5141 48.1422 33.6396 48.1503Z" fill="#975500"/>
<path d="M27.2204 44.5017C27.2204 44.5017 27.2245 44.5017 27.2204 44.5017C27.8644 44.3478 28.2775 28.1642 28.9012 24.8594C28.9012 24.8594 28.7837 25.1227 28.6298 25.0943C28.4881 25.0579 28.4354 24.7622 28.4354 24.7622C27.8036 28.1034 26.7952 44.3478 27.2204 44.5017Z" fill="#975500"/>
<path d="M20.8539 42.2664C21.0483 42.2299 21.0726 41.4402 21.0726 41.2822C21.0888 38.4149 21.4128 35.4908 21.6477 31.9835C21.8421 29.1243 21.9717 26.3136 21.996 24.4304C21.996 24.4304 21.9879 24.6491 21.8988 24.6612C21.7449 24.6572 21.7651 24.3696 21.7651 24.3696C21.7408 26.2367 21.2832 29.0959 21.0888 31.943C20.8539 35.4584 20.623 38.3258 20.6028 41.2093C20.6068 41.3632 20.7081 42.2542 20.8539 42.2664Z" fill="#975500"/>
<path d="M11.4294 65.335C7.05145 60.0457 7.90599 53.7521 8.46893 48.2482C8.94278 43.5867 7.68729 39.7231 8.14494 37.4227C9.25057 35.0332 14.3535 35.4058 14.9651 42.0154C15.0015 42.8132 14.9772 43.6637 14.8598 44.5749C14.5763 46.7943 14.5763 51.3545 14.5763 51.3545" fill="url(#paint12_linear)"/>
<path d="M10.2835 57.6319C8.74447 53.2297 12.4178 46.6525 10.0567 43.1817C8.18558 40.4399 8.42048 38.2124 9.14542 36.5317C8.69182 36.722 8.33138 37.0177 8.14103 37.4227C7.68339 39.7231 8.93887 43.5867 8.46503 48.2482C7.90208 53.7561 7.04754 60.0498 11.4255 65.335C15.4066 70.5958 27.1799 72.9246 34.0769 67.7487C41.707 62.0261 39.0584 51.6623 39.5849 48.147C39.6335 47.827 39.7347 37.7993 39.8562 35.9607C39.9089 35.1264 40.2248 32.506 39.6821 30.7808C38.1714 31.2749 38.5076 33.5104 38.4873 34.1827C38.4063 37.609 38.9855 45.1014 38.3739 49.8601C38.2565 50.7673 38.3861 54.0599 38.2038 55.1048C38.2038 55.1088 38.1998 55.1129 38.1998 55.1169C34.0972 70.8267 15.9412 69.3363 10.2835 57.6319Z" fill="url(#paint13_radial)"/>
<path d="M14.5441 39.8198L14.5481 39.832C15.0179 41.2778 15.107 45.0119 14.7061 48.345C14.3051 51.6781 19.0071 49.6045 22.1539 55.0962C22.1539 55.0962 20.7607 49.9002 18.5009 48.1222C16.241 46.3443 18.1566 43.2056 14.5441 39.8198Z" fill="url(#paint14_linear)"/>
<path d="M10.6965 36.0898C11.7455 36.1101 12.7377 36.6852 13.4505 37.4668C14.1592 38.2687 14.6128 39.2529 14.8842 40.2896C15.3054 42.3754 15.2446 44.4692 15.1515 46.5549C15.111 47.0774 15.0624 47.5958 14.9976 48.1142C14.9368 48.6285 14.8963 49.0942 15.1191 49.4709C15.5686 50.2242 16.7188 50.451 17.6382 50.8965C18.602 51.3096 19.5335 51.8523 20.303 52.5772C21.0644 53.3102 21.6679 54.1769 22.1498 55.0963C21.0199 53.3507 19.4201 51.9535 17.4762 51.2934C16.9983 51.1111 16.5082 50.9491 16.0182 50.7426C15.5403 50.5279 14.9976 50.2606 14.6817 49.722C14.3577 49.1914 14.4184 48.5515 14.4711 48.0534C14.5278 47.5431 14.5642 47.0288 14.5966 46.5144C14.7384 44.4692 14.7829 42.3794 14.467 40.3787C14.2645 39.4027 13.8717 38.4307 13.244 37.641C12.6284 36.8431 11.7293 36.2356 10.6965 36.0898Z" fill="#975500"/>
<path opacity="0.16" d="M34.6358 50.0337C33.9271 51.6173 26.2889 55.3108 23.057 53.2656C19.8252 51.2204 17.707 44.1249 18.7317 42.7074C19.7563 41.2899 23.4539 43.242 27.107 44.5258C33.4046 46.7411 35.3446 48.4502 34.6358 50.0337Z" fill="url(#paint15_radial)"/>
<path opacity="0.16" d="M34.6358 50.0341C38.0377 50.2528 39.8238 53.3834 34.6641 60.6207C29.5774 67.7527 23.4012 65.3187 22.4252 63.1114C21.4491 60.9002 23.8791 57.8991 27.1839 57.2755C30.4886 56.6477 30.8855 49.7911 34.6358 50.0341Z" fill="url(#paint16_radial)"/>
<path d="M40.4717 48.5312C40.2571 46.4374 40.2652 37.8029 40.1437 35.9642C40.1113 35.4822 39.9979 34.4009 40.01 33.2386L40.0019 33.2305L39.9979 33.2345C40.006 34.3928 39.8926 35.4782 39.8642 35.9601C39.7427 37.7988 39.7468 46.4293 39.5362 48.5271C39.358 50.2767 39.8035 53.5288 39.4795 57.0523C39.5443 56.222 39.9736 56.1694 39.9736 56.1694C39.9736 56.1694 40.4717 56.1329 40.5406 57.0725C40.2044 53.545 40.654 50.2848 40.4717 48.5312Z" fill="#975500"/>
<path d="M66.0433 51.3095C65.5411 51.4513 65.2859 41.6463 65.4034 38.7547L59.2029 38.4307C59.3568 39.5687 59.5431 41.9298 59.134 41.9865C58.725 42.0432 59.134 41.0996 59.0004 40.1316C58.8667 39.1637 53.1199 44.0236 52.7675 44.2261C52.5043 44.376 51.5566 43.5417 49.4911 44.6028C48.8026 44.9551 46.5265 47.8549 46.3524 47.8792C46.3524 47.8792 46.7776 43.8819 46.5468 42.0513C46.3119 40.2167 40.2734 46.5346 40.48 48.5353C40.8485 52.1479 38.5198 62.1472 45.9312 67.7564C52.808 72.9565 64.5974 70.6035 68.5826 65.3426" fill="url(#paint17_linear)"/>
<path d="M46.5387 42.0435C46.3038 40.2129 46.2066 35.2639 45.7287 32.5788C45.2508 29.8937 43.8374 28.6827 41.6382 29.2538C39.4391 29.8248 40.0628 34.7617 40.1438 35.9645C40.2653 37.8032 40.2612 46.4337 40.4718 48.5315" fill="url(#paint18_linear)"/>
<path d="M52.7676 44.2224C52.314 44.2953 52.7554 42.4323 52.4476 39.2572C52.2127 36.8312 51.747 30.2055 51.3663 26.7226C50.9005 22.4013 49.9893 21.2956 47.8914 21.243C45.7936 21.1903 45.0281 23.8106 45.259 26.6618C45.4574 29.0715 45.9313 32.8582 46.5995 37.5886C47.0004 40.4235 47.049 47.7823 46.3403 47.8795" fill="url(#paint19_linear)"/>
<path d="M65.4033 38.7549C65.5167 35.8632 64.4678 25.6735 64.4638 22.956C64.4597 20.2385 62.7466 19.064 60.9929 19.0842C59.2353 19.1045 58.0365 20.4248 58.2673 25.795C58.4131 29.1848 58.5184 32.4086 59.2029 38.4309L63.5444 42.0718L65.4033 38.7549Z" fill="url(#paint20_linear)"/>
<path d="M59.0005 40.1275C58.8668 39.1596 58.3646 29.6827 58.1986 27.6091C57.8503 23.2676 58.15 16.735 54.2256 16.6095C51.6984 16.5285 51.3136 18.8936 51.265 19.9264C51.2164 20.9591 52.2006 32.5379 52.3423 33.5828C52.4881 34.6277 53.1199 44.0195 52.7676 44.222" fill="url(#paint21_linear)"/>
<path d="M58.9599 20.2828C58.3969 21.3115 58.1499 23.1137 58.2633 25.7948C58.4091 29.1846 58.5549 32.4083 59.1988 38.4306C59.3203 39.5727 59.539 41.9298 59.13 41.9865C61.2926 40.326 59.2555 31.4121 58.9356 27.3054C58.5954 22.9396 59.381 19.5092 58.9599 20.2828Z" fill="url(#paint22_linear)"/>
<path d="M52.3423 33.5831C52.4881 34.628 53.1199 44.0199 52.7676 44.2224C52.7676 44.2224 54.1405 42.4809 53.7193 39.4556C52.8607 33.2551 52.2573 26.6213 52.4031 23.0654C52.5408 19.7161 51.8118 17.7843 51.5972 18.2946C51.3825 18.8049 51.2853 19.5338 51.2651 19.9267C51.2165 20.9594 52.1965 32.5382 52.3423 33.5831Z" fill="url(#paint23_linear)"/>
<path d="M45.2629 26.6577C45.4614 29.0674 45.9352 32.8541 46.6035 37.5844C47.0044 40.4194 47.053 47.7782 46.3443 47.8754C50.0581 47.685 44.7851 25.3779 46.563 21.6641C45.4776 22.5105 45.0888 24.5193 45.2629 26.6577Z" fill="url(#paint24_linear)"/>
<path d="M45.591 47.9035C45.8704 47.9805 46.2268 47.9562 46.3483 47.8752C46.3483 47.8752 46.7533 43.728 46.5427 42.0473C46.3078 40.2167 46.2106 35.2677 45.7327 32.5825C45.5222 31.404 45.1334 30.509 44.5745 29.9258C44.9673 31.2258 44.3922 31.0719 45.024 34.243C45.3561 35.94 43.7726 47.3932 45.591 47.9035Z" fill="url(#paint25_linear)"/>
<path d="M51.3459 34.5102C51.759 37.4262 50.8316 44.06 52.7675 44.222C52.3139 44.0721 52.6865 41.7232 52.4475 39.2567C52.2126 36.8308 51.8076 30.197 51.3662 26.7221C50.9126 23.1339 50.4347 22.0485 49.0415 21.4248C51.6335 25.171 50.3294 27.3539 51.3459 34.5102Z" fill="url(#paint26_linear)"/>
<path d="M57.2793 29.3508C57.7005 33.7369 57.9839 41.8692 59.1341 41.9867C58.7737 41.853 59.122 40.9985 59.0005 40.1318C58.8668 39.1639 58.3646 29.687 58.1986 27.6134C57.9839 24.9202 58.0447 20.6232 56.7609 18.2661C57.5547 21.2995 56.9391 25.799 57.2793 29.3508Z" fill="url(#paint27_linear)"/>
<path d="M46.3483 47.8752C46.3483 47.8752 46.7533 43.728 46.5427 42.0473C46.3078 40.2167 46.2106 35.2677 45.7327 32.5825C45.5222 31.404 45.1334 30.509 44.5745 29.9258C44.9673 31.2258 45.6113 33.7489 45.8866 39.0827C46.239 48.4705 46.2268 47.9521 46.3483 47.8752Z" fill="url(#paint28_linear)"/>
<path d="M46.3646 48.1503C46.3443 48.1503 46.2228 46.8462 46.2026 46.5546C46.1945 46.4007 46.0244 33.9795 45.6639 32.2542C45.6639 32.2542 45.6963 32.4283 45.7935 32.3919C45.8705 32.3635 45.8705 32.1772 45.8705 32.1772C46.2026 33.7648 47.2758 40.5606 46.806 46.267C46.7615 46.83 46.4901 48.1422 46.3646 48.1503Z" fill="#975500"/>
<path d="M52.7838 44.5017C52.7838 44.5017 52.7797 44.5017 52.7838 44.5017C52.1398 44.3478 51.7267 28.1642 51.103 24.8594C51.103 24.8594 51.2205 25.1227 51.3744 25.0943C51.5161 25.0579 51.5688 24.7622 51.5688 24.7622C52.2006 28.1034 53.209 44.3478 52.7838 44.5017Z" fill="#975500"/>
<path d="M59.1503 42.2664C58.9559 42.2299 58.9316 41.4402 58.9316 41.2822C58.9154 38.4149 58.5914 35.4908 58.3565 31.9835C58.1621 29.1243 58.0325 26.3136 58.0082 24.4304C58.0082 24.4304 58.0163 24.6491 58.1054 24.6612C58.2593 24.6572 58.239 24.3696 58.239 24.3696C58.2633 26.2367 58.721 29.0959 58.9154 31.943C59.1503 35.4584 59.3811 38.3258 59.4014 41.2093C59.3973 41.3632 59.2961 42.2542 59.1503 42.2664Z" fill="#975500"/>
<path d="M68.5745 65.335C72.9525 60.0457 72.098 53.7521 71.5351 48.2482C71.0612 43.5867 72.3126 39.7231 71.859 37.4227C70.7534 35.0332 65.6505 35.4058 65.0389 42.0154C65.0025 42.8132 65.0268 43.6637 65.1442 44.5749C65.4277 46.7943 65.4277 51.3545 65.4277 51.3545" fill="url(#paint29_linear)"/>
<path d="M69.7206 57.6319C71.2596 53.2297 67.5863 46.6525 69.9474 43.1817C71.8144 40.4399 71.5795 38.2084 70.8546 36.5317C71.3082 36.722 71.6686 37.0177 71.859 37.4227C72.3166 39.7231 71.0611 43.5867 71.535 48.2482C72.0979 53.7561 72.9524 60.0498 68.5744 65.335C64.5933 70.5958 52.8201 72.9246 45.9231 67.7487C38.2929 62.0261 40.9416 51.6623 40.4151 48.147C40.3665 47.827 40.2653 37.7993 40.1438 35.9607C40.0911 35.1264 39.7752 32.506 40.3179 30.7808C41.8286 31.2749 41.4924 33.5104 41.5127 34.1827C41.5937 37.609 41.0145 45.1014 41.6261 49.8601C41.7435 50.7673 41.6139 54.0599 41.7962 55.1048C41.7962 55.1088 41.8002 55.1129 41.8002 55.1169C45.9069 70.8267 64.0628 69.3363 69.7206 57.6319Z" fill="url(#paint30_radial)"/>
<path d="M65.4601 39.8198L65.456 39.832C64.9862 41.2778 64.8971 45.0119 65.2981 48.345C65.699 51.6781 60.997 49.6045 57.8502 55.0962C57.8502 55.0962 59.2434 49.9002 61.5033 48.1222C63.7753 46.3443 61.8475 43.2056 65.4601 39.8198Z" fill="url(#paint31_linear)"/>
<path d="M69.3075 36.0898C68.2586 36.1101 67.2663 36.6852 66.5535 37.4668C65.8448 38.2687 65.3912 39.2529 65.1199 40.2896C64.6987 42.3754 64.7594 44.4692 64.8526 46.5549C64.8931 47.0774 64.9417 47.5958 65.0065 48.1142C65.0672 48.6285 65.1077 49.0942 64.885 49.4709C64.4354 50.2242 63.2852 50.451 62.3659 50.8965C61.402 51.3096 60.4705 51.8523 59.701 52.5772C58.9396 53.3102 58.3362 54.1769 57.8542 55.0963C58.9842 53.3507 60.5839 51.9535 62.5279 51.2934C63.0058 51.1111 63.4958 50.9491 63.9859 50.7426C64.4638 50.5279 65.0065 50.2606 65.3224 49.722C65.6464 49.1914 65.5856 48.5515 65.533 48.0534C65.4763 47.5431 65.4398 47.0288 65.4074 46.5144C65.2657 44.4692 65.2211 42.3794 65.537 40.3787C65.7395 39.4027 66.1324 38.4307 66.7601 37.641C67.3757 36.8431 68.2748 36.2356 69.3075 36.0898Z" fill="#975500"/>
<path opacity="0.16" d="M45.3682 50.0337C46.077 51.6173 53.7152 55.3108 56.9471 53.2656C60.1789 51.2204 62.3011 44.1249 61.2765 42.7074C60.2518 41.2899 56.5542 43.242 52.9011 44.5258C46.5994 46.7411 44.6595 48.4502 45.3682 50.0337Z" fill="url(#paint32_radial)"/>
<path opacity="0.16" d="M45.3682 50.0341C41.9663 50.2528 40.1802 53.3834 45.3399 60.6207C50.4266 67.7527 56.6028 65.3187 57.5788 63.1114C58.5549 60.9042 56.1249 57.9032 52.8201 57.2755C49.5154 56.6477 49.1185 49.7911 45.3682 50.0341Z" fill="url(#paint33_radial)"/>
<defs>
<linearGradient id="paint0_linear" x1="30.5602" y1="75.102" x2="24.9095" y2="54.8201" gradientUnits="userSpaceOnUse">
<stop offset="0.00132565" stop-color="#BE8D68"/>
<stop offset="1" stop-color="#CD9870"/>
</linearGradient>
<linearGradient id="paint1_linear" x1="39.4576" y1="31.9" x2="36.2064" y2="42.8631" gradientUnits="userSpaceOnUse">
<stop offset="0.00132565" stop-color="#BE8D68"/>
<stop offset="1" stop-color="#CD9870"/>
</linearGradient>
<linearGradient id="paint2_linear" x1="33.2802" y1="18.9206" x2="30.6176" y2="42.0048" gradientUnits="userSpaceOnUse">
<stop offset="0.00132565" stop-color="#BE8D68"/>
<stop offset="1" stop-color="#CD9870"/>
</linearGradient>
<linearGradient id="paint3_linear" x1="17.5484" y1="23.2341" x2="18.969" y2="40.7227" gradientUnits="userSpaceOnUse">
<stop offset="0.00132565" stop-color="#BE8D68"/>
<stop offset="1" stop-color="#CD9870"/>
</linearGradient>
<linearGradient id="paint4_linear" x1="24.7873" y1="20.5659" x2="25.0023" y2="40.9576" gradientUnits="userSpaceOnUse">
<stop offset="0.00132565" stop-color="#BE8D68"/>
<stop offset="1" stop-color="#CD9870"/>
</linearGradient>
<linearGradient id="paint5_linear" x1="20.829" y1="3.02561" x2="20.829" y2="64.6659" gradientUnits="userSpaceOnUse">
<stop stop-color="#D2A374" stop-opacity="0"/>
<stop offset="1" stop-color="#B88653"/>
</linearGradient>
<linearGradient id="paint6_linear" x1="27.4746" y1="3.02591" x2="27.4746" y2="64.6662" gradientUnits="userSpaceOnUse">
<stop stop-color="#D2A374" stop-opacity="0"/>
<stop offset="1" stop-color="#B88653"/>
</linearGradient>
<linearGradient id="paint7_linear" x1="33.5394" y1="3.02586" x2="33.5394" y2="64.6661" gradientUnits="userSpaceOnUse">
<stop stop-color="#D2A374" stop-opacity="0"/>
<stop offset="1" stop-color="#B88653"/>
</linearGradient>
<linearGradient id="paint8_linear" x1="46.1359" y1="-140.159" x2="42.862" y2="-89.2137" gradientUnits="userSpaceOnUse">
<stop stop-color="#D2A374" stop-opacity="0"/>
<stop offset="1" stop-color="#B88653"/>
</linearGradient>
<linearGradient id="paint9_linear" x1="40.2018" y1="-140.541" x2="36.928" y2="-89.5952" gradientUnits="userSpaceOnUse">
<stop stop-color="#D2A374" stop-opacity="0"/>
<stop offset="1" stop-color="#B88653"/>
</linearGradient>
<linearGradient id="paint10_linear" x1="434.142" y1="572.197" x2="408.035" y2="537.854" gradientUnits="userSpaceOnUse">
<stop stop-color="#D2A374" stop-opacity="0"/>
<stop offset="1" stop-color="#B88653"/>
</linearGradient>
<linearGradient id="paint11_linear" x1="35.8559" y1="38.3287" x2="31.7087" y2="40.1647" gradientUnits="userSpaceOnUse">
<stop stop-color="#FFBC47" stop-opacity="0"/>
<stop offset="1" stop-color="#E68E43"/>
</linearGradient>
<linearGradient id="paint12_linear" x1="2.32275" y1="25.7591" x2="13.7508" y2="55.6149" gradientUnits="userSpaceOnUse">
<stop offset="0.00132565" stop-color="#BE8D68"/>
<stop offset="1" stop-color="#CD9870"/>
</linearGradient>
<radialGradient id="paint13_radial" cx="0" cy="0" r="1" gradientUnits="userSpaceOnUse" gradientTransform="translate(24.9661 57.4131) rotate(-176.417) scale(48.7546 57.1131)">
<stop offset="0.6147" stop-color="#B37E53" stop-opacity="0"/>
<stop offset="1" stop-color="#B37E53"/>
</radialGradient>
<linearGradient id="paint14_linear" x1="12.5992" y1="59.2155" x2="21.8845" y2="40.2163" gradientUnits="userSpaceOnUse">
<stop stop-color="#B37E53"/>
<stop offset="1" stop-color="#CD9870"/>
</linearGradient>
<radialGradient id="paint15_radial" cx="0" cy="0" r="1" gradientUnits="userSpaceOnUse" gradientTransform="translate(25.0894 48.1384) rotate(21.4352) scale(15.9921 4.43338)">
<stop stop-color="#F8DBBA"/>
<stop offset="1" stop-color="#CD9870" stop-opacity="0"/>
</radialGradient>
<radialGradient id="paint16_radial" cx="0" cy="0" r="1" gradientUnits="userSpaceOnUse" gradientTransform="translate(33.6466 56.2275) rotate(125.192) scale(9.09142 5.40541)">
<stop stop-color="#F8DBBA"/>
<stop offset="1" stop-color="#CD9870" stop-opacity="0"/>
</radialGradient>
<linearGradient id="paint17_linear" x1="49.4228" y1="75.1033" x2="55.0735" y2="54.8213" gradientUnits="userSpaceOnUse">
<stop offset="0.00132565" stop-color="#BE8D68"/>
<stop offset="1" stop-color="#CD9870"/>
</linearGradient>
<linearGradient id="paint18_linear" x1="40.5636" y1="31.8851" x2="43.8148" y2="42.8481" gradientUnits="userSpaceOnUse">
<stop offset="0.00132565" stop-color="#BE8D68"/>
<stop offset="1" stop-color="#CD9870"/>
</linearGradient>
<linearGradient id="paint19_linear" x1="46.7412" y1="18.9056" x2="49.4038" y2="41.9898" gradientUnits="userSpaceOnUse">
<stop offset="0.00132565" stop-color="#BE8D68"/>
<stop offset="1" stop-color="#CD9870"/>
</linearGradient>
<linearGradient id="paint20_linear" x1="62.4729" y1="23.2191" x2="61.0523" y2="40.7078" gradientUnits="userSpaceOnUse">
<stop offset="0.00132565" stop-color="#BE8D68"/>
<stop offset="1" stop-color="#CD9870"/>
</linearGradient>
<linearGradient id="paint21_linear" x1="55.2341" y1="20.5509" x2="55.0191" y2="40.9426" gradientUnits="userSpaceOnUse">
<stop offset="0.00132565" stop-color="#BE8D68"/>
<stop offset="1" stop-color="#CD9870"/>
</linearGradient>
<linearGradient id="paint22_linear" x1="59.175" y1="3.0256" x2="59.175" y2="64.6659" gradientUnits="userSpaceOnUse">
<stop stop-color="#D2A374" stop-opacity="0"/>
<stop offset="1" stop-color="#B88653"/>
</linearGradient>
<linearGradient id="paint23_linear" x1="52.5296" y1="3.02591" x2="52.5296" y2="64.6662" gradientUnits="userSpaceOnUse">
<stop stop-color="#D2A374" stop-opacity="0"/>
<stop offset="1" stop-color="#B88653"/>
</linearGradient>
<linearGradient id="paint24_linear" x1="46.4647" y1="3.02585" x2="46.4647" y2="64.6662" gradientUnits="userSpaceOnUse">
<stop stop-color="#D2A374" stop-opacity="0"/>
<stop offset="1" stop-color="#B88653"/>
</linearGradient>
<linearGradient id="paint25_linear" x1="33.8472" y1="-140.158" x2="37.121" y2="-89.2125" gradientUnits="userSpaceOnUse">
<stop stop-color="#D2A374" stop-opacity="0"/>
<stop offset="1" stop-color="#B88653"/>
</linearGradient>
<linearGradient id="paint26_linear" x1="39.781" y1="-140.539" x2="43.0549" y2="-89.594" gradientUnits="userSpaceOnUse">
<stop stop-color="#D2A374" stop-opacity="0"/>
<stop offset="1" stop-color="#B88653"/>
</linearGradient>
<linearGradient id="paint27_linear" x1="-354.121" y1="572.182" x2="-328.013" y2="537.839" gradientUnits="userSpaceOnUse">
<stop stop-color="#D2A374" stop-opacity="0"/>
<stop offset="1" stop-color="#B88653"/>
</linearGradient>
<linearGradient id="paint28_linear" x1="44.1271" y1="38.3299" x2="48.2743" y2="40.1659" gradientUnits="userSpaceOnUse">
<stop stop-color="#FFBC47" stop-opacity="0"/>
<stop offset="1" stop-color="#E68E43"/>
</linearGradient>
<linearGradient id="paint29_linear" x1="77.6812" y1="25.7591" x2="66.2531" y2="55.6149" gradientUnits="userSpaceOnUse">
<stop offset="0.00132565" stop-color="#BE8D68"/>
<stop offset="1" stop-color="#CD9870"/>
</linearGradient>
<radialGradient id="paint30_radial" cx="0" cy="0" r="1" gradientUnits="userSpaceOnUse" gradientTransform="translate(55.0199 57.4141) rotate(-3.58338) scale(48.7546 57.1131)">
<stop offset="0.6147" stop-color="#B37E53" stop-opacity="0"/>
<stop offset="1" stop-color="#B37E53"/>
</radialGradient>
<linearGradient id="paint31_linear" x1="67.4049" y1="59.2155" x2="58.1196" y2="40.2163" gradientUnits="userSpaceOnUse">
<stop stop-color="#B37E53"/>
<stop offset="1" stop-color="#CD9870"/>
</linearGradient>
<radialGradient id="paint32_radial" cx="0" cy="0" r="1" gradientUnits="userSpaceOnUse" gradientTransform="translate(54.9029 48.1411) rotate(158.565) scale(15.9921 4.43338)">
<stop stop-color="#F8DBBA"/>
<stop offset="1" stop-color="#CD9870" stop-opacity="0"/>
</radialGradient>
<radialGradient id="paint33_radial" cx="0" cy="0" r="1" gradientUnits="userSpaceOnUse" gradientTransform="translate(46.3621 56.2205) rotate(54.8081) scale(9.09142 5.40541)">
<stop stop-color="#F8DBBA"/>
<stop offset="1" stop-color="#CD9870" stop-opacity="0"/>
</radialGradient>
</defs>
</svg>
