<svg width="80" height="80" viewBox="0 0 80 80" fill="none" xmlns="http://www.w3.org/2000/svg">
<g clip-path="url(#clip0)">
<path d="M29.0505 52.1875C29.0505 46.9232 31.2836 41.5636 36.282 34.0661C41.2803 26.5687 41.4609 25.4947 41.2803 21.3897C41.0996 17.2847 40.5676 14.0679 43.6891 14.0679C46.8155 14.0679 52.0798 18.2632 52.0798 23.3519C52.0798 28.4405 49.2695 32.4101 49.2695 36.5603C49.2695 37.1273 49.41 37.6492 49.6158 38.1109C50.1477 39.3003 51.6633 39.6867 52.7272 38.9339C54.1624 37.9152 56.2952 36.6305 57.7807 36.7409C57.7807 36.7409 56.7268 30.5834 58.3327 28.9775C58.3327 28.9775 54.318 26.654 52.9781 22.7296C52.396 21.0334 49.8918 17.7112 49.8918 17.7112C49.8918 17.7112 43.1622 12.999 46.8657 9.20509C49.5054 6.50019 52.667 8.84879 55.6127 11.3479C58.5585 13.8471 63.4665 16.5721 67.978 23.8437C68.4698 24.6416 69.6742 30.6737 69.6742 35.2705C69.6742 42.3665 70.2112 48.5241 64.3196 54.9526C58.428 61.3811 48.4314 72 38.9668 72C29.5021 72 19.0589 70.6601 12.9013 71.734C12.9013 71.734 9.14761 56.7692 12.1887 52.0068C14.2312 48.795 24.2278 52.1875 29.0505 52.1875Z" fill="url(#paint0_linear)"/>
<path d="M36.277 34.0659C31.2787 41.5633 29.0455 46.9179 29.0455 52.1872C29.0455 52.1872 28.4182 52.8145 26.7271 56.4729C26.7271 56.4729 30.7618 58.0587 33.4416 54.6663C34.3199 53.5522 33.3162 47.49 34.1844 42.838C34.7464 39.8219 38.3546 36.013 41.8022 30.5279C41.1097 29.8755 40.372 29.2633 39.6644 28.6812C38.9067 30.0462 37.8227 31.7474 36.277 34.0659Z" fill="url(#paint1_linear)"/>
<path d="M42.2386 14.4336C40.7632 15.377 41.1346 18.097 41.2751 21.389C41.4005 24.2244 41.3504 25.6145 39.6592 28.6757C40.3668 29.2629 41.1045 29.8701 41.797 30.5225C43.7542 27.4111 45.2898 24.4954 45.2898 22.458C45.2948 18.8297 43.1419 16.3556 42.2386 14.4336Z" fill="url(#paint2_linear)"/>
<path d="M12.8915 71.7343C19.0491 70.6654 29.4923 72.0003 38.957 72.0003C48.4216 72.0003 58.4182 61.3764 64.3098 54.9529C70.2014 48.5243 69.6644 42.3668 69.6644 35.2708C69.6644 30.6739 68.465 24.6419 67.9682 23.844C63.4617 16.5673 58.5487 13.8474 55.6029 11.3482C54.0974 10.0685 52.5367 8.839 51.0161 8.29199C54.544 11.6694 62.1017 16.8082 66.272 24.0346C67.6119 26.3531 67.9682 37.6344 67.9682 42.5424C67.9682 47.4504 59.6678 55.6655 45.2952 64.8591C39.0473 68.8588 31.0129 68.3218 29.0507 65.647C27.0885 62.9672 26.9078 62.8066 26.9078 64.5028C26.9078 66.199 25.7486 68.0709 19.4104 68.0709C16.5951 68.0709 13.9052 67.2077 11.7825 66.2492C12.3044 69.3807 12.8915 71.7343 12.8915 71.7343Z" fill="url(#paint3_linear)"/>
<path d="M60.084 34.628C58.5985 31.1152 61.8103 31.1754 60.2044 27.9034C58.5985 24.6314 56.5761 23.3819 54.7896 19.4525C53.0131 15.5432 45.4654 13.6161 46.1931 10.1133C45.1342 12.0203 46.2182 14.0326 47.4929 15.5131C46.6347 14.9209 45.7465 14.4843 44.9285 14.2534C45.8318 15.4026 47.1566 17.1992 48.6019 19.5127C48.8729 19.9443 49.0787 20.4963 49.2342 21.0985C49.8665 23.5324 49.6156 26.1269 48.627 28.4404C47.4125 31.2908 46.8154 33.7498 46.8154 35.165C46.8154 36.9515 46.8957 39.9274 49.8615 41.5935C52.8274 43.2596 55.6226 41.2372 57.9411 41.0566C60.2596 40.8759 61.5694 38.1409 60.084 34.628ZM49.8816 17.7111C49.8816 17.7111 49.9368 17.7864 50.0221 17.8968C49.9669 17.8265 49.9117 17.7563 49.8565 17.691C49.8615 17.696 49.8816 17.7111 49.8816 17.7111ZM57.7705 36.7408C56.285 36.6304 54.1522 37.9151 52.717 38.9338C51.6581 39.6866 50.1375 39.3001 49.6056 38.1108C49.3998 37.6541 49.2593 37.1322 49.2593 36.5601C49.2593 32.4099 52.0696 28.4354 52.0696 23.3517C52.0696 21.6304 51.4574 20.0195 50.544 18.6294C51.3269 19.7385 52.5765 21.5853 52.9629 22.7244C54.3078 26.6488 58.3175 28.9723 58.3175 28.9723C56.7216 30.5832 57.7705 36.7408 57.7705 36.7408Z" fill="url(#paint4_linear)"/>
<path d="M57.2537 26.2978C56.1848 24.6919 54.2628 19.1115 53.4147 18.2634C52.7071 17.5558 48.1955 15.2825 45.8971 12.7783C46.1781 13.777 46.8054 14.7204 47.4829 15.5083C46.7804 15.0265 46.0678 14.6502 45.3853 14.4043C49.8918 18.3537 50.0222 22.5993 50.0222 24.5966C50.0222 26.7394 43.7743 40.3091 51.3621 40.3091C53.5953 40.3091 55.6478 37.1576 57.9663 37.7497C60.2848 38.3469 57.61 35.4011 59.0352 31.828C60.4705 28.265 58.3276 27.9037 57.2537 26.2978ZM49.8817 17.7114C49.8817 17.7114 49.9369 17.7867 50.0222 17.8971C49.967 17.8268 49.9118 17.7565 49.8566 17.6913C49.8616 17.6963 49.8817 17.7114 49.8817 17.7114ZM57.7706 36.7411C56.2852 36.6307 54.1523 37.9153 52.7171 38.9341C51.6582 39.6868 50.1376 39.3004 49.6057 38.1111C49.3999 37.6544 49.2594 37.1325 49.2594 36.5604C49.2594 32.4102 52.0697 28.4356 52.0697 23.352C52.0697 21.6307 51.4575 20.0198 50.5441 18.6297C51.327 19.7388 52.5766 21.5856 52.963 22.7247C54.3079 26.6491 58.3176 28.9726 58.3176 28.9726C56.7217 30.5835 57.7706 36.7411 57.7706 36.7411Z" fill="url(#paint5_linear)"/>
<path opacity="0.5" d="M40.9843 36.1237C44.5925 36.2592 46.0077 42.3364 46.0026 48.9607C45.9976 54.3755 42.6403 60.3223 39.1174 60.1015C35.5945 59.8807 32.5032 59.0376 33.3764 47.8065C33.8883 41.1822 37.4563 35.9882 40.9843 36.1237Z" fill="url(#paint6_radial)"/>
<path opacity="0.5" d="M61.5995 42.0706C63.4011 43.6966 60.0237 48.7852 55.5222 53.6731C51.8438 57.6728 46.0425 60.6436 44.3463 58.9926C42.6451 57.3416 41.5962 55.4095 49.6758 47.4805C54.4383 42.8033 59.838 40.4798 61.5995 42.0706Z" fill="url(#paint7_radial)"/>
<path opacity="0.5" d="M25.4975 61.3913C25.377 65.0296 22.2757 66.766 18.9134 67.1022C16.1683 67.3782 13.1975 64.307 13.358 60.754C13.5186 57.201 13.9904 54.0494 19.6762 54.3405C23.0284 54.5111 25.6129 57.8333 25.4975 61.3913Z" fill="url(#paint8_radial)"/>
<path d="M43.6892 14.068C44.8284 14.0379 45.9475 14.4394 46.9411 14.9964C47.9398 15.5585 48.833 16.3012 49.6109 17.1342C50.3687 17.9924 51.0261 18.9509 51.4627 20.0097C51.9093 21.0636 52.1351 22.2128 52.0749 23.347C51.9093 21.0787 50.8504 19.0011 49.3449 17.3701C48.6072 16.537 47.739 15.8194 46.7956 15.2272C45.8571 14.6551 44.8183 14.1734 43.6892 14.068Z" fill="#804B24"/>
<path d="M29.0503 52.1872C24.2277 52.1872 14.2311 48.7948 12.1785 52.0066C11.9276 52.398 11.7269 52.8647 11.5613 53.3866C15.9724 49.3519 18.9885 56.4729 26.7268 56.4729C28.423 52.8095 29.0503 52.1872 29.0503 52.1872Z" fill="url(#paint9_linear)"/>
</g>
<defs>
<linearGradient id="paint0_linear" x1="-7.34019" y1="74.8806" x2="81.4459" y2="17.0386" gradientUnits="userSpaceOnUse">
<stop offset="0.00132565" stop-color="#F0C492"/>
<stop offset="1" stop-color="#F8DBBA"/>
</linearGradient>
<linearGradient id="paint1_linear" x1="41.513" y1="44.4025" x2="4.30774" y2="36.3256" gradientUnits="userSpaceOnUse">
<stop stop-color="#FFBC47" stop-opacity="0"/>
<stop offset="1" stop-color="#C86F34"/>
</linearGradient>
<linearGradient id="paint2_linear" x1="48.4574" y1="23.8098" x2="15.2519" y2="16.9367" gradientUnits="userSpaceOnUse">
<stop stop-color="#FFBC47" stop-opacity="0"/>
<stop offset="1" stop-color="#C86F34"/>
</linearGradient>
<linearGradient id="paint3_linear" x1="38.3982" y1="28.3854" x2="44.468" y2="84.4421" gradientUnits="userSpaceOnUse">
<stop offset="0.4131" stop-color="#FFBC47" stop-opacity="0"/>
<stop offset="1" stop-color="#C86F34"/>
</linearGradient>
<linearGradient id="paint4_linear" x1="45.081" y1="-30.5566" x2="69.7174" y2="149.932" gradientUnits="userSpaceOnUse">
<stop stop-color="#FFBC47" stop-opacity="0"/>
<stop offset="1" stop-color="#C86F34"/>
</linearGradient>
<linearGradient id="paint5_linear" x1="35.0624" y1="-19.4772" x2="65.9471" y2="68.5353" gradientUnits="userSpaceOnUse">
<stop stop-color="#FFBC47" stop-opacity="0"/>
<stop offset="1" stop-color="#C86F34"/>
</linearGradient>
<radialGradient id="paint6_radial" cx="0" cy="0" r="1" gradientUnits="userSpaceOnUse" gradientTransform="translate(39.7323 48.088) rotate(-85.5438) scale(12.3433 6.45552)">
<stop stop-color="#F8E6D2"/>
<stop offset="1" stop-color="#F8E6D2" stop-opacity="0"/>
</radialGradient>
<radialGradient id="paint7_radial" cx="0" cy="0" r="1" gradientUnits="userSpaceOnUse" gradientTransform="translate(52.8189 50.3892) rotate(-44.4437) scale(12.4042 4.33653)">
<stop stop-color="#F8E6D2"/>
<stop offset="1" stop-color="#F8E6D2" stop-opacity="0"/>
</radialGradient>
<radialGradient id="paint8_radial" cx="0" cy="0" r="1" gradientUnits="userSpaceOnUse" gradientTransform="translate(19.4434 60.7361) rotate(3.00102) scale(6.23956 6.50573)">
<stop stop-color="#F8E6D2"/>
<stop offset="1" stop-color="#F8E6D2" stop-opacity="0"/>
</radialGradient>
<linearGradient id="paint9_linear" x1="19.1584" y1="55.9521" x2="23.0413" y2="45.1959" gradientUnits="userSpaceOnUse">
<stop stop-color="#FFBC47" stop-opacity="0"/>
<stop offset="1" stop-color="#C86F34"/>
</linearGradient>
<clipPath id="clip0">
<rect width="80" height="80" fill="white"/>
</clipPath>
</defs>
</svg>
