<svg width="80" height="80" viewBox="0 0 80 80" fill="none" xmlns="http://www.w3.org/2000/svg">
<path d="M29.0584 52.1818C29.0584 46.9145 31.2881 41.5579 36.2873 34.061C41.2866 26.5641 41.4653 25.492 41.2866 21.3862C41.1079 17.2803 40.5718 14.0679 43.6949 14.0679C46.818 14.0679 52.0852 18.2631 52.0852 23.3517C52.0852 28.4403 49.2729 32.4101 49.2729 36.5625C49.2729 37.1297 49.4128 37.6541 49.6186 38.1124C50.1508 39.3011 51.6657 39.6895 52.73 38.9359C54.1634 37.9182 56.2959 36.6325 57.7798 36.7412C57.7798 36.7412 56.7271 30.5806 58.3352 28.9763C58.3352 28.9763 54.3226 26.6534 52.9786 22.7263C52.3999 21.0288 49.8905 17.7115 49.8905 17.7115C49.8905 17.7115 43.1589 12.9997 46.8646 9.20467C49.5021 6.50112 52.6679 8.8473 55.6123 11.3489C58.5566 13.8465 63.4665 16.5695 67.9763 23.845C68.4697 24.6413 69.6738 30.6738 69.6738 35.269C69.6738 42.3659 70.2099 48.5226 64.3172 54.9513C58.4246 61.38 48.43 72 38.9676 72C29.5052 72 19.0639 70.6599 12.9032 71.732C12.9032 71.732 9.14698 56.7654 12.1885 52.0031C14.2433 48.7907 24.2418 52.1818 29.0584 52.1818Z" fill="url(#paint0_linear)"/>
<path d="M36.2913 34.061C31.292 41.5579 29.0624 46.9145 29.0624 52.1818C29.0624 52.1818 28.437 52.8072 26.7434 56.4663C26.7434 56.4663 30.7793 58.0511 33.4595 54.66C34.3374 53.5452 33.3314 47.4816 34.2015 42.832C34.7647 39.8138 38.3733 36.0071 41.8188 30.5223C41.1235 29.8697 40.3893 29.2599 39.6824 28.6733C38.9171 30.0407 37.8373 31.742 36.2913 34.061Z" fill="url(#paint1_linear)"/>
<path d="M42.2499 14.4292C40.7777 15.3731 41.1467 18.0922 41.2866 21.3862C41.4109 24.2218 41.3604 25.6124 39.6707 28.6733C40.3815 29.2599 41.1157 29.8697 41.8071 30.5223C43.7609 27.4109 45.2992 24.4937 45.2992 22.4583C45.3069 18.8263 43.155 16.352 42.2499 14.4292Z" fill="url(#paint2_linear)"/>
<path d="M12.9031 71.7322C19.0638 70.6601 29.5051 72.0002 38.9675 72.0002C48.4299 72.0002 58.4284 61.3763 64.3172 54.9515C70.2098 48.5228 69.6738 42.366 69.6738 35.2692C69.6738 30.674 68.4735 24.6415 67.9763 23.8452C63.4704 16.5697 58.5605 13.8467 55.6122 11.349C54.1051 10.0711 52.5435 8.83972 51.0247 8.2959C54.5518 11.6753 62.1108 16.8105 66.2788 24.0394C67.6189 26.3584 67.9763 37.6387 67.9763 42.5447C67.9763 47.4507 59.6753 55.6663 45.303 64.8606C39.053 68.8577 31.02 68.3255 29.0584 65.6492C27.0929 62.9728 26.9142 62.8097 26.9142 64.5033C26.9142 66.2008 25.7528 68.073 19.4173 68.073C16.6011 68.073 13.9131 67.2107 11.7883 66.2513C12.3127 69.3782 12.9031 71.7322 12.9031 71.7322Z" fill="url(#paint3_radial)"/>
<path d="M60.095 34.6278C58.6072 31.1163 61.8196 31.1784 60.2154 27.9039C58.6072 24.6293 56.5835 23.3824 54.8005 19.4553C53.0215 15.5437 45.4741 13.617 46.2043 10.1133C45.1439 12.0205 46.2315 14.0365 47.5056 15.5126C46.6471 14.9183 45.7615 14.4832 44.9419 14.2541C45.8431 15.4038 47.1715 17.1984 48.6127 19.5136C48.8846 19.9486 49.0866 20.5002 49.2458 21.0984C49.879 23.53 49.6265 26.1287 48.6398 28.4399C47.424 31.2911 46.8297 33.7499 46.8297 35.1638C46.8297 36.9507 46.9113 39.9261 49.8751 41.5925C52.8389 43.2589 55.6357 41.2352 57.9585 41.0565C60.2736 40.8739 61.5827 38.1393 60.095 34.6278ZM49.8945 17.7073C49.8945 17.7073 49.9489 17.7811 50.0343 17.8937C49.98 17.8238 49.9256 17.7539 49.8712 17.6879C49.8751 17.6956 49.8945 17.7073 49.8945 17.7073ZM57.7837 36.7409C56.2999 36.6321 54.1673 37.9179 52.734 38.9356C51.6736 39.6892 50.1548 39.3007 49.6226 38.1121C49.4167 37.6537 49.2769 37.1332 49.2769 36.5622C49.2769 32.4098 52.0892 28.4399 52.0892 23.3513C52.0892 21.6306 51.4793 20.0185 50.5626 18.6318C51.3473 19.7388 52.5942 21.5878 52.9826 22.7298C54.3266 26.657 58.3392 28.9799 58.3392 28.9799C56.7311 30.5802 57.7837 36.7409 57.7837 36.7409Z" fill="url(#paint4_linear)"/>
<path d="M57.267 26.2961C56.1949 24.6879 54.276 19.1099 53.4292 18.2631C52.7184 17.5523 48.2086 15.2799 45.9129 12.7822C46.1926 13.7805 46.818 14.7244 47.5016 15.513C46.8024 15.0313 46.0877 14.6545 45.4041 14.4098C49.91 18.3564 50.0381 22.6059 50.0381 24.6025C50.0381 26.7467 43.7881 40.311 51.3783 40.311C53.6079 40.311 55.6628 37.1569 57.9818 37.7512C60.3007 38.3455 57.6244 35.4011 59.0539 31.8314C60.4794 28.2616 58.3391 27.9042 57.267 26.2961ZM49.8944 17.7077C49.8944 17.7077 49.9488 17.7815 50.0343 17.8941C49.9799 17.8242 49.9255 17.7543 49.8711 17.6882C49.875 17.696 49.8944 17.7077 49.8944 17.7077ZM57.7836 36.7413C56.2998 36.6325 54.1673 37.9182 52.7339 38.9359C51.6735 39.6895 50.1547 39.3011 49.6225 38.1124C49.4166 37.6541 49.2768 37.1336 49.2768 36.5626C49.2768 32.4101 52.0891 28.4403 52.0891 23.3517C52.0891 21.6309 51.4793 20.0189 50.5625 18.6321C51.3472 19.7392 52.5941 21.5882 52.9825 22.7302C54.3265 26.6573 58.3391 28.9802 58.3391 28.9802C56.731 30.5806 57.7836 36.7413 57.7836 36.7413Z" fill="url(#paint5_linear)"/>
<path opacity="0.75" d="M40.999 36.1197C44.6076 36.2556 46.0254 42.3347 46.0177 48.9576C46.0099 54.3725 42.6538 60.3195 39.1306 60.0942C35.6075 59.8728 32.5194 59.0299 33.3856 47.7962C33.8983 41.1772 37.4681 35.9876 40.999 36.1197Z" fill="url(#paint6_radial)"/>
<path opacity="0.75" d="M61.6137 42.0663C63.416 43.6939 60.0366 48.7825 55.5385 53.6691C51.8599 57.6661 46.0605 60.6377 44.3591 58.9868C42.6578 57.3359 41.6051 55.4054 49.6885 47.4734C54.4508 42.8005 59.8502 40.4737 61.6137 42.0663Z" fill="url(#paint7_radial)"/>
<path opacity="0.75" d="M25.5082 61.3878C25.3878 65.0236 22.2841 66.7638 18.9241 67.0979C16.1778 67.3737 13.2062 64.305 13.3655 60.7507C13.5248 57.1965 13.9948 54.0462 19.6854 54.3376C23.0416 54.5085 25.6247 57.8297 25.5082 61.3878Z" fill="url(#paint8_radial)"/>
<path d="M43.6987 14.0677C44.8369 14.0405 45.9594 14.4406 46.9539 14.9961C47.956 15.5554 48.8417 16.3012 49.6263 17.1364C50.3838 17.9948 51.0403 18.9543 51.4792 20.0147C51.9259 21.0713 52.1512 22.2211 52.0891 23.3514C51.9259 21.083 50.8655 19.0087 49.3583 17.3772C48.6203 16.546 47.754 15.8273 46.8101 15.233C45.8701 14.6504 44.8291 14.1726 43.6987 14.0677Z" fill="#804B24"/>
<path d="M29.0584 52.1821C24.2378 52.1821 14.2394 48.791 12.1884 52.0034C11.9359 52.3958 11.7378 52.8658 11.5708 53.3824C15.9835 49.3504 18.9978 56.4666 26.7355 56.4666C28.4369 52.8075 29.0584 52.1821 29.0584 52.1821Z" fill="url(#paint9_linear)"/>
<defs>
<linearGradient id="paint0_linear" x1="-7.32884" y1="74.8778" x2="81.4579" y2="17.0355" gradientUnits="userSpaceOnUse">
<stop offset="0.00132565" stop-color="#FFCB4B"/>
<stop offset="1" stop-color="#FFD748"/>
</linearGradient>
<linearGradient id="paint1_linear" x1="41.5247" y1="44.3998" x2="4.31915" y2="36.3229" gradientUnits="userSpaceOnUse">
<stop stop-color="#FFBC47" stop-opacity="0"/>
<stop offset="1" stop-color="#C86F34"/>
</linearGradient>
<linearGradient id="paint2_linear" x1="48.4692" y1="23.8074" x2="15.2635" y2="16.9342" gradientUnits="userSpaceOnUse">
<stop stop-color="#FFBC47" stop-opacity="0"/>
<stop offset="1" stop-color="#C86F34"/>
</linearGradient>
<radialGradient id="paint3_radial" cx="0" cy="0" r="1" gradientUnits="userSpaceOnUse" gradientTransform="translate(38.7969 36.1434) scale(44.0493)">
<stop offset="0.5178" stop-color="#FFBC47" stop-opacity="0"/>
<stop offset="0.5332" stop-color="#FFBC47" stop-opacity="0"/>
<stop offset="1" stop-color="#FFA754"/>
</radialGradient>
<linearGradient id="paint4_linear" x1="45.0929" y1="-30.5603" x2="69.7295" y2="149.929" gradientUnits="userSpaceOnUse">
<stop stop-color="#FFBC47" stop-opacity="0"/>
<stop offset="1" stop-color="#C86F34"/>
</linearGradient>
<linearGradient id="paint5_linear" x1="35.0741" y1="-19.4807" x2="65.959" y2="68.5324" gradientUnits="userSpaceOnUse">
<stop stop-color="#FFBC47" stop-opacity="0"/>
<stop offset="1" stop-color="#C86F34"/>
</linearGradient>
<radialGradient id="paint6_radial" cx="0" cy="0" r="1" gradientUnits="userSpaceOnUse" gradientTransform="translate(39.7413 48.0848) rotate(-85.5438) scale(12.3434 6.45556)">
<stop stop-color="#FBE07A"/>
<stop offset="0.2654" stop-color="#FCDF73" stop-opacity="0.7346"/>
<stop offset="0.6548" stop-color="#FDDB5F" stop-opacity="0.3452"/>
<stop offset="1" stop-color="#FFD748" stop-opacity="0"/>
</radialGradient>
<radialGradient id="paint7_radial" cx="0" cy="0" r="1" gradientUnits="userSpaceOnUse" gradientTransform="translate(52.8276 50.3747) rotate(-44.4437) scale(12.4043 4.33656)">
<stop stop-color="#FBE07A"/>
<stop offset="0.2654" stop-color="#FCDF73" stop-opacity="0.7346"/>
<stop offset="0.6548" stop-color="#FDDB5F" stop-opacity="0.3452"/>
<stop offset="1" stop-color="#FFD748" stop-opacity="0"/>
</radialGradient>
<radialGradient id="paint8_radial" cx="0" cy="0" r="1" gradientUnits="userSpaceOnUse" gradientTransform="translate(19.455 60.743) rotate(3.00102) scale(6.23961 6.50576)">
<stop stop-color="#FBE07A"/>
<stop offset="0.2654" stop-color="#FCDF73" stop-opacity="0.7346"/>
<stop offset="0.6548" stop-color="#FDDB5F" stop-opacity="0.3452"/>
<stop offset="1" stop-color="#FFD748" stop-opacity="0"/>
</radialGradient>
<linearGradient id="paint9_linear" x1="19.17" y1="55.9497" x2="23.053" y2="45.1936" gradientUnits="userSpaceOnUse">
<stop stop-color="#FFBC47" stop-opacity="0"/>
<stop offset="1" stop-color="#C86F34"/>
</linearGradient>
</defs>
</svg>
