<svg width="80" height="80" viewBox="0 0 80 80" fill="none" xmlns="http://www.w3.org/2000/svg">
<path d="M6.02102 21.9876C6.02102 23.9089 10.1026 27.0299 14.5476 27.0299C18.9926 27.0299 22.7159 26.5471 23.6765 26.5471C24.6372 26.5471 28.241 30.0314 37.7283 29.1901C37.7283 29.1901 39.2315 33.212 40.2519 34.2324C41.2723 35.2528 39.9234 36.2434 37.6387 36.2434C35.354 36.2434 28.6292 35.7606 24.5476 33.8392C20.466 31.9179 16.1106 29.5435 12.9896 29.5435C9.8687 29.5435 9.62479 32.1867 9.62479 32.9084C9.62479 33.6302 11.4267 38.0702 23.796 43.3564C36.1653 48.6426 37.8478 53.4758 43.0095 53.4758C48.1713 53.4758 52.0787 53.2071 54 54.6456C55.9214 56.0891 60.9836 60.2005 62.1085 61.7336C63.1887 63.207 74 59.5634 74 50.5938C74 48.7919 72.2578 48.3439 68.4749 44.5609C64.6919 40.778 55.9861 30.2404 52.2031 24.5659C48.7785 19.434 44.6372 17 40.9438 17C35.9015 17 31.3669 19.4639 27.4048 19.4639C23.4426 19.4639 12.5118 19.3445 9.03246 19.3445C5.55313 19.3445 6.02102 20.788 6.02102 21.9876Z" fill="url(#paint0_linear)"/>
<path d="M34.6422 49.3694C34.6323 49.2201 34.5925 49.0608 34.483 48.8915C32.3227 45.4072 33.8807 37.8413 39.9981 35.9647L39.7343 35.8851C39.2166 36.1141 38.4899 36.2535 37.6338 36.2535C35.354 36.2535 28.6243 35.7756 24.5427 33.8542C20.4611 31.9329 16.1057 29.5586 12.9847 29.5586C9.86378 29.5586 9.61987 32.2017 9.61987 32.9234C9.61987 33.6452 11.4218 38.0902 23.7911 43.3714C28.9081 45.5516 32.1833 47.6521 34.6422 49.3694Z" fill="url(#paint1_radial)"/>
<path d="M40.252 34.2372C39.2316 33.2168 37.7284 29.1948 37.7284 29.1948C28.2411 30.0361 24.6373 26.5518 23.6766 26.5518C23.5472 26.5518 23.358 26.5617 23.134 26.5766C22.8453 29.5234 23.8508 32.6592 24.5477 33.8489C28.6293 35.7702 35.354 36.2531 37.6388 36.2531C39.9185 36.2481 41.2724 35.2576 40.252 34.2372Z" fill="url(#paint2_linear)"/>
<path d="M40.2519 34.2372C39.2315 33.2168 37.7282 29.1948 37.7282 29.1948C28.2409 30.0361 24.6371 26.5518 23.6765 26.5518C23.5471 26.5518 23.3579 26.5617 23.1339 26.5766C23.0991 26.9151 23.0891 27.2536 23.0891 27.5971C23.6118 27.4477 23.9502 27.4278 24.0996 27.5722C24.3236 27.7962 27.7481 31.2655 32.0239 31.4895C36.3046 31.7135 36.9766 31.4 36.7974 33.0674C36.6879 34.0829 36.9467 35.382 37.1658 36.2431C37.34 36.2481 37.4992 36.2481 37.6386 36.2481C39.9184 36.2481 41.2723 35.2576 40.2519 34.2372Z" fill="url(#paint3_linear)"/>
<path d="M40.2519 34.2377C39.2315 33.2172 37.7283 29.1953 37.7283 29.1953C37.2156 29.2401 36.7228 29.27 36.245 29.2899C34.0598 31.7339 33.139 34.0983 33.1937 35.9549C35.0852 36.1739 36.7228 36.2536 37.6387 36.2536C39.9184 36.2486 41.2723 35.2581 40.2519 34.2377Z" fill="url(#paint4_linear)"/>
<path d="M42.4719 28.7119C41.3917 25.8299 40.1324 25.2873 37.6088 25.2873C35.0851 25.2873 32.2031 25.8299 27.5192 24.476C22.8353 23.127 18.6939 24.1176 15.6277 24.1176C13.3579 24.1176 7.57894 25.4665 6.03589 22.0967C6.18522 24.023 10.1872 27.0295 14.5476 27.0295C18.9926 27.0295 22.7158 26.5516 23.6765 26.5516C24.6372 26.5516 28.2409 30.0359 37.7282 29.1947C37.7282 29.1947 39.2315 33.2166 40.2519 34.2371C41.0085 34.9887 40.4609 35.7253 39.2066 36.0588C39.2116 36.0588 39.2165 36.0588 39.2215 36.0588C44.3435 35.6606 43.552 31.5939 42.4719 28.7119Z" fill="url(#paint5_linear)"/>
<path d="M57.8726 52.8536C54.0896 49.5186 47.783 50.5141 43.9104 50.5141C40.0378 50.5141 38.1464 48.08 35.6227 46.4623C33.0991 44.8396 22.2927 40.3398 18.241 37.9058C15.2893 36.1338 10.0976 34.1179 10.4262 30.5938C9.72431 31.42 9.62476 32.4952 9.62476 32.9183C9.62476 33.64 11.4266 38.08 23.796 43.3662C36.1653 48.6524 37.8477 53.4857 43.0095 53.4857C48.1712 53.4857 52.0787 53.2169 54 54.6554C55.9214 56.0989 60.9836 60.2104 62.1085 61.7435C62.6112 62.4304 65.2294 61.9874 67.8775 60.4344C64.7068 59.4289 61.0682 55.6659 57.8726 52.8536Z" fill="url(#paint6_linear)"/>
<path d="M37.6087 27.095C28.5993 27.2742 26.6182 24.9347 24.0995 24.9347C23.109 24.9347 20.9487 25.3827 17.4345 25.3827C14.9756 25.3827 10.5356 25.552 7.32007 24.208C8.8681 25.6814 11.6257 27.0353 14.5525 27.0353C18.9975 27.0353 22.7207 26.5574 23.6814 26.5574C24.6421 26.5574 28.2459 30.0417 37.7332 29.2005C37.7332 29.2005 39.2364 33.2224 40.2568 34.2428C41.0134 34.9944 40.4659 35.7311 39.2115 36.0646C39.2165 36.0646 39.2215 36.0646 39.2264 36.0646C40.8491 35.9402 41.8745 35.4424 42.4917 34.7356C40.4907 31.4255 43.2085 26.9805 37.6087 27.095Z" fill="url(#paint7_linear)"/>
<path d="M22.2878 26.641L23.2784 26.5415C23.6019 26.4768 23.9653 26.5166 24.2689 26.6709C24.8812 26.9397 25.4735 27.2284 26.0857 27.4772C27.3102 27.9601 28.5646 28.3533 29.8588 28.5922C32.4372 29.08 35.0852 29.095 37.6985 28.866C37.8478 28.8511 37.9822 28.9456 38.037 29.08C38.3854 29.976 38.7637 30.872 39.1719 31.7381C39.6049 32.6042 39.9782 33.4603 40.6253 34.1572C40.8095 34.3812 40.9737 34.7246 40.909 35.093C40.8443 35.4613 40.6054 35.7152 40.3764 35.8894C39.9036 36.2229 39.3909 36.3672 38.8831 36.4618C37.8578 36.636 36.8722 36.5365 35.8966 36.4917C33.9454 36.3473 32.0041 36.0736 30.0877 35.6853C28.1763 35.2821 26.2849 34.7147 24.5427 33.8436C26.3446 34.5952 28.251 34.9884 30.1624 35.302C32.0738 35.6156 34.0051 35.7948 35.9364 35.8844C36.9021 35.9193 37.8777 35.9939 38.7736 35.8247C39.6447 35.6903 40.6701 35.1179 40.0977 34.5753C39.4058 33.8436 38.9528 32.9028 38.5447 32.0268C38.1365 31.1308 37.7682 30.2249 37.4247 29.304L37.7632 29.5181C35.1002 29.7172 32.3824 29.6773 29.7692 29.0452C28.465 28.7366 27.1808 28.3185 25.9812 27.7261C25.3789 27.4324 24.8015 27.099 24.2192 26.7954C23.9305 26.6261 23.6268 26.5714 23.2883 26.6112L22.2878 26.641Z" fill="#975500"/>
<path d="M40.252 34.2372C39.2316 33.2168 37.7284 29.1948 37.7284 29.1948C28.2411 30.0361 24.6373 26.5518 23.6766 26.5518C23.5472 26.5518 23.358 26.5617 23.134 26.5766C22.8453 29.5234 23.8508 32.6592 24.5477 33.8489C28.6293 35.7702 35.354 36.2531 37.6388 36.2531C39.9185 36.2481 41.2724 35.2576 40.252 34.2372Z" fill="url(#paint8_linear)"/>
<path opacity="0.5" d="M48.1814 27.0052C50.9887 27.4382 54.3038 35.8603 52.3874 40.8678C50.8195 44.9593 46.6284 48.5333 44.0948 47.4034C41.5612 46.2735 39.5253 44.7901 43.4079 36.5373C45.6976 31.6692 45.4387 26.5821 48.1814 27.0052Z" fill="url(#paint9_radial)"/>
<path opacity="0.5" d="M29.3757 21.4897C29.1617 20.3896 34.8411 17.7515 38.9576 17.6022C42.3225 17.4827 45.8018 18.4086 45.4384 19.5235C45.0751 20.6385 44.3533 21.639 37.4295 21.6191C33.3479 21.6092 29.5848 22.5648 29.3757 21.4897Z" fill="url(#paint10_radial)"/>
<path d="M62.1086 61.7386C62.4123 62.1518 63.4974 62.1468 64.8911 61.7386C60.3665 59.5933 55.7772 53.2617 52.9598 52.8486C49.6945 52.3658 41.3322 54.2921 36.1704 49.6082C31.0086 44.9243 19.9584 40.0015 14.5527 37C11.5263 35.3176 10.2322 33.6749 9.74436 32.0273C9.65974 32.4007 9.62988 32.7292 9.62988 32.9184C9.62988 33.6401 11.4318 38.0801 23.8011 43.3663C36.1704 48.6525 37.8528 53.4857 43.0146 53.4857C48.1764 53.4857 52.0838 53.2169 54.0051 54.6555C55.9215 56.094 60.9837 60.2105 62.1086 61.7386Z" fill="url(#paint11_linear)"/>
<defs>
<linearGradient id="paint0_linear" x1="39.0209" y1="88.2117" x2="40.0833" y2="31.3711" gradientUnits="userSpaceOnUse">
<stop offset="0.00132565" stop-color="#F0C492"/>
<stop offset="1" stop-color="#F8DBBA"/>
</linearGradient>
<radialGradient id="paint1_radial" cx="0" cy="0" r="1" gradientUnits="userSpaceOnUse" gradientTransform="translate(-24.8419 0.0117782) scale(79.2155)">
<stop stop-color="#FFA754"/>
<stop offset="1" stop-color="#FFBC47" stop-opacity="0"/>
</radialGradient>
<linearGradient id="paint2_linear" x1="32.6568" y1="24.4324" x2="29.5943" y2="48.9318" gradientUnits="userSpaceOnUse">
<stop offset="0.00132565" stop-color="#F0C492"/>
<stop offset="1" stop-color="#F8DBBA"/>
</linearGradient>
<linearGradient id="paint3_linear" x1="29.7072" y1="42.451" x2="33.4452" y2="22.2301" gradientUnits="userSpaceOnUse">
<stop stop-color="#FFBC47" stop-opacity="0"/>
<stop offset="1" stop-color="#C86F34"/>
</linearGradient>
<linearGradient id="paint4_linear" x1="37.8133" y1="55.4765" x2="36.0119" y2="16.2053" gradientUnits="userSpaceOnUse">
<stop stop-color="#FFBC47" stop-opacity="0"/>
<stop offset="1" stop-color="#C86F34"/>
</linearGradient>
<linearGradient id="paint5_linear" x1="24.384" y1="13.3798" x2="25.3579" y2="63.4031" gradientUnits="userSpaceOnUse">
<stop stop-color="#FFBC47" stop-opacity="0"/>
<stop offset="1" stop-color="#C86F34"/>
</linearGradient>
<linearGradient id="paint6_linear" x1="42.9797" y1="26.3735" x2="22.7933" y2="122.347" gradientUnits="userSpaceOnUse">
<stop stop-color="#FFBC47" stop-opacity="0"/>
<stop offset="1" stop-color="#C86F34"/>
</linearGradient>
<linearGradient id="paint7_linear" x1="33.4067" y1="6.92426" x2="17.0118" y2="50.3709" gradientUnits="userSpaceOnUse">
<stop stop-color="#FFBC47" stop-opacity="0"/>
<stop offset="1" stop-color="#C86F34"/>
</linearGradient>
<linearGradient id="paint8_linear" x1="36.1575" y1="46.603" x2="28.4714" y2="21.0827" gradientUnits="userSpaceOnUse">
<stop stop-color="#FFBC47" stop-opacity="0"/>
<stop offset="1" stop-color="#C86F34"/>
</linearGradient>
<radialGradient id="paint9_radial" cx="0" cy="0" r="1" gradientUnits="userSpaceOnUse" gradientTransform="translate(47.7569 37.8965) rotate(-64.7798) scale(10.6164 5.39205)">
<stop stop-color="#F8E6D2"/>
<stop offset="1" stop-color="#F8E6D2" stop-opacity="0"/>
</radialGradient>
<radialGradient id="paint10_radial" cx="0" cy="0" r="1" gradientUnits="userSpaceOnUse" gradientTransform="translate(37.62 19.8109) rotate(-179.821) scale(8.05929 2.17527)">
<stop stop-color="#F8E6D2"/>
<stop offset="1" stop-color="#F8E6D2" stop-opacity="0"/>
</radialGradient>
<linearGradient id="paint11_linear" x1="21.3863" y1="72.6945" x2="46.8849" y2="31.3773" gradientUnits="userSpaceOnUse">
<stop stop-color="#FFBC47" stop-opacity="0"/>
<stop offset="1" stop-color="#C86F34"/>
</linearGradient>
</defs>
</svg>
