<svg width="80" height="80" viewBox="0 0 80 80" fill="none" xmlns="http://www.w3.org/2000/svg">
<path d="M6.02263 21.9857C6.02263 23.9087 10.1046 27.0317 14.548 27.0317C18.9915 27.0317 22.717 26.5497 23.676 26.5497C24.635 26.5497 28.2399 30.0341 37.7293 29.1906C37.7293 29.1906 39.2306 33.2123 40.2498 34.2366C41.269 35.2558 39.9184 36.25 37.639 36.25C35.3595 36.25 28.6316 35.768 24.5446 33.85C20.4626 31.927 16.1045 29.5572 12.9815 29.5572C9.85857 29.5572 9.61757 32.1982 9.61757 32.9212C9.61757 33.6442 11.4201 38.0876 23.7914 43.3695C36.1628 48.6515 37.8448 53.4866 43.0113 53.4866C48.1777 53.4866 52.0789 53.2154 54.0019 54.6564C55.9249 56.0974 60.9859 60.2145 62.1106 61.7409C63.1901 63.212 74 59.5718 74 50.5996C74 48.7971 72.2578 48.3452 68.4771 44.5645C64.6913 40.7788 55.9852 30.24 52.2045 24.5664C48.7802 19.4301 44.638 17 40.9427 17C35.8967 17 31.3629 19.4602 27.4014 19.4602C23.44 19.4602 12.5096 19.3397 9.02511 19.3397C5.54064 19.3397 6.02263 20.7857 6.02263 21.9857Z" fill="url(#paint0_linear)"/>
<path d="M34.6465 49.3739C34.6365 49.2233 34.5963 49.0626 34.4909 48.8919C32.3269 45.4075 33.8884 37.841 40.0038 35.9632L39.7427 35.8829C39.2255 36.1089 38.4975 36.2494 37.644 36.2494C35.3595 36.2494 28.6365 35.7674 24.5496 33.8495C20.4676 31.9265 16.1095 29.5566 12.9865 29.5566C9.86356 29.5566 9.62256 32.1976 9.62256 32.9206C9.62256 33.6436 11.425 38.0871 23.7964 43.369C28.9127 45.548 32.1863 47.6518 34.6465 49.3739Z" fill="url(#paint1_linear)"/>
<path d="M40.2547 34.2367C39.2355 33.2175 37.7342 29.1908 37.7342 29.1908C28.2448 30.0343 24.6398 26.5498 23.6808 26.5498C23.5503 26.5498 23.3645 26.5598 23.1386 26.5749C22.8474 29.5222 23.8566 32.6602 24.5545 33.8451C28.6364 35.7681 35.3644 36.2451 37.6489 36.2451C39.9283 36.2501 41.279 35.261 40.2547 34.2367Z" fill="url(#paint2_linear)"/>
<path d="M40.2547 34.2367C39.2354 33.2175 37.7342 29.1908 37.7342 29.1908C28.2448 30.0343 24.6398 26.5498 23.6808 26.5498C23.5503 26.5498 23.3645 26.5598 23.1386 26.5749C23.1034 26.9113 23.0934 27.2527 23.0934 27.5941C23.6156 27.4435 23.957 27.4234 24.1026 27.569C24.3285 27.795 27.7527 31.2644 32.0305 31.4853C36.3083 31.7062 36.9861 31.3949 36.8053 33.0619C36.6949 34.0811 36.956 35.3765 37.1719 36.2401C37.3426 36.2451 37.5032 36.2451 37.6438 36.2451C39.9283 36.2501 41.2789 35.261 40.2547 34.2367Z" fill="url(#paint3_linear)"/>
<path d="M40.2548 34.2364C39.2355 33.2172 37.7343 29.1904 37.7343 29.1904C37.2171 29.2356 36.7301 29.2658 36.2481 29.2858C34.064 31.726 33.1452 34.0958 33.2005 35.9485C35.0933 36.1644 36.7301 36.2447 37.6439 36.2447C39.9284 36.2498 41.279 35.2606 40.2548 34.2364Z" fill="url(#paint4_linear)"/>
<path d="M42.4789 28.714C41.3995 25.832 40.1392 25.2898 37.6137 25.2898C35.0933 25.2898 32.2063 25.832 27.5268 24.4814C22.8424 23.1308 18.7002 24.1199 15.6375 24.1199C13.368 24.1199 7.58903 25.4706 6.0426 22.1016C6.18821 24.0296 10.1948 27.0371 14.558 27.0371C19.0014 27.0371 22.7269 26.555 23.6859 26.555C24.6449 26.555 28.2498 30.0395 37.7393 29.196C37.7393 29.196 39.2405 33.2177 40.2597 34.242C41.0129 34.9951 40.4706 35.7332 39.2154 36.0645C39.2204 36.0645 39.2254 36.0645 39.2305 36.0645C44.3467 35.6629 43.5584 31.596 42.4789 28.714Z" fill="url(#paint5_radial)"/>
<path d="M57.883 52.8532C54.0973 49.5193 47.7961 50.5134 43.92 50.5134C40.049 50.5134 38.1561 48.0833 35.6306 46.4616C33.1101 44.8399 22.3002 40.3362 18.2434 37.9061C15.2911 36.1337 10.0995 34.1153 10.4259 30.5957C9.72298 31.4191 9.62256 32.4986 9.62256 32.9204C9.62256 33.6434 11.425 38.0868 23.7964 43.3688C36.1678 48.6557 37.8498 53.4858 43.0163 53.4858C48.1827 53.4858 52.0839 53.2147 54.0069 54.6557C55.9299 56.0966 60.9909 60.2138 62.1156 61.7401C62.6177 62.428 65.2336 61.9861 67.8846 60.4296C64.7164 59.4305 61.0763 55.6649 57.883 52.8532Z" fill="url(#paint6_linear)"/>
<path d="M37.6138 27.0911C28.6064 27.2718 26.6232 24.9271 24.1027 24.9271C23.1136 24.9271 20.9496 25.379 17.435 25.379C14.9748 25.379 10.5364 25.5497 7.31799 24.2041C8.86442 25.6752 11.6259 27.0308 14.5531 27.0308C18.9965 27.0308 22.722 26.5489 23.681 26.5489C24.6399 26.5489 28.2449 30.0333 37.7343 29.1898C37.7343 29.1898 39.2356 33.2115 40.2548 34.2358C41.0079 34.9889 40.4657 35.727 39.2105 36.0584C39.2155 36.0584 39.2205 36.0584 39.2255 36.0584C40.8473 35.9328 41.8715 35.4358 42.4891 34.7278C40.4958 31.4191 43.2171 26.9806 37.6138 27.0911Z" fill="url(#paint7_linear)"/>
<path d="M22.2902 26.6402L23.2843 26.5398C23.6056 26.4745 23.9722 26.5147 24.2784 26.6703C24.891 26.9415 25.4834 27.2277 26.096 27.4737C27.3211 27.9557 28.5763 28.3473 29.8666 28.5883C32.4474 29.0753 35.0933 29.0904 37.7092 28.8644C37.8598 28.8494 37.9954 28.9448 38.0456 29.0753C38.392 29.969 38.7736 30.8678 39.1803 31.7314C39.6171 32.5949 39.9837 33.4585 40.6364 34.1514C40.8171 34.3774 40.9878 34.7187 40.9226 35.0903C40.8573 35.4568 40.6163 35.7129 40.3903 35.8886C39.9184 36.22 39.4063 36.3656 38.8992 36.461C37.8699 36.6367 36.8858 36.5363 35.9117 36.4911C33.9586 36.3505 32.0206 36.0744 30.1026 35.6828C28.1897 35.2811 26.3018 34.7087 24.5546 33.8451C26.3571 34.5982 28.265 34.9899 30.1729 35.3062C32.0808 35.6225 34.0139 35.7982 35.9469 35.8886C36.9109 35.9238 37.8849 35.9991 38.7837 35.8284C39.6523 35.6928 40.6816 35.1204 40.1092 34.5782C39.4163 33.8451 38.9644 32.9012 38.5527 32.0276C38.141 31.1288 37.7745 30.2251 37.428 29.3063L37.7644 29.5171C35.0984 29.718 32.3821 29.6728 29.7662 29.0452C28.4608 28.7389 27.1755 28.3222 25.9805 27.7247C25.378 27.4335 24.8006 27.0971 24.2182 26.7908C23.927 26.6201 23.6257 26.5649 23.2843 26.605L22.2902 26.6402Z" fill="#975500"/>
<path d="M40.2547 34.2367C39.2355 33.2175 37.7342 29.1908 37.7342 29.1908C28.2448 30.0343 24.6398 26.5498 23.6808 26.5498C23.5503 26.5498 23.3645 26.5598 23.1386 26.5749C22.8474 29.5222 23.8566 32.6602 24.5545 33.8451C28.6364 35.7681 35.3644 36.2451 37.6489 36.2451C39.9283 36.2501 41.279 35.261 40.2547 34.2367Z" fill="url(#paint8_linear)"/>
<path opacity="0.16" d="M48.1927 27.0011C50.9993 27.4329 54.3131 35.8579 52.4002 40.8637C50.8336 44.9557 46.6412 48.5305 44.1057 47.4008C41.5702 46.2711 39.5367 44.785 43.4178 36.5307C45.7023 31.6705 45.4463 26.5793 48.1927 27.0011Z" fill="url(#paint9_radial)"/>
<path opacity="0.16" d="M29.3846 21.4886C29.1737 20.389 34.8523 17.748 38.9644 17.6024C42.3284 17.4819 45.8078 18.4057 45.4463 19.5254C45.0848 20.645 44.3618 21.6392 37.4381 21.6191C33.3511 21.609 29.5905 22.563 29.3846 21.4886Z" fill="url(#paint10_radial)"/>
<path d="M62.1156 61.7459C62.4219 62.1627 63.5064 62.1576 64.8972 61.7459C60.3734 59.602 55.7843 53.2707 52.9626 52.854C49.699 52.372 41.3343 54.295 36.1678 49.6105C31.0014 44.9261 19.9505 40.0006 14.548 36.9981C11.5204 35.3161 10.2251 33.6693 9.73804 32.0225C9.65269 32.394 9.62256 32.7254 9.62256 32.9162C9.62256 33.6392 11.425 38.0827 23.7964 43.3646C36.1678 48.6516 37.8498 53.4816 43.0163 53.4816C48.1827 53.4816 52.0839 53.2105 54.0069 54.6515C55.9299 56.0975 60.9909 60.2146 62.1156 61.7459Z" fill="url(#paint11_linear)"/>
<defs>
<linearGradient id="paint0_linear" x1="39.0277" y1="88.2184" x2="40.0903" y2="31.3701" gradientUnits="userSpaceOnUse">
<stop offset="0.00132565" stop-color="#BE8D68"/>
<stop offset="1" stop-color="#CD9870"/>
</linearGradient>
<linearGradient id="paint1_linear" x1="9.62807" y1="39.4625" x2="40.0051" y2="39.4625" gradientUnits="userSpaceOnUse">
<stop offset="0.00132565" stop-color="#BE8D68"/>
<stop offset="1" stop-color="#CD9870"/>
</linearGradient>
<linearGradient id="paint2_linear" x1="32.6625" y1="24.4309" x2="29.5997" y2="48.9335" gradientUnits="userSpaceOnUse">
<stop offset="0.00132565" stop-color="#BE8D68"/>
<stop offset="1" stop-color="#CD9870"/>
</linearGradient>
<linearGradient id="paint3_linear" x1="19.7548" y1="44.5533" x2="43.3087" y2="17.9887" gradientUnits="userSpaceOnUse">
<stop stop-color="#A46C3F" stop-opacity="0"/>
<stop offset="1" stop-color="#804B24"/>
</linearGradient>
<linearGradient id="paint4_linear" x1="24.0981" y1="48.404" x2="47.652" y2="21.8394" gradientUnits="userSpaceOnUse">
<stop stop-color="#A46C3F" stop-opacity="0"/>
<stop offset="1" stop-color="#804B24"/>
</linearGradient>
<radialGradient id="paint5_radial" cx="0" cy="0" r="1" gradientUnits="userSpaceOnUse" gradientTransform="translate(35.3046 -2.10322) scale(36.8017)">
<stop offset="0.6147" stop-color="#B37E53" stop-opacity="0"/>
<stop offset="1" stop-color="#B37E53"/>
</radialGradient>
<linearGradient id="paint6_linear" x1="42.987" y1="26.3712" x2="22.7979" y2="122.358" gradientUnits="userSpaceOnUse">
<stop stop-color="#B37E53"/>
<stop offset="1" stop-color="#CD9870"/>
</linearGradient>
<linearGradient id="paint7_linear" x1="27.187" y1="14.2883" x2="22.4053" y2="46.0773" gradientUnits="userSpaceOnUse">
<stop stop-color="#A46C3F" stop-opacity="0"/>
<stop offset="1" stop-color="#804B24"/>
</linearGradient>
<linearGradient id="paint8_linear" x1="31.2613" y1="51.7193" x2="32.1468" y2="20.5502" gradientUnits="userSpaceOnUse">
<stop stop-color="#A46C3F" stop-opacity="0"/>
<stop offset="1" stop-color="#804B24"/>
</linearGradient>
<radialGradient id="paint9_radial" cx="0" cy="0" r="1" gradientUnits="userSpaceOnUse" gradientTransform="translate(47.7663 37.8982) rotate(-64.7798) scale(10.6178 5.39276)">
<stop stop-color="#F8DBBA"/>
<stop offset="1" stop-color="#CD9870" stop-opacity="0"/>
</radialGradient>
<radialGradient id="paint10_radial" cx="0" cy="0" r="1" gradientUnits="userSpaceOnUse" gradientTransform="translate(37.6311 19.8026) rotate(-179.821) scale(8.06036 2.17557)">
<stop stop-color="#F8DBBA"/>
<stop offset="1" stop-color="#CD9870" stop-opacity="0"/>
</radialGradient>
<linearGradient id="paint11_linear" x1="39.9728" y1="19.6515" x2="30.8523" y2="112.627" gradientUnits="userSpaceOnUse">
<stop stop-color="#A46C3F" stop-opacity="0"/>
<stop offset="1" stop-color="#804B24"/>
</linearGradient>
</defs>
</svg>
