<svg width="80" height="80" viewBox="0 0 80 80" fill="none" xmlns="http://www.w3.org/2000/svg">
<path d="M40.2471 34.9629C40.2789 36.2968 40.0422 37.7992 39.5596 37.8357C39.0815 37.8721 38.69 36.7202 38.6081 35.5866C38.5261 34.4575 31.5149 39.6522 31.0914 39.8571C30.7728 40.0119 27.4219 40.4899 24.9543 41.5644C24.1303 41.9241 22.5823 43.8089 22.3729 43.8225C21.5443 43.8817 21.0253 43.3536 20.7385 41.232C20.4516 39.1104 14.3054 44.9607 14.8791 47.2189C15.8625 51.0842 14.8882 62.2248 21.4305 67.8657C28.9972 74.3943 42.8148 72.5459 47.8138 66.7548C52.8127 60.9637 53.0085 57.2987 57.3108 52.5366C60.953 48.5074 65.6333 49.122 67.4088 47.0687C68.9021 45.3386 66.694 42.7026 65.8518 41.9787C64.3585 40.6902 58.8724 39.2971 54.52 44.3416C52.8263 46.3038 50.7366 47.5968 48.7243 45.8622C46.7165 44.1276 46.8531 39.4382 47.3494 36.1193" fill="url(#paint0_linear)"/>
<path d="M67.4087 47.0732C68.2191 46.1354 67.9368 44.9243 67.3768 43.9C65.5284 48.0521 60.3565 43.8453 50.6637 55.077C40.9708 66.3087 31.6103 63.9366 28.4143 62.1611C25.2228 60.3855 20.3058 56.4292 20.5198 48.8306C20.5881 46.4996 20.3559 43.7042 19.887 40.8496C18.1524 41.4233 14.4237 45.4388 14.8744 47.2235C15.8578 51.0888 14.8835 62.2294 21.4258 67.8703C28.9925 74.3989 42.8101 72.5505 47.8091 66.7594C52.808 60.9682 53.0038 57.3033 57.3061 52.5411C60.9529 48.5073 65.6331 49.1265 67.4087 47.0732Z" fill="url(#paint1_linear)"/>
<path d="M20.7385 41.2318C20.4516 39.1102 20.2194 33.5695 19.6412 30.4645C19.063 27.3595 17.4104 25.9664 14.87 26.6448C12.325 27.3277 13.0944 33.046 13.1991 34.4345C13.3539 36.5652 14.31 44.956 14.8836 47.2142" fill="url(#paint2_linear)"/>
<path d="M31.0913 39.8575C30.6679 40.0624 29.5206 39.4659 29.4022 35.7691C29.3112 32.9464 29.343 25.0701 28.8286 21.0363C28.3141 17.0072 27.2624 14.6351 24.8403 14.4166C22.4183 14.1981 21.3347 17.1711 21.3939 20.49C21.4667 24.5875 21.8082 28.9991 22.136 33.2332C22.391 36.5431 23.1968 43.7637 22.3682 43.8229" fill="url(#paint3_linear)"/>
<path d="M22.1406 33.233C22.3819 36.3562 23.1103 42.9577 22.4957 43.7453C23.7431 43.372 24.895 40.0712 24.6173 38.323C22.9965 28.2067 24.2121 15.1995 23.2788 14.8125C21.9539 15.7139 21.3575 18.0085 21.3985 20.4943C21.4713 24.5873 21.8128 28.9989 22.1406 33.233Z" fill="url(#paint4_linear)"/>
<path d="M47.3538 36.1242C47.8546 32.8052 48.2598 21.0955 48.5967 17.9677C48.9336 14.84 47.1125 13.2648 45.0865 13.0644C43.0606 12.8641 41.153 14.3164 40.7387 20.5355C40.4746 24.46 40.0785 27.9338 40.2469 34.9632L44.654 38.264L47.3538 36.1242Z" fill="url(#paint5_linear)"/>
<path d="M38.608 35.5868C38.526 34.4578 38.649 23.4537 38.608 21.0408C38.5397 16.5199 40.379 8.55255 34.8292 8.01988C31.9109 7.74216 31.2871 10.4465 31.1597 11.6348C31.0322 12.8231 31.0595 26.2992 31.146 27.5148C31.2371 28.735 31.5148 39.6479 31.0914 39.8574" fill="url(#paint6_linear)"/>
<path d="M40.2471 34.9632C40.279 36.2426 40.0559 37.6812 39.6143 37.8224C43.2838 37.9498 43.1199 28.8716 43.1791 23.5586C43.2246 19.4429 45.287 15.9463 45.2506 13.0826C45.1959 13.0735 45.1413 13.069 45.0912 13.0644C43.0652 12.8641 41.1576 14.3164 40.7433 20.5355C40.4747 24.46 40.0741 27.9338 40.2471 34.9632Z" fill="url(#paint7_linear)"/>
<path d="M31.146 27.5194C31.2371 28.7395 31.5148 39.6525 31.0914 39.8619C34.8064 39.0333 34.0142 26.4904 33.7547 20.2759C33.5271 14.8855 35.3027 11.867 33.8367 8.05176C31.7652 8.40232 31.278 10.6013 31.1597 11.6393C31.0276 12.8276 31.0549 26.2993 31.146 27.5194Z" fill="url(#paint8_linear)"/>
<path d="M30.8502 39.8841C30.5497 39.8341 30.14 39.5017 29.835 38.6094C29.967 39.3788 30.2766 39.8887 30.8502 39.8841Z" fill="url(#paint9_linear)"/>
<path d="M65.6469 43.0253C67.295 43.9996 67.4042 44.3821 67.3769 43.8995C66.9034 43.039 66.2387 42.3106 65.8563 41.9782C64.363 40.6898 58.8769 39.2966 54.5245 44.3411C52.8309 46.3033 50.7412 47.5963 48.7288 45.8617C47.9367 45.1788 47.4814 44.036 47.2446 42.6975C47.3994 49.645 53.3408 48.3521 55.9404 46.194C58.5355 44.036 60.8118 40.1662 65.6469 43.0253Z" fill="url(#paint10_radial)"/>
<path d="M44.3263 13.0693C42.6008 13.3015 41.103 15.0999 40.7388 20.5313C40.4747 24.4558 40.0786 27.9295 40.247 34.959C40.2789 36.293 40.0422 37.7954 39.5596 37.8318C43.6844 34.2579 41.3352 25.2252 42.1046 20.5086C42.7147 16.7753 43.6571 15.0771 44.3263 13.0693Z" fill="url(#paint11_linear)"/>
<path d="M31.146 27.5193C31.2371 28.7395 31.5148 39.6524 31.0914 39.8619C33.0718 40.044 33.4133 37.9588 33.1538 34.4304C32.6211 27.1915 31.7151 17.3075 33.2539 11.1294C33.3996 10.5466 33.2767 9.91837 32.8761 9.46764C31.8335 8.30214 31.2598 10.7287 31.1597 11.6393C31.0276 12.8275 31.0549 26.2992 31.146 27.5193Z" fill="url(#paint12_linear)"/>
<path d="M21.3985 20.4904C21.4713 24.5879 21.8128 28.9996 22.1406 33.2336C22.3955 36.5435 23.2013 43.7642 22.3727 43.8233C26.6842 43.878 21.6398 26.2542 23.2788 14.8086C21.9539 15.7146 21.3575 18.0046 21.3985 20.4904Z" fill="url(#paint13_linear)"/>
<path d="M21.4943 43.7998C21.813 43.909 22.0315 43.909 22.1726 43.8225C21.4578 43.7816 20.998 43.176 20.7339 41.232C20.4471 39.1104 20.2149 33.5697 19.6367 30.4647C19.3818 29.0989 18.922 28.0654 18.2664 27.3916C18.7307 28.8986 18.066 28.721 18.8263 32.3951C19.2406 34.3619 19.4319 43.0759 21.4943 43.7998Z" fill="url(#paint14_linear)"/>
<path d="M28.2277 30.0505C28.1458 33.4606 28.4964 39.5203 30.7227 39.8481C30.2128 39.6432 29.498 38.6416 29.4024 35.7688C29.3113 32.9461 29.3432 25.0698 28.8287 21.0361C28.4099 17.7717 27.645 15.5955 26.0789 14.7715C28.8014 19.3015 28.3051 26.8226 28.2277 30.0505Z" fill="url(#paint15_linear)"/>
<path d="M37.4198 22.9887C37.5791 28.0969 36.5912 37.0932 39.4139 37.8079C39.0041 37.6258 38.6854 36.6015 38.608 35.5907C38.5261 34.4617 38.649 23.4576 38.608 21.0447C38.558 17.9124 39.4276 13.1274 38.1209 10.3047C38.8129 13.8695 37.2877 18.8502 37.4198 22.9887Z" fill="url(#paint16_linear)"/>
<path d="M47.2402 42.7025C47.2448 42.7025 47.2448 42.7025 47.2402 42.7025C46.8805 40.6492 47.049 38.1361 47.354 36.1237C47.8548 32.8048 48.26 21.095 48.5969 17.9673C48.7016 17.0112 48.6015 16.2054 48.3602 15.5361C48.21 16.9839 47.4496 18.5865 47.4952 21.4183C47.568 25.962 46.5664 33.169 46.225 35.6411C45.8835 38.1133 44.6497 42.8937 47.2402 42.7025Z" fill="url(#paint17_linear)"/>
<path d="M35.0616 71.9631C35.9949 69.1586 35.8401 66.8322 33.0265 66.4634C25.346 65.4618 20.6521 59.5113 18.5168 47.706C16.6138 37.1755 16.5 30.7242 14.5696 26.7588C12.3888 27.7968 13.099 33.1008 13.1992 34.4347C13.354 36.5654 14.3101 44.9562 14.8837 47.2143C15.8671 51.0796 14.8929 62.2202 21.4352 67.8611C25.0819 71.0162 30.1901 72.2181 35.0616 71.9631Z" fill="url(#paint18_linear)"/>
<path d="M57.3107 52.5366C60.9529 48.5074 65.6332 49.122 67.4087 47.0687C67.9323 46.4632 68.0006 45.7484 67.8321 45.0427C66.999 47.1142 64.4722 47.4101 60.4476 48.1522C56.086 48.9535 52.116 52.6139 50.0536 57.927C47.9958 63.2401 41.3351 67.2738 36.8597 66.509C32.3843 65.7441 21.7445 70.1739 18.1524 51.6988C18.1524 51.6943 18.1524 51.6897 18.1479 51.6852C18.0113 50.4605 17.82 49.3178 17.5014 48.3025C15.3024 41.2912 14.879 36.3333 14.756 32.3632C14.7287 31.5847 15.0975 28.9851 13.3401 28.4297C12.7255 30.4329 13.1171 33.4696 13.1899 34.4348C13.3447 36.5654 14.2962 44.9562 14.8744 47.2144C14.9473 47.5103 15.011 47.8472 15.0702 48.2205C15.0838 48.3161 15.0975 48.4163 15.1112 48.5164C15.1157 48.5438 15.1203 48.5711 15.1203 48.5938C15.1294 48.6576 15.1385 48.7259 15.1476 48.7896C15.1476 48.8033 15.1521 48.8215 15.1521 48.8351C15.4708 51.4393 15.5892 55.3911 16.5772 59.261V59.2655C16.6637 59.607 16.7593 59.9439 16.8594 60.2808C16.8594 60.2853 16.864 60.2899 16.864 60.2944C16.9641 60.6268 17.0734 60.9592 17.1872 61.2915C17.1872 61.2961 17.1872 61.2961 17.1918 61.3006C18.0568 63.7637 19.368 66.0856 21.4258 67.8566C28.9925 74.3853 42.8102 72.5368 47.8091 66.7457C52.8126 60.9637 53.0084 57.2987 57.3107 52.5366Z" fill="url(#paint19_radial)"/>
<path opacity="0.5" d="M52.4212 52.9963C53.5913 54.4031 49.6577 60.3445 46.6711 62.8303C43.6845 65.3161 40.3154 66.1857 39.1408 64.7789C37.9708 63.3721 40.625 59.8391 42.9469 56.7251C46.9443 51.3437 51.2466 51.5895 52.4212 52.9963Z" fill="url(#paint20_radial)"/>
<path opacity="0.5" d="M19.1496 51.6585C17.852 53.2201 21.7993 62.2255 25.6964 64.4927C29.5936 66.76 34.4787 66.0635 35.4302 64.2606C36.3818 62.4577 32.3298 59.6577 29.0154 56.5527C23.2971 51.2078 20.4471 50.0969 19.1496 51.6585Z" fill="url(#paint21_radial)"/>
<defs>
<linearGradient id="paint0_linear" x1="22.8749" y1="75.8098" x2="39.6109" y2="49.0323" gradientUnits="userSpaceOnUse">
<stop offset="0.00132565" stop-color="#F0C492"/>
<stop offset="1" stop-color="#F8DBBA"/>
</linearGradient>
<linearGradient id="paint1_linear" x1="41.3767" y1="84.4095" x2="41.3767" y2="28.0017" gradientUnits="userSpaceOnUse">
<stop offset="0.00132565" stop-color="#F0C492"/>
<stop offset="1" stop-color="#F8DBBA"/>
</linearGradient>
<linearGradient id="paint2_linear" x1="0.202095" y1="61.6391" x2="16.938" y2="34.8616" gradientUnits="userSpaceOnUse">
<stop offset="0.00132565" stop-color="#F0C492"/>
<stop offset="1" stop-color="#F8DBBA"/>
</linearGradient>
<linearGradient id="paint3_linear" x1="250.889" y1="-231.98" x2="226.679" y2="-203.923" gradientUnits="userSpaceOnUse">
<stop offset="0.00132565" stop-color="#F0C492"/>
<stop offset="1" stop-color="#F8DBBA"/>
</linearGradient>
<linearGradient id="paint4_linear" x1="28.3317" y1="29.0424" x2="20.2276" y2="29.3962" gradientUnits="userSpaceOnUse">
<stop stop-color="#F0C492" stop-opacity="0"/>
<stop offset="1" stop-color="#F0C492"/>
</linearGradient>
<linearGradient id="paint5_linear" x1="260.002" y1="-224.115" x2="235.793" y2="-196.059" gradientUnits="userSpaceOnUse">
<stop offset="0.00132565" stop-color="#F0C492"/>
<stop offset="1" stop-color="#F8DBBA"/>
</linearGradient>
<linearGradient id="paint6_linear" x1="253.129" y1="-230.047" x2="228.92" y2="-201.99" gradientUnits="userSpaceOnUse">
<stop offset="0.00132565" stop-color="#F0C492"/>
<stop offset="1" stop-color="#F8DBBA"/>
</linearGradient>
<linearGradient id="paint7_linear" x1="46.8718" y1="25.3303" x2="34.9052" y2="25.5986" gradientUnits="userSpaceOnUse">
<stop stop-color="#F0C492" stop-opacity="0"/>
<stop offset="1" stop-color="#F0C492"/>
</linearGradient>
<linearGradient id="paint8_linear" x1="36.9511" y1="24.3175" x2="21.8674" y2="23.0981" gradientUnits="userSpaceOnUse">
<stop stop-color="#F0C492" stop-opacity="0"/>
<stop offset="1" stop-color="#F0C492"/>
</linearGradient>
<linearGradient id="paint9_linear" x1="35.7087" y1="39.6869" x2="20.6251" y2="38.4676" gradientUnits="userSpaceOnUse">
<stop stop-color="#FFBC47" stop-opacity="0"/>
<stop offset="1" stop-color="#FFA754"/>
</linearGradient>
<radialGradient id="paint10_radial" cx="0" cy="0" r="1" gradientUnits="userSpaceOnUse" gradientTransform="translate(57.3162 39.1798) rotate(40.7908) scale(14.6657)">
<stop stop-color="#F0C492" stop-opacity="0"/>
<stop offset="1" stop-color="#F0C492"/>
</radialGradient>
<linearGradient id="paint11_linear" x1="49.1318" y1="25.2003" x2="38.7911" y2="25.5676" gradientUnits="userSpaceOnUse">
<stop offset="0.3118" stop-color="#F0C492" stop-opacity="0"/>
<stop offset="1" stop-color="#E6AF74"/>
</linearGradient>
<linearGradient id="paint12_linear" x1="42.2414" y1="24.2896" x2="28.789" y2="24.5797" gradientUnits="userSpaceOnUse">
<stop offset="0.3118" stop-color="#F0C492" stop-opacity="0"/>
<stop offset="1" stop-color="#E6AF74"/>
</linearGradient>
<linearGradient id="paint13_linear" x1="33.3186" y1="29.4599" x2="17.2043" y2="29.246" gradientUnits="userSpaceOnUse">
<stop offset="0.3118" stop-color="#F0C492" stop-opacity="0"/>
<stop offset="1" stop-color="#E6AF74"/>
</linearGradient>
<linearGradient id="paint14_linear" x1="25.5161" y1="25.7702" x2="7.9163" y2="58.4863" gradientUnits="userSpaceOnUse">
<stop offset="0.00132565" stop-color="#F0C492"/>
<stop offset="1" stop-color="#F8DBBA"/>
</linearGradient>
<linearGradient id="paint15_linear" x1="30.188" y1="24.6174" x2="14.3159" y2="48.5875" gradientUnits="userSpaceOnUse">
<stop offset="0.00132565" stop-color="#F0C492"/>
<stop offset="1" stop-color="#F8DBBA"/>
</linearGradient>
<linearGradient id="paint16_linear" x1="35.5735" y1="23.8652" x2="39.5278" y2="24.0991" gradientUnits="userSpaceOnUse">
<stop offset="0.00132565" stop-color="#F0C492"/>
<stop offset="1" stop-color="#F8DBBA"/>
</linearGradient>
<linearGradient id="paint17_linear" x1="51.2459" y1="23.3834" x2="33.2142" y2="53.4" gradientUnits="userSpaceOnUse">
<stop offset="0.00132565" stop-color="#F0C492"/>
<stop offset="1" stop-color="#F8DBBA"/>
</linearGradient>
<linearGradient id="paint18_linear" x1="22.0518" y1="50.4018" x2="2.83242" y2="57.636" gradientUnits="userSpaceOnUse">
<stop offset="0.3118" stop-color="#F0C492" stop-opacity="0"/>
<stop offset="1" stop-color="#F0C492"/>
</linearGradient>
<radialGradient id="paint19_radial" cx="0" cy="0" r="1" gradientUnits="userSpaceOnUse" gradientTransform="translate(33.4998 48.4217) rotate(-2.70901) scale(38.769 67.3654)">
<stop offset="0.6134" stop-color="#F0C492" stop-opacity="0"/>
<stop offset="1" stop-color="#E6AF74"/>
</radialGradient>
<radialGradient id="paint20_radial" cx="0" cy="0" r="1" gradientUnits="userSpaceOnUse" gradientTransform="translate(45.7266 58.6866) rotate(-39.7667) scale(8.81867 4.09314)">
<stop stop-color="#F8E6D2"/>
<stop offset="1" stop-color="#F8E6D2" stop-opacity="0"/>
</radialGradient>
<radialGradient id="paint21_radial" cx="0" cy="0" r="1" gradientUnits="userSpaceOnUse" gradientTransform="translate(26.8396 59.4306) rotate(-138.967) scale(11.3485 5.17843)">
<stop stop-color="#F8E6D2"/>
<stop offset="1" stop-color="#F8E6D2" stop-opacity="0"/>
</radialGradient>
</defs>
</svg>
