<svg width="80" height="80" viewBox="0 0 80 80" fill="none" xmlns="http://www.w3.org/2000/svg">
<path d="M40.2519 34.96C40.284 36.293 40.0458 37.7955 39.5649 37.8321C39.0886 37.8687 38.6947 36.7144 38.6123 35.5829C38.5299 34.4515 31.518 39.6507 31.0966 39.8568C30.7806 40.0125 27.4281 40.4889 24.9595 41.5654C24.1351 41.9227 22.5871 43.81 22.381 43.8237C21.5566 43.8833 21.0345 43.3519 20.746 41.231C20.4574 39.1101 14.3112 44.9597 14.8882 47.218C15.8729 51.0842 14.8974 62.22 21.4375 67.8635C29.0036 74.3956 42.8213 72.545 47.818 66.7549C52.8147 60.9603 53.0116 57.3003 57.3122 52.5363C60.9532 48.5053 65.6339 49.1236 67.4063 47.0669C68.8994 45.3399 66.6919 42.7014 65.8492 41.9777C64.3561 40.6859 58.8739 39.2979 54.5184 44.3413C52.8238 46.3019 50.7354 47.5937 48.7248 45.8621C46.7188 44.1306 46.8516 39.4399 47.3508 36.1189" fill="url(#paint0_linear)"/>
<path d="M20.7459 41.2318C20.4573 39.1109 20.2238 33.5727 19.6467 30.4624C19.0696 27.3566 17.4163 25.964 14.8745 26.6466C12.3327 27.3291 13.1021 33.0459 13.2028 34.4385C13.3586 36.5686 14.3112 44.9606 14.8882 47.2189" fill="url(#paint1_linear)"/>
<path d="M31.1011 39.8569C30.6798 40.0631 29.5302 39.4629 29.4157 35.7663C29.3241 32.9445 29.3608 25.0656 28.8432 21.0345C28.3257 17.0034 27.2769 14.6306 24.8587 14.4153C22.4359 14.2 21.3551 17.1729 21.4146 20.4894C21.4879 24.5846 21.8314 28.9959 22.1566 33.2285C22.413 36.5359 23.2145 43.7597 22.3901 43.8193" fill="url(#paint2_linear)"/>
<path d="M47.36 36.1241C47.8593 32.8076 48.2669 21.0947 48.6058 17.966C48.9447 14.8374 47.1219 13.2616 45.0976 13.0646C43.0686 12.8631 41.168 14.3152 40.7466 20.5358C40.4856 24.4615 40.0825 27.9337 40.2566 34.9651L44.6625 38.2632L47.36 36.1241Z" fill="url(#paint3_linear)"/>
<path d="M38.6169 35.5825C38.5345 34.4511 38.6535 23.4481 38.6169 21.0386C38.5482 16.5174 40.3893 8.55146 34.8384 8.02009C31.921 7.74067 31.2981 10.4479 31.1699 11.6389C31.0371 12.8299 31.0691 26.3019 31.1562 27.5204C31.2478 28.7389 31.5225 39.6548 31.1012 39.861" fill="url(#paint4_linear)"/>
<path d="M30.8584 39.8837C30.5607 39.8333 30.1485 39.4989 29.8417 38.6104C29.9745 39.3798 30.2814 39.8883 30.8584 39.8837Z" fill="url(#paint5_linear)"/>
<path d="M65.6476 43.0223C67.2918 43.998 67.4063 44.3782 67.3742 43.8972C66.9025 43.036 66.2338 42.3077 65.8537 41.9779C64.3607 40.6861 58.8785 39.2981 54.5231 44.3415C52.8285 46.3021 50.7401 47.5939 48.7295 45.8623C47.9372 45.1798 47.4792 44.0346 47.2456 42.6971C47.4013 49.6461 53.3414 48.3543 55.9382 46.1922C58.535 44.0392 60.8112 40.1639 65.6476 43.0223Z" fill="url(#paint6_linear)"/>
<path d="M44.3326 13.0693C42.6106 13.303 41.1083 15.0986 40.7465 20.5314C40.4855 24.4571 40.0824 27.9293 40.2565 34.9607C40.2885 36.2937 40.0504 37.7962 39.5695 37.8329C43.6914 34.2599 41.3419 25.2267 42.1113 20.5085C42.7205 16.7752 43.664 15.0757 44.3326 13.0693Z" fill="url(#paint7_linear)"/>
<path d="M31.1562 27.5158C31.2478 28.7343 31.5225 39.6502 31.1012 39.8564C33.0843 40.0396 33.4232 37.9553 33.1621 34.4236C32.6309 27.186 31.7241 17.3007 33.2629 11.1213C33.4094 10.5396 33.2858 9.90745 32.8873 9.46312C31.8431 8.29961 31.2707 10.7228 31.1699 11.6344C31.0371 12.8254 31.0646 26.2973 31.1562 27.5158Z" fill="url(#paint8_linear)"/>
<path d="M21.41 20.4894C21.4833 24.5846 21.8268 28.9959 22.152 33.2285C22.4085 36.5358 23.21 43.7596 22.3856 43.8192C26.6999 43.8741 21.6528 26.2474 23.2878 14.8047C21.9642 15.7117 21.3642 18.002 21.41 20.4894Z" fill="url(#paint9_linear)"/>
<path d="M21.5062 43.8005C21.8223 43.9104 22.0421 43.9104 22.1841 43.8234C21.4696 43.7822 21.0116 43.1775 20.7459 41.2307C20.4574 39.1098 20.2238 33.5717 19.6467 30.4614C19.3948 29.0963 18.9322 28.0611 18.2773 27.3877C18.7445 28.8948 18.0758 28.7161 18.8361 32.3899C19.2483 34.3596 19.4406 43.0767 21.5062 43.8005Z" fill="url(#paint10_linear)"/>
<path d="M28.2341 30.0499C28.1517 33.4626 28.5044 39.5184 30.7302 39.8482C30.2173 39.642 29.5028 38.6434 29.4112 35.7667C29.3196 32.9449 29.3562 25.0661 28.8387 21.035C28.4219 17.7689 27.6525 15.5931 26.0908 14.7686C28.8112 19.2989 28.312 26.8251 28.2341 30.0499Z" fill="url(#paint11_linear)"/>
<path d="M37.4262 22.9868C37.5865 28.0943 36.5973 37.0909 39.4184 37.8055C39.0108 37.6269 38.6902 36.6008 38.6124 35.5885C38.5299 34.457 38.649 23.4541 38.6124 21.0446C38.562 17.9114 39.4321 13.1245 38.1223 10.3027C38.823 13.8711 37.2934 18.8504 37.4262 22.9868Z" fill="url(#paint12_linear)"/>
<path d="M47.2455 42.7017C47.2455 42.7017 47.2501 42.7017 47.2455 42.7017C46.8883 40.645 47.0531 38.1347 47.3554 36.1238C47.8546 32.8073 48.2622 21.0942 48.6011 17.9656C48.7065 17.0128 48.6057 16.202 48.363 15.5332C48.2118 16.9807 47.4562 18.584 47.4974 21.4149C47.5707 25.959 45.8486 42.9399 47.2455 42.7017Z" fill="url(#paint13_linear)"/>
<path d="M35.0675 71.9635C36.0019 69.1601 35.8461 66.8331 33.0295 66.4666C25.3535 65.4634 20.6544 59.5131 18.5202 47.7085C16.6149 37.1773 16.505 30.7231 14.5722 26.7607C12.3922 27.8006 13.1021 33.1051 13.2028 34.4381C13.3586 36.5681 14.3112 44.96 14.8883 47.2183C15.873 51.0845 14.8974 62.2203 21.4376 67.8638C25.0924 71.0153 30.1991 72.2155 35.0675 71.9635Z" fill="url(#paint14_linear)"/>
<path d="M57.3121 52.5362C60.9532 48.5052 65.6339 49.1236 67.4063 47.0668C67.9285 46.4621 67.9971 45.7476 67.8277 45.0375C66.9941 47.108 64.466 47.4058 60.4403 48.1479C56.0802 48.9495 52.1094 52.6095 50.0484 57.9232C47.992 63.2369 41.3328 67.2725 36.8582 66.5076C32.3836 65.7426 21.7444 70.1722 18.1537 51.698C18.1537 51.6934 18.1537 51.6888 18.1492 51.6842C18.0118 50.4611 17.824 49.316 17.5034 48.3036C15.305 41.2951 14.8791 36.3341 14.7554 32.3626C14.728 31.5838 15.0944 28.9866 13.3402 28.4277C12.7265 30.4295 13.1158 33.4711 13.1891 34.4331C13.3448 36.5631 14.2974 44.9551 14.8745 47.2134C14.9478 47.5066 15.0119 47.8455 15.0669 48.2212C15.0806 48.3174 15.0943 48.4181 15.1081 48.5189C15.1127 48.5464 15.1172 48.5693 15.1172 48.5968C15.1264 48.6609 15.1356 48.7251 15.1401 48.7938C15.1401 48.8075 15.1447 48.8258 15.1447 48.8396C15.4607 51.4414 15.5798 55.3992 16.5691 59.2654V59.27C16.6561 59.6089 16.7477 59.9479 16.8484 60.2869C16.8484 60.2915 16.853 60.2961 16.853 60.3006C16.9538 60.635 17.0591 60.9648 17.1782 61.2992C17.1782 61.3038 17.1782 61.3038 17.1828 61.3084C18.0484 63.7728 19.3583 66.0907 21.4147 67.8681C28.9807 74.4002 42.7984 72.5496 47.7951 66.7595C52.8147 60.9603 53.0116 57.3002 57.3121 52.5362Z" fill="url(#paint15_radial)"/>
<path opacity="0.16" d="M52.4255 52.9948C53.5979 54.4011 49.6638 60.3424 46.6777 62.8252C43.6915 65.3079 40.3207 66.1829 39.1482 64.772C37.9758 63.3611 40.6321 59.8339 42.9541 56.7144C46.9524 51.3412 51.253 51.5885 52.4255 52.9948Z" fill="url(#paint16_radial)"/>
<path opacity="0.16" d="M19.1568 51.6573C17.8561 53.2193 21.8085 62.2251 25.7015 64.4925C29.599 66.76 34.4813 66.0637 35.4339 64.2635C36.3865 62.4633 32.3333 59.6598 29.022 56.5587C23.3062 51.2083 20.4575 50.0952 19.1568 51.6573Z" fill="url(#paint17_radial)"/>
<defs>
<linearGradient id="paint0_linear" x1="22.8841" y1="75.8093" x2="39.6215" y2="49.0342" gradientUnits="userSpaceOnUse">
<stop offset="0.00132565" stop-color="#99643E"/>
<stop offset="1" stop-color="#AE7246"/>
</linearGradient>
<linearGradient id="paint1_linear" x1="0.215273" y1="61.6396" x2="16.953" y2="34.8646" gradientUnits="userSpaceOnUse">
<stop offset="0.00132565" stop-color="#99643E"/>
<stop offset="1" stop-color="#AE7246"/>
</linearGradient>
<linearGradient id="paint2_linear" x1="250.858" y1="-231.985" x2="226.648" y2="-203.933" gradientUnits="userSpaceOnUse">
<stop offset="0.00132565" stop-color="#99643E"/>
<stop offset="1" stop-color="#AE7246"/>
</linearGradient>
<linearGradient id="paint3_linear" x1="259.973" y1="-224.118" x2="235.762" y2="-196.065" gradientUnits="userSpaceOnUse">
<stop offset="0.00132565" stop-color="#99643E"/>
<stop offset="1" stop-color="#AE7246"/>
</linearGradient>
<linearGradient id="paint4_linear" x1="253.101" y1="-230.052" x2="228.89" y2="-201.999" gradientUnits="userSpaceOnUse">
<stop offset="0.00132565" stop-color="#99643E"/>
<stop offset="1" stop-color="#AE7246"/>
</linearGradient>
<linearGradient id="paint5_linear" x1="35.7156" y1="39.6857" x2="20.6344" y2="38.4666" gradientUnits="userSpaceOnUse">
<stop stop-color="#FFBC47" stop-opacity="0"/>
<stop offset="1" stop-color="#FFA754"/>
</linearGradient>
<linearGradient id="paint6_linear" x1="61.3838" y1="36.5432" x2="44.7002" y2="64.56" gradientUnits="userSpaceOnUse">
<stop stop-color="#8D562E" stop-opacity="0"/>
<stop offset="1" stop-color="#804B24"/>
</linearGradient>
<linearGradient id="paint7_linear" x1="41.95" y1="3.59692" x2="41.95" y2="45.6962" gradientUnits="userSpaceOnUse">
<stop stop-color="#8D562E" stop-opacity="0"/>
<stop offset="1" stop-color="#804B24"/>
</linearGradient>
<linearGradient id="paint8_linear" x1="32.1988" y1="3.59576" x2="32.1988" y2="45.695" gradientUnits="userSpaceOnUse">
<stop stop-color="#8D562E" stop-opacity="0"/>
<stop offset="1" stop-color="#804B24"/>
</linearGradient>
<linearGradient id="paint9_linear" x1="22.7898" y1="3.59616" x2="22.7898" y2="45.6955" gradientUnits="userSpaceOnUse">
<stop stop-color="#8D562E" stop-opacity="0"/>
<stop offset="1" stop-color="#804B24"/>
</linearGradient>
<linearGradient id="paint10_linear" x1="20.2332" y1="3.59591" x2="20.2332" y2="45.6951" gradientUnits="userSpaceOnUse">
<stop stop-color="#8D562E" stop-opacity="0"/>
<stop offset="1" stop-color="#804B24"/>
</linearGradient>
<linearGradient id="paint11_linear" x1="28.412" y1="3.59667" x2="28.412" y2="45.696" gradientUnits="userSpaceOnUse">
<stop stop-color="#8D562E" stop-opacity="0"/>
<stop offset="1" stop-color="#804B24"/>
</linearGradient>
<linearGradient id="paint12_linear" x1="38.4015" y1="3.5971" x2="38.4015" y2="45.6964" gradientUnits="userSpaceOnUse">
<stop stop-color="#8D562E" stop-opacity="0"/>
<stop offset="1" stop-color="#804B24"/>
</linearGradient>
<linearGradient id="paint13_linear" x1="47.671" y1="3.5963" x2="47.671" y2="45.6958" gradientUnits="userSpaceOnUse">
<stop stop-color="#8D562E" stop-opacity="0"/>
<stop offset="1" stop-color="#804B24"/>
</linearGradient>
<linearGradient id="paint14_linear" x1="22.061" y1="50.4013" x2="2.84399" y2="57.6334" gradientUnits="userSpaceOnUse">
<stop offset="0.3118" stop-color="#F0C492" stop-opacity="0"/>
<stop offset="1" stop-color="#F0C492"/>
</linearGradient>
<radialGradient id="paint15_radial" cx="0" cy="0" r="1" gradientUnits="userSpaceOnUse" gradientTransform="translate(34.6631 40.995) rotate(88.7617) scale(39.96 30.0139)">
<stop offset="0.0267523" stop-color="#8D562E" stop-opacity="0"/>
<stop offset="0.6147" stop-color="#8D562E" stop-opacity="0"/>
<stop offset="1" stop-color="#804B24"/>
</radialGradient>
<radialGradient id="paint16_radial" cx="0" cy="0" r="1" gradientUnits="userSpaceOnUse" gradientTransform="translate(45.7226 58.7054) rotate(-39.7711) scale(8.81773 4.09285)">
<stop stop-color="#F8DBBA"/>
<stop offset="1" stop-color="#CD9870" stop-opacity="0"/>
</radialGradient>
<radialGradient id="paint17_radial" cx="0" cy="0" r="1" gradientUnits="userSpaceOnUse" gradientTransform="translate(26.8776 59.4173) rotate(-138.962) scale(11.3474 5.17767)">
<stop stop-color="#F8DBBA"/>
<stop offset="1" stop-color="#CD9870" stop-opacity="0"/>
</radialGradient>
</defs>
</svg>
