<svg width="80" height="80" viewBox="0 0 80 80" fill="none" xmlns="http://www.w3.org/2000/svg">
<path d="M57.4792 26.2703C56.8618 24.083 55.5138 23.4042 54.8823 23.1968C54.6702 23.1308 54.5382 23.1119 54.5382 23.1119L42.501 18.6997L25.2605 27.6043L29.0828 39.0262C32.7826 38.4794 36.4871 38.4228 40.2057 38.4746C46.7616 38.5689 53.3599 39.0073 60.0478 37.7016C60.1373 33.7136 58.1956 28.8252 57.4792 26.2703Z" fill="url(#paint0_linear)"/>
<path d="M60.9856 35.8679C55.9473 35.651 53.5201 33.3742 53.0865 27.1612C53.0393 26.4636 49.4715 9.68671 59.369 9.46987C68.2626 9.2766 68.2013 14.6646 67.8196 23.6352C67.4331 32.6058 65.3263 36.0564 60.9856 35.8679Z" fill="url(#paint1_linear)"/>
<path d="M60.6793 26.595C53.0111 26.2698 51.1023 9.57777 59.5905 9.46464C66.8864 9.37036 66.6649 14.584 66.6272 19.0198C66.5753 25.4024 64.2424 26.7506 60.6793 26.595Z" fill="url(#paint2_linear)"/>
<path d="M57.9928 35.3729C58.8694 35.6511 59.8498 35.8208 60.9856 35.8726C65.3264 36.0565 67.4331 32.6059 67.8196 23.64C68.1872 14.9946 68.2344 9.69147 60.2739 9.48877C63.3233 11.4545 65.6987 15.73 65.3782 23.2629C64.9163 33.9729 62.3995 35.5379 57.9928 35.3729Z" fill="url(#paint3_linear)"/>
<path d="M63.5354 9.93604C64.6288 10.2472 65.6893 10.8364 66.401 11.7697C67.1221 12.6843 67.5179 13.8109 67.7489 14.9375C68.2061 17.2096 68.1306 19.5242 68.0458 21.8057C67.9374 24.0872 67.8526 26.3876 67.4473 28.6503C67.2446 29.777 66.9854 30.9036 66.58 31.9831C66.1747 33.0437 65.5856 34.1232 64.6147 34.7643C65.496 34.0195 66.0003 32.9683 66.3962 31.9124C66.7921 30.847 67.0466 29.7345 67.2304 28.6126C67.6075 26.3641 67.6829 24.0825 67.7395 21.7963C67.7819 19.5194 67.8714 17.2238 67.5038 14.9846C67.3059 13.8769 66.9477 12.7738 66.269 11.8687C65.5997 10.959 64.6194 10.299 63.5354 9.93604Z" fill="#663C1D"/>
<path d="M11.5689 40.1104C11.5689 43.2593 13.1101 44.6735 13.883 45.1873C14.1422 45.357 14.3119 45.4277 14.3119 45.4277L28.7104 55.8408L55.0659 50.4386L54.26 33.7607C49.1133 33.1008 44.1504 31.7856 39.2111 30.3149C30.4966 27.7222 26.7167 12.8168 12.4408 23.8898C10.8148 29.1788 11.5689 36.4383 11.5689 40.1104Z" fill="url(#paint4_linear)"/>
<path d="M39.6354 40.6051C46.1253 39.9216 50.2446 45.2342 50.7583 47.9966L52.8792 47.2235L51.913 36.6171L53.3835 26.9724L52.8603 23.107L39.395 23.1683L39.2018 23.1966L39.0133 20.2079L38.8625 23.2437L26.5236 24.9832L24.7468 19.4113C24.6996 19.4113 24.2519 19.4066 24.2048 19.4019L15.264 20.3164C14.2978 20.6746 13.6003 21.146 13.2845 21.7683C12.0968 24.0875 11.6444 27.0997 11.4841 30.1072C12.8792 32.912 16.0134 34.3686 18.7517 34.3686C21.966 34.3686 23.8937 31.9268 25.0531 29.8668C25.0531 29.8668 25.2652 33.5955 30.4307 35.0097C30.426 35.0097 34.2625 41.1708 39.6354 40.6051Z" fill="url(#paint5_linear)"/>
<path d="M18.6715 33.0818C14.8822 33.0818 11.7527 29.9942 11.2296 24.2102C10.7064 18.4262 10.5745 12.251 16.5836 12.251C22.5928 12.251 24.2895 14.5655 24.6807 22.2822C25.0719 29.9989 22.5928 33.0818 18.6715 33.0818Z" fill="url(#paint6_linear)"/>
<path d="M33.0228 33.9825C28.3474 33.9825 26.0098 31.9272 25.3593 26.0772C25.2887 25.422 21.3202 9.71988 30.4777 9.1165C38.7068 8.57439 38.6785 13.6702 38.8623 22.1552C38.8953 23.6307 38.8246 25.026 38.6549 26.3082C38.6361 26.459 38.4193 26.7183 38.3957 26.8644C37.7359 31.1918 36.0628 33.9825 33.0228 33.9825Z" fill="url(#paint7_linear)"/>
<path d="M32.759 25.8834C29.1865 27.6841 26.7875 27.7219 25.2605 25.2659C25.2982 25.544 25.3359 25.8222 25.3642 26.0814C26.0146 31.9361 28.3523 33.9866 33.0277 33.9866C36.3174 33.9866 38.1319 31.7523 38.6834 26.3124C37.7596 24.7238 34.8658 24.8228 32.759 25.8834Z" fill="url(#paint8_linear)"/>
<path d="M18.5442 25.6245C15.3582 25.6245 12.7189 23.6446 12.2806 19.93C11.8422 16.2154 11.7291 12.251 16.7863 12.251C21.8434 12.251 23.2714 13.7359 23.6014 18.6902C23.9313 23.6446 21.8434 25.6245 18.5442 25.6245Z" fill="url(#paint9_linear)"/>
<path d="M32.3725 25.2377C25.2558 25.2377 22.8285 9.54975 30.6852 9.10192C37.4391 8.71538 37.4391 13.6509 37.5805 17.8416C37.7831 23.8754 35.6764 25.2377 32.3725 25.2377Z" fill="url(#paint10_linear)"/>
<path d="M30.2327 33.6328C31.0527 33.859 31.9718 33.9816 33.0228 33.9816C37.0478 33.9816 38.867 30.6394 38.867 22.1544C38.867 13.9757 38.6974 8.96479 31.3214 9.09678C34.2247 10.8315 36.5906 14.7723 36.5906 21.8998C36.5906 32.0347 34.3189 33.6139 30.2327 33.6328Z" fill="url(#paint11_linear)"/>
<path d="M18.7093 29.4847C14.8587 29.4847 11.6726 26.4206 11.0128 20.7026C11.0364 21.8528 11.1259 23.0407 11.2296 24.2145C11.7528 29.9985 14.887 33.0861 18.6716 33.0861C22.3478 33.0861 24.7232 30.319 24.6855 23.6111C23.9031 27.7264 21.7162 29.4847 18.7093 29.4847Z" fill="url(#paint12_linear)"/>
<path d="M24.6807 22.2821C24.3084 14.9331 22.7389 12.4913 17.399 12.2744C20.1986 12.7317 25.6233 23.5266 18.1579 33.0298C18.3322 33.044 18.4972 33.0817 18.6763 33.0817C22.5928 33.0817 25.0719 29.9988 24.6807 22.2821Z" fill="url(#paint13_linear)"/>
<path d="M24.4357 19.4019C24.7137 21.8531 25.0059 24.3515 24.6242 26.8263C24.4498 28.0566 24.1434 29.2916 23.5402 30.4041C22.9652 31.526 21.9613 32.45 20.7642 32.9072C18.3369 33.7133 15.4997 32.9779 13.8218 31.0735C12.0733 29.2162 11.404 26.6566 11.2296 24.21C11.5313 26.6424 12.2806 29.1361 13.9821 30.9179C15.6316 32.7422 18.3699 33.3786 20.6463 32.5914C21.7728 32.1813 22.7248 31.3422 23.2951 30.2674C23.8889 29.2068 24.2141 28.0047 24.4027 26.7933C24.7986 24.3562 24.5912 21.8672 24.4357 19.4019Z" fill="#663C1D"/>
<path d="M31.1753 33.8268C30.4118 33.9588 29.7001 33.6524 29.045 33.313C28.3899 32.9688 27.796 32.4927 27.3106 31.9318C26.3303 30.8051 25.8118 29.3768 25.496 27.9626C25.2038 26.5296 25.152 25.0919 24.9399 23.6682C24.7561 22.2399 24.5817 20.8069 24.5016 19.3691C24.6665 20.8022 24.8975 22.2211 25.1237 23.6447C25.3876 25.0636 25.496 26.5155 25.8212 27.8966C26.137 29.2778 26.6555 30.6449 27.5887 31.6961C28.0458 32.2193 28.602 32.6577 29.2241 32.9783C29.8509 33.3035 30.5249 33.4261 31.1753 33.8268Z" fill="#663C1D"/>
<path d="M39.6353 40.6051C34.2671 41.1707 30.426 35.0096 30.426 35.0096C25.2604 33.5954 25.0483 29.8667 25.0483 29.8667C23.8936 31.922 21.9613 34.3685 18.7469 34.3685C16.0133 34.3685 12.8744 32.9119 11.4841 30.1071C11.5171 29.4849 11.5736 28.8626 11.6349 28.2451H11.6113C11.4369 29.9374 11.3945 31.6674 11.4039 33.322C14.1658 36.4898 18.5018 36.9423 21.2684 36.1268C22.0178 35.9053 25.5149 33.2655 28.2155 35.9194C31.1471 38.7996 34.5499 42.4765 40.3988 42.3492C46.2478 42.2219 50.7582 48.0059 50.7582 48.0059C50.2445 45.2341 46.1252 39.9215 39.6353 40.6051Z" fill="url(#paint14_linear)"/>
<path d="M46.6444 31.9928C41.9502 31.842 39.3438 28.5092 39.1883 24.2573C38.9574 17.9076 36.7564 8.26762 45.386 8.00835C53.6622 7.76323 52.795 12.9344 52.861 20.9764C52.9411 30.8191 50.6882 32.1201 46.6444 31.9928Z" fill="url(#paint15_linear)"/>
<path d="M46.6437 23.3094C43.0005 25.1195 40.5874 25.0818 39.1357 22.4043C39.164 22.7013 39.1923 23.003 39.2111 23.2764C39.6683 29.5553 41.9447 31.8274 46.6343 31.9783C49.9334 32.0867 51.8281 29.7533 52.568 23.9552C51.7008 22.2346 48.7928 22.244 46.6437 23.3094Z" fill="url(#paint16_linear)"/>
<path d="M45.965 23.7664C42.1144 23.6439 40.6769 23.3186 40.1632 18.8687C39.8993 16.5777 38.5136 8.21048 45.5974 8.00778C52.3842 7.81451 51.6678 13.4382 51.6678 17.9259C51.6678 24.3745 49.2783 23.8749 45.965 23.7664Z" fill="url(#paint17_linear)"/>
<path d="M43.8583 31.5687C44.6784 31.8091 45.5927 31.9693 46.6484 31.9882C52.2853 32.0825 52.6105 29.009 52.865 20.9718C53.1101 13.2268 53.6426 8.12632 46.2337 8.01318C49.0945 9.74791 50.8007 13.9056 50.5886 20.6559C50.2822 30.2582 47.954 31.6818 43.8583 31.5687Z" fill="url(#paint18_linear)"/>
<path d="M44.4473 31.7523C43.6084 31.856 42.8449 31.4601 42.1662 31.017C41.4875 30.5597 40.9267 29.9422 40.5119 29.2445C39.6824 27.8398 39.3619 26.237 39.1875 24.672C39.0131 23.0928 39.0461 21.5089 39.0179 19.9392C38.9849 18.3648 38.9707 16.7903 38.7445 15.23C39.0414 16.7809 39.1263 18.36 39.1922 19.9345C39.2677 21.5089 39.2724 23.0834 39.4986 24.6343C39.7154 26.171 40.0265 27.7408 40.8277 29.0559C41.2236 29.7112 41.7514 30.2769 42.383 30.6964C43.0146 31.1395 43.7545 31.2951 44.4473 31.7523Z" fill="#663C1D"/>
<path d="M49.2689 8.43262C50.0984 8.68717 50.8997 9.13027 51.4794 9.80908C52.0591 10.4832 52.4267 11.3175 52.6482 12.166C53.096 13.8772 53.1289 15.6543 53.1384 17.3985C53.1007 19.1473 53.0253 20.8915 52.9451 22.6356C52.9122 23.503 52.9027 24.3798 52.8414 25.2566C52.8037 25.695 52.7802 26.1334 52.6812 26.567C52.6341 26.7839 52.5728 27.0007 52.4597 27.2034C52.356 27.392 52.1628 27.6183 51.9271 27.5664C52.3843 27.458 52.3984 26.9159 52.4974 26.5293C52.5634 26.1051 52.6152 25.6761 52.6341 25.2424C52.6765 24.3751 52.6623 23.503 52.6765 22.6262L52.8085 17.3938C52.8367 15.6591 52.8509 13.9008 52.455 12.2179C52.257 11.3788 51.9177 10.568 51.3757 9.89393C50.8478 9.2057 50.0843 8.72959 49.2689 8.43262Z" fill="#663C1D"/>
<path d="M34.3567 9.38965C35.1485 9.58763 35.9214 9.92704 36.553 10.4644C37.1892 11.0018 37.6511 11.723 37.981 12.4773C38.6267 14.014 38.8152 15.678 38.9378 17.3091C39.0179 18.9495 39.0226 20.5852 38.999 22.221C38.9943 23.0365 39.0132 23.8567 38.9802 24.677C38.9566 25.0871 38.9472 25.5019 38.8577 25.912C38.8152 26.1147 38.7587 26.3221 38.655 26.5107C38.5607 26.6945 38.3581 26.8831 38.1413 26.8406C38.5654 26.7322 38.589 26.242 38.6739 25.8743C38.7304 25.4783 38.7681 25.0729 38.7728 24.6675C38.787 23.8567 38.7493 23.0412 38.7351 22.221C38.7021 20.5852 38.7163 18.9542 38.6126 17.3279C38.5277 15.711 38.3864 14.0659 37.7972 12.5574C37.2317 11.0442 35.945 9.83276 34.3567 9.38965Z" fill="#663C1D"/>
<path d="M53.784 29.8337L53.3504 27.0053C53.176 26.0672 52.9497 25.1292 52.8602 24.177C52.634 22.2772 52.6198 20.3351 52.9545 18.4448C52.9874 20.3587 53.0817 22.249 53.2043 24.1487C53.2844 25.0962 53.3174 26.0484 53.4258 27.0006L53.784 29.8337Z" fill="#663C1D"/>
<path d="M30.4261 30.8523C30.4261 27.4253 32.8533 27.3121 39.3385 26.737C43.9809 26.3269 49.0239 25.106 55.4526 27.595C62.7861 30.4327 69.6814 34.5386 69.7662 41.9111C69.8416 48.5106 64.7091 72.0001 42.2559 72.0001C19.8028 72.0001 12.2571 59.9984 11.5737 40.1104L50.763 47.9968C50.763 47.9968 51.5972 40.9872 46.7993 38.9084C44.7538 38.0222 40.3707 38.7387 37.458 38.7387C34.5453 38.7387 30.4261 35.4813 30.4261 30.8523Z" fill="url(#paint19_linear)"/>
<path d="M58.2804 57.1274C48.7694 64.071 49.5376 67.927 40.6676 67.927C31.7976 67.927 26.0759 63.2319 22.0274 59.1826C17.9788 55.1334 14.5713 48.383 12.8981 43.2401C12.5022 42.0239 12.045 41.0104 11.5737 40.1525C12.2666 60.017 19.8122 71.9998 42.2559 71.9998C64.7091 71.9998 69.8463 48.5103 69.7662 41.9108C69.7332 39.0259 68.6445 36.6453 66.9054 34.6372C67.4002 44.0698 66.0947 51.4235 58.2804 57.1274Z" fill="url(#paint20_radial)"/>
<path d="M53.0488 41.142C52.8791 37.0267 47.822 32.9114 43.6226 33.3404C39.9936 33.7128 33.433 34.2031 30.4967 31.5161C30.8738 35.7822 34.6819 38.7426 37.4532 38.7426C40.3659 38.7426 44.7491 38.0261 46.7945 38.9123C51.5925 40.9911 50.7582 48.0008 50.7582 48.0008C50.7582 48.0008 53.2232 45.2572 53.0488 41.142Z" fill="url(#paint21_linear)"/>
<path d="M69.7615 41.9107C69.6766 34.5382 62.7861 30.4323 55.4478 27.5946C49.0192 25.1103 43.9762 26.3265 39.3338 26.7366C34.3851 27.175 31.8117 27.3541 30.8644 28.9333C36.9631 27.4249 42.6801 26.812 49.7214 27.6181C58.9025 28.6693 65.8402 34.326 67.1033 38.6534C68.3475 42.9289 68.1684 50.8955 68.1637 51.084C69.3514 47.2563 69.785 43.8529 69.7615 41.9107Z" fill="url(#paint22_radial)"/>
<path d="M50.7582 47.9965C50.8807 46.3278 50.7488 44.626 50.2209 43.0374C49.7166 41.463 48.7127 39.9781 47.2187 39.2286C45.7623 38.4084 43.9902 38.5639 42.3454 38.5922C40.6722 38.6582 39.0085 38.8515 37.3165 38.8373C35.5868 38.7478 34.0221 37.8333 32.8061 36.6642C31.6042 35.4716 30.7088 33.9301 30.4165 32.2426C30.261 31.4035 30.2233 30.5408 30.393 29.6876C30.5768 28.8297 31.2225 28.0613 32.0284 27.736C33.6309 27.0525 35.337 26.9724 36.996 26.7791C40.3423 26.567 43.6462 25.9636 47.0254 25.94C48.708 25.9353 50.4 26.0862 52.0449 26.4444C53.6945 26.7933 55.2875 27.3778 56.8334 28.0283C59.9157 29.3341 62.9604 30.8708 65.496 33.1052C66.745 34.2271 67.8479 35.5423 68.6019 37.0508C69.3655 38.5545 69.7472 40.2327 69.7567 41.9108C69.7189 40.2327 69.3089 38.5686 68.5265 37.0885C67.7536 35.6036 66.6413 34.3214 65.3876 33.2278C62.8614 31.0311 59.8262 29.5179 56.7485 28.2357C53.685 26.8923 50.3717 26.1522 47.0254 26.2182C43.6933 26.2606 40.3706 26.8828 37.0243 27.1091C35.3747 27.2882 33.6591 27.3778 32.1557 28.0142C31.3969 28.3206 30.8549 28.9711 30.671 29.7583C30.5061 30.5456 30.5391 31.394 30.6852 32.2001C30.9585 33.8264 31.8163 35.3302 32.9757 36.4945C34.1446 37.6353 35.6716 38.5309 37.3165 38.6205C38.9802 38.6441 40.6534 38.4602 42.3312 38.3989C43.1701 38.3659 44.0138 38.3565 44.8527 38.4178C45.6822 38.4885 46.5636 38.6252 47.2894 39.0872C48.8117 39.8838 49.8062 41.4206 50.2916 43.0139C50.8053 44.6213 50.9043 46.3325 50.7582 47.9965Z" fill="#663C1D"/>
<path opacity="0.08" d="M15.707 40.7889C13.6474 43.2684 19.9158 57.5705 26.1041 61.1719C32.2923 64.7733 40.0454 63.6703 41.5583 60.8042C43.0712 57.9382 36.6378 53.4929 31.378 48.5669C22.2959 40.0724 17.7666 38.3094 15.707 40.7889Z" fill="url(#paint23_radial)"/>
<path opacity="0.08" d="M66.1323 42.6183C67.2304 41.1429 61.7491 31.9884 57.3754 29.5231C53.0016 27.0577 44.3861 28.5237 43.6839 30.2537C42.9816 31.9884 51.2814 33.94 55.1885 37.202C61.9235 42.8352 65.0341 44.0985 66.1323 42.6183Z" fill="url(#paint24_radial)"/>
<defs>
<linearGradient id="paint0_linear" x1="41.7344" y1="26.4909" x2="41.3455" y2="24.2131" gradientUnits="userSpaceOnUse">
<stop offset="0.00132565" stop-color="#99643E"/>
<stop offset="1" stop-color="#AE7246"/>
</linearGradient>
<linearGradient id="paint1_linear" x1="60.6367" y1="9.48145" x2="59.5117" y2="35.8063" gradientUnits="userSpaceOnUse">
<stop offset="0.00132565" stop-color="#99643E"/>
<stop offset="1" stop-color="#AE7246"/>
</linearGradient>
<linearGradient id="paint2_linear" x1="62.2507" y1="-11.1139" x2="58.4166" y2="46.8874" gradientUnits="userSpaceOnUse">
<stop offset="0.00132565" stop-color="#99643E"/>
<stop offset="1" stop-color="#AE7246"/>
</linearGradient>
<linearGradient id="paint3_linear" x1="50.3755" y1="16.1776" x2="111.514" y2="55.159" gradientUnits="userSpaceOnUse">
<stop stop-color="#8D562E" stop-opacity="0"/>
<stop offset="1" stop-color="#8D562E"/>
</linearGradient>
<linearGradient id="paint4_linear" x1="6.51495" y1="59.3633" x2="38.0146" y2="33.7014" gradientUnits="userSpaceOnUse">
<stop offset="0.00132565" stop-color="#99643E"/>
<stop offset="1" stop-color="#AE7246"/>
</linearGradient>
<linearGradient id="paint5_linear" x1="24.7874" y1="62.5139" x2="38.9566" y2="14.0139" gradientUnits="userSpaceOnUse">
<stop stop-color="#473226" stop-opacity="0"/>
<stop offset="1" stop-color="#3D2A20"/>
</linearGradient>
<linearGradient id="paint6_linear" x1="18.2733" y1="12.3059" x2="17.3874" y2="33.0345" gradientUnits="userSpaceOnUse">
<stop offset="0.00132565" stop-color="#99643E"/>
<stop offset="1" stop-color="#AE7246"/>
</linearGradient>
<linearGradient id="paint7_linear" x1="32.1548" y1="9.08772" x2="31.0938" y2="33.9149" gradientUnits="userSpaceOnUse">
<stop offset="0.00132565" stop-color="#99643E"/>
<stop offset="1" stop-color="#AE7246"/>
</linearGradient>
<linearGradient id="paint8_linear" x1="31.9688" y1="20.2734" x2="31.9688" y2="51.8403" gradientUnits="userSpaceOnUse">
<stop stop-color="#8D562E" stop-opacity="0"/>
<stop offset="1" stop-color="#8D562E"/>
</linearGradient>
<linearGradient id="paint9_linear" x1="20.0014" y1="-13.9065" x2="16.1672" y2="44.0952" gradientUnits="userSpaceOnUse">
<stop offset="0.00132565" stop-color="#99643E"/>
<stop offset="1" stop-color="#AE7246"/>
</linearGradient>
<linearGradient id="paint10_linear" x1="33.7055" y1="-13.0007" x2="29.8714" y2="45.0009" gradientUnits="userSpaceOnUse">
<stop offset="0.00132565" stop-color="#99643E"/>
<stop offset="1" stop-color="#AE7246"/>
</linearGradient>
<linearGradient id="paint11_linear" x1="27.9779" y1="22.7427" x2="79.4713" y2="9.24687" gradientUnits="userSpaceOnUse">
<stop stop-color="#8D562E" stop-opacity="0"/>
<stop offset="1" stop-color="#8D562E"/>
</linearGradient>
<linearGradient id="paint12_linear" x1="17.7228" y1="20.2644" x2="19.3527" y2="47.2823" gradientUnits="userSpaceOnUse">
<stop stop-color="#8D562E" stop-opacity="0"/>
<stop offset="1" stop-color="#8D562E"/>
</linearGradient>
<linearGradient id="paint13_linear" x1="17.4836" y1="26.9471" x2="36.8195" y2="-10.2177" gradientUnits="userSpaceOnUse">
<stop stop-color="#8D562E" stop-opacity="0"/>
<stop offset="1" stop-color="#8D562E"/>
</linearGradient>
<linearGradient id="paint14_linear" x1="31.0793" y1="60.9222" x2="31.0793" y2="20.1558" gradientUnits="userSpaceOnUse">
<stop offset="0.3072" stop-color="#8D562E" stop-opacity="0"/>
<stop offset="1" stop-color="#804B24"/>
</linearGradient>
<linearGradient id="paint15_linear" x1="46.3052" y1="7.99929" x2="45.2824" y2="31.9331" gradientUnits="userSpaceOnUse">
<stop offset="0.00132565" stop-color="#99643E"/>
<stop offset="1" stop-color="#AE7246"/>
</linearGradient>
<linearGradient id="paint16_linear" x1="46.0442" y1="17.2946" x2="44.9713" y2="51.0448" gradientUnits="userSpaceOnUse">
<stop stop-color="#8D562E" stop-opacity="0"/>
<stop offset="1" stop-color="#8D562E"/>
</linearGradient>
<linearGradient id="paint17_linear" x1="47.675" y1="-12.0777" x2="43.8409" y2="45.9237" gradientUnits="userSpaceOnUse">
<stop offset="0.00132565" stop-color="#99643E"/>
<stop offset="1" stop-color="#AE7246"/>
</linearGradient>
<linearGradient id="paint18_linear" x1="48.0615" y1="23.782" x2="58.2301" y2="-25.4685" gradientUnits="userSpaceOnUse">
<stop stop-color="#8D562E" stop-opacity="0"/>
<stop offset="1" stop-color="#8D562E"/>
</linearGradient>
<linearGradient id="paint19_linear" x1="14.9131" y1="69.6717" x2="46.4127" y2="44.0099" gradientUnits="userSpaceOnUse">
<stop offset="0.00132565" stop-color="#99643E"/>
<stop offset="1" stop-color="#AE7246"/>
</linearGradient>
<radialGradient id="paint20_radial" cx="0" cy="0" r="1" gradientUnits="userSpaceOnUse" gradientTransform="translate(40.6594 31.0904) scale(38.5814 48.6773)">
<stop offset="0.6147" stop-color="#8D562E" stop-opacity="0"/>
<stop offset="1" stop-color="#804B24"/>
</radialGradient>
<linearGradient id="paint21_linear" x1="41.7779" y1="21.4206" x2="41.7779" y2="61.9304" gradientUnits="userSpaceOnUse">
<stop stop-color="#8D562E" stop-opacity="0"/>
<stop offset="1" stop-color="#804B24"/>
</linearGradient>
<radialGradient id="paint22_radial" cx="0" cy="0" r="1" gradientUnits="userSpaceOnUse" gradientTransform="translate(45.9743 48.0733) scale(28.9424 28.9475)">
<stop offset="0.6147" stop-color="#8D562E" stop-opacity="0"/>
<stop offset="1" stop-color="#804B24"/>
</radialGradient>
<radialGradient id="paint23_radial" cx="0" cy="0" r="1" gradientUnits="userSpaceOnUse" gradientTransform="translate(27.9586 53.1092) rotate(-138.962) scale(18.0171 8.22102)">
<stop stop-color="#F8DBBA"/>
<stop offset="1" stop-color="#CD9870" stop-opacity="0"/>
</radialGradient>
<radialGradient id="paint24_radial" cx="0" cy="0" r="1" gradientUnits="userSpaceOnUse" gradientTransform="translate(55.5882 33.7093) rotate(38.2205) scale(13.8925 5.11546)">
<stop stop-color="#F8DBBA"/>
<stop offset="1" stop-color="#CD9870" stop-opacity="0"/>
</radialGradient>
</defs>
</svg>
