<svg width="80" height="80" viewBox="0 0 80 80" fill="none" xmlns="http://www.w3.org/2000/svg">
<path d="M40.2419 34.9609C40.2747 36.2939 40.0361 37.7953 39.5544 37.8327C39.0726 37.8701 38.6844 36.7149 38.6002 35.583C38.5161 34.4511 31.505 39.6474 31.0841 39.8532C30.7661 40.0076 27.4172 40.4846 24.9477 41.5604C24.1245 41.9205 22.5717 43.8054 22.3659 43.8194C21.5381 43.8802 21.0189 43.3517 20.7336 41.2283C20.4483 39.1049 14.2979 44.956 14.8732 47.215C15.8554 51.0783 14.8825 62.2193 21.4211 67.8599C28.9887 74.3892 42.805 72.5417 47.8048 66.7514C52.8047 60.9611 53.0011 57.2989 57.2994 52.5376C60.9382 48.5059 65.62 49.1233 67.3974 47.07C68.8894 45.3395 66.6817 42.7063 65.8399 41.9813C64.3432 40.6904 58.8616 39.3013 54.5072 44.3479C52.8141 46.3077 50.7234 47.6032 48.7122 45.868C46.701 44.1328 46.8414 39.4463 47.3371 36.1255" fill="url(#paint0_linear)"/>
<path d="M67.402 47.07C68.2111 46.1299 67.9305 44.9232 67.3693 43.8989C65.5171 48.0522 60.3489 43.8428 50.6579 55.0772C40.9668 66.3117 31.6032 63.9357 28.4134 62.1584C25.2236 60.3811 20.3033 56.4243 20.5231 48.8286C20.5886 46.4947 20.3594 43.7025 19.8917 40.8447C18.1518 41.42 14.4194 45.4377 14.8731 47.2197C15.8553 51.083 14.8825 62.2239 21.4211 67.8645C28.9887 74.3938 42.805 72.5463 47.8048 66.756C52.8047 60.9657 53.0011 57.3036 57.2994 52.5422C60.9429 48.5105 65.6247 49.1279 67.402 47.07Z" fill="url(#paint1_linear)"/>
<path d="M20.7337 41.2329C20.4484 39.1094 20.2145 33.5717 19.6346 30.4661C19.0546 27.3605 17.4036 25.9667 14.8592 26.6496C12.3149 27.3324 13.0866 33.0479 13.1895 34.437C13.3485 36.5698 14.298 44.9559 14.8732 47.2196" fill="url(#paint2_linear)"/>
<path d="M31.0888 39.8574C30.6679 40.0632 29.5173 39.4645 29.4004 35.7696C29.3115 32.9446 29.3443 25.0683 28.8298 21.0413C28.3153 17.0143 27.263 14.6383 24.8449 14.4231C22.4221 14.208 21.3417 17.178 21.3978 20.494C21.468 24.5912 21.8141 29.0017 22.1368 33.2345C22.3894 36.5413 23.1938 43.7628 22.3707 43.8236" fill="url(#paint3_linear)"/>
<path d="M22.1369 33.235C22.3754 36.3546 23.1051 42.9587 22.4923 43.7445C23.7411 43.3703 24.8917 40.0729 24.6111 38.3237C22.9881 28.207 24.2089 15.2046 23.2688 14.8164C21.9451 15.7144 21.3465 18.0109 21.3885 20.4944C21.4681 24.5869 21.8095 29.0021 22.1369 33.235Z" fill="url(#paint4_linear)"/>
<path d="M47.3465 36.1255C47.8469 32.8048 48.2538 21.0979 48.5906 17.9642C48.9273 14.8306 47.1079 13.2637 45.078 13.0626C43.0528 12.8615 41.1446 14.3161 40.7283 20.5367C40.4664 24.4608 40.0642 27.9359 40.2372 34.9656L44.6431 38.263L47.3465 36.1255Z" fill="url(#paint5_linear)"/>
<path d="M38.6049 35.5873C38.5207 34.4554 38.6423 23.4548 38.6049 21.0414C38.5347 16.5186 40.3775 8.55345 34.8258 8.02026C31.9072 7.73963 31.2852 10.4477 31.1542 11.6357C31.0233 12.8237 31.0513 26.2985 31.1402 27.5145C31.2291 28.7306 31.5097 39.647 31.0841 39.8528" fill="url(#paint6_linear)"/>
<path d="M40.242 34.9609C40.2747 36.2425 40.0549 37.6783 39.6106 37.8187C43.2821 37.9449 43.1184 28.8713 43.1746 23.5581C43.2167 19.4469 45.284 15.9484 45.2465 13.0813C45.1951 13.072 45.139 13.0673 45.0875 13.0626C43.0623 12.8615 41.154 14.3161 40.7378 20.5367C40.4712 24.4608 40.069 27.9359 40.242 34.9609Z" fill="url(#paint7_linear)"/>
<path d="M31.1404 27.5188C31.2292 28.7348 31.5099 39.6512 31.0842 39.857C34.7979 39.0292 34.0074 26.4898 33.7455 20.2739C33.521 14.8858 35.289 11.8644 33.825 8.04785C31.7531 8.39864 31.2666 10.5969 31.1497 11.6352C31.0234 12.8279 31.0515 26.298 31.1404 27.5188Z" fill="url(#paint8_linear)"/>
<path d="M30.8457 39.8855C30.5464 39.834 30.1395 39.5019 29.8308 38.6133C29.9618 39.3803 30.2705 39.8901 30.8457 39.8855Z" fill="url(#paint9_linear)"/>
<path d="M65.6389 43.0242C67.2852 43.9971 67.3975 44.3806 67.3648 43.8988C66.8924 43.0383 66.2282 42.3086 65.8447 41.9812C64.348 40.6903 58.8664 39.3012 54.512 44.3479C52.8189 46.3076 50.7282 47.6031 48.717 45.8679C47.9266 45.1851 47.4682 44.0392 47.2344 42.7062C47.3934 49.6517 53.3334 48.3608 55.9292 46.2047C58.525 44.0392 60.8027 40.1665 65.6389 43.0242Z" fill="url(#paint10_radial)"/>
<path d="M44.3204 13.0713C42.5946 13.3051 41.0979 15.1012 40.7331 20.5313C40.4712 24.4554 40.0689 27.9305 40.242 34.9603C40.2747 36.2932 40.0362 37.7946 39.5544 37.832C43.6797 34.2587 41.3271 25.2272 42.0988 20.5079C42.7068 16.7756 43.6516 15.0778 44.3204 13.0713Z" fill="url(#paint11_linear)"/>
<path d="M31.1404 27.5191C31.2292 28.7352 31.5099 39.6516 31.0842 39.8574C33.0673 40.0398 33.4041 37.9585 33.1469 34.4273C32.6137 27.1918 31.711 17.3043 33.2451 11.1305C33.3901 10.5458 33.2685 9.9191 32.8662 9.4701C31.8232 8.30549 31.2479 10.7329 31.1497 11.6403C31.0234 12.8283 31.0515 26.2984 31.1404 27.5191Z" fill="url(#paint12_linear)"/>
<path d="M21.3932 20.4942C21.4633 24.5914 21.8094 29.0019 22.1322 33.2347C22.3847 36.5415 23.1892 43.763 22.366 43.8238C26.6783 43.8799 21.6317 26.2565 23.2687 14.8115C21.9498 15.7142 21.3511 18.006 21.3932 20.4942Z" fill="url(#paint13_linear)"/>
<path d="M21.4914 43.8C21.8094 43.9122 22.0293 43.9075 22.1696 43.8233C21.4586 43.7859 20.9956 43.1779 20.7337 41.2322C20.4484 39.1088 20.2145 33.5711 19.6346 30.4655C19.382 29.0997 18.919 28.0661 18.2642 27.3926C18.7319 28.8986 18.063 28.7209 18.8254 32.3924C19.2323 34.3615 19.4241 43.0797 21.4914 43.8Z" fill="url(#paint14_linear)"/>
<path d="M28.2217 30.0499C28.1422 33.4596 28.493 39.5211 30.7193 39.8485C30.2095 39.6427 29.4939 38.6418 29.4004 35.7654C29.3115 32.9404 29.3442 25.0641 28.8297 21.0371C28.4135 17.7725 27.6464 15.5976 26.0796 14.7744C28.797 19.3019 28.3012 26.8227 28.2217 30.0499Z" fill="url(#paint15_linear)"/>
<path d="M37.4122 22.9871C37.5713 28.0945 36.5844 37.0887 39.4047 37.8043C38.9931 37.6219 38.6751 36.5976 38.6002 35.5873C38.516 34.4554 38.6376 23.4548 38.6002 21.0414C38.5535 17.9078 39.4187 13.123 38.1138 10.3027C38.8107 13.8714 37.2813 18.8525 37.4122 22.9871Z" fill="url(#paint16_linear)"/>
<path d="M47.2344 42.7007C46.8743 40.6474 47.0427 38.1311 47.3467 36.1247C47.8471 32.8039 48.2541 21.097 48.5908 17.9634C48.6937 17.0092 48.5955 16.2001 48.3523 15.5312C48.2026 16.9812 47.4449 18.5807 47.487 21.4104C47.5572 25.9566 46.5563 33.1594 46.2148 35.6336C45.8734 38.1124 44.6433 42.8925 47.2344 42.7007Z" fill="url(#paint17_linear)"/>
<path d="M35.055 71.9615C35.9857 69.1599 35.8361 66.8307 33.0204 66.4612C25.3406 65.4603 20.6448 59.511 18.512 47.7059C16.6037 37.1777 16.4915 30.7232 14.5645 26.7617C12.3849 27.8 13.0912 33.1039 13.1894 34.4369C13.3484 36.5697 14.2979 44.9558 14.8732 47.2195C15.8554 51.0828 14.8825 62.2237 21.4212 67.8644C25.0787 71.0167 30.1861 72.2141 35.055 71.9615Z" fill="url(#paint18_linear)"/>
<path d="M57.3041 52.5376C60.9429 48.5059 65.6247 49.1233 67.402 47.07C67.9259 46.4667 67.9914 45.7511 67.823 45.0401C66.9904 47.1121 64.4601 47.4068 60.4378 48.1504C56.0787 48.9549 52.1031 52.6171 50.0452 57.9303C47.9873 63.2435 41.327 67.2752 36.8557 66.5128C32.3797 65.7505 21.7392 70.175 18.1518 51.7004C18.1518 51.6957 18.1518 51.691 18.1472 51.6863C18.0115 50.4609 17.8198 49.3197 17.5017 48.3048C15.3035 41.2938 14.8778 36.3407 14.7562 32.3651C14.7282 31.584 15.0977 28.9882 13.3437 28.4316C12.731 30.4335 13.1192 33.4736 13.1894 34.4371C13.3484 36.5699 14.2979 44.9559 14.8732 47.2197C14.948 47.5143 15.0135 47.8511 15.0696 48.2253C15.0836 48.3235 15.0977 48.4217 15.1117 48.5246C15.1164 48.5527 15.1211 48.576 15.1211 48.6041C15.1304 48.6696 15.1398 48.7351 15.1444 48.8005C15.1444 48.8146 15.1491 48.8286 15.1491 48.8473C15.4672 51.4478 15.5841 55.4047 16.571 59.2726V59.2773C16.6598 59.6188 16.7534 59.9555 16.8516 60.2923C16.8516 60.2969 16.8563 60.3016 16.8563 60.3063C16.9545 60.6384 17.0621 60.9704 17.179 61.3025C17.179 61.3072 17.179 61.3072 17.1837 61.3119C18.0489 63.7767 19.3632 66.0966 21.4165 67.8692C28.9841 74.3985 42.8003 72.551 47.8002 66.7607C52.8 60.9704 53.0011 57.2989 57.3041 52.5376Z" fill="url(#paint19_radial)"/>
<path d="M52.4118 52.9954C53.5858 54.4033 49.6476 60.3432 46.6636 62.8268C43.6796 65.3103 40.3074 66.185 39.1334 64.7771C37.9595 63.3693 40.6208 59.8381 42.936 56.7231C46.9396 51.3444 51.2425 51.5876 52.4118 52.9954Z" fill="url(#paint20_radial)"/>
<path opacity="0.75" d="M19.1434 51.6581C17.8432 53.2202 21.7954 62.2237 25.6914 64.4921C29.5875 66.7605 34.4704 66.0636 35.4245 64.2629C36.3787 62.4623 32.3236 59.6606 29.0122 56.5597C23.292 51.2044 20.4437 50.0959 19.1434 51.6581Z" fill="url(#paint21_radial)"/>
<defs>
<linearGradient id="paint0_linear" x1="31.0299" y1="78.7646" x2="37.4005" y2="58.7747" gradientUnits="userSpaceOnUse">
<stop offset="0.00132565" stop-color="#FFCB4B"/>
<stop offset="1" stop-color="#FFD748"/>
</linearGradient>
<linearGradient id="paint1_linear" x1="41.0386" y1="69.6747" x2="41.4219" y2="42.7881" gradientUnits="userSpaceOnUse">
<stop offset="0.00132565" stop-color="#FFCB4B"/>
<stop offset="1" stop-color="#FFD748"/>
</linearGradient>
<linearGradient id="paint2_linear" x1="15.0432" y1="29.1226" x2="17.8531" y2="41.4483" gradientUnits="userSpaceOnUse">
<stop offset="0.00132565" stop-color="#FFCB4B"/>
<stop offset="1" stop-color="#FFD748"/>
</linearGradient>
<linearGradient id="paint3_linear" x1="25.1986" y1="11.6795" x2="26.5084" y2="37.5011" gradientUnits="userSpaceOnUse">
<stop offset="0.00132565" stop-color="#FFCB4B"/>
<stop offset="1" stop-color="#FFD748"/>
</linearGradient>
<linearGradient id="paint4_linear" x1="28.3272" y1="29.042" x2="20.2236" y2="29.3957" gradientUnits="userSpaceOnUse">
<stop stop-color="#FFBC47" stop-opacity="0"/>
<stop offset="1" stop-color="#FFA754"/>
</linearGradient>
<linearGradient id="paint5_linear" x1="45.566" y1="17.6059" x2="42.7726" y2="36.7086" gradientUnits="userSpaceOnUse">
<stop offset="0.00132565" stop-color="#FFCB4B"/>
<stop offset="1" stop-color="#FFD748"/>
</linearGradient>
<linearGradient id="paint6_linear" x1="35.698" y1="12.6642" x2="33.9336" y2="36.2405" gradientUnits="userSpaceOnUse">
<stop offset="0.00132565" stop-color="#FFCB4B"/>
<stop offset="1" stop-color="#FFD748"/>
</linearGradient>
<linearGradient id="paint7_linear" x1="46.866" y1="25.33" x2="34.9" y2="25.5982" gradientUnits="userSpaceOnUse">
<stop stop-color="#FFBC47" stop-opacity="0"/>
<stop offset="1" stop-color="#FFA754"/>
</linearGradient>
<linearGradient id="paint8_linear" x1="36.946" y1="24.3164" x2="21.8632" y2="23.0971" gradientUnits="userSpaceOnUse">
<stop stop-color="#FFBC47" stop-opacity="0"/>
<stop offset="1" stop-color="#FFA754"/>
</linearGradient>
<linearGradient id="paint9_linear" x1="35.7036" y1="39.6858" x2="20.6208" y2="38.4665" gradientUnits="userSpaceOnUse">
<stop stop-color="#FFBC47" stop-opacity="0"/>
<stop offset="1" stop-color="#FFA754"/>
</linearGradient>
<radialGradient id="paint10_radial" cx="0" cy="0" r="1" gradientUnits="userSpaceOnUse" gradientTransform="translate(57.3106 39.1774) rotate(40.7903) scale(14.6649)">
<stop stop-color="#FFBC47" stop-opacity="0"/>
<stop offset="1" stop-color="#FFA754"/>
</radialGradient>
<linearGradient id="paint11_linear" x1="49.1259" y1="25.1989" x2="38.7857" y2="25.5662" gradientUnits="userSpaceOnUse">
<stop offset="0.3118" stop-color="#FFBC47" stop-opacity="0"/>
<stop offset="1" stop-color="#FF8900"/>
</linearGradient>
<linearGradient id="paint12_linear" x1="42.236" y1="24.289" x2="28.7844" y2="24.5791" gradientUnits="userSpaceOnUse">
<stop offset="0.3118" stop-color="#FFBC47" stop-opacity="0"/>
<stop offset="1" stop-color="#FF8900"/>
</linearGradient>
<linearGradient id="paint13_linear" x1="33.3138" y1="29.4586" x2="17.2005" y2="29.2447" gradientUnits="userSpaceOnUse">
<stop offset="0.3118" stop-color="#FFBC47" stop-opacity="0"/>
<stop offset="1" stop-color="#FF8900"/>
</linearGradient>
<linearGradient id="paint14_linear" x1="18.2013" y1="26.3628" x2="21.4436" y2="44.562" gradientUnits="userSpaceOnUse">
<stop stop-color="#FFBC47" stop-opacity="0"/>
<stop offset="1" stop-color="#FFBC47"/>
</linearGradient>
<linearGradient id="paint15_linear" x1="29.7223" y1="17.2145" x2="27.0757" y2="37.4219" gradientUnits="userSpaceOnUse">
<stop stop-color="#FFBC47" stop-opacity="0"/>
<stop offset="1" stop-color="#FFBC47"/>
</linearGradient>
<linearGradient id="paint16_linear" x1="35.5682" y1="23.8653" x2="39.5224" y2="24.0992" gradientUnits="userSpaceOnUse">
<stop stop-color="#FFBC47" stop-opacity="0"/>
<stop offset="1" stop-color="#FFA754"/>
</linearGradient>
<linearGradient id="paint17_linear" x1="41.1135" y1="41.2056" x2="50.9963" y2="23.3309" gradientUnits="userSpaceOnUse">
<stop stop-color="#FFBC47" stop-opacity="0"/>
<stop offset="1" stop-color="#FFBC47"/>
</linearGradient>
<linearGradient id="paint18_linear" x1="21.3293" y1="49.4743" x2="12.7862" y2="49.7422" gradientUnits="userSpaceOnUse">
<stop offset="0.3118" stop-color="#FFBC47" stop-opacity="0"/>
<stop offset="1" stop-color="#FF8900"/>
</linearGradient>
<radialGradient id="paint19_radial" cx="0" cy="0" r="1" gradientUnits="userSpaceOnUse" gradientTransform="translate(36.9712 37.7244) rotate(88.9305) scale(42.5061 38.584)">
<stop offset="0.6134" stop-color="#FFBC47" stop-opacity="0"/>
<stop offset="1" stop-color="#FF8900"/>
</radialGradient>
<radialGradient id="paint20_radial" cx="0" cy="0" r="1" gradientUnits="userSpaceOnUse" gradientTransform="translate(45.7143 58.6882) rotate(-39.7659) scale(8.81761 4.09299)">
<stop stop-color="#FBE07A"/>
<stop offset="1" stop-color="#FFD748" stop-opacity="0"/>
</radialGradient>
<radialGradient id="paint21_radial" cx="0" cy="0" r="1" gradientUnits="userSpaceOnUse" gradientTransform="translate(26.8501 59.4191) rotate(-138.965) scale(11.3474 5.17731)">
<stop stop-color="#FBE07A"/>
<stop offset="0.2654" stop-color="#FCDF73" stop-opacity="0.7346"/>
<stop offset="0.6548" stop-color="#FDDB5F" stop-opacity="0.3452"/>
<stop offset="1" stop-color="#FFD748" stop-opacity="0"/>
</radialGradient>
</defs>
</svg>
