<svg width="80" height="80" viewBox="0 0 80 80" fill="none" xmlns="http://www.w3.org/2000/svg">
<path d="M57.4845 26.2704C56.8707 24.0826 55.5215 23.4032 54.8843 23.1971C54.6735 23.1315 54.5423 23.1128 54.5423 23.1128L42.5066 18.6948L25.2612 27.5963L29.0842 39.0183C32.7853 38.4701 36.4911 38.4139 40.211 38.4654C46.7699 38.5591 53.3711 38.9995 60.0565 37.6924C60.1455 33.7148 58.2013 28.8237 57.4845 26.2704Z" fill="url(#paint0_linear)"/>
<path d="M60.9935 35.8701C55.9525 35.6546 53.5257 33.3777 53.09 27.1608C53.0431 26.4627 49.4732 9.68581 59.3772 9.4703C68.274 9.27822 68.2084 14.6659 67.8289 23.6377C67.4494 32.6094 65.3318 36.0528 60.9935 35.8701Z" fill="url(#paint1_linear)"/>
<path d="M60.6889 26.5988C53.0196 26.2708 51.1128 9.57824 59.6019 9.47048C66.8964 9.37678 66.6762 14.5912 66.6388 19.0278C66.5826 25.4041 64.2494 26.7487 60.6889 26.5988Z" fill="url(#paint2_linear)"/>
<path d="M57.9998 35.3732C58.8758 35.6497 59.8597 35.823 60.9888 35.8699C65.3271 36.0573 67.44 32.6044 67.8241 23.6374C68.1943 14.9936 68.2411 9.69022 60.2766 9.48877C63.3266 11.4565 65.7019 15.7292 65.3786 23.2626C64.9241 33.9724 62.4036 35.5372 57.9998 35.3732Z" fill="url(#paint3_linear)"/>
<path d="M63.5422 9.93896C64.6338 10.2482 65.6973 10.8385 66.4047 11.7708C67.1262 12.6844 67.5245 13.8134 67.754 14.9378C68.2132 17.21 68.1382 19.5244 68.0539 21.806C67.9461 24.0876 67.8618 26.3879 67.4542 28.6507C67.2527 29.7798 66.9904 30.9042 66.5875 31.9818C66.1799 33.0453 65.5896 34.1228 64.6198 34.76C65.5006 34.015 66.0065 32.9656 66.4001 31.9115C66.7936 30.848 67.0513 29.733 67.234 28.6133C67.6088 26.3645 67.6884 24.0829 67.7447 21.7966C67.7868 19.5197 67.8758 17.2241 67.5104 14.9847C67.3136 13.8743 66.9576 12.7734 66.2783 11.8692C65.6083 10.9603 64.6292 10.2997 63.5422 9.93896Z" fill="#975500"/>
<path d="M11.5717 40.1096C11.5717 43.2579 13.1131 44.6727 13.8861 45.1834C14.1438 45.352 14.3125 45.4223 14.3125 45.4223L28.7141 55.837L55.0717 50.4352L54.2659 33.7567C49.1218 33.0962 44.1557 31.7797 39.2131 30.3133C30.4944 27.7225 26.7136 12.8196 12.4385 23.8855C10.8175 29.1795 11.5717 36.4365 11.5717 40.1096Z" fill="url(#paint4_linear)"/>
<path d="M39.6394 40.6065C46.1328 39.9225 50.2509 45.2353 50.7663 47.9994L52.8886 47.2264L51.9235 36.6196L53.3945 26.9779L52.8698 23.1082L39.4005 23.1691L26.5262 24.9822L24.7459 19.4117C24.6991 19.4117 24.2493 19.407 24.2025 19.4023L15.2588 20.3159C14.2937 20.672 13.5957 21.1451 13.2771 21.7636C12.0918 24.0826 11.6327 27.0951 11.4734 30.1028C12.8695 32.9091 16.0038 34.3661 18.7398 34.3661C21.9537 34.3661 23.8839 31.9253 25.0411 29.8639C25.0411 29.8639 25.2519 33.5931 30.4194 35.008C30.4288 35.0127 34.2658 41.1687 39.6394 40.6065Z" fill="url(#paint5_linear)"/>
<path d="M18.6741 33.0823C14.8887 33.0823 11.7544 29.9949 11.2297 24.209C10.705 18.423 10.5785 12.2529 16.5846 12.2529C22.5908 12.2529 24.2914 14.5673 24.6803 22.2835C25.0738 29.9949 22.5955 33.0823 18.6741 33.0823Z" fill="url(#paint6_linear)"/>
<path d="M33.0243 33.9818C28.3487 33.9818 26.0109 31.9298 25.3597 26.0783C25.2848 25.4224 21.3213 9.72302 30.4804 9.11866C38.7119 8.5752 38.8665 13.6678 38.8665 22.1569C38.8665 30.6461 37.0534 33.9818 33.0243 33.9818Z" fill="url(#paint7_linear)"/>
<path d="M32.7619 25.8816C29.1919 27.6807 26.7885 27.7182 25.2612 25.2632C25.2987 25.5396 25.3362 25.8207 25.3643 26.0784C26.0155 31.9299 28.3533 33.982 33.0289 33.982C36.3178 33.982 38.1309 31.7472 38.6884 26.308C37.7607 24.7244 34.8701 24.8228 32.7619 25.8816Z" fill="url(#paint8_linear)"/>
<path d="M18.5477 25.6241C15.3619 25.6241 12.7243 23.6424 12.2839 19.9272C11.8435 16.212 11.7358 12.2485 16.7908 12.2485C21.8459 12.2485 23.2748 13.7337 23.6028 18.6857C23.9307 23.6377 21.8412 25.6241 18.5477 25.6241Z" fill="url(#paint9_linear)"/>
<path d="M32.3776 25.2397C25.2611 25.2397 22.8343 9.55436 30.691 9.10461C37.4421 8.72044 37.4468 13.6537 37.5873 17.8468C37.7888 23.8763 35.6805 25.2397 32.3776 25.2397Z" fill="url(#paint10_linear)"/>
<path d="M30.2366 33.6354C31.0611 33.8649 31.9747 33.9868 33.0241 33.9868C37.0485 33.9868 38.871 30.6417 38.871 22.1572C38.871 13.9772 38.7023 8.96899 31.3235 9.10017C34.2282 10.8336 36.5941 14.7737 36.5941 21.8995C36.5941 32.0331 34.3219 33.6166 30.2366 33.6354Z" fill="url(#paint11_linear)"/>
<path d="M18.7116 29.4842C14.8605 29.4842 11.6747 26.4203 11.0142 20.7046C11.0376 21.8524 11.1266 23.0424 11.2297 24.2136C11.7544 29.9996 14.8886 33.087 18.6741 33.087C22.3518 33.087 24.7271 30.3181 24.6896 23.614C23.9072 27.7274 21.7193 29.4842 18.7116 29.4842Z" fill="url(#paint12_linear)"/>
<path d="M24.6847 22.2835C24.3099 14.9328 22.7452 12.4919 17.4043 12.2764C20.2059 12.7355 25.6264 23.525 18.1633 33.0308C18.3366 33.0449 18.5053 33.0823 18.6786 33.0823C22.5952 33.0823 25.0736 29.9949 24.6847 22.2835Z" fill="url(#paint13_linear)"/>
<path d="M24.4413 19.4023C24.7224 21.8573 25.0129 24.3497 24.6287 26.828C24.4554 28.0602 24.1462 29.2923 23.5465 30.4073C22.9702 31.5317 21.9677 32.4547 20.7683 32.9091C18.3415 33.7149 15.5071 32.9794 13.8252 31.0773C12.0777 29.222 11.4077 26.6594 11.2344 24.2138C11.5389 26.6453 12.2885 29.1377 13.9891 30.9227C15.6383 32.7451 18.379 33.387 20.6559 32.5952C21.7802 32.183 22.7313 31.3443 23.3076 30.2715C23.9025 29.2127 24.2258 28.0086 24.4132 26.7952C24.8021 24.3544 24.5912 21.8713 24.4413 19.4023Z" fill="#975500"/>
<path d="M31.1783 33.8273C30.4146 33.9584 29.7025 33.6539 29.0466 33.3119C28.3907 32.9652 27.7957 32.492 27.3132 31.9298C26.3293 30.8008 25.814 29.3765 25.5001 27.9617C25.2096 26.5281 25.1581 25.0898 24.9426 23.6656C24.7552 22.2366 24.5865 20.803 24.5022 19.3647C24.6662 20.7983 24.9004 22.2179 25.1253 23.6374C25.3877 25.0523 25.4954 26.5047 25.8234 27.8867C26.1419 29.2641 26.6573 30.6321 27.5896 31.6815C28.0487 32.2063 28.6062 32.642 29.2247 32.9605C29.8524 33.3025 30.5271 33.429 31.1783 33.8273Z" fill="#975500"/>
<path d="M39.6394 40.6063C34.2704 41.1732 30.4288 35.0125 30.4288 35.0125C25.2612 33.5976 25.0504 29.8684 25.0504 29.8684C23.8932 31.9251 21.963 34.3706 18.7491 34.3706C16.0131 34.3706 12.8788 32.9136 11.4827 30.1073C11.5155 29.4842 11.5717 28.8611 11.6326 28.2427H11.6092C11.4359 29.9386 11.3937 31.6627 11.4031 33.3212C14.1672 36.4929 18.5008 36.9427 21.2696 36.1228C22.0192 35.9026 25.5189 33.2603 28.2175 35.9167C31.1456 38.7932 34.5515 42.4756 40.4031 42.3445C46.2546 42.218 50.7662 48.0039 50.7662 48.0039C50.2509 45.2351 46.1328 39.9223 39.6394 40.6063Z" fill="url(#paint14_linear)"/>
<path d="M46.6488 31.9909C41.9545 31.841 39.4199 29.8359 39.195 24.2561C38.9373 17.9079 36.7635 8.26624 45.3932 8.00856C53.6669 7.76026 52.8002 12.9325 52.8658 20.9766C52.9501 30.8197 50.6919 32.1221 46.6488 31.9909Z" fill="url(#paint15_linear)"/>
<path d="M46.3064 23.31C42.6614 25.1184 40.2487 25.0809 38.801 22.4058C38.8291 22.7009 38.8572 23.0008 38.876 23.2818C39.3304 29.5597 41.6073 31.8319 46.3017 31.9818C49.6046 32.0896 51.4973 29.7565 52.2375 23.9565C51.3614 22.2324 48.4521 22.2418 46.3064 23.31Z" fill="url(#paint16_linear)"/>
<path d="M45.9689 23.7689C42.1178 23.6471 40.6842 23.3192 40.1689 18.8685C39.9065 16.5775 38.5198 8.21015 45.6034 8.0087C52.392 7.81661 51.6752 13.4386 51.6752 17.9268C51.6752 24.378 49.2858 23.8767 45.9689 23.7689Z" fill="url(#paint17_linear)"/>
<path d="M43.8606 31.5694C44.6805 31.813 45.594 31.9723 46.6482 31.9911C52.2842 32.0848 52.6121 29.0114 52.8651 20.9767C53.1087 13.2278 53.6428 8.13051 46.2312 8.01807C49.0937 9.75151 50.799 13.9118 50.5835 20.6581C50.2884 30.2623 47.9599 31.6819 43.8606 31.5694Z" fill="url(#paint18_linear)"/>
<path d="M44.4509 31.7521C43.6123 31.8552 42.8487 31.457 42.1693 31.0166C41.49 30.5621 40.9278 29.939 40.5156 29.2457C39.6863 27.8449 39.3677 26.2379 39.1897 24.6731C39.0164 23.0943 39.0491 21.5108 39.021 19.9413C38.9882 18.3672 38.9742 16.793 38.7446 15.2329C39.0398 16.7836 39.1241 18.3625 39.1944 19.9366C39.2693 21.5108 39.274 23.0896 39.5036 24.6357C39.7191 26.1723 40.033 27.7418 40.8341 29.0583C41.2323 29.7095 41.7571 30.2811 42.3895 30.698C43.0173 31.1384 43.7576 31.2977 44.4509 31.7521Z" fill="#975500"/>
<path d="M49.2766 8.43066C50.1059 8.68365 50.907 9.12873 51.4879 9.80336C52.0642 10.478 52.4343 11.3119 52.6592 12.1599C53.1042 13.8746 53.1417 15.6455 53.1464 17.393C53.1089 19.1452 53.034 20.888 52.9543 22.6308C52.9215 23.4975 52.9121 24.3736 52.8512 25.2497C52.8138 25.6854 52.7903 26.1258 52.692 26.5615C52.6451 26.777 52.5842 26.9972 52.4718 27.194C52.3687 27.3814 52.1766 27.6063 51.9377 27.5594C52.3921 27.4517 52.4062 26.9082 52.5092 26.524C52.5795 26.1024 52.6264 25.6714 52.6451 25.2357C52.6873 24.3689 52.6732 23.4975 52.6873 22.6214L52.8184 17.3883C52.8466 15.6549 52.8606 13.898 52.4624 12.2114C52.2656 11.3728 51.9283 10.5576 51.3848 9.88768C50.8554 9.20836 50.0918 8.7305 49.2766 8.43066Z" fill="#975500"/>
<path d="M34.3596 9.39062C35.1514 9.58739 35.9244 9.92471 36.5569 10.4682C37.194 11.0069 37.6532 11.7237 37.9858 12.4827C38.6323 14.0194 38.8197 15.6825 38.9415 17.3129C39.0212 18.9527 39.0259 20.5924 39.0024 22.2275C38.9977 23.0426 39.0165 23.8625 38.9837 24.6824C38.9603 25.0947 38.9509 25.5069 38.8619 25.9145C38.8197 26.1207 38.7635 26.3268 38.6604 26.5142C38.5667 26.6969 38.3653 26.8843 38.1451 26.8468C38.5667 26.7391 38.5902 26.2472 38.6745 25.8817C38.7307 25.4882 38.7682 25.0806 38.7729 24.673C38.7869 23.8625 38.7494 23.0473 38.7354 22.2228C38.7026 20.5877 38.7166 18.9527 38.6136 17.327C38.5246 15.7106 38.3887 14.0615 37.7984 12.553C37.2362 11.0444 35.9525 9.83101 34.3596 9.39062Z" fill="#975500"/>
<path d="M53.7881 29.8357L53.3571 27.006C53.1838 26.069 52.9589 25.132 52.8652 24.1763C52.6403 22.2742 52.6263 20.3346 52.9589 18.4419C52.9917 20.358 53.0854 22.2461 53.2072 24.1435C53.2915 25.0899 53.3196 26.0456 53.4274 26.9967L53.7881 29.8357Z" fill="#975500"/>
<path d="M30.4288 30.852C30.4288 27.4226 32.8556 27.3148 39.3443 26.7386C43.9871 26.3263 49.0281 25.1082 55.4606 27.5959C62.7973 30.4303 69.6889 34.5391 69.7732 41.9085C69.8482 48.5097 64.7181 71.9954 42.2584 71.9954C19.7986 71.9954 12.2558 59.9972 11.5718 40.1095L50.7663 47.9943C50.7663 47.9943 51.6002 40.9856 46.8028 38.9101C44.7554 38.0247 40.375 38.7368 37.4609 38.7368C34.5422 38.7415 30.4288 35.4807 30.4288 30.852Z" fill="url(#paint19_linear)"/>
<path d="M58.2854 57.1253C48.7703 64.0684 49.5433 67.9241 40.6699 67.9241C31.7966 67.9241 26.0763 63.2298 22.0238 59.182C17.9713 55.1342 14.5653 48.3831 12.8927 43.239C12.4992 42.0256 12.0354 41.009 11.5669 40.1516C12.2603 60.0112 19.8078 72.0001 42.2535 72.0001C64.7132 72.0001 69.8433 48.5143 69.7683 41.9132C69.7355 39.0272 68.6486 36.6473 66.9105 34.6421C67.4071 44.0683 66.1 51.4237 58.2854 57.1253Z" fill="url(#paint20_linear)"/>
<path d="M53.0572 41.14C52.8838 37.0266 47.8287 32.9132 43.6263 33.3395C40.0001 33.7097 33.4318 34.2016 30.499 31.5171C30.8738 35.7804 34.6874 38.7413 37.4562 38.7413C40.3703 38.7413 44.7507 38.0245 46.798 38.9147C51.6001 40.9948 50.7615 47.9988 50.7615 47.9988C50.7615 47.9988 53.2305 45.2534 53.0572 41.14Z" fill="url(#paint21_radial)"/>
<path d="M69.7731 41.9132C69.6888 34.5391 62.7925 30.435 55.4605 27.5959C49.0327 25.1082 43.987 26.3263 39.3442 26.7386C34.3922 27.179 31.8201 27.357 30.8738 28.9358C36.9736 27.4273 42.6893 26.8135 49.7355 27.6194C58.918 28.6688 65.8565 34.3282 67.1167 38.6572C68.3629 42.9345 68.1802 50.899 68.1755 51.0911C69.3608 47.2541 69.7965 43.8528 69.7731 41.9132Z" fill="url(#paint22_linear)"/>
<path d="M50.7661 47.9989C50.8879 46.3311 50.7567 44.6258 50.232 43.0423C49.726 41.4681 48.7234 39.9783 47.2289 39.2334C45.7719 38.4135 44.001 38.5681 42.3565 38.5962C40.684 38.6618 39.0208 38.8539 37.3296 38.8445C35.5961 38.7555 34.036 37.8419 32.8226 36.6754C31.6186 35.4807 30.7237 33.9393 30.4333 32.2528C30.2787 31.4141 30.2365 30.5521 30.4098 29.6948C30.5926 28.8374 31.2391 28.0691 32.0449 27.7458C33.6472 27.0665 35.3525 26.9822 37.0157 26.7854C40.3654 26.5746 43.6636 25.9702 47.0462 25.9468C48.7281 25.9468 50.4194 26.092 52.0685 26.4528C53.7176 26.8041 55.3105 27.3851 56.8565 28.0363C59.9392 29.3434 62.9845 30.8801 65.5237 33.1101C66.7746 34.2298 67.8756 35.5463 68.6299 37.0549C69.3935 38.5587 69.7777 40.2359 69.7871 41.9132C69.7496 40.2359 69.3373 38.5728 68.5596 37.0923C67.7866 35.6072 66.6762 34.3235 65.416 33.2319C62.8908 31.0347 59.8549 29.5214 56.7722 28.2377C53.7082 26.8978 50.3913 26.1529 47.0509 26.2232C43.7152 26.2654 40.3935 26.8885 37.0485 27.118C35.3994 27.3007 33.68 27.3851 32.1761 28.0222C31.4171 28.3314 30.8737 28.978 30.6909 29.765C30.527 30.5521 30.5551 31.4001 30.705 32.2059C30.9767 33.8316 31.8341 35.3355 32.996 36.502C34.1672 37.6452 35.6945 38.5353 37.3389 38.629C39.0021 38.6524 40.6746 38.4697 42.3519 38.4088C43.1905 38.376 44.0338 38.3666 44.877 38.4276C45.7063 38.4978 46.5871 38.6337 47.3132 39.0975C48.8359 39.8939 49.8338 41.4306 50.3163 43.0235C50.8129 44.6211 50.9113 46.3311 50.7661 47.9989Z" fill="#975500"/>
<path opacity="0.5" d="M15.7083 40.7888C13.647 43.2718 19.9155 57.5704 26.1043 61.1684C32.2932 64.7712 40.0468 63.6655 41.56 60.803C43.0733 57.9405 36.6408 53.4945 31.3796 48.5659C22.2954 40.0673 17.7697 38.3058 15.7083 40.7888Z" fill="url(#paint23_radial)"/>
<path opacity="0.5" d="M66.1426 42.6213C67.2388 41.1455 61.7574 31.9911 57.3817 29.5221C53.0059 27.0531 44.3902 28.5195 43.6875 30.2529C42.9847 31.9864 51.2865 33.94 55.1938 37.2007C61.9308 42.8321 65.0463 44.097 66.1426 42.6213Z" fill="url(#paint24_radial)"/>
<defs>
<linearGradient id="paint0_linear" x1="56.5362" y1="26.7124" x2="18.7817" y2="37.3417" gradientUnits="userSpaceOnUse">
<stop offset="0.00132565" stop-color="#FFCB4B"/>
<stop offset="1" stop-color="#FFD748"/>
</linearGradient>
<linearGradient id="paint1_linear" x1="60.644" y1="9.48219" x2="59.5192" y2="35.8059" gradientUnits="userSpaceOnUse">
<stop offset="0.00132565" stop-color="#F0C492"/>
<stop offset="1" stop-color="#F8DBBA"/>
</linearGradient>
<linearGradient id="paint2_linear" x1="62.2581" y1="-11.1116" x2="58.4248" y2="46.8874" gradientUnits="userSpaceOnUse">
<stop offset="0.00132565" stop-color="#F0C492"/>
<stop offset="1" stop-color="#F8DBBA"/>
</linearGradient>
<linearGradient id="paint3_linear" x1="50.3814" y1="16.1778" x2="111.522" y2="55.1672" gradientUnits="userSpaceOnUse">
<stop stop-color="#E6AF74" stop-opacity="0"/>
<stop offset="1" stop-color="#E6AF74"/>
</linearGradient>
<linearGradient id="paint4_linear" x1="6.51492" y1="59.3614" x2="38.0144" y2="33.6952" gradientUnits="userSpaceOnUse">
<stop offset="0.00132565" stop-color="#F0C492"/>
<stop offset="1" stop-color="#F8DBBA"/>
</linearGradient>
<linearGradient id="paint5_linear" x1="28.974" y1="65.5279" x2="34.8885" y2="15.3836" gradientUnits="userSpaceOnUse">
<stop stop-color="#A1541E" stop-opacity="0"/>
<stop offset="1" stop-color="#C86F34"/>
</linearGradient>
<linearGradient id="paint6_linear" x1="18.2748" y1="12.3063" x2="17.3891" y2="33.0341" gradientUnits="userSpaceOnUse">
<stop offset="0.00132565" stop-color="#F0C492"/>
<stop offset="1" stop-color="#F8DBBA"/>
</linearGradient>
<linearGradient id="paint7_linear" x1="32.1498" y1="9.08752" x2="31.089" y2="33.9137" gradientUnits="userSpaceOnUse">
<stop offset="0.00132565" stop-color="#F0C492"/>
<stop offset="1" stop-color="#F8DBBA"/>
</linearGradient>
<linearGradient id="paint8_linear" x1="31.9721" y1="20.2739" x2="31.9721" y2="51.8395" gradientUnits="userSpaceOnUse">
<stop stop-color="#E6AF74" stop-opacity="0"/>
<stop offset="1" stop-color="#E6AF74"/>
</linearGradient>
<linearGradient id="paint9_linear" x1="20.0033" y1="-13.9045" x2="16.17" y2="44.0946" gradientUnits="userSpaceOnUse">
<stop offset="0.00132565" stop-color="#F0C492"/>
<stop offset="1" stop-color="#F8DBBA"/>
</linearGradient>
<linearGradient id="paint10_linear" x1="33.709" y1="-12.999" x2="29.8757" y2="45.0001" gradientUnits="userSpaceOnUse">
<stop offset="0.00132565" stop-color="#F0C492"/>
<stop offset="1" stop-color="#F8DBBA"/>
</linearGradient>
<linearGradient id="paint11_linear" x1="22.4185" y1="15.8134" x2="81.1527" y2="49.1792" gradientUnits="userSpaceOnUse">
<stop stop-color="#E6AF74" stop-opacity="0"/>
<stop offset="1" stop-color="#E6AF74"/>
</linearGradient>
<linearGradient id="paint12_linear" x1="17.7241" y1="20.265" x2="19.3537" y2="47.2817" gradientUnits="userSpaceOnUse">
<stop stop-color="#E6AF74" stop-opacity="0"/>
<stop offset="1" stop-color="#E6AF74"/>
</linearGradient>
<linearGradient id="paint13_linear" x1="3.44039" y1="12.7485" x2="94.0827" y2="70.3046" gradientUnits="userSpaceOnUse">
<stop stop-color="#E6AF74" stop-opacity="0"/>
<stop offset="1" stop-color="#E6AF74"/>
</linearGradient>
<linearGradient id="paint14_linear" x1="31.0826" y1="51.923" x2="31.0826" y2="26.3011" gradientUnits="userSpaceOnUse">
<stop stop-color="#E6AF74" stop-opacity="0"/>
<stop offset="1" stop-color="#E6AF74"/>
</linearGradient>
<linearGradient id="paint15_linear" x1="46.3047" y1="8.00002" x2="45.2821" y2="31.9332" gradientUnits="userSpaceOnUse">
<stop offset="0.00132565" stop-color="#F0C492"/>
<stop offset="1" stop-color="#F8DBBA"/>
</linearGradient>
<linearGradient id="paint16_linear" x1="45.7046" y1="17.2958" x2="44.632" y2="51.0446" gradientUnits="userSpaceOnUse">
<stop stop-color="#FFBC47" stop-opacity="0"/>
<stop offset="1" stop-color="#C86F34"/>
</linearGradient>
<linearGradient id="paint17_linear" x1="47.6805" y1="-12.0752" x2="43.8473" y2="45.9239" gradientUnits="userSpaceOnUse">
<stop offset="0.00132565" stop-color="#F0C492"/>
<stop offset="1" stop-color="#F8DBBA"/>
</linearGradient>
<linearGradient id="paint18_linear" x1="37.3235" y1="14.2897" x2="93.8791" y2="48.839" gradientUnits="userSpaceOnUse">
<stop stop-color="#E6AF74" stop-opacity="0"/>
<stop offset="1" stop-color="#E6AF74"/>
</linearGradient>
<linearGradient id="paint19_linear" x1="14.9141" y1="69.6694" x2="46.4136" y2="44.0032" gradientUnits="userSpaceOnUse">
<stop offset="0.00132565" stop-color="#F0C492"/>
<stop offset="1" stop-color="#F8DBBA"/>
</linearGradient>
<linearGradient id="paint20_linear" x1="40.3954" y1="44.3444" x2="29.5067" y2="155.231" gradientUnits="userSpaceOnUse">
<stop stop-color="#E6AF74" stop-opacity="0"/>
<stop offset="1" stop-color="#E6AF74"/>
</linearGradient>
<radialGradient id="paint21_radial" cx="0" cy="0" r="1" gradientUnits="userSpaceOnUse" gradientTransform="translate(42.7838 38.0874) rotate(1.42564) scale(33.4921 8.26497)">
<stop stop-color="#E6AF74" stop-opacity="0"/>
<stop offset="1" stop-color="#E6AF74"/>
</radialGradient>
<linearGradient id="paint22_linear" x1="53.3863" y1="21.3008" x2="44.4718" y2="65.7021" gradientUnits="userSpaceOnUse">
<stop stop-color="#E6AF74" stop-opacity="0"/>
<stop offset="1" stop-color="#E6AF74"/>
</linearGradient>
<radialGradient id="paint23_radial" cx="0" cy="0" r="1" gradientUnits="userSpaceOnUse" gradientTransform="translate(27.9351 53.1172) rotate(-138.967) scale(18.0183 8.22197)">
<stop stop-color="#F8E6D2"/>
<stop offset="1" stop-color="#F8E6D2" stop-opacity="0"/>
</radialGradient>
<radialGradient id="paint24_radial" cx="0" cy="0" r="1" gradientUnits="userSpaceOnUse" gradientTransform="translate(55.6068 33.7173) rotate(38.2129) scale(13.8934 5.11566)">
<stop stop-color="#F8E6D2"/>
<stop offset="1" stop-color="#F8E6D2" stop-opacity="0"/>
</radialGradient>
</defs>
</svg>
