<svg width="80" height="80" viewBox="0 0 80 80" fill="none" xmlns="http://www.w3.org/2000/svg">
<path d="M40.2416 34.9629C40.2737 36.2954 40.0341 37.8003 39.5549 37.8353C39.0757 37.8704 38.6841 36.7191 38.6023 35.5882C38.5205 34.4574 31.5075 39.6529 31.0867 39.8604C30.7711 40.0152 27.4165 40.4915 24.9474 41.5669C24.1233 41.9263 22.5746 43.8111 22.3672 43.8257C21.5402 43.887 21.0201 43.3552 20.7337 41.2338C20.4473 39.1123 14.2993 44.9595 14.8749 47.2212C15.8597 51.0872 14.8866 62.2263 21.4262 67.8689C28.9945 74.3998 42.813 72.5501 47.8098 66.7585C52.8066 60.9668 53.0053 57.3025 57.3066 52.5424C60.9475 48.5128 65.6287 49.1293 67.4024 47.0751C68.8927 45.3481 66.6865 42.7094 65.8479 41.9847C64.3517 40.6961 58.8699 39.3052 54.516 44.3487C52.8241 46.3095 50.7319 47.6011 48.7215 45.8682C46.7111 44.1354 46.8484 39.4454 47.3481 36.1259" fill="url(#paint0_linear)"/>
<path d="M67.4026 47.0718C68.2149 46.1308 67.9315 44.924 67.3675 43.8983C65.5178 48.0536 60.3486 43.8428 50.656 55.0754C40.9633 66.308 31.6009 63.9353 28.41 62.1586C25.2161 60.382 20.3011 56.4254 20.5173 48.8279C20.5846 46.4961 20.3537 43.7026 19.8862 40.8447C18.1504 41.4204 14.4218 45.4354 14.8748 47.2179C15.8595 51.0838 14.8864 62.2229 21.4261 67.8655C28.9944 74.3964 42.813 72.5467 47.8098 66.7551C52.8067 60.9635 53.0054 57.2992 57.3067 52.539C60.9477 48.5094 65.6289 49.1289 67.4026 47.0718Z" fill="url(#paint1_linear)"/>
<path d="M20.7337 41.2339C20.4473 39.1125 20.2136 33.5722 19.635 30.466C19.0564 27.3597 17.4054 25.9659 14.8603 26.6468C12.3151 27.3276 13.0866 33.0462 13.1888 34.44C13.3466 36.5732 14.2963 44.9596 14.872 47.2214" fill="url(#paint2_linear)"/>
<path d="M31.0894 39.8564C30.6657 40.0638 29.5203 39.4648 29.4005 35.7683C29.3099 32.9455 29.342 25.0675 28.8277 21.0379C28.3135 17.0083 27.2616 14.6356 24.8421 14.4193C22.4197 14.2031 21.3386 17.1749 21.397 20.4915C21.4701 24.5883 21.812 29.0007 22.1392 33.2319C22.3934 36.5398 23.1999 43.7632 22.373 43.8246" fill="url(#paint3_linear)"/>
<path d="M22.1363 33.2325C22.3759 36.3533 23.1065 42.9573 22.4928 43.7434C23.7406 43.3693 24.8949 40.0703 24.6144 38.3199C22.9926 28.2036 24.2111 15.1972 23.2731 14.8086C21.9493 15.7086 21.3503 18.0025 21.3941 20.4892C21.4671 24.5889 21.809 29.0013 22.1363 33.2325Z" fill="url(#paint4_linear)"/>
<path d="M47.3483 36.125C47.848 32.8084 48.2542 21.0966 48.5932 17.967C48.9321 14.8374 47.1087 13.2653 45.0837 13.0637C43.0557 12.8621 41.1505 14.3143 40.7326 20.5355C40.4696 24.4599 40.0693 27.9343 40.2417 34.9649L44.6483 38.264L47.3483 36.125Z" fill="url(#paint5_linear)"/>
<path d="M38.6051 35.5875C38.5233 34.4566 38.6431 23.4549 38.6051 21.0412C38.5349 16.5178 40.3758 8.55208 34.824 8.02026C31.9049 7.73973 31.2854 10.4456 31.154 11.6378C31.0225 12.8301 31.0517 26.301 31.1423 27.5195C31.2328 28.738 31.5104 39.6551 31.0868 39.8596" fill="url(#paint6_linear)"/>
<path d="M40.2418 34.962C40.2739 36.2419 40.0518 37.6766 39.6106 37.8198C43.2808 37.9455 43.1172 28.8723 43.1727 23.557C43.2165 19.4427 45.2824 15.9449 45.2415 13.0812C45.1889 13.0754 45.1334 13.0666 45.0808 13.0608C43.0529 12.8591 41.1477 14.3114 40.7298 20.5326C40.4697 24.457 40.0723 27.9343 40.2418 34.962Z" fill="url(#paint7_linear)"/>
<path d="M31.1423 27.5159C31.2329 28.7345 31.5105 39.6515 31.0868 39.856C34.8011 39.0261 34.0091 26.4844 33.749 20.272C33.524 14.8836 35.2949 11.8622 33.8308 8.0459C31.7589 8.39655 31.2709 10.594 31.154 11.6343C31.0225 12.8265 31.0517 26.2974 31.1423 27.5159Z" fill="url(#paint8_linear)"/>
<path d="M30.8443 39.8854C30.5462 39.8357 30.1371 39.5026 29.8274 38.6113C29.9647 39.3798 30.2686 39.8912 30.8443 39.8854Z" fill="url(#paint9_linear)"/>
<path d="M65.6408 43.0246C67.2888 43.9977 67.3999 44.3804 67.3677 43.8983C66.8973 43.0392 66.2281 42.3087 65.8453 41.9785C64.3492 40.6898 58.8673 39.2989 54.5133 44.3425C52.8214 46.3032 50.7292 47.5948 48.7188 45.862C47.9269 45.1782 47.4681 44.0356 47.2344 42.6973C47.3922 49.6461 53.3328 48.3545 55.9277 46.1951C58.5283 44.0386 60.8047 40.1668 65.6408 43.0246Z" fill="url(#paint10_linear)"/>
<path d="M44.3209 13.0732C42.5968 13.307 41.0978 15.1012 40.7325 20.5363C40.4695 24.4607 40.0692 27.9351 40.2416 34.9657C40.2738 36.2982 40.0342 37.8031 39.5549 37.8382C43.678 34.2673 41.3287 25.2292 42.0972 20.5159C42.7079 16.7756 43.6517 15.0778 44.3209 13.0732Z" fill="url(#paint11_linear)"/>
<path d="M31.1423 27.5175C31.2329 28.736 31.5105 39.653 31.0868 39.8576C33.0678 40.0387 33.4097 37.9553 33.1496 34.4254C32.6178 27.1873 31.7121 17.3018 33.249 11.1244C33.3951 10.54 33.2723 9.91174 32.872 9.46466C31.829 8.30165 31.2563 10.727 31.1569 11.6358C31.0225 12.828 31.0518 26.299 31.1423 27.5175Z" fill="url(#paint12_linear)"/>
<path d="M21.3941 20.4921C21.4671 24.5889 21.8089 29.0013 22.1362 33.2325C22.3904 36.5403 23.1967 43.7638 22.3699 43.8252C26.6823 43.8807 21.6366 26.2545 23.2756 14.8115C21.9492 15.7115 21.3503 18.0054 21.3941 20.4921Z" fill="url(#paint13_linear)"/>
<path d="M21.4904 43.8012C21.8089 43.9123 22.0281 43.9093 22.1713 43.8246C21.4583 43.7837 20.9966 43.1788 20.7336 41.2327C20.4472 39.1112 20.2135 33.5709 19.6349 30.4647C19.3807 29.1001 18.919 28.0656 18.2673 27.3936C18.7349 28.8984 18.0657 28.7231 18.8284 32.3962C19.2346 34.3599 19.4274 43.0795 21.4904 43.8012Z" fill="url(#paint14_linear)"/>
<path d="M28.2232 30.0503C28.1414 33.4633 28.4949 39.5209 30.7187 39.8511C30.2073 39.6465 29.4914 38.6442 29.4008 35.7689C29.3102 32.9461 29.3423 25.0681 28.8281 21.0385C28.4102 17.7745 27.6417 15.5975 26.0784 14.7734C28.7988 19.2998 28.2992 26.8243 28.2232 30.0503Z" fill="url(#paint15_linear)"/>
<path d="M37.416 22.9866C37.5767 28.0945 36.5863 37.0888 39.4115 37.8047C39.0024 37.6235 38.6811 36.5979 38.6051 35.5868C38.5204 34.4559 38.6431 23.4542 38.6051 21.0405C38.5554 17.908 39.4231 13.1216 38.1172 10.2988C38.8096 13.8697 37.2845 18.8489 37.416 22.9866Z" fill="url(#paint16_linear)"/>
<path d="M47.2372 42.703C46.8778 40.6488 47.0473 38.1358 47.3482 36.1253C47.8479 32.8087 48.2541 21.0969 48.593 17.9673C48.6953 17.0147 48.5989 16.2053 48.3564 15.5361C48.2073 16.9855 47.4476 18.5868 47.4914 21.4183C47.5645 25.9622 46.5622 33.1682 46.2203 35.6432C45.8784 38.1124 44.6424 42.893 47.2372 42.703Z" fill="url(#paint17_linear)"/>
<path d="M35.0578 71.9649C35.99 69.1626 35.838 66.8336 33.0211 66.4655C25.3418 65.4632 20.646 59.5137 18.51 47.7084C16.6047 37.1771 16.4937 30.7251 14.5622 26.7598C12.3823 27.8 13.0924 33.1037 13.1917 34.4391C13.3495 36.5722 14.2992 44.9587 14.8749 47.2204C15.8596 51.0864 14.8865 62.2255 21.4262 67.8681C25.0788 71.0181 30.1867 72.2191 35.0578 71.9649Z" fill="url(#paint18_linear)"/>
<path d="M57.3068 52.5391C60.9478 48.5095 65.629 49.126 67.4027 47.0718C67.9258 46.4669 67.993 45.751 67.8264 45.0438C66.9907 47.1156 64.466 47.4137 60.4393 48.153C56.0796 48.9536 52.1055 52.615 50.0483 57.9304C47.9882 63.2428 41.3316 67.2782 36.855 66.5126C32.3812 65.747 21.7389 70.177 18.1506 51.7004C18.1506 51.6975 18.1476 51.6917 18.1476 51.6887C18.0103 50.4644 17.8204 49.3189 17.5018 48.3049C15.3015 41.2948 14.8778 36.3389 14.7551 32.3648C14.7288 31.5846 15.094 28.9868 13.3408 28.4287C12.7271 30.4304 13.1187 33.4694 13.1888 34.4366C13.3466 36.5697 14.2963 44.9562 14.8719 47.2179C14.9479 47.513 15.0093 47.852 15.0677 48.2231C15.0823 48.3195 15.097 48.4189 15.1116 48.5212C15.1145 48.5475 15.1174 48.5738 15.1232 48.6001C15.132 48.6644 15.1408 48.7286 15.1495 48.7958C15.1525 48.8105 15.1525 48.8251 15.1554 48.8397C15.4739 51.4433 15.5908 55.3969 16.5785 59.2629C16.5785 59.2658 16.5785 59.2658 16.5785 59.2687C16.6661 59.6077 16.7596 59.9466 16.859 60.2856C16.8619 60.2914 16.8619 60.2944 16.8648 60.3002C16.9642 60.6333 17.0723 60.9664 17.1892 61.2966C17.1892 61.2996 17.1921 61.3025 17.1921 61.3054C18.0571 63.7688 19.3691 66.0889 21.4262 67.8626C28.9945 74.3936 42.8132 72.5439 47.81 66.7522C52.8097 60.9635 53.0055 57.3021 57.3068 52.5391Z" fill="url(#paint19_linear)"/>
<path opacity="0.5" d="M52.4157 52.9975C53.5875 54.406 49.6513 60.3437 46.6648 62.8305C43.6784 65.3143 40.3091 66.188 39.1373 64.7795C37.9655 63.3711 40.6217 59.8411 42.942 56.7232C46.9424 51.3436 51.2439 51.5891 52.4157 52.9975Z" fill="url(#paint20_radial)"/>
<path opacity="0.5" d="M19.1441 51.6619C17.8467 53.2252 21.7944 62.2312 25.6924 64.4988C29.5904 66.7663 34.4732 66.0709 35.4258 64.2679C36.3783 62.465 32.3255 59.6626 29.0119 56.5623C23.2934 51.206 20.4415 50.0986 19.1441 51.6619Z" fill="url(#paint21_radial)"/>
<defs>
<linearGradient id="paint0_linear" x1="22.8706" y1="75.8115" x2="39.6068" y2="49.0339" gradientUnits="userSpaceOnUse">
<stop offset="0.00132565" stop-color="#D2A374"/>
<stop offset="1" stop-color="#DEBA94"/>
</linearGradient>
<linearGradient id="paint1_linear" x1="41.3725" y1="84.4109" x2="41.3725" y2="28.0025" gradientUnits="userSpaceOnUse">
<stop offset="0.00132565" stop-color="#D2A374"/>
<stop offset="1" stop-color="#DEBA94"/>
</linearGradient>
<linearGradient id="paint2_linear" x1="0.19767" y1="61.641" x2="16.9338" y2="34.8634" gradientUnits="userSpaceOnUse">
<stop offset="0.00132565" stop-color="#D2A374"/>
<stop offset="1" stop-color="#DEBA94"/>
</linearGradient>
<linearGradient id="paint3_linear" x1="250.881" y1="-231.983" x2="226.671" y2="-203.927" gradientUnits="userSpaceOnUse">
<stop offset="0.00132565" stop-color="#D2A374"/>
<stop offset="1" stop-color="#DEBA94"/>
</linearGradient>
<linearGradient id="paint4_linear" x1="23.2897" y1="16.5169" x2="22.264" y2="66.7791" gradientUnits="userSpaceOnUse">
<stop stop-color="#D2A374" stop-opacity="0"/>
<stop offset="1" stop-color="#B88653"/>
</linearGradient>
<linearGradient id="paint5_linear" x1="260.002" y1="-224.119" x2="235.792" y2="-196.062" gradientUnits="userSpaceOnUse">
<stop offset="0.00132565" stop-color="#D2A374"/>
<stop offset="1" stop-color="#DEBA94"/>
</linearGradient>
<linearGradient id="paint6_linear" x1="253.119" y1="-230.049" x2="228.909" y2="-201.994" gradientUnits="userSpaceOnUse">
<stop offset="0.00132565" stop-color="#D2A374"/>
<stop offset="1" stop-color="#DEBA94"/>
</linearGradient>
<linearGradient id="paint7_linear" x1="46.8683" y1="25.3292" x2="34.9015" y2="25.5975" gradientUnits="userSpaceOnUse">
<stop stop-color="#D2A374" stop-opacity="0"/>
<stop offset="1" stop-color="#B88653"/>
</linearGradient>
<linearGradient id="paint8_linear" x1="36.9479" y1="24.3159" x2="21.863" y2="23.0964" gradientUnits="userSpaceOnUse">
<stop stop-color="#F0C492" stop-opacity="0"/>
<stop offset="1" stop-color="#F0C492"/>
</linearGradient>
<linearGradient id="paint9_linear" x1="35.7049" y1="39.6861" x2="20.6214" y2="38.4668" gradientUnits="userSpaceOnUse">
<stop stop-color="#FFBC47" stop-opacity="0"/>
<stop offset="1" stop-color="#FFA754"/>
</linearGradient>
<linearGradient id="paint10_linear" x1="56.5236" y1="38.8787" x2="60.5186" y2="63.1729" gradientUnits="userSpaceOnUse">
<stop stop-color="#D2A374" stop-opacity="0"/>
<stop offset="1" stop-color="#B88653"/>
</linearGradient>
<linearGradient id="paint11_linear" x1="45.4916" y1="24.3443" x2="28.6476" y2="29.5271" gradientUnits="userSpaceOnUse">
<stop stop-color="#D2A374" stop-opacity="0"/>
<stop offset="1" stop-color="#B88653"/>
</linearGradient>
<linearGradient id="paint12_linear" x1="33.9091" y1="7.84126" x2="29.6977" y2="48.1157" gradientUnits="userSpaceOnUse">
<stop stop-color="#D2A374" stop-opacity="0"/>
<stop offset="1" stop-color="#B88653"/>
</linearGradient>
<linearGradient id="paint13_linear" x1="21.8273" y1="17.1866" x2="26.9029" y2="79.1638" gradientUnits="userSpaceOnUse">
<stop stop-color="#D2A374" stop-opacity="0"/>
<stop offset="1" stop-color="#B88653"/>
</linearGradient>
<linearGradient id="paint14_linear" x1="19.8533" y1="24.3593" x2="20.7171" y2="50.921" gradientUnits="userSpaceOnUse">
<stop stop-color="#D2A374" stop-opacity="0"/>
<stop offset="1" stop-color="#B88653"/>
</linearGradient>
<linearGradient id="paint15_linear" x1="28.1741" y1="12.8448" x2="28.8219" y2="54.4151" gradientUnits="userSpaceOnUse">
<stop stop-color="#D2A374" stop-opacity="0"/>
<stop offset="1" stop-color="#B88653"/>
</linearGradient>
<linearGradient id="paint16_linear" x1="35.5701" y1="23.8642" x2="39.5238" y2="24.0981" gradientUnits="userSpaceOnUse">
<stop stop-color="#D2A374" stop-opacity="0"/>
<stop offset="1" stop-color="#B88653"/>
</linearGradient>
<linearGradient id="paint17_linear" x1="49.1189" y1="15.189" x2="44.476" y2="58.4868" gradientUnits="userSpaceOnUse">
<stop stop-color="#D2A374" stop-opacity="0"/>
<stop offset="1" stop-color="#B88653"/>
</linearGradient>
<linearGradient id="paint18_linear" x1="22.0472" y1="50.4025" x2="2.8278" y2="57.6367" gradientUnits="userSpaceOnUse">
<stop offset="0.3118" stop-color="#F0C492" stop-opacity="0"/>
<stop offset="1" stop-color="#F0C492"/>
</linearGradient>
<linearGradient id="paint19_linear" x1="40.4553" y1="23.2331" x2="40.4553" y2="169.008" gradientUnits="userSpaceOnUse">
<stop stop-color="#D2A374" stop-opacity="0"/>
<stop offset="1" stop-color="#B88653"/>
</linearGradient>
<radialGradient id="paint20_radial" cx="0" cy="0" r="1" gradientUnits="userSpaceOnUse" gradientTransform="translate(45.7156 58.6887) rotate(-39.766) scale(8.8189 4.09323)">
<stop stop-color="#E9CDB1"/>
<stop offset="1" stop-color="#E9CDB1" stop-opacity="0"/>
</radialGradient>
<radialGradient id="paint21_radial" cx="0" cy="0" r="1" gradientUnits="userSpaceOnUse" gradientTransform="translate(26.8564 59.4208) rotate(-138.967) scale(11.3484 5.17842)">
<stop stop-color="#E9CDB1"/>
<stop offset="1" stop-color="#E9CDB1" stop-opacity="0"/>
</radialGradient>
</defs>
</svg>
