<svg width="80" height="80" viewBox="0 0 80 80" fill="none" xmlns="http://www.w3.org/2000/svg">
<path d="M40.0953 70.3809C56.9269 70.3809 70.5715 56.7363 70.5715 39.9047C70.5715 23.0732 56.9269 9.42856 40.0953 9.42856C23.2638 9.42856 9.61914 23.0732 9.61914 39.9047C9.61914 56.7363 23.2638 70.3809 40.0953 70.3809Z" fill="url(#paint0_radial)"/>
<path opacity="0.5" d="M40.0953 70.3809C56.9269 70.3809 70.5715 56.7363 70.5715 39.9047C70.5715 23.0732 56.9269 9.42856 40.0953 9.42856C23.2638 9.42856 9.61914 23.0732 9.61914 39.9047C9.61914 56.7363 23.2638 70.3809 40.0953 70.3809Z" fill="url(#paint1_radial)"/>
<path d="M40.0953 70.3809C56.9269 70.3809 70.5715 56.7363 70.5715 39.9047C70.5715 23.0732 56.9269 9.42856 40.0953 9.42856C23.2638 9.42856 9.61914 23.0732 9.61914 39.9047C9.61914 56.7363 23.2638 70.3809 40.0953 70.3809Z" fill="url(#paint2_radial)"/>
<path d="M40.0953 70.3809C56.9269 70.3809 70.5715 56.7363 70.5715 39.9047C70.5715 23.0732 56.9269 9.42856 40.0953 9.42856C23.2638 9.42856 9.61914 23.0732 9.61914 39.9047C9.61914 56.7363 23.2638 70.3809 40.0953 70.3809Z" fill="url(#paint3_radial)"/>
<path d="M61.1048 50.0383C61.1238 49.8669 61.1429 49.6954 61.1619 49.543C61.1238 48.9907 60.781 48.4764 60.2286 48.2859C59.9429 48.1716 59.6381 48.1716 59.3333 48.2478C53.1048 49.9811 46.6286 50.8764 40.0952 50.8764C33.5619 50.8764 27.0857 50.0002 20.8571 48.2478C20.5714 48.1716 20.2476 48.1716 19.9619 48.2859C19.4286 48.4954 19.0857 48.9716 19.0286 49.524C19.0476 49.7145 19.0667 49.9049 19.1048 50.1145L19.4476 51.543C19.5238 51.8097 19.619 52.0954 19.7333 52.4002C21.8667 57.3907 27.4286 66.1716 40.1143 66.1716C52.7809 66.1716 58.3429 57.3716 60.4952 52.3811C60.5905 52.1145 60.6857 51.8668 60.7429 51.6192L61.1048 50.0383Z" fill="url(#paint4_radial)"/>
<path d="M40.0954 64.7809C45.0097 64.7809 48.7811 63.3714 51.6573 61.3714C48.4954 59.9047 44.6858 58.9524 40.0954 58.9524C35.5049 58.9524 31.6763 59.9047 28.5144 61.3905C31.4096 63.3905 35.1811 64.7809 40.0954 64.7809Z" fill="url(#paint5_radial)"/>
<path d="M60.7428 51.5621L61.0857 50.0954C61.1238 49.8859 61.1428 49.6954 61.1428 49.524C61.1047 48.9716 60.7428 48.4954 60.2095 48.2859C59.9238 48.1716 59.619 48.1716 59.3143 48.2478C53.0857 49.9811 46.6095 50.8764 40.0762 50.8764C33.5428 50.8764 27.0667 50.0002 20.8381 48.2478C20.5524 48.1716 20.2286 48.1716 19.9429 48.2859C19.4095 48.4954 19.0667 48.9716 19.0095 49.524C19.0286 49.6954 19.0476 49.9049 19.0667 50.1145L19.4095 51.5621C19.4857 51.8288 19.5809 52.1145 19.6952 52.4002C20.5524 54.4192 21.9809 57.0478 24.1905 59.4669C22.1143 56.9907 24.6667 55.6383 29.2571 56.1907C33.8286 56.7431 40.0762 56.7621 40.0762 56.7621C40.0762 56.7621 46.3238 56.7431 50.8952 56.1907C55.4667 55.6383 58.0381 57.0097 55.9619 59.4669C58.1905 57.0478 59.6 54.4192 60.4571 52.4002C60.5714 52.0954 60.6666 51.8288 60.7428 51.5621Z" fill="url(#paint6_linear)"/>
<path d="M40.0953 52.2666C33.5048 52.2666 26.9906 51.3904 20.6858 49.638L20.762 50.4951C20.9144 52.1332 22.1144 53.4856 23.7144 53.8475C29.0667 55.0285 34.5525 55.6189 40.0763 55.6189C46.0382 55.6189 51.9429 54.9332 57.6953 53.5618C58.5524 53.3523 59.181 52.6285 59.2763 51.7523L59.4858 49.657C53.2001 51.3904 46.6858 52.2666 40.0953 52.2666Z" fill="url(#paint7_radial)"/>
<path d="M27.829 22.2856C25.7718 23.219 24.4194 25.0856 24.0385 27.1428C22.229 26.0571 19.9432 25.8285 17.8861 26.7618C14.5528 28.2666 13.0861 32.1904 14.5909 35.5047C17.9051 42.838 31.8861 44.4761 31.8861 44.4761C31.8861 44.4761 39.8861 32.9142 36.5718 25.5618C35.0861 22.2666 31.1623 20.7809 27.829 22.2856Z" fill="url(#paint8_radial)"/>
<path opacity="0.5" d="M30.5719 21.6952C36.2481 25.4666 36.3243 33.7333 33.5624 37.3333C30.5147 41.3142 27.2957 41.5428 20.1338 40.8761C25.3338 43.7142 31.8862 44.4761 31.8862 44.4761C31.8862 44.4761 39.8862 32.9142 36.5719 25.5618C35.4862 23.1618 33.0862 21.7142 30.5719 21.6952Z" fill="url(#paint9_radial)"/>
<path opacity="0.5" d="M27.829 22.2856C25.7718 23.219 24.4194 25.0856 24.0385 27.1428C22.229 26.0571 19.9432 25.8285 17.8861 26.7618C14.5528 28.2666 13.0861 32.1904 14.5909 35.5047C17.9051 42.838 31.8861 44.4761 31.8861 44.4761C31.8861 44.4761 39.8861 32.9142 36.5718 25.5618C35.0861 22.2666 31.1623 20.7809 27.829 22.2856Z" fill="url(#paint10_radial)"/>
<path opacity="0.5" d="M27.829 22.2856C25.7718 23.219 24.4194 25.0856 24.0385 27.1428C22.229 26.0571 19.9432 25.8285 17.8861 26.7618C14.5528 28.2666 13.0861 32.1904 14.5909 35.5047C17.9051 42.838 31.8861 44.4761 31.8861 44.4761C31.8861 44.4761 39.8861 32.9142 36.5718 25.5618C35.0861 22.2666 31.1623 20.7809 27.829 22.2856Z" fill="url(#paint11_radial)"/>
<path opacity="0.24" d="M22.4765 27.6571C23.7146 28.8 23.2574 31.3333 21.4288 33.3143C19.6003 35.2952 17.1241 35.9619 15.8669 34.819C14.6288 33.6762 15.086 31.1429 16.9146 29.1619C18.7431 27.181 21.2193 26.5143 22.4765 27.6571Z" fill="url(#paint12_radial)"/>
<path opacity="0.24" d="M29.3146 23.1809C30.5908 23.7333 30.9146 25.8476 30.0193 27.9048C29.1241 29.9428 27.3717 31.1428 26.0765 30.5905C24.7812 30.0381 24.4765 27.9238 25.3717 25.8667C26.267 23.8286 28.0193 22.6286 29.3146 23.1809Z" fill="url(#paint13_radial)"/>
<path opacity="0.32" d="M28.6671 23.8474C32.1529 23.5046 37.0671 26.6665 34.7052 34.4379C33.2957 39.0855 30.8767 42.2093 26.5148 43.3903C29.5433 44.2284 31.9052 44.5141 31.9052 44.5141C31.9052 44.5141 39.9052 32.9522 36.591 25.5998C35.0862 22.2665 31.1624 20.7998 27.8481 22.3046C25.791 23.2379 24.4386 25.1046 24.0576 27.1617C24.0576 27.1617 26.1148 24.095 28.6671 23.8474Z" fill="url(#paint14_linear)"/>
<path d="M62.7623 26.743C60.7052 25.8097 58.4004 26.0383 56.6099 27.143C56.229 25.0668 54.8766 23.2192 52.8195 22.2859C49.4861 20.8002 45.5814 22.2859 44.0766 25.6192C40.7814 32.9526 48.8385 44.4954 48.8385 44.4954C48.8385 44.4954 62.8004 42.8192 66.0957 35.4668C67.5814 32.1526 66.0957 28.2287 62.7623 26.743Z" fill="url(#paint15_radial)"/>
<path opacity="0.5" d="M65.0289 28.4001C65.9813 35.143 59.8289 40.6858 55.2955 41.0096C50.286 41.3715 48.0003 39.1049 43.7336 33.3144C45.0479 39.0858 48.8194 44.5144 48.8194 44.5144C48.8194 44.5144 62.7813 42.8382 66.0765 35.4858C67.1813 33.0287 66.686 30.2858 65.0289 28.4001Z" fill="url(#paint16_radial)"/>
<path opacity="0.5" d="M62.7623 26.743C60.7052 25.8097 58.4004 26.0383 56.6099 27.143C56.229 25.0668 54.8766 23.2192 52.8195 22.2859C49.4861 20.8002 45.5814 22.2859 44.0766 25.6192C40.7814 32.9526 48.8385 44.4954 48.8385 44.4954C48.8385 44.4954 62.8004 42.8192 66.0957 35.4668C67.5814 32.1526 66.0957 28.2287 62.7623 26.743Z" fill="url(#paint17_radial)"/>
<path opacity="0.5" d="M62.7623 26.743C60.7052 25.8097 58.4004 26.0383 56.6099 27.143C56.229 25.0668 54.8766 23.2192 52.8195 22.2859C49.4861 20.8002 45.5814 22.2859 44.0766 25.6192C40.7814 32.9526 48.8385 44.4954 48.8385 44.4954C48.8385 44.4954 62.8004 42.8192 66.0957 35.4668C67.5814 32.1526 66.0957 28.2287 62.7623 26.743Z" fill="url(#paint18_radial)"/>
<path opacity="0.24" d="M55.1815 26.286C55.1434 27.9812 52.9338 29.3145 50.2481 29.2574C47.5624 29.2002 45.41 27.7907 45.4291 26.0955C45.4672 24.4002 47.6767 23.0669 50.3624 23.1241C53.0672 23.1812 55.2196 24.5907 55.1815 26.286Z" fill="url(#paint19_radial)"/>
<path opacity="0.24" d="M63.0861 28.4382C63.5242 29.7715 62.1528 31.4096 60.0385 32.0954C57.9242 32.7811 55.848 32.2668 55.4099 30.9335C54.9718 29.6001 56.3433 27.962 58.4575 27.2763C60.5718 26.5715 62.648 27.1049 63.0861 28.4382Z" fill="url(#paint20_radial)"/>
<path opacity="0.32" d="M62.1529 28.3811C64.7243 30.7621 65.6005 36.5335 58.229 39.924C53.81 41.943 49.8671 42.2097 46.0957 39.7335C47.4671 42.5526 48.8386 44.5145 48.8386 44.5145C48.8386 44.5145 62.8005 42.8383 66.0957 35.4859C67.5814 32.1526 66.0957 28.2478 62.7624 26.743C60.7052 25.8097 58.4005 26.0383 56.61 27.143C56.61 27.124 60.2862 26.6478 62.1529 28.3811Z" fill="url(#paint21_linear)"/>
<defs>
<radialGradient id="paint0_radial" cx="0" cy="0" r="1" gradientUnits="userSpaceOnUse" gradientTransform="translate(34.0991 27.5538) scale(36.7656)">
<stop stop-color="#FFE030"/>
<stop offset="1" stop-color="#FFB92E"/>
</radialGradient>
<radialGradient id="paint1_radial" cx="0" cy="0" r="1" gradientUnits="userSpaceOnUse" gradientTransform="translate(34.0991 27.5538) scale(28.9251)">
<stop stop-color="#FFEA5F"/>
<stop offset="1" stop-color="#FFBC47" stop-opacity="0"/>
</radialGradient>
<radialGradient id="paint2_radial" cx="0" cy="0" r="1" gradientUnits="userSpaceOnUse" gradientTransform="translate(23.1769 40.1722) rotate(32.7366) scale(16.1359 11.7774)">
<stop stop-color="#EB672A" stop-opacity="0.5"/>
<stop offset="0.4286" stop-color="#DC641B" stop-opacity="0.2846"/>
<stop offset="0.995" stop-color="#C25E00" stop-opacity="0"/>
</radialGradient>
<radialGradient id="paint3_radial" cx="0" cy="0" r="1" gradientUnits="userSpaceOnUse" gradientTransform="translate(57.0317 40.1473) rotate(147.263) scale(16.1359 11.7774)">
<stop stop-color="#EB672A" stop-opacity="0.5"/>
<stop offset="0.4286" stop-color="#DC641B" stop-opacity="0.2846"/>
<stop offset="0.995" stop-color="#C25E00" stop-opacity="0"/>
</radialGradient>
<radialGradient id="paint4_radial" cx="0" cy="0" r="1" gradientUnits="userSpaceOnUse" gradientTransform="translate(40.0922 57.1868) scale(16.1933)">
<stop offset="0.00132565" stop-color="#7A4400"/>
<stop offset="1" stop-color="#643800"/>
</radialGradient>
<radialGradient id="paint5_radial" cx="0" cy="0" r="1" gradientUnits="userSpaceOnUse" gradientTransform="translate(40.3272 62.5708) scale(12.8839 3.89558)">
<stop offset="0.2479" stop-color="#FF0000"/>
<stop offset="1" stop-color="#C20000"/>
</radialGradient>
<linearGradient id="paint6_linear" x1="60.9231" y1="53.8372" x2="19.5205" y2="53.8372" gradientUnits="userSpaceOnUse">
<stop offset="0.00132565" stop-color="#3C2200"/>
<stop offset="0.5" stop-color="#512D00"/>
<stop offset="1" stop-color="#3C2200"/>
</linearGradient>
<radialGradient id="paint7_radial" cx="0" cy="0" r="1" gradientUnits="userSpaceOnUse" gradientTransform="translate(40.0936 52.6268) scale(35.5167)">
<stop offset="0.00132565" stop-color="white"/>
<stop offset="1" stop-color="#A9BCBE"/>
</radialGradient>
<radialGradient id="paint8_radial" cx="0" cy="0" r="1" gradientUnits="userSpaceOnUse" gradientTransform="translate(22.2524 31.4893) rotate(-53.7393) scale(18.8753 14.9708)">
<stop offset="0.2479" stop-color="#FF0000"/>
<stop offset="0.8639" stop-color="#C20000"/>
</radialGradient>
<radialGradient id="paint9_radial" cx="0" cy="0" r="1" gradientUnits="userSpaceOnUse" gradientTransform="translate(22.2008 30.2421) rotate(-53.7394) scale(16.251 12.8894)">
<stop offset="0.2479" stop-color="#FF0000"/>
<stop offset="1" stop-color="#C20000"/>
</radialGradient>
<radialGradient id="paint10_radial" cx="0" cy="0" r="1" gradientUnits="userSpaceOnUse" gradientTransform="translate(22.2524 31.4893) rotate(-53.7393) scale(18.8753 14.9708)">
<stop stop-color="white" stop-opacity="0.25"/>
<stop offset="1" stop-color="white" stop-opacity="0"/>
</radialGradient>
<radialGradient id="paint11_radial" cx="0" cy="0" r="1" gradientUnits="userSpaceOnUse" gradientTransform="translate(31.0657 34.5718) rotate(-50.6229) scale(13.7774 6.80701)">
<stop stop-color="#BD2719" stop-opacity="0.25"/>
<stop offset="1" stop-color="#BD2719" stop-opacity="0"/>
</radialGradient>
<radialGradient id="paint12_radial" cx="0" cy="0" r="1" gradientUnits="userSpaceOnUse" gradientTransform="translate(19.1695 31.268) rotate(-46.0208) scale(4.89758 3.04236)">
<stop stop-color="white"/>
<stop offset="1" stop-color="white" stop-opacity="0"/>
</radialGradient>
<radialGradient id="paint13_radial" cx="0" cy="0" r="1" gradientUnits="userSpaceOnUse" gradientTransform="translate(27.694 26.9074) rotate(-65.0908) scale(4.0549 2.51901)">
<stop stop-color="white"/>
<stop offset="1" stop-color="white" stop-opacity="0"/>
</radialGradient>
<linearGradient id="paint14_linear" x1="37.7168" y1="51.3149" x2="26.8636" y2="21.6393" gradientUnits="userSpaceOnUse">
<stop stop-color="#860805"/>
<stop offset="1" stop-color="#BD2719" stop-opacity="0"/>
</linearGradient>
<radialGradient id="paint15_radial" cx="0" cy="0" r="1" gradientUnits="userSpaceOnUse" gradientTransform="translate(52.129 28.6563) rotate(-5.26571) scale(18.8751 14.9711)">
<stop offset="0.2479" stop-color="#FF0000"/>
<stop offset="0.8639" stop-color="#C20000"/>
</radialGradient>
<radialGradient id="paint16_radial" cx="0" cy="0" r="1" gradientUnits="userSpaceOnUse" gradientTransform="translate(53.0285 27.7908) rotate(-5.26571) scale(16.2508 12.8896)">
<stop offset="0.2479" stop-color="#FF0000"/>
<stop offset="1" stop-color="#C20000"/>
</radialGradient>
<radialGradient id="paint17_radial" cx="0" cy="0" r="1" gradientUnits="userSpaceOnUse" gradientTransform="translate(52.129 28.6563) rotate(-5.26571) scale(18.8751 14.9711)">
<stop stop-color="white" stop-opacity="0.25"/>
<stop offset="1" stop-color="white" stop-opacity="0"/>
</radialGradient>
<radialGradient id="paint18_radial" cx="0" cy="0" r="1" gradientUnits="userSpaceOnUse" gradientTransform="translate(55.6996 37.2755) rotate(-2.1516) scale(13.7777 6.8071)">
<stop stop-color="#BD2719" stop-opacity="0.25"/>
<stop offset="1" stop-color="#BD2719" stop-opacity="0"/>
</radialGradient>
<radialGradient id="paint19_radial" cx="0" cy="0" r="1" gradientUnits="userSpaceOnUse" gradientTransform="translate(50.3152 26.2134) rotate(2.44968) scale(4.89766 3.04269)">
<stop stop-color="white"/>
<stop offset="1" stop-color="white" stop-opacity="0"/>
</radialGradient>
<radialGradient id="paint20_radial" cx="0" cy="0" r="1" gradientUnits="userSpaceOnUse" gradientTransform="translate(59.2737 29.671) rotate(-16.6195) scale(4.05503 2.51905)">
<stop stop-color="white"/>
<stop offset="1" stop-color="white" stop-opacity="0"/>
</radialGradient>
<linearGradient id="paint21_linear" x1="47.5984" y1="53.3748" x2="62.6189" y2="25.5768" gradientUnits="userSpaceOnUse">
<stop stop-color="#860805"/>
<stop offset="1" stop-color="#BD2719" stop-opacity="0"/>
</linearGradient>
</defs>
</svg>
