<svg width="80" height="80" viewBox="0 0 80 80" fill="none" xmlns="http://www.w3.org/2000/svg">
<path d="M40.475 70.95C57.3059 70.95 70.95 57.3059 70.95 40.475C70.95 23.6441 57.3059 10 40.475 10C23.6441 10 10 23.6441 10 40.475C10 57.3059 23.6441 70.95 40.475 70.95Z" fill="url(#paint0_radial)"/>
<path opacity="0.5" d="M40.475 70.95C57.3059 70.95 70.95 57.3059 70.95 40.475C70.95 23.6441 57.3059 10 40.475 10C23.6441 10 10 23.6441 10 40.475C10 57.3059 23.6441 70.95 40.475 70.95Z" fill="url(#paint1_radial)"/>
<path d="M40.475 70.95C57.3059 70.95 70.95 57.3059 70.95 40.475C70.95 23.6441 57.3059 10 40.475 10C23.6441 10 10 23.6441 10 40.475C10 57.3059 23.6441 70.95 40.475 70.95Z" fill="url(#paint2_radial)"/>
<path d="M34.465 54.6636L38.2637 57.7536C39.5394 58.7883 41.3963 58.7883 42.672 57.7536L46.4707 54.6636L50.2695 57.7536C51.5452 58.7883 53.402 58.7883 54.6777 57.7536L56.974 55.8826C57.3425 55.5849 57.541 55.1455 57.541 54.6778C57.541 54.21 57.3283 53.7706 56.974 53.4729C56.407 53.0194 55.5849 53.0194 55.0179 53.4729L52.4665 55.5424L48.526 52.339C47.3354 51.361 45.5919 51.361 44.4013 52.339L40.475 55.5707L36.5345 52.3673C35.3438 51.3893 33.6004 51.3893 32.4097 52.3673L28.4692 55.5707L25.9178 53.5013C25.3508 53.0477 24.5287 53.0477 23.9618 53.5013C23.5932 53.7989 23.3948 54.2384 23.3948 54.7061C23.3948 55.1739 23.6074 55.6133 23.9618 55.9109L26.258 57.7819C27.5337 58.8167 29.3906 58.8167 30.6663 57.7819L34.465 54.6636Z" fill="#643800"/>
<path d="M56.9741 53.4871C56.4071 53.0335 55.585 53.0335 55.018 53.4871L53.6714 54.5786C52.9769 55.1455 51.9705 55.1455 51.2618 54.5786L48.5261 52.3532C47.3354 51.3751 45.592 51.3751 44.4013 52.3532L41.6657 54.5786C40.9711 55.1455 39.9648 55.1455 39.256 54.5786L36.5204 52.3532C35.3297 51.3751 33.5863 51.3751 32.3956 52.3532L29.66 54.5786C28.9654 55.1455 27.959 55.1455 27.2503 54.5786L25.9037 53.4871C25.3368 53.0335 24.5146 53.0335 23.9477 53.4871C23.6784 53.6997 23.4941 54.0116 23.4232 54.3376C25.5494 53.2036 26.7826 56.563 28.4835 56.563C30.0143 56.563 32.3247 52.7217 34.4226 52.7217C36.2085 52.7217 38.845 56.5346 40.4609 56.5346C42.0767 56.5346 44.7132 52.7217 46.4992 52.7217C48.597 52.7217 50.9074 56.563 52.4382 56.563C54.1392 56.563 55.3723 53.2036 57.4985 54.3376C57.4276 54.0116 57.2575 53.7139 56.9741 53.4871Z" fill="url(#paint3_linear)"/>
<path d="M20.6733 24.869C20.5032 26.088 21.7081 27.0235 23.9476 27.3353C25.8612 27.6046 30.1985 27.1511 33.6288 23.8342C34.2524 23.2247 33.487 22.7286 32.9059 23.0972C30.9073 24.3587 25.8753 25.6202 22.2183 24.6847C20.7442 24.3303 20.6733 24.869 20.6733 24.869Z" fill="url(#paint4_linear)"/>
<path d="M21.4954 31.4884C21.6088 31.1341 21.9348 30.9498 22.3033 31.0207C24.1885 31.4034 27.392 32.7925 30.4678 34.5643C32.9058 35.9675 35.7407 39.5253 35.4005 40.7301C35.0178 42.0767 31.2191 43.0831 29.589 43.4516C27.0518 44.0328 23.7208 44.4722 21.9632 43.9761C21.4954 43.8485 21.3395 43.5225 21.3537 43.2532C21.3678 42.8847 21.6797 42.587 22.1616 42.5019C27.2927 41.4814 30.723 40.2057 30.7797 39.4261C30.7797 39.4261 31.0348 38.2071 27.803 36.1093C25.8328 34.8336 23.6924 33.7138 22.36 33.076C21.5804 32.6082 21.3253 31.9845 21.4954 31.4884Z" fill="url(#paint5_radial)"/>
<path d="M22.2892 31.0207C24.1744 31.4034 27.4912 32.3956 30.4536 34.5643C33.1751 36.5487 35.7265 39.5253 35.3863 40.7301C35.1595 41.5097 33.7846 42.1759 32.353 42.672C32.2963 42.6862 32.2396 42.7145 32.1829 42.7287H32.1687C33.5153 41.6798 34.3516 40.3758 32.8491 38.4906C31.8994 37.2999 29.0929 33.6713 21.467 31.4884C21.6088 31.1341 21.9348 30.9498 22.2892 31.0207Z" fill="url(#paint6_linear)"/>
<path d="M21.3538 43.2532C21.3679 42.8847 21.6798 42.587 22.1617 42.502C27.2928 41.4814 30.723 40.2057 30.7797 39.4261C30.6947 40.7443 30.6238 41.4105 26.3715 42.3602C23.2106 43.0689 21.7223 43.3241 21.9774 43.9903C21.4955 43.8344 21.3538 43.5083 21.3538 43.2532Z" fill="url(#paint7_linear)"/>
<path d="M60.2766 24.869C60.4467 26.088 59.2419 27.0235 57.0023 27.3353C55.0888 27.6046 50.7514 27.1511 47.3212 23.8342C46.6975 23.2247 47.4629 22.7286 48.0441 23.0972C50.0427 24.3587 55.0746 25.6202 58.7316 24.6847C60.2057 24.3303 60.2766 24.869 60.2766 24.869Z" fill="url(#paint8_linear)"/>
<path d="M59.4546 31.4884C59.3413 31.1341 59.0152 30.9498 58.6467 31.0207C56.7615 31.4034 53.5581 32.7925 50.4822 34.5643C48.0442 35.9675 45.2093 39.5253 45.5495 40.7301C45.9322 42.0767 49.731 43.0831 51.361 43.4516C53.8983 44.0328 57.2293 44.4722 58.9869 43.9761C59.4547 43.8485 59.6106 43.5225 59.5964 43.2532C59.5822 42.8847 59.2704 42.587 58.7885 42.5019C53.6573 41.4814 50.2271 40.2057 50.1704 39.4261C50.1704 39.4261 49.9152 38.2071 53.147 36.1093C55.1173 34.8336 57.2576 33.7138 58.59 33.076C59.3696 32.6082 59.6247 31.9845 59.4546 31.4884Z" fill="url(#paint9_radial)"/>
<path d="M58.6608 31.0207C56.7756 31.4034 53.4588 32.3956 50.4964 34.5643C47.7749 36.5487 45.2235 39.5253 45.5637 40.7301C45.7905 41.5097 47.1654 42.1759 48.597 42.672C48.6537 42.6862 48.7104 42.7145 48.7671 42.7287H48.7813C47.4347 41.6798 46.5984 40.3758 48.1009 38.4906C49.0506 37.2999 51.8571 33.6713 59.4829 31.4884C59.3412 31.1341 59.0152 30.9498 58.6608 31.0207Z" fill="url(#paint10_linear)"/>
<path d="M59.5963 43.2532C59.5821 42.8847 59.2703 42.587 58.7883 42.502C53.6572 41.4814 50.227 40.2057 50.1703 39.4261C50.2553 40.7443 50.3262 41.4105 54.5785 42.3602C57.7394 43.0689 59.2277 43.3241 58.9726 43.9903C59.4545 43.8344 59.5963 43.5083 59.5963 43.2532Z" fill="url(#paint11_linear)"/>
<path d="M39.823 43.1823C36.166 43.1823 21.8215 50.5672 17.6542 52.1831C13.4869 53.799 18.1645 56.1377 16.18 61.5098C14.1956 66.8819 32.509 53.884 32.509 53.884L39.823 43.1823Z" fill="url(#paint12_linear)"/>
<path d="M39.2561 68.0584C39.2702 67.3922 38.519 66.074 34.621 65.7763C34.6635 67.1229 33.1611 68.0159 33.1469 68.8239C33.1327 69.7594 37.8386 70.1137 39.3127 68.271C39.2986 68.2569 39.2561 68.1577 39.2561 68.0584Z" fill="url(#paint13_linear)"/>
<path d="M39.823 43.1823C35.7691 43.1823 20.3331 59.8798 12.5372 62.7147C7.26432 64.6282 12.438 68.5829 24.954 66.5134C37.47 64.444 39.2702 67.0379 39.256 68.0726C39.2418 69.1073 39.7521 66.4567 42.0767 65.096C44.4013 63.7352 44.2737 63.0832 44.0328 61.2689C42.5161 49.5325 43.3949 43.1823 39.823 43.1823Z" fill="url(#paint14_linear)"/>
<path d="M30.5954 53.6005C28.8095 56.4496 22.6719 66.5134 15.4572 66.9245C17.8385 67.208 21.0419 67.1513 24.954 66.4992C26.981 66.1591 28.6961 65.9606 30.1986 65.8472C30.1419 64.3306 27.066 62.7572 29.0646 60.2767C31.6018 57.1016 32.509 50.5388 30.5954 53.6005Z" fill="url(#paint15_linear)"/>
<path d="M44.0328 61.2547C42.7145 51.1058 43.1823 44.9966 41.0278 43.5367C42.6295 47.1795 39.4686 52.4382 41.453 55.5424C43.4516 58.6608 37.2432 60.3192 40.7301 66.1874C41.0845 65.7905 41.5381 65.4078 42.0767 65.0818C44.4013 63.7211 44.2737 63.069 44.0328 61.2547Z" fill="url(#paint16_linear)"/>
<defs>
<radialGradient id="paint0_radial" cx="0" cy="0" r="1" gradientUnits="userSpaceOnUse" gradientTransform="translate(34.479 28.1245) scale(36.7641)">
<stop stop-color="#FFDF30"/>
<stop offset="1" stop-color="#FFB82E"/>
</radialGradient>
<radialGradient id="paint1_radial" cx="0" cy="0" r="1" gradientUnits="userSpaceOnUse" gradientTransform="translate(34.479 28.1245) scale(28.924)">
<stop stop-color="#FFE95F"/>
<stop offset="1" stop-color="#FFBB47" stop-opacity="0"/>
</radialGradient>
<radialGradient id="paint2_radial" cx="0" cy="0" r="1" gradientUnits="userSpaceOnUse" gradientTransform="translate(23.4042 64.0116) scale(28.2288 16.5731)">
<stop stop-color="#7A4400" stop-opacity="0.5"/>
<stop offset="0.6008" stop-color="#894D00" stop-opacity="0.1981"/>
<stop offset="0.995" stop-color="#965500" stop-opacity="0"/>
</radialGradient>
<linearGradient id="paint3_linear" x1="40.4747" y1="53.8903" x2="40.4747" y2="64.4452" gradientUnits="userSpaceOnUse">
<stop offset="0.00132565" stop-color="#3C2200"/>
<stop offset="1" stop-color="#512D00"/>
</linearGradient>
<linearGradient id="paint4_linear" x1="25.1116" y1="28.699" x2="27.887" y2="22.8733" gradientUnits="userSpaceOnUse">
<stop offset="0.00132565" stop-color="#3C2200"/>
<stop offset="1" stop-color="#7A4400"/>
</linearGradient>
<radialGradient id="paint5_radial" cx="0" cy="0" r="1" gradientUnits="userSpaceOnUse" gradientTransform="translate(27.6018 39.0494) rotate(-57.9898) scale(7.16798 4.63706)">
<stop offset="0.00132565" stop-color="#7A4400"/>
<stop offset="1" stop-color="#643800"/>
</radialGradient>
<linearGradient id="paint6_linear" x1="35.8079" y1="39.2791" x2="20.5131" y2="34.9319" gradientUnits="userSpaceOnUse">
<stop offset="0.00132565" stop-color="#3C2200"/>
<stop offset="1" stop-color="#512D00"/>
</linearGradient>
<linearGradient id="paint7_linear" x1="30.5883" y1="41.9687" x2="21.4653" y2="41.3688" gradientUnits="userSpaceOnUse">
<stop offset="0.00132565" stop-color="#3C2200"/>
<stop offset="1" stop-color="#512D00"/>
</linearGradient>
<linearGradient id="paint8_linear" x1="55.8427" y1="28.6987" x2="53.0673" y2="22.873" gradientUnits="userSpaceOnUse">
<stop offset="0.00132565" stop-color="#3C2200"/>
<stop offset="1" stop-color="#7A4400"/>
</linearGradient>
<radialGradient id="paint9_radial" cx="0" cy="0" r="1" gradientUnits="userSpaceOnUse" gradientTransform="translate(53.3406 39.039) rotate(-122.01) scale(7.16798 4.63706)">
<stop offset="0.00132565" stop-color="#7A4400"/>
<stop offset="1" stop-color="#643800"/>
</radialGradient>
<linearGradient id="paint10_linear" x1="45.1436" y1="39.2761" x2="60.4384" y2="34.9289" gradientUnits="userSpaceOnUse">
<stop offset="0.00132565" stop-color="#3C2200"/>
<stop offset="1" stop-color="#512D00"/>
</linearGradient>
<linearGradient id="paint11_linear" x1="50.3488" y1="41.9679" x2="59.4717" y2="41.368" gradientUnits="userSpaceOnUse">
<stop offset="0.00132565" stop-color="#3C2200"/>
<stop offset="1" stop-color="#512D00"/>
</linearGradient>
<linearGradient id="paint12_linear" x1="27.9733" y1="57.9585" x2="27.8622" y2="49.9569" gradientUnits="userSpaceOnUse">
<stop stop-color="#CEDBDD"/>
<stop offset="1" stop-color="#F3F5F7"/>
</linearGradient>
<linearGradient id="paint13_linear" x1="35.9878" y1="66.5419" x2="36.987" y2="75.0905" gradientUnits="userSpaceOnUse">
<stop stop-color="#CEDBDD"/>
<stop offset="1" stop-color="#F3F5F7"/>
</linearGradient>
<linearGradient id="paint14_linear" x1="23.6378" y1="65.4546" x2="37.8284" y2="56.5442" gradientUnits="userSpaceOnUse">
<stop stop-color="#E6EAED"/>
<stop offset="1" stop-color="#F3F5F7"/>
</linearGradient>
<linearGradient id="paint15_linear" x1="21.1374" y1="62.8156" x2="37.5149" y2="56.8802" gradientUnits="userSpaceOnUse">
<stop stop-color="#CEDBDD"/>
<stop offset="1" stop-color="#F3F5F7"/>
</linearGradient>
<linearGradient id="paint16_linear" x1="38.8566" y1="51.999" x2="50.9828" y2="68.5007" gradientUnits="userSpaceOnUse">
<stop stop-color="#E6EAED"/>
<stop offset="1" stop-color="#F3F5F7"/>
</linearGradient>
</defs>
</svg>
