<svg width="80" height="80" viewBox="0 0 80 80" fill="none" xmlns="http://www.w3.org/2000/svg">
<path d="M40.475 69.95C57.3059 69.95 70.95 56.3059 70.95 39.475C70.95 22.6441 57.3059 9 40.475 9C23.6441 9 10 22.6441 10 39.475C10 56.3059 23.6441 69.95 40.475 69.95Z" fill="url(#paint0_radial)"/>
<path opacity="0.5" d="M40.475 69.95C57.3059 69.95 70.95 56.3059 70.95 39.475C70.95 22.6441 57.3059 9 40.475 9C23.6441 9 10 22.6441 10 39.475C10 56.3059 23.6441 69.95 40.475 69.95Z" fill="url(#paint1_radial)"/>
<path d="M40.475 69.95C57.3059 69.95 70.95 56.3059 70.95 39.475C70.95 22.6441 57.3059 9 40.475 9C23.6441 9 10 22.6441 10 39.475C10 56.3059 23.6441 69.95 40.475 69.95Z" fill="url(#paint2_radial)"/>
<path d="M59.7664 32.1751C59.6672 31.8208 59.3554 31.6082 58.9868 31.6649C57.0875 31.9625 53.8132 33.1815 50.6523 34.7832C48.1434 36.0589 45.1384 39.475 45.4078 40.694C45.7196 42.0547 49.4758 43.2595 51.0633 43.699C53.5722 44.4077 56.8749 45.0172 58.6467 44.6061C59.1144 44.4927 59.2845 44.1809 59.2845 43.9116C59.2845 43.543 58.9868 43.2312 58.5191 43.1178C53.4446 41.8421 50.0853 40.3821 50.0711 39.6025C50.0711 39.6025 49.8727 38.3694 53.2037 36.4416C55.2306 35.2652 57.4277 34.2588 58.7884 33.6918C59.6247 33.2949 59.894 32.6854 59.7664 32.1751Z" fill="url(#paint3_radial)"/>
<path d="M58.9869 31.6649C57.0875 31.9625 53.7282 32.7846 50.6523 34.7832C47.8316 36.6259 45.1385 39.475 45.4078 40.694C45.5921 41.4877 46.9245 42.2106 48.3277 42.7776C48.3844 42.7918 48.4411 42.8201 48.4836 42.8485H48.4978C47.208 41.7287 46.4425 40.3821 48.0301 38.582C49.0365 37.448 52.0273 33.9611 59.7523 32.1751C59.6673 31.8208 59.3413 31.6082 58.9869 31.6649Z" fill="url(#paint4_linear)"/>
<path d="M59.2986 43.9399C59.2986 43.5714 59.0009 43.2596 58.5332 43.1462C53.4587 41.8705 50.0994 40.4105 50.0852 39.6309C50.0994 40.9633 50.1419 41.6153 54.3375 42.7776C57.4559 43.6423 58.93 43.9825 58.6466 44.6345C59.1143 44.5211 59.2986 44.1951 59.2986 43.9399Z" fill="url(#paint5_linear)"/>
<path d="M21.1836 32.1751C21.2829 31.8208 21.5947 31.6082 21.9632 31.6649C23.8626 31.9625 27.1369 33.1815 30.2978 34.7832C32.8067 36.0589 35.8116 39.475 35.5423 40.694C35.2305 42.0547 31.4743 43.2595 29.8867 43.699C27.3779 44.4077 24.0752 45.0172 22.3034 44.6061C21.8357 44.4927 21.6656 44.1809 21.6656 43.9116C21.6656 43.543 21.9632 43.2312 22.431 43.1178C27.5054 41.8421 30.8648 40.3821 30.8789 39.6025C30.8789 39.6025 31.0774 38.3694 27.7464 36.4416C25.7195 35.2652 23.5224 34.2588 22.1617 33.6918C21.3254 33.2949 21.0561 32.6854 21.1836 32.1751Z" fill="url(#paint6_radial)"/>
<path d="M21.9632 31.6649C23.8625 31.9625 27.2219 32.7846 30.2977 34.7832C33.1184 36.6259 35.8116 39.475 35.5423 40.694C35.358 41.4877 34.0256 42.2106 32.6223 42.7776C32.5656 42.7918 32.5089 42.8201 32.4664 42.8485H32.4522C33.7421 41.7287 34.5075 40.3821 32.92 38.582C31.9136 37.448 28.9228 33.9611 21.1978 32.1751C21.2828 31.8208 21.6088 31.6082 21.9632 31.6649Z" fill="url(#paint7_linear)"/>
<path d="M21.6514 43.9399C21.6514 43.5714 21.949 43.2596 22.4168 43.1462C27.4912 41.8705 30.8506 40.4105 30.8647 39.6309C30.8506 40.9633 30.808 41.6153 26.6124 42.7776C23.494 43.6423 22.0199 43.9825 22.3034 44.6345C21.8356 44.5211 21.6514 44.1951 21.6514 43.9399Z" fill="url(#paint8_linear)"/>
<path d="M33.7705 23.6847C33.7705 22.4657 32.4523 21.7003 30.1844 21.7003C28.2566 21.7003 24.0185 22.7634 21.0986 26.5196C20.5599 27.2142 21.382 27.5969 21.9207 27.1433C23.7208 25.6125 28.526 23.6564 32.2822 24.0674C33.7847 24.2375 33.7705 23.6847 33.7705 23.6847Z" fill="url(#paint9_linear)"/>
<path d="M47.1794 23.6847C47.1794 22.4657 48.4977 21.7003 50.7656 21.7003C52.6933 21.7003 56.9314 22.7634 59.8514 26.5196C60.39 27.2142 59.5679 27.5969 59.0293 27.1433C57.2291 25.6125 52.424 23.6564 48.6678 24.0674C47.1653 24.2375 47.1794 23.6847 47.1794 23.6847Z" fill="url(#paint10_linear)"/>
<path d="M40.4749 62.5651C26.017 62.5651 21.382 47.8237 25.7902 50.1342C31.701 53.2242 35.443 54.1314 40.4749 54.1314C45.4927 54.1314 49.2489 53.2242 55.1596 50.1342C59.5679 47.8379 54.9328 62.5651 40.4749 62.5651Z" fill="#643800"/>
<path d="M49.164 56.541C49.164 55.6622 48.3135 55.0102 47.4631 55.2654C45.4078 55.8749 43.0832 56.2434 40.4751 56.2434C37.867 56.2434 35.5282 55.8749 33.4871 55.2654C32.6366 55.0102 31.7861 55.6622 31.7861 56.541V62.3809C31.7861 67.1719 35.6841 71.2683 40.4751 71.2683C45.2802 71.2683 49.164 67.186 49.164 62.3809V62.3667V56.541Z" fill="url(#paint11_linear)"/>
<path d="M49.164 56.541C49.164 55.6622 48.3135 55.0102 47.4631 55.2654C45.4078 55.8749 43.0832 56.2434 40.4751 56.2434C37.867 56.2434 35.5282 55.8749 33.4871 55.2654C32.6366 55.0102 31.7861 55.6622 31.7861 56.541V62.3809C31.7861 67.1719 35.6841 71.2683 40.4751 71.2683C45.2802 71.2683 49.164 67.186 49.164 62.3809V62.3667V56.541Z" fill="url(#paint12_radial)"/>
<path d="M39.5679 56.6403H41.368C41.368 67.7814 40.9711 67.9373 40.4609 67.9373C39.9789 67.9373 39.5679 67.7247 39.5679 56.6403Z" fill="url(#paint13_linear)"/>
<path d="M55.1598 50.1342C49.2491 53.2242 45.507 54.1313 40.4751 54.1313C35.4574 54.1313 31.7011 53.2383 25.7904 50.1342C24.2596 49.3262 23.8202 50.6019 24.5005 52.5863C24.5005 52.5438 24.7273 50.4176 26.811 51.8918C26.811 51.8918 26.8251 51.8918 26.8251 51.906C29.9152 54.2873 34.4368 56.2433 40.4751 56.2433C46.4992 56.2433 51.0351 54.2873 54.1251 51.906H54.1393C56.2087 50.4318 56.4355 52.558 56.4497 52.6005C57.1301 50.6019 56.6907 49.3404 55.1598 50.1342Z" fill="url(#paint14_linear)"/>
<path d="M40.4751 56.2292C37.867 56.2292 35.5282 55.8606 33.4871 55.2511C32.6366 54.996 31.7861 55.648 31.7861 56.5268C31.7861 58.0577 31.7861 59.8153 31.7861 59.8153C31.7861 59.8153 31.8995 57.7316 40.4751 57.7316C49.0506 57.7316 49.164 59.8153 49.164 59.8153C49.164 59.8153 49.164 58.0577 49.164 56.5268C49.164 55.648 48.3135 54.996 47.4631 55.2511C45.4078 55.8606 43.0832 56.2292 40.4751 56.2292Z" fill="url(#paint15_linear)"/>
<defs>
<radialGradient id="paint0_radial" cx="0" cy="0" r="1" gradientUnits="userSpaceOnUse" gradientTransform="translate(34.479 27.1245) scale(36.7641)">
<stop stop-color="#FFDF30"/>
<stop offset="1" stop-color="#FFB82E"/>
</radialGradient>
<radialGradient id="paint1_radial" cx="0" cy="0" r="1" gradientUnits="userSpaceOnUse" gradientTransform="translate(34.479 27.1245) scale(28.924)">
<stop stop-color="#FFE95F"/>
<stop offset="1" stop-color="#FFBB47" stop-opacity="0"/>
</radialGradient>
<radialGradient id="paint2_radial" cx="0" cy="0" r="1" gradientUnits="userSpaceOnUse" gradientTransform="translate(40.5702 64.1784) scale(15.8006 5.69928)">
<stop stop-color="#7A4400" stop-opacity="0.5"/>
<stop offset="0.6008" stop-color="#894D00" stop-opacity="0.1981"/>
<stop offset="0.995" stop-color="#965500" stop-opacity="0"/>
</radialGradient>
<radialGradient id="paint3_radial" cx="0" cy="0" r="1" gradientUnits="userSpaceOnUse" gradientTransform="translate(53.2655 39.4105) rotate(-119.097) scale(7.16763 4.63702)">
<stop offset="0.00132565" stop-color="#7A4400"/>
<stop offset="1" stop-color="#643800"/>
</radialGradient>
<linearGradient id="paint4_linear" x1="45.0665" y1="39.2312" x2="60.5636" y2="35.6678" gradientUnits="userSpaceOnUse">
<stop offset="0.00132565" stop-color="#3C2200"/>
<stop offset="1" stop-color="#512D00"/>
</linearGradient>
<linearGradient id="paint5_linear" x1="50.124" y1="42.1849" x2="59.2661" y2="42.0495" gradientUnits="userSpaceOnUse">
<stop offset="0.00132565" stop-color="#3C2200"/>
<stop offset="1" stop-color="#512D00"/>
</linearGradient>
<radialGradient id="paint6_radial" cx="0" cy="0" r="1" gradientUnits="userSpaceOnUse" gradientTransform="translate(27.6824 39.4093) rotate(-60.9025) scale(7.16763 4.63703)">
<stop offset="0.00132565" stop-color="#7A4400"/>
<stop offset="1" stop-color="#643800"/>
</radialGradient>
<linearGradient id="paint7_linear" x1="35.8881" y1="39.235" x2="20.391" y2="35.6716" gradientUnits="userSpaceOnUse">
<stop offset="0.00132565" stop-color="#3C2200"/>
<stop offset="1" stop-color="#512D00"/>
</linearGradient>
<linearGradient id="paint8_linear" x1="30.8269" y1="42.1849" x2="21.6847" y2="42.0495" gradientUnits="userSpaceOnUse">
<stop offset="0.00132565" stop-color="#3C2200"/>
<stop offset="1" stop-color="#512D00"/>
</linearGradient>
<linearGradient id="paint9_linear" x1="27.3442" y1="25.7278" x2="27.3442" y2="22.5166" gradientUnits="userSpaceOnUse">
<stop offset="0.00132565" stop-color="#3C2200"/>
<stop offset="1" stop-color="#7A4400"/>
</linearGradient>
<linearGradient id="paint10_linear" x1="53.6057" y1="25.7278" x2="53.6057" y2="22.5166" gradientUnits="userSpaceOnUse">
<stop offset="0.00132565" stop-color="#3C2200"/>
<stop offset="1" stop-color="#7A4400"/>
</linearGradient>
<linearGradient id="paint11_linear" x1="40.4746" y1="66.0908" x2="40.4746" y2="52.7156" gradientUnits="userSpaceOnUse">
<stop stop-color="#FF6687"/>
<stop offset="1" stop-color="#D83E15"/>
</linearGradient>
<radialGradient id="paint12_radial" cx="0" cy="0" r="1" gradientUnits="userSpaceOnUse" gradientTransform="translate(43.0913 65.7581) rotate(-39.9046) scale(8.62946 5.23308)">
<stop stop-color="white" stop-opacity="0.33"/>
<stop offset="1" stop-color="white" stop-opacity="0"/>
</radialGradient>
<linearGradient id="paint13_linear" x1="40.4742" y1="57.9217" x2="40.4742" y2="75.2548" gradientUnits="userSpaceOnUse">
<stop stop-color="#D83E15" stop-opacity="0"/>
<stop offset="1" stop-color="#D83E15"/>
</linearGradient>
<linearGradient id="paint14_linear" x1="40.4747" y1="44.7043" x2="40.4747" y2="55.9205" gradientUnits="userSpaceOnUse">
<stop offset="0.00132565" stop-color="#3C2200"/>
<stop offset="1" stop-color="#512D00"/>
</linearGradient>
<linearGradient id="paint15_linear" x1="40.4746" y1="61.0856" x2="40.4746" y2="56.1961" gradientUnits="userSpaceOnUse">
<stop stop-color="#D83E15" stop-opacity="0"/>
<stop offset="1" stop-color="#BC2719"/>
</linearGradient>
</defs>
</svg>
