<svg width="80" height="80" viewBox="0 0 80 80" fill="none" xmlns="http://www.w3.org/2000/svg">
<path d="M40 70.4762C56.8315 70.4762 70.4762 56.8315 70.4762 40C70.4762 23.1685 56.8315 9.52381 40 9.52381C23.1685 9.52381 9.5238 23.1685 9.5238 40C9.5238 56.8315 23.1685 70.4762 40 70.4762Z" fill="url(#paint0_radial)"/>
<path opacity="0.5" d="M40 70.4762C56.8315 70.4762 70.4762 56.8315 70.4762 40C70.4762 23.1685 56.8315 9.52381 40 9.52381C23.1685 9.52381 9.5238 23.1685 9.5238 40C9.5238 56.8315 23.1685 70.4762 40 70.4762Z" fill="url(#paint1_radial)"/>
<path d="M46.9902 37.3143C46.8378 39.7524 48.0187 41.8286 49.6378 41.9238C51.2568 42.0191 52.7044 40.1334 52.8568 37.6953C53.0092 35.2572 51.8283 33.181 50.2092 33.0857C48.5902 32.9715 47.1425 34.8762 46.9902 37.3143Z" fill="url(#paint2_radial)"/>
<path d="M50.1144 34.5713C48.8573 34.4951 47.6954 35.5236 47.0096 37.1046C47.2001 34.7046 48.6287 32.876 50.2096 32.9713C51.8096 33.0665 52.9716 35.0855 52.8573 37.4855C52.4001 35.8284 51.3716 34.6474 50.1144 34.5713Z" fill="url(#paint3_linear)"/>
<path d="M27.1427 36.038C26.9904 38.4761 28.1713 40.5523 29.7904 40.6476C31.4094 40.7428 32.857 38.8571 33.0094 36.419C33.1618 33.9809 31.9808 31.9047 30.3618 31.8095C28.7427 31.7142 27.2951 33.5999 27.1427 36.038Z" fill="url(#paint4_radial)"/>
<path d="M30.2479 33.4096C31.5051 33.4858 32.5337 34.6477 33.0099 36.3048C33.1241 33.9048 31.9622 31.9048 30.3622 31.7905C28.7622 31.6763 27.3527 33.5239 27.1622 35.9239C27.8289 34.3429 28.9908 33.3143 30.2479 33.4096Z" fill="url(#paint5_linear)"/>
<path d="M34.4571 25.6C33.4095 25.2572 32.419 23.981 30.0571 23.0286C27.1047 21.8286 25.0857 22.4381 23.0286 23.9048C22.8381 24.0381 22.6286 24.1714 22.4 24.3238C21.9619 24.6095 21.8286 25.2381 22.0952 25.7524C22.2476 26.0762 23.0286 26.6857 23.8476 26.1905C26.419 24.6286 28.0571 25.0857 30 25.8667C31.5428 26.4952 32.5524 28 34.5333 27.8476C35.3333 27.7905 35.6952 27.3905 35.7333 26.8C35.7905 26.0952 35.219 25.8476 34.4571 25.6Z" fill="url(#paint6_linear)"/>
<path d="M47.1623 53.638C47.0289 53.638 46.9146 53.5999 46.7813 53.5618C46.7623 53.5427 43.8861 52.5142 40.3623 51.7523C35.867 50.7808 32.3813 50.6856 30.267 51.4856C29.5813 51.7523 28.8003 51.3903 28.5527 50.7046C28.2861 50.0189 28.648 49.238 29.3337 48.9903C35.5051 46.6665 47.2004 50.8761 47.6956 51.0475C48.3813 51.2951 48.7432 52.057 48.4956 52.7618C48.2861 53.3142 47.7337 53.657 47.1623 53.638Z" fill="#643800"/>
<path d="M48.5714 52.3427C48.5904 51.7713 48.2475 51.238 47.6952 51.0475C47.1999 50.8761 35.5047 46.6665 29.3333 48.9903C28.6856 49.238 28.3428 49.9046 28.5142 50.5522C31.3714 48.7237 35.9428 48.0189 48.5714 52.3427Z" fill="url(#paint7_linear)"/>
<path d="M40 70.4762C56.8315 70.4762 70.4762 56.8315 70.4762 40C70.4762 23.1685 56.8315 9.52381 40 9.52381C23.1685 9.52381 9.5238 23.1685 9.5238 40C9.5238 56.8315 23.1685 70.4762 40 70.4762Z" fill="url(#paint8_linear)"/>
<path d="M45.3908 29.8287C45.0289 28.4954 46.2479 27.2954 48.7051 26.6287C50.8003 26.0573 55.6955 25.9811 59.9622 29.1811C60.7432 29.7716 59.9622 30.4192 59.2575 30.0954C56.8765 28.9716 51.086 28.2668 47.1432 29.7906C45.5432 30.4192 45.3908 29.8287 45.3908 29.8287Z" fill="url(#paint9_linear)"/>
<path d="M40 70.4762C56.8315 70.4762 70.4762 56.8315 70.4762 40C70.4762 23.1685 56.8315 9.52381 40 9.52381C23.1685 9.52381 9.5238 23.1685 9.5238 40C9.5238 56.8315 23.1685 70.4762 40 70.4762Z" fill="url(#paint10_radial)"/>
<path d="M62.4953 47.7716C64.5524 48.9335 62.781 52.8192 62.4762 54.9906C62 58.4001 64.9905 64.3811 63.3143 69.7906C61.6381 75.2001 59.5048 78.762 49.9619 77.6001C40.4191 76.4382 39.6762 74.0001 40.1143 72.6668C40.5143 71.4287 41.4286 71.6382 41.4286 71.6382C41.4286 71.6382 39.4857 70.6858 39.7333 68.6477C39.981 66.6096 42.1714 66.8382 42.1714 66.8382C42.1714 66.8382 40.381 66.1716 40.6476 63.9049C40.9143 61.6382 43.3714 61.9049 43.3714 61.9049C43.3714 61.9049 39.181 59.4477 34.3619 56.8763C30.9524 55.0668 31.1619 54.0573 31.6952 53.3335C32.2286 52.6096 34.4 51.5239 39.3333 54.2668C44.2667 57.0096 51.3333 59.1239 53.5048 59.0858C55.6762 59.0287 57.9048 57.943 57.8667 52.762C57.8095 48.5716 60.8191 46.8192 62.4953 47.7716Z" fill="url(#paint11_linear)"/>
<path d="M43.3335 61.9237C43.3335 61.9237 39.143 59.4666 34.3239 56.8952C30.9144 55.0856 31.1239 54.0761 31.6573 53.3523C31.7525 53.219 31.9239 53.0666 32.1525 52.9714C30.4763 55.9237 48.762 61.6952 43.3335 61.9237Z" fill="url(#paint12_linear)"/>
<path d="M53.467 59.0858C55.6384 59.0287 57.867 57.943 57.8289 52.762C57.7908 48.5525 60.8194 46.8192 62.4765 47.7525C62.6098 47.8287 62.7241 47.9049 62.8194 48.0001C60.267 47.9049 58.8384 50.2287 58.7813 53.2763C58.7241 56.2858 57.9813 60.1144 52.686 59.0477C52.9908 59.0858 53.2575 59.1049 53.467 59.0858Z" fill="url(#paint13_radial)"/>
<path d="M39.6954 68.819C42.8192 69.7905 45.5811 72 49.543 72.5333C53.0478 73.0095 59.4478 72.2095 63.6002 68.5714C63.524 68.9714 63.4287 69.3714 63.3145 69.7905C61.6383 75.2 59.5049 78.7619 49.9621 77.6C40.4192 76.4381 39.6764 74 40.1144 72.6667C40.5144 71.4286 41.4287 71.6381 41.4287 71.6381C41.4287 71.6381 39.5811 70.7238 39.6954 68.819Z" fill="url(#paint14_linear)"/>
<path d="M31.619 53.4287C31.6381 53.4097 31.6571 53.3906 31.6571 53.3716C32.1904 52.6477 34.3619 51.562 39.2952 54.3049C44.2285 57.0478 51.2952 59.162 53.4666 59.1239C55.6381 59.0668 57.8666 57.9811 57.8285 52.8001C57.8285 51.5049 58.0952 50.4573 58.5333 49.6382C59.6381 49.5239 60.4952 50.1335 60.5904 52.4954C60.8571 58.7811 61.7714 65.0097 56.1143 64.7239C45.7904 64.1906 41.9428 56.0954 31.619 53.4287Z" fill="url(#paint15_radial)"/>
<path d="M42.1336 66.8383C42.1336 66.8383 43.086 67.2193 44.0003 67.3717C43.4098 67.3336 42.1146 67.486 41.3146 67.6002C41.0479 67.6383 40.8193 67.7907 40.686 68.0193C39.6765 69.8288 41.3908 71.6383 41.3908 71.6383C41.3908 71.6383 39.4479 70.686 39.6955 68.6479C39.9431 66.6288 42.1336 66.8383 42.1336 66.8383Z" fill="url(#paint16_linear)"/>
<path d="M40.0957 72.6668C40.4195 71.6573 41.1052 71.6192 41.3338 71.6192L41.41 71.6383C41.41 71.6383 42.248 71.7716 43.1623 71.6383C42.4576 71.8097 41.6004 72.0954 41.2004 72.3049C40.5909 73.9811 42.8957 75.4859 49.048 76.4192C59.2195 77.9811 61.029 72.8383 62.1337 69.3335C63.7528 64.2668 60.5909 59.3906 61.5623 54.6668C61.9814 52.6287 62.8576 49.4668 62.648 47.8668C64.4576 49.143 62.8004 52.8764 62.4766 54.9716C61.9623 58.2287 64.9909 64.3621 63.3147 69.7716C61.6385 75.1811 59.5052 78.743 49.9623 77.5811C40.4004 76.4383 39.6576 74.0002 40.0957 72.6668Z" fill="url(#paint17_linear)"/>
<path d="M43.1818 71.6382C43.1627 71.6382 43.1627 71.6382 43.1437 71.6382C43.2008 71.6192 43.277 71.6001 43.3341 71.5811L43.1818 71.6382Z" fill="url(#paint18_linear)"/>
<path d="M42.5528 61.962C42.61 61.943 42.6862 61.943 42.7433 61.943C42.7623 61.943 42.7814 61.943 42.8195 61.943C42.8576 61.943 42.8957 61.943 42.9338 61.943C42.9528 61.943 42.9719 61.943 42.9909 61.943C43.029 61.943 43.0671 61.943 43.1052 61.943C43.1243 61.943 43.1433 61.943 43.1624 61.943C43.2004 61.943 43.2195 61.943 43.2385 61.943C43.2576 61.943 43.2576 61.943 43.2766 61.943C43.2957 61.943 43.3147 61.943 43.3147 61.943H43.3338C43.3528 61.943 43.3528 61.943 43.3528 61.943C43.3528 61.943 43.1814 61.8478 42.8576 61.6573C43.2576 61.1811 43.4671 60.724 43.4671 60.724L46.0005 62.343C45.0481 61.9049 43.1433 62.2478 42.2481 62.4573C41.0671 63.6001 41.3338 66.2097 42.1528 66.8573C42.1528 66.8573 40.3623 66.1906 40.629 63.924C40.7814 62.4954 41.81 62.0763 42.5528 61.962Z" fill="url(#paint19_linear)"/>
<defs>
<radialGradient id="paint0_radial" cx="0" cy="0" r="1" gradientUnits="userSpaceOnUse" gradientTransform="translate(45.9963 27.649) rotate(180) scale(36.7656)">
<stop stop-color="#FFE030"/>
<stop offset="1" stop-color="#FFB92E"/>
</radialGradient>
<radialGradient id="paint1_radial" cx="0" cy="0" r="1" gradientUnits="userSpaceOnUse" gradientTransform="translate(45.9963 27.649) rotate(180) scale(43.6362)">
<stop stop-color="#FFEA5F"/>
<stop offset="1" stop-color="#FFBC47" stop-opacity="0"/>
</radialGradient>
<radialGradient id="paint2_radial" cx="0" cy="0" r="1" gradientUnits="userSpaceOnUse" gradientTransform="translate(50.8089 37.6564) rotate(109.828) scale(4.30581 2.78578)">
<stop offset="0.00132565" stop-color="#7A4400"/>
<stop offset="1" stop-color="#643800"/>
</radialGradient>
<linearGradient id="paint3_linear" x1="50.2505" y1="33.048" x2="49.9848" y2="37.1754" gradientUnits="userSpaceOnUse">
<stop offset="0.00132565" stop-color="#3C2200"/>
<stop offset="1" stop-color="#512D00"/>
</linearGradient>
<radialGradient id="paint4_radial" cx="0" cy="0" r="1" gradientUnits="userSpaceOnUse" gradientTransform="translate(30.9502 36.3774) rotate(109.828) scale(4.30581 2.78578)">
<stop offset="0.00132565" stop-color="#7A4400"/>
<stop offset="1" stop-color="#643800"/>
</radialGradient>
<linearGradient id="paint5_linear" x1="30.3713" y1="31.8782" x2="30.1055" y2="36.0055" gradientUnits="userSpaceOnUse">
<stop offset="0.00132565" stop-color="#3C2200"/>
<stop offset="1" stop-color="#512D00"/>
</linearGradient>
<linearGradient id="paint6_linear" x1="28.7575" y1="30.0252" x2="28.948" y2="22.4061" gradientUnits="userSpaceOnUse">
<stop offset="0.00132565" stop-color="#3C2200"/>
<stop offset="1" stop-color="#7A4400"/>
</linearGradient>
<linearGradient id="paint7_linear" x1="38.4087" y1="54.6015" x2="38.8328" y2="41.1426" gradientUnits="userSpaceOnUse">
<stop offset="0.00132565" stop-color="#3C2200"/>
<stop offset="1" stop-color="#512D00"/>
</linearGradient>
<linearGradient id="paint8_linear" x1="39.7799" y1="35.7271" x2="41.3989" y2="67.1557" gradientUnits="userSpaceOnUse">
<stop offset="0.4938" stop-color="#FFBC47" stop-opacity="0"/>
<stop offset="1" stop-color="#FF8900"/>
</linearGradient>
<linearGradient id="paint9_linear" x1="52.9531" y1="30.1549" x2="52.0156" y2="26.681" gradientUnits="userSpaceOnUse">
<stop offset="0.00132565" stop-color="#3C2200"/>
<stop offset="1" stop-color="#7A4400"/>
</linearGradient>
<radialGradient id="paint10_radial" cx="0" cy="0" r="1" gradientUnits="userSpaceOnUse" gradientTransform="translate(42.02 64.03) scale(11.7924)">
<stop offset="0.1836" stop-color="#FF8000" stop-opacity="0.75"/>
<stop offset="0.995" stop-color="#FF8000" stop-opacity="0"/>
</radialGradient>
<linearGradient id="paint11_linear" x1="47.1353" y1="74.5906" x2="47.7578" y2="55.4633" gradientUnits="userSpaceOnUse">
<stop offset="0.00132565" stop-color="#FFCB4B"/>
<stop offset="1" stop-color="#FFD748"/>
</linearGradient>
<linearGradient id="paint12_linear" x1="39.2216" y1="52.5474" x2="35.412" y2="67.2141" gradientUnits="userSpaceOnUse">
<stop stop-color="#FFBC47" stop-opacity="0"/>
<stop offset="1" stop-color="#FFA754"/>
</linearGradient>
<radialGradient id="paint13_radial" cx="0" cy="0" r="1" gradientUnits="userSpaceOnUse" gradientTransform="translate(57.8002 53.4314) rotate(-173.079) scale(5.40836)">
<stop stop-color="#FFE85B"/>
<stop offset="1" stop-color="#FFE85B" stop-opacity="0"/>
</radialGradient>
<linearGradient id="paint14_linear" x1="50.8812" y1="66.3848" x2="53.4539" y2="79.3148" gradientUnits="userSpaceOnUse">
<stop offset="0.4938" stop-color="#FFBC47" stop-opacity="0"/>
<stop offset="1" stop-color="#FF8900"/>
</linearGradient>
<radialGradient id="paint15_radial" cx="0" cy="0" r="1" gradientUnits="userSpaceOnUse" gradientTransform="translate(53.5895 60.4774) rotate(-174.35) scale(9.61913 3.511)">
<stop stop-color="#FFE85B"/>
<stop offset="1" stop-color="#FFE85B" stop-opacity="0"/>
</radialGradient>
<linearGradient id="paint16_linear" x1="42.6761" y1="65.9758" x2="39.4856" y2="73.4043" gradientUnits="userSpaceOnUse">
<stop stop-color="#FFBC47" stop-opacity="0"/>
<stop offset="1" stop-color="#FFA754"/>
</linearGradient>
<linearGradient id="paint17_linear" x1="49.9316" y1="56.6312" x2="58.884" y2="80.2503" gradientUnits="userSpaceOnUse">
<stop stop-color="#FFBC47" stop-opacity="0"/>
<stop offset="1" stop-color="#FFA754"/>
</linearGradient>
<linearGradient id="paint18_linear" x1="36.0725" y1="66.8114" x2="55.2755" y2="79.7513" gradientUnits="userSpaceOnUse">
<stop stop-color="#FFBC47" stop-opacity="0"/>
<stop offset="1" stop-color="#FFA754"/>
</linearGradient>
<linearGradient id="paint19_linear" x1="42.747" y1="60.7788" x2="44.0027" y2="67.09" gradientUnits="userSpaceOnUse">
<stop stop-color="#FFBC47" stop-opacity="0"/>
<stop offset="1" stop-color="#FFA754"/>
</linearGradient>
</defs>
</svg>
