<svg width="80" height="80" viewBox="0 0 80 80" fill="none" xmlns="http://www.w3.org/2000/svg">
<path d="M39.8069 8C37.3296 8 36.3847 9.98407 36.5775 13.8252C36.7044 16.3594 37.5599 23.4211 33.9827 26.9989C30.6452 30.337 29.6768 30.0408 25.8787 34.3428C22.0805 38.6447 18.9122 37.7608 14.4842 37.3847C8.91384 36.9051 10.8129 67.8084 14.738 67.2771C17.5255 66.8963 23.8574 66.1393 24.868 66.1393C25.8834 66.1393 32.8263 71.5226 38.9231 71.5837C48.7993 71.6872 54.2474 69.9382 54.2474 69.9382L57.143 63.3701L58.1114 43.3462L53.4906 33.7128C53.4906 33.7128 47.2857 34.7283 45.5135 31.9403C43.7413 29.1523 46.9049 25.7342 46.9049 17.7557C46.9049 9.77718 41.076 8 39.8069 8Z" fill="url(#paint0_linear)"/>
<path d="M54.5898 69.8719L54.2137 68.5038C53.0997 68.3863 51.6706 68.8893 49.7152 68.8752C40.3749 68.8047 31.4482 66.1201 27.6172 63.0876C25.107 61.1036 24.007 58.4566 22.2349 59.2183C20.049 60.1539 13.8441 61.6161 11.5596 58.7246C12.1989 63.6659 13.3364 67.46 14.7325 67.272C17.5201 66.8912 23.8519 66.1342 24.8626 66.1342C25.8779 66.1342 32.6281 71.3764 38.9176 71.5786C47.0546 71.8419 54.2842 70.4408 54.2842 70.4408L54.5898 69.8719Z" fill="url(#paint1_linear)"/>
<path d="M45.5081 31.9356C43.7359 29.1476 46.8995 25.7296 46.8995 17.751C46.8995 9.7725 41.0753 8 39.8061 8C39.4723 8 39.1762 8.0376 38.913 8.10813C44.079 8.43253 47.1909 14.9489 45.4093 21.6674C43.9662 27.1212 43.247 31.489 45.6021 34.056C47.1298 35.7157 50.1617 35.4336 53.4851 33.7128C53.4851 33.7081 47.2802 34.7236 45.5081 31.9356Z" fill="url(#paint2_linear)"/>
<path d="M45.8558 34.7793C42.8145 35.7948 35.143 38.1738 29.3282 43.449C14.5962 56.8107 39.7496 58.4845 44.9439 69.914C45.9358 72.1002 51.7411 58.4563 51.7411 58.4563L53.6167 55.2968L48.1921 40.8537L45.8558 34.7793Z" fill="url(#paint3_linear)"/>
<path d="M46.2977 35.9355C43.2563 36.9511 30.8418 44.9014 30.8418 48.8319C30.8418 60.1673 39.4394 54.5724 44.0884 67.9483C44.7324 69.8007 47.0028 71.3617 47.0028 71.3617C48.8878 69.8243 51.7364 58.4606 51.7364 58.4606L53.612 55.3012L48.1874 40.8581L46.2977 35.9355Z" fill="url(#paint4_linear)"/>
<path d="M53.3159 70.6812L59.1307 64.0285L60.414 36.2423L45.8559 34.7754C42.5137 36.5761 42.1282 39.035 43.3692 42.9843C43.891 44.6486 41.7663 45.1235 41.6299 49.9661C41.5359 53.323 43.7312 53.3371 43.7312 54.3339C43.7312 55.3306 42.6359 55.2413 42.2739 58.1327C41.7569 62.2701 45.2166 62.3453 45.2166 63.2339C45.2166 64.1178 43.294 64.6444 43.4115 68.0154C43.5619 72.2891 35.6224 71.424 30.2589 67.5358C28.0543 65.9373 26.1317 65.7728 24.6322 66.1348C24.7262 66.1301 24.8061 66.1254 24.8672 66.1254C25.8826 66.1254 32.6845 71.4428 38.9223 71.5698C46.3024 71.7343 51.2617 71.1514 53.3159 70.6812Z" fill="url(#paint5_linear)"/>
<path d="M54.6508 36.6094C50.157 36.6094 47.6844 41.0006 49.3955 44.3763C51.1065 47.752 46.2319 52.2185 46.7349 54.4188C47.2425 56.6191 48.1263 62.1857 48.822 63.1072C49.5177 64.0287 47.6844 66.1162 47.6844 66.1162L53.3816 66.8121L58.6981 64.466L58.5101 48.382L59.0789 38.3113L54.6508 36.6094Z" fill="url(#paint6_linear)"/>
<path opacity="0.5" d="M39.8061 8C37.3288 8 36.384 9.98408 36.5767 13.8252C36.7036 16.3594 37.5591 23.4211 33.9819 26.999C30.6444 30.3371 29.6761 30.0409 25.8779 34.3428C23.41 37.1402 21.2101 37.7468 18.7563 37.7233C17.4307 37.7092 16.0346 37.5164 14.4834 37.3847C14.4834 38.3486 14.7654 38.325 18.4367 39.3359C18.8551 39.4534 19.2546 39.5287 19.6401 39.5804C19.8281 40.1634 19.9315 40.751 19.908 41.3387C19.7764 44.5358 20.4815 48.4804 21.0174 44.3806C21.2242 42.7915 21.8776 41.0096 22.8036 39.2089C24.195 38.6494 25.3232 37.6104 26.3198 36.3974C28.1859 34.1313 29.803 32.1237 34.4896 29.0818C39.1762 26.0399 38.5745 17.6852 38.1937 14.8972C37.8083 12.1045 38.0621 8 39.8061 8Z" fill="url(#paint7_radial)"/>
<path d="M58.0588 33.5805C52.7423 33.3784 43.1858 33.0775 42.9743 38.6441C42.8191 42.6827 45.6866 44.0085 50.1146 44.1778C54.5427 44.347 56.7567 44.4317 58.5947 44.5022C60.4327 44.5727 66.2004 44.5351 66.2569 39.6596C66.3227 33.5712 58.0588 33.5805 58.0588 33.5805Z" fill="url(#paint8_linear)"/>
<path d="M49.3156 53.718C47.8913 53.6757 43.6607 54.7429 43.2658 57.4322C42.9556 59.5479 44.032 62.2748 47.7127 62.9189C52.3758 63.737 60.146 64.1648 63.0511 63.0741C64.3485 62.5898 65.4813 61.2311 65.5377 59.1718C65.5941 57.1125 64.0664 54.3386 60.7477 54.2445C57.429 54.1505 55.6945 54.2023 53.8001 53.9766C51.5249 53.7086 50.4532 53.7509 49.3156 53.718Z" fill="url(#paint9_linear)"/>
<path d="M47.8349 63.1064C46.2225 63.1064 44.2247 64.531 44.2247 66.9053C44.2247 69.2795 44.8405 71.0379 48.3096 71.7008C51.7741 72.3637 57.335 71.7948 59.4221 71.1319C61.0486 70.6147 61.6549 69.0915 61.6549 66.5715C61.6549 64.0515 60.0896 63.6142 58.3786 63.6142C56.6675 63.6142 54.5945 63.9245 53.4099 63.8634C50.0959 63.6942 49.4472 63.1064 47.8349 63.1064Z" fill="url(#paint10_linear)"/>
<path d="M57.6029 34.7092C52.9633 34.5305 44.6195 34.2626 44.4503 38.6679C44.3281 41.8603 46.8336 42.9182 50.7023 43.0639C54.5709 43.2097 64.7433 43.3977 64.7809 39.5425C64.8232 34.7233 57.6029 34.7092 57.6029 34.7092Z" fill="url(#paint11_radial)"/>
<path d="M49.7434 54.8506C48.5024 54.8129 45.0333 55.1091 44.6995 57.6762C44.4739 59.411 45.3764 61.6443 48.5823 62.1803C52.6437 62.8573 59.4127 63.2193 61.937 62.3307C63.0651 61.9358 64.0476 60.8262 64.0993 59.1384C64.1463 57.4505 62.5951 55.3818 59.6994 55.3019C56.8085 55.2173 55.2667 55.4852 53.6167 55.3019C51.6377 55.0762 50.7352 54.8788 49.7434 54.8506Z" fill="url(#paint12_radial)"/>
<path d="M48.5212 63.9766C47.1251 63.9766 45.3999 65.1238 45.3999 67.0373C45.3999 68.9509 45.9358 70.3661 48.9301 70.9021C51.9292 71.438 56.7333 70.9773 58.5431 70.4413C59.9533 70.0228 60.4751 68.7957 60.4751 66.7693C60.4751 64.7429 59.1213 64.3903 57.6405 64.3903C56.1598 64.3903 54.3688 64.6395 53.3394 64.5925C50.4814 64.4468 49.9173 63.9766 48.5212 63.9766Z" fill="url(#paint13_linear)"/>
<path d="M18.1828 66.8299C14.4458 65.222 10.9532 43.2142 17.8397 37.6851C16.7867 37.6193 15.6821 37.483 14.4787 37.3795C8.90835 36.9 10.8074 67.8032 14.7325 67.2719C15.621 67.1496 16.8666 66.9945 18.1828 66.8299Z" fill="url(#paint14_linear)"/>
<path d="M47.6703 38.6674C47.7878 35.6349 50.2039 34.1821 53.2594 33.5098C48.3801 33.6226 43.1294 34.5347 42.9743 38.6486C42.8191 42.6872 45.6866 44.013 50.1146 44.1823C50.6035 44.2011 51.0595 44.2199 51.4966 44.234C49.01 43.5053 47.548 41.8644 47.6703 38.6674Z" fill="url(#paint15_linear)"/>
<path d="M48.0887 34.0605C45.2495 34.6811 43.073 36.0211 42.9743 38.6493C42.8474 42.0062 44.8076 43.4871 48.0135 43.9902C41.5077 41.3902 43.8392 34.9867 48.0887 34.0605Z" fill="url(#paint16_radial)"/>
<path opacity="0.16" d="M40.5299 65.9701C39.7778 67.6955 36.21 67.8037 32.5528 66.2098C28.8957 64.616 26.5406 61.9314 27.2928 60.206C28.0449 58.4805 31.6127 58.3723 35.2698 59.9661C38.927 61.56 41.282 64.2446 40.5299 65.9701Z" fill="url(#paint17_radial)"/>
<path opacity="0.16" d="M62.0404 39.482C62.0028 41.8139 58.8909 42.9188 55.4782 43.1257C52.6907 43.2949 49.5976 41.3203 49.6775 39.0448C49.7575 36.7692 50.1617 34.7523 55.953 34.9544C59.3657 35.072 62.0733 37.2065 62.0404 39.482Z" fill="url(#paint18_radial)"/>
<path opacity="0.16" d="M62.6562 59.9661C62.6374 63.1914 59.0883 62.5755 55.6803 62.7965C51.3604 63.0833 48.4929 61.7339 48.4929 59.4583C48.4929 57.1828 50.1335 55.5231 55.9294 55.5137C59.3469 55.509 62.6844 55.8193 62.6562 59.9661Z" fill="url(#paint19_radial)"/>
<path opacity="0.16" d="M59.5349 68.0996C59.5161 70.8501 56.2961 71.2262 53.2407 71.2262C50.1852 71.2309 46.8712 69.6088 46.8712 67.6671C46.8712 65.7253 48.3378 64.3102 53.5227 64.3008C56.5735 64.3008 59.5537 64.5641 59.5349 68.0996Z" fill="url(#paint20_radial)"/>
<path d="M47.2285 58.0802C47.7127 54.4084 50.5331 54.6246 53.7625 54.2391C50.0442 53.9617 48.4836 53.9194 48.4836 53.9194C48.1357 53.8865 47.7503 53.8818 47.346 53.9241C46.1379 54.1921 44.77 54.7374 43.9568 55.7718C43.6795 56.162 43.4585 56.6275 43.3081 57.1775C43.294 57.2575 43.2799 57.3374 43.2658 57.422C43.0026 59.5424 44.032 62.2645 47.7127 62.9086C48.2438 63.0027 48.8173 63.0873 49.419 63.1719C49.7058 63.2095 50.0207 63.2471 50.3545 63.2894C50.4438 63.2988 50.5378 63.3129 50.6271 63.3224C48.5964 62.368 46.8712 60.7789 47.2285 58.0802Z" fill="url(#paint21_linear)"/>
<path d="M48.1263 53.901C47.8772 53.8916 47.6092 53.901 47.3366 53.9292C46.1191 54.1972 44.7371 54.7567 43.9286 55.8051C43.6607 56.1906 43.4444 56.6514 43.3034 57.1873C43.2893 57.2673 43.2799 57.3472 43.2611 57.4318C42.8897 59.5193 43.9239 61.9829 47.1392 62.7962C41.6535 59.7685 43.9944 53.9057 48.1263 53.901Z" fill="url(#paint22_radial)"/>
<path opacity="0.5" d="M51.3228 63.6708C49.7011 63.431 49.0336 63.1113 47.8349 63.1113C46.2225 63.1113 44.2247 64.5359 44.2247 66.9102C44.2247 67.7706 44.3093 68.551 44.5773 69.228C44.8499 69.7875 45.2495 70.3094 45.7948 70.7513C46.3918 71.1698 47.205 71.4942 48.3096 71.7058C49.0524 71.8468 49.8891 71.9314 50.7681 71.9738C49.0759 70.9911 46.2037 70.4599 46.8054 67.1641C47.4635 63.5251 49.6352 64.0187 51.3228 63.6708Z" fill="url(#paint23_linear)"/>
<path d="M47.7597 63.1113C46.1567 63.1536 44.2247 64.5688 44.2247 66.9102C44.2247 69.087 44.7465 70.7419 47.4964 71.5177C43.1953 68.7532 44.5773 64.0892 47.7597 63.1113Z" fill="url(#paint24_radial)"/>
<path d="M66.2522 39.6592C66.2569 39.1138 66.1958 38.6154 66.083 38.1641C66.5108 40.0682 64.8138 41.9582 60.3199 42.875C57.3397 43.4815 49.4284 44.2432 43.9568 42.0711C45.1367 43.5004 47.3131 44.0692 50.1147 44.1774C54.5428 44.3466 56.7568 44.4313 58.5948 44.5018C60.428 44.5723 66.1958 44.5394 66.2522 39.6592Z" fill="url(#paint25_linear)"/>
<path d="M65.5424 59.0438C65.5377 56.9987 64.0053 54.3377 60.7524 54.2436C57.429 54.1496 55.6991 54.2014 53.8048 53.9757C51.5296 53.7077 50.4578 53.7453 49.3203 53.7124C48.46 53.6889 46.3353 53.9475 44.8922 54.8455C46.514 55.4096 49.1605 56.2558 52.8881 56.0161C61.8007 55.4472 64.339 56.5286 65.5424 59.0438Z" fill="url(#paint26_linear)"/>
<path d="M47.4023 44.5026C45.5032 44.465 42.4901 45.5839 42.4102 49.5238C42.3303 53.4638 45.7806 54.4041 47.2989 54.437C48.8172 54.4699 54.129 54.8272 60.6818 54.9589C67.2346 55.0905 68.1136 51.5737 68.1465 49.7307C68.1794 47.8877 67.0137 44.5543 63.0745 44.4743C51.68 44.2487 47.4023 44.5026 47.4023 44.5026Z" fill="url(#paint27_linear)"/>
<path d="M48.4224 45.6443C46.7725 45.6114 44.1542 46.4671 44.0931 49.509C44.032 52.5509 47.031 53.2843 48.3519 53.3078C49.6728 53.336 53.8 53.9754 59.9862 53.7356C65.6787 53.5193 66.4402 51.1357 66.4684 49.7158C66.4966 48.296 66.2992 45.7196 62.8724 45.6537C52.968 45.4563 48.4224 45.6443 48.4224 45.6443Z" fill="url(#paint28_radial)"/>
<path d="M46.4857 49.1427C46.6737 45.0947 49.4988 45.0853 52.6906 44.3848C48.963 44.4083 47.4023 44.5023 47.4023 44.5023C45.5032 44.4647 42.4901 45.5836 42.4102 49.5235C42.3303 53.4634 45.7806 54.4037 47.2989 54.4366C47.8442 54.446 48.8877 54.5024 50.3027 54.573C48.1967 53.7032 46.3447 52.1188 46.4857 49.1427Z" fill="url(#paint29_linear)"/>
<path opacity="0.16" d="M64.8137 49.5616C64.9454 52.7868 61.3634 53.3933 57.9554 53.5532C54.5427 53.7177 50.7493 51.9922 50.6411 49.7167C50.533 47.4412 52.0984 45.7063 57.8849 45.4289C61.2929 45.2644 64.6445 45.4195 64.8137 49.5616Z" fill="url(#paint30_radial)"/>
<path d="M47.0451 44.5078C45.146 44.6065 42.4807 45.8196 42.4055 49.5244C42.3303 53.2715 45.4422 54.3059 47.0545 54.4234C40.8167 51.9034 42.8615 44.8792 47.0451 44.5078Z" fill="url(#paint31_radial)"/>
<path opacity="0.5" d="M68.1372 49.3311C67.3145 55.1658 51.8962 54.0938 43.5619 52.8432C44.6854 54.0468 46.3588 54.4135 47.2989 54.4323C48.8173 54.4605 54.1291 54.8226 60.6818 54.9542C67.2346 55.0859 68.1137 51.569 68.1466 49.726C68.1513 49.6038 68.1466 49.4721 68.1372 49.3311Z" fill="url(#paint32_linear)"/>
<path opacity="0.5" d="M60.4139 62.3219C57.429 62.4535 49.5224 63.4361 43.764 60.3473C44.408 61.5414 45.6537 62.5569 47.7126 62.9189C52.3757 63.737 60.146 64.1649 63.051 63.0741C64.3484 62.5899 65.4813 61.2311 65.5377 59.1719C65.3497 60.9678 63.6433 62.1808 60.4139 62.3219Z" fill="url(#paint33_linear)"/>
<path d="M61.4199 68.8037C59.4644 70.2941 56.0799 71.1732 51.2006 70.3458C48.1874 69.838 46.1191 69.6641 44.7606 69.6265C45.3059 70.6091 46.3542 71.3284 48.305 71.7045C51.7694 72.3674 57.3303 71.7985 59.4174 71.1356C60.4892 70.7924 61.1191 70.012 61.4199 68.8037Z" fill="url(#paint34_linear)"/>
<path d="M44.864 64.7716C48.4789 63.4552 50.251 65.4063 54.1197 65.4063C58.1388 65.4063 60.052 63.7843 61.481 65.3264C61.0344 63.9018 59.7511 63.615 58.3738 63.615C56.6628 63.615 54.5898 63.9253 53.4052 63.8642C50.0959 63.6902 49.4472 63.1025 47.8349 63.1025C46.7866 63.1072 45.5832 63.709 44.864 64.7716Z" fill="url(#paint35_linear)"/>
<path d="M14.7326 67.2725C17.5201 66.8917 23.8519 66.1348 24.8626 66.1348C15.6774 59.5667 19.7623 45.6031 23.1515 38.5414C23.6263 37.5494 23.9224 36.736 24.0776 36.0449C21.0221 38.3769 18.197 37.7046 14.4787 37.3849C8.91311 36.9053 10.8122 67.8085 14.7326 67.2725Z" fill="url(#paint36_linear)"/>
<path opacity="0.5" d="M20.5237 60.9296C19.5742 59.6649 20.3968 62.3871 21.1583 64.3477C21.807 66.0167 16.8478 65.0294 13.0543 65.4431C13.5479 66.6656 14.1167 67.3567 14.7325 67.2768C17.52 66.8959 23.8518 66.139 24.8625 66.139C23.4382 64.9166 21.4733 62.1944 20.5237 60.9296Z" fill="url(#paint37_radial)"/>
<path opacity="0.5" d="M24.8672 66.1337C24.0775 65.4614 23.128 64.333 22.2772 63.2422C22.2772 63.2422 17.6658 65.6024 12.7253 64.4928C13.2941 66.2983 13.9804 67.3796 14.7419 67.2762C17.5201 66.8907 23.8519 66.1337 24.8672 66.1337Z" fill="url(#paint38_radial)"/>
<path opacity="0.16" d="M42.7627 19.6116C40.9577 20.0018 39.4958 17.51 38.6684 14.5997C37.9915 12.2207 38.9082 9.19285 40.685 8.84963C42.4572 8.50642 44.093 8.49234 45.0708 13.5324C45.6443 16.5086 44.5255 19.2308 42.7627 19.6116Z" fill="url(#paint39_radial)"/>
<path d="M47.7972 63.0923C46.8054 63.1958 45.9075 63.7271 45.287 64.4605C44.6619 65.1987 44.3657 66.1625 44.4315 67.131C44.4362 68.1042 44.5819 69.1009 45.1366 69.8908C45.6866 70.6853 46.6032 71.1602 47.534 71.494C46.575 71.2777 45.5738 70.8827 44.9298 70.0412C44.2811 69.209 44.126 68.1277 44.0978 67.1356C44.0555 66.1201 44.3798 65.0388 45.0943 64.2912C45.7947 63.539 46.796 63.0735 47.7972 63.0923Z" fill="#663C1D"/>
<path d="M46.2037 54.2578C45.5503 54.5399 44.9486 54.9301 44.4504 55.4144C43.9427 55.8892 43.6701 56.5475 43.4867 57.2104V57.201C43.247 58.4093 43.4491 59.6975 44.1589 60.7036C44.8546 61.7239 45.9781 62.3915 47.1768 62.7817C45.9452 62.5419 44.7042 61.9448 43.9239 60.8729C43.5384 60.3463 43.2705 59.7304 43.1436 59.0863C43.012 58.4422 43.0731 57.7698 43.1953 57.1445L43.2 57.1351C43.3927 56.4393 43.7406 55.7388 44.314 55.2686C44.8593 54.775 45.5315 54.4741 46.2037 54.2578Z" fill="#663C1D"/>
<path d="M47.0827 44.4883C45.9075 44.6199 44.7746 45.1089 43.9614 45.9317C43.1482 46.7544 42.711 47.8828 42.6405 49.0394C42.523 50.1866 42.7063 51.3855 43.3644 52.3399C44.0131 53.2943 45.0708 53.9384 46.2036 54.2675C45.0426 54.056 43.8909 53.4824 43.1576 52.4857C42.4102 51.4983 42.208 50.2007 42.3114 49.0065C42.4102 47.8076 42.8802 46.5805 43.7875 45.7483C44.6853 44.9068 45.9028 44.5024 47.0827 44.4883Z" fill="#663C1D"/>
<path d="M48.1263 34.042C46.8713 34.3852 45.6209 34.86 44.6337 35.6734C43.6372 36.482 43.0966 37.7327 43.1812 39.0162C43.1671 40.2903 43.5808 41.5879 44.5491 42.4295C45.5034 43.2805 46.7866 43.6989 48.0558 43.9669C46.7678 43.8164 45.4281 43.4921 44.3799 42.6223C43.3081 41.7619 42.8522 40.3373 42.8475 39.0209C42.7769 37.6809 43.3833 36.2752 44.4739 35.476C45.5457 34.6579 46.8431 34.2677 48.1263 34.042Z" fill="#663C1D"/>
<path d="M43.8016 60.333C44.6666 61.8281 46.3259 62.6039 47.9665 62.8249C49.6352 63.0834 51.3181 63.2574 53.0056 63.3655C54.6885 63.5113 56.3807 63.596 58.0683 63.5912C58.9144 63.5818 59.7558 63.5583 60.5973 63.4737C61.4387 63.4079 62.2848 63.3185 63.0886 63.0552C61.4904 63.6571 59.7605 63.7511 58.0683 63.8075C56.3713 63.8498 54.6697 63.8028 52.9774 63.6946C51.2852 63.5489 49.5976 63.3374 47.9289 63.0412C47.0874 62.9048 46.2507 62.6415 45.5127 62.1949C44.7841 61.7388 44.1777 61.09 43.8016 60.333Z" fill="#663C1D"/>
<path d="M43.5995 52.8291C44.2482 53.4732 45.0802 53.8964 45.9498 54.1174C46.8148 54.376 47.7267 54.3195 48.6386 54.3618L54.1009 54.5217L59.5584 54.7897C61.3682 54.8979 63.2108 54.9261 64.9501 54.329C63.2578 55.0483 61.3588 55.1094 59.5537 55.0107L54.0915 54.8508L48.6339 54.5828C47.7361 54.5217 46.7913 54.564 45.9028 54.2725C45.0285 53.9951 44.2059 53.5108 43.5995 52.8291Z" fill="#663C1D"/>
<path d="M63.1122 44.4566C61.8054 44.4613 60.4986 44.4989 59.1918 44.4848L55.2714 44.4942L51.3557 44.5459C50.0489 44.5553 48.7421 44.56 47.4447 44.6117H47.4353C46.152 44.5929 44.8217 45.0301 43.8957 45.9469C42.9509 46.859 42.509 48.1849 42.4479 49.5013C42.4573 48.8384 42.5278 48.1707 42.7299 47.5313C42.9367 46.8919 43.2846 46.2949 43.7641 45.8153C44.7136 44.8374 46.0862 44.3531 47.44 44.3484H47.4306C50.0489 44.1886 52.6625 44.1886 55.2761 44.2309C57.8897 44.2638 60.5033 44.3156 63.1122 44.4566Z" fill="#663C1D"/>
<defs>
<linearGradient id="paint0_linear" x1="53.6893" y1="39.262" x2="34.6395" y2="40.0267" gradientUnits="userSpaceOnUse">
<stop offset="0.00132565" stop-color="#99643E"/>
<stop offset="1" stop-color="#AE7246"/>
</linearGradient>
<linearGradient id="paint1_linear" x1="36.7051" y1="42.386" x2="31.1948" y2="75.6321" gradientUnits="userSpaceOnUse">
<stop offset="0.6147" stop-color="#8D562E" stop-opacity="0"/>
<stop offset="1" stop-color="#804B24"/>
</linearGradient>
<linearGradient id="paint2_linear" x1="58.1867" y1="6.76878" x2="19.3028" y2="52.6105" gradientUnits="userSpaceOnUse">
<stop stop-color="#A46C3F" stop-opacity="0"/>
<stop offset="1" stop-color="#804B24"/>
</linearGradient>
<linearGradient id="paint3_linear" x1="12.7504" y1="55.4576" x2="68.9747" y2="50.33" gradientUnits="userSpaceOnUse">
<stop stop-color="#AE7246" stop-opacity="0"/>
<stop offset="1" stop-color="#8D562E"/>
</linearGradient>
<linearGradient id="paint4_linear" x1="19.7795" y1="55.1577" x2="53.59" y2="53.2587" gradientUnits="userSpaceOnUse">
<stop stop-color="#AE7246" stop-opacity="0"/>
<stop offset="1" stop-color="#8D562E"/>
</linearGradient>
<linearGradient id="paint5_linear" x1="16.5635" y1="50.9122" x2="112.297" y2="59.3633" gradientUnits="userSpaceOnUse">
<stop stop-color="#473226" stop-opacity="0"/>
<stop offset="1" stop-color="#3D2A20"/>
</linearGradient>
<linearGradient id="paint6_linear" x1="45.0321" y1="52.8669" x2="58.1815" y2="51.1395" gradientUnits="userSpaceOnUse">
<stop stop-color="#643800" stop-opacity="0"/>
<stop offset="1" stop-color="#643800"/>
</linearGradient>
<radialGradient id="paint7_radial" cx="0" cy="0" r="1" gradientUnits="userSpaceOnUse" gradientTransform="translate(27.1534 27.0738) scale(16.1825 16.1855)">
<stop stop-color="#AE7246" stop-opacity="0"/>
<stop offset="1" stop-color="#8D562E"/>
</radialGradient>
<linearGradient id="paint8_linear" x1="64.3557" y1="37.6271" x2="85.3449" y2="34.2086" gradientUnits="userSpaceOnUse">
<stop offset="0.00132565" stop-color="#99643E"/>
<stop offset="1" stop-color="#AE7246"/>
</linearGradient>
<linearGradient id="paint9_linear" x1="54.7627" y1="62.8947" x2="53.3376" y2="47.0314" gradientUnits="userSpaceOnUse">
<stop offset="0.00132565" stop-color="#99643E"/>
<stop offset="1" stop-color="#AE7246"/>
</linearGradient>
<linearGradient id="paint10_linear" x1="52.8969" y1="73.1545" x2="53.0394" y2="50.6895" gradientUnits="userSpaceOnUse">
<stop offset="0.00132565" stop-color="#99643E"/>
<stop offset="1" stop-color="#AE7246"/>
</linearGradient>
<radialGradient id="paint11_radial" cx="0" cy="0" r="1" gradientUnits="userSpaceOnUse" gradientTransform="translate(54.6226 38.8838) scale(7.79026 7.79171)">
<stop stop-color="#8D562E"/>
<stop offset="1" stop-color="#AE7246" stop-opacity="0"/>
</radialGradient>
<radialGradient id="paint12_radial" cx="0" cy="0" r="1" gradientUnits="userSpaceOnUse" gradientTransform="translate(54.3909 58.8617) scale(7.43036 7.43169)">
<stop stop-color="#8D562E"/>
<stop offset="1" stop-color="#AE7246" stop-opacity="0"/>
</radialGradient>
<linearGradient id="paint13_linear" x1="45.4001" y1="67.5555" x2="60.4748" y2="67.5555" gradientUnits="userSpaceOnUse">
<stop offset="0.00132565" stop-color="#99643E"/>
<stop offset="1" stop-color="#AE7246"/>
</linearGradient>
<linearGradient id="paint14_linear" x1="20.4097" y1="47.1766" x2="3.59623" y2="65.6967" gradientUnits="userSpaceOnUse">
<stop stop-color="#AE7246" stop-opacity="0"/>
<stop offset="1" stop-color="#8D562E"/>
</linearGradient>
<linearGradient id="paint15_linear" x1="52.9136" y1="38.7391" x2="39.3324" y2="40.2585" gradientUnits="userSpaceOnUse">
<stop offset="0.3131" stop-color="#8D562E" stop-opacity="0"/>
<stop offset="1" stop-color="#8D562E"/>
</linearGradient>
<radialGradient id="paint16_radial" cx="0" cy="0" r="1" gradientUnits="userSpaceOnUse" gradientTransform="translate(45.5375 39.0327) scale(3.94893 3.94963)">
<stop stop-color="#AE7246" stop-opacity="0"/>
<stop offset="1" stop-color="#8D562E"/>
</radialGradient>
<radialGradient id="paint17_radial" cx="0" cy="0" r="1" gradientUnits="userSpaceOnUse" gradientTransform="translate(33.9179 63.0779) rotate(7.56196) scale(5.64415 2.68253)">
<stop stop-color="#AE7246"/>
<stop offset="1" stop-color="#8D562E" stop-opacity="0"/>
</radialGradient>
<radialGradient id="paint18_radial" cx="0" cy="0" r="1" gradientUnits="userSpaceOnUse" gradientTransform="translate(55.8589 39.074) rotate(2.02691) scale(6.34918 4.16623)">
<stop stop-color="#F8DBBA"/>
<stop offset="1" stop-color="#CD9870" stop-opacity="0"/>
</radialGradient>
<radialGradient id="paint19_radial" cx="0" cy="0" r="1" gradientUnits="userSpaceOnUse" gradientTransform="translate(55.5494 59.5191) rotate(-0.0543893) scale(6.81883 3.67476)">
<stop stop-color="#F8DBBA"/>
<stop offset="1" stop-color="#CD9870" stop-opacity="0"/>
</radialGradient>
<radialGradient id="paint20_radial" cx="0" cy="0" r="1" gradientUnits="userSpaceOnUse" gradientTransform="translate(53.189 67.7715) rotate(-0.053944) scale(6.24318 3.90612)">
<stop stop-color="#F8DBBA"/>
<stop offset="1" stop-color="#CD9870" stop-opacity="0"/>
</radialGradient>
<linearGradient id="paint21_linear" x1="53.5729" y1="58.7362" x2="33.7235" y2="58.1665" gradientUnits="userSpaceOnUse">
<stop offset="0.3131" stop-color="#8D562E" stop-opacity="0"/>
<stop offset="1" stop-color="#8D562E"/>
</linearGradient>
<radialGradient id="paint22_radial" cx="0" cy="0" r="1" gradientUnits="userSpaceOnUse" gradientTransform="translate(45.6687 58.3562) scale(3.59633 3.59695)">
<stop stop-color="#AE7246" stop-opacity="0"/>
<stop offset="1" stop-color="#8D562E"/>
</radialGradient>
<linearGradient id="paint23_linear" x1="54.5973" y1="65.4121" x2="41.3954" y2="70.445" gradientUnits="userSpaceOnUse">
<stop offset="0.3131" stop-color="#8D562E" stop-opacity="0"/>
<stop offset="1" stop-color="#8D562E"/>
</linearGradient>
<radialGradient id="paint24_radial" cx="0" cy="0" r="1" gradientUnits="userSpaceOnUse" gradientTransform="translate(46.0014 67.322) scale(3.2233 3.22386)">
<stop stop-color="#AE7246" stop-opacity="0"/>
<stop offset="1" stop-color="#8D562E"/>
</radialGradient>
<linearGradient id="paint25_linear" x1="54.7648" y1="38.8919" x2="55.9999" y2="44.8129" gradientUnits="userSpaceOnUse">
<stop stop-color="#A46C3F" stop-opacity="0"/>
<stop offset="1" stop-color="#804B24"/>
</linearGradient>
<linearGradient id="paint26_linear" x1="55.0711" y1="61.4782" x2="55.3561" y2="52.4069" gradientUnits="userSpaceOnUse">
<stop stop-color="#8D562E" stop-opacity="0"/>
<stop offset="1" stop-color="#804B24"/>
</linearGradient>
<linearGradient id="paint27_linear" x1="54.673" y1="47.3809" x2="57.7132" y2="58.9695" gradientUnits="userSpaceOnUse">
<stop offset="0.00132565" stop-color="#99643E"/>
<stop offset="1" stop-color="#AE7246"/>
</linearGradient>
<radialGradient id="paint28_radial" cx="0" cy="0" r="1" gradientUnits="userSpaceOnUse" gradientTransform="translate(55.2892 49.6876) scale(8.42956 8.43096)">
<stop stop-color="#8D562E"/>
<stop offset="1" stop-color="#AE7246" stop-opacity="0"/>
</radialGradient>
<linearGradient id="paint29_linear" x1="49.4286" y1="49.4778" x2="38.7498" y2="49.4778" gradientUnits="userSpaceOnUse">
<stop offset="0.2173" stop-color="#8D562E" stop-opacity="0"/>
<stop offset="1" stop-color="#8D562E"/>
</linearGradient>
<radialGradient id="paint30_radial" cx="0" cy="0" r="1" gradientUnits="userSpaceOnUse" gradientTransform="translate(57.7194 49.5191) rotate(-2.73456) scale(7.24332 4.75288)">
<stop stop-color="#F8DBBA"/>
<stop offset="1" stop-color="#CD9870" stop-opacity="0"/>
</radialGradient>
<radialGradient id="paint31_radial" cx="0" cy="0" r="1" gradientUnits="userSpaceOnUse" gradientTransform="translate(44.7433 49.4747) scale(3.87164 3.87236)">
<stop stop-color="#AE7246" stop-opacity="0"/>
<stop offset="1" stop-color="#8D562E"/>
</radialGradient>
<linearGradient id="paint32_linear" x1="55.6777" y1="48.8353" x2="56.1844" y2="55.4214" gradientUnits="userSpaceOnUse">
<stop stop-color="#A46C3F" stop-opacity="0"/>
<stop offset="1" stop-color="#804B24"/>
</linearGradient>
<linearGradient id="paint33_linear" x1="54.9821" y1="54.3092" x2="54.6654" y2="59.5653" gradientUnits="userSpaceOnUse">
<stop stop-color="#A46C3F" stop-opacity="0"/>
<stop offset="1" stop-color="#804B24"/>
</linearGradient>
<linearGradient id="paint34_linear" x1="52.9939" y1="68.2931" x2="53.7539" y2="75.4172" gradientUnits="userSpaceOnUse">
<stop stop-color="#A46C3F" stop-opacity="0"/>
<stop offset="1" stop-color="#804B24"/>
</linearGradient>
<linearGradient id="paint35_linear" x1="52.876" y1="67.2615" x2="53.6361" y2="61.6095" gradientUnits="userSpaceOnUse">
<stop stop-color="#8D562E" stop-opacity="0"/>
<stop offset="1" stop-color="#804B24"/>
</linearGradient>
<linearGradient id="paint36_linear" x1="18.3696" y1="52.9865" x2="2.22013" y2="77.3963" gradientUnits="userSpaceOnUse">
<stop offset="0.3105" stop-color="#804B24" stop-opacity="0"/>
<stop offset="1" stop-color="#804B24"/>
</linearGradient>
<radialGradient id="paint37_radial" cx="0" cy="0" r="1" gradientUnits="userSpaceOnUse" gradientTransform="translate(7.61294 93.2821) scale(32.8632 32.8693)">
<stop stop-color="#AE7246" stop-opacity="0"/>
<stop offset="1" stop-color="#8D562E"/>
</radialGradient>
<radialGradient id="paint38_radial" cx="0" cy="0" r="1" gradientUnits="userSpaceOnUse" gradientTransform="translate(7.61302 93.2819) scale(32.8631 32.8698)">
<stop stop-color="#AE7246" stop-opacity="0"/>
<stop offset="1" stop-color="#8D562E"/>
</radialGradient>
<radialGradient id="paint39_radial" cx="0" cy="0" r="1" gradientUnits="userSpaceOnUse" gradientTransform="translate(41.842 14.1714) rotate(79.0647) scale(5.24859 3.18529)">
<stop stop-color="#AE7246"/>
<stop offset="1" stop-color="#8D562E" stop-opacity="0"/>
</radialGradient>
</defs>
</svg>
