<svg width="80" height="80" viewBox="0 0 80 80" fill="none" xmlns="http://www.w3.org/2000/svg">
<path d="M39.8044 72.0001C37.3237 72.0001 36.3847 70.019 36.5763 66.1737C36.7024 63.6413 37.5573 56.5814 33.9788 53.0024C30.6432 49.6664 29.6715 49.9607 25.8734 45.6575C22.0753 41.3497 18.9079 42.2374 14.4791 42.6159C8.91043 43.0924 10.8071 12.1944 14.7314 12.727C17.5157 13.1055 23.8505 13.8671 24.8596 13.8671C25.8687 13.8671 32.8202 8.48454 38.9168 8.4238C48.7927 8.32101 54.2399 10.0685 54.2399 10.0685L57.1317 16.6331L58.0988 36.654L53.4785 46.2883C53.4785 46.2883 47.2744 45.2744 45.4992 48.0591C43.7286 50.8438 46.8914 54.264 46.8914 62.2443C46.8914 70.2246 41.0704 72.0001 39.8044 72.0001Z" fill="url(#paint0_linear)"/>
<path d="M45.4993 48.0634C43.7287 50.8481 46.8914 54.2682 46.8914 62.2485C46.8914 70.2289 41.0658 71.9997 39.7998 71.9997C39.4681 71.9997 39.1691 71.9623 38.9028 71.8922C44.0697 71.5698 47.1811 65.0519 45.3965 58.3331C43.9529 52.8805 43.2335 48.5119 45.5927 45.9468C47.1204 44.2881 50.1523 44.5685 53.4739 46.2926C53.4785 46.2926 47.2745 45.2787 45.4993 48.0634Z" fill="url(#paint1_linear)"/>
<path d="M45.8496 45.223C42.8083 44.2091 35.1374 41.8262 29.3211 36.5559C14.5913 23.193 39.7437 21.5203 44.9339 10.0918C45.929 7.90517 51.7312 21.5484 51.7312 21.5484L53.6092 24.7068L48.1854 39.149L45.8496 45.223Z" fill="url(#paint2_linear)"/>
<path d="M46.2933 44.0644C43.2521 43.0505 30.8394 35.0982 30.8394 31.1688C30.8394 19.8338 39.4353 25.4265 44.0836 12.0544C44.7283 10.2041 46.9987 8.64355 46.9987 8.64355C48.8814 10.1807 51.7312 21.5438 51.7312 21.5438L53.6092 24.7023L48.1854 39.1445L46.2933 44.0644Z" fill="url(#paint3_linear)"/>
<path d="M53.3102 9.32539L59.1264 15.9741L60.4065 43.7557L45.8495 45.2229C42.5092 43.424 42.1214 40.9617 43.3641 37.0136C43.8873 35.3502 41.7617 34.8737 41.6262 30.0331C41.5328 26.6784 43.7285 26.6597 43.7285 25.6645C43.7285 24.6693 42.6353 24.7581 42.2709 21.8659C41.7524 17.7309 45.2141 17.6515 45.2141 16.7684C45.2141 15.8853 43.2894 15.3574 43.4108 11.9886C43.5603 7.71344 35.6231 8.57782 30.26 12.4699C28.055 14.0678 26.1349 14.2313 24.6306 13.8716C24.724 13.8762 24.8035 13.8809 24.8642 13.8809C25.878 13.8809 32.6799 8.43765 38.9213 8.43765C46.2092 8.42831 51.2593 8.85349 53.3102 9.32539Z" fill="url(#paint4_linear)"/>
<path d="M54.6464 43.3914C50.1522 43.3914 47.6809 38.9994 49.3908 35.6213C51.1006 32.2432 46.2233 27.7764 46.7325 25.5805C47.2418 23.3845 48.1247 17.8151 48.8208 16.8946C49.5169 15.9742 47.6809 13.8856 47.6809 13.8856L53.3804 13.1895L58.6968 15.535L58.5052 31.6171L59.0752 41.686L54.6464 43.3914Z" fill="url(#paint5_linear)"/>
<path d="M39.8043 72.0002C37.3236 72.0002 36.3846 70.0191 36.5762 66.1738C36.7023 63.6414 37.5572 56.5815 33.9787 53.0025C30.6431 49.6665 29.6714 49.9608 25.8733 45.6576C23.4066 42.8589 21.2063 42.2562 18.7536 42.2795C17.4315 42.2936 16.0347 42.4851 14.479 42.6206C14.479 41.6581 14.7593 41.6815 18.4313 40.6676C18.8517 40.5508 19.2488 40.4714 19.6366 40.4246C19.8234 39.8406 19.9262 39.2519 19.9028 38.6678C19.7674 35.4673 20.4728 31.5285 21.0101 35.6262C21.2203 37.2147 21.8696 38.9996 22.7993 40.7984C24.1915 41.3544 25.3174 42.3963 26.3171 43.6112C28.1811 45.8772 29.7975 47.8863 34.4833 50.9233C39.169 53.9603 38.5663 62.3191 38.1879 65.1085C37.8095 67.8979 38.0571 72.0002 39.8043 72.0002Z" fill="url(#paint6_radial)"/>
<path d="M58.0523 46.4186C52.7359 46.6195 43.1822 46.9232 42.972 41.3538C42.8178 37.3169 45.6816 35.99 50.1104 35.8218C54.5391 35.6536 56.7535 35.5695 58.5895 35.4994C60.4255 35.4293 66.195 35.4667 66.2511 40.3399C66.3165 46.4326 58.0523 46.4186 58.0523 46.4186Z" fill="url(#paint7_linear)"/>
<path d="M49.3112 26.2858C47.8864 26.3279 43.6585 25.2579 43.2614 22.5713C42.9484 20.4594 44.0275 17.7261 47.7089 17.0813C52.3712 16.2637 60.1449 15.8385 63.0461 16.9225C64.3448 17.4084 65.4754 18.7634 65.5314 20.8239C65.5875 22.8844 64.0645 25.6644 60.7429 25.7579C57.4213 25.856 55.6881 25.8046 53.7961 26.0242C51.521 26.2952 50.4511 26.2531 49.3112 26.2858Z" fill="url(#paint8_linear)"/>
<path d="M47.8255 16.8946C46.2091 16.8946 44.219 15.4695 44.219 13.096C44.219 10.7224 44.8357 8.96565 48.302 8.2975C51.7684 7.62936 57.3231 8.20406 59.4113 8.86753C61.037 9.38616 61.6444 10.9093 61.6444 13.4277C61.6444 15.9461 60.0793 16.3853 58.3695 16.3853C56.6597 16.3853 54.5854 16.0723 53.3988 16.1377C50.0913 16.3105 49.4419 16.8946 47.8255 16.8946Z" fill="url(#paint9_linear)"/>
<path d="M57.5988 45.2931C52.9599 45.4707 44.6163 45.737 44.4481 41.3357C44.3266 38.1445 46.8306 37.0885 50.6988 36.939C54.5669 36.7895 64.7418 36.6073 64.7745 40.4619C64.8166 45.2791 57.5988 45.2931 57.5988 45.2931Z" fill="url(#paint10_linear)"/>
<path d="M49.7363 25.1507C48.4983 25.1881 45.0226 24.8891 44.6909 22.324C44.4666 20.5859 45.3683 18.3572 48.573 17.8199C52.6374 17.1424 59.402 16.7826 61.9294 17.6703C63.0553 18.0675 64.041 19.1748 64.0877 20.8615C64.1345 22.5482 62.5835 24.6181 59.6917 24.6975C56.7999 24.7816 55.2629 24.5153 53.6091 24.7022C51.6283 24.9265 50.7314 25.1227 49.7363 25.1507Z" fill="url(#paint11_linear)"/>
<path d="M48.5172 16.0303C47.1203 16.0303 45.3965 14.8809 45.3965 12.9699C45.3965 11.0589 45.9291 9.6432 48.9283 9.10589C51.9275 8.56857 56.7347 9.03113 58.538 9.56377C59.9442 9.97961 60.4675 11.2084 60.4675 13.2362C60.4675 15.264 59.1127 15.6191 57.6317 15.6191C56.1508 15.6191 54.3568 15.3668 53.3337 15.4182C50.4746 15.5584 49.914 16.0303 48.5172 16.0303Z" fill="url(#paint12_linear)"/>
<path d="M18.1791 13.1755C14.4417 14.7828 10.9473 36.7894 17.838 42.3168C16.7869 42.3822 15.6797 42.5224 14.4791 42.6252C8.91043 43.1017 10.8071 12.2037 14.7314 12.7363C15.619 12.8531 16.8617 13.012 18.1791 13.1755Z" fill="url(#paint13_linear)"/>
<path d="M47.6669 41.3355C47.7837 44.3678 50.1989 45.8209 53.2543 46.4937C48.377 46.3816 43.126 45.4705 42.9671 41.3588C42.8129 37.3219 45.6767 35.995 50.1055 35.8268C50.5914 35.8081 51.0539 35.7894 51.4883 35.7754C49.003 36.4996 47.5454 38.1349 47.6669 41.3355Z" fill="url(#paint14_linear)"/>
<path d="M48.0827 45.9424C45.247 45.3209 43.07 43.98 42.9672 41.3541C42.841 37.9947 44.7985 36.5183 48.0079 36.0137C41.5003 38.6115 43.8361 45.0126 48.0827 45.9424Z" fill="url(#paint15_linear)"/>
<path opacity="0.24" d="M40.524 14.0352C39.7718 12.3111 36.2027 12.2036 32.5447 13.7922C28.8868 15.3808 26.5369 18.0721 27.2844 19.7962C28.0365 21.5202 31.6057 21.6277 35.2636 20.0391C38.9216 18.4458 41.2761 15.7593 40.524 14.0352Z" fill="url(#paint16_radial)"/>
<path opacity="0.5" d="M62.0325 40.5223C61.9951 38.1908 58.8791 37.0882 55.4734 36.8826C52.6844 36.7144 49.5918 38.6861 49.6712 40.9615C49.7506 43.237 50.157 45.2554 55.9453 45.0545C59.3603 44.933 62.0698 42.7978 62.0325 40.5223Z" fill="url(#paint17_radial)"/>
<path opacity="0.5" d="M62.6537 20.0392C62.635 16.8153 59.0845 17.432 55.6788 17.2078C51.3575 16.9228 48.4937 18.2684 48.489 20.5438C48.4844 22.8192 50.1288 24.4826 55.9264 24.4919C59.3414 24.4966 62.677 24.1835 62.6537 20.0392Z" fill="url(#paint18_radial)"/>
<path opacity="0.5" d="M59.5283 11.9046C59.5096 9.15259 56.2861 8.77881 53.2355 8.77881C50.1849 8.77881 46.868 10.3954 46.8633 12.3344C46.8633 14.2781 48.3302 15.6892 53.5111 15.6985C56.5664 15.7032 59.5516 15.4369 59.5283 11.9046Z" fill="url(#paint19_radial)"/>
<path d="M47.2231 21.922C47.7089 25.5945 50.526 25.3796 53.7542 25.7627C50.0355 26.0384 48.4751 26.0804 48.4751 26.0804C48.1294 26.1131 47.7416 26.1178 47.3352 26.0757C46.1252 25.8094 44.7564 25.2581 43.9435 24.2302C43.6679 23.8377 43.4437 23.3751 43.2942 22.8238C43.2802 22.7444 43.2661 22.6649 43.2521 22.5808C42.9905 20.4596 44.0183 17.7356 47.6996 17.0909C48.2322 16.9974 48.8021 16.9086 49.4048 16.8292C49.6944 16.7918 50.0074 16.7544 50.3438 16.7124C50.4326 16.703 50.526 16.689 50.6148 16.6797C48.5919 17.6328 46.8634 19.2214 47.2231 21.922Z" fill="url(#paint20_linear)"/>
<path d="M48.1202 26.1036C47.8679 26.1129 47.6063 26.1036 47.3307 26.0755C46.1113 25.8045 44.7332 25.2485 43.9203 24.2019C43.654 23.8141 43.4391 23.3562 43.2943 22.8236C43.2803 22.7442 43.2709 22.6647 43.2522 22.5806C42.8785 20.4921 43.9156 18.0298 47.1298 17.2168C41.6499 20.2351 43.9904 26.0989 48.1202 26.1036Z" fill="url(#paint21_linear)"/>
<path d="M51.3152 16.3342C49.6942 16.5725 49.0261 16.8949 47.8255 16.8949C46.2091 16.8949 44.219 15.4698 44.219 13.0963C44.219 12.2319 44.3031 11.4516 44.5694 10.7788C44.8403 10.2181 45.2374 9.69481 45.784 9.25561C46.382 8.83977 47.1948 8.51271 48.302 8.30246C49.0448 8.16229 49.881 8.07351 50.7593 8.03613C49.0635 9.02199 46.1951 9.54997 46.7977 12.844C47.4611 16.479 49.6334 15.9884 51.3152 16.3342Z" fill="url(#paint22_linear)"/>
<path d="M47.7555 16.8948C46.1531 16.8527 44.219 15.437 44.219 13.0962C44.219 10.9189 44.7376 9.26486 47.4939 8.48926C43.1912 11.2553 44.5741 15.9136 47.7555 16.8948Z" fill="url(#paint23_linear)"/>
<path d="M66.2462 40.3405C66.2509 40.8872 66.1902 41.3825 66.0734 41.8357C66.4985 39.9341 64.8074 38.0418 60.3132 37.1213C57.3326 36.5139 49.4235 35.7523 43.9482 37.9249C45.1302 36.4952 47.3025 35.9252 50.1055 35.8177C54.5343 35.6495 56.7487 35.5654 58.5847 35.4953C60.4206 35.4299 66.1902 35.4626 66.2462 40.3405Z" fill="url(#paint24_linear)"/>
<path d="M65.5361 20.9595C65.5315 23.0013 63.9992 25.6645 60.743 25.7579C57.4214 25.8561 55.6882 25.8047 53.7962 26.0243C51.521 26.2906 50.4512 26.2532 49.3113 26.2859C48.4517 26.3093 46.3261 26.0523 44.8826 25.1552C46.5083 24.5899 49.1525 23.7442 52.8758 23.9825C61.7941 24.5572 64.3355 23.4779 65.5361 20.9595Z" fill="url(#paint25_linear)"/>
<path d="M47.3958 35.4998C45.4991 35.5371 42.4812 34.4205 42.4017 30.477C42.3223 26.5336 45.77 25.5944 47.2883 25.5664C48.8066 25.5384 54.1184 25.1739 60.6727 25.0431C67.2225 24.9123 68.1007 28.4305 68.1381 30.2714C68.1755 32.1123 67.0076 35.4484 63.0646 35.5278C51.6751 35.7567 47.3958 35.4998 47.3958 35.4998Z" fill="url(#paint26_linear)"/>
<path d="M48.4143 34.355C46.7652 34.3877 44.1444 33.5326 44.0837 30.491C44.0229 27.4493 47.0222 26.7157 48.3443 26.6924C49.6663 26.6643 53.7914 26.0242 59.9768 26.2625C65.6716 26.4821 66.4284 28.8603 66.4564 30.2807C66.4844 31.7011 66.2882 34.2755 62.8639 34.3456C52.9599 34.5419 48.4143 34.355 48.4143 34.355Z" fill="url(#paint27_linear)"/>
<path d="M46.4801 30.8604C46.6717 34.9066 49.4934 34.9206 52.6842 35.6168C48.9561 35.5935 47.3958 35.5 47.3958 35.5C45.4991 35.5374 42.4812 34.4207 42.4017 30.4773C42.3223 26.5338 45.77 25.5947 47.2883 25.5666C47.8349 25.5573 48.8767 25.5012 50.2922 25.4312C48.19 26.3002 46.34 27.8841 46.4801 30.8604Z" fill="url(#paint28_linear)"/>
<path opacity="0.5" d="M64.8074 30.4397C64.9382 27.2158 61.3597 26.6084 57.9494 26.4448C54.539 26.2813 50.7456 28.0054 50.6382 30.2808C50.5307 32.5562 52.0911 34.2896 57.884 34.57C61.2896 34.7382 64.6393 34.5793 64.8074 30.4397Z" fill="url(#paint29_radial)"/>
<path d="M47.0409 35.4947C45.1442 35.392 42.4767 34.1818 42.402 30.4813C42.3272 26.7341 45.4385 25.7016 47.0503 25.5801C40.8136 28.0985 42.8598 35.121 47.0409 35.4947Z" fill="url(#paint30_linear)"/>
<path d="M68.1337 30.6686C67.3114 24.8375 51.8902 25.9028 43.5605 27.155C44.6864 25.9495 46.3589 25.5851 47.2932 25.5664C48.8115 25.5384 54.1232 25.1739 60.6776 25.0431C67.2274 24.9123 68.1056 28.4305 68.143 30.2714C68.143 30.3976 68.143 30.5331 68.1337 30.6686Z" fill="url(#paint31_linear)"/>
<path d="M60.4065 17.6843C57.4213 17.5535 49.5168 16.5723 43.7566 19.656C44.3966 18.4599 45.644 17.446 47.7042 17.0862C52.3665 16.2686 60.1402 15.8434 63.0414 16.9274C64.3401 17.4133 65.4706 18.7683 65.5267 20.8288C65.3445 19.0393 63.6347 17.8245 60.4065 17.6843Z" fill="url(#paint32_linear)"/>
<path d="M61.4156 11.2038C59.4581 9.71331 56.0758 8.83491 51.1986 9.66191C48.1853 10.1712 46.1204 10.3441 44.761 10.3815C45.3029 9.40026 46.354 8.67605 48.3068 8.30227C51.7732 7.6388 57.3278 8.20882 59.4161 8.87229C60.4859 9.21337 61.1119 9.99365 61.4156 11.2038Z" fill="url(#paint33_linear)"/>
<path d="M44.8591 15.2311C48.475 16.5487 50.2456 14.5957 54.1184 14.5957C58.1361 14.5957 60.0515 16.217 61.4764 14.6751C61.0279 16.1002 59.7432 16.3852 58.3697 16.3852C56.6599 16.3852 54.5856 16.0722 53.399 16.1376C50.0914 16.3104 49.4421 16.8992 47.8257 16.8992C46.7839 16.8945 45.5786 16.2964 44.8591 15.2311Z" fill="url(#paint34_linear)"/>
<path d="M14.7314 12.7314C17.5157 13.1099 23.8459 13.8715 24.8596 13.8715C15.6798 20.4361 19.7628 34.4017 23.1498 41.4615C23.6263 42.4521 23.9206 43.2651 24.0748 43.9566C21.0195 41.6251 18.1931 42.2979 14.4745 42.6203C8.91051 43.0968 10.8072 12.1988 14.7314 12.7314Z" fill="url(#paint35_linear)"/>
<path d="M20.5198 19.0765C19.5714 20.3427 20.3936 17.6187 21.1551 15.6564C21.7998 13.9837 16.8478 14.9742 13.0544 14.563C13.5496 13.3389 14.1149 12.6474 14.7316 12.7315C17.5159 13.1099 23.846 13.8715 24.8598 13.8715C23.4349 15.0863 21.4728 17.8103 20.5198 19.0765Z" fill="url(#paint36_radial)"/>
<path d="M24.8595 13.8717C24.07 14.5398 23.1217 15.6705 22.2667 16.7639C22.2667 16.7639 17.6558 14.4043 12.7131 15.5163C13.2831 13.7128 13.9651 12.6289 14.7266 12.7363C17.5156 13.1101 23.8505 13.8717 24.8595 13.8717Z" fill="url(#paint37_radial)"/>
<path opacity="0.24" d="M42.757 60.3847C40.9537 59.9969 39.4914 62.4873 38.6645 65.3981C37.9871 67.7763 38.9075 70.804 40.678 71.1497C42.4486 71.4908 44.0884 71.5048 45.0648 66.4634C45.6394 63.4918 44.5229 60.7678 42.757 60.3847Z" fill="url(#paint38_radial)"/>
<path opacity="0.5" d="M42.757 59.0576C40.9537 58.6698 39.4914 61.1601 38.6645 64.071C37.9871 66.4492 38.9075 69.4768 40.678 69.8226C42.4486 70.1683 44.0884 70.1777 45.0648 65.1362C45.6394 62.16 44.5229 59.436 42.757 59.0576Z" fill="url(#paint39_radial)"/>
<path d="M47.7557 16.8948C46.7606 16.792 45.8636 16.2593 45.2469 15.5258C44.6209 14.7876 44.3266 13.8251 44.392 12.8532C44.3966 11.8814 44.5461 10.8815 45.0974 10.0919C45.644 9.29757 46.5644 8.82099 47.4941 8.48926C46.5363 8.70418 45.5366 9.10133 44.8919 9.94235C44.2425 10.774 44.0883 11.8533 44.0603 12.8485C44.0182 13.8624 44.3406 14.9464 45.06 15.694C45.7515 16.4509 46.7559 16.9135 47.7557 16.8948Z" fill="#804B24"/>
<path d="M46.1626 25.73C45.5086 25.445 44.906 25.0572 44.4061 24.576C43.8969 24.0994 43.6259 23.4453 43.4437 22.7818V22.7912C43.2055 21.581 43.4064 20.2961 44.1165 19.2869C44.8125 18.2683 45.9337 17.6002 47.1343 17.2124C45.901 17.4507 44.6584 18.0487 43.8829 19.1187C43.4951 19.6467 43.2288 20.2588 43.1027 20.9035C42.9719 21.5483 43.0326 22.2211 43.1541 22.8472L43.1588 22.8566C43.355 23.5527 43.7007 24.2489 44.2706 24.7208C44.8172 25.2114 45.4899 25.5104 46.1626 25.73Z" fill="#804B24"/>
<path d="M47.0409 35.495C45.8683 35.3595 44.7331 34.8736 43.9202 34.0513C43.1073 33.2289 42.6682 32.0982 42.5981 30.9442C42.4813 29.7948 42.6682 28.5986 43.3222 27.6455C43.9716 26.6877 45.0274 26.0476 46.1626 25.7158C45.004 25.9261 43.8501 26.5008 43.1167 27.496C42.3692 28.4818 42.1683 29.7807 42.2711 30.9722C42.3692 32.173 42.8411 33.3971 43.7474 34.2335C44.6396 35.0792 45.8589 35.4857 47.0409 35.495Z" fill="#804B24"/>
<path d="M48.0826 45.9426C46.8259 45.6015 45.5786 45.1249 44.5882 44.3119C43.5884 43.5036 43.0512 42.2514 43.1353 40.9712C43.1166 39.7003 43.5324 38.4014 44.5041 37.5558C45.4571 36.7007 46.7419 36.2895 48.0126 36.0186C46.7232 36.1681 45.387 36.4951 44.3359 37.3642C43.2614 38.2239 42.8083 39.649 42.8036 40.9665C42.7335 42.3075 43.3362 43.7092 44.4293 44.5128C45.5038 45.3258 46.8026 45.7136 48.0826 45.9426Z" fill="#804B24"/>
<path d="M43.7612 19.656C44.6255 18.1609 46.284 17.3853 47.9284 17.161C49.5962 16.904 51.2827 16.7265 52.9645 16.619C54.6463 16.4742 56.3375 16.3901 58.0287 16.3947C58.8742 16.4041 59.7198 16.4274 60.5561 16.5116C61.397 16.577 62.2425 16.6657 63.0508 16.9321C61.453 16.334 59.7198 16.2359 58.0333 16.1798C56.3375 16.1378 54.637 16.1845 52.9412 16.2966C51.25 16.4415 49.5635 16.6564 47.891 16.9507C47.0501 17.0909 46.2092 17.3479 45.4757 17.7964C44.7423 18.245 44.1396 18.8991 43.7612 19.656Z" fill="#804B24"/>
<path d="M43.5605 27.1598C44.2052 26.515 45.0415 26.0898 45.9104 25.8749C46.7747 25.6179 47.6857 25.674 48.6013 25.6319L54.0625 25.4731L59.5237 25.2021C61.3364 25.09 63.177 25.0666 64.9149 25.66C63.2237 24.9404 61.3223 24.8797 59.5191 24.9778L54.0579 25.1367L48.5966 25.4077C47.6997 25.4684 46.756 25.4264 45.8684 25.716C44.9854 25.9917 44.1679 26.4776 43.5605 27.1598Z" fill="#804B24"/>
<path d="M63.0693 35.5278C61.7612 35.5232 60.4578 35.4858 59.1498 35.4998L55.2302 35.4905L51.3154 35.4344C50.012 35.425 48.7039 35.4204 47.4052 35.369H47.3958C46.1111 35.3923 44.7797 34.9531 43.8547 34.0327C42.911 33.1216 42.4672 31.7993 42.4065 30.4771C42.4158 31.1405 42.4859 31.804 42.6915 32.4441C42.897 33.0842 43.2474 33.6776 43.7239 34.1588C44.6769 35.1354 46.0457 35.6213 47.4005 35.6259H47.3912C50.0073 35.7848 52.6188 35.7848 55.2349 35.7428C57.8464 35.7194 60.4625 35.6727 63.0693 35.5278Z" fill="#804B24"/>
<defs>
<linearGradient id="paint0_linear" x1="53.6832" y1="40.7401" x2="34.6345" y2="39.9755" gradientUnits="userSpaceOnUse">
<stop offset="0.00132565" stop-color="#D2A374"/>
<stop offset="1" stop-color="#DEBA94"/>
</linearGradient>
<linearGradient id="paint1_linear" x1="20.2963" y1="60.2019" x2="57.0487" y2="57.4482" gradientUnits="userSpaceOnUse">
<stop stop-color="#D2A374" stop-opacity="0"/>
<stop offset="1" stop-color="#B88653"/>
</linearGradient>
<linearGradient id="paint2_linear" x1="9.0698" y1="27.5379" x2="62.2538" y2="27.5379" gradientUnits="userSpaceOnUse">
<stop offset="0.3118" stop-color="#D2A374" stop-opacity="0"/>
<stop offset="1" stop-color="#D2A374"/>
</linearGradient>
<linearGradient id="paint3_linear" x1="8.81647" y1="26.3551" x2="58.1003" y2="26.3551" gradientUnits="userSpaceOnUse">
<stop offset="0.3118" stop-color="#D2A374" stop-opacity="0"/>
<stop offset="1" stop-color="#B88653"/>
</linearGradient>
<linearGradient id="paint4_linear" x1="26.9641" y1="15.0099" x2="42.7297" y2="23.5563" gradientUnits="userSpaceOnUse">
<stop stop-color="#D2A374" stop-opacity="0"/>
<stop offset="1" stop-color="#B88653"/>
</linearGradient>
<linearGradient id="paint5_linear" x1="45.0274" y1="27.1371" x2="58.1759" y2="28.8644" gradientUnits="userSpaceOnUse">
<stop stop-color="#643800" stop-opacity="0"/>
<stop offset="1" stop-color="#643800"/>
</linearGradient>
<radialGradient id="paint6_radial" cx="0" cy="0" r="1" gradientUnits="userSpaceOnUse" gradientTransform="translate(16.2531 55.923) scale(27.8018 27.8055)">
<stop stop-color="#D2A374" stop-opacity="0"/>
<stop offset="1" stop-color="#D2A374"/>
</radialGradient>
<linearGradient id="paint7_linear" x1="54.3857" y1="35.2775" x2="55.399" y2="60.4788" gradientUnits="userSpaceOnUse">
<stop offset="0.00132565" stop-color="#D2A374"/>
<stop offset="1" stop-color="#DEBA94"/>
</linearGradient>
<linearGradient id="paint8_linear" x1="65.3463" y1="21.2832" x2="46.6778" y2="21.2832" gradientUnits="userSpaceOnUse">
<stop offset="0.00132565" stop-color="#D2A374"/>
<stop offset="1" stop-color="#DEBA94"/>
</linearGradient>
<linearGradient id="paint9_linear" x1="65.3462" y1="12.4496" x2="46.6881" y2="12.4496" gradientUnits="userSpaceOnUse">
<stop offset="0.00132565" stop-color="#D2A374"/>
<stop offset="1" stop-color="#DEBA94"/>
</linearGradient>
<linearGradient id="paint10_linear" x1="53.2198" y1="31.5058" x2="57.4944" y2="60.3795" gradientUnits="userSpaceOnUse">
<stop stop-color="#D2A374"/>
<stop offset="0.9987" stop-color="#E9CDB1"/>
</linearGradient>
<linearGradient id="paint11_linear" x1="53.9286" y1="14.5782" x2="55.3219" y2="35.7904" gradientUnits="userSpaceOnUse">
<stop stop-color="#D2A374"/>
<stop offset="0.9987" stop-color="#E9CDB1"/>
</linearGradient>
<linearGradient id="paint12_linear" x1="59.3623" y1="2.22904" x2="42.8348" y2="29.4547" gradientUnits="userSpaceOnUse">
<stop stop-color="#D2A374"/>
<stop offset="0.9987" stop-color="#E9CDB1"/>
</linearGradient>
<linearGradient id="paint13_linear" x1="20.4064" y1="32.8259" x2="3.59475" y2="14.307" gradientUnits="userSpaceOnUse">
<stop offset="0.3105" stop-color="#D2A374" stop-opacity="0"/>
<stop offset="1" stop-color="#B88653"/>
</linearGradient>
<linearGradient id="paint14_linear" x1="49.0754" y1="41.1299" x2="43.7897" y2="41.1299" gradientUnits="userSpaceOnUse">
<stop offset="0.3118" stop-color="#D2A374" stop-opacity="0"/>
<stop offset="1" stop-color="#B88653"/>
</linearGradient>
<linearGradient id="paint15_linear" x1="48.1258" y1="40.9781" x2="42.0471" y2="40.9781" gradientUnits="userSpaceOnUse">
<stop stop-color="#D2A374" stop-opacity="0"/>
<stop offset="1" stop-color="#B88653"/>
</linearGradient>
<radialGradient id="paint16_radial" cx="0" cy="0" r="1" gradientUnits="userSpaceOnUse" gradientTransform="translate(33.9236 16.9257) rotate(-7.56227) scale(5.64376 2.68223)">
<stop stop-color="#F8DBBA"/>
<stop offset="1" stop-color="#CD9870" stop-opacity="0"/>
</radialGradient>
<radialGradient id="paint17_radial" cx="0" cy="0" r="1" gradientUnits="userSpaceOnUse" gradientTransform="translate(55.8543 40.9654) rotate(-2.02698) scale(6.34885 4.16576)">
<stop stop-color="#E9CDB1"/>
<stop offset="1" stop-color="#E9CDB1" stop-opacity="0"/>
</radialGradient>
<radialGradient id="paint18_radial" cx="0" cy="0" r="1" gradientUnits="userSpaceOnUse" gradientTransform="translate(55.5333 20.4939) rotate(0.0543852) scale(6.81855 3.6742)">
<stop stop-color="#E9CDB1"/>
<stop offset="1" stop-color="#E9CDB1" stop-opacity="0"/>
</radialGradient>
<radialGradient id="paint19_radial" cx="0" cy="0" r="1" gradientUnits="userSpaceOnUse" gradientTransform="translate(53.1851 12.2438) rotate(0.0539403) scale(6.24289 3.90566)">
<stop stop-color="#E9CDB1"/>
<stop offset="1" stop-color="#E9CDB1" stop-opacity="0"/>
</radialGradient>
<linearGradient id="paint20_linear" x1="49.7086" y1="21.3891" x2="42.0478" y2="21.3891" gradientUnits="userSpaceOnUse">
<stop offset="0.3118" stop-color="#D2A374" stop-opacity="0"/>
<stop offset="1" stop-color="#B88653"/>
</linearGradient>
<linearGradient id="paint21_linear" x1="48.0804" y1="21.6565" x2="43.9539" y2="21.6565" gradientUnits="userSpaceOnUse">
<stop stop-color="#D2A374" stop-opacity="0"/>
<stop offset="1" stop-color="#B88653"/>
</linearGradient>
<linearGradient id="paint22_linear" x1="49.433" y1="12.3996" x2="40.4744" y2="14.0455" gradientUnits="userSpaceOnUse">
<stop offset="0.3118" stop-color="#D2A374" stop-opacity="0"/>
<stop offset="1" stop-color="#B88653"/>
</linearGradient>
<linearGradient id="paint23_linear" x1="48.5067" y1="12.6922" x2="44.7199" y2="12.6922" gradientUnits="userSpaceOnUse">
<stop stop-color="#D2A374" stop-opacity="0"/>
<stop offset="1" stop-color="#B88653"/>
</linearGradient>
<linearGradient id="paint24_linear" x1="54.5432" y1="42.1695" x2="56.9497" y2="30.5187" gradientUnits="userSpaceOnUse">
<stop stop-color="#D2A374" stop-opacity="0"/>
<stop offset="1" stop-color="#B88653"/>
</linearGradient>
<linearGradient id="paint25_linear" x1="54.8443" y1="18.8537" x2="55.6992" y2="28.7316" gradientUnits="userSpaceOnUse">
<stop stop-color="#D2A374" stop-opacity="0"/>
<stop offset="1" stop-color="#B88653"/>
</linearGradient>
<linearGradient id="paint26_linear" x1="65.3463" y1="30.332" x2="46.6881" y2="30.332" gradientUnits="userSpaceOnUse">
<stop offset="0.00132565" stop-color="#D2A374"/>
<stop offset="1" stop-color="#DEBA94"/>
</linearGradient>
<linearGradient id="paint27_linear" x1="54.631" y1="23.9065" x2="56.4042" y2="41.826" gradientUnits="userSpaceOnUse">
<stop stop-color="#D2A374"/>
<stop offset="0.9987" stop-color="#E9CDB1"/>
</linearGradient>
<linearGradient id="paint28_linear" x1="51.5128" y1="30.525" x2="40.8346" y2="30.525" gradientUnits="userSpaceOnUse">
<stop offset="0.3118" stop-color="#D2A374" stop-opacity="0"/>
<stop offset="1" stop-color="#B88653"/>
</linearGradient>
<radialGradient id="paint29_radial" cx="0" cy="0" r="1" gradientUnits="userSpaceOnUse" gradientTransform="translate(57.7234 30.4923) rotate(2.73496) scale(7.24279 4.75228)">
<stop stop-color="#E9CDB1"/>
<stop offset="1" stop-color="#E9CDB1" stop-opacity="0"/>
</radialGradient>
<linearGradient id="paint30_linear" x1="46.5495" y1="30.5374" x2="43.1781" y2="30.5374" gradientUnits="userSpaceOnUse">
<stop stop-color="#D2A374" stop-opacity="0"/>
<stop offset="1" stop-color="#B88653"/>
</linearGradient>
<linearGradient id="paint31_linear" x1="55.4288" y1="31.5653" x2="57.4553" y2="18.6797" gradientUnits="userSpaceOnUse">
<stop stop-color="#D2A374" stop-opacity="0"/>
<stop offset="1" stop-color="#B88653"/>
</linearGradient>
<linearGradient id="paint32_linear" x1="54.0232" y1="21.597" x2="59.2159" y2="10.3266" gradientUnits="userSpaceOnUse">
<stop stop-color="#D2A374" stop-opacity="0"/>
<stop offset="1" stop-color="#B88653"/>
</linearGradient>
<linearGradient id="paint33_linear" x1="52.9885" y1="11.7108" x2="53.7484" y2="4.58728" gradientUnits="userSpaceOnUse">
<stop stop-color="#D2A374" stop-opacity="0"/>
<stop offset="1" stop-color="#B88653"/>
</linearGradient>
<linearGradient id="paint34_linear" x1="53.1678" y1="12.7915" x2="53.1678" y2="17.9443" gradientUnits="userSpaceOnUse">
<stop stop-color="#D2A374" stop-opacity="0"/>
<stop offset="1" stop-color="#B88653"/>
</linearGradient>
<linearGradient id="paint35_linear" x1="18.6631" y1="1.76704" x2="17.167" y2="47.9745" gradientUnits="userSpaceOnUse">
<stop offset="0.3118" stop-color="#F0C492" stop-opacity="0"/>
<stop offset="1" stop-color="#D2A374"/>
</linearGradient>
<radialGradient id="paint36_radial" cx="0" cy="0" r="1" gradientUnits="userSpaceOnUse" gradientTransform="translate(18.9711 16.0579) scale(4.7952 4.79586)">
<stop stop-color="#D2A374" stop-opacity="0"/>
<stop offset="1" stop-color="#D2A374"/>
</radialGradient>
<radialGradient id="paint37_radial" cx="0" cy="0" r="1" gradientUnits="userSpaceOnUse" gradientTransform="translate(18.802 14.7396) scale(9.9662 9.96755)">
<stop stop-color="#D2A374" stop-opacity="0"/>
<stop offset="1" stop-color="#D2A374"/>
</radialGradient>
<radialGradient id="paint38_radial" cx="0" cy="0" r="1" gradientUnits="userSpaceOnUse" gradientTransform="translate(41.8387 65.8216) rotate(-79.0649) scale(5.24802 3.18513)">
<stop stop-color="#F8DBBA"/>
<stop offset="1" stop-color="#CD9870" stop-opacity="0"/>
</radialGradient>
<radialGradient id="paint39_radial" cx="0" cy="0" r="1" gradientUnits="userSpaceOnUse" gradientTransform="translate(41.802 64.3878) rotate(-79.0642) scale(5.41291 3.17671)">
<stop stop-color="#E9CDB1"/>
<stop offset="1" stop-color="#E9CDB1" stop-opacity="0"/>
</radialGradient>
</defs>
</svg>
