<svg width="80" height="80" viewBox="0 0 80 80" fill="none" xmlns="http://www.w3.org/2000/svg">
<path d="M48.6081 30.8193C48.4239 31.6456 47.9611 32.2279 47.4086 32.2279C46.8612 32.2279 46.3684 31.6306 46.1793 30.8143L36.3149 33.7561L37.2904 41.5959L39.1916 42.9896L48.19 42.2927L51.2061 33.338L50.6934 30.6948L48.6081 30.8193Z" fill="url(#paint0_linear)"/>
<path d="M47.9162 33.8454C48.0108 33.4621 48.1053 33.0489 48.2099 32.6109C49.8672 25.3883 52.5995 10.7192 53.3013 8.85261C54.0429 6.87151 55.4663 5.57234 58.4375 6.12984C61.4088 6.68733 62.3345 9.71872 61.2844 13.3673C60.2342 17.0159 57.696 30.9981 57.696 35.7617C57.696 40.5253 59.4877 49.9281 59.4877 49.9281L46.1245 44.9803L47.9162 33.8454Z" fill="url(#paint1_linear)"/>
<path d="M19.3981 50.9837C19.3981 53.2585 20.5129 54.2789 21.0704 54.6472C21.2545 54.7717 21.3789 54.8214 21.3789 54.8214L31.7709 62.3377L50.7929 58.4402L50.2106 46.4043C39.948 45.0902 30.6759 40.1474 20.0252 39.2812C18.8556 43.0941 19.3981 48.3306 19.3981 50.9837Z" fill="url(#paint2_linear)"/>
<path d="M43.7655 37.6481C43.7655 37.6481 22.5885 33.9348 20.6376 37.7427C20.3937 38.2155 20.1946 38.7332 20.0254 39.2758C30.6761 40.1469 39.9482 45.0847 50.2106 46.3988L49.9568 41.1723L43.7655 37.6481Z" fill="url(#paint3_linear)"/>
<path d="M35.2946 6.43867C31.6465 7.92201 32.0148 11.5109 33.4382 15.3487C34.8616 19.1864 37.6437 36.0108 37.6437 36.0108H47.4185C47.4185 36.0108 47.1049 34.6818 46.6072 32.6111C45.144 26.4836 42.1031 13.8603 40.9833 9.96782C39.6892 5.44812 35.2946 6.43867 35.2946 6.43867Z" fill="url(#paint4_linear)"/>
<path d="M39.6545 51.3369C44.3378 50.8441 47.314 54.6769 47.6823 56.6729L49.2152 56.1155L48.5185 48.4598L43.5564 45.2592L36.9221 43.5867L30.1933 40.0626L28.9092 36.0406C28.8744 36.0406 28.5508 36.0356 28.516 36.0356L22.0609 36.6927C21.3641 36.9515 20.8614 37.29 20.6325 37.738C19.7765 39.4105 19.448 41.5857 19.3335 43.756C20.3388 45.7819 22.6034 46.8322 24.5792 46.8322C26.8985 46.8322 28.292 45.0701 29.1282 43.5818C29.1282 43.5818 29.2825 46.2747 33.0102 47.2951C33.0102 47.3 35.7774 51.7451 39.6545 51.3369Z" fill="url(#paint5_linear)"/>
<path d="M40.585 41.5507C39.7489 38.9524 40.2715 40.8538 39.6991 35.702C39.0671 30.0026 37.2604 27.5336 35.852 19.3703C34.9611 14.1936 32.826 10.7042 34.2793 6.98096C31.746 8.68829 32.1641 11.9138 33.4382 15.3484C34.5182 18.2603 36.3795 28.6387 37.2157 33.4869L36.3148 33.7557L37.2903 41.5955L39.1915 42.9892L40.3511 42.8996C40.6497 42.5761 40.7741 42.143 40.585 41.5507Z" fill="url(#paint6_linear)"/>
<path d="M58.8904 46.5383C58.3678 43.3676 57.691 38.6986 57.691 35.7617C57.691 30.9981 60.2292 17.0159 61.2794 13.3673C61.8517 11.3862 61.8169 9.60423 61.2097 8.28516C60.493 13.5963 57.4023 21.1374 57.1933 28.1858C56.805 41.4412 53.8935 41.1774 51.9226 42.2924C54.5953 43.3875 57.1186 44.7364 58.8904 46.5383Z" fill="url(#paint7_linear)"/>
<path d="M56.7254 6.03027C54.8939 6.1796 53.8786 7.29957 53.2963 8.8526C53.137 9.28565 52.8633 10.3957 52.5249 11.9437C51.5046 16.5829 49.8522 25.1195 48.603 30.8289C48.4686 31.4262 48.0356 32.2326 47.4085 32.2276C47.4085 32.2276 47.4135 32.2276 47.4085 32.2276C46.8611 32.2276 46.3683 31.6303 46.1792 30.814C44.6164 24.2883 42.0035 13.5117 40.9833 9.96759C40.2666 7.46881 38.6043 6.65746 37.2605 6.43346C41.5556 7.27966 43.2229 29.0568 47.3638 34.1042C47.3638 34.1042 50.4644 34.0046 52.7538 14.766C53.4556 8.86753 55.7151 6.20947 56.7254 6.03027Z" fill="url(#paint8_linear)"/>
<path d="M24.5244 45.9114C21.792 45.9114 19.5275 43.6864 19.1542 39.5101C19.1194 39.1119 18.3429 30.8789 23.0163 30.8789C27.3513 30.8789 28.5756 32.5514 28.8593 38.1164C29.143 43.6814 27.3563 45.9114 24.5244 45.9114Z" fill="url(#paint9_linear)"/>
<path d="M34.8816 46.5583C31.5072 46.5583 29.82 45.075 29.3522 40.854C28.8843 36.6329 26.8537 29.0221 33.0501 28.614C38.9876 28.2257 39.1021 31.8992 39.1021 38.0217C39.1021 44.1442 37.7881 46.5583 34.8816 46.5583Z" fill="url(#paint10_linear)"/>
<path d="M34.6923 40.7142C32.1142 42.0134 30.3822 42.0383 29.2773 40.2663C29.3022 40.4654 29.3321 40.6694 29.352 40.8536C29.8198 45.0796 31.507 46.558 34.8814 46.558C37.2554 46.558 38.5644 44.9452 38.9625 41.0179C38.3006 39.878 36.2103 39.9477 34.6923 40.7142Z" fill="url(#paint11_linear)"/>
<path d="M24.4349 40.5252C22.1356 40.5252 20.2294 39.0966 19.9159 36.4137C20.0453 37.5087 19.0748 30.8735 23.1658 30.8735C26.8139 30.8735 27.8441 31.9437 28.083 35.5227C28.3219 39.0966 26.8139 40.5252 24.4349 40.5252Z" fill="url(#paint12_linear)"/>
<path d="M34.4135 40.2465C31.6464 40.2465 30.3972 38.788 29.9294 35.7965C29.6855 34.2584 28.1128 28.8925 33.1992 28.6038C38.0716 28.325 38.0716 31.889 38.1761 34.9104C38.3204 39.2659 36.7975 40.2465 34.4135 40.2465Z" fill="url(#paint13_linear)"/>
<path d="M32.8708 46.3093C33.4631 46.4736 34.125 46.5632 34.8865 46.5632C37.7931 46.5632 39.107 44.149 39.107 38.0265C39.107 32.1231 38.9875 28.5093 33.6572 28.6039C35.7525 29.8533 37.4596 32.7005 37.4596 37.8424C37.4596 45.1545 35.8172 46.2944 32.8708 46.3093Z" fill="url(#paint14_linear)"/>
<path d="M33.0101 44.3034C33.0101 41.8296 34.762 41.7499 39.4453 41.3318C42.7948 41.0331 46.433 40.1571 51.0765 41.949C56.372 43.9948 61.344 46.9615 61.4087 52.2826C61.4634 57.0462 57.7606 74.0001 41.5506 74.0001C25.3406 74.0001 19.9008 65.339 19.4031 50.9834L47.6872 56.6729C47.6872 56.6729 48.2894 51.6156 44.8254 50.1173C43.3473 49.4752 40.1869 49.9929 38.0816 49.9929C35.9764 49.9929 33.0101 47.6434 33.0101 44.3034Z" fill="url(#paint15_linear)"/>
<path d="M24.5543 43.3131C21.7772 43.3131 19.4778 41.103 19 36.9766C19.0199 37.8078 19.0796 38.664 19.1593 39.5102C19.5375 43.6864 21.7971 45.9114 24.5294 45.9114C27.1822 45.9114 28.8992 43.9154 28.8694 39.0721C28.302 42.0438 26.7243 43.3131 24.5543 43.3131Z" fill="url(#paint16_linear)"/>
<path d="M28.8643 38.1161C28.5956 32.81 27.4658 31.0479 23.6086 30.8936C25.6293 31.2271 29.5412 39.0121 24.1561 45.8713C24.2805 45.8813 24.4 45.9111 24.5294 45.9111C27.3563 45.9111 29.143 43.6811 28.8643 38.1161Z" fill="url(#paint17_linear)"/>
<path d="M49.3395 51.7252C49.2151 48.7535 45.567 45.7868 42.536 46.0954C39.9181 46.3642 35.18 46.7177 33.0598 44.7764C33.3286 47.8575 36.0808 49.9929 38.0816 49.9929C40.1868 49.9929 43.3472 49.4753 44.8254 50.1174C48.2894 51.6157 47.6872 56.673 47.6872 56.673C47.6872 56.673 49.4639 54.6968 49.3395 51.7252Z" fill="url(#paint18_linear)"/>
<path d="M61.3989 52.2826C61.3392 46.9615 56.3622 43.9998 51.0667 41.949C46.4281 40.1571 42.785 41.0331 39.4355 41.3318C35.862 41.6504 34.0056 41.7798 33.3237 42.9147C37.7284 41.8246 41.8493 41.3816 46.9358 41.964C53.5602 42.7206 58.572 46.8072 59.4828 49.9282C60.3836 53.0143 60.2492 58.7635 60.2492 58.9029C61.1053 56.1353 61.4188 53.6813 61.3989 52.2826Z" fill="url(#paint19_linear)"/>
<path d="M47.6824 56.6728C47.767 55.4683 47.6674 54.2388 47.2842 53.0989C46.9159 51.969 46.1893 50.8988 45.1192 50.3711C44.079 49.7888 42.7999 49.8983 41.6154 49.9232C40.411 49.9729 39.2115 50.1123 37.9822 50.1073C35.4639 49.8883 33.4183 47.7429 32.9555 45.3188C32.841 44.7116 32.8111 44.0844 32.9356 43.4522C33.065 42.82 33.5527 42.2426 34.145 42.0087C35.3146 41.5109 36.5489 41.4512 37.7483 41.3068C40.1671 41.1575 42.5461 40.7245 44.9898 40.7095C47.4335 40.6747 49.8672 41.2421 52.082 42.2327C54.3067 43.1784 56.5065 44.2934 58.3381 45.9112C60.1696 47.504 61.4387 49.8385 61.3939 52.2875C61.374 49.8336 60.0651 47.5687 58.2236 46.0406C56.402 44.4627 54.2122 43.3726 51.9924 42.4517C49.7826 41.486 47.3987 40.9584 44.9898 41.0082C42.5909 41.038 40.187 41.496 37.7782 41.6603C36.5887 41.7897 35.3494 41.8544 34.2794 42.3024C33.7419 42.5214 33.3686 42.9694 33.2342 43.5219C33.1147 44.0794 33.1347 44.6867 33.2392 45.2641C33.6373 47.5588 35.6281 49.6544 37.9822 49.8684C39.1767 49.8883 40.3861 49.7539 41.6005 49.7141C42.79 49.7041 44.089 49.5847 45.1939 50.2168C46.2988 50.7992 47.0154 51.9192 47.3589 53.069C47.7271 54.2388 47.7968 55.4732 47.6824 56.6728Z" fill="#975500"/>
<path d="M28.6851 36.0356C28.909 37.8027 29.133 39.6046 28.8592 41.4015C28.7348 42.2925 28.5158 43.1885 28.0828 43.9999C27.6648 44.8212 26.9332 45.4981 26.0572 45.8366C24.2805 46.419 22.215 45.8715 21.0006 44.4877C19.7315 43.1387 19.2587 41.2771 19.1592 39.51C19.3981 41.2622 19.9555 43.0491 21.1748 44.3284C22.3594 45.6276 24.3203 46.0756 25.9378 45.5081C27.62 44.9407 28.3864 43.074 28.6303 41.3717C28.909 39.6146 28.7746 37.8176 28.6851 36.0356Z" fill="#975500"/>
<path d="M33.5526 46.4489C32.9802 46.638 32.4626 46.3842 31.9848 46.1353C31.5021 45.8814 31.0691 45.533 30.7157 45.1198C29.999 44.2936 29.6257 43.2532 29.3968 42.2278C29.1927 41.1825 29.1629 40.1472 29.0185 39.1168C28.8941 38.0864 28.7797 37.0461 28.7349 36.0107C28.8692 37.0411 29.0484 38.0665 29.2176 39.0919C29.4167 40.1123 29.5013 41.1626 29.7452 42.1532C29.9741 43.1437 30.3474 44.1193 31.0143 44.866C31.3428 45.2393 31.736 45.5479 32.1789 45.7719C32.6169 46.0108 33.0997 46.0656 33.5526 46.4489Z" fill="#975500"/>
<path d="M35.8472 28.813C36.4195 28.9573 36.9769 29.1963 37.4497 29.5746C37.9225 29.9578 38.251 30.4855 38.4948 31.033C38.9826 32.143 39.112 33.3476 39.2165 34.5273C39.2712 35.712 39.2762 36.8967 39.2513 38.0764C39.2414 38.6637 39.2563 39.2561 39.2264 39.8484C39.2065 40.1471 39.2015 40.4457 39.1368 40.7444C39.0821 41.0032 38.9477 41.4413 38.5894 41.4114C38.883 41.3069 38.8731 40.9684 38.9427 40.7096C38.9776 40.4258 39.0124 40.1371 39.0075 39.8434C39.0174 39.2561 38.9826 38.6737 38.9676 38.0764C38.9328 36.8967 38.9477 35.717 38.8681 34.5472C38.8034 33.3825 38.7287 32.1978 38.3007 31.1176C37.9026 30.0126 36.9769 29.1664 35.8472 28.813Z" fill="#975500"/>
<path d="M39.6545 51.3369C35.7775 51.7451 33.0053 47.3001 33.0053 47.3001C29.2775 46.2796 29.1233 43.5867 29.1233 43.5867C28.2871 45.0701 26.8985 46.8371 24.5743 46.8371C22.5984 46.8371 20.3389 45.7869 19.3286 43.761C19.3535 43.313 19.3933 42.86 19.4381 42.417H19.4231C19.2987 43.6415 19.2639 44.8859 19.2738 46.0805C21.2696 48.3703 24.3951 48.6938 26.3909 48.1015C26.9334 47.9422 29.4567 46.0357 31.4077 47.9521C33.5229 50.0278 35.9815 52.6859 40.202 52.5913C44.4225 52.4967 47.6774 56.673 47.6774 56.673C47.3141 54.6819 44.3428 50.8441 39.6545 51.3369Z" fill="url(#paint20_linear)"/>
<path opacity="0.5" d="M22.3845 51.4712C20.8963 53.2632 25.4204 63.5818 29.8848 66.1802C34.3491 68.7785 39.9482 67.9821 41.0382 65.9163C42.1281 63.8506 37.4846 60.64 33.6921 57.086C27.1375 50.9535 23.8726 49.6793 22.3845 51.4712Z" fill="url(#paint21_radial)"/>
<path opacity="0.5" d="M58.7809 52.7953C59.5722 51.7301 55.6155 45.1248 52.4601 43.3428C49.3047 41.5608 43.0835 42.621 42.5808 43.8704C42.0781 45.1198 48.0654 46.5285 50.8824 48.8879C55.7399 52.9496 57.9895 53.8605 58.7809 52.7953Z" fill="url(#paint22_radial)"/>
<path opacity="0.5" d="M33.6074 9.89808C33.3885 9.09667 34.991 7.72285 36.0461 7.4441C37.1012 7.17033 38.1314 7.59343 38.3554 8.39483C38.5744 9.19623 37.5292 9.94287 36.6135 10.6099C35.0358 11.7597 33.8264 10.6995 33.6074 9.89808Z" fill="url(#paint23_radial)"/>
<path opacity="0.5" d="M55.6056 7.17005C55.8744 6.3338 57.8901 6.65735 58.8656 7.37413C59.8411 8.09091 60.4134 9.35025 60.1447 10.1865C59.8759 11.0227 58.6466 10.6942 57.5616 10.4105C55.6952 9.92766 55.3368 8.00629 55.6056 7.17005Z" fill="url(#paint24_radial)"/>
<path d="M59.4477 47.1558C59.7562 53.8855 58.736 59.1618 53.112 63.2634C46.1393 68.3506 46.7066 71.1779 40.2067 71.1779C33.7068 71.1779 29.5162 67.7383 26.545 64.7716C23.5787 61.805 21.0803 56.8572 19.8559 53.0891C19.7315 52.7108 19.5971 52.3723 19.4578 52.0438C20.1844 65.7522 25.7437 74.0002 41.5406 74.0002C57.7456 74.0002 61.4534 57.0463 61.3986 52.2877C61.3787 50.2568 60.6421 48.5794 59.4477 47.1558Z" fill="url(#paint25_linear)"/>
<defs>
<linearGradient id="paint0_linear" x1="43.7638" y1="51.7565" x2="43.7638" y2="31.7115" gradientUnits="userSpaceOnUse">
<stop offset="0.00132565" stop-color="#D2A374"/>
<stop offset="1" stop-color="#DEBA94"/>
</linearGradient>
<linearGradient id="paint1_linear" x1="53.9086" y1="51.7562" x2="53.9086" y2="31.7112" gradientUnits="userSpaceOnUse">
<stop offset="0.00132565" stop-color="#D2A374"/>
<stop offset="1" stop-color="#DEBA94"/>
</linearGradient>
<linearGradient id="paint2_linear" x1="20.4634" y1="50.8064" x2="59.705" y2="50.8064" gradientUnits="userSpaceOnUse">
<stop offset="0.00132565" stop-color="#D2A374"/>
<stop offset="1" stop-color="#DEBA94"/>
</linearGradient>
<linearGradient id="paint3_linear" x1="35.1178" y1="51.756" x2="35.1178" y2="31.711" gradientUnits="userSpaceOnUse">
<stop offset="0.00132565" stop-color="#D2A374"/>
<stop offset="1" stop-color="#DEBA94"/>
</linearGradient>
<linearGradient id="paint4_linear" x1="39.923" y1="51.7564" x2="39.923" y2="31.7114" gradientUnits="userSpaceOnUse">
<stop offset="0.00132565" stop-color="#D2A374"/>
<stop offset="1" stop-color="#DEBA94"/>
</linearGradient>
<linearGradient id="paint5_linear" x1="23.2389" y1="72.94" x2="35.3696" y2="45.9373" gradientUnits="userSpaceOnUse">
<stop stop-color="#D2A374" stop-opacity="0"/>
<stop offset="1" stop-color="#B88653"/>
</linearGradient>
<linearGradient id="paint6_linear" x1="32.1097" y1="12.1413" x2="44.6836" y2="53.6644" gradientUnits="userSpaceOnUse">
<stop stop-color="#D2A374" stop-opacity="0"/>
<stop offset="1" stop-color="#B88653"/>
</linearGradient>
<linearGradient id="paint7_linear" x1="28.0967" y1="-37.7332" x2="134.351" y2="197.413" gradientUnits="userSpaceOnUse">
<stop stop-color="#D2A374" stop-opacity="0"/>
<stop offset="1" stop-color="#B88653"/>
</linearGradient>
<linearGradient id="paint8_linear" x1="46.9936" y1="-3.67885" x2="46.9936" y2="79.3884" gradientUnits="userSpaceOnUse">
<stop stop-color="#D2A374" stop-opacity="0"/>
<stop offset="1" stop-color="#B88653"/>
</linearGradient>
<linearGradient id="paint9_linear" x1="23.9883" y1="37.0941" x2="23.9883" y2="54.2871" gradientUnits="userSpaceOnUse">
<stop offset="0.00132565" stop-color="#D2A374"/>
<stop offset="1" stop-color="#DEBA94"/>
</linearGradient>
<linearGradient id="paint10_linear" x1="33.8805" y1="37.094" x2="33.8805" y2="54.2869" gradientUnits="userSpaceOnUse">
<stop offset="0.00132565" stop-color="#D2A374"/>
<stop offset="1" stop-color="#DEBA94"/>
</linearGradient>
<linearGradient id="paint11_linear" x1="34.1225" y1="36.6647" x2="34.1225" y2="59.4472" gradientUnits="userSpaceOnUse">
<stop stop-color="#D2A374" stop-opacity="0"/>
<stop offset="1" stop-color="#B88653"/>
</linearGradient>
<linearGradient id="paint12_linear" x1="24.0026" y1="39.5993" x2="24.0026" y2="26.4009" gradientUnits="userSpaceOnUse">
<stop offset="0.00132565" stop-color="#D2A374"/>
<stop offset="1" stop-color="#DEBA94"/>
</linearGradient>
<linearGradient id="paint13_linear" x1="33.8473" y1="39.5994" x2="33.8473" y2="26.401" gradientUnits="userSpaceOnUse">
<stop offset="0.00132565" stop-color="#D2A374"/>
<stop offset="1" stop-color="#DEBA94"/>
</linearGradient>
<linearGradient id="paint14_linear" x1="27.2284" y1="33.4455" x2="69.6169" y2="57.5224" gradientUnits="userSpaceOnUse">
<stop stop-color="#D2A374" stop-opacity="0"/>
<stop offset="1" stop-color="#B88653"/>
</linearGradient>
<linearGradient id="paint15_linear" x1="20.4634" y1="57.4255" x2="59.7049" y2="57.4255" gradientUnits="userSpaceOnUse">
<stop offset="0.00132565" stop-color="#D2A374"/>
<stop offset="1" stop-color="#DEBA94"/>
</linearGradient>
<linearGradient id="paint16_linear" x1="23.8406" y1="36.6589" x2="25.0169" y2="56.1582" gradientUnits="userSpaceOnUse">
<stop stop-color="#D2A374" stop-opacity="0"/>
<stop offset="1" stop-color="#B88653"/>
</linearGradient>
<linearGradient id="paint17_linear" x1="13.5328" y1="31.2335" x2="78.9502" y2="72.7666" gradientUnits="userSpaceOnUse">
<stop stop-color="#D2A374" stop-opacity="0"/>
<stop offset="1" stop-color="#B88653"/>
</linearGradient>
<linearGradient id="paint18_linear" x1="38.4866" y1="57.0013" x2="45.3343" y2="36.8153" gradientUnits="userSpaceOnUse">
<stop stop-color="#D2A374" stop-opacity="0"/>
<stop offset="1" stop-color="#B88653"/>
</linearGradient>
<linearGradient id="paint19_linear" x1="41.0543" y1="39.8547" x2="69.9765" y2="67.7108" gradientUnits="userSpaceOnUse">
<stop offset="0.3118" stop-color="#F0C492" stop-opacity="0"/>
<stop offset="1" stop-color="#E6AF74"/>
</linearGradient>
<linearGradient id="paint20_linear" x1="30.7235" y1="58.1901" x2="39.7261" y2="30.7222" gradientUnits="userSpaceOnUse">
<stop stop-color="#D2A374" stop-opacity="0"/>
<stop offset="1" stop-color="#B88653"/>
</linearGradient>
<radialGradient id="paint21_radial" cx="0" cy="0" r="1" gradientUnits="userSpaceOnUse" gradientTransform="translate(31.2246 60.3825) rotate(-138.963) scale(13.0037 5.93341)">
<stop stop-color="#E9CDB1"/>
<stop offset="1" stop-color="#E9CDB1" stop-opacity="0"/>
</radialGradient>
<radialGradient id="paint22_radial" cx="0" cy="0" r="1" gradientUnits="userSpaceOnUse" gradientTransform="translate(51.1838 46.3712) rotate(38.2192) scale(10.0269 3.69199)">
<stop stop-color="#E9CDB1"/>
<stop offset="1" stop-color="#E9CDB1" stop-opacity="0"/>
</radialGradient>
<radialGradient id="paint23_radial" cx="0" cy="0" r="1" gradientUnits="userSpaceOnUse" gradientTransform="translate(35.9762 9.23447) rotate(165.356) scale(2.47318 1.45206)">
<stop stop-color="#E9CDB1"/>
<stop offset="1" stop-color="#E9CDB1" stop-opacity="0"/>
</radialGradient>
<radialGradient id="paint24_radial" cx="0" cy="0" r="1" gradientUnits="userSpaceOnUse" gradientTransform="translate(57.8363 8.72515) rotate(-143.693) scale(2.74795 1.46063)">
<stop stop-color="#E9CDB1"/>
<stop offset="1" stop-color="#E9CDB1" stop-opacity="0"/>
</radialGradient>
<linearGradient id="paint25_linear" x1="40.431" y1="41.7749" x2="40.431" y2="138.474" gradientUnits="userSpaceOnUse">
<stop stop-color="#D2A374" stop-opacity="0"/>
<stop offset="1" stop-color="#B88653"/>
</linearGradient>
</defs>
</svg>
