<svg width="80" height="80" viewBox="0 0 80 80" fill="none" xmlns="http://www.w3.org/2000/svg">
<path d="M68.777 47.6236C70.2773 44.8155 64.4788 39.8314 57.7879 44.3764C57.0064 44.9602 56.2153 45.6357 55.429 46.4366C53.5187 48.3907 51.126 49.843 49.3363 47.6911C47.5465 45.544 48.6127 39.0594 49.5533 35.6482L42.6743 33.5156C42.5199 34.91 41.6998 37.8049 41.1933 37.7567C40.6916 37.7084 41.1354 36.6518 41.2464 35.4649C41.3573 34.2731 32.3123 38.5383 31.8685 38.7554C31.5357 38.9195 27.2085 37.5733 24.8255 39.1125C24.0295 39.6239 21.6127 43.4211 21.4004 43.4742C21.4004 43.4742 20.8553 38.8954 20.3488 36.6952C19.8471 34.4951 13.5276 43.9084 14.3284 46.2292C15.7032 50.2 14.7915 63.6952 21.685 69.6443C29.6591 76.5294 44.2228 74.5801 49.4906 68.4718C54.7584 62.3684 52.9639 59.1792 57.7976 54.4508C61.8932 50.4461 66.9101 49.7899 68.777 47.6236Z" fill="url(#paint0_linear)"/>
<path d="M20.3488 36.6902C19.8471 34.4901 18.8582 28.4831 17.9513 25.2746C17.0492 22.066 15.1824 20.7633 12.5774 21.7187C9.97252 22.6788 11.3232 28.6037 11.5644 30.056C11.931 32.2803 13.5229 43.8986 14.3285 46.2241" fill="url(#paint1_linear)"/>
<path d="M31.8686 38.7556C29.7412 38.7749 28.5304 36.0826 27.7778 32.2565C27.2038 29.3326 25.8385 21.333 24.9606 17.1402C23.8751 11.9438 22.6354 10.7038 20.0786 10.892C17.5219 11.0801 16.9044 14.3562 17.5315 17.7963C18.0622 20.7009 19.0897 25.2508 20.4742 30.9248C21.3039 34.3215 22.2446 43.2668 21.3956 43.4695" fill="url(#paint2_linear)"/>
<path d="M49.5533 35.648C50.4892 32.2368 52.385 20.0347 53.1279 16.7972C53.8757 13.5646 52.1631 11.6877 50.0695 11.2245C47.971 10.7613 46.1813 11.9965 44.9656 18.457C44.1986 22.5292 43.6438 26.1671 42.6742 33.5105L46.4177 39.0736L49.5533 35.648Z" fill="url(#paint3_linear)"/>
<path d="M41.2464 35.4648C41.3573 34.2731 43.3834 22.8575 43.7597 20.3389C44.5508 15.0749 46.7168 7.37926 42.0809 6.1441C39.0949 5.34799 37.9806 8.05475 37.6381 9.27062C37.2956 10.4865 35.255 24.5413 35.1392 25.8247C35.0235 27.1082 33.1276 38.297 31.8686 38.7506" fill="url(#paint4_linear)"/>
<path d="M47.3247 12.0933C46.3696 13.1644 45.5784 15.2391 44.9706 18.4621C44.2036 22.5343 43.697 26.1819 42.6792 33.5157C42.4862 34.9053 41.7047 37.805 41.1982 37.7568C44.2325 36.3768 44.5943 25.4244 45.3517 20.4451C46.1525 15.1522 48.0387 11.2875 47.3247 12.0933Z" fill="url(#paint5_linear)"/>
<path d="M35.1392 25.8247C35.0235 27.1081 33.2386 38.1377 31.8686 38.7505C31.8686 38.7505 33.5811 40.1159 34.6327 33.4142C35.5203 27.745 36.9675 17.5114 38.1253 13.3186C39.2155 9.36704 38.8827 6.87258 38.4871 7.41779C38.0915 7.96782 37.7731 8.80253 37.6381 9.27055C37.2956 10.4864 35.255 24.5413 35.1392 25.8247Z" fill="url(#paint6_linear)"/>
<path d="M17.5316 17.7958C18.0622 20.7004 19.0897 25.2503 20.4742 30.9243C21.3039 34.3211 22.2446 43.2664 21.3956 43.469C25.8915 42.7887 16.7984 16.2953 18.5109 11.5669C17.2952 12.7297 17.0637 15.2193 17.5316 17.7958Z" fill="url(#paint7_linear)"/>
<path d="M25.8723 26.6207C27.2085 33.5975 27.5269 39.1461 31.8685 38.7553C30.1705 38.7553 28.6509 36.8302 27.7778 32.2562C27.223 29.3323 25.8674 21.3279 24.9605 17.1399C23.9957 12.701 23.2673 11.5671 21.4969 10.9785C25.1004 15.2244 24.208 17.9408 25.8723 26.6207Z" fill="url(#paint8_linear)"/>
<path d="M42.187 22.1577C41.473 27.494 39.9148 36.9411 41.0485 37.7034C40.6529 37.4429 41.1498 36.531 41.2511 35.4647C41.362 34.273 43.3882 22.8573 43.7645 20.3387C44.2565 17.0723 45.5156 11.9772 44.6424 8.81689C44.7437 12.6478 42.7659 17.8298 42.187 22.1577Z" fill="url(#paint9_linear)"/>
<path d="M48.3377 44.1446C48.3377 44.1446 48.3425 44.1446 48.3377 44.1446C48.3184 41.9444 48.9841 37.713 49.5485 35.648C50.4843 32.2368 52.3801 20.0347 53.123 16.7972C53.3497 15.8129 53.3497 14.9541 53.1809 14.2207C52.8432 15.7212 51.8495 17.299 51.5408 20.2663C51.0487 25.0332 49.095 32.4442 48.4293 34.9918C47.7636 37.549 47.7105 40.5259 48.3377 44.1446Z" fill="url(#paint10_linear)"/>
<path d="M36.0557 73.9623C37.0398 71.0095 36.8758 68.5537 33.9091 68.1677C25.8144 67.111 19.8133 60.4816 17.1022 48.1348C14.6854 37.1148 11.4389 27.9813 12.2831 21.873C10.093 23.1709 11.3424 28.6713 11.5739 30.0657C11.9406 32.2899 13.5325 43.9082 14.3381 46.2338C15.7129 50.2047 14.8012 63.6998 21.6947 69.6489C25.5346 72.9636 30.9182 74.2277 36.0557 73.9623Z" fill="url(#paint11_radial)"/>
<path d="M13.238 36.2995C13.2429 36.2561 13.2477 36.2319 13.2477 36.2319C18.3563 52.3856 19.8663 61.8569 28.5254 72.0615C29.7459 73.4993 27.1506 73.4221 25.0425 71.8589C23.8364 71.2558 22.7076 70.5224 21.6849 69.6442C14.7914 63.6952 15.7031 50.2 14.3283 46.2291C13.9086 45.0036 13.8603 39.1896 13.238 36.2995Z" fill="url(#paint12_radial)"/>
<path opacity="0.16" d="M54.3485 53.9681C55.5834 55.4542 51.4347 61.712 48.2895 64.3319C45.1442 66.9518 41.5888 67.8734 40.3539 66.3873C39.1189 64.9013 41.9217 61.1813 44.3627 57.8956C48.5789 52.2263 53.1135 52.4821 54.3485 53.9681Z" fill="url(#paint13_radial)"/>
<path opacity="0.16" d="M19.2827 52.5593C17.9127 54.2046 22.0758 63.7 26.1859 66.0883C30.2912 68.4814 35.4384 67.7432 36.4466 65.847C37.45 63.946 33.1808 60.9932 29.6881 57.722C23.6533 52.0817 20.6479 50.9141 19.2827 52.5593Z" fill="url(#paint14_radial)"/>
<path d="M21.4004 43.4695C21.4004 43.4695 20.8119 38.7122 20.3488 36.6906C19.8471 34.4904 18.8582 28.4834 17.9513 25.2749C17.5557 23.866 16.972 22.8238 16.2243 22.1821C16.8562 23.7164 17.9465 26.7031 18.9209 33.1636C20.4839 44.5406 21.2653 43.5805 21.4004 43.4695Z" fill="url(#paint15_linear)"/>
<path d="M57.788 44.3766C57.0065 44.9604 56.2153 45.6359 55.429 46.4368C53.5187 48.3909 51.126 49.8432 49.3363 47.6913C48.632 46.8421 48.3522 45.5732 48.3377 44.145C47.3005 51.3968 51.2563 50.5862 54.1314 48.4826C57.0065 46.3789 59.6211 42.4032 65.0288 43.2669C66.0081 43.4213 66.9247 43.7928 67.6 44.0678C65.6511 42.3839 61.8884 41.5878 57.788 44.3766Z" fill="url(#paint16_linear)"/>
<path d="M49.4954 68.4721C54.7632 62.3686 52.9687 59.1794 57.8023 54.451C61.8931 50.4464 66.91 49.795 68.7769 47.6238C69.0325 47.1462 69.0615 46.6058 68.9264 46.0605C67.8362 47.9905 64.8357 48.169 61.3865 50.0411C56.3937 52.7478 54.0251 55.1892 51.8543 60.786C49.6835 66.3877 42.6646 69.0221 37.9516 68.2163L49.4954 68.4721Z" fill="url(#paint17_radial)"/>
<path d="M11.1543 23.7402C10.7008 25.9018 11.4003 29.0524 11.5691 30.0608C11.9358 32.2851 13.5277 43.9034 14.3333 46.2241C15.7081 50.195 14.7964 63.6902 21.6899 69.6392C29.664 76.5243 44.2277 74.5751 49.4955 68.4668C54.7633 62.3633 52.9688 59.1741 57.8024 54.4457C61.8932 50.4411 66.9101 49.7897 68.777 47.6185L69.3222 46.504C69.1148 46.3255 68.9556 46.1614 68.9266 46.0504C67.8364 47.9804 65.2845 49.563 61.3867 50.031C56.7508 50.5907 54.0252 53.5579 51.8544 59.1596C49.6836 64.7613 42.6647 69.012 37.9516 68.2062C33.2338 67.4005 22.0228 72.0662 18.2359 52.593C18.2359 52.5882 18.2359 52.5833 18.2311 52.5785C18.0864 51.2854 17.8838 49.7077 17.5123 48.6511C14.9218 41.351 13.5229 31.8846 13.0163 27.7256C12.915 26.9198 13.0501 24.16 11.1543 23.7402Z" fill="url(#paint18_radial)"/>
<defs>
<linearGradient id="paint0_linear" x1="29.617" y1="80.4933" x2="38.2543" y2="55.7597" gradientUnits="userSpaceOnUse">
<stop offset="0.00132565" stop-color="#99643E"/>
<stop offset="1" stop-color="#AE7246"/>
</linearGradient>
<linearGradient id="paint1_linear" x1="359.951" y1="-706.279" x2="341.845" y2="-667.558" gradientUnits="userSpaceOnUse">
<stop offset="0.00132565" stop-color="#99643E"/>
<stop offset="1" stop-color="#AE7246"/>
</linearGradient>
<linearGradient id="paint2_linear" x1="529.138" y1="-711.704" x2="505.003" y2="-676.427" gradientUnits="userSpaceOnUse">
<stop offset="0.00132565" stop-color="#99643E"/>
<stop offset="1" stop-color="#AE7246"/>
</linearGradient>
<linearGradient id="paint3_linear" x1="705.603" y1="-661.319" x2="676.014" y2="-630.476" gradientUnits="userSpaceOnUse">
<stop offset="0.00132565" stop-color="#99643E"/>
<stop offset="1" stop-color="#AE7246"/>
</linearGradient>
<linearGradient id="paint4_linear" x1="537.421" y1="-706.033" x2="513.285" y2="-670.756" gradientUnits="userSpaceOnUse">
<stop offset="0.00132565" stop-color="#99643E"/>
<stop offset="1" stop-color="#AE7246"/>
</linearGradient>
<linearGradient id="paint5_linear" x1="44.3386" y1="-6.87327" x2="44.3386" y2="61.3159" gradientUnits="userSpaceOnUse">
<stop stop-color="#8D562E" stop-opacity="0"/>
<stop offset="1" stop-color="#804B24"/>
</linearGradient>
<linearGradient id="paint6_linear" x1="1379.35" y1="-1534.43" x2="1334.8" y2="-1482.81" gradientUnits="userSpaceOnUse">
<stop stop-color="#8D562E" stop-opacity="0"/>
<stop offset="1" stop-color="#804B24"/>
</linearGradient>
<linearGradient id="paint7_linear" x1="19.9838" y1="-6.87376" x2="19.9838" y2="61.3155" gradientUnits="userSpaceOnUse">
<stop stop-color="#8D562E" stop-opacity="0"/>
<stop offset="1" stop-color="#804B24"/>
</linearGradient>
<linearGradient id="paint8_linear" x1="26.6854" y1="-6.87343" x2="26.6854" y2="61.3156" gradientUnits="userSpaceOnUse">
<stop stop-color="#8D562E" stop-opacity="0"/>
<stop offset="1" stop-color="#804B24"/>
</linearGradient>
<linearGradient id="paint9_linear" x1="42.7942" y1="-6.87355" x2="42.7942" y2="61.3156" gradientUnits="userSpaceOnUse">
<stop stop-color="#8D562E" stop-opacity="0"/>
<stop offset="1" stop-color="#804B24"/>
</linearGradient>
<linearGradient id="paint10_linear" x1="50.6017" y1="-6.87358" x2="50.6017" y2="61.3155" gradientUnits="userSpaceOnUse">
<stop stop-color="#8D562E" stop-opacity="0"/>
<stop offset="1" stop-color="#804B24"/>
</linearGradient>
<radialGradient id="paint11_radial" cx="0" cy="0" r="1" gradientUnits="userSpaceOnUse" gradientTransform="translate(11.5562 21.0792) rotate(83.6863) scale(227.473 153.203)">
<stop offset="0.6134" stop-color="#F0C492" stop-opacity="0"/>
<stop offset="1" stop-color="#E6AF74"/>
</radialGradient>
<radialGradient id="paint12_radial" cx="0" cy="0" r="1" gradientUnits="userSpaceOnUse" gradientTransform="translate(22.4994 63.9508) rotate(-13.0371) scale(23.9814 60.8735)">
<stop offset="0.6134" stop-color="#F0C492" stop-opacity="0"/>
<stop offset="1" stop-color="#E6AF74"/>
</radialGradient>
<radialGradient id="paint13_radial" cx="0" cy="0" r="1" gradientUnits="userSpaceOnUse" gradientTransform="translate(47.2834 59.9866) rotate(-39.7707) scale(9.29476 4.31426)">
<stop stop-color="#F8DBBA"/>
<stop offset="1" stop-color="#CD9870" stop-opacity="0"/>
</radialGradient>
<radialGradient id="paint14_radial" cx="0" cy="0" r="1" gradientUnits="userSpaceOnUse" gradientTransform="translate(27.4181 60.7366) rotate(-138.962) scale(11.9612 5.45775)">
<stop stop-color="#F8DBBA"/>
<stop offset="1" stop-color="#CD9870" stop-opacity="0"/>
</radialGradient>
<linearGradient id="paint15_linear" x1="18.8127" y1="-6.87328" x2="18.8127" y2="61.316" gradientUnits="userSpaceOnUse">
<stop stop-color="#8D562E" stop-opacity="0"/>
<stop offset="1" stop-color="#804B24"/>
</linearGradient>
<linearGradient id="paint16_linear" x1="72.2393" y1="31.6074" x2="46.139" y2="54.4625" gradientUnits="userSpaceOnUse">
<stop stop-color="#8D562E" stop-opacity="0"/>
<stop offset="1" stop-color="#804B24"/>
</linearGradient>
<radialGradient id="paint17_radial" cx="0" cy="0" r="1" gradientUnits="userSpaceOnUse" gradientTransform="translate(53.4674 57.2554) scale(62.8847 62.8962)">
<stop offset="0.6134" stop-color="#F0C492" stop-opacity="0"/>
<stop offset="1" stop-color="#E6AF74"/>
</radialGradient>
<radialGradient id="paint18_radial" cx="0" cy="0" r="1" gradientUnits="userSpaceOnUse" gradientTransform="translate(39.8258 27.8948) rotate(94.0904) scale(52.9746 40.2233)">
<stop offset="0.0267523" stop-color="#8D562E" stop-opacity="0"/>
<stop offset="0.6147" stop-color="#8D562E" stop-opacity="0"/>
<stop offset="1" stop-color="#804B24"/>
</radialGradient>
</defs>
</svg>
