<svg width="80" height="80" viewBox="0 0 80 80" fill="none" xmlns="http://www.w3.org/2000/svg">
<path d="M67.3829 47.1737C68.7926 44.5306 63.3395 39.838 57.0378 44.1179C56.3005 44.6651 55.5585 45.3004 54.8213 46.0562C53.0221 47.8971 50.7685 49.2604 49.0853 47.2386C47.402 45.2169 48.4036 39.1146 49.2893 35.9058L42.816 33.8979C42.6723 35.2102 41.8979 37.9321 41.4249 37.8904C40.952 37.8487 41.3739 36.8517 41.4759 35.7296C41.578 34.6074 33.069 38.6231 32.6471 38.8271C32.3318 38.9801 28.2605 37.7142 26.0161 39.161C25.2696 39.6432 22.9928 43.2183 22.7934 43.2647C22.7934 43.2647 22.2787 38.9569 21.8057 36.8842C21.3235 34.8161 15.3742 43.6728 16.1347 45.8614C17.4284 49.5989 16.5706 62.2996 23.0577 67.9012C30.5651 74.3791 44.2767 72.5474 49.2337 66.7975C54.1906 61.0476 52.5028 58.0475 57.0517 53.6006C60.905 49.8307 65.6301 49.214 67.3829 47.1737Z" fill="url(#paint0_linear)"/>
<path d="M21.7965 36.884C21.3235 34.8113 20.3915 29.1588 19.5429 26.1401C18.6943 23.1214 16.9369 21.8972 14.4839 22.7968C12.0309 23.6964 13.3061 29.2793 13.5333 30.6473C13.8811 32.7386 15.3789 43.6773 16.1347 45.8613" fill="url(#paint1_linear)"/>
<path d="M32.6425 38.8272C30.6393 38.8458 29.5033 36.314 28.7938 32.711C28.2513 29.9613 26.9668 22.4307 26.1414 18.4847C25.1167 13.5926 23.9528 12.4241 21.5462 12.6049C19.1396 12.7811 18.5599 15.8647 19.1488 19.1014C19.645 21.8372 20.6188 26.1172 21.9218 31.4544C22.7008 34.6539 23.5911 43.0701 22.7889 43.2648" fill="url(#paint2_linear)"/>
<path d="M49.2894 35.9056C50.1705 32.6968 51.9557 21.211 52.6559 18.1644C53.3561 15.1179 51.747 13.3559 49.7763 12.92C47.8009 12.4841 46.1177 13.648 44.9724 19.7271C44.249 23.5619 43.7297 26.984 42.8162 33.8978L46.3403 39.1376L49.2894 35.9056Z" fill="url(#paint3_linear)"/>
<path d="M41.4714 35.7297C41.5735 34.6075 43.4839 23.8635 43.8363 21.494C44.5782 16.5417 46.6185 9.29869 42.2551 8.1348C39.4451 7.38824 38.3971 9.93396 38.0725 11.0793C37.7479 12.2246 35.8282 25.454 35.7216 26.6597C35.6103 27.8653 33.8297 38.3959 32.6426 38.8272" fill="url(#paint4_linear)"/>
<path d="M47.1889 13.7318C46.2893 14.7381 45.5427 16.6902 44.9724 19.7275C44.249 23.5623 43.776 26.9937 42.8162 33.8982C42.6353 35.2058 41.898 37.9324 41.425 37.8907C44.2814 36.5923 44.6199 26.2842 45.334 21.5962C46.0899 16.616 47.8612 12.976 47.1889 13.7318Z" fill="url(#paint5_linear)"/>
<path d="M35.7216 26.6595C35.6103 27.8651 33.9317 38.2474 32.6426 38.827C32.6426 38.827 34.2516 40.1114 35.2439 33.8051C36.0832 28.4679 37.4419 18.8368 38.5316 14.8907C39.5564 11.1719 39.2457 8.82089 38.8701 9.3356C38.4945 9.85031 38.1977 10.6386 38.0725 11.0791C37.7526 12.2245 35.8328 25.4538 35.7216 26.6595Z" fill="url(#paint6_linear)"/>
<path d="M19.1441 19.1014C19.6403 21.8373 20.614 26.1172 21.917 31.4544C22.6961 34.654 23.5864 43.0701 22.7842 43.2649C27.0178 42.625 18.4578 17.6871 20.0715 13.2402C18.9215 14.3346 18.7036 16.6763 19.1441 19.1014Z" fill="url(#paint7_linear)"/>
<path d="M26.9946 27.4061C28.2513 33.9721 28.5527 39.198 32.6425 38.8271C31.0427 38.8271 29.6145 37.014 28.7938 32.7108C28.2698 29.9565 26.9946 22.426 26.1414 18.4845C25.2326 14.3065 24.5463 13.24 22.8816 12.6836C26.2712 16.6807 25.4319 19.2357 26.9946 27.4061Z" fill="url(#paint8_linear)"/>
<path d="M42.3523 23.205C41.68 28.2315 40.2193 37.1206 41.2812 37.8347C40.9102 37.5936 41.3786 36.7311 41.4713 35.7295C41.5733 34.6074 43.4838 23.8634 43.8362 21.4939C44.2999 18.4196 45.487 13.6249 44.6662 10.6479C44.7636 14.2555 42.8995 19.1337 42.3523 23.205Z" fill="url(#paint9_linear)"/>
<path d="M48.1487 43.9003C48.1302 41.8322 48.7562 37.849 49.2894 35.9061C50.1705 32.6973 51.9557 21.2114 52.6559 18.1649C52.8692 17.2375 52.8692 16.4307 52.7069 15.7397C52.3869 17.1494 51.4503 18.6379 51.1628 21.434C50.6991 25.918 48.8628 32.8967 48.2322 35.294C47.6016 37.6914 47.5505 40.4921 48.1487 43.9003Z" fill="url(#paint10_linear)"/>
<path d="M36.5792 71.9632C37.5066 69.181 37.3536 66.8717 34.5574 66.5054C26.9388 65.5131 21.2863 59.2717 18.736 47.6467C16.4592 37.2829 13.408 28.6813 14.201 22.936C12.1421 24.1602 13.3153 29.3351 13.5332 30.6474C13.881 32.7387 15.3788 43.6774 16.1346 45.8614C17.4283 49.5989 16.5705 62.2996 23.0577 67.9011C26.6792 71.0265 31.7474 72.2136 36.5792 71.9632Z" fill="url(#paint11_linear)"/>
<path d="M15.1052 36.5134C15.1099 36.4717 15.1145 36.4531 15.1145 36.4531C19.9231 51.6532 21.3466 60.5702 29.4985 70.1735C30.6485 71.5275 28.2048 71.4533 26.2201 69.9834C25.0841 69.4176 24.0222 68.7267 23.0577 67.8967C16.5659 62.2998 17.4284 49.5991 16.1346 45.8616C15.7312 44.707 15.6895 39.2353 15.1052 36.5134Z" fill="url(#paint12_radial)"/>
<path d="M53.8011 53.1464C54.9649 54.5422 51.0606 60.4358 48.0975 62.9027C45.1345 65.3696 41.7912 66.2321 40.6273 64.8363C39.4634 63.4406 42.1019 59.935 44.4018 56.8421C48.3711 51.5049 52.6372 51.7507 53.8011 53.1464Z" fill="url(#paint13_radial)"/>
<path opacity="0.75" d="M20.7902 51.82C19.5011 53.3687 23.4194 62.3043 27.2866 64.5532C31.1539 66.8022 35.9996 66.1112 36.9455 64.326C37.8915 62.5361 33.8712 59.7585 30.5835 56.6796C24.9078 51.3702 22.0793 50.2712 20.7902 51.82Z" fill="url(#paint14_radial)"/>
<path d="M22.7841 43.265C22.7841 43.265 22.2323 38.7857 21.7965 36.8845C21.3235 34.8118 20.3914 29.1593 19.5429 26.1406C19.1673 24.8144 18.6201 23.836 17.9153 23.2285C18.5088 24.6753 19.5382 27.4853 20.4517 33.5644C21.9263 44.2713 22.6589 43.3717 22.7841 43.265Z" fill="url(#paint15_linear)"/>
<path d="M57.0378 44.118C56.3006 44.6652 55.5586 45.3005 54.8214 46.0563C53.0222 47.8972 50.7686 49.2605 49.0854 47.2387C48.4223 46.4412 48.158 45.2494 48.1487 43.9001C47.1703 50.7258 50.8984 49.9606 53.6018 47.9806C56.3052 46.0006 58.7675 42.2586 63.8635 43.0747C64.7817 43.2231 65.6441 43.5662 66.284 43.8259C64.4432 42.2447 60.9005 41.4935 57.0378 44.118Z" fill="url(#paint16_radial)"/>
<path d="M49.2337 66.7976C54.1906 61.0477 52.5028 58.0476 57.0517 53.6007C60.905 49.8354 65.6255 49.2187 67.3829 47.1738C67.624 46.724 67.6519 46.2139 67.522 45.6992C66.4973 47.5169 63.6733 47.6839 60.4228 49.4459C55.7255 51.9963 53.4904 54.287 51.4501 59.5592C49.4099 64.8315 42.8021 67.3077 38.3645 66.5519L49.2337 66.7976Z" fill="url(#paint17_linear)"/>
<path d="M13.1438 24.6982C12.7172 26.7339 13.3756 29.7016 13.5333 30.6475C13.8811 32.7388 15.3788 43.6729 16.1347 45.8616C17.4284 49.599 16.5705 62.2998 23.0577 67.9013C30.565 74.3792 44.2767 72.5476 49.2336 66.7977C54.1906 61.0524 52.5027 58.0523 57.0563 53.6007C60.9096 49.8355 65.6301 49.2188 67.3876 47.1738L67.9023 46.1259C67.7075 45.9589 67.5545 45.8059 67.5313 45.6993C66.5065 47.517 64.1045 49.0055 60.432 49.446C56.064 49.9746 53.4997 52.7661 51.4594 58.0384C49.4191 63.3106 42.8114 67.3124 38.3738 66.5519C33.9361 65.7914 23.3777 70.1873 19.8164 51.8572C19.8164 51.8526 19.8164 51.8479 19.8118 51.8433C19.6773 50.6284 19.4872 49.1399 19.1348 48.1476C16.6957 41.2802 15.3788 32.3679 14.9012 28.4542C14.7992 27.6891 14.9244 25.0878 13.1438 24.6982Z" fill="url(#paint18_radial)"/>
<defs>
<linearGradient id="paint0_linear" x1="30.5216" y1="78.1115" x2="38.6499" y2="54.8316" gradientUnits="userSpaceOnUse">
<stop offset="0.00132565" stop-color="#FFCB4B"/>
<stop offset="1" stop-color="#FFD748"/>
</linearGradient>
<linearGradient id="paint1_linear" x1="13.7908" y1="25.9843" x2="19.0155" y2="38.8124" gradientUnits="userSpaceOnUse">
<stop offset="0.00132565" stop-color="#FFCB4B"/>
<stop offset="1" stop-color="#FFD748"/>
</linearGradient>
<linearGradient id="paint2_linear" x1="24.8553" y1="9.60589" x2="26.2287" y2="36.6809" gradientUnits="userSpaceOnUse">
<stop offset="0.00132565" stop-color="#FFCB4B"/>
<stop offset="1" stop-color="#FFD748"/>
</linearGradient>
<linearGradient id="paint3_linear" x1="50.1911" y1="17.8765" x2="44.0624" y2="37.0223" gradientUnits="userSpaceOnUse">
<stop offset="0.00132565" stop-color="#FFCB4B"/>
<stop offset="1" stop-color="#FFD748"/>
</linearGradient>
<linearGradient id="paint4_linear" x1="39.8422" y1="12.3701" x2="38.1127" y2="35.4805" gradientUnits="userSpaceOnUse">
<stop offset="0.00132565" stop-color="#FFCB4B"/>
<stop offset="1" stop-color="#FFD748"/>
</linearGradient>
<linearGradient id="paint5_linear" x1="47.8655" y1="26.2155" x2="42.8547" y2="25.565" gradientUnits="userSpaceOnUse">
<stop stop-color="#FFBC47" stop-opacity="0"/>
<stop offset="1" stop-color="#E68E43"/>
</linearGradient>
<linearGradient id="paint6_linear" x1="61.3085" y1="23.5532" x2="27.3438" y2="24.2856" gradientUnits="userSpaceOnUse">
<stop stop-color="#FFBC47" stop-opacity="0"/>
<stop offset="1" stop-color="#E68E43"/>
</linearGradient>
<linearGradient id="paint7_linear" x1="27.5955" y1="26.8835" x2="19.8975" y2="28.5942" gradientUnits="userSpaceOnUse">
<stop offset="0.3118" stop-color="#FFBC47" stop-opacity="0"/>
<stop offset="1" stop-color="#FF8900"/>
</linearGradient>
<linearGradient id="paint8_linear" x1="21.1463" y1="27.5503" x2="29.6065" y2="25.2554" gradientUnits="userSpaceOnUse">
<stop stop-color="#FFBC47" stop-opacity="0"/>
<stop offset="1" stop-color="#E68E43"/>
</linearGradient>
<linearGradient id="paint9_linear" x1="40.0833" y1="23.5857" x2="43.1283" y2="24.2784" gradientUnits="userSpaceOnUse">
<stop stop-color="#FFBC47" stop-opacity="0"/>
<stop offset="1" stop-color="#E68E43"/>
</linearGradient>
<linearGradient id="paint10_linear" x1="48.0211" y1="29.3179" x2="53.3999" y2="30.4418" gradientUnits="userSpaceOnUse">
<stop stop-color="#FFBC47" stop-opacity="0"/>
<stop offset="1" stop-color="#E68E43"/>
</linearGradient>
<linearGradient id="paint11_linear" x1="22.9388" y1="47.9349" x2="14.651" y2="49.5741" gradientUnits="userSpaceOnUse">
<stop offset="0.3118" stop-color="#FFBC47" stop-opacity="0"/>
<stop offset="1" stop-color="#FF8900"/>
</linearGradient>
<radialGradient id="paint12_radial" cx="0" cy="0" r="1" gradientUnits="userSpaceOnUse" gradientTransform="translate(23.8257 62.5421) rotate(-13.0349) scale(22.5742 57.2943)">
<stop stop-color="#FFBC47" stop-opacity="0"/>
<stop offset="1" stop-color="#FF8900"/>
</radialGradient>
<radialGradient id="paint13_radial" cx="0" cy="0" r="1" gradientUnits="userSpaceOnUse" gradientTransform="translate(47.1504 58.8) rotate(-39.7658) scale(8.74866 4.06098)">
<stop stop-color="#FBE07A"/>
<stop offset="1" stop-color="#FFD748" stop-opacity="0"/>
</radialGradient>
<radialGradient id="paint14_radial" cx="0" cy="0" r="1" gradientUnits="userSpaceOnUse" gradientTransform="translate(28.4347 59.5227) rotate(-138.965) scale(11.2587 5.13683)">
<stop stop-color="#FBE07A"/>
<stop offset="0.2654" stop-color="#FCDF73" stop-opacity="0.7346"/>
<stop offset="0.6548" stop-color="#FDDB5F" stop-opacity="0.3452"/>
<stop offset="1" stop-color="#FFD748" stop-opacity="0"/>
</radialGradient>
<linearGradient id="paint15_linear" x1="17.7283" y1="33.6654" x2="22.3218" y2="32.9723" gradientUnits="userSpaceOnUse">
<stop stop-color="#FFBC47" stop-opacity="0"/>
<stop offset="1" stop-color="#E68E43"/>
</linearGradient>
<radialGradient id="paint16_radial" cx="0" cy="0" r="1" gradientUnits="userSpaceOnUse" gradientTransform="translate(55.989 34.7765) rotate(9.4329) scale(26.9129)">
<stop stop-color="#FFBC47" stop-opacity="0"/>
<stop offset="1" stop-color="#FFA754"/>
</radialGradient>
<linearGradient id="paint17_linear" x1="48.2768" y1="55.3137" x2="86.2862" y2="61.9421" gradientUnits="userSpaceOnUse">
<stop stop-color="#C86F34" stop-opacity="0"/>
<stop offset="1" stop-color="#C86F34"/>
</linearGradient>
<radialGradient id="paint18_radial" cx="0" cy="0" r="1" gradientUnits="userSpaceOnUse" gradientTransform="translate(32.442 50.1161) scale(56.5998)">
<stop offset="0.5212" stop-color="#FFBC47" stop-opacity="0"/>
<stop offset="1" stop-color="#FF8900"/>
</radialGradient>
</defs>
</svg>
