<svg width="80" height="80" viewBox="0 0 80 80" fill="none" xmlns="http://www.w3.org/2000/svg">
<path d="M67.3817 47.1761C68.7942 44.5358 63.3382 39.8419 57.0384 44.1206C56.3028 44.6667 55.5582 45.3031 54.8181 46.0613C53.022 47.8983 50.7657 49.2658 49.0824 47.2438C47.3991 45.2218 48.401 39.1198 49.2855 35.9108L42.8142 33.9023C42.6698 35.2157 41.8936 37.9373 41.4197 37.8922C40.9459 37.847 41.3656 36.8541 41.4694 35.7348C41.5732 34.6155 33.0621 38.6278 32.6424 38.8309C32.3265 38.9844 28.256 37.7161 26.0131 39.1649C25.264 39.6478 22.9896 43.2224 22.791 43.2676C22.791 43.2676 22.2765 38.9573 21.8027 36.8857C21.3289 34.814 15.381 43.6738 16.1392 45.8628C17.4343 49.5998 16.5724 62.3004 23.0618 67.9015C30.5665 74.3781 44.2763 72.5457 49.2358 66.8002C54.1954 61.0547 52.5031 58.0533 57.0565 53.6032C60.9013 49.8345 65.6262 49.2162 67.3817 47.1761Z" fill="url(#paint0_linear)"/>
<path d="M21.7983 36.8901C21.3244 34.8184 20.3948 29.1632 19.5419 26.1482C18.6935 23.1288 16.938 21.9012 14.4831 22.8038C12.0327 23.7065 13.3053 29.285 13.5309 30.6526C13.8784 32.7468 15.3766 43.6827 16.1302 45.8672" fill="url(#paint1_linear)"/>
<path d="M32.6423 38.8306C30.6386 38.8487 29.5014 36.3167 28.7929 32.715C28.2514 29.9664 26.9652 22.4336 26.1394 18.4889C25.115 13.5964 23.9507 12.432 21.5454 12.608C19.1401 12.784 18.5579 15.8712 19.1446 19.1072C19.641 21.8423 20.6112 26.121 21.9154 31.4603C22.6961 34.6603 23.5852 43.0777 22.7819 43.2672" fill="url(#paint2_linear)"/>
<path d="M49.2857 35.9062C50.1701 32.6972 51.9482 21.2107 52.6521 18.1641C53.3561 15.1221 51.7451 13.3574 49.773 12.9196C47.801 12.4818 46.1132 13.6462 44.9715 19.7258C44.2495 23.5621 43.726 26.9833 42.8145 33.8932L46.3344 39.1333L49.2857 35.9062Z" fill="url(#paint3_linear)"/>
<path d="M41.4695 35.7302C41.5733 34.6109 43.4777 23.8646 43.8342 21.4951C44.5788 16.5394 46.6141 9.29995 42.2502 8.1355C39.4388 7.38628 38.3918 9.93633 38.0714 11.0782C37.751 12.2201 35.8286 25.4533 35.7203 26.6584C35.612 27.8634 33.8294 38.3931 32.6426 38.8264" fill="url(#paint4_linear)"/>
<path d="M47.1873 13.7364C46.2892 14.7429 45.5401 16.6971 44.9715 19.7301C44.2495 23.5665 43.7711 26.9966 42.8144 33.8976C42.6339 35.2065 41.8938 37.9325 41.4199 37.8874C44.272 36.5875 44.615 26.279 45.328 21.5941C46.0862 16.6159 47.8597 12.9781 47.1873 13.7364Z" fill="url(#paint5_linear)"/>
<path d="M35.7202 26.6629C35.6119 27.8679 33.9332 38.2532 32.6426 38.8309C32.6426 38.8309 34.2536 40.1172 35.2419 33.8075C36.0812 28.4682 37.4395 18.8367 38.5271 14.892C39.5515 11.173 39.2401 8.82155 38.8655 9.34058C38.491 9.85511 38.1932 10.6449 38.0668 11.0827C37.7509 12.2246 35.8285 25.4533 35.7202 26.6629Z" fill="url(#paint6_linear)"/>
<path d="M19.1492 19.1076C19.6456 21.8427 20.6159 26.1214 21.92 31.4607C22.7007 34.6607 23.5898 43.0781 22.7865 43.2677C27.0149 42.6268 18.4588 17.6904 20.0743 13.2402C18.9236 14.337 18.707 16.6794 19.1492 19.1076Z" fill="url(#paint7_linear)"/>
<path d="M26.997 27.4072C28.2561 33.9696 28.5539 39.1961 32.6425 38.826C31.0405 38.826 29.6144 37.0116 28.7931 32.7104C28.2696 29.9572 26.997 22.4244 26.1396 18.4842C25.2325 14.3049 24.5421 13.2397 22.8813 12.6846C26.2705 16.6834 25.4311 19.238 26.997 27.4072Z" fill="url(#paint8_linear)"/>
<path d="M42.354 23.2101C41.6816 28.2335 40.2194 37.1248 41.2799 37.838C40.9099 37.5942 41.3792 36.7367 41.4695 35.7302C41.5733 34.6109 43.4777 23.8646 43.8342 21.495C44.2945 18.4214 45.4813 13.6237 44.6645 10.6494C44.7593 14.2601 42.9 19.1391 42.354 23.2101Z" fill="url(#paint9_linear)"/>
<path d="M48.1438 43.9041C48.1257 41.8324 48.7485 37.8517 49.2855 35.9064C50.17 32.6974 51.9481 21.2109 52.6522 18.1644C52.8643 17.2346 52.8643 16.4268 52.7063 15.7407C52.3859 17.1534 51.4517 18.6383 51.1629 21.4321C50.6981 25.9183 48.8613 32.896 48.234 35.2926C47.6022 37.6937 47.5526 40.4965 48.1438 43.9041Z" fill="url(#paint10_linear)"/>
<path d="M36.5822 71.9682C37.5073 69.188 37.3539 66.8771 34.5605 66.5115C26.9429 65.5186 21.2929 59.2811 18.7387 47.6547C16.4643 37.2829 13.4091 28.685 14.1988 22.9395C12.1365 24.1626 13.3144 29.3394 13.531 30.6483C13.8784 32.7425 15.3767 43.6784 16.1303 45.8629C17.4255 49.5999 16.5635 62.3006 23.0529 67.9016C26.6812 71.0294 31.749 72.2164 36.5822 71.9682Z" fill="url(#paint11_radial)"/>
<path d="M15.106 36.5153C15.1105 36.4747 15.115 36.4521 15.115 36.4521C19.9211 51.6532 21.3471 60.5716 29.4972 70.1715C30.648 71.5255 28.2021 71.4488 26.221 69.982C25.0883 69.4178 24.0232 68.7273 23.062 67.8968C16.5726 62.3002 17.4346 49.5996 16.1394 45.858C15.7377 44.7071 15.6926 39.2369 15.106 36.5153Z" fill="url(#paint12_radial)"/>
<path opacity="0.5" d="M53.7982 53.1473C54.9625 54.5464 51.0545 60.4364 48.0941 62.9007C45.1337 65.365 41.7897 66.2315 40.6254 64.8324C39.4611 63.4332 42.1011 59.9309 44.3981 56.8392C48.3694 51.5089 52.6339 51.7527 53.7982 53.1473Z" fill="url(#paint13_radial)"/>
<path opacity="0.5" d="M20.7919 51.8248C19.5058 53.3774 23.4228 62.3093 27.2857 64.5615C31.1532 66.8137 35.9954 66.1231 36.943 64.3313C37.8862 62.544 33.8698 59.7638 30.5801 56.6857C24.912 51.3735 22.0825 50.2722 20.7919 51.8248Z" fill="url(#paint14_radial)"/>
<path d="M22.7866 43.2678C22.7866 43.2678 22.2316 38.7905 21.7983 36.8859C21.3245 34.8142 20.3949 29.159 19.542 26.144C19.1674 24.8171 18.6213 23.8377 17.9128 23.2329C18.5085 24.6772 19.5329 27.489 20.449 33.5686C21.9247 44.2743 22.6603 43.3761 22.7866 43.2678Z" fill="url(#paint15_linear)"/>
<path d="M57.0339 44.1205C56.2984 44.6667 55.5537 45.303 54.8136 46.0613C53.0176 47.8982 50.7612 49.2657 49.0779 47.2438C48.4145 46.4449 48.1528 45.2534 48.1392 43.9039C47.1645 50.7281 50.8875 49.9653 53.5907 47.984C56.2939 46.0071 58.7578 42.2656 63.8483 43.078C64.7689 43.2269 65.6308 43.5699 66.2671 43.8317C64.4349 42.2475 60.8969 41.4983 57.0339 44.1205Z" fill="url(#paint16_linear)"/>
<path d="M49.2315 66.8001C54.191 61.0545 52.4987 58.0532 57.0521 53.603C60.906 49.8343 65.6264 49.2205 67.3818 47.1759C67.621 46.7246 67.6481 46.2191 67.5217 45.7046C66.4973 47.519 63.6723 47.6905 60.4231 49.4507C55.7254 52.0007 53.4915 54.2935 51.4518 59.5651C49.4075 64.8367 42.8053 67.3146 38.3647 66.5563L49.2315 66.8001Z" fill="url(#paint17_radial)"/>
<path d="M13.1474 24.6997C12.7232 26.7352 13.3776 29.7005 13.5355 30.6483C13.883 32.7425 15.3813 43.6739 16.1349 45.8628C17.43 49.5999 16.5681 62.3005 23.0575 67.9016C30.5622 74.3782 44.272 72.5458 49.2315 66.8003C54.1911 61.0548 52.4988 58.0534 57.0522 53.6033C60.9061 49.8346 65.6264 49.2208 67.3819 47.1762L67.8964 46.1291C67.7023 45.9621 67.5489 45.8087 67.5218 45.7049C66.4974 47.5193 64.0966 49.0087 60.4232 49.451C56.0594 49.979 53.4916 52.7728 51.4518 58.0444C49.4075 63.316 42.8053 67.3193 38.3648 66.5611C33.9242 65.8028 23.3734 70.1944 19.8083 51.8656C19.8083 51.8611 19.8083 51.8566 19.8038 51.8521C19.6684 50.638 19.4788 49.1486 19.1268 48.1556C16.6899 41.2863 15.3722 32.3769 14.8939 28.4638C14.7991 27.6921 14.93 25.0924 13.1474 24.6997Z" fill="url(#paint18_radial)"/>
<defs>
<linearGradient id="paint0_linear" x1="30.5224" y1="78.1135" x2="38.6513" y2="54.8346" gradientUnits="userSpaceOnUse">
<stop offset="0.00132565" stop-color="#D2A374"/>
<stop offset="1" stop-color="#DEBA94"/>
</linearGradient>
<linearGradient id="paint1_linear" x1="341.445" y1="-662.38" x2="324.405" y2="-625.937" gradientUnits="userSpaceOnUse">
<stop offset="0.00132565" stop-color="#D2A374"/>
<stop offset="1" stop-color="#DEBA94"/>
</linearGradient>
<linearGradient id="paint2_linear" x1="500.682" y1="-667.483" x2="477.966" y2="-634.281" gradientUnits="userSpaceOnUse">
<stop offset="0.00132565" stop-color="#D2A374"/>
<stop offset="1" stop-color="#DEBA94"/>
</linearGradient>
<linearGradient id="paint3_linear" x1="666.761" y1="-620.068" x2="638.913" y2="-591.039" gradientUnits="userSpaceOnUse">
<stop offset="0.00132565" stop-color="#D2A374"/>
<stop offset="1" stop-color="#DEBA94"/>
</linearGradient>
<linearGradient id="paint4_linear" x1="508.481" y1="-662.148" x2="485.765" y2="-628.945" gradientUnits="userSpaceOnUse">
<stop offset="0.00132565" stop-color="#D2A374"/>
<stop offset="1" stop-color="#DEBA94"/>
</linearGradient>
<linearGradient id="paint5_linear" x1="43.0213" y1="24.9644" x2="48.8011" y2="28.389" gradientUnits="userSpaceOnUse">
<stop offset="0.3118" stop-color="#F0C492" stop-opacity="0"/>
<stop offset="1" stop-color="#E6AF74"/>
</linearGradient>
<linearGradient id="paint6_linear" x1="61.3049" y1="23.5582" x2="27.3459" y2="24.2904" gradientUnits="userSpaceOnUse">
<stop stop-color="#D2A374" stop-opacity="0"/>
<stop offset="1" stop-color="#B88653"/>
</linearGradient>
<linearGradient id="paint7_linear" x1="27.5945" y1="26.8842" x2="19.8975" y2="28.5945" gradientUnits="userSpaceOnUse">
<stop stop-color="#D2A374" stop-opacity="0"/>
<stop offset="1" stop-color="#B88653"/>
</linearGradient>
<linearGradient id="paint8_linear" x1="21.1459" y1="27.551" x2="29.605" y2="25.2567" gradientUnits="userSpaceOnUse">
<stop stop-color="#D2A374" stop-opacity="0"/>
<stop offset="1" stop-color="#B88653"/>
</linearGradient>
<linearGradient id="paint9_linear" x1="37.2853" y1="22.1215" x2="45.3125" y2="25.118" gradientUnits="userSpaceOnUse">
<stop stop-color="#D2A374" stop-opacity="0"/>
<stop offset="1" stop-color="#B88653"/>
</linearGradient>
<linearGradient id="paint10_linear" x1="48.0191" y1="29.3205" x2="53.3974" y2="30.4442" gradientUnits="userSpaceOnUse">
<stop stop-color="#D2A374" stop-opacity="0"/>
<stop offset="1" stop-color="#B88653"/>
</linearGradient>
<radialGradient id="paint11_radial" cx="0" cy="0" r="1" gradientUnits="userSpaceOnUse" gradientTransform="translate(13.5084 22.1759) rotate(83.686) scale(214.093 144.199)">
<stop offset="0.6134" stop-color="#F0C492" stop-opacity="0"/>
<stop offset="1" stop-color="#E6AF74"/>
</radialGradient>
<radialGradient id="paint12_radial" cx="0" cy="0" r="1" gradientUnits="userSpaceOnUse" gradientTransform="translate(23.8309 62.5357) rotate(-13.0366) scale(22.5717 57.2929)">
<stop offset="0.6134" stop-color="#F0C492" stop-opacity="0"/>
<stop offset="1" stop-color="#E6AF74"/>
</radialGradient>
<radialGradient id="paint13_radial" cx="0" cy="0" r="1" gradientUnits="userSpaceOnUse" gradientTransform="translate(47.1439 58.7957) rotate(-39.7697) scale(8.74824 4.06054)">
<stop stop-color="#E9CDB1"/>
<stop offset="1" stop-color="#E9CDB1" stop-opacity="0"/>
</radialGradient>
<radialGradient id="paint14_radial" cx="0" cy="0" r="1" gradientUnits="userSpaceOnUse" gradientTransform="translate(28.4454 59.5373) rotate(-138.963) scale(11.2578 5.13679)">
<stop stop-color="#E9CDB1"/>
<stop offset="1" stop-color="#E9CDB1" stop-opacity="0"/>
</radialGradient>
<linearGradient id="paint15_linear" x1="19.8162" y1="30.7146" x2="23.6701" y2="44.4155" gradientUnits="userSpaceOnUse">
<stop stop-color="#D2A374" stop-opacity="0"/>
<stop offset="1" stop-color="#B88653"/>
</linearGradient>
<linearGradient id="paint16_linear" x1="48.0519" y1="44.5025" x2="65.6847" y2="47.4318" gradientUnits="userSpaceOnUse">
<stop stop-color="#D2A374" stop-opacity="0"/>
<stop offset="1" stop-color="#B88653"/>
</linearGradient>
<radialGradient id="paint17_radial" cx="0" cy="0" r="1" gradientUnits="userSpaceOnUse" gradientTransform="translate(52.9755 56.2472) scale(59.1887 59.1966)">
<stop offset="0.6134" stop-color="#F0C492" stop-opacity="0"/>
<stop offset="1" stop-color="#E6AF74"/>
</radialGradient>
<radialGradient id="paint18_radial" cx="0" cy="0" r="1" gradientUnits="userSpaceOnUse" gradientTransform="translate(32.438 50.1136) scale(56.5895 56.5968)">
<stop offset="0.6134" stop-color="#F0C492" stop-opacity="0"/>
<stop offset="1" stop-color="#E6AF74"/>
</radialGradient>
</defs>
</svg>
