<svg width="80" height="80" viewBox="0 0 80 80" fill="none" xmlns="http://www.w3.org/2000/svg">
<path d="M44.8965 37.3225C45.7322 38.2432 46.4789 39.4482 46.1607 39.7665C45.8425 40.0847 44.8668 39.5076 44.1201 38.7609C43.3735 38.0141 41.5917 45.9484 41.4178 46.3514C41.2905 46.6527 39.2117 49.0287 38.1257 51.2944C37.7651 52.0497 37.816 54.3239 37.6803 54.4596C37.133 55.007 36.4457 54.9476 34.9482 53.6238C33.4549 52.3 32.6785 60.1706 34.4603 61.4138C37.5063 63.5395 43.6026 71.9956 51.6503 71.9956C60.9622 71.9956 69.5869 62.2793 69.5869 55.147C69.5869 48.0189 67.4954 45.3119 67.6312 39.3337C67.7457 34.2719 71.4239 31.8577 71.4239 29.3289C71.4239 27.2032 68.2633 26.6855 67.2282 26.6855C65.387 26.6855 60.6738 29.0446 60.6738 35.252C60.6738 37.6662 59.9823 39.8513 57.5132 39.8513C55.0442 39.8513 52.2824 36.457 50.6152 33.8136" fill="url(#paint0_linear)"/>
<path d="M71.4324 29.3289C71.4324 28.1706 70.4991 27.4917 69.4767 27.1099C70.6985 31.1661 64.4919 31.3443 64.4919 45.172C64.4919 58.9996 56.4442 63.0219 53.1097 63.7135C49.7752 64.4051 43.8995 64.6045 39.4281 59.1142C38.0536 57.4297 36.1912 55.5968 34.1252 53.8657C33.2512 55.3295 33.0646 60.4337 34.4688 61.4138C37.5148 63.5395 43.6111 71.9957 51.6588 71.9957C60.9708 71.9957 69.5955 62.2794 69.5955 55.147C69.5955 48.0189 67.504 45.312 67.6397 39.3337C67.75 34.2761 71.4324 31.8619 71.4324 29.3289Z" fill="url(#paint1_linear)"/>
<path d="M34.9525 53.6237C33.4592 52.2999 29.9212 48.5364 27.6218 46.695C25.3225 44.8536 23.3116 44.879 21.9286 46.9072C20.5499 48.9353 24.5716 52.5036 25.4922 53.4243C26.9006 54.833 32.6787 60.1706 34.4604 61.418" fill="url(#paint2_linear)"/>
<path d="M41.4177 46.3517C41.2438 46.7548 40.0729 47.0306 37.7396 44.4933C35.9578 42.5543 31.1852 36.9791 28.3683 34.4461C25.5514 31.9173 23.3666 30.8821 21.5254 32.2016C19.6842 33.5254 20.7321 36.279 22.7896 38.5829C25.335 41.4299 28.2622 44.3321 31.0664 47.1197C33.2597 49.3005 38.2232 53.9041 37.676 54.4514" fill="url(#paint3_linear)"/>
<path d="M50.6195 33.8137C48.9522 31.1704 42.1093 22.6591 40.442 20.2449C38.7748 17.8307 36.5306 17.8307 34.9821 18.9211C33.4294 20.0115 32.9712 22.1966 36.4627 26.8426C38.6645 29.7702 40.5014 32.4687 44.9007 37.3226L50.017 36.9662L50.6195 33.8137Z" fill="url(#paint4_linear)"/>
<path d="M44.1202 38.761C43.3736 38.0143 36.764 30.1776 35.2664 28.4974C32.4623 25.3491 28.9114 18.6071 24.6733 21.6111C22.4461 23.1895 23.6509 25.4764 24.2872 26.3971C24.9193 27.3178 33.141 36.805 33.9471 37.6112C34.7531 38.4173 41.5918 45.9485 41.4221 46.3516" fill="url(#paint5_linear)"/>
<path d="M31.0709 47.1282C33.1411 49.186 37.6762 53.3992 37.7228 54.3284C38.3762 53.3059 37.1798 50.2765 35.9156 49.2115C28.6146 43.0593 21.5553 33.1436 20.6602 33.4406C20.2741 34.8832 21.2499 36.8646 22.7941 38.5915C25.3352 41.4342 28.2667 44.3406 31.0709 47.1282Z" fill="url(#paint6_linear)"/>
<path d="M44.8965 37.3225C45.6983 38.205 46.4153 39.3548 46.1904 39.724C48.8588 37.577 43.2165 31.2763 40.0221 27.4916C37.5488 24.564 36.8785 20.8387 35.1052 18.8403C35.0628 18.8658 35.0204 18.8955 34.978 18.9252C33.4253 20.0156 32.9671 22.2007 36.4585 26.8467C38.6645 29.7743 40.4972 32.4686 44.8965 37.3225Z" fill="url(#paint7_linear)"/>
<path d="M33.9471 37.6112C34.7532 38.4173 41.5918 45.9485 41.4221 46.3516C43.5348 43.5046 35.3429 35.1376 31.3763 30.9116C27.9357 27.2457 27.346 24.0381 23.9903 22.2349C22.7431 23.7411 23.7358 25.591 24.2873 26.3972C24.9194 27.3179 33.1411 36.805 33.9471 37.6112Z" fill="url(#paint8_linear)"/>
<path d="M41.2653 46.5173C41.0234 46.6658 40.5312 46.6785 39.7717 46.2373C40.336 46.6997 40.8622 46.8737 41.2653 46.5173Z" fill="url(#paint9_linear)"/>
<path d="M26.5017 61.6179C26.4508 61.6179 26.3999 61.6094 26.349 61.5967C21.1012 59.9971 15.4165 54.2606 14.1819 49.3219C14.1141 49.0461 14.2795 48.7618 14.5595 48.6939C14.8353 48.626 15.1195 48.7915 15.1874 49.0715C16.3243 53.6242 21.7885 59.1231 26.6502 60.6081C26.9217 60.6929 27.0787 60.9815 26.9939 61.253C26.926 61.4737 26.7223 61.6179 26.5017 61.6179Z" fill="#955500"/>
<path d="M29.0005 68.1304C28.9623 68.1304 28.9242 68.1261 28.8817 68.1177C24.5376 67.1078 19.4934 63.862 15.039 59.216C10.873 54.8713 8.17485 50.2507 8.00092 47.1576C7.98395 46.8733 8.20455 46.6273 8.48879 46.6103C8.77302 46.5933 9.01908 46.814 9.03604 47.0982C9.19301 49.9113 11.8445 54.3876 15.7856 58.499C20.1043 63.0049 24.966 66.1405 29.1193 67.1078C29.3993 67.1715 29.569 67.4515 29.5053 67.7273C29.4502 67.9692 29.2381 68.1304 29.0005 68.1304Z" fill="#955500"/>
<path d="M51.2516 22.8334C51.0225 22.8334 50.8147 22.6806 50.751 22.4473C50.0213 19.6851 46.7165 15.718 43.7045 14.9373C43.4287 14.8652 43.2633 14.5851 43.3311 14.3051C43.4032 14.0293 43.6833 13.8638 43.9633 13.9317C47.3571 14.81 50.9334 19.0869 51.7522 22.18C51.8243 22.4558 51.6589 22.74 51.3831 22.8122C51.3407 22.8291 51.294 22.8334 51.2516 22.8334Z" fill="#955500"/>
<path d="M57.7764 23.7538C57.5473 23.7538 57.3352 23.5968 57.2758 23.3635C55.3328 15.7262 48.0826 9.76918 43.9463 9.02667C43.6663 8.97576 43.4797 8.70844 43.5306 8.42417C43.5815 8.14413 43.8488 7.95745 44.133 8.00837C48.6469 8.81877 56.2109 14.9583 58.2854 23.1089C58.3576 23.3847 58.1879 23.669 57.9121 23.7369C57.8612 23.7496 57.8188 23.7538 57.7764 23.7538Z" fill="#955500"/>
<path d="M67.7246 27.5472C69.4809 27.2332 69.7906 27.4326 69.4766 27.1102C68.6197 26.7919 67.7076 26.6816 67.2367 26.6816C65.3955 26.6816 60.6823 29.0407 60.6823 35.2481C60.6823 37.6623 59.9908 39.8474 57.5217 39.8474C56.546 39.8474 55.5278 39.3171 54.5479 38.5194C58.8878 43.3266 62.2944 38.7994 62.8119 35.6936C63.3295 32.5878 62.5744 28.4764 67.7246 27.5472Z" fill="url(#paint10_radial)"/>
<path d="M34.4476 19.3921C33.3743 20.6056 33.4082 22.7864 36.4584 26.8426C38.6602 29.7703 40.4972 32.4687 44.8965 37.3226C45.7322 38.2434 46.4789 39.4483 46.1607 39.7666C46.8946 34.7345 39.7378 29.7915 37.4087 25.9941C35.5676 22.9901 35.1985 21.2165 34.4476 19.3921Z" fill="url(#paint11_linear)"/>
<path d="M33.9471 37.6115C34.7531 38.4176 41.5918 45.9488 41.4221 46.3519C42.9324 45.2742 41.9015 43.5982 39.5682 41.2646C34.7871 36.4829 28.1308 30.0548 25.4539 24.7639C25.1994 24.2632 24.7327 23.8941 24.1769 23.822C22.7345 23.6353 23.8036 25.6973 24.2872 26.4017C24.9194 27.3181 33.141 36.8053 33.9471 37.6115Z" fill="url(#paint12_linear)"/>
<path d="M22.794 38.5869C25.3394 41.4339 28.2666 44.3361 31.0708 47.1237C33.2641 49.3045 38.2276 53.9081 37.6804 54.4554C40.7561 51.8673 26.4679 42.5031 20.6559 33.436C20.2741 34.8786 21.2498 36.8601 22.794 38.5869Z" fill="url(#paint13_linear)"/>
<path d="M37.0523 54.9778C37.345 54.8632 37.4978 54.7274 37.5444 54.5789C37.0184 54.9863 36.3226 54.8378 34.9523 53.6243C33.459 52.3005 29.9209 48.537 27.6215 46.6956C26.6118 45.8852 25.6573 45.4397 24.7876 45.3633C26.0349 46.1397 25.4579 46.424 28.2282 48.5497C29.7088 49.6868 35.1517 55.7245 37.0523 54.9778Z" fill="url(#paint14_linear)"/>
<path d="M33.4295 41.1752C35.4488 43.6319 39.3857 47.6924 41.1548 46.568C40.6669 46.7335 39.5554 46.4662 37.7397 44.489C35.9579 42.55 31.1853 36.9748 28.3684 34.4417C26.086 32.3924 24.2193 31.3232 22.6157 31.6966C27.2908 33.241 31.5162 38.8501 33.4295 41.1752Z" fill="url(#paint15_linear)"/>
<path d="M35.6143 30.5931C38.8385 34.0978 43.6154 41.0476 46.042 39.8342C45.6433 39.9572 44.7905 39.4268 44.1245 38.7607C43.3778 38.014 36.7683 30.1773 35.2707 28.4971C33.3277 26.3163 31.0284 22.4128 28.3896 21.2163C31.0496 23.3123 33.0011 27.7546 35.6143 30.5931Z" fill="url(#paint16_linear)"/>
<path d="M54.5435 38.5236C53.0375 37.2932 51.6291 35.4178 50.6194 33.814C48.9521 31.1707 42.1093 22.6594 40.442 20.2452C39.933 19.5111 39.3729 18.9978 38.7917 18.6753C39.5681 19.7912 40.0051 21.3823 41.7614 23.351C44.5783 26.512 48.2564 32.2059 49.5248 34.1619C50.7891 36.1137 52.8296 40.2378 54.5435 38.5236Z" fill="url(#paint17_linear)"/>
<path d="M63.7665 66.586C62.7187 64.0402 61.1914 62.4916 58.9812 63.9469C52.9528 67.914 46.0166 66.5775 37.324 59.547C29.569 53.2759 25.56 48.7912 21.7885 47.1704C20.8849 49.2325 24.6139 52.5419 25.4963 53.4245C26.9048 54.8331 32.6829 60.1707 34.4647 61.4181C37.5107 63.5438 43.6069 71.9999 51.6546 71.9999C56.1473 71.9957 60.483 69.73 63.7665 66.586Z" fill="url(#paint18_linear)"/>
<path d="M67.6355 39.3336C67.75 34.2718 71.4281 31.8576 71.4281 29.3288C71.4281 28.5821 71.042 28.039 70.4905 27.6401C71.1651 29.6088 69.5615 31.3569 67.173 34.3312C64.5852 37.5516 64.0125 42.554 65.7943 47.5564C67.576 52.5588 65.3361 59.4578 61.7131 61.6429C58.0902 63.828 53.2794 73.4297 39.5002 62.5805C39.496 62.5763 39.496 62.5763 39.4917 62.5721C38.6517 61.7914 37.8203 61.0998 36.976 60.5779C31.1555 56.9714 27.8423 53.7298 25.335 51.0059C24.8429 50.4713 23.5193 48.4134 21.9412 49.0923C22.7302 50.8786 24.8556 52.7837 25.492 53.4243C26.9004 54.833 32.6785 60.1706 34.4603 61.418C34.6937 61.5792 34.9439 61.7786 35.2112 62.0077C35.2791 62.0671 35.3512 62.1266 35.4233 62.1902C35.4403 62.2072 35.4615 62.2241 35.4785 62.2411C35.5252 62.2835 35.5676 62.3217 35.6142 62.3642C35.6227 62.3726 35.6354 62.3811 35.6439 62.3938C37.4512 64.0359 39.9414 66.7556 42.9917 68.8813C42.9917 68.8813 42.9959 68.8813 42.9959 68.8855C43.2632 69.0722 43.5347 69.2546 43.8104 69.4328C43.8147 69.4371 43.8189 69.4371 43.8232 69.4413C44.0989 69.6153 44.3747 69.785 44.6589 69.9462C44.6632 69.9462 44.6631 69.9505 44.6674 69.9505C46.7801 71.164 49.1176 71.9998 51.646 71.9998C60.958 71.9998 69.5827 62.2835 69.5827 55.1512C69.5911 48.0189 67.4997 45.3119 67.6355 39.3336Z" fill="url(#paint19_linear)"/>
<defs>
<linearGradient id="paint0_linear" x1="65.0642" y1="73.8382" x2="57.3873" y2="55.8548" gradientUnits="userSpaceOnUse">
<stop offset="0.00132565" stop-color="#D2A374"/>
<stop offset="1" stop-color="#DEBA94"/>
</linearGradient>
<linearGradient id="paint1_linear" x1="71.5866" y1="76.6479" x2="57.6706" y2="53.1894" gradientUnits="userSpaceOnUse">
<stop offset="0.00132565" stop-color="#D2A374"/>
<stop offset="1" stop-color="#DEBA94"/>
</linearGradient>
<linearGradient id="paint2_linear" x1="23.5636" y1="48.5439" x2="33.0508" y2="55.5289" gradientUnits="userSpaceOnUse">
<stop offset="0.00132565" stop-color="#D2A374"/>
<stop offset="1" stop-color="#DEBA94"/>
</linearGradient>
<linearGradient id="paint3_linear" x1="20.1094" y1="30.053" x2="36.7558" y2="47.4734" gradientUnits="userSpaceOnUse">
<stop offset="0.00132565" stop-color="#D2A374"/>
<stop offset="1" stop-color="#DEBA94"/>
</linearGradient>
<linearGradient id="paint4_linear" x1="38.0868" y1="21.833" x2="47.7473" y2="37.0119" gradientUnits="userSpaceOnUse">
<stop offset="0.00132565" stop-color="#D2A374"/>
<stop offset="1" stop-color="#DEBA94"/>
</linearGradient>
<linearGradient id="paint5_linear" x1="28.1165" y1="24.3547" x2="41.2271" y2="42.0632" gradientUnits="userSpaceOnUse">
<stop offset="0.00132565" stop-color="#D2A374"/>
<stop offset="1" stop-color="#DEBA94"/>
</linearGradient>
<linearGradient id="paint6_linear" x1="32.8867" y1="40.3991" x2="27.3841" y2="45.5821" gradientUnits="userSpaceOnUse">
<stop stop-color="#F0C492" stop-opacity="0"/>
<stop offset="1" stop-color="#D2A374"/>
</linearGradient>
<linearGradient id="paint7_linear" x1="43.7062" y1="26.4916" x2="35.4263" y2="33.9655" gradientUnits="userSpaceOnUse">
<stop stop-color="#F0C492" stop-opacity="0"/>
<stop offset="1" stop-color="#D2A374"/>
</linearGradient>
<linearGradient id="paint8_linear" x1="36.091" y1="31.8173" x2="24.7064" y2="40.139" gradientUnits="userSpaceOnUse">
<stop stop-color="#F0C492" stop-opacity="0"/>
<stop offset="1" stop-color="#D2A374"/>
</linearGradient>
<linearGradient id="paint9_linear" x1="44.5716" y1="43.419" x2="33.1874" y2="51.7427" gradientUnits="userSpaceOnUse">
<stop stop-color="#F0C492" stop-opacity="0"/>
<stop offset="1" stop-color="#D2A374"/>
</linearGradient>
<radialGradient id="paint10_radial" cx="0" cy="0" r="1" gradientUnits="userSpaceOnUse" gradientTransform="translate(59.5159 29.9035) scale(13.6657 13.6676)">
<stop stop-color="#DEBA94" stop-opacity="0"/>
<stop offset="1" stop-color="#D2A374"/>
</radialGradient>
<linearGradient id="paint11_linear" x1="45.2212" y1="25.0238" x2="38.1487" y2="31.5779" gradientUnits="userSpaceOnUse">
<stop offset="0.3072" stop-color="#D2A374" stop-opacity="0"/>
<stop offset="1" stop-color="#D2A374"/>
</linearGradient>
<linearGradient id="paint12_linear" x1="39.8062" y1="28.5769" x2="30.4913" y2="36.9707" gradientUnits="userSpaceOnUse">
<stop offset="0.3072" stop-color="#D2A374" stop-opacity="0"/>
<stop offset="1" stop-color="#D2A374"/>
</linearGradient>
<linearGradient id="paint13_linear" x1="36.6586" y1="37.6567" x2="25.1588" y2="47.3152" gradientUnits="userSpaceOnUse">
<stop offset="0.3072" stop-color="#D2A374" stop-opacity="0"/>
<stop offset="1" stop-color="#D2A374"/>
</linearGradient>
<linearGradient id="paint14_linear" x1="24.1117" y1="44.6746" x2="37.4802" y2="55.5405" gradientUnits="userSpaceOnUse">
<stop offset="0.3118" stop-color="#DEBA94" stop-opacity="0"/>
<stop offset="1" stop-color="#D2A374"/>
</linearGradient>
<linearGradient id="paint15_linear" x1="26.6703" y1="31.2037" x2="37.1072" y2="47.0725" gradientUnits="userSpaceOnUse">
<stop offset="0.3118" stop-color="#D2A374" stop-opacity="0"/>
<stop offset="1" stop-color="#D2A374"/>
</linearGradient>
<linearGradient id="paint16_linear" x1="34.8441" y1="32.3371" x2="37.7765" y2="30.095" gradientUnits="userSpaceOnUse">
<stop offset="0.3118" stop-color="#F0C492" stop-opacity="0"/>
<stop offset="1" stop-color="#D2A374"/>
</linearGradient>
<linearGradient id="paint17_linear" x1="46.9502" y1="27.0993" x2="41.5445" y2="55.9641" gradientUnits="userSpaceOnUse">
<stop offset="0.3118" stop-color="#DEBA94" stop-opacity="0"/>
<stop offset="1" stop-color="#D2A374"/>
</linearGradient>
<linearGradient id="paint18_linear" x1="44.2494" y1="54.3063" x2="36.0838" y2="68.5654" gradientUnits="userSpaceOnUse">
<stop offset="0.00132565" stop-color="#D2A374"/>
<stop offset="1" stop-color="#DEBA94"/>
</linearGradient>
<linearGradient id="paint19_linear" x1="70.6811" y1="86.7385" x2="36.5232" y2="18.7768" gradientUnits="userSpaceOnUse">
<stop offset="0.00132565" stop-color="#D2A374"/>
<stop offset="1" stop-color="#DEBA94"/>
</linearGradient>
</defs>
</svg>
