<svg width="80" height="80" viewBox="0 0 80 80" fill="none" xmlns="http://www.w3.org/2000/svg">
<path d="M35.591 42.3578C33.4622 45.5062 30.4434 47.1847 28.8479 46.1063C27.2524 45.0278 27.6856 41.6006 29.8151 38.4522C31.9439 35.3038 34.9628 33.6252 36.5582 34.7037C38.153 35.7822 37.7205 39.2094 35.591 42.3578Z" fill="url(#paint0_linear)"/>
<path d="M35.591 42.3578C33.4622 45.5062 30.4434 47.1847 28.8479 46.1063C27.2524 45.0278 27.6856 41.6006 29.8151 38.4522C31.9439 35.3038 34.9628 33.6252 36.5582 34.7037C38.153 35.7822 37.7205 39.2094 35.591 42.3578Z" fill="url(#paint1_linear)"/>
<path d="M61.413 60.6598C57.1573 60.6598 56.976 63.9195 51.9049 63.9195C46.8339 63.9195 44.1174 61.8365 39.4089 59.0297C35.4817 56.6882 30.8661 57.1737 28.4409 56.6855L30.2457 57.9728C30.2457 57.9728 33.6323 62.2834 38.7446 64.8546C46.1546 68.5822 54.9303 64.2899 58.7416 64.5529C63.4894 64.8808 69.3667 65.9174 70.455 65.8356C69.921 65.4011 69.4728 60.6598 61.413 60.6598Z" fill="url(#paint2_linear)"/>
<path d="M61.413 60.6598C57.1573 60.6598 56.976 63.9195 51.9049 63.9195C46.8339 63.9195 44.1174 61.8365 39.4089 59.0297C35.4817 56.6882 30.8661 57.1737 28.4409 56.6855L31.6946 59.4217C31.6946 59.4217 33.6323 62.2834 38.7453 64.8546C46.1553 68.5822 54.931 64.2899 58.7423 64.5529C63.4901 64.8808 69.3674 65.9174 70.4557 65.8356C69.921 65.4011 69.4728 60.6598 61.413 60.6598Z" fill="url(#paint3_linear)"/>
<path d="M61.413 60.6598C57.1573 60.6598 56.976 63.9194 51.905 63.9194C46.8339 63.9194 44.1174 61.8364 39.4089 59.0296C35.4817 56.6881 30.8661 57.1737 28.4409 58.1344L31.6946 59.4216C31.6946 59.4216 32.8542 61.112 35.701 63.0595C36.0432 62.8017 36.2088 63.7519 36.123 62.9273C35.3757 55.7438 42.855 64.8062 49.5536 64.6275C57.0801 64.4279 61.413 60.6598 61.413 60.6598Z" fill="url(#paint4_linear)"/>
<path d="M17.9898 50.6118L10.0923 62.0085C9.40715 62.998 7.35228 68.1246 6.0657 71.415C5.75813 72.201 6.59578 72.7802 7.22402 72.2167C9.81027 69.8961 13.8277 66.2681 14.7917 65.2635L23.1793 53.1601C20.7822 53.1071 18.7503 52.488 17.9898 50.6118Z" fill="url(#paint5_linear)"/>
<path d="M6.13507 72.1655C6.3615 72.475 6.83333 72.5673 7.22402 72.2165C9.81027 69.896 13.8277 66.2679 14.7917 65.2633L23.1793 53.1599C22.4444 53.1436 21.7508 53.065 21.1107 52.9224L13.8349 63.4035C13.3487 63.8851 10.3822 68.0498 6.13507 72.1655Z" fill="url(#paint6_linear)"/>
<path d="M18.6953 51.777C18.1462 51.3974 18.2594 51.2764 17.9898 50.6108L10.0923 62.0082C9.40715 62.9976 7.35228 68.125 6.0657 71.4147C5.75812 72.2013 10.5059 63.5873 11.1086 62.7143L18.6953 51.777Z" fill="url(#paint7_linear)"/>
<path d="M28.4219 62.9233C31.5611 66.4244 34.3378 67.3302 36.9339 67.3302C39.53 67.3302 40.0731 66.0626 39.53 65.1267C38.9868 64.1909 37.4169 62.3193 34.9418 61.9574C32.4668 61.5955 30.3537 55.9806 30.3537 55.9806L27.2747 55.9204L24.377 59.5433L28.4219 62.9233Z" fill="url(#paint8_linear)"/>
<path d="M28.4219 62.9233C31.5611 66.4244 34.3378 67.3302 36.9339 67.3302C39.53 67.3302 40.0731 66.0626 39.53 65.1267C38.9868 64.1909 37.4169 62.3193 34.9418 61.9574C32.4668 61.5955 30.3537 55.9806 30.3537 55.9806L27.2747 55.9204L24.377 59.5433L28.4219 62.9233Z" fill="url(#paint9_linear)"/>
<path d="M29.7844 63.8037C28.7079 61.7815 30.3046 60.241 32.4668 59.9937C31.209 58.2477 30.3544 55.9821 30.3544 55.9821L27.2753 55.9219L25.6943 57.8976L25.4986 58.4617C25.4979 58.461 31.0219 66.1275 29.7844 63.8037Z" fill="url(#paint10_linear)"/>
<path d="M30.3537 55.981C30.9427 57.1949 31.529 58.4056 32.2947 59.5024C33.0551 60.5547 33.9334 61.7267 35.2697 61.8347C36.6348 62.1122 37.8664 62.8844 38.7773 63.9053C39.1949 64.4367 39.7073 64.9451 39.8028 65.6886C39.8467 66.4699 39.1366 66.9653 38.5103 67.1172C39.1333 66.9071 39.7334 66.3607 39.6261 65.7036C39.5247 65.0898 38.9992 64.5734 38.5732 64.0951C37.655 63.1514 36.4875 62.4243 35.1983 62.1894C34.523 62.122 33.8201 61.7411 33.3411 61.2608C32.8424 60.7785 32.419 60.2347 32.0624 59.6548C31.7038 59.0763 31.3851 58.4769 31.0978 57.8644C30.8268 57.2453 30.6024 56.6053 30.3537 55.981Z" fill="#663C1D"/>
<path d="M23.0491 63.4672C23.9548 66.6064 27.6974 68.8399 30.2935 68.5985C31.9164 68.4473 32.3457 65.9422 30.4139 64.0103C28.4821 62.0785 27.2681 58.7449 27.2681 58.7449L25.5241 53.3257L22.8076 60.2677L21.0571 64.0103L23.0491 63.4672Z" fill="url(#paint11_linear)"/>
<path d="M23.0491 63.4672C23.9548 66.6064 27.6974 68.8399 30.2935 68.5985C31.9164 68.4473 32.3457 65.9422 30.4139 64.0103C28.4821 62.0785 27.2681 58.7449 27.2681 58.7449L25.5241 53.3257L22.8076 60.2677L21.0571 64.0103L23.0491 63.4672Z" fill="url(#paint12_linear)"/>
<path d="M28.7144 61.7318C27.8028 60.1926 27.2681 58.745 27.2681 58.745L26.3814 55.9912L24.4142 56.1594L22.807 60.2678L21.8882 62.2317L22.4988 63.6171L23.0478 63.4673C23.4601 64.8972 24.4725 66.1216 25.6858 67.0273C24.411 64.7106 26.4076 62.055 28.7144 61.7318Z" fill="url(#paint13_linear)"/>
<path d="M31.6867 66.9719C31.6651 65.9189 31.1292 64.9825 30.4355 64.2626C29.6796 63.5238 29.0959 62.6194 28.5887 61.7097C27.5718 59.878 26.742 57.956 26.0718 55.981C26.9723 57.8604 27.863 59.7406 28.8904 61.537C29.4277 62.4204 29.9355 63.317 30.6678 64.0466C31.3818 64.8332 31.8451 65.9235 31.6867 66.9719Z" fill="#663C1D"/>
<path d="M16.5475 62.6146C16.5475 65.422 20.0912 68.5986 22.2043 68.5986C24.3174 68.5986 24.3776 65.761 24.015 64.6747C23.6531 63.5884 23.1204 61.1958 23.1204 61.1958L21.2985 60.0264L16.5475 62.6146Z" fill="url(#paint14_linear)"/>
<path d="M16.5475 62.6146C16.5475 65.422 20.0912 68.5986 22.2043 68.5986C24.3174 68.5986 24.3776 65.761 24.015 64.6747C23.6531 63.5884 23.1204 61.1958 23.1204 61.1958L21.2985 60.0264L16.5475 62.6146Z" fill="url(#paint15_linear)"/>
<path d="M23.4823 62.7307C23.2801 61.9088 23.1204 61.1948 23.1204 61.1948L21.2985 60.0254L16.5475 62.6136C16.5475 64.3321 17.8766 66.1854 19.3909 67.3673C18.9669 64.9832 21.8777 63.4048 23.4823 62.7307Z" fill="url(#paint16_linear)"/>
<path d="M23.9045 67.4277C24.0962 66.7269 24.0818 66.009 23.9889 65.3205C23.875 64.6622 23.5759 63.9508 23.4457 63.2486C23.1008 61.8449 22.8188 60.4288 22.6041 58.9976C23.0373 60.3784 23.4136 61.771 23.7755 63.1649C23.9385 63.8769 24.2068 64.5104 24.3056 65.2813C24.375 66.0201 24.2624 66.789 23.9045 67.4277Z" fill="#663C1D"/>
<path d="M12.8468 58.3356C12.922 61.52 15.8649 62.8328 18.2195 62.8328C20.5741 62.8328 25.5477 60.0122 27.2681 58.744C28.9886 57.4764 34.6997 56.2218 39.4089 59.0293C44.1174 61.8367 46.8339 63.9191 51.905 63.9191C56.976 63.9191 57.1573 60.6594 61.413 60.6594C70.3798 60.6594 69.925 66.5453 70.6494 65.8208C71.3738 65.0964 74 59.0293 74 53.2338C74 49.3982 73.0878 47.3683 72.4706 45.4541C72.1984 44.6105 71.3712 44.1151 70.491 44.2212C64.1844 44.9816 54.8452 37.234 48.464 34.1274C41.5822 30.7768 35.968 27.2456 31.8026 27.2456C27.6372 27.2456 14.1445 34.7616 12.424 36.482C10.7036 38.2025 9.97913 40.1945 9.97913 42.6394C9.97913 45.0843 8.43994 50.8798 8.43994 55.8606C8.43994 59.8427 9.42418 61.3355 10.8371 60.4782C11.1911 60.2629 11.572 59.9003 11.9712 59.3925C12.0949 59.2459 12.8527 58.5751 12.8468 58.3356C12.8468 56.4339 14.3258 53.9779 16.8793 51.7757C17.2438 51.461 17.5455 50.5723 17.7968 49.8838C17.7968 49.8838 18.5212 46.4429 19.2457 44.873C19.9701 43.303 21.0564 42.3378 22.7468 41.9752C27.5639 40.9432 31.1986 34.6706 33.6134 36.1195C36.0282 37.5684 33.4916 43.1309 28.6621 44.8213C23.8325 46.5116 21.2986 48.4349 18.0383 50.8497C14.778 53.2645 12.8468 56.1623 12.8468 58.3356Z" fill="url(#paint17_linear)"/>
<path d="M70.4904 44.2218C64.1844 44.9816 54.8452 37.2339 48.464 34.1274C43.3026 31.6145 38.8546 29.0001 35.1957 27.8496L33.614 36.1195C33.6147 36.1195 33.6147 36.1201 33.6153 36.1201C34.1022 36.412 34.3692 36.8079 34.4504 37.2667V37.2673C34.5191 37.5271 34.5387 37.8151 34.5256 38.1181C34.5243 38.1495 34.523 38.1796 34.5204 38.2116C34.4994 38.5199 34.4432 38.8418 34.3443 39.1769C39.6922 33.35 43.0566 32.8408 46.1454 34.1012C51.4109 36.2497 57.2836 45.0581 64.437 45.0581C71.559 45.0581 73.4418 49.2647 73.4568 49.2935C73.1532 47.7295 72.7769 46.3997 72.4719 45.4541C72.3358 45.0326 72.061 44.6976 71.7102 44.4816C71.3673 44.2709 70.9511 44.1779 70.5218 44.2231C70.51 44.2244 70.5002 44.2205 70.4904 44.2218Z" fill="url(#paint18_linear)"/>
<path d="M48.464 34.1277C44.5676 32.2305 41.0783 30.2764 38.0274 28.9375L34.737 36.2506C35.9195 35.2336 38.3369 34.5622 43.3033 35.8481C53.4455 38.4743 59.15 52.5096 64.3114 52.2989C68.9656 52.1084 68.7784 48.9162 73.6728 50.5444C73.3515 48.4371 72.8548 46.6434 72.4713 45.455C72.3352 45.0335 72.0603 44.6985 71.7096 44.4825C71.3588 44.2665 70.9314 44.1697 70.4917 44.2227C64.1844 44.9818 54.8452 37.2342 48.464 34.1277Z" fill="url(#paint19_linear)"/>
<path d="M33.6133 36.1204C36.0281 37.5693 33.4916 43.1318 28.662 44.8222C25.0156 46.0983 22.678 47.5079 20.3483 49.161C23.4751 47.2939 27.043 47.0472 29.7543 45.7233C36.2389 42.5579 36.3043 35.4307 36.3043 35.4307L33.6133 36.1204Z" fill="url(#paint20_linear)"/>
<path d="M31.8026 27.2456C27.6372 27.2456 14.1451 34.7616 12.4247 36.482C10.7036 38.2025 9.97913 40.1945 9.97913 42.6394C9.97913 45.0843 8.43994 50.8798 8.43994 55.86C8.43994 56.4581 8.4635 56.9967 8.50604 57.4823C9.53282 52.2489 10.4699 39.6946 13.3075 37.2706C16.8053 34.2825 28.9435 27.2194 34.2841 28.0342C34.811 28.1147 35.2193 28.0741 35.5701 27.9766C34.2082 27.5205 32.9485 27.2456 31.8026 27.2456Z" fill="url(#paint21_linear)"/>
<path d="M34.2586 36.7498C34.3129 36.8408 34.3476 36.9396 34.3816 37.0391L34.7363 36.2505C34.5498 36.4108 34.3888 36.5777 34.2586 36.7498Z" fill="url(#paint22_linear)"/>
<path d="M17.7967 49.8841C17.7967 49.8841 18.5212 46.4432 19.2456 44.8739C19.9701 43.3039 21.0564 42.3387 22.7474 41.9761C23.57 41.7994 24.356 41.4631 25.1092 41.0455C28.4801 37.6831 32.7299 29.8432 31.4086 31.2489C23.0229 40.1693 23.053 38.1772 19.5218 41.7085C15.9906 45.2397 17.0317 49.1793 15.1751 51.0352C13.5614 52.649 10.4666 56.5002 10.8344 60.4725C11.1898 60.2579 11.5706 59.9019 11.9718 59.3914C12.0955 59.2455 12.8526 58.5747 12.8474 58.3346C12.8474 58.3346 12.708 57.1193 13.8264 55.2994C13.8356 55.2856 13.8454 55.2758 13.8545 55.2621C14.5443 54.1057 15.5671 52.9068 16.8799 51.7747C17.0016 51.6032 17.1207 51.4239 17.2411 51.2472C17.4486 50.8448 17.6344 50.3291 17.7967 49.8841Z" fill="url(#paint23_linear)"/>
<path d="M70.6494 65.8208C70.9295 65.5407 71.493 64.4583 72.0793 62.9073C66.2884 55.6224 59.3044 57.5038 57.2175 59.3008C55.0442 61.1725 51.3618 63.3458 46.8339 61.4742C42.306 59.6025 40.7367 53.3247 34.5184 53.3247C28.3002 53.3247 23.8331 57.2185 20.9354 58.6674C18.4002 59.935 15.9081 59.8551 12.9273 57.3036L12.8461 58.3349C12.9253 61.6986 16.0515 62.8321 18.2189 62.8321C20.5735 62.8321 25.547 60.0115 27.2675 58.7439C28.988 57.4763 34.699 56.2218 39.4076 59.0293C44.1161 61.8367 46.8326 63.9191 51.9037 63.9191C56.9747 63.9191 57.156 60.6594 61.4117 60.6594C70.3798 60.6594 69.925 66.5452 70.6494 65.8208Z" fill="url(#paint24_linear)"/>
<path d="M70.6494 65.8211C70.8889 65.5815 71.3398 64.7288 71.8326 63.5208C71.2096 62.3743 70.0532 61.4221 68.1482 60.8154C57.9158 57.5558 57.9158 62.9887 50.2185 63.2132C42.5219 63.437 40.077 55.2915 35.7304 55.2915C26.1426 55.2915 21.2874 62.3383 14.564 61.6924C15.6562 62.4973 17.0678 62.833 18.2195 62.833C20.5741 62.833 25.5477 60.0125 27.2681 58.7449C28.9886 57.4773 34.6997 56.2227 39.4082 59.0302C44.1167 61.8376 46.8332 63.92 51.9043 63.92C56.9754 63.92 57.1566 60.6603 61.4123 60.6603C70.3798 60.6597 69.925 66.5455 70.6494 65.8211Z" fill="url(#paint25_linear)"/>
<path d="M16.8799 51.7754C16.8766 51.7787 16.8734 51.7819 16.8694 51.7852C16.8727 51.7819 16.876 51.7787 16.8799 51.7754C16.8793 51.776 16.8793 51.776 16.8799 51.7754Z" fill="url(#paint26_linear)"/>
<path opacity="0.16" d="M36.6904 41.938C38.958 41.5179 40.1202 40.5193 41.9558 40.179C43.7915 39.8387 52.0633 39.0593 52.7635 43.0329C53.4638 47.0065 47.6787 49.274 44.2947 50.952C40.9107 52.6305 32.2188 51.7647 31.1063 48.6131C29.9925 45.4614 33.1271 42.5983 36.6904 41.938Z" fill="url(#paint27_radial)"/>
<path opacity="0.16" d="M21.7946 39.8675C20.6873 41.0913 18.8863 40.8989 17.9904 41.8897C17.0939 42.8805 14.043 52.5953 11.9155 50.6117C9.78799 48.6282 11.7957 41.7038 12.9907 39.2727C14.1857 36.8415 24.371 30.3248 26.3755 31.6566C28.38 32.989 23.534 37.9449 21.7946 39.8675Z" fill="url(#paint28_radial)"/>
<path d="M52.6182 9.5412C52.3224 9.03665 51.8205 8.34166 51.083 7.83121C50.35 7.32339 49.5412 7.10612 48.9764 7.01319C48.5537 6.94383 48.106 7.15193 47.8345 7.54458L17.9898 50.6117C18.0186 50.6824 18.0611 50.7393 18.0932 50.8061C18.2804 50.666 18.4544 50.5122 18.6357 50.3657L18.5362 50.4828C21.5623 48.2414 24.0844 46.4248 28.662 44.8221C28.8093 44.7704 28.9415 44.6971 29.0841 44.6389L30.9054 42.0107L52.5273 10.8088C52.8028 10.4116 52.8375 9.91422 52.6182 9.5412Z" fill="url(#paint29_linear)"/>
<path d="M21.3987 47.8717L48.2651 9.05497C49.0144 7.81813 49.3409 7.0734 48.9771 7.01319C48.5543 6.94383 48.1067 7.15193 47.8351 7.54458L17.9898 50.6117C18.0251 50.6994 18.0428 50.7563 18.067 50.827C19.26 49.939 20.3104 48.907 21.3987 47.8717Z" fill="url(#paint30_radial)"/>
<path d="M52.528 10.8079C52.5613 10.7595 52.5797 10.7065 52.6058 10.6561C52.6876 10.4977 52.7465 10.3328 52.7583 10.166C52.774 9.94542 52.7282 9.7275 52.6183 9.54164C52.6143 9.5351 52.6085 9.52659 52.6045 9.5207C52.4376 9.23865 52.2014 8.90228 51.903 8.56983C51.9023 8.56918 51.9017 8.56853 51.901 8.56787L26.0097 45.8781C26.8225 45.5156 27.6883 45.1628 28.6621 44.8212C28.8093 44.7695 28.9415 44.6962 29.0842 44.638L30.9054 42.0098L52.528 10.8079Z" fill="url(#paint31_linear)"/>
<path d="M61.4129 60.6596C60.0766 60.659 58.7737 61.0935 57.69 61.8611C56.6056 62.6065 55.4944 63.4141 54.1731 63.7387C51.5437 64.3204 48.7781 63.9494 46.2887 62.9861C43.7974 61.9835 41.5848 60.4672 39.2937 59.1394C37.0261 57.8018 34.3136 57.3378 31.709 57.5832C30.408 57.6997 29.0959 57.9791 27.9317 58.5452C26.8421 59.2094 25.7099 60.0111 24.5379 60.6191C23.3678 61.2584 22.1663 61.8467 20.915 62.3225C19.6867 62.8042 18.2902 63.1484 16.9545 62.831C15.6391 62.5764 14.3329 61.9305 13.5358 60.8049C12.7414 59.6937 12.5398 58.1905 12.9959 56.9157C13.9049 54.3517 15.9317 52.4225 18.0376 50.8506C15.9663 52.4644 13.992 54.4486 13.1648 56.9681C12.7375 58.2075 12.9449 59.6296 13.706 60.6819C14.4684 61.7433 15.7262 62.3585 16.999 62.5941C18.2967 62.8886 19.5912 62.5542 20.8182 62.0679C22.0478 61.5902 23.2356 60.998 24.3913 60.3547C25.5751 59.7264 26.6104 58.9732 27.7799 58.2488C29.0049 57.6441 30.3386 57.3522 31.6756 57.2233C34.3476 56.991 37.1256 57.4877 39.4461 58.8803C41.7353 60.2316 43.9309 61.7577 46.3771 62.7629C48.8108 63.7315 51.5574 64.1123 54.1286 63.5685C55.4237 63.2812 56.5323 62.5149 57.6415 61.7878C58.7508 61.0379 60.0792 60.6289 61.4129 60.6596Z" fill="#663C1D"/>
<path d="M34.2704 37.1547C34.3751 37.4695 34.434 37.8013 34.415 38.1377C34.2036 40.1749 32.8248 41.9457 31.2424 43.1904C29.677 44.5464 27.5508 44.939 25.6785 45.8873C23.7735 46.7583 22.0007 47.8904 20.3483 49.16C22.0838 48.005 23.8854 46.9559 25.7787 46.1058C26.7269 45.6844 27.6961 45.3101 28.6784 44.9757C29.6783 44.6321 30.6292 44.1282 31.4662 43.4751C33.0806 42.1453 34.4667 40.3169 34.6545 38.1501C34.6696 37.7339 34.612 37.3013 34.4386 36.9126L34.2704 37.1547Z" fill="#663C1D"/>
<defs>
<linearGradient id="paint0_linear" x1="36.7447" y1="44.6346" x2="15.6076" y2="22.506" gradientUnits="userSpaceOnUse">
<stop offset="0.00132565" stop-color="#FFCB4B"/>
<stop offset="1" stop-color="#FFD748"/>
</linearGradient>
<linearGradient id="paint1_linear" x1="32.6464" y1="40.1168" x2="34.5178" y2="49.5946" gradientUnits="userSpaceOnUse">
<stop offset="0.00132565" stop-color="#99643E"/>
<stop offset="1" stop-color="#AE7246"/>
</linearGradient>
<linearGradient id="paint2_linear" x1="49.6391" y1="65.8484" x2="49.8772" y2="71.5625" gradientUnits="userSpaceOnUse">
<stop offset="0.00132565" stop-color="#F0C492"/>
<stop offset="1" stop-color="#F8DBBA"/>
</linearGradient>
<linearGradient id="paint3_linear" x1="51.0272" y1="67.0341" x2="43.6622" y2="40.1098" gradientUnits="userSpaceOnUse">
<stop offset="0.00132565" stop-color="#99643E"/>
<stop offset="1" stop-color="#AE7246"/>
</linearGradient>
<linearGradient id="paint4_linear" x1="45.038" y1="74.5078" x2="44.9173" y2="58.0876" gradientUnits="userSpaceOnUse">
<stop stop-color="#8D562E" stop-opacity="0"/>
<stop offset="1" stop-color="#804B24"/>
</linearGradient>
<linearGradient id="paint5_linear" x1="2.94921" y1="52.1241" x2="15.0036" y2="62.9858" gradientUnits="userSpaceOnUse">
<stop offset="0.00132565" stop-color="#0097D4"/>
<stop offset="0.2368" stop-color="#0294D6"/>
<stop offset="0.4442" stop-color="#0989DB"/>
<stop offset="0.6411" stop-color="#1477E4"/>
<stop offset="0.8304" stop-color="#245EF0"/>
<stop offset="1" stop-color="#3640FF"/>
</linearGradient>
<linearGradient id="paint6_linear" x1="5.56841" y1="53.6717" x2="14.3232" y2="62.3388" gradientUnits="userSpaceOnUse">
<stop offset="0.00132565" stop-color="#0097D4"/>
<stop offset="0.2368" stop-color="#0294D6"/>
<stop offset="0.4442" stop-color="#0989DB"/>
<stop offset="0.6411" stop-color="#1477E4"/>
<stop offset="0.8304" stop-color="#245EF0"/>
<stop offset="1" stop-color="#3640FF"/>
</linearGradient>
<linearGradient id="paint7_linear" x1="9.10947" y1="59.0906" x2="14.7108" y2="62.8381" gradientUnits="userSpaceOnUse">
<stop stop-color="#0097D4" stop-opacity="0"/>
<stop offset="0.3342" stop-color="#029AD7" stop-opacity="0.3342"/>
<stop offset="0.6287" stop-color="#08A3E2" stop-opacity="0.6287"/>
<stop offset="0.9072" stop-color="#13B2F4" stop-opacity="0.9072"/>
<stop offset="1" stop-color="#17B9FC"/>
</linearGradient>
<linearGradient id="paint8_linear" x1="32.2525" y1="67.5464" x2="32.4939" y2="73.3418" gradientUnits="userSpaceOnUse">
<stop offset="0.00132565" stop-color="#F0C492"/>
<stop offset="1" stop-color="#F8DBBA"/>
</linearGradient>
<linearGradient id="paint9_linear" x1="33.1239" y1="69.9449" x2="29.3811" y2="44.4694" gradientUnits="userSpaceOnUse">
<stop offset="0.00132565" stop-color="#99643E"/>
<stop offset="1" stop-color="#AE7246"/>
</linearGradient>
<linearGradient id="paint10_linear" x1="31.7934" y1="72.319" x2="28.6241" y2="57.559" gradientUnits="userSpaceOnUse">
<stop stop-color="#8D562E" stop-opacity="0"/>
<stop offset="1" stop-color="#804B24"/>
</linearGradient>
<linearGradient id="paint11_linear" x1="26.4769" y1="67.7871" x2="26.7184" y2="73.5825" gradientUnits="userSpaceOnUse">
<stop offset="0.00132565" stop-color="#F0C492"/>
<stop offset="1" stop-color="#F8DBBA"/>
</linearGradient>
<linearGradient id="paint12_linear" x1="27.4727" y1="70.9877" x2="22.281" y2="43.822" gradientUnits="userSpaceOnUse">
<stop offset="0.00132565" stop-color="#99643E"/>
<stop offset="1" stop-color="#AE7246"/>
</linearGradient>
<linearGradient id="paint13_linear" x1="27.7098" y1="73.1959" x2="24.5404" y2="58.4358" gradientUnits="userSpaceOnUse">
<stop stop-color="#8D562E" stop-opacity="0"/>
<stop offset="1" stop-color="#804B24"/>
</linearGradient>
<linearGradient id="paint14_linear" x1="20.5239" y1="68.0353" x2="20.7654" y2="73.8306" gradientUnits="userSpaceOnUse">
<stop offset="0.00132565" stop-color="#F0C492"/>
<stop offset="1" stop-color="#F8DBBA"/>
</linearGradient>
<linearGradient id="paint15_linear" x1="21.5281" y1="68.2596" x2="13.9217" y2="40.8523" gradientUnits="userSpaceOnUse">
<stop offset="0.00132565" stop-color="#99643E"/>
<stop offset="1" stop-color="#AE7246"/>
</linearGradient>
<linearGradient id="paint16_linear" x1="22.475" y1="74.3196" x2="19.3057" y2="59.5595" gradientUnits="userSpaceOnUse">
<stop stop-color="#8D562E" stop-opacity="0"/>
<stop offset="1" stop-color="#804B24"/>
</linearGradient>
<linearGradient id="paint17_linear" x1="57.3274" y1="101.276" x2="36.1381" y2="39.1568" gradientUnits="userSpaceOnUse">
<stop offset="0.00132565" stop-color="#99643E"/>
<stop offset="1" stop-color="#AE7246"/>
</linearGradient>
<linearGradient id="paint18_linear" x1="53.0822" y1="45.4378" x2="57.5193" y2="18.6342" gradientUnits="userSpaceOnUse">
<stop stop-color="#8D562E" stop-opacity="0"/>
<stop offset="1" stop-color="#804B24"/>
</linearGradient>
<linearGradient id="paint19_linear" x1="52.343" y1="50.2107" x2="62.2132" y2="14.0802" gradientUnits="userSpaceOnUse">
<stop stop-color="#8D562E" stop-opacity="0"/>
<stop offset="1" stop-color="#804B24"/>
</linearGradient>
<linearGradient id="paint20_linear" x1="37.8247" y1="47.4796" x2="13.1039" y2="33.9873" gradientUnits="userSpaceOnUse">
<stop stop-color="#8D562E" stop-opacity="0"/>
<stop offset="1" stop-color="#804B24"/>
</linearGradient>
<linearGradient id="paint21_linear" x1="22.6362" y1="43.8611" x2="6.9706" y2="14.2504" gradientUnits="userSpaceOnUse">
<stop stop-color="#8D562E" stop-opacity="0"/>
<stop offset="1" stop-color="#804B24"/>
</linearGradient>
<linearGradient id="paint22_linear" x1="50.5086" y1="54.0341" x2="37.4691" y2="39.8173" gradientUnits="userSpaceOnUse">
<stop stop-color="#FFBB47" stop-opacity="0.9686"/>
<stop offset="0.0026513" stop-color="#FFBA47"/>
<stop offset="1" stop-color="#FFD748" stop-opacity="0"/>
</linearGradient>
<linearGradient id="paint23_linear" x1="8.37209" y1="42.6285" x2="34.9945" y2="49.1483" gradientUnits="userSpaceOnUse">
<stop stop-color="#8D562E" stop-opacity="0"/>
<stop offset="1" stop-color="#804B24"/>
</linearGradient>
<linearGradient id="paint24_linear" x1="42.4632" y1="48.7661" x2="42.4632" y2="76.2941" gradientUnits="userSpaceOnUse">
<stop stop-color="#8D562E" stop-opacity="0"/>
<stop offset="1" stop-color="#804B24"/>
</linearGradient>
<linearGradient id="paint25_linear" x1="43.1983" y1="47.0459" x2="43.1983" y2="73.8066" gradientUnits="userSpaceOnUse">
<stop stop-color="#8D562E" stop-opacity="0"/>
<stop offset="1" stop-color="#804B24"/>
</linearGradient>
<linearGradient id="paint26_linear" x1="16.8761" y1="51.7813" x2="16.8733" y2="51.7793" gradientUnits="userSpaceOnUse">
<stop offset="0.00132565" stop-color="#FFCB4B"/>
<stop offset="1" stop-color="#FFD748"/>
</linearGradient>
<radialGradient id="paint27_radial" cx="0" cy="0" r="1" gradientUnits="userSpaceOnUse" gradientTransform="translate(40.5049 44.7752) rotate(169.5) scale(7.95989 4.0436)">
<stop stop-color="#F8DBBA"/>
<stop offset="1" stop-color="#CD9870" stop-opacity="0"/>
</radialGradient>
<radialGradient id="paint28_radial" cx="0" cy="0" r="1" gradientUnits="userSpaceOnUse" gradientTransform="translate(17.8544 38.1852) rotate(-47.8592) scale(7.9824 4.08616)">
<stop stop-color="#F8DBBA"/>
<stop offset="1" stop-color="#CD9870" stop-opacity="0"/>
</radialGradient>
<linearGradient id="paint29_linear" x1="23.4176" y1="21.8488" x2="43.641" y2="35.3713" gradientUnits="userSpaceOnUse">
<stop offset="0.00132565" stop-color="#0097D4"/>
<stop offset="0.2368" stop-color="#0294D6"/>
<stop offset="0.4442" stop-color="#0989DB"/>
<stop offset="0.6411" stop-color="#1477E4"/>
<stop offset="0.8304" stop-color="#245EF0"/>
<stop offset="1" stop-color="#3640FF"/>
</linearGradient>
<radialGradient id="paint30_radial" cx="0" cy="0" r="1" gradientUnits="userSpaceOnUse" gradientTransform="translate(39.1111 21.0657) rotate(-55.4788) scale(27.8798 0.597152)">
<stop stop-color="white" stop-opacity="0.5"/>
<stop offset="1" stop-color="white" stop-opacity="0"/>
</radialGradient>
<linearGradient id="paint31_linear" x1="21.4946" y1="15.3217" x2="44.4345" y2="30.9571" gradientUnits="userSpaceOnUse">
<stop offset="0.00132565" stop-color="#0097D4"/>
<stop offset="0.2368" stop-color="#0294D6"/>
<stop offset="0.4442" stop-color="#0989DB"/>
<stop offset="0.6411" stop-color="#1477E4"/>
<stop offset="0.8304" stop-color="#245EF0"/>
<stop offset="1" stop-color="#3640FF"/>
</linearGradient>
</defs>
</svg>
