<svg width="80" height="80" viewBox="0 0 80 80" fill="none" xmlns="http://www.w3.org/2000/svg">
<path d="M35.588 42.3612C33.46 45.5075 30.441 47.1875 28.8424 46.1082C27.2489 45.0289 27.6816 41.6026 29.8097 38.4564C31.9377 35.3101 34.9568 33.6301 36.5503 34.7094C38.1438 35.7887 37.7212 39.2098 35.588 42.3612Z" fill="url(#paint0_linear)"/>
<path d="M35.588 42.3612C33.46 45.5075 30.441 47.1875 28.8424 46.1082C27.2489 45.0289 27.6816 41.6026 29.8097 38.4564C31.9377 35.3101 34.9568 33.6301 36.5503 34.7094C38.1438 35.7887 37.7212 39.2098 35.588 42.3612Z" fill="url(#paint1_linear)"/>
<path d="M61.4151 60.6631C57.159 60.6631 56.9757 63.9214 51.9051 63.9214C46.8344 63.9214 44.1157 61.8392 39.4065 59.0289C35.4813 56.687 30.8638 57.1758 28.4404 56.687L30.2478 57.9751C30.2478 57.9751 33.6333 62.2872 38.7447 64.8582C46.1573 68.5848 54.9291 64.293 58.7423 64.5578C63.4923 64.8836 69.3674 65.9222 70.4569 65.8407C69.9223 65.4029 69.4743 60.6631 61.4151 60.6631Z" fill="url(#paint2_linear)"/>
<path d="M61.4151 60.6631C57.159 60.6631 56.9757 63.9214 51.9051 63.9214C46.8344 63.9214 44.1157 61.8392 39.4065 59.0289C35.4813 56.687 30.8638 57.1758 28.4404 56.687L31.6936 59.426C31.6936 59.426 33.6333 62.2872 38.7447 64.8582C46.1573 68.5848 54.9291 64.293 58.7423 64.5578C63.4923 64.8836 69.3674 65.9222 70.4569 65.8407C69.9223 65.4029 69.4743 60.6631 61.4151 60.6631Z" fill="url(#paint3_linear)"/>
<path d="M61.4151 60.6635C57.159 60.6635 56.9757 63.9218 51.9051 63.9218C46.8344 63.9218 44.1157 61.8395 39.4065 59.0293C35.4813 56.6874 30.8638 57.1761 28.4404 58.1333L31.6936 59.4213C31.6936 59.4213 32.8544 61.1115 35.7003 63.0614C36.0414 62.8017 36.2093 63.7538 36.1228 62.929C35.3744 55.7455 42.8532 64.8076 49.553 64.6294C57.0776 64.4309 61.4151 60.6635 61.4151 60.6635Z" fill="url(#paint4_linear)"/>
<path d="M17.9883 50.6133L10.0921 62.0121C9.40476 62.9998 7.35309 68.1265 6.06505 71.4204C5.75959 72.2044 6.59451 72.7848 7.2258 72.2197C9.81206 69.8982 13.8289 66.2683 14.7911 65.2653L23.1811 53.1639C20.7782 53.1079 18.7468 52.4919 17.9883 50.6133Z" fill="url(#paint5_linear)"/>
<path d="M6.1311 72.169C6.35511 72.4795 6.82855 72.5712 7.22056 72.2199C9.80681 69.8984 13.8237 66.2684 14.7859 65.2655L23.1759 53.1641C22.4428 53.1488 21.7454 53.0674 21.109 52.9248L13.8339 63.4073C13.3451 63.8858 10.3821 68.0554 6.1311 72.169Z" fill="url(#paint6_linear)"/>
<path d="M18.696 51.7791C18.1462 51.3973 18.2582 51.2802 17.9884 50.6133L10.0921 62.0121C9.40486 62.9998 7.35318 68.1265 6.06515 71.4204C5.75968 72.2044 10.5045 63.5904 11.1104 62.7198L18.696 51.7791Z" fill="url(#paint7_linear)"/>
<path d="M28.4198 62.9286C31.5609 66.4313 34.3356 67.3375 36.932 67.3375C39.5284 67.3375 40.0732 66.0698 39.5284 65.1331C38.9837 64.1963 37.4156 62.3279 34.9414 61.9613C32.4671 61.5999 30.3544 55.9844 30.3544 55.9844L27.2743 55.9233L24.3774 59.5431L28.4198 62.9286Z" fill="url(#paint8_linear)"/>
<path d="M28.4198 62.9286C31.5609 66.4313 34.3356 67.3375 36.932 67.3375C39.5284 67.3375 40.0732 66.0698 39.5284 65.1331C38.9837 64.1963 37.4156 62.3279 34.9414 61.9613C32.4671 61.5999 30.3544 55.9844 30.3544 55.9844L27.2743 55.9233L24.3774 59.5431L28.4198 62.9286Z" fill="url(#paint9_linear)"/>
<path d="M29.784 63.8043C28.7098 61.7832 30.3033 60.2406 32.467 59.9962C31.2095 58.25 30.3542 55.9844 30.3542 55.9844L27.2741 55.9233L25.6908 57.8987L25.4973 58.4638C25.4973 58.4638 31.0211 66.1309 29.784 63.8043Z" fill="url(#paint10_linear)"/>
<path d="M30.3545 55.9844C30.9451 57.196 31.5305 58.4077 32.2942 59.5074C33.0527 60.5612 33.9335 61.7322 35.2674 61.8391C36.6318 62.1191 37.8638 62.8879 38.7751 63.9112C39.1926 64.4406 39.7068 64.9497 39.7984 65.693C39.8442 66.472 39.1314 66.9709 38.5052 67.1236C39.1264 66.9149 39.7271 66.365 39.6202 65.7083C39.5184 65.0923 38.994 64.5781 38.5663 64.0995C37.65 63.1577 36.479 62.4296 35.191 62.1955C34.5139 62.1293 33.8113 61.7474 33.3328 61.2689C32.8338 60.7852 32.4113 60.2405 32.0549 59.6652C31.6985 59.0848 31.3778 58.4892 31.0927 57.8732C30.8229 57.247 30.5989 56.6106 30.3545 55.9844Z" fill="#804B24"/>
<path d="M23.0487 63.4685C23.9549 66.6097 27.6968 68.8396 30.2932 68.6003C31.9173 68.4476 32.345 65.9428 30.4154 64.0133C28.4859 62.0838 27.2692 58.7491 27.2692 58.7491L25.5229 53.3271L22.8043 60.2714L21.053 64.0133L23.0487 63.4685Z" fill="url(#paint11_linear)"/>
<path d="M23.0487 63.4685C23.9549 66.6097 27.6968 68.8396 30.2932 68.6003C31.9173 68.4476 32.345 65.9428 30.4154 64.0133C28.4859 62.0838 27.2692 58.7491 27.2692 58.7491L25.5229 53.3271L22.8043 60.2714L21.053 64.0133L23.0487 63.4685Z" fill="url(#paint12_linear)"/>
<path d="M28.7151 61.732C27.8038 60.1945 27.2692 58.7435 27.2692 58.7435L26.3834 55.9893L24.4183 56.1573L22.8095 60.2657L21.8931 62.2309L22.504 63.6156L23.0538 63.468C23.4662 64.8986 24.4794 66.1204 25.691 67.0266C24.4081 64.7153 26.4088 62.0578 28.7151 61.732Z" fill="url(#paint13_linear)"/>
<path d="M31.683 66.9757C31.6627 65.9219 31.1281 64.9852 30.4307 64.2673C29.6772 63.5291 29.0917 62.6229 28.5826 61.7167C27.5644 59.8839 26.7346 57.9646 26.0676 55.9893C26.9687 57.8679 27.8597 59.7516 28.8881 61.5436C29.4277 62.4294 29.9317 63.3255 30.6648 64.0535C31.3827 64.8375 31.846 65.927 31.683 66.9757Z" fill="#804B24"/>
<path d="M16.5474 62.6182C16.5474 65.4234 20.0908 68.6002 22.2036 68.6002C24.3163 68.6002 24.3774 65.7645 24.0159 64.675C23.6545 63.5906 23.1199 61.1978 23.1199 61.1978L21.2973 60.0269L16.5474 62.6182Z" fill="url(#paint14_linear)"/>
<path d="M16.5474 62.6182C16.5474 65.4234 20.0908 68.6002 22.2036 68.6002C24.3163 68.6002 24.3774 65.7645 24.0159 64.675C23.6545 63.5906 23.1199 61.1978 23.1199 61.1978L21.2973 60.0269L16.5474 62.6182Z" fill="url(#paint15_linear)"/>
<path d="M23.4814 62.7353C23.2777 61.9156 23.1199 61.1978 23.1199 61.1978L21.2973 60.0269L16.5474 62.6131C16.5474 64.3339 17.8761 66.187 19.3933 67.3682C18.9656 64.9855 21.8777 63.4073 23.4814 62.7353Z" fill="url(#paint16_linear)"/>
<path d="M23.9042 67.4293C24.0976 66.7267 24.0824 66.0089 23.9907 65.3216C23.8787 64.6649 23.5783 63.9521 23.446 63.2496C23.0998 61.8444 22.8198 60.4291 22.606 58.9985C23.0387 60.3782 23.4154 61.7732 23.7769 63.1681C23.9398 63.8808 24.2097 64.5121 24.3064 65.286C24.3726 66.0242 24.2605 66.7929 23.9042 67.4293Z" fill="#804B24"/>
<path d="M12.8461 58.3365C12.9225 61.5235 15.8651 62.8318 18.2172 62.8318C20.5693 62.8318 25.5432 60.0114 27.264 58.7437C28.9848 57.4761 34.6969 56.2236 39.4062 59.0288C44.1154 61.834 46.834 63.9213 51.9047 63.9213C56.9754 63.9213 57.1587 60.6631 61.4148 60.6631C70.3801 60.6631 69.927 66.5483 70.65 65.8254C71.3729 65.1024 73.9999 59.0339 73.9999 53.2403C73.9999 49.4067 73.0886 47.3754 72.4726 45.4612C72.2027 44.6161 71.3729 44.1222 70.4922 44.2291C64.1844 44.9877 54.8474 37.2391 48.4632 34.1336C41.5801 30.7837 35.9647 27.2505 31.8002 27.2505C27.6357 27.2505 14.1444 34.7649 12.4236 36.4857C10.7028 38.2064 9.97989 40.197 9.97989 42.6458C9.97989 45.0895 8.44238 50.8882 8.44238 55.8673C8.44238 59.8485 9.42499 61.3402 10.8403 60.4849C11.1967 60.271 11.5734 59.9096 11.9756 59.4005C12.0927 59.2477 12.8512 58.5808 12.8461 58.3365C12.8461 56.4324 14.3276 53.9785 16.8783 51.7741C17.2448 51.4584 17.5452 50.5726 17.7947 49.8802C17.7947 49.8802 18.5176 46.4387 19.2456 44.8706C19.9736 43.3026 21.058 42.3353 22.7482 41.9738C27.5644 40.9403 31.1994 34.6681 33.6126 36.1191C36.0257 37.57 33.4904 43.1295 28.659 44.8197C23.8276 46.5099 21.2973 48.4344 18.0339 50.8475C14.7706 53.2607 12.8461 56.1626 12.8461 58.3365Z" fill="url(#paint17_linear)"/>
<path d="M70.4921 44.2244C64.1843 44.983 54.8473 37.2344 48.4632 34.1288C43.3008 31.6139 38.8512 29.0021 35.1958 27.8516L33.6125 36.1194C34.1013 36.4096 34.366 36.8067 34.4475 37.2649C34.5188 37.5246 34.534 37.8148 34.5239 38.1151C34.5239 38.1457 34.5187 38.1762 34.5187 38.2068C34.4984 38.5173 34.4424 38.8381 34.3406 39.1741C39.6862 33.3448 43.0513 32.8357 46.1416 34.0983C51.4058 36.2467 57.2809 45.0542 64.4338 45.0542C71.5562 45.0542 73.4398 49.2594 73.4551 49.29C73.1496 47.727 72.7729 46.3983 72.4725 45.4513C72.3351 45.0288 72.0602 44.6928 71.7089 44.4789C71.3678 44.2702 70.9503 44.1735 70.5227 44.2193C70.5074 44.2295 70.5023 44.2244 70.4921 44.2244Z" fill="url(#paint18_linear)"/>
<path d="M48.4633 34.1282C44.5686 32.2292 41.0762 30.2794 38.0266 28.9404L34.7378 36.2512C35.9189 35.233 38.3372 34.5609 43.3061 35.849C53.4474 38.476 59.1545 52.512 64.3168 52.2982C68.97 52.1098 68.7817 48.9177 73.6793 50.5418C73.3585 48.4341 72.8596 46.642 72.4778 45.4507C72.3403 45.0282 72.0654 44.6921 71.7141 44.4783C71.3629 44.2645 70.9352 44.1678 70.4974 44.2187C64.1845 44.9823 54.8424 37.2337 48.4633 34.1282Z" fill="url(#paint19_linear)"/>
<path d="M33.6127 36.124C36.0259 37.575 33.4905 43.1344 28.6591 44.8246C25.0139 46.1025 22.6772 47.5127 20.3455 49.1622C23.4714 47.2938 27.0402 47.0494 29.7537 45.7257C36.2397 42.5591 36.3059 35.4316 36.3059 35.4316L33.6127 36.124Z" fill="url(#paint20_linear)"/>
<path d="M31.8002 27.2456C27.6357 27.2456 14.1444 34.76 12.4236 36.4808C10.7028 38.2015 9.97989 40.1921 9.97989 42.6409C9.97989 45.0846 8.44238 50.8834 8.44238 55.8624C8.44238 56.4581 8.46788 56.9977 8.50861 57.4865C9.537 52.2529 10.4737 39.6983 13.3095 37.275C16.807 34.2865 28.9441 27.2252 34.2846 28.0398C34.8141 28.1213 35.2213 28.0805 35.5726 27.9838C34.2082 27.5205 32.9457 27.2456 31.8002 27.2456Z" fill="url(#paint21_linear)"/>
<path d="M34.2595 36.7509C34.3155 36.8425 34.3511 36.9392 34.3817 37.0411L34.7381 36.252C34.5497 36.4149 34.3868 36.5829 34.2595 36.7509Z" fill="url(#paint22_linear)"/>
<path d="M17.7947 49.8855C17.7947 49.8855 18.5177 46.4439 19.2457 44.8759C19.9686 43.3078 21.0581 42.3405 22.7483 41.9791C23.5731 41.8009 24.3571 41.4649 25.1106 41.0474C28.4809 37.6873 32.7319 29.8471 31.4082 31.2522C23.0233 40.1717 23.0538 38.1811 19.5206 41.7143C15.9874 45.2475 17.0311 49.1829 15.1728 51.0411C13.559 52.655 10.4636 56.5038 10.8302 60.4799C11.1866 60.2661 11.5684 59.9098 11.9655 59.4006C12.0877 59.253 12.8462 58.5861 12.8411 58.3417C12.8411 58.3417 12.7037 57.125 13.8186 55.3074C13.8288 55.2922 13.839 55.282 13.8441 55.2718C14.5314 54.1161 15.5547 52.9146 16.8681 51.7844C16.9903 51.6113 17.1075 51.4332 17.2296 51.255C17.4486 50.8477 17.6318 50.3335 17.7947 49.8855Z" fill="url(#paint23_linear)"/>
<path d="M70.65 65.8255C70.93 65.5455 71.4951 64.4611 72.0806 62.9134C66.287 55.6281 59.3072 57.5118 57.2198 59.3089C55.0459 61.1824 51.3651 63.3563 46.8341 61.4828C42.303 59.6093 40.735 53.332 34.5188 53.332C28.3026 53.332 23.8327 57.2267 20.9359 58.6725C18.4005 59.9402 15.9059 59.8588 12.9277 57.3081L12.8462 58.3416C12.9276 61.7068 16.0536 62.837 18.2173 62.837C20.5693 62.837 25.5484 60.0166 27.2641 58.7489C28.9848 57.4812 34.697 56.2288 39.4062 59.034C44.1154 61.8392 46.8341 63.9265 51.9048 63.9265C56.9754 63.9265 57.1587 60.6682 61.4148 60.6682C70.3802 60.6632 69.9271 66.5484 70.65 65.8255Z" fill="url(#paint24_radial)"/>
<path d="M70.6501 65.8252C70.8894 65.5859 71.3425 64.7306 71.8312 63.524C71.2101 62.3785 70.0493 61.4265 68.1453 60.8207C57.9123 57.5624 57.9123 62.9946 50.2146 63.2186C42.5169 63.4426 40.0732 55.2969 35.7255 55.2969C26.139 55.2969 21.2822 62.3429 14.5569 61.6963C15.6464 62.5007 17.0617 62.8367 18.2123 62.8367C20.5643 62.8367 25.5434 60.0163 27.2591 58.7486C28.9798 57.4809 34.692 56.2285 39.4012 59.0337C44.1104 61.8389 46.8291 63.9262 51.8998 63.9262C56.9704 63.9262 57.1537 60.6679 61.4098 60.6679C70.3803 60.6628 69.9272 66.5481 70.6501 65.8252Z" fill="url(#paint25_linear)"/>
<path d="M16.8786 51.7793C16.8734 51.7845 16.8734 51.7845 16.8682 51.7897C16.8734 51.7845 16.8734 51.7793 16.8786 51.7793Z" fill="url(#paint26_linear)"/>
<path opacity="0.75" d="M36.6877 41.9384C38.9532 41.5158 40.119 40.518 41.9518 40.1769C43.7897 39.8358 52.0576 39.0568 52.7601 43.0329C53.4627 47.0091 47.6742 49.2746 44.2886 50.9546C40.9031 52.6347 32.2126 51.7692 31.0977 48.6178C29.9929 45.4664 33.124 42.6002 36.6877 41.9384Z" fill="url(#paint27_radial)"/>
<path opacity="0.75" d="M21.7911 39.8714C20.6863 41.0933 18.8841 40.9049 17.988 41.8926C17.092 42.8853 14.0425 52.5991 11.9144 50.6135C9.78637 48.628 11.7974 41.7042 12.9887 39.2758C14.1851 36.8423 24.3671 30.3257 26.373 31.6596C28.3789 32.9934 23.5322 37.947 21.7911 39.8714Z" fill="url(#paint28_radial)"/>
<path d="M52.6176 9.54406C52.3223 9.04005 51.8183 8.34257 51.0801 7.83347C50.347 7.32436 49.5376 7.11054 48.9725 7.01381C48.5499 6.94254 48.1019 7.15127 47.832 7.54328L17.9883 50.6136C18.0188 50.6848 18.0596 50.7408 18.0901 50.807C18.2785 50.6645 18.4516 50.5118 18.6349 50.3641L18.533 50.4812C21.5571 48.2411 24.0823 46.4236 28.6592 44.82C28.8068 44.7691 28.9392 44.6927 29.0817 44.6367L30.9043 42.0097L52.526 10.8066C52.8009 10.4146 52.8365 9.91571 52.6176 9.54406Z" fill="url(#paint29_linear)"/>
<path d="M21.3993 47.8746L48.2648 9.05532C49.0132 7.81819 49.339 7.07491 48.9775 7.01381C48.555 6.94254 48.107 7.15127 47.8372 7.54328L17.9883 50.6136C18.0239 50.7001 18.0392 50.7561 18.0646 50.8274C19.261 49.9416 20.3098 48.9081 21.3993 47.8746Z" fill="url(#paint30_radial)"/>
<path d="M52.5259 10.8114C52.5615 10.7655 52.5768 10.7095 52.6023 10.6586C52.6837 10.5008 52.7448 10.3328 52.755 10.1699C52.7703 9.95097 52.7244 9.73205 52.6175 9.54369C52.6124 9.53859 52.6074 9.5284 52.6023 9.52331C52.4343 9.24331 52.2001 8.9073 51.8997 8.57129L26.0066 45.8785C26.8212 45.5171 27.6867 45.1607 28.6591 44.8196C28.8067 44.7687 28.9391 44.6923 29.0816 44.6363L30.9042 42.0093L52.5259 10.8114Z" fill="url(#paint31_linear)"/>
<path d="M61.4148 60.663C60.0759 60.663 58.7777 61.0957 57.6933 61.8645C56.6089 62.6078 55.499 63.4172 54.1754 63.7431C51.5484 64.3234 48.7788 63.9518 46.2893 62.9896C43.7998 61.9867 41.5852 60.4695 39.2942 59.1408C37.0287 57.8018 34.3151 57.3385 31.7085 57.5829C30.4052 57.7 29.0968 57.98 27.931 58.5451C26.8415 59.2069 25.7113 60.0113 24.5353 60.6172C23.3643 61.2586 22.1628 61.8441 20.9104 62.3227C19.6835 62.8063 18.2834 63.1474 16.9496 62.8318C15.6361 62.5772 14.3277 61.9307 13.5284 60.8055C12.7342 59.6957 12.5306 58.1887 12.9888 56.916C13.9001 54.3501 15.9263 52.4206 18.0289 50.8525C15.9568 52.4664 13.9815 54.4519 13.1568 56.972C12.7291 58.2091 12.9378 59.6346 13.6964 60.6833C14.46 61.7474 15.7175 62.3583 16.9903 62.5976C18.2885 62.8929 19.5817 62.5569 20.8086 62.0732C22.0355 61.5947 23.2269 61.0041 24.3825 60.3575C25.5687 59.7313 26.6022 58.9778 27.7731 58.2498C29.0001 57.644 30.3339 57.3538 31.6678 57.2265C34.3406 56.9923 37.1203 57.4913 39.4368 58.8811C41.7277 60.2302 43.922 61.7576 46.3657 62.7656C48.7992 63.7329 51.5484 64.1147 54.1193 63.57C55.4125 63.2849 56.5223 62.5161 57.6322 61.7881C58.7522 61.0397 60.0809 60.6324 61.4148 60.663Z" fill="#804B24"/>
<path d="M34.2695 37.1582C34.3764 37.4739 34.4324 37.8048 34.412 38.1408C34.1982 40.1772 32.8236 41.9489 31.2403 43.1962C29.6774 44.5504 27.5493 44.9424 25.6758 45.8945C23.7717 46.765 22.0001 47.9003 20.3455 49.168C22.0815 48.0124 23.8837 46.9636 25.7776 46.1134C26.7245 45.6908 27.6969 45.3192 28.6795 44.9832C29.6773 44.637 30.6294 44.1381 31.4694 43.4813C33.0833 42.1525 34.468 40.3249 34.6564 38.1561C34.6717 37.7386 34.6156 37.3059 34.4426 36.9189L34.2695 37.1582Z" fill="#804B24"/>
<defs>
<linearGradient id="paint0_linear" x1="36.751" y1="44.6495" x2="15.6133" y2="22.5204" gradientUnits="userSpaceOnUse">
<stop offset="0.00132565" stop-color="#FFCB4B"/>
<stop offset="1" stop-color="#FFD748"/>
</linearGradient>
<linearGradient id="paint1_linear" x1="34.2971" y1="57.3553" x2="32.8483" y2="41.9609" gradientUnits="userSpaceOnUse">
<stop stop-color="#E6AF74" stop-opacity="0"/>
<stop offset="1" stop-color="#E6AF74"/>
</linearGradient>
<linearGradient id="paint2_linear" x1="49.6386" y1="65.8511" x2="49.8767" y2="71.5655" gradientUnits="userSpaceOnUse">
<stop offset="0.00132565" stop-color="#F0C492"/>
<stop offset="1" stop-color="#F8DBBA"/>
</linearGradient>
<linearGradient id="paint3_linear" x1="51.0266" y1="67.0369" x2="43.6614" y2="40.1119" gradientUnits="userSpaceOnUse">
<stop stop-color="#D2A374" stop-opacity="0"/>
<stop offset="1" stop-color="#B88653"/>
</linearGradient>
<linearGradient id="paint4_linear" x1="45.6166" y1="67.4336" x2="43.6243" y2="44.2516" gradientUnits="userSpaceOnUse">
<stop stop-color="#FFBA47" stop-opacity="0"/>
<stop offset="1" stop-color="#C66F34"/>
</linearGradient>
<linearGradient id="paint5_linear" x1="2.95642" y1="52.1291" x2="15.0112" y2="62.9912" gradientUnits="userSpaceOnUse">
<stop offset="0.00132565" stop-color="#0097D4"/>
<stop offset="0.2368" stop-color="#0294D6"/>
<stop offset="0.4442" stop-color="#0989DB"/>
<stop offset="0.6411" stop-color="#1477E4"/>
<stop offset="0.8304" stop-color="#245EF0"/>
<stop offset="1" stop-color="#3640FF"/>
</linearGradient>
<linearGradient id="paint6_linear" x1="5.57558" y1="53.6772" x2="14.3306" y2="62.3446" gradientUnits="userSpaceOnUse">
<stop offset="0.00132565" stop-color="#0097D4"/>
<stop offset="0.2368" stop-color="#0294D6"/>
<stop offset="0.4442" stop-color="#0989DB"/>
<stop offset="0.6411" stop-color="#1477E4"/>
<stop offset="0.8304" stop-color="#245EF0"/>
<stop offset="1" stop-color="#3640FF"/>
</linearGradient>
<linearGradient id="paint7_linear" x1="9.11693" y1="59.0962" x2="14.7184" y2="62.8438" gradientUnits="userSpaceOnUse">
<stop stop-color="#0097D4" stop-opacity="0"/>
<stop offset="0.3342" stop-color="#029AD7" stop-opacity="0.3342"/>
<stop offset="0.6287" stop-color="#08A3E2" stop-opacity="0.6287"/>
<stop offset="0.9072" stop-color="#13B2F4" stop-opacity="0.9072"/>
<stop offset="1" stop-color="#17B9FC"/>
</linearGradient>
<linearGradient id="paint8_linear" x1="32.2511" y1="67.5494" x2="32.4925" y2="73.3449" gradientUnits="userSpaceOnUse">
<stop offset="0.00132565" stop-color="#F0C492"/>
<stop offset="1" stop-color="#F8DBBA"/>
</linearGradient>
<linearGradient id="paint9_linear" x1="33.1226" y1="69.9479" x2="29.3796" y2="44.4717" gradientUnits="userSpaceOnUse">
<stop stop-color="#D2A374" stop-opacity="0"/>
<stop offset="1" stop-color="#B88653"/>
</linearGradient>
<linearGradient id="paint10_linear" x1="29.446" y1="63.7931" x2="28.2687" y2="52.2473" gradientUnits="userSpaceOnUse">
<stop stop-color="#FFBA47" stop-opacity="0"/>
<stop offset="1" stop-color="#C66F34"/>
</linearGradient>
<linearGradient id="paint11_linear" x1="26.4754" y1="67.7902" x2="26.7169" y2="73.5857" gradientUnits="userSpaceOnUse">
<stop offset="0.00132565" stop-color="#F0C492"/>
<stop offset="1" stop-color="#F8DBBA"/>
</linearGradient>
<linearGradient id="paint12_linear" x1="27.4711" y1="70.9909" x2="22.2794" y2="43.8244" gradientUnits="userSpaceOnUse">
<stop stop-color="#D2A374" stop-opacity="0"/>
<stop offset="1" stop-color="#B88653"/>
</linearGradient>
<linearGradient id="paint13_linear" x1="27.2941" y1="68.8175" x2="22.3136" y2="51.7479" gradientUnits="userSpaceOnUse">
<stop stop-color="#FFBA47" stop-opacity="0"/>
<stop offset="1" stop-color="#C66F34"/>
</linearGradient>
<linearGradient id="paint14_linear" x1="20.5222" y1="68.0382" x2="20.7636" y2="73.8337" gradientUnits="userSpaceOnUse">
<stop offset="0.00132565" stop-color="#F0C492"/>
<stop offset="1" stop-color="#F8DBBA"/>
</linearGradient>
<linearGradient id="paint15_linear" x1="21.5264" y1="68.2625" x2="13.9198" y2="40.8545" gradientUnits="userSpaceOnUse">
<stop stop-color="#D2A374" stop-opacity="0"/>
<stop offset="1" stop-color="#B88653"/>
</linearGradient>
<linearGradient id="paint16_linear" x1="24.3947" y1="71.0847" x2="15.6562" y2="54.4679" gradientUnits="userSpaceOnUse">
<stop stop-color="#FFBA47" stop-opacity="0"/>
<stop offset="1" stop-color="#C66F34"/>
</linearGradient>
<linearGradient id="paint17_linear" x1="57.3266" y1="101.28" x2="36.1368" y2="39.1592" gradientUnits="userSpaceOnUse">
<stop offset="0.00132565" stop-color="#F0C492"/>
<stop offset="1" stop-color="#F8DBBA"/>
</linearGradient>
<linearGradient id="paint18_linear" x1="51.2488" y1="49.7286" x2="64.832" y2="0.466733" gradientUnits="userSpaceOnUse">
<stop stop-color="#FFBC47" stop-opacity="0"/>
<stop offset="1" stop-color="#C86F34"/>
</linearGradient>
<linearGradient id="paint19_linear" x1="49.3785" y1="49.2505" x2="84.876" y2="-2.90915" gradientUnits="userSpaceOnUse">
<stop stop-color="#FFBC47" stop-opacity="0"/>
<stop offset="1" stop-color="#C86F34"/>
</linearGradient>
<linearGradient id="paint20_linear" x1="41.5682" y1="65.8412" x2="25.2683" y2="36.8637" gradientUnits="userSpaceOnUse">
<stop stop-color="#E6AF74" stop-opacity="0"/>
<stop offset="1" stop-color="#E6AF74"/>
</linearGradient>
<linearGradient id="paint21_linear" x1="28.6816" y1="51.5366" x2="-27.8247" y2="-23.3222" gradientUnits="userSpaceOnUse">
<stop stop-color="#FFBC47" stop-opacity="0"/>
<stop offset="1" stop-color="#C86F34"/>
</linearGradient>
<linearGradient id="paint22_linear" x1="50.5071" y1="54.0372" x2="37.4671" y2="39.8209" gradientUnits="userSpaceOnUse">
<stop stop-color="#FFBB47" stop-opacity="0.9686"/>
<stop offset="0.0026513" stop-color="#FFBA47"/>
<stop offset="1" stop-color="#FFD748" stop-opacity="0"/>
</linearGradient>
<linearGradient id="paint23_linear" x1="13.4807" y1="3.21635" x2="26.3999" y2="74.0907" gradientUnits="userSpaceOnUse">
<stop stop-color="#E6AF74" stop-opacity="0"/>
<stop offset="1" stop-color="#E6AF74"/>
</linearGradient>
<radialGradient id="paint24_radial" cx="0" cy="0" r="1" gradientUnits="userSpaceOnUse" gradientTransform="translate(48.4737 27.4333) scale(111.479)">
<stop stop-color="#FFBC47" stop-opacity="0"/>
<stop offset="1" stop-color="#FF8900"/>
</radialGradient>
<linearGradient id="paint25_linear" x1="55.1811" y1="30.0904" x2="37.7946" y2="77.2695" gradientUnits="userSpaceOnUse">
<stop stop-color="#FFBC47" stop-opacity="0"/>
<stop offset="1" stop-color="#C86F34"/>
</linearGradient>
<linearGradient id="paint26_linear" x1="16.8745" y1="51.784" x2="16.8716" y2="51.7819" gradientUnits="userSpaceOnUse">
<stop offset="0.00132565" stop-color="#FFCB4B"/>
<stop offset="1" stop-color="#FFD748"/>
</linearGradient>
<radialGradient id="paint27_radial" cx="0" cy="0" r="1" gradientUnits="userSpaceOnUse" gradientTransform="translate(40.5459 44.7777) rotate(169.5) scale(7.96011 4.04371)">
<stop stop-color="#F8E6D2"/>
<stop offset="1" stop-color="#F8E6D2" stop-opacity="0"/>
</radialGradient>
<radialGradient id="paint28_radial" cx="0" cy="0" r="1" gradientUnits="userSpaceOnUse" gradientTransform="translate(17.8525 38.1876) rotate(-47.8593) scale(7.98261 4.08627)">
<stop stop-color="#F8E6D2"/>
<stop offset="1" stop-color="#F8E6D2" stop-opacity="0"/>
</radialGradient>
<linearGradient id="paint29_linear" x1="23.4161" y1="21.8508" x2="43.6401" y2="35.3737" gradientUnits="userSpaceOnUse">
<stop offset="0.00132565" stop-color="#0097D4"/>
<stop offset="0.2368" stop-color="#0294D6"/>
<stop offset="0.4442" stop-color="#0989DB"/>
<stop offset="0.6411" stop-color="#1477E4"/>
<stop offset="0.8304" stop-color="#245EF0"/>
<stop offset="1" stop-color="#3640FF"/>
</linearGradient>
<radialGradient id="paint30_radial" cx="0" cy="0" r="1" gradientUnits="userSpaceOnUse" gradientTransform="translate(39.0984 21.0703) rotate(-55.4788) scale(27.8805 0.597168)">
<stop stop-color="white" stop-opacity="0.5"/>
<stop offset="1" stop-color="white" stop-opacity="0"/>
</radialGradient>
<linearGradient id="paint31_linear" x1="21.4929" y1="15.3233" x2="44.4335" y2="30.9591" gradientUnits="userSpaceOnUse">
<stop offset="0.00132565" stop-color="#0097D4"/>
<stop offset="0.2368" stop-color="#0294D6"/>
<stop offset="0.4442" stop-color="#0989DB"/>
<stop offset="0.6411" stop-color="#1477E4"/>
<stop offset="0.8304" stop-color="#245EF0"/>
<stop offset="1" stop-color="#3640FF"/>
</linearGradient>
</defs>
</svg>
