<svg width="80" height="80" viewBox="0 0 80 80" fill="none" xmlns="http://www.w3.org/2000/svg">
<path d="M35.5919 42.3602C33.464 45.5087 30.4456 47.1873 28.8497 46.1076C27.2538 45.0279 27.6872 41.6036 29.8151 38.4552C31.943 35.3067 34.9614 33.628 36.5573 34.7077C38.1532 35.7874 37.7197 39.2117 35.5919 42.3602Z" fill="url(#paint0_linear)"/>
<path d="M35.5919 42.3602C33.464 45.5087 30.4456 47.1873 28.8497 46.1076C27.2538 45.0279 27.6872 41.6036 29.8151 38.4552C31.943 35.3067 34.9614 33.628 36.5573 34.7077C38.1532 35.7874 37.7197 39.2117 35.5919 42.3602Z" fill="url(#paint1_linear)"/>
<path d="M61.4141 60.6601C57.1583 60.6601 56.9771 63.9189 51.9056 63.9189C46.8342 63.9189 44.1192 61.8343 39.4103 59.0287C35.4816 56.688 30.8673 57.1727 28.4438 56.6841L31.6987 57.9726C31.6987 57.9726 33.6374 62.2836 38.7483 64.8528C46.1565 68.5805 54.932 64.2893 58.7464 64.5493C63.4947 64.8764 69.37 65.9128 70.4615 65.83C69.9217 65.4005 69.4725 60.6601 61.4141 60.6601Z" fill="url(#paint2_linear)"/>
<path d="M61.4141 60.6601C57.1583 60.6601 56.9771 63.9189 51.9056 63.9189C46.8342 63.9189 44.1192 61.8343 39.4103 59.0287C35.4816 56.688 30.8673 57.1727 28.4438 56.6841L31.6987 59.4188C31.6987 59.4188 33.6374 62.2796 38.7483 64.8528C46.1565 68.5805 54.932 64.2893 58.7464 64.5493C63.4947 64.8764 69.37 65.9128 70.4615 65.83C69.9217 65.4005 69.4725 60.6601 61.4141 60.6601Z" fill="url(#paint3_linear)"/>
<path d="M61.4141 60.6597C57.1583 60.6597 56.9771 63.9185 51.9056 63.9185C46.8342 63.9185 44.1192 61.8339 39.4103 59.0283C35.4816 56.6876 30.8673 57.1723 28.4438 58.1338L31.6987 59.4223C31.6987 59.4223 32.8572 61.1128 35.7062 63.0594C36.049 62.8033 36.2145 63.753 36.1279 62.9255C35.3792 55.7419 42.8582 64.8051 49.5571 64.6238C57.0796 64.4307 61.4141 60.6597 61.4141 60.6597Z" fill="url(#paint4_linear)"/>
<path d="M17.9895 50.6113L10.0927 62.0112C9.40709 63.0003 7.35408 68.1269 6.06553 71.4172C5.75817 72.2053 6.59751 72.7846 7.22405 72.2172C9.80903 69.8962 13.8284 66.267 14.7898 65.2622L23.1792 53.1569C20.7833 53.1096 18.75 52.491 17.9895 50.6113Z" fill="url(#paint5_linear)"/>
<path d="M6.13647 72.1664C6.36108 72.4777 6.83397 72.5683 7.22408 72.2176C9.80906 69.8966 13.8284 66.2674 14.7899 65.2626L23.1792 53.1573C22.4423 53.1416 21.7527 53.0628 21.1104 52.9209L13.8363 63.4027C13.3476 63.8874 10.3804 68.0525 6.13647 72.1664Z" fill="url(#paint6_linear)"/>
<path d="M18.6949 51.7777C18.1472 51.3994 18.2575 51.2773 17.9895 50.6113L10.0928 62.0112C9.40712 63.0003 7.3541 68.1269 6.06555 71.4172C5.75819 72.2053 10.5065 63.5914 11.1094 62.7166L18.6949 51.7777Z" fill="url(#paint7_linear)"/>
<path d="M28.424 62.9256C31.5646 66.4288 34.3387 67.3311 36.9355 67.3311C39.5323 67.3311 40.0761 66.0623 39.5323 65.1284C38.9885 64.1945 37.4202 62.3227 34.9456 61.9602C32.4709 61.5977 30.3588 55.9824 30.3588 55.9824L27.2813 55.9233L24.385 59.5447L28.424 62.9256Z" fill="url(#paint8_linear)"/>
<path d="M28.424 62.9256C31.5646 66.4288 34.3387 67.3311 36.9355 67.3311C39.5323 67.3311 40.0761 66.0623 39.5323 65.1284C38.9885 64.1945 37.4202 62.3227 34.9456 61.9602C32.4709 61.5977 30.3588 55.9824 30.3588 55.9824L27.2813 55.9233L24.385 59.5447L28.424 62.9256Z" fill="url(#paint9_linear)"/>
<path d="M29.7836 63.8044C28.7078 61.7829 30.3037 60.2421 32.4671 59.9939C31.21 58.2482 30.355 55.9824 30.355 55.9824L27.2774 55.9233L25.6973 57.8975L25.5002 58.461C25.5002 58.461 31.0209 66.1293 29.7836 63.8044Z" fill="url(#paint10_linear)"/>
<path d="M30.355 55.9824C30.9421 57.1961 31.5292 58.4058 32.2976 59.5052C33.0582 60.5574 33.9369 61.7277 35.2727 61.838C36.6362 62.1139 37.8695 62.8862 38.7798 63.9068C39.1975 64.4388 39.7098 64.9471 39.8043 65.6918C39.8477 66.4721 39.1384 66.9686 38.5118 67.1223C39.1344 66.9134 39.7334 66.3657 39.627 65.7076C39.5245 65.0929 39.0005 64.5767 38.5749 64.0999C37.6567 63.1581 36.4904 62.4291 35.2018 62.1927C34.528 62.1257 33.8226 61.7435 33.3458 61.2627C32.8454 60.782 32.4237 60.2382 32.0651 59.655C31.7066 59.0757 31.3874 58.4768 31.0997 57.866C30.8278 57.2473 30.6032 56.605 30.355 55.9824Z" fill="#804B24"/>
<path d="M23.049 63.4695C23.9554 66.6101 27.6988 68.8404 30.2917 68.6001C31.9152 68.4503 32.3447 65.9442 30.4139 64.0133C28.483 62.0825 27.2693 58.7488 27.2693 58.7488L25.5237 53.3306L22.8087 60.2738L21.0591 64.0172L23.049 63.4695Z" fill="url(#paint11_linear)"/>
<path d="M23.049 63.4695C23.9554 66.6101 27.6988 68.8404 30.2917 68.6001C31.9152 68.4503 32.3447 65.9442 30.4139 64.0133C28.483 62.0825 27.2693 58.7488 27.2693 58.7488L25.5237 53.3306L22.8087 60.2738L21.0591 64.0172L23.049 63.4695Z" fill="url(#paint12_linear)"/>
<path d="M28.7156 61.7316C27.8053 60.1908 27.2694 58.7447 27.2694 58.7447L26.3828 55.9902L24.4165 56.1597L22.8088 60.2696L21.8906 62.232L22.5014 63.6191L23.0492 63.4693C23.4629 64.8997 24.4756 66.1252 25.6854 67.0276C24.4126 64.7106 26.4065 62.0547 28.7156 61.7316Z" fill="url(#paint13_linear)"/>
<path d="M31.6868 66.9726C31.6671 65.9204 31.1312 64.9826 30.4337 64.2615C29.6772 63.5246 29.094 62.6183 28.5856 61.708C27.569 59.8757 26.7375 57.9527 26.0676 55.9785C26.9661 57.8581 27.8606 59.7378 28.8851 61.5346C29.421 62.4173 29.9294 63.3158 30.6623 64.0447C31.3834 64.8368 31.8444 65.9244 31.6868 66.9726Z" fill="#804B24"/>
<path d="M16.5474 62.6143C16.5474 65.42 20.0899 68.5999 22.2059 68.5999C24.322 68.5999 24.3811 65.7628 24.0186 64.6752C23.656 63.5876 23.1241 61.1957 23.1241 61.1957L21.3036 60.0254L16.5474 62.6143Z" fill="url(#paint14_linear)"/>
<path d="M16.5474 62.6143C16.5474 65.42 20.0899 68.5999 22.2059 68.5999C24.322 68.5999 24.3811 65.7628 24.0186 64.6752C23.656 63.5876 23.1241 61.1957 23.1241 61.1957L21.3036 60.0254L16.5474 62.6143Z" fill="url(#paint15_linear)"/>
<path d="M23.4827 62.7325C23.2817 61.909 23.1201 61.1957 23.1201 61.1957L21.2996 60.0254L16.5474 62.6143C16.5474 64.3324 17.8753 66.1844 19.3924 67.3666C18.9668 64.9865 21.8789 63.4064 23.4827 62.7325Z" fill="url(#paint16_linear)"/>
<path d="M23.9041 67.4298C24.0972 66.7284 24.0815 66.0112 23.9908 65.3216C23.8766 64.6635 23.577 63.9503 23.447 63.2489C23.1002 61.8461 22.8205 60.4275 22.6038 58.9971C23.0372 60.3763 23.4116 61.7712 23.7741 63.1661C23.9357 63.8794 24.2036 64.5098 24.3061 65.2822C24.3731 66.023 24.2627 66.7914 23.9041 67.4298Z" fill="#804B24"/>
<path d="M12.8472 58.3387C12.922 61.5226 15.8656 62.8348 18.2181 62.8348C20.5706 62.8348 25.5474 60.0134 27.2655 58.7446C28.9875 57.4757 34.6973 56.2227 39.4062 59.0283C44.1151 61.8339 46.8302 63.9185 51.9016 63.9185C56.9731 63.9185 57.1543 60.6597 61.4101 60.6597C70.3747 60.6597 69.9216 66.5468 70.6466 65.8217C71.3717 65.0967 73.9961 59.0322 73.9961 53.2357C73.9961 49.4016 73.0819 47.3683 72.4671 45.4572C72.1952 44.6139 71.3678 44.1174 70.489 44.2238C64.1842 44.9843 54.8452 37.2373 48.4616 34.1282C41.5814 30.7787 35.9662 27.248 31.801 27.248C27.6359 27.248 14.1436 34.7626 12.4216 36.4846C10.6996 38.2066 9.97847 40.1966 9.97847 42.6436C9.97847 45.0907 8.43774 50.8833 8.43774 55.8641C8.43774 59.8479 9.42286 61.3374 10.8336 60.4823C11.1882 60.2656 11.5704 59.9031 11.9684 59.3948C12.0945 59.249 12.8511 58.5751 12.8472 58.3387C12.8472 56.4354 14.3249 53.9805 16.8783 51.7778C17.2448 51.4625 17.5443 50.5759 17.7965 49.8863C17.7965 49.8863 18.5215 46.4462 19.2466 44.874C19.9716 43.3056 21.0592 42.3402 22.7497 41.9777C27.565 40.9453 31.2021 34.672 33.6176 36.1221C36.0332 37.5722 33.4955 43.1323 28.6644 44.8227C23.8333 46.5132 21.2996 48.4362 18.0408 50.8517C14.782 53.2673 12.8472 56.1635 12.8472 58.3387Z" fill="url(#paint17_linear)"/>
<path d="M70.4891 44.2239C64.1843 44.9844 54.8453 37.2374 48.4617 34.1283C43.2996 31.6143 38.8507 29.0017 35.1939 27.8511L33.6138 36.1222C34.1024 36.4138 34.3664 36.8118 34.4492 37.2689C34.5201 37.529 34.5359 37.8166 34.5241 38.1201C34.5241 38.1516 34.5201 38.1831 34.5201 38.2146C34.5004 38.522 34.4413 38.8451 34.3428 39.1801C39.69 33.352 43.0552 32.8437 46.1446 34.1047C51.4091 36.2523 57.2844 45.0632 64.4365 45.0632C71.557 45.0632 73.4406 49.2717 73.4563 49.2993C73.1529 47.7349 72.7746 46.407 72.4712 45.4612C72.3333 45.0396 72.0614 44.7047 71.7107 44.4879C71.3679 44.2791 70.9502 44.1845 70.5207 44.2279C70.5088 44.2279 70.501 44.2239 70.4891 44.2239Z" fill="url(#paint18_radial)"/>
<path d="M48.4656 34.1281C44.5684 32.2327 41.081 30.2783 38.0271 28.9385L34.7368 36.2521C35.919 35.2354 38.3385 34.5655 43.3035 35.8501C53.4464 38.4745 59.1483 52.5106 64.3104 52.3018C68.9641 52.1126 68.7789 48.9208 73.6731 50.5483C73.3499 48.4401 72.8534 46.6471 72.4712 45.4571C72.3372 45.0355 72.0614 44.7005 71.7107 44.4838C71.36 44.2671 70.9344 44.1725 70.4931 44.2237C64.1843 44.9842 54.8453 37.2372 48.4656 34.1281Z" fill="url(#paint19_linear)"/>
<path d="M33.6136 36.1222C36.0292 37.5723 33.4915 43.1324 28.6604 44.8229C25.0155 46.0996 22.6748 47.5103 20.3459 49.1614C23.4747 47.2936 27.0408 47.0493 29.7519 45.7252C36.238 42.561 36.3011 35.4326 36.3011 35.4326L33.6136 36.1222Z" fill="url(#paint20_linear)"/>
<path d="M31.801 27.248C27.6359 27.248 14.1436 34.7626 12.4216 36.4846C10.6996 38.2066 9.97847 40.1966 9.97847 42.6436C9.97847 45.0907 8.43774 50.8833 8.43774 55.8641C8.43774 56.463 8.46139 56.9989 8.50474 57.4876C9.52927 52.2546 10.4671 39.7001 13.3082 37.2767C16.8074 34.2897 28.9442 27.2244 34.2836 28.0401C34.8116 28.1189 35.2175 28.0795 35.5682 27.981C34.2087 27.5199 32.9477 27.248 31.801 27.248Z" fill="url(#paint21_linear)"/>
<path d="M72.4712 45.4575C72.1993 44.6143 71.3718 44.1178 70.493 44.2242C65.1182 44.8704 57.5445 38.9478 51.4722 35.6851C51.4524 39.5074 51.7913 43.4163 51.216 46.8722C48.6941 55.0684 42.606 57.2279 35.2175 57.5313C36.6204 57.7638 38.0547 58.2248 39.4103 59.0326C44.1192 61.8383 46.8342 63.9228 51.9056 63.9228C56.9771 63.9228 57.1583 60.664 61.4141 60.664C70.3787 60.664 69.9256 66.5511 70.6506 65.8261C71.3757 65.101 74.0001 59.0365 74.0001 53.2401C74.0001 49.402 73.0859 47.3687 72.4712 45.4575Z" fill="url(#paint22_radial)"/>
<path d="M34.26 36.7529C34.3152 36.8435 34.3506 36.942 34.3822 37.0405L34.7368 36.2524C34.5516 36.414 34.39 36.5795 34.26 36.7529Z" fill="url(#paint23_linear)"/>
<path d="M17.7965 49.8863C17.7965 49.8863 18.5215 46.4462 19.2466 44.8739C19.9716 43.3056 21.0592 42.3402 22.7497 41.9777C23.5733 41.8003 24.3574 41.4654 25.1101 41.0477C28.4792 37.6864 32.731 29.8448 31.411 31.2516C23.0255 40.1729 23.057 38.179 19.5263 41.7097C15.9956 45.2404 17.0359 49.1809 15.18 51.0369C13.5644 52.6525 10.471 56.5024 10.8375 60.4744C11.1922 60.2616 11.5744 59.9031 11.9763 59.3947C12.0985 59.2489 12.859 58.579 12.8511 58.3387C12.8511 58.3387 12.7132 57.125 13.8284 55.3045C13.8363 55.2927 13.8481 55.2808 13.856 55.269C14.5456 54.1105 15.5701 52.9126 16.8823 51.7817C17.0044 51.6122 17.1227 51.431 17.2448 51.2536C17.4497 50.8478 17.6349 50.3315 17.7965 49.8863Z" fill="url(#paint24_linear)"/>
<path d="M70.6506 65.822C70.9304 65.5422 71.4938 64.4586 72.081 62.91C66.2884 55.6239 59.3058 57.5075 57.2174 59.3044C55.0422 61.1761 51.3618 63.3474 46.8341 61.4796C42.3065 59.6078 40.7381 53.3306 34.52 53.3306C28.3019 53.3306 23.8334 57.2238 20.9371 58.6739C18.4033 59.9428 15.909 59.86 12.9299 57.3105L12.8472 58.3429C12.926 61.7081 16.0508 62.839 18.2181 62.839C20.5706 62.839 25.5475 60.0176 27.2655 58.7488C28.9875 57.4799 34.6973 56.2268 39.4062 59.0325C44.1151 61.8381 46.8302 63.9227 51.9016 63.9227C56.9731 63.9227 57.1543 60.6639 61.4101 60.6639C70.3787 60.6599 69.9255 66.5471 70.6506 65.822Z" fill="url(#paint25_radial)"/>
<path d="M70.6506 65.8221C70.8909 65.5817 71.3402 64.7305 71.8327 63.5208C71.2101 62.3741 70.0516 61.4205 68.1483 60.8137C57.9148 57.5549 57.9148 62.9888 50.219 63.2095C42.5232 63.4341 40.0761 55.2891 35.7297 55.2891C26.1425 55.2891 21.2877 62.3347 14.5613 61.6885C15.6528 62.4923 17.0635 62.8273 18.2181 62.8273C20.5706 62.8273 25.5474 60.0059 27.2655 58.737C28.9875 57.4682 34.6973 56.2151 39.4062 59.0207C44.1151 61.8264 46.8302 63.9109 51.9016 63.9109C56.9731 63.9109 57.1543 60.6521 61.4101 60.6521C70.3787 60.66 69.9255 66.5471 70.6506 65.8221Z" fill="url(#paint26_linear)"/>
<path d="M16.8783 51.7778C16.8744 51.7818 16.8704 51.7857 16.8665 51.7857C16.8743 51.7818 16.8744 51.7818 16.8783 51.7778Z" fill="url(#paint27_linear)"/>
<path d="M36.6912 41.9386C38.957 41.517 40.1195 40.52 41.9557 40.1812C43.792 39.8423 52.0632 39.0621 52.7646 43.0341C53.466 47.0061 47.6813 49.2759 44.2964 50.9545C40.9115 52.6332 32.2187 51.7663 31.1075 48.6139C29.9963 45.4614 33.129 42.6006 36.6912 41.9386Z" fill="url(#paint28_radial)"/>
<path d="M21.7961 39.8696C20.6888 41.0951 18.888 40.902 17.9935 41.8911C17.099 42.8802 14.0451 52.5975 11.9172 50.6114C9.78935 48.6254 11.799 41.7059 12.993 39.2746C14.187 36.8433 24.3732 30.3257 26.3789 31.6576C28.3807 32.9895 23.5339 37.9466 21.7961 39.8696Z" fill="url(#paint29_radial)"/>
<path d="M52.6188 9.5435C52.3232 9.03911 51.8189 8.34558 51.082 7.83331C50.3491 7.32499 49.5412 7.10826 48.9738 7.01369C48.5522 6.94276 48.103 7.1516 47.8311 7.54566L17.9856 50.6115C18.0132 50.6825 18.0565 50.7376 18.088 50.8046C18.2772 50.6628 18.4506 50.5091 18.6319 50.3633L18.5333 50.4815C21.5597 48.2393 24.0816 46.4228 28.6605 44.819C28.8063 44.7678 28.9402 44.6929 29.0821 44.6377L30.9026 42.0094L52.5242 10.8084C52.804 10.4143 52.8395 9.9139 52.6188 9.5435Z" fill="url(#paint30_linear)"/>
<path d="M21.398 47.8729L48.2645 9.05487C49.0132 7.81755 49.3403 7.07279 48.9777 7.01369C48.5561 6.94276 48.1069 7.1516 47.835 7.54566L17.9895 50.6115C18.025 50.6982 18.0407 50.7573 18.0683 50.8283C19.2623 49.9416 20.3105 48.9092 21.398 47.8729Z" fill="url(#paint31_radial)"/>
<path d="M52.5282 10.8085C52.5597 10.7612 52.5794 10.706 52.607 10.6548C52.6897 10.4972 52.7488 10.3317 52.7607 10.1662C52.7764 9.94552 52.7291 9.72879 52.6188 9.54359C52.6149 9.5357 52.6109 9.52782 52.607 9.52388C52.4415 9.24017 52.205 8.90522 51.9056 8.57422L26.0125 45.883C26.8242 45.5205 27.6911 45.1658 28.6644 44.827C28.8102 44.7757 28.9442 44.7009 29.0861 44.6457L30.9066 42.0174L52.5282 10.8085Z" fill="url(#paint32_linear)"/>
<path d="M61.414 60.66C60.0782 60.66 58.7739 61.0935 57.6902 61.8619C56.6066 62.6066 55.4954 63.4144 54.1753 63.7376C51.547 64.3208 48.7807 63.9464 46.2903 62.9849C43.7999 61.984 41.5854 60.4669 39.2959 59.139C37.0301 57.8032 34.3151 57.3382 31.7104 57.5825C30.4101 57.7007 29.0979 57.9765 27.9315 58.544C26.8439 59.206 25.709 60.0098 24.5387 60.6167C23.3684 61.255 22.1665 61.8422 20.9174 62.319C19.6879 62.7997 18.293 63.1465 16.9572 62.8273C15.641 62.5712 14.3367 61.9249 13.5368 60.8019C12.7408 59.6907 12.5399 58.1854 12.997 56.9126C13.9072 54.3473 15.9326 52.4204 18.0408 50.8481C15.9681 52.4638 13.9939 54.4458 13.1664 56.9638C12.7408 58.2051 12.9457 59.6237 13.7062 60.6758C14.4707 61.7358 15.7277 62.3505 17.0005 62.5869C18.2969 62.8825 19.5934 62.5475 20.8189 62.0629C22.0483 61.5861 23.2344 60.991 24.3929 60.3487C25.575 59.7222 26.6114 58.9656 27.7817 58.2445C29.0072 57.6416 30.3391 57.3461 31.6789 57.22C34.3506 56.9875 37.1287 57.484 39.4496 58.875C41.7391 60.2266 43.9339 61.7516 46.381 62.7564C48.8162 63.7257 51.5627 64.104 54.132 63.5602C55.4284 63.2726 56.5357 62.5081 57.6469 61.7791C58.7502 61.0383 60.0782 60.6285 61.414 60.66Z" fill="#804B24"/>
<path d="M34.2717 37.1545C34.3781 37.4697 34.4333 37.8007 34.4175 38.1357C34.2047 40.1729 32.8255 41.9422 31.2454 43.1874C29.681 44.5429 27.5531 44.937 25.6814 45.8827C23.7781 46.7536 22.0049 47.8845 20.3499 49.1573C22.0837 48.0027 23.8884 46.9545 25.7799 46.1034C26.7295 45.6817 27.6989 45.3074 28.6801 44.9724C29.681 44.6296 30.6306 44.1252 31.466 43.4711C33.0816 42.1432 34.4648 40.3148 34.6539 38.1475C34.6697 37.7298 34.6106 37.3003 34.4372 36.9102L34.2717 37.1545Z" fill="#804B24"/>
<defs>
<linearGradient id="paint0_linear" x1="36.7444" y1="44.6477" x2="15.6073" y2="22.5193" gradientUnits="userSpaceOnUse">
<stop offset="0.00132565" stop-color="#FFCB4B"/>
<stop offset="1" stop-color="#FFD748"/>
</linearGradient>
<linearGradient id="paint1_linear" x1="30.982" y1="65.8695" x2="33.5627" y2="27.7018" gradientUnits="userSpaceOnUse">
<stop stop-color="#FFBC47" stop-opacity="0"/>
<stop offset="1" stop-color="#C86F34"/>
</linearGradient>
<linearGradient id="paint2_linear" x1="49.6394" y1="65.8499" x2="49.8775" y2="71.564" gradientUnits="userSpaceOnUse">
<stop offset="0.00132565" stop-color="#FFCB4B"/>
<stop offset="1" stop-color="#FFD748"/>
</linearGradient>
<linearGradient id="paint3_linear" x1="52.4928" y1="79.8971" x2="48.5011" y2="55.4651" gradientUnits="userSpaceOnUse">
<stop stop-color="#FFBC47" stop-opacity="0"/>
<stop offset="1" stop-color="#C86F34"/>
</linearGradient>
<linearGradient id="paint4_linear" x1="46.2975" y1="80.0284" x2="44.8445" y2="58.1527" gradientUnits="userSpaceOnUse">
<stop stop-color="#FFBC47" stop-opacity="0"/>
<stop offset="1" stop-color="#C86F34"/>
</linearGradient>
<linearGradient id="paint5_linear" x1="2.95646" y1="52.1253" x2="15.0108" y2="62.987" gradientUnits="userSpaceOnUse">
<stop offset="0.00132565" stop-color="#0097D4"/>
<stop offset="0.2368" stop-color="#0294D6"/>
<stop offset="0.4442" stop-color="#0989DB"/>
<stop offset="0.6411" stop-color="#1477E4"/>
<stop offset="0.8304" stop-color="#245EF0"/>
<stop offset="1" stop-color="#3640FF"/>
</linearGradient>
<linearGradient id="paint6_linear" x1="5.57565" y1="53.6735" x2="14.3304" y2="62.3406" gradientUnits="userSpaceOnUse">
<stop offset="0.00132565" stop-color="#0097D4"/>
<stop offset="0.2368" stop-color="#0294D6"/>
<stop offset="0.4442" stop-color="#0989DB"/>
<stop offset="0.6411" stop-color="#1477E4"/>
<stop offset="0.8304" stop-color="#245EF0"/>
<stop offset="1" stop-color="#3640FF"/>
</linearGradient>
<linearGradient id="paint7_linear" x1="9.11672" y1="59.0921" x2="14.7181" y2="62.8396" gradientUnits="userSpaceOnUse">
<stop stop-color="#0097D4" stop-opacity="0"/>
<stop offset="0.3342" stop-color="#029AD7" stop-opacity="0.3342"/>
<stop offset="0.6287" stop-color="#08A3E2" stop-opacity="0.6287"/>
<stop offset="0.9072" stop-color="#13B2F4" stop-opacity="0.9072"/>
<stop offset="1" stop-color="#17B9FC"/>
</linearGradient>
<linearGradient id="paint8_linear" x1="32.2527" y1="67.5478" x2="32.4942" y2="73.3432" gradientUnits="userSpaceOnUse">
<stop offset="0.00132565" stop-color="#FFCB4B"/>
<stop offset="1" stop-color="#FFD748"/>
</linearGradient>
<linearGradient id="paint9_linear" x1="32.7433" y1="86.267" x2="31.7774" y2="53.4267" gradientUnits="userSpaceOnUse">
<stop stop-color="#FFBC47" stop-opacity="0"/>
<stop offset="1" stop-color="#C86F34"/>
</linearGradient>
<linearGradient id="paint10_linear" x1="30.6825" y1="69.6277" x2="29.1431" y2="60.2103" gradientUnits="userSpaceOnUse">
<stop stop-color="#FFBC47" stop-opacity="0"/>
<stop offset="1" stop-color="#C86F34"/>
</linearGradient>
<linearGradient id="paint11_linear" x1="26.4771" y1="67.7886" x2="26.7186" y2="73.5839" gradientUnits="userSpaceOnUse">
<stop offset="0.00132565" stop-color="#FFCB4B"/>
<stop offset="1" stop-color="#FFD748"/>
</linearGradient>
<linearGradient id="paint12_linear" x1="29.1552" y1="79.7921" x2="23.9635" y2="52.6265" gradientUnits="userSpaceOnUse">
<stop stop-color="#FFBC47" stop-opacity="0"/>
<stop offset="1" stop-color="#C86F34"/>
</linearGradient>
<linearGradient id="paint13_linear" x1="25.7504" y1="69.3351" x2="25.2976" y2="61.9098" gradientUnits="userSpaceOnUse">
<stop stop-color="#FFBC47" stop-opacity="0"/>
<stop offset="1" stop-color="#C86F34"/>
</linearGradient>
<linearGradient id="paint14_linear" x1="20.5243" y1="68.0365" x2="20.7657" y2="73.8318" gradientUnits="userSpaceOnUse">
<stop offset="0.00132565" stop-color="#FFCB4B"/>
<stop offset="1" stop-color="#FFD748"/>
</linearGradient>
<linearGradient id="paint15_linear" x1="22.6524" y1="73.8218" x2="17.2193" y2="50.9423" gradientUnits="userSpaceOnUse">
<stop stop-color="#FFBC47" stop-opacity="0"/>
<stop offset="1" stop-color="#C86F34"/>
</linearGradient>
<linearGradient id="paint16_linear" x1="20.7933" y1="75.8314" x2="20.0085" y2="62.6108" gradientUnits="userSpaceOnUse">
<stop stop-color="#FFBC47" stop-opacity="0"/>
<stop offset="1" stop-color="#C86F34"/>
</linearGradient>
<linearGradient id="paint17_linear" x1="76.6578" y1="78.1028" x2="10.7359" y2="31.2572" gradientUnits="userSpaceOnUse">
<stop offset="0.00132565" stop-color="#FFCB4B"/>
<stop offset="1" stop-color="#FFD748"/>
</linearGradient>
<radialGradient id="paint18_radial" cx="0" cy="0" r="1" gradientUnits="userSpaceOnUse" gradientTransform="translate(70.0448 9.65873) scale(101.45)">
<stop stop-color="#FFBC47" stop-opacity="0"/>
<stop offset="1" stop-color="#FF8900"/>
</radialGradient>
<linearGradient id="paint19_linear" x1="38.8561" y1="34.7349" x2="63.2448" y2="46.3256" gradientUnits="userSpaceOnUse">
<stop stop-color="#FFBB47" stop-opacity="0.9686"/>
<stop offset="0.0026513" stop-color="#FFBA47"/>
<stop offset="1" stop-color="#FFD748" stop-opacity="0"/>
</linearGradient>
<linearGradient id="paint20_linear" x1="28.1327" y1="39.9178" x2="29.4005" y2="55.4928" gradientUnits="userSpaceOnUse">
<stop stop-color="#FFBB47" stop-opacity="0.9686"/>
<stop offset="0.0026513" stop-color="#FFBA47"/>
<stop offset="1" stop-color="#FFD748" stop-opacity="0"/>
</linearGradient>
<linearGradient id="paint21_linear" x1="24.8209" y1="46.1003" x2="9.33649" y2="27.356" gradientUnits="userSpaceOnUse">
<stop stop-color="#FFBB47" stop-opacity="0.9686"/>
<stop offset="0.0026513" stop-color="#FFBA47"/>
<stop offset="1" stop-color="#FFD748" stop-opacity="0"/>
</linearGradient>
<radialGradient id="paint22_radial" cx="0" cy="0" r="1" gradientUnits="userSpaceOnUse" gradientTransform="translate(59.3261 51.1399) rotate(-72.5489) scale(31.3323 22.2742)">
<stop stop-color="#FFBB47" stop-opacity="0.9686"/>
<stop offset="0.0026513" stop-color="#FFBA47"/>
<stop offset="1" stop-color="#FFD748" stop-opacity="0"/>
</radialGradient>
<linearGradient id="paint23_linear" x1="50.5084" y1="54.0358" x2="37.4689" y2="39.8196" gradientUnits="userSpaceOnUse">
<stop stop-color="#FFBB47" stop-opacity="0.9686"/>
<stop offset="0.0026513" stop-color="#FFBA47"/>
<stop offset="1" stop-color="#FFD748" stop-opacity="0"/>
</linearGradient>
<linearGradient id="paint24_linear" x1="13.483" y1="3.21655" x2="26.4017" y2="74.0887" gradientUnits="userSpaceOnUse">
<stop offset="0.3118" stop-color="#FFBC47" stop-opacity="0"/>
<stop offset="1" stop-color="#FF8900"/>
</linearGradient>
<radialGradient id="paint25_radial" cx="0" cy="0" r="1" gradientUnits="userSpaceOnUse" gradientTransform="translate(48.4749 27.4331) scale(111.475)">
<stop stop-color="#FFBC47" stop-opacity="0"/>
<stop offset="1" stop-color="#FF8900"/>
</radialGradient>
<linearGradient id="paint26_linear" x1="55.182" y1="30.0905" x2="37.796" y2="77.2681" gradientUnits="userSpaceOnUse">
<stop offset="0.3118" stop-color="#FFBC47" stop-opacity="0"/>
<stop offset="1" stop-color="#FF8900"/>
</linearGradient>
<linearGradient id="paint27_linear" x1="16.8765" y1="51.7827" x2="16.8736" y2="51.7806" gradientUnits="userSpaceOnUse">
<stop offset="0.00132565" stop-color="#FFCB4B"/>
<stop offset="1" stop-color="#FFD748"/>
</linearGradient>
<radialGradient id="paint28_radial" cx="0" cy="0" r="1" gradientUnits="userSpaceOnUse" gradientTransform="translate(40.5378 44.777) rotate(169.5) scale(7.95986 4.04358)">
<stop stop-color="#FBE07A"/>
<stop offset="0.2654" stop-color="#FCDF73" stop-opacity="0.7346"/>
<stop offset="0.6548" stop-color="#FDDB5F" stop-opacity="0.3452"/>
<stop offset="1" stop-color="#FFD748" stop-opacity="0"/>
</radialGradient>
<radialGradient id="paint29_radial" cx="0" cy="0" r="1" gradientUnits="userSpaceOnUse" gradientTransform="translate(17.8548 38.1867) rotate(-47.8592) scale(7.98236 4.08614)">
<stop stop-color="#FBE07A"/>
<stop offset="0.2654" stop-color="#FCDF73" stop-opacity="0.7346"/>
<stop offset="0.6548" stop-color="#FDDB5F" stop-opacity="0.3452"/>
<stop offset="1" stop-color="#FFD748" stop-opacity="0"/>
</radialGradient>
<linearGradient id="paint30_linear" x1="23.4179" y1="21.8505" x2="43.6412" y2="35.373" gradientUnits="userSpaceOnUse">
<stop offset="0.00132565" stop-color="#0097D4"/>
<stop offset="0.2368" stop-color="#0294D6"/>
<stop offset="0.4442" stop-color="#0989DB"/>
<stop offset="0.6411" stop-color="#1477E4"/>
<stop offset="0.8304" stop-color="#245EF0"/>
<stop offset="1" stop-color="#3640FF"/>
</linearGradient>
<radialGradient id="paint31_radial" cx="0" cy="0" r="1" gradientUnits="userSpaceOnUse" gradientTransform="translate(39.1027 21.0694) rotate(-55.4788) scale(27.8797 0.597149)">
<stop stop-color="white" stop-opacity="0.5"/>
<stop offset="1" stop-color="white" stop-opacity="0"/>
</radialGradient>
<linearGradient id="paint32_linear" x1="21.4949" y1="15.3237" x2="44.4348" y2="30.959" gradientUnits="userSpaceOnUse">
<stop offset="0.00132565" stop-color="#0097D4"/>
<stop offset="0.2368" stop-color="#0294D6"/>
<stop offset="0.4442" stop-color="#0989DB"/>
<stop offset="0.6411" stop-color="#1477E4"/>
<stop offset="0.8304" stop-color="#245EF0"/>
<stop offset="1" stop-color="#3640FF"/>
</linearGradient>
</defs>
</svg>
