<svg width="80" height="80" viewBox="0 0 80 80" fill="none" xmlns="http://www.w3.org/2000/svg">
<path d="M40.0001 70.0952C56.8316 70.0952 70.4763 56.4506 70.4763 39.6191C70.4763 22.7875 56.8316 9.14286 40.0001 9.14286C23.1686 9.14286 9.52393 22.7875 9.52393 39.6191C9.52393 56.4506 23.1686 70.0952 40.0001 70.0952Z" fill="url(#paint0_radial)"/>
<path opacity="0.5" d="M40.0001 70.0952C56.8316 70.0952 70.4763 56.4506 70.4763 39.6191C70.4763 22.7875 56.8316 9.14286 40.0001 9.14286C23.1686 9.14286 9.52393 22.7875 9.52393 39.6191C9.52393 56.4506 23.1686 70.0952 40.0001 70.0952Z" fill="url(#paint1_radial)"/>
<path opacity="0.5" d="M40.0001 70.0952C56.8316 70.0952 70.4763 56.4506 70.4763 39.6191C70.4763 22.7875 56.8316 9.14286 40.0001 9.14286C23.1686 9.14286 9.52393 22.7875 9.52393 39.6191C9.52393 56.4506 23.1686 70.0952 40.0001 70.0952Z" fill="url(#paint2_radial)"/>
<path d="M26.5722 44.5905C31.3376 44.5905 35.2007 40.7273 35.2007 35.9619C35.2007 31.1965 31.3376 27.3333 26.5722 27.3333C21.8067 27.3333 17.9436 31.1965 17.9436 35.9619C17.9436 40.7273 21.8067 44.5905 26.5722 44.5905Z" fill="url(#paint3_radial)"/>
<path d="M26.5722 44.5905C31.3376 44.5905 35.2007 40.7273 35.2007 35.9619C35.2007 31.1965 31.3376 27.3333 26.5722 27.3333C21.8067 27.3333 17.9436 31.1965 17.9436 35.9619C17.9436 40.7273 21.8067 44.5905 26.5722 44.5905Z" fill="url(#paint4_radial)"/>
<path d="M34.34 37.7619C35.3326 33.4674 32.6559 29.1814 28.3614 28.1887C24.067 27.1961 19.7809 29.8728 18.7883 34.1673C17.7957 38.4617 20.4723 42.7478 24.7668 43.7404C29.0613 44.733 33.3473 42.0564 34.34 37.7619Z" fill="white"/>
<path d="M26.5718 43.9427C30.9795 43.9427 34.5527 40.3695 34.5527 35.9617C34.5527 31.554 30.9795 27.9808 26.5718 27.9808C22.164 27.9808 18.5908 31.554 18.5908 35.9617C18.5908 40.3695 22.164 43.9427 26.5718 43.9427Z" fill="url(#paint5_radial)"/>
<path d="M26.5718 43.9427C30.9795 43.9427 34.5527 40.3695 34.5527 35.9617C34.5527 31.554 30.9795 27.9808 26.5718 27.9808C22.164 27.9808 18.5908 31.554 18.5908 35.9617C18.5908 40.3695 22.164 43.9427 26.5718 43.9427Z" fill="url(#paint6_radial)"/>
<path d="M48.9911 37.6193C53.7566 37.6193 57.6197 33.7561 57.6197 28.9907C57.6197 24.2253 53.7566 20.3621 48.9911 20.3621C44.2257 20.3621 40.3625 24.2253 40.3625 28.9907C40.3625 33.7561 44.2257 37.6193 48.9911 37.6193Z" fill="url(#paint7_radial)"/>
<path d="M48.9911 37.6193C53.7566 37.6193 57.6197 33.7562 57.6197 28.9907C57.6197 24.2253 53.7566 20.3621 48.9911 20.3621C44.2257 20.3621 40.3625 24.2253 40.3625 28.9907C40.3625 33.7562 44.2257 37.6193 48.9911 37.6193Z" fill="url(#paint8_radial)"/>
<path d="M54.7737 34.483C57.8116 31.2891 57.6851 26.2374 54.4912 23.1995C51.2974 20.1617 46.2456 20.2882 43.2077 23.4821C40.1699 26.6759 40.2964 31.7277 43.4903 34.7655C46.6841 37.8034 51.7359 37.6769 54.7737 34.483Z" fill="white"/>
<path d="M48.9907 36.9714C53.3985 36.9714 56.9717 33.3982 56.9717 28.9904C56.9717 24.5827 53.3985 21.0095 48.9907 21.0095C44.583 21.0095 41.0098 24.5827 41.0098 28.9904C41.0098 33.3982 44.583 36.9714 48.9907 36.9714Z" fill="url(#paint9_radial)"/>
<path d="M48.9907 36.9715C53.3985 36.9715 56.9717 33.3983 56.9717 28.9906C56.9717 24.5828 53.3985 21.0096 48.9907 21.0096C44.583 21.0096 41.0098 24.5828 41.0098 28.9906C41.0098 33.3983 44.583 36.9715 48.9907 36.9715Z" fill="url(#paint10_radial)"/>
<path d="M61.1812 38.4382C60.9335 38.4192 60.705 38.4953 60.4954 38.6287C54.8954 42.2858 48.8002 45.162 42.3621 47.1811C35.924 49.1811 29.2573 50.2858 22.5716 50.4382C22.324 50.4382 22.0954 50.5334 21.905 50.6858C21.3145 51.162 20.5907 52.4953 23.1621 55.8858V55.9049C26.7812 60.1525 34.8954 67.0477 47.3526 63.1811C59.7526 59.3144 62.5335 48.9906 63.124 43.4477C63.2954 39.1811 61.9431 38.4953 61.1812 38.4382Z" fill="url(#paint11_radial)"/>
<path d="M60.7813 38.4572C60.7432 38.4762 60.686 38.4762 60.6479 38.5143C55.0098 42.2286 48.8575 45.1429 42.3432 47.1619C35.8289 49.181 29.1241 50.2858 22.3622 50.4191C22.3241 50.4191 22.267 50.4381 22.2289 50.4381C21.8289 50.6096 19.9622 51.6381 23.1432 55.8477V55.8667C24.6098 57.581 26.8003 59.7334 29.7146 61.4286C26.9146 59.6381 29.0289 57.5238 33.6765 56.6667C38.3241 55.8096 44.4574 53.9238 44.4574 53.9238C44.4574 53.9238 50.5717 52 54.8955 50.0762C59.2194 48.1524 62.1336 48.7048 60.8575 51.7524C62.286 48.7048 62.8765 45.6953 63.1051 43.4477C63.3336 38.1715 61.2003 38.3619 60.7813 38.4572Z" fill="url(#paint12_linear)"/>
<path d="M59.3903 46.1904C60.9903 45.2952 61.8284 43.4666 61.4474 41.6761L61.0855 39.9237C55.4284 43.5999 49.276 46.4952 42.7807 48.5142C36.2855 50.5332 29.5807 51.6571 22.8379 51.8285L23.5236 53.4856C24.2284 55.1809 25.9617 56.1904 27.7712 56.038C33.295 55.5428 38.7617 54.4571 44.095 52.7999C49.4474 51.1428 54.5712 48.9333 59.3903 46.1904Z" fill="url(#paint13_radial)"/>
<path d="M47.9999 30.1143C49.925 30.1143 51.4856 28.5537 51.4856 26.6286C51.4856 24.7035 49.925 23.1429 47.9999 23.1429C46.0748 23.1429 44.5142 24.7035 44.5142 26.6286C44.5142 28.5537 46.0748 30.1143 47.9999 30.1143Z" fill="url(#paint14_radial)"/>
<path d="M47.9242 29.0477C46.5527 29.0096 45.3527 28.3429 44.5908 27.3144C44.8956 28.8763 46.248 30.0572 47.9051 30.1144C49.5623 30.1715 50.9718 29.0477 51.3718 27.5048C50.5337 28.4953 49.2956 29.0858 47.9242 29.0477Z" fill="url(#paint15_linear)"/>
<path d="M26.4952 40.5144C27.747 40.5144 28.7618 39.4995 28.7618 38.2477C28.7618 36.9959 27.747 35.981 26.4952 35.981C25.2433 35.981 24.2285 36.9959 24.2285 38.2477C24.2285 39.4995 25.2433 40.5144 26.4952 40.5144Z" fill="url(#paint16_radial)"/>
<path d="M26.4568 39.8284C25.5616 39.8094 24.7806 39.3713 24.2664 38.7046C24.4759 39.7141 25.3521 40.4951 26.4378 40.5332C27.5235 40.5713 28.4378 39.8284 28.7044 38.8379C28.1711 39.4665 27.3521 39.8475 26.4568 39.8284Z" fill="url(#paint17_linear)"/>
<path d="M27.8284 56.7049L27.6951 64.1716C27.6189 67.8097 30.4951 70.9716 34.1332 71.0478C37.7713 71.124 40.7808 68.0954 40.876 64.4573C40.876 64.4573 40.876 64.4573 40.876 64.4383L40.7237 54.4383C36.476 55.5621 32.1713 56.324 27.8284 56.7049Z" fill="url(#paint18_linear)"/>
<path d="M33.6953 59.9427L35.0668 59.9808C34.8763 68.4189 34.5715 68.5332 34.1906 68.5142C33.8096 68.5142 33.5048 68.3618 33.6953 59.9427Z" fill="url(#paint19_linear)"/>
<path d="M27.8284 56.7049L27.6951 64.1716C27.6189 67.8097 30.4951 70.9716 34.1332 71.0478C37.7713 71.124 40.7808 68.0954 40.876 64.4573C40.876 64.4573 40.876 64.4573 40.876 64.4383L40.7237 54.4383C36.476 55.5621 32.1713 56.324 27.8284 56.7049Z" fill="url(#paint20_radial)"/>
<defs>
<radialGradient id="paint0_radial" cx="0" cy="0" r="1" gradientUnits="userSpaceOnUse" gradientTransform="translate(34.0041 27.2683) scale(36.7656)">
<stop stop-color="#FFE030"/>
<stop offset="1" stop-color="#FFB92E"/>
</radialGradient>
<radialGradient id="paint1_radial" cx="0" cy="0" r="1" gradientUnits="userSpaceOnUse" gradientTransform="translate(34.0041 27.2683) scale(28.9251)">
<stop stop-color="#FFEA5F"/>
<stop offset="1" stop-color="#FFBC47" stop-opacity="0"/>
</radialGradient>
<radialGradient id="paint2_radial" cx="0" cy="0" r="1" gradientUnits="userSpaceOnUse" gradientTransform="translate(34.367 27.0988) rotate(1.67052) scale(28.9258)">
<stop stop-color="#FFEA5F"/>
<stop offset="1" stop-color="#FFBC47" stop-opacity="0"/>
</radialGradient>
<radialGradient id="paint3_radial" cx="0" cy="0" r="1" gradientUnits="userSpaceOnUse" gradientTransform="translate(26.6283 35.949) rotate(-17.299) scale(8.75556)">
<stop offset="0.8945" stop-color="#E89043" stop-opacity="0"/>
<stop offset="0.9103" stop-color="#EE9640" stop-opacity="0.0748107"/>
<stop offset="0.9488" stop-color="#F89F3C" stop-opacity="0.2573"/>
<stop offset="1" stop-color="#FBA23B" stop-opacity="0.5"/>
</radialGradient>
<radialGradient id="paint4_radial" cx="0" cy="0" r="1" gradientUnits="userSpaceOnUse" gradientTransform="translate(26.6283 35.949) rotate(-17.299) scale(8.75556)">
<stop offset="0.8827" stop-color="#FBA23B" stop-opacity="0"/>
<stop offset="0.9161" stop-color="#FBA23B" stop-opacity="0.5"/>
<stop offset="0.9866" stop-color="#E89043" stop-opacity="0"/>
</radialGradient>
<radialGradient id="paint5_radial" cx="0" cy="0" r="1" gradientUnits="userSpaceOnUse" gradientTransform="translate(26.8593 36.8886) rotate(72.7009) scale(10.0242 10.1463)">
<stop stop-color="#CFDCDE" stop-opacity="0"/>
<stop offset="0.8869" stop-color="#CFDCDE" stop-opacity="0.8869"/>
<stop offset="1" stop-color="#CFDCDE"/>
</radialGradient>
<radialGradient id="paint6_radial" cx="0" cy="0" r="1" gradientUnits="userSpaceOnUse" gradientTransform="translate(26.6524 36.5186) rotate(-17.299) scale(8.61372)">
<stop stop-color="white" stop-opacity="0"/>
<stop offset="0.4376" stop-color="#FDFEFE" stop-opacity="0.3499"/>
<stop offset="0.5952" stop-color="#F6F8F9" stop-opacity="0.4759"/>
<stop offset="0.7075" stop-color="#EBEFF0" stop-opacity="0.5657"/>
<stop offset="0.7983" stop-color="#DAE2E3" stop-opacity="0.6384"/>
<stop offset="0.8752" stop-color="#C4D1D3" stop-opacity="0.6999"/>
<stop offset="0.9004" stop-color="#BBCACC" stop-opacity="0.72"/>
<stop offset="1" stop-color="#99AFB3"/>
</radialGradient>
<radialGradient id="paint7_radial" cx="0" cy="0" r="1" gradientUnits="userSpaceOnUse" gradientTransform="translate(48.9316 29.012) rotate(162.701) scale(8.75557)">
<stop offset="0.8827" stop-color="#FBA23B" stop-opacity="0"/>
<stop offset="0.9161" stop-color="#FBA23B" stop-opacity="0.5"/>
<stop offset="0.9866" stop-color="#E89043" stop-opacity="0"/>
</radialGradient>
<radialGradient id="paint8_radial" cx="0" cy="0" r="1" gradientUnits="userSpaceOnUse" gradientTransform="translate(48.9316 29.012) rotate(162.701) scale(8.75557)">
<stop offset="0.8945" stop-color="#E89043" stop-opacity="0"/>
<stop offset="0.9103" stop-color="#EE9640" stop-opacity="0.0748107"/>
<stop offset="0.9488" stop-color="#F89F3C" stop-opacity="0.2573"/>
<stop offset="1" stop-color="#FBA23B" stop-opacity="0.5"/>
</radialGradient>
<radialGradient id="paint9_radial" cx="0" cy="0" r="1" gradientUnits="userSpaceOnUse" gradientTransform="translate(49.2809 29.9244) rotate(72.7009) scale(10.0242 10.1463)">
<stop stop-color="#CFDCDE" stop-opacity="0"/>
<stop offset="0.8869" stop-color="#CFDCDE" stop-opacity="0.8869"/>
<stop offset="1" stop-color="#CFDCDE"/>
</radialGradient>
<radialGradient id="paint10_radial" cx="0" cy="0" r="1" gradientUnits="userSpaceOnUse" gradientTransform="translate(49.2345 29.4948) rotate(162.701) scale(8.61371)">
<stop stop-color="white" stop-opacity="0"/>
<stop offset="0.4376" stop-color="#FDFEFE" stop-opacity="0.3499"/>
<stop offset="0.5952" stop-color="#F6F8F9" stop-opacity="0.4759"/>
<stop offset="0.7075" stop-color="#EBEFF0" stop-opacity="0.5657"/>
<stop offset="0.7983" stop-color="#DAE2E3" stop-opacity="0.6384"/>
<stop offset="0.8752" stop-color="#C4D1D3" stop-opacity="0.6999"/>
<stop offset="0.9004" stop-color="#BBCACC" stop-opacity="0.72"/>
<stop offset="1" stop-color="#99AFB3"/>
</radialGradient>
<radialGradient id="paint11_radial" cx="0" cy="0" r="1" gradientUnits="userSpaceOnUse" gradientTransform="translate(44.418 53.835) rotate(-17.2952) scale(16.789)">
<stop offset="0.00132565" stop-color="#7A4400"/>
<stop offset="1" stop-color="#643800"/>
</radialGradient>
<linearGradient id="paint12_linear" x1="63.8168" y1="44.18" x2="23.2156" y2="56.8222" gradientUnits="userSpaceOnUse">
<stop offset="0.00132565" stop-color="#3C2200"/>
<stop offset="0.5" stop-color="#512D00"/>
<stop offset="1" stop-color="#3C2200"/>
</linearGradient>
<radialGradient id="paint13_radial" cx="0" cy="0" r="1" gradientUnits="userSpaceOnUse" gradientTransform="translate(43.0252 49.363) rotate(-17.2952) scale(36.8187)">
<stop offset="0.00132565" stop-color="white"/>
<stop offset="1" stop-color="#A9BCBE"/>
</radialGradient>
<radialGradient id="paint14_radial" cx="0" cy="0" r="1" gradientUnits="userSpaceOnUse" gradientTransform="translate(47.3547 19.0114) rotate(1.67052) scale(8.16657)">
<stop offset="0.00132565" stop-color="#7A4400"/>
<stop offset="1" stop-color="#643800"/>
</radialGradient>
<linearGradient id="paint15_linear" x1="44.5424" y1="28.6704" x2="51.322" y2="28.8681" gradientUnits="userSpaceOnUse">
<stop offset="0.00132565" stop-color="#3C2200"/>
<stop offset="1" stop-color="#512D00"/>
</linearGradient>
<radialGradient id="paint16_radial" cx="0" cy="0" r="1" gradientUnits="userSpaceOnUse" gradientTransform="translate(26.6756 32.3433) rotate(1.67052) scale(6.67015)">
<stop offset="0.00132565" stop-color="#7A4400"/>
<stop offset="1" stop-color="#643800"/>
</radialGradient>
<linearGradient id="paint17_linear" x1="24.2322" y1="39.5893" x2="28.6608" y2="39.7185" gradientUnits="userSpaceOnUse">
<stop offset="0.00132565" stop-color="#3C2200"/>
<stop offset="1" stop-color="#512D00"/>
</linearGradient>
<linearGradient id="paint18_linear" x1="34.1211" y1="72.3555" x2="34.5685" y2="49.2191" gradientUnits="userSpaceOnUse">
<stop stop-color="#EF708C"/>
<stop offset="1" stop-color="#FF0000"/>
</linearGradient>
<linearGradient id="paint19_linear" x1="34.372" y1="60.9901" x2="34.0769" y2="74.117" gradientUnits="userSpaceOnUse">
<stop stop-color="#D93E15" stop-opacity="0"/>
<stop offset="1" stop-color="#D93E15"/>
</linearGradient>
<radialGradient id="paint20_radial" cx="0" cy="0" r="1" gradientUnits="userSpaceOnUse" gradientTransform="translate(32.2123 34.0445) scale(25.6762)">
<stop offset="0.7746" stop-color="#860805"/>
<stop offset="1" stop-color="#860805" stop-opacity="0"/>
</radialGradient>
</defs>
</svg>
