<svg width="80" height="80" viewBox="0 0 80 80" fill="none" xmlns="http://www.w3.org/2000/svg">
<path d="M17.2009 58.7536C20.1832 58.7536 24.4668 59.0054 26.4806 59.0054C28.4944 59.0054 30.9136 61.668 40.3511 61.668C49.7887 61.668 51.7257 58.361 51.6447 55.9416C51.5636 53.5221 53.4494 53.2234 53.9571 50.6077C54.3454 48.5979 53.3683 48.2096 53.3683 46.9166C53.3683 45.6237 55.2755 44.958 55.2755 42.7818C55.2755 40.6098 53.5817 38.8347 53.5817 38.8347C53.5817 38.8347 65.8437 38.8347 70.1956 38.8347C74.5474 38.8347 79.9958 39.1974 79.9958 34.478C79.9958 29.7586 74.1891 30.3218 71.1043 30.3218C68.0196 30.3218 49.3237 30.2408 49.3237 30.2408C49.3237 30.2408 56.948 28.184 56.948 22.2527C56.948 16.3214 52.8222 17.4608 49.5071 20.4392C43.6662 25.6835 29.8896 22.7392 25.1879 34.9602C25.1879 34.9602 24.7868 36.2787 16.0959 34.7383C16.0959 34.7383 12 35.3997 12 45.7517C12 56.8803 17.2009 58.7536 17.2009 58.7536Z" fill="url(#paint0_linear)"/>
<path d="M56.4275 19.4062C56.7518 20.0762 56.9481 21.0021 56.9481 22.2609C56.9481 27.5393 50.9194 29.7454 49.5925 30.1679L43.6022 30.3898H38.1624C48.4192 28.6658 55.7662 23.0674 56.4275 19.4062Z" fill="url(#paint1_linear)"/>
<path d="M56.9482 22.2612C56.9482 28.1924 49.3239 30.2492 49.3239 30.2492L37.9536 30.5308C37.9536 30.5308 43.3038 28.9477 47.4509 28.7557C52.6902 28.5125 56.8458 24.8086 56.8501 20.853C56.9141 21.2669 56.9482 21.7363 56.9482 22.2612Z" fill="url(#paint2_linear)"/>
<path d="M70.1954 38.8387C65.8393 38.8387 53.5815 38.8387 53.5815 38.8387C53.5815 38.8387 54.7676 40.0889 55.1559 41.7744C54.8743 40.9381 52.9373 39.3379 51.8877 38.6637C50.7571 37.9383 53.0183 37.4689 56.0049 37.4689C58.9915 37.4689 70.5069 37.2257 75.1616 37.2257C77.9434 37.2257 79.9999 36.1418 79.9999 34.4819C79.9956 39.2014 74.5515 38.8387 70.1954 38.8387Z" fill="url(#paint3_linear)"/>
<path d="M54.0081 50.2872C54.0039 49.0839 52.4893 48.6785 52.4893 46.9461C52.4893 45.2136 55.271 44.1554 55.271 42.7856C55.271 44.9576 53.3639 45.6275 53.3639 46.9205C53.3639 48.1366 54.2385 48.5548 54.0081 50.2872Z" fill="url(#paint4_linear)"/>
<path d="M20.5288 57.6526C27.7264 57.2302 22.5938 51.7853 30.329 57.5929C34.7491 60.9127 43.0347 60.0721 46.2986 59.7094C49.5667 59.3467 50.2323 56.5645 50.7144 54.6272C51.1368 52.946 53.3042 52.3145 53.8717 50.9575C53.2701 53.249 51.5677 53.633 51.6445 55.9372C51.7256 58.3567 49.7886 61.6637 40.3511 61.6637C30.9135 61.6637 28.4944 59.001 26.4806 59.001C24.4668 59.001 20.1832 58.7493 17.2009 58.7493C17.2009 58.7493 15.409 58.1049 13.9285 55.3228C15.6436 55.8391 17.9262 57.8062 20.5288 57.6526Z" fill="url(#paint5_linear)"/>
<path d="M25.1879 34.9645C27.6455 28.5809 32.5776 26.3364 37.5567 24.8984C29.7318 27.783 27.1804 35.387 25.5506 36.4751C24.0445 37.4778 19.4452 38.2288 14.7051 35.5832C15.4688 34.8408 16.0917 34.7426 16.0917 34.7426C24.7869 36.2831 25.1879 34.9645 25.1879 34.9645Z" fill="url(#paint6_linear)"/>
<path d="M12.0085 46.4472C17.3716 45.5852 22.3549 49.5195 30.5637 49.5195C39.5747 49.5195 44.302 55.391 53.3983 52.1523C52.6559 53.4836 51.585 54.1024 51.649 55.9372C51.73 58.3567 49.793 61.6637 40.3554 61.6637C30.9178 61.6637 28.4987 59.001 26.4849 59.001C24.4711 59.001 20.1875 58.745 17.2052 58.7493C17.2009 58.7535 12.2176 56.9571 12.0085 46.4472Z" fill="url(#paint7_linear)"/>
<path opacity="0.5" d="M50.5951 37.1406C50.5951 39.6838 51.4442 41.1346 51.4442 43.1914C51.4442 45.2481 50.1983 51.9048 45.7569 51.9048C41.3155 51.9048 32.3046 48.2735 31.1654 44.2795C30.0263 40.2855 35.4831 33.185 39.1182 32.5834C42.749 31.9774 50.5951 33.1466 50.5951 37.1406Z" fill="url(#paint8_radial)"/>
<path d="M37.6504 30.5694C37.6504 30.5694 49.2386 30.2451 49.3196 30.2451L50.0578 30.0019C50.0578 29.8355 49.5543 29.78 49.3836 29.78C49.0551 29.78 40.9656 29.5155 37.6504 30.5694Z" fill="#975500"/>
<path opacity="0.5" d="M76.3862 34.0302C76.3862 35.4469 73.0455 36.663 66.4707 35.7499C59.896 34.8367 51.7981 37.9645 51.7981 34.4783C51.7981 30.9921 64.8494 32.7117 66.876 32.7117C68.8984 32.716 76.3862 31.1969 76.3862 34.0302Z" fill="url(#paint9_radial)"/>
<defs>
<linearGradient id="paint0_linear" x1="40.4006" y1="79.0231" x2="48.1433" y2="23.9203" gradientUnits="userSpaceOnUse">
<stop offset="0.00132565" stop-color="#D2A374"/>
<stop offset="1" stop-color="#DEBA94"/>
</linearGradient>
<linearGradient id="paint1_linear" x1="45.349" y1="16.6094" x2="52.4083" y2="45.906" gradientUnits="userSpaceOnUse">
<stop stop-color="#D2A374" stop-opacity="0"/>
<stop offset="1" stop-color="#B88653"/>
</linearGradient>
<linearGradient id="paint2_linear" x1="43.5774" y1="17.6909" x2="50.2571" y2="31.6556" gradientUnits="userSpaceOnUse">
<stop offset="0.3118" stop-color="#D2A374" stop-opacity="0"/>
<stop offset="1" stop-color="#B88653"/>
</linearGradient>
<linearGradient id="paint3_linear" x1="68.7989" y1="27.182" x2="58.9309" y2="58.6035" gradientUnits="userSpaceOnUse">
<stop stop-color="#D2A374" stop-opacity="0"/>
<stop offset="1" stop-color="#B88653"/>
</linearGradient>
<linearGradient id="paint4_linear" x1="56.5638" y1="46.5397" x2="47.8522" y2="46.5398" gradientUnits="userSpaceOnUse">
<stop stop-color="#D2A374" stop-opacity="0"/>
<stop offset="1" stop-color="#B88653"/>
</linearGradient>
<linearGradient id="paint5_linear" x1="35.0401" y1="45.8391" x2="28.8155" y2="85.7619" gradientUnits="userSpaceOnUse">
<stop stop-color="#D2A374" stop-opacity="0"/>
<stop offset="1" stop-color="#B88653"/>
</linearGradient>
<linearGradient id="paint6_linear" x1="34.028" y1="36.7743" x2="9.43722" y2="16.4365" gradientUnits="userSpaceOnUse">
<stop stop-color="#D2A374" stop-opacity="0"/>
<stop offset="1" stop-color="#B88653"/>
</linearGradient>
<linearGradient id="paint7_linear" x1="33.9802" y1="40.6996" x2="24.112" y2="107.035" gradientUnits="userSpaceOnUse">
<stop stop-color="#D2A374" stop-opacity="0"/>
<stop offset="1" stop-color="#B88653"/>
</linearGradient>
<radialGradient id="paint8_radial" cx="0" cy="0" r="1" gradientUnits="userSpaceOnUse" gradientTransform="translate(46.5759 42.2171) rotate(-90) scale(10.3574 5.25659)">
<stop stop-color="#E9CDB1"/>
<stop offset="1" stop-color="#E9CDB1" stop-opacity="0"/>
</radialGradient>
<radialGradient id="paint9_radial" cx="0" cy="0" r="1" gradientUnits="userSpaceOnUse" gradientTransform="translate(64.0919 34.2124) rotate(-178.412) scale(12.7003 1.48154)">
<stop stop-color="#E9CDB1"/>
<stop offset="1" stop-color="#E9CDB1" stop-opacity="0"/>
</radialGradient>
</defs>
</svg>
