<svg width="80" height="80" viewBox="0 0 80 80" fill="none" xmlns="http://www.w3.org/2000/svg">
<path d="M58.7427 68.7992C58.7427 65.8169 58.9944 61.5333 58.9944 59.5195C58.9944 57.5057 61.6564 55.0866 61.6564 45.649C61.6564 36.2114 58.3502 34.2744 55.9314 34.3555C53.5126 34.4366 53.214 32.5508 50.599 32.043C48.5897 31.6548 48.2015 32.6318 46.9089 32.6318C45.6206 32.6318 44.9508 30.7247 42.7752 30.7247C40.6038 30.7247 38.8292 32.4185 38.8292 32.4185C38.8292 32.4185 38.8292 20.1565 38.8292 15.8046C38.8292 11.4528 39.1918 6.00439 34.4736 6.00439C29.7554 6.00439 30.3185 11.8111 30.3185 14.8958C30.3185 17.9805 30.2375 36.6765 30.2375 36.6765C30.2375 36.6765 28.1813 29.0522 22.2516 29.0522C16.3219 29.0522 17.4609 33.1779 20.4386 36.493C25.6814 42.3339 22.7379 56.1106 34.9557 60.8123C34.9557 60.8123 36.2738 61.2133 34.7338 69.9042C34.7338 69.9042 35.395 74.0001 45.7443 74.0001C56.8699 74.0001 58.7427 68.7992 58.7427 68.7992Z" fill="url(#paint0_linear)"/>
<path d="M19.4062 29.5728C20.076 29.2485 21.0017 29.0522 22.2602 29.0522C27.5372 29.0522 29.7427 35.0808 30.165 36.4077L30.3868 42.3979V47.8377C28.6677 37.581 23.0664 30.2341 19.4062 29.5728Z" fill="url(#paint1_linear)"/>
<path d="M22.2601 29.0522C28.1898 29.0522 30.246 36.6765 30.246 36.6765L30.5275 48.0468C30.5275 48.0468 28.9448 42.6966 28.7529 38.5495C28.5097 33.3102 24.8069 29.1546 20.8523 29.1504C21.2661 29.0864 21.7354 29.0522 22.2601 29.0522Z" fill="url(#paint2_linear)"/>
<path d="M38.8333 15.8045C38.8333 20.1606 38.8333 32.4183 38.8333 32.4183C38.8333 32.4183 40.0832 31.2322 41.7683 30.844C40.9322 31.1256 39.3324 33.0626 38.6584 34.1121C37.9332 35.2428 37.464 32.9815 37.464 29.9949C37.464 27.0126 37.2208 15.493 37.2208 10.8382C37.2208 8.05646 36.1372 6 34.4778 6C39.1959 6.00427 38.8333 11.4484 38.8333 15.8045Z" fill="url(#paint3_linear)"/>
<path d="M50.2789 31.9914C49.0759 31.9957 48.6706 33.5103 46.9386 33.5103C45.2066 33.5103 44.1487 30.7285 42.7793 30.7285C44.9507 30.7285 45.6204 32.6357 46.913 32.6357C48.1288 32.6357 48.5469 31.761 50.2789 31.9914Z" fill="url(#paint4_linear)"/>
<path d="M57.6461 65.4714C57.2238 58.2738 51.7805 63.4064 57.5864 55.6712C60.9053 51.2511 60.0649 42.9654 59.7023 39.7015C59.3397 36.4376 56.5583 35.7678 54.6216 35.2857C52.9408 34.8633 52.3094 32.6959 50.9529 32.1284C53.2437 32.73 53.6276 34.4324 55.9312 34.3556C58.35 34.2745 61.6561 36.2115 61.6561 45.6491C61.6561 55.0867 58.9941 57.5058 58.9941 59.5196C58.9941 61.5334 58.7424 65.817 58.7424 68.7993C58.7424 68.7993 58.0983 70.5913 55.3169 72.0718C55.8288 70.3566 57.7997 68.074 57.6461 65.4714Z" fill="url(#paint5_linear)"/>
<path d="M34.9641 60.812C28.5824 58.3545 26.3385 53.4224 24.9009 48.4434C27.7846 56.2682 35.3865 58.8196 36.4743 60.4494C37.4768 61.9555 38.2276 66.5505 35.5827 71.2949C34.8404 70.5312 34.7423 69.9083 34.7423 69.9083C36.2823 61.2131 34.9641 60.812 34.9641 60.812Z" fill="url(#paint6_linear)"/>
<path d="M46.4437 73.9917C45.582 68.6287 49.5153 63.6453 49.5153 55.4365C49.5153 46.4256 55.3853 41.6983 52.1474 32.6021C53.4784 33.3444 54.0969 34.4153 55.9313 34.3513C58.3502 34.2703 61.6563 36.2073 61.6563 45.6448C61.6563 55.0824 58.9943 57.5015 58.9943 59.5153C58.9943 61.5291 58.7384 65.8127 58.7426 68.795C58.7426 68.7993 56.9466 73.7826 46.4437 73.9917Z" fill="url(#paint7_linear)"/>
<path opacity="0.5" d="M37.1355 35.4052C39.678 35.4052 41.1284 34.5562 43.1846 34.5562C45.2408 34.5562 51.8957 35.802 51.8957 40.2434C51.8957 44.6849 48.2654 53.6958 44.2724 54.8349C40.2795 55.9741 33.1809 50.5172 32.5794 46.8821C31.9737 43.2513 33.1425 35.4052 37.1355 35.4052Z" fill="url(#paint8_radial)"/>
<path d="M30.566 48.3494C30.566 48.3494 30.2418 36.7616 30.2418 36.6805L29.9987 35.9424C29.8323 35.9424 29.7769 36.4458 29.7769 36.6165C29.7769 36.945 29.5124 45.0343 30.566 48.3494Z" fill="#975500"/>
<path opacity="0.5" d="M34.0256 9.61377C35.4418 9.61377 36.6576 12.9545 35.7447 19.5292C34.8318 26.1039 37.9587 34.2018 34.4735 34.2018C30.9883 34.2018 32.7074 21.1505 32.7074 19.1239C32.7074 17.0973 31.193 9.61377 34.0256 9.61377Z" fill="url(#paint9_radial)"/>
<defs>
<linearGradient id="paint0_linear" x1="79.0082" y1="45.6017" x2="23.9197" y2="37.863" gradientUnits="userSpaceOnUse">
<stop offset="0.00132565" stop-color="#D2A374"/>
<stop offset="1" stop-color="#DEBA94"/>
</linearGradient>
<linearGradient id="paint1_linear" x1="16.6116" y1="40.6533" x2="45.9013" y2="33.5973" gradientUnits="userSpaceOnUse">
<stop stop-color="#D2A374" stop-opacity="0"/>
<stop offset="1" stop-color="#B88653"/>
</linearGradient>
<linearGradient id="paint2_linear" x1="17.6924" y1="42.4251" x2="31.6548" y2="35.7483" gradientUnits="userSpaceOnUse">
<stop offset="0.3118" stop-color="#D2A374" stop-opacity="0"/>
<stop offset="1" stop-color="#B88653"/>
</linearGradient>
<linearGradient id="paint3_linear" x1="27.1813" y1="17.203" x2="58.5958" y2="27.0661" gradientUnits="userSpaceOnUse">
<stop stop-color="#D2A374" stop-opacity="0"/>
<stop offset="1" stop-color="#B88653"/>
</linearGradient>
<linearGradient id="paint4_linear" x1="46.5333" y1="29.4373" x2="46.5334" y2="38.149" gradientUnits="userSpaceOnUse">
<stop stop-color="#D2A374" stop-opacity="0"/>
<stop offset="1" stop-color="#B88653"/>
</linearGradient>
<linearGradient id="paint5_linear" x1="45.8331" y1="50.9621" x2="85.7452" y2="57.1832" gradientUnits="userSpaceOnUse">
<stop stop-color="#D2A374" stop-opacity="0"/>
<stop offset="1" stop-color="#B88653"/>
</linearGradient>
<linearGradient id="paint6_linear" x1="36.7706" y1="51.974" x2="16.4318" y2="76.5592" gradientUnits="userSpaceOnUse">
<stop stop-color="#D2A374" stop-opacity="0"/>
<stop offset="1" stop-color="#B88653"/>
</linearGradient>
<linearGradient id="paint7_linear" x1="40.6948" y1="52.0221" x2="107.014" y2="61.8854" gradientUnits="userSpaceOnUse">
<stop stop-color="#D2A374" stop-opacity="0"/>
<stop offset="1" stop-color="#B88653"/>
</linearGradient>
<radialGradient id="paint8_radial" cx="0" cy="0" r="1" gradientUnits="userSpaceOnUse" gradientTransform="translate(42.1986 39.4155) rotate(180) scale(10.3546 5.2566)">
<stop stop-color="#E9CDB1"/>
<stop offset="1" stop-color="#E9CDB1" stop-opacity="0"/>
</radialGradient>
<radialGradient id="paint9_radial" cx="0" cy="0" r="1" gradientUnits="userSpaceOnUse" gradientTransform="translate(34.2212 21.8845) rotate(91.5886) scale(12.7002 1.48113)">
<stop stop-color="#E9CDB1"/>
<stop offset="1" stop-color="#E9CDB1" stop-opacity="0"/>
</radialGradient>
</defs>
</svg>
