<svg width="80" height="80" viewBox="0 0 80 80" fill="none" xmlns="http://www.w3.org/2000/svg">
<path d="M20.9138 11.2012C20.9138 14.1837 20.6621 18.4676 20.6621 20.4815C20.6621 22.4954 18 24.9147 18 34.3529C18 43.791 21.3063 45.7281 23.7253 45.6471C26.1442 45.566 26.4428 47.4519 29.058 47.9597C31.0674 48.348 31.4557 47.3709 32.7483 47.3709C34.041 47.3709 34.7065 49.2781 36.8823 49.2781C39.0538 49.2781 40.8286 47.5842 40.8286 47.5842C40.8286 47.5842 40.8286 59.847 40.8286 64.1991C40.8286 68.5555 40.4659 73.9999 45.1844 73.9999C49.9028 73.9999 49.3397 68.1928 49.3397 65.1079C49.3397 62.0231 49.4207 43.3259 49.4207 43.3259C49.4207 43.3259 51.4771 50.9507 57.4071 50.9507C63.3372 50.9507 62.1981 46.8247 59.2203 43.5094C53.9771 37.6682 56.9208 23.8907 44.7023 19.1887C44.7023 19.1887 43.384 18.7876 44.9242 10.0961C44.9242 10.0961 44.2629 6 33.913 6C22.7824 6 20.9138 11.2012 20.9138 11.2012Z" fill="url(#paint0_linear)"/>
<path d="M60.2526 50.4258C59.5828 50.7501 58.657 50.9464 57.3985 50.9464C52.1213 50.9464 49.9157 44.9174 49.4933 43.5904L49.2715 37.5998V32.1597C50.9907 42.417 56.5922 49.7645 60.2526 50.4258Z" fill="url(#paint1_linear)"/>
<path d="M57.3986 50.9465C51.4685 50.9465 49.4122 43.3217 49.4122 43.3217L49.1306 31.9507C49.1306 31.9507 50.7134 37.3012 50.9054 41.4486C51.1485 46.6882 54.8516 50.844 58.8064 50.8483C58.3883 50.9123 57.9233 50.9465 57.3986 50.9465Z" fill="url(#paint2_linear)"/>
<path d="M40.8241 64.1951C40.8241 59.8387 40.8241 47.5802 40.8241 47.5802C40.8241 47.5802 39.5741 48.7664 37.8889 49.1546C38.7251 48.873 40.325 46.9359 40.9991 45.8863C41.7243 44.7556 42.1936 47.017 42.1936 50.0037C42.1936 52.9862 42.4368 64.5066 42.4368 69.1616C42.4368 71.9436 43.5205 74.0002 45.18 74.0002C40.4615 73.9959 40.8241 68.5515 40.8241 64.1951Z" fill="url(#paint3_linear)"/>
<path d="M29.3779 48.0068C30.581 48.0025 30.9863 46.4878 32.7184 46.4878C34.4505 46.4878 35.5085 49.2697 36.878 49.2697C34.7065 49.2697 34.0367 47.3625 32.744 47.3625C31.5239 47.3667 31.11 48.2372 29.3779 48.0068Z" fill="url(#paint4_linear)"/>
<path d="M22.0103 14.5295C22.4327 21.7276 27.8764 16.5946 22.07 24.3303C18.7509 28.7507 19.5913 37.0368 19.954 40.3009C20.3166 43.5693 23.0982 44.2349 25.0351 44.7171C26.716 45.1395 27.3474 47.307 28.7041 47.8745C26.4131 47.2729 26.0291 45.5704 23.7253 45.6472C21.3064 45.7283 18 43.7912 18 34.353C18 24.9149 20.6622 22.4956 20.6622 20.4816C20.6622 18.4677 20.9139 14.1838 20.9139 11.2014C20.9139 11.2014 21.5581 9.40929 24.3397 7.92871C23.8278 9.6397 21.8567 11.9224 22.0103 14.5295Z" fill="url(#paint5_linear)"/>
<path d="M44.6938 19.1847C51.0761 21.6424 53.3201 26.5705 54.7578 31.5542C51.8739 23.7289 44.2714 21.1773 43.1835 19.5474C42.181 18.0412 41.4301 13.4459 44.0752 8.70117C44.8175 9.46493 44.9156 10.0879 44.9156 10.0879C43.3755 18.7836 44.6938 19.1847 44.6938 19.1847Z" fill="url(#paint6_linear)"/>
<path d="M33.2134 6.00439C34.0752 11.3678 30.1417 16.3514 30.1417 24.5607C30.1417 33.5722 24.2714 38.2998 27.5094 47.3966C26.1784 46.6542 25.5598 45.5832 23.7253 45.6472C21.3063 45.7283 18 43.7912 18 34.353C18 24.9149 20.6621 22.4956 20.6621 20.4816C20.6621 18.4677 20.9181 14.1839 20.9181 11.2014C20.9138 11.2014 22.7057 6.21773 33.2134 6.00439Z" fill="url(#paint7_linear)"/>
<path opacity="0.5" d="M42.5222 44.5928C39.9795 44.5928 38.529 45.4419 36.4727 45.4419C34.4163 45.4419 27.761 44.196 27.761 39.7543C27.761 35.3125 31.3916 26.301 35.3848 25.1618C39.378 24.0226 46.477 29.4798 47.0786 33.1151C47.6844 36.7504 46.5154 44.5928 42.5222 44.5928Z" fill="url(#paint8_radial)"/>
<path d="M49.0881 31.6519C49.0881 31.6519 49.4123 43.2405 49.4123 43.3215L49.6555 44.0597C49.8219 44.0597 49.8773 43.5562 49.8773 43.3855C49.8773 43.0527 50.1418 34.9672 49.0881 31.6519Z" fill="#975500"/>
<path opacity="0.5" d="M45.6279 70.3903C44.2115 70.3903 42.9956 67.0494 43.9086 60.4743C44.8173 53.8949 41.6944 45.8008 45.18 45.8008C48.6655 45.8008 46.9462 58.8529 46.9462 60.8796C46.9462 62.9064 48.4607 70.3903 45.6279 70.3903Z" fill="url(#paint9_radial)"/>
<path opacity="0.5" d="M28.1963 13.1855C30.739 13.1855 32.1895 12.3364 34.2458 12.3364C36.3021 12.3364 42.9574 13.5823 42.9574 18.0241C42.9574 22.4658 39.3268 31.4773 35.3337 32.6165C31.3405 33.7558 24.2415 28.2985 23.64 24.6632C23.0384 21.0279 24.2031 13.1855 28.1963 13.1855Z" fill="url(#paint10_radial)"/>
<defs>
<linearGradient id="paint0_linear" x1="0.646344" y1="34.3962" x2="55.7382" y2="42.1354" gradientUnits="userSpaceOnUse">
<stop offset="0.00132565" stop-color="#D2A374"/>
<stop offset="1" stop-color="#DEBA94"/>
</linearGradient>
<linearGradient id="paint1_linear" x1="63.0466" y1="39.3449" x2="33.7555" y2="46.401" gradientUnits="userSpaceOnUse">
<stop stop-color="#D2A374" stop-opacity="0"/>
<stop offset="1" stop-color="#B88653"/>
</linearGradient>
<linearGradient id="paint2_linear" x1="61.9657" y1="37.5731" x2="48.0025" y2="44.2502" gradientUnits="userSpaceOnUse">
<stop offset="0.3118" stop-color="#D2A374" stop-opacity="0"/>
<stop offset="1" stop-color="#B88653"/>
</linearGradient>
<linearGradient id="paint3_linear" x1="52.4764" y1="62.7968" x2="21.0593" y2="52.9326" gradientUnits="userSpaceOnUse">
<stop stop-color="#D2A374" stop-opacity="0"/>
<stop offset="1" stop-color="#B88653"/>
</linearGradient>
<linearGradient id="paint4_linear" x1="33.1235" y1="50.5634" x2="33.1234" y2="41.8513" gradientUnits="userSpaceOnUse">
<stop stop-color="#D2A374" stop-opacity="0"/>
<stop offset="1" stop-color="#B88653"/>
</linearGradient>
<linearGradient id="paint5_linear" x1="33.8235" y1="29.0356" x2="-6.09194" y2="22.8138" gradientUnits="userSpaceOnUse">
<stop stop-color="#D2A374" stop-opacity="0"/>
<stop offset="1" stop-color="#B88653"/>
</linearGradient>
<linearGradient id="paint6_linear" x1="42.8864" y1="28.0235" x2="63.2265" y2="3.43651" gradientUnits="userSpaceOnUse">
<stop stop-color="#D2A374" stop-opacity="0"/>
<stop offset="1" stop-color="#B88653"/>
</linearGradient>
<linearGradient id="paint7_linear" x1="38.9618" y1="27.9756" x2="-27.3612" y2="18.1119" gradientUnits="userSpaceOnUse">
<stop stop-color="#D2A374" stop-opacity="0"/>
<stop offset="1" stop-color="#B88653"/>
</linearGradient>
<radialGradient id="paint8_radial" cx="0" cy="0" r="1" gradientUnits="userSpaceOnUse" gradientTransform="translate(37.4343 40.5859) scale(10.3553 5.25676)">
<stop stop-color="#E9CDB1"/>
<stop offset="1" stop-color="#E9CDB1" stop-opacity="0"/>
</radialGradient>
<radialGradient id="paint9_radial" cx="0" cy="0" r="1" gradientUnits="userSpaceOnUse" gradientTransform="translate(45.4329 58.089) rotate(-88.4113) scale(12.7009 1.48128)">
<stop stop-color="#E9CDB1"/>
<stop offset="1" stop-color="#E9CDB1" stop-opacity="0"/>
</radialGradient>
<radialGradient id="paint10_radial" cx="0" cy="0" r="1" gradientUnits="userSpaceOnUse" gradientTransform="translate(33.3091 17.1938) rotate(180) scale(10.3551 5.25694)">
<stop stop-color="#E9CDB1"/>
<stop offset="1" stop-color="#E9CDB1" stop-opacity="0"/>
</radialGradient>
</defs>
</svg>
