<svg width="24" height="24" viewBox="0 0 24 24" fill="none" xmlns="http://www.w3.org/2000/svg">
<path d="M10.9371 6.21729H7.79422C7.73136 6.21729 7.67993 6.26871 7.67993 6.33157V7.09157C7.67993 7.15443 7.73136 7.20586 7.79422 7.20586H10.9371C10.9999 7.20586 11.0514 7.15443 11.0514 7.09157V6.33157C11.0514 6.26871 10.9999 6.21729 10.9371 6.21729Z" fill="url(#paint0_linear)"/>
<g opacity="0.25">
<path opacity="0.25" d="M8.76005 6.21729H8.61719V7.20586H8.76005V6.21729Z" fill="url(#paint1_linear)"/>
<path opacity="0.25" d="M9.45717 6.21729H9.28003V7.20586H9.45717V6.21729Z" fill="url(#paint2_linear)"/>
<path opacity="0.25" d="M9.07412 6.21729H8.89697V7.20586H9.07412V6.21729Z" fill="url(#paint3_linear)"/>
<path opacity="0.25" d="M8.07424 6.21729H7.98853V7.20586H8.07424V6.21729Z" fill="url(#paint4_linear)"/>
<path opacity="0.25" d="M7.9029 6.21729H7.82861V7.20586H7.9029V6.21729Z" fill="url(#paint5_linear)"/>
<path opacity="0.25" d="M8.26282 6.21729H8.17139V7.20586H8.26282V6.21729Z" fill="url(#paint6_linear)"/>
<path opacity="0.25" d="M9.83413 6.21729H9.65698V7.20586H9.83413V6.21729Z" fill="url(#paint7_linear)"/>
<path opacity="0.25" d="M8.48001 6.21729H8.36572V7.20586H8.48001V6.21729Z" fill="url(#paint8_linear)"/>
<path opacity="0.25" d="M10.9085 6.21729H10.8342V7.20586H10.9085V6.21729Z" fill="url(#paint9_linear)"/>
<path opacity="0.25" d="M11.0512 6.30314C11.0398 6.26886 11.017 6.24029 10.9827 6.22314V7.19457C11.017 7.18314 11.0398 7.14886 11.0512 7.11457V6.30314Z" fill="url(#paint10_linear)"/>
<path opacity="0.25" d="M7.7485 7.19457V6.22314C7.7085 6.24029 7.67993 6.28029 7.67993 6.326V7.086C7.67993 7.13743 7.7085 7.17743 7.7485 7.19457Z" fill="url(#paint11_linear)"/>
<path opacity="0.25" d="M10.5599 6.21729H10.4685V7.20586H10.5599V6.21729Z" fill="url(#paint12_linear)"/>
<path opacity="0.25" d="M10.3655 6.21729H10.2512V7.20586H10.3655V6.21729Z" fill="url(#paint13_linear)"/>
<path opacity="0.25" d="M10.7427 6.21729H10.657V7.20586H10.7427V6.21729Z" fill="url(#paint14_linear)"/>
<path opacity="0.25" d="M10.1143 6.21729H9.97144V7.20586H10.1143V6.21729Z" fill="url(#paint15_linear)"/>
</g>
<path d="M5.21725 6.57129H2.41725C2.38296 6.57129 2.36011 6.59415 2.36011 6.62843V7.11415H5.21725V6.57129Z" fill="url(#paint16_linear)"/>
<path d="M6.96002 7.01143H5.73145V6.26857C5.73145 6.23428 5.7543 6.21143 5.78859 6.21143H6.90287C6.93716 6.21143 6.96002 6.23428 6.96002 6.26857V7.01143Z" fill="url(#paint17_linear)"/>
<path d="M7.40577 7.10859H5.28006C5.2172 7.10859 5.16577 7.05716 5.16577 6.99431V6.42288C5.16577 6.36002 5.2172 6.30859 5.28006 6.30859H7.40577C7.46863 6.30859 7.52006 6.36002 7.52006 6.42288V6.99431C7.52006 7.05716 7.46863 7.10859 7.40577 7.10859Z" fill="url(#paint18_linear)"/>
<path d="M11.36 6.25139L10.5715 7.00567C10.52 7.0571 10.4457 7.08567 10.3715 7.08567H2.17146C2.01717 7.08567 1.88574 7.21139 1.88574 7.37139V8.82853H8.80003V12.0685H17.9143V8.82853H22.0572V6.4971C22.0572 6.31424 21.9086 6.17139 21.7315 6.17139H11.56C11.4857 6.17139 11.4172 6.19996 11.36 6.25139Z" fill="url(#paint19_linear)"/>
<path opacity="0.5" d="M21.6057 6.17139H20.7485V8.82853H21.6057V6.17139Z" fill="url(#paint20_linear)"/>
<path d="M2.45717 17.6228H21.4857C21.8 17.6228 22.0572 17.3656 22.0572 17.0513V8.82275H1.88574V17.0513C1.88574 17.3713 2.14289 17.6228 2.45717 17.6228Z" fill="url(#paint21_linear)"/>
<path d="M4.96574 8.82861H2.67432V17.6286H4.96574V8.82861Z" fill="url(#paint22_linear)"/>
<path d="M3.19992 8.82861H2.34277V17.6286H3.19992V8.82861Z" fill="url(#paint23_linear)"/>
<path d="M21.2685 17.6229H18.9771V8.82861H21.2685V17.6229Z" fill="url(#paint24_linear)"/>
<path d="M21.6057 8.82861H20.7485V17.6286H21.6057V8.82861Z" fill="url(#paint25_linear)"/>
<path d="M8.18859 12.56C8.18288 13.5029 8.3943 14.4 8.77716 15.1886C8.82287 15.2858 8.74859 15.1543 8.7143 15.2515C8.69716 15.2972 8.76002 15.5886 8.72573 15.6286C9.04573 16.2 9.45716 16.7258 9.96573 17.1772C10.1486 17.3429 10.3429 17.4915 10.5372 17.6286H16.4114C18.08 16.64 19.2172 14.7715 19.2229 12.64C19.2286 11.6972 19.0172 10.8 18.6343 10.0115C18.5657 9.86861 18.5829 9.69147 18.68 9.57147C18.5372 9.31433 18.3714 9.0629 18.1886 8.82861H9.53716C8.70287 9.83433 8.20002 11.1372 8.18859 12.56Z" fill="url(#paint26_linear)"/>
<path d="M18.6856 9.45116C18.3656 8.90258 17.9542 8.40544 17.4513 7.97116C16.9427 7.53687 16.3827 7.20544 15.7942 6.97687C15.6913 7.09687 15.5313 7.13687 15.3884 7.09116C14.7999 6.90258 14.1713 6.81116 13.5199 6.83401C10.5713 6.93116 8.20559 9.36544 8.18273 12.314C8.17702 13.2169 8.38844 14.074 8.7713 14.8283C8.83987 14.9654 8.82273 15.1312 8.71987 15.2512C9.03987 15.794 9.4513 16.2969 9.95416 16.7312C10.4627 17.1654 11.0227 17.4969 11.6113 17.7254C11.7142 17.6054 11.8742 17.5654 12.017 17.6112C12.6056 17.7997 13.2342 17.8912 13.8856 17.8683C16.8342 17.7712 19.1999 15.3369 19.217 12.3883C19.2227 11.4854 19.0113 10.6283 18.6284 9.87401C18.5713 9.73687 18.5884 9.57116 18.6856 9.45116Z" fill="url(#paint27_linear)"/>
<path d="M13.7029 17.7086C16.66 17.7086 19.0572 15.3114 19.0572 12.3543C19.0572 9.39719 16.66 7 13.7029 7C10.7458 7 8.34863 9.39719 8.34863 12.3543C8.34863 15.3114 10.7458 17.7086 13.7029 17.7086Z" fill="url(#paint28_linear)"/>
<path d="M13.7031 17.5199C16.556 17.5199 18.8688 15.2071 18.8688 12.3542C18.8688 9.50125 16.556 7.18848 13.7031 7.18848C10.8501 7.18848 8.53735 9.50125 8.53735 12.3542C8.53735 15.2071 10.8501 17.5199 13.7031 17.5199Z" fill="url(#paint29_linear)"/>
<path d="M13.703 16.4572C15.9689 16.4572 17.8058 14.6203 17.8058 12.3543C17.8058 10.0884 15.9689 8.25146 13.703 8.25146C11.437 8.25146 9.6001 10.0884 9.6001 12.3543C9.6001 14.6203 11.437 16.4572 13.703 16.4572Z" fill="black"/>
<path d="M13.7028 15.5487C15.467 15.5487 16.8971 14.1186 16.8971 12.3544C16.8971 10.5903 15.467 9.16016 13.7028 9.16016C11.9387 9.16016 10.5085 10.5903 10.5085 12.3544C10.5085 14.1186 11.9387 15.5487 13.7028 15.5487Z" fill="url(#paint30_radial)"/>
<path d="M13.7028 15.5487C15.467 15.5487 16.8971 14.1186 16.8971 12.3544C16.8971 10.5903 15.467 9.16016 13.7028 9.16016C11.9387 9.16016 10.5085 10.5903 10.5085 12.3544C10.5085 14.1186 11.9387 15.5487 13.7028 15.5487Z" fill="url(#paint31_radial)"/>
<path d="M12.6172 13.4057C11.7943 13.4057 10.7772 13.6915 10.2229 14.5315C10.8058 15.16 11.64 15.5486 12.5658 15.5486C14.3315 15.5486 15.76 14.12 15.76 12.3543C15.76 11.7372 15.5886 11.1657 15.2858 10.6743C15.1658 12.3715 13.6515 13.4057 12.6172 13.4057Z" fill="url(#paint32_radial)"/>
<path opacity="0.25" d="M13.7028 15.5487C15.467 15.5487 16.8971 14.1186 16.8971 12.3544C16.8971 10.5903 15.467 9.16016 13.7028 9.16016C11.9387 9.16016 10.5085 10.5903 10.5085 12.3544C10.5085 14.1186 11.9387 15.5487 13.7028 15.5487Z" fill="url(#paint33_radial)"/>
<path d="M14.8229 9.76562C13.1486 9.76562 11.7886 11.1256 11.7886 12.7999C11.7886 13.1256 11.84 13.4342 11.9314 13.7256C12.0286 13.5199 12.1943 13.3142 12.4457 13.1085C13.7943 12.0228 14.8857 13.1885 16.9029 12.1828C16.8514 11.2742 16.4229 10.4628 15.7714 9.9142C15.4686 9.81705 15.1543 9.76562 14.8229 9.76562Z" fill="url(#paint34_linear)"/>
<path opacity="0.5" d="M13.5315 9.16016C12.4972 9.64587 11.7772 10.6916 11.7772 11.9144C11.7772 13.5887 13.1372 14.9487 14.8115 14.9487C15.1429 14.9487 15.4629 14.8973 15.7601 14.7944C15.2058 15.263 14.4858 15.5487 13.6972 15.5487C11.9315 15.5487 10.5029 14.1202 10.5029 12.3544C10.5086 10.6459 11.8458 9.25158 13.5315 9.16016Z" fill="url(#paint35_radial)"/>
<path opacity="0.5" d="M13.6629 14.3256C13.2172 14.7313 12.3143 14.4685 11.6515 13.7371C10.9886 13.0056 10.8115 12.0856 11.2629 11.6799C11.7086 11.2742 12.6115 11.5371 13.2743 12.2685C13.9372 12.9999 14.1086 13.9199 13.6629 14.3256Z" fill="url(#paint36_radial)"/>
<path d="M19.1885 8.37171C19.6651 8.37171 20.0514 7.9854 20.0514 7.50885C20.0514 7.03231 19.6651 6.646 19.1885 6.646C18.712 6.646 18.3257 7.03231 18.3257 7.50885C18.3257 7.9854 18.712 8.37171 19.1885 8.37171Z" fill="url(#paint37_linear)"/>
<path d="M8.12016 8.30281C8.31582 8.30281 8.47444 8.14419 8.47444 7.94852C8.47444 7.75286 8.31582 7.59424 8.12016 7.59424C7.92449 7.59424 7.76587 7.75286 7.76587 7.94852C7.76587 8.14419 7.92449 8.30281 8.12016 8.30281Z" fill="url(#paint38_linear)"/>
<path d="M8.12002 8.15411C8.23364 8.15411 8.32574 8.062 8.32574 7.94839C8.32574 7.83478 8.23364 7.74268 8.12002 7.74268C8.00641 7.74268 7.91431 7.83478 7.91431 7.94839C7.91431 8.062 8.00641 8.15411 8.12002 8.15411Z" fill="url(#paint39_linear)"/>
<path d="M8.11991 8.09138C8.19881 8.09138 8.26277 8.02742 8.26277 7.94852C8.26277 7.86962 8.19881 7.80566 8.11991 7.80566C8.04101 7.80566 7.97705 7.86962 7.97705 7.94852C7.97705 8.02742 8.04101 8.09138 8.11991 8.09138Z" fill="black"/>
<path d="M7.40577 7.10859H5.28006C5.2172 7.10859 5.16577 7.05716 5.16577 6.99431V6.42288C5.16577 6.36002 5.2172 6.30859 5.28006 6.30859H7.40577C7.46863 6.30859 7.52006 6.36002 7.52006 6.42288V6.99431C7.52006 7.05716 7.46863 7.10859 7.40577 7.10859Z" fill="url(#paint40_linear)"/>
<path d="M5.96008 6.3999H5.86865V7.02276H5.96008V6.3999Z" fill="url(#paint41_linear)"/>
<path d="M6.40579 6.3999H6.2915V7.02276H6.40579V6.3999Z" fill="url(#paint42_linear)"/>
<path d="M6.1658 6.3999H6.05151V7.02276H6.1658V6.3999Z" fill="url(#paint43_linear)"/>
<path d="M6.64016 6.3999H6.52588V7.02276H6.64016V6.3999Z" fill="url(#paint44_linear)"/>
<path d="M5.78864 6.3999H5.71436V7.02276H5.78864V6.3999Z" fill="url(#paint45_linear)"/>
<path d="M6.97712 6.3999H6.90283V7.02276H6.97712V6.3999Z" fill="url(#paint46_linear)"/>
<path d="M6.81726 6.3999H6.72583V7.02276H6.81726V6.3999Z" fill="url(#paint47_linear)"/>
<defs>
<linearGradient id="paint0_linear" x1="11.7851" y1="9.82907" x2="8.89939" y2="6.10525" gradientUnits="userSpaceOnUse">
<stop stop-color="#8EA5A8"/>
<stop offset="1" stop-color="#CFDCDE"/>
</linearGradient>
<linearGradient id="paint1_linear" x1="8.68974" y1="7.13762" x2="8.68974" y2="5.89759" gradientUnits="userSpaceOnUse">
<stop stop-color="#8EA5A8"/>
<stop offset="1" stop-color="#CFDCDE"/>
</linearGradient>
<linearGradient id="paint2_linear" x1="9.36653" y1="7.13762" x2="9.36653" y2="5.89759" gradientUnits="userSpaceOnUse">
<stop stop-color="#8EA5A8"/>
<stop offset="1" stop-color="#CFDCDE"/>
</linearGradient>
<linearGradient id="paint3_linear" x1="8.98805" y1="7.13762" x2="8.98805" y2="5.89759" gradientUnits="userSpaceOnUse">
<stop stop-color="#8EA5A8"/>
<stop offset="1" stop-color="#CFDCDE"/>
</linearGradient>
<linearGradient id="paint4_linear" x1="8.03224" y1="7.13762" x2="8.03224" y2="5.89759" gradientUnits="userSpaceOnUse">
<stop stop-color="#8EA5A8"/>
<stop offset="1" stop-color="#CFDCDE"/>
</linearGradient>
<linearGradient id="paint5_linear" x1="7.86434" y1="7.13762" x2="7.86434" y2="5.89759" gradientUnits="userSpaceOnUse">
<stop stop-color="#8EA5A8"/>
<stop offset="1" stop-color="#CFDCDE"/>
</linearGradient>
<linearGradient id="paint6_linear" x1="8.21841" y1="7.13762" x2="8.21841" y2="5.89759" gradientUnits="userSpaceOnUse">
<stop stop-color="#8EA5A8"/>
<stop offset="1" stop-color="#CFDCDE"/>
</linearGradient>
<linearGradient id="paint7_linear" x1="9.74462" y1="7.13762" x2="9.74462" y2="5.89759" gradientUnits="userSpaceOnUse">
<stop stop-color="#8EA5A8"/>
<stop offset="1" stop-color="#CFDCDE"/>
</linearGradient>
<linearGradient id="paint8_linear" x1="8.42508" y1="7.13762" x2="8.42508" y2="5.89759" gradientUnits="userSpaceOnUse">
<stop stop-color="#8EA5A8"/>
<stop offset="1" stop-color="#CFDCDE"/>
</linearGradient>
<linearGradient id="paint9_linear" x1="10.8686" y1="7.13762" x2="10.8686" y2="5.89759" gradientUnits="userSpaceOnUse">
<stop stop-color="#8EA5A8"/>
<stop offset="1" stop-color="#CFDCDE"/>
</linearGradient>
<linearGradient id="paint10_linear" x1="11.0165" y1="7.13776" x2="11.0165" y2="5.89773" gradientUnits="userSpaceOnUse">
<stop stop-color="#8EA5A8"/>
<stop offset="1" stop-color="#CFDCDE"/>
</linearGradient>
<linearGradient id="paint11_linear" x1="7.71625" y1="7.13776" x2="7.71625" y2="5.89773" gradientUnits="userSpaceOnUse">
<stop stop-color="#8EA5A8"/>
<stop offset="1" stop-color="#CFDCDE"/>
</linearGradient>
<linearGradient id="paint12_linear" x1="10.5145" y1="7.13762" x2="10.5145" y2="5.89759" gradientUnits="userSpaceOnUse">
<stop stop-color="#8EA5A8"/>
<stop offset="1" stop-color="#CFDCDE"/>
</linearGradient>
<linearGradient id="paint13_linear" x1="10.3077" y1="7.13762" x2="10.3077" y2="5.89759" gradientUnits="userSpaceOnUse">
<stop stop-color="#8EA5A8"/>
<stop offset="1" stop-color="#CFDCDE"/>
</linearGradient>
<linearGradient id="paint14_linear" x1="10.7006" y1="7.13762" x2="10.7006" y2="5.89759" gradientUnits="userSpaceOnUse">
<stop stop-color="#8EA5A8"/>
<stop offset="1" stop-color="#CFDCDE"/>
</linearGradient>
<linearGradient id="paint15_linear" x1="10.0433" y1="7.13762" x2="10.0433" y2="5.89759" gradientUnits="userSpaceOnUse">
<stop stop-color="#8EA5A8"/>
<stop offset="1" stop-color="#CFDCDE"/>
</linearGradient>
<linearGradient id="paint16_linear" x1="2.17696" y1="8.58732" x2="5.3484" y2="5.18732" gradientUnits="userSpaceOnUse">
<stop stop-color="white"/>
<stop offset="1" stop-color="#99AFB3"/>
</linearGradient>
<linearGradient id="paint17_linear" x1="6.16081" y1="5.81809" x2="6.30367" y2="6.45619" gradientUnits="userSpaceOnUse">
<stop stop-color="#8EA5A8"/>
<stop offset="1" stop-color="#CFDCDE"/>
</linearGradient>
<linearGradient id="paint18_linear" x1="7.1165" y1="9.21377" x2="6.32364" y2="6.64235" gradientUnits="userSpaceOnUse">
<stop stop-color="#BBCACC"/>
<stop offset="0.4234" stop-color="#8EA5A8"/>
<stop offset="1" stop-color="#CFDCDE"/>
</linearGradient>
<linearGradient id="paint19_linear" x1="11.8912" y1="11.1211" x2="12.1197" y2="2.51156" gradientUnits="userSpaceOnUse">
<stop stop-color="white"/>
<stop offset="1" stop-color="#99AFB3"/>
</linearGradient>
<linearGradient id="paint20_linear" x1="21.593" y1="7.49905" x2="20.7402" y2="7.49905" gradientUnits="userSpaceOnUse">
<stop stop-color="white" stop-opacity="0"/>
<stop offset="0.4627" stop-color="white"/>
<stop offset="1" stop-color="white" stop-opacity="0"/>
</linearGradient>
<linearGradient id="paint21_linear" x1="9.05969" y1="-14.6179" x2="13.3646" y2="26.1487" gradientUnits="userSpaceOnUse">
<stop stop-color="#939FA1"/>
<stop offset="1"/>
</linearGradient>
<linearGradient id="paint22_linear" x1="2.6922" y1="13.2262" x2="4.98022" y2="13.2262" gradientUnits="userSpaceOnUse">
<stop stop-color="#2E3233" stop-opacity="0"/>
<stop offset="0.4627" stop-color="#2E3233"/>
<stop offset="1" stop-color="#2E3233" stop-opacity="0"/>
</linearGradient>
<linearGradient id="paint23_linear" x1="2.34974" y1="13.2262" x2="3.20256" y2="13.2262" gradientUnits="userSpaceOnUse">
<stop stop-color="#484D4F" stop-opacity="0"/>
<stop offset="0.4627" stop-color="#484D4F"/>
<stop offset="1" stop-color="#484D4F" stop-opacity="0"/>
</linearGradient>
<linearGradient id="paint24_linear" x1="21.2506" y1="13.2262" x2="18.9626" y2="13.2262" gradientUnits="userSpaceOnUse">
<stop stop-color="#2E3233" stop-opacity="0"/>
<stop offset="0.4627" stop-color="#2E3233"/>
<stop offset="1" stop-color="#2E3233" stop-opacity="0"/>
</linearGradient>
<linearGradient id="paint25_linear" x1="21.593" y1="13.2262" x2="20.7402" y2="13.2262" gradientUnits="userSpaceOnUse">
<stop stop-color="#484D4F" stop-opacity="0"/>
<stop offset="0.4627" stop-color="#484D4F"/>
<stop offset="1" stop-color="#484D4F" stop-opacity="0"/>
</linearGradient>
<linearGradient id="paint26_linear" x1="13.7115" y1="10.3887" x2="13.7115" y2="21.8828" gradientUnits="userSpaceOnUse">
<stop offset="0.4627"/>
<stop offset="1" stop-color="#2E3233" stop-opacity="0"/>
</linearGradient>
<linearGradient id="paint27_linear" x1="8.26232" y1="5.99609" x2="19.0242" y2="18.5675" gradientUnits="userSpaceOnUse">
<stop stop-color="white"/>
<stop offset="1" stop-color="#99AFB3"/>
</linearGradient>
<linearGradient id="paint28_linear" x1="15.6032" y1="1.53091" x2="13.346" y2="14.388" gradientUnits="userSpaceOnUse">
<stop stop-color="#8EA5A8"/>
<stop offset="1" stop-color="#BBCACC"/>
</linearGradient>
<linearGradient id="paint29_linear" x1="14.6148" y1="20.7618" x2="12.5931" y2="2.10366" gradientUnits="userSpaceOnUse">
<stop stop-color="white"/>
<stop offset="1" stop-color="#99AFB3"/>
</linearGradient>
<radialGradient id="paint30_radial" cx="0" cy="0" r="1" gradientUnits="userSpaceOnUse" gradientTransform="translate(15.4948 20.8712) scale(13.7478)">
<stop stop-color="#17BBFE"/>
<stop offset="1"/>
</radialGradient>
<radialGradient id="paint31_radial" cx="0" cy="0" r="1" gradientUnits="userSpaceOnUse" gradientTransform="translate(13.8216 12.4486) scale(4.04461)">
<stop offset="0.6629" stop-color="#17BBFE" stop-opacity="0"/>
<stop offset="1" stop-color="#17BBFE" stop-opacity="0.75"/>
</radialGradient>
<radialGradient id="paint32_radial" cx="0" cy="0" r="1" gradientUnits="userSpaceOnUse" gradientTransform="translate(11.6065 8.69072) scale(5.29008)">
<stop stop-color="#80DAFE"/>
<stop offset="1" stop-color="#80DAFE" stop-opacity="0"/>
</radialGradient>
<radialGradient id="paint33_radial" cx="0" cy="0" r="1" gradientUnits="userSpaceOnUse" gradientTransform="translate(13.1014 10.6792) scale(5.00205)">
<stop stop-color="#B0E9FF" stop-opacity="0"/>
<stop offset="0.9987" stop-color="#B0E9FF" stop-opacity="0.75"/>
</radialGradient>
<linearGradient id="paint34_linear" x1="13.4377" y1="10.3428" x2="18.2486" y2="22.0562" gradientUnits="userSpaceOnUse">
<stop stop-color="#D1F2FF" stop-opacity="0"/>
<stop offset="1" stop-color="#80DAFE"/>
</linearGradient>
<radialGradient id="paint35_radial" cx="0" cy="0" r="1" gradientUnits="userSpaceOnUse" gradientTransform="translate(14.4578 11.8598) scale(6.30411)">
<stop offset="0.4873" stop-color="#80DAFE" stop-opacity="0"/>
<stop offset="1" stop-color="#80DAFE"/>
</radialGradient>
<radialGradient id="paint36_radial" cx="0" cy="0" r="1" gradientUnits="userSpaceOnUse" gradientTransform="translate(12.6 12.7594) rotate(47.8152) scale(1.48149 0.949873)">
<stop stop-color="white" stop-opacity="0.5"/>
<stop offset="1" stop-color="white" stop-opacity="0"/>
</radialGradient>
<linearGradient id="paint37_linear" x1="19.1098" y1="7.22724" x2="19.4669" y2="8.48914" gradientUnits="userSpaceOnUse">
<stop stop-color="#F93230"/>
<stop offset="1" stop-color="#C20000"/>
</linearGradient>
<linearGradient id="paint38_linear" x1="8.1407" y1="9.23159" x2="8.11213" y2="7.58398" gradientUnits="userSpaceOnUse">
<stop stop-color="#939FA1"/>
<stop offset="1"/>
</linearGradient>
<linearGradient id="paint39_linear" x1="8.11831" y1="8.68015" x2="8.11831" y2="7.45095" gradientUnits="userSpaceOnUse">
<stop stop-color="#939FA1"/>
<stop offset="1"/>
</linearGradient>
<linearGradient id="paint40_linear" x1="7.1165" y1="9.21377" x2="6.32364" y2="6.64235" gradientUnits="userSpaceOnUse">
<stop stop-color="#BBCACC"/>
<stop offset="0.4234" stop-color="#8EA5A8"/>
<stop offset="1" stop-color="#CFDCDE"/>
</linearGradient>
<linearGradient id="paint41_linear" x1="6.41429" y1="7.92608" x2="5.71786" y2="6.22449" gradientUnits="userSpaceOnUse">
<stop stop-color="#8EA5A8"/>
<stop offset="1" stop-color="#CFDCDE"/>
</linearGradient>
<linearGradient id="paint42_linear" x1="6.78669" y1="7.79028" x2="6.08947" y2="6.08679" gradientUnits="userSpaceOnUse">
<stop stop-color="#8EA5A8"/>
<stop offset="1" stop-color="#CFDCDE"/>
</linearGradient>
<linearGradient id="paint43_linear" x1="6.57887" y1="7.86694" x2="5.88166" y2="6.16345" gradientUnits="userSpaceOnUse">
<stop stop-color="#8EA5A8"/>
<stop offset="1" stop-color="#CFDCDE"/>
</linearGradient>
<linearGradient id="paint44_linear" x1="6.99461" y1="7.71361" x2="6.2974" y2="6.01012" gradientUnits="userSpaceOnUse">
<stop stop-color="#8EA5A8"/>
<stop offset="1" stop-color="#CFDCDE"/>
</linearGradient>
<linearGradient id="paint45_linear" x1="6.26839" y1="7.97845" x2="5.57262" y2="6.27846" gradientUnits="userSpaceOnUse">
<stop stop-color="#8EA5A8"/>
<stop offset="1" stop-color="#CFDCDE"/>
</linearGradient>
<linearGradient id="paint46_linear" x1="7.30308" y1="7.59765" x2="6.60733" y2="5.89765" gradientUnits="userSpaceOnUse">
<stop stop-color="#8EA5A8"/>
<stop offset="1" stop-color="#CFDCDE"/>
</linearGradient>
<linearGradient id="paint47_linear" x1="7.15814" y1="7.65205" x2="6.46172" y2="5.95046" gradientUnits="userSpaceOnUse">
<stop stop-color="#8EA5A8"/>
<stop offset="1" stop-color="#CFDCDE"/>
</linearGradient>
</defs>
</svg>
