<svg width="80" height="80" viewBox="0 0 80 80" fill="none" xmlns="http://www.w3.org/2000/svg">
<path d="M40.475 69.95C57.3059 69.95 70.95 56.3059 70.95 39.475C70.95 22.6441 57.3059 9 40.475 9C23.6441 9 10 22.6441 10 39.475C10 56.3059 23.6441 69.95 40.475 69.95Z" fill="url(#paint0_radial)"/>
<path opacity="0.5" d="M40.475 69.95C57.3059 69.95 70.95 56.3059 70.95 39.475C70.95 22.6441 57.3059 9 40.475 9C23.6441 9 10 22.6441 10 39.475C10 56.3059 23.6441 69.95 40.475 69.95Z" fill="url(#paint1_radial)"/>
<path opacity="0.5" d="M40.475 69.95C57.3059 69.95 70.95 56.3059 70.95 39.475C70.95 22.6441 57.3059 9 40.475 9C23.6441 9 10 22.6441 10 39.475C10 56.3059 23.6441 69.95 40.475 69.95Z" fill="url(#paint2_radial)"/>
<path opacity="0.5" d="M40.475 69.95C57.3059 69.95 70.95 56.3059 70.95 39.475C70.95 22.6441 57.3059 9 40.475 9C23.6441 9 10 22.6441 10 39.475C10 56.3059 23.6441 69.95 40.475 69.95Z" fill="url(#paint3_radial)"/>
<path d="M50.9499 24.2658C51.2334 23.0752 52.6792 22.6358 54.9046 23.1461C56.7898 23.5855 60.6736 25.5699 62.6722 29.8931C63.0407 30.6869 62.1477 30.8711 61.7367 30.3183C60.3334 28.4331 56.0952 25.4281 52.339 24.9746C50.8223 24.7903 50.9499 24.2658 50.9499 24.2658Z" fill="url(#paint4_linear)"/>
<path d="M53.8698 31.2255C53.8698 31.2255 58.7742 32.5862 59.5112 36.6118C59.5538 36.8669 59.5679 37.1221 59.5112 37.3772C59.4262 37.8875 58.8592 38.3411 58.0655 37.689C53.1044 33.7202 49.6884 34.599 47.1653 35.1802C46.1731 35.4069 45.5353 34.3297 45.9463 33.5643C46.0739 33.3375 46.1589 33.0965 46.329 32.9122C48.9655 29.8364 53.8698 31.2255 53.8698 31.2255Z" fill="url(#paint5_radial)"/>
<path d="M53.5581 32.402C53.5581 32.402 57.5553 33.5076 59.5397 37.0653C59.5397 36.9094 59.5397 36.7677 59.5113 36.6118C58.7743 32.5862 53.8699 31.2255 53.8699 31.2255C53.8699 31.2255 48.9656 29.8364 46.3291 32.9122C46.2299 33.0256 46.1448 33.1532 46.074 33.2808C49.5609 31.268 53.5581 32.402 53.5581 32.402Z" fill="url(#paint6_linear)"/>
<path d="M30.0001 24.2658C29.7167 23.0752 28.2709 22.6358 26.0455 23.1461C24.1603 23.5855 20.2765 25.5699 18.2779 29.8931C17.9094 30.6869 18.8023 30.8711 19.2134 30.3183C20.6167 28.4331 24.8548 25.4281 28.611 24.9746C30.1277 24.7903 30.0001 24.2658 30.0001 24.2658Z" fill="url(#paint7_linear)"/>
<path d="M27.0802 31.2255C27.0802 31.2255 22.1758 32.5862 21.4388 36.6118C21.3962 36.8669 21.3821 37.1221 21.4388 37.3772C21.5238 37.8875 22.0908 38.3411 22.8846 37.689C27.8456 33.7202 31.2616 34.599 33.7847 35.1802C34.7769 35.4069 35.4147 34.3297 35.0037 33.5643C34.8761 33.3375 34.7911 33.0965 34.621 32.9122C31.9845 29.8364 27.0802 31.2255 27.0802 31.2255Z" fill="url(#paint8_radial)"/>
<path d="M27.392 32.402C27.392 32.402 23.3948 33.5076 21.4104 37.0653C21.4104 36.9094 21.4104 36.7677 21.4387 36.6118C22.1758 32.5862 27.0802 31.2255 27.0802 31.2255C27.0802 31.2255 31.9845 29.8364 34.621 32.9122C34.7202 33.0256 34.8052 33.1532 34.8761 33.2808C31.3892 31.268 27.392 32.402 27.392 32.402Z" fill="url(#paint9_linear)"/>
<path d="M53.9407 48.3907C53.6856 48.3482 53.4305 48.4191 53.2462 48.6033C49.9719 51.6792 44.9258 53.3234 41.1271 53.3234H40.475H39.823C36.0243 53.3234 30.964 51.6792 27.7039 48.6033C27.5196 48.4332 27.2645 48.3482 27.0093 48.3907C26.7542 48.4332 26.6125 48.7309 26.74 48.9719C29.5324 53.8054 34.706 56.8103 40.3191 56.8103H40.4892H40.6593C46.2724 56.8103 51.446 53.8195 54.2384 48.9719C54.3518 48.7309 54.2101 48.4474 53.9407 48.3907Z" fill="#643800"/>
<path d="M53.9407 48.3907C53.6856 48.3482 53.4305 48.4191 53.2462 48.6033C49.9719 51.6792 44.9258 53.3234 41.1271 53.3234H40.475H39.823C36.0243 53.3234 30.964 51.6792 27.7039 48.6033C27.5196 48.4332 27.2645 48.3482 27.0093 48.3907C26.7542 48.4332 26.6125 48.7309 26.74 48.9719C26.7684 49.0144 26.7967 49.0711 26.8251 49.1136C27.0944 48.9577 27.3637 48.8159 27.6614 49.142C30.7656 52.6289 35.3722 54.7125 40.3049 54.7125H40.475H40.6451C45.6062 54.7125 50.2412 52.6005 53.3454 49.0711C53.6289 48.7451 53.8982 48.901 54.1534 49.0711C54.1675 49.0427 54.1959 49.0002 54.2101 48.9719C54.3518 48.7309 54.2101 48.4474 53.9407 48.3907Z" fill="url(#paint10_linear)"/>
<path d="M40.475 69.95C57.3059 69.95 70.95 56.3059 70.95 39.475C70.95 22.6441 57.3059 9 40.475 9C23.6441 9 10 22.6441 10 39.475C10 56.3059 23.6441 69.95 40.475 69.95Z" fill="url(#paint11_radial)"/>
<path d="M40.475 69.95C57.3059 69.95 70.95 56.3059 70.95 39.475C70.95 22.6441 57.3059 9 40.475 9C23.6441 9 10 22.6441 10 39.475C10 56.3059 23.6441 69.95 40.475 69.95Z" fill="url(#paint12_radial)"/>
<path d="M20.1773 58.2845C20.5175 58.5821 20.8435 58.979 20.7443 59.1066C20.6451 59.2341 20.2623 59.0782 19.9647 58.8373C19.6528 58.5963 19.3835 61.5587 19.341 61.7147C19.3127 61.8281 18.6748 62.7919 18.3771 63.6566C18.2779 63.9401 18.4055 64.7622 18.363 64.8189C18.1929 65.0457 18.1645 65.3291 17.5267 64.9748C16.8888 64.6204 16.818 67.1151 17.5267 67.4837C18.7315 68.1073 21.3254 70.8855 24.2454 70.517C27.6189 70.0776 30.2837 66.1654 29.9577 63.5857C29.6316 61.0059 28.7386 60.1271 28.5119 57.9584C28.3134 56.1158 29.5324 55.081 29.419 54.1597C29.3198 53.3943 28.1575 53.3518 27.7748 53.3943C27.1086 53.4793 25.5069 54.5566 25.8045 56.7961C25.9179 57.675 25.7762 58.4971 24.869 58.6105C23.9619 58.7239 22.8137 57.6324 22.0908 56.7536" fill="url(#paint13_linear)"/>
<path d="M29.4189 54.1597C29.3622 53.7345 28.9937 53.536 28.611 53.451C29.2488 54.8684 27.0093 55.2228 27.6471 60.2263C28.285 65.2299 25.5635 67.0584 24.387 67.4695C23.2105 67.8805 21.0985 68.2207 19.2133 66.4489C18.6322 65.8961 18.1219 65.6126 17.2573 65.159C17.0588 65.7544 16.9738 67.2285 17.5266 67.512C18.7314 68.1357 21.3253 70.9139 24.2453 70.5453C27.6188 70.1059 30.2836 66.1938 29.9576 63.614C29.6315 61.0343 28.7385 60.1555 28.5118 57.9868C28.3133 56.1158 29.5323 55.081 29.4189 54.1597Z" fill="url(#paint14_linear)"/>
<path d="M17.5266 64.989C16.8888 64.6346 15.3438 63.5573 14.3799 63.0896C13.416 62.6077 12.7073 62.7777 12.3671 63.5999C12.0269 64.4362 13.742 65.3858 14.1389 65.6552C14.7484 66.052 16.8179 67.1435 17.5266 67.512" fill="url(#paint15_linear)"/>
<path d="M19.3409 61.7147C19.2984 61.8706 18.7881 61.7147 17.725 61.0343C16.9171 60.5098 14.72 58.979 13.501 58.3412C12.2679 57.7033 11.4032 57.5332 10.8788 58.1711C10.3543 58.8089 10.978 59.6877 11.9135 60.3114C13.0758 61.091 14.3798 61.8422 15.613 62.5651C16.5911 63.1321 18.5329 64.5921 18.3629 64.8047" fill="url(#paint16_linear)"/>
<path d="M15.613 62.5793C16.5343 63.1179 18.3061 64.4362 18.377 64.7763C18.5613 64.3795 17.9943 63.3306 17.484 63.0045C14.5499 61.1193 10.978 58.5112 10.6803 58.6955C10.6803 59.2341 11.2048 59.8578 11.8993 60.3256C13.0616 61.091 14.3656 61.8564 15.613 62.5793Z" fill="url(#paint17_linear)"/>
<path d="M22.0907 56.7536C21.3678 55.8748 18.8023 52.9974 18.1928 52.1044C17.5974 51.2114 16.7753 51.2114 16.2083 51.6083C15.6414 52.0052 15.4713 52.799 16.7328 54.4999C17.7534 55.889 18.7314 56.7395 20.1914 58.2845L22.034 57.9159L22.0907 56.7536Z" fill="url(#paint18_linear)"/>
<path d="M19.9646 58.8514C19.6528 58.6105 16.8179 56.0591 16.1659 55.5488C14.9469 54.6133 13.2034 52.4446 11.8994 53.8053C11.2048 54.5282 11.8002 55.2653 12.0837 55.5488C12.3671 55.8323 15.9816 58.6672 16.3218 58.8939C16.662 59.1207 19.3835 61.5587 19.341 61.7005" fill="url(#paint19_linear)"/>
<path d="M20.1772 58.2845C20.4607 58.6105 20.8292 58.9507 20.7583 59.0924C21.623 58.1852 19.1141 56.3567 17.966 54.9676C17.073 53.8904 16.8887 52.3028 16.2509 51.5658C16.2367 51.58 16.2225 51.58 16.2083 51.5941C15.6414 51.991 15.4713 52.7848 16.7328 54.4857C17.7392 55.889 18.7456 56.6686 20.1772 58.2845Z" fill="url(#paint20_linear)"/>
<path d="M16.3218 58.9081C16.662 59.1349 19.3835 61.5729 19.3409 61.7147C19.9788 60.5807 16.6478 57.9159 14.9327 56.6827C13.4444 55.6055 13.0192 54.4999 11.6868 54.0888C11.3466 54.7125 11.8285 55.3078 12.0836 55.563C12.3813 55.8465 15.9816 58.6813 16.3218 58.9081Z" fill="url(#paint21_linear)"/>
<path d="M19.2984 61.7855C19.2134 61.8564 19.0433 61.8848 18.7456 61.7572C18.9582 61.8989 19.1708 61.9415 19.2984 61.7855Z" fill="url(#paint22_linear)"/>
<path d="M18.1645 65.0456C18.2637 64.9889 18.3204 64.9322 18.3204 64.8755C18.1503 65.0456 18.1078 65.315 17.5266 64.9889C16.8888 64.6346 15.3438 63.5573 14.3799 63.0896C13.9547 62.877 13.5861 62.7919 13.2601 62.8344C13.7704 63.0187 13.5861 63.1604 14.7343 63.6991C15.3579 63.9826 17.5125 65.4 18.1645 65.0456Z" fill="url(#paint23_linear)"/>
<path d="M15.8966 60.2689C16.8321 60.9492 18.6606 62.31 19.2559 61.8139C19.0858 61.8989 18.5472 61.5729 17.7251 61.0485C16.9171 60.524 14.7201 58.9932 13.5011 58.3553C12.5089 57.845 11.7434 57.6324 11.219 57.9159C13.005 58.0293 15.0177 59.6168 15.8966 60.2689Z" fill="url(#paint24_linear)"/>
<path d="M16.4353 56.2717C17.8385 57.3064 19.8938 59.6877 20.7159 59.1349C20.5742 59.1916 20.2482 59.0499 19.9647 58.8372C19.6529 58.5963 16.818 56.0449 16.1659 55.5346C15.3155 54.8826 14.224 53.6494 13.2035 53.3943C14.2949 53.9896 15.3013 55.4354 16.4353 56.2717Z" fill="url(#paint25_linear)"/>
<path d="M23.7351 58.2703C23.1397 57.9017 22.5302 57.2781 22.0908 56.7536C21.3679 55.8748 18.8024 52.9974 18.1929 52.1044C18.0086 51.8351 17.8102 51.6508 17.5975 51.5233C17.881 51.9343 18.0369 52.5155 18.6748 53.2384C19.6953 54.4007 21.1695 56.2717 21.7223 56.9237C22.2609 57.5757 23.1823 58.979 23.7351 58.2703Z" fill="url(#paint26_linear)"/>
<path d="M28.37 68.0081C27.8739 67.1293 27.2503 66.6473 26.5132 67.271C24.5146 68.9861 21.949 68.8302 18.4621 66.6899C15.3579 64.7763 13.7987 63.9967 12.3246 63.6991C12.1545 64.507 13.742 65.4 14.1247 65.641C14.7342 66.0379 16.8037 67.1293 17.5124 67.4978C18.7173 68.1215 21.3112 70.8997 24.2311 70.5311C25.8753 70.3185 27.3353 69.2979 28.37 68.0081Z" fill="url(#paint27_linear)"/>
<path d="M28.5118 57.9584C28.3133 56.1158 29.5323 55.081 29.4189 54.1597C29.3906 53.8904 29.2205 53.7061 29.0079 53.5927C29.3481 54.2731 28.8378 54.9818 28.1149 56.1725C27.3353 57.4623 27.3495 59.2908 28.2283 61.0201C29.1071 62.7494 28.611 65.3433 27.4062 66.3072C26.2014 67.271 24.8973 70.9706 19.4118 67.6821C19.0716 67.4411 18.7314 67.2285 18.4054 67.0726C16.1233 66.0379 15.0177 65.5701 13.9121 64.7905C13.6995 64.6346 13.0617 64.0109 12.5514 64.3653C12.9766 64.9464 13.8696 65.4567 14.1531 65.641C14.7626 66.0379 16.8321 67.1293 17.5408 67.4978C17.6258 67.5404 17.7392 67.6112 17.8384 67.6821C17.8668 67.6963 17.8951 67.7246 17.9235 67.7388C17.9377 67.7388 17.9377 67.753 17.9518 67.753C17.966 67.7671 17.9944 67.7813 18.0085 67.7955C18.0085 67.7955 18.0227 67.7955 18.0227 67.8097C18.7598 68.3199 19.7803 69.1846 20.9852 69.8224C21.0844 69.8791 21.1978 69.9358 21.3112 69.9784C21.4246 70.035 21.5238 70.0776 21.6372 70.1201C22.4593 70.4603 23.3381 70.6587 24.2595 70.5312C27.633 70.0917 30.2978 66.1796 29.9717 63.5999C29.6174 61.0059 28.7386 60.1271 28.5118 57.9584Z" fill="url(#paint28_radial)"/>
<path d="M60.7727 58.2845C60.4325 58.5821 60.1065 58.979 60.2057 59.1066C60.3049 59.2341 60.6877 59.0782 60.9853 58.8373C61.2972 58.5963 61.5665 61.5587 61.609 61.7147C61.6373 61.8281 62.2752 62.7919 62.5729 63.6566C62.6721 63.9401 62.5445 64.7622 62.587 64.8189C62.7571 65.0457 62.7855 65.3291 63.4233 64.9748C64.0612 64.6204 64.132 67.1151 63.4233 67.4837C62.2185 68.1073 59.6246 70.8855 56.7046 70.517C53.3311 70.0776 50.6664 66.1654 50.9924 63.5857C51.3184 61.0059 52.2114 60.1271 52.4382 57.9584C52.6366 56.1158 51.4176 55.081 51.531 54.1597C51.6302 53.3943 52.7925 53.3518 53.1752 53.3943C53.8414 53.4793 55.4431 54.5566 55.1455 56.7961C55.0321 57.675 55.1738 58.4971 56.081 58.6105C56.9881 58.7239 58.1363 57.6324 58.8592 56.7536" fill="url(#paint29_linear)"/>
<path d="M51.531 54.1597C51.5877 53.7345 51.9562 53.536 52.3389 53.451C51.7011 54.8684 53.9406 55.2228 53.3028 60.2263C52.6649 65.2299 55.3864 67.0584 56.5629 67.4695C57.7394 67.8805 59.8514 68.2207 61.7366 66.4489C62.3177 65.8961 62.828 65.6126 63.6926 65.159C63.8911 65.7544 63.9761 67.2285 63.4233 67.512C62.2185 68.1357 59.6246 70.9139 56.7047 70.5453C53.3311 70.1059 50.6664 66.1938 50.9924 63.614C51.3184 61.0343 52.2114 60.1555 52.4382 57.9868C52.6366 56.1158 51.4176 55.081 51.531 54.1597Z" fill="url(#paint30_linear)"/>
<path d="M63.4233 64.989C64.0612 64.6346 65.6062 63.5573 66.5701 63.0896C67.5339 62.6077 68.2426 62.7777 68.5828 63.5999C68.923 64.4362 67.2079 65.3858 66.811 65.6552C66.2015 66.052 64.1321 67.1435 63.4233 67.512" fill="url(#paint31_linear)"/>
<path d="M61.6091 61.7147C61.6517 61.8706 62.1619 61.7147 63.225 61.0343C64.033 60.5098 66.23 58.979 67.449 58.3412C68.6822 57.7033 69.5468 57.5332 70.0713 58.1711C70.5957 58.8089 69.972 59.6877 69.0365 60.3114C67.8742 61.091 66.5702 61.8422 65.337 62.5651C64.359 63.1321 62.4171 64.5921 62.5872 64.8047" fill="url(#paint32_linear)"/>
<path d="M65.3369 62.5793C64.4156 63.1179 62.6438 64.4362 62.5729 64.7763C62.3886 64.3795 62.9556 63.3306 63.4659 63.0045C66.4 61.1193 69.9719 58.5112 70.2696 58.6955C70.2696 59.2341 69.7452 59.8578 69.0506 60.3256C67.8883 61.091 66.5843 61.8564 65.3369 62.5793Z" fill="url(#paint33_linear)"/>
<path d="M58.8593 56.7536C59.5821 55.8748 62.1477 52.9974 62.7572 52.1044C63.3525 51.2114 64.1747 51.2114 64.7416 51.6083C65.3086 52.0052 65.4787 52.799 64.2172 54.4999C63.1966 55.889 62.2186 56.7395 60.7586 58.2845L58.9159 57.9159L58.8593 56.7536Z" fill="url(#paint34_linear)"/>
<path d="M60.9855 58.8514C61.2973 58.6105 64.1322 56.0591 64.7842 55.5488C66.0032 54.6133 67.7467 52.4446 69.0507 53.8053C69.7453 54.5282 69.15 55.2653 68.8665 55.5488C68.583 55.8323 64.9685 58.6672 64.6283 58.8939C64.2881 59.1207 61.5666 61.5587 61.6091 61.7005" fill="url(#paint35_linear)"/>
<path d="M60.7728 58.2845C60.4893 58.6105 60.1207 58.9507 60.1916 59.0924C59.327 58.1852 61.8359 56.3567 62.984 54.9676C63.877 53.8904 64.0612 52.3028 64.6991 51.5658C64.7133 51.58 64.7274 51.58 64.7416 51.5941C65.3086 51.991 65.4787 52.7848 64.2172 54.4857C63.2108 55.889 62.2044 56.6686 60.7728 58.2845Z" fill="url(#paint36_linear)"/>
<path d="M64.6283 58.9081C64.2881 59.1349 61.5666 61.5729 61.6091 61.7147C60.9713 60.5807 64.3023 57.9159 66.0174 56.6827C67.5057 55.6055 67.9309 54.4999 69.2633 54.0888C69.6035 54.7125 69.1216 55.3078 68.8664 55.563C68.5688 55.8465 64.9685 58.6813 64.6283 58.9081Z" fill="url(#paint37_linear)"/>
<path d="M61.6517 61.7855C61.7368 61.8564 61.9069 61.8848 62.2045 61.7572C61.9919 61.8989 61.7793 61.9415 61.6517 61.7855Z" fill="url(#paint38_linear)"/>
<path d="M62.7854 65.0456C62.6862 64.9889 62.6295 64.9322 62.6295 64.8755C62.7996 65.0456 62.8421 65.315 63.4233 64.9889C64.0611 64.6346 65.6061 63.5573 66.57 63.0896C66.9952 62.877 67.3638 62.7919 67.6898 62.8344C67.1795 63.0187 67.3638 63.1604 66.2156 63.6991C65.592 63.9826 63.4375 65.4 62.7854 65.0456Z" fill="url(#paint39_linear)"/>
<path d="M65.0535 60.2689C64.118 60.9492 62.2895 62.31 61.6942 61.8139C61.8643 61.8989 62.4029 61.5729 63.225 61.0485C64.033 60.524 66.23 58.9932 67.449 58.3553C68.4412 57.845 69.2067 57.6324 69.7311 57.9159C67.9451 58.0293 65.9324 59.6168 65.0535 60.2689Z" fill="url(#paint40_linear)"/>
<path d="M64.5148 56.2717C63.1115 57.3064 61.0562 59.6877 60.2341 59.1349C60.3759 59.1916 60.7019 59.0499 60.9854 58.8372C61.2972 58.5963 64.1321 56.0449 64.7841 55.5346C65.6346 54.8826 66.726 53.6494 67.7466 53.3943C66.6551 53.9896 65.6488 55.4354 64.5148 56.2717Z" fill="url(#paint41_linear)"/>
<path d="M57.215 58.2703C57.8103 57.9017 58.4198 57.2781 58.8592 56.7536C59.5821 55.8748 62.1477 52.9974 62.7572 52.1044C62.9414 51.8351 63.1399 51.6508 63.3525 51.5233C63.069 51.9343 62.9131 52.5155 62.2752 53.2384C61.2547 54.4007 59.7805 56.2717 59.2277 56.9237C58.6749 57.5757 57.7678 58.979 57.215 58.2703Z" fill="url(#paint42_linear)"/>
<path d="M52.58 68.0081C53.0761 67.1293 53.6997 66.6473 54.4368 67.271C56.4354 68.9861 59.001 68.8302 62.4879 66.6899C65.5921 64.7763 67.1513 63.9967 68.6254 63.6991C68.7955 64.507 67.2079 65.4 66.8252 65.641C66.2157 66.0379 64.1463 67.1293 63.4376 67.4978C62.2327 68.1215 59.6388 70.8997 56.7189 70.5311C55.0747 70.3185 53.6147 69.2979 52.58 68.0081Z" fill="url(#paint43_linear)"/>
<path d="M52.4382 57.9584C52.6366 56.1158 51.4176 55.081 51.531 54.1597C51.5594 53.8904 51.7294 53.7061 51.9421 53.5927C51.6019 54.2731 52.1122 54.9818 52.8351 56.1725C53.6146 57.4623 53.6005 59.2908 52.7217 61.0201C51.8428 62.7494 52.339 65.3433 53.5438 66.3072C54.7486 67.271 56.0526 70.9706 61.5381 67.6821C61.8783 67.4411 62.2185 67.2285 62.5445 67.0726C64.8266 66.0379 65.9322 65.5701 67.0378 64.7905C67.2504 64.6346 67.8883 64.0109 68.3986 64.3653C67.9733 64.9464 67.0803 65.4567 66.7969 65.641C66.1874 66.0379 64.1179 67.1293 63.4092 67.4978C63.3241 67.5404 63.2107 67.6112 63.1115 67.6821C63.0832 67.6963 63.0548 67.7246 63.0265 67.7388C63.0123 67.7388 63.0123 67.753 62.9981 67.753C62.9839 67.7671 62.9556 67.7813 62.9414 67.7955C62.9414 67.7955 62.9272 67.7955 62.9272 67.8097C62.1902 68.3199 61.1696 69.1846 59.9648 69.8224C59.8656 69.8791 59.7522 69.9358 59.6388 69.9784C59.5254 70.035 59.4262 70.0776 59.3128 70.1201C58.4906 70.4603 57.6118 70.6587 56.6905 70.5312C53.317 70.0917 50.6522 66.1796 50.9782 63.5999C51.3326 61.0059 52.2114 60.1271 52.4382 57.9584Z" fill="url(#paint44_radial)"/>
<defs>
<radialGradient id="paint0_radial" cx="0" cy="0" r="1" gradientUnits="userSpaceOnUse" gradientTransform="translate(34.479 27.1245) scale(36.7641)">
<stop stop-color="#FFDF30"/>
<stop offset="1" stop-color="#FFB82E"/>
</radialGradient>
<radialGradient id="paint1_radial" cx="0" cy="0" r="1" gradientUnits="userSpaceOnUse" gradientTransform="translate(34.479 27.1245) scale(28.924)">
<stop stop-color="#FFE95F"/>
<stop offset="1" stop-color="#FFBB47" stop-opacity="0"/>
</radialGradient>
<radialGradient id="paint2_radial" cx="0" cy="0" r="1" gradientUnits="userSpaceOnUse" gradientTransform="translate(23.872 47.0563) rotate(-2.7703) scale(12.8185 10.1427)">
<stop stop-color="#FF4C00"/>
<stop offset="0.1542" stop-color="#FF4C00"/>
<stop offset="0.1795" stop-color="#FF4C00"/>
<stop offset="0.3996" stop-color="#FA4C0B" stop-opacity="0.7318"/>
<stop offset="0.7799" stop-color="#EE4B27" stop-opacity="0.2683"/>
<stop offset="1" stop-color="#E64A3A" stop-opacity="0"/>
</radialGradient>
<radialGradient id="paint3_radial" cx="0" cy="0" r="1" gradientUnits="userSpaceOnUse" gradientTransform="translate(57.06 47.0564) rotate(-177.23) scale(12.8185 10.1427)">
<stop stop-color="#FF4C00"/>
<stop offset="0.1542" stop-color="#FF4C00"/>
<stop offset="0.1795" stop-color="#FF4C00"/>
<stop offset="0.3996" stop-color="#FA4C0B" stop-opacity="0.7318"/>
<stop offset="0.7799" stop-color="#EE4B27" stop-opacity="0.2683"/>
<stop offset="1" stop-color="#E64A3A" stop-opacity="0"/>
</radialGradient>
<linearGradient id="paint4_linear" x1="56.7423" y1="27.7114" x2="57.469" y2="24.5835" gradientUnits="userSpaceOnUse">
<stop offset="0.00132565" stop-color="#3C2200"/>
<stop offset="1" stop-color="#7A4400"/>
</linearGradient>
<radialGradient id="paint5_radial" cx="0" cy="0" r="1" gradientUnits="userSpaceOnUse" gradientTransform="translate(53.1064 34.0067) rotate(15.68) scale(5.47696 2.64219)">
<stop offset="0.00132565" stop-color="#7A4400"/>
<stop offset="1" stop-color="#643800"/>
</radialGradient>
<linearGradient id="paint6_linear" x1="54.3121" y1="29.6902" x2="53.3751" y2="33.1025" gradientUnits="userSpaceOnUse">
<stop offset="0.00132565" stop-color="#3C2200"/>
<stop offset="1" stop-color="#512D00"/>
</linearGradient>
<linearGradient id="paint7_linear" x1="24.2068" y1="27.6954" x2="23.4801" y2="24.5674" gradientUnits="userSpaceOnUse">
<stop offset="0.00132565" stop-color="#3C2200"/>
<stop offset="1" stop-color="#7A4400"/>
</linearGradient>
<radialGradient id="paint8_radial" cx="0" cy="0" r="1" gradientUnits="userSpaceOnUse" gradientTransform="translate(27.8214 34.0202) rotate(164.32) scale(5.47697 2.64219)">
<stop offset="0.00132565" stop-color="#7A4400"/>
<stop offset="1" stop-color="#643800"/>
</radialGradient>
<linearGradient id="paint9_linear" x1="26.6188" y1="29.6731" x2="27.5559" y2="33.0854" gradientUnits="userSpaceOnUse">
<stop offset="0.00132565" stop-color="#3C2200"/>
<stop offset="1" stop-color="#512D00"/>
</linearGradient>
<linearGradient id="paint10_linear" x1="40.475" y1="50.5431" x2="40.475" y2="55.0926" gradientUnits="userSpaceOnUse">
<stop offset="0.00132565" stop-color="#3C2200"/>
<stop offset="1" stop-color="#512D00"/>
</linearGradient>
<radialGradient id="paint11_radial" cx="0" cy="0" r="1" gradientUnits="userSpaceOnUse" gradientTransform="translate(19.7849 61.0563) rotate(-177.23) scale(12.8185 10.1427)">
<stop stop-color="#7A4400" stop-opacity="0.5"/>
<stop offset="0.6008" stop-color="#894D00" stop-opacity="0.1981"/>
<stop offset="0.995" stop-color="#965500" stop-opacity="0"/>
</radialGradient>
<radialGradient id="paint12_radial" cx="0" cy="0" r="1" gradientUnits="userSpaceOnUse" gradientTransform="translate(61.1568 61.0563) rotate(-2.7703) scale(12.8185 10.1427)">
<stop stop-color="#7A4400" stop-opacity="0.5"/>
<stop offset="0.6008" stop-color="#894D00" stop-opacity="0.1981"/>
<stop offset="0.995" stop-color="#965500" stop-opacity="0"/>
</radialGradient>
<linearGradient id="paint13_linear" x1="29.184" y1="70.5729" x2="25.5664" y2="64.421" gradientUnits="userSpaceOnUse">
<stop offset="0.00132565" stop-color="#FFCB4B"/>
<stop offset="1" stop-color="#FFD748"/>
</linearGradient>
<linearGradient id="paint14_linear" x1="29.1767" y1="65.9945" x2="22.703" y2="60.0242" gradientUnits="userSpaceOnUse">
<stop offset="0.00132565" stop-color="#FFCB4B"/>
<stop offset="1" stop-color="#FFD748"/>
</linearGradient>
<linearGradient id="paint15_linear" x1="13.1611" y1="63.7642" x2="16.6966" y2="65.7259" gradientUnits="userSpaceOnUse">
<stop offset="0.00132565" stop-color="#FFCB4B"/>
<stop offset="1" stop-color="#FFD748"/>
</linearGradient>
<linearGradient id="paint16_linear" x1="10.6459" y1="57.0122" x2="17.5165" y2="62.5685" gradientUnits="userSpaceOnUse">
<stop offset="0.00132565" stop-color="#FFCB4B"/>
<stop offset="1" stop-color="#FFD748"/>
</linearGradient>
<linearGradient id="paint17_linear" x1="16.6476" y1="59.1631" x2="13.579" y2="62.9031" gradientUnits="userSpaceOnUse">
<stop stop-color="#FFBC47" stop-opacity="0"/>
<stop offset="1" stop-color="#FFA754"/>
</linearGradient>
<linearGradient id="paint18_linear" x1="17.0741" y1="52.8577" x2="21.3158" y2="57.9462" gradientUnits="userSpaceOnUse">
<stop offset="0.00132565" stop-color="#FFCB4B"/>
<stop offset="1" stop-color="#FFD748"/>
</linearGradient>
<linearGradient id="paint19_linear" x1="13.4219" y1="54.4956" x2="18.9779" y2="60.2785" gradientUnits="userSpaceOnUse">
<stop offset="0.00132565" stop-color="#FFCB4B"/>
<stop offset="1" stop-color="#FFD748"/>
</linearGradient>
<linearGradient id="paint20_linear" x1="19.7824" y1="53.8116" x2="16.2866" y2="57.8927" gradientUnits="userSpaceOnUse">
<stop stop-color="#FFBC47" stop-opacity="0"/>
<stop offset="1" stop-color="#FFA754"/>
</linearGradient>
<linearGradient id="paint21_linear" x1="16.8642" y1="56.6286" x2="12.4531" y2="60.8163" gradientUnits="userSpaceOnUse">
<stop stop-color="#FFBC47" stop-opacity="0"/>
<stop offset="1" stop-color="#FFA754"/>
</linearGradient>
<linearGradient id="paint22_linear" x1="20.3468" y1="60.5166" x2="16.6136" y2="64.0605" gradientUnits="userSpaceOnUse">
<stop stop-color="#FFBC47" stop-opacity="0"/>
<stop offset="1" stop-color="#FFA754"/>
</linearGradient>
<linearGradient id="paint23_linear" x1="13.2259" y1="62.2751" x2="18.2411" y2="65.3805" gradientUnits="userSpaceOnUse">
<stop stop-color="#FFBC47" stop-opacity="0"/>
<stop offset="1" stop-color="#FFBC47"/>
</linearGradient>
<linearGradient id="paint24_linear" x1="12.993" y1="57.2521" x2="17.4834" y2="62.4779" gradientUnits="userSpaceOnUse">
<stop stop-color="#FFBC47" stop-opacity="0"/>
<stop offset="1" stop-color="#FFBC47"/>
</linearGradient>
<linearGradient id="paint25_linear" x1="15.952" y1="57.2797" x2="17.1981" y2="56.0445" gradientUnits="userSpaceOnUse">
<stop stop-color="#FFBC47" stop-opacity="0"/>
<stop offset="1" stop-color="#FFA754"/>
</linearGradient>
<linearGradient id="paint26_linear" x1="22.2289" y1="59.4049" x2="19.9123" y2="52.7508" gradientUnits="userSpaceOnUse">
<stop stop-color="#FFBC47" stop-opacity="0"/>
<stop offset="1" stop-color="#FFBC47"/>
</linearGradient>
<linearGradient id="paint27_linear" x1="19.599" y1="66.76" x2="17.6192" y2="69.1135" gradientUnits="userSpaceOnUse">
<stop offset="0.3118" stop-color="#FFBC47" stop-opacity="0"/>
<stop offset="1" stop-color="#FF8900"/>
</linearGradient>
<radialGradient id="paint28_radial" cx="0" cy="0" r="1" gradientUnits="userSpaceOnUse" gradientTransform="translate(20.1317 59.7375) rotate(40.8044) scale(14.4497 13.1168)">
<stop offset="0.6134" stop-color="#FFBC47" stop-opacity="0"/>
<stop offset="1" stop-color="#FF8900"/>
</radialGradient>
<linearGradient id="paint29_linear" x1="51.758" y1="70.5704" x2="55.3755" y2="64.4184" gradientUnits="userSpaceOnUse">
<stop offset="0.00132565" stop-color="#FFCB4B"/>
<stop offset="1" stop-color="#FFD748"/>
</linearGradient>
<linearGradient id="paint30_linear" x1="51.7651" y1="65.992" x2="58.2388" y2="60.0217" gradientUnits="userSpaceOnUse">
<stop offset="0.00132565" stop-color="#FFCB4B"/>
<stop offset="1" stop-color="#FFD748"/>
</linearGradient>
<linearGradient id="paint31_linear" x1="67.7808" y1="63.7616" x2="64.2452" y2="65.7234" gradientUnits="userSpaceOnUse">
<stop offset="0.00132565" stop-color="#FFCB4B"/>
<stop offset="1" stop-color="#FFD748"/>
</linearGradient>
<linearGradient id="paint32_linear" x1="70.296" y1="57.0096" x2="63.4254" y2="62.5659" gradientUnits="userSpaceOnUse">
<stop offset="0.00132565" stop-color="#FFCB4B"/>
<stop offset="1" stop-color="#FFD748"/>
</linearGradient>
<linearGradient id="paint33_linear" x1="64.2942" y1="59.1605" x2="67.3628" y2="62.9006" gradientUnits="userSpaceOnUse">
<stop stop-color="#FFBC47" stop-opacity="0"/>
<stop offset="1" stop-color="#FFA754"/>
</linearGradient>
<linearGradient id="paint34_linear" x1="63.8677" y1="52.8552" x2="59.6261" y2="57.9437" gradientUnits="userSpaceOnUse">
<stop offset="0.00132565" stop-color="#FFCB4B"/>
<stop offset="1" stop-color="#FFD748"/>
</linearGradient>
<linearGradient id="paint35_linear" x1="67.5201" y1="54.493" x2="61.9641" y2="60.2759" gradientUnits="userSpaceOnUse">
<stop offset="0.00132565" stop-color="#FFCB4B"/>
<stop offset="1" stop-color="#FFD748"/>
</linearGradient>
<linearGradient id="paint36_linear" x1="61.1595" y1="53.809" x2="64.6553" y2="57.8902" gradientUnits="userSpaceOnUse">
<stop stop-color="#FFBC47" stop-opacity="0"/>
<stop offset="1" stop-color="#FFA754"/>
</linearGradient>
<linearGradient id="paint37_linear" x1="64.0777" y1="56.626" x2="68.4889" y2="60.8137" gradientUnits="userSpaceOnUse">
<stop stop-color="#FFBC47" stop-opacity="0"/>
<stop offset="1" stop-color="#FFA754"/>
</linearGradient>
<linearGradient id="paint38_linear" x1="60.5953" y1="60.5141" x2="64.3284" y2="64.058" gradientUnits="userSpaceOnUse">
<stop stop-color="#FFBC47" stop-opacity="0"/>
<stop offset="1" stop-color="#FFA754"/>
</linearGradient>
<linearGradient id="paint39_linear" x1="67.7159" y1="62.2726" x2="62.7007" y2="65.3779" gradientUnits="userSpaceOnUse">
<stop stop-color="#FFBC47" stop-opacity="0"/>
<stop offset="1" stop-color="#FFBC47"/>
</linearGradient>
<linearGradient id="paint40_linear" x1="67.949" y1="57.2496" x2="63.4586" y2="62.4754" gradientUnits="userSpaceOnUse">
<stop stop-color="#FFBC47" stop-opacity="0"/>
<stop offset="1" stop-color="#FFBC47"/>
</linearGradient>
<linearGradient id="paint41_linear" x1="64.99" y1="57.2772" x2="63.7438" y2="56.0419" gradientUnits="userSpaceOnUse">
<stop stop-color="#FFBC47" stop-opacity="0"/>
<stop offset="1" stop-color="#FFA754"/>
</linearGradient>
<linearGradient id="paint42_linear" x1="58.713" y1="59.4023" x2="61.0296" y2="52.7483" gradientUnits="userSpaceOnUse">
<stop stop-color="#FFBC47" stop-opacity="0"/>
<stop offset="1" stop-color="#FFBC47"/>
</linearGradient>
<linearGradient id="paint43_linear" x1="61.3429" y1="66.7575" x2="63.3227" y2="69.111" gradientUnits="userSpaceOnUse">
<stop offset="0.3118" stop-color="#FFBC47" stop-opacity="0"/>
<stop offset="1" stop-color="#FF8900"/>
</linearGradient>
<radialGradient id="paint44_radial" cx="0" cy="0" r="1" gradientUnits="userSpaceOnUse" gradientTransform="translate(60.7878 59.7122) rotate(139.196) scale(14.4497 13.1168)">
<stop offset="0.6134" stop-color="#FFBC47" stop-opacity="0"/>
<stop offset="1" stop-color="#FF8900"/>
</radialGradient>
</defs>
</svg>
