<svg width="80" height="80" viewBox="0 0 80 80" fill="none" xmlns="http://www.w3.org/2000/svg">
<path d="M49.1009 57.2439C52.0311 57.2439 54.4065 54.8685 54.4065 51.9384C54.4065 49.0082 52.0311 46.6328 49.1009 46.6328C46.1708 46.6328 43.7954 49.0082 43.7954 51.9384C43.7954 54.8685 46.1708 57.2439 49.1009 57.2439Z" fill="url(#paint0_linear)"/>
<path d="M18.8548 53.8887C15.8053 55.4757 8 57.6695 8 42.3026C8 26.9358 11.0495 23.767 13.4248 23.767C15.8001 23.767 17.3871 24.0107 19.0934 21.8169C20.7997 19.6231 23.4862 18.5237 27.3862 18.8919C31.2863 19.2601 32.5569 16.947 34.0194 14.997C35.4819 13.047 39.4598 10.4798 43.1161 13.1611C46.7724 15.8424 49.0907 16.0861 51.6527 14.6236C54.2147 13.1611 60.9205 12.9173 63.7263 18.6481C66.532 24.3789 67.8753 29.9905 67.8753 33.8905C67.8753 37.7906 69.2185 41.2083 70.5566 43.8896C71.8998 46.5709 73.3623 52.3069 69.5816 58.8883C65.8008 65.4748 65.557 67.5493 60.6768 67.1811C55.7965 66.8129 52.1506 65.9623 41.6536 65.9623C39.7036 65.9623 36.8978 65.1066 36.8978 62.4253C36.8978 59.744 39.8228 56.9382 43.4843 55.4757C47.1406 54.0132 57.8762 52.67 59.458 49.6204C61.0398 46.5709 38.9723 48.6454 38.9723 48.6454L18.8548 53.8887Z" fill="url(#paint1_linear)"/>
<path d="M69.5867 58.888C73.3674 52.3014 71.9049 46.5706 70.5617 43.8893C69.3844 41.5348 68.2071 38.6097 67.9374 35.2905C67.9374 35.2905 67.9374 35.2905 67.9374 35.2957C68.0723 38.4023 62.6371 48.0072 59.4631 49.6253C58.4103 51.6531 53.3122 52.9238 48.9402 53.9818C46.736 54.516 44.7134 54.9931 43.4842 55.4806C39.8279 56.9431 36.8977 59.7489 36.8977 62.4302C36.8977 65.1115 39.7035 65.9672 41.6535 65.9672C52.1505 65.9672 55.8016 66.8229 60.6767 67.186C65.5621 67.549 65.8111 65.4745 69.5867 58.888Z" fill="url(#paint2_linear)"/>
<path d="M50.4495 21.6709C50.7088 22.3088 50.9214 22.9363 51.1444 23.5639C50.9214 22.9312 50.7088 22.3088 50.4495 21.6709Z" fill="url(#paint3_linear)"/>
<path d="M48.152 17.1279C48.2142 17.2057 48.2713 17.2835 48.3283 17.3665C48.2713 17.2835 48.2142 17.2057 48.152 17.1279Z" fill="url(#paint4_linear)"/>
<path d="M66.2987 25.3221C66.3039 25.1509 66.2572 25.0109 66.2416 24.8449C66.2105 24.7464 66.1638 24.6479 66.1327 24.5493C65.9304 50.2368 66.2935 56.5744 58.1251 56.5744C49.9516 56.5744 49.3448 53.5249 49.3448 52.1817C49.3448 51.6475 49.3033 49.5004 49.2566 46.8139C49.2566 46.8139 49.2566 46.8139 49.2566 46.8191C49.2566 54.3806 48.0016 57.4302 42.1463 57.4302C41.441 57.4302 40.7719 57.4094 40.1444 57.3576C39.7088 57.6895 39.3042 58.0369 38.9412 58.4C38.4018 58.9394 40.9275 61.3302 49.5523 60.0803C51.2741 59.8314 63.0521 63.5603 66.6617 56.1906C68.2228 53.0218 65.5933 46.7672 66.2987 25.3221Z" fill="url(#paint5_linear)"/>
<path d="M66.1327 24.534C65.5052 22.6307 64.7169 20.6443 63.7367 18.6425C60.9309 12.9116 54.2251 13.1554 51.6631 14.6179C50.8022 15.1106 49.9672 15.3907 49.1011 15.4685V34.4968C49.1011 39.4964 49.3448 50.8387 49.3448 52.1819C49.3448 53.5252 49.9568 56.5747 58.1252 56.5747C66.2987 56.5695 65.9305 50.2319 66.1327 24.534Z" fill="url(#paint6_linear)"/>
<path d="M43.1264 13.1552C39.4701 10.4739 35.4923 13.0411 34.0297 14.9912C33.091 16.2462 32.1886 17.3457 30.6691 18.2378C30.6691 18.2429 30.6691 18.2481 30.6691 18.2533C30.778 25.8304 30.9284 32.5466 30.9284 32.5466C30.9284 39.1332 32.199 45.699 32.5309 49.5109C33.0962 55.9989 36.291 57.4251 42.1462 57.4251C48.0015 57.4251 49.2566 54.3756 49.2566 46.814C49.2566 41.3684 49.2566 24.4768 49.2566 15.4475C47.5036 15.6654 45.6314 14.9912 43.1264 13.1552Z" fill="url(#paint7_linear)"/>
<path d="M17.273 37.3023C17.0811 32.0227 17.5219 26.9973 18.1339 22.7964C16.7595 23.9011 15.354 23.7662 13.4299 23.7662C11.0495 23.7662 8.00513 26.935 8.00513 42.3019C8.00513 57.6688 15.8104 55.475 18.8599 53.888L19.0778 53.8309C18.0924 50.771 17.579 45.6989 17.273 37.3023Z" fill="url(#paint8_linear)"/>
<path d="M32.5309 49.5109C32.2146 45.9064 31.0788 39.8385 30.9543 33.6254C30.9388 33.2468 30.9284 32.8838 30.9284 32.5467C30.9284 32.5467 30.778 25.8305 30.6691 18.2534C30.6691 18.2482 30.6691 18.243 30.6691 18.2378C29.8289 18.7305 28.7865 19.0157 27.3914 18.8861C23.4913 18.5179 20.8048 19.6173 19.0985 21.8111C18.7718 22.226 18.4555 22.5372 18.1339 22.7965C17.5167 26.9974 17.0759 32.0177 17.273 37.3025C18.0043 57.3007 19.892 58.4624 26.5408 58.4624C30.3527 58.4624 33.0911 57.3318 34.1905 54.7542C34.1905 54.749 34.1854 54.7335 34.1802 54.7231C33.2881 53.5302 32.7384 51.8551 32.5309 49.5109Z" fill="url(#paint9_linear)"/>
<path d="M42.1462 57.4251C48.0014 57.4251 49.2565 54.3756 49.2565 46.814C49.2565 46.814 49.2565 46.814 49.2565 46.8088C49.3032 49.4953 49.3447 51.6424 49.3447 52.1766C49.3447 53.5198 49.9567 56.5693 58.125 56.5693C66.2934 56.5693 65.9303 50.2317 66.1326 24.5339C65.8525 23.6833 65.5258 22.812 65.1783 21.9355C64.001 26.4268 62.1496 34.5226 62.1496 41.0987C62.1496 50.7452 59.1 50.6 53.8567 49.988C48.6134 49.376 50.4442 30.3528 48.9765 30.3528C47.5088 30.3528 49.0957 46.6325 47.877 48.5255C46.6582 50.4133 41.7728 51.9432 36.6591 50.963C31.5455 49.9828 32.7591 31.5716 30.669 31.5716C28.5789 31.5716 32.8783 53.525 24.8863 53.525C16.8891 53.525 19.1037 36.4519 17.2729 36.4519C15.4422 36.4519 17.2729 46.3317 16.8061 49.1374C16.3861 51.6424 11.8481 52.2855 8.57556 48.4943C10.4271 56.9635 16.3083 55.2209 18.8599 53.8932L19.0777 53.8362C20.4365 58.0682 22.6874 58.4675 26.5459 58.4675C30.3578 58.4675 33.0962 57.3369 34.1957 54.7593C34.1957 54.7541 34.1905 54.7386 34.1853 54.7334C35.7567 56.839 38.4069 57.4251 42.1462 57.4251Z" fill="url(#paint10_linear)"/>
<path d="M66.252 42.4263C66.252 37.3645 66.1327 24.5337 66.1327 24.5337C65.9304 50.2316 66.2935 56.5692 58.1251 56.5692C49.9516 56.5692 49.3448 53.5197 49.3448 52.1764L49.2566 46.8086C49.2566 54.3702 48.0015 57.4197 42.1463 57.4197C41.4254 57.4197 40.7615 57.3886 40.1236 57.3367C40.1184 57.3419 40.1184 57.3523 40.1133 57.3523C39.6828 57.679 39.2886 58.0213 38.9308 58.3792C48.2712 59.6135 48.5461 54.7592 49.3707 55.589C51.4141 57.6324 58.5504 60.101 62.632 57.4197C67.5382 54.2094 66.252 47.488 66.252 42.4263Z" fill="url(#paint11_linear)"/>
<path d="M69.5868 58.8875C73.3676 52.3009 71.905 46.5701 70.5618 43.8888C70.1313 43.0331 69.7113 42.0944 69.3275 41.0986C69.3223 41.2698 69.3534 41.4669 69.4675 41.6951C71.0545 44.9883 72.0036 50.2316 69.4675 57.0619C66.9314 63.8922 61.3562 66.6357 57.5184 65.111C53.6754 63.5862 45.8701 64.0737 42.7013 64.0737C40.4608 64.0737 38.1788 63.0002 37.0223 61.5532C36.9549 61.8436 36.9082 62.1341 36.9082 62.4245C36.9082 65.1058 39.714 65.9615 41.664 65.9615C52.161 65.9615 55.8121 66.8173 60.6872 67.1803C65.5622 67.5485 65.8112 65.474 69.5868 58.8875Z" fill="url(#paint12_linear)"/>
<path d="M8.13477 45.4551C9.15127 57.3316 16.0386 55.3556 18.8599 53.8879L19.0778 53.8309C18.6784 52.5914 18.3621 50.9992 18.1027 49.0128C17.5115 53.4626 9.90328 52.0935 8.13477 45.4551Z" fill="url(#paint13_linear)"/>
<path d="M18.7874 52.8456C20.1047 58.0111 22.397 58.4623 26.5408 58.4623C30.3527 58.4623 33.091 57.3317 34.1905 54.7541C34.1905 54.7489 34.1853 54.7334 34.1802 54.723C33.2881 53.5302 32.7384 51.855 32.5309 49.5108C32.4479 48.5358 32.2975 47.3741 32.1316 46.0879C32.0849 46.2227 32.1212 46.6376 32.2716 47.4259C33.5474 54.1577 22.257 57.6688 18.7874 52.8456Z" fill="url(#paint14_linear)"/>
<path d="M39.242 52.0313C36.0939 52.0313 33.1792 50.7969 32.3961 48.209C32.448 48.6654 32.4999 49.1114 32.5362 49.5107C33.1015 55.9987 36.2962 57.425 42.1515 57.425C47.1666 57.425 48.8002 55.1793 49.1685 49.7856L49.21 48.4631C47.8512 51.5749 42.8827 52.0313 39.242 52.0313Z" fill="url(#paint15_linear)"/>
<path d="M57.451 13.9072C61.4859 15.6031 63.3737 25.1303 63.3737 34.8338C63.3737 45.533 62.4609 51.5698 56.8805 51.5698C51.3001 51.5698 50.0191 50.2888 49.3812 47.6386C49.3553 47.5297 49.319 47.4623 49.2775 47.4156C49.319 49.8168 49.3553 51.6839 49.3553 52.1818C49.3553 53.525 49.9672 56.5745 58.1356 56.5745C66.3039 56.5745 65.9409 50.2369 66.1432 24.539C65.5156 22.6357 64.7273 20.6493 63.7471 18.6475C62.3001 15.712 59.8471 14.3532 57.451 13.9072Z" fill="url(#paint16_linear)"/>
<path opacity="0.16" d="M12.2371 35.4353C14.3375 35.1553 15.8001 38.4019 16.495 42.0893C17.0655 45.1077 15.7586 48.7484 13.7048 48.9715C11.6459 49.1945 9.77364 49.0285 9.08387 42.6857C8.67415 38.9516 10.1833 35.7102 12.2371 35.4353Z" fill="url(#paint17_radial)"/>
<path opacity="0.16" d="M14.1197 25.4517C16.6817 25.1769 18.2013 26.6964 18.7614 28.4909C19.2178 29.9586 17.3507 31.8568 14.8458 32.1005C12.3356 32.3443 10.0796 32.3857 9.73731 29.2688C9.52986 27.4381 11.6095 25.7214 14.1197 25.4517Z" fill="url(#paint18_radial)"/>
<path opacity="0.16" d="M24.3108 21.4998C26.7898 20.7945 28.5428 22.0444 29.3985 23.7143C30.0987 25.0835 28.5739 27.2721 26.1416 27.9359C23.7092 28.5998 21.4895 29.0199 20.6286 26.0066C20.1255 24.2278 21.8888 22.1896 24.3108 21.4998Z" fill="url(#paint19_radial)"/>
<path opacity="0.16" d="M38.7389 14.5502C42.3226 13.5337 44.9416 15.6497 46.2745 18.414C47.3636 20.6752 45.258 24.15 41.7469 25.1042C38.2306 26.0585 35.0203 26.6238 33.6045 21.6813C32.7695 18.7666 35.2381 15.5408 38.7389 14.5502Z" fill="url(#paint20_radial)"/>
<path opacity="0.16" d="M57.2072 16.6401C59.9974 16.915 61.2576 19.0258 61.4392 21.2299C61.5896 23.0296 59.1676 24.7981 56.4448 24.4973C53.722 24.2017 51.3156 23.7245 51.6683 20.0423C51.8757 17.8744 54.4792 16.3756 57.2072 16.6401Z" fill="url(#paint21_radial)"/>
<path opacity="0.16" d="M23.3254 35.0831C25.6696 34.7408 27.3084 38.4386 28.0915 42.6498C28.7346 46.0935 27.2773 50.2788 24.9746 50.5588C22.6771 50.8389 20.5818 50.6729 19.8039 43.4226C19.3475 39.1491 21.033 35.4202 23.3254 35.0831Z" fill="url(#paint22_radial)"/>
<path opacity="0.16" d="M39.9629 31.7014C43.6607 31.188 46.1138 35.8401 47.2133 41.1767C48.1105 45.5435 45.6781 50.9165 42.0529 51.347C38.4278 51.7774 35.1397 51.6374 34.1543 42.4318C33.5734 37.007 36.3481 32.2045 39.9629 31.7014Z" fill="url(#paint23_radial)"/>
<path opacity="0.16" d="M57.0567 31.1774C59.9298 30.9389 61.6154 35.7621 62.2274 41.1662C62.7252 45.5849 60.6144 50.7711 57.8035 50.9319C54.9925 51.0926 52.4616 50.7089 52.109 41.4514C51.8963 36.0007 54.2457 31.4108 57.0567 31.1774Z" fill="url(#paint24_radial)"/>
<path d="M65.085 21.6712C64.6804 20.6703 64.2344 19.6641 63.7365 18.6476C60.9308 12.9168 54.225 13.1606 51.6629 14.6231C50.828 15.1003 50.0137 15.3699 49.1735 15.4581C47.4413 15.6396 45.5898 14.9654 43.1264 13.1606C39.4701 10.4793 35.4922 13.0465 34.0297 14.9965C33.091 16.2516 32.1886 17.3511 30.669 18.2431C29.8288 18.7358 28.7864 19.0211 27.3913 18.8914C23.4912 18.5232 20.8047 19.6227 19.0985 21.8164C18.7717 22.2313 18.4554 22.5425 18.1338 22.8018C16.7595 23.9065 15.354 23.7717 13.4299 23.7717C12.1074 23.7717 10.5826 24.7622 9.48315 28.2681C11.7495 24.0569 15.3384 25.9188 18.305 25.2394C21.479 24.5081 21.8316 17.3978 30.6742 20.1154C32.4583 20.6651 34.6105 13.5288 38.8685 13.5288C43.1264 13.5288 45.8129 17.1333 49.1061 17.1333C52.3942 17.1281 58.7474 12.253 65.085 21.6712Z" fill="url(#paint25_linear)"/>
<path d="M49.2565 31.9086L49.5677 48.7639L49.6248 50.8695C49.6663 51.5644 49.5936 52.3061 49.7337 52.9025C50.0085 54.1731 51.191 55.0133 52.4461 55.4541C53.7167 55.9157 55.1066 56.0972 56.481 56.1698C57.8605 56.2061 59.2712 56.2787 60.5574 55.9209C61.8488 55.5942 62.9275 54.7592 63.5706 53.5819C63.9492 53.0322 64.1203 52.3528 64.3797 51.7304C64.5301 51.0562 64.7479 50.4027 64.8516 49.7181C65.3443 46.985 65.4843 44.174 65.6244 41.3786C65.7592 38.5781 65.8214 35.7671 65.8888 32.9614L66.1326 24.5337C66.2104 30.1556 66.3297 35.7723 66.1897 41.3994C66.1378 44.2103 65.9822 47.0317 65.5102 49.8426C65.4117 50.5479 65.1939 51.2377 65.0383 51.9327C64.7686 52.6069 64.5975 53.3122 64.1826 53.9397C63.4928 55.2415 62.2014 56.2736 60.7545 56.6314C59.3075 57.01 57.8605 56.9166 56.4499 56.87C55.0288 56.7818 53.5974 56.5899 52.2231 56.0817C50.8902 55.6045 49.4588 54.6191 49.1269 53.0425C48.9661 52.2594 49.0543 51.58 49.0232 50.8747L49.0128 48.769C48.9972 43.1523 49.1373 37.5253 49.2565 31.9086Z" fill="#975500"/>
<path d="M39.2419 57.2643C40.6007 57.3317 41.9751 57.285 43.308 57.1554C44.6305 57.005 45.9374 56.5901 46.8606 55.7188C47.7941 54.8423 48.2297 53.5561 48.4942 52.2699C48.7691 50.9733 48.8728 49.6197 48.9247 48.2661C49.0284 45.5641 48.9558 42.8154 49.018 40.0926C49.0751 37.3646 49.1373 34.6367 49.2566 31.9087L49.5522 48.2817C49.5263 49.656 49.4589 51.0356 49.1995 52.4151C48.9299 53.7739 48.4009 55.195 47.3014 56.1959C46.2071 57.2176 44.7083 57.5288 43.3443 57.5962C41.9595 57.6532 40.5904 57.5236 39.2419 57.2643Z" fill="#975500"/>
<path d="M30.9284 32.5469C31.1099 34.4865 31.2655 36.421 31.4989 38.3451C31.7323 40.2692 31.9553 42.1933 32.2405 44.1174C32.4635 46.0415 32.7436 47.9812 32.8577 49.9208C33.0133 51.8138 33.4074 53.7638 34.6521 55.2886C33.1637 53.9661 32.5673 51.9072 32.2976 49.9831C32.0694 48.0486 31.7945 46.14 31.5196 44.2108C31.2966 42.2763 31.058 40.3418 30.944 38.3918C30.8247 36.4469 30.8143 34.4917 30.9284 32.5469Z" fill="#975500"/>
<path d="M17.273 37.3022C17.4805 38.7492 17.6101 40.2014 17.7502 41.6483L18.1339 45.9892C18.2532 47.4362 18.3984 48.878 18.5644 50.3145C18.7407 51.7511 18.9637 53.1774 19.3372 54.588C18.6733 53.2759 18.3051 51.8341 18.0095 50.4027C17.7087 48.9661 17.5427 47.5088 17.4079 46.0566C17.1693 43.142 17.0967 40.2221 17.273 37.3022Z" fill="#975500"/>
<defs>
<linearGradient id="paint0_linear" x1="49.027" y1="52.8687" x2="48.7526" y2="56.3215" gradientUnits="userSpaceOnUse">
<stop offset="0.00132565" stop-color="#BE8D68"/>
<stop offset="1" stop-color="#CD9870"/>
</linearGradient>
<linearGradient id="paint1_linear" x1="47.2324" y1="85.5107" x2="42.3542" y2="59.6564" gradientUnits="userSpaceOnUse">
<stop offset="0.00132565" stop-color="#BE8D68"/>
<stop offset="1" stop-color="#CD9870"/>
</linearGradient>
<linearGradient id="paint2_linear" x1="59.6174" y1="83.1736" x2="54.7392" y2="57.3193" gradientUnits="userSpaceOnUse">
<stop offset="0.00132565" stop-color="#BE8D68"/>
<stop offset="1" stop-color="#CD9870"/>
</linearGradient>
<linearGradient id="paint3_linear" x1="51.488" y1="73.7476" x2="50.8783" y2="28.7466" gradientUnits="userSpaceOnUse">
<stop stop-color="#FFBC47" stop-opacity="0"/>
<stop offset="1" stop-color="#C86F34"/>
</linearGradient>
<linearGradient id="paint4_linear" x1="49.0064" y1="73.7796" x2="48.3967" y2="28.78" gradientUnits="userSpaceOnUse">
<stop stop-color="#FFBC47" stop-opacity="0"/>
<stop offset="1" stop-color="#C86F34"/>
</linearGradient>
<linearGradient id="paint5_linear" x1="53.2652" y1="73.7573" x2="52.6574" y2="28.9068" gradientUnits="userSpaceOnUse">
<stop stop-color="#A46C3F" stop-opacity="0"/>
<stop offset="1" stop-color="#804B24"/>
</linearGradient>
<linearGradient id="paint6_linear" x1="57.6173" y1="56.5719" x2="57.6173" y2="25.4688" gradientUnits="userSpaceOnUse">
<stop offset="0.00132565" stop-color="#BE8D68"/>
<stop offset="1" stop-color="#CD9870"/>
</linearGradient>
<linearGradient id="paint7_linear" x1="39.9645" y1="56.6061" x2="39.9645" y2="25.5868" gradientUnits="userSpaceOnUse">
<stop offset="0.00132565" stop-color="#BE8D68"/>
<stop offset="1" stop-color="#CD9870"/>
</linearGradient>
<linearGradient id="paint8_linear" x1="13.5378" y1="56.6038" x2="13.5378" y2="25.5006" gradientUnits="userSpaceOnUse">
<stop offset="0.00132565" stop-color="#BE8D68"/>
<stop offset="1" stop-color="#CD9870"/>
</linearGradient>
<linearGradient id="paint9_linear" x1="25.7079" y1="56.6039" x2="25.7079" y2="25.5007" gradientUnits="userSpaceOnUse">
<stop offset="0.00132565" stop-color="#BE8D68"/>
<stop offset="1" stop-color="#CD9870"/>
</linearGradient>
<linearGradient id="paint10_linear" x1="36.9028" y1="27.0265" x2="40.3785" y2="100.199" gradientUnits="userSpaceOnUse">
<stop stop-color="#A46C3F" stop-opacity="0"/>
<stop offset="1" stop-color="#804B24"/>
</linearGradient>
<linearGradient id="paint11_linear" x1="56.8285" y1="22.6058" x2="48.4693" y2="85.8448" gradientUnits="userSpaceOnUse">
<stop stop-color="#473226" stop-opacity="0"/>
<stop offset="1" stop-color="#3D2A20"/>
</linearGradient>
<linearGradient id="paint12_linear" x1="54.4558" y1="56.0452" x2="54.2118" y2="98.7291" gradientUnits="userSpaceOnUse">
<stop stop-color="#8D562E" stop-opacity="0"/>
<stop offset="1" stop-color="#8D562E"/>
</linearGradient>
<linearGradient id="paint13_linear" x1="16.5113" y1="23.9386" x2="-5.07456" y2="214.736" gradientUnits="userSpaceOnUse">
<stop stop-color="#8D562E" stop-opacity="0"/>
<stop offset="1" stop-color="#8D562E"/>
</linearGradient>
<linearGradient id="paint14_linear" x1="29.6989" y1="25.4306" x2="8.113" y2="216.228" gradientUnits="userSpaceOnUse">
<stop stop-color="#8D562E" stop-opacity="0"/>
<stop offset="1" stop-color="#8D562E"/>
</linearGradient>
<linearGradient id="paint15_linear" x1="43.2865" y1="26.9678" x2="21.7006" y2="217.765" gradientUnits="userSpaceOnUse">
<stop stop-color="#8D562E" stop-opacity="0"/>
<stop offset="1" stop-color="#8D562E"/>
</linearGradient>
<linearGradient id="paint16_linear" x1="59.5051" y1="28.8028" x2="37.9192" y2="219.6" gradientUnits="userSpaceOnUse">
<stop stop-color="#8D562E" stop-opacity="0"/>
<stop offset="1" stop-color="#8D562E"/>
</linearGradient>
<radialGradient id="paint17_radial" cx="0" cy="0" r="1" gradientUnits="userSpaceOnUse" gradientTransform="translate(12.7826 42.2555) rotate(-96.1892) scale(6.98908 3.78497)">
<stop stop-color="#F8DBBA"/>
<stop offset="1" stop-color="#CD9870" stop-opacity="0"/>
</radialGradient>
<radialGradient id="paint18_radial" cx="0" cy="0" r="1" gradientUnits="userSpaceOnUse" gradientTransform="translate(14.2517 28.8096) rotate(-96.2212) scale(3.43404 4.61142)">
<stop stop-color="#F8DBBA"/>
<stop offset="1" stop-color="#CD9870" stop-opacity="0"/>
</radialGradient>
<radialGradient id="paint19_radial" cx="0" cy="0" r="1" gradientUnits="userSpaceOnUse" gradientTransform="translate(24.9934 24.7665) rotate(-105.904) scale(3.43438 4.61199)">
<stop stop-color="#F8DBBA"/>
<stop offset="1" stop-color="#CD9870" stop-opacity="0"/>
</radialGradient>
<radialGradient id="paint20_radial" cx="0" cy="0" r="1" gradientUnits="userSpaceOnUse" gradientTransform="translate(39.917 19.8848) rotate(-105.895) scale(5.63382 6.65923)">
<stop stop-color="#F8DBBA"/>
<stop offset="1" stop-color="#CD9870" stop-opacity="0"/>
</radialGradient>
<radialGradient id="paint21_radial" cx="0" cy="0" r="1" gradientUnits="userSpaceOnUse" gradientTransform="translate(56.5772 20.5337) rotate(-84.4427) scale(4.05268 5.00981)">
<stop stop-color="#F8DBBA"/>
<stop offset="1" stop-color="#CD9870" stop-opacity="0"/>
</radialGradient>
<radialGradient id="paint22_radial" cx="0" cy="0" r="1" gradientUnits="userSpaceOnUse" gradientTransform="translate(23.9647 42.8326) rotate(-96.0929) scale(7.99088 4.23634)">
<stop stop-color="#F8DBBA"/>
<stop offset="1" stop-color="#CD9870" stop-opacity="0"/>
</radialGradient>
<radialGradient id="paint23_radial" cx="0" cy="0" r="1" gradientUnits="userSpaceOnUse" gradientTransform="translate(40.7058 41.547) rotate(-96.0695) scale(10.1426 6.67754)">
<stop stop-color="#F8DBBA"/>
<stop offset="1" stop-color="#CD9870" stop-opacity="0"/>
</radialGradient>
<radialGradient id="paint24_radial" cx="0" cy="0" r="1" gradientUnits="userSpaceOnUse" gradientTransform="translate(57.1713 41.0863) rotate(-92.1588) scale(10.1475 5.15362)">
<stop stop-color="#F8DBBA"/>
<stop offset="1" stop-color="#CD9870" stop-opacity="0"/>
</radialGradient>
<linearGradient id="paint25_linear" x1="35.5952" y1="47.1244" x2="38.4002" y2="10.2943" gradientUnits="userSpaceOnUse">
<stop stop-color="#B37E53"/>
<stop offset="1" stop-color="#CD9870"/>
</linearGradient>
</defs>
</svg>
