<svg width="80" height="80" viewBox="0 0 80 80" fill="none" xmlns="http://www.w3.org/2000/svg">
<g clip-path="url(#clip0)">
<path d="M29.0664 52.1822C29.0664 46.9159 31.2977 41.5588 36.2955 34.0609C41.2932 26.5629 41.4699 25.4925 41.2932 21.3876C41.1165 17.2826 40.5814 14.0663 43.7012 14.0663C46.821 14.0663 52.0913 18.2621 52.0913 23.3517C52.0913 28.4412 49.2795 32.4098 49.2795 36.5602C49.2795 37.1307 49.4208 37.6508 49.6228 38.1102C50.1528 39.2968 51.6723 39.6856 52.7325 38.9333C54.1662 37.9184 56.3016 36.6308 57.7807 36.7419C57.7807 36.7419 56.7307 30.582 58.336 28.9764C58.336 28.9764 54.3227 26.6538 52.9798 22.7256C52.3993 21.0291 49.8954 17.7118 49.8954 17.7118C49.8954 17.7118 43.1661 13.0009 46.8664 9.204C49.5066 6.50271 52.6668 8.8455 55.61 11.3448C58.5531 13.8441 63.465 16.5656 67.968 23.8414C68.4627 24.6392 69.6642 30.6678 69.6642 35.2676C69.6642 42.3616 70.1993 48.5215 64.308 54.9491C58.4168 61.3766 48.4213 72 38.9609 72C29.5005 72 19.0608 70.662 12.902 71.7324C12.902 71.7324 9.14612 56.7668 12.1902 52.0055C14.2549 48.7892 24.2504 52.1822 29.0664 52.1822Z" fill="url(#paint0_linear)"/>
<path d="M36.2955 34.0611C31.2978 41.5591 29.0664 46.9162 29.0664 52.1825C29.0664 52.1825 28.4405 52.8085 26.7443 56.4692C26.7443 56.4692 30.7828 58.0546 33.4584 54.6616C34.3368 53.5508 33.3322 47.4867 34.2005 42.8365C34.7608 39.8171 38.3703 36.0101 41.8183 30.5267C41.1267 29.8754 40.3896 29.2644 39.6829 28.6787C38.9256 30.042 37.8403 31.7435 36.2955 34.0611Z" fill="url(#paint1_linear)"/>
<path d="M42.2575 14.4297C40.7834 15.3739 41.1519 18.0903 41.2983 21.3874C41.4195 24.2251 41.374 25.6136 39.6829 28.6734C40.3947 29.2591 41.1266 29.87 41.8183 30.5214C43.7719 27.4111 45.3116 24.4927 45.3116 22.4579C45.3116 18.8275 43.1611 16.3534 42.2575 14.4297Z" fill="url(#paint2_linear)"/>
<path d="M12.9121 71.7324C19.071 70.662 29.5107 72.0001 38.9711 72.0001C48.4314 72.0001 58.4269 61.3767 64.3182 54.9491C70.2095 48.5216 69.6743 42.3616 69.6743 35.2676C69.6743 30.6729 68.4729 24.6391 67.9782 23.8414C63.4701 16.5656 58.5632 13.8441 55.6201 11.3448C54.1157 10.0673 52.5508 8.83535 51.0313 8.29004C54.5549 11.6679 62.1121 16.8079 66.282 24.0333C67.6197 26.3559 67.9782 37.6306 67.9782 42.5383C67.9782 47.4461 59.6789 55.661 45.3116 64.8555C39.067 68.8544 31.0302 68.3192 29.0664 65.6432C27.1027 62.9672 26.926 62.8056 26.926 64.497C26.926 66.1885 25.7649 68.0668 19.4294 68.0668C16.6125 68.0668 13.9268 67.2034 11.8015 66.244C12.3265 69.3795 12.9121 71.7324 12.9121 71.7324Z" fill="url(#paint3_radial)"/>
<path d="M60.0928 34.6265C58.6036 31.1174 61.8193 31.1729 60.214 27.9011C58.6087 24.6292 56.5843 23.377 54.7972 19.4488C53.0203 15.5357 45.4731 13.612 46.2001 10.1079C45.1399 12.0114 46.2253 14.0311 47.5025 15.5055C46.6443 14.9147 45.7609 14.4754 44.938 14.2482C45.8366 15.3994 47.1693 17.1919 48.6081 19.5094C48.8807 19.9436 49.0826 20.494 49.2391 21.0948C49.8701 23.5285 49.6177 26.1238 48.6333 28.4363C47.4217 31.284 46.821 33.748 46.821 35.1617C46.821 36.9491 46.9018 39.923 49.8651 41.5892C52.8284 43.2555 55.6251 41.2308 57.9473 41.0541C60.2695 40.8773 61.5821 38.1407 60.0928 34.6265ZM49.9004 17.7119C49.9004 17.7119 49.956 17.7877 50.0418 17.8987C49.9862 17.828 49.9307 17.7624 49.8752 17.6917C49.8802 17.6968 49.9004 17.7119 49.9004 17.7119ZM57.7858 36.7421C56.3016 36.631 54.1712 37.9185 52.7375 38.9334C51.6774 39.6857 50.1579 39.2969 49.6278 38.1104C49.4209 37.6509 49.2845 37.1309 49.2845 36.5603C49.2845 32.4099 52.0964 28.4363 52.0964 23.3518C52.0964 21.63 51.4856 20.0194 50.5668 18.6309C51.3493 19.7366 52.5962 21.5897 52.9849 22.7257C54.3278 26.6539 58.3411 28.9765 58.3411 28.9765C56.7357 30.5822 57.7858 36.7421 57.7858 36.7421Z" fill="url(#paint4_linear)"/>
<path d="M57.2709 26.2954C56.2007 24.6897 54.2823 19.1104 53.4342 18.2622C52.7224 17.5502 48.2143 15.2781 45.9174 12.7788C46.195 13.7785 46.8261 14.7227 47.5025 15.5104C46.8008 15.0257 46.089 14.652 45.4025 14.4097C49.9105 18.3581 50.0367 22.6095 50.0367 24.5989C50.0367 26.7397 43.787 40.3068 51.3745 40.3068C53.6059 40.3068 55.6605 37.1511 57.9776 37.7469C60.2998 38.3427 57.6192 35.394 59.0479 31.8242C60.4765 28.2545 58.3411 27.9061 57.2709 26.2954ZM49.9005 17.7118C49.9005 17.7118 49.956 17.7876 50.0418 17.8986C49.9863 17.828 49.9307 17.7623 49.8752 17.6916C49.8803 17.6967 49.9005 17.7118 49.9005 17.7118ZM57.7858 36.7421C56.3016 36.631 54.1713 37.9185 52.7376 38.9334C51.6774 39.6858 50.1579 39.297 49.6279 38.1104C49.4209 37.6509 49.2846 37.1309 49.2846 36.5603C49.2846 32.4099 52.0964 28.4362 52.0964 23.3517C52.0964 21.63 51.4856 20.0193 50.5668 18.6308C51.3493 19.7365 52.5962 21.5896 52.9849 22.7256C54.3278 26.6539 58.3411 28.9765 58.3411 28.9765C56.7358 30.5821 57.7858 36.7421 57.7858 36.7421Z" fill="url(#paint5_linear)"/>
<path opacity="0.16" d="M41.0055 36.1213C44.615 36.2576 46.0285 42.3367 46.0234 48.9561C46.0184 54.3688 42.6613 60.3166 39.1376 60.0944C35.6139 59.8723 32.5244 59.0291 33.3978 47.7998C33.9026 41.1805 37.4767 35.9849 41.0055 36.1213Z" fill="url(#paint6_radial)"/>
<path opacity="0.16" d="M61.6124 42.0687C63.4146 43.6945 60.0323 48.784 55.5393 53.6716C51.8642 57.6705 46.0638 60.6393 44.3626 58.9883C42.6613 57.3372 41.6113 55.4085 49.6884 47.4763C54.454 42.8008 59.8505 40.4731 61.6124 42.0687Z" fill="url(#paint7_radial)"/>
<path opacity="0.16" d="M25.5175 61.3872C25.3964 65.0226 22.2967 66.7594 18.9346 67.0977C16.1884 67.3704 13.22 64.3056 13.3765 60.751C13.533 57.1965 14.0076 54.0459 19.6919 54.3387C23.0489 54.5104 25.6336 57.8327 25.5175 61.3872Z" fill="url(#paint8_radial)"/>
<path d="M43.7013 14.0665C44.8422 14.0362 45.9629 14.4402 46.9523 14.9956C47.9519 15.556 48.8403 16.2982 49.6228 17.1364C50.38 17.9947 51.0363 18.9541 51.4755 20.0144C51.9197 21.0696 52.1469 22.2208 52.0863 23.3518C51.9197 21.0848 50.8646 19.0096 49.3552 17.3787C48.6182 16.5456 47.7499 15.8287 46.811 15.2329C45.872 14.6522 44.8321 14.1726 43.7013 14.0665Z" fill="#804B24"/>
<path d="M29.0665 52.1819C24.2454 52.1819 14.2499 48.7889 12.2004 52.0052C11.9479 52.399 11.7511 52.8635 11.5845 53.3836C15.9966 49.3493 19.0104 56.4686 26.7493 56.4686C28.4405 52.808 29.0665 52.1819 29.0665 52.1819Z" fill="url(#paint9_linear)"/>
</g>
<defs>
<linearGradient id="paint0_linear" x1="-7.31468" y1="74.8779" x2="81.4643" y2="17.0511" gradientUnits="userSpaceOnUse">
<stop offset="0.00132565" stop-color="#99643E"/>
<stop offset="1" stop-color="#AE7246"/>
</linearGradient>
<linearGradient id="paint1_linear" x1="41.6865" y1="45.5485" x2="2.05992" y2="31.6282" gradientUnits="userSpaceOnUse">
<stop stop-color="#A46C3F" stop-opacity="0"/>
<stop offset="1" stop-color="#804B24"/>
</linearGradient>
<linearGradient id="paint2_linear" x1="48.9394" y1="24.9015" x2="9.31276" y2="10.9812" gradientUnits="userSpaceOnUse">
<stop stop-color="#A46C3F" stop-opacity="0"/>
<stop offset="1" stop-color="#804B24"/>
</linearGradient>
<radialGradient id="paint3_radial" cx="0" cy="0" r="1" gradientUnits="userSpaceOnUse" gradientTransform="translate(35.0233 32.2802) scale(47.6216 47.6302)">
<stop offset="0.6147" stop-color="#8D562E" stop-opacity="0"/>
<stop offset="1" stop-color="#804B24"/>
</radialGradient>
<linearGradient id="paint4_linear" x1="29.4027" y1="-19.8558" x2="57.0175" y2="40.3624" gradientUnits="userSpaceOnUse">
<stop stop-color="#A46C3F" stop-opacity="0"/>
<stop offset="1" stop-color="#804B24"/>
</linearGradient>
<linearGradient id="paint5_linear" x1="44.5661" y1="-7.1067" x2="64.9211" y2="83.7603" gradientUnits="userSpaceOnUse">
<stop stop-color="#A46C3F" stop-opacity="0"/>
<stop offset="1" stop-color="#804B24"/>
</linearGradient>
<radialGradient id="paint6_radial" cx="0" cy="0" r="1" gradientUnits="userSpaceOnUse" gradientTransform="translate(39.7438 48.0929) rotate(-85.544) scale(12.3431 6.45424)">
<stop stop-color="#F8DBBA"/>
<stop offset="1" stop-color="#CD9870" stop-opacity="0"/>
</radialGradient>
<radialGradient id="paint7_radial" cx="0" cy="0" r="1" gradientUnits="userSpaceOnUse" gradientTransform="translate(52.8359 50.3762) rotate(-44.4477) scale(12.4031 4.3358)">
<stop stop-color="#F8DBBA"/>
<stop offset="1" stop-color="#CD9870" stop-opacity="0"/>
</radialGradient>
<radialGradient id="paint8_radial" cx="0" cy="0" r="1" gradientUnits="userSpaceOnUse" gradientTransform="translate(19.459 60.7531) rotate(3.00163) scale(6.23838 6.50587)">
<stop stop-color="#F8DBBA"/>
<stop offset="1" stop-color="#CD9870" stop-opacity="0"/>
</radialGradient>
<linearGradient id="paint9_linear" x1="37.0773" y1="58.6689" x2="-2.54931" y2="44.7486" gradientUnits="userSpaceOnUse">
<stop stop-color="#A46C3F" stop-opacity="0"/>
<stop offset="1" stop-color="#804B24"/>
</linearGradient>
<clipPath id="clip0">
<rect width="80" height="80" fill="white"/>
</clipPath>
</defs>
</svg>
