<svg width="80" height="80" viewBox="0 0 80 80" fill="none" xmlns="http://www.w3.org/2000/svg">
<path d="M57.4833 26.2729C56.8674 24.0867 55.5197 23.4037 54.8855 23.2025C54.6751 23.1354 54.5409 23.1202 54.5409 23.1202L42.5062 18.7051L25.2605 27.6084L29.081 39.0303C32.7826 38.4815 36.4873 38.4266 40.2041 38.4785C46.7627 38.573 53.3609 39.012 60.0507 37.707C60.1452 33.7158 58.2029 28.8281 57.4833 26.2729Z" fill="url(#paint0_linear)"/>
<path d="M60.9929 35.8713C55.9527 35.6548 53.5256 33.3802 53.0896 27.1631C53.0408 26.4649 49.4734 9.68874 59.3738 9.47226C68.268 9.28016 68.207 14.6679 67.8228 23.6384C67.4417 32.6057 65.3317 36.0573 60.9929 35.8713Z" fill="url(#paint1_linear)"/>
<path d="M60.6881 26.5984C53.0196 26.2721 51.1109 9.57832 59.5995 9.46855C66.896 9.37403 66.6734 14.588 66.6369 19.0244C66.582 25.4062 64.2464 26.7508 60.6881 26.5984Z" fill="url(#paint2_linear)"/>
<path d="M58.0015 35.3745C58.8766 35.6519 59.8584 35.8227 60.9926 35.8715C65.3315 36.0575 67.4415 32.6059 67.8256 23.6385C68.1946 14.9943 68.2403 9.68891 60.2791 9.49072C63.3282 11.4574 65.7035 15.7322 65.3833 23.2635C64.926 33.975 62.4044 35.5422 58.0015 35.3745Z" fill="url(#paint3_linear)"/>
<path d="M63.5415 9.94092C64.6361 10.2489 65.6942 10.8435 66.4046 11.7734C67.1272 12.6882 67.5236 13.8163 67.7523 14.9414C68.2097 17.213 68.1365 19.5273 68.0511 21.808C67.9444 24.0887 67.859 26.3877 67.4535 28.6502C67.2522 29.7783 66.99 30.9035 66.5875 31.9828C66.182 33.047 65.5905 34.1233 64.6209 34.7636C65.5021 34.0196 66.0052 32.9677 66.4016 31.9127C66.7979 30.8486 67.051 29.7356 67.237 28.6136C67.6151 26.3664 67.6913 24.0826 67.7462 21.7958C67.7889 19.5181 67.8804 17.2222 67.5114 14.9872C67.3132 13.8773 66.9565 12.7735 66.2765 11.871C65.6088 10.9593 64.627 10.3007 63.5415 9.94092Z" fill="#975500"/>
<path d="M11.57 40.1124C11.57 43.2621 13.1128 44.6769 13.8842 45.1861C14.1404 45.3568 14.3142 45.427 14.3142 45.427L28.712 55.8427L55.0714 50.4427L54.2634 33.7672C49.1196 33.1086 44.1526 31.7914 39.2131 30.3218C30.4957 27.73 26.7148 12.826 12.439 23.8973C10.8138 29.1814 11.57 36.4382 11.57 40.1124Z" fill="url(#paint4_linear)"/>
<path d="M39.637 40.6061C46.1316 39.9231 50.2479 45.2346 50.7632 48.0002L52.8853 47.2287L51.9218 36.6209L53.3945 26.9767L52.8731 23.1104L39.4053 23.1714L26.532 24.9856L24.7483 19.4149C24.6995 19.4149 24.2543 19.4088 24.2056 19.4058L15.2626 20.3205C14.2991 20.6772 13.6008 21.1498 13.2837 21.7688C12.0976 24.0861 11.6402 27.1017 11.4817 30.1081C12.8782 32.9132 16.0126 34.3707 18.7477 34.3707C21.9614 34.3707 23.8915 31.9284 25.0471 29.8702C25.0471 29.8702 25.2575 33.5993 30.4257 35.0141C30.4257 35.0141 34.2676 41.1702 39.637 40.6061Z" fill="url(#paint5_linear)"/>
<path d="M18.6744 33.0848C14.8874 33.0848 11.753 29.9991 11.2285 24.212C10.7071 18.4248 10.576 12.2534 16.5827 12.2534C22.5894 12.2534 24.2878 14.5677 24.6811 22.2819C25.0744 29.9991 22.5925 33.0848 18.6744 33.0848Z" fill="url(#paint6_linear)"/>
<path d="M33.0264 33.9834C28.3491 33.9834 26.0135 31.9314 25.364 26.0771C25.2909 25.4216 21.324 9.71875 30.4865 9.11807C38.716 8.57534 38.8746 13.6673 38.8746 22.153C38.8746 30.6386 37.0512 33.9834 33.0264 33.9834Z" fill="url(#paint7_linear)"/>
<path d="M32.7613 25.885C29.1908 27.6839 26.7881 27.7236 25.2605 25.266C25.2971 25.5434 25.3337 25.8209 25.3611 26.0801C26.0106 31.9313 28.3492 33.9864 33.0235 33.9864C36.3135 33.9864 38.1277 31.7514 38.6826 26.3118C37.7618 24.7263 34.8682 24.8239 32.7613 25.885Z" fill="url(#paint8_linear)"/>
<path d="M18.5463 25.6267C15.36 25.6267 12.7225 23.6448 12.2834 19.931C11.8444 16.2172 11.7346 12.2534 16.79 12.2534C21.8454 12.2534 23.2754 13.7383 23.6047 18.6931C23.934 23.6479 21.8424 25.6267 18.5463 25.6267Z" fill="url(#paint9_linear)"/>
<path d="M32.377 25.2418C25.2604 25.2418 22.8333 9.55722 30.6908 9.109C37.4446 8.72482 37.4446 13.6583 37.5848 17.8508C37.7861 23.8788 35.6792 25.2418 32.377 25.2418Z" fill="url(#paint10_linear)"/>
<path d="M30.2366 33.6358C31.0598 33.8645 31.9746 33.9834 33.0265 33.9834C37.0543 33.9834 38.8716 30.6416 38.8716 22.156C38.8716 13.9783 38.7039 8.96564 31.322 9.0998C34.2248 10.8317 36.5939 14.7742 36.5939 21.8999C36.5939 32.0351 34.3193 33.6176 30.2366 33.6358Z" fill="url(#paint11_linear)"/>
<path d="M18.7079 29.4831C14.8569 29.4831 11.6706 26.4187 11.012 20.7017C11.0364 21.8512 11.1248 23.0373 11.2284 24.2112C11.7498 29.9983 14.8843 33.084 18.6743 33.084C22.3485 33.084 24.7298 30.3155 24.6902 23.6105C23.9066 27.7268 21.7204 29.4831 18.7079 29.4831Z" fill="url(#paint12_linear)"/>
<path d="M24.6811 22.2845C24.3091 14.9362 22.7419 12.4908 17.3999 12.2773C20.199 12.7378 25.6233 23.5285 18.1561 33.0325C18.3299 33.0447 18.4976 33.0874 18.6714 33.0874C22.5925 33.0844 25.0745 29.9987 24.6811 22.2845Z" fill="url(#paint13_linear)"/>
<path d="M24.4404 19.4033C24.7209 21.8578 25.0105 24.352 24.6264 26.8279C24.4526 28.0597 24.1446 29.2915 23.5439 30.4044C22.9677 31.5265 21.9675 32.4504 20.7662 32.9047C18.3391 33.7097 15.5035 32.9748 13.8234 31.0722C12.0763 29.2183 11.4055 26.6541 11.2317 24.2117C11.5335 26.6449 12.2836 29.1391 13.985 30.9197C15.6346 32.7431 18.3757 33.3834 20.6534 32.5937C21.7785 32.1821 22.7298 31.3436 23.3031 30.2703C23.8976 29.2092 24.2208 28.0079 24.4099 26.7943C24.8002 24.3581 24.5898 21.8731 24.4404 19.4033Z" fill="#975500"/>
<path d="M31.1787 33.8283C30.4165 33.9625 29.703 33.6515 29.0474 33.3161C28.3888 32.9715 27.7973 32.4989 27.3125 31.9348C26.3307 30.8067 25.8123 29.3797 25.4983 27.968C25.2056 26.5349 25.1537 25.0957 24.9403 23.6718C24.7543 22.2448 24.5835 20.8087 24.5012 19.3726C24.6659 20.8056 24.9007 22.2235 25.1263 23.6474C25.3885 25.0652 25.4983 26.5166 25.8245 27.8978C26.1416 29.276 26.66 30.6451 27.59 31.694C28.0504 32.2184 28.6053 32.6544 29.2243 32.9746C29.8524 33.3039 30.5293 33.4289 31.1787 33.8283Z" fill="#975500"/>
<path d="M39.637 40.6068C34.2676 41.1708 30.4257 35.0147 30.4257 35.0147C25.2575 33.5999 25.0471 29.8709 25.0471 29.8709C23.8884 31.929 21.9614 34.3714 18.7477 34.3714C16.0126 34.3714 12.8751 32.9139 11.4817 30.1087C11.5152 29.4837 11.5701 28.8616 11.6311 28.2457L11.6067 28.2427C11.4329 29.938 11.3902 31.6638 11.3994 33.3194C14.1649 36.4905 18.4976 36.9387 21.2632 36.1215C22.0133 35.8989 25.5106 33.2584 28.2121 35.9142C31.1422 38.7925 34.5481 42.4728 40.3962 42.3417C46.2444 42.2106 50.7571 47.9978 50.7571 47.9978C50.2479 45.2353 46.1316 39.9238 39.637 40.6068Z" fill="url(#paint14_linear)"/>
<path d="M46.651 31.9926C41.9584 31.8432 39.4216 29.8369 39.1959 24.2571C38.9398 17.9089 36.7628 8.26765 45.3947 8.00847C53.67 7.7615 52.804 12.9328 52.8681 20.9763C52.9473 30.8218 50.691 32.1238 46.651 31.9926Z" fill="url(#paint15_linear)"/>
<path d="M46.3023 23.3118C42.6586 25.1199 40.2468 25.0834 38.7954 22.4062C38.8229 22.702 38.8503 23.0039 38.8716 23.2813C39.326 29.5594 41.6036 31.831 46.2962 31.9804C49.5983 32.0871 51.4918 29.7576 52.2328 23.9552C51.3607 22.2355 48.4519 22.2446 46.3023 23.3118Z" fill="url(#paint16_linear)"/>
<path d="M45.9667 23.7685C42.1157 23.6435 40.6796 23.3203 40.1674 18.8686C39.9021 16.5787 38.5178 8.20896 45.6008 8.00772C52.3912 7.81563 51.6716 13.4382 51.6716 17.9234C51.6716 24.3783 49.2841 23.8752 45.9667 23.7685Z" fill="url(#paint17_linear)"/>
<path d="M43.8599 31.5713C44.677 31.8122 45.5948 31.9738 46.6498 31.9921C52.2845 32.0866 52.6138 29.0132 52.8669 20.9757C53.1108 13.228 53.6444 8.12991 46.2351 8.01709C49.0952 9.75202 50.8026 13.911 50.5892 20.6586C50.2874 30.2602 47.9609 31.6842 43.8599 31.5713Z" fill="url(#paint18_linear)"/>
<path d="M44.4514 31.7544C43.6129 31.858 42.8476 31.4617 42.1707 31.0195C41.4908 30.5622 40.9297 29.9432 40.5151 29.248C39.6857 27.8454 39.3655 26.2416 39.1887 24.6744C39.0149 23.0949 39.0484 21.5125 39.021 19.9422C38.9905 18.3688 38.9722 16.7925 38.7466 15.2344C39.0423 16.7833 39.1277 18.3658 39.1948 19.9391C39.268 21.5125 39.2741 23.0888 39.5028 24.6378C39.7192 26.1776 40.0303 27.7448 40.8322 29.059C41.2285 29.7115 41.753 30.2817 42.3872 30.6994C43.0184 31.1415 43.7593 31.297 44.4514 31.7544Z" fill="#975500"/>
<path d="M49.2722 8.43213C50.1016 8.68825 50.9035 9.12733 51.4859 9.80727C52.0652 10.4842 52.4311 11.3166 52.6567 12.1673C53.1049 13.8809 53.1385 15.6554 53.1446 17.3995C53.108 19.1497 53.0317 20.8938 52.9494 22.6348C52.9159 23.5038 52.9098 24.3789 52.8458 25.254C52.8092 25.69 52.7848 26.1321 52.6872 26.5651C52.6415 26.7816 52.5774 27.0011 52.4646 27.1993C52.364 27.3883 52.1689 27.6109 51.931 27.5622C52.3884 27.4554 52.4006 26.9127 52.5012 26.5285C52.5683 26.1047 52.6201 25.6748 52.6354 25.2418C52.6781 24.3728 52.6628 23.5038 52.6781 22.6257L52.8092 17.3934C52.8397 15.6585 52.8519 13.9022 52.4555 12.2161C52.2573 11.3776 51.9188 10.5634 51.3791 9.89569C50.8547 9.20965 50.0924 8.73094 49.2722 8.43213Z" fill="#975500"/>
<path d="M34.3589 9.396C35.1517 9.59419 35.9231 9.93265 36.5573 10.4723C37.1945 11.009 37.655 11.7286 37.9873 12.4847C38.6337 14.0184 38.8228 15.6863 38.9447 17.3176C39.027 18.958 39.0301 20.5953 39.0057 22.2296C38.9996 23.0437 39.021 23.8639 38.9844 24.6841C38.96 25.0958 38.9508 25.5074 38.8624 25.919C38.8228 26.1233 38.7648 26.3307 38.6581 26.5167C38.5636 26.7027 38.3623 26.8886 38.1428 26.849C38.5666 26.7392 38.588 26.2483 38.6734 25.8855C38.7282 25.4891 38.7679 25.0866 38.7709 24.6781C38.7862 23.864 38.7465 23.0498 38.7313 22.2296C38.7008 20.5953 38.713 18.961 38.6093 17.3358C38.5239 15.7168 38.3837 14.0733 37.7952 12.564C37.2372 11.0456 35.9505 9.83507 34.3589 9.396Z" fill="#975500"/>
<path d="M53.7878 29.8367L53.3548 27.0072C53.181 26.0711 52.9554 25.132 52.8639 24.1776C52.6383 22.278 52.623 20.3358 52.9584 18.4453C52.992 20.3601 53.0865 22.2475 53.2084 24.1471C53.2908 25.0923 53.3213 26.0467 53.428 26.998L53.7878 29.8367Z" fill="#975500"/>
<path d="M30.4257 30.8552C30.4257 27.428 32.8527 27.3183 39.3412 26.742C43.9819 26.3304 49.0282 25.1138 55.4557 27.5988C62.7918 30.4344 69.6858 34.5416 69.7712 41.9143C69.8474 48.5125 64.7127 71.9997 42.2561 71.9997C19.7996 71.9997 12.2561 59.9985 11.5701 40.1123L50.7631 48.0003C50.7631 48.0003 51.5986 40.9935 46.7993 38.914C44.7534 38.0267 40.3718 38.7432 37.4569 38.7432C34.5419 38.7432 30.4257 35.4837 30.4257 30.8552Z" fill="url(#paint19_linear)"/>
<path d="M58.2854 57.1287C48.7722 64.0715 49.5436 67.9286 40.6707 67.9286C31.7979 67.9286 26.0778 63.236 22.0255 59.1868C17.9763 55.1346 14.5705 48.3839 12.8996 43.24C12.5063 42.0265 12.0428 41.0112 11.5732 40.1513C12.2654 60.0131 19.8149 71.9991 42.2563 71.9991C64.7129 71.9991 69.8475 48.5119 69.7713 41.9137C69.7378 39.0262 68.6523 36.6479 66.9113 34.6416C67.4052 44.0694 66.1002 51.4238 58.2854 57.1287Z" fill="url(#paint20_radial)"/>
<path d="M53.0562 41.1435C52.8855 37.0302 47.827 32.9139 43.6284 33.3439C40 33.7128 33.4353 34.2068 30.499 31.5205C30.8741 35.7862 34.6854 38.7438 37.4571 38.7438C40.372 38.7438 44.7535 38.0273 46.7995 38.9146C51.5988 40.994 50.7633 48.0009 50.7633 48.0009C50.7633 48.0009 53.227 45.2567 53.0562 41.1435Z" fill="url(#paint21_radial)"/>
<path d="M69.7709 41.9143C69.6856 34.5416 62.7916 30.4344 55.4554 27.5988C49.028 25.1138 43.9817 26.3304 39.341 26.742C34.3923 27.1811 31.8158 27.3609 30.8706 28.9373C36.9718 27.428 42.6858 26.8152 49.7323 27.6201C58.9131 28.669 65.8559 34.3281 67.1152 38.6548C68.3592 42.9327 68.1793 50.8969 68.1763 51.086C69.3593 47.2563 69.7923 43.8535 69.7709 41.9143Z" fill="url(#paint22_linear)"/>
<path d="M50.7632 48.0004C50.8852 46.3356 50.7541 44.6281 50.2266 43.0426C49.7204 41.4693 48.7173 39.9813 47.2263 39.2343C45.7688 38.4141 43.9973 38.5696 42.3538 38.597C40.6799 38.6641 39.015 38.8562 37.3258 38.844C35.594 38.7556 34.0298 37.8408 32.8162 36.673C31.6118 35.4808 30.7185 33.938 30.4257 32.2519C30.2702 31.4134 30.2306 30.5505 30.4014 29.6967C30.5843 28.8369 31.2307 28.0685 32.0387 27.7453C33.6395 27.0654 35.347 26.983 37.0087 26.7879C40.3566 26.5775 43.6588 25.9707 47.0403 25.9463C48.7234 25.9433 50.4126 26.0927 52.0621 26.4525C53.7117 26.8031 55.3064 27.3855 56.8492 28.035C59.9318 29.34 62.9779 30.8767 65.5147 33.1117C66.7649 34.2338 67.8656 35.551 68.6217 37.0572C69.384 38.5604 69.7682 40.2374 69.7774 41.9144C69.7408 40.2374 69.3291 38.5726 68.5486 37.0938C67.7741 35.6119 66.6642 34.3252 65.408 33.2337C62.8803 31.0383 59.8465 29.5229 56.7669 28.2423C53.6995 26.9007 50.3882 26.1567 47.0433 26.2268C43.7106 26.2665 40.3841 26.8946 37.0423 27.1202C35.3927 27.3001 33.6761 27.3885 32.1729 28.0228C31.4137 28.3307 30.8709 28.9802 30.691 29.7638C30.5264 30.5505 30.5569 31.3981 30.7032 32.2031C30.9776 33.8313 31.8314 35.3314 32.9961 36.4962C34.167 37.6396 35.6946 38.533 37.338 38.6245C38.9998 38.6458 40.6768 38.4629 42.3508 38.4049C43.1893 38.3744 44.0308 38.3592 44.8754 38.4232C45.7048 38.4964 46.5859 38.6306 47.3116 39.091C48.8331 39.8868 49.8302 41.4235 50.3119 43.0182C50.8089 44.6251 50.9096 46.3356 50.7632 48.0004Z" fill="#975500"/>
<path opacity="0.75" d="M15.7078 40.7924C13.6466 43.2744 19.9155 57.5716 26.1052 61.1725C32.2918 64.7735 40.0487 63.6698 41.558 60.8067C43.0673 57.9436 36.6367 53.498 31.374 48.5707C22.2938 40.0728 17.769 38.3104 15.7078 40.7924Z" fill="url(#paint23_radial)"/>
<path opacity="0.75" d="M66.1396 42.6216C67.2373 41.1458 61.755 31.9925 57.3796 29.5257C53.0041 27.059 44.3904 28.5256 43.6861 30.2575C42.9848 31.9894 51.2875 33.9439 55.1903 37.2064C61.9288 42.835 65.045 44.0974 66.1396 42.6216Z" fill="url(#paint24_radial)"/>
<defs>
<linearGradient id="paint0_linear" x1="56.5298" y1="26.7177" x2="18.7753" y2="37.347" gradientUnits="userSpaceOnUse">
<stop offset="0.00132565" stop-color="#FFCB4B"/>
<stop offset="1" stop-color="#FFD748"/>
</linearGradient>
<linearGradient id="paint1_linear" x1="60.1106" y1="21.9479" x2="59.0358" y2="47.1269" gradientUnits="userSpaceOnUse">
<stop offset="0.00132565" stop-color="#FFCB4B"/>
<stop offset="1" stop-color="#FFD748"/>
</linearGradient>
<linearGradient id="paint2_linear" x1="60.0056" y1="25.6189" x2="60.8307" y2="6.28984" gradientUnits="userSpaceOnUse">
<stop offset="0.00132565" stop-color="#FFCB4B"/>
<stop offset="1" stop-color="#FFD748"/>
</linearGradient>
<linearGradient id="paint3_linear" x1="50.381" y1="16.1799" x2="111.522" y2="55.1694" gradientUnits="userSpaceOnUse">
<stop stop-color="#FFBC47" stop-opacity="0"/>
<stop offset="1" stop-color="#C86F34"/>
</linearGradient>
<linearGradient id="paint4_linear" x1="13.0438" y1="37.8481" x2="67.421" y2="37.8481" gradientUnits="userSpaceOnUse">
<stop offset="0.00132565" stop-color="#FFCB4B"/>
<stop offset="1" stop-color="#FFD748"/>
</linearGradient>
<linearGradient id="paint5_linear" x1="28.9734" y1="65.5294" x2="34.8878" y2="15.385" gradientUnits="userSpaceOnUse">
<stop stop-color="#A1541E" stop-opacity="0"/>
<stop offset="1" stop-color="#C86F34"/>
</linearGradient>
<linearGradient id="paint6_linear" x1="17.8619" y1="20.8705" x2="17.8619" y2="44.6917" gradientUnits="userSpaceOnUse">
<stop offset="0.00132565" stop-color="#FFCB4B"/>
<stop offset="1" stop-color="#FFD748"/>
</linearGradient>
<linearGradient id="paint7_linear" x1="31.6576" y1="20.8697" x2="31.6576" y2="44.6908" gradientUnits="userSpaceOnUse">
<stop offset="0.00132565" stop-color="#FFCB4B"/>
<stop offset="1" stop-color="#FFD748"/>
</linearGradient>
<linearGradient id="paint8_linear" x1="31.9714" y1="20.2752" x2="31.9714" y2="51.8408" gradientUnits="userSpaceOnUse">
<stop stop-color="#FFBC47" stop-opacity="0"/>
<stop offset="1" stop-color="#C86F34"/>
</linearGradient>
<linearGradient id="paint9_linear" x1="17.8618" y1="24.3421" x2="17.8618" y2="6.05542" gradientUnits="userSpaceOnUse">
<stop offset="0.00132565" stop-color="#FFCB4B"/>
<stop offset="1" stop-color="#FFD748"/>
</linearGradient>
<linearGradient id="paint10_linear" x1="31.7055" y1="24.3413" x2="31.7055" y2="6.05462" gradientUnits="userSpaceOnUse">
<stop offset="0.00132565" stop-color="#FFCB4B"/>
<stop offset="1" stop-color="#FFD748"/>
</linearGradient>
<linearGradient id="paint11_linear" x1="22.4179" y1="15.8147" x2="81.152" y2="49.1806" gradientUnits="userSpaceOnUse">
<stop stop-color="#FFBC47" stop-opacity="0"/>
<stop offset="1" stop-color="#C86F34"/>
</linearGradient>
<linearGradient id="paint12_linear" x1="17.7234" y1="20.2666" x2="19.353" y2="47.2833" gradientUnits="userSpaceOnUse">
<stop stop-color="#FFBC47" stop-opacity="0"/>
<stop offset="1" stop-color="#C86F34"/>
</linearGradient>
<linearGradient id="paint13_linear" x1="3.43993" y1="12.7504" x2="94.0822" y2="70.3066" gradientUnits="userSpaceOnUse">
<stop stop-color="#FFBC47" stop-opacity="0"/>
<stop offset="1" stop-color="#C86F34"/>
</linearGradient>
<linearGradient id="paint14_linear" x1="27.2612" y1="50.0993" x2="39.733" y2="12.041" gradientUnits="userSpaceOnUse">
<stop stop-color="#FFBC47" stop-opacity="0"/>
<stop offset="1" stop-color="#C86F34"/>
</linearGradient>
<linearGradient id="paint15_linear" x1="45.8182" y1="19.346" x2="45.0899" y2="42.2577" gradientUnits="userSpaceOnUse">
<stop offset="0.00132565" stop-color="#FFCB4B"/>
<stop offset="1" stop-color="#FFD748"/>
</linearGradient>
<linearGradient id="paint16_linear" x1="45.7023" y1="17.2969" x2="44.6297" y2="51.0457" gradientUnits="userSpaceOnUse">
<stop stop-color="#FFBC47" stop-opacity="0"/>
<stop offset="1" stop-color="#C86F34"/>
</linearGradient>
<linearGradient id="paint17_linear" x1="45.5804" y1="22.8908" x2="46.1475" y2="5.04962" gradientUnits="userSpaceOnUse">
<stop offset="0.00132565" stop-color="#FFCB4B"/>
<stop offset="1" stop-color="#FFD748"/>
</linearGradient>
<linearGradient id="paint18_linear" x1="37.3214" y1="14.2905" x2="93.877" y2="48.8399" gradientUnits="userSpaceOnUse">
<stop stop-color="#FFBC47" stop-opacity="0"/>
<stop offset="1" stop-color="#C86F34"/>
</linearGradient>
<linearGradient id="paint19_linear" x1="13.0439" y1="49.0396" x2="67.4211" y2="49.0396" gradientUnits="userSpaceOnUse">
<stop offset="0.00132565" stop-color="#FFCB4B"/>
<stop offset="1" stop-color="#FFD748"/>
</linearGradient>
<radialGradient id="paint20_radial" cx="0" cy="0" r="1" gradientUnits="userSpaceOnUse" gradientTransform="translate(39.702 -7.93165) scale(97.4723)">
<stop offset="0.6134" stop-color="#FFBC47" stop-opacity="0"/>
<stop offset="1" stop-color="#FF8900"/>
</radialGradient>
<radialGradient id="paint21_radial" cx="0" cy="0" r="1" gradientUnits="userSpaceOnUse" gradientTransform="translate(47.0966 27.921) scale(63.5229 27.2005)">
<stop stop-color="#FFBC47" stop-opacity="0"/>
<stop offset="1" stop-color="#FFA754"/>
</radialGradient>
<linearGradient id="paint22_linear" x1="53.3855" y1="21.3028" x2="44.4709" y2="65.7041" gradientUnits="userSpaceOnUse">
<stop stop-color="#FFBC47" stop-opacity="0"/>
<stop offset="1" stop-color="#FFBC47"/>
</linearGradient>
<radialGradient id="paint23_radial" cx="0" cy="0" r="1" gradientUnits="userSpaceOnUse" gradientTransform="translate(27.9373 53.1191) rotate(-138.967) scale(18.0184 8.22197)">
<stop stop-color="#FBE07A"/>
<stop offset="0.2654" stop-color="#FCDF73" stop-opacity="0.7346"/>
<stop offset="0.6548" stop-color="#FDDB5F" stop-opacity="0.3452"/>
<stop offset="1" stop-color="#FFD748" stop-opacity="0"/>
</radialGradient>
<radialGradient id="paint24_radial" cx="0" cy="0" r="1" gradientUnits="userSpaceOnUse" gradientTransform="translate(55.6053 33.7206) rotate(38.2129) scale(13.8934 5.11566)">
<stop stop-color="#FBE07A"/>
<stop offset="0.2654" stop-color="#FCDF73" stop-opacity="0.7346"/>
<stop offset="0.6548" stop-color="#FDDB5F" stop-opacity="0.3452"/>
<stop offset="1" stop-color="#FFD748" stop-opacity="0"/>
</radialGradient>
</defs>
</svg>
