<svg width="80" height="80" viewBox="0 0 80 80" fill="none" xmlns="http://www.w3.org/2000/svg">
<path d="M39.8112 72C37.3299 72 36.3907 70.0189 36.5823 66.1736C36.7085 63.6412 37.5636 56.5813 33.9842 53.0023C30.6479 49.6663 29.6759 49.9607 25.8769 45.6575C22.078 41.3496 18.9098 42.2373 14.48 42.6158C8.91007 43.0924 10.8072 12.1944 14.7324 12.727C17.5173 13.1055 23.8536 13.867 24.863 13.867C25.8769 13.867 32.8254 8.48454 38.9234 8.4238C48.8016 8.32101 54.2501 10.0685 54.2501 10.0685L57.1426 16.6331L58.1098 36.6539L53.4884 46.2929C53.4884 46.2929 47.283 45.279 45.5073 48.0637C43.7363 50.8484 46.8998 54.2685 46.8998 62.2488C46.8998 70.2292 41.0775 72 39.8112 72Z" fill="url(#paint0_linear)"/>
<path opacity="0.5" d="M45.5073 48.0639C43.7363 50.8485 46.8998 54.2687 46.8998 62.249C46.8998 70.2293 41.0729 72.0001 39.8065 72.0001C39.4748 72.0001 39.1757 71.9627 38.9094 71.8926C44.0775 71.5703 47.1895 65.0524 45.4045 58.3336C43.9606 52.881 43.241 48.5124 45.6008 45.9473C47.1288 44.2886 50.1614 44.569 53.4838 46.293C53.4884 46.293 47.283 45.2792 45.5073 48.0639Z" fill="url(#paint1_radial)"/>
<path opacity="0.16" d="M45.8578 45.223C42.8158 44.2091 35.1431 41.8262 29.3255 36.5558C14.5922 23.193 39.7504 21.5203 44.9419 10.0918C45.9372 7.90518 51.7408 21.5483 51.7408 21.5483L53.6239 24.7068L48.1988 39.149L45.8578 45.223Z" fill="url(#paint2_linear)"/>
<path opacity="0.16" d="M46.3017 44.0644C43.2597 43.0505 30.8441 35.0982 30.8441 31.1688C30.8441 19.8337 39.442 25.4265 44.0915 12.0543C44.7363 10.2041 47.0073 8.64355 47.0073 8.64355C48.8904 10.1807 51.7408 21.5438 51.7408 21.5438L53.6239 24.707L48.1988 39.1491L46.3017 44.0644Z" fill="url(#paint3_linear)"/>
<path d="M53.3202 9.32501L59.1378 15.9737L60.4181 43.7553L45.8577 45.2224C42.5167 43.4236 42.1289 40.9613 43.3718 37.0132C43.8952 35.3498 41.7691 34.8732 41.6335 30.0327C41.5401 26.678 43.7363 26.6593 43.7363 25.6641C43.7363 24.6689 42.6429 24.7577 42.2784 21.8655C41.7597 17.7305 45.2222 17.6511 45.2222 16.768C45.2222 15.8849 43.2971 15.357 43.4186 11.9882C43.5681 7.71306 35.629 8.57743 30.2647 12.4695C28.0591 14.0674 26.1386 14.2309 24.634 13.8712C24.7274 13.8758 24.8069 13.8805 24.8676 13.8805C25.8816 13.8805 32.6852 8.56809 38.928 8.43726C46.3063 8.26906 51.2688 8.8531 53.3202 9.32501Z" fill="url(#paint4_linear)"/>
<path d="M54.6566 43.3913C50.1614 43.3913 47.6895 38.9993 49.3997 35.6212C51.11 32.2432 46.2316 27.7764 46.7409 25.5804C47.2502 23.3844 48.1334 17.815 48.8296 16.8946C49.5259 15.9742 47.6895 13.8856 47.6895 13.8856L53.3903 13.1895L58.7079 15.535L58.5163 31.6171L59.0864 41.6859L54.6566 43.3913Z" fill="url(#paint5_linear)"/>
<path opacity="0.5" d="M39.8112 71.9996C37.33 71.9996 36.3907 70.0186 36.5823 66.1732C36.7085 63.6408 37.5636 56.581 33.9842 53.002C30.6479 49.666 29.6759 49.9603 25.877 45.6571C23.4097 42.8584 21.2089 42.2557 18.7556 42.279C17.4332 42.2931 16.0361 42.4846 14.48 42.6201C14.48 41.6576 14.7604 41.681 18.4332 40.6671C18.8538 40.5503 19.2509 40.4709 19.6388 40.4241C19.8257 39.8401 19.9285 39.2514 19.9051 38.6673C19.7696 35.4668 20.4752 31.528 21.0126 35.6257C21.2229 37.2142 21.8724 38.9991 22.8023 40.7979C24.1948 41.3539 25.3209 42.3958 26.3209 43.6106C28.1853 45.8767 29.8021 47.8858 34.4889 50.9228C39.1757 53.9645 38.5729 62.3186 38.1944 65.108C37.8113 67.8973 38.0636 71.9996 39.8112 71.9996Z" fill="url(#paint6_radial)"/>
<path d="M58.0631 46.4186C52.7454 46.6195 43.1896 46.9232 42.9793 41.3538C42.8251 37.3169 45.6895 35.99 50.1193 35.8218C54.5491 35.6536 56.764 35.5695 58.6004 35.4994C60.4369 35.4293 66.2078 35.4667 66.2638 40.3399C66.3293 46.4326 58.0631 46.4186 58.0631 46.4186Z" fill="url(#paint7_linear)"/>
<path d="M49.3203 26.2858C47.8951 26.3279 43.6662 25.2579 43.2691 22.5713C42.956 20.4594 44.0354 17.7261 47.7175 17.0813C52.381 16.2637 60.1565 15.8385 63.0583 16.9225C64.3573 17.4084 65.4881 18.7634 65.5442 20.8239C65.6049 22.8844 64.0769 25.655 60.7499 25.7532C57.4276 25.8513 55.694 25.7999 53.8015 26.0195C51.5305 26.2951 50.4605 26.2531 49.3203 26.2858Z" fill="url(#paint8_linear)"/>
<path d="M47.8343 16.8946C46.2176 16.8946 44.227 15.4695 44.227 13.096C44.227 10.7224 44.8438 8.96564 48.311 8.2975C51.7782 7.62936 57.3341 8.20406 59.4228 8.86753C61.0489 9.38615 61.6564 10.9093 61.6564 13.4277C61.6564 15.9461 60.091 16.3853 58.3808 16.3853C56.6705 16.3853 54.5958 16.0722 53.4089 16.1376C50.1006 16.3105 49.4511 16.8946 47.8343 16.8946Z" fill="url(#paint9_linear)"/>
<path opacity="0.5" d="M57.6098 45.2931C52.9698 45.4707 44.6242 45.737 44.456 41.3357C44.3345 38.1445 46.8391 37.0885 50.7081 36.939C54.5772 36.7895 64.7545 36.6073 64.7872 40.4619C64.8292 45.2791 57.6098 45.2931 57.6098 45.2931Z" fill="url(#paint10_linear)"/>
<path opacity="0.5" d="M49.7455 25.1551C48.5072 25.1925 45.0306 24.8935 44.6989 22.3284C44.4746 20.5903 45.3764 18.3616 48.582 17.8242C52.6473 17.1468 59.4135 16.787 61.9414 17.6747C63.0676 18.0719 64.0535 19.1792 64.1003 20.8659C64.147 22.5526 62.5956 24.6225 59.7032 24.7019C56.8107 24.786 55.2734 24.5197 53.6192 24.7066C51.6379 24.9262 50.7408 25.1224 49.7455 25.1551Z" fill="url(#paint11_radial)"/>
<path opacity="0.5" d="M48.5259 16.0303C47.1287 16.0303 45.4045 14.8809 45.4045 12.9699C45.4045 11.0589 45.9372 9.6432 48.9371 9.10589C51.937 8.56857 56.7453 9.03113 58.5489 9.56377C59.9554 9.97961 60.4788 11.2084 60.4788 13.2362C60.4788 15.264 59.1237 15.6191 57.6424 15.6191C56.1612 15.6191 54.3668 15.3668 53.3435 15.4182C50.4838 15.5584 49.923 16.0303 48.5259 16.0303Z" fill="url(#paint12_linear)"/>
<path opacity="0.5" d="M18.1809 13.1755C14.4426 14.7828 10.9474 36.7894 17.8398 42.3167C16.7884 42.3821 15.6809 42.5223 14.48 42.6251C8.91007 43.1017 10.8072 12.2037 14.7324 12.7363C15.6202 12.8531 16.8631 13.012 18.1809 13.1755Z" fill="url(#paint13_radial)"/>
<path d="M47.6755 41.3354C47.7923 44.3678 50.2081 45.8209 53.2642 46.4937C48.3857 46.3815 43.1335 45.4704 42.9746 41.3588C42.8204 37.3219 45.6848 35.995 50.1147 35.8268C50.6006 35.8081 51.0633 35.7894 51.4978 35.7754C49.0119 36.4996 47.554 38.1349 47.6755 41.3354Z" fill="url(#paint14_linear)"/>
<path opacity="0.5" d="M48.0913 45.9423C45.255 45.3209 43.0775 43.98 42.9747 41.3541C42.8485 37.9947 44.8064 36.5183 48.0166 36.0137C41.5074 38.6115 43.8438 45.0125 48.0913 45.9423Z" fill="url(#paint15_radial)"/>
<path opacity="0.16" d="M40.5308 14.0347C39.7785 12.3106 36.2085 12.2031 32.5497 13.7917C28.8956 15.3803 26.5405 18.0716 27.2881 19.7957C28.0404 21.5197 31.6105 21.6272 35.2693 20.0386C38.9281 18.45 41.2832 15.7588 40.5308 14.0347Z" fill="url(#paint16_radial)"/>
<path opacity="0.16" d="M62.0442 40.5223C62.0069 38.1908 58.8901 37.0882 55.4837 36.8826C52.694 36.7144 49.6007 38.6861 49.6801 40.9615C49.7595 43.2369 50.166 45.2554 55.9556 45.0545C59.3714 44.933 62.0816 42.7977 62.0442 40.5223Z" fill="url(#paint17_radial)"/>
<path opacity="0.16" d="M62.6659 20.0387C62.6472 16.8148 59.0958 17.4315 55.6894 17.2073C51.367 16.9223 48.5026 18.2679 48.4979 20.5433C48.4979 22.8187 50.1381 24.4821 55.937 24.4914C59.3529 24.4961 62.6892 24.1831 62.6659 20.0387Z" fill="url(#paint18_radial)"/>
<path opacity="0.16" d="M59.5397 11.9041C59.521 9.15212 56.2968 8.77833 53.2455 8.77833C50.1895 8.77366 46.8765 10.395 46.8718 12.334C46.8718 14.2776 48.339 15.6887 53.5212 15.698C56.5771 15.7027 59.5584 15.4364 59.5397 11.9041Z" fill="url(#paint19_radial)"/>
<path d="M47.2316 21.922C47.7175 25.5945 50.5352 25.3795 53.7641 25.7627C50.0446 26.0383 48.4839 26.0804 48.4839 26.0804C48.1381 26.1131 47.7503 26.1178 47.3437 26.0757C46.1335 25.8094 44.7643 25.2581 43.9513 24.2301C43.6756 23.8377 43.4513 23.3751 43.3018 22.8238C43.2877 22.7444 43.2737 22.6649 43.2597 22.5808C42.998 20.4596 44.026 17.7356 47.7082 17.0909C48.2409 16.9974 48.811 16.9086 49.4138 16.8292C49.7035 16.7918 50.0166 16.7544 50.353 16.7124C50.4418 16.703 50.5352 16.689 50.624 16.6797C48.6007 17.6328 46.8718 19.2214 47.2316 21.922Z" fill="url(#paint20_linear)"/>
<path opacity="0.5" d="M48.1288 26.1035C47.8764 26.1129 47.6148 26.1035 47.3391 26.0755C46.1195 25.8045 44.741 25.2485 43.9279 24.2019C43.6616 23.8141 43.4466 23.3562 43.3018 22.8236C43.2878 22.7441 43.2784 22.6647 43.2597 22.5806C42.8859 20.4921 43.9232 18.0298 47.1381 17.2168C41.6569 20.2351 43.998 26.0989 48.1288 26.1035Z" fill="url(#paint21_radial)"/>
<path d="M51.3249 16.3342C49.7034 16.5725 49.0352 16.8948 47.8343 16.8948C46.2176 16.8948 44.227 15.4698 44.227 13.0963C44.227 12.2319 44.3111 11.4516 44.5774 10.7788C44.8484 10.2181 45.2456 9.6948 45.7923 9.25561C46.3904 8.83977 47.2035 8.51271 48.3109 8.30245C49.0539 8.16229 49.8903 8.07351 50.7688 8.03613C49.0726 9.02199 46.2035 9.54996 46.8063 12.8439C47.4698 16.479 49.6427 15.9884 51.3249 16.3342Z" fill="url(#paint22_linear)"/>
<path opacity="0.5" d="M47.7643 16.8948C46.1615 16.8527 44.227 15.437 44.227 13.0962C44.227 10.9189 44.7456 9.26486 47.5026 8.48926C43.199 11.2553 44.5821 15.9136 47.7643 16.8948Z" fill="url(#paint23_radial)"/>
<path opacity="0.5" d="M66.2591 40.34C66.2638 40.8867 66.2031 41.382 66.0862 41.8352C66.5115 39.9335 64.8199 38.0413 60.3247 37.1208C57.3434 36.5134 49.4324 35.7518 43.9559 37.9244C45.1381 36.4947 47.311 35.9247 50.1147 35.8172C54.5445 35.649 56.7594 35.5649 58.5958 35.4948C60.4322 35.4294 66.203 35.4621 66.2591 40.34Z" fill="url(#paint24_linear)"/>
<path d="M65.5489 20.9595C65.5442 23.0013 64.0115 25.6645 60.7546 25.7579C57.4322 25.8561 55.6986 25.8047 53.8061 26.0243C51.5305 26.2906 50.4604 26.2532 49.3203 26.2859C48.4605 26.3093 46.3344 26.0523 44.8905 25.1552C46.5166 24.5899 49.1614 23.7442 52.8856 23.9825C61.806 24.5572 64.348 23.4779 65.5489 20.9595Z" fill="url(#paint25_linear)"/>
<path d="M47.4044 35.4997C45.5073 35.5371 42.4887 34.4204 42.4092 30.477C42.3298 26.5336 45.7783 25.5944 47.297 25.5664C48.8156 25.5384 54.1286 25.1739 60.6845 25.0431C67.2404 24.9123 68.1142 28.4305 68.1516 30.2714C68.189 32.1123 67.0208 35.4483 63.077 35.5278C51.6847 35.7567 47.4044 35.4997 47.4044 35.4997Z" fill="url(#paint26_linear)"/>
<path opacity="0.5" d="M48.4231 34.355C46.7737 34.3877 44.1522 33.5326 44.0915 30.491C44.0307 27.4493 47.0307 26.7157 48.3531 26.6924C49.6755 26.6643 53.8015 26.0242 59.9883 26.2625C65.6844 26.4821 66.4414 28.8603 66.4694 30.2807C66.4975 31.7011 66.3012 34.2755 62.8761 34.3456C52.9698 34.5419 48.4231 34.355 48.4231 34.355Z" fill="url(#paint27_linear)"/>
<path d="M46.4886 30.8604C46.6802 34.9066 49.5025 34.9206 52.6941 35.6168C48.9652 35.5934 47.4045 35.5 47.4045 35.5C45.5073 35.5374 42.4887 34.4207 42.4092 30.4773C42.3298 26.5338 45.7783 25.5947 47.297 25.5666C47.8437 25.5573 48.8857 25.5012 50.3016 25.4312C48.1988 26.3002 46.3484 27.8841 46.4886 30.8604Z" fill="url(#paint28_linear)"/>
<path opacity="0.16" d="M64.8199 30.4396C64.9507 27.2158 61.3714 26.6083 57.9603 26.4448C54.5491 26.2813 50.7549 28.0054 50.6474 30.2808C50.5399 32.5562 52.1006 34.2896 57.8948 34.57C61.3013 34.7382 64.6516 34.5793 64.8199 30.4396Z" fill="url(#paint29_radial)"/>
<path opacity="0.5" d="M47.0493 35.4952C45.1521 35.3924 42.484 34.1823 42.4092 30.4818C42.3345 26.7346 45.4465 25.702 47.0586 25.5806C40.8205 28.0989 42.8672 35.1214 47.0493 35.4952Z" fill="url(#paint30_radial)"/>
<path opacity="0.5" d="M68.1469 30.6686C67.3245 24.8375 51.8997 25.9028 43.5681 27.155C44.6942 25.9495 46.3671 25.5851 47.3016 25.5664C48.8203 25.5384 54.1332 25.1739 60.6892 25.0431C67.2404 24.9123 68.1189 28.4305 68.1563 30.2714C68.1563 30.3976 68.1563 30.5331 68.1469 30.6686Z" fill="url(#paint31_linear)"/>
<path opacity="0.5" d="M60.4182 17.6843C57.4323 17.5535 49.5259 16.5723 43.7644 19.656C44.4045 18.4599 45.6522 17.446 47.7129 17.0862C52.3763 16.2686 60.1518 15.8434 63.0536 16.9274C64.3527 17.4133 65.4835 18.7683 65.5396 20.8288C65.3573 19.0393 63.6471 17.8245 60.4182 17.6843Z" fill="url(#paint32_linear)"/>
<path d="M61.4275 11.2038C59.4696 9.71331 56.0865 8.83491 51.2081 9.66191C48.1942 10.1712 46.1288 10.3441 44.769 10.3814C45.3111 9.40026 46.3625 8.67605 48.3157 8.30227C51.7829 7.6388 57.3388 8.20882 59.4275 8.87229C60.4976 9.21337 61.1238 9.99365 61.4275 11.2038Z" fill="url(#paint33_linear)"/>
<path d="M44.8672 15.2311C48.4839 16.5487 50.2549 14.5957 54.1286 14.5957C58.1472 14.5957 60.0631 16.217 61.4883 14.6751C61.0397 16.1002 59.7547 16.3852 58.3809 16.3852C56.6706 16.3852 54.5959 16.0722 53.409 16.1376C50.1007 16.3104 49.4512 16.8992 47.8344 16.8992C46.7924 16.8945 45.5868 16.2964 44.8672 15.2311Z" fill="url(#paint34_linear)"/>
<path d="M14.7323 12.7314C17.5173 13.1099 23.8536 13.8715 24.8629 13.8715C15.6762 20.4361 19.7602 34.3969 23.1527 41.4615C23.6293 42.452 23.9237 43.265 24.0779 43.9565C21.0219 41.625 18.1949 42.2978 14.4753 42.6202C8.91001 43.0968 10.8072 12.1988 14.7323 12.7314Z" fill="url(#paint35_linear)"/>
<path opacity="0.5" d="M20.5219 19.0765C19.5733 20.3427 20.3957 17.6187 21.1573 15.6564C21.8022 13.9837 16.849 14.9742 13.0547 14.563C13.5501 13.3389 14.1155 12.6474 14.7323 12.7315C17.5173 13.1099 23.8489 13.8715 24.8629 13.8715C23.4377 15.0863 21.4751 17.8103 20.5219 19.0765Z" fill="url(#paint36_radial)"/>
<path opacity="0.5" d="M24.8629 13.8717C24.0732 14.5398 23.1246 15.6705 22.2695 16.7639C22.2695 16.7639 17.6575 14.4043 12.7137 15.5163C13.2838 13.7128 13.966 12.6289 14.7277 12.7363C17.5173 13.1101 23.8536 13.8717 24.8629 13.8717Z" fill="url(#paint37_radial)"/>
<path opacity="0.16" d="M42.7644 60.3847C40.9607 59.9969 39.4981 62.4872 38.671 65.3981C37.9935 67.7763 38.914 70.804 40.685 71.1497C42.456 71.4955 44.0962 71.5048 45.0728 66.4634C45.6476 63.4918 44.5308 60.7678 42.7644 60.3847Z" fill="url(#paint38_radial)"/>
<path d="M47.7643 16.8948C46.7689 16.792 45.8717 16.2593 45.2549 15.5258C44.6287 14.7875 44.3344 13.825 44.3998 12.8532C44.4044 11.8814 44.554 10.8815 45.1054 10.0919C45.6521 9.29757 46.5727 8.82099 47.5026 8.48926C46.5446 8.70418 45.5446 9.10133 44.8998 9.94235C44.2502 10.774 44.096 11.8533 44.068 12.8485C44.0259 13.8624 44.3484 14.9464 45.068 15.694C45.7596 16.4509 46.7596 16.9134 47.7643 16.8948Z" fill="#3D2A20"/>
<path d="M46.1708 25.73C45.5166 25.445 44.9138 25.0572 44.4138 24.576C43.9045 24.0994 43.6335 23.4453 43.4513 22.7818V22.7911C43.2129 21.581 43.4139 20.2961 44.1241 19.2869C44.8204 18.2683 45.9418 17.6002 47.1427 17.2124C45.9091 17.4507 44.6662 18.0487 43.8905 19.1187C43.5027 19.6467 43.2363 20.2588 43.1101 20.9035C42.9793 21.5483 43.0401 22.2211 43.1615 22.8472L43.1662 22.8566C43.3625 23.5527 43.7083 24.2489 44.2783 24.7208C44.825 25.2114 45.4979 25.5104 46.1708 25.73Z" fill="#3D2A20"/>
<path d="M47.0492 35.495C45.8764 35.3595 44.7409 34.8736 43.9279 34.0512C43.1148 33.2289 42.6756 32.0982 42.6055 30.9441C42.4887 29.7948 42.6756 28.5986 43.3297 27.6455C43.9793 26.6877 45.0353 26.0476 46.1708 25.7158C45.0119 25.9261 43.8578 26.5008 43.1242 27.496C42.3765 28.4818 42.1756 29.7807 42.2784 30.9722C42.3765 32.173 42.8485 33.3971 43.755 34.2335C44.6475 35.0745 45.867 35.481 47.0492 35.495Z" fill="#3D2A20"/>
<path d="M48.0914 45.9421C46.8344 45.601 45.5868 45.1244 44.5961 44.3114C43.5962 43.5031 43.0588 42.2509 43.1429 40.9707C43.1242 39.6998 43.5401 38.4009 44.512 37.5553C45.4653 36.7002 46.7503 36.2891 48.0213 36.0181C46.7316 36.1676 45.3952 36.4946 44.3438 37.3637C43.2691 38.2234 42.8158 39.6485 42.8111 40.966C42.741 42.307 43.3438 43.7087 44.4373 44.5123C45.512 45.3253 46.811 45.7131 48.0914 45.9421Z" fill="#3D2A20"/>
<path d="M43.7689 19.6555C44.6334 18.1604 46.2922 17.3848 47.9371 17.1605C49.6052 16.9035 51.2921 16.726 52.9743 16.6185C54.6565 16.4737 56.3481 16.3896 58.0396 16.3943C58.8854 16.4036 59.7312 16.427 60.5676 16.5111C61.4087 16.5765 62.2545 16.6652 63.0629 16.9316C61.4648 16.3335 59.7312 16.2354 58.0443 16.1793C56.3481 16.1373 54.6472 16.184 52.951 16.2961C51.2594 16.441 49.5725 16.6559 47.8997 16.9503C47.0586 17.0904 46.2175 17.3474 45.4838 17.7959C44.7502 18.2445 44.1474 18.8986 43.7689 19.6555Z" fill="#3D2A20"/>
<path d="M43.5681 27.1598C44.2129 26.515 45.0494 26.0898 45.9185 25.8749C46.783 25.6179 47.6941 25.674 48.61 25.6319L54.0725 25.4731L59.5349 25.2021C61.348 25.09 63.189 25.0666 64.9273 25.66C63.2358 24.9404 61.3339 24.8797 59.5302 24.9778L54.0678 25.1367L48.6053 25.4077C47.7082 25.4684 46.7643 25.4264 45.8764 25.716C44.9933 25.9917 44.1755 26.4776 43.5681 27.1598Z" fill="#3D2A20"/>
<path d="M63.0815 35.5273C61.7732 35.5227 60.4695 35.4853 59.1611 35.4993L55.2406 35.49L51.3249 35.4339C50.0212 35.4245 48.7128 35.4199 47.4138 35.3685H47.4044C46.1194 35.3918 44.7877 34.9526 43.8625 34.0322C42.9186 33.1211 42.4747 31.7988 42.4139 30.4766C42.4233 31.14 42.4933 31.8035 42.6989 32.4436C42.9045 33.0837 43.255 33.6771 43.7316 34.1583C44.6849 35.1349 46.054 35.6208 47.4091 35.6254H47.3997C50.0165 35.7843 52.6286 35.7843 55.2453 35.7423C57.8574 35.7189 60.4741 35.6675 63.0815 35.5273Z" fill="#3D2A20"/>
<defs>
<linearGradient id="paint0_linear" x1="53.6932" y1="40.7401" x2="34.6401" y2="39.9751" gradientUnits="userSpaceOnUse">
<stop offset="0.00132565" stop-color="#5A4539"/>
<stop offset="1" stop-color="#695042"/>
</linearGradient>
<radialGradient id="paint1_radial" cx="0" cy="0" r="1" gradientUnits="userSpaceOnUse" gradientTransform="translate(46.2138 58.4621) scale(10.8954 10.8943)">
<stop stop-color="#695042" stop-opacity="0"/>
<stop offset="1" stop-color="#5A4539"/>
</radialGradient>
<linearGradient id="paint2_linear" x1="27.9705" y1="28.7582" x2="69.0058" y2="25.9082" gradientUnits="userSpaceOnUse">
<stop offset="0.00132565" stop-color="#473226"/>
<stop offset="1" stop-color="#3D2A20"/>
</linearGradient>
<linearGradient id="paint3_linear" x1="32.1691" y1="27.091" x2="67.6952" y2="25.286" gradientUnits="userSpaceOnUse">
<stop offset="0.00132565" stop-color="#473226"/>
<stop offset="1" stop-color="#3D2A20"/>
</linearGradient>
<linearGradient id="paint4_linear" x1="23.185" y1="22.8457" x2="93.6667" y2="34.6255" gradientUnits="userSpaceOnUse">
<stop stop-color="#3C2200" stop-opacity="0"/>
<stop offset="0.9984"/>
</linearGradient>
<linearGradient id="paint5_linear" x1="45.0353" y1="27.1371" x2="58.1868" y2="28.8652" gradientUnits="userSpaceOnUse">
<stop stop-color="#3C2200" stop-opacity="0"/>
<stop offset="1" stop-color="#3C2200"/>
</linearGradient>
<radialGradient id="paint6_radial" cx="0" cy="0" r="1" gradientUnits="userSpaceOnUse" gradientTransform="translate(27.1618 52.9783) scale(16.1812 16.1796)">
<stop stop-color="#695042" stop-opacity="0"/>
<stop offset="1" stop-color="#5A4539"/>
</radialGradient>
<linearGradient id="paint7_linear" x1="64.3622" y1="42.3739" x2="85.3548" y2="45.7938" gradientUnits="userSpaceOnUse">
<stop offset="0.00132565" stop-color="#5A4539"/>
<stop offset="1" stop-color="#695042"/>
</linearGradient>
<linearGradient id="paint8_linear" x1="55.3747" y1="16.8178" x2="50.9111" y2="37.3811" gradientUnits="userSpaceOnUse">
<stop offset="0.00132565" stop-color="#5A4539"/>
<stop offset="1" stop-color="#695042"/>
</linearGradient>
<linearGradient id="paint9_linear" x1="52.9013" y1="6.85077" x2="53.0438" y2="29.3135" gradientUnits="userSpaceOnUse">
<stop offset="0.00132565" stop-color="#5A4539"/>
<stop offset="1" stop-color="#695042"/>
</linearGradient>
<linearGradient id="paint10_linear" x1="44.4506" y1="41.127" x2="64.7858" y2="41.127" gradientUnits="userSpaceOnUse">
<stop offset="0.3072" stop-color="#473226" stop-opacity="0"/>
<stop offset="1" stop-color="#473226"/>
</linearGradient>
<radialGradient id="paint11_radial" cx="0" cy="0" r="1" gradientUnits="userSpaceOnUse" gradientTransform="translate(54.3969 21.2016) scale(7.42975 7.42902)">
<stop stop-color="#473226"/>
<stop offset="0.6928" stop-color="#473226" stop-opacity="0"/>
</radialGradient>
<linearGradient id="paint12_linear" x1="45.4033" y1="12.4497" x2="60.4804" y2="12.4497" gradientUnits="userSpaceOnUse">
<stop offset="0.3072" stop-color="#473226" stop-opacity="0"/>
<stop offset="1" stop-color="#473226"/>
</linearGradient>
<radialGradient id="paint13_radial" cx="0" cy="0" r="1" gradientUnits="userSpaceOnUse" gradientTransform="translate(14.6114 27.7242) scale(10.8699 10.8689)">
<stop stop-color="#695042" stop-opacity="0"/>
<stop offset="1" stop-color="#5A4539"/>
</radialGradient>
<linearGradient id="paint14_linear" x1="52.9182" y1="41.262" x2="39.3347" y2="39.742" gradientUnits="userSpaceOnUse">
<stop offset="0.3131" stop-color="#473226" stop-opacity="0"/>
<stop offset="1" stop-color="#3D2A20"/>
</linearGradient>
<radialGradient id="paint15_radial" cx="0" cy="0" r="1" gradientUnits="userSpaceOnUse" gradientTransform="translate(45.5443 41.0238) scale(3.9486 3.94821)">
<stop stop-color="#695042" stop-opacity="0"/>
<stop offset="1" stop-color="#5A4539"/>
</radialGradient>
<radialGradient id="paint16_radial" cx="0" cy="0" r="1" gradientUnits="userSpaceOnUse" gradientTransform="translate(33.8977 16.9153) rotate(-7.55813) scale(5.64645 2.68227)">
<stop stop-color="#695042"/>
<stop offset="1" stop-color="#5A4539" stop-opacity="0"/>
</radialGradient>
<radialGradient id="paint17_radial" cx="0" cy="0" r="1" gradientUnits="userSpaceOnUse" gradientTransform="translate(55.8686 40.911) rotate(-2.02599) scale(6.3505 4.16697)">
<stop stop-color="#99643E"/>
<stop offset="1" stop-color="#CD9870" stop-opacity="0"/>
</radialGradient>
<radialGradient id="paint18_radial" cx="0" cy="0" r="1" gradientUnits="userSpaceOnUse" gradientTransform="translate(55.5611 20.498) rotate(0.0543701) scale(6.82045 3.67425)">
<stop stop-color="#99643E"/>
<stop offset="1" stop-color="#CD9870" stop-opacity="0"/>
</radialGradient>
<radialGradient id="paint19_radial" cx="0" cy="0" r="1" gradientUnits="userSpaceOnUse" gradientTransform="translate(53.2118 12.2386) rotate(0.0539345) scale(6.24356 3.90563)">
<stop stop-color="#99643E"/>
<stop offset="1" stop-color="#CD9870" stop-opacity="0"/>
</radialGradient>
<linearGradient id="paint20_linear" x1="53.5775" y1="21.2673" x2="33.7247" y2="21.8373" gradientUnits="userSpaceOnUse">
<stop offset="0.2173" stop-color="#473226" stop-opacity="0"/>
<stop offset="1" stop-color="#3D2A20"/>
</linearGradient>
<radialGradient id="paint21_radial" cx="0" cy="0" r="1" gradientUnits="userSpaceOnUse" gradientTransform="translate(45.6755 21.707) scale(3.59605 3.59568)">
<stop stop-color="#695042" stop-opacity="0"/>
<stop offset="1" stop-color="#5A4539"/>
</radialGradient>
<linearGradient id="paint22_linear" x1="54.188" y1="13.193" x2="37.2801" y2="10.7231" gradientUnits="userSpaceOnUse">
<stop offset="0.2173" stop-color="#473226" stop-opacity="0"/>
<stop offset="1" stop-color="#3D2A20"/>
</linearGradient>
<radialGradient id="paint23_radial" cx="0" cy="0" r="1" gradientUnits="userSpaceOnUse" gradientTransform="translate(46.0082 12.7448) scale(3.22305 3.22271)">
<stop stop-color="#695042" stop-opacity="0"/>
<stop offset="1" stop-color="#5A4539"/>
</radialGradient>
<linearGradient id="paint24_linear" x1="54.7696" y1="41.1088" x2="56.0042" y2="35.1883" gradientUnits="userSpaceOnUse">
<stop stop-color="#695042" stop-opacity="0"/>
<stop offset="1" stop-color="#473226"/>
</linearGradient>
<linearGradient id="paint25_linear" x1="55.001" y1="19.52" x2="55.8557" y2="33.4346" gradientUnits="userSpaceOnUse">
<stop stop-color="#3C2200" stop-opacity="0"/>
<stop offset="0.9984"/>
</linearGradient>
<linearGradient id="paint26_linear" x1="55.4432" y1="31.6997" x2="57.2001" y2="46.0417" gradientUnits="userSpaceOnUse">
<stop offset="0.00132565" stop-color="#5A4539"/>
<stop offset="1" stop-color="#695042"/>
</linearGradient>
<linearGradient id="paint27_linear" x1="44.0936" y1="30.3236" x2="66.4759" y2="30.3236" gradientUnits="userSpaceOnUse">
<stop offset="0.3072" stop-color="#473226" stop-opacity="0"/>
<stop offset="1" stop-color="#473226"/>
</linearGradient>
<linearGradient id="paint28_linear" x1="49.4326" y1="30.5251" x2="38.7519" y2="30.5251" gradientUnits="userSpaceOnUse">
<stop offset="0.2173" stop-color="#473226" stop-opacity="0"/>
<stop offset="1" stop-color="#3D2A20"/>
</linearGradient>
<radialGradient id="paint29_radial" cx="0" cy="0" r="1" gradientUnits="userSpaceOnUse" gradientTransform="translate(57.7291 30.5188) rotate(2.73462) scale(7.24386 4.75161)">
<stop stop-color="#99643E"/>
<stop offset="1" stop-color="#CD9870" stop-opacity="0"/>
</radialGradient>
<radialGradient id="paint30_radial" cx="0" cy="0" r="1" gradientUnits="userSpaceOnUse" gradientTransform="translate(44.7502 30.5862) scale(3.87133 3.87096)">
<stop stop-color="#695042" stop-opacity="0"/>
<stop offset="1" stop-color="#5A4539"/>
</radialGradient>
<linearGradient id="paint31_linear" x1="55.6826" y1="31.1675" x2="56.1891" y2="24.5822" gradientUnits="userSpaceOnUse">
<stop stop-color="#695042" stop-opacity="0"/>
<stop offset="1" stop-color="#473226"/>
</linearGradient>
<linearGradient id="paint32_linear" x1="54.987" y1="25.6949" x2="54.6704" y2="20.4393" gradientUnits="userSpaceOnUse">
<stop stop-color="#695042" stop-opacity="0"/>
<stop offset="1" stop-color="#473226"/>
</linearGradient>
<linearGradient id="paint33_linear" x1="52.9984" y1="11.7108" x2="53.7582" y2="4.58733" gradientUnits="userSpaceOnUse">
<stop stop-color="#695042" stop-opacity="0"/>
<stop offset="1" stop-color="#473226"/>
</linearGradient>
<linearGradient id="paint34_linear" x1="53.2111" y1="10.9403" x2="53.1161" y2="22.3854" gradientUnits="userSpaceOnUse">
<stop stop-color="#3C2200" stop-opacity="0"/>
<stop offset="0.9984"/>
</linearGradient>
<linearGradient id="paint35_linear" x1="12.6699" y1="32.7633" x2="-11.2658" y2="48.8883" gradientUnits="userSpaceOnUse">
<stop offset="0.3105" stop-color="#804B24" stop-opacity="0"/>
<stop offset="1" stop-color="#804B24"/>
</linearGradient>
<radialGradient id="paint36_radial" cx="0" cy="0" r="1" gradientUnits="userSpaceOnUse" gradientTransform="translate(7.62281 -13.2061) scale(32.8605 32.8572)">
<stop stop-color="#695042" stop-opacity="0"/>
<stop offset="1" stop-color="#5A4539"/>
</radialGradient>
<radialGradient id="paint37_radial" cx="0" cy="0" r="1" gradientUnits="userSpaceOnUse" gradientTransform="translate(7.62285 -13.2059) scale(32.8605 32.8572)">
<stop stop-color="#695042" stop-opacity="0"/>
<stop offset="1" stop-color="#5A4539"/>
</radialGradient>
<radialGradient id="paint38_radial" cx="0" cy="0" r="1" gradientUnits="userSpaceOnUse" gradientTransform="translate(41.8444 65.8025) rotate(-79.0604) scale(5.24733 3.18556)">
<stop stop-color="#695042"/>
<stop offset="1" stop-color="#5A4539" stop-opacity="0"/>
</radialGradient>
</defs>
</svg>
